<?xml version="1.0" encoding="UTF-8" standalone="no"?>
<!DOCTYPE svg PUBLIC "-//W3C//DTD SVG 1.1//EN"
 "http://www.w3.org/Graphics/SVG/1.1/DTD/svg11.dtd">
<!-- Generated by graphviz version 2.30.1 (20170916.1124)
 -->
<!-- Title: config_src Pages: 1 -->
<svg width="596pt" height="132pt"
 viewBox="0.00 0.00 596.00 132.00" xmlns="http://www.w3.org/2000/svg" xmlns:xlink="http://www.w3.org/1999/xlink">
<g id="graph0" class="graph" transform="scale(1 1) rotate(0) translate(4 128)">
<title>config_src</title>
<polygon fill="white" stroke="white" points="-4,5 -4,-128 593,-128 593,5 -4,5"/>
<g id="clust1" class="cluster"><title>clusterdir_bbbeac63f53ec5ea699fa4cbaa8c4afb</title>
<g id="a_clust1"><a xlink:href="dir_bbbeac63f53ec5ea699fa4cbaa8c4afb.html" target="_top">
<polygon fill="#eeeeff" stroke="black" points="8,-64 8,-116 580,-116 580,-64 8,-64"/>
</a>
</g>
</g>
<!-- dir_bbbeac63f53ec5ea699fa4cbaa8c4afb -->
<g id="node1" class="node"><title>dir_bbbeac63f53ec5ea699fa4cbaa8c4afb</title>
<text text-anchor="middle" x="545" y="-87.5" font-family="Helvetica,sans-Serif" font-size="10.00">config_src</text>
</g>
<!-- dir_a19e664d9f2d0f5526bad3c5f3c3e9c4 -->
<g id="node2" class="node"><title>dir_a19e664d9f2d0f5526bad3c5f3c3e9c4</title>
<g id="a_node2"><a xlink:href="dir_a19e664d9f2d0f5526bad3c5f3c3e9c4.html" target="_top" xlink:title="coupled_driver">
<polygon fill="white" stroke="black" points="499.25,-108 430.75,-108 430.75,-72 499.25,-72 499.25,-108"/>
<text text-anchor="middle" x="465" y="-87.5" font-family="Helvetica,sans-Serif" font-size="10.00">coupled_driver</text>
</a>
</g>
</g>
<!-- dir_ace7d7e60715266d6e5872450ebbdac1 -->
<g id="node3" class="node"><title>dir_ace7d7e60715266d6e5872450ebbdac1</title>
<g id="a_node3"><a xlink:href="dir_ace7d7e60715266d6e5872450ebbdac1.html" target="_top" xlink:title="dynamic">
<polygon fill="white" stroke="black" points="412,-108 358,-108 358,-72 412,-72 412,-108"/>
<text text-anchor="middle" x="385" y="-87.5" font-family="Helvetica,sans-Serif" font-size="10.00">dynamic</text>
</a>
</g>
</g>
<!-- dir_68267d1309a1af8e8297ef4c3efbcdba -->
<g id="node8" class="node"><title>dir_68267d1309a1af8e8297ef4c3efbcdba</title>
<g id="a_node8"><a xlink:href="dir_68267d1309a1af8e8297ef4c3efbcdba.html" target="_top" xlink:title="src">
<polygon fill="white" stroke="red" points="228,-36 174,-36 174,-0 228,-0 228,-36"/>
<text text-anchor="middle" x="201" y="-15.5" font-family="Helvetica,sans-Serif" font-size="10.00">src</text>
</a>
</g>
</g>
<!-- dir_ace7d7e60715266d6e5872450ebbdac1&#45;&gt;dir_68267d1309a1af8e8297ef4c3efbcdba -->
<g id="edge2" class="edge"><title>dir_ace7d7e60715266d6e5872450ebbdac1&#45;&gt;dir_68267d1309a1af8e8297ef4c3efbcdba</title>
<path fill="none" stroke="black" d="M362.414,-71.7462C358.102,-68.9115 353.52,-66.1893 349,-64 312.953,-46.5394 268.675,-34.1502 237.992,-26.8495"/>
<polygon fill="black" stroke="black" points="238.67,-23.4141 228.138,-24.5688 237.091,-30.2338 238.67,-23.4141"/>
<g id="a_edge2&#45;headlabel"><a xlink:href="dir_000004_000007.html" target="_top" xlink:title="1">
<text text-anchor="middle" x="242.812" y="-18.9585" font-family="Helvetica,sans-Serif" font-size="10.00">1</text>
</a>
</g>
</g>
<!-- dir_67fed18fa7f74247fef50848ceb46cee -->
<g id="node4" class="node"><title>dir_67fed18fa7f74247fef50848ceb46cee</title>
<g id="a_node4"><a xlink:href="dir_67fed18fa7f74247fef50848ceb46cee.html" target="_top" xlink:title="dynamic_symmetric">
<polygon fill="white" stroke="black" points="340,-108 254,-108 254,-72 340,-72 340,-108"/>
<text text-anchor="middle" x="297" y="-87.5" font-family="Helvetica,sans-Serif" font-size="10.00">dynamic_symmetric</text>
</a>
</g>
</g>
<!-- dir_67fed18fa7f74247fef50848ceb46cee&#45;&gt;dir_68267d1309a1af8e8297ef4c3efbcdba -->
<g id="edge4" class="edge"><title>dir_67fed18fa7f74247fef50848ceb46cee&#45;&gt;dir_68267d1309a1af8e8297ef4c3efbcdba</title>
<path fill="none" stroke="black" d="M273.27,-71.6966C261.063,-62.796 246.015,-51.8232 232.816,-42.1989"/>
<polygon fill="black" stroke="black" points="234.6,-39.1681 224.457,-36.1043 230.475,-44.8241 234.6,-39.1681"/>
<g id="a_edge4&#45;headlabel"><a xlink:href="dir_000005_000007.html" target="_top" xlink:title="1">
<text text-anchor="middle" x="239.177" y="-36.4917" font-family="Helvetica,sans-Serif" font-size="10.00">1</text>
</a>
</g>
</g>
<!-- dir_cc1172264cc124e8fb521e3735251027 -->
<g id="node5" class="node"><title>dir_cc1172264cc124e8fb521e3735251027</title>
<g id="a_node5"><a xlink:href="dir_cc1172264cc124e8fb521e3735251027.html" target="_top" xlink:title="ice_solo_driver">
<polygon fill="white" stroke="black" points="236,-108 166,-108 166,-72 236,-72 236,-108"/>
<text text-anchor="middle" x="201" y="-87.5" font-family="Helvetica,sans-Serif" font-size="10.00">ice_solo_driver</text>
</a>
</g>
</g>
<!-- dir_cc1172264cc124e8fb521e3735251027&#45;&gt;dir_68267d1309a1af8e8297ef4c3efbcdba -->
<g id="edge3" class="edge"><title>dir_cc1172264cc124e8fb521e3735251027&#45;&gt;dir_68267d1309a1af8e8297ef4c3efbcdba</title>
<path fill="none" stroke="black" d="M201,-71.6966C201,-63.9827 201,-54.7125 201,-46.1124"/>
<polygon fill="black" stroke="black" points="204.5,-46.1043 201,-36.1043 197.5,-46.1044 204.5,-46.1043"/>
<g id="a_edge3&#45;headlabel"><a xlink:href="dir_000002_000007.html" target="_top" xlink:title="2">
<text text-anchor="middle" x="207.339" y="-47.199" font-family="Helvetica,sans-Serif" font-size="10.00">2</text>
</a>
</g>
</g>
<!-- dir_ccbaa27a715db0631841e4cd1db1cd75 -->
<g id="node6" class="node"><title>dir_ccbaa27a715db0631841e4cd1db1cd75</title>
<g id="a_node6"><a xlink:href="dir_ccbaa27a715db0631841e4cd1db1cd75.html" target="_top" xlink:title="solo_driver">
<polygon fill="white" stroke="black" points="148,-108 92,-108 92,-72 148,-72 148,-108"/>
<text text-anchor="middle" x="120" y="-87.5" font-family="Helvetica,sans-Serif" font-size="10.00">solo_driver</text>
</a>
</g>
</g>
<!-- dir_ccbaa27a715db0631841e4cd1db1cd75&#45;&gt;dir_68267d1309a1af8e8297ef4c3efbcdba -->
<g id="edge1" class="edge"><title>dir_ccbaa27a715db0631841e4cd1db1cd75&#45;&gt;dir_68267d1309a1af8e8297ef4c3efbcdba</title>
<path fill="none" stroke="black" d="M140.022,-71.6966C150.126,-62.9655 162.536,-52.2405 173.518,-42.7503"/>
<polygon fill="black" stroke="black" points="175.93,-45.2912 181.208,-36.1043 171.353,-39.9948 175.93,-45.2912"/>
<g id="a_edge1&#45;headlabel"><a xlink:href="dir_000003_000007.html" target="_top" xlink:title="2">
<text text-anchor="middle" x="175.067" y="-47.2897" font-family="Helvetica,sans-Serif" font-size="10.00">2</text>
</a>
</g>
</g>
<!-- dir_6c6e2340d51f66750cad17382fc63a45 -->
<g id="node7" class="node"><title>dir_6c6e2340d51f66750cad17382fc63a45</title>
<g id="a_node7"><a xlink:href="dir_6c6e2340d51f66750cad17382fc63a45.html" target="_top" xlink:title="unit_drivers">
<polygon fill="white" stroke="black" points="74,-108 16,-108 16,-72 74,-72 74,-108"/>
<text text-anchor="middle" x="45" y="-87.5" font-family="Helvetica,sans-Serif" font-size="10.00">unit_drivers</text>
</a>
</g>
</g>
<!-- dir_6c6e2340d51f66750cad17382fc63a45&#45;&gt;dir_68267d1309a1af8e8297ef4c3efbcdba -->
<g id="edge5" class="edge"><title>dir_6c6e2340d51f66750cad17382fc63a45&#45;&gt;dir_68267d1309a1af8e8297ef4c3efbcdba</title>
<path fill="none" stroke="black" d="M69.4707,-71.7925C73.8767,-69.0169 78.5011,-66.3029 83,-64 109.128,-50.6252 140.199,-38.9326 163.898,-30.8206"/>
<polygon fill="black" stroke="black" points="165.204,-34.0739 173.567,-27.5687 162.973,-27.439 165.204,-34.0739"/>
<g id="a_edge5&#45;headlabel"><a xlink:href="dir_000006_000007.html" target="_top" xlink:title="1">
<text text-anchor="middle" x="162.702" y="-35.4108" font-family="Helvetica,sans-Serif" font-size="10.00">1</text>
</a>
</g>
</g>
</g>
</svg>
