<?xml version="1.0" encoding="UTF-8" standalone="no"?>
<!DOCTYPE svg PUBLIC "-//W3C//DTD SVG 1.1//EN"
 "http://www.w3.org/Graphics/SVG/1.1/DTD/svg11.dtd">
<!-- Generated by graphviz version 2.30.1 (20170916.1124)
 -->
<!-- Title: src/parameterizations/lateral Pages: 1 -->
<svg width="104pt" height="151pt"
 viewBox="0.00 0.00 104.00 151.00" xmlns="http://www.w3.org/2000/svg" xmlns:xlink="http://www.w3.org/1999/xlink">
<g id="graph0" class="graph" transform="scale(1 1) rotate(0) translate(4 147)">
<title>src/parameterizations/lateral</title>
<polygon fill="white" stroke="white" points="-4,5 -4,-147 101,-147 101,5 -4,5"/>
<g id="clust1" class="cluster"><title>clusterdir_8224c134a2c31ae723fb95b3c4123a27</title>
<g id="a_clust1"><a xlink:href="dir_8224c134a2c31ae723fb95b3c4123a27.html" target="_top" xlink:title="parameterizations">
<polygon fill="#ddddee" stroke="black" points="8,-64 8,-135 88,-135 88,-64 8,-64"/>
<text text-anchor="middle" x="48" y="-123" font-family="Helvetica,sans-Serif" font-size="10.00">parameterizations</text>
</a>
</g>
</g>
<!-- dir_4dc28a03eeeca3fbf7680a6cc4bb4970 -->
<g id="node1" class="node"><title>dir_4dc28a03eeeca3fbf7680a6cc4bb4970</title>
<g id="a_node1"><a xlink:href="dir_4dc28a03eeeca3fbf7680a6cc4bb4970.html" target="_top" xlink:title="lateral">
<polygon fill="#eeeeff" stroke="black" points="75,-108 21,-108 21,-72 75,-72 75,-108"/>
<text text-anchor="middle" x="48" y="-87.5" font-family="Helvetica,sans-Serif" font-size="10.00">lateral</text>
</a>
</g>
</g>
<!-- dir_5752cadd8276ecfd63d9b924f2a4d4b5 -->
<g id="node2" class="node"><title>dir_5752cadd8276ecfd63d9b924f2a4d4b5</title>
<g id="a_node2"><a xlink:href="dir_5752cadd8276ecfd63d9b924f2a4d4b5.html" target="_top" xlink:title="framework">
<polygon fill="none" stroke="black" points="75.25,-36 20.75,-36 20.75,-0 75.25,-0 75.25,-36"/>
<text text-anchor="middle" x="48" y="-15.5" font-family="Helvetica,sans-Serif" font-size="10.00">framework</text>
</a>
</g>
</g>
<!-- dir_4dc28a03eeeca3fbf7680a6cc4bb4970&#45;&gt;dir_5752cadd8276ecfd63d9b924f2a4d4b5 -->
<g id="edge1" class="edge"><title>dir_4dc28a03eeeca3fbf7680a6cc4bb4970&#45;&gt;dir_5752cadd8276ecfd63d9b924f2a4d4b5</title>
<path fill="none" stroke="black" d="M48,-71.6966C48,-63.9827 48,-54.7125 48,-46.1124"/>
<polygon fill="black" stroke="black" points="51.5001,-46.1043 48,-36.1043 44.5001,-46.1044 51.5001,-46.1043"/>
<g id="a_edge1&#45;headlabel"><a xlink:href="dir_000017_000013.html" target="_top" xlink:title="2">
<text text-anchor="middle" x="54.3393" y="-47.199" font-family="Helvetica,sans-Serif" font-size="10.00">2</text>
</a>
</g>
</g>
</g>
</svg>
