<?xml version="1.0" encoding="UTF-8" standalone="no"?>
<!DOCTYPE svg PUBLIC "-//W3C//DTD SVG 1.1//EN"
 "http://www.w3.org/Graphics/SVG/1.1/DTD/svg11.dtd">
<!-- Generated by graphviz version 2.30.1 (20170916.1124)
 -->
<!-- Title: gsw_sp_from_sr Pages: 1 -->
<svg width="386pt" height="126pt"
 viewBox="0.00 0.00 386.00 126.00" xmlns="http://www.w3.org/2000/svg" xmlns:xlink="http://www.w3.org/1999/xlink">
<g id="graph0" class="graph" transform="scale(1 1) rotate(0) translate(4 122)">
<title>gsw_sp_from_sr</title>
<polygon fill="white" stroke="white" points="-4,5 -4,-122 383,-122 383,5 -4,5"/>
<!-- Node1 -->
<g id="node1" class="node"><title>Node1</title>
<g id="a_node1"><a xlink:title=" ">
<polygon fill="#bfbfbf" stroke="black" points="302,-22.5 302,-41.5 378,-41.5 378,-22.5 302,-22.5"/>
<text text-anchor="middle" x="340" y="-29.5" font-family="Helvetica,sans-Serif" font-size="10.00">gsw_sp_from_sr</text>
</a>
</g>
</g>
<!-- Node2 -->
<g id="node2" class="node"><title>Node2</title>
<g id="a_node2"><a xlink:href="namespaceocean__model__mod.html#a6a8bf59f8921de9dbff794f676b54aba" target="_top" xlink:title=" ">
<polygon fill="white" stroke="black" points="150,-39 150,-69 266,-69 266,-39 150,-39"/>
<text text-anchor="start" x="158" y="-57" font-family="Helvetica,sans-Serif" font-size="10.00">ocean_model_mod::convert</text>
<text text-anchor="middle" x="208" y="-46" font-family="Helvetica,sans-Serif" font-size="10.00">_state_to_ocean_type</text>
</a>
</g>
</g>
<!-- Node1&#45;&gt;Node2 -->
<g id="edge1" class="edge"><title>Node1&#45;&gt;Node2</title>
<path fill="none" stroke="midnightblue" d="M291.825,-39.9834C283.485,-41.3948 274.72,-42.8781 266.141,-44.33"/>
<polygon fill="midnightblue" stroke="midnightblue" points="292.471,-43.4239 301.747,-38.3043 291.303,-36.522 292.471,-43.4239"/>
</g>
<!-- Node5 -->
<g id="node5" class="node"><title>Node5</title>
<g id="a_node5"><a xlink:href="namespacemom.html#a4c8332b095c6d295084089aa6b3b678a" target="_top" xlink:title="This subroutine orchestrates the time stepping of MOM. The adiabatic dynamics are stepped by calls to...">
<polygon fill="white" stroke="black" points="169.5,-0.5 169.5,-19.5 246.5,-19.5 246.5,-0.5 169.5,-0.5"/>
<text text-anchor="middle" x="208" y="-7.5" font-family="Helvetica,sans-Serif" font-size="10.00">mom::step_mom</text>
</a>
</g>
</g>
<!-- Node1&#45;&gt;Node5 -->
<g id="edge4" class="edge"><title>Node1&#45;&gt;Node5</title>
<path fill="none" stroke="midnightblue" d="M291.744,-24.0028C276.926,-21.4951 260.776,-18.762 246.709,-16.3815"/>
<polygon fill="midnightblue" stroke="midnightblue" points="291.303,-27.478 301.747,-25.6957 292.471,-20.5761 291.303,-27.478"/>
</g>
<!-- Node3 -->
<g id="node3" class="node"><title>Node3</title>
<g id="a_node3"><a xlink:href="namespaceocean__model__mod.html#ac9dc1795fc4799d6682f462857b42d62" target="_top" xlink:title=" ">
<polygon fill="white" stroke="black" points="0,-88 0,-118 114,-118 114,-88 0,-88"/>
<text text-anchor="start" x="8" y="-106" font-family="Helvetica,sans-Serif" font-size="10.00">ocean_model_mod::update</text>
<text text-anchor="middle" x="57" y="-95" font-family="Helvetica,sans-Serif" font-size="10.00">_ocean_model</text>
</a>
</g>
</g>
<!-- Node2&#45;&gt;Node3 -->
<g id="edge2" class="edge"><title>Node2&#45;&gt;Node3</title>
<path fill="none" stroke="midnightblue" d="M151.477,-72.2591C135.762,-77.4273 118.839,-82.9924 103.769,-87.9484"/>
<polygon fill="midnightblue" stroke="midnightblue" points="152.673,-75.5503 161.079,-69.1014 150.486,-68.9007 152.673,-75.5503"/>
</g>
<!-- Node4 -->
<g id="node4" class="node"><title>Node4</title>
<g id="a_node4"><a xlink:href="namespaceocean__model__mod.html#a2fca652469ca65c63305060534a14c0e" target="_top" xlink:title=" ">
<polygon fill="white" stroke="black" points="1.5,-39 1.5,-69 112.5,-69 112.5,-39 1.5,-39"/>
<text text-anchor="start" x="9.5" y="-57" font-family="Helvetica,sans-Serif" font-size="10.00">ocean_model_mod::ocean</text>
<text text-anchor="middle" x="57" y="-46" font-family="Helvetica,sans-Serif" font-size="10.00">_model_init_sfc</text>
</a>
</g>
</g>
<!-- Node2&#45;&gt;Node4 -->
<g id="edge3" class="edge"><title>Node2&#45;&gt;Node4</title>
<path fill="none" stroke="midnightblue" d="M139.738,-54C130.73,-54 121.58,-54 112.821,-54"/>
<polygon fill="midnightblue" stroke="midnightblue" points="139.819,-57.5001 149.819,-54 139.819,-50.5001 139.819,-57.5001"/>
</g>
<!-- Node6 -->
<g id="node6" class="node"><title>Node6</title>
<g id="a_node6"><a xlink:href="MOM__driver_8F90.html#a08fffeb2d8e8acbf9ed4609be6d258c6" target="_top" xlink:title=" ">
<polygon fill="white" stroke="black" points="29,-0.5 29,-19.5 85,-19.5 85,-0.5 29,-0.5"/>
<text text-anchor="middle" x="57" y="-7.5" font-family="Helvetica,sans-Serif" font-size="10.00">mom_main</text>
</a>
</g>
</g>
<!-- Node5&#45;&gt;Node6 -->
<g id="edge5" class="edge"><title>Node5&#45;&gt;Node6</title>
<path fill="none" stroke="midnightblue" d="M159.228,-10C134.771,-10 105.885,-10 85.2422,-10"/>
<polygon fill="midnightblue" stroke="midnightblue" points="159.401,-13.5001 169.401,-10 159.401,-6.5001 159.401,-13.5001"/>
</g>
</g>
</svg>
