<?xml version="1.0" encoding="UTF-8" standalone="no"?>
<!DOCTYPE svg PUBLIC "-//W3C//DTD SVG 1.1//EN"
 "http://www.w3.org/Graphics/SVG/1.1/DTD/svg11.dtd">
<!-- Generated by graphviz version 2.30.1 (20170916.1124)
 -->
<!-- Title: test_ifndp Pages: 1 -->
<svg width="200pt" height="50pt"
 viewBox="0.00 0.00 200.00 50.00" xmlns="http://www.w3.org/2000/svg" xmlns:xlink="http://www.w3.org/1999/xlink">
<g id="graph0" class="graph" transform="scale(1 1) rotate(0) translate(4 46)">
<title>test_ifndp</title>
<polygon fill="white" stroke="white" points="-4,5 -4,-46 197,-46 197,5 -4,5"/>
<!-- Node29 -->
<g id="node1" class="node"><title>Node29</title>
<g id="a_node1"><a xlink:title="Returns true if a test of interpolate_for_nondim_position() fails, and conditionally writes results t...">
<polygon fill="#bfbfbf" stroke="black" points="0.5,-11.5 0.5,-30.5 51.5,-30.5 51.5,-11.5 0.5,-11.5"/>
<text text-anchor="middle" x="26" y="-18.5" font-family="Helvetica,sans-Serif" font-size="10.00">test_ifndp</text>
</a>
</g>
</g>
<!-- Node30 -->
<g id="node2" class="node"><title>Node30</title>
<g id="a_node2"><a xlink:href="namespacemom__neutral__diffusion.html#a666836e70bdae7ef4ec271246cf91993" target="_top" xlink:title="Returns the non&#45;dimensional position between Pneg and Ppos where the interpolated density difference ...">
<polygon fill="white" stroke="black" points="88,-0.5 88,-41.5 192,-41.5 192,-0.5 88,-0.5"/>
<text text-anchor="start" x="96" y="-29.5" font-family="Helvetica,sans-Serif" font-size="10.00">mom_neutral_diffusion</text>
<text text-anchor="start" x="96" y="-18.5" font-family="Helvetica,sans-Serif" font-size="10.00">::interpolate_for_nondim</text>
<text text-anchor="middle" x="140" y="-7.5" font-family="Helvetica,sans-Serif" font-size="10.00">_position</text>
</a>
</g>
</g>
<!-- Node29&#45;&gt;Node30 -->
<g id="edge1" class="edge"><title>Node29&#45;&gt;Node30</title>
<path fill="none" stroke="midnightblue" d="M51.5789,-21C59.4287,-21 68.4965,-21 77.7572,-21"/>
<polygon fill="midnightblue" stroke="midnightblue" points="77.8332,-24.5001 87.8332,-21 77.8332,-17.5001 77.8332,-24.5001"/>
</g>
</g>
</svg>
