<?xml version="1.0" encoding="UTF-8" standalone="no"?>
<!DOCTYPE svg PUBLIC "-//W3C//DTD SVG 1.1//EN"
 "http://www.w3.org/Graphics/SVG/1.1/DTD/svg11.dtd">
<!-- Generated by graphviz version 2.30.1 (20170916.1124)
 -->
<!-- Title: interpret_int_expr Pages: 1 -->
<svg width="496pt" height="87pt"
 viewBox="0.00 0.00 496.00 87.00" xmlns="http://www.w3.org/2000/svg" xmlns:xlink="http://www.w3.org/1999/xlink">
<g id="graph0" class="graph" transform="scale(1 1) rotate(0) translate(4 83)">
<title>interpret_int_expr</title>
<polygon fill="white" stroke="white" points="-4,5 -4,-83 493,-83 493,5 -4,5"/>
<!-- Node3 -->
<g id="node1" class="node"><title>Node3</title>
<g id="a_node1"><a xlink:title=" ">
<polygon fill="#bfbfbf" stroke="black" points="408,-29.5 408,-48.5 488,-48.5 488,-29.5 408,-29.5"/>
<text text-anchor="middle" x="448" y="-36.5" font-family="Helvetica,sans-Serif" font-size="10.00">interpret_int_expr</text>
</a>
</g>
</g>
<!-- Node4 -->
<g id="node2" class="node"><title>Node4</title>
<g id="a_node2"><a xlink:href="namespacemom__open__boundary.html#ad40be6b6ce4c94040b7de59bde9be77f" target="_top" xlink:title="Parse an OBC_SEGMENT_%%% string.">
<polygon fill="white" stroke="black" points="272,-24 272,-54 372,-54 372,-24 272,-24"/>
<text text-anchor="start" x="280" y="-42" font-family="Helvetica,sans-Serif" font-size="10.00">mom_open_boundary::</text>
<text text-anchor="middle" x="322" y="-31" font-family="Helvetica,sans-Serif" font-size="10.00">parse_segment_str</text>
</a>
</g>
</g>
<!-- Node3&#45;&gt;Node4 -->
<g id="edge1" class="edge"><title>Node3&#45;&gt;Node4</title>
<path fill="none" stroke="midnightblue" d="M397.669,-39C389.222,-39 380.447,-39 372.008,-39"/>
<polygon fill="midnightblue" stroke="midnightblue" points="397.766,-42.5001 407.766,-39 397.766,-35.5001 397.766,-42.5001"/>
</g>
<!-- Node5 -->
<g id="node3" class="node"><title>Node5</title>
<g id="a_node3"><a xlink:href="namespacemom__open__boundary.html#ab7c14cc1f67490ff9326c35471fb7ef7" target="_top" xlink:title="Parse an OBC_SEGMENT_%%% string starting with &quot;I=&quot; and configure placement and type of OBC accordingl...">
<polygon fill="white" stroke="black" points="136,-49 136,-79 236,-79 236,-49 136,-49"/>
<text text-anchor="start" x="144" y="-67" font-family="Helvetica,sans-Serif" font-size="10.00">mom_open_boundary::</text>
<text text-anchor="middle" x="186" y="-56" font-family="Helvetica,sans-Serif" font-size="10.00">setup_u_point_obc</text>
</a>
</g>
</g>
<!-- Node4&#45;&gt;Node5 -->
<g id="edge2" class="edge"><title>Node4&#45;&gt;Node5</title>
<path fill="none" stroke="midnightblue" d="M261.883,-50.0294C253.282,-51.634 244.505,-53.2715 236.13,-54.834"/>
<polygon fill="midnightblue" stroke="midnightblue" points="262.676,-53.4419 271.864,-48.1671 261.392,-46.5606 262.676,-53.4419"/>
</g>
<!-- Node7 -->
<g id="node5" class="node"><title>Node7</title>
<g id="a_node5"><a xlink:href="namespacemom__open__boundary.html#ae298511b7acc78ed5cd780ad967318cc" target="_top" xlink:title="Parse an OBC_SEGMENT_%%% string starting with &quot;J=&quot; and configure placement and type of OBC accordingl...">
<polygon fill="white" stroke="black" points="136,-0 136,-30 236,-30 236,-0 136,-0"/>
<text text-anchor="start" x="144" y="-18" font-family="Helvetica,sans-Serif" font-size="10.00">mom_open_boundary::</text>
<text text-anchor="middle" x="186" y="-7" font-family="Helvetica,sans-Serif" font-size="10.00">setup_v_point_obc</text>
</a>
</g>
</g>
<!-- Node4&#45;&gt;Node7 -->
<g id="edge4" class="edge"><title>Node4&#45;&gt;Node7</title>
<path fill="none" stroke="midnightblue" d="M261.883,-28.4118C253.282,-26.8713 244.505,-25.2994 236.13,-23.7994"/>
<polygon fill="midnightblue" stroke="midnightblue" points="261.404,-31.8817 271.864,-30.1996 262.638,-24.9913 261.404,-31.8817"/>
</g>
<!-- Node6 -->
<g id="node4" class="node"><title>Node6</title>
<g id="a_node4"><a xlink:href="namespacemom__open__boundary.html#a0d3f0ce359b2852f00092f7fef88cd5f" target="_top" xlink:title="Enables OBC module and reads configuration parameters.">
<polygon fill="white" stroke="black" points="0,-24 0,-54 100,-54 100,-24 0,-24"/>
<text text-anchor="start" x="8" y="-42" font-family="Helvetica,sans-Serif" font-size="10.00">mom_open_boundary::</text>
<text text-anchor="middle" x="50" y="-31" font-family="Helvetica,sans-Serif" font-size="10.00">open_boundary_config</text>
</a>
</g>
</g>
<!-- Node5&#45;&gt;Node6 -->
<g id="edge3" class="edge"><title>Node5&#45;&gt;Node6</title>
<path fill="none" stroke="midnightblue" d="M125.883,-52.9706C117.282,-51.366 108.505,-49.7285 100.13,-48.166"/>
<polygon fill="midnightblue" stroke="midnightblue" points="125.392,-56.4394 135.864,-54.8329 126.676,-49.5581 125.392,-56.4394"/>
</g>
<!-- Node7&#45;&gt;Node6 -->
<g id="edge5" class="edge"><title>Node7&#45;&gt;Node6</title>
<path fill="none" stroke="midnightblue" d="M125.883,-25.5882C117.282,-27.1287 108.505,-28.7006 100.13,-30.2006"/>
<polygon fill="midnightblue" stroke="midnightblue" points="126.638,-29.0087 135.864,-23.8004 125.404,-22.1183 126.638,-29.0087"/>
</g>
</g>
</svg>
