<?xml version="1.0" encoding="UTF-8" standalone="no"?>
<!DOCTYPE svg PUBLIC "-//W3C//DTD SVG 1.1//EN"
 "http://www.w3.org/Graphics/SVG/1.1/DTD/svg11.dtd">
<!-- Generated by graphviz version 2.30.1 (20170916.1124)
 -->
<!-- Title: subchk Pages: 1 -->
<svg width="216pt" height="28pt"
 viewBox="0.00 0.00 216.00 28.00" xmlns="http://www.w3.org/2000/svg" xmlns:xlink="http://www.w3.org/1999/xlink">
<g id="graph0" class="graph" transform="scale(1 1) rotate(0) translate(4 24)">
<title>subchk</title>
<polygon fill="white" stroke="white" points="-4,5 -4,-24 213,-24 213,5 -4,5"/>
<!-- Node0 -->
<g id="node1" class="node"><title>Node0</title>
<g id="a_node1"><a xlink:title=" ">
<polygon fill="#bfbfbf" stroke="black" points="0.5,-0.5 0.5,-19.5 41.5,-19.5 41.5,-0.5 0.5,-0.5"/>
<text text-anchor="middle" x="21" y="-7.5" font-family="Helvetica,sans-Serif" font-size="10.00">subchk</text>
</a>
</g>
</g>
<!-- Node1 -->
<g id="node2" class="node"><title>Node1</title>
<g id="a_node2"><a xlink:href="bitcount_8c.html#a1a85442e9619e6567aff105d1e220d79" target="_top" xlink:title=" ">
<polygon fill="white" stroke="black" points="78,-0.5 78,-19.5 122,-19.5 122,-0.5 78,-0.5"/>
<text text-anchor="middle" x="100" y="-7.5" font-family="Helvetica,sans-Serif" font-size="10.00">bitcount</text>
</a>
</g>
</g>
<!-- Node0&#45;&gt;Node1 -->
<g id="edge1" class="edge"><title>Node0&#45;&gt;Node1</title>
<path fill="none" stroke="midnightblue" d="M41.8294,-10C49.6858,-10 58.9109,-10 67.6303,-10"/>
<polygon fill="midnightblue" stroke="midnightblue" points="67.8894,-13.5001 77.8894,-10 67.8894,-6.5001 67.8894,-13.5001"/>
</g>
<!-- Node2 -->
<g id="node3" class="node"><title>Node2</title>
<g id="a_node3"><a xlink:href="bitcount_8c.html#a477f7151726da4134659eb88f6296c66" target="_top" xlink:title=" ">
<polygon fill="white" stroke="black" points="158.5,-0.5 158.5,-19.5 207.5,-19.5 207.5,-0.5 158.5,-0.5"/>
<text text-anchor="middle" x="183" y="-7.5" font-family="Helvetica,sans-Serif" font-size="10.00">bitcount_</text>
</a>
</g>
</g>
<!-- Node1&#45;&gt;Node2 -->
<g id="edge2" class="edge"><title>Node1&#45;&gt;Node2</title>
<path fill="none" stroke="midnightblue" d="M122.282,-10C130.233,-10 139.47,-10 148.268,-10"/>
<polygon fill="midnightblue" stroke="midnightblue" points="148.292,-13.5001 158.292,-10 148.292,-6.5001 148.292,-13.5001"/>
</g>
</g>
</svg>
