<?xml version="1.0" encoding="UTF-8" standalone="no"?>
<!DOCTYPE svg PUBLIC "-//W3C//DTD SVG 1.1//EN"
 "http://www.w3.org/Graphics/SVG/1.1/DTD/svg11.dtd">
<!-- Generated by graphviz version 2.30.1 (20170916.1124)
 -->
<!-- Title: src/parameterizations/vertical/MOM_entrain_diffusive.F90 Pages: 1 -->
<svg width="183pt" height="106pt"
 viewBox="0.00 0.00 183.00 106.00" xmlns="http://www.w3.org/2000/svg" xmlns:xlink="http://www.w3.org/1999/xlink">
<g id="graph0" class="graph" transform="scale(1 1) rotate(0) translate(4 102)">
<title>src/parameterizations/vertical/MOM_entrain_diffusive.F90</title>
<polygon fill="white" stroke="white" points="-4,5 -4,-102 180,-102 180,5 -4,5"/>
<!-- Node0 -->
<g id="node1" class="node"><title>Node0</title>
<g id="a_node1"><a xlink:title=" ">
<polygon fill="#bfbfbf" stroke="black" points="38.5,-56.5 38.5,-97.5 133.5,-97.5 133.5,-56.5 38.5,-56.5"/>
<text text-anchor="start" x="46.5" y="-85.5" font-family="Helvetica,sans-Serif" font-size="10.00">src/parameterizations</text>
<text text-anchor="start" x="46.5" y="-74.5" font-family="Helvetica,sans-Serif" font-size="10.00">/vertical/MOM_entrain</text>
<text text-anchor="middle" x="86" y="-63.5" font-family="Helvetica,sans-Serif" font-size="10.00">_diffusive.F90</text>
</a>
</g>
</g>
<!-- Node1 -->
<g id="node2" class="node"><title>Node1</title>
<g id="a_node2"><a xlink:title=" ">
<polygon fill="white" stroke="#bfbfbf" points="-0.5,-0.5 -0.5,-19.5 76.5,-19.5 76.5,-0.5 -0.5,-0.5"/>
<text text-anchor="middle" x="38" y="-7.5" font-family="Helvetica,sans-Serif" font-size="10.00">MOM_memory.h</text>
</a>
</g>
</g>
<!-- Node0&#45;&gt;Node1 -->
<g id="edge1" class="edge"><title>Node0&#45;&gt;Node1</title>
<path fill="none" stroke="midnightblue" d="M71.5984,-56.4979C64.876,-47.3946 56.9506,-36.6623 50.486,-27.9081"/>
<polygon fill="midnightblue" stroke="midnightblue" points="53.1455,-25.6177 44.3895,-19.6525 47.5145,-29.776 53.1455,-25.6177"/>
</g>
<!-- Node2 -->
<g id="node3" class="node"><title>Node2</title>
<g id="a_node3"><a xlink:href="version__variable_8h.html" target="_top" xlink:title=" ">
<polygon fill="white" stroke="black" points="94.5,-0.5 94.5,-19.5 175.5,-19.5 175.5,-0.5 94.5,-0.5"/>
<text text-anchor="middle" x="135" y="-7.5" font-family="Helvetica,sans-Serif" font-size="10.00">version_variable.h</text>
</a>
</g>
</g>
<!-- Node0&#45;&gt;Node2 -->
<g id="edge2" class="edge"><title>Node0&#45;&gt;Node2</title>
<path fill="none" stroke="midnightblue" d="M100.702,-56.4979C107.564,-47.3946 115.655,-36.6623 122.254,-27.9081"/>
<polygon fill="midnightblue" stroke="midnightblue" points="125.253,-29.7446 128.477,-19.6525 119.663,-25.5309 125.253,-29.7446"/>
</g>
</g>
</svg>
