<?xml version="1.0" encoding="UTF-8" standalone="no"?>
<!DOCTYPE svg PUBLIC "-//W3C//DTD SVG 1.1//EN"
 "http://www.w3.org/Graphics/SVG/1.1/DTD/svg11.dtd">
<!-- Generated by graphviz version 2.30.1 (20170916.1124)
 -->
<!-- Title: ideal_age_example::ideal_age_stock Pages: 1 -->
<svg width="642pt" height="38pt"
 viewBox="0.00 0.00 642.00 38.00" xmlns="http://www.w3.org/2000/svg" xmlns:xlink="http://www.w3.org/1999/xlink">
<g id="graph0" class="graph" transform="scale(1 1) rotate(0) translate(4 34)">
<title>ideal_age_example::ideal_age_stock</title>
<polygon fill="white" stroke="white" points="-4,5 -4,-34 639,-34 639,5 -4,5"/>
<!-- Node3 -->
<g id="node1" class="node"><title>Node3</title>
<g id="a_node1"><a xlink:title=" ">
<polygon fill="#bfbfbf" stroke="black" points="0,-0 0,-30 90,-30 90,-0 0,-0"/>
<text text-anchor="start" x="8" y="-18" font-family="Helvetica,sans-Serif" font-size="10.00">ideal_age_example::</text>
<text text-anchor="middle" x="45" y="-7" font-family="Helvetica,sans-Serif" font-size="10.00">ideal_age_stock</text>
</a>
</g>
</g>
<!-- Node4 -->
<g id="node2" class="node"><title>Node4</title>
<g id="a_node2"><a xlink:href="namespacemom__io.html#a23e82d1d89d9bb1c9bdf802ce80d4508" target="_top" xlink:title="This routine queries vardesc.">
<polygon fill="white" stroke="black" points="126,-5.5 126,-24.5 228,-24.5 228,-5.5 126,-5.5"/>
<text text-anchor="middle" x="177" y="-12.5" font-family="Helvetica,sans-Serif" font-size="10.00">mom_io::query_vardesc</text>
</a>
</g>
</g>
<!-- Node3&#45;&gt;Node4 -->
<g id="edge1" class="edge"><title>Node3&#45;&gt;Node4</title>
<path fill="none" stroke="midnightblue" d="M90.0121,-15C98.2712,-15 107.037,-15 115.691,-15"/>
<polygon fill="midnightblue" stroke="midnightblue" points="115.762,-18.5001 125.762,-15 115.762,-11.5001 115.762,-18.5001"/>
</g>
<!-- Node5 -->
<g id="node3" class="node"><title>Node5</title>
<g id="a_node3"><a xlink:href="namespacemom__io.html#ac4bc408e8b38dbd669842753f26ebf88" target="_top" xlink:title="Copies a string.">
<polygon fill="white" stroke="black" points="264,-5.5 264,-24.5 374,-24.5 374,-5.5 264,-5.5"/>
<text text-anchor="middle" x="319" y="-12.5" font-family="Helvetica,sans-Serif" font-size="10.00">mom_io::safe_string_copy</text>
</a>
</g>
</g>
<!-- Node4&#45;&gt;Node5 -->
<g id="edge2" class="edge"><title>Node4&#45;&gt;Node5</title>
<path fill="none" stroke="midnightblue" d="M228.148,-15C236.494,-15 245.251,-15 253.887,-15"/>
<polygon fill="midnightblue" stroke="midnightblue" points="253.938,-18.5001 263.938,-15 253.938,-11.5001 253.938,-18.5001"/>
</g>
<!-- Node6 -->
<g id="node4" class="node"><title>Node6</title>
<g id="a_node4"><a xlink:href="namespacemom__error__handler.html#a460cfb79a06c29fc249952c2a3710d67" target="_top" xlink:title=" ">
<polygon fill="white" stroke="black" points="410.5,-0 410.5,-30 503.5,-30 503.5,-0 410.5,-0"/>
<text text-anchor="start" x="418.5" y="-18" font-family="Helvetica,sans-Serif" font-size="10.00">mom_error_handler::</text>
<text text-anchor="middle" x="457" y="-7" font-family="Helvetica,sans-Serif" font-size="10.00">mom_error</text>
</a>
</g>
</g>
<!-- Node5&#45;&gt;Node6 -->
<g id="edge3" class="edge"><title>Node5&#45;&gt;Node6</title>
<path fill="none" stroke="midnightblue" d="M374.142,-15C382.767,-15 391.702,-15 400.361,-15"/>
<polygon fill="midnightblue" stroke="midnightblue" points="400.364,-18.5001 410.364,-15 400.364,-11.5001 400.364,-18.5001"/>
</g>
<!-- Node7 -->
<g id="node5" class="node"><title>Node7</title>
<g id="a_node5"><a xlink:href="namespacemom__error__handler.html#ad5f00a53059c72fe2332d1436c80ca71" target="_top" xlink:title=" ">
<polygon fill="white" stroke="black" points="540.5,-0 540.5,-30 633.5,-30 633.5,-0 540.5,-0"/>
<text text-anchor="start" x="548.5" y="-18" font-family="Helvetica,sans-Serif" font-size="10.00">mom_error_handler::</text>
<text text-anchor="middle" x="587" y="-7" font-family="Helvetica,sans-Serif" font-size="10.00">is_root_pe</text>
</a>
</g>
</g>
<!-- Node6&#45;&gt;Node7 -->
<g id="edge4" class="edge"><title>Node6&#45;&gt;Node7</title>
<path fill="none" stroke="midnightblue" d="M503.849,-15C512.408,-15 521.439,-15 530.258,-15"/>
<polygon fill="midnightblue" stroke="midnightblue" points="530.471,-18.5001 540.471,-15 530.471,-11.5001 530.471,-18.5001"/>
</g>
</g>
</svg>
