<?xml version="1.0" encoding="UTF-8" standalone="no"?>
<!DOCTYPE svg PUBLIC "-//W3C//DTD SVG 1.1//EN"
 "http://www.w3.org/Graphics/SVG/1.1/DTD/svg11.dtd">
<!-- Generated by graphviz version 2.30.1 (20170916.1124)
 -->
<!-- Title: dome2d_initialization::dome2d_initialize_sponges Pages: 1 -->
<!--zoomable 214 -->
<svg id="main" version="1.1" xmlns="http://www.w3.org/2000/svg" xmlns:xlink="http://www.w3.org/1999/xlink" xml:space="preserve" onload="init(evt)">
<style type="text/css"><![CDATA[
.edge:hover path { stroke: red; }
.edge:hover polygon { stroke: red; fill: red; }
]]></style>
<script type="text/javascript"><![CDATA[
var edges = document.getElementsByTagName('g');
if (edges && edges.length) {
  for (var i=0;i<edges.length;i++) {
    if (edges[i].id.substr(0,4)=='edge') {
      edges[i].setAttribute('class','edge');
    }
  }
}
]]></script>
        <defs>
                <circle id="rim" cx="0" cy="0" r="7"/>
                <circle id="rim2" cx="0" cy="0" r="3.5"/>
                <g id="zoomPlus">
                        <use xlink:href="#rim" fill="#404040">
                                <set attributeName="fill" to="#808080" begin="zoomplus.mouseover" end="zoomplus.mouseout"/>
                        </use>
                        <path d="M-4,0h8M0,-4v8" fill="none" stroke="white" stroke-width="1.5" pointer-events="none"/>
                </g>
                <g id="zoomMin">
                        <use xlink:href="#rim" fill="#404040">
                                <set attributeName="fill" to="#808080" begin="zoomminus.mouseover" end="zoomminus.mouseout"/>
                        </use>
                        <path d="M-4,0h8" fill="none" stroke="white" stroke-width="1.5" pointer-events="none"/>
                </g>
                <g id="dirArrow">
                        <path fill="none" stroke="white" stroke-width="1.5" d="M0,-3.0v7 M-2.5,-0.5L0,-3.0L2.5,-0.5"/>
                </g>
               <g id="resetDef">
                       <use xlink:href="#rim2" fill="#404040">
                               <set attributeName="fill" to="#808080" begin="reset.mouseover" end="reset.mouseout"/>
                       </use>
               </g>
        </defs>

<script type="text/javascript">
var viewWidth = 1030;
var viewHeight = 214;
var sectionId = 'dynsection-0';
</script>
<script xlink:href="svgpan.js"/>
<svg id="graph" class="graph">
<g id="viewport">
<title>dome2d_initialization::dome2d_initialize_sponges</title>
<polygon fill="white" stroke="white" points="-4,5 -4,-210 1027,-210 1027,5 -4,5"/>
<!-- Node0 -->
<g id="node1" class="node"><title>Node0</title>
<g id="a_node1"><a xlink:title="Set up sponges in 2d DOME configuration.">
<polygon fill="#bfbfbf" stroke="black" points="0,-64 0,-94 116,-94 116,-64 0,-64"/>
<text text-anchor="start" x="8" y="-82" font-family="Helvetica,sans-Serif" font-size="10.00">dome2d_initialization</text>
<text text-anchor="middle" x="58" y="-71" font-family="Helvetica,sans-Serif" font-size="10.00">::dome2d_initialize_sponges</text>
</a>
</g>
</g>
<!-- Node1 -->
<g id="node2" class="node"><title>Node1</title>
<g id="a_node2"><a xlink:href="namespacemom__ale__sponge.html#a135d5ca4d0dff789bc6db5ac789b4142" target="_top" xlink:title="This subroutine determines the number of points which are within.">
<polygon fill="white" stroke="black" points="152,-132 152,-162 264,-162 264,-132 152,-132"/>
<text text-anchor="start" x="160" y="-150" font-family="Helvetica,sans-Serif" font-size="10.00">mom_ale_sponge::initialize</text>
<text text-anchor="middle" x="208" y="-139" font-family="Helvetica,sans-Serif" font-size="10.00">_ale_sponge</text>
</a>
</g>
</g>
<!-- Node0&#45;&gt;Node1 -->
<g id="edge1" class="edge"><title>Node0&#45;&gt;Node1</title>
<path fill="none" stroke="midnightblue" d="M91.846,-94.0914C113.402,-103.996 141.79,-117.039 164.985,-127.696"/>
<polygon fill="midnightblue" stroke="midnightblue" points="163.698,-130.956 174.246,-131.951 166.62,-124.595 163.698,-130.956"/>
</g>
<!-- Node8 -->
<g id="node9" class="node"><title>Node8</title>
<g id="a_node9"><a xlink:href="namespacemom__sponge.html#a61184539a8e8e9d27dd9071c509b68bf" target="_top" xlink:title=" ">
<polygon fill="white" stroke="black" points="306.5,-88 306.5,-118 403.5,-118 403.5,-88 306.5,-88"/>
<text text-anchor="start" x="314.5" y="-106" font-family="Helvetica,sans-Serif" font-size="10.00">mom_sponge::initialize</text>
<text text-anchor="middle" x="355" y="-95" font-family="Helvetica,sans-Serif" font-size="10.00">_sponge</text>
</a>
</g>
</g>
<!-- Node0&#45;&gt;Node8 -->
<g id="edge9" class="edge"><title>Node0&#45;&gt;Node8</title>
<path fill="none" stroke="midnightblue" d="M116.229,-83.6559C168.066,-87.8731 244.072,-94.0567 296.112,-98.2905"/>
<polygon fill="midnightblue" stroke="midnightblue" points="295.936,-101.788 306.187,-99.1101 296.504,-94.8107 295.936,-101.788"/>
</g>
<!-- Node2 -->
<g id="node3" class="node"><title>Node2</title>
<g id="a_node3"><a xlink:href="namespacemom__error__handler.html#a460cfb79a06c29fc249952c2a3710d67" target="_top" xlink:title=" ">
<polygon fill="white" stroke="black" points="797.5,-88 797.5,-118 890.5,-118 890.5,-88 797.5,-88"/>
<text text-anchor="start" x="805.5" y="-106" font-family="Helvetica,sans-Serif" font-size="10.00">mom_error_handler::</text>
<text text-anchor="middle" x="844" y="-95" font-family="Helvetica,sans-Serif" font-size="10.00">mom_error</text>
</a>
</g>
</g>
<!-- Node0&#45;&gt;Node2 -->
<g id="edge11" class="edge"><title>Node0&#45;&gt;Node2</title>
<path fill="none" stroke="midnightblue" d="M116.027,-72.8361C175.389,-66.9597 271.097,-59 354,-59 354,-59 354,-59 507,-59 606.467,-59 721.105,-78.1915 787.491,-91.2252"/>
<polygon fill="midnightblue" stroke="midnightblue" points="786.834,-94.663 797.324,-93.1803 788.199,-87.7974 786.834,-94.663"/>
</g>
<!-- Node9 -->
<g id="node10" class="node"><title>Node9</title>
<g id="a_node10"><a xlink:href="namespacemom__ale__sponge.html#adfb5d248683fa9d6accfcf5638303c3f" target="_top" xlink:title="This subroutine stores the reference profile for the variable.">
<polygon fill="white" stroke="black" points="458.5,-0 458.5,-30 553.5,-30 553.5,-0 458.5,-0"/>
<text text-anchor="start" x="466.5" y="-18" font-family="Helvetica,sans-Serif" font-size="10.00">mom_ale_sponge::set</text>
<text text-anchor="middle" x="506" y="-7" font-family="Helvetica,sans-Serif" font-size="10.00">_up_ale_sponge_field</text>
</a>
</g>
</g>
<!-- Node0&#45;&gt;Node9 -->
<g id="edge12" class="edge"><title>Node0&#45;&gt;Node9</title>
<path fill="none" stroke="midnightblue" d="M93.6712,-63.8303C110.887,-56.9461 132.193,-49.3801 152,-45 254.677,-22.2937 377.659,-16.5356 448.025,-15.2154"/>
<polygon fill="midnightblue" stroke="midnightblue" points="448.494,-18.7083 458.436,-15.0455 448.38,-11.7093 448.494,-18.7083"/>
</g>
<!-- Node1&#45;&gt;Node2 -->
<g id="edge2" class="edge"><title>Node1&#45;&gt;Node2</title>
<path fill="none" stroke="midnightblue" d="M264.306,-146.049C363.774,-143.88 579.33,-137.091 760,-117 768.864,-116.014 778.219,-114.703 787.327,-113.277"/>
<polygon fill="midnightblue" stroke="midnightblue" points="788.157,-116.688 797.466,-111.63 787.034,-109.779 788.157,-116.688"/>
</g>
<!-- Node4 -->
<g id="node5" class="node"><title>Node4</title>
<g id="a_node5"><a xlink:href="namespacemom__remapping.html#a6847e0c44ccb54fb72587677f90d95b6" target="_top" xlink:title="Constructor for remapping control structure.">
<polygon fill="white" stroke="black" points="300.5,-176 300.5,-206 409.5,-206 409.5,-176 300.5,-176"/>
<text text-anchor="start" x="308.5" y="-194" font-family="Helvetica,sans-Serif" font-size="10.00">mom_remapping::initialize</text>
<text text-anchor="middle" x="355" y="-183" font-family="Helvetica,sans-Serif" font-size="10.00">_remapping</text>
</a>
</g>
</g>
<!-- Node1&#45;&gt;Node4 -->
<g id="edge4" class="edge"><title>Node1&#45;&gt;Node4</title>
<path fill="none" stroke="midnightblue" d="M258.495,-162.019C270.032,-165.52 282.437,-169.284 294.361,-172.903"/>
<polygon fill="midnightblue" stroke="midnightblue" points="293.65,-176.344 304.236,-175.899 295.683,-169.646 293.65,-176.344"/>
</g>
<!-- Node3 -->
<g id="node4" class="node"><title>Node3</title>
<g id="a_node4"><a xlink:href="namespacemom__error__handler.html#ad5f00a53059c72fe2332d1436c80ca71" target="_top" xlink:title=" ">
<polygon fill="white" stroke="black" points="928.5,-88 928.5,-118 1021.5,-118 1021.5,-88 928.5,-88"/>
<text text-anchor="start" x="936.5" y="-106" font-family="Helvetica,sans-Serif" font-size="10.00">mom_error_handler::</text>
<text text-anchor="middle" x="975" y="-95" font-family="Helvetica,sans-Serif" font-size="10.00">is_root_pe</text>
</a>
</g>
</g>
<!-- Node2&#45;&gt;Node3 -->
<g id="edge3" class="edge"><title>Node2&#45;&gt;Node3</title>
<path fill="none" stroke="midnightblue" d="M890.844,-103C899.683,-103 909.034,-103 918.151,-103"/>
<polygon fill="midnightblue" stroke="midnightblue" points="918.304,-106.5 928.304,-103 918.304,-99.5001 918.304,-106.5"/>
</g>
<!-- Node5 -->
<g id="node6" class="node"><title>Node5</title>
<g id="a_node6"><a xlink:href="namespacemom__remapping.html#a9e811f89c505a4416ea0eec315769801" target="_top" xlink:title="Set parameters within remapping object.">
<polygon fill="white" stroke="black" points="446,-176 446,-206 566,-206 566,-176 446,-176"/>
<text text-anchor="start" x="454" y="-194" font-family="Helvetica,sans-Serif" font-size="10.00">mom_remapping::remapping</text>
<text text-anchor="middle" x="506" y="-183" font-family="Helvetica,sans-Serif" font-size="10.00">_set_param</text>
</a>
</g>
</g>
<!-- Node4&#45;&gt;Node5 -->
<g id="edge5" class="edge"><title>Node4&#45;&gt;Node5</title>
<path fill="none" stroke="midnightblue" d="M409.792,-191C418.24,-191 427.074,-191 435.81,-191"/>
<polygon fill="midnightblue" stroke="midnightblue" points="435.991,-194.5 445.991,-191 435.991,-187.5 435.991,-194.5"/>
</g>
<!-- Node6 -->
<g id="node7" class="node"><title>Node6</title>
<g id="a_node7"><a xlink:href="namespacemom__remapping.html#a41a89ac62578250500b7a450d5fdfae7" target="_top" xlink:title="Changes the method of reconstruction Use this routine to parse a string parameter specifying the reco...">
<polygon fill="white" stroke="black" points="602,-178.5 602,-197.5 760,-197.5 760,-178.5 602,-178.5"/>
<text text-anchor="middle" x="681" y="-185.5" font-family="Helvetica,sans-Serif" font-size="10.00">mom_remapping::setreconstructiontype</text>
</a>
</g>
</g>
<!-- Node5&#45;&gt;Node6 -->
<g id="edge6" class="edge"><title>Node5&#45;&gt;Node6</title>
<path fill="none" stroke="midnightblue" d="M566.053,-189.976C574.355,-189.832 583.033,-189.682 591.735,-189.531"/>
<polygon fill="midnightblue" stroke="midnightblue" points="592.002,-193.027 601.94,-189.354 591.881,-186.028 592.002,-193.027"/>
</g>
<!-- Node7 -->
<g id="node8" class="node"><title>Node7</title>
<g id="a_node8"><a xlink:href="namespacemom__string__functions.html#aca148baf726de2f028b7e7baad3c85d4" target="_top" xlink:title=" ">
<polygon fill="white" stroke="black" points="796.5,-173 796.5,-203 891.5,-203 891.5,-173 796.5,-173"/>
<text text-anchor="start" x="804.5" y="-191" font-family="Helvetica,sans-Serif" font-size="10.00">mom_string_functions</text>
<text text-anchor="middle" x="844" y="-180" font-family="Helvetica,sans-Serif" font-size="10.00">::uppercase</text>
</a>
</g>
</g>
<!-- Node6&#45;&gt;Node7 -->
<g id="edge7" class="edge"><title>Node6&#45;&gt;Node7</title>
<path fill="none" stroke="midnightblue" d="M760.142,-188C768.914,-188 777.723,-188 786.152,-188"/>
<polygon fill="midnightblue" stroke="midnightblue" points="786.218,-191.5 796.218,-188 786.218,-184.5 786.218,-191.5"/>
</g>
<!-- Node6&#45;&gt;Node2 -->
<g id="edge8" class="edge"><title>Node6&#45;&gt;Node2</title>
<path fill="none" stroke="midnightblue" d="M716.242,-178.411C730.176,-173.935 746.213,-168.031 760,-161 779.953,-150.825 800.603,-136.412 816.315,-124.5"/>
<polygon fill="midnightblue" stroke="midnightblue" points="818.722,-127.063 824.5,-118.182 814.445,-121.522 818.722,-127.063"/>
</g>
<!-- Node8&#45;&gt;Node2 -->
<g id="edge10" class="edge"><title>Node8&#45;&gt;Node2</title>
<path fill="none" stroke="midnightblue" d="M403.582,-103C494.105,-103 690.674,-103 787.217,-103"/>
<polygon fill="midnightblue" stroke="midnightblue" points="787.362,-106.5 797.362,-103 787.362,-99.5001 787.362,-106.5"/>
</g>
<!-- Node9&#45;&gt;Node2 -->
<g id="edge13" class="edge"><title>Node9&#45;&gt;Node2</title>
<path fill="none" stroke="midnightblue" d="M553.852,-13.8266C605.895,-14.037 691.593,-18.9406 760,-45 781.623,-53.2372 802.953,-68.3368 818.574,-81.0645"/>
<polygon fill="midnightblue" stroke="midnightblue" points="816.723,-84.0805 826.631,-87.8328 821.226,-78.7207 816.723,-84.0805"/>
</g>
</g>
</svg>
        <g id="navigator" transform="translate(0 0)" fill="#404254">
                <rect fill="#f2f5e9" fill-opacity="0.5" stroke="#606060" stroke-width=".5" x="0" y="0" width="60" height="60"/>
                <use id="zoomplus" xlink:href="#zoomPlus" x="17" y="9" onmousedown="handleZoom(evt,'in')"/>
                <use id="zoomminus" xlink:href="#zoomMin" x="42" y="9" onmousedown="handleZoom(evt,'out')"/>
                <use id="reset" xlink:href="#resetDef" x="30" y="36" onmousedown="handleReset()"/>
                <g id="arrowUp" xlink:href="#dirArrow" transform="translate(30 24)" onmousedown="handlePan(0,-1)">
                  <use xlink:href="#rim" fill="#404040">
                        <set attributeName="fill" to="#808080" begin="arrowUp.mouseover" end="arrowUp.mouseout"/>
                  </use>
                  <path fill="none" stroke="white" stroke-width="1.5" d="M0,-3.0v7 M-2.5,-0.5L0,-3.0L2.5,-0.5"/>
                </g>
                <g id="arrowRight" xlink:href="#dirArrow" transform="rotate(90) translate(36 -43)" onmousedown="handlePan(1,0)">
                  <use xlink:href="#rim" fill="#404040">
                        <set attributeName="fill" to="#808080" begin="arrowRight.mouseover" end="arrowRight.mouseout"/>
                  </use>
                  <path fill="none" stroke="white" stroke-width="1.5" d="M0,-3.0v7 M-2.5,-0.5L0,-3.0L2.5,-0.5"/>
                </g>
                <g id="arrowDown" xlink:href="#dirArrow" transform="rotate(180) translate(-30 -48)" onmousedown="handlePan(0,1)">
                  <use xlink:href="#rim" fill="#404040">
                        <set attributeName="fill" to="#808080" begin="arrowDown.mouseover" end="arrowDown.mouseout"/>
                  </use>
                  <path fill="none" stroke="white" stroke-width="1.5" d="M0,-3.0v7 M-2.5,-0.5L0,-3.0L2.5,-0.5"/>
                </g>
                <g id="arrowLeft" xlink:href="#dirArrow" transform="rotate(270) translate(-36 17)" onmousedown="handlePan(-1,0)">
                  <use xlink:href="#rim" fill="#404040">
                        <set attributeName="fill" to="#808080" begin="arrowLeft.mouseover" end="arrowLeft.mouseout"/>
                  </use>
                  <path fill="none" stroke="white" stroke-width="1.5" d="M0,-3.0v7 M-2.5,-0.5L0,-3.0L2.5,-0.5"/>
                </g>
        </g>
        <svg viewBox="0 0 15 15" width="100%" height="30px" preserveAspectRatio="xMaxYMin meet">
         <g id="arrow_out" transform="scale(0.3 0.3)">
          <a xlink:href="namespacedome2d__initialization_ab0df2b602fe1c83baa66ba03cc2c6dd4_cgraph_org.svg" target="_base">
           <rect id="button" ry="5" rx="5" y="6" x="6" height="38" width="38"
                fill="#f2f5e9" fill-opacity="0.5" stroke="#606060" stroke-width="1.0"/>
           <path id="arrow"
             d="M 11.500037,31.436501 C 11.940474,20.09759 22.043105,11.32322 32.158766,21.979434 L 37.068811,17.246167 C 37.068811,17.246167 37.088388,32 37.088388,32 L 22.160133,31.978069 C 22.160133,31.978069 26.997745,27.140456 26.997745,27.140456 C 18.528582,18.264221 13.291696,25.230495 11.500037,31.436501 z"
             style="fill:#404040;"/>
          </a>
         </g>
        </svg>
</svg>
