<?xml version="1.0" encoding="UTF-8" standalone="no"?>
<!DOCTYPE svg PUBLIC "-//W3C//DTD SVG 1.1//EN"
 "http://www.w3.org/Graphics/SVG/1.1/DTD/svg11.dtd">
<!-- Generated by graphviz version 2.30.1 (20170916.1124)
 -->
<!-- Title: user_shelf_init::user_init_ice_thickness Pages: 1 -->
<svg width="464pt" height="66pt"
 viewBox="0.00 0.00 464.00 66.00" xmlns="http://www.w3.org/2000/svg" xmlns:xlink="http://www.w3.org/1999/xlink">
<g id="graph0" class="graph" transform="scale(1 1) rotate(0) translate(4 62)">
<title>user_shelf_init::user_init_ice_thickness</title>
<polygon fill="white" stroke="white" points="-4,5 -4,-62 461,-62 461,5 -4,5"/>
<!-- Node4 -->
<g id="node1" class="node"><title>Node4</title>
<g id="a_node1"><a xlink:title=" ">
<polygon fill="#bfbfbf" stroke="black" points="368,-14 368,-44 456,-44 456,-14 368,-14"/>
<text text-anchor="start" x="376" y="-32" font-family="Helvetica,sans-Serif" font-size="10.00">user_shelf_init::user</text>
<text text-anchor="middle" x="412" y="-21" font-family="Helvetica,sans-Serif" font-size="10.00">_init_ice_thickness</text>
</a>
</g>
</g>
<!-- Node5 -->
<g id="node2" class="node"><title>Node5</title>
<g id="a_node2"><a xlink:href="namespacemom__ice__shelf__initialize.html#ab040ec0f7f05b8b398ef9ae1cce704f9" target="_top" xlink:title=" ">
<polygon fill="white" stroke="black" points="230.5,-14 230.5,-44 331.5,-44 331.5,-14 230.5,-14"/>
<text text-anchor="start" x="238.5" y="-32" font-family="Helvetica,sans-Serif" font-size="10.00">mom_ice_shelf_initialize</text>
<text text-anchor="middle" x="281" y="-21" font-family="Helvetica,sans-Serif" font-size="10.00">::initialize_ice_thickness</text>
</a>
</g>
</g>
<!-- Node4&#45;&gt;Node5 -->
<g id="edge1" class="edge"><title>Node4&#45;&gt;Node5</title>
<path fill="none" stroke="midnightblue" d="M357.443,-29C348.904,-29 340.101,-29 331.657,-29"/>
<polygon fill="midnightblue" stroke="midnightblue" points="357.686,-32.5001 367.686,-29 357.686,-25.5001 357.686,-32.5001"/>
</g>
<!-- Node6 -->
<g id="node3" class="node"><title>Node6</title>
<g id="a_node3"><a xlink:href="namespacemom__ice__shelf.html#ae315e8464ef8a20062e3bccb61886755" target="_top" xlink:title=" ">
<polygon fill="white" stroke="black" points="92.5,-14 92.5,-44 193.5,-44 193.5,-14 92.5,-14"/>
<text text-anchor="start" x="100.5" y="-32" font-family="Helvetica,sans-Serif" font-size="10.00">mom_ice_shelf::initialize</text>
<text text-anchor="middle" x="143" y="-21" font-family="Helvetica,sans-Serif" font-size="10.00">_ice_shelf</text>
</a>
</g>
</g>
<!-- Node5&#45;&gt;Node6 -->
<g id="edge2" class="edge"><title>Node5&#45;&gt;Node6</title>
<path fill="none" stroke="midnightblue" d="M220,-29C211.271,-29 202.363,-29 193.863,-29"/>
<polygon fill="midnightblue" stroke="midnightblue" points="220.131,-32.5001 230.131,-29 220.131,-25.5001 220.131,-32.5001"/>
</g>
<!-- Node7 -->
<g id="node4" class="node"><title>Node7</title>
<g id="a_node4"><a xlink:href="MOM__driver_8F90.html#a08fffeb2d8e8acbf9ed4609be6d258c6" target="_top" xlink:title=" ">
<polygon fill="white" stroke="black" points="0,-38.5 0,-57.5 56,-57.5 56,-38.5 0,-38.5"/>
<text text-anchor="middle" x="28" y="-45.5" font-family="Helvetica,sans-Serif" font-size="10.00">mom_main</text>
</a>
</g>
</g>
<!-- Node6&#45;&gt;Node7 -->
<g id="edge3" class="edge"><title>Node6&#45;&gt;Node7</title>
<path fill="none" stroke="midnightblue" d="M82.4627,-39.0107C73.2674,-40.5568 64.1797,-42.0848 56.1775,-43.4303"/>
<polygon fill="midnightblue" stroke="midnightblue" points="83.1554,-42.4434 92.4366,-37.3337 81.9946,-35.5403 83.1554,-42.4434"/>
</g>
<!-- Node8 -->
<g id="node5" class="node"><title>Node8</title>
<g id="a_node5"><a xlink:href="ice__shelf__driver_8F90.html#aec5bef92f0dad343f545cd8d62e378d8" target="_top" xlink:title=" ">
<polygon fill="white" stroke="black" points="0.5,-0.5 0.5,-19.5 55.5,-19.5 55.5,-0.5 0.5,-0.5"/>
<text text-anchor="middle" x="28" y="-7.5" font-family="Helvetica,sans-Serif" font-size="10.00">shelf_main</text>
</a>
</g>
</g>
<!-- Node6&#45;&gt;Node8 -->
<g id="edge4" class="edge"><title>Node6&#45;&gt;Node8</title>
<path fill="none" stroke="midnightblue" d="M82.5717,-19.0076C73.1007,-17.4152 63.7397,-15.8412 55.5571,-14.4653"/>
<polygon fill="midnightblue" stroke="midnightblue" points="81.9946,-22.4596 92.4366,-20.6663 83.1554,-15.5565 81.9946,-22.4596"/>
</g>
</g>
</svg>
