<?xml version="1.0" encoding="UTF-8" standalone="no"?>
<!DOCTYPE svg PUBLIC "-//W3C//DTD SVG 1.1//EN"
 "http://www.w3.org/Graphics/SVG/1.1/DTD/svg11.dtd">
<!-- Generated by graphviz version 2.30.1 (20170916.1124)
 -->
<!-- Title: oil_tracer::oil_tracer_surface_state Pages: 1 -->
<svg width="496pt" height="38pt"
 viewBox="0.00 0.00 496.00 38.00" xmlns="http://www.w3.org/2000/svg" xmlns:xlink="http://www.w3.org/1999/xlink">
<g id="graph0" class="graph" transform="scale(1 1) rotate(0) translate(4 34)">
<title>oil_tracer::oil_tracer_surface_state</title>
<polygon fill="white" stroke="white" points="-4,5 -4,-34 493,-34 493,5 -4,5"/>
<!-- Node32 -->
<g id="node1" class="node"><title>Node32</title>
<g id="a_node1"><a xlink:title=" ">
<polygon fill="#bfbfbf" stroke="black" points="0.5,-0 0.5,-30 87.5,-30 87.5,-0 0.5,-0"/>
<text text-anchor="start" x="8.5" y="-18" font-family="Helvetica,sans-Serif" font-size="10.00">oil_tracer::oil_tracer</text>
<text text-anchor="middle" x="44" y="-7" font-family="Helvetica,sans-Serif" font-size="10.00">_surface_state</text>
</a>
</g>
</g>
<!-- Node33 -->
<g id="node2" class="node"><title>Node33</title>
<g id="a_node2"><a xlink:href="namespacecoupler__util.html#a905a5b5d76999092172d1a6cfd17a1e6" target="_top" xlink:title=" ">
<polygon fill="white" stroke="black" points="124.5,-0 124.5,-30 227.5,-30 227.5,-0 124.5,-0"/>
<text text-anchor="start" x="132.5" y="-18" font-family="Helvetica,sans-Serif" font-size="10.00">coupler_util::set_coupler</text>
<text text-anchor="middle" x="176" y="-7" font-family="Helvetica,sans-Serif" font-size="10.00">_values</text>
</a>
</g>
</g>
<!-- Node32&#45;&gt;Node33 -->
<g id="edge1" class="edge"><title>Node32&#45;&gt;Node33</title>
<path fill="none" stroke="midnightblue" d="M87.5669,-15C96.0675,-15 105.152,-15 114.13,-15"/>
<polygon fill="midnightblue" stroke="midnightblue" points="114.186,-18.5001 124.186,-15 114.186,-11.5001 114.186,-18.5001"/>
</g>
<!-- Node34 -->
<g id="node3" class="node"><title>Node34</title>
<g id="a_node3"><a xlink:href="namespacemom__error__handler.html#a460cfb79a06c29fc249952c2a3710d67" target="_top" xlink:title=" ">
<polygon fill="white" stroke="black" points="264.5,-0 264.5,-30 357.5,-30 357.5,-0 264.5,-0"/>
<text text-anchor="start" x="272.5" y="-18" font-family="Helvetica,sans-Serif" font-size="10.00">mom_error_handler::</text>
<text text-anchor="middle" x="311" y="-7" font-family="Helvetica,sans-Serif" font-size="10.00">mom_error</text>
</a>
</g>
</g>
<!-- Node33&#45;&gt;Node34 -->
<g id="edge2" class="edge"><title>Node33&#45;&gt;Node34</title>
<path fill="none" stroke="midnightblue" d="M227.661,-15C236.314,-15 245.347,-15 254.127,-15"/>
<polygon fill="midnightblue" stroke="midnightblue" points="254.278,-18.5001 264.278,-15 254.278,-11.5001 254.278,-18.5001"/>
</g>
<!-- Node35 -->
<g id="node4" class="node"><title>Node35</title>
<g id="a_node4"><a xlink:href="namespacemom__error__handler.html#ad5f00a53059c72fe2332d1436c80ca71" target="_top" xlink:title=" ">
<polygon fill="white" stroke="black" points="394.5,-0 394.5,-30 487.5,-30 487.5,-0 394.5,-0"/>
<text text-anchor="start" x="402.5" y="-18" font-family="Helvetica,sans-Serif" font-size="10.00">mom_error_handler::</text>
<text text-anchor="middle" x="441" y="-7" font-family="Helvetica,sans-Serif" font-size="10.00">is_root_pe</text>
</a>
</g>
</g>
<!-- Node34&#45;&gt;Node35 -->
<g id="edge3" class="edge"><title>Node34&#45;&gt;Node35</title>
<path fill="none" stroke="midnightblue" d="M357.849,-15C366.408,-15 375.439,-15 384.258,-15"/>
<polygon fill="midnightblue" stroke="midnightblue" points="384.471,-18.5001 394.471,-15 384.471,-11.5001 384.471,-18.5001"/>
</g>
</g>
</svg>
