<?xml version="1.0" encoding="UTF-8" standalone="no"?>
<!DOCTYPE svg PUBLIC "-//W3C//DTD SVG 1.1//EN"
 "http://www.w3.org/Graphics/SVG/1.1/DTD/svg11.dtd">
<!-- Generated by graphviz version 2.30.1 (20170916.1124)
 -->
<!-- Title: benchmark_initialization::benchmark_initialize_topography Pages: 1 -->
<svg width="616pt" height="50pt"
 viewBox="0.00 0.00 616.00 50.00" xmlns="http://www.w3.org/2000/svg" xmlns:xlink="http://www.w3.org/1999/xlink">
<g id="graph0" class="graph" transform="scale(1 1) rotate(0) translate(4 46)">
<title>benchmark_initialization::benchmark_initialize_topography</title>
<polygon fill="white" stroke="white" points="-4,5 -4,-46 613,-46 613,5 -4,5"/>
<!-- Node17 -->
<g id="node1" class="node"><title>Node17</title>
<g id="a_node1"><a xlink:title="This subroutine sets up the benchmark test case topography.">
<polygon fill="#bfbfbf" stroke="black" points="506.5,-0.5 506.5,-41.5 607.5,-41.5 607.5,-0.5 506.5,-0.5"/>
<text text-anchor="start" x="514.5" y="-29.5" font-family="Helvetica,sans-Serif" font-size="10.00">benchmark_initialization</text>
<text text-anchor="start" x="514.5" y="-18.5" font-family="Helvetica,sans-Serif" font-size="10.00">::benchmark_initialize</text>
<text text-anchor="middle" x="557" y="-7.5" font-family="Helvetica,sans-Serif" font-size="10.00">_topography</text>
</a>
</g>
</g>
<!-- Node18 -->
<g id="node2" class="node"><title>Node18</title>
<g id="a_node2"><a xlink:href="namespacemom__fixed__initialization.html#a4f19c092d796f0cbb036c96575299b11" target="_top" xlink:title="MOM_initialize_topography makes the appropriate call to set up the bathymetry.">
<polygon fill="white" stroke="black" points="354,-6 354,-36 470,-36 470,-6 354,-6"/>
<text text-anchor="start" x="362" y="-24" font-family="Helvetica,sans-Serif" font-size="10.00">mom_fixed_initialization</text>
<text text-anchor="middle" x="412" y="-13" font-family="Helvetica,sans-Serif" font-size="10.00">::mom_initialize_topography</text>
</a>
</g>
</g>
<!-- Node17&#45;&gt;Node18 -->
<g id="edge1" class="edge"><title>Node17&#45;&gt;Node18</title>
<path fill="none" stroke="midnightblue" d="M496.133,-21C487.608,-21 478.855,-21 470.378,-21"/>
<polygon fill="midnightblue" stroke="midnightblue" points="496.387,-24.5001 506.387,-21 496.387,-17.5001 496.387,-24.5001"/>
</g>
<!-- Node19 -->
<g id="node3" class="node"><title>Node19</title>
<g id="a_node3"><a xlink:href="namespacemom__fixed__initialization.html#a6c1c054d9cda9f1bd11abba748614c92" target="_top" xlink:title="MOM_initialize_fixed sets up time&#45;invariant quantities related to MOM6&#39;s horizontal grid,...">
<polygon fill="white" stroke="black" points="218,-6 218,-36 318,-36 318,-6 218,-6"/>
<text text-anchor="start" x="226" y="-24" font-family="Helvetica,sans-Serif" font-size="10.00">mom_fixed_initialization</text>
<text text-anchor="middle" x="268" y="-13" font-family="Helvetica,sans-Serif" font-size="10.00">::mom_initialize_fixed</text>
</a>
</g>
</g>
<!-- Node18&#45;&gt;Node19 -->
<g id="edge2" class="edge"><title>Node18&#45;&gt;Node19</title>
<path fill="none" stroke="midnightblue" d="M343.41,-21C334.96,-21 326.446,-21 318.347,-21"/>
<polygon fill="midnightblue" stroke="midnightblue" points="343.653,-24.5001 353.652,-21 343.652,-17.5001 343.653,-24.5001"/>
</g>
<!-- Node20 -->
<g id="node4" class="node"><title>Node20</title>
<g id="a_node4"><a xlink:href="namespacemom.html#a0be2869fef30e1e0604facfe1b41555d" target="_top" xlink:title="This subroutine initializes MOM.">
<polygon fill="white" stroke="black" points="92.5,-11.5 92.5,-30.5 181.5,-30.5 181.5,-11.5 92.5,-11.5"/>
<text text-anchor="middle" x="137" y="-18.5" font-family="Helvetica,sans-Serif" font-size="10.00">mom::initialize_mom</text>
</a>
</g>
</g>
<!-- Node19&#45;&gt;Node20 -->
<g id="edge3" class="edge"><title>Node19&#45;&gt;Node20</title>
<path fill="none" stroke="midnightblue" d="M207.632,-21C198.833,-21 189.905,-21 181.511,-21"/>
<polygon fill="midnightblue" stroke="midnightblue" points="207.863,-24.5001 217.863,-21 207.863,-17.5001 207.863,-24.5001"/>
</g>
<!-- Node21 -->
<g id="node5" class="node"><title>Node21</title>
<g id="a_node5"><a xlink:href="MOM__driver_8F90.html#a08fffeb2d8e8acbf9ed4609be6d258c6" target="_top" xlink:title=" ">
<polygon fill="white" stroke="black" points="0,-11.5 0,-30.5 56,-30.5 56,-11.5 0,-11.5"/>
<text text-anchor="middle" x="28" y="-18.5" font-family="Helvetica,sans-Serif" font-size="10.00">mom_main</text>
</a>
</g>
</g>
<!-- Node20&#45;&gt;Node21 -->
<g id="edge4" class="edge"><title>Node20&#45;&gt;Node21</title>
<path fill="none" stroke="midnightblue" d="M82.3096,-21C73.2562,-21 64.21,-21 56.2082,-21"/>
<polygon fill="midnightblue" stroke="midnightblue" points="82.479,-24.5001 92.479,-21 82.479,-17.5001 82.479,-24.5001"/>
</g>
</g>
</svg>
