<?xml version="1.0" encoding="UTF-8" standalone="no"?>
<!DOCTYPE svg PUBLIC "-//W3C//DTD SVG 1.1//EN"
 "http://www.w3.org/Graphics/SVG/1.1/DTD/svg11.dtd">
<!-- Generated by graphviz version 2.30.1 (20170916.1124)
 -->
<!-- Title: mom_io::modify_vardesc Pages: 1 -->
<svg width="778pt" height="1055pt"
 viewBox="0.00 0.00 778.00 1055.00" xmlns="http://www.w3.org/2000/svg" xmlns:xlink="http://www.w3.org/1999/xlink">
<g id="graph0" class="graph" transform="scale(1 1) rotate(0) translate(4 1051)">
<title>mom_io::modify_vardesc</title>
<polygon fill="white" stroke="white" points="-4,5 -4,-1051 775,-1051 775,5 -4,5"/>
<!-- Node14 -->
<g id="node1" class="node"><title>Node14</title>
<g id="a_node1"><a xlink:title="This routine modifies the named elements of a vardesc type. All arguments are optional,...">
<polygon fill="#bfbfbf" stroke="black" points="664.5,-568.5 664.5,-587.5 769.5,-587.5 769.5,-568.5 664.5,-568.5"/>
<text text-anchor="middle" x="717" y="-575.5" font-family="Helvetica,sans-Serif" font-size="10.00">mom_io::modify_vardesc</text>
</a>
</g>
</g>
<!-- Node15 -->
<g id="node2" class="node"><title>Node15</title>
<g id="a_node2"><a xlink:href="namespacemom__diag__to__z.html#a90526b2f59f94c6af2f525a221029772" target="_top" xlink:title=" ">
<polygon fill="white" stroke="black" points="528,-585 528,-615 628,-615 628,-585 528,-585"/>
<text text-anchor="start" x="536" y="-603" font-family="Helvetica,sans-Serif" font-size="10.00">mom_diag_to_z::ocean</text>
<text text-anchor="middle" x="578" y="-592" font-family="Helvetica,sans-Serif" font-size="10.00">_register_diag_with_z</text>
</a>
</g>
</g>
<!-- Node14&#45;&gt;Node15 -->
<g id="edge1" class="edge"><title>Node14&#45;&gt;Node15</title>
<path fill="none" stroke="midnightblue" d="M654.099,-587.94C645.404,-589.337 636.566,-590.756 628.152,-592.107"/>
<polygon fill="midnightblue" stroke="midnightblue" points="654.888,-591.359 664.206,-586.317 653.778,-584.447 654.888,-591.359"/>
</g>
<!-- Node16 -->
<g id="node3" class="node"><title>Node16</title>
<g id="a_node3"><a xlink:href="namespacemom__io.html#a39c3ccc06bb1a6e446af2ee9010eba16" target="_top" xlink:title="Returns a vardesc type whose elements have been filled with the provided fields. The argument name is...">
<polygon fill="white" stroke="black" points="537,-546.5 537,-565.5 619,-565.5 619,-546.5 537,-546.5"/>
<text text-anchor="middle" x="578" y="-553.5" font-family="Helvetica,sans-Serif" font-size="10.00">mom_io::var_desc</text>
</a>
</g>
</g>
<!-- Node14&#45;&gt;Node16 -->
<g id="edge2" class="edge"><title>Node14&#45;&gt;Node16</title>
<path fill="none" stroke="midnightblue" d="M654.331,-568.097C642.46,-566.191 630.313,-564.24 619.335,-562.477"/>
<polygon fill="midnightblue" stroke="midnightblue" points="653.778,-571.553 664.206,-569.683 654.888,-564.641 653.778,-571.553"/>
</g>
<!-- Node17 -->
<g id="node4" class="node"><title>Node17</title>
<g id="a_node4"><a xlink:href="namespacemom__barotropic.html#a28fa2e7600a471735c3b827ac08ed94b" target="_top" xlink:title=" ">
<polygon fill="white" stroke="black" points="379.5,-1017 379.5,-1047 486.5,-1047 486.5,-1017 379.5,-1017"/>
<text text-anchor="start" x="387.5" y="-1035" font-family="Helvetica,sans-Serif" font-size="10.00">mom_barotropic::register</text>
<text text-anchor="middle" x="433" y="-1024" font-family="Helvetica,sans-Serif" font-size="10.00">_barotropic_restarts</text>
</a>
</g>
</g>
<!-- Node16&#45;&gt;Node17 -->
<g id="edge3" class="edge"><title>Node16&#45;&gt;Node17</title>
<path fill="none" stroke="midnightblue" d="M531.611,-571.888C530.297,-573.155 529.084,-574.523 528,-576 471.12,-653.473 548.124,-928.977 492,-1007 489.247,-1010.83 485.782,-1014.07 481.922,-1016.83"/>
<polygon fill="midnightblue" stroke="midnightblue" points="534.079,-574.418 540.066,-565.676 529.935,-568.776 534.079,-574.418"/>
</g>
<!-- Node19 -->
<g id="node6" class="node"><title>Node19</title>
<g id="a_node6"><a xlink:href="namespacemom__dynamics__legacy__split.html#a6bbc5bdfa5c9906b19339c12dc971551" target="_top" xlink:title=" ">
<polygon fill="white" stroke="black" points="383.5,-956.5 383.5,-997.5 482.5,-997.5 482.5,-956.5 383.5,-956.5"/>
<text text-anchor="start" x="391.5" y="-985.5" font-family="Helvetica,sans-Serif" font-size="10.00">mom_dynamics_legacy</text>
<text text-anchor="start" x="391.5" y="-974.5" font-family="Helvetica,sans-Serif" font-size="10.00">_split::register_restarts</text>
<text text-anchor="middle" x="433" y="-963.5" font-family="Helvetica,sans-Serif" font-size="10.00">_dyn_legacy_split</text>
</a>
</g>
</g>
<!-- Node16&#45;&gt;Node19 -->
<g id="edge5" class="edge"><title>Node16&#45;&gt;Node19</title>
<path fill="none" stroke="midnightblue" d="M532.002,-571.567C530.54,-572.924 529.195,-574.398 528,-576 430.301,-707.04 579.231,-803.771 492,-942 488.485,-947.57 483.733,-952.378 478.452,-956.49"/>
<polygon fill="midnightblue" stroke="midnightblue" points="534.054,-574.402 540.122,-565.718 529.962,-568.722 534.054,-574.402"/>
</g>
<!-- Node18 -->
<g id="node5" class="node"><title>Node18</title>
<g id="a_node5"><a xlink:href="namespacemom__dynamics__split__rk2.html#a9f889b82fd5ed29a854da99d3c929366" target="_top" xlink:title="This subroutine sets up any auxiliary restart variables that are specific to the unsplit time steppin...">
<polygon fill="white" stroke="black" points="230.5,-959.5 230.5,-1000.5 325.5,-1000.5 325.5,-959.5 230.5,-959.5"/>
<text text-anchor="start" x="238.5" y="-988.5" font-family="Helvetica,sans-Serif" font-size="10.00">mom_dynamics_split</text>
<text text-anchor="start" x="238.5" y="-977.5" font-family="Helvetica,sans-Serif" font-size="10.00">_rk2::register_restarts</text>
<text text-anchor="middle" x="278" y="-966.5" font-family="Helvetica,sans-Serif" font-size="10.00">_dyn_split_rk2</text>
</a>
</g>
</g>
<!-- Node16&#45;&gt;Node18 -->
<g id="edge6" class="edge"><title>Node16&#45;&gt;Node18</title>
<path fill="none" stroke="midnightblue" d="M532.021,-571.581C530.554,-572.934 529.202,-574.404 528,-576 438.447,-694.913 586.005,-793.574 492,-909 457.207,-951.721 426.249,-929.515 374,-947 358.271,-952.264 341.133,-958.165 325.798,-963.506"/>
<polygon fill="midnightblue" stroke="midnightblue" points="534.072,-574.417 540.159,-565.746 529.993,-568.729 534.072,-574.417"/>
</g>
<!-- Node20 -->
<g id="node7" class="node"><title>Node20</title>
<g id="a_node7"><a xlink:href="namespacemom__legacy__barotropic.html#a432cde1db247cb861f021d250f93960e" target="_top" xlink:title=" ">
<polygon fill="white" stroke="black" points="375,-858.5 375,-899.5 491,-899.5 491,-858.5 375,-858.5"/>
<text text-anchor="start" x="383" y="-887.5" font-family="Helvetica,sans-Serif" font-size="10.00">mom_legacy_barotropic</text>
<text text-anchor="start" x="383" y="-876.5" font-family="Helvetica,sans-Serif" font-size="10.00">::register_legacy_barotropic</text>
<text text-anchor="middle" x="433" y="-865.5" font-family="Helvetica,sans-Serif" font-size="10.00">_restarts</text>
</a>
</g>
</g>
<!-- Node16&#45;&gt;Node20 -->
<g id="edge7" class="edge"><title>Node16&#45;&gt;Node20</title>
<path fill="none" stroke="midnightblue" d="M532.222,-571.479C530.683,-572.86 529.263,-574.364 528,-576 453.482,-672.526 561.433,-747.755 492,-848 489.27,-851.942 485.874,-855.425 482.105,-858.494"/>
<polygon fill="midnightblue" stroke="midnightblue" points="534.534,-574.134 540.738,-565.545 530.532,-568.391 534.534,-574.134"/>
</g>
<!-- Node21 -->
<g id="node8" class="node"><title>Node21</title>
<g id="a_node8"><a xlink:href="namespacemom__coord__initialization.html#a45fb62504679264febbaa0617332ecc1" target="_top" xlink:title=" ">
<polygon fill="white" stroke="black" points="381,-809 381,-839 485,-839 485,-809 381,-809"/>
<text text-anchor="start" x="389" y="-827" font-family="Helvetica,sans-Serif" font-size="10.00">mom_coord_initialization</text>
<text text-anchor="middle" x="433" y="-816" font-family="Helvetica,sans-Serif" font-size="10.00">::write_vertgrid_file</text>
</a>
</g>
</g>
<!-- Node16&#45;&gt;Node21 -->
<g id="edge8" class="edge"><title>Node16&#45;&gt;Node21</title>
<path fill="none" stroke="midnightblue" d="M532.287,-571.53C530.731,-572.898 529.289,-574.384 528,-576 466.752,-652.76 549.74,-714.567 492,-794 487.601,-800.052 481.615,-804.978 475.152,-808.955"/>
<polygon fill="midnightblue" stroke="midnightblue" points="534.599,-574.188 540.86,-565.641 530.636,-568.419 534.599,-574.188"/>
</g>
<!-- Node25 -->
<g id="node12" class="node"><title>Node25</title>
<g id="a_node12"><a xlink:href="namespacemom__meke.html#a1900316331157e48f1a6029bac63fbd0" target="_top" xlink:title="Allocates memory and register restart fields for the MOM_MEKE module.">
<polygon fill="white" stroke="black" points="226.5,-762 226.5,-792 329.5,-792 329.5,-762 226.5,-762"/>
<text text-anchor="start" x="234.5" y="-780" font-family="Helvetica,sans-Serif" font-size="10.00">mom_meke::meke_alloc</text>
<text text-anchor="middle" x="278" y="-769" font-family="Helvetica,sans-Serif" font-size="10.00">_register_restart</text>
</a>
</g>
</g>
<!-- Node16&#45;&gt;Node25 -->
<g id="edge12" class="edge"><title>Node16&#45;&gt;Node25</title>
<path fill="none" stroke="midnightblue" d="M532.943,-571.122C531.146,-572.601 529.482,-574.222 528,-576 477.997,-635.996 549.151,-694.769 492,-748 448.851,-788.189 377.828,-789.816 329.774,-785.173"/>
<polygon fill="midnightblue" stroke="midnightblue" points="535.065,-573.916 541.514,-565.51 531.23,-568.06 535.065,-573.916"/>
</g>
<!-- Node26 -->
<g id="node13" class="node"><title>Node26</title>
<g id="a_node13"><a xlink:href="namespacemom__mixed__layer__restrat.html#aea597553dfa98cc7c972784f476ad3fc" target="_top" xlink:title="Allocate and regsiter fields in the mixedlayer restratification structure for restarts.">
<polygon fill="white" stroke="black" points="218.5,-701.5 218.5,-742.5 337.5,-742.5 337.5,-701.5 218.5,-701.5"/>
<text text-anchor="start" x="226.5" y="-730.5" font-family="Helvetica,sans-Serif" font-size="10.00">mom_mixed_layer_restrat</text>
<text text-anchor="start" x="226.5" y="-719.5" font-family="Helvetica,sans-Serif" font-size="10.00">::mixedlayer_restrat_register</text>
<text text-anchor="middle" x="278" y="-708.5" font-family="Helvetica,sans-Serif" font-size="10.00">_restarts</text>
</a>
</g>
</g>
<!-- Node16&#45;&gt;Node26 -->
<g id="edge14" class="edge"><title>Node16&#45;&gt;Node26</title>
<path fill="none" stroke="midnightblue" d="M533.019,-571.186C531.203,-572.648 529.513,-574.249 528,-576 484.309,-626.574 544.611,-680.786 492,-722 448.917,-755.751 384.458,-750.477 337.738,-740.021"/>
<polygon fill="midnightblue" stroke="midnightblue" points="535.14,-573.984 541.646,-565.622 531.346,-568.101 535.14,-573.984"/>
</g>
<!-- Node27 -->
<g id="node14" class="node"><title>Node27</title>
<g id="a_node14"><a xlink:href="namespacemom__diabatic__driver.html#afa0b30bd6f0e080bcacbd6dcb15ff990" target="_top" xlink:title="This routine initializes the diabatic driver module.">
<polygon fill="white" stroke="black" points="387.5,-683 387.5,-713 478.5,-713 478.5,-683 387.5,-683"/>
<text text-anchor="start" x="395.5" y="-701" font-family="Helvetica,sans-Serif" font-size="10.00">mom_diabatic_driver</text>
<text text-anchor="middle" x="433" y="-690" font-family="Helvetica,sans-Serif" font-size="10.00">::diabatic_driver_init</text>
</a>
</g>
</g>
<!-- Node16&#45;&gt;Node27 -->
<g id="edge16" class="edge"><title>Node16&#45;&gt;Node27</title>
<path fill="none" stroke="midnightblue" d="M533.988,-570.865C531.836,-572.416 529.818,-574.123 528,-576 496.011,-609.034 523.666,-639.656 492,-673 488.149,-677.055 483.531,-680.486 478.603,-683.382"/>
<polygon fill="midnightblue" stroke="midnightblue" points="536.002,-573.739 542.811,-565.622 532.426,-567.722 536.002,-573.739"/>
</g>
<!-- Node28 -->
<g id="node15" class="node"><title>Node28</title>
<g id="a_node15"><a xlink:href="namespacemom__set__diffusivity.html#ac0a2a098bc7dc3b087a4bae87511b7ca" target="_top" xlink:title=" ">
<polygon fill="white" stroke="black" points="390,-634 390,-664 476,-664 476,-634 390,-634"/>
<text text-anchor="start" x="398" y="-652" font-family="Helvetica,sans-Serif" font-size="10.00">mom_set_diffusivity</text>
<text text-anchor="middle" x="433" y="-641" font-family="Helvetica,sans-Serif" font-size="10.00">::set_diffusivity_init</text>
</a>
</g>
</g>
<!-- Node16&#45;&gt;Node28 -->
<g id="edge17" class="edge"><title>Node16&#45;&gt;Node28</title>
<path fill="none" stroke="midnightblue" d="M537.782,-569.937C534.352,-571.765 531.036,-573.784 528,-576 507.87,-590.697 511.45,-603.414 492,-619 484.923,-624.671 476.605,-629.728 468.512,-634"/>
<polygon fill="midnightblue" stroke="midnightblue" points="539.49,-573.001 547.013,-565.541 536.48,-566.681 539.49,-573.001"/>
</g>
<!-- Node29 -->
<g id="node16" class="node"><title>Node29</title>
<g id="a_node16"><a xlink:href="namespacemom__set__visc.html#ae2d9d9f74c1e9aec56257cfad372b0fd" target="_top" xlink:title=" ">
<polygon fill="white" stroke="black" points="228.5,-622 228.5,-652 327.5,-652 327.5,-622 228.5,-622"/>
<text text-anchor="start" x="236.5" y="-640" font-family="Helvetica,sans-Serif" font-size="10.00">mom_set_visc::set_visc</text>
<text text-anchor="middle" x="278" y="-629" font-family="Helvetica,sans-Serif" font-size="10.00">_register_restarts</text>
</a>
</g>
</g>
<!-- Node16&#45;&gt;Node29 -->
<g id="edge18" class="edge"><title>Node16&#45;&gt;Node29</title>
<path fill="none" stroke="midnightblue" d="M542.348,-569.151C527.037,-574.723 508.744,-581.055 492,-586 436.205,-602.477 371.02,-617.476 327.599,-626.878"/>
<polygon fill="midnightblue" stroke="midnightblue" points="543.759,-572.362 551.934,-565.622 541.34,-565.793 543.759,-572.362"/>
</g>
<!-- Node30 -->
<g id="node17" class="node"><title>Node30</title>
<g id="a_node17"><a xlink:href="namespaceadvection__test__tracer.html#a6cc3e00a5d5cb9e31339c784eb966c91" target="_top" xlink:title=" ">
<polygon fill="white" stroke="black" points="386.5,-535.5 386.5,-576.5 479.5,-576.5 479.5,-535.5 386.5,-535.5"/>
<text text-anchor="start" x="394.5" y="-564.5" font-family="Helvetica,sans-Serif" font-size="10.00">advection_test_tracer</text>
<text text-anchor="start" x="394.5" y="-553.5" font-family="Helvetica,sans-Serif" font-size="10.00">::register_advection</text>
<text text-anchor="middle" x="433" y="-542.5" font-family="Helvetica,sans-Serif" font-size="10.00">_test_tracer</text>
</a>
</g>
</g>
<!-- Node16&#45;&gt;Node30 -->
<g id="edge20" class="edge"><title>Node16&#45;&gt;Node30</title>
<path fill="none" stroke="midnightblue" d="M526.495,-556C511.254,-556 494.615,-556 479.705,-556"/>
<polygon fill="midnightblue" stroke="midnightblue" points="526.786,-559.5 536.786,-556 526.786,-552.5 526.786,-559.5"/>
</g>
<!-- Node31 -->
<g id="node18" class="node"><title>Node31</title>
<g id="a_node18"><a xlink:href="namespaceboundary__impulse__tracer.html#a8c333281de8a3f7a255a0da4187427ad" target="_top" xlink:title="Read in runtime options and add boundary impulse tracer to tracer registry.">
<polygon fill="white" stroke="black" points="374,-475.5 374,-516.5 492,-516.5 492,-475.5 374,-475.5"/>
<text text-anchor="start" x="382" y="-504.5" font-family="Helvetica,sans-Serif" font-size="10.00">boundary_impulse_tracer</text>
<text text-anchor="start" x="382" y="-493.5" font-family="Helvetica,sans-Serif" font-size="10.00">::register_boundary_impulse</text>
<text text-anchor="middle" x="433" y="-482.5" font-family="Helvetica,sans-Serif" font-size="10.00">_tracer</text>
</a>
</g>
</g>
<!-- Node16&#45;&gt;Node31 -->
<g id="edge21" class="edge"><title>Node16&#45;&gt;Node31</title>
<path fill="none" stroke="midnightblue" d="M545.018,-542.581C526.738,-534.911 503.435,-525.133 482.902,-516.518"/>
<polygon fill="midnightblue" stroke="midnightblue" points="543.766,-545.851 554.341,-546.493 546.474,-539.396 543.766,-545.851"/>
</g>
<!-- Node32 -->
<g id="node19" class="node"><title>Node32</title>
<g id="a_node19"><a xlink:href="namespacedome__tracer.html#a2a6918ef09b8674c6ad56f80dfc370ff" target="_top" xlink:title=" ">
<polygon fill="white" stroke="black" points="386,-426 386,-456 480,-456 480,-426 386,-426"/>
<text text-anchor="start" x="394" y="-444" font-family="Helvetica,sans-Serif" font-size="10.00">dome_tracer::register</text>
<text text-anchor="middle" x="433" y="-433" font-family="Helvetica,sans-Serif" font-size="10.00">_dome_tracer</text>
</a>
</g>
</g>
<!-- Node16&#45;&gt;Node32 -->
<g id="edge22" class="edge"><title>Node16&#45;&gt;Node32</title>
<path fill="none" stroke="midnightblue" d="M563.848,-538.212C548.457,-518.414 521.321,-486.513 492,-466 486.699,-462.291 480.761,-458.964 474.761,-456.04"/>
<polygon fill="midnightblue" stroke="midnightblue" points="561.217,-540.535 570.058,-546.373 566.787,-536.296 561.217,-540.535"/>
</g>
<!-- Node33 -->
<g id="node20" class="node"><title>Node33</title>
<g id="a_node20"><a xlink:href="namespaceregional__dyes.html#af9da6e5dbe58dedce4ede6f0533fe702" target="_top" xlink:title=" ">
<polygon fill="white" stroke="black" points="384,-377 384,-407 482,-407 482,-377 384,-377"/>
<text text-anchor="start" x="392" y="-395" font-family="Helvetica,sans-Serif" font-size="10.00">regional_dyes::register</text>
<text text-anchor="middle" x="433" y="-384" font-family="Helvetica,sans-Serif" font-size="10.00">_dye_tracer</text>
</a>
</g>
</g>
<!-- Node16&#45;&gt;Node33 -->
<g id="edge23" class="edge"><title>Node16&#45;&gt;Node33</title>
<path fill="none" stroke="midnightblue" d="M569.663,-536.608C557.614,-507.112 531.015,-450.838 492,-417 487.61,-413.192 482.551,-409.89 477.29,-407.046"/>
<polygon fill="midnightblue" stroke="midnightblue" points="566.511,-538.156 573.439,-546.172 573.022,-535.585 566.511,-538.156"/>
</g>
<!-- Node34 -->
<g id="node21" class="node"><title>Node34</title>
<g id="a_node21"><a xlink:href="namespaceideal__age__example.html#a58d550a02148b87b1d1ce979fcaf6c00" target="_top" xlink:title=" ">
<polygon fill="white" stroke="black" points="379,-328 379,-358 487,-358 487,-328 379,-328"/>
<text text-anchor="start" x="387" y="-346" font-family="Helvetica,sans-Serif" font-size="10.00">ideal_age_example::</text>
<text text-anchor="middle" x="433" y="-335" font-family="Helvetica,sans-Serif" font-size="10.00">register_ideal_age_tracer</text>
</a>
</g>
</g>
<!-- Node16&#45;&gt;Node34 -->
<g id="edge24" class="edge"><title>Node16&#45;&gt;Node34</title>
<path fill="none" stroke="midnightblue" d="M573.054,-536.268C564.591,-498.728 541.321,-416.458 492,-368 488.089,-364.158 483.494,-360.863 478.63,-358.047"/>
<polygon fill="midnightblue" stroke="midnightblue" points="569.706,-537.347 575.218,-546.395 576.551,-535.885 569.706,-537.347"/>
</g>
<!-- Node35 -->
<g id="node22" class="node"><title>Node35</title>
<g id="a_node22"><a xlink:href="namespaceisomip__tracer.html#a7d66fe5ba12076654324a7e7d8ab2e4f" target="_top" xlink:title="This subroutine is used to register tracer fields.">
<polygon fill="white" stroke="black" points="385,-279 385,-309 481,-309 481,-279 385,-279"/>
<text text-anchor="start" x="393" y="-297" font-family="Helvetica,sans-Serif" font-size="10.00">isomip_tracer::register</text>
<text text-anchor="middle" x="433" y="-286" font-family="Helvetica,sans-Serif" font-size="10.00">_isomip_tracer</text>
</a>
</g>
</g>
<!-- Node16&#45;&gt;Node35 -->
<g id="edge25" class="edge"><title>Node16&#45;&gt;Node35</title>
<path fill="none" stroke="midnightblue" d="M575.211,-536.448C570.164,-492.123 552.016,-382.896 492,-319 488.397,-315.164 484.106,-311.887 479.511,-309.095"/>
<polygon fill="midnightblue" stroke="midnightblue" points="571.738,-536.89 576.25,-546.476 578.7,-536.168 571.738,-536.89"/>
</g>
<!-- Node36 -->
<g id="node23" class="node"><title>Node36</title>
<g id="a_node23"><a xlink:href="namespacemom__ocmip2__cfc.html#ac04494ce35222c8583a7ee7589e1cf13" target="_top" xlink:title=" ">
<polygon fill="white" stroke="black" points="378,-230 378,-260 488,-260 488,-230 378,-230"/>
<text text-anchor="start" x="386" y="-248" font-family="Helvetica,sans-Serif" font-size="10.00">mom_ocmip2_cfc::register</text>
<text text-anchor="middle" x="433" y="-237" font-family="Helvetica,sans-Serif" font-size="10.00">_ocmip2_cfc</text>
</a>
</g>
</g>
<!-- Node16&#45;&gt;Node36 -->
<g id="edge26" class="edge"><title>Node16&#45;&gt;Node36</title>
<path fill="none" stroke="midnightblue" d="M576.635,-536.288C574.664,-485.681 562.695,-349.577 492,-270 488.577,-266.147 484.456,-262.866 480.009,-260.078"/>
<polygon fill="midnightblue" stroke="midnightblue" points="573.143,-536.599 576.937,-546.491 580.14,-536.392 573.143,-536.599"/>
</g>
<!-- Node37 -->
<g id="node24" class="node"><title>Node37</title>
<g id="a_node24"><a xlink:href="namespaceoil__tracer.html#ae9bef348e3fea3af157e841a0c9f6aeb" target="_top" xlink:title=" ">
<polygon fill="white" stroke="black" points="392.5,-181 392.5,-211 473.5,-211 473.5,-181 392.5,-181"/>
<text text-anchor="start" x="400.5" y="-199" font-family="Helvetica,sans-Serif" font-size="10.00">oil_tracer::register</text>
<text text-anchor="middle" x="433" y="-188" font-family="Helvetica,sans-Serif" font-size="10.00">_oil_tracer</text>
</a>
</g>
</g>
<!-- Node16&#45;&gt;Node37 -->
<g id="edge27" class="edge"><title>Node16&#45;&gt;Node37</title>
<path fill="none" stroke="midnightblue" d="M577.679,-536.374C578.562,-480.197 573.596,-316.673 492,-221 487.09,-215.243 480.614,-210.774 473.772,-207.316"/>
<polygon fill="midnightblue" stroke="midnightblue" points="574.179,-536.317 577.436,-546.399 581.177,-536.487 574.179,-536.317"/>
</g>
<!-- Node38 -->
<g id="node25" class="node"><title>Node38</title>
<g id="a_node25"><a xlink:href="namespacepseudo__salt__tracer.html#a147eabcabc9a787c01310dd67a5bab08" target="_top" xlink:title=" ">
<polygon fill="white" stroke="black" points="385.5,-120.5 385.5,-161.5 480.5,-161.5 480.5,-120.5 385.5,-120.5"/>
<text text-anchor="start" x="393.5" y="-149.5" font-family="Helvetica,sans-Serif" font-size="10.00">pseudo_salt_tracer</text>
<text text-anchor="start" x="393.5" y="-138.5" font-family="Helvetica,sans-Serif" font-size="10.00">::register_pseudo_salt</text>
<text text-anchor="middle" x="433" y="-127.5" font-family="Helvetica,sans-Serif" font-size="10.00">_tracer</text>
</a>
</g>
</g>
<!-- Node16&#45;&gt;Node38 -->
<g id="edge28" class="edge"><title>Node16&#45;&gt;Node38</title>
<path fill="none" stroke="midnightblue" d="M574.791,-536.015C566.694,-465.732 536.754,-231.006 492,-172 488.826,-167.815 484.92,-164.134 480.648,-160.909"/>
<polygon fill="midnightblue" stroke="midnightblue" points="571.338,-536.622 575.94,-546.165 578.293,-535.835 571.338,-536.622"/>
</g>
<!-- Node39 -->
<g id="node26" class="node"><title>Node39</title>
<g id="a_node26"><a xlink:href="namespaceuser__tracer__example.html#a71efc349b3fbeb6f4cb2155de1f8bbe5" target="_top" xlink:title=" ">
<polygon fill="white" stroke="black" points="386,-60.5 386,-101.5 480,-101.5 480,-60.5 386,-60.5"/>
<text text-anchor="start" x="394" y="-89.5" font-family="Helvetica,sans-Serif" font-size="10.00">user_tracer_example</text>
<text text-anchor="start" x="394" y="-78.5" font-family="Helvetica,sans-Serif" font-size="10.00">::user_register_tracer</text>
<text text-anchor="middle" x="433" y="-67.5" font-family="Helvetica,sans-Serif" font-size="10.00">_example</text>
</a>
</g>
</g>
<!-- Node16&#45;&gt;Node39 -->
<g id="edge29" class="edge"><title>Node16&#45;&gt;Node39</title>
<path fill="none" stroke="midnightblue" d="M575.476,-535.894C569.263,-458.438 543.679,-180.252 492,-111 488.746,-106.639 484.672,-102.858 480.202,-99.5944"/>
<polygon fill="midnightblue" stroke="midnightblue" points="572.012,-536.484 576.281,-546.18 578.99,-535.938 572.012,-536.484"/>
</g>
<!-- Node40 -->
<g id="node27" class="node"><title>Node40</title>
<g id="a_node27"><a xlink:href="namespacemom__controlled__forcing.html#a8bfffde62f6a555439eba94884a1fc2e" target="_top" xlink:title="This subroutine is used to allocate and register any fields in this module that should be written to ...">
<polygon fill="white" stroke="black" points="382,-0.5 382,-41.5 484,-41.5 484,-0.5 382,-0.5"/>
<text text-anchor="start" x="390" y="-29.5" font-family="Helvetica,sans-Serif" font-size="10.00">mom_controlled_forcing</text>
<text text-anchor="start" x="390" y="-18.5" font-family="Helvetica,sans-Serif" font-size="10.00">::register_ctrl_forcing</text>
<text text-anchor="middle" x="433" y="-7.5" font-family="Helvetica,sans-Serif" font-size="10.00">_restarts</text>
</a>
</g>
</g>
<!-- Node16&#45;&gt;Node40 -->
<g id="edge30" class="edge"><title>Node16&#45;&gt;Node40</title>
<path fill="none" stroke="midnightblue" d="M575.981,-535.925C571.378,-452.108 550.163,-130.756 492,-51 489.462,-47.5193 486.399,-44.411 483.023,-41.6411"/>
<polygon fill="midnightblue" stroke="midnightblue" points="572.497,-536.326 576.522,-546.126 579.487,-535.954 572.497,-536.326"/>
</g>
<!-- Node17&#45;&gt;Node18 -->
<g id="edge4" class="edge"><title>Node17&#45;&gt;Node18</title>
<path fill="none" stroke="midnightblue" d="M377.899,-1013.61C360.804,-1007.8 342.072,-1001.44 325.553,-995.822"/>
<polygon fill="midnightblue" stroke="midnightblue" points="377.152,-1017.06 387.746,-1016.96 379.404,-1010.43 377.152,-1017.06"/>
</g>
<!-- Node22 -->
<g id="node9" class="node"><title>Node22</title>
<g id="a_node9"><a xlink:href="namespacemom__coord__initialization.html#a6e2f4c11bc99476ea9c64a9aceac3b81" target="_top" xlink:title="MOM_initialize_coord sets up time&#45;invariant quantities related to MOM6&#39;s vertical coordinate.">
<polygon fill="white" stroke="black" points="226,-811 226,-841 330,-841 330,-811 226,-811"/>
<text text-anchor="start" x="234" y="-829" font-family="Helvetica,sans-Serif" font-size="10.00">mom_coord_initialization</text>
<text text-anchor="middle" x="278" y="-818" font-family="Helvetica,sans-Serif" font-size="10.00">::mom_initialize_coord</text>
</a>
</g>
</g>
<!-- Node21&#45;&gt;Node22 -->
<g id="edge9" class="edge"><title>Node21&#45;&gt;Node22</title>
<path fill="none" stroke="midnightblue" d="M370.553,-824.803C357.179,-824.978 343.166,-825.161 330.237,-825.33"/>
<polygon fill="midnightblue" stroke="midnightblue" points="370.674,-828.302 380.628,-824.672 370.583,-821.303 370.674,-828.302"/>
</g>
<!-- Node23 -->
<g id="node10" class="node"><title>Node23</title>
<g id="a_node10"><a xlink:href="namespacemom.html#a0be2869fef30e1e0604facfe1b41555d" target="_top" xlink:title="This subroutine initializes MOM.">
<polygon fill="white" stroke="black" points="92.5,-739.5 92.5,-758.5 181.5,-758.5 181.5,-739.5 92.5,-739.5"/>
<text text-anchor="middle" x="137" y="-746.5" font-family="Helvetica,sans-Serif" font-size="10.00">mom::initialize_mom</text>
</a>
</g>
</g>
<!-- Node22&#45;&gt;Node23 -->
<g id="edge10" class="edge"><title>Node22&#45;&gt;Node23</title>
<path fill="none" stroke="midnightblue" d="M229.536,-806.759C225.593,-804.898 221.702,-802.968 218,-801 193.427,-787.938 166.653,-769.625 151.149,-758.579"/>
<polygon fill="midnightblue" stroke="midnightblue" points="228.219,-810.005 238.77,-810.962 231.118,-803.634 228.219,-810.005"/>
</g>
<!-- Node24 -->
<g id="node11" class="node"><title>Node24</title>
<g id="a_node11"><a xlink:href="MOM__driver_8F90.html#a08fffeb2d8e8acbf9ed4609be6d258c6" target="_top" xlink:title=" ">
<polygon fill="white" stroke="black" points="0,-739.5 0,-758.5 56,-758.5 56,-739.5 0,-739.5"/>
<text text-anchor="middle" x="28" y="-746.5" font-family="Helvetica,sans-Serif" font-size="10.00">mom_main</text>
</a>
</g>
</g>
<!-- Node23&#45;&gt;Node24 -->
<g id="edge11" class="edge"><title>Node23&#45;&gt;Node24</title>
<path fill="none" stroke="midnightblue" d="M82.3096,-749C73.2562,-749 64.21,-749 56.2082,-749"/>
<polygon fill="midnightblue" stroke="midnightblue" points="82.479,-752.5 92.479,-749 82.479,-745.5 82.479,-752.5"/>
</g>
<!-- Node25&#45;&gt;Node23 -->
<g id="edge13" class="edge"><title>Node25&#45;&gt;Node23</title>
<path fill="none" stroke="midnightblue" d="M216.353,-764.783C204.757,-762.447 192.827,-760.044 181.882,-757.84"/>
<polygon fill="midnightblue" stroke="midnightblue" points="215.93,-768.268 226.425,-766.812 217.313,-761.406 215.93,-768.268"/>
</g>
<!-- Node26&#45;&gt;Node23 -->
<g id="edge15" class="edge"><title>Node26&#45;&gt;Node23</title>
<path fill="none" stroke="midnightblue" d="M208.57,-735.292C199.425,-737.069 190.254,-738.85 181.693,-740.513"/>
<polygon fill="midnightblue" stroke="midnightblue" points="209.305,-738.715 218.454,-733.372 207.97,-731.843 209.305,-738.715"/>
</g>
<!-- Node29&#45;&gt;Node23 -->
<g id="edge19" class="edge"><title>Node29&#45;&gt;Node23</title>
<path fill="none" stroke="midnightblue" d="M250.225,-658.574C219.97,-682.952 172.066,-721.551 149.934,-739.384"/>
<polygon fill="midnightblue" stroke="midnightblue" points="252.663,-661.104 258.254,-652.105 248.271,-655.654 252.663,-661.104"/>
</g>
</g>
</svg>
