<?xml version="1.0" encoding="UTF-8" standalone="no"?>
<!DOCTYPE svg PUBLIC "-//W3C//DTD SVG 1.1//EN"
 "http://www.w3.org/Graphics/SVG/1.1/DTD/svg11.dtd">
<!-- Generated by graphviz version 2.30.1 (20170916.1124)
 -->
<!-- Title: mom_ale::ale_register_diags Pages: 1 -->
<svg width="1024pt" height="361pt"
 viewBox="0.00 0.00 1024.00 361.00" xmlns="http://www.w3.org/2000/svg" xmlns:xlink="http://www.w3.org/1999/xlink">
<g id="graph0" class="graph" transform="scale(1 1) rotate(0) translate(4 357)">
<title>mom_ale::ale_register_diags</title>
<polygon fill="white" stroke="white" points="-4,5 -4,-357 1021,-357 1021,5 -4,5"/>
<!-- Node57 -->
<g id="node1" class="node"><title>Node57</title>
<g id="a_node1"><a xlink:title="Initialize diagnostics for the ALE module.">
<polygon fill="#bfbfbf" stroke="black" points="0,-224 0,-254 96,-254 96,-224 0,-224"/>
<text text-anchor="start" x="8" y="-242" font-family="Helvetica,sans-Serif" font-size="10.00">mom_ale::ale_register</text>
<text text-anchor="middle" x="48" y="-231" font-family="Helvetica,sans-Serif" font-size="10.00">_diags</text>
</a>
</g>
</g>
<!-- Node58 -->
<g id="node2" class="node"><title>Node58</title>
<g id="a_node2"><a xlink:href="namespacemom__diag__mediator.html#aa791f75f899ae9b7cd4756165a9c2a1b" target="_top" xlink:title="Returns the &quot;diag_mediator&quot; handle for a group (native, CMOR, z&#45;coord, ...) of diagnostics derived fr...">
<polygon fill="white" stroke="black" points="132.5,-224 132.5,-254 227.5,-254 227.5,-224 132.5,-224"/>
<text text-anchor="start" x="140.5" y="-242" font-family="Helvetica,sans-Serif" font-size="10.00">mom_diag_mediator::</text>
<text text-anchor="middle" x="180" y="-231" font-family="Helvetica,sans-Serif" font-size="10.00">register_diag_field</text>
</a>
</g>
</g>
<!-- Node57&#45;&gt;Node58 -->
<g id="edge1" class="edge"><title>Node57&#45;&gt;Node58</title>
<path fill="none" stroke="midnightblue" d="M96.3007,-239C104.754,-239 113.639,-239 122.323,-239"/>
<polygon fill="midnightblue" stroke="midnightblue" points="122.387,-242.5 132.387,-239 122.387,-235.5 122.387,-242.5"/>
</g>
<!-- Node59 -->
<g id="node3" class="node"><title>Node59</title>
<g id="a_node3"><a xlink:href="namespacemom__diag__mediator.html#ae50b35cba800ac5fd8975929fd2b9f4a" target="_top" xlink:title="Returns True if either the native of CMOr version of the diagnostic were registered....">
<polygon fill="white" stroke="black" points="264.5,-218.5 264.5,-259.5 359.5,-259.5 359.5,-218.5 264.5,-218.5"/>
<text text-anchor="start" x="272.5" y="-247.5" font-family="Helvetica,sans-Serif" font-size="10.00">mom_diag_mediator::</text>
<text text-anchor="start" x="272.5" y="-236.5" font-family="Helvetica,sans-Serif" font-size="10.00">register_diag_field</text>
<text text-anchor="middle" x="312" y="-225.5" font-family="Helvetica,sans-Serif" font-size="10.00">_expand_cmor</text>
</a>
</g>
</g>
<!-- Node58&#45;&gt;Node59 -->
<g id="edge2" class="edge"><title>Node58&#45;&gt;Node59</title>
<path fill="none" stroke="midnightblue" d="M227.566,-239C236.154,-239 245.21,-239 254.063,-239"/>
<polygon fill="midnightblue" stroke="midnightblue" points="254.322,-242.5 264.322,-239 254.322,-235.5 254.322,-242.5"/>
</g>
<!-- Node60 -->
<g id="node4" class="node"><title>Node60</title>
<g id="a_node4"><a xlink:href="namespacemom__diag__mediator.html#aca4a32fea8dade9f51e076a56b9bad2b" target="_top" xlink:title="Returns an FMS id from register_diag_field_fms (the diag_manager routine) after expanding axes (axes&#45;...">
<polygon fill="white" stroke="black" points="396.5,-311.5 396.5,-352.5 491.5,-352.5 491.5,-311.5 396.5,-311.5"/>
<text text-anchor="start" x="404.5" y="-340.5" font-family="Helvetica,sans-Serif" font-size="10.00">mom_diag_mediator::</text>
<text text-anchor="start" x="404.5" y="-329.5" font-family="Helvetica,sans-Serif" font-size="10.00">register_diag_field</text>
<text text-anchor="middle" x="444" y="-318.5" font-family="Helvetica,sans-Serif" font-size="10.00">_expand_axes</text>
</a>
</g>
</g>
<!-- Node59&#45;&gt;Node60 -->
<g id="edge3" class="edge"><title>Node59&#45;&gt;Node60</title>
<path fill="none" stroke="midnightblue" d="M341.851,-259.64C360.786,-273.185 385.721,-291.023 406.095,-305.599"/>
<polygon fill="midnightblue" stroke="midnightblue" points="404.06,-308.446 414.229,-311.418 408.133,-302.753 404.06,-308.446"/>
</g>
<!-- Node61 -->
<g id="node5" class="node"><title>Node61</title>
<g id="a_node5"><a xlink:href="namespacemom__diag__mediator.html#ae0f04c145cb120fc2ab6cbfe9f166392" target="_top" xlink:title="Attaches &quot;cell_methods&quot; attribute to a variable based on defaults for axes_grp or optional arguments.">
<polygon fill="white" stroke="black" points="660.5,-186 660.5,-216 755.5,-216 755.5,-186 660.5,-186"/>
<text text-anchor="start" x="668.5" y="-204" font-family="Helvetica,sans-Serif" font-size="10.00">mom_diag_mediator::</text>
<text text-anchor="middle" x="708" y="-193" font-family="Helvetica,sans-Serif" font-size="10.00">attach_cell_methods</text>
</a>
</g>
</g>
<!-- Node59&#45;&gt;Node61 -->
<g id="edge4" class="edge"><title>Node59&#45;&gt;Node61</title>
<path fill="none" stroke="midnightblue" d="M359.916,-222.639C371.571,-219.196 384.128,-216.003 396,-214 483.83,-199.179 587.483,-198.054 650.175,-199.133"/>
<polygon fill="midnightblue" stroke="midnightblue" points="650.188,-202.633 660.255,-199.331 650.325,-195.635 650.188,-202.633"/>
</g>
<!-- Node63 -->
<g id="node7" class="node"><title>Node63</title>
<g id="a_node7"><a xlink:href="namespacemom__error__handler.html#ad5f00a53059c72fe2332d1436c80ca71" target="_top" xlink:title=" ">
<polygon fill="white" stroke="black" points="922.5,-227 922.5,-257 1015.5,-257 1015.5,-227 922.5,-227"/>
<text text-anchor="start" x="930.5" y="-245" font-family="Helvetica,sans-Serif" font-size="10.00">mom_error_handler::</text>
<text text-anchor="middle" x="969" y="-234" font-family="Helvetica,sans-Serif" font-size="10.00">is_root_pe</text>
</a>
</g>
</g>
<!-- Node59&#45;&gt;Node63 -->
<g id="edge7" class="edge"><title>Node59&#45;&gt;Node63</title>
<path fill="none" stroke="midnightblue" d="M359.624,-253.989C371.399,-257.356 384.083,-260.629 396,-263 474.512,-278.619 494.949,-283 575,-283 575,-283 575,-283 709,-283 779.849,-283 860.273,-267.848 912.448,-255.967"/>
<polygon fill="midnightblue" stroke="midnightblue" points="913.543,-259.306 922.495,-253.639 911.963,-252.486 913.543,-259.306"/>
</g>
<!-- Node64 -->
<g id="node8" class="node"><title>Node64</title>
<g id="a_node8"><a xlink:href="namespacemom__diag__mediator.html#a65fe8d329cf5dbfd08c98874a7a64407" target="_top" xlink:title="Log a diagnostic to the available diagnostics file.">
<polygon fill="white" stroke="black" points="396.5,-224 396.5,-254 491.5,-254 491.5,-224 396.5,-224"/>
<text text-anchor="start" x="404.5" y="-242" font-family="Helvetica,sans-Serif" font-size="10.00">mom_diag_mediator::</text>
<text text-anchor="middle" x="444" y="-231" font-family="Helvetica,sans-Serif" font-size="10.00">log_available_diag</text>
</a>
</g>
</g>
<!-- Node59&#45;&gt;Node64 -->
<g id="edge8" class="edge"><title>Node59&#45;&gt;Node64</title>
<path fill="none" stroke="midnightblue" d="M359.566,-239C368.154,-239 377.21,-239 386.063,-239"/>
<polygon fill="midnightblue" stroke="midnightblue" points="386.322,-242.5 396.322,-239 386.322,-235.5 386.322,-242.5"/>
</g>
<!-- Node66 -->
<g id="node10" class="node"><title>Node66</title>
<g id="a_node10"><a xlink:href="namespacemom__diag__mediator.html#a8415b33a337b1fbc7535688eca85ab37" target="_top" xlink:title="Create a diagnostic type and attached to list.">
<polygon fill="white" stroke="black" points="396.5,-98 396.5,-128 491.5,-128 491.5,-98 396.5,-98"/>
<text text-anchor="start" x="404.5" y="-116" font-family="Helvetica,sans-Serif" font-size="10.00">mom_diag_mediator::</text>
<text text-anchor="middle" x="444" y="-105" font-family="Helvetica,sans-Serif" font-size="10.00">add_diag_to_list</text>
</a>
</g>
</g>
<!-- Node59&#45;&gt;Node66 -->
<g id="edge10" class="edge"><title>Node59&#45;&gt;Node66</title>
<path fill="none" stroke="midnightblue" d="M334.176,-218.475C357.678,-195.697 395.486,-159.052 419.78,-135.505"/>
<polygon fill="midnightblue" stroke="midnightblue" points="422.413,-137.828 427.158,-128.355 417.541,-132.801 422.413,-137.828"/>
</g>
<!-- Node62 -->
<g id="node6" class="node"><title>Node62</title>
<g id="a_node6"><a xlink:href="namespacemom__error__handler.html#a460cfb79a06c29fc249952c2a3710d67" target="_top" xlink:title=" ">
<polygon fill="white" stroke="black" points="792.5,-186 792.5,-216 885.5,-216 885.5,-186 792.5,-186"/>
<text text-anchor="start" x="800.5" y="-204" font-family="Helvetica,sans-Serif" font-size="10.00">mom_error_handler::</text>
<text text-anchor="middle" x="839" y="-193" font-family="Helvetica,sans-Serif" font-size="10.00">mom_error</text>
</a>
</g>
</g>
<!-- Node61&#45;&gt;Node62 -->
<g id="edge5" class="edge"><title>Node61&#45;&gt;Node62</title>
<path fill="none" stroke="midnightblue" d="M755.572,-201C764.183,-201 773.256,-201 782.11,-201"/>
<polygon fill="midnightblue" stroke="midnightblue" points="782.361,-204.5 792.361,-201 782.361,-197.5 782.361,-204.5"/>
</g>
<!-- Node62&#45;&gt;Node63 -->
<g id="edge6" class="edge"><title>Node62&#45;&gt;Node63</title>
<path fill="none" stroke="midnightblue" d="M885.849,-215.686C894.594,-218.487 903.832,-221.446 912.832,-224.329"/>
<polygon fill="midnightblue" stroke="midnightblue" points="911.88,-227.699 922.471,-227.416 914.015,-221.033 911.88,-227.699"/>
</g>
<!-- Node65 -->
<g id="node9" class="node"><title>Node65</title>
<g id="a_node9"><a xlink:href="namespacemom__diag__mediator.html#ae002ca447acba252bf7bdc042e75a01e" target="_top" xlink:title=" ">
<polygon fill="white" stroke="black" points="528.5,-224 528.5,-254 623.5,-254 623.5,-224 528.5,-224"/>
<text text-anchor="start" x="536.5" y="-242" font-family="Helvetica,sans-Serif" font-size="10.00">mom_diag_mediator::</text>
<text text-anchor="middle" x="576" y="-231" font-family="Helvetica,sans-Serif" font-size="10.00">describe_option</text>
</a>
</g>
</g>
<!-- Node64&#45;&gt;Node65 -->
<g id="edge9" class="edge"><title>Node64&#45;&gt;Node65</title>
<path fill="none" stroke="midnightblue" d="M491.566,-239C500.154,-239 509.21,-239 518.063,-239"/>
<polygon fill="midnightblue" stroke="midnightblue" points="518.322,-242.5 528.322,-239 518.322,-235.5 518.322,-242.5"/>
</g>
<!-- Node67 -->
<g id="node11" class="node"><title>Node67</title>
<g id="a_node11"><a xlink:href="namespacemom__diag__mediator.html#a3f7442639213320f7429e2288a79fda2" target="_top" xlink:title="Returns a new diagnostic id, it may be necessary to expand the diagnostics array.">
<polygon fill="white" stroke="black" points="528.5,-0 528.5,-30 623.5,-30 623.5,-0 528.5,-0"/>
<text text-anchor="start" x="536.5" y="-18" font-family="Helvetica,sans-Serif" font-size="10.00">mom_diag_mediator::</text>
<text text-anchor="middle" x="576" y="-7" font-family="Helvetica,sans-Serif" font-size="10.00">get_new_diag_id</text>
</a>
</g>
</g>
<!-- Node66&#45;&gt;Node67 -->
<g id="edge11" class="edge"><title>Node66&#45;&gt;Node67</title>
<path fill="none" stroke="midnightblue" d="M459.621,-97.8335C475.483,-81.9123 502.031,-56.7712 528,-39 529.843,-37.7388 531.761,-36.5002 533.723,-35.2913"/>
<polygon fill="midnightblue" stroke="midnightblue" points="535.612,-38.2423 542.513,-30.2034 532.105,-32.184 535.612,-38.2423"/>
</g>
<!-- Node70 -->
<g id="node14" class="node"><title>Node70</title>
<g id="a_node14"><a xlink:href="namespacemom__diag__mediator.html#a1b0bed2113a0c268eafd1bafbb48bd4f" target="_top" xlink:title=" ">
<polygon fill="white" stroke="black" points="528.5,-98 528.5,-128 623.5,-128 623.5,-98 528.5,-98"/>
<text text-anchor="start" x="536.5" y="-116" font-family="Helvetica,sans-Serif" font-size="10.00">mom_diag_mediator::</text>
<text text-anchor="middle" x="576" y="-105" font-family="Helvetica,sans-Serif" font-size="10.00">alloc_diag_with_id</text>
</a>
</g>
</g>
<!-- Node66&#45;&gt;Node70 -->
<g id="edge15" class="edge"><title>Node66&#45;&gt;Node70</title>
<path fill="none" stroke="midnightblue" d="M491.566,-113C500.154,-113 509.21,-113 518.063,-113"/>
<polygon fill="midnightblue" stroke="midnightblue" points="518.322,-116.5 528.322,-113 518.322,-109.5 518.322,-116.5"/>
</g>
<!-- Node68 -->
<g id="node12" class="node"><title>Node68</title>
<g id="a_node12"><a xlink:href="namespacemom__error__handler.html#a33bcd190d460095104954f2e654f9fe6" target="_top" xlink:title="Issues a FATAL error if the assertion fails, i.e. the first argument is false.">
<polygon fill="white" stroke="black" points="661.5,-137 661.5,-167 754.5,-167 754.5,-137 661.5,-137"/>
<text text-anchor="start" x="669.5" y="-155" font-family="Helvetica,sans-Serif" font-size="10.00">mom_error_handler::</text>
<text text-anchor="middle" x="708" y="-144" font-family="Helvetica,sans-Serif" font-size="10.00">assert</text>
</a>
</g>
</g>
<!-- Node66&#45;&gt;Node68 -->
<g id="edge16" class="edge"><title>Node66&#45;&gt;Node68</title>
<path fill="none" stroke="midnightblue" d="M491.144,-128.096C503.042,-131.502 515.904,-134.767 528,-137 568.891,-144.548 615.746,-148.303 651.259,-150.168"/>
<polygon fill="midnightblue" stroke="midnightblue" points="651.268,-153.672 661.428,-150.667 651.611,-146.681 651.268,-153.672"/>
</g>
<!-- Node71 -->
<g id="node15" class="node"><title>Node71</title>
<g id="a_node15"><a xlink:href="namespacemom__diag__mediator.html#a085f313357879a914af6450f2ab8ec79" target="_top" xlink:title="Associates the mask pointers within diag with the appropriate mask based on the axes group.">
<polygon fill="white" stroke="black" points="528.5,-49 528.5,-79 623.5,-79 623.5,-49 528.5,-49"/>
<text text-anchor="start" x="536.5" y="-67" font-family="Helvetica,sans-Serif" font-size="10.00">mom_diag_mediator::</text>
<text text-anchor="middle" x="576" y="-56" font-family="Helvetica,sans-Serif" font-size="10.00">set_diag_mask</text>
</a>
</g>
</g>
<!-- Node66&#45;&gt;Node71 -->
<g id="edge17" class="edge"><title>Node66&#45;&gt;Node71</title>
<path fill="none" stroke="midnightblue" d="M485.065,-97.8986C497.792,-93.1015 512.022,-87.7378 525.341,-82.7177"/>
<polygon fill="midnightblue" stroke="midnightblue" points="526.721,-85.9381 534.843,-79.1359 524.252,-79.3879 526.721,-85.9381"/>
</g>
<!-- Node67&#45;&gt;Node68 -->
<g id="edge12" class="edge"><title>Node67&#45;&gt;Node68</title>
<path fill="none" stroke="midnightblue" d="M611.569,-30.2604C615.961,-32.8742 620.231,-35.795 624,-39 654.09,-64.5876 679.382,-103.139 693.869,-127.938"/>
<polygon fill="midnightblue" stroke="midnightblue" points="690.882,-129.765 698.88,-136.714 696.961,-126.295 690.882,-129.765"/>
</g>
<!-- Node69 -->
<g id="node13" class="node"><title>Node69</title>
<g id="a_node13"><a xlink:href="namespacemom__diag__mediator.html#a883862f004e30bbc5211f38635511ba0" target="_top" xlink:title="Initializes a diag_type (used after allocating new memory)">
<polygon fill="white" stroke="black" points="660.5,-0 660.5,-30 755.5,-30 755.5,-0 660.5,-0"/>
<text text-anchor="start" x="668.5" y="-18" font-family="Helvetica,sans-Serif" font-size="10.00">mom_diag_mediator::</text>
<text text-anchor="middle" x="708" y="-7" font-family="Helvetica,sans-Serif" font-size="10.00">initialize_diag_type</text>
</a>
</g>
</g>
<!-- Node67&#45;&gt;Node69 -->
<g id="edge14" class="edge"><title>Node67&#45;&gt;Node69</title>
<path fill="none" stroke="midnightblue" d="M623.566,-15C632.154,-15 641.21,-15 650.063,-15"/>
<polygon fill="midnightblue" stroke="midnightblue" points="650.322,-18.5001 660.322,-15 650.322,-11.5001 650.322,-18.5001"/>
</g>
<!-- Node68&#45;&gt;Node62 -->
<g id="edge13" class="edge"><title>Node68&#45;&gt;Node62</title>
<path fill="none" stroke="midnightblue" d="M748.757,-167.101C761.386,-171.899 775.507,-177.262 788.723,-182.282"/>
<polygon fill="midnightblue" stroke="midnightblue" points="787.561,-185.585 798.152,-185.864 790.047,-179.041 787.561,-185.585"/>
</g>
</g>
</svg>
