<?xml version="1.0" encoding="UTF-8" standalone="no"?>
<!DOCTYPE svg PUBLIC "-//W3C//DTD SVG 1.1//EN"
 "http://www.w3.org/Graphics/SVG/1.1/DTD/svg11.dtd">
<!-- Generated by graphviz version 2.30.1 (20170916.1124)
 -->
<!-- Title: mom_ice_shelf::ice_shelf_advect_thickness_y Pages: 1 -->
<svg width="248pt" height="38pt"
 viewBox="0.00 0.00 248.00 38.00" xmlns="http://www.w3.org/2000/svg" xmlns:xlink="http://www.w3.org/1999/xlink">
<g id="graph0" class="graph" transform="scale(1 1) rotate(0) translate(4 34)">
<title>mom_ice_shelf::ice_shelf_advect_thickness_y</title>
<polygon fill="white" stroke="white" points="-4,5 -4,-34 245,-34 245,5 -4,5"/>
<!-- Node162 -->
<g id="node1" class="node"><title>Node162</title>
<g id="a_node1"><a xlink:title=" ">
<polygon fill="#bfbfbf" stroke="black" points="0,-0 0,-30 110,-30 110,-0 0,-0"/>
<text text-anchor="start" x="8" y="-18" font-family="Helvetica,sans-Serif" font-size="10.00">mom_ice_shelf::ice</text>
<text text-anchor="middle" x="55" y="-7" font-family="Helvetica,sans-Serif" font-size="10.00">_shelf_advect_thickness_y</text>
</a>
</g>
</g>
<!-- Node163 -->
<g id="node2" class="node"><title>Node163</title>
<g id="a_node2"><a xlink:href="namespacemom__ice__shelf.html#ac30ce29228457ec8a19679f25960ef21" target="_top" xlink:title=" ">
<polygon fill="white" stroke="black" points="146.5,-0 146.5,-30 239.5,-30 239.5,-0 146.5,-0"/>
<text text-anchor="start" x="154.5" y="-18" font-family="Helvetica,sans-Serif" font-size="10.00">mom_ice_shelf::slope</text>
<text text-anchor="middle" x="193" y="-7" font-family="Helvetica,sans-Serif" font-size="10.00">_limiter</text>
</a>
</g>
</g>
<!-- Node162&#45;&gt;Node163 -->
<g id="edge1" class="edge"><title>Node162&#45;&gt;Node163</title>
<path fill="none" stroke="midnightblue" d="M110.142,-15C118.767,-15 127.702,-15 136.361,-15"/>
<polygon fill="midnightblue" stroke="midnightblue" points="136.364,-18.5001 146.364,-15 136.364,-11.5001 136.364,-18.5001"/>
</g>
</g>
</svg>
