<?xml version="1.0" encoding="UTF-8" standalone="no"?>
<!DOCTYPE svg PUBLIC "-//W3C//DTD SVG 1.1//EN"
 "http://www.w3.org/Graphics/SVG/1.1/DTD/svg11.dtd">
<!-- Generated by graphviz version 2.30.1 (20170916.1124)
 -->
<!-- Title: mom_restart::restart_init Pages: 1 -->
<svg width="342pt" height="77pt"
 viewBox="0.00 0.00 342.00 77.00" xmlns="http://www.w3.org/2000/svg" xmlns:xlink="http://www.w3.org/1999/xlink">
<g id="graph0" class="graph" transform="scale(1 1) rotate(0) translate(4 73)">
<title>mom_restart::restart_init</title>
<polygon fill="white" stroke="white" points="-4,5 -4,-73 339,-73 339,5 -4,5"/>
<!-- Node123 -->
<g id="node1" class="node"><title>Node123</title>
<g id="a_node1"><a xlink:title=" ">
<polygon fill="#bfbfbf" stroke="black" points="230,-27.5 230,-46.5 334,-46.5 334,-27.5 230,-27.5"/>
<text text-anchor="middle" x="282" y="-34.5" font-family="Helvetica,sans-Serif" font-size="10.00">mom_restart::restart_init</text>
</a>
</g>
</g>
<!-- Node124 -->
<g id="node2" class="node"><title>Node124</title>
<g id="a_node2"><a xlink:href="namespacemom__ice__shelf.html#ae315e8464ef8a20062e3bccb61886755" target="_top" xlink:title=" ">
<polygon fill="white" stroke="black" points="92.5,-0 92.5,-30 193.5,-30 193.5,-0 92.5,-0"/>
<text text-anchor="start" x="100.5" y="-18" font-family="Helvetica,sans-Serif" font-size="10.00">mom_ice_shelf::initialize</text>
<text text-anchor="middle" x="143" y="-7" font-family="Helvetica,sans-Serif" font-size="10.00">_ice_shelf</text>
</a>
</g>
</g>
<!-- Node123&#45;&gt;Node124 -->
<g id="edge1" class="edge"><title>Node123&#45;&gt;Node124</title>
<path fill="none" stroke="midnightblue" d="M219.829,-27.177C211.084,-25.7727 202.178,-24.3425 193.69,-22.9794"/>
<polygon fill="midnightblue" stroke="midnightblue" points="219.558,-30.6781 229.986,-28.808 220.668,-23.7667 219.558,-30.6781"/>
</g>
<!-- Node127 -->
<g id="node5" class="node"><title>Node127</title>
<g id="a_node5"><a xlink:href="namespacemom.html#a0be2869fef30e1e0604facfe1b41555d" target="_top" xlink:title="This subroutine initializes MOM.">
<polygon fill="white" stroke="black" points="98.5,-49.5 98.5,-68.5 187.5,-68.5 187.5,-49.5 98.5,-49.5"/>
<text text-anchor="middle" x="143" y="-56.5" font-family="Helvetica,sans-Serif" font-size="10.00">mom::initialize_mom</text>
</a>
</g>
</g>
<!-- Node123&#45;&gt;Node127 -->
<g id="edge4" class="edge"><title>Node123&#45;&gt;Node127</title>
<path fill="none" stroke="midnightblue" d="M219.782,-46.8307C209.024,-48.5581 198.025,-50.3245 187.86,-51.9568"/>
<polygon fill="midnightblue" stroke="midnightblue" points="220.668,-50.2333 229.986,-45.192 219.558,-43.3219 220.668,-50.2333"/>
</g>
<!-- Node125 -->
<g id="node3" class="node"><title>Node125</title>
<g id="a_node3"><a xlink:href="MOM__driver_8F90.html#a08fffeb2d8e8acbf9ed4609be6d258c6" target="_top" xlink:title=" ">
<polygon fill="white" stroke="black" points="0,-46.5 0,-65.5 56,-65.5 56,-46.5 0,-46.5"/>
<text text-anchor="middle" x="28" y="-53.5" font-family="Helvetica,sans-Serif" font-size="10.00">mom_main</text>
</a>
</g>
</g>
<!-- Node124&#45;&gt;Node125 -->
<g id="edge2" class="edge"><title>Node124&#45;&gt;Node125</title>
<path fill="none" stroke="midnightblue" d="M90.8359,-33.564C78.5584,-38.0186 65.9419,-42.5963 55.3331,-46.4455"/>
<polygon fill="midnightblue" stroke="midnightblue" points="92.358,-36.735 100.565,-30.0341 89.9705,-30.1548 92.358,-36.735"/>
</g>
<!-- Node126 -->
<g id="node4" class="node"><title>Node126</title>
<g id="a_node4"><a xlink:href="ice__shelf__driver_8F90.html#aec5bef92f0dad343f545cd8d62e378d8" target="_top" xlink:title=" ">
<polygon fill="white" stroke="black" points="0.5,-5.5 0.5,-24.5 55.5,-24.5 55.5,-5.5 0.5,-5.5"/>
<text text-anchor="middle" x="28" y="-12.5" font-family="Helvetica,sans-Serif" font-size="10.00">shelf_main</text>
</a>
</g>
</g>
<!-- Node124&#45;&gt;Node126 -->
<g id="edge3" class="edge"><title>Node124&#45;&gt;Node126</title>
<path fill="none" stroke="midnightblue" d="M82.2727,-15C72.9038,-15 63.6536,-15 55.5571,-15"/>
<polygon fill="midnightblue" stroke="midnightblue" points="82.4366,-18.5001 92.4366,-15 82.4365,-11.5001 82.4366,-18.5001"/>
</g>
<!-- Node127&#45;&gt;Node125 -->
<g id="edge5" class="edge"><title>Node127&#45;&gt;Node125</title>
<path fill="none" stroke="midnightblue" d="M88.2173,-57.5721C77.1298,-57.2778 65.9024,-56.9797 56.2484,-56.7234"/>
<polygon fill="midnightblue" stroke="midnightblue" points="88.2219,-61.0734 98.3112,-57.8401 88.4077,-54.0759 88.2219,-61.0734"/>
</g>
</g>
</svg>
