<?xml version="1.0" encoding="UTF-8" standalone="no"?>
<!DOCTYPE svg PUBLIC "-//W3C//DTD SVG 1.1//EN"
 "http://www.w3.org/Graphics/SVG/1.1/DTD/svg11.dtd">
<!-- Generated by graphviz version 2.30.1 (20170916.1124)
 -->
<!-- Title: mom_file_parser::read_param_char Pages: 1 -->
<svg width="466pt" height="153pt"
 viewBox="0.00 0.00 466.00 153.00" xmlns="http://www.w3.org/2000/svg" xmlns:xlink="http://www.w3.org/1999/xlink">
<g id="graph0" class="graph" transform="scale(1 1) rotate(0) translate(4 149)">
<title>mom_file_parser::read_param_char</title>
<polygon fill="white" stroke="white" points="-4,5 -4,-149 463,-149 463,5 -4,5"/>
<!-- Node346 -->
<g id="node1" class="node"><title>Node346</title>
<g id="a_node1"><a xlink:title=" ">
<polygon fill="#bfbfbf" stroke="black" points="0,-27 0,-57 98,-57 98,-27 0,-27"/>
<text text-anchor="start" x="8" y="-45" font-family="Helvetica,sans-Serif" font-size="10.00">mom_file_parser::read</text>
<text text-anchor="middle" x="49" y="-34" font-family="Helvetica,sans-Serif" font-size="10.00">_param_char</text>
</a>
</g>
</g>
<!-- Node347 -->
<g id="node2" class="node"><title>Node347</title>
<g id="a_node2"><a xlink:href="namespacemom__file__parser.html#af883df6020543889b25986d6ee9701f7" target="_top" xlink:title=" ">
<polygon fill="white" stroke="black" points="136,-52 136,-82 228,-82 228,-52 136,-52"/>
<text text-anchor="start" x="144" y="-70" font-family="Helvetica,sans-Serif" font-size="10.00">mom_file_parser::get</text>
<text text-anchor="middle" x="182" y="-59" font-family="Helvetica,sans-Serif" font-size="10.00">_variable_line</text>
</a>
</g>
</g>
<!-- Node346&#45;&gt;Node347 -->
<g id="edge1" class="edge"><title>Node346&#45;&gt;Node347</title>
<path fill="none" stroke="midnightblue" d="M98.0357,-51.1671C107.045,-52.8864 116.529,-54.6965 125.737,-56.4537"/>
<polygon fill="midnightblue" stroke="midnightblue" points="125.106,-59.8963 135.585,-58.3329 126.418,-53.0203 125.106,-59.8963"/>
</g>
<!-- Node352 -->
<g id="node7" class="node"><title>Node352</title>
<g id="a_node7"><a xlink:href="namespacemom__file__parser.html#a416b4a2a5b52f526ad1815f3e5a4739e" target="_top" xlink:title=" ">
<polygon fill="white" stroke="black" points="134,-3 134,-33 230,-33 230,-3 134,-3"/>
<text text-anchor="start" x="142" y="-21" font-family="Helvetica,sans-Serif" font-size="10.00">mom_file_parser::strip</text>
<text text-anchor="middle" x="182" y="-10" font-family="Helvetica,sans-Serif" font-size="10.00">_quotes</text>
</a>
</g>
</g>
<!-- Node346&#45;&gt;Node352 -->
<g id="edge6" class="edge"><title>Node346&#45;&gt;Node352</title>
<path fill="none" stroke="midnightblue" d="M98.0357,-33.1996C106.433,-31.6611 115.244,-30.0469 123.859,-28.4687"/>
<polygon fill="midnightblue" stroke="midnightblue" points="124.639,-31.884 133.845,-26.6391 123.378,-24.9986 124.639,-31.884"/>
</g>
<!-- Node348 -->
<g id="node3" class="node"><title>Node348</title>
<g id="a_node3"><a xlink:href="namespacemom__file__parser.html#a7803aabff129cc7f56d4516bc24613f0" target="_top" xlink:title=" ">
<polygon fill="white" stroke="black" points="315,-115 315,-145 409,-145 409,-115 315,-115"/>
<text text-anchor="start" x="323" y="-133" font-family="Helvetica,sans-Serif" font-size="10.00">mom_file_parser::flag</text>
<text text-anchor="middle" x="362" y="-122" font-family="Helvetica,sans-Serif" font-size="10.00">_line_as_read</text>
</a>
</g>
</g>
<!-- Node347&#45;&gt;Node348 -->
<g id="edge2" class="edge"><title>Node347&#45;&gt;Node348</title>
<path fill="none" stroke="midnightblue" d="M212.836,-82.1716C228.413,-89.7023 247.943,-98.5447 266,-105 278.413,-109.438 291.991,-113.475 304.899,-116.949"/>
<polygon fill="midnightblue" stroke="midnightblue" points="304.048,-120.344 314.609,-119.492 305.822,-113.572 304.048,-120.344"/>
</g>
<!-- Node349 -->
<g id="node4" class="node"><title>Node349</title>
<g id="a_node4"><a xlink:href="namespacemom__file__parser.html#a0c9bb1e76b09bc09bae5402e63bd0f99" target="_top" xlink:title=" ">
<polygon fill="white" stroke="black" points="266,-76.5 266,-95.5 458,-95.5 458,-76.5 266,-76.5"/>
<text text-anchor="middle" x="362" y="-83.5" font-family="Helvetica,sans-Serif" font-size="10.00">mom_file_parser::overridewarninghasbeenissued</text>
</a>
</g>
</g>
<!-- Node347&#45;&gt;Node349 -->
<g id="edge3" class="edge"><title>Node347&#45;&gt;Node349</title>
<path fill="none" stroke="midnightblue" d="M228.377,-71.8437C238.654,-72.9406 249.962,-74.1476 261.509,-75.3802"/>
<polygon fill="midnightblue" stroke="midnightblue" points="261.382,-78.8865 271.697,-76.4677 262.126,-71.926 261.382,-78.8865"/>
</g>
<!-- Node350 -->
<g id="node5" class="node"><title>Node350</title>
<g id="a_node5"><a xlink:href="namespacemom__file__parser.html#a73b11b969d303b1fc0ba5235c812fd05" target="_top" xlink:title=" ">
<polygon fill="white" stroke="black" points="298,-38.5 298,-57.5 426,-57.5 426,-38.5 298,-38.5"/>
<text text-anchor="middle" x="362" y="-45.5" font-family="Helvetica,sans-Serif" font-size="10.00">mom_file_parser::popblocklevel</text>
</a>
</g>
</g>
<!-- Node347&#45;&gt;Node350 -->
<g id="edge4" class="edge"><title>Node347&#45;&gt;Node350</title>
<path fill="none" stroke="midnightblue" d="M228.377,-62.1563C246.441,-60.2282 267.69,-57.9601 287.822,-55.8111"/>
<polygon fill="midnightblue" stroke="midnightblue" points="288.338,-59.276 297.91,-54.7343 287.595,-52.3156 288.338,-59.276"/>
</g>
<!-- Node351 -->
<g id="node6" class="node"><title>Node351</title>
<g id="a_node6"><a xlink:href="namespacemom__file__parser.html#a58777b0faf747d59a793b4e238919dc6" target="_top" xlink:title=" ">
<polygon fill="white" stroke="black" points="296,-0.5 296,-19.5 428,-19.5 428,-0.5 296,-0.5"/>
<text text-anchor="middle" x="362" y="-7.5" font-family="Helvetica,sans-Serif" font-size="10.00">mom_file_parser::pushblocklevel</text>
</a>
</g>
</g>
<!-- Node347&#45;&gt;Node351 -->
<g id="edge5" class="edge"><title>Node347&#45;&gt;Node351</title>
<path fill="none" stroke="midnightblue" d="M211.534,-51.9416C227.248,-44.1628 247.305,-35.058 266,-29 274.37,-26.2876 283.287,-23.8904 292.176,-21.7927"/>
<polygon fill="midnightblue" stroke="midnightblue" points="293.18,-25.1547 302.171,-19.5509 291.648,-18.3244 293.18,-25.1547"/>
</g>
</g>
</svg>
