<?xml version="1.0" encoding="UTF-8" standalone="no"?>
<!DOCTYPE svg PUBLIC "-//W3C//DTD SVG 1.1//EN"
 "http://www.w3.org/Graphics/SVG/1.1/DTD/svg11.dtd">
<!-- Generated by graphviz version 2.30.1 (20170916.1124)
 -->
<!-- Title: mom_diag_mediator::register_static_field Pages: 1 -->
<svg width="628pt" height="214pt"
 viewBox="0.00 0.00 628.00 214.00" xmlns="http://www.w3.org/2000/svg" xmlns:xlink="http://www.w3.org/1999/xlink">
<g id="graph0" class="graph" transform="scale(1 1) rotate(0) translate(4 210)">
<title>mom_diag_mediator::register_static_field</title>
<polygon fill="white" stroke="white" points="-4,5 -4,-210 625,-210 625,5 -4,5"/>
<!-- Node452 -->
<g id="node1" class="node"><title>Node452</title>
<g id="a_node1"><a xlink:title="Registers a static diagnostic, returning an integer handle.">
<polygon fill="#bfbfbf" stroke="black" points="0.5,-88 0.5,-118 95.5,-118 95.5,-88 0.5,-88"/>
<text text-anchor="start" x="8.5" y="-106" font-family="Helvetica,sans-Serif" font-size="10.00">mom_diag_mediator::</text>
<text text-anchor="middle" x="48" y="-95" font-family="Helvetica,sans-Serif" font-size="10.00">register_static_field</text>
</a>
</g>
</g>
<!-- Node453 -->
<g id="node2" class="node"><title>Node453</title>
<g id="a_node2"><a xlink:href="namespacemom__diag__mediator.html#a1b0bed2113a0c268eafd1bafbb48bd4f" target="_top" xlink:title=" ">
<polygon fill="white" stroke="black" points="132.5,-176 132.5,-206 227.5,-206 227.5,-176 132.5,-176"/>
<text text-anchor="start" x="140.5" y="-194" font-family="Helvetica,sans-Serif" font-size="10.00">mom_diag_mediator::</text>
<text text-anchor="middle" x="180" y="-183" font-family="Helvetica,sans-Serif" font-size="10.00">alloc_diag_with_id</text>
</a>
</g>
</g>
<!-- Node452&#45;&gt;Node453 -->
<g id="edge1" class="edge"><title>Node452&#45;&gt;Node453</title>
<path fill="none" stroke="midnightblue" d="M69.9832,-118.026C86.6639,-129.882 110.659,-146.742 132,-161 136.628,-164.092 141.548,-167.309 146.396,-170.438"/>
<polygon fill="midnightblue" stroke="midnightblue" points="144.657,-173.48 154.965,-175.93 148.434,-167.587 144.657,-173.48"/>
</g>
<!-- Node454 -->
<g id="node3" class="node"><title>Node454</title>
<g id="a_node3"><a xlink:href="namespacemom__error__handler.html#a33bcd190d460095104954f2e654f9fe6" target="_top" xlink:title="Issues a FATAL error if the assertion fails, i.e. the first argument is false.">
<polygon fill="white" stroke="black" points="265.5,-137 265.5,-167 358.5,-167 358.5,-137 265.5,-137"/>
<text text-anchor="start" x="273.5" y="-155" font-family="Helvetica,sans-Serif" font-size="10.00">mom_error_handler::</text>
<text text-anchor="middle" x="312" y="-144" font-family="Helvetica,sans-Serif" font-size="10.00">assert</text>
</a>
</g>
</g>
<!-- Node452&#45;&gt;Node454 -->
<g id="edge2" class="edge"><title>Node452&#45;&gt;Node454</title>
<path fill="none" stroke="midnightblue" d="M95.6717,-117.76C107.445,-121.132 120.117,-124.466 132,-127 172.919,-135.727 219.772,-142.145 255.278,-146.292"/>
<polygon fill="midnightblue" stroke="midnightblue" points="255.111,-149.796 265.444,-147.454 255.906,-142.841 255.111,-149.796"/>
</g>
<!-- Node457 -->
<g id="node6" class="node"><title>Node457</title>
<g id="a_node6"><a xlink:href="namespacemom__diag__mediator.html#a3f7442639213320f7429e2288a79fda2" target="_top" xlink:title="Returns a new diagnostic id, it may be necessary to expand the diagnostics array.">
<polygon fill="white" stroke="black" points="132.5,-88 132.5,-118 227.5,-118 227.5,-88 132.5,-88"/>
<text text-anchor="start" x="140.5" y="-106" font-family="Helvetica,sans-Serif" font-size="10.00">mom_diag_mediator::</text>
<text text-anchor="middle" x="180" y="-95" font-family="Helvetica,sans-Serif" font-size="10.00">get_new_diag_id</text>
</a>
</g>
</g>
<!-- Node452&#45;&gt;Node457 -->
<g id="edge5" class="edge"><title>Node452&#45;&gt;Node457</title>
<path fill="none" stroke="midnightblue" d="M95.5658,-103C104.154,-103 113.21,-103 122.063,-103"/>
<polygon fill="midnightblue" stroke="midnightblue" points="122.322,-106.5 132.322,-103 122.322,-99.5001 122.322,-106.5"/>
</g>
<!-- Node456 -->
<g id="node5" class="node"><title>Node456</title>
<g id="a_node5"><a xlink:href="namespacemom__error__handler.html#ad5f00a53059c72fe2332d1436c80ca71" target="_top" xlink:title=" ">
<polygon fill="white" stroke="black" points="526.5,-78 526.5,-108 619.5,-108 619.5,-78 526.5,-78"/>
<text text-anchor="start" x="534.5" y="-96" font-family="Helvetica,sans-Serif" font-size="10.00">mom_error_handler::</text>
<text text-anchor="middle" x="573" y="-85" font-family="Helvetica,sans-Serif" font-size="10.00">is_root_pe</text>
</a>
</g>
</g>
<!-- Node452&#45;&gt;Node456 -->
<g id="edge8" class="edge"><title>Node452&#45;&gt;Node456</title>
<path fill="none" stroke="midnightblue" d="M90.257,-87.982C103.414,-83.8972 118.154,-80.04 132,-78 269.012,-57.8135 432.496,-73.7167 516.341,-84.7348"/>
<polygon fill="midnightblue" stroke="midnightblue" points="516.033,-88.2247 526.41,-86.085 516.963,-81.2868 516.033,-88.2247"/>
</g>
<!-- Node459 -->
<g id="node8" class="node"><title>Node459</title>
<g id="a_node8"><a xlink:href="namespacemom__diag__mediator.html#a65fe8d329cf5dbfd08c98874a7a64407" target="_top" xlink:title="Log a diagnostic to the available diagnostics file.">
<polygon fill="white" stroke="black" points="132.5,-0 132.5,-30 227.5,-30 227.5,-0 132.5,-0"/>
<text text-anchor="start" x="140.5" y="-18" font-family="Helvetica,sans-Serif" font-size="10.00">mom_diag_mediator::</text>
<text text-anchor="middle" x="180" y="-7" font-family="Helvetica,sans-Serif" font-size="10.00">log_available_diag</text>
</a>
</g>
</g>
<!-- Node452&#45;&gt;Node459 -->
<g id="edge9" class="edge"><title>Node452&#45;&gt;Node459</title>
<path fill="none" stroke="midnightblue" d="M69.9832,-87.9745C86.6639,-76.1182 110.659,-59.2584 132,-45 136.628,-41.9078 141.548,-38.6912 146.396,-35.562"/>
<polygon fill="midnightblue" stroke="midnightblue" points="148.434,-38.4129 154.965,-30.0698 144.657,-32.5196 148.434,-38.4129"/>
</g>
<!-- Node455 -->
<g id="node4" class="node"><title>Node455</title>
<g id="a_node4"><a xlink:href="namespacemom__error__handler.html#a460cfb79a06c29fc249952c2a3710d67" target="_top" xlink:title=" ">
<polygon fill="white" stroke="black" points="396.5,-112 396.5,-142 489.5,-142 489.5,-112 396.5,-112"/>
<text text-anchor="start" x="404.5" y="-130" font-family="Helvetica,sans-Serif" font-size="10.00">mom_error_handler::</text>
<text text-anchor="middle" x="443" y="-119" font-family="Helvetica,sans-Serif" font-size="10.00">mom_error</text>
</a>
</g>
</g>
<!-- Node454&#45;&gt;Node455 -->
<g id="edge3" class="edge"><title>Node454&#45;&gt;Node455</title>
<path fill="none" stroke="midnightblue" d="M358.844,-143.116C367.778,-141.384 377.236,-139.551 386.445,-137.767"/>
<polygon fill="midnightblue" stroke="midnightblue" points="387.152,-141.195 396.304,-135.856 385.821,-134.322 387.152,-141.195"/>
</g>
<!-- Node455&#45;&gt;Node456 -->
<g id="edge4" class="edge"><title>Node455&#45;&gt;Node456</title>
<path fill="none" stroke="midnightblue" d="M489.849,-114.821C498.501,-112.523 507.636,-110.097 516.545,-107.73"/>
<polygon fill="midnightblue" stroke="midnightblue" points="517.704,-111.044 526.471,-105.094 515.907,-104.278 517.704,-111.044"/>
</g>
<!-- Node457&#45;&gt;Node454 -->
<g id="edge6" class="edge"><title>Node457&#45;&gt;Node454</title>
<path fill="none" stroke="midnightblue" d="M221.065,-118.101C233.792,-122.899 248.022,-128.262 261.341,-133.282"/>
<polygon fill="midnightblue" stroke="midnightblue" points="260.252,-136.612 270.843,-136.864 262.721,-130.062 260.252,-136.612"/>
</g>
<!-- Node458 -->
<g id="node7" class="node"><title>Node458</title>
<g id="a_node7"><a xlink:href="namespacemom__diag__mediator.html#a883862f004e30bbc5211f38635511ba0" target="_top" xlink:title="Initializes a diag_type (used after allocating new memory)">
<polygon fill="white" stroke="black" points="264.5,-88 264.5,-118 359.5,-118 359.5,-88 264.5,-88"/>
<text text-anchor="start" x="272.5" y="-106" font-family="Helvetica,sans-Serif" font-size="10.00">mom_diag_mediator::</text>
<text text-anchor="middle" x="312" y="-95" font-family="Helvetica,sans-Serif" font-size="10.00">initialize_diag_type</text>
</a>
</g>
</g>
<!-- Node457&#45;&gt;Node458 -->
<g id="edge7" class="edge"><title>Node457&#45;&gt;Node458</title>
<path fill="none" stroke="midnightblue" d="M227.566,-103C236.154,-103 245.21,-103 254.063,-103"/>
<polygon fill="midnightblue" stroke="midnightblue" points="254.322,-106.5 264.322,-103 254.322,-99.5001 254.322,-106.5"/>
</g>
<!-- Node460 -->
<g id="node9" class="node"><title>Node460</title>
<g id="a_node9"><a xlink:href="namespacemom__diag__mediator.html#ae002ca447acba252bf7bdc042e75a01e" target="_top" xlink:title=" ">
<polygon fill="white" stroke="black" points="264.5,-0 264.5,-30 359.5,-30 359.5,-0 264.5,-0"/>
<text text-anchor="start" x="272.5" y="-18" font-family="Helvetica,sans-Serif" font-size="10.00">mom_diag_mediator::</text>
<text text-anchor="middle" x="312" y="-7" font-family="Helvetica,sans-Serif" font-size="10.00">describe_option</text>
</a>
</g>
</g>
<!-- Node459&#45;&gt;Node460 -->
<g id="edge10" class="edge"><title>Node459&#45;&gt;Node460</title>
<path fill="none" stroke="midnightblue" d="M227.566,-15C236.154,-15 245.21,-15 254.063,-15"/>
<polygon fill="midnightblue" stroke="midnightblue" points="254.322,-18.5001 264.322,-15 254.322,-11.5001 254.322,-18.5001"/>
</g>
</g>
</svg>
