<?xml version="1.0" encoding="UTF-8" standalone="no"?>
<!DOCTYPE svg PUBLIC "-//W3C//DTD SVG 1.1//EN"
 "http://www.w3.org/Graphics/SVG/1.1/DTD/svg11.dtd">
<!-- Generated by graphviz version 2.30.1 (20170916.1124)
 -->
<!-- Title: mom_document::doc_param_time Pages: 1 -->
<!--zoomable 137 -->
<svg id="main" version="1.1" xmlns="http://www.w3.org/2000/svg" xmlns:xlink="http://www.w3.org/1999/xlink" xml:space="preserve" onload="init(evt)">
<style type="text/css"><![CDATA[
.edge:hover path { stroke: red; }
.edge:hover polygon { stroke: red; fill: red; }
]]></style>
<script type="text/javascript"><![CDATA[
var edges = document.getElementsByTagName('g');
if (edges && edges.length) {
  for (var i=0;i<edges.length;i++) {
    if (edges[i].id.substr(0,4)=='edge') {
      edges[i].setAttribute('class','edge');
    }
  }
}
]]></script>
        <defs>
                <circle id="rim" cx="0" cy="0" r="7"/>
                <circle id="rim2" cx="0" cy="0" r="3.5"/>
                <g id="zoomPlus">
                        <use xlink:href="#rim" fill="#404040">
                                <set attributeName="fill" to="#808080" begin="zoomplus.mouseover" end="zoomplus.mouseout"/>
                        </use>
                        <path d="M-4,0h8M0,-4v8" fill="none" stroke="white" stroke-width="1.5" pointer-events="none"/>
                </g>
                <g id="zoomMin">
                        <use xlink:href="#rim" fill="#404040">
                                <set attributeName="fill" to="#808080" begin="zoomminus.mouseover" end="zoomminus.mouseout"/>
                        </use>
                        <path d="M-4,0h8" fill="none" stroke="white" stroke-width="1.5" pointer-events="none"/>
                </g>
                <g id="dirArrow">
                        <path fill="none" stroke="white" stroke-width="1.5" d="M0,-3.0v7 M-2.5,-0.5L0,-3.0L2.5,-0.5"/>
                </g>
               <g id="resetDef">
                       <use xlink:href="#rim2" fill="#404040">
                               <set attributeName="fill" to="#808080" begin="reset.mouseover" end="reset.mouseout"/>
                       </use>
               </g>
        </defs>

<script type="text/javascript">
var viewWidth = 812;
var viewHeight = 137;
var sectionId = 'dynsection-13';
</script>
<script xlink:href="svgpan.js"/>
<svg id="graph" class="graph">
<g id="viewport">
<title>mom_document::doc_param_time</title>
<polygon fill="white" stroke="white" points="-4,5 -4,-133.363 809,-133.363 809,5 -4,5"/>
<!-- Node120 -->
<g id="node1" class="node"><title>Node120</title>
<g id="a_node1"><a xlink:title=" ">
<polygon fill="#bfbfbf" stroke="black" points="0.5,-66.5 0.5,-85.5 139.5,-85.5 139.5,-66.5 0.5,-66.5"/>
<text text-anchor="middle" x="70" y="-73.5" font-family="Helvetica,sans-Serif" font-size="10.00">mom_document::doc_param_time</text>
</a>
</g>
</g>
<!-- Node121 -->
<g id="node2" class="node"><title>Node121</title>
<g id="a_node2"><a xlink:href="namespacemom__error__handler.html#ad5f00a53059c72fe2332d1436c80ca71" target="_top" xlink:title=" ">
<polygon fill="white" stroke="black" points="710.5,-39 710.5,-69 803.5,-69 803.5,-39 710.5,-39"/>
<text text-anchor="start" x="718.5" y="-57" font-family="Helvetica,sans-Serif" font-size="10.00">mom_error_handler::</text>
<text text-anchor="middle" x="757" y="-46" font-family="Helvetica,sans-Serif" font-size="10.00">is_root_pe</text>
</a>
</g>
</g>
<!-- Node120&#45;&gt;Node121 -->
<g id="edge1" class="edge"><title>Node120&#45;&gt;Node121</title>
<path fill="none" stroke="midnightblue" d="M107.207,-85.5679C127.335,-90.5599 152.91,-96.3671 176,-100 337.74,-125.448 381.975,-140.565 544,-117 601.811,-108.592 665.789,-87.9248 708.183,-72.5404"/>
<polygon fill="midnightblue" stroke="midnightblue" points="709.504,-75.7838 717.683,-69.0498 707.09,-69.2132 709.504,-75.7838"/>
</g>
<!-- Node122 -->
<g id="node3" class="node"><title>Node122</title>
<g id="a_node3"><a xlink:href="namespacemom__document.html#aa23ed2e58e74e88a71de374685ee11ec" target="_top" xlink:title=" ">
<polygon fill="white" stroke="black" points="370.5,-88.5 370.5,-107.5 543.5,-107.5 543.5,-88.5 370.5,-88.5"/>
<text text-anchor="middle" x="457" y="-95.5" font-family="Helvetica,sans-Serif" font-size="10.00">mom_document::mesghasbeendocumented</text>
</a>
</g>
</g>
<!-- Node120&#45;&gt;Node122 -->
<g id="edge2" class="edge"><title>Node120&#45;&gt;Node122</title>
<path fill="none" stroke="midnightblue" d="M139.83,-79.9332C201.137,-83.4364 291.465,-88.598 359.892,-92.5081"/>
<polygon fill="midnightblue" stroke="midnightblue" points="360.066,-96.0237 370.25,-93.1 360.466,-89.0351 360.066,-96.0237"/>
</g>
<!-- Node124 -->
<g id="node5" class="node"><title>Node124</title>
<g id="a_node5"><a xlink:href="namespacemom__document.html#aab976b6c6c9c01833438d217fca228a4" target="_top" xlink:title=" ">
<polygon fill="white" stroke="black" points="206.5,-39 206.5,-69 303.5,-69 303.5,-39 206.5,-39"/>
<text text-anchor="start" x="214.5" y="-57" font-family="Helvetica,sans-Serif" font-size="10.00">mom_document::open</text>
<text text-anchor="middle" x="255" y="-46" font-family="Helvetica,sans-Serif" font-size="10.00">_doc_file</text>
</a>
</g>
</g>
<!-- Node120&#45;&gt;Node124 -->
<g id="edge5" class="edge"><title>Node120&#45;&gt;Node124</title>
<path fill="none" stroke="midnightblue" d="M139.663,-67.7454C158.317,-65.5029 178.323,-63.0977 196.304,-60.9362"/>
<polygon fill="midnightblue" stroke="midnightblue" points="196.835,-64.3976 206.345,-59.729 195.999,-57.4477 196.835,-64.3976"/>
</g>
<!-- Node126 -->
<g id="node7" class="node"><title>Node126</title>
<g id="a_node7"><a xlink:href="namespacemom__document.html#a22d84550b1affd1037328c5117496a65" target="_top" xlink:title=" ">
<polygon fill="white" stroke="black" points="176,-0.5 176,-19.5 334,-19.5 334,-0.5 176,-0.5"/>
<text text-anchor="middle" x="255" y="-7.5" font-family="Helvetica,sans-Serif" font-size="10.00">mom_document::writemessageanddesc</text>
</a>
</g>
</g>
<!-- Node120&#45;&gt;Node126 -->
<g id="edge10" class="edge"><title>Node120&#45;&gt;Node126</title>
<path fill="none" stroke="midnightblue" d="M89.552,-66.4525C110.216,-56.1144 144.823,-39.6755 176,-29 183.324,-26.492 191.143,-24.1778 198.895,-22.0915"/>
<polygon fill="midnightblue" stroke="midnightblue" points="199.833,-25.4643 208.639,-19.5731 198.081,-18.687 199.833,-25.4643"/>
</g>
<!-- Node123 -->
<g id="node4" class="node"><title>Node123</title>
<g id="a_node4"><a xlink:href="namespacemom__error__handler.html#a460cfb79a06c29fc249952c2a3710d67" target="_top" xlink:title=" ">
<polygon fill="white" stroke="black" points="580.5,-39 580.5,-69 673.5,-69 673.5,-39 580.5,-39"/>
<text text-anchor="start" x="588.5" y="-57" font-family="Helvetica,sans-Serif" font-size="10.00">mom_error_handler::</text>
<text text-anchor="middle" x="627" y="-46" font-family="Helvetica,sans-Serif" font-size="10.00">mom_error</text>
</a>
</g>
</g>
<!-- Node122&#45;&gt;Node123 -->
<g id="edge3" class="edge"><title>Node122&#45;&gt;Node123</title>
<path fill="none" stroke="midnightblue" d="M501.426,-88.4013C515.091,-85.2471 530.211,-81.6183 544,-78 552.548,-75.757 561.559,-73.2581 570.354,-70.744"/>
<polygon fill="midnightblue" stroke="midnightblue" points="571.52,-74.0502 580.155,-67.9117 569.577,-67.3253 571.52,-74.0502"/>
</g>
<!-- Node123&#45;&gt;Node121 -->
<g id="edge4" class="edge"><title>Node123&#45;&gt;Node121</title>
<path fill="none" stroke="midnightblue" d="M673.849,-54C682.408,-54 691.439,-54 700.258,-54"/>
<polygon fill="midnightblue" stroke="midnightblue" points="700.471,-57.5001 710.471,-54 700.471,-50.5001 700.471,-57.5001"/>
</g>
<!-- Node124&#45;&gt;Node121 -->
<g id="edge6" class="edge"><title>Node124&#45;&gt;Node121</title>
<path fill="none" stroke="midnightblue" d="M303.252,-38.9014C333.793,-29.1713 368.192,-18.2786 370,-18 503.621,2.59683 541.238,-3.44377 674,-29 683.437,-30.8165 693.33,-33.3072 702.849,-36.0163"/>
<polygon fill="midnightblue" stroke="midnightblue" points="702.016,-39.4199 712.598,-38.8995 704.001,-32.7072 702.016,-39.4199"/>
</g>
<!-- Node125 -->
<g id="node6" class="node"><title>Node125</title>
<g id="a_node6"><a xlink:href="namespacemom__document.html#a5f2661445a72a7d0f774677e91366db5" target="_top" xlink:title=" ">
<polygon fill="white" stroke="black" points="408.5,-39 408.5,-69 505.5,-69 505.5,-39 408.5,-39"/>
<text text-anchor="start" x="416.5" y="-57" font-family="Helvetica,sans-Serif" font-size="10.00">mom_document::find</text>
<text text-anchor="middle" x="457" y="-46" font-family="Helvetica,sans-Serif" font-size="10.00">_unused_unit_number</text>
</a>
</g>
</g>
<!-- Node124&#45;&gt;Node125 -->
<g id="edge7" class="edge"><title>Node124&#45;&gt;Node125</title>
<path fill="none" stroke="midnightblue" d="M303.651,-54C331.97,-54 368.089,-54 398.05,-54"/>
<polygon fill="midnightblue" stroke="midnightblue" points="398.368,-57.5001 408.368,-54 398.368,-50.5001 398.368,-57.5001"/>
</g>
<!-- Node124&#45;&gt;Node123 -->
<g id="edge9" class="edge"><title>Node124&#45;&gt;Node123</title>
<path fill="none" stroke="midnightblue" d="M303.6,-41.1572C323.897,-36.3096 347.942,-31.3902 370,-29 446.883,-20.6688 467.512,-17.5992 544,-29 554.374,-30.5463 565.251,-33.136 575.568,-36.0773"/>
<polygon fill="midnightblue" stroke="midnightblue" points="574.669,-39.4616 585.253,-38.9826 576.68,-32.7568 574.669,-39.4616"/>
</g>
<!-- Node125&#45;&gt;Node123 -->
<g id="edge8" class="edge"><title>Node125&#45;&gt;Node123</title>
<path fill="none" stroke="midnightblue" d="M505.693,-54C525.784,-54 549.307,-54 570.197,-54"/>
<polygon fill="midnightblue" stroke="midnightblue" points="570.215,-57.5001 580.215,-54 570.215,-50.5001 570.215,-57.5001"/>
</g>
</g>
</svg>
        <g id="navigator" transform="translate(0 0)" fill="#404254">
                <rect fill="#f2f5e9" fill-opacity="0.5" stroke="#606060" stroke-width=".5" x="0" y="0" width="60" height="60"/>
                <use id="zoomplus" xlink:href="#zoomPlus" x="17" y="9" onmousedown="handleZoom(evt,'in')"/>
                <use id="zoomminus" xlink:href="#zoomMin" x="42" y="9" onmousedown="handleZoom(evt,'out')"/>
                <use id="reset" xlink:href="#resetDef" x="30" y="36" onmousedown="handleReset()"/>
                <g id="arrowUp" xlink:href="#dirArrow" transform="translate(30 24)" onmousedown="handlePan(0,-1)">
                  <use xlink:href="#rim" fill="#404040">
                        <set attributeName="fill" to="#808080" begin="arrowUp.mouseover" end="arrowUp.mouseout"/>
                  </use>
                  <path fill="none" stroke="white" stroke-width="1.5" d="M0,-3.0v7 M-2.5,-0.5L0,-3.0L2.5,-0.5"/>
                </g>
                <g id="arrowRight" xlink:href="#dirArrow" transform="rotate(90) translate(36 -43)" onmousedown="handlePan(1,0)">
                  <use xlink:href="#rim" fill="#404040">
                        <set attributeName="fill" to="#808080" begin="arrowRight.mouseover" end="arrowRight.mouseout"/>
                  </use>
                  <path fill="none" stroke="white" stroke-width="1.5" d="M0,-3.0v7 M-2.5,-0.5L0,-3.0L2.5,-0.5"/>
                </g>
                <g id="arrowDown" xlink:href="#dirArrow" transform="rotate(180) translate(-30 -48)" onmousedown="handlePan(0,1)">
                  <use xlink:href="#rim" fill="#404040">
                        <set attributeName="fill" to="#808080" begin="arrowDown.mouseover" end="arrowDown.mouseout"/>
                  </use>
                  <path fill="none" stroke="white" stroke-width="1.5" d="M0,-3.0v7 M-2.5,-0.5L0,-3.0L2.5,-0.5"/>
                </g>
                <g id="arrowLeft" xlink:href="#dirArrow" transform="rotate(270) translate(-36 17)" onmousedown="handlePan(-1,0)">
                  <use xlink:href="#rim" fill="#404040">
                        <set attributeName="fill" to="#808080" begin="arrowLeft.mouseover" end="arrowLeft.mouseout"/>
                  </use>
                  <path fill="none" stroke="white" stroke-width="1.5" d="M0,-3.0v7 M-2.5,-0.5L0,-3.0L2.5,-0.5"/>
                </g>
        </g>
        <svg viewBox="0 0 15 15" width="100%" height="30px" preserveAspectRatio="xMaxYMin meet">
         <g id="arrow_out" transform="scale(0.3 0.3)">
          <a xlink:href="namespacemom__document_a88e4bef8326a973afec58f1cb66fdd0c_cgraph_org.svg" target="_base">
           <rect id="button" ry="5" rx="5" y="6" x="6" height="38" width="38"
                fill="#f2f5e9" fill-opacity="0.5" stroke="#606060" stroke-width="1.0"/>
           <path id="arrow"
             d="M 11.500037,31.436501 C 11.940474,20.09759 22.043105,11.32322 32.158766,21.979434 L 37.068811,17.246167 C 37.068811,17.246167 37.088388,32 37.088388,32 L 22.160133,31.978069 C 22.160133,31.978069 26.997745,27.140456 26.997745,27.140456 C 18.528582,18.264221 13.291696,25.230495 11.500037,31.436501 z"
             style="fill:#404040;"/>
          </a>
         </g>
        </svg>
</svg>
