<?xml version="1.0" encoding="UTF-8" standalone="no"?>
<!DOCTYPE svg PUBLIC "-//W3C//DTD SVG 1.1//EN"
 "http://www.w3.org/Graphics/SVG/1.1/DTD/svg11.dtd">
<!-- Generated by graphviz version 2.30.1 (20170916.1124)
 -->
<!-- Title: mom_continuity_ppm::zonal_flux_adjust Pages: 1 -->
<svg width="484pt" height="61pt"
 viewBox="0.00 0.00 484.00 61.00" xmlns="http://www.w3.org/2000/svg" xmlns:xlink="http://www.w3.org/1999/xlink">
<g id="graph0" class="graph" transform="scale(1 1) rotate(0) translate(4 57)">
<title>mom_continuity_ppm::zonal_flux_adjust</title>
<polygon fill="white" stroke="white" points="-4,5 -4,-57 481,-57 481,5 -4,5"/>
<!-- Node108 -->
<g id="node1" class="node"><title>Node108</title>
<g id="a_node1"><a xlink:title="Returns the barotropic velocity adjustment that gives the desired barotropic (layer&#45;summed) transport...">
<polygon fill="#bfbfbf" stroke="black" points="384,-1 384,-31 476,-31 476,-1 384,-1"/>
<text text-anchor="start" x="392" y="-19" font-family="Helvetica,sans-Serif" font-size="10.00">mom_continuity_ppm</text>
<text text-anchor="middle" x="430" y="-8" font-family="Helvetica,sans-Serif" font-size="10.00">::zonal_flux_adjust</text>
</a>
</g>
</g>
<!-- Node109 -->
<g id="node2" class="node"><title>Node109</title>
<g id="a_node2"><a xlink:href="namespacemom__continuity__ppm.html#aad852a51f55e24f5e276e4fbfe639394" target="_top" xlink:title="Sets a structure that describes the zonal barotropic volume or mass fluxes as a function of barotropi...">
<polygon fill="white" stroke="black" points="256,-23 256,-53 348,-53 348,-23 256,-23"/>
<text text-anchor="start" x="264" y="-41" font-family="Helvetica,sans-Serif" font-size="10.00">mom_continuity_ppm</text>
<text text-anchor="middle" x="302" y="-30" font-family="Helvetica,sans-Serif" font-size="10.00">::set_zonal_bt_cont</text>
</a>
</g>
</g>
<!-- Node108&#45;&gt;Node109 -->
<g id="edge1" class="edge"><title>Node108&#45;&gt;Node109</title>
<path fill="none" stroke="midnightblue" d="M373.926,-25.616C365.347,-27.114 356.569,-28.6467 348.241,-30.1007"/>
<polygon fill="midnightblue" stroke="midnightblue" points="374.618,-29.0483 383.867,-23.8804 373.414,-22.1526 374.618,-29.0483"/>
</g>
<!-- Node110 -->
<g id="node3" class="node"><title>Node110</title>
<g id="a_node3"><a xlink:href="namespacemom__continuity__ppm.html#aaee3d916bed27d4884d9473218c20fc9" target="_top" xlink:title="Calculates the mass or volume fluxes through the zonal faces, and other related quantities.">
<polygon fill="white" stroke="black" points="128,-1 128,-31 220,-31 220,-1 128,-1"/>
<text text-anchor="start" x="136" y="-19" font-family="Helvetica,sans-Serif" font-size="10.00">mom_continuity_ppm</text>
<text text-anchor="middle" x="174" y="-8" font-family="Helvetica,sans-Serif" font-size="10.00">::zonal_mass_flux</text>
</a>
</g>
</g>
<!-- Node108&#45;&gt;Node110 -->
<g id="edge4" class="edge"><title>Node108&#45;&gt;Node110</title>
<path fill="none" stroke="midnightblue" d="M373.36,-14.445C364.866,-14.2601 356.2,-14.1012 348,-14 307.114,-13.4953 296.886,-13.4953 256,-14 244.466,-14.1424 232.011,-14.3987 220.407,-14.6815"/>
<polygon fill="midnightblue" stroke="midnightblue" points="373.515,-17.9494 383.593,-14.6815 373.676,-10.9513 373.515,-17.9494"/>
</g>
<!-- Node109&#45;&gt;Node110 -->
<g id="edge2" class="edge"><title>Node109&#45;&gt;Node110</title>
<path fill="none" stroke="midnightblue" d="M245.926,-28.384C237.347,-26.886 228.569,-25.3533 220.241,-23.8993"/>
<polygon fill="midnightblue" stroke="midnightblue" points="245.414,-31.8474 255.867,-30.1196 246.618,-24.9517 245.414,-31.8474"/>
</g>
<!-- Node111 -->
<g id="node4" class="node"><title>Node111</title>
<g id="a_node4"><a xlink:href="namespacemom__continuity__ppm.html#a59586aae1668f03f3a78d58f5712cc0f" target="_top" xlink:title="Time steps the layer thicknesses, using a monotonically limit, directionally split PPM scheme,...">
<polygon fill="white" stroke="black" points="0,-1 0,-31 92,-31 92,-1 0,-1"/>
<text text-anchor="start" x="8" y="-19" font-family="Helvetica,sans-Serif" font-size="10.00">mom_continuity_ppm</text>
<text text-anchor="middle" x="46" y="-8" font-family="Helvetica,sans-Serif" font-size="10.00">::continuity_ppm</text>
</a>
</g>
</g>
<!-- Node110&#45;&gt;Node111 -->
<g id="edge3" class="edge"><title>Node110&#45;&gt;Node111</title>
<path fill="none" stroke="midnightblue" d="M117.647,-16C109.156,-16 100.478,-16 92.2414,-16"/>
<polygon fill="midnightblue" stroke="midnightblue" points="117.867,-19.5001 127.867,-16 117.867,-12.5001 117.867,-19.5001"/>
</g>
</g>
</svg>
