<?xml version="1.0" encoding="UTF-8" standalone="no"?>
<!DOCTYPE svg PUBLIC "-//W3C//DTD SVG 1.1//EN"
 "http://www.w3.org/Graphics/SVG/1.1/DTD/svg11.dtd">
<!-- Generated by graphviz version 2.30.1 (20170916.1124)
 -->
<!-- Title: mom_regridding::inflate_vanished_layers_old Pages: 1 -->
<svg width="236pt" height="38pt"
 viewBox="0.00 0.00 236.00 38.00" xmlns="http://www.w3.org/2000/svg" xmlns:xlink="http://www.w3.org/1999/xlink">
<g id="graph0" class="graph" transform="scale(1 1) rotate(0) translate(4 34)">
<title>mom_regridding::inflate_vanished_layers_old</title>
<polygon fill="white" stroke="white" points="-4,5 -4,-34 233,-34 233,5 -4,5"/>
<!-- Node331 -->
<g id="node1" class="node"><title>Node331</title>
<g id="a_node1"><a xlink:title=" ">
<polygon fill="#bfbfbf" stroke="black" points="0.5,-0 0.5,-30 101.5,-30 101.5,-0 0.5,-0"/>
<text text-anchor="start" x="8.5" y="-18" font-family="Helvetica,sans-Serif" font-size="10.00">mom_regridding::inflate</text>
<text text-anchor="middle" x="51" y="-7" font-family="Helvetica,sans-Serif" font-size="10.00">_vanished_layers_old</text>
</a>
</g>
</g>
<!-- Node332 -->
<g id="node2" class="node"><title>Node332</title>
<g id="a_node2"><a xlink:href="namespacemom__regridding.html#a392230123ef4347e6fe6c0b847be60bc" target="_top" xlink:title=" ">
<polygon fill="white" stroke="black" points="138,-0 138,-30 228,-30 228,-0 138,-0"/>
<text text-anchor="start" x="146" y="-18" font-family="Helvetica,sans-Serif" font-size="10.00">mom_regridding::old</text>
<text text-anchor="middle" x="183" y="-7" font-family="Helvetica,sans-Serif" font-size="10.00">_inflate_layers_1d</text>
</a>
</g>
</g>
<!-- Node331&#45;&gt;Node332 -->
<g id="edge1" class="edge"><title>Node331&#45;&gt;Node332</title>
<path fill="none" stroke="midnightblue" d="M101.518,-15C110.079,-15 119.021,-15 127.701,-15"/>
<polygon fill="midnightblue" stroke="midnightblue" points="127.731,-18.5001 137.731,-15 127.731,-11.5001 127.731,-18.5001"/>
</g>
</g>
</svg>
