<?xml version="1.0" encoding="UTF-8" standalone="no"?>
<!DOCTYPE svg PUBLIC "-//W3C//DTD SVG 1.1//EN"
 "http://www.w3.org/Graphics/SVG/1.1/DTD/svg11.dtd">
<!-- Generated by graphviz version 2.30.1 (20170916.1124)
 -->
<!-- Title: mom_internal_tides::propagate Pages: 1 -->
<svg width="642pt" height="305pt"
 viewBox="0.00 0.00 642.00 305.03" xmlns="http://www.w3.org/2000/svg" xmlns:xlink="http://www.w3.org/1999/xlink">
<g id="graph0" class="graph" transform="scale(1 1) rotate(0) translate(4 301.027)">
<title>mom_internal_tides::propagate</title>
<polygon fill="white" stroke="white" points="-4,5 -4,-301.027 639,-301.027 639,5 -4,5"/>
<!-- Node56 -->
<g id="node1" class="node"><title>Node56</title>
<g id="a_node1"><a xlink:title=" ">
<polygon fill="#bfbfbf" stroke="black" points="0,-95.0267 0,-125.027 86,-125.027 86,-95.0267 0,-95.0267"/>
<text text-anchor="start" x="8" y="-113.027" font-family="Helvetica,sans-Serif" font-size="10.00">mom_internal_tides</text>
<text text-anchor="middle" x="43" y="-102.027" font-family="Helvetica,sans-Serif" font-size="10.00">::propagate</text>
</a>
</g>
</g>
<!-- Node57 -->
<g id="node2" class="node"><title>Node57</title>
<g id="a_node2"><a xlink:href="namespacemom__internal__tides.html#a66c9354cfdcde3d06a2ebe8775572d23" target="_top" xlink:title=" ">
<polygon fill="white" stroke="black" points="122.5,-24.0267 122.5,-54.0267 237.5,-54.0267 237.5,-24.0267 122.5,-24.0267"/>
<text text-anchor="start" x="130.5" y="-42.0267" font-family="Helvetica,sans-Serif" font-size="10.00">mom_internal_tides</text>
<text text-anchor="middle" x="180" y="-31.0267" font-family="Helvetica,sans-Serif" font-size="10.00">::propagate_corner_spread</text>
</a>
</g>
</g>
<!-- Node56&#45;&gt;Node57 -->
<g id="edge1" class="edge"><title>Node56&#45;&gt;Node57</title>
<path fill="none" stroke="midnightblue" d="M72.63,-94.9694C92.6762,-84.4266 119.661,-70.2347 141.434,-58.7835"/>
<polygon fill="midnightblue" stroke="midnightblue" points="143.19,-61.8148 150.411,-54.0622 139.931,-55.6193 143.19,-61.8148"/>
</g>
<!-- Node60 -->
<g id="node5" class="node"><title>Node60</title>
<g id="a_node5"><a xlink:href="namespacemom__internal__tides.html#a487e6cad7cea4c5095f198c236628d6d" target="_top" xlink:title=" ">
<polygon fill="white" stroke="black" points="137,-169.027 137,-199.027 223,-199.027 223,-169.027 137,-169.027"/>
<text text-anchor="start" x="145" y="-187.027" font-family="Helvetica,sans-Serif" font-size="10.00">mom_internal_tides</text>
<text text-anchor="middle" x="180" y="-176.027" font-family="Helvetica,sans-Serif" font-size="10.00">::propagate_x</text>
</a>
</g>
</g>
<!-- Node56&#45;&gt;Node60 -->
<g id="edge4" class="edge"><title>Node56&#45;&gt;Node60</title>
<path fill="none" stroke="midnightblue" d="M71.645,-125.18C92.1205,-136.404 120.219,-151.806 142.533,-164.037"/>
<polygon fill="midnightblue" stroke="midnightblue" points="140.941,-167.156 151.392,-168.893 144.305,-161.017 140.941,-167.156"/>
</g>
<!-- Node66 -->
<g id="node11" class="node"><title>Node66</title>
<g id="a_node11"><a xlink:href="namespacemom__internal__tides.html#a5f63667c6d87b8ae6d51076ea2942aca" target="_top" xlink:title=" ">
<polygon fill="white" stroke="black" points="137,-95.0267 137,-125.027 223,-125.027 223,-95.0267 137,-95.0267"/>
<text text-anchor="start" x="145" y="-113.027" font-family="Helvetica,sans-Serif" font-size="10.00">mom_internal_tides</text>
<text text-anchor="middle" x="180" y="-102.027" font-family="Helvetica,sans-Serif" font-size="10.00">::propagate_y</text>
</a>
</g>
</g>
<!-- Node56&#45;&gt;Node66 -->
<g id="edge12" class="edge"><title>Node56&#45;&gt;Node66</title>
<path fill="none" stroke="midnightblue" d="M86.3444,-110.027C99.1613,-110.027 113.39,-110.027 126.774,-110.027"/>
<polygon fill="midnightblue" stroke="midnightblue" points="126.806,-113.527 136.806,-110.027 126.806,-106.527 126.806,-113.527"/>
</g>
<!-- Node58 -->
<g id="node3" class="node"><title>Node58</title>
<g id="a_node3"><a xlink:href="namespacemom__error__handler.html#a460cfb79a06c29fc249952c2a3710d67" target="_top" xlink:title=" ">
<polygon fill="white" stroke="black" points="410.5,-95.0267 410.5,-125.027 503.5,-125.027 503.5,-95.0267 410.5,-95.0267"/>
<text text-anchor="start" x="418.5" y="-113.027" font-family="Helvetica,sans-Serif" font-size="10.00">mom_error_handler::</text>
<text text-anchor="middle" x="457" y="-102.027" font-family="Helvetica,sans-Serif" font-size="10.00">mom_error</text>
</a>
</g>
</g>
<!-- Node57&#45;&gt;Node58 -->
<g id="edge2" class="edge"><title>Node57&#45;&gt;Node58</title>
<path fill="none" stroke="midnightblue" d="M213.366,-23.9748C253.078,-7.81273 321.583,12.4603 374,-12.0267 406.471,-27.1957 430.616,-62.248 444.011,-86.0469"/>
<polygon fill="midnightblue" stroke="midnightblue" points="440.939,-87.7229 448.772,-94.8566 447.097,-84.395 440.939,-87.7229"/>
</g>
<!-- Node59 -->
<g id="node4" class="node"><title>Node59</title>
<g id="a_node4"><a xlink:href="namespacemom__error__handler.html#ad5f00a53059c72fe2332d1436c80ca71" target="_top" xlink:title=" ">
<polygon fill="white" stroke="black" points="540.5,-95.0267 540.5,-125.027 633.5,-125.027 633.5,-95.0267 540.5,-95.0267"/>
<text text-anchor="start" x="548.5" y="-113.027" font-family="Helvetica,sans-Serif" font-size="10.00">mom_error_handler::</text>
<text text-anchor="middle" x="587" y="-102.027" font-family="Helvetica,sans-Serif" font-size="10.00">is_root_pe</text>
</a>
</g>
</g>
<!-- Node58&#45;&gt;Node59 -->
<g id="edge3" class="edge"><title>Node58&#45;&gt;Node59</title>
<path fill="none" stroke="midnightblue" d="M503.849,-110.027C512.408,-110.027 521.439,-110.027 530.258,-110.027"/>
<polygon fill="midnightblue" stroke="midnightblue" points="530.471,-113.527 540.471,-110.027 530.471,-106.527 530.471,-113.527"/>
</g>
<!-- Node61 -->
<g id="node6" class="node"><title>Node61</title>
<g id="a_node6"><a xlink:href="namespacemom__internal__tides.html#afa863318cc960c0be08672731ce6f225" target="_top" xlink:title=" ">
<polygon fill="white" stroke="black" points="274,-218.027 274,-248.027 374,-248.027 374,-218.027 274,-218.027"/>
<text text-anchor="start" x="282" y="-236.027" font-family="Helvetica,sans-Serif" font-size="10.00">mom_internal_tides</text>
<text text-anchor="middle" x="324" y="-225.027" font-family="Helvetica,sans-Serif" font-size="10.00">::ppm_reconstruction_x</text>
</a>
</g>
</g>
<!-- Node60&#45;&gt;Node61 -->
<g id="edge5" class="edge"><title>Node60&#45;&gt;Node61</title>
<path fill="none" stroke="midnightblue" d="M223.22,-198.596C237.706,-203.594 254.115,-209.257 269.383,-214.525"/>
<polygon fill="midnightblue" stroke="midnightblue" points="268.624,-217.965 279.218,-217.919 270.907,-211.348 268.624,-217.965"/>
</g>
<!-- Node63 -->
<g id="node8" class="node"><title>Node63</title>
<g id="a_node8"><a xlink:href="namespacemom__internal__tides.html#a11b6fedbef7fd03428f8dfc404252792" target="_top" xlink:title=" ">
<polygon fill="white" stroke="black" points="281,-267.027 281,-297.027 367,-297.027 367,-267.027 281,-267.027"/>
<text text-anchor="start" x="289" y="-285.027" font-family="Helvetica,sans-Serif" font-size="10.00">mom_internal_tides</text>
<text text-anchor="middle" x="324" y="-274.027" font-family="Helvetica,sans-Serif" font-size="10.00">::zonal_flux_en</text>
</a>
</g>
</g>
<!-- Node60&#45;&gt;Node63 -->
<g id="edge8" class="edge"><title>Node60&#45;&gt;Node63</title>
<path fill="none" stroke="midnightblue" d="M198.075,-199.083C216.181,-214.644 245.981,-239.121 274,-257.027 276.612,-258.696 279.349,-260.343 282.137,-261.948"/>
<polygon fill="midnightblue" stroke="midnightblue" points="280.681,-265.142 291.129,-266.902 284.059,-259.011 280.681,-265.142"/>
</g>
<!-- Node64 -->
<g id="node9" class="node"><title>Node64</title>
<g id="a_node9"><a xlink:href="namespacemom__internal__tides.html#a6c622bfe3863b8fcea98c78104477491" target="_top" xlink:title=" ">
<polygon fill="white" stroke="black" points="281,-120.027 281,-150.027 367,-150.027 367,-120.027 281,-120.027"/>
<text text-anchor="start" x="289" y="-138.027" font-family="Helvetica,sans-Serif" font-size="10.00">mom_internal_tides</text>
<text text-anchor="middle" x="324" y="-127.027" font-family="Helvetica,sans-Serif" font-size="10.00">::reflect</text>
</a>
</g>
</g>
<!-- Node60&#45;&gt;Node64 -->
<g id="edge9" class="edge"><title>Node60&#45;&gt;Node64</title>
<path fill="none" stroke="midnightblue" d="M223.22,-169.458C238.25,-164.271 255.351,-158.37 271.098,-152.936"/>
<polygon fill="midnightblue" stroke="midnightblue" points="272.386,-156.195 280.697,-149.624 270.103,-149.578 272.386,-156.195"/>
</g>
<!-- Node65 -->
<g id="node10" class="node"><title>Node65</title>
<g id="a_node10"><a xlink:href="namespacemom__internal__tides.html#a0a20d26531e245a26385d1c056b6a5b6" target="_top" xlink:title=" ">
<polygon fill="white" stroke="black" points="281,-169.027 281,-199.027 367,-199.027 367,-169.027 281,-169.027"/>
<text text-anchor="start" x="289" y="-187.027" font-family="Helvetica,sans-Serif" font-size="10.00">mom_internal_tides</text>
<text text-anchor="middle" x="324" y="-176.027" font-family="Helvetica,sans-Serif" font-size="10.00">::teleport</text>
</a>
</g>
</g>
<!-- Node60&#45;&gt;Node65 -->
<g id="edge10" class="edge"><title>Node60&#45;&gt;Node65</title>
<path fill="none" stroke="midnightblue" d="M223.22,-184.027C238.108,-184.027 255.029,-184.027 270.652,-184.027"/>
<polygon fill="midnightblue" stroke="midnightblue" points="270.697,-187.527 280.697,-184.027 270.697,-180.527 270.697,-187.527"/>
</g>
<!-- Node61&#45;&gt;Node58 -->
<g id="edge6" class="edge"><title>Node61&#45;&gt;Node58</title>
<path fill="none" stroke="midnightblue" d="M359.05,-217.929C364.278,-214.978 369.444,-211.658 374,-208.027 400.868,-186.613 425.239,-155.241 440.3,-133.797"/>
<polygon fill="midnightblue" stroke="midnightblue" points="443.38,-135.495 446.165,-125.273 437.614,-131.527 443.38,-135.495"/>
</g>
<!-- Node62 -->
<g id="node7" class="node"><title>Node62</title>
<g id="a_node7"><a xlink:href="namespacemom__internal__tides.html#a16dd5b071e0fc87eb04c32f602c08aa5" target="_top" xlink:title=" ">
<polygon fill="white" stroke="black" points="414,-193.027 414,-223.027 500,-223.027 500,-193.027 414,-193.027"/>
<text text-anchor="start" x="422" y="-211.027" font-family="Helvetica,sans-Serif" font-size="10.00">mom_internal_tides</text>
<text text-anchor="middle" x="457" y="-200.027" font-family="Helvetica,sans-Serif" font-size="10.00">::ppm_limit_pos</text>
</a>
</g>
</g>
<!-- Node61&#45;&gt;Node62 -->
<g id="edge7" class="edge"><title>Node61&#45;&gt;Node62</title>
<path fill="none" stroke="midnightblue" d="M374.152,-223.646C383.851,-221.795 394.061,-219.847 403.855,-217.978"/>
<polygon fill="midnightblue" stroke="midnightblue" points="404.705,-221.379 413.872,-216.066 403.393,-214.503 404.705,-221.379"/>
</g>
<!-- Node65&#45;&gt;Node58 -->
<g id="edge11" class="edge"><title>Node65&#45;&gt;Node58</title>
<path fill="none" stroke="midnightblue" d="M355.227,-169.005C361.474,-165.788 367.983,-162.355 374,-159.027 390.345,-149.987 408.179,-139.417 423.029,-130.413"/>
<polygon fill="midnightblue" stroke="midnightblue" points="425.132,-133.23 431.849,-125.037 421.488,-127.253 425.132,-133.23"/>
</g>
<!-- Node67 -->
<g id="node12" class="node"><title>Node67</title>
<g id="a_node12"><a xlink:href="namespacemom__internal__tides.html#a6c3dc6d74dfd6e5b13d5f710899be278" target="_top" xlink:title=" ">
<polygon fill="white" stroke="black" points="274,-71.0267 274,-101.027 374,-101.027 374,-71.0267 274,-71.0267"/>
<text text-anchor="start" x="282" y="-89.0267" font-family="Helvetica,sans-Serif" font-size="10.00">mom_internal_tides</text>
<text text-anchor="middle" x="324" y="-78.0267" font-family="Helvetica,sans-Serif" font-size="10.00">::ppm_reconstruction_y</text>
</a>
</g>
</g>
<!-- Node66&#45;&gt;Node67 -->
<g id="edge13" class="edge"><title>Node66&#45;&gt;Node67</title>
<path fill="none" stroke="midnightblue" d="M223.22,-102.891C235.924,-100.744 250.107,-98.3466 263.702,-96.0488"/>
<polygon fill="midnightblue" stroke="midnightblue" points="264.672,-99.4346 273.949,-94.317 263.506,-92.5325 264.672,-99.4346"/>
</g>
<!-- Node68 -->
<g id="node13" class="node"><title>Node68</title>
<g id="a_node13"><a xlink:href="namespacemom__internal__tides.html#a08d375b914ce03bed1b317c9b7371f77" target="_top" xlink:title=" ">
<polygon fill="white" stroke="black" points="281,-22.0267 281,-52.0267 367,-52.0267 367,-22.0267 281,-22.0267"/>
<text text-anchor="start" x="289" y="-40.0267" font-family="Helvetica,sans-Serif" font-size="10.00">mom_internal_tides</text>
<text text-anchor="middle" x="324" y="-29.0267" font-family="Helvetica,sans-Serif" font-size="10.00">::merid_flux_en</text>
</a>
</g>
</g>
<!-- Node66&#45;&gt;Node68 -->
<g id="edge16" class="edge"><title>Node66&#45;&gt;Node68</title>
<path fill="none" stroke="midnightblue" d="M208.969,-95.0153C227.375,-85.2047 252.036,-72.1886 274,-61.0267 276.871,-59.5675 279.844,-58.0726 282.841,-56.5772"/>
<polygon fill="midnightblue" stroke="midnightblue" points="284.42,-59.701 291.826,-52.1247 281.312,-53.4289 284.42,-59.701"/>
</g>
<!-- Node66&#45;&gt;Node64 -->
<g id="edge17" class="edge"><title>Node66&#45;&gt;Node64</title>
<path fill="none" stroke="midnightblue" d="M223.22,-117.46C238.108,-120.081 255.029,-123.06 270.652,-125.81"/>
<polygon fill="midnightblue" stroke="midnightblue" points="270.242,-129.292 280.697,-127.579 271.456,-122.398 270.242,-129.292"/>
</g>
<!-- Node66&#45;&gt;Node65 -->
<g id="edge18" class="edge"><title>Node66&#45;&gt;Node65</title>
<path fill="none" stroke="midnightblue" d="M209.441,-125.136C227.827,-134.872 252.29,-147.77 274,-159.027 277.333,-160.755 280.798,-162.542 284.275,-164.329"/>
<polygon fill="midnightblue" stroke="midnightblue" points="282.933,-167.574 293.429,-169.018 286.125,-161.344 282.933,-167.574"/>
</g>
<!-- Node67&#45;&gt;Node58 -->
<g id="edge14" class="edge"><title>Node67&#45;&gt;Node58</title>
<path fill="none" stroke="midnightblue" d="M374.152,-95.0317C382.71,-96.5995 391.666,-98.2402 400.382,-99.8372"/>
<polygon fill="midnightblue" stroke="midnightblue" points="400,-103.325 410.467,-101.685 401.261,-96.4399 400,-103.325"/>
</g>
<!-- Node67&#45;&gt;Node62 -->
<g id="edge15" class="edge"><title>Node67&#45;&gt;Node62</title>
<path fill="none" stroke="midnightblue" d="M360.347,-101.092C365.132,-103.765 369.825,-106.754 374,-110.027 401.163,-131.315 425.594,-162.92 440.582,-184.441"/>
<polygon fill="midnightblue" stroke="midnightblue" points="437.696,-186.42 446.222,-192.709 443.478,-182.476 437.696,-186.42"/>
</g>
</g>
</svg>
