<?xml version="1.0" encoding="UTF-8" standalone="no"?>
<!DOCTYPE svg PUBLIC "-//W3C//DTD SVG 1.1//EN"
 "http://www.w3.org/Graphics/SVG/1.1/DTD/svg11.dtd">
<!-- Generated by graphviz version 2.30.1 (20170916.1124)
 -->
<!-- Title: mom_tidal_forcing::tidal_forcing_init Pages: 1 -->
<svg width="476pt" height="61pt"
 viewBox="0.00 0.00 476.00 61.00" xmlns="http://www.w3.org/2000/svg" xmlns:xlink="http://www.w3.org/1999/xlink">
<g id="graph0" class="graph" transform="scale(1 1) rotate(0) translate(4 57)">
<title>mom_tidal_forcing::tidal_forcing_init</title>
<polygon fill="white" stroke="white" points="-4,5 -4,-57 473,-57 473,5 -4,5"/>
<!-- Node18 -->
<g id="node1" class="node"><title>Node18</title>
<g id="a_node1"><a xlink:title=" ">
<polygon fill="#bfbfbf" stroke="black" points="0,-1 0,-31 86,-31 86,-1 0,-1"/>
<text text-anchor="start" x="8" y="-19" font-family="Helvetica,sans-Serif" font-size="10.00">mom_tidal_forcing::</text>
<text text-anchor="middle" x="43" y="-8" font-family="Helvetica,sans-Serif" font-size="10.00">tidal_forcing_init</text>
</a>
</g>
</g>
<!-- Node19 -->
<g id="node2" class="node"><title>Node19</title>
<g id="a_node2"><a xlink:href="namespacemom__tidal__forcing.html#aba9bdb9c6510bac9f65e674bd5583f39" target="_top" xlink:title=" ">
<polygon fill="white" stroke="black" points="122,-23 122,-53 208,-53 208,-23 122,-23"/>
<text text-anchor="start" x="130" y="-41" font-family="Helvetica,sans-Serif" font-size="10.00">mom_tidal_forcing::</text>
<text text-anchor="middle" x="165" y="-30" font-family="Helvetica,sans-Serif" font-size="10.00">find_in_files</text>
</a>
</g>
</g>
<!-- Node18&#45;&gt;Node19 -->
<g id="edge1" class="edge"><title>Node18&#45;&gt;Node19</title>
<path fill="none" stroke="midnightblue" d="M86.3075,-23.7564C94.5525,-25.268 103.287,-26.8693 111.808,-28.4314"/>
<polygon fill="midnightblue" stroke="midnightblue" points="111.203,-31.8788 121.67,-30.2395 112.465,-24.9935 111.203,-31.8788"/>
</g>
<!-- Node20 -->
<g id="node3" class="node"><title>Node20</title>
<g id="a_node3"><a xlink:href="namespacemom__error__handler.html#a460cfb79a06c29fc249952c2a3710d67" target="_top" xlink:title=" ">
<polygon fill="white" stroke="black" points="244.5,-1 244.5,-31 337.5,-31 337.5,-1 244.5,-1"/>
<text text-anchor="start" x="252.5" y="-19" font-family="Helvetica,sans-Serif" font-size="10.00">mom_error_handler::</text>
<text text-anchor="middle" x="291" y="-8" font-family="Helvetica,sans-Serif" font-size="10.00">mom_error</text>
</a>
</g>
</g>
<!-- Node18&#45;&gt;Node20 -->
<g id="edge4" class="edge"><title>Node18&#45;&gt;Node20</title>
<path fill="none" stroke="midnightblue" d="M86.0959,-14.723C97.7265,-14.424 110.351,-14.1493 122,-14 160.219,-13.5101 169.781,-13.534 208,-14 216.495,-14.1036 225.483,-14.2675 234.274,-14.458"/>
<polygon fill="midnightblue" stroke="midnightblue" points="234.384,-17.9613 244.462,-14.6918 234.545,-10.9632 234.384,-17.9613"/>
</g>
<!-- Node19&#45;&gt;Node20 -->
<g id="edge2" class="edge"><title>Node19&#45;&gt;Node20</title>
<path fill="none" stroke="midnightblue" d="M208.327,-30.4904C216.789,-28.9891 225.796,-27.391 234.623,-25.825"/>
<polygon fill="midnightblue" stroke="midnightblue" points="235.237,-29.2707 244.472,-24.0775 234.014,-22.3784 235.237,-29.2707"/>
</g>
<!-- Node21 -->
<g id="node4" class="node"><title>Node21</title>
<g id="a_node4"><a xlink:href="namespacemom__error__handler.html#ad5f00a53059c72fe2332d1436c80ca71" target="_top" xlink:title=" ">
<polygon fill="white" stroke="black" points="374.5,-1 374.5,-31 467.5,-31 467.5,-1 374.5,-1"/>
<text text-anchor="start" x="382.5" y="-19" font-family="Helvetica,sans-Serif" font-size="10.00">mom_error_handler::</text>
<text text-anchor="middle" x="421" y="-8" font-family="Helvetica,sans-Serif" font-size="10.00">is_root_pe</text>
</a>
</g>
</g>
<!-- Node20&#45;&gt;Node21 -->
<g id="edge3" class="edge"><title>Node20&#45;&gt;Node21</title>
<path fill="none" stroke="midnightblue" d="M337.849,-16C346.408,-16 355.439,-16 364.258,-16"/>
<polygon fill="midnightblue" stroke="midnightblue" points="364.471,-19.5001 374.471,-16 364.471,-12.5001 364.471,-19.5001"/>
</g>
</g>
</svg>
