<?xml version="1.0" encoding="UTF-8" standalone="no"?>
<!DOCTYPE svg PUBLIC "-//W3C//DTD SVG 1.1//EN"
 "http://www.w3.org/Graphics/SVG/1.1/DTD/svg11.dtd">
<!-- Generated by graphviz version 2.30.1 (20170916.1124)
 -->
<!-- Title: mom_neutral_diffusion::neutral_surface_flux Pages: 1 -->
<svg width="508pt" height="147pt"
 viewBox="0.00 0.00 508.00 147.00" xmlns="http://www.w3.org/2000/svg" xmlns:xlink="http://www.w3.org/1999/xlink">
<g id="graph0" class="graph" transform="scale(1 1) rotate(0) translate(4 143)">
<title>mom_neutral_diffusion::neutral_surface_flux</title>
<polygon fill="white" stroke="white" points="-4,5 -4,-143 505,-143 505,5 -4,5"/>
<!-- Node150 -->
<g id="node1" class="node"><title>Node150</title>
<g id="a_node1"><a xlink:title="Returns a single column of neutral diffusion fluxes of a tracer.">
<polygon fill="#bfbfbf" stroke="black" points="0,-22 0,-52 98,-52 98,-22 0,-22"/>
<text text-anchor="start" x="8" y="-40" font-family="Helvetica,sans-Serif" font-size="10.00">mom_neutral_diffusion</text>
<text text-anchor="middle" x="49" y="-29" font-family="Helvetica,sans-Serif" font-size="10.00">::neutral_surface_flux</text>
</a>
</g>
</g>
<!-- Node151 -->
<g id="node2" class="node"><title>Node151</title>
<g id="a_node2"><a xlink:href="namespacemom__neutral__diffusion.html#afbc54a4e2f34af5d72c18dc96e354af7" target="_top" xlink:title="Returns interface scalar, Si, for a column of layer values, S.">
<polygon fill="white" stroke="black" points="134,-71 134,-101 232,-101 232,-71 134,-71"/>
<text text-anchor="start" x="142" y="-89" font-family="Helvetica,sans-Serif" font-size="10.00">mom_neutral_diffusion</text>
<text text-anchor="middle" x="183" y="-78" font-family="Helvetica,sans-Serif" font-size="10.00">::interface_scalar</text>
</a>
</g>
</g>
<!-- Node150&#45;&gt;Node151 -->
<g id="edge1" class="edge"><title>Node150&#45;&gt;Node151</title>
<path fill="none" stroke="midnightblue" d="M90.6814,-52.1014C103.604,-56.8985 118.053,-62.2622 131.577,-67.2823"/>
<polygon fill="midnightblue" stroke="midnightblue" points="130.633,-70.6652 141.226,-70.8641 133.069,-64.1027 130.633,-70.6652"/>
</g>
<!-- Node157 -->
<g id="node8" class="node"><title>Node157</title>
<g id="a_node8"><a xlink:href="namespacemom__neutral__diffusion.html#a6931d9a07d09aa5d76d5abd2e47a54df" target="_top" xlink:title="Returns the average of a PPM reconstruction between two fractional positions.">
<polygon fill="white" stroke="black" points="134,-22 134,-52 232,-52 232,-22 134,-22"/>
<text text-anchor="start" x="142" y="-40" font-family="Helvetica,sans-Serif" font-size="10.00">mom_neutral_diffusion</text>
<text text-anchor="middle" x="183" y="-29" font-family="Helvetica,sans-Serif" font-size="10.00">::ppm_ave</text>
</a>
</g>
</g>
<!-- Node150&#45;&gt;Node157 -->
<g id="edge7" class="edge"><title>Node150&#45;&gt;Node157</title>
<path fill="none" stroke="midnightblue" d="M98.0284,-37C106.309,-37 114.997,-37 123.517,-37"/>
<polygon fill="midnightblue" stroke="midnightblue" points="123.786,-40.5001 133.786,-37 123.786,-33.5001 123.786,-40.5001"/>
</g>
<!-- Node155 -->
<g id="node6" class="node"><title>Node155</title>
<g id="a_node6"><a xlink:href="namespacemom__neutral__diffusion.html#a118ace85483009d5b7a1841e3c745499" target="_top" xlink:title="A true signum function that returns either &#45;abs(a), when x&lt;0; or abs(a) when x&gt;0; or 0 when x=0.">
<polygon fill="white" stroke="black" points="402,-0 402,-30 500,-30 500,-0 402,-0"/>
<text text-anchor="start" x="410" y="-18" font-family="Helvetica,sans-Serif" font-size="10.00">mom_neutral_diffusion</text>
<text text-anchor="middle" x="451" y="-7" font-family="Helvetica,sans-Serif" font-size="10.00">::signum</text>
</a>
</g>
</g>
<!-- Node150&#45;&gt;Node155 -->
<g id="edge8" class="edge"><title>Node150&#45;&gt;Node155</title>
<path fill="none" stroke="midnightblue" d="M91.7667,-21.9814C105.083,-17.8965 119.997,-14.0395 134,-12 223.099,0.977434 327.827,-3.91691 391.529,-9.10227"/>
<polygon fill="midnightblue" stroke="midnightblue" points="391.517,-12.6137 401.776,-9.96796 392.106,-5.63852 391.517,-12.6137"/>
</g>
<!-- Node152 -->
<g id="node3" class="node"><title>Node152</title>
<g id="a_node3"><a xlink:href="namespacemom__neutral__diffusion.html#ac211ae488cb6e3c6685df85d24ecd0dd" target="_top" xlink:title="Returns PLM slopes for a column where the slopes are the difference in value across each cell....">
<polygon fill="white" stroke="black" points="268,-71 268,-101 366,-101 366,-71 268,-71"/>
<text text-anchor="start" x="276" y="-89" font-family="Helvetica,sans-Serif" font-size="10.00">mom_neutral_diffusion</text>
<text text-anchor="middle" x="317" y="-78" font-family="Helvetica,sans-Serif" font-size="10.00">::plm_diff</text>
</a>
</g>
</g>
<!-- Node151&#45;&gt;Node152 -->
<g id="edge2" class="edge"><title>Node151&#45;&gt;Node152</title>
<path fill="none" stroke="midnightblue" d="M232.028,-86C240.309,-86 248.997,-86 257.517,-86"/>
<polygon fill="midnightblue" stroke="midnightblue" points="257.786,-89.5001 267.786,-86 257.786,-82.5001 257.786,-89.5001"/>
</g>
<!-- Node156 -->
<g id="node7" class="node"><title>Node156</title>
<g id="a_node7"><a xlink:href="namespacemom__neutral__diffusion.html#a87d3d020b56a98f3f0c143701f76c86e" target="_top" xlink:title="Returns the PPM quasi&#45;fourth order edge value at k+1/2 following equation 1.6 in Colella &amp; Woodward,...">
<polygon fill="white" stroke="black" points="268,-22 268,-52 366,-52 366,-22 268,-22"/>
<text text-anchor="start" x="276" y="-40" font-family="Helvetica,sans-Serif" font-size="10.00">mom_neutral_diffusion</text>
<text text-anchor="middle" x="317" y="-29" font-family="Helvetica,sans-Serif" font-size="10.00">::ppm_edge</text>
</a>
</g>
</g>
<!-- Node151&#45;&gt;Node156 -->
<g id="edge6" class="edge"><title>Node151&#45;&gt;Node156</title>
<path fill="none" stroke="midnightblue" d="M224.681,-70.8986C237.604,-66.1015 252.053,-60.7378 265.577,-55.7177"/>
<polygon fill="midnightblue" stroke="midnightblue" points="267.069,-58.8973 275.226,-52.1359 264.633,-52.3348 267.069,-58.8973"/>
</g>
<!-- Node153 -->
<g id="node4" class="node"><title>Node153</title>
<g id="a_node4"><a xlink:href="namespacemom__neutral__diffusion.html#a1c5ac28d7c54581cdd872fe58ef0b204" target="_top" xlink:title="Returns the cell&#45;centered second&#45;order finite volume (unlimited PLM) slope using three consecutive ce...">
<polygon fill="white" stroke="black" points="402,-109 402,-139 500,-139 500,-109 402,-109"/>
<text text-anchor="start" x="410" y="-127" font-family="Helvetica,sans-Serif" font-size="10.00">mom_neutral_diffusion</text>
<text text-anchor="middle" x="451" y="-116" font-family="Helvetica,sans-Serif" font-size="10.00">::fv_diff</text>
</a>
</g>
</g>
<!-- Node152&#45;&gt;Node153 -->
<g id="edge3" class="edge"><title>Node152&#45;&gt;Node153</title>
<path fill="none" stroke="midnightblue" d="M366.028,-99.8264C374.491,-102.262 383.38,-104.821 392.078,-107.326"/>
<polygon fill="midnightblue" stroke="midnightblue" points="391.208,-110.717 401.786,-110.12 393.145,-103.99 391.208,-110.717"/>
</g>
<!-- Node154 -->
<g id="node5" class="node"><title>Node154</title>
<g id="a_node5"><a xlink:href="namespacemom__neutral__diffusion.html#a6ed3814088af470ad6fc4a3a80926fd7" target="_top" xlink:title="Returns the cell&#45;centered second&#45;order weighted least squares slope using three consecutive cell widt...">
<polygon fill="white" stroke="black" points="402,-60 402,-90 500,-90 500,-60 402,-60"/>
<text text-anchor="start" x="410" y="-78" font-family="Helvetica,sans-Serif" font-size="10.00">mom_neutral_diffusion</text>
<text text-anchor="middle" x="451" y="-67" font-family="Helvetica,sans-Serif" font-size="10.00">::fvlsq_slope</text>
</a>
</g>
</g>
<!-- Node152&#45;&gt;Node154 -->
<g id="edge4" class="edge"><title>Node152&#45;&gt;Node154</title>
<path fill="none" stroke="midnightblue" d="M366.028,-81.9976C374.4,-81.3 383.188,-80.5676 391.798,-79.8502"/>
<polygon fill="midnightblue" stroke="midnightblue" points="392.111,-83.3363 401.786,-79.0178 391.53,-76.3605 392.111,-83.3363"/>
</g>
<!-- Node152&#45;&gt;Node155 -->
<g id="edge5" class="edge"><title>Node152&#45;&gt;Node155</title>
<path fill="none" stroke="midnightblue" d="M347.242,-70.8933C353.447,-67.653 359.95,-64.2316 366,-61 381.789,-52.5665 399.153,-43.0911 413.976,-34.9416"/>
<polygon fill="midnightblue" stroke="midnightblue" points="415.769,-37.9499 422.84,-30.0599 412.392,-31.8183 415.769,-37.9499"/>
</g>
</g>
</svg>
