<?xml version="1.0" encoding="UTF-8" standalone="no"?>
<!DOCTYPE svg PUBLIC "-//W3C//DTD SVG 1.1//EN"
 "http://www.w3.org/Graphics/SVG/1.1/DTD/svg11.dtd">
<!-- Generated by graphviz version 2.30.1 (20170916.1124)
 -->
<!-- Title: mom_neutral_diffusion::find_neutral_surface_positions Pages: 1 -->
<svg width="606pt" height="99pt"
 viewBox="0.00 0.00 606.00 99.00" xmlns="http://www.w3.org/2000/svg" xmlns:xlink="http://www.w3.org/1999/xlink">
<g id="graph0" class="graph" transform="scale(1 1) rotate(0) translate(4 95)">
<title>mom_neutral_diffusion::find_neutral_surface_positions</title>
<polygon fill="white" stroke="white" points="-4,5 -4,-95 603,-95 603,5 -4,5"/>
<!-- Node20 -->
<g id="node1" class="node"><title>Node20</title>
<g id="a_node1"><a xlink:title="Returns positions within left/right columns of combined interfaces.">
<polygon fill="#bfbfbf" stroke="black" points="500,-21.5 500,-62.5 598,-62.5 598,-21.5 500,-21.5"/>
<text text-anchor="start" x="508" y="-50.5" font-family="Helvetica,sans-Serif" font-size="10.00">mom_neutral_diffusion</text>
<text text-anchor="start" x="508" y="-39.5" font-family="Helvetica,sans-Serif" font-size="10.00">::find_neutral_surface</text>
<text text-anchor="middle" x="549" y="-28.5" font-family="Helvetica,sans-Serif" font-size="10.00">_positions</text>
</a>
</g>
</g>
<!-- Node21 -->
<g id="node2" class="node"><title>Node21</title>
<g id="a_node2"><a xlink:href="namespacemom__neutral__diffusion.html#a53d5e3f8d7610b60644aaa9f44fd854e" target="_top" xlink:title="Calculate remapping factors for u/v columns used to map adjoining columns to a shared coordinate spac...">
<polygon fill="white" stroke="black" points="356,-49.5 356,-90.5 454,-90.5 454,-49.5 356,-49.5"/>
<text text-anchor="start" x="364" y="-78.5" font-family="Helvetica,sans-Serif" font-size="10.00">mom_neutral_diffusion</text>
<text text-anchor="start" x="364" y="-67.5" font-family="Helvetica,sans-Serif" font-size="10.00">::neutral_diffusion_calc</text>
<text text-anchor="middle" x="405" y="-56.5" font-family="Helvetica,sans-Serif" font-size="10.00">_coeffs</text>
</a>
</g>
</g>
<!-- Node20&#45;&gt;Node21 -->
<g id="edge1" class="edge"><title>Node20&#45;&gt;Node21</title>
<path fill="none" stroke="midnightblue" d="M490.027,-53.4313C478.063,-55.7903 465.589,-58.2501 454.025,-60.5302"/>
<polygon fill="midnightblue" stroke="midnightblue" points="490.791,-56.8481 499.925,-51.4795 489.437,-49.9803 490.791,-56.8481"/>
</g>
<!-- Node23 -->
<g id="node4" class="node"><title>Node23</title>
<g id="a_node4"><a xlink:href="namespacemom__neutral__diffusion.html#ae21f026dc5c73f2304ab6cbc230b9fb0" target="_top" xlink:title="Returns true if unit tests of neutral_diffusion functions fail. Otherwise returns false.">
<polygon fill="white" stroke="black" points="346,-0 346,-30 464,-30 464,-0 346,-0"/>
<text text-anchor="start" x="354" y="-18" font-family="Helvetica,sans-Serif" font-size="10.00">mom_neutral_diffusion</text>
<text text-anchor="middle" x="405" y="-7" font-family="Helvetica,sans-Serif" font-size="10.00">::neutral_diffusion_unit_tests</text>
</a>
</g>
</g>
<!-- Node20&#45;&gt;Node23 -->
<g id="edge3" class="edge"><title>Node20&#45;&gt;Node23</title>
<path fill="none" stroke="midnightblue" d="M490.035,-30.9785C481.481,-29.352 472.666,-27.6759 464.109,-26.0489"/>
<polygon fill="midnightblue" stroke="midnightblue" points="489.447,-34.4294 499.925,-32.859 490.755,-27.5526 489.447,-34.4294"/>
</g>
<!-- Node22 -->
<g id="node3" class="node"><title>Node22</title>
<g id="a_node3"><a xlink:href="namespacemom__tracer__hor__diff.html#a069e22612062290389c2630c7f90ede2" target="_top" xlink:title="Compute along&#45;coordinate diffusion of all tracers using the diffusivity in CSKhTr,...">
<polygon fill="white" stroke="black" points="218,-55 218,-85 310,-85 310,-55 218,-55"/>
<text text-anchor="start" x="226" y="-73" font-family="Helvetica,sans-Serif" font-size="10.00">mom_tracer_hor_diff</text>
<text text-anchor="middle" x="264" y="-62" font-family="Helvetica,sans-Serif" font-size="10.00">::tracer_hordiff</text>
</a>
</g>
</g>
<!-- Node21&#45;&gt;Node22 -->
<g id="edge2" class="edge"><title>Node21&#45;&gt;Node22</title>
<path fill="none" stroke="midnightblue" d="M345.573,-70C333.796,-70 321.584,-70 310.336,-70"/>
<polygon fill="midnightblue" stroke="midnightblue" points="345.775,-73.5001 355.775,-70 345.775,-66.5001 345.775,-73.5001"/>
</g>
<!-- Node24 -->
<g id="node5" class="node"><title>Node24</title>
<g id="a_node5"><a xlink:href="namespacemom.html#ae77cfd2e790f1266b31d93c58659d46c" target="_top" xlink:title="Calls unit tests for other modules. These are NOT normally invoked and so we provide the module use s...">
<polygon fill="white" stroke="black" points="227.5,-5.5 227.5,-24.5 300.5,-24.5 300.5,-5.5 227.5,-5.5"/>
<text text-anchor="middle" x="264" y="-12.5" font-family="Helvetica,sans-Serif" font-size="10.00">mom::unit_tests</text>
</a>
</g>
</g>
<!-- Node23&#45;&gt;Node24 -->
<g id="edge4" class="edge"><title>Node23&#45;&gt;Node24</title>
<path fill="none" stroke="midnightblue" d="M335.723,-15C323.607,-15 311.442,-15 300.7,-15"/>
<polygon fill="midnightblue" stroke="midnightblue" points="335.857,-18.5001 345.857,-15 335.857,-11.5001 335.857,-18.5001"/>
</g>
<!-- Node25 -->
<g id="node6" class="node"><title>Node25</title>
<g id="a_node6"><a xlink:href="namespacemom.html#a0be2869fef30e1e0604facfe1b41555d" target="_top" xlink:title="This subroutine initializes MOM.">
<polygon fill="white" stroke="black" points="92.5,-5.5 92.5,-24.5 181.5,-24.5 181.5,-5.5 92.5,-5.5"/>
<text text-anchor="middle" x="137" y="-12.5" font-family="Helvetica,sans-Serif" font-size="10.00">mom::initialize_mom</text>
</a>
</g>
</g>
<!-- Node24&#45;&gt;Node25 -->
<g id="edge5" class="edge"><title>Node24&#45;&gt;Node25</title>
<path fill="none" stroke="midnightblue" d="M216.917,-15C205.445,-15 193.18,-15 181.82,-15"/>
<polygon fill="midnightblue" stroke="midnightblue" points="217.18,-18.5001 227.18,-15 217.18,-11.5001 217.18,-18.5001"/>
</g>
<!-- Node26 -->
<g id="node7" class="node"><title>Node26</title>
<g id="a_node7"><a xlink:href="MOM__driver_8F90.html#a08fffeb2d8e8acbf9ed4609be6d258c6" target="_top" xlink:title=" ">
<polygon fill="white" stroke="black" points="0,-5.5 0,-24.5 56,-24.5 56,-5.5 0,-5.5"/>
<text text-anchor="middle" x="28" y="-12.5" font-family="Helvetica,sans-Serif" font-size="10.00">mom_main</text>
</a>
</g>
</g>
<!-- Node25&#45;&gt;Node26 -->
<g id="edge6" class="edge"><title>Node25&#45;&gt;Node26</title>
<path fill="none" stroke="midnightblue" d="M82.3096,-15C73.2562,-15 64.21,-15 56.2082,-15"/>
<polygon fill="midnightblue" stroke="midnightblue" points="82.479,-18.5001 92.479,-15 82.479,-11.5001 82.479,-18.5001"/>
</g>
</g>
</svg>
