<?xml version="1.0" encoding="UTF-8" standalone="no"?>
<!DOCTYPE svg PUBLIC "-//W3C//DTD SVG 1.1//EN"
 "http://www.w3.org/Graphics/SVG/1.1/DTD/svg11.dtd">
<!-- Generated by graphviz version 2.30.1 (20170916.1124)
 -->
<!-- Title: mom_tracer_flow_control::store_stocks Pages: 1 -->
<svg width="492pt" height="38pt"
 viewBox="0.00 0.00 492.00 38.00" xmlns="http://www.w3.org/2000/svg" xmlns:xlink="http://www.w3.org/1999/xlink">
<g id="graph0" class="graph" transform="scale(1 1) rotate(0) translate(4 34)">
<title>mom_tracer_flow_control::store_stocks</title>
<polygon fill="white" stroke="white" points="-4,5 -4,-34 489,-34 489,5 -4,5"/>
<!-- Node45 -->
<g id="node1" class="node"><title>Node45</title>
<g id="a_node1"><a xlink:title=" ">
<polygon fill="#bfbfbf" stroke="black" points="376.5,-0 376.5,-30 483.5,-30 483.5,-0 376.5,-0"/>
<text text-anchor="start" x="384.5" y="-18" font-family="Helvetica,sans-Serif" font-size="10.00">mom_tracer_flow_control</text>
<text text-anchor="middle" x="430" y="-7" font-family="Helvetica,sans-Serif" font-size="10.00">::store_stocks</text>
</a>
</g>
</g>
<!-- Node46 -->
<g id="node2" class="node"><title>Node46</title>
<g id="a_node2"><a xlink:href="namespacemom__tracer__flow__control.html#afd8526344e928c8c9505c921bf37447f" target="_top" xlink:title=" ">
<polygon fill="white" stroke="black" points="232.5,-0 232.5,-30 339.5,-30 339.5,-0 232.5,-0"/>
<text text-anchor="start" x="240.5" y="-18" font-family="Helvetica,sans-Serif" font-size="10.00">mom_tracer_flow_control</text>
<text text-anchor="middle" x="286" y="-7" font-family="Helvetica,sans-Serif" font-size="10.00">::call_tracer_stocks</text>
</a>
</g>
</g>
<!-- Node45&#45;&gt;Node46 -->
<g id="edge1" class="edge"><title>Node45&#45;&gt;Node46</title>
<path fill="none" stroke="midnightblue" d="M366.006,-15C357.296,-15 348.422,-15 339.92,-15"/>
<polygon fill="midnightblue" stroke="midnightblue" points="366.124,-18.5001 376.124,-15 366.124,-11.5001 366.124,-18.5001"/>
</g>
<!-- Node47 -->
<g id="node3" class="node"><title>Node47</title>
<g id="a_node3"><a xlink:href="namespacemom__sum__output.html#aef94e597f85f3ee439b2ddc2b46a043a" target="_top" xlink:title=" ">
<polygon fill="white" stroke="black" points="92.5,-0 92.5,-30 195.5,-30 195.5,-0 92.5,-0"/>
<text text-anchor="start" x="100.5" y="-18" font-family="Helvetica,sans-Serif" font-size="10.00">mom_sum_output::write</text>
<text text-anchor="middle" x="144" y="-7" font-family="Helvetica,sans-Serif" font-size="10.00">_energy</text>
</a>
</g>
</g>
<!-- Node46&#45;&gt;Node47 -->
<g id="edge2" class="edge"><title>Node46&#45;&gt;Node47</title>
<path fill="none" stroke="midnightblue" d="M222.407,-15C213.403,-15 204.233,-15 195.503,-15"/>
<polygon fill="midnightblue" stroke="midnightblue" points="222.471,-18.5001 232.471,-15 222.471,-11.5001 222.471,-18.5001"/>
</g>
<!-- Node48 -->
<g id="node4" class="node"><title>Node48</title>
<g id="a_node4"><a xlink:href="MOM__driver_8F90.html#a08fffeb2d8e8acbf9ed4609be6d258c6" target="_top" xlink:title=" ">
<polygon fill="white" stroke="black" points="0,-5.5 0,-24.5 56,-24.5 56,-5.5 0,-5.5"/>
<text text-anchor="middle" x="28" y="-12.5" font-family="Helvetica,sans-Serif" font-size="10.00">mom_main</text>
</a>
</g>
</g>
<!-- Node47&#45;&gt;Node48 -->
<g id="edge3" class="edge"><title>Node47&#45;&gt;Node48</title>
<path fill="none" stroke="midnightblue" d="M82.0478,-15C72.9439,-15 63.975,-15 56.0763,-15"/>
<polygon fill="midnightblue" stroke="midnightblue" points="82.3341,-18.5001 92.3341,-15 82.334,-11.5001 82.3341,-18.5001"/>
</g>
</g>
</svg>
