<?xml version="1.0" encoding="UTF-8" standalone="no"?>
<!DOCTYPE svg PUBLIC "-//W3C//DTD SVG 1.1//EN"
 "http://www.w3.org/Graphics/SVG/1.1/DTD/svg11.dtd">
<!-- Generated by graphviz version 2.30.1 (20170916.1124)
 -->
<!-- Title: mom_sum_output::create_depth_list Pages: 1 -->
<svg width="546pt" height="77pt"
 viewBox="0.00 0.00 546.00 77.00" xmlns="http://www.w3.org/2000/svg" xmlns:xlink="http://www.w3.org/1999/xlink">
<g id="graph0" class="graph" transform="scale(1 1) rotate(0) translate(4 73)">
<title>mom_sum_output::create_depth_list</title>
<polygon fill="white" stroke="white" points="-4,5 -4,-73 543,-73 543,5 -4,5"/>
<!-- Node6 -->
<g id="node1" class="node"><title>Node6</title>
<g id="a_node1"><a xlink:title="create_depth_list makes an ordered list of depths, along with the cross sectional areas at each depth...">
<polygon fill="#bfbfbf" stroke="black" points="430,-17 430,-47 538,-47 538,-17 430,-17"/>
<text text-anchor="start" x="438" y="-35" font-family="Helvetica,sans-Serif" font-size="10.00">mom_sum_output::create</text>
<text text-anchor="middle" x="484" y="-24" font-family="Helvetica,sans-Serif" font-size="10.00">_depth_list</text>
</a>
</g>
</g>
<!-- Node7 -->
<g id="node2" class="node"><title>Node7</title>
<g id="a_node2"><a xlink:href="namespacemom__sum__output.html#a6be0bb6885b7df65618f4039d493f5c7" target="_top" xlink:title=" ">
<polygon fill="white" stroke="black" points="288,-17 288,-47 394,-47 394,-17 288,-17"/>
<text text-anchor="start" x="296" y="-35" font-family="Helvetica,sans-Serif" font-size="10.00">mom_sum_output::depth</text>
<text text-anchor="middle" x="341" y="-24" font-family="Helvetica,sans-Serif" font-size="10.00">_list_setup</text>
</a>
</g>
</g>
<!-- Node6&#45;&gt;Node7 -->
<g id="edge1" class="edge"><title>Node6&#45;&gt;Node7</title>
<path fill="none" stroke="midnightblue" d="M419.553,-32C411.158,-32 402.629,-32 394.447,-32"/>
<polygon fill="midnightblue" stroke="midnightblue" points="419.694,-35.5001 429.694,-32 419.694,-28.5001 419.694,-35.5001"/>
</g>
<!-- Node8 -->
<g id="node3" class="node"><title>Node8</title>
<g id="a_node3"><a xlink:href="namespacemom__sum__output.html#ab1d2eb6c53a3cdd079ff60f82691fccb" target="_top" xlink:title=" ">
<polygon fill="white" stroke="black" points="148,-17 148,-47 252,-47 252,-17 148,-17"/>
<text text-anchor="start" x="156" y="-35" font-family="Helvetica,sans-Serif" font-size="10.00">mom_sum_output::mom</text>
<text text-anchor="middle" x="200" y="-24" font-family="Helvetica,sans-Serif" font-size="10.00">_sum_output_init</text>
</a>
</g>
</g>
<!-- Node7&#45;&gt;Node8 -->
<g id="edge2" class="edge"><title>Node7&#45;&gt;Node8</title>
<path fill="none" stroke="midnightblue" d="M277.832,-32C269.215,-32 260.445,-32 252.062,-32"/>
<polygon fill="midnightblue" stroke="midnightblue" points="277.846,-35.5001 287.846,-32 277.846,-28.5001 277.846,-35.5001"/>
</g>
<!-- Node9 -->
<g id="node4" class="node"><title>Node9</title>
<g id="a_node4"><a xlink:href="namespaceocean__model__mod.html#aced9c77abd80a4a509c7cc317af707a7" target="_top" xlink:title=" ">
<polygon fill="white" stroke="black" points="0.5,-39 0.5,-69 111.5,-69 111.5,-39 0.5,-39"/>
<text text-anchor="start" x="8.5" y="-57" font-family="Helvetica,sans-Serif" font-size="10.00">ocean_model_mod::ocean</text>
<text text-anchor="middle" x="56" y="-46" font-family="Helvetica,sans-Serif" font-size="10.00">_model_init</text>
</a>
</g>
</g>
<!-- Node8&#45;&gt;Node9 -->
<g id="edge3" class="edge"><title>Node8&#45;&gt;Node9</title>
<path fill="none" stroke="midnightblue" d="M137.66,-41.5033C128.974,-42.8491 120.092,-44.2252 111.546,-45.5493"/>
<polygon fill="midnightblue" stroke="midnightblue" points="138.389,-44.9324 147.735,-39.9425 137.317,-38.0149 138.389,-44.9324"/>
</g>
<!-- Node10 -->
<g id="node5" class="node"><title>Node10</title>
<g id="a_node5"><a xlink:href="MOM__driver_8F90.html#a08fffeb2d8e8acbf9ed4609be6d258c6" target="_top" xlink:title=" ">
<polygon fill="white" stroke="black" points="28,-0.5 28,-19.5 84,-19.5 84,-0.5 28,-0.5"/>
<text text-anchor="middle" x="56" y="-7.5" font-family="Helvetica,sans-Serif" font-size="10.00">mom_main</text>
</a>
</g>
</g>
<!-- Node8&#45;&gt;Node10 -->
<g id="edge4" class="edge"><title>Node8&#45;&gt;Node10</title>
<path fill="none" stroke="midnightblue" d="M137.781,-22.5153C119.097,-19.6206 99.491,-16.5831 84.274,-14.2255"/>
<polygon fill="midnightblue" stroke="midnightblue" points="137.317,-25.9851 147.735,-24.0575 138.389,-19.0676 137.317,-25.9851"/>
</g>
</g>
</svg>
