<?xml version="1.0" encoding="UTF-8" standalone="no"?>
<!DOCTYPE svg PUBLIC "-//W3C//DTD SVG 1.1//EN"
 "http://www.w3.org/Graphics/SVG/1.1/DTD/svg11.dtd">
<!-- Generated by graphviz version 2.30.1 (20170916.1124)
 -->
<!-- Title: mom_remapping::remap_via_sub_cells Pages: 1 -->
<svg width="524pt" height="155pt"
 viewBox="0.00 0.00 524.00 155.00" xmlns="http://www.w3.org/2000/svg" xmlns:xlink="http://www.w3.org/1999/xlink">
<g id="graph0" class="graph" transform="scale(1 1) rotate(0) translate(4 151)">
<title>mom_remapping::remap_via_sub_cells</title>
<polygon fill="white" stroke="white" points="-4,5 -4,-151 521,-151 521,5 -4,5"/>
<!-- Node169 -->
<g id="node1" class="node"><title>Node169</title>
<g id="a_node1"><a xlink:title="Remaps column of n0 values u0 on grid h0 to grid h1 with n1 cells by calculating the n0+n1+1 sub&#45;inte...">
<polygon fill="#bfbfbf" stroke="black" points="0.5,-42.9998 0.5,-72.9998 105.5,-72.9998 105.5,-42.9998 0.5,-42.9998"/>
<text text-anchor="start" x="8.5" y="-60.9998" font-family="Helvetica,sans-Serif" font-size="10.00">mom_remapping::remap</text>
<text text-anchor="middle" x="53" y="-49.9998" font-family="Helvetica,sans-Serif" font-size="10.00">_via_sub_cells</text>
</a>
</g>
</g>
<!-- Node170 -->
<g id="node2" class="node"><title>Node170</title>
<g id="a_node2"><a xlink:href="namespacemom__remapping.html#ac97371127053406c84be732a19eb6f9d" target="_top" xlink:title="Returns the average value of a reconstruction within a single source cell, i0, between the non&#45;dimens...">
<polygon fill="white" stroke="black" points="143.5,-117 143.5,-147 254.5,-147 254.5,-117 143.5,-117"/>
<text text-anchor="start" x="151.5" y="-135" font-family="Helvetica,sans-Serif" font-size="10.00">mom_remapping::average</text>
<text text-anchor="middle" x="199" y="-124" font-family="Helvetica,sans-Serif" font-size="10.00">_value_ppoly</text>
</a>
</g>
</g>
<!-- Node169&#45;&gt;Node170 -->
<g id="edge1" class="edge"><title>Node169&#45;&gt;Node170</title>
<path fill="none" stroke="midnightblue" d="M79.8612,-73.1907C97.2258,-83.1935 120.732,-96.3574 142,-107 145.749,-108.876 149.67,-110.766 153.62,-112.622"/>
<polygon fill="midnightblue" stroke="midnightblue" points="152.28,-115.858 162.827,-116.867 155.211,-109.501 152.28,-115.858"/>
</g>
<!-- Node173 -->
<g id="node5" class="node"><title>Node173</title>
<g id="a_node5"><a xlink:href="namespacemom__remapping.html#afe0efe65edb680f96fc5efe3d29a9217" target="_top" xlink:title="Measure totals and bounds on source grid.">
<polygon fill="white" stroke="black" points="142.5,-67.9998 142.5,-97.9998 255.5,-97.9998 255.5,-67.9998 142.5,-67.9998"/>
<text text-anchor="start" x="150.5" y="-85.9998" font-family="Helvetica,sans-Serif" font-size="10.00">mom_remapping::measure</text>
<text text-anchor="middle" x="199" y="-74.9998" font-family="Helvetica,sans-Serif" font-size="10.00">_input_bounds</text>
</a>
</g>
</g>
<!-- Node169&#45;&gt;Node173 -->
<g id="edge4" class="edge"><title>Node169&#45;&gt;Node173</title>
<path fill="none" stroke="midnightblue" d="M105.581,-66.9547C114.259,-68.4613 123.368,-70.0428 132.345,-71.6013"/>
<polygon fill="midnightblue" stroke="midnightblue" points="131.942,-75.0837 142.393,-73.3459 133.14,-68.1868 131.942,-75.0837"/>
</g>
<!-- Node174 -->
<g id="node6" class="node"><title>Node174</title>
<g id="a_node6"><a xlink:href="namespacemom__remapping.html#a5453aeefe69feaff159b67f3a4bd2366" target="_top" xlink:title="Measure totals and bounds on destination grid.">
<polygon fill="white" stroke="black" points="142.5,-18.9998 142.5,-48.9998 255.5,-48.9998 255.5,-18.9998 142.5,-18.9998"/>
<text text-anchor="start" x="150.5" y="-36.9998" font-family="Helvetica,sans-Serif" font-size="10.00">mom_remapping::measure</text>
<text text-anchor="middle" x="199" y="-25.9998" font-family="Helvetica,sans-Serif" font-size="10.00">_output_bounds</text>
</a>
</g>
</g>
<!-- Node169&#45;&gt;Node174 -->
<g id="edge5" class="edge"><title>Node169&#45;&gt;Node174</title>
<path fill="none" stroke="midnightblue" d="M105.581,-49.403C114.259,-47.9567 123.368,-46.4385 132.345,-44.9423"/>
<polygon fill="midnightblue" stroke="midnightblue" points="133.105,-48.364 142.393,-43.2675 131.954,-41.4592 133.105,-48.364"/>
</g>
<!-- Node171 -->
<g id="node3" class="node"><title>Node171</title>
<g id="a_node3"><a xlink:href="namespacemom__error__handler.html#a460cfb79a06c29fc249952c2a3710d67" target="_top" xlink:title=" ">
<polygon fill="white" stroke="black" points="292.5,-45.9998 292.5,-75.9998 385.5,-75.9998 385.5,-45.9998 292.5,-45.9998"/>
<text text-anchor="start" x="300.5" y="-63.9998" font-family="Helvetica,sans-Serif" font-size="10.00">mom_error_handler::</text>
<text text-anchor="middle" x="339" y="-52.9998" font-family="Helvetica,sans-Serif" font-size="10.00">mom_error</text>
</a>
</g>
</g>
<!-- Node169&#45;&gt;Node171 -->
<g id="edge6" class="edge"><title>Node169&#45;&gt;Node171</title>
<path fill="none" stroke="midnightblue" d="M74.4458,-42.977C91.5301,-31.4124 117.043,-16.3638 142,-9.99979 191.096,2.51931 207.281,3.91466 256,-9.99979 276.348,-15.8114 296.566,-28.2911 311.835,-39.4502"/>
<polygon fill="midnightblue" stroke="midnightblue" points="310.134,-42.553 320.217,-45.8075 314.364,-36.9758 310.134,-42.553"/>
</g>
<!-- Node170&#45;&gt;Node171 -->
<g id="edge2" class="edge"><title>Node170&#45;&gt;Node171</title>
<path fill="none" stroke="midnightblue" d="M235.182,-116.884C242.136,-113.731 249.34,-110.346 256,-107 271.944,-98.9896 289.223,-89.433 303.79,-81.111"/>
<polygon fill="midnightblue" stroke="midnightblue" points="305.552,-84.1354 312.473,-76.1138 302.06,-78.0684 305.552,-84.1354"/>
</g>
<!-- Node172 -->
<g id="node4" class="node"><title>Node172</title>
<g id="a_node4"><a xlink:href="namespacemom__error__handler.html#ad5f00a53059c72fe2332d1436c80ca71" target="_top" xlink:title=" ">
<polygon fill="white" stroke="black" points="422.5,-45.9998 422.5,-75.9998 515.5,-75.9998 515.5,-45.9998 422.5,-45.9998"/>
<text text-anchor="start" x="430.5" y="-63.9998" font-family="Helvetica,sans-Serif" font-size="10.00">mom_error_handler::</text>
<text text-anchor="middle" x="469" y="-52.9998" font-family="Helvetica,sans-Serif" font-size="10.00">is_root_pe</text>
</a>
</g>
</g>
<!-- Node171&#45;&gt;Node172 -->
<g id="edge3" class="edge"><title>Node171&#45;&gt;Node172</title>
<path fill="none" stroke="midnightblue" d="M385.849,-60.9998C394.408,-60.9998 403.439,-60.9998 412.258,-60.9998"/>
<polygon fill="midnightblue" stroke="midnightblue" points="412.471,-64.4999 422.471,-60.9998 412.471,-57.4999 412.471,-64.4999"/>
</g>
</g>
</svg>
