<?xml version="1.0" encoding="UTF-8" standalone="no"?>
<!DOCTYPE svg PUBLIC "-//W3C//DTD SVG 1.1//EN"
 "http://www.w3.org/Graphics/SVG/1.1/DTD/svg11.dtd">
<!-- Generated by graphviz version 2.30.1 (20170916.1124)
 -->
<!-- Title: mom_ice_shelf::ice_shelf_end Pages: 1 -->
<svg width="240pt" height="116pt"
 viewBox="0.00 0.00 240.00 116.00" xmlns="http://www.w3.org/2000/svg" xmlns:xlink="http://www.w3.org/1999/xlink">
<g id="graph0" class="graph" transform="scale(1 1) rotate(0) translate(4 112)">
<title>mom_ice_shelf::ice_shelf_end</title>
<polygon fill="white" stroke="white" points="-4,5 -4,-112 237,-112 237,5 -4,5"/>
<!-- Node171 -->
<g id="node1" class="node"><title>Node171</title>
<g id="a_node1"><a xlink:title=" ">
<polygon fill="#bfbfbf" stroke="black" points="148,-39 148,-69 232,-69 232,-39 148,-39"/>
<text text-anchor="start" x="156" y="-57" font-family="Helvetica,sans-Serif" font-size="10.00">mom_ice_shelf::ice</text>
<text text-anchor="middle" x="190" y="-46" font-family="Helvetica,sans-Serif" font-size="10.00">_shelf_end</text>
</a>
</g>
</g>
<!-- Node172 -->
<g id="node2" class="node"><title>Node172</title>
<g id="a_node2"><a xlink:href="MOM__driver_8F90.html#a08fffeb2d8e8acbf9ed4609be6d258c6" target="_top" xlink:title=" ">
<polygon fill="white" stroke="black" points="28,-88.5 28,-107.5 84,-107.5 84,-88.5 28,-88.5"/>
<text text-anchor="middle" x="56" y="-95.5" font-family="Helvetica,sans-Serif" font-size="10.00">mom_main</text>
</a>
</g>
</g>
<!-- Node171&#45;&gt;Node172 -->
<g id="edge1" class="edge"><title>Node171&#45;&gt;Node172</title>
<path fill="none" stroke="midnightblue" d="M138.248,-70.9174C119.873,-77.0425 99.8293,-83.7236 84.2479,-88.9174"/>
<polygon fill="midnightblue" stroke="midnightblue" points="139.578,-74.1634 147.958,-67.6807 137.364,-67.5226 139.578,-74.1634"/>
</g>
<!-- Node173 -->
<g id="node3" class="node"><title>Node173</title>
<g id="a_node3"><a xlink:href="namespaceocean__model__mod.html#a276959acb69502491d4b3a5a83e596b8" target="_top" xlink:title=" ">
<polygon fill="white" stroke="black" points="0.5,-39 0.5,-69 111.5,-69 111.5,-39 0.5,-39"/>
<text text-anchor="start" x="8.5" y="-57" font-family="Helvetica,sans-Serif" font-size="10.00">ocean_model_mod::ocean</text>
<text text-anchor="middle" x="56" y="-46" font-family="Helvetica,sans-Serif" font-size="10.00">_model_end</text>
</a>
</g>
</g>
<!-- Node171&#45;&gt;Node173 -->
<g id="edge2" class="edge"><title>Node171&#45;&gt;Node173</title>
<path fill="none" stroke="midnightblue" d="M137.726,-54C129.162,-54 120.25,-54 111.607,-54"/>
<polygon fill="midnightblue" stroke="midnightblue" points="137.958,-57.5001 147.958,-54 137.958,-50.5001 137.958,-57.5001"/>
</g>
<!-- Node174 -->
<g id="node4" class="node"><title>Node174</title>
<g id="a_node4"><a xlink:href="ice__shelf__driver_8F90.html#aec5bef92f0dad343f545cd8d62e378d8" target="_top" xlink:title=" ">
<polygon fill="white" stroke="black" points="28.5,-0.5 28.5,-19.5 83.5,-19.5 83.5,-0.5 28.5,-0.5"/>
<text text-anchor="middle" x="56" y="-7.5" font-family="Helvetica,sans-Serif" font-size="10.00">shelf_main</text>
</a>
</g>
</g>
<!-- Node171&#45;&gt;Node174 -->
<g id="edge3" class="edge"><title>Node171&#45;&gt;Node174</title>
<path fill="none" stroke="midnightblue" d="M138.431,-37.1438C119.848,-30.9493 99.5356,-24.1785 83.8464,-18.9488"/>
<polygon fill="midnightblue" stroke="midnightblue" points="137.364,-40.4774 147.958,-40.3193 139.578,-33.8366 137.364,-40.4774"/>
</g>
</g>
</svg>
