<?xml version="1.0" encoding="UTF-8" standalone="no"?>
<!DOCTYPE svg PUBLIC "-//W3C//DTD SVG 1.1//EN"
 "http://www.w3.org/Graphics/SVG/1.1/DTD/svg11.dtd">
<!-- Generated by graphviz version 2.30.1 (20170916.1124)
 -->
<!-- Title: mom_open_boundary::parse_segment_str Pages: 1 -->
<svg width="500pt" height="102pt"
 viewBox="0.00 0.00 500.00 102.00" xmlns="http://www.w3.org/2000/svg" xmlns:xlink="http://www.w3.org/1999/xlink">
<g id="graph0" class="graph" transform="scale(1 1) rotate(0) translate(4 98)">
<title>mom_open_boundary::parse_segment_str</title>
<polygon fill="white" stroke="white" points="-4,5 -4,-98 497,-98 497,5 -4,5"/>
<!-- Node32 -->
<g id="node1" class="node"><title>Node32</title>
<g id="a_node1"><a xlink:title="Parse an OBC_SEGMENT_%%% string.">
<polygon fill="#bfbfbf" stroke="black" points="0,-20 0,-50 100,-50 100,-20 0,-20"/>
<text text-anchor="start" x="8" y="-38" font-family="Helvetica,sans-Serif" font-size="10.00">mom_open_boundary::</text>
<text text-anchor="middle" x="50" y="-27" font-family="Helvetica,sans-Serif" font-size="10.00">parse_segment_str</text>
</a>
</g>
</g>
<!-- Node33 -->
<g id="node2" class="node"><title>Node33</title>
<g id="a_node2"><a xlink:href="namespacemom__string__functions.html#aad76dee92b69dab4488da049fe11cdb8" target="_top" xlink:title="Returns the string corresponding to the nth word in the argument or &quot;&quot; if the string is not long enou...">
<polygon fill="white" stroke="black" points="136.5,-64 136.5,-94 231.5,-94 231.5,-64 136.5,-64"/>
<text text-anchor="start" x="144.5" y="-82" font-family="Helvetica,sans-Serif" font-size="10.00">mom_string_functions</text>
<text text-anchor="middle" x="184" y="-71" font-family="Helvetica,sans-Serif" font-size="10.00">::extract_word</text>
</a>
</g>
</g>
<!-- Node32&#45;&gt;Node33 -->
<g id="edge1" class="edge"><title>Node32&#45;&gt;Node33</title>
<path fill="none" stroke="midnightblue" d="M96.0577,-50.0192C106.35,-53.4501 117.401,-57.1337 128.056,-60.6854"/>
<polygon fill="midnightblue" stroke="midnightblue" points="127.104,-64.0571 137.697,-63.8991 129.317,-57.4163 127.104,-64.0571"/>
</g>
<!-- Node34 -->
<g id="node3" class="node"><title>Node34</title>
<g id="a_node3"><a xlink:href="MOM__open__boundary_8F90.html#a0793b1a5746e6ead6bff50c3a52cae90" target="_top" xlink:title=" ">
<polygon fill="white" stroke="black" points="144,-25.5 144,-44.5 224,-44.5 224,-25.5 144,-25.5"/>
<text text-anchor="middle" x="184" y="-32.5" font-family="Helvetica,sans-Serif" font-size="10.00">interpret_int_expr</text>
</a>
</g>
</g>
<!-- Node32&#45;&gt;Node34 -->
<g id="edge2" class="edge"><title>Node32&#45;&gt;Node34</title>
<path fill="none" stroke="midnightblue" d="M100.152,-35C111.039,-35 122.582,-35 133.484,-35"/>
<polygon fill="midnightblue" stroke="midnightblue" points="133.697,-38.5001 143.697,-35 133.697,-31.5001 133.697,-38.5001"/>
</g>
<!-- Node35 -->
<g id="node4" class="node"><title>Node35</title>
<g id="a_node4"><a xlink:href="namespacemom__error__handler.html#a460cfb79a06c29fc249952c2a3710d67" target="_top" xlink:title=" ">
<polygon fill="white" stroke="black" points="268.5,-1 268.5,-31 361.5,-31 361.5,-1 268.5,-1"/>
<text text-anchor="start" x="276.5" y="-19" font-family="Helvetica,sans-Serif" font-size="10.00">mom_error_handler::</text>
<text text-anchor="middle" x="315" y="-8" font-family="Helvetica,sans-Serif" font-size="10.00">mom_error</text>
</a>
</g>
</g>
<!-- Node32&#45;&gt;Node35 -->
<g id="edge5" class="edge"><title>Node32&#45;&gt;Node35</title>
<path fill="none" stroke="midnightblue" d="M100.133,-22.0939C111.806,-19.5637 124.277,-17.2943 136,-16 176.816,-11.4938 223.219,-11.6657 258.412,-12.8733"/>
<polygon fill="midnightblue" stroke="midnightblue" points="258.363,-16.3739 268.489,-13.2576 258.63,-9.37895 258.363,-16.3739"/>
</g>
<!-- Node34&#45;&gt;Node35 -->
<g id="edge3" class="edge"><title>Node34&#45;&gt;Node35</title>
<path fill="none" stroke="midnightblue" d="M224.054,-29.2478C234.837,-27.6596 246.75,-25.9051 258.281,-24.2067"/>
<polygon fill="midnightblue" stroke="midnightblue" points="258.895,-27.6541 268.278,-22.7342 257.875,-20.7288 258.895,-27.6541"/>
</g>
<!-- Node36 -->
<g id="node5" class="node"><title>Node36</title>
<g id="a_node5"><a xlink:href="namespacemom__error__handler.html#ad5f00a53059c72fe2332d1436c80ca71" target="_top" xlink:title=" ">
<polygon fill="white" stroke="black" points="398.5,-1 398.5,-31 491.5,-31 491.5,-1 398.5,-1"/>
<text text-anchor="start" x="406.5" y="-19" font-family="Helvetica,sans-Serif" font-size="10.00">mom_error_handler::</text>
<text text-anchor="middle" x="445" y="-8" font-family="Helvetica,sans-Serif" font-size="10.00">is_root_pe</text>
</a>
</g>
</g>
<!-- Node35&#45;&gt;Node36 -->
<g id="edge4" class="edge"><title>Node35&#45;&gt;Node36</title>
<path fill="none" stroke="midnightblue" d="M361.849,-16C370.408,-16 379.439,-16 388.258,-16"/>
<polygon fill="midnightblue" stroke="midnightblue" points="388.471,-19.5001 398.471,-16 388.471,-12.5001 388.471,-19.5001"/>
</g>
</g>
</svg>
