<?xml version="1.0" encoding="UTF-8" standalone="no"?>
<!DOCTYPE svg PUBLIC "-//W3C//DTD SVG 1.1//EN"
 "http://www.w3.org/Graphics/SVG/1.1/DTD/svg11.dtd">
<!-- Generated by graphviz version 2.30.1 (20170916.1124)
 -->
<!-- Title: midas_vertmap::fill_boundaries_real Pages: 1 -->
<svg width="212pt" height="38pt"
 viewBox="0.00 0.00 212.00 38.00" xmlns="http://www.w3.org/2000/svg" xmlns:xlink="http://www.w3.org/1999/xlink">
<g id="graph0" class="graph" transform="scale(1 1) rotate(0) translate(4 34)">
<title>midas_vertmap::fill_boundaries_real</title>
<polygon fill="white" stroke="white" points="-4,5 -4,-34 209,-34 209,5 -4,5"/>
<!-- Node12 -->
<g id="node1" class="node"><title>Node12</title>
<g id="a_node1"><a xlink:title=" ">
<polygon fill="#bfbfbf" stroke="black" points="120.5,-0 120.5,-30 203.5,-30 203.5,-0 120.5,-0"/>
<text text-anchor="start" x="128.5" y="-18" font-family="Helvetica,sans-Serif" font-size="10.00">midas_vertmap::fill</text>
<text text-anchor="middle" x="162" y="-7" font-family="Helvetica,sans-Serif" font-size="10.00">_boundaries_real</text>
</a>
</g>
</g>
<!-- Node13 -->
<g id="node2" class="node"><title>Node13</title>
<g id="a_node2"><a xlink:href="namespacemidas__vertmap.html#a08be851d2f13bc26d9b4d378d437e296" target="_top" xlink:title=" ">
<polygon fill="white" stroke="black" points="0.5,-0 0.5,-30 83.5,-30 83.5,-0 0.5,-0"/>
<text text-anchor="start" x="8.5" y="-18" font-family="Helvetica,sans-Serif" font-size="10.00">midas_vertmap::fill</text>
<text text-anchor="middle" x="42" y="-7" font-family="Helvetica,sans-Serif" font-size="10.00">_boundaries_int</text>
</a>
</g>
</g>
<!-- Node12&#45;&gt;Node13 -->
<g id="edge1" class="edge"><title>Node12&#45;&gt;Node13</title>
<path fill="none" stroke="midnightblue" d="M110.166,-15C101.316,-15 92.2162,-15 83.6838,-15"/>
<polygon fill="midnightblue" stroke="midnightblue" points="110.391,-18.5001 120.391,-15 110.391,-11.5001 110.391,-18.5001"/>
</g>
</g>
</svg>
