<?xml version="1.0" encoding="UTF-8" standalone="no"?>
<!DOCTYPE svg PUBLIC "-//W3C//DTD SVG 1.1//EN"
 "http://www.w3.org/Graphics/SVG/1.1/DTD/svg11.dtd">
<!-- Generated by graphviz version 2.30.1 (20170916.1124)
 -->
<!-- Title: mom_document::mesghasbeendocumented Pages: 1 -->
<svg width="360pt" height="378pt"
 viewBox="0.00 0.00 360.00 378.00" xmlns="http://www.w3.org/2000/svg" xmlns:xlink="http://www.w3.org/1999/xlink">
<g id="graph0" class="graph" transform="scale(1 1) rotate(0) translate(4 374)">
<title>mom_document::mesghasbeendocumented</title>
<polygon fill="white" stroke="white" points="-4,5 -4,-374 357,-374 357,5 -4,5"/>
<!-- Node164 -->
<g id="node1" class="node"><title>Node164</title>
<g id="a_node1"><a xlink:title=" ">
<polygon fill="#bfbfbf" stroke="black" points="178.5,-170.5 178.5,-189.5 351.5,-189.5 351.5,-170.5 178.5,-170.5"/>
<text text-anchor="middle" x="265" y="-177.5" font-family="Helvetica,sans-Serif" font-size="10.00">mom_document::mesghasbeendocumented</text>
</a>
</g>
</g>
<!-- Node165 -->
<g id="node2" class="node"><title>Node165</title>
<g id="a_node2"><a xlink:href="namespacemom__document.html#aeef6510f5e76c23d9a9a9c587f62d4d9" target="_top" xlink:title=" ">
<polygon fill="white" stroke="black" points="1,-350.5 1,-369.5 141,-369.5 141,-350.5 1,-350.5"/>
<text text-anchor="middle" x="71" y="-357.5" font-family="Helvetica,sans-Serif" font-size="10.00">mom_document::doc_param_char</text>
</a>
</g>
</g>
<!-- Node164&#45;&gt;Node165 -->
<g id="edge1" class="edge"><title>Node164&#45;&gt;Node165</title>
<path fill="none" stroke="midnightblue" d="M254.952,-198.986C237.814,-232.861 197.321,-303.663 142,-341 136.259,-344.875 129.754,-347.961 123.078,-350.42"/>
<polygon fill="midnightblue" stroke="midnightblue" points="258.229,-200.253 259.511,-189.736 251.951,-197.158 258.229,-200.253"/>
</g>
<!-- Node166 -->
<g id="node3" class="node"><title>Node166</title>
<g id="a_node3"><a xlink:href="namespacemom__document.html#a14995c64ee277f19aa10b957431aa4c1" target="_top" xlink:title=" ">
<polygon fill="white" stroke="black" points="5,-312.5 5,-331.5 137,-331.5 137,-312.5 5,-312.5"/>
<text text-anchor="middle" x="71" y="-319.5" font-family="Helvetica,sans-Serif" font-size="10.00">mom_document::doc_param_int</text>
</a>
</g>
</g>
<!-- Node164&#45;&gt;Node166 -->
<g id="edge2" class="edge"><title>Node164&#45;&gt;Node166</title>
<path fill="none" stroke="midnightblue" d="M251.217,-197.591C231.002,-224.144 189.085,-274.295 142,-302 134.702,-306.294 126.429,-309.711 118.191,-312.415"/>
<polygon fill="midnightblue" stroke="midnightblue" points="254.037,-199.664 257.217,-189.557 248.429,-195.475 254.037,-199.664"/>
</g>
<!-- Node167 -->
<g id="node4" class="node"><title>Node167</title>
<g id="a_node4"><a xlink:href="namespacemom__document.html#a3ce71018037d66ba8f51d860bedbdcbb" target="_top" xlink:title=" ">
<polygon fill="white" stroke="black" points="11.5,-263 11.5,-293 130.5,-293 130.5,-263 11.5,-263"/>
<text text-anchor="start" x="19.5" y="-281" font-family="Helvetica,sans-Serif" font-size="10.00">mom_document::doc_param</text>
<text text-anchor="middle" x="71" y="-270" font-family="Helvetica,sans-Serif" font-size="10.00">_int_array</text>
</a>
</g>
</g>
<!-- Node164&#45;&gt;Node167 -->
<g id="edge3" class="edge"><title>Node164&#45;&gt;Node167</title>
<path fill="none" stroke="midnightblue" d="M241.478,-195.315C217.539,-211.148 178.218,-235.9 142,-253 134.415,-256.581 126.169,-259.956 118.087,-262.997"/>
<polygon fill="midnightblue" stroke="midnightblue" points="243.487,-198.182 249.861,-189.718 239.6,-192.36 243.487,-198.182"/>
</g>
<!-- Node168 -->
<g id="node5" class="node"><title>Node168</title>
<g id="a_node5"><a xlink:href="namespacemom__document.html#ae29b615a7c566d9da64ade24864805b2" target="_top" xlink:title=" ">
<polygon fill="white" stroke="black" points="11.5,-214 11.5,-244 130.5,-244 130.5,-214 11.5,-214"/>
<text text-anchor="start" x="19.5" y="-232" font-family="Helvetica,sans-Serif" font-size="10.00">mom_document::doc_param</text>
<text text-anchor="middle" x="71" y="-221" font-family="Helvetica,sans-Serif" font-size="10.00">_logical</text>
</a>
</g>
</g>
<!-- Node164&#45;&gt;Node168 -->
<g id="edge4" class="edge"><title>Node164&#45;&gt;Node168</title>
<path fill="none" stroke="midnightblue" d="M216.539,-192.112C190.543,-198.747 158.103,-207.026 130.545,-214.059"/>
<polygon fill="midnightblue" stroke="midnightblue" points="217.701,-195.428 226.525,-189.564 215.97,-188.646 217.701,-195.428"/>
</g>
<!-- Node169 -->
<g id="node6" class="node"><title>Node169</title>
<g id="a_node6"><a xlink:href="namespacemom__document.html#a9792937a5eb8f9a2a58c7b816520470d" target="_top" xlink:title=" ">
<polygon fill="white" stroke="black" points="11.5,-165 11.5,-195 130.5,-195 130.5,-165 11.5,-165"/>
<text text-anchor="start" x="19.5" y="-183" font-family="Helvetica,sans-Serif" font-size="10.00">mom_document::doc_param</text>
<text text-anchor="middle" x="71" y="-172" font-family="Helvetica,sans-Serif" font-size="10.00">_logical_array</text>
</a>
</g>
</g>
<!-- Node164&#45;&gt;Node169 -->
<g id="edge5" class="edge"><title>Node164&#45;&gt;Node169</title>
<path fill="none" stroke="midnightblue" d="M168.164,-180C155.394,-180 142.619,-180 130.745,-180"/>
<polygon fill="midnightblue" stroke="midnightblue" points="168.388,-183.5 178.388,-180 168.388,-176.5 168.388,-183.5"/>
</g>
<!-- Node170 -->
<g id="node7" class="node"><title>Node170</title>
<g id="a_node7"><a xlink:href="namespacemom__document.html#ab6438889d6e98b10d8c42d5ff6b00ef8" target="_top" xlink:title=" ">
<polygon fill="white" stroke="black" points="0,-126.5 0,-145.5 142,-145.5 142,-126.5 0,-126.5"/>
<text text-anchor="middle" x="71" y="-133.5" font-family="Helvetica,sans-Serif" font-size="10.00">mom_document::doc_param_none</text>
</a>
</g>
</g>
<!-- Node164&#45;&gt;Node170 -->
<g id="edge6" class="edge"><title>Node164&#45;&gt;Node170</title>
<path fill="none" stroke="midnightblue" d="M212.578,-168.216C181.584,-161.113 142.621,-152.184 113.58,-145.529"/>
<polygon fill="midnightblue" stroke="midnightblue" points="211.81,-171.63 222.339,-170.453 213.373,-164.807 211.81,-171.63"/>
</g>
<!-- Node171 -->
<g id="node8" class="node"><title>Node171</title>
<g id="a_node8"><a xlink:href="namespacemom__document.html#aae79ba23b83e7e2be3dcc46f50ee0f69" target="_top" xlink:title=" ">
<polygon fill="white" stroke="black" points="2.5,-88.5 2.5,-107.5 139.5,-107.5 139.5,-88.5 2.5,-88.5"/>
<text text-anchor="middle" x="71" y="-95.5" font-family="Helvetica,sans-Serif" font-size="10.00">mom_document::doc_param_real</text>
</a>
</g>
</g>
<!-- Node164&#45;&gt;Node171 -->
<g id="edge7" class="edge"><title>Node164&#45;&gt;Node171</title>
<path fill="none" stroke="midnightblue" d="M239.09,-165.145C214.932,-151.223 176.912,-130.576 142,-117 132.728,-113.395 122.513,-110.205 112.819,-107.518"/>
<polygon fill="midnightblue" stroke="midnightblue" points="237.536,-168.29 247.938,-170.301 241.061,-162.242 237.536,-168.29"/>
</g>
<!-- Node172 -->
<g id="node9" class="node"><title>Node172</title>
<g id="a_node9"><a xlink:href="namespacemom__document.html#a09ce71cb5106c9abb604c07b98e62863" target="_top" xlink:title=" ">
<polygon fill="white" stroke="black" points="11.5,-39 11.5,-69 130.5,-69 130.5,-39 11.5,-39"/>
<text text-anchor="start" x="19.5" y="-57" font-family="Helvetica,sans-Serif" font-size="10.00">mom_document::doc_param</text>
<text text-anchor="middle" x="71" y="-46" font-family="Helvetica,sans-Serif" font-size="10.00">_real_array</text>
</a>
</g>
</g>
<!-- Node164&#45;&gt;Node172 -->
<g id="edge8" class="edge"><title>Node164&#45;&gt;Node172</title>
<path fill="none" stroke="midnightblue" d="M247.483,-163.046C225.269,-141.063 183.72,-102.736 142,-79 135.495,-75.2988 128.344,-71.9915 121.174,-69.0895"/>
<polygon fill="midnightblue" stroke="midnightblue" points="245.219,-165.733 254.756,-170.348 250.179,-160.793 245.219,-165.733"/>
</g>
<!-- Node173 -->
<g id="node10" class="node"><title>Node173</title>
<g id="a_node10"><a xlink:href="namespacemom__document.html#a88e4bef8326a973afec58f1cb66fdd0c" target="_top" xlink:title=" ">
<polygon fill="white" stroke="black" points="1.5,-0.5 1.5,-19.5 140.5,-19.5 140.5,-0.5 1.5,-0.5"/>
<text text-anchor="middle" x="71" y="-7.5" font-family="Helvetica,sans-Serif" font-size="10.00">mom_document::doc_param_time</text>
</a>
</g>
</g>
<!-- Node164&#45;&gt;Node173 -->
<g id="edge9" class="edge"><title>Node164&#45;&gt;Node173</title>
<path fill="none" stroke="midnightblue" d="M253.809,-161.068C235.644,-129.142 194.59,-64.692 142,-30 135.459,-25.685 127.98,-22.287 120.402,-19.6149"/>
<polygon fill="midnightblue" stroke="midnightblue" points="250.973,-163.17 258.888,-170.212 257.092,-159.771 250.973,-163.17"/>
</g>
</g>
</svg>
