<?xml version="1.0" encoding="UTF-8" standalone="no"?>
<!DOCTYPE svg PUBLIC "-//W3C//DTD SVG 1.1//EN"
 "http://www.w3.org/Graphics/SVG/1.1/DTD/svg11.dtd">
<!-- Generated by graphviz version 2.30.1 (20170916.1124)
 -->
<!-- Title: mom_remapping::remapping_core_w Pages: 1 -->
<!--zoomable 836 -->
<svg id="main" version="1.1" xmlns="http://www.w3.org/2000/svg" xmlns:xlink="http://www.w3.org/1999/xlink" xml:space="preserve" onload="init(evt)">
<style type="text/css"><![CDATA[
.edge:hover path { stroke: red; }
.edge:hover polygon { stroke: red; fill: red; }
]]></style>
<script type="text/javascript"><![CDATA[
var edges = document.getElementsByTagName('g');
if (edges && edges.length) {
  for (var i=0;i<edges.length;i++) {
    if (edges[i].id.substr(0,4)=='edge') {
      edges[i].setAttribute('class','edge');
    }
  }
}
]]></script>
        <defs>
                <circle id="rim" cx="0" cy="0" r="7"/>
                <circle id="rim2" cx="0" cy="0" r="3.5"/>
                <g id="zoomPlus">
                        <use xlink:href="#rim" fill="#404040">
                                <set attributeName="fill" to="#808080" begin="zoomplus.mouseover" end="zoomplus.mouseout"/>
                        </use>
                        <path d="M-4,0h8M0,-4v8" fill="none" stroke="white" stroke-width="1.5" pointer-events="none"/>
                </g>
                <g id="zoomMin">
                        <use xlink:href="#rim" fill="#404040">
                                <set attributeName="fill" to="#808080" begin="zoomminus.mouseover" end="zoomminus.mouseout"/>
                        </use>
                        <path d="M-4,0h8" fill="none" stroke="white" stroke-width="1.5" pointer-events="none"/>
                </g>
                <g id="dirArrow">
                        <path fill="none" stroke="white" stroke-width="1.5" d="M0,-3.0v7 M-2.5,-0.5L0,-3.0L2.5,-0.5"/>
                </g>
               <g id="resetDef">
                       <use xlink:href="#rim2" fill="#404040">
                               <set attributeName="fill" to="#808080" begin="reset.mouseover" end="reset.mouseout"/>
                       </use>
               </g>
        </defs>

<script type="text/javascript">
var viewWidth = 832;
var viewHeight = 836;
var sectionId = 'dynsection-23';
</script>
<script xlink:href="svgpan.js"/>
<svg id="graph" class="graph">
<g id="viewport">
<title>mom_remapping::remapping_core_w</title>
<polygon fill="white" stroke="white" points="-4,5 -4,-832 829,-832 829,5 -4,5"/>
<!-- Node252 -->
<g id="node1" class="node"><title>Node252</title>
<g id="a_node1"><a xlink:title="Remaps column of values u0 on grid h0 to implied grid h1 where the interfaces of h1 differ from those...">
<polygon fill="#bfbfbf" stroke="black" points="0,-125 0,-155 120,-155 120,-125 0,-125"/>
<text text-anchor="start" x="8" y="-143" font-family="Helvetica,sans-Serif" font-size="10.00">mom_remapping::remapping</text>
<text text-anchor="middle" x="60" y="-132" font-family="Helvetica,sans-Serif" font-size="10.00">_core_w</text>
</a>
</g>
</g>
<!-- Node253 -->
<g id="node2" class="node"><title>Node253</title>
<g id="a_node2"><a xlink:href="namespacemom__remapping.html#a07d7276310f329f56560a1290bcb8b0a" target="_top" xlink:title="Creates polynomial reconstructions of u0 on the source grid h0.">
<polygon fill="white" stroke="black" points="160,-495 160,-525 258,-525 258,-495 160,-495"/>
<text text-anchor="start" x="168" y="-513" font-family="Helvetica,sans-Serif" font-size="10.00">mom_remapping::build</text>
<text text-anchor="middle" x="209" y="-502" font-family="Helvetica,sans-Serif" font-size="10.00">_reconstructions_1d</text>
</a>
</g>
</g>
<!-- Node252&#45;&gt;Node253 -->
<g id="edge1" class="edge"><title>Node252&#45;&gt;Node253</title>
<path fill="none" stroke="midnightblue" d="M67.1293,-155.427C89.9689,-212.915 170.25,-414.983 198.266,-485.499"/>
<polygon fill="midnightblue" stroke="midnightblue" points="195.062,-486.914 202.007,-494.915 201.567,-484.33 195.062,-486.914"/>
</g>
<!-- Node274 -->
<g id="node23" class="node"><title>Node274</title>
<g id="a_node23"><a xlink:href="namespacemom__remapping.html#a62666b08a892ba9e9ab5a4731a07b942" target="_top" xlink:title="Checks that edge values and reconstructions satisfy bounds.">
<polygon fill="white" stroke="black" points="158,-158 158,-188 260,-188 260,-158 158,-158"/>
<text text-anchor="start" x="166" y="-176" font-family="Helvetica,sans-Serif" font-size="10.00">mom_remapping::check</text>
<text text-anchor="middle" x="209" y="-165" font-family="Helvetica,sans-Serif" font-size="10.00">_reconstructions_1d</text>
</a>
</g>
</g>
<!-- Node252&#45;&gt;Node274 -->
<g id="edge34" class="edge"><title>Node252&#45;&gt;Node274</title>
<path fill="none" stroke="midnightblue" d="M120.367,-153.327C129.496,-155.377 138.927,-157.494 148.067,-159.546"/>
<polygon fill="midnightblue" stroke="midnightblue" points="147.321,-162.965 157.845,-161.741 148.854,-156.135 147.321,-162.965"/>
</g>
<!-- Node275 -->
<g id="node24" class="node"><title>Node275</title>
<g id="a_node24"><a xlink:href="namespacemom__remapping.html#afe0efe65edb680f96fc5efe3d29a9217" target="_top" xlink:title="Measure totals and bounds on source grid.">
<polygon fill="white" stroke="black" points="300.5,-49 300.5,-79 413.5,-79 413.5,-49 300.5,-49"/>
<text text-anchor="start" x="308.5" y="-67" font-family="Helvetica,sans-Serif" font-size="10.00">mom_remapping::measure</text>
<text text-anchor="middle" x="357" y="-56" font-family="Helvetica,sans-Serif" font-size="10.00">_input_bounds</text>
</a>
</g>
</g>
<!-- Node252&#45;&gt;Node275 -->
<g id="edge36" class="edge"><title>Node252&#45;&gt;Node275</title>
<path fill="none" stroke="midnightblue" d="M80.1142,-124.991C98.4535,-111.486 127.495,-92.3693 156,-83 199.283,-68.7731 250.469,-64.1182 290.223,-62.971"/>
<polygon fill="midnightblue" stroke="midnightblue" points="290.412,-66.4678 300.332,-62.7472 290.257,-59.4695 290.412,-66.4678"/>
</g>
<!-- Node276 -->
<g id="node25" class="node"><title>Node276</title>
<g id="a_node25"><a xlink:href="namespacemom__remapping.html#a5453aeefe69feaff159b67f3a4bd2366" target="_top" xlink:title="Measure totals and bounds on destination grid.">
<polygon fill="white" stroke="black" points="300.5,-0 300.5,-30 413.5,-30 413.5,-0 300.5,-0"/>
<text text-anchor="start" x="308.5" y="-18" font-family="Helvetica,sans-Serif" font-size="10.00">mom_remapping::measure</text>
<text text-anchor="middle" x="357" y="-7" font-family="Helvetica,sans-Serif" font-size="10.00">_output_bounds</text>
</a>
</g>
</g>
<!-- Node252&#45;&gt;Node276 -->
<g id="edge37" class="edge"><title>Node252&#45;&gt;Node276</title>
<path fill="none" stroke="midnightblue" d="M74.8968,-124.723C92.1519,-106.712 123.323,-77.1853 156,-61 198.089,-40.1531 249.866,-28.5785 290.191,-22.2546"/>
<polygon fill="midnightblue" stroke="midnightblue" points="290.813,-25.7006 300.184,-20.7575 289.776,-18.7778 290.813,-25.7006"/>
</g>
<!-- Node256 -->
<g id="node5" class="node"><title>Node256</title>
<g id="a_node5"><a xlink:href="namespacemom__error__handler.html#a460cfb79a06c29fc249952c2a3710d67" target="_top" xlink:title=" ">
<polygon fill="white" stroke="black" points="600.5,-198 600.5,-228 693.5,-228 693.5,-198 600.5,-198"/>
<text text-anchor="start" x="608.5" y="-216" font-family="Helvetica,sans-Serif" font-size="10.00">mom_error_handler::</text>
<text text-anchor="middle" x="647" y="-205" font-family="Helvetica,sans-Serif" font-size="10.00">mom_error</text>
</a>
</g>
</g>
<!-- Node252&#45;&gt;Node256 -->
<g id="edge38" class="edge"><title>Node252&#45;&gt;Node256</title>
<path fill="none" stroke="midnightblue" d="M80.0432,-155.231C98.3324,-168.893 127.34,-188.116 156,-197 307.433,-243.94 497.91,-231.043 590.444,-220.534"/>
<polygon fill="midnightblue" stroke="midnightblue" points="590.905,-224.004 600.43,-219.365 590.091,-217.051 590.905,-224.004"/>
</g>
<!-- Node277 -->
<g id="node26" class="node"><title>Node277</title>
<g id="a_node26"><a xlink:href="namespacemom__remapping.html#aac27eb299cd36293b458a51b60ac771f" target="_top" xlink:title="Remaps column of n0 values u0 on grid h0 to grid h1 with n1 cells by calculating the n0+n1+1 sub&#45;inte...">
<polygon fill="white" stroke="black" points="156.5,-93 156.5,-123 261.5,-123 261.5,-93 156.5,-93"/>
<text text-anchor="start" x="164.5" y="-111" font-family="Helvetica,sans-Serif" font-size="10.00">mom_remapping::remap</text>
<text text-anchor="middle" x="209" y="-100" font-family="Helvetica,sans-Serif" font-size="10.00">_via_sub_cells</text>
</a>
</g>
</g>
<!-- Node252&#45;&gt;Node277 -->
<g id="edge39" class="edge"><title>Node252&#45;&gt;Node277</title>
<path fill="none" stroke="midnightblue" d="M120.367,-127.077C128.958,-125.206 137.816,-123.278 146.449,-121.399"/>
<polygon fill="midnightblue" stroke="midnightblue" points="147.423,-124.769 156.449,-119.222 145.934,-117.929 147.423,-124.769"/>
</g>
<!-- Node254 -->
<g id="node3" class="node"><title>Node254</title>
<g id="a_node3"><a xlink:href="namespaceregrid__edge__slopes.html#a378dcb603968664e58d65e8ed892ec69" target="_top" xlink:title=" ">
<polygon fill="white" stroke="black" points="303.5,-348 303.5,-378 410.5,-378 410.5,-348 303.5,-348"/>
<text text-anchor="start" x="311.5" y="-366" font-family="Helvetica,sans-Serif" font-size="10.00">regrid_edge_slopes</text>
<text text-anchor="middle" x="357" y="-355" font-family="Helvetica,sans-Serif" font-size="10.00">::edge_slopes_implicit_h3</text>
</a>
</g>
</g>
<!-- Node253&#45;&gt;Node254 -->
<g id="edge2" class="edge"><title>Node253&#45;&gt;Node254</title>
<path fill="none" stroke="midnightblue" d="M217.352,-494.664C230.316,-469.089 259.547,-417.531 298,-387 299.6,-385.729 301.277,-384.516 303.011,-383.359"/>
<polygon fill="midnightblue" stroke="midnightblue" points="305.221,-386.119 312.063,-378.029 301.67,-380.087 305.221,-386.119"/>
</g>
<!-- Node260 -->
<g id="node9" class="node"><title>Node260</title>
<g id="a_node9"><a xlink:href="namespaceregrid__edge__slopes.html#a32fc906bf14cfb859703b4a1a7c46a9c" target="_top" xlink:title=" ">
<polygon fill="white" stroke="black" points="303.5,-397 303.5,-427 410.5,-427 410.5,-397 303.5,-397"/>
<text text-anchor="start" x="311.5" y="-415" font-family="Helvetica,sans-Serif" font-size="10.00">regrid_edge_slopes</text>
<text text-anchor="middle" x="357" y="-404" font-family="Helvetica,sans-Serif" font-size="10.00">::edge_slopes_implicit_h5</text>
</a>
</g>
</g>
<!-- Node253&#45;&gt;Node260 -->
<g id="edge8" class="edge"><title>Node253&#45;&gt;Node260</title>
<path fill="none" stroke="midnightblue" d="M225.086,-494.782C241.773,-478.583 270.019,-452.993 298,-436 300.489,-434.489 303.09,-433.031 305.752,-431.633"/>
<polygon fill="midnightblue" stroke="midnightblue" points="307.531,-434.659 314.97,-427.115 304.45,-428.374 307.531,-434.659"/>
</g>
<!-- Node261 -->
<g id="node10" class="node"><title>Node261</title>
<g id="a_node10"><a xlink:href="namespaceregrid__edge__values.html#a2c2460b31b6de501eed3cb7db07a4be5" target="_top" xlink:title=" ">
<polygon fill="white" stroke="black" points="303.5,-544 303.5,-574 410.5,-574 410.5,-544 303.5,-544"/>
<text text-anchor="start" x="311.5" y="-562" font-family="Helvetica,sans-Serif" font-size="10.00">regrid_edge_values</text>
<text text-anchor="middle" x="357" y="-551" font-family="Helvetica,sans-Serif" font-size="10.00">::edge_values_implicit_h4</text>
</a>
</g>
</g>
<!-- Node253&#45;&gt;Node261 -->
<g id="edge12" class="edge"><title>Node253&#45;&gt;Node261</title>
<path fill="none" stroke="midnightblue" d="M254.996,-525.101C269.636,-530.015 286.046,-535.522 301.314,-540.647"/>
<polygon fill="midnightblue" stroke="midnightblue" points="300.558,-544.085 311.152,-543.948 302.786,-537.448 300.558,-544.085"/>
</g>
<!-- Node262 -->
<g id="node11" class="node"><title>Node262</title>
<g id="a_node11"><a xlink:href="namespaceregrid__edge__values.html#a6c14843c556353d86f2efb4c7c74c9f5" target="_top" xlink:title=" ">
<polygon fill="white" stroke="black" points="303.5,-495 303.5,-525 410.5,-525 410.5,-495 303.5,-495"/>
<text text-anchor="start" x="311.5" y="-513" font-family="Helvetica,sans-Serif" font-size="10.00">regrid_edge_values</text>
<text text-anchor="middle" x="357" y="-502" font-family="Helvetica,sans-Serif" font-size="10.00">::edge_values_implicit_h6</text>
</a>
</g>
</g>
<!-- Node253&#45;&gt;Node262 -->
<g id="edge16" class="edge"><title>Node253&#45;&gt;Node262</title>
<path fill="none" stroke="midnightblue" d="M258.21,-510C269.389,-510 281.446,-510 293.15,-510"/>
<polygon fill="midnightblue" stroke="midnightblue" points="293.312,-513.5 303.312,-510 293.312,-506.5 293.312,-513.5"/>
</g>
<!-- Node253&#45;&gt;Node256 -->
<g id="edge20" class="edge"><title>Node253&#45;&gt;Node256</title>
<path fill="none" stroke="midnightblue" d="M211.081,-494.983C214.857,-454.511 231.156,-342.62 298,-289 391.416,-214.065 448.628,-278.109 564,-246 577.312,-242.295 591.405,-237.114 604.082,-231.953"/>
<polygon fill="midnightblue" stroke="midnightblue" points="605.585,-235.118 613.464,-228.035 602.887,-228.659 605.585,-235.118"/>
</g>
<!-- Node263 -->
<g id="node12" class="node"><title>Node263</title>
<g id="a_node12"><a xlink:href="namespacepcm__functions.html#a273c33619766b17e1bea2f9bbc1d5e1b" target="_top" xlink:title=" ">
<polygon fill="white" stroke="black" points="313.5,-299 313.5,-329 400.5,-329 400.5,-299 313.5,-299"/>
<text text-anchor="start" x="321.5" y="-317" font-family="Helvetica,sans-Serif" font-size="10.00">pcm_functions::pcm</text>
<text text-anchor="middle" x="357" y="-306" font-family="Helvetica,sans-Serif" font-size="10.00">_reconstruction</text>
</a>
</g>
</g>
<!-- Node253&#45;&gt;Node263 -->
<g id="edge21" class="edge"><title>Node253&#45;&gt;Node263</title>
<path fill="none" stroke="midnightblue" d="M213.848,-494.947C222.977,-462.088 248.938,-383.26 298,-338 299.962,-336.19 302.08,-334.506 304.306,-332.941"/>
<polygon fill="midnightblue" stroke="midnightblue" points="306.584,-335.654 313.325,-327.48 302.958,-329.666 306.584,-335.654"/>
</g>
<!-- Node264 -->
<g id="node13" class="node"><title>Node264</title>
<g id="a_node13"><a xlink:href="namespaceplm__functions.html#a66dd52e70d72fb5830f9c4fb16efb2e8" target="_top" xlink:title=" ">
<polygon fill="white" stroke="black" points="304.5,-691 304.5,-721 409.5,-721 409.5,-691 304.5,-691"/>
<text text-anchor="start" x="312.5" y="-709" font-family="Helvetica,sans-Serif" font-size="10.00">plm_functions::plm</text>
<text text-anchor="middle" x="357" y="-698" font-family="Helvetica,sans-Serif" font-size="10.00">_boundary_extrapolation</text>
</a>
</g>
</g>
<!-- Node253&#45;&gt;Node264 -->
<g id="edge22" class="edge"><title>Node253&#45;&gt;Node264</title>
<path fill="none" stroke="midnightblue" d="M214.064,-525.407C223.465,-558.261 249.686,-635.878 298,-681 299.66,-682.551 301.432,-684.014 303.286,-685.394"/>
<polygon fill="midnightblue" stroke="midnightblue" points="301.551,-688.44 311.851,-690.924 305.348,-682.56 301.551,-688.44"/>
</g>
<!-- Node265 -->
<g id="node14" class="node"><title>Node265</title>
<g id="a_node14"><a xlink:href="namespaceplm__functions.html#abf6acfcb1bef51f0c1f8682de53782c4" target="_top" xlink:title=" ">
<polygon fill="white" stroke="black" points="315.5,-642 315.5,-672 398.5,-672 398.5,-642 315.5,-642"/>
<text text-anchor="start" x="323.5" y="-660" font-family="Helvetica,sans-Serif" font-size="10.00">plm_functions::plm</text>
<text text-anchor="middle" x="357" y="-649" font-family="Helvetica,sans-Serif" font-size="10.00">_reconstruction</text>
</a>
</g>
</g>
<!-- Node253&#45;&gt;Node265 -->
<g id="edge23" class="edge"><title>Node253&#45;&gt;Node265</title>
<path fill="none" stroke="midnightblue" d="M217.433,-525.148C230.516,-550.422 259.917,-601.427 298,-632 300.689,-634.159 303.594,-636.165 306.619,-638.023"/>
<polygon fill="midnightblue" stroke="midnightblue" points="304.944,-641.096 315.389,-642.87 308.33,-634.969 304.944,-641.096"/>
</g>
<!-- Node266 -->
<g id="node15" class="node"><title>Node266</title>
<g id="a_node15"><a xlink:href="namespaceppm__functions.html#aaf88d77ece3a30843c730fd2d57c517f" target="_top" xlink:title=" ">
<polygon fill="white" stroke="black" points="304.5,-593 304.5,-623 409.5,-623 409.5,-593 304.5,-593"/>
<text text-anchor="start" x="312.5" y="-611" font-family="Helvetica,sans-Serif" font-size="10.00">ppm_functions::ppm</text>
<text text-anchor="middle" x="357" y="-600" font-family="Helvetica,sans-Serif" font-size="10.00">_boundary_extrapolation</text>
</a>
</g>
</g>
<!-- Node253&#45;&gt;Node266 -->
<g id="edge24" class="edge"><title>Node253&#45;&gt;Node266</title>
<path fill="none" stroke="midnightblue" d="M225.48,-525.21C242.279,-541.123 270.411,-566.095 298,-583 301.129,-584.917 304.431,-586.761 307.808,-588.517"/>
<polygon fill="midnightblue" stroke="midnightblue" points="306.333,-591.691 316.852,-592.951 309.414,-585.406 306.333,-591.691"/>
</g>
<!-- Node267 -->
<g id="node16" class="node"><title>Node267</title>
<g id="a_node16"><a xlink:href="namespaceppm__functions.html#a97e2144c7499aacd90858788f1312432" target="_top" xlink:title="Builds quadratic polynomials coefficients from cell mean and edge values.">
<polygon fill="white" stroke="black" points="312.5,-789 312.5,-819 401.5,-819 401.5,-789 312.5,-789"/>
<text text-anchor="start" x="320.5" y="-807" font-family="Helvetica,sans-Serif" font-size="10.00">ppm_functions::ppm</text>
<text text-anchor="middle" x="357" y="-796" font-family="Helvetica,sans-Serif" font-size="10.00">_reconstruction</text>
</a>
</g>
</g>
<!-- Node253&#45;&gt;Node267 -->
<g id="edge25" class="edge"><title>Node253&#45;&gt;Node267</title>
<path fill="none" stroke="midnightblue" d="M210.742,-525.233C213.71,-569.972 228.257,-702.618 298,-779 299.779,-780.948 301.736,-782.751 303.822,-784.419"/>
<polygon fill="midnightblue" stroke="midnightblue" points="302.153,-787.515 312.402,-790.202 306.066,-781.711 302.153,-787.515"/>
</g>
<!-- Node271 -->
<g id="node20" class="node"><title>Node271</title>
<g id="a_node20"><a xlink:href="namespacepqm__functions.html#ae2c3bd1b82cddbe1bbb0e93e83d93e48" target="_top" xlink:title=" ">
<polygon fill="white" stroke="black" points="298,-446 298,-476 416,-476 416,-446 298,-446"/>
<text text-anchor="start" x="306" y="-464" font-family="Helvetica,sans-Serif" font-size="10.00">pqm_functions::pqm</text>
<text text-anchor="middle" x="357" y="-453" font-family="Helvetica,sans-Serif" font-size="10.00">_boundary_extrapolation_v1</text>
</a>
</g>
</g>
<!-- Node253&#45;&gt;Node271 -->
<g id="edge29" class="edge"><title>Node253&#45;&gt;Node271</title>
<path fill="none" stroke="midnightblue" d="M254.996,-494.899C269.636,-489.985 286.046,-484.478 301.314,-479.353"/>
<polygon fill="midnightblue" stroke="midnightblue" points="302.786,-482.552 311.152,-476.052 300.558,-475.915 302.786,-482.552"/>
</g>
<!-- Node272 -->
<g id="node21" class="node"><title>Node272</title>
<g id="a_node21"><a xlink:href="namespacepqm__functions.html#ada7e1a8d9d70b5b78b5e2dfddb5ffa43" target="_top" xlink:title=" ">
<polygon fill="white" stroke="black" points="312.5,-740 312.5,-770 401.5,-770 401.5,-740 312.5,-740"/>
<text text-anchor="start" x="320.5" y="-758" font-family="Helvetica,sans-Serif" font-size="10.00">pqm_functions::pqm</text>
<text text-anchor="middle" x="357" y="-747" font-family="Helvetica,sans-Serif" font-size="10.00">_reconstruction</text>
</a>
</g>
</g>
<!-- Node253&#45;&gt;Node272 -->
<g id="edge30" class="edge"><title>Node253&#45;&gt;Node272</title>
<path fill="none" stroke="midnightblue" d="M212.037,-525.235C218.025,-564.342 239.02,-669.438 298,-730 299.807,-731.856 301.775,-733.582 303.858,-735.187"/>
<polygon fill="midnightblue" stroke="midnightblue" points="302.093,-738.215 312.37,-740.791 305.942,-732.368 302.093,-738.215"/>
</g>
<!-- Node255 -->
<g id="node4" class="node"><title>Node255</title>
<g id="a_node4"><a xlink:href="namespaceregrid__solvers.html#a8130a338b59de62b00f68da4204568ad" target="_top" xlink:title=" ">
<polygon fill="white" stroke="black" points="463.5,-446 463.5,-476 552.5,-476 552.5,-446 463.5,-446"/>
<text text-anchor="start" x="471.5" y="-464" font-family="Helvetica,sans-Serif" font-size="10.00">regrid_solvers::solve</text>
<text text-anchor="middle" x="508" y="-453" font-family="Helvetica,sans-Serif" font-size="10.00">_linear_system</text>
</a>
</g>
</g>
<!-- Node254&#45;&gt;Node255 -->
<g id="edge3" class="edge"><title>Node254&#45;&gt;Node255</title>
<path fill="none" stroke="midnightblue" d="M401.896,-378.082C406.886,-380.675 411.711,-383.639 416,-387 437.269,-403.67 431.019,-418.968 452,-436 454.031,-437.649 456.188,-439.213 458.427,-440.694"/>
<polygon fill="midnightblue" stroke="midnightblue" points="456.992,-443.913 467.38,-445.997 460.56,-437.89 456.992,-443.913"/>
</g>
<!-- Node258 -->
<g id="node7" class="node"><title>Node258</title>
<g id="a_node7"><a xlink:href="namespacepolynomial__functions.html#aed77465c5ca9937dab06fdb5f94eba39" target="_top" xlink:title=" ">
<polygon fill="white" stroke="black" points="458.5,-495 458.5,-525 557.5,-525 557.5,-495 458.5,-495"/>
<text text-anchor="start" x="466.5" y="-513" font-family="Helvetica,sans-Serif" font-size="10.00">polynomial_functions</text>
<text text-anchor="middle" x="508" y="-502" font-family="Helvetica,sans-Serif" font-size="10.00">::evaluation_polynomial</text>
</a>
</g>
</g>
<!-- Node254&#45;&gt;Node258 -->
<g id="edge6" class="edge"><title>Node254&#45;&gt;Node258</title>
<path fill="none" stroke="midnightblue" d="M404.615,-378.002C408.785,-380.564 412.678,-383.542 416,-387 448.143,-420.465 420.435,-450.989 452,-485 453.338,-486.442 454.775,-487.806 456.289,-489.097"/>
<polygon fill="midnightblue" stroke="midnightblue" points="454.248,-491.94 464.405,-494.956 458.345,-486.265 454.248,-491.94"/>
</g>
<!-- Node259 -->
<g id="node8" class="node"><title>Node259</title>
<g id="a_node8"><a xlink:href="namespaceregrid__solvers.html#a0d5c3cff8f31429b0a2c6d267e8b345d" target="_top" xlink:title=" ">
<polygon fill="white" stroke="black" points="463.5,-397 463.5,-427 552.5,-427 552.5,-397 463.5,-397"/>
<text text-anchor="start" x="471.5" y="-415" font-family="Helvetica,sans-Serif" font-size="10.00">regrid_solvers::solve</text>
<text text-anchor="middle" x="508" y="-404" font-family="Helvetica,sans-Serif" font-size="10.00">_tridiagonal_system</text>
</a>
</g>
</g>
<!-- Node254&#45;&gt;Node259 -->
<g id="edge7" class="edge"><title>Node254&#45;&gt;Node259</title>
<path fill="none" stroke="midnightblue" d="M403.921,-378.101C419.57,-383.248 437.202,-389.046 453.4,-394.373"/>
<polygon fill="midnightblue" stroke="midnightblue" points="452.677,-397.82 463.27,-397.619 454.864,-391.17 452.677,-397.82"/>
</g>
<!-- Node255&#45;&gt;Node256 -->
<g id="edge4" class="edge"><title>Node255&#45;&gt;Node256</title>
<path fill="none" stroke="midnightblue" d="M551.594,-445.955C556.159,-443.139 560.432,-439.843 564,-436 617.41,-378.469 636.727,-283.237 643.123,-238.151"/>
<polygon fill="midnightblue" stroke="midnightblue" points="646.615,-238.443 644.454,-228.071 639.675,-237.526 646.615,-238.443"/>
</g>
<!-- Node257 -->
<g id="node6" class="node"><title>Node257</title>
<g id="a_node6"><a xlink:href="namespacemom__error__handler.html#ad5f00a53059c72fe2332d1436c80ca71" target="_top" xlink:title=" ">
<polygon fill="white" stroke="black" points="730.5,-198 730.5,-228 823.5,-228 823.5,-198 730.5,-198"/>
<text text-anchor="start" x="738.5" y="-216" font-family="Helvetica,sans-Serif" font-size="10.00">mom_error_handler::</text>
<text text-anchor="middle" x="777" y="-205" font-family="Helvetica,sans-Serif" font-size="10.00">is_root_pe</text>
</a>
</g>
</g>
<!-- Node256&#45;&gt;Node257 -->
<g id="edge5" class="edge"><title>Node256&#45;&gt;Node257</title>
<path fill="none" stroke="midnightblue" d="M693.849,-213C702.408,-213 711.439,-213 720.258,-213"/>
<polygon fill="midnightblue" stroke="midnightblue" points="720.471,-216.5 730.471,-213 720.471,-209.5 720.471,-216.5"/>
</g>
<!-- Node260&#45;&gt;Node255 -->
<g id="edge9" class="edge"><title>Node260&#45;&gt;Node255</title>
<path fill="none" stroke="midnightblue" d="M403.921,-427.101C419.57,-432.248 437.202,-438.046 453.4,-443.373"/>
<polygon fill="midnightblue" stroke="midnightblue" points="452.677,-446.82 463.27,-446.619 454.864,-440.17 452.677,-446.82"/>
</g>
<!-- Node260&#45;&gt;Node258 -->
<g id="edge10" class="edge"><title>Node260&#45;&gt;Node258</title>
<path fill="none" stroke="midnightblue" d="M401.896,-427.082C406.886,-429.675 411.711,-432.639 416,-436 437.269,-452.67 431.019,-467.968 452,-485 454.031,-486.649 456.188,-488.213 458.427,-489.694"/>
<polygon fill="midnightblue" stroke="midnightblue" points="456.992,-492.913 467.38,-494.997 460.56,-486.89 456.992,-492.913"/>
</g>
<!-- Node260&#45;&gt;Node259 -->
<g id="edge11" class="edge"><title>Node260&#45;&gt;Node259</title>
<path fill="none" stroke="midnightblue" d="M410.532,-412C424.286,-412 439.137,-412 452.967,-412"/>
<polygon fill="midnightblue" stroke="midnightblue" points="453.31,-415.5 463.31,-412 453.31,-408.5 453.31,-415.5"/>
</g>
<!-- Node261&#45;&gt;Node255 -->
<g id="edge13" class="edge"><title>Node261&#45;&gt;Node255</title>
<path fill="none" stroke="midnightblue" d="M400.391,-543.91C405.912,-541.05 411.281,-537.755 416,-534 437.147,-517.175 430.891,-501.872 452,-485 453.556,-483.756 455.187,-482.564 456.873,-481.423"/>
<polygon fill="midnightblue" stroke="midnightblue" points="458.895,-484.291 465.663,-476.14 455.289,-478.291 458.895,-484.291"/>
</g>
<!-- Node261&#45;&gt;Node258 -->
<g id="edge14" class="edge"><title>Node261&#45;&gt;Node258</title>
<path fill="none" stroke="midnightblue" d="M403.921,-543.899C419.003,-538.938 435.928,-533.373 451.636,-528.207"/>
<polygon fill="midnightblue" stroke="midnightblue" points="452.825,-531.5 461.231,-525.052 450.638,-524.851 452.825,-531.5"/>
</g>
<!-- Node261&#45;&gt;Node259 -->
<g id="edge15" class="edge"><title>Node261&#45;&gt;Node259</title>
<path fill="none" stroke="midnightblue" d="M403.482,-543.877C408.082,-541.09 412.382,-537.822 416,-534 447.897,-500.301 420.178,-469.771 452,-436 453.027,-434.91 454.112,-433.867 455.246,-432.869"/>
<polygon fill="midnightblue" stroke="midnightblue" points="457.352,-435.664 463.324,-426.913 453.198,-430.03 457.352,-435.664"/>
</g>
<!-- Node262&#45;&gt;Node255 -->
<g id="edge17" class="edge"><title>Node262&#45;&gt;Node255</title>
<path fill="none" stroke="midnightblue" d="M403.921,-494.899C419.57,-489.752 437.202,-483.954 453.4,-478.627"/>
<polygon fill="midnightblue" stroke="midnightblue" points="454.864,-481.83 463.27,-475.381 452.677,-475.18 454.864,-481.83"/>
</g>
<!-- Node262&#45;&gt;Node258 -->
<g id="edge18" class="edge"><title>Node262&#45;&gt;Node258</title>
<path fill="none" stroke="midnightblue" d="M410.532,-510C422.707,-510 435.742,-510 448.167,-510"/>
<polygon fill="midnightblue" stroke="midnightblue" points="448.429,-513.5 458.429,-510 448.429,-506.5 448.429,-513.5"/>
</g>
<!-- Node262&#45;&gt;Node259 -->
<g id="edge19" class="edge"><title>Node262&#45;&gt;Node259</title>
<path fill="none" stroke="midnightblue" d="M400.391,-494.91C405.912,-492.05 411.281,-488.755 416,-485 437.147,-468.175 430.891,-452.872 452,-436 453.556,-434.756 455.187,-433.564 456.873,-432.423"/>
<polygon fill="midnightblue" stroke="midnightblue" points="458.895,-435.291 465.663,-427.14 455.289,-429.291 458.895,-435.291"/>
</g>
<!-- Node268 -->
<g id="node17" class="node"><title>Node268</title>
<g id="a_node17"><a xlink:href="namespaceppm__functions.html#a89920c90b84f0b241c5a6d65fe2870b9" target="_top" xlink:title="Adjusts edge values using the standard PPM limiter (Colella &amp; Woodward, JCP 1984) after first checkin...">
<polygon fill="white" stroke="black" points="463.5,-789 463.5,-819 552.5,-819 552.5,-789 463.5,-789"/>
<text text-anchor="start" x="471.5" y="-807" font-family="Helvetica,sans-Serif" font-size="10.00">ppm_functions::ppm</text>
<text text-anchor="middle" x="508" y="-796" font-family="Helvetica,sans-Serif" font-size="10.00">_limiter_standard</text>
</a>
</g>
</g>
<!-- Node267&#45;&gt;Node268 -->
<g id="edge26" class="edge"><title>Node267&#45;&gt;Node268</title>
<path fill="none" stroke="midnightblue" d="M401.899,-804C417.965,-804 436.329,-804 453.164,-804"/>
<polygon fill="midnightblue" stroke="midnightblue" points="453.415,-807.5 463.415,-804 453.415,-800.5 453.415,-807.5"/>
</g>
<!-- Node269 -->
<g id="node18" class="node"><title>Node269</title>
<g id="a_node18"><a xlink:href="namespaceregrid__edge__values.html#aa204fe78ee22cae62f2b7f1bc76151a9" target="_top" xlink:title=" ">
<polygon fill="white" stroke="black" points="600.5,-737 600.5,-767 693.5,-767 693.5,-737 600.5,-737"/>
<text text-anchor="start" x="608.5" y="-755" font-family="Helvetica,sans-Serif" font-size="10.00">regrid_edge_values</text>
<text text-anchor="middle" x="647" y="-744" font-family="Helvetica,sans-Serif" font-size="10.00">::bound_edge_values</text>
</a>
</g>
</g>
<!-- Node268&#45;&gt;Node269 -->
<g id="edge27" class="edge"><title>Node268&#45;&gt;Node269</title>
<path fill="none" stroke="midnightblue" d="M548.626,-788.959C563.678,-783.246 581.007,-776.669 596.835,-770.661"/>
<polygon fill="midnightblue" stroke="midnightblue" points="598.356,-773.828 606.463,-767.007 595.872,-767.283 598.356,-773.828"/>
</g>
<!-- Node270 -->
<g id="node19" class="node"><title>Node270</title>
<g id="a_node19"><a xlink:href="namespaceregrid__edge__values.html#acbdacbbf7212e538bb52a9729fc949a7" target="_top" xlink:title=" ">
<polygon fill="white" stroke="black" points="600,-786.5 600,-827.5 694,-827.5 694,-786.5 600,-786.5"/>
<text text-anchor="start" x="608" y="-815.5" font-family="Helvetica,sans-Serif" font-size="10.00">regrid_edge_values</text>
<text text-anchor="start" x="608" y="-804.5" font-family="Helvetica,sans-Serif" font-size="10.00">::check_discontinuous</text>
<text text-anchor="middle" x="647" y="-793.5" font-family="Helvetica,sans-Serif" font-size="10.00">_edge_values</text>
</a>
</g>
</g>
<!-- Node268&#45;&gt;Node270 -->
<g id="edge28" class="edge"><title>Node268&#45;&gt;Node270</title>
<path fill="none" stroke="midnightblue" d="M552.724,-804.957C564.471,-805.215 577.34,-805.497 589.667,-805.766"/>
<polygon fill="midnightblue" stroke="midnightblue" points="589.783,-809.27 599.857,-805.99 589.936,-802.271 589.783,-809.27"/>
</g>
<!-- Node273 -->
<g id="node22" class="node"><title>Node273</title>
<g id="a_node22"><a xlink:href="namespacepqm__functions.html#a0ce0d64922453de1312adec7b8746544" target="_top" xlink:title=" ">
<polygon fill="white" stroke="black" points="463.5,-740 463.5,-770 552.5,-770 552.5,-740 463.5,-740"/>
<text text-anchor="start" x="471.5" y="-758" font-family="Helvetica,sans-Serif" font-size="10.00">pqm_functions::pqm</text>
<text text-anchor="middle" x="508" y="-747" font-family="Helvetica,sans-Serif" font-size="10.00">_limiter</text>
</a>
</g>
</g>
<!-- Node272&#45;&gt;Node273 -->
<g id="edge31" class="edge"><title>Node272&#45;&gt;Node273</title>
<path fill="none" stroke="midnightblue" d="M401.899,-755C417.965,-755 436.329,-755 453.164,-755"/>
<polygon fill="midnightblue" stroke="midnightblue" points="453.415,-758.5 463.415,-755 453.415,-751.5 453.415,-758.5"/>
</g>
<!-- Node273&#45;&gt;Node269 -->
<g id="edge32" class="edge"><title>Node273&#45;&gt;Node269</title>
<path fill="none" stroke="midnightblue" d="M552.724,-754.043C564.593,-753.783 577.608,-753.498 590.052,-753.225"/>
<polygon fill="midnightblue" stroke="midnightblue" points="590.411,-756.718 600.332,-753 590.258,-749.72 590.411,-756.718"/>
</g>
<!-- Node273&#45;&gt;Node270 -->
<g id="edge33" class="edge"><title>Node273&#45;&gt;Node270</title>
<path fill="none" stroke="midnightblue" d="M548.626,-770.041C561.596,-774.964 576.257,-780.528 590.191,-785.817"/>
<polygon fill="midnightblue" stroke="midnightblue" points="589.101,-789.147 599.693,-789.423 591.586,-782.603 589.101,-789.147"/>
</g>
<!-- Node274&#45;&gt;Node256 -->
<g id="edge35" class="edge"><title>Node274&#45;&gt;Node256</title>
<path fill="none" stroke="midnightblue" d="M260.015,-177.589C342.015,-185.111 504.473,-200.016 590.132,-207.874"/>
<polygon fill="midnightblue" stroke="midnightblue" points="589.909,-211.369 600.187,-208.797 590.548,-204.398 589.909,-211.369"/>
</g>
<!-- Node278 -->
<g id="node27" class="node"><title>Node278</title>
<g id="a_node27"><a xlink:href="namespacemom__remapping.html#ac97371127053406c84be732a19eb6f9d" target="_top" xlink:title="Returns the average value of a reconstruction within a single source cell, i0, between the non&#45;dimens...">
<polygon fill="white" stroke="black" points="452.5,-135 452.5,-165 563.5,-165 563.5,-135 452.5,-135"/>
<text text-anchor="start" x="460.5" y="-153" font-family="Helvetica,sans-Serif" font-size="10.00">mom_remapping::average</text>
<text text-anchor="middle" x="508" y="-142" font-family="Helvetica,sans-Serif" font-size="10.00">_value_ppoly</text>
</a>
</g>
</g>
<!-- Node277&#45;&gt;Node278 -->
<g id="edge40" class="edge"><title>Node277&#45;&gt;Node278</title>
<path fill="none" stroke="midnightblue" d="M261.619,-116.43C273.557,-118.319 286.214,-120.273 298,-122 346.354,-129.084 401.11,-136.394 442.443,-141.768"/>
<polygon fill="midnightblue" stroke="midnightblue" points="442.015,-145.241 452.382,-143.056 442.915,-138.299 442.015,-145.241"/>
</g>
<!-- Node277&#45;&gt;Node275 -->
<g id="edge42" class="edge"><title>Node277&#45;&gt;Node275</title>
<path fill="none" stroke="midnightblue" d="M259.837,-92.9808C271.569,-89.4448 284.193,-85.6405 296.31,-81.9888"/>
<polygon fill="midnightblue" stroke="midnightblue" points="297.328,-85.3376 305.892,-79.1009 295.308,-78.6354 297.328,-85.3376"/>
</g>
<!-- Node277&#45;&gt;Node276 -->
<g id="edge43" class="edge"><title>Node277&#45;&gt;Node276</title>
<path fill="none" stroke="midnightblue" d="M226.528,-92.7775C243.508,-77.7035 271.178,-54.6671 298,-39 300.776,-37.3786 303.682,-35.8121 306.652,-34.3096"/>
<polygon fill="midnightblue" stroke="midnightblue" points="308.165,-37.4656 315.685,-30.0022 305.152,-31.1472 308.165,-37.4656"/>
</g>
<!-- Node277&#45;&gt;Node256 -->
<g id="edge44" class="edge"><title>Node277&#45;&gt;Node256</title>
<path fill="none" stroke="midnightblue" d="M261.8,-98.808C333.427,-88.6153 465.066,-79.1069 564,-125 593.505,-138.686 617.46,-168.292 631.698,-189.381"/>
<polygon fill="midnightblue" stroke="midnightblue" points="628.805,-191.353 637.193,-197.826 634.673,-187.535 628.805,-191.353"/>
</g>
<!-- Node278&#45;&gt;Node256 -->
<g id="edge41" class="edge"><title>Node278&#45;&gt;Node256</title>
<path fill="none" stroke="midnightblue" d="M541.815,-165.09C560.403,-173.638 583.855,-184.422 603.799,-193.594"/>
<polygon fill="midnightblue" stroke="midnightblue" points="602.43,-196.817 612.978,-197.815 605.355,-190.457 602.43,-196.817"/>
</g>
</g>
</svg>
        <g id="navigator" transform="translate(0 0)" fill="#404254">
                <rect fill="#f2f5e9" fill-opacity="0.5" stroke="#606060" stroke-width=".5" x="0" y="0" width="60" height="60"/>
                <use id="zoomplus" xlink:href="#zoomPlus" x="17" y="9" onmousedown="handleZoom(evt,'in')"/>
                <use id="zoomminus" xlink:href="#zoomMin" x="42" y="9" onmousedown="handleZoom(evt,'out')"/>
                <use id="reset" xlink:href="#resetDef" x="30" y="36" onmousedown="handleReset()"/>
                <g id="arrowUp" xlink:href="#dirArrow" transform="translate(30 24)" onmousedown="handlePan(0,-1)">
                  <use xlink:href="#rim" fill="#404040">
                        <set attributeName="fill" to="#808080" begin="arrowUp.mouseover" end="arrowUp.mouseout"/>
                  </use>
                  <path fill="none" stroke="white" stroke-width="1.5" d="M0,-3.0v7 M-2.5,-0.5L0,-3.0L2.5,-0.5"/>
                </g>
                <g id="arrowRight" xlink:href="#dirArrow" transform="rotate(90) translate(36 -43)" onmousedown="handlePan(1,0)">
                  <use xlink:href="#rim" fill="#404040">
                        <set attributeName="fill" to="#808080" begin="arrowRight.mouseover" end="arrowRight.mouseout"/>
                  </use>
                  <path fill="none" stroke="white" stroke-width="1.5" d="M0,-3.0v7 M-2.5,-0.5L0,-3.0L2.5,-0.5"/>
                </g>
                <g id="arrowDown" xlink:href="#dirArrow" transform="rotate(180) translate(-30 -48)" onmousedown="handlePan(0,1)">
                  <use xlink:href="#rim" fill="#404040">
                        <set attributeName="fill" to="#808080" begin="arrowDown.mouseover" end="arrowDown.mouseout"/>
                  </use>
                  <path fill="none" stroke="white" stroke-width="1.5" d="M0,-3.0v7 M-2.5,-0.5L0,-3.0L2.5,-0.5"/>
                </g>
                <g id="arrowLeft" xlink:href="#dirArrow" transform="rotate(270) translate(-36 17)" onmousedown="handlePan(-1,0)">
                  <use xlink:href="#rim" fill="#404040">
                        <set attributeName="fill" to="#808080" begin="arrowLeft.mouseover" end="arrowLeft.mouseout"/>
                  </use>
                  <path fill="none" stroke="white" stroke-width="1.5" d="M0,-3.0v7 M-2.5,-0.5L0,-3.0L2.5,-0.5"/>
                </g>
        </g>
        <svg viewBox="0 0 15 15" width="100%" height="30px" preserveAspectRatio="xMaxYMin meet">
         <g id="arrow_out" transform="scale(0.3 0.3)">
          <a xlink:href="namespacemom__remapping_a8b967872b8db2ac7d538991f7f255e56_cgraph_org.svg" target="_base">
           <rect id="button" ry="5" rx="5" y="6" x="6" height="38" width="38"
                fill="#f2f5e9" fill-opacity="0.5" stroke="#606060" stroke-width="1.0"/>
           <path id="arrow"
             d="M 11.500037,31.436501 C 11.940474,20.09759 22.043105,11.32322 32.158766,21.979434 L 37.068811,17.246167 C 37.068811,17.246167 37.088388,32 37.088388,32 L 22.160133,31.978069 C 22.160133,31.978069 26.997745,27.140456 26.997745,27.140456 C 18.528582,18.264221 13.291696,25.230495 11.500037,31.436501 z"
             style="fill:#404040;"/>
          </a>
         </g>
        </svg>
</svg>
