<?xml version="1.0" encoding="UTF-8" standalone="no"?>
<!DOCTYPE svg PUBLIC "-//W3C//DTD SVG 1.1//EN"
 "http://www.w3.org/Graphics/SVG/1.1/DTD/svg11.dtd">
<!-- Generated by graphviz version 2.30.1 (20170916.1124)
 -->
<!-- Title: mom_ice_shelf::ice_shelf_save_restart Pages: 1 -->
<svg width="390pt" height="165pt"
 viewBox="0.00 0.00 390.00 165.00" xmlns="http://www.w3.org/2000/svg" xmlns:xlink="http://www.w3.org/1999/xlink">
<g id="graph0" class="graph" transform="scale(1 1) rotate(0) translate(4 161)">
<title>mom_ice_shelf::ice_shelf_save_restart</title>
<polygon fill="white" stroke="white" points="-4,5 -4,-161 387,-161 387,5 -4,5"/>
<!-- Node183 -->
<g id="node1" class="node"><title>Node183</title>
<g id="a_node1"><a xlink:title=" ">
<polygon fill="#bfbfbf" stroke="black" points="296,-63 296,-93 382,-93 382,-63 296,-63"/>
<text text-anchor="start" x="304" y="-81" font-family="Helvetica,sans-Serif" font-size="10.00">mom_ice_shelf::ice</text>
<text text-anchor="middle" x="339" y="-70" font-family="Helvetica,sans-Serif" font-size="10.00">_shelf_save_restart</text>
</a>
</g>
</g>
<!-- Node184 -->
<g id="node2" class="node"><title>Node184</title>
<g id="a_node2"><a xlink:href="MOM__driver_8F90.html#a08fffeb2d8e8acbf9ed4609be6d258c6" target="_top" xlink:title=" ">
<polygon fill="white" stroke="black" points="176,-137.5 176,-156.5 232,-156.5 232,-137.5 176,-137.5"/>
<text text-anchor="middle" x="204" y="-144.5" font-family="Helvetica,sans-Serif" font-size="10.00">mom_main</text>
</a>
</g>
</g>
<!-- Node183&#45;&gt;Node184 -->
<g id="edge1" class="edge"><title>Node183&#45;&gt;Node184</title>
<path fill="none" stroke="midnightblue" d="M308.461,-98.6384C294.223,-108.037 276.656,-118.855 260,-127 251.146,-131.33 241.106,-135.25 232.049,-138.449"/>
<polygon fill="midnightblue" stroke="midnightblue" points="310.502,-101.484 316.857,-93.0063 306.603,-95.6703 310.502,-101.484"/>
</g>
<!-- Node185 -->
<g id="node3" class="node"><title>Node185</title>
<g id="a_node3"><a xlink:href="namespaceocean__model__mod.html#a908a47d286b0257e91a253272926dc3d" target="_top" xlink:title=" ">
<polygon fill="white" stroke="black" points="148.5,-88 148.5,-118 259.5,-118 259.5,-88 148.5,-88"/>
<text text-anchor="start" x="156.5" y="-106" font-family="Helvetica,sans-Serif" font-size="10.00">ocean_model_mod::ocean</text>
<text text-anchor="middle" x="204" y="-95" font-family="Helvetica,sans-Serif" font-size="10.00">_model_restart</text>
</a>
</g>
</g>
<!-- Node183&#45;&gt;Node185 -->
<g id="edge2" class="edge"><title>Node183&#45;&gt;Node185</title>
<path fill="none" stroke="midnightblue" d="M286.058,-87.7635C277.495,-89.3731 268.594,-91.0463 259.96,-92.6691"/>
<polygon fill="midnightblue" stroke="midnightblue" points="286.737,-91.1973 295.918,-85.9102 285.443,-84.3178 286.737,-91.1973"/>
</g>
<!-- Node186 -->
<g id="node4" class="node"><title>Node186</title>
<g id="a_node4"><a xlink:href="namespaceocean__model__mod.html#ad969c968b1133584b9dcf48d78f51c01" target="_top" xlink:title=" ">
<polygon fill="white" stroke="black" points="148.5,-39 148.5,-69 259.5,-69 259.5,-39 148.5,-39"/>
<text text-anchor="start" x="156.5" y="-57" font-family="Helvetica,sans-Serif" font-size="10.00">ocean_model_mod::ocean</text>
<text text-anchor="middle" x="204" y="-46" font-family="Helvetica,sans-Serif" font-size="10.00">_model_save_restart</text>
</a>
</g>
</g>
<!-- Node183&#45;&gt;Node186 -->
<g id="edge3" class="edge"><title>Node183&#45;&gt;Node186</title>
<path fill="none" stroke="midnightblue" d="M286.058,-68.627C277.495,-67.0818 268.594,-65.4756 259.96,-63.9176"/>
<polygon fill="midnightblue" stroke="midnightblue" points="285.455,-72.0747 295.918,-70.4062 286.698,-65.186 285.455,-72.0747"/>
</g>
<!-- Node188 -->
<g id="node6" class="node"><title>Node188</title>
<g id="a_node6"><a xlink:href="ice__shelf__driver_8F90.html#aec5bef92f0dad343f545cd8d62e378d8" target="_top" xlink:title=" ">
<polygon fill="white" stroke="black" points="176.5,-0.5 176.5,-19.5 231.5,-19.5 231.5,-0.5 176.5,-0.5"/>
<text text-anchor="middle" x="204" y="-7.5" font-family="Helvetica,sans-Serif" font-size="10.00">shelf_main</text>
</a>
</g>
</g>
<!-- Node183&#45;&gt;Node188 -->
<g id="edge5" class="edge"><title>Node183&#45;&gt;Node188</title>
<path fill="none" stroke="midnightblue" d="M307.395,-57.1681C293.332,-48.1241 276.206,-37.8327 260,-30 251.035,-25.6671 240.874,-21.7206 231.746,-18.4998"/>
<polygon fill="midnightblue" stroke="midnightblue" points="305.868,-60.3514 316.153,-62.8929 309.698,-54.492 305.868,-60.3514"/>
</g>
<!-- Node187 -->
<g id="node5" class="node"><title>Node187</title>
<g id="a_node5"><a xlink:href="namespaceocean__model__mod.html#a276959acb69502491d4b3a5a83e596b8" target="_top" xlink:title=" ">
<polygon fill="white" stroke="black" points="0.5,-39 0.5,-69 111.5,-69 111.5,-39 0.5,-39"/>
<text text-anchor="start" x="8.5" y="-57" font-family="Helvetica,sans-Serif" font-size="10.00">ocean_model_mod::ocean</text>
<text text-anchor="middle" x="56" y="-46" font-family="Helvetica,sans-Serif" font-size="10.00">_model_end</text>
</a>
</g>
</g>
<!-- Node186&#45;&gt;Node187 -->
<g id="edge4" class="edge"><title>Node186&#45;&gt;Node187</title>
<path fill="none" stroke="midnightblue" d="M137.981,-54C129.171,-54 120.204,-54 111.602,-54"/>
<polygon fill="midnightblue" stroke="midnightblue" points="138.22,-57.5001 148.22,-54 138.22,-50.5001 138.22,-57.5001"/>
</g>
</g>
</svg>
