<?xml version="1.0" encoding="UTF-8" standalone="no"?>
<!DOCTYPE svg PUBLIC "-//W3C//DTD SVG 1.1//EN"
 "http://www.w3.org/Graphics/SVG/1.1/DTD/svg11.dtd">
<!-- Generated by graphviz version 2.30.1 (20170916.1124)
 -->
<!-- Title: isomip_tracer::register_isomip_tracer Pages: 1 -->
<svg width="804pt" height="153pt"
 viewBox="0.00 0.00 804.00 153.00" xmlns="http://www.w3.org/2000/svg" xmlns:xlink="http://www.w3.org/1999/xlink">
<g id="graph0" class="graph" transform="scale(1 1) rotate(0) translate(4 149)">
<title>isomip_tracer::register_isomip_tracer</title>
<polygon fill="white" stroke="white" points="-4,5 -4,-149 801,-149 801,5 -4,5"/>
<!-- Node23 -->
<g id="node1" class="node"><title>Node23</title>
<g id="a_node1"><a xlink:title="This subroutine is used to register tracer fields.">
<polygon fill="#bfbfbf" stroke="black" points="0,-71 0,-101 96,-101 96,-71 0,-71"/>
<text text-anchor="start" x="8" y="-89" font-family="Helvetica,sans-Serif" font-size="10.00">isomip_tracer::register</text>
<text text-anchor="middle" x="48" y="-78" font-family="Helvetica,sans-Serif" font-size="10.00">_isomip_tracer</text>
</a>
</g>
</g>
<!-- Node24 -->
<g id="node2" class="node"><title>Node24</title>
<g id="a_node2"><a xlink:href="namespaceatmos__ocean__fluxes__mod.html#a413981652ffe0bccccdf5ff5c4c1d526" target="_top" xlink:title=" ">
<polygon fill="white" stroke="black" points="132.5,-115 132.5,-145 247.5,-145 247.5,-115 132.5,-115"/>
<text text-anchor="start" x="140.5" y="-133" font-family="Helvetica,sans-Serif" font-size="10.00">atmos_ocean_fluxes</text>
<text text-anchor="middle" x="190" y="-122" font-family="Helvetica,sans-Serif" font-size="10.00">_mod::aof_set_coupler_flux</text>
</a>
</g>
</g>
<!-- Node23&#45;&gt;Node24 -->
<g id="edge1" class="edge"><title>Node23&#45;&gt;Node24</title>
<path fill="none" stroke="midnightblue" d="M96.0074,-100.774C107.302,-104.324 119.496,-108.156 131.217,-111.84"/>
<polygon fill="midnightblue" stroke="midnightblue" points="130.333,-115.231 140.922,-114.89 132.432,-108.553 130.333,-115.231"/>
</g>
<!-- Node25 -->
<g id="node3" class="node"><title>Node25</title>
<g id="a_node3"><a xlink:href="namespacemom__error__handler.html#a460cfb79a06c29fc249952c2a3710d67" target="_top" xlink:title=" ">
<polygon fill="white" stroke="black" points="572.5,-52 572.5,-82 665.5,-82 665.5,-52 572.5,-52"/>
<text text-anchor="start" x="580.5" y="-70" font-family="Helvetica,sans-Serif" font-size="10.00">mom_error_handler::</text>
<text text-anchor="middle" x="619" y="-59" font-family="Helvetica,sans-Serif" font-size="10.00">mom_error</text>
</a>
</g>
</g>
<!-- Node23&#45;&gt;Node25 -->
<g id="edge2" class="edge"><title>Node23&#45;&gt;Node25</title>
<path fill="none" stroke="midnightblue" d="M96.0477,-84.429C200.36,-80.9458 450.637,-72.5886 562.428,-68.8557"/>
<polygon fill="midnightblue" stroke="midnightblue" points="562.607,-72.3517 572.484,-68.5199 562.373,-65.3556 562.607,-72.3517"/>
</g>
<!-- Node27 -->
<g id="node5" class="node"><title>Node27</title>
<g id="a_node5"><a xlink:href="namespacemom__io.html#a39c3ccc06bb1a6e446af2ee9010eba16" target="_top" xlink:title="Returns a vardesc type whose elements have been filled with the provided fields. The argument name is...">
<polygon fill="white" stroke="black" points="149,-38.5 149,-57.5 231,-57.5 231,-38.5 149,-38.5"/>
<text text-anchor="middle" x="190" y="-45.5" font-family="Helvetica,sans-Serif" font-size="10.00">mom_io::var_desc</text>
</a>
</g>
</g>
<!-- Node23&#45;&gt;Node27 -->
<g id="edge4" class="edge"><title>Node23&#45;&gt;Node27</title>
<path fill="none" stroke="midnightblue" d="M96.0074,-73.2408C111.516,-69.0313 128.719,-64.362 144.068,-60.1957"/>
<polygon fill="midnightblue" stroke="midnightblue" points="145.117,-63.5377 153.851,-57.5403 143.284,-56.7821 145.117,-63.5377"/>
</g>
<!-- Node26 -->
<g id="node4" class="node"><title>Node26</title>
<g id="a_node4"><a xlink:href="namespacemom__error__handler.html#ad5f00a53059c72fe2332d1436c80ca71" target="_top" xlink:title=" ">
<polygon fill="white" stroke="black" points="702.5,-52 702.5,-82 795.5,-82 795.5,-52 702.5,-52"/>
<text text-anchor="start" x="710.5" y="-70" font-family="Helvetica,sans-Serif" font-size="10.00">mom_error_handler::</text>
<text text-anchor="middle" x="749" y="-59" font-family="Helvetica,sans-Serif" font-size="10.00">is_root_pe</text>
</a>
</g>
</g>
<!-- Node25&#45;&gt;Node26 -->
<g id="edge3" class="edge"><title>Node25&#45;&gt;Node26</title>
<path fill="none" stroke="midnightblue" d="M665.849,-67C674.408,-67 683.439,-67 692.258,-67"/>
<polygon fill="midnightblue" stroke="midnightblue" points="692.471,-70.5001 702.471,-67 692.471,-63.5001 692.471,-70.5001"/>
</g>
<!-- Node28 -->
<g id="node6" class="node"><title>Node28</title>
<g id="a_node6"><a xlink:href="namespacemom__io.html#ac4bc408e8b38dbd669842753f26ebf88" target="_top" xlink:title="Copies a string.">
<polygon fill="white" stroke="black" points="426,-38.5 426,-57.5 536,-57.5 536,-38.5 426,-38.5"/>
<text text-anchor="middle" x="481" y="-45.5" font-family="Helvetica,sans-Serif" font-size="10.00">mom_io::safe_string_copy</text>
</a>
</g>
</g>
<!-- Node27&#45;&gt;Node28 -->
<g id="edge5" class="edge"><title>Node27&#45;&gt;Node28</title>
<path fill="none" stroke="midnightblue" d="M231.184,-48C278.929,-48 359.208,-48 415.639,-48"/>
<polygon fill="midnightblue" stroke="midnightblue" points="415.885,-51.5001 425.885,-48 415.885,-44.5001 415.885,-51.5001"/>
</g>
<!-- Node29 -->
<g id="node7" class="node"><title>Node29</title>
<g id="a_node7"><a xlink:href="namespacemom__io.html#af96b29cb8410d557e8e452b81586223b" target="_top" xlink:title="This routine modifies the named elements of a vardesc type. All arguments are optional,...">
<polygon fill="white" stroke="black" points="284.5,-0.5 284.5,-19.5 389.5,-19.5 389.5,-0.5 284.5,-0.5"/>
<text text-anchor="middle" x="337" y="-7.5" font-family="Helvetica,sans-Serif" font-size="10.00">mom_io::modify_vardesc</text>
</a>
</g>
</g>
<!-- Node27&#45;&gt;Node29 -->
<g id="edge7" class="edge"><title>Node27&#45;&gt;Node29</title>
<path fill="none" stroke="midnightblue" d="M227.59,-38.411C246.465,-33.4642 269.686,-27.3789 289.788,-22.1108"/>
<polygon fill="midnightblue" stroke="midnightblue" points="290.887,-25.4409 299.673,-19.5201 289.113,-18.6695 290.887,-25.4409"/>
</g>
<!-- Node28&#45;&gt;Node25 -->
<g id="edge6" class="edge"><title>Node28&#45;&gt;Node25</title>
<path fill="none" stroke="midnightblue" d="M536.142,-55.5639C544.767,-56.7689 553.702,-58.0172 562.361,-59.2269"/>
<polygon fill="midnightblue" stroke="midnightblue" points="561.976,-62.707 572.364,-60.6243 562.944,-55.7743 561.976,-62.707"/>
</g>
<!-- Node29&#45;&gt;Node28 -->
<g id="edge8" class="edge"><title>Node29&#45;&gt;Node28</title>
<path fill="none" stroke="midnightblue" d="M373.833,-19.589C392.163,-24.4944 414.678,-30.5196 434.25,-35.7571"/>
<polygon fill="midnightblue" stroke="midnightblue" points="433.614,-39.2099 444.179,-38.4141 435.424,-32.4479 433.614,-39.2099"/>
</g>
</g>
</svg>
