<?xml version="1.0" encoding="UTF-8" standalone="no"?>
<!DOCTYPE svg PUBLIC "-//W3C//DTD SVG 1.1//EN"
 "http://www.w3.org/Graphics/SVG/1.1/DTD/svg11.dtd">
<!-- Generated by graphviz version 2.30.1 (20170916.1124)
 -->
<!-- Title: scm_idealized_hurricane::scm_idealized_hurricane_wind_init Pages: 1 -->
<svg width="378pt" height="50pt"
 viewBox="0.00 0.00 378.00 50.00" xmlns="http://www.w3.org/2000/svg" xmlns:xlink="http://www.w3.org/1999/xlink">
<g id="graph0" class="graph" transform="scale(1 1) rotate(0) translate(4 46)">
<title>scm_idealized_hurricane::scm_idealized_hurricane_wind_init</title>
<polygon fill="white" stroke="white" points="-4,5 -4,-46 375,-46 375,5 -4,5"/>
<!-- Node9 -->
<g id="node1" class="node"><title>Node9</title>
<g id="a_node1"><a xlink:title="Initializes wind profile for the SCM idealized hurricane example.">
<polygon fill="#bfbfbf" stroke="black" points="0.5,-0.5 0.5,-41.5 109.5,-41.5 109.5,-0.5 0.5,-0.5"/>
<text text-anchor="start" x="8.5" y="-29.5" font-family="Helvetica,sans-Serif" font-size="10.00">scm_idealized_hurricane</text>
<text text-anchor="start" x="8.5" y="-18.5" font-family="Helvetica,sans-Serif" font-size="10.00">::scm_idealized_hurricane</text>
<text text-anchor="middle" x="55" y="-7.5" font-family="Helvetica,sans-Serif" font-size="10.00">_wind_init</text>
</a>
</g>
</g>
<!-- Node10 -->
<g id="node2" class="node"><title>Node10</title>
<g id="a_node2"><a xlink:href="namespacemom__error__handler.html#a460cfb79a06c29fc249952c2a3710d67" target="_top" xlink:title=" ">
<polygon fill="white" stroke="black" points="146.5,-6 146.5,-36 239.5,-36 239.5,-6 146.5,-6"/>
<text text-anchor="start" x="154.5" y="-24" font-family="Helvetica,sans-Serif" font-size="10.00">mom_error_handler::</text>
<text text-anchor="middle" x="193" y="-13" font-family="Helvetica,sans-Serif" font-size="10.00">mom_error</text>
</a>
</g>
</g>
<!-- Node9&#45;&gt;Node10 -->
<g id="edge1" class="edge"><title>Node9&#45;&gt;Node10</title>
<path fill="none" stroke="midnightblue" d="M109.751,-21C118.396,-21 127.363,-21 136.058,-21"/>
<polygon fill="midnightblue" stroke="midnightblue" points="136.105,-24.5001 146.105,-21 136.105,-17.5001 136.105,-24.5001"/>
</g>
<!-- Node11 -->
<g id="node3" class="node"><title>Node11</title>
<g id="a_node3"><a xlink:href="namespacemom__error__handler.html#ad5f00a53059c72fe2332d1436c80ca71" target="_top" xlink:title=" ">
<polygon fill="white" stroke="black" points="276.5,-6 276.5,-36 369.5,-36 369.5,-6 276.5,-6"/>
<text text-anchor="start" x="284.5" y="-24" font-family="Helvetica,sans-Serif" font-size="10.00">mom_error_handler::</text>
<text text-anchor="middle" x="323" y="-13" font-family="Helvetica,sans-Serif" font-size="10.00">is_root_pe</text>
</a>
</g>
</g>
<!-- Node10&#45;&gt;Node11 -->
<g id="edge2" class="edge"><title>Node10&#45;&gt;Node11</title>
<path fill="none" stroke="midnightblue" d="M239.849,-21C248.408,-21 257.439,-21 266.258,-21"/>
<polygon fill="midnightblue" stroke="midnightblue" points="266.471,-24.5001 276.471,-21 266.471,-17.5001 266.471,-24.5001"/>
</g>
</g>
</svg>
