<?xml version="1.0" encoding="UTF-8" standalone="no"?>
<!DOCTYPE svg PUBLIC "-//W3C//DTD SVG 1.1//EN"
 "http://www.w3.org/Graphics/SVG/1.1/DTD/svg11.dtd">
<!-- Generated by graphviz version 2.30.1 (20170916.1124)
 -->
<!-- Title: mom_surface_forcing::convert_iob_to_fluxes Pages: 1 -->
<svg width="518pt" height="185pt"
 viewBox="0.00 0.00 518.00 185.00" xmlns="http://www.w3.org/2000/svg" xmlns:xlink="http://www.w3.org/1999/xlink">
<g id="graph0" class="graph" transform="scale(1 1) rotate(0) translate(4 181)">
<title>mom_surface_forcing::convert_iob_to_fluxes</title>
<polygon fill="white" stroke="white" points="-4,5 -4,-181 515,-181 515,5 -4,5"/>
<!-- Node46 -->
<g id="node1" class="node"><title>Node46</title>
<g id="a_node1"><a xlink:title=" ">
<polygon fill="#bfbfbf" stroke="black" points="0,-73 0,-103 98,-103 98,-73 0,-73"/>
<text text-anchor="start" x="8" y="-91" font-family="Helvetica,sans-Serif" font-size="10.00">mom_surface_forcing</text>
<text text-anchor="middle" x="49" y="-80" font-family="Helvetica,sans-Serif" font-size="10.00">::convert_iob_to_fluxes</text>
</a>
</g>
</g>
<!-- Node47 -->
<g id="node2" class="node"><title>Node47</title>
<g id="a_node2"><a xlink:href="namespacemom__spatial__means.html#a7d9711f9d5508ec92838893d260a0eef" target="_top" xlink:title="Adjust 2d array such that area mean is zero without moving the zero contour.">
<polygon fill="white" stroke="black" points="134.5,-147 134.5,-177 249.5,-177 249.5,-147 134.5,-147"/>
<text text-anchor="start" x="142.5" y="-165" font-family="Helvetica,sans-Serif" font-size="10.00">mom_spatial_means::</text>
<text text-anchor="middle" x="192" y="-154" font-family="Helvetica,sans-Serif" font-size="10.00">adjust_area_mean_to_zero</text>
</a>
</g>
</g>
<!-- Node46&#45;&gt;Node47 -->
<g id="edge1" class="edge"><title>Node46&#45;&gt;Node47</title>
<path fill="none" stroke="midnightblue" d="M74.2144,-103.12C90.7779,-113.215 113.385,-126.51 134,-137 137.738,-138.902 141.653,-140.802 145.605,-142.657"/>
<polygon fill="midnightblue" stroke="midnightblue" points="144.279,-145.899 154.828,-146.882 147.194,-139.535 144.279,-145.899"/>
</g>
<!-- Node48 -->
<g id="node3" class="node"><title>Node48</title>
<g id="a_node3"><a xlink:href="namespacemom__forcing__type.html#a4258a1dc8dc6733eb8269d771efe837d" target="_top" xlink:title="Conditionally allocate fields within the forcing type.">
<polygon fill="white" stroke="black" points="135,-98 135,-128 249,-128 249,-98 135,-98"/>
<text text-anchor="start" x="143" y="-116" font-family="Helvetica,sans-Serif" font-size="10.00">mom_forcing_type::allocate</text>
<text text-anchor="middle" x="192" y="-105" font-family="Helvetica,sans-Serif" font-size="10.00">_forcing_type</text>
</a>
</g>
</g>
<!-- Node46&#45;&gt;Node48 -->
<g id="edge2" class="edge"><title>Node46&#45;&gt;Node48</title>
<path fill="none" stroke="midnightblue" d="M98.1298,-96.5337C106.709,-98.0547 115.78,-99.6632 124.759,-101.255"/>
<polygon fill="midnightblue" stroke="midnightblue" points="124.369,-104.741 134.827,-103.04 125.591,-97.8481 124.369,-104.741"/>
</g>
<!-- Node50 -->
<g id="node5" class="node"><title>Node50</title>
<g id="a_node5"><a xlink:href="namespacemom__surface__forcing.html#ac56650dc344e30236ba475006ed3841e" target="_top" xlink:title="Adds flux adjustments obtained via data_override Component name is &#39;OCN&#39; Available adjustments are:">
<polygon fill="white" stroke="black" points="140,-49 140,-79 244,-79 244,-49 140,-49"/>
<text text-anchor="start" x="148" y="-67" font-family="Helvetica,sans-Serif" font-size="10.00">mom_surface_forcing</text>
<text text-anchor="middle" x="192" y="-56" font-family="Helvetica,sans-Serif" font-size="10.00">::apply_flux_adjustments</text>
</a>
</g>
</g>
<!-- Node46&#45;&gt;Node50 -->
<g id="edge4" class="edge"><title>Node46&#45;&gt;Node50</title>
<path fill="none" stroke="midnightblue" d="M98.1298,-79.8077C108.287,-78.0789 119.135,-76.2324 129.702,-74.4337"/>
<polygon fill="midnightblue" stroke="midnightblue" points="130.445,-77.8577 139.716,-72.7293 129.27,-70.957 130.445,-77.8577"/>
</g>
<!-- Node53 -->
<g id="node8" class="node"><title>Node53</title>
<g id="a_node8"><a xlink:href="namespaceuser__revise__forcing.html#a82f69066f6a28c504bdfde8de1376c0e" target="_top" xlink:title="This subroutine sets the surface wind stresses.">
<polygon fill="white" stroke="black" points="149,-0 149,-30 235,-30 235,-0 149,-0"/>
<text text-anchor="start" x="157" y="-18" font-family="Helvetica,sans-Serif" font-size="10.00">user_revise_forcing</text>
<text text-anchor="middle" x="192" y="-7" font-family="Helvetica,sans-Serif" font-size="10.00">::user_alter_forcing</text>
</a>
</g>
</g>
<!-- Node46&#45;&gt;Node53 -->
<g id="edge7" class="edge"><title>Node46&#45;&gt;Node53</title>
<path fill="none" stroke="midnightblue" d="M74.9831,-72.7983C91.4931,-62.9841 113.745,-50.1931 134,-40 137.801,-38.0873 141.781,-36.1716 145.795,-34.299"/>
<polygon fill="midnightblue" stroke="midnightblue" points="147.509,-37.364 155.155,-30.0297 144.604,-30.9952 147.509,-37.364"/>
</g>
<!-- Node49 -->
<g id="node4" class="node"><title>Node49</title>
<g id="a_node4"><a xlink:href="MOM__forcing__type_8F90.html#aede7c3d8c91ec3e8a8a3b68824a5e9e8" target="_top" xlink:title="Allocates and zeroes&#45;out array.">
<polygon fill="white" stroke="black" points="311.5,-103.5 311.5,-122.5 354.5,-122.5 354.5,-103.5 311.5,-103.5"/>
<text text-anchor="middle" x="333" y="-110.5" font-family="Helvetica,sans-Serif" font-size="10.00">myalloc</text>
</a>
</g>
</g>
<!-- Node48&#45;&gt;Node49 -->
<g id="edge3" class="edge"><title>Node48&#45;&gt;Node49</title>
<path fill="none" stroke="midnightblue" d="M249.136,-113C266.84,-113 285.747,-113 301.023,-113"/>
<polygon fill="midnightblue" stroke="midnightblue" points="301.436,-116.5 311.436,-113 301.436,-109.5 301.436,-116.5"/>
</g>
<!-- Node51 -->
<g id="node6" class="node"><title>Node51</title>
<g id="a_node6"><a xlink:href="namespacemom__error__handler.html#a460cfb79a06c29fc249952c2a3710d67" target="_top" xlink:title=" ">
<polygon fill="white" stroke="black" points="286.5,-49 286.5,-79 379.5,-79 379.5,-49 286.5,-49"/>
<text text-anchor="start" x="294.5" y="-67" font-family="Helvetica,sans-Serif" font-size="10.00">mom_error_handler::</text>
<text text-anchor="middle" x="333" y="-56" font-family="Helvetica,sans-Serif" font-size="10.00">mom_error</text>
</a>
</g>
</g>
<!-- Node50&#45;&gt;Node51 -->
<g id="edge5" class="edge"><title>Node50&#45;&gt;Node51</title>
<path fill="none" stroke="midnightblue" d="M244.364,-64C254.688,-64 265.586,-64 276.058,-64"/>
<polygon fill="midnightblue" stroke="midnightblue" points="276.349,-67.5001 286.349,-64 276.349,-60.5001 276.349,-67.5001"/>
</g>
<!-- Node52 -->
<g id="node7" class="node"><title>Node52</title>
<g id="a_node7"><a xlink:href="namespacemom__error__handler.html#ad5f00a53059c72fe2332d1436c80ca71" target="_top" xlink:title=" ">
<polygon fill="white" stroke="black" points="416.5,-49 416.5,-79 509.5,-79 509.5,-49 416.5,-49"/>
<text text-anchor="start" x="424.5" y="-67" font-family="Helvetica,sans-Serif" font-size="10.00">mom_error_handler::</text>
<text text-anchor="middle" x="463" y="-56" font-family="Helvetica,sans-Serif" font-size="10.00">is_root_pe</text>
</a>
</g>
</g>
<!-- Node51&#45;&gt;Node52 -->
<g id="edge6" class="edge"><title>Node51&#45;&gt;Node52</title>
<path fill="none" stroke="midnightblue" d="M379.849,-64C388.408,-64 397.439,-64 406.258,-64"/>
<polygon fill="midnightblue" stroke="midnightblue" points="406.471,-67.5001 416.471,-64 406.471,-60.5001 406.471,-67.5001"/>
</g>
</g>
</svg>
