<?xml version="1.0" encoding="UTF-8" standalone="no"?>
<!DOCTYPE svg PUBLIC "-//W3C//DTD SVG 1.1//EN"
 "http://www.w3.org/Graphics/SVG/1.1/DTD/svg11.dtd">
<!-- Generated by graphviz version 2.30.1 (20170916.1124)
 -->
<!-- Title: mom_pressureforce_afv::pressureforce_afv_bouss Pages: 1 -->
<svg width="398pt" height="136pt"
 viewBox="0.00 0.00 398.00 136.00" xmlns="http://www.w3.org/2000/svg" xmlns:xlink="http://www.w3.org/1999/xlink">
<g id="graph0" class="graph" transform="scale(1 1) rotate(0) translate(4 132)">
<title>mom_pressureforce_afv::pressureforce_afv_bouss</title>
<polygon fill="white" stroke="white" points="-4,5 -4,-132 395,-132 395,5 -4,5"/>
<!-- Node9 -->
<g id="node1" class="node"><title>Node9</title>
<g id="a_node1"><a xlink:title="Boussinesq analytically&#45;integrated finite volume form of pressure gradient.">
<polygon fill="#bfbfbf" stroke="black" points="0.5,-49 0.5,-79 111.5,-79 111.5,-49 0.5,-49"/>
<text text-anchor="start" x="8.5" y="-67" font-family="Helvetica,sans-Serif" font-size="10.00">mom_pressureforce_afv</text>
<text text-anchor="middle" x="56" y="-56" font-family="Helvetica,sans-Serif" font-size="10.00">::pressureforce_afv_bouss</text>
</a>
</g>
</g>
<!-- Node10 -->
<g id="node2" class="node"><title>Node10</title>
<g id="a_node2"><a xlink:href="namespacemom__tidal__forcing.html#ab88c76dce908a227ab2bfa42f4869fe7" target="_top" xlink:title=" ">
<polygon fill="white" stroke="black" points="161,-98 161,-128 247,-128 247,-98 161,-98"/>
<text text-anchor="start" x="169" y="-116" font-family="Helvetica,sans-Serif" font-size="10.00">mom_tidal_forcing::</text>
<text text-anchor="middle" x="204" y="-105" font-family="Helvetica,sans-Serif" font-size="10.00">calc_tidal_forcing</text>
</a>
</g>
</g>
<!-- Node9&#45;&gt;Node10 -->
<g id="edge1" class="edge"><title>Node9&#45;&gt;Node10</title>
<path fill="none" stroke="midnightblue" d="M101.996,-79.1014C117.538,-84.3177 135.077,-90.2039 151.125,-95.5898"/>
<polygon fill="midnightblue" stroke="midnightblue" points="150.299,-99.0046 160.893,-98.8683 152.527,-92.3683 150.299,-99.0046"/>
</g>
<!-- Node11 -->
<g id="node3" class="node"><title>Node11</title>
<g id="a_node3"><a xlink:href="namespacemom__error__handler.html#a460cfb79a06c29fc249952c2a3710d67" target="_top" xlink:title=" ">
<polygon fill="white" stroke="black" points="157.5,-49 157.5,-79 250.5,-79 250.5,-49 157.5,-49"/>
<text text-anchor="start" x="165.5" y="-67" font-family="Helvetica,sans-Serif" font-size="10.00">mom_error_handler::</text>
<text text-anchor="middle" x="204" y="-56" font-family="Helvetica,sans-Serif" font-size="10.00">mom_error</text>
</a>
</g>
</g>
<!-- Node9&#45;&gt;Node11 -->
<g id="edge2" class="edge"><title>Node9&#45;&gt;Node11</title>
<path fill="none" stroke="midnightblue" d="M111.78,-64C123.421,-64 135.721,-64 147.392,-64"/>
<polygon fill="midnightblue" stroke="midnightblue" points="147.454,-67.5001 157.454,-64 147.454,-60.5001 147.454,-67.5001"/>
</g>
<!-- Node13 -->
<g id="node5" class="node"><title>Node13</title>
<g id="a_node5"><a xlink:href="namespacemom__pressureforce__mont.html#a9c2cfd1900c6dfc60b918920372cad6f" target="_top" xlink:title="Determines the partial derivative of the acceleration due to pressure forces with the free surface he...">
<polygon fill="white" stroke="black" points="148.5,-0 148.5,-30 259.5,-30 259.5,-0 148.5,-0"/>
<text text-anchor="start" x="156.5" y="-18" font-family="Helvetica,sans-Serif" font-size="10.00">mom_pressureforce_mont</text>
<text text-anchor="middle" x="204" y="-7" font-family="Helvetica,sans-Serif" font-size="10.00">::set_pbce_bouss</text>
</a>
</g>
</g>
<!-- Node9&#45;&gt;Node13 -->
<g id="edge4" class="edge"><title>Node9&#45;&gt;Node13</title>
<path fill="none" stroke="midnightblue" d="M101.996,-48.8986C116.636,-43.9853 133.046,-38.4776 148.314,-33.3534"/>
<polygon fill="midnightblue" stroke="midnightblue" points="149.786,-36.5515 158.152,-30.0516 147.558,-29.9153 149.786,-36.5515"/>
</g>
<!-- Node12 -->
<g id="node4" class="node"><title>Node12</title>
<g id="a_node4"><a xlink:href="namespacemom__error__handler.html#ad5f00a53059c72fe2332d1436c80ca71" target="_top" xlink:title=" ">
<polygon fill="white" stroke="black" points="296.5,-49 296.5,-79 389.5,-79 389.5,-49 296.5,-49"/>
<text text-anchor="start" x="304.5" y="-67" font-family="Helvetica,sans-Serif" font-size="10.00">mom_error_handler::</text>
<text text-anchor="middle" x="343" y="-56" font-family="Helvetica,sans-Serif" font-size="10.00">is_root_pe</text>
</a>
</g>
</g>
<!-- Node11&#45;&gt;Node12 -->
<g id="edge3" class="edge"><title>Node11&#45;&gt;Node12</title>
<path fill="none" stroke="midnightblue" d="M250.619,-64C261.937,-64 274.197,-64 285.951,-64"/>
<polygon fill="midnightblue" stroke="midnightblue" points="286.113,-67.5001 296.113,-64 286.113,-60.5001 286.113,-67.5001"/>
</g>
</g>
</svg>
