<?xml version="1.0" encoding="UTF-8" standalone="no"?>
<!DOCTYPE svg PUBLIC "-//W3C//DTD SVG 1.1//EN"
 "http://www.w3.org/Graphics/SVG/1.1/DTD/svg11.dtd">
<!-- Generated by graphviz version 2.30.1 (20170916.1124)
 -->
<!-- Title: mom_lateral_mixing_coeffs::varmix_init Pages: 1 -->
<svg width="998pt" height="193pt"
 viewBox="0.00 0.00 998.00 193.00" xmlns="http://www.w3.org/2000/svg" xmlns:xlink="http://www.w3.org/1999/xlink">
<g id="graph0" class="graph" transform="scale(1 1) rotate(0) translate(4 189)">
<title>mom_lateral_mixing_coeffs::varmix_init</title>
<polygon fill="white" stroke="white" points="-4,5 -4,-189 995,-189 995,5 -4,5"/>
<!-- Node56 -->
<g id="node1" class="node"><title>Node56</title>
<g id="a_node1"><a xlink:title="Initializes the variables mixing coefficients container.">
<polygon fill="#bfbfbf" stroke="black" points="0,-93 0,-123 88,-123 88,-93 0,-93"/>
<text text-anchor="start" x="8" y="-111" font-family="Helvetica,sans-Serif" font-size="10.00">mom_lateral_mixing</text>
<text text-anchor="middle" x="44" y="-100" font-family="Helvetica,sans-Serif" font-size="10.00">_coeffs::varmix_init</text>
</a>
</g>
</g>
<!-- Node57 -->
<g id="node2" class="node"><title>Node57</title>
<g id="a_node2"><a xlink:href="namespacemom__error__handler.html#a460cfb79a06c29fc249952c2a3710d67" target="_top" xlink:title=" ">
<polygon fill="white" stroke="black" points="765.5,-93 765.5,-123 858.5,-123 858.5,-93 765.5,-93"/>
<text text-anchor="start" x="773.5" y="-111" font-family="Helvetica,sans-Serif" font-size="10.00">mom_error_handler::</text>
<text text-anchor="middle" x="812" y="-100" font-family="Helvetica,sans-Serif" font-size="10.00">mom_error</text>
</a>
</g>
</g>
<!-- Node56&#45;&gt;Node57 -->
<g id="edge1" class="edge"><title>Node56&#45;&gt;Node57</title>
<path fill="none" stroke="midnightblue" d="M77.0279,-123.029C127.8,-145.438 230.408,-185 322,-185 322,-185 322,-185 475,-185 588.641,-185 619.34,-181.274 728,-148 744.31,-143.005 761.435,-135.231 775.865,-127.859"/>
<polygon fill="midnightblue" stroke="midnightblue" points="777.694,-130.852 784.923,-123.106 774.441,-124.654 777.694,-130.852"/>
</g>
<!-- Node59 -->
<g id="node4" class="node"><title>Node59</title>
<g id="a_node4"><a xlink:href="namespacemom__error__handler.html#a1c462df7b61f1296407b4af51dfeceab" target="_top" xlink:title=" ">
<polygon fill="white" stroke="black" points="427.5,-0 427.5,-30 520.5,-30 520.5,-0 427.5,-0"/>
<text text-anchor="start" x="435.5" y="-18" font-family="Helvetica,sans-Serif" font-size="10.00">mom_error_handler::</text>
<text text-anchor="middle" x="474" y="-7" font-family="Helvetica,sans-Serif" font-size="10.00">mom_mesg</text>
</a>
</g>
</g>
<!-- Node56&#45;&gt;Node59 -->
<g id="edge3" class="edge"><title>Node56&#45;&gt;Node59</title>
<path fill="none" stroke="midnightblue" d="M88.0264,-94.2987C99.692,-90.6073 112.324,-86.6313 124,-83 187.902,-63.1266 202.501,-52.7241 268,-39 317.953,-28.5333 375.778,-22.2842 417.253,-18.7995"/>
<polygon fill="midnightblue" stroke="midnightblue" points="417.747,-22.271 427.43,-17.9723 417.18,-15.294 417.747,-22.271"/>
</g>
<!-- Node60 -->
<g id="node5" class="node"><title>Node60</title>
<g id="a_node5"><a xlink:href="namespacemom__wave__speed.html#a46e21529ec8098b0b19053afa133b971" target="_top" xlink:title="Initialize control structure for MOM_wave_speed.">
<polygon fill="white" stroke="black" points="124.5,-93 124.5,-123 231.5,-123 231.5,-93 124.5,-93"/>
<text text-anchor="start" x="132.5" y="-111" font-family="Helvetica,sans-Serif" font-size="10.00">mom_wave_speed::wave</text>
<text text-anchor="middle" x="178" y="-100" font-family="Helvetica,sans-Serif" font-size="10.00">_speed_init</text>
</a>
</g>
</g>
<!-- Node56&#45;&gt;Node60 -->
<g id="edge5" class="edge"><title>Node56&#45;&gt;Node60</title>
<path fill="none" stroke="midnightblue" d="M88.2217,-108C96.5442,-108 105.417,-108 114.214,-108"/>
<polygon fill="midnightblue" stroke="midnightblue" points="114.469,-111.5 124.469,-108 114.469,-104.5 114.469,-111.5"/>
</g>
<!-- Node58 -->
<g id="node3" class="node"><title>Node58</title>
<g id="a_node3"><a xlink:href="namespacemom__error__handler.html#ad5f00a53059c72fe2332d1436c80ca71" target="_top" xlink:title=" ">
<polygon fill="white" stroke="black" points="896.5,-46 896.5,-76 989.5,-76 989.5,-46 896.5,-46"/>
<text text-anchor="start" x="904.5" y="-64" font-family="Helvetica,sans-Serif" font-size="10.00">mom_error_handler::</text>
<text text-anchor="middle" x="943" y="-53" font-family="Helvetica,sans-Serif" font-size="10.00">is_root_pe</text>
</a>
</g>
</g>
<!-- Node57&#45;&gt;Node58 -->
<g id="edge2" class="edge"><title>Node57&#45;&gt;Node58</title>
<path fill="none" stroke="midnightblue" d="M854.171,-92.9997C865.924,-88.7177 878.871,-84.0005 891.13,-79.5341"/>
<polygon fill="midnightblue" stroke="midnightblue" points="892.58,-82.7309 900.778,-76.019 890.184,-76.1538 892.58,-82.7309"/>
</g>
<!-- Node59&#45;&gt;Node58 -->
<g id="edge4" class="edge"><title>Node59&#45;&gt;Node58</title>
<path fill="none" stroke="midnightblue" d="M520.503,-13.3257C593.01,-11.5323 738.936,-11.5071 860,-34 871.056,-36.0542 882.676,-39.2237 893.578,-42.6781"/>
<polygon fill="midnightblue" stroke="midnightblue" points="892.759,-46.0936 903.353,-45.9069 894.955,-39.4468 892.759,-46.0936"/>
</g>
<!-- Node60&#45;&gt;Node57 -->
<g id="edge6" class="edge"><title>Node60&#45;&gt;Node57</title>
<path fill="none" stroke="midnightblue" d="M231.584,-116.793C243.524,-118.48 256.173,-120.023 268,-121 471.767,-137.839 524.831,-149.957 728,-127 736.858,-125.999 746.149,-124.415 755.176,-122.579"/>
<polygon fill="midnightblue" stroke="midnightblue" points="756.181,-125.943 765.22,-120.416 754.707,-119.1 756.181,-125.943"/>
</g>
<!-- Node61 -->
<g id="node6" class="node"><title>Node61</title>
<g id="a_node6"><a xlink:href="namespacemom__wave__speed.html#a035c9e3306d6b21809e240a5b24a2db0" target="_top" xlink:title="Sets internal parameters for MOM_wave_speed.">
<polygon fill="white" stroke="black" points="595.5,-88 595.5,-118 702.5,-118 702.5,-88 595.5,-88"/>
<text text-anchor="start" x="603.5" y="-106" font-family="Helvetica,sans-Serif" font-size="10.00">mom_wave_speed::wave</text>
<text text-anchor="middle" x="649" y="-95" font-family="Helvetica,sans-Serif" font-size="10.00">_speed_set_param</text>
</a>
</g>
</g>
<!-- Node60&#45;&gt;Node61 -->
<g id="edge7" class="edge"><title>Node60&#45;&gt;Node61</title>
<path fill="none" stroke="midnightblue" d="M231.889,-107.436C318.94,-106.508 492.025,-104.663 585.175,-103.67"/>
<polygon fill="midnightblue" stroke="midnightblue" points="585.343,-107.168 595.305,-103.562 585.268,-100.169 585.343,-107.168"/>
</g>
<!-- Node62 -->
<g id="node7" class="node"><title>Node62</title>
<g id="a_node7"><a xlink:href="namespacemom__remapping.html#a6847e0c44ccb54fb72587677f90d95b6" target="_top" xlink:title="Constructor for remapping control structure.">
<polygon fill="white" stroke="black" points="268.5,-49 268.5,-79 377.5,-79 377.5,-49 268.5,-49"/>
<text text-anchor="start" x="276.5" y="-67" font-family="Helvetica,sans-Serif" font-size="10.00">mom_remapping::initialize</text>
<text text-anchor="middle" x="323" y="-56" font-family="Helvetica,sans-Serif" font-size="10.00">_remapping</text>
</a>
</g>
</g>
<!-- Node60&#45;&gt;Node62 -->
<g id="edge9" class="edge"><title>Node60&#45;&gt;Node62</title>
<path fill="none" stroke="midnightblue" d="M227.813,-92.9808C239.191,-89.4798 251.424,-85.7158 263.184,-82.0973"/>
<polygon fill="midnightblue" stroke="midnightblue" points="264.393,-85.3871 272.922,-79.1009 262.335,-78.6966 264.393,-85.3871"/>
</g>
<!-- Node61&#45;&gt;Node57 -->
<g id="edge8" class="edge"><title>Node61&#45;&gt;Node57</title>
<path fill="none" stroke="midnightblue" d="M702.717,-104.637C719.501,-105.158 738.122,-105.737 755.122,-106.265"/>
<polygon fill="midnightblue" stroke="midnightblue" points="755.362,-109.774 765.466,-106.586 755.579,-102.777 755.362,-109.774"/>
</g>
<!-- Node63 -->
<g id="node8" class="node"><title>Node63</title>
<g id="a_node8"><a xlink:href="namespacemom__remapping.html#a9e811f89c505a4416ea0eec315769801" target="_top" xlink:title="Set parameters within remapping object.">
<polygon fill="white" stroke="black" points="414,-49 414,-79 534,-79 534,-49 414,-49"/>
<text text-anchor="start" x="422" y="-67" font-family="Helvetica,sans-Serif" font-size="10.00">mom_remapping::remapping</text>
<text text-anchor="middle" x="474" y="-56" font-family="Helvetica,sans-Serif" font-size="10.00">_set_param</text>
</a>
</g>
</g>
<!-- Node62&#45;&gt;Node63 -->
<g id="edge10" class="edge"><title>Node62&#45;&gt;Node63</title>
<path fill="none" stroke="midnightblue" d="M377.792,-64C386.24,-64 395.074,-64 403.81,-64"/>
<polygon fill="midnightblue" stroke="midnightblue" points="403.991,-67.5001 413.991,-64 403.991,-60.5001 403.991,-67.5001"/>
</g>
<!-- Node64 -->
<g id="node9" class="node"><title>Node64</title>
<g id="a_node9"><a xlink:href="namespacemom__remapping.html#a41a89ac62578250500b7a450d5fdfae7" target="_top" xlink:title="Changes the method of reconstruction Use this routine to parse a string parameter specifying the reco...">
<polygon fill="white" stroke="black" points="570,-49.5 570,-68.5 728,-68.5 728,-49.5 570,-49.5"/>
<text text-anchor="middle" x="649" y="-56.5" font-family="Helvetica,sans-Serif" font-size="10.00">mom_remapping::setreconstructiontype</text>
</a>
</g>
</g>
<!-- Node63&#45;&gt;Node64 -->
<g id="edge11" class="edge"><title>Node63&#45;&gt;Node64</title>
<path fill="none" stroke="midnightblue" d="M534.053,-62.2933C542.355,-62.0533 551.033,-61.8025 559.735,-61.551"/>
<polygon fill="midnightblue" stroke="midnightblue" points="560.045,-65.0436 569.94,-61.2561 559.843,-58.0465 560.045,-65.0436"/>
</g>
<!-- Node65 -->
<g id="node10" class="node"><title>Node65</title>
<g id="a_node10"><a xlink:href="namespacemom__string__functions.html#aca148baf726de2f028b7e7baad3c85d4" target="_top" xlink:title=" ">
<polygon fill="white" stroke="black" points="764.5,-44 764.5,-74 859.5,-74 859.5,-44 764.5,-44"/>
<text text-anchor="start" x="772.5" y="-62" font-family="Helvetica,sans-Serif" font-size="10.00">mom_string_functions</text>
<text text-anchor="middle" x="812" y="-51" font-family="Helvetica,sans-Serif" font-size="10.00">::uppercase</text>
</a>
</g>
</g>
<!-- Node64&#45;&gt;Node65 -->
<g id="edge12" class="edge"><title>Node64&#45;&gt;Node65</title>
<path fill="none" stroke="midnightblue" d="M728.142,-59C736.914,-59 745.723,-59 754.152,-59"/>
<polygon fill="midnightblue" stroke="midnightblue" points="754.218,-62.5001 764.218,-59 754.218,-55.5001 754.218,-62.5001"/>
</g>
<!-- Node64&#45;&gt;Node57 -->
<g id="edge13" class="edge"><title>Node64&#45;&gt;Node57</title>
<path fill="none" stroke="midnightblue" d="M692.731,-68.5286C704.248,-71.3359 716.658,-74.5796 728,-78 739.233,-81.3873 751.171,-85.4321 762.388,-89.4382"/>
<polygon fill="midnightblue" stroke="midnightblue" points="761.43,-92.8137 772.025,-92.9311 763.816,-86.2327 761.43,-92.8137"/>
</g>
</g>
</svg>
