<?xml version="1.0" encoding="UTF-8" standalone="no"?>
<!DOCTYPE svg PUBLIC "-//W3C//DTD SVG 1.1//EN"
 "http://www.w3.org/Graphics/SVG/1.1/DTD/svg11.dtd">
<!-- Generated by graphviz version 2.30.1 (20170916.1124)
 -->
<!-- Title: mom_continuity_ppm::merid_flux_layer Pages: 1 -->
<svg width="626pt" height="95pt"
 viewBox="0.00 0.00 626.00 94.65" xmlns="http://www.w3.org/2000/svg" xmlns:xlink="http://www.w3.org/1999/xlink">
<g id="graph0" class="graph" transform="scale(1 1) rotate(0) translate(4 90.6451)">
<title>mom_continuity_ppm::merid_flux_layer</title>
<polygon fill="white" stroke="white" points="-4,5 -4,-90.6451 623,-90.6451 623,5 -4,5"/>
<!-- Node31 -->
<g id="node1" class="node"><title>Node31</title>
<g id="a_node1"><a xlink:title="Evaluates the meridional mass or volume fluxes in a layer.">
<polygon fill="#bfbfbf" stroke="black" points="526,-12.6451 526,-42.6451 618,-42.6451 618,-12.6451 526,-12.6451"/>
<text text-anchor="start" x="534" y="-30.6451" font-family="Helvetica,sans-Serif" font-size="10.00">mom_continuity_ppm</text>
<text text-anchor="middle" x="572" y="-19.6451" font-family="Helvetica,sans-Serif" font-size="10.00">::merid_flux_layer</text>
</a>
</g>
</g>
<!-- Node32 -->
<g id="node2" class="node"><title>Node32</title>
<g id="a_node2"><a xlink:href="namespacemom__continuity__ppm.html#a1a09c28286ea6568eb1a25e91d481f60" target="_top" xlink:title="Returns the barotropic velocity adjustment that gives the desired barotropic (layer&#45;summed) transport...">
<polygon fill="white" stroke="black" points="390,-56.6451 390,-86.6451 490,-86.6451 490,-56.6451 390,-56.6451"/>
<text text-anchor="start" x="398" y="-74.6451" font-family="Helvetica,sans-Serif" font-size="10.00">mom_continuity_ppm</text>
<text text-anchor="middle" x="440" y="-63.6451" font-family="Helvetica,sans-Serif" font-size="10.00">::meridional_flux_adjust</text>
</a>
</g>
</g>
<!-- Node31&#45;&gt;Node32 -->
<g id="edge1" class="edge"><title>Node31&#45;&gt;Node32</title>
<path fill="none" stroke="midnightblue" d="M517.138,-45.8752C506.651,-49.4248 495.765,-53.1093 485.616,-56.5442"/>
<polygon fill="midnightblue" stroke="midnightblue" points="518.275,-49.1856 526.625,-42.6644 516.031,-42.5551 518.275,-49.1856"/>
</g>
<!-- Node33 -->
<g id="node3" class="node"><title>Node33</title>
<g id="a_node3"><a xlink:href="namespacemom__continuity__ppm.html#ae326b8319da257f423f73a32a984b641" target="_top" xlink:title="Calculates the mass or volume fluxes through the meridional faces, and other related quantities.">
<polygon fill="white" stroke="black" points="128,-15.6451 128,-45.6451 226,-45.6451 226,-15.6451 128,-15.6451"/>
<text text-anchor="start" x="136" y="-33.6451" font-family="Helvetica,sans-Serif" font-size="10.00">mom_continuity_ppm</text>
<text text-anchor="middle" x="177" y="-22.6451" font-family="Helvetica,sans-Serif" font-size="10.00">::meridional_mass_flux</text>
</a>
</g>
</g>
<!-- Node31&#45;&gt;Node33 -->
<g id="edge6" class="edge"><title>Node31&#45;&gt;Node33</title>
<path fill="none" stroke="midnightblue" d="M515.781,-16.5839C453.758,-5.81193 350.224,7.20489 262,-5.64511 247.997,-7.68464 233.083,-11.5417 219.767,-15.6265"/>
<polygon fill="midnightblue" stroke="midnightblue" points="515.285,-20.0506 525.743,-18.3572 516.512,-13.1589 515.285,-20.0506"/>
</g>
<!-- Node35 -->
<g id="node5" class="node"><title>Node35</title>
<g id="a_node5"><a xlink:href="namespacemom__continuity__ppm.html#ac0a93898960aef838a55a8ef4f926aa1" target="_top" xlink:title="Sets of a structure that describes the meridional barotropic volume or mass fluxes as a function of b...">
<polygon fill="white" stroke="black" points="262,-15.6451 262,-45.6451 354,-45.6451 354,-15.6451 262,-15.6451"/>
<text text-anchor="start" x="270" y="-33.6451" font-family="Helvetica,sans-Serif" font-size="10.00">mom_continuity_ppm</text>
<text text-anchor="middle" x="308" y="-22.6451" font-family="Helvetica,sans-Serif" font-size="10.00">::set_merid_bt_cont</text>
</a>
</g>
</g>
<!-- Node31&#45;&gt;Node35 -->
<g id="edge7" class="edge"><title>Node31&#45;&gt;Node35</title>
<path fill="none" stroke="midnightblue" d="M515.75,-28.2777C467.772,-28.8271 399.14,-29.613 354.328,-30.1261"/>
<polygon fill="midnightblue" stroke="midnightblue" points="516.001,-31.7752 525.961,-28.1608 515.921,-24.7757 516.001,-31.7752"/>
</g>
<!-- Node32&#45;&gt;Node33 -->
<g id="edge2" class="edge"><title>Node32&#45;&gt;Node33</title>
<path fill="none" stroke="midnightblue" d="M379.442,-68.6431C344.924,-66.2278 300.759,-61.9797 262,-54.6451 249.929,-52.3608 237.087,-49.1194 225.171,-45.7551"/>
<polygon fill="midnightblue" stroke="midnightblue" points="379.617,-72.1625 389.828,-69.3353 380.083,-65.178 379.617,-72.1625"/>
</g>
<!-- Node32&#45;&gt;Node35 -->
<g id="edge4" class="edge"><title>Node32&#45;&gt;Node35</title>
<path fill="none" stroke="midnightblue" d="M381.773,-53.5966C372.496,-50.6706 363.004,-47.6771 354.069,-44.8591"/>
<polygon fill="midnightblue" stroke="midnightblue" points="380.741,-56.9411 391.331,-56.611 382.847,-50.2652 380.741,-56.9411"/>
</g>
<!-- Node34 -->
<g id="node4" class="node"><title>Node34</title>
<g id="a_node4"><a xlink:href="namespacemom__continuity__ppm.html#a59586aae1668f03f3a78d58f5712cc0f" target="_top" xlink:title="Time steps the layer thicknesses, using a monotonically limit, directionally split PPM scheme,...">
<polygon fill="white" stroke="black" points="0,-15.6451 0,-45.6451 92,-45.6451 92,-15.6451 0,-15.6451"/>
<text text-anchor="start" x="8" y="-33.6451" font-family="Helvetica,sans-Serif" font-size="10.00">mom_continuity_ppm</text>
<text text-anchor="middle" x="46" y="-22.6451" font-family="Helvetica,sans-Serif" font-size="10.00">::continuity_ppm</text>
</a>
</g>
</g>
<!-- Node33&#45;&gt;Node34 -->
<g id="edge3" class="edge"><title>Node33&#45;&gt;Node34</title>
<path fill="none" stroke="midnightblue" d="M117.905,-30.6451C109.243,-30.6451 100.425,-30.6451 92.084,-30.6451"/>
<polygon fill="midnightblue" stroke="midnightblue" points="117.965,-34.1452 127.965,-30.6451 117.965,-27.1452 117.965,-34.1452"/>
</g>
<!-- Node35&#45;&gt;Node33 -->
<g id="edge5" class="edge"><title>Node35&#45;&gt;Node33</title>
<path fill="none" stroke="midnightblue" d="M251.741,-30.6451C243.306,-30.6451 234.656,-30.6451 226.385,-30.6451"/>
<polygon fill="midnightblue" stroke="midnightblue" points="251.882,-34.1452 261.882,-30.6451 251.882,-27.1452 251.882,-34.1452"/>
</g>
</g>
</svg>
