<?xml version="1.0" encoding="UTF-8" standalone="no"?>
<!DOCTYPE svg PUBLIC "-//W3C//DTD SVG 1.1//EN"
 "http://www.w3.org/Graphics/SVG/1.1/DTD/svg11.dtd">
<!-- Generated by graphviz version 2.30.1 (20170916.1124)
 -->
<!-- Title: mom_remapping::integraterecononinterval Pages: 1 -->
<svg width="844pt" height="66pt"
 viewBox="0.00 0.00 844.00 66.00" xmlns="http://www.w3.org/2000/svg" xmlns:xlink="http://www.w3.org/1999/xlink">
<g id="graph0" class="graph" transform="scale(1 1) rotate(0) translate(4 62)">
<title>mom_remapping::integraterecononinterval</title>
<polygon fill="white" stroke="white" points="-4,5 -4,-62 841,-62 841,5 -4,5"/>
<!-- Node118 -->
<g id="node1" class="node"><title>Node118</title>
<g id="a_node1"><a xlink:title="Integrate the reconstructed column profile over a single cell.">
<polygon fill="#bfbfbf" stroke="black" points="668,-19.5 668,-38.5 836,-38.5 836,-19.5 668,-19.5"/>
<text text-anchor="middle" x="752" y="-26.5" font-family="Helvetica,sans-Serif" font-size="10.00">mom_remapping::integraterecononinterval</text>
</a>
</g>
</g>
<!-- Node119 -->
<g id="node2" class="node"><title>Node119</title>
<g id="a_node2"><a xlink:href="namespacemom__remapping.html#a1bd9f90e9d589519737e64145f3574f0" target="_top" xlink:title="Remaps column of values u0 on grid h0 to implied grid h1 where the interfaces of h1 differ from those...">
<polygon fill="white" stroke="black" points="491,-38.5 491,-57.5 625,-57.5 625,-38.5 491,-38.5"/>
<text text-anchor="middle" x="558" y="-45.5" font-family="Helvetica,sans-Serif" font-size="10.00">mom_remapping::remapbydeltaz</text>
</a>
</g>
</g>
<!-- Node118&#45;&gt;Node119 -->
<g id="edge1" class="edge"><title>Node118&#45;&gt;Node119</title>
<path fill="none" stroke="midnightblue" d="M657.808,-38.2222C646.782,-39.3132 635.707,-40.4092 625.165,-41.4524"/>
<polygon fill="midnightblue" stroke="midnightblue" points="658.296,-41.691 667.903,-37.2232 657.607,-34.725 658.296,-41.691"/>
</g>
<!-- Node124 -->
<g id="node7" class="node"><title>Node124</title>
<g id="a_node7"><a xlink:href="namespacemom__remapping.html#aa8b5e5d21e3a888c1d7c368980b67152" target="_top" xlink:title="Remaps column of values u0 on grid h0 to grid h1 by integrating over the projection of each h1 cell o...">
<polygon fill="white" stroke="black" points="484,-0.5 484,-19.5 632,-19.5 632,-0.5 484,-0.5"/>
<text text-anchor="middle" x="558" y="-7.5" font-family="Helvetica,sans-Serif" font-size="10.00">mom_remapping::remapbyprojection</text>
</a>
</g>
</g>
<!-- Node118&#45;&gt;Node124 -->
<g id="edge6" class="edge"><title>Node118&#45;&gt;Node124</title>
<path fill="none" stroke="midnightblue" d="M657.851,-19.7821C649.262,-18.9322 640.643,-18.0792 632.269,-17.2505"/>
<polygon fill="midnightblue" stroke="midnightblue" points="657.607,-23.275 667.903,-20.7768 658.296,-16.309 657.607,-23.275"/>
</g>
<!-- Node120 -->
<g id="node3" class="node"><title>Node120</title>
<g id="a_node3"><a xlink:href="namespacemom__remapping.html#a8a79c37c89f8b800f79198aceca5f090" target="_top" xlink:title="Runs unit tests on remapping functions. Should only be called from a single/root thread Returns True ...">
<polygon fill="white" stroke="black" points="328,-14 328,-44 448,-44 448,-14 328,-14"/>
<text text-anchor="start" x="336" y="-32" font-family="Helvetica,sans-Serif" font-size="10.00">mom_remapping::remapping</text>
<text text-anchor="middle" x="388" y="-21" font-family="Helvetica,sans-Serif" font-size="10.00">_unit_tests</text>
</a>
</g>
</g>
<!-- Node119&#45;&gt;Node120 -->
<g id="edge2" class="edge"><title>Node119&#45;&gt;Node120</title>
<path fill="none" stroke="midnightblue" d="M480.644,-39.3645C469.724,-38.1294 458.63,-36.8748 448.109,-35.6849"/>
<polygon fill="midnightblue" stroke="midnightblue" points="480.272,-42.8446 490.602,-40.4907 481.059,-35.889 480.272,-42.8446"/>
</g>
<!-- Node121 -->
<g id="node4" class="node"><title>Node121</title>
<g id="a_node4"><a xlink:href="namespacemom.html#ae77cfd2e790f1266b31d93c58659d46c" target="_top" xlink:title="Calls unit tests for other modules. These are NOT normally invoked and so we provide the module use s...">
<polygon fill="white" stroke="black" points="218.5,-19.5 218.5,-38.5 291.5,-38.5 291.5,-19.5 218.5,-19.5"/>
<text text-anchor="middle" x="255" y="-26.5" font-family="Helvetica,sans-Serif" font-size="10.00">mom::unit_tests</text>
</a>
</g>
</g>
<!-- Node120&#45;&gt;Node121 -->
<g id="edge3" class="edge"><title>Node120&#45;&gt;Node121</title>
<path fill="none" stroke="midnightblue" d="M317.496,-29C308.524,-29 299.653,-29 291.558,-29"/>
<polygon fill="midnightblue" stroke="midnightblue" points="317.633,-32.5001 327.633,-29 317.633,-25.5001 317.633,-32.5001"/>
</g>
<!-- Node122 -->
<g id="node5" class="node"><title>Node122</title>
<g id="a_node5"><a xlink:href="namespacemom.html#a0be2869fef30e1e0604facfe1b41555d" target="_top" xlink:title="This subroutine initializes MOM.">
<polygon fill="white" stroke="black" points="92.5,-19.5 92.5,-38.5 181.5,-38.5 181.5,-19.5 92.5,-19.5"/>
<text text-anchor="middle" x="137" y="-26.5" font-family="Helvetica,sans-Serif" font-size="10.00">mom::initialize_mom</text>
</a>
</g>
</g>
<!-- Node121&#45;&gt;Node122 -->
<g id="edge4" class="edge"><title>Node121&#45;&gt;Node122</title>
<path fill="none" stroke="midnightblue" d="M208.196,-29C199.437,-29 190.288,-29 181.6,-29"/>
<polygon fill="midnightblue" stroke="midnightblue" points="208.25,-32.5001 218.25,-29 208.25,-25.5001 208.25,-32.5001"/>
</g>
<!-- Node123 -->
<g id="node6" class="node"><title>Node123</title>
<g id="a_node6"><a xlink:href="MOM__driver_8F90.html#a08fffeb2d8e8acbf9ed4609be6d258c6" target="_top" xlink:title=" ">
<polygon fill="white" stroke="black" points="0,-19.5 0,-38.5 56,-38.5 56,-19.5 0,-19.5"/>
<text text-anchor="middle" x="28" y="-26.5" font-family="Helvetica,sans-Serif" font-size="10.00">mom_main</text>
</a>
</g>
</g>
<!-- Node122&#45;&gt;Node123 -->
<g id="edge5" class="edge"><title>Node122&#45;&gt;Node123</title>
<path fill="none" stroke="midnightblue" d="M82.3096,-29C73.2562,-29 64.21,-29 56.2082,-29"/>
<polygon fill="midnightblue" stroke="midnightblue" points="82.479,-32.5001 92.479,-29 82.479,-25.5001 82.479,-32.5001"/>
</g>
<!-- Node124&#45;&gt;Node120 -->
<g id="edge7" class="edge"><title>Node124&#45;&gt;Node120</title>
<path fill="none" stroke="midnightblue" d="M473.681,-19.423C465.038,-20.4005 456.385,-21.3791 448.088,-22.3174"/>
<polygon fill="midnightblue" stroke="midnightblue" points="474.258,-22.8801 483.801,-18.2784 473.471,-15.9245 474.258,-22.8801"/>
</g>
</g>
</svg>
