<?xml version="1.0" encoding="UTF-8" standalone="no"?>
<!DOCTYPE svg PUBLIC "-//W3C//DTD SVG 1.1//EN"
 "http://www.w3.org/Graphics/SVG/1.1/DTD/svg11.dtd">
<!-- Generated by graphviz version 2.30.1 (20170916.1124)
 -->
<!-- Title: regrid_solvers::solve_tridiagonal_system Pages: 1 -->
<svg width="1266pt" height="412pt"
 viewBox="0.00 0.00 1266.00 412.00" xmlns="http://www.w3.org/2000/svg" xmlns:xlink="http://www.w3.org/1999/xlink">
<g id="graph0" class="graph" transform="scale(1 1) rotate(0) translate(4 408)">
<title>regrid_solvers::solve_tridiagonal_system</title>
<polygon fill="white" stroke="white" points="-4,5 -4,-408 1263,-408 1263,5 -4,5"/>
<!-- Node38 -->
<g id="node1" class="node"><title>Node38</title>
<g id="a_node1"><a xlink:title=" ">
<polygon fill="#bfbfbf" stroke="black" points="1168.5,-250 1168.5,-280 1257.5,-280 1257.5,-250 1168.5,-250"/>
<text text-anchor="start" x="1176.5" y="-268" font-family="Helvetica,sans-Serif" font-size="10.00">regrid_solvers::solve</text>
<text text-anchor="middle" x="1213" y="-257" font-family="Helvetica,sans-Serif" font-size="10.00">_tridiagonal_system</text>
</a>
</g>
</g>
<!-- Node39 -->
<g id="node2" class="node"><title>Node39</title>
<g id="a_node2"><a xlink:href="namespaceregrid__edge__slopes.html#a378dcb603968664e58d65e8ed892ec69" target="_top" xlink:title=" ">
<polygon fill="white" stroke="black" points="1024.5,-324 1024.5,-354 1131.5,-354 1131.5,-324 1024.5,-324"/>
<text text-anchor="start" x="1032.5" y="-342" font-family="Helvetica,sans-Serif" font-size="10.00">regrid_edge_slopes</text>
<text text-anchor="middle" x="1078" y="-331" font-family="Helvetica,sans-Serif" font-size="10.00">::edge_slopes_implicit_h3</text>
</a>
</g>
</g>
<!-- Node38&#45;&gt;Node39 -->
<g id="edge1" class="edge"><title>Node38&#45;&gt;Node39</title>
<path fill="none" stroke="midnightblue" d="M1180.33,-285.492C1165.82,-294.598 1148.26,-305.22 1132,-314 1125.73,-317.384 1118.93,-320.786 1112.36,-323.944"/>
<polygon fill="midnightblue" stroke="midnightblue" points="1182.36,-288.352 1188.94,-280.047 1178.62,-282.436 1182.36,-288.352"/>
</g>
<!-- Node67 -->
<g id="node30" class="node"><title>Node67</title>
<g id="a_node30"><a xlink:href="namespaceregrid__edge__slopes.html#a32fc906bf14cfb859703b4a1a7c46a9c" target="_top" xlink:title=" ">
<polygon fill="white" stroke="black" points="1024.5,-275 1024.5,-305 1131.5,-305 1131.5,-275 1024.5,-275"/>
<text text-anchor="start" x="1032.5" y="-293" font-family="Helvetica,sans-Serif" font-size="10.00">regrid_edge_slopes</text>
<text text-anchor="middle" x="1078" y="-282" font-family="Helvetica,sans-Serif" font-size="10.00">::edge_slopes_implicit_h5</text>
</a>
</g>
</g>
<!-- Node38&#45;&gt;Node67 -->
<g id="edge33" class="edge"><title>Node38&#45;&gt;Node67</title>
<path fill="none" stroke="midnightblue" d="M1158.39,-275.077C1149.67,-276.717 1140.64,-278.414 1131.93,-280.051"/>
<polygon fill="midnightblue" stroke="midnightblue" points="1159.27,-278.473 1168.45,-273.186 1157.98,-271.594 1159.27,-278.473"/>
</g>
<!-- Node68 -->
<g id="node31" class="node"><title>Node68</title>
<g id="a_node31"><a xlink:href="namespaceregrid__edge__values.html#a2c2460b31b6de501eed3cb7db07a4be5" target="_top" xlink:title=" ">
<polygon fill="white" stroke="black" points="1024.5,-177 1024.5,-207 1131.5,-207 1131.5,-177 1024.5,-177"/>
<text text-anchor="start" x="1032.5" y="-195" font-family="Helvetica,sans-Serif" font-size="10.00">regrid_edge_values</text>
<text text-anchor="middle" x="1078" y="-184" font-family="Helvetica,sans-Serif" font-size="10.00">::edge_values_implicit_h4</text>
</a>
</g>
</g>
<!-- Node38&#45;&gt;Node68 -->
<g id="edge36" class="edge"><title>Node38&#45;&gt;Node68</title>
<path fill="none" stroke="midnightblue" d="M1180.4,-244.391C1165.89,-235.261 1148.33,-224.654 1132,-216 1126.2,-212.925 1119.93,-209.865 1113.8,-207.009"/>
<polygon fill="midnightblue" stroke="midnightblue" points="1178.67,-247.443 1188.99,-249.854 1182.43,-241.536 1178.67,-247.443"/>
</g>
<!-- Node70 -->
<g id="node33" class="node"><title>Node70</title>
<g id="a_node33"><a xlink:href="namespaceregrid__edge__values.html#a6c14843c556353d86f2efb4c7c74c9f5" target="_top" xlink:title=" ">
<polygon fill="white" stroke="black" points="1024.5,-226 1024.5,-256 1131.5,-256 1131.5,-226 1024.5,-226"/>
<text text-anchor="start" x="1032.5" y="-244" font-family="Helvetica,sans-Serif" font-size="10.00">regrid_edge_values</text>
<text text-anchor="middle" x="1078" y="-233" font-family="Helvetica,sans-Serif" font-size="10.00">::edge_values_implicit_h6</text>
</a>
</g>
</g>
<!-- Node38&#45;&gt;Node70 -->
<g id="edge40" class="edge"><title>Node38&#45;&gt;Node70</title>
<path fill="none" stroke="midnightblue" d="M1158.39,-255.326C1149.67,-253.752 1140.64,-252.122 1131.93,-250.551"/>
<polygon fill="midnightblue" stroke="midnightblue" points="1157.99,-258.81 1168.45,-257.142 1159.23,-251.921 1157.99,-258.81"/>
</g>
<!-- Node40 -->
<g id="node3" class="node"><title>Node40</title>
<g id="a_node3"><a xlink:href="namespacemom__remapping.html#a07d7276310f329f56560a1290bcb8b0a" target="_top" xlink:title="Creates polynomial reconstructions of u0 on the source grid h0.">
<polygon fill="white" stroke="black" points="869,-226 869,-256 967,-256 967,-226 869,-226"/>
<text text-anchor="start" x="877" y="-244" font-family="Helvetica,sans-Serif" font-size="10.00">mom_remapping::build</text>
<text text-anchor="middle" x="918" y="-233" font-family="Helvetica,sans-Serif" font-size="10.00">_reconstructions_1d</text>
</a>
</g>
</g>
<!-- Node39&#45;&gt;Node40 -->
<g id="edge2" class="edge"><title>Node39&#45;&gt;Node40</title>
<path fill="none" stroke="midnightblue" d="M1030.2,-318.607C1028.04,-317.149 1025.96,-315.613 1024,-314 1003.14,-296.82 1009.74,-281.05 988,-265 981.776,-260.405 974.6,-256.637 967.28,-253.563"/>
<polygon fill="midnightblue" stroke="midnightblue" points="1028.46,-321.649 1038.83,-323.849 1032.1,-315.666 1028.46,-321.649"/>
</g>
<!-- Node58 -->
<g id="node21" class="node"><title>Node58</title>
<g id="a_node21"><a xlink:href="namespacemom__regridding.html#a580e775df53e4bb61f118fcab44a3f92" target="_top" xlink:title="Given the set of target values and cell densities, this routine builds an interpolated profile for th...">
<polygon fill="white" stroke="black" points="860,-275 860,-305 976,-305 976,-275 860,-275"/>
<text text-anchor="start" x="868" y="-293" font-family="Helvetica,sans-Serif" font-size="10.00">mom_regridding::regridding</text>
<text text-anchor="middle" x="918" y="-282" font-family="Helvetica,sans-Serif" font-size="10.00">_set_ppolys</text>
</a>
</g>
</g>
<!-- Node39&#45;&gt;Node58 -->
<g id="edge22" class="edge"><title>Node39&#45;&gt;Node58</title>
<path fill="none" stroke="midnightblue" d="M1018.6,-320.887C1001.8,-315.678 983.665,-310.054 967.534,-305.052"/>
<polygon fill="midnightblue" stroke="midnightblue" points="1017.72,-324.279 1028.31,-323.899 1019.79,-317.593 1017.72,-324.279"/>
</g>
<!-- Node41 -->
<g id="node4" class="node"><title>Node41</title>
<g id="a_node4"><a xlink:href="namespacemom__remapping.html#a6d1533ffa647f3305aba055e2685b095" target="_top" xlink:title="Remaps column of values u0 on grid h0 to grid h1 assuming the top edge is aligned.">
<polygon fill="white" stroke="black" points="692,-98 692,-128 812,-128 812,-98 692,-98"/>
<text text-anchor="start" x="700" y="-116" font-family="Helvetica,sans-Serif" font-size="10.00">mom_remapping::remapping</text>
<text text-anchor="middle" x="752" y="-105" font-family="Helvetica,sans-Serif" font-size="10.00">_core_h</text>
</a>
</g>
</g>
<!-- Node40&#45;&gt;Node41 -->
<g id="edge3" class="edge"><title>Node40&#45;&gt;Node41</title>
<path fill="none" stroke="midnightblue" d="M865.927,-221.527C859.685,-218.364 853.556,-214.847 848,-211 813.321,-186.992 780.939,-148.991 764.425,-128.063"/>
<polygon fill="midnightblue" stroke="midnightblue" points="864.569,-224.757 875.101,-225.907 867.585,-218.44 864.569,-224.757"/>
</g>
<!-- Node55 -->
<g id="node18" class="node"><title>Node55</title>
<g id="a_node18"><a xlink:href="namespacemom__remapping.html#a8b967872b8db2ac7d538991f7f255e56" target="_top" xlink:title="Remaps column of values u0 on grid h0 to implied grid h1 where the interfaces of h1 differ from those...">
<polygon fill="white" stroke="black" points="692,-226 692,-256 812,-256 812,-226 692,-226"/>
<text text-anchor="start" x="700" y="-244" font-family="Helvetica,sans-Serif" font-size="10.00">mom_remapping::remapping</text>
<text text-anchor="middle" x="752" y="-233" font-family="Helvetica,sans-Serif" font-size="10.00">_core_w</text>
</a>
</g>
</g>
<!-- Node40&#45;&gt;Node55 -->
<g id="edge18" class="edge"><title>Node40&#45;&gt;Node55</title>
<path fill="none" stroke="midnightblue" d="M858.449,-241C843.361,-241 827.116,-241 812.005,-241"/>
<polygon fill="midnightblue" stroke="midnightblue" points="858.682,-244.5 868.682,-241 858.682,-237.5 858.682,-244.5"/>
</g>
<!-- Node42 -->
<g id="node5" class="node"><title>Node42</title>
<g id="a_node5"><a xlink:href="namespacemom__ale__sponge.html#a8f6e6db99f860b048a58e97e58c101a6" target="_top" xlink:title="This subroutine applies damping to the layers thicknesses, temp, salt and a variety of tracers for ev...">
<polygon fill="white" stroke="black" points="550,-160 550,-190 654,-190 654,-160 550,-160"/>
<text text-anchor="start" x="558" y="-178" font-family="Helvetica,sans-Serif" font-size="10.00">mom_ale_sponge::apply</text>
<text text-anchor="middle" x="602" y="-167" font-family="Helvetica,sans-Serif" font-size="10.00">_ale_sponge</text>
</a>
</g>
</g>
<!-- Node41&#45;&gt;Node42 -->
<g id="edge4" class="edge"><title>Node41&#45;&gt;Node42</title>
<path fill="none" stroke="midnightblue" d="M705.929,-131.881C684.471,-140.87 659.162,-151.473 639.01,-159.915"/>
<polygon fill="midnightblue" stroke="midnightblue" points="707.302,-135.101 715.173,-128.008 704.598,-128.644 707.302,-135.101"/>
</g>
<!-- Node44 -->
<g id="node7" class="node"><title>Node44</title>
<g id="a_node7"><a xlink:href="namespacemom__state__initialization.html#a71ee3c056ca59c1c3529a4ec22e09fe3" target="_top" xlink:title="Adjust the layer thicknesses by cutting away the top at the depth where the hydrostatic pressure matc...">
<polygon fill="white" stroke="black" points="551.5,-98 551.5,-128 652.5,-128 652.5,-98 551.5,-98"/>
<text text-anchor="start" x="559.5" y="-116" font-family="Helvetica,sans-Serif" font-size="10.00">mom_state_initialization</text>
<text text-anchor="middle" x="602" y="-105" font-family="Helvetica,sans-Serif" font-size="10.00">::cut_off_column_top</text>
</a>
</g>
</g>
<!-- Node41&#45;&gt;Node44 -->
<g id="edge6" class="edge"><title>Node41&#45;&gt;Node44</title>
<path fill="none" stroke="midnightblue" d="M681.609,-113C671.904,-113 662.094,-113 652.848,-113"/>
<polygon fill="midnightblue" stroke="midnightblue" points="681.656,-116.5 691.656,-113 681.655,-109.5 681.656,-116.5"/>
</g>
<!-- Node50 -->
<g id="node13" class="node"><title>Node50</title>
<g id="a_node13"><a xlink:href="namespacemom__diag__remap.html#a4b76283906971bcb94e85c0ed25f4e7b" target="_top" xlink:title="Remap diagnostic field to alternative vertical grid.">
<polygon fill="white" stroke="black" points="551.5,-0 551.5,-30 652.5,-30 652.5,-0 551.5,-0"/>
<text text-anchor="start" x="559.5" y="-18" font-family="Helvetica,sans-Serif" font-size="10.00">mom_diag_remap::diag</text>
<text text-anchor="middle" x="602" y="-7" font-family="Helvetica,sans-Serif" font-size="10.00">_remap_do_remap</text>
</a>
</g>
</g>
<!-- Node41&#45;&gt;Node50 -->
<g id="edge12" class="edge"><title>Node41&#45;&gt;Node50</title>
<path fill="none" stroke="midnightblue" d="M726.374,-91.1752C707.855,-75.4374 681.407,-54.3506 656,-39 650.726,-35.8137 644.957,-32.7833 639.227,-30.0152"/>
<polygon fill="midnightblue" stroke="midnightblue" points="724.181,-93.9061 734.045,-97.7745 728.746,-88.5996 724.181,-93.9061"/>
</g>
<!-- Node51 -->
<g id="node14" class="node"><title>Node51</title>
<g id="a_node14"><a xlink:href="namespacemom__wave__speed.html#a72302e356c47c5055ba0b1a8714c772a" target="_top" xlink:title="Calculates the wave speed of the first baroclinic mode.">
<polygon fill="white" stroke="black" points="548.5,-49 548.5,-79 655.5,-79 655.5,-49 548.5,-49"/>
<text text-anchor="start" x="556.5" y="-67" font-family="Helvetica,sans-Serif" font-size="10.00">mom_wave_speed::wave</text>
<text text-anchor="middle" x="602" y="-56" font-family="Helvetica,sans-Serif" font-size="10.00">_speed</text>
</a>
</g>
</g>
<!-- Node41&#45;&gt;Node51 -->
<g id="edge13" class="edge"><title>Node41&#45;&gt;Node51</title>
<path fill="none" stroke="midnightblue" d="M695.85,-94.7409C680.24,-89.5727 663.431,-84.0076 648.462,-79.0516"/>
<polygon fill="midnightblue" stroke="midnightblue" points="694.794,-98.0781 705.387,-97.8986 696.994,-91.4328 694.794,-98.0781"/>
</g>
<!-- Node43 -->
<g id="node6" class="node"><title>Node43</title>
<g id="a_node6"><a xlink:href="namespacemom__diabatic__driver.html#a61e57d3902367aa46aa3c2d949ee900f" target="_top" xlink:title="This subroutine imposes the diapycnal mass fluxes and the accompanying diapycnal advection of momentu...">
<polygon fill="white" stroke="black" points="406.5,-184 406.5,-214 497.5,-214 497.5,-184 406.5,-184"/>
<text text-anchor="start" x="414.5" y="-202" font-family="Helvetica,sans-Serif" font-size="10.00">mom_diabatic_driver</text>
<text text-anchor="middle" x="452" y="-191" font-family="Helvetica,sans-Serif" font-size="10.00">::diabatic</text>
</a>
</g>
</g>
<!-- Node42&#45;&gt;Node43 -->
<g id="edge5" class="edge"><title>Node42&#45;&gt;Node43</title>
<path fill="none" stroke="midnightblue" d="M539.602,-184.957C525.607,-187.226 510.994,-189.596 497.843,-191.728"/>
<polygon fill="midnightblue" stroke="midnightblue" points="540.341,-188.382 549.652,-183.327 539.221,-181.473 540.341,-188.382"/>
</g>
<!-- Node45 -->
<g id="node8" class="node"><title>Node45</title>
<g id="a_node8"><a xlink:href="namespacemom__state__initialization.html#a5c77bf2b0ea9d28e28b661a2a42d3f88" target="_top" xlink:title="Run simple unit tests.">
<polygon fill="white" stroke="black" points="401.5,-86 401.5,-116 502.5,-116 502.5,-86 401.5,-86"/>
<text text-anchor="start" x="409.5" y="-104" font-family="Helvetica,sans-Serif" font-size="10.00">mom_state_initialization</text>
<text text-anchor="middle" x="452" y="-93" font-family="Helvetica,sans-Serif" font-size="10.00">::mom_state_init_tests</text>
</a>
</g>
</g>
<!-- Node44&#45;&gt;Node45 -->
<g id="edge7" class="edge"><title>Node44&#45;&gt;Node45</title>
<path fill="none" stroke="midnightblue" d="M541.181,-108.15C528.359,-107.11 514.946,-106.023 502.562,-105.019"/>
<polygon fill="midnightblue" stroke="midnightblue" points="541.056,-111.651 551.306,-108.971 541.622,-104.674 541.056,-111.651"/>
</g>
<!-- Node46 -->
<g id="node9" class="node"><title>Node46</title>
<g id="a_node9"><a xlink:href="namespacemom__state__initialization.html#acc1029776c1bdda2862ed0f95c8dc640" target="_top" xlink:title="Adjust the layer thicknesses by cutting away the top of each model column at the depth where the hydr...">
<polygon fill="white" stroke="black" points="401.5,-135 401.5,-165 502.5,-165 502.5,-135 401.5,-135"/>
<text text-anchor="start" x="409.5" y="-153" font-family="Helvetica,sans-Serif" font-size="10.00">mom_state_initialization</text>
<text text-anchor="middle" x="452" y="-142" font-family="Helvetica,sans-Serif" font-size="10.00">::trim_for_ice</text>
</a>
</g>
</g>
<!-- Node44&#45;&gt;Node46 -->
<g id="edge8" class="edge"><title>Node44&#45;&gt;Node46</title>
<path fill="none" stroke="midnightblue" d="M541.561,-127.86C528.624,-131.094 515.069,-134.483 502.562,-137.609"/>
<polygon fill="midnightblue" stroke="midnightblue" points="542.454,-131.244 551.306,-125.423 540.756,-124.453 542.454,-131.244"/>
</g>
<!-- Node47 -->
<g id="node10" class="node"><title>Node47</title>
<g id="a_node10"><a xlink:href="namespacemom__state__initialization.html#af4e854627c6572332ba3fd895f169321" target="_top" xlink:title=" ">
<polygon fill="white" stroke="black" points="236.5,-135 236.5,-165 337.5,-165 337.5,-135 236.5,-135"/>
<text text-anchor="start" x="244.5" y="-153" font-family="Helvetica,sans-Serif" font-size="10.00">mom_state_initialization</text>
<text text-anchor="middle" x="287" y="-142" font-family="Helvetica,sans-Serif" font-size="10.00">::mom_initialize_state</text>
</a>
</g>
</g>
<!-- Node46&#45;&gt;Node47 -->
<g id="edge9" class="edge"><title>Node46&#45;&gt;Node47</title>
<path fill="none" stroke="midnightblue" d="M391.082,-150C373.554,-150 354.591,-150 337.767,-150"/>
<polygon fill="midnightblue" stroke="midnightblue" points="391.209,-153.5 401.209,-150 391.209,-146.5 391.209,-153.5"/>
</g>
<!-- Node48 -->
<g id="node11" class="node"><title>Node48</title>
<g id="a_node11"><a xlink:href="namespacemom.html#a0be2869fef30e1e0604facfe1b41555d" target="_top" xlink:title="This subroutine initializes MOM.">
<polygon fill="white" stroke="black" points="92.5,-140.5 92.5,-159.5 181.5,-159.5 181.5,-140.5 92.5,-140.5"/>
<text text-anchor="middle" x="137" y="-147.5" font-family="Helvetica,sans-Serif" font-size="10.00">mom::initialize_mom</text>
</a>
</g>
</g>
<!-- Node47&#45;&gt;Node48 -->
<g id="edge10" class="edge"><title>Node47&#45;&gt;Node48</title>
<path fill="none" stroke="midnightblue" d="M226.199,-150C211.373,-150 195.756,-150 181.853,-150"/>
<polygon fill="midnightblue" stroke="midnightblue" points="226.306,-153.5 236.306,-150 226.306,-146.5 226.306,-153.5"/>
</g>
<!-- Node49 -->
<g id="node12" class="node"><title>Node49</title>
<g id="a_node12"><a xlink:href="MOM__driver_8F90.html#a08fffeb2d8e8acbf9ed4609be6d258c6" target="_top" xlink:title=" ">
<polygon fill="white" stroke="black" points="0,-106.5 0,-125.5 56,-125.5 56,-106.5 0,-106.5"/>
<text text-anchor="middle" x="28" y="-113.5" font-family="Helvetica,sans-Serif" font-size="10.00">mom_main</text>
</a>
</g>
</g>
<!-- Node48&#45;&gt;Node49 -->
<g id="edge11" class="edge"><title>Node48&#45;&gt;Node49</title>
<path fill="none" stroke="midnightblue" d="M96.0683,-137.311C82.8188,-133.101 68.3805,-128.513 56.3056,-124.677"/>
<polygon fill="midnightblue" stroke="midnightblue" points="95.3194,-140.746 105.91,-140.439 97.4393,-134.075 95.3194,-140.746"/>
</g>
<!-- Node52 -->
<g id="node15" class="node"><title>Node52</title>
<g id="a_node15"><a xlink:href="namespacemom__lateral__mixing__coeffs.html#af206bc656869b4fc27d4d7e8a15d438e" target="_top" xlink:title="Calculates and stores the non&#45;dimensional resolution functions.">
<polygon fill="white" stroke="black" points="243,-31.5 243,-72.5 331,-72.5 331,-31.5 243,-31.5"/>
<text text-anchor="start" x="251" y="-60.5" font-family="Helvetica,sans-Serif" font-size="10.00">mom_lateral_mixing</text>
<text text-anchor="start" x="251" y="-49.5" font-family="Helvetica,sans-Serif" font-size="10.00">_coeffs::calc_resoln</text>
<text text-anchor="middle" x="287" y="-38.5" font-family="Helvetica,sans-Serif" font-size="10.00">_function</text>
</a>
</g>
</g>
<!-- Node51&#45;&gt;Node52 -->
<g id="edge14" class="edge"><title>Node51&#45;&gt;Node52</title>
<path fill="none" stroke="midnightblue" d="M559.111,-44.7467C540.903,-36.7638 521.572,-28.9105 512,-27 459.698,-16.5613 444.963,-20.7237 392,-27 371.715,-29.4039 349.661,-34.3577 331.103,-39.2263"/>
<polygon fill="midnightblue" stroke="midnightblue" points="557.912,-48.0439 568.472,-48.9023 560.752,-41.6459 557.912,-48.0439"/>
</g>
<!-- Node54 -->
<g id="node17" class="node"><title>Node54</title>
<g id="a_node17"><a xlink:href="namespacemom__diagnostics.html#abb6644248c28ab2e952361bfec436063" target="_top" xlink:title=" ">
<polygon fill="white" stroke="black" points="395.5,-37 395.5,-67 508.5,-67 508.5,-37 395.5,-37"/>
<text text-anchor="start" x="403.5" y="-55" font-family="Helvetica,sans-Serif" font-size="10.00">mom_diagnostics::calculate</text>
<text text-anchor="middle" x="452" y="-44" font-family="Helvetica,sans-Serif" font-size="10.00">_diagnostic_fields</text>
</a>
</g>
</g>
<!-- Node51&#45;&gt;Node54 -->
<g id="edge17" class="edge"><title>Node51&#45;&gt;Node54</title>
<path fill="none" stroke="midnightblue" d="M538.285,-58.915C528.451,-58.1177 518.345,-57.2983 508.684,-56.5149"/>
<polygon fill="midnightblue" stroke="midnightblue" points="538.154,-62.4158 548.404,-59.7355 538.72,-55.4387 538.154,-62.4158"/>
</g>
<!-- Node53 -->
<g id="node16" class="node"><title>Node53</title>
<g id="a_node16"><a xlink:href="namespacemom.html#a4c8332b095c6d295084089aa6b3b678a" target="_top" xlink:title="This subroutine orchestrates the time stepping of MOM. The adiabatic dynamics are stepped by calls to...">
<polygon fill="white" stroke="black" points="98.5,-72.5 98.5,-91.5 175.5,-91.5 175.5,-72.5 98.5,-72.5"/>
<text text-anchor="middle" x="137" y="-79.5" font-family="Helvetica,sans-Serif" font-size="10.00">mom::step_mom</text>
</a>
</g>
</g>
<!-- Node52&#45;&gt;Node53 -->
<g id="edge15" class="edge"><title>Node52&#45;&gt;Node53</title>
<path fill="none" stroke="midnightblue" d="M232.871,-62.7694C214.054,-66.5836 193.277,-70.7951 175.976,-74.3023"/>
<polygon fill="midnightblue" stroke="midnightblue" points="233.689,-66.1748 242.794,-60.7579 232.298,-59.3144 233.689,-66.1748"/>
</g>
<!-- Node53&#45;&gt;Node49 -->
<g id="edge16" class="edge"><title>Node53&#45;&gt;Node49</title>
<path fill="none" stroke="midnightblue" d="M96.0683,-94.6886C82.8188,-98.8987 68.3805,-103.487 56.3056,-107.323"/>
<polygon fill="midnightblue" stroke="midnightblue" points="97.4393,-97.9255 105.91,-91.5614 95.3194,-91.2542 97.4393,-97.9255"/>
</g>
<!-- Node56 -->
<g id="node19" class="node"><title>Node56</title>
<g id="a_node19"><a xlink:href="namespacemom__remapping.html#a8a79c37c89f8b800f79198aceca5f090" target="_top" xlink:title="Runs unit tests on remapping functions. Should only be called from a single/root thread Returns True ...">
<polygon fill="white" stroke="black" points="392,-233 392,-263 512,-263 512,-233 392,-233"/>
<text text-anchor="start" x="400" y="-251" font-family="Helvetica,sans-Serif" font-size="10.00">mom_remapping::remapping</text>
<text text-anchor="middle" x="452" y="-240" font-family="Helvetica,sans-Serif" font-size="10.00">_unit_tests</text>
</a>
</g>
</g>
<!-- Node55&#45;&gt;Node56 -->
<g id="edge19" class="edge"><title>Node55&#45;&gt;Node56</title>
<path fill="none" stroke="midnightblue" d="M681.736,-242.627C630.317,-243.835 560.941,-245.464 512.119,-246.611"/>
<polygon fill="midnightblue" stroke="midnightblue" points="681.853,-246.125 691.768,-242.391 681.689,-239.127 681.853,-246.125"/>
</g>
<!-- Node57 -->
<g id="node20" class="node"><title>Node57</title>
<g id="a_node20"><a xlink:href="namespacemom.html#ae77cfd2e790f1266b31d93c58659d46c" target="_top" xlink:title="Calls unit tests for other modules. These are NOT normally invoked and so we provide the module use s...">
<polygon fill="white" stroke="black" points="250.5,-211.5 250.5,-230.5 323.5,-230.5 323.5,-211.5 250.5,-211.5"/>
<text text-anchor="middle" x="287" y="-218.5" font-family="Helvetica,sans-Serif" font-size="10.00">mom::unit_tests</text>
</a>
</g>
</g>
<!-- Node56&#45;&gt;Node57 -->
<g id="edge20" class="edge"><title>Node56&#45;&gt;Node57</title>
<path fill="none" stroke="midnightblue" d="M381.692,-236.52C361.747,-233.216 340.805,-229.747 323.792,-226.929"/>
<polygon fill="midnightblue" stroke="midnightblue" points="381.255,-239.995 391.692,-238.176 382.399,-233.089 381.255,-239.995"/>
</g>
<!-- Node57&#45;&gt;Node48 -->
<g id="edge21" class="edge"><title>Node57&#45;&gt;Node48</title>
<path fill="none" stroke="midnightblue" d="M256.767,-206.976C227.601,-192.984 183.571,-171.862 158.116,-159.65"/>
<polygon fill="midnightblue" stroke="midnightblue" points="255.51,-210.255 266.04,-211.425 258.538,-203.944 255.51,-210.255"/>
</g>
<!-- Node59 -->
<g id="node22" class="node"><title>Node59</title>
<g id="a_node22"><a xlink:href="namespacemom__regridding.html#acbe376c457e1ea0c4514b948cbf5144b" target="_top" xlink:title=" ">
<polygon fill="white" stroke="black" points="704,-324 704,-354 800,-354 800,-324 704,-324"/>
<text text-anchor="start" x="712" y="-342" font-family="Helvetica,sans-Serif" font-size="10.00">mom_regridding::build</text>
<text text-anchor="middle" x="752" y="-331" font-family="Helvetica,sans-Serif" font-size="10.00">_hycom1_column</text>
</a>
</g>
</g>
<!-- Node58&#45;&gt;Node59 -->
<g id="edge23" class="edge"><title>Node58&#45;&gt;Node59</title>
<path fill="none" stroke="midnightblue" d="M856.831,-307.977C838.096,-313.575 817.72,-319.663 800.021,-324.951"/>
<polygon fill="midnightblue" stroke="midnightblue" points="857.877,-311.318 866.456,-305.101 855.873,-304.611 857.877,-311.318"/>
</g>
<!-- Node62 -->
<g id="node25" class="node"><title>Node62</title>
<g id="a_node25"><a xlink:href="namespacemom__regridding.html#a799aacb5c6e7ab70f8177ca8b4a5330b" target="_top" xlink:title=" ">
<polygon fill="white" stroke="black" points="704,-275 704,-305 800,-305 800,-275 704,-275"/>
<text text-anchor="start" x="712" y="-293" font-family="Helvetica,sans-Serif" font-size="10.00">mom_regridding::build</text>
<text text-anchor="middle" x="752" y="-282" font-family="Helvetica,sans-Serif" font-size="10.00">_rho_column</text>
</a>
</g>
</g>
<!-- Node58&#45;&gt;Node62 -->
<g id="edge26" class="edge"><title>Node58&#45;&gt;Node62</title>
<path fill="none" stroke="midnightblue" d="M849.435,-290C832.835,-290 815.419,-290 800.027,-290"/>
<polygon fill="midnightblue" stroke="midnightblue" points="849.641,-293.5 859.641,-290 849.641,-286.5 849.641,-293.5"/>
</g>
<!-- Node64 -->
<g id="node27" class="node"><title>Node64</title>
<g id="a_node27"><a xlink:href="namespacemom__regridding.html#aacf680ddf88e9c41a340dd426272906d" target="_top" xlink:title="Finds the new interface locations in a column of water that match the prescribed target densities.">
<polygon fill="white" stroke="black" points="706,-373 706,-403 798,-403 798,-373 706,-373"/>
<text text-anchor="start" x="714" y="-391" font-family="Helvetica,sans-Serif" font-size="10.00">mom_regridding::rho</text>
<text text-anchor="middle" x="752" y="-380" font-family="Helvetica,sans-Serif" font-size="10.00">_interfaces_col</text>
</a>
</g>
</g>
<!-- Node58&#45;&gt;Node64 -->
<g id="edge29" class="edge"><title>Node58&#45;&gt;Node64</title>
<path fill="none" stroke="midnightblue" d="M889.667,-311.35C869.049,-326.863 839.679,-347.729 812,-363 805.571,-366.547 798.536,-369.927 791.634,-372.989"/>
<polygon fill="midnightblue" stroke="midnightblue" points="891.821,-314.109 897.664,-305.271 887.585,-308.537 891.821,-314.109"/>
</g>
<!-- Node60 -->
<g id="node23" class="node"><title>Node60</title>
<g id="a_node23"><a xlink:href="namespacemom__regridding.html#a3375da62433b875eed537feeba1ae1b3" target="_top" xlink:title="Builds a simple HyCOM&#45;like grid with the deepest location of potential density interpolated from the ...">
<polygon fill="white" stroke="black" points="404,-324 404,-354 500,-354 500,-324 404,-324"/>
<text text-anchor="start" x="412" y="-342" font-family="Helvetica,sans-Serif" font-size="10.00">mom_regridding::build</text>
<text text-anchor="middle" x="452" y="-331" font-family="Helvetica,sans-Serif" font-size="10.00">_grid_hycom1</text>
</a>
</g>
</g>
<!-- Node59&#45;&gt;Node60 -->
<g id="edge24" class="edge"><title>Node59&#45;&gt;Node60</title>
<path fill="none" stroke="midnightblue" d="M693.642,-339C637.5,-339 552.977,-339 500.491,-339"/>
<polygon fill="midnightblue" stroke="midnightblue" points="693.781,-342.5 703.781,-339 693.781,-335.5 693.781,-342.5"/>
</g>
<!-- Node61 -->
<g id="node24" class="node"><title>Node61</title>
<g id="a_node24"><a xlink:href="namespacemom__regridding.html#abf6d4e0d14c8b3b69fa4ffca42122c5f" target="_top" xlink:title=" ">
<polygon fill="white" stroke="black" points="218.5,-329.5 218.5,-348.5 355.5,-348.5 355.5,-329.5 218.5,-329.5"/>
<text text-anchor="middle" x="287" y="-336.5" font-family="Helvetica,sans-Serif" font-size="10.00">mom_regridding::regridding_main</text>
</a>
</g>
</g>
<!-- Node60&#45;&gt;Node61 -->
<g id="edge25" class="edge"><title>Node60&#45;&gt;Node61</title>
<path fill="none" stroke="midnightblue" d="M393.735,-339C381.428,-339 368.31,-339 355.652,-339"/>
<polygon fill="midnightblue" stroke="midnightblue" points="393.854,-342.5 403.854,-339 393.854,-335.5 393.854,-342.5"/>
</g>
<!-- Node63 -->
<g id="node26" class="node"><title>Node63</title>
<g id="a_node26"><a xlink:href="namespacemom__regridding.html#a58a19305bbdab26bfa4f336dfac8c4f8" target="_top" xlink:title=" ">
<polygon fill="white" stroke="black" points="554,-277 554,-307 650,-307 650,-277 554,-277"/>
<text text-anchor="start" x="562" y="-295" font-family="Helvetica,sans-Serif" font-size="10.00">mom_regridding::build</text>
<text text-anchor="middle" x="602" y="-284" font-family="Helvetica,sans-Serif" font-size="10.00">_rho_grid</text>
</a>
</g>
</g>
<!-- Node62&#45;&gt;Node63 -->
<g id="edge27" class="edge"><title>Node62&#45;&gt;Node63</title>
<path fill="none" stroke="midnightblue" d="M693.482,-290.777C679.101,-290.972 663.846,-291.178 650.04,-291.364"/>
<polygon fill="midnightblue" stroke="midnightblue" points="693.813,-294.273 703.765,-290.638 693.719,-287.274 693.813,-294.273"/>
</g>
<!-- Node63&#45;&gt;Node61 -->
<g id="edge28" class="edge"><title>Node63&#45;&gt;Node61</title>
<path fill="none" stroke="midnightblue" d="M543.78,-295.99C501.62,-299.422 442.99,-305.227 392,-314 368.758,-317.999 342.981,-324.183 322.904,-329.4"/>
<polygon fill="midnightblue" stroke="midnightblue" points="544.168,-299.47 553.859,-295.189 543.613,-292.492 544.168,-299.47"/>
</g>
<!-- Node65 -->
<g id="node28" class="node"><title>Node65</title>
<g id="a_node28"><a xlink:href="namespacemom__regridding.html#a5927168e530c06163baf3693a804e15f" target="_top" xlink:title=" ">
<polygon fill="white" stroke="black" points="554,-373 554,-403 650,-403 650,-373 554,-373"/>
<text text-anchor="start" x="562" y="-391" font-family="Helvetica,sans-Serif" font-size="10.00">mom_regridding::build</text>
<text text-anchor="middle" x="602" y="-380" font-family="Helvetica,sans-Serif" font-size="10.00">_slight_column</text>
</a>
</g>
</g>
<!-- Node64&#45;&gt;Node65 -->
<g id="edge30" class="edge"><title>Node64&#45;&gt;Node65</title>
<path fill="none" stroke="midnightblue" d="M695.654,-388C680.714,-388 664.689,-388 650.238,-388"/>
<polygon fill="midnightblue" stroke="midnightblue" points="695.791,-391.5 705.791,-388 695.791,-384.5 695.791,-391.5"/>
</g>
<!-- Node66 -->
<g id="node29" class="node"><title>Node66</title>
<g id="a_node29"><a xlink:href="namespacemom__regridding.html#adbdde4ab6606ab76f64f57b7ee5dfdeb" target="_top" xlink:title="Builds a grid that tracks density interfaces for water that is denser than the surface density plus a...">
<polygon fill="white" stroke="black" points="404,-373 404,-403 500,-403 500,-373 404,-373"/>
<text text-anchor="start" x="412" y="-391" font-family="Helvetica,sans-Serif" font-size="10.00">mom_regridding::build</text>
<text text-anchor="middle" x="452" y="-380" font-family="Helvetica,sans-Serif" font-size="10.00">_grid_slight</text>
</a>
</g>
</g>
<!-- Node65&#45;&gt;Node66 -->
<g id="edge31" class="edge"><title>Node65&#45;&gt;Node66</title>
<path fill="none" stroke="midnightblue" d="M543.482,-388C529.101,-388 513.846,-388 500.04,-388"/>
<polygon fill="midnightblue" stroke="midnightblue" points="543.765,-391.5 553.765,-388 543.765,-384.5 543.765,-391.5"/>
</g>
<!-- Node66&#45;&gt;Node61 -->
<g id="edge32" class="edge"><title>Node66&#45;&gt;Node61</title>
<path fill="none" stroke="midnightblue" d="M394.138,-370.907C369.23,-363.419 340.932,-354.912 319.823,-348.566"/>
<polygon fill="midnightblue" stroke="midnightblue" points="393.269,-374.3 403.854,-373.827 395.285,-367.596 393.269,-374.3"/>
</g>
<!-- Node67&#45;&gt;Node40 -->
<g id="edge34" class="edge"><title>Node67&#45;&gt;Node40</title>
<path fill="none" stroke="midnightblue" d="M1018.55,-271.873C1001.67,-266.638 983.446,-260.987 967.262,-255.967"/>
<polygon fill="midnightblue" stroke="midnightblue" points="1017.72,-275.279 1028.31,-274.899 1019.79,-268.593 1017.72,-275.279"/>
</g>
<!-- Node67&#45;&gt;Node58 -->
<g id="edge35" class="edge"><title>Node67&#45;&gt;Node58</title>
<path fill="none" stroke="midnightblue" d="M1014.07,-290C1001.59,-290 988.55,-290 976.272,-290"/>
<polygon fill="midnightblue" stroke="midnightblue" points="1014.39,-293.5 1024.39,-290 1014.39,-286.5 1014.39,-293.5"/>
</g>
<!-- Node68&#45;&gt;Node40 -->
<g id="edge37" class="edge"><title>Node68&#45;&gt;Node40</title>
<path fill="none" stroke="midnightblue" d="M1018.55,-210.127C1001.67,-215.362 983.446,-221.013 967.262,-226.033"/>
<polygon fill="midnightblue" stroke="midnightblue" points="1019.79,-213.407 1028.31,-207.101 1017.72,-206.721 1019.79,-213.407"/>
</g>
<!-- Node69 -->
<g id="node32" class="node"><title>Node69</title>
<g id="a_node32"><a xlink:href="namespacemom__ale.html#aea1b73dedf1ae5f3db9fa0a6aa6ebaa0" target="_top" xlink:title="Use ppm reconstruction for pressure gradient (determine edge values) By using a PPM (limited piecewis...">
<polygon fill="white" stroke="black" points="848,-182.5 848,-201.5 988,-201.5 988,-182.5 848,-182.5"/>
<text text-anchor="middle" x="918" y="-189.5" font-family="Helvetica,sans-Serif" font-size="10.00">mom_ale::pressure_gradient_ppm</text>
</a>
</g>
</g>
<!-- Node68&#45;&gt;Node69 -->
<g id="edge38" class="edge"><title>Node68&#45;&gt;Node69</title>
<path fill="none" stroke="midnightblue" d="M1014.16,-192C1005.64,-192 996.868,-192 988.249,-192"/>
<polygon fill="midnightblue" stroke="midnightblue" points="1014.39,-195.5 1024.39,-192 1014.39,-188.5 1014.39,-195.5"/>
</g>
<!-- Node68&#45;&gt;Node58 -->
<g id="edge39" class="edge"><title>Node68&#45;&gt;Node58</title>
<path fill="none" stroke="midnightblue" d="M1028.79,-212.428C1027.13,-213.569 1025.53,-214.76 1024,-216 1003.01,-233.017 1009.64,-248.81 988,-265 982.899,-268.817 977.159,-272.096 971.223,-274.903"/>
<polygon fill="midnightblue" stroke="midnightblue" points="1030.74,-215.337 1037.44,-207.131 1027.09,-209.367 1030.74,-215.337"/>
</g>
<!-- Node70&#45;&gt;Node40 -->
<g id="edge41" class="edge"><title>Node70&#45;&gt;Node40</title>
<path fill="none" stroke="midnightblue" d="M1014.24,-241C998.55,-241 981.97,-241 967.119,-241"/>
<polygon fill="midnightblue" stroke="midnightblue" points="1014.39,-244.5 1024.39,-241 1014.39,-237.5 1014.39,-244.5"/>
</g>
<!-- Node70&#45;&gt;Node58 -->
<g id="edge42" class="edge"><title>Node70&#45;&gt;Node58</title>
<path fill="none" stroke="midnightblue" d="M1018.6,-259.113C1001.8,-264.322 983.665,-269.946 967.534,-274.948"/>
<polygon fill="midnightblue" stroke="midnightblue" points="1019.79,-262.407 1028.31,-256.101 1017.72,-255.721 1019.79,-262.407"/>
</g>
</g>
</svg>
