<?xml version="1.0" encoding="UTF-8" standalone="no"?>
<!DOCTYPE svg PUBLIC "-//W3C//DTD SVG 1.1//EN"
 "http://www.w3.org/Graphics/SVG/1.1/DTD/svg11.dtd">
<!-- Generated by graphviz version 2.30.1 (20170916.1124)
 -->
<!-- Title: mom_set_diffusivity::find_tke_to_kd Pages: 1 -->
<svg width="216pt" height="38pt"
 viewBox="0.00 0.00 216.00 38.00" xmlns="http://www.w3.org/2000/svg" xmlns:xlink="http://www.w3.org/1999/xlink">
<g id="graph0" class="graph" transform="scale(1 1) rotate(0) translate(4 34)">
<title>mom_set_diffusivity::find_tke_to_kd</title>
<polygon fill="white" stroke="white" points="-4,5 -4,-34 213,-34 213,5 -4,5"/>
<!-- Node25 -->
<g id="node1" class="node"><title>Node25</title>
<g id="a_node1"><a xlink:title=" ">
<polygon fill="#bfbfbf" stroke="black" points="0,-0 0,-30 86,-30 86,-0 0,-0"/>
<text text-anchor="start" x="8" y="-18" font-family="Helvetica,sans-Serif" font-size="10.00">mom_set_diffusivity</text>
<text text-anchor="middle" x="43" y="-7" font-family="Helvetica,sans-Serif" font-size="10.00">::find_tke_to_kd</text>
</a>
</g>
</g>
<!-- Node26 -->
<g id="node2" class="node"><title>Node26</title>
<g id="a_node2"><a xlink:href="namespacemom__set__diffusivity.html#ae1b3a63b8470de5a3d9ba9706376281b" target="_top" xlink:title=" ">
<polygon fill="white" stroke="black" points="122,-0 122,-30 208,-30 208,-0 122,-0"/>
<text text-anchor="start" x="130" y="-18" font-family="Helvetica,sans-Serif" font-size="10.00">mom_set_diffusivity</text>
<text text-anchor="middle" x="165" y="-7" font-family="Helvetica,sans-Serif" font-size="10.00">::set_density_ratios</text>
</a>
</g>
</g>
<!-- Node25&#45;&gt;Node26 -->
<g id="edge1" class="edge"><title>Node25&#45;&gt;Node26</title>
<path fill="none" stroke="midnightblue" d="M86.3075,-15C94.4629,-15 103.097,-15 111.53,-15"/>
<polygon fill="midnightblue" stroke="midnightblue" points="111.67,-18.5001 121.67,-15 111.67,-11.5001 111.67,-18.5001"/>
</g>
</g>
</svg>
