<?xml version="1.0" encoding="UTF-8" standalone="no"?>
<!DOCTYPE svg PUBLIC "-//W3C//DTD SVG 1.1//EN"
 "http://www.w3.org/Graphics/SVG/1.1/DTD/svg11.dtd">
<!-- Generated by graphviz version 2.30.1 (20170916.1124)
 -->
<!-- Title: mom_ice_shelf::ice_shelf_solve_outer Pages: 1 -->
<svg width="694pt" height="630pt"
 viewBox="0.00 0.00 694.00 630.26" xmlns="http://www.w3.org/2000/svg" xmlns:xlink="http://www.w3.org/1999/xlink">
<g id="graph0" class="graph" transform="scale(1 1) rotate(0) translate(4 626.263)">
<title>mom_ice_shelf::ice_shelf_solve_outer</title>
<polygon fill="white" stroke="white" points="-4,5 -4,-626.263 691,-626.263 691,5 -4,5"/>
<!-- Node208 -->
<g id="node1" class="node"><title>Node208</title>
<g id="a_node1"><a xlink:title=" ">
<polygon fill="#bfbfbf" stroke="black" points="0,-284 0,-314 84,-314 84,-284 0,-284"/>
<text text-anchor="start" x="8" y="-302" font-family="Helvetica,sans-Serif" font-size="10.00">mom_ice_shelf::ice</text>
<text text-anchor="middle" x="42" y="-291" font-family="Helvetica,sans-Serif" font-size="10.00">_shelf_solve_outer</text>
</a>
</g>
</g>
<!-- Node209 -->
<g id="node2" class="node"><title>Node209</title>
<g id="a_node2"><a xlink:href="namespacemom__ice__shelf.html#a5d534895698ad80a68be9a1b992c4d0b" target="_top" xlink:title=" ">
<polygon fill="white" stroke="black" points="269,-404 269,-434 381,-434 381,-404 269,-404"/>
<text text-anchor="start" x="277" y="-422" font-family="Helvetica,sans-Serif" font-size="10.00">mom_ice_shelf::apply</text>
<text text-anchor="middle" x="325" y="-411" font-family="Helvetica,sans-Serif" font-size="10.00">_boundary_values_bilinear</text>
</a>
</g>
</g>
<!-- Node208&#45;&gt;Node209 -->
<g id="edge1" class="edge"><title>Node208&#45;&gt;Node209</title>
<path fill="none" stroke="midnightblue" d="M56.9012,-314.09C71.3226,-328.874 95.201,-351.019 120,-364 163.533,-386.787 217.364,-400.786 258.796,-408.955"/>
<polygon fill="midnightblue" stroke="midnightblue" points="258.3,-412.423 268.779,-410.858 259.611,-405.547 258.3,-412.423"/>
</g>
<!-- Node213 -->
<g id="node6" class="node"><title>Node213</title>
<g id="a_node6"><a xlink:href="namespacemom__ice__shelf.html#a6d1174213d77aef09d2eaae2fd138edd" target="_top" xlink:title=" ">
<polygon fill="white" stroke="black" points="268.5,-551 268.5,-581 381.5,-581 381.5,-551 268.5,-551"/>
<text text-anchor="start" x="276.5" y="-569" font-family="Helvetica,sans-Serif" font-size="10.00">mom_ice_shelf::apply</text>
<text text-anchor="middle" x="325" y="-558" font-family="Helvetica,sans-Serif" font-size="10.00">_boundary_values_triangle</text>
</a>
</g>
</g>
<!-- Node208&#45;&gt;Node213 -->
<g id="edge5" class="edge"><title>Node208&#45;&gt;Node213</title>
<path fill="none" stroke="midnightblue" d="M45.0852,-314.167C50.693,-349.336 69.2644,-437.232 120,-487 157.558,-523.841 214.201,-543.943 258.278,-554.635"/>
<polygon fill="midnightblue" stroke="midnightblue" points="257.517,-558.051 268.049,-556.902 259.099,-551.232 257.517,-558.051"/>
</g>
<!-- Node210 -->
<g id="node3" class="node"><title>Node210</title>
<g id="a_node3"><a xlink:href="namespacemom__ice__shelf.html#a9f77faf4c64078c8bce0546bb024f34e" target="_top" xlink:title=" ">
<polygon fill="white" stroke="black" points="427,-477 427,-507 527,-507 527,-477 427,-477"/>
<text text-anchor="start" x="435" y="-495" font-family="Helvetica,sans-Serif" font-size="10.00">mom_ice_shelf::bilinear</text>
<text text-anchor="middle" x="477" y="-484" font-family="Helvetica,sans-Serif" font-size="10.00">_shape_functions</text>
</a>
</g>
</g>
<!-- Node208&#45;&gt;Node210 -->
<g id="edge6" class="edge"><title>Node208&#45;&gt;Node210</title>
<path fill="none" stroke="midnightblue" d="M43.8013,-314.136C46.7313,-354.541 60.1163,-466.194 120,-530 201.75,-617.105 280.555,-653.082 382,-590 412.72,-570.897 391.774,-541.917 418,-517 419.647,-515.435 421.407,-513.96 423.252,-512.57"/>
<polygon fill="midnightblue" stroke="midnightblue" points="425.32,-515.4 431.788,-507.009 421.498,-509.535 425.32,-515.4"/>
</g>
<!-- Node214 -->
<g id="node7" class="node"><title>Node214</title>
<g id="a_node7"><a xlink:href="namespacemom__ice__shelf.html#a4714299e786f7e62fa2c82916dac2316" target="_top" xlink:title=" ">
<polygon fill="white" stroke="black" points="121,-284 121,-314 231,-314 231,-284 121,-284"/>
<text text-anchor="start" x="129" y="-302" font-family="Helvetica,sans-Serif" font-size="10.00">mom_ice_shelf::bilinear</text>
<text text-anchor="middle" x="176" y="-291" font-family="Helvetica,sans-Serif" font-size="10.00">_shape_functions_subgrid</text>
</a>
</g>
</g>
<!-- Node208&#45;&gt;Node214 -->
<g id="edge7" class="edge"><title>Node208&#45;&gt;Node214</title>
<path fill="none" stroke="midnightblue" d="M84.0421,-299C92.5101,-299 101.621,-299 110.689,-299"/>
<polygon fill="midnightblue" stroke="midnightblue" points="110.873,-302.5 120.873,-299 110.873,-295.5 110.873,-302.5"/>
</g>
<!-- Node215 -->
<g id="node8" class="node"><title>Node215</title>
<g id="a_node8"><a xlink:href="namespacemom__ice__shelf.html#a9ccd473e87beaec693c8d90e7d68ed8f" target="_top" xlink:title=" ">
<polygon fill="white" stroke="black" points="130.5,-235 130.5,-265 221.5,-265 221.5,-235 130.5,-235"/>
<text text-anchor="start" x="138.5" y="-253" font-family="Helvetica,sans-Serif" font-size="10.00">mom_ice_shelf::calc</text>
<text text-anchor="middle" x="176" y="-242" font-family="Helvetica,sans-Serif" font-size="10.00">_shelf_driving_stress</text>
</a>
</g>
</g>
<!-- Node208&#45;&gt;Node215 -->
<g id="edge8" class="edge"><title>Node208&#45;&gt;Node215</title>
<path fill="none" stroke="midnightblue" d="M83.6814,-283.899C96.6042,-279.101 111.053,-273.738 124.577,-268.718"/>
<polygon fill="midnightblue" stroke="midnightblue" points="126.069,-271.897 134.226,-265.136 123.633,-265.335 126.069,-271.897"/>
</g>
<!-- Node217 -->
<g id="node10" class="node"><title>Node217</title>
<g id="a_node10"><a xlink:href="namespacemom__ice__shelf.html#ac7bf50703bb671dbde1016061a04e3c9" target="_top" xlink:title=" ">
<polygon fill="white" stroke="black" points="132,-147 132,-177 220,-177 220,-147 132,-147"/>
<text text-anchor="start" x="140" y="-165" font-family="Helvetica,sans-Serif" font-size="10.00">mom_ice_shelf::calc</text>
<text text-anchor="middle" x="176" y="-154" font-family="Helvetica,sans-Serif" font-size="10.00">_shelf_visc_bilinear</text>
</a>
</g>
</g>
<!-- Node208&#45;&gt;Node217 -->
<g id="edge10" class="edge"><title>Node208&#45;&gt;Node217</title>
<path fill="none" stroke="midnightblue" d="M50.9578,-283.888C63.3114,-261.551 88.944,-219.414 120,-192 123.926,-188.535 128.32,-185.312 132.867,-182.363"/>
<polygon fill="midnightblue" stroke="midnightblue" points="134.954,-185.192 141.719,-177.038 131.346,-179.194 134.954,-185.192"/>
</g>
<!-- Node218 -->
<g id="node11" class="node"><title>Node218</title>
<g id="a_node11"><a xlink:href="namespacemom__ice__shelf.html#a69286817781f164a0af096b050e3ccc4" target="_top" xlink:title=" ">
<polygon fill="white" stroke="black" points="129.5,-98 129.5,-128 222.5,-128 222.5,-98 129.5,-98"/>
<text text-anchor="start" x="137.5" y="-116" font-family="Helvetica,sans-Serif" font-size="10.00">mom_ice_shelf::calc</text>
<text text-anchor="middle" x="176" y="-105" font-family="Helvetica,sans-Serif" font-size="10.00">_shelf_visc_triangular</text>
</a>
</g>
</g>
<!-- Node208&#45;&gt;Node218 -->
<g id="edge11" class="edge"><title>Node208&#45;&gt;Node218</title>
<path fill="none" stroke="midnightblue" d="M46.5615,-283.621C54.5403,-252.307 76.6427,-180.521 120,-138 121.46,-136.568 123.017,-135.209 124.648,-133.92"/>
<polygon fill="midnightblue" stroke="midnightblue" points="126.992,-136.559 133.304,-128.049 123.063,-130.766 126.992,-136.559"/>
</g>
<!-- Node219 -->
<g id="node12" class="node"><title>Node219</title>
<g id="a_node12"><a xlink:href="namespacemom__ice__shelf.html#a08bef308dd58f20b81330c5706f71e1f" target="_top" xlink:title=" ">
<polygon fill="white" stroke="black" points="271,-355 271,-385 379,-385 379,-355 271,-355"/>
<text text-anchor="start" x="279" y="-373" font-family="Helvetica,sans-Serif" font-size="10.00">mom_ice_shelf::cg_action</text>
<text text-anchor="middle" x="325" y="-362" font-family="Helvetica,sans-Serif" font-size="10.00">_bilinear</text>
</a>
</g>
</g>
<!-- Node208&#45;&gt;Node219 -->
<g id="edge12" class="edge"><title>Node208&#45;&gt;Node219</title>
<path fill="none" stroke="midnightblue" d="M67.0656,-314.122C81.8145,-322.713 101.38,-332.933 120,-339 165.844,-353.936 219.872,-361.736 260.807,-365.774"/>
<polygon fill="midnightblue" stroke="midnightblue" points="260.635,-369.274 270.918,-366.722 261.289,-362.304 260.635,-369.274"/>
</g>
<!-- Node220 -->
<g id="node13" class="node"><title>Node220</title>
<g id="a_node13"><a xlink:href="namespacemom__ice__shelf.html#a0ad3713e3c3ee71d987d6cd82c45181e" target="_top" xlink:title=" ">
<polygon fill="white" stroke="black" points="271,-306 271,-336 379,-336 379,-306 271,-306"/>
<text text-anchor="start" x="279" y="-324" font-family="Helvetica,sans-Serif" font-size="10.00">mom_ice_shelf::cg_action</text>
<text text-anchor="middle" x="325" y="-313" font-family="Helvetica,sans-Serif" font-size="10.00">_triangular</text>
</a>
</g>
</g>
<!-- Node208&#45;&gt;Node220 -->
<g id="edge14" class="edge"><title>Node208&#45;&gt;Node220</title>
<path fill="none" stroke="midnightblue" d="M83.2207,-314.046C94.9128,-317.73 107.818,-321.146 120,-323 166.805,-330.125 220.351,-329.264 260.837,-326.814"/>
<polygon fill="midnightblue" stroke="midnightblue" points="261.086,-330.306 270.837,-326.161 260.63,-323.321 261.086,-330.306"/>
</g>
<!-- Node221 -->
<g id="node14" class="node"><title>Node221</title>
<g id="a_node14"><a xlink:href="namespacemom__ice__shelf.html#a95d21b019a635ad3a8ef060d765362e1" target="_top" xlink:title=" ">
<polygon fill="white" stroke="black" points="134,-448 134,-478 218,-478 218,-448 134,-448"/>
<text text-anchor="start" x="142" y="-466" font-family="Helvetica,sans-Serif" font-size="10.00">mom_ice_shelf::ice</text>
<text text-anchor="middle" x="176" y="-455" font-family="Helvetica,sans-Serif" font-size="10.00">_shelf_solve_inner</text>
</a>
</g>
</g>
<!-- Node208&#45;&gt;Node221 -->
<g id="edge15" class="edge"><title>Node208&#45;&gt;Node221</title>
<path fill="none" stroke="midnightblue" d="M48.4476,-314.02C58.7928,-340.808 83.5542,-397.355 120,-433 123.509,-436.432 127.49,-439.586 131.667,-442.454"/>
<polygon fill="midnightblue" stroke="midnightblue" points="130.095,-445.599 140.429,-447.935 133.807,-439.664 130.095,-445.599"/>
</g>
<!-- Node225 -->
<g id="node18" class="node"><title>Node225</title>
<g id="a_node18"><a xlink:href="namespacemom__ice__shelf.html#a8fc399c376152f2d639b506ff8a7ee24" target="_top" xlink:title=" ">
<polygon fill="white" stroke="black" points="120,-49 120,-79 232,-79 232,-49 120,-49"/>
<text text-anchor="start" x="128" y="-67" font-family="Helvetica,sans-Serif" font-size="10.00">mom_ice_shelf::interpolate</text>
<text text-anchor="middle" x="176" y="-56" font-family="Helvetica,sans-Serif" font-size="10.00">_h_to_b</text>
</a>
</g>
</g>
<!-- Node208&#45;&gt;Node225 -->
<g id="edge24" class="edge"><title>Node208&#45;&gt;Node225</title>
<path fill="none" stroke="midnightblue" d="M44.5384,-283.992C49.1368,-246.432 65.9978,-147.223 120,-89 121.337,-87.5581 122.774,-86.1933 124.288,-84.902"/>
<polygon fill="midnightblue" stroke="midnightblue" points="126.344,-87.7341 132.403,-79.0422 122.246,-82.0591 126.344,-87.7341"/>
</g>
<!-- Node226 -->
<g id="node19" class="node"><title>Node226</title>
<g id="a_node19"><a xlink:href="namespacemom__error__handler.html#ad5f00a53059c72fe2332d1436c80ca71" target="_top" xlink:title=" ">
<polygon fill="white" stroke="black" points="129.5,-0 129.5,-30 222.5,-30 222.5,-0 129.5,-0"/>
<text text-anchor="start" x="137.5" y="-18" font-family="Helvetica,sans-Serif" font-size="10.00">mom_error_handler::</text>
<text text-anchor="middle" x="176" y="-7" font-family="Helvetica,sans-Serif" font-size="10.00">is_root_pe</text>
</a>
</g>
</g>
<!-- Node208&#45;&gt;Node226 -->
<g id="edge25" class="edge"><title>Node208&#45;&gt;Node226</title>
<path fill="none" stroke="midnightblue" d="M43.235,-283.697C44.7094,-239.976 54.6987,-112.911 120,-39 120.759,-38.1412 121.554,-37.3119 122.381,-36.5111"/>
<polygon fill="midnightblue" stroke="midnightblue" points="124.883,-38.9947 130.56,-30.0492 120.544,-33.502 124.883,-38.9947"/>
</g>
<!-- Node216 -->
<g id="node9" class="node"><title>Node216</title>
<g id="a_node9"><a xlink:href="namespacemom__ice__shelf.html#a55464f46b7f452abe25f8dde166cee51" target="_top" xlink:title=" ">
<polygon fill="white" stroke="black" points="268,-218.5 268,-237.5 382,-237.5 382,-218.5 268,-218.5"/>
<text text-anchor="middle" x="325" y="-225.5" font-family="Helvetica,sans-Serif" font-size="10.00">mom_ice_shelf::savearray2</text>
</a>
</g>
</g>
<!-- Node208&#45;&gt;Node216 -->
<g id="edge26" class="edge"><title>Node208&#45;&gt;Node216</title>
<path fill="none" stroke="midnightblue" d="M53.3825,-283.746C66.5006,-265.983 90.9112,-237.597 120,-226 168.478,-206.673 228.735,-210.257 271.15,-216.781"/>
<polygon fill="midnightblue" stroke="midnightblue" points="270.826,-220.275 281.262,-218.443 271.962,-213.367 270.826,-220.275"/>
</g>
<!-- Node209&#45;&gt;Node210 -->
<g id="edge2" class="edge"><title>Node209&#45;&gt;Node210</title>
<path fill="none" stroke="midnightblue" d="M360.484,-434.055C367.629,-437.269 375.084,-440.693 382,-444 400.691,-452.937 421.207,-463.342 438.291,-472.176"/>
<polygon fill="midnightblue" stroke="midnightblue" points="436.907,-475.401 447.395,-476.903 440.133,-469.189 436.907,-475.401"/>
</g>
<!-- Node212 -->
<g id="node5" class="node"><title>Node212</title>
<g id="a_node5"><a xlink:href="namespacemom__ice__shelf.html#a925d19b978b5368c3b0d5cae3b542bfe" target="_top" xlink:title=" ">
<polygon fill="white" stroke="black" points="423,-379 423,-409 531,-409 531,-379 423,-379"/>
<text text-anchor="start" x="431" y="-397" font-family="Helvetica,sans-Serif" font-size="10.00">mom_ice_shelf::cg_action</text>
<text text-anchor="middle" x="477" y="-386" font-family="Helvetica,sans-Serif" font-size="10.00">_subgrid_basal_bilinear</text>
</a>
</g>
</g>
<!-- Node209&#45;&gt;Node212 -->
<g id="edge4" class="edge"><title>Node209&#45;&gt;Node212</title>
<path fill="none" stroke="midnightblue" d="M381.003,-409.833C391.268,-408.122 402.071,-406.321 412.566,-404.572"/>
<polygon fill="midnightblue" stroke="midnightblue" points="413.216,-408.012 422.505,-402.916 412.066,-401.108 413.216,-408.012"/>
</g>
<!-- Node211 -->
<g id="node4" class="node"><title>Node211</title>
<g id="a_node4"><a xlink:href="namespacemom__ice__shelf.html#a43bcb4adfaabc54cd57ad8d96b71c224" target="_top" xlink:title=" ">
<polygon fill="white" stroke="black" points="572.5,-482.5 572.5,-501.5 685.5,-501.5 685.5,-482.5 572.5,-482.5"/>
<text text-anchor="middle" x="629" y="-489.5" font-family="Helvetica,sans-Serif" font-size="10.00">mom_ice_shelf::quad_area</text>
</a>
</g>
</g>
<!-- Node210&#45;&gt;Node211 -->
<g id="edge3" class="edge"><title>Node210&#45;&gt;Node211</title>
<path fill="none" stroke="midnightblue" d="M527.116,-492C538.284,-492 550.325,-492 562.065,-492"/>
<polygon fill="midnightblue" stroke="midnightblue" points="562.275,-495.5 572.275,-492 562.275,-488.5 562.275,-495.5"/>
</g>
<!-- Node215&#45;&gt;Node216 -->
<g id="edge9" class="edge"><title>Node215&#45;&gt;Node216</title>
<path fill="none" stroke="midnightblue" d="M221.504,-243.34C232.925,-241.63 245.459,-239.754 257.722,-237.919"/>
<polygon fill="midnightblue" stroke="midnightblue" points="258.557,-241.333 267.928,-236.392 257.52,-234.41 258.557,-241.333"/>
</g>
<!-- Node219&#45;&gt;Node212 -->
<g id="edge13" class="edge"><title>Node219&#45;&gt;Node212</title>
<path fill="none" stroke="midnightblue" d="M379.307,-378.529C390.138,-380.262 401.63,-382.101 412.766,-383.883"/>
<polygon fill="midnightblue" stroke="midnightblue" points="412.438,-387.374 422.865,-385.498 413.544,-380.462 412.438,-387.374"/>
</g>
<!-- Node221&#45;&gt;Node209 -->
<g id="edge16" class="edge"><title>Node221&#45;&gt;Node209</title>
<path fill="none" stroke="midnightblue" d="M218.339,-450.626C232.48,-446.394 248.6,-441.569 263.915,-436.985"/>
<polygon fill="midnightblue" stroke="midnightblue" points="265.258,-440.236 273.834,-434.016 263.25,-433.53 265.258,-440.236"/>
</g>
<!-- Node221&#45;&gt;Node213 -->
<g id="edge17" class="edge"><title>Node221&#45;&gt;Node213</title>
<path fill="none" stroke="midnightblue" d="M192.011,-478.294C209.215,-495.215 238.813,-522.528 268,-541 270.922,-542.85 274.005,-544.632 277.16,-546.335"/>
<polygon fill="midnightblue" stroke="midnightblue" points="275.669,-549.504 286.17,-550.913 278.84,-543.263 275.669,-549.504"/>
</g>
<!-- Node221&#45;&gt;Node219 -->
<g id="edge18" class="edge"><title>Node221&#45;&gt;Node219</title>
<path fill="none" stroke="midnightblue" d="M194.646,-447.947C212.402,-433.261 240.957,-410.875 268,-395 271.171,-393.139 274.505,-391.325 277.901,-389.579"/>
<polygon fill="midnightblue" stroke="midnightblue" points="279.528,-392.679 286.964,-385.133 276.445,-386.395 279.528,-392.679"/>
</g>
<!-- Node221&#45;&gt;Node220 -->
<g id="edge19" class="edge"><title>Node221&#45;&gt;Node220</title>
<path fill="none" stroke="midnightblue" d="M185.47,-447.77C199.694,-423.392 230.532,-375.369 268,-346 270.09,-344.362 272.304,-342.806 274.598,-341.331"/>
<polygon fill="midnightblue" stroke="midnightblue" points="276.841,-344.078 283.751,-336.047 273.341,-338.016 276.841,-344.078"/>
</g>
<!-- Node222 -->
<g id="node15" class="node"><title>Node222</title>
<g id="a_node15"><a xlink:href="namespacemom__ice__shelf.html#a0fa0e5e0225816e5e5e87994371f11f1" target="_top" xlink:title=" ">
<polygon fill="white" stroke="black" points="277,-502 277,-532 373,-532 373,-502 277,-502"/>
<text text-anchor="start" x="285" y="-520" font-family="Helvetica,sans-Serif" font-size="10.00">mom_ice_shelf::matrix</text>
<text text-anchor="middle" x="325" y="-509" font-family="Helvetica,sans-Serif" font-size="10.00">_diagonal_bilinear</text>
</a>
</g>
</g>
<!-- Node221&#45;&gt;Node222 -->
<g id="edge20" class="edge"><title>Node221&#45;&gt;Node222</title>
<path fill="none" stroke="midnightblue" d="M217.948,-478.042C235.158,-484.364 255.353,-491.783 273.476,-498.44"/>
<polygon fill="midnightblue" stroke="midnightblue" points="272.424,-501.782 283.017,-501.945 274.837,-495.212 272.424,-501.782"/>
</g>
<!-- Node224 -->
<g id="node17" class="node"><title>Node224</title>
<g id="a_node17"><a xlink:href="namespacemom__ice__shelf.html#abc77d7c18a2919c9308c39aa26f916bf" target="_top" xlink:title=" ">
<polygon fill="white" stroke="black" points="277,-453 277,-483 373,-483 373,-453 277,-453"/>
<text text-anchor="start" x="285" y="-471" font-family="Helvetica,sans-Serif" font-size="10.00">mom_ice_shelf::matrix</text>
<text text-anchor="middle" x="325" y="-460" font-family="Helvetica,sans-Serif" font-size="10.00">_diagonal_triangle</text>
</a>
</g>
</g>
<!-- Node221&#45;&gt;Node224 -->
<g id="edge23" class="edge"><title>Node221&#45;&gt;Node224</title>
<path fill="none" stroke="midnightblue" d="M218.339,-464.406C233.246,-464.913 250.352,-465.495 266.397,-466.041"/>
<polygon fill="midnightblue" stroke="midnightblue" points="266.64,-469.551 276.754,-466.393 266.878,-462.555 266.64,-469.551"/>
</g>
<!-- Node222&#45;&gt;Node210 -->
<g id="edge21" class="edge"><title>Node222&#45;&gt;Node210</title>
<path fill="none" stroke="midnightblue" d="M373.049,-509.158C386.941,-506.843 402.326,-504.279 416.876,-501.854"/>
<polygon fill="midnightblue" stroke="midnightblue" points="417.498,-505.299 426.786,-500.202 416.347,-498.394 417.498,-505.299"/>
</g>
<!-- Node223 -->
<g id="node16" class="node"><title>Node223</title>
<g id="a_node16"><a xlink:href="namespacemom__ice__shelf.html#af109d5577049ff4ded3b07d5ab25a771" target="_top" xlink:title=" ">
<polygon fill="white" stroke="black" points="418.5,-526 418.5,-556 535.5,-556 535.5,-526 418.5,-526"/>
<text text-anchor="start" x="426.5" y="-544" font-family="Helvetica,sans-Serif" font-size="10.00">mom_ice_shelf::cg_diagonal</text>
<text text-anchor="middle" x="477" y="-533" font-family="Helvetica,sans-Serif" font-size="10.00">_subgrid_basal_bilinear</text>
</a>
</g>
</g>
<!-- Node222&#45;&gt;Node223 -->
<g id="edge22" class="edge"><title>Node222&#45;&gt;Node223</title>
<path fill="none" stroke="midnightblue" d="M373.049,-524.528C384.259,-526.321 396.441,-528.271 408.371,-530.179"/>
<polygon fill="midnightblue" stroke="midnightblue" points="407.88,-533.645 418.307,-531.769 408.986,-526.733 407.88,-533.645"/>
</g>
</g>
</svg>
