<?xml version="1.0" encoding="UTF-8" standalone="no"?>
<!DOCTYPE svg PUBLIC "-//W3C//DTD SVG 1.1//EN"
 "http://www.w3.org/Graphics/SVG/1.1/DTD/svg11.dtd">
<!-- Generated by graphviz version 2.30.1 (20170916.1124)
 -->
<!-- Title: mom_forcing_type::calculatebuoyancyflux1d Pages: 1 -->
<svg width="618pt" height="126pt"
 viewBox="0.00 0.00 618.00 126.00" xmlns="http://www.w3.org/2000/svg" xmlns:xlink="http://www.w3.org/1999/xlink">
<g id="graph0" class="graph" transform="scale(1 1) rotate(0) translate(4 122)">
<title>mom_forcing_type::calculatebuoyancyflux1d</title>
<polygon fill="white" stroke="white" points="-4,5 -4,-122 615,-122 615,5 -4,5"/>
<!-- Node20 -->
<g id="node1" class="node"><title>Node20</title>
<g id="a_node1"><a xlink:title="This routine calculates surface buoyancy flux by adding up the heat, FW &amp; salt fluxes....">
<polygon fill="#bfbfbf" stroke="black" points="0.5,-49.5 0.5,-68.5 173.5,-68.5 173.5,-49.5 0.5,-49.5"/>
<text text-anchor="middle" x="87" y="-56.5" font-family="Helvetica,sans-Serif" font-size="10.00">mom_forcing_type::calculatebuoyancyflux1d</text>
</a>
</g>
</g>
<!-- Node21 -->
<g id="node2" class="node"><title>Node21</title>
<g id="a_node2"><a xlink:href="namespacemom__eos.html#a204529f8434a0322314e6ce2a9762436" target="_top" xlink:title="Calls the appropriate subroutine to calculate density derivatives for 1&#45;D array inputs.">
<polygon fill="white" stroke="black" points="236.5,-88 236.5,-118 323.5,-118 323.5,-88 236.5,-88"/>
<text text-anchor="start" x="244.5" y="-106" font-family="Helvetica,sans-Serif" font-size="10.00">mom_eos::calculate</text>
<text text-anchor="middle" x="280" y="-95" font-family="Helvetica,sans-Serif" font-size="10.00">_density_derivs</text>
</a>
</g>
</g>
<!-- Node20&#45;&gt;Node21 -->
<g id="edge1" class="edge"><title>Node20&#45;&gt;Node21</title>
<path fill="none" stroke="midnightblue" d="M129.444,-68.5473C157.833,-75.0872 195.725,-83.8162 226.264,-90.8513"/>
<polygon fill="midnightblue" stroke="midnightblue" points="225.784,-94.3324 236.314,-93.1666 227.355,-87.511 225.784,-94.3324"/>
</g>
<!-- Node24 -->
<g id="node5" class="node"><title>Node24</title>
<g id="a_node5"><a xlink:href="namespacemom__forcing__type.html#ab67e7c2e99099bcf22d12885f349e1e4" target="_top" xlink:title="This subroutine extracts fluxes from the surface fluxes type. It works on a j&#45;row for optimization pu...">
<polygon fill="white" stroke="black" points="210,-49.5 210,-68.5 350,-68.5 350,-49.5 210,-49.5"/>
<text text-anchor="middle" x="280" y="-56.5" font-family="Helvetica,sans-Serif" font-size="10.00">mom_forcing_type::extractfluxes1d</text>
</a>
</g>
</g>
<!-- Node20&#45;&gt;Node24 -->
<g id="edge4" class="edge"><title>Node20&#45;&gt;Node24</title>
<path fill="none" stroke="midnightblue" d="M173.723,-59C182.419,-59 191.224,-59 199.846,-59"/>
<polygon fill="midnightblue" stroke="midnightblue" points="199.866,-62.5001 209.866,-59 199.866,-55.5001 199.866,-62.5001"/>
</g>
<!-- Node25 -->
<g id="node6" class="node"><title>Node25</title>
<g id="a_node6"><a xlink:href="namespacemom__shortwave__abs.html#a8a1184c3f836d0900dfd5fa587cfb879" target="_top" xlink:title=" ">
<polygon fill="white" stroke="black" points="231,-0 231,-30 329,-30 329,-0 231,-0"/>
<text text-anchor="start" x="239" y="-18" font-family="Helvetica,sans-Serif" font-size="10.00">mom_shortwave_abs::</text>
<text text-anchor="middle" x="280" y="-7" font-family="Helvetica,sans-Serif" font-size="10.00">sumswoverbands</text>
</a>
</g>
</g>
<!-- Node20&#45;&gt;Node25 -->
<g id="edge6" class="edge"><title>Node20&#45;&gt;Node25</title>
<path fill="none" stroke="midnightblue" d="M129.444,-49.4527C156.256,-43.2761 191.544,-35.1469 221.109,-28.3362"/>
<polygon fill="midnightblue" stroke="midnightblue" points="221.936,-31.7374 230.895,-26.0818 220.365,-24.916 221.936,-31.7374"/>
</g>
<!-- Node22 -->
<g id="node3" class="node"><title>Node22</title>
<g id="a_node3"><a xlink:href="namespacemom__error__handler.html#a460cfb79a06c29fc249952c2a3710d67" target="_top" xlink:title=" ">
<polygon fill="white" stroke="black" points="386.5,-66 386.5,-96 479.5,-96 479.5,-66 386.5,-66"/>
<text text-anchor="start" x="394.5" y="-84" font-family="Helvetica,sans-Serif" font-size="10.00">mom_error_handler::</text>
<text text-anchor="middle" x="433" y="-73" font-family="Helvetica,sans-Serif" font-size="10.00">mom_error</text>
</a>
</g>
</g>
<!-- Node21&#45;&gt;Node22 -->
<g id="edge2" class="edge"><title>Node21&#45;&gt;Node22</title>
<path fill="none" stroke="midnightblue" d="M323.867,-96.7545C340.193,-94.3758 359.041,-91.6298 376.382,-89.1033"/>
<polygon fill="midnightblue" stroke="midnightblue" points="376.997,-92.5507 386.388,-87.6455 375.988,-85.6239 376.997,-92.5507"/>
</g>
<!-- Node23 -->
<g id="node4" class="node"><title>Node23</title>
<g id="a_node4"><a xlink:href="namespacemom__error__handler.html#ad5f00a53059c72fe2332d1436c80ca71" target="_top" xlink:title=" ">
<polygon fill="white" stroke="black" points="516.5,-66 516.5,-96 609.5,-96 609.5,-66 516.5,-66"/>
<text text-anchor="start" x="524.5" y="-84" font-family="Helvetica,sans-Serif" font-size="10.00">mom_error_handler::</text>
<text text-anchor="middle" x="563" y="-73" font-family="Helvetica,sans-Serif" font-size="10.00">is_root_pe</text>
</a>
</g>
</g>
<!-- Node22&#45;&gt;Node23 -->
<g id="edge3" class="edge"><title>Node22&#45;&gt;Node23</title>
<path fill="none" stroke="midnightblue" d="M479.849,-81C488.408,-81 497.439,-81 506.258,-81"/>
<polygon fill="midnightblue" stroke="midnightblue" points="506.471,-84.5001 516.471,-81 506.471,-77.5001 506.471,-84.5001"/>
</g>
<!-- Node24&#45;&gt;Node22 -->
<g id="edge5" class="edge"><title>Node24&#45;&gt;Node22</title>
<path fill="none" stroke="midnightblue" d="M346.353,-68.5216C356.291,-69.9695 366.468,-71.4523 376.179,-72.8671"/>
<polygon fill="midnightblue" stroke="midnightblue" points="375.699,-76.3341 386.099,-74.3125 376.708,-69.4072 375.699,-76.3341"/>
</g>
</g>
</svg>
