<?xml version="1.0" encoding="UTF-8" standalone="no"?>
<!DOCTYPE svg PUBLIC "-//W3C//DTD SVG 1.1//EN"
 "http://www.w3.org/Graphics/SVG/1.1/DTD/svg11.dtd">
<!-- Generated by graphviz version 2.30.1 (20170916.1124)
 -->
<!-- Title: mom_diag_mediator::diag_update_remap_grids Pages: 1 -->
<!--zoomable 344 -->
<svg id="main" version="1.1" xmlns="http://www.w3.org/2000/svg" xmlns:xlink="http://www.w3.org/1999/xlink" xml:space="preserve" onload="init(evt)">
<style type="text/css"><![CDATA[
.edge:hover path { stroke: red; }
.edge:hover polygon { stroke: red; fill: red; }
]]></style>
<script type="text/javascript"><![CDATA[
var edges = document.getElementsByTagName('g');
if (edges && edges.length) {
  for (var i=0;i<edges.length;i++) {
    if (edges[i].id.substr(0,4)=='edge') {
      edges[i].setAttribute('class','edge');
    }
  }
}
]]></script>
        <defs>
                <circle id="rim" cx="0" cy="0" r="7"/>
                <circle id="rim2" cx="0" cy="0" r="3.5"/>
                <g id="zoomPlus">
                        <use xlink:href="#rim" fill="#404040">
                                <set attributeName="fill" to="#808080" begin="zoomplus.mouseover" end="zoomplus.mouseout"/>
                        </use>
                        <path d="M-4,0h8M0,-4v8" fill="none" stroke="white" stroke-width="1.5" pointer-events="none"/>
                </g>
                <g id="zoomMin">
                        <use xlink:href="#rim" fill="#404040">
                                <set attributeName="fill" to="#808080" begin="zoomminus.mouseover" end="zoomminus.mouseout"/>
                        </use>
                        <path d="M-4,0h8" fill="none" stroke="white" stroke-width="1.5" pointer-events="none"/>
                </g>
                <g id="dirArrow">
                        <path fill="none" stroke="white" stroke-width="1.5" d="M0,-3.0v7 M-2.5,-0.5L0,-3.0L2.5,-0.5"/>
                </g>
               <g id="resetDef">
                       <use xlink:href="#rim2" fill="#404040">
                               <set attributeName="fill" to="#808080" begin="reset.mouseover" end="reset.mouseout"/>
                       </use>
               </g>
        </defs>

<script type="text/javascript">
var viewWidth = 518;
var viewHeight = 344;
var sectionId = 'dynsection-13';
</script>
<script xlink:href="svgpan.js"/>
<svg id="graph" class="graph">
<g id="viewport">
<title>mom_diag_mediator::diag_update_remap_grids</title>
<polygon fill="white" stroke="white" points="-4,5 -4,-340 515,-340 515,5 -4,5"/>
<!-- Node149 -->
<g id="node1" class="node"><title>Node149</title>
<g id="a_node1"><a xlink:title="Build/update vertical grids for diagnostic remapping.">
<polygon fill="#bfbfbf" stroke="black" points="400,-153 400,-183 510,-183 510,-153 400,-153"/>
<text text-anchor="start" x="408" y="-171" font-family="Helvetica,sans-Serif" font-size="10.00">mom_diag_mediator::</text>
<text text-anchor="middle" x="455" y="-160" font-family="Helvetica,sans-Serif" font-size="10.00">diag_update_remap_grids</text>
</a>
</g>
</g>
<!-- Node150 -->
<g id="node2" class="node"><title>Node150</title>
<g id="a_node2"><a xlink:href="namespacemom__bulk__mixed__layer.html#a9c3a37aae75b52453efad11d8c8abbe6" target="_top" xlink:title=" ">
<polygon fill="white" stroke="black" points="250.5,-306 250.5,-336 351.5,-336 351.5,-306 250.5,-306"/>
<text text-anchor="start" x="258.5" y="-324" font-family="Helvetica,sans-Serif" font-size="10.00">mom_bulk_mixed_layer</text>
<text text-anchor="middle" x="301" y="-313" font-family="Helvetica,sans-Serif" font-size="10.00">::bulkmixedlayer</text>
</a>
</g>
</g>
<!-- Node149&#45;&gt;Node150 -->
<g id="edge1" class="edge"><title>Node149&#45;&gt;Node150</title>
<path fill="none" stroke="midnightblue" d="M442.361,-192.382C427.691,-220.787 399.981,-267.457 364,-296 359.181,-299.823 353.7,-303.134 348.037,-305.982"/>
<polygon fill="midnightblue" stroke="midnightblue" points="445.634,-193.663 446.998,-183.157 439.38,-190.519 445.634,-193.663"/>
</g>
<!-- Node152 -->
<g id="node4" class="node"><title>Node152</title>
<g id="a_node4"><a xlink:href="namespacemom__mixed__layer__restrat.html#aa7bc0bffcb1f179da48339460555c343" target="_top" xlink:title="This subroutine does interface depth diffusion. The fluxes are limited to give positive definiteness,...">
<polygon fill="white" stroke="black" points="246,-257 246,-287 356,-287 356,-257 246,-257"/>
<text text-anchor="start" x="254" y="-275" font-family="Helvetica,sans-Serif" font-size="10.00">mom_mixed_layer_restrat</text>
<text text-anchor="middle" x="301" y="-264" font-family="Helvetica,sans-Serif" font-size="10.00">::mixedlayer_restrat_bml</text>
</a>
</g>
</g>
<!-- Node149&#45;&gt;Node152 -->
<g id="edge3" class="edge"><title>Node149&#45;&gt;Node152</title>
<path fill="none" stroke="midnightblue" d="M432.636,-190.519C415.377,-207.73 389.793,-231.121 364,-247 358.07,-250.651 351.514,-253.963 344.951,-256.896"/>
<polygon fill="midnightblue" stroke="midnightblue" points="435.425,-192.675 439.951,-183.096 430.439,-187.762 435.425,-192.675"/>
</g>
<!-- Node154 -->
<g id="node6" class="node"><title>Node154</title>
<g id="a_node6"><a xlink:href="namespacemom__mixed__layer__restrat.html#a8c3660ca67ff94ff55449ce75e362e32" target="_top" xlink:title="This subroutine does interface depth diffusion. The fluxes are limited to give positive definiteness,...">
<polygon fill="white" stroke="black" points="241.5,-208 241.5,-238 360.5,-238 360.5,-208 241.5,-208"/>
<text text-anchor="start" x="249.5" y="-226" font-family="Helvetica,sans-Serif" font-size="10.00">mom_mixed_layer_restrat</text>
<text text-anchor="middle" x="301" y="-215" font-family="Helvetica,sans-Serif" font-size="10.00">::mixedlayer_restrat_general</text>
</a>
</g>
</g>
<!-- Node149&#45;&gt;Node154 -->
<g id="edge5" class="edge"><title>Node149&#45;&gt;Node154</title>
<path fill="none" stroke="midnightblue" d="M402.903,-186.489C383.573,-193.484 361.826,-201.352 343.484,-207.989"/>
<polygon fill="midnightblue" stroke="midnightblue" points="404.253,-189.723 412.465,-183.029 401.871,-183.14 404.253,-189.723"/>
</g>
<!-- Node155 -->
<g id="node7" class="node"><title>Node155</title>
<g id="a_node7"><a xlink:href="namespacemom__dynamics__legacy__split.html#ae34fe0561f87dc05c2fad64bf6d5a1ee" target="_top" xlink:title=" ">
<polygon fill="white" stroke="black" points="251.5,-147.5 251.5,-188.5 350.5,-188.5 350.5,-147.5 251.5,-147.5"/>
<text text-anchor="start" x="259.5" y="-176.5" font-family="Helvetica,sans-Serif" font-size="10.00">mom_dynamics_legacy</text>
<text text-anchor="start" x="259.5" y="-165.5" font-family="Helvetica,sans-Serif" font-size="10.00">_split::step_mom_dyn</text>
<text text-anchor="middle" x="301" y="-154.5" font-family="Helvetica,sans-Serif" font-size="10.00">_legacy_split</text>
</a>
</g>
</g>
<!-- Node149&#45;&gt;Node155 -->
<g id="edge7" class="edge"><title>Node149&#45;&gt;Node155</title>
<path fill="none" stroke="midnightblue" d="M389.615,-168C376.523,-168 362.96,-168 350.53,-168"/>
<polygon fill="midnightblue" stroke="midnightblue" points="389.983,-171.5 399.983,-168 389.982,-164.5 389.983,-171.5"/>
</g>
<!-- Node156 -->
<g id="node8" class="node"><title>Node156</title>
<g id="a_node8"><a xlink:href="namespacemom__dynamics__split__rk2.html#a81cce65643a8cf94979d68354a9a1979" target="_top" xlink:title="RK2 splitting for time stepping MOM adiabatic dynamics.">
<polygon fill="white" stroke="black" points="238.5,-98 238.5,-128 363.5,-128 363.5,-98 238.5,-98"/>
<text text-anchor="start" x="246.5" y="-116" font-family="Helvetica,sans-Serif" font-size="10.00">mom_dynamics_split</text>
<text text-anchor="middle" x="301" y="-105" font-family="Helvetica,sans-Serif" font-size="10.00">_rk2::step_mom_dyn_split_rk2</text>
</a>
</g>
</g>
<!-- Node149&#45;&gt;Node156 -->
<g id="edge8" class="edge"><title>Node149&#45;&gt;Node156</title>
<path fill="none" stroke="midnightblue" d="M402.903,-149.511C383.573,-142.516 361.826,-134.648 343.484,-128.011"/>
<polygon fill="midnightblue" stroke="midnightblue" points="401.871,-152.86 412.465,-152.971 404.253,-146.277 401.871,-152.86"/>
</g>
<!-- Node157 -->
<g id="node9" class="node"><title>Node157</title>
<g id="a_node9"><a xlink:href="namespacemom__dynamics__unsplit.html#a53a72861e61f049479fdec46ea11227b" target="_top" xlink:title=" ">
<polygon fill="white" stroke="black" points="249.5,-49 249.5,-79 352.5,-79 352.5,-49 249.5,-49"/>
<text text-anchor="start" x="257.5" y="-67" font-family="Helvetica,sans-Serif" font-size="10.00">mom_dynamics_unsplit</text>
<text text-anchor="middle" x="301" y="-56" font-family="Helvetica,sans-Serif" font-size="10.00">::step_mom_dyn_unsplit</text>
</a>
</g>
</g>
<!-- Node149&#45;&gt;Node157 -->
<g id="edge9" class="edge"><title>Node149&#45;&gt;Node157</title>
<path fill="none" stroke="midnightblue" d="M433.056,-145.389C415.857,-127.866 390.152,-103.962 364,-88 358.581,-84.6928 352.629,-81.6988 346.623,-79.0362"/>
<polygon fill="midnightblue" stroke="midnightblue" points="430.872,-148.166 440.331,-152.939 435.912,-143.309 430.872,-148.166"/>
</g>
<!-- Node158 -->
<g id="node10" class="node"><title>Node158</title>
<g id="a_node10"><a xlink:href="namespacemom__thickness__diffuse.html#a9506f374762ce6d5d12424a9314fad2f" target="_top" xlink:title="Calculates thickness diffusion coefficients and applies thickness diffusion to layer thicknesses,...">
<polygon fill="white" stroke="black" points="251.5,-0 251.5,-30 350.5,-30 350.5,-0 251.5,-0"/>
<text text-anchor="start" x="259.5" y="-18" font-family="Helvetica,sans-Serif" font-size="10.00">mom_thickness_diffuse</text>
<text text-anchor="middle" x="301" y="-7" font-family="Helvetica,sans-Serif" font-size="10.00">::thickness_diffuse</text>
</a>
</g>
</g>
<!-- Node149&#45;&gt;Node158 -->
<g id="edge10" class="edge"><title>Node149&#45;&gt;Node158</title>
<path fill="none" stroke="midnightblue" d="M442.477,-143.337C427.919,-114.624 400.317,-67.5061 364,-39 359.642,-35.5792 354.738,-32.5975 349.647,-30.0104"/>
<polygon fill="midnightblue" stroke="midnightblue" points="439.514,-145.243 447.075,-152.665 445.793,-142.148 439.514,-145.243"/>
</g>
<!-- Node151 -->
<g id="node3" class="node"><title>Node151</title>
<g id="a_node3"><a xlink:href="namespacemom__diabatic__driver.html#a61e57d3902367aa46aa3c2d949ee900f" target="_top" xlink:title="This subroutine imposes the diapycnal mass fluxes and the accompanying diapycnal advection of momentu...">
<polygon fill="white" stroke="black" points="101.5,-306 101.5,-336 192.5,-336 192.5,-306 101.5,-306"/>
<text text-anchor="start" x="109.5" y="-324" font-family="Helvetica,sans-Serif" font-size="10.00">mom_diabatic_driver</text>
<text text-anchor="middle" x="147" y="-313" font-family="Helvetica,sans-Serif" font-size="10.00">::diabatic</text>
</a>
</g>
</g>
<!-- Node150&#45;&gt;Node151 -->
<g id="edge2" class="edge"><title>Node150&#45;&gt;Node151</title>
<path fill="none" stroke="midnightblue" d="M240.042,-321C224.282,-321 207.558,-321 192.751,-321"/>
<polygon fill="midnightblue" stroke="midnightblue" points="240.23,-324.5 250.23,-321 240.229,-317.5 240.23,-324.5"/>
</g>
<!-- Node153 -->
<g id="node5" class="node"><title>Node153</title>
<g id="a_node5"><a xlink:href="namespacemom__mixed__layer__restrat.html#a27efc1d26cdf8b66108c3dad047bbb91" target="_top" xlink:title="This subroutine does interface depth diffusion. The fluxes are limited to give positive definiteness,...">
<polygon fill="white" stroke="black" points="92,-232 92,-262 202,-262 202,-232 92,-232"/>
<text text-anchor="start" x="100" y="-250" font-family="Helvetica,sans-Serif" font-size="10.00">mom_mixed_layer_restrat</text>
<text text-anchor="middle" x="147" y="-239" font-family="Helvetica,sans-Serif" font-size="10.00">::mixedlayer_restrat</text>
</a>
</g>
</g>
<!-- Node152&#45;&gt;Node153 -->
<g id="edge4" class="edge"><title>Node152&#45;&gt;Node153</title>
<path fill="none" stroke="midnightblue" d="M235.806,-261.442C224.585,-259.596 213.013,-257.693 202.099,-255.898"/>
<polygon fill="midnightblue" stroke="midnightblue" points="235.547,-264.946 245.983,-263.116 236.683,-258.039 235.547,-264.946"/>
</g>
<!-- Node154&#45;&gt;Node153 -->
<g id="edge6" class="edge"><title>Node154&#45;&gt;Node153</title>
<path fill="none" stroke="midnightblue" d="M231.171,-233.868C221.434,-235.405 211.539,-236.967 202.133,-238.453"/>
<polygon fill="midnightblue" stroke="midnightblue" points="231.901,-237.296 241.233,-232.279 230.809,-230.382 231.901,-237.296"/>
</g>
<!-- Node159 -->
<g id="node11" class="node"><title>Node159</title>
<g id="a_node11"><a xlink:href="namespacemom.html#a4c8332b095c6d295084089aa6b3b678a" target="_top" xlink:title="This subroutine orchestrates the time stepping of MOM. The adiabatic dynamics are stepped by calls to...">
<polygon fill="white" stroke="black" points="108.5,-5.5 108.5,-24.5 185.5,-24.5 185.5,-5.5 108.5,-5.5"/>
<text text-anchor="middle" x="147" y="-12.5" font-family="Helvetica,sans-Serif" font-size="10.00">mom::step_mom</text>
</a>
</g>
</g>
<!-- Node158&#45;&gt;Node159 -->
<g id="edge11" class="edge"><title>Node158&#45;&gt;Node159</title>
<path fill="none" stroke="midnightblue" d="M241.34,-15C222.747,-15 202.692,-15 185.955,-15"/>
<polygon fill="midnightblue" stroke="midnightblue" points="241.488,-18.5001 251.488,-15 241.488,-11.5001 241.488,-18.5001"/>
</g>
<!-- Node160 -->
<g id="node12" class="node"><title>Node160</title>
<g id="a_node12"><a xlink:href="MOM__driver_8F90.html#a08fffeb2d8e8acbf9ed4609be6d258c6" target="_top" xlink:title=" ">
<polygon fill="white" stroke="black" points="0,-5.5 0,-24.5 56,-24.5 56,-5.5 0,-5.5"/>
<text text-anchor="middle" x="28" y="-12.5" font-family="Helvetica,sans-Serif" font-size="10.00">mom_main</text>
</a>
</g>
</g>
<!-- Node159&#45;&gt;Node160 -->
<g id="edge12" class="edge"><title>Node159&#45;&gt;Node160</title>
<path fill="none" stroke="midnightblue" d="M98.1375,-15C83.8482,-15 68.6827,-15 56.2076,-15"/>
<polygon fill="midnightblue" stroke="midnightblue" points="98.3365,-18.5001 108.336,-15 98.3364,-11.5001 98.3365,-18.5001"/>
</g>
</g>
</svg>
        <g id="navigator" transform="translate(0 0)" fill="#404254">
                <rect fill="#f2f5e9" fill-opacity="0.5" stroke="#606060" stroke-width=".5" x="0" y="0" width="60" height="60"/>
                <use id="zoomplus" xlink:href="#zoomPlus" x="17" y="9" onmousedown="handleZoom(evt,'in')"/>
                <use id="zoomminus" xlink:href="#zoomMin" x="42" y="9" onmousedown="handleZoom(evt,'out')"/>
                <use id="reset" xlink:href="#resetDef" x="30" y="36" onmousedown="handleReset()"/>
                <g id="arrowUp" xlink:href="#dirArrow" transform="translate(30 24)" onmousedown="handlePan(0,-1)">
                  <use xlink:href="#rim" fill="#404040">
                        <set attributeName="fill" to="#808080" begin="arrowUp.mouseover" end="arrowUp.mouseout"/>
                  </use>
                  <path fill="none" stroke="white" stroke-width="1.5" d="M0,-3.0v7 M-2.5,-0.5L0,-3.0L2.5,-0.5"/>
                </g>
                <g id="arrowRight" xlink:href="#dirArrow" transform="rotate(90) translate(36 -43)" onmousedown="handlePan(1,0)">
                  <use xlink:href="#rim" fill="#404040">
                        <set attributeName="fill" to="#808080" begin="arrowRight.mouseover" end="arrowRight.mouseout"/>
                  </use>
                  <path fill="none" stroke="white" stroke-width="1.5" d="M0,-3.0v7 M-2.5,-0.5L0,-3.0L2.5,-0.5"/>
                </g>
                <g id="arrowDown" xlink:href="#dirArrow" transform="rotate(180) translate(-30 -48)" onmousedown="handlePan(0,1)">
                  <use xlink:href="#rim" fill="#404040">
                        <set attributeName="fill" to="#808080" begin="arrowDown.mouseover" end="arrowDown.mouseout"/>
                  </use>
                  <path fill="none" stroke="white" stroke-width="1.5" d="M0,-3.0v7 M-2.5,-0.5L0,-3.0L2.5,-0.5"/>
                </g>
                <g id="arrowLeft" xlink:href="#dirArrow" transform="rotate(270) translate(-36 17)" onmousedown="handlePan(-1,0)">
                  <use xlink:href="#rim" fill="#404040">
                        <set attributeName="fill" to="#808080" begin="arrowLeft.mouseover" end="arrowLeft.mouseout"/>
                  </use>
                  <path fill="none" stroke="white" stroke-width="1.5" d="M0,-3.0v7 M-2.5,-0.5L0,-3.0L2.5,-0.5"/>
                </g>
        </g>
        <svg viewBox="0 0 15 15" width="100%" height="30px" preserveAspectRatio="xMaxYMin meet">
         <g id="arrow_out" transform="scale(0.3 0.3)">
          <a xlink:href="namespacemom__diag__mediator_a833421744c815eb432a645bd984a5c86_icgraph_org.svg" target="_base">
           <rect id="button" ry="5" rx="5" y="6" x="6" height="38" width="38"
                fill="#f2f5e9" fill-opacity="0.5" stroke="#606060" stroke-width="1.0"/>
           <path id="arrow"
             d="M 11.500037,31.436501 C 11.940474,20.09759 22.043105,11.32322 32.158766,21.979434 L 37.068811,17.246167 C 37.068811,17.246167 37.088388,32 37.088388,32 L 22.160133,31.978069 C 22.160133,31.978069 26.997745,27.140456 26.997745,27.140456 C 18.528582,18.264221 13.291696,25.230495 11.500037,31.436501 z"
             style="fill:#404040;"/>
          </a>
         </g>
        </svg>
</svg>
