<?xml version="1.0" encoding="UTF-8" standalone="no"?>
<!DOCTYPE svg PUBLIC "-//W3C//DTD SVG 1.1//EN"
 "http://www.w3.org/Graphics/SVG/1.1/DTD/svg11.dtd">
<!-- Generated by graphviz version 2.30.1 (20170916.1124)
 -->
<!-- Title: mom_regridding::build_grid_hycom1 Pages: 1 -->
<!--zoomable 826 -->
<svg id="main" version="1.1" xmlns="http://www.w3.org/2000/svg" xmlns:xlink="http://www.w3.org/1999/xlink" xml:space="preserve" onload="init(evt)">
<style type="text/css"><![CDATA[
.edge:hover path { stroke: red; }
.edge:hover polygon { stroke: red; fill: red; }
]]></style>
<script type="text/javascript"><![CDATA[
var edges = document.getElementsByTagName('g');
if (edges && edges.length) {
  for (var i=0;i<edges.length;i++) {
    if (edges[i].id.substr(0,4)=='edge') {
      edges[i].setAttribute('class','edge');
    }
  }
}
]]></script>
        <defs>
                <circle id="rim" cx="0" cy="0" r="7"/>
                <circle id="rim2" cx="0" cy="0" r="3.5"/>
                <g id="zoomPlus">
                        <use xlink:href="#rim" fill="#404040">
                                <set attributeName="fill" to="#808080" begin="zoomplus.mouseover" end="zoomplus.mouseout"/>
                        </use>
                        <path d="M-4,0h8M0,-4v8" fill="none" stroke="white" stroke-width="1.5" pointer-events="none"/>
                </g>
                <g id="zoomMin">
                        <use xlink:href="#rim" fill="#404040">
                                <set attributeName="fill" to="#808080" begin="zoomminus.mouseover" end="zoomminus.mouseout"/>
                        </use>
                        <path d="M-4,0h8" fill="none" stroke="white" stroke-width="1.5" pointer-events="none"/>
                </g>
                <g id="dirArrow">
                        <path fill="none" stroke="white" stroke-width="1.5" d="M0,-3.0v7 M-2.5,-0.5L0,-3.0L2.5,-0.5"/>
                </g>
               <g id="resetDef">
                       <use xlink:href="#rim2" fill="#404040">
                               <set attributeName="fill" to="#808080" begin="reset.mouseover" end="reset.mouseout"/>
                       </use>
               </g>
        </defs>

<script type="text/javascript">
var viewWidth = 992;
var viewHeight = 826;
var sectionId = 'dynsection-3';
</script>
<script xlink:href="svgpan.js"/>
<svg id="graph" class="graph">
<g id="viewport">
<title>mom_regridding::build_grid_hycom1</title>
<polygon fill="white" stroke="white" points="-4,5 -4,-822 989,-822 989,5 -4,5"/>
<!-- Node11 -->
<g id="node1" class="node"><title>Node11</title>
<g id="a_node1"><a xlink:title="Builds a simple HyCOM&#45;like grid with the deepest location of potential density interpolated from the ...">
<polygon fill="#bfbfbf" stroke="black" points="0,-721 0,-751 96,-751 96,-721 0,-721"/>
<text text-anchor="start" x="8" y="-739" font-family="Helvetica,sans-Serif" font-size="10.00">mom_regridding::build</text>
<text text-anchor="middle" x="48" y="-728" font-family="Helvetica,sans-Serif" font-size="10.00">_grid_hycom1</text>
</a>
</g>
</g>
<!-- Node12 -->
<g id="node2" class="node"><title>Node12</title>
<g id="a_node2"><a xlink:href="namespacemom__regridding.html#ab18f7ea3cfa3c3892cb69086e3a4baef" target="_top" xlink:title="Adjust dz_Interface to ensure non&#45;negative future thicknesses.">
<polygon fill="white" stroke="black" points="289.5,-787 289.5,-817 390.5,-817 390.5,-787 289.5,-787"/>
<text text-anchor="start" x="297.5" y="-805" font-family="Helvetica,sans-Serif" font-size="10.00">mom_regridding::adjust</text>
<text text-anchor="middle" x="340" y="-794" font-family="Helvetica,sans-Serif" font-size="10.00">_interface_motion</text>
</a>
</g>
</g>
<!-- Node11&#45;&gt;Node12 -->
<g id="edge1" class="edge"><title>Node11&#45;&gt;Node12</title>
<path fill="none" stroke="midnightblue" d="M78.648,-751.145C94.1748,-758.484 113.717,-766.81 132,-772 180.569,-785.787 237.44,-793.447 279.269,-797.569"/>
<polygon fill="midnightblue" stroke="midnightblue" points="279.01,-801.06 289.295,-798.518 279.67,-794.091 279.01,-801.06"/>
</g>
<!-- Node15 -->
<g id="node5" class="node"><title>Node15</title>
<g id="a_node5"><a xlink:href="namespacemom__regridding.html#acbe376c457e1ea0c4514b948cbf5144b" target="_top" xlink:title=" ">
<polygon fill="white" stroke="black" points="136,-650 136,-680 232,-680 232,-650 136,-650"/>
<text text-anchor="start" x="144" y="-668" font-family="Helvetica,sans-Serif" font-size="10.00">mom_regridding::build</text>
<text text-anchor="middle" x="184" y="-657" font-family="Helvetica,sans-Serif" font-size="10.00">_hycom1_column</text>
</a>
</g>
</g>
<!-- Node11&#45;&gt;Node15 -->
<g id="edge4" class="edge"><title>Node11&#45;&gt;Node15</title>
<path fill="none" stroke="midnightblue" d="M74.5231,-720.886C90.801,-711.413 112.44,-699.122 132,-689 134.911,-687.493 137.934,-685.97 140.989,-684.46"/>
<polygon fill="midnightblue" stroke="midnightblue" points="142.706,-687.518 150.173,-680.001 139.648,-681.221 142.706,-687.518"/>
</g>
<!-- Node45 -->
<g id="node35" class="node"><title>Node45</title>
<g id="a_node35"><a xlink:href="namespacemom__regridding.html#a9dddf53999f90d1a4edc79179c5b5da4" target="_top" xlink:title="Returns the change in interface position motion after filtering and assuming the top and bottom inter...">
<polygon fill="white" stroke="black" points="132,-699 132,-729 236,-729 236,-699 132,-699"/>
<text text-anchor="start" x="140" y="-717" font-family="Helvetica,sans-Serif" font-size="10.00">mom_regridding::filtered</text>
<text text-anchor="middle" x="184" y="-706" font-family="Helvetica,sans-Serif" font-size="10.00">_grid_motion</text>
</a>
</g>
</g>
<!-- Node11&#45;&gt;Node45 -->
<g id="edge53" class="edge"><title>Node11&#45;&gt;Node45</title>
<path fill="none" stroke="midnightblue" d="M96.2434,-728.244C104.475,-726.892 113.144,-725.469 121.689,-724.066"/>
<polygon fill="midnightblue" stroke="midnightblue" points="122.328,-727.508 131.629,-722.434 121.194,-720.6 122.328,-727.508"/>
</g>
<!-- Node13 -->
<g id="node3" class="node"><title>Node13</title>
<g id="a_node3"><a xlink:href="namespacemom__error__handler.html#a460cfb79a06c29fc249952c2a3710d67" target="_top" xlink:title=" ">
<polygon fill="white" stroke="black" points="750.5,-705 750.5,-735 843.5,-735 843.5,-705 750.5,-705"/>
<text text-anchor="start" x="758.5" y="-723" font-family="Helvetica,sans-Serif" font-size="10.00">mom_error_handler::</text>
<text text-anchor="middle" x="797" y="-712" font-family="Helvetica,sans-Serif" font-size="10.00">mom_error</text>
</a>
</g>
</g>
<!-- Node11&#45;&gt;Node13 -->
<g id="edge55" class="edge"><title>Node11&#45;&gt;Node13</title>
<path fill="none" stroke="midnightblue" d="M96.1332,-741.78C153.445,-748.298 253.164,-758 339,-758 339,-758 339,-758 504,-758 586.829,-758 681.777,-742.779 740.326,-731.603"/>
<polygon fill="midnightblue" stroke="midnightblue" points="741.316,-734.976 750.467,-729.638 739.984,-728.104 741.316,-734.976"/>
</g>
<!-- Node12&#45;&gt;Node13 -->
<g id="edge2" class="edge"><title>Node12&#45;&gt;Node13</title>
<path fill="none" stroke="midnightblue" d="M390.701,-804.533C461.82,-806.685 595.963,-805.237 704,-772 726.399,-765.109 749.351,-752.149 766.726,-740.891"/>
<polygon fill="midnightblue" stroke="midnightblue" points="768.888,-743.657 775.272,-735.201 765.008,-737.83 768.888,-743.657"/>
</g>
<!-- Node14 -->
<g id="node4" class="node"><title>Node14</title>
<g id="a_node4"><a xlink:href="namespacemom__error__handler.html#ad5f00a53059c72fe2332d1436c80ca71" target="_top" xlink:title=" ">
<polygon fill="white" stroke="black" points="890.5,-705 890.5,-735 983.5,-735 983.5,-705 890.5,-705"/>
<text text-anchor="start" x="898.5" y="-723" font-family="Helvetica,sans-Serif" font-size="10.00">mom_error_handler::</text>
<text text-anchor="middle" x="937" y="-712" font-family="Helvetica,sans-Serif" font-size="10.00">is_root_pe</text>
</a>
</g>
</g>
<!-- Node13&#45;&gt;Node14 -->
<g id="edge3" class="edge"><title>Node13&#45;&gt;Node14</title>
<path fill="none" stroke="midnightblue" d="M843.569,-720C855.345,-720 868.155,-720 880.381,-720"/>
<polygon fill="midnightblue" stroke="midnightblue" points="880.479,-723.5 890.479,-720 880.479,-716.5 880.479,-723.5"/>
</g>
<!-- Node16 -->
<g id="node6" class="node"><title>Node16</title>
<g id="a_node6"><a xlink:href="namespacemom__regridding.html#a580e775df53e4bb61f118fcab44a3f92" target="_top" xlink:title="Given the set of target values and cell densities, this routine builds an interpolated profile for th...">
<polygon fill="white" stroke="black" points="282,-333 282,-363 398,-363 398,-333 282,-333"/>
<text text-anchor="start" x="290" y="-351" font-family="Helvetica,sans-Serif" font-size="10.00">mom_regridding::regridding</text>
<text text-anchor="middle" x="340" y="-340" font-family="Helvetica,sans-Serif" font-size="10.00">_set_ppolys</text>
</a>
</g>
</g>
<!-- Node15&#45;&gt;Node16 -->
<g id="edge5" class="edge"><title>Node15&#45;&gt;Node16</title>
<path fill="none" stroke="midnightblue" d="M192.428,-649.71C217.179,-598.761 296.991,-434.473 327.234,-372.219"/>
<polygon fill="midnightblue" stroke="midnightblue" points="330.425,-373.66 331.647,-363.136 324.129,-370.602 330.425,-373.66"/>
</g>
<!-- Node43 -->
<g id="node33" class="node"><title>Node43</title>
<g id="a_node33"><a xlink:href="namespacemom__regridding.html#a12dff5ec4c479e77db1813a8d53db7c2" target="_top" xlink:title=" ">
<polygon fill="white" stroke="black" points="272.5,-661.5 272.5,-680.5 407.5,-680.5 407.5,-661.5 272.5,-661.5"/>
<text text-anchor="middle" x="340" y="-668.5" font-family="Helvetica,sans-Serif" font-size="10.00">mom_regridding::interpolate_grid</text>
</a>
</g>
</g>
<!-- Node15&#45;&gt;Node43 -->
<g id="edge50" class="edge"><title>Node15&#45;&gt;Node43</title>
<path fill="none" stroke="midnightblue" d="M232.042,-666.833C241.595,-667.205 251.877,-667.606 262.155,-668.006"/>
<polygon fill="midnightblue" stroke="midnightblue" points="262.276,-671.513 272.405,-668.405 262.549,-664.519 262.276,-671.513"/>
</g>
<!-- Node17 -->
<g id="node7" class="node"><title>Node17</title>
<g id="a_node7"><a xlink:href="namespacep1m__functions.html#a273326895b99b2f74560cc9ec4c26c3d" target="_top" xlink:title=" ">
<polygon fill="white" stroke="black" points="606.5,-142 606.5,-172 695.5,-172 695.5,-142 606.5,-142"/>
<text text-anchor="start" x="614.5" y="-160" font-family="Helvetica,sans-Serif" font-size="10.00">p1m_functions::p1m</text>
<text text-anchor="middle" x="651" y="-149" font-family="Helvetica,sans-Serif" font-size="10.00">_interpolation</text>
</a>
</g>
</g>
<!-- Node16&#45;&gt;Node17 -->
<g id="edge6" class="edge"><title>Node16&#45;&gt;Node17</title>
<path fill="none" stroke="midnightblue" d="M345.02,-332.753C355.06,-298.042 384.786,-213.257 444,-176 489.406,-147.431 551.954,-145.732 596.184,-149.273"/>
<polygon fill="midnightblue" stroke="midnightblue" points="595.892,-152.761 606.169,-150.186 596.529,-145.79 595.892,-152.761"/>
</g>
<!-- Node20 -->
<g id="node10" class="node"><title>Node20</title>
<g id="a_node10"><a xlink:href="namespacep1m__functions.html#a5b0595c2a8b890e7e539768bd1126942" target="_top" xlink:title=" ">
<polygon fill="white" stroke="black" points="450.5,-284 450.5,-314 555.5,-314 555.5,-284 450.5,-284"/>
<text text-anchor="start" x="458.5" y="-302" font-family="Helvetica,sans-Serif" font-size="10.00">p1m_functions::p1m</text>
<text text-anchor="middle" x="503" y="-291" font-family="Helvetica,sans-Serif" font-size="10.00">_boundary_extrapolation</text>
</a>
</g>
</g>
<!-- Node16&#45;&gt;Node20 -->
<g id="edge9" class="edge"><title>Node16&#45;&gt;Node20</title>
<path fill="none" stroke="midnightblue" d="M390.619,-332.899C407.07,-327.892 425.549,-322.268 442.657,-317.061"/>
<polygon fill="midnightblue" stroke="midnightblue" points="443.997,-320.312 452.545,-314.052 441.959,-313.615 443.997,-320.312"/>
</g>
<!-- Node21 -->
<g id="node11" class="node"><title>Node21</title>
<g id="a_node11"><a xlink:href="namespaceregrid__edge__values.html#a2c2460b31b6de501eed3cb7db07a4be5" target="_top" xlink:title=" ">
<polygon fill="white" stroke="black" points="449.5,-470 449.5,-500 556.5,-500 556.5,-470 449.5,-470"/>
<text text-anchor="start" x="457.5" y="-488" font-family="Helvetica,sans-Serif" font-size="10.00">regrid_edge_values</text>
<text text-anchor="middle" x="503" y="-477" font-family="Helvetica,sans-Serif" font-size="10.00">::edge_values_implicit_h4</text>
</a>
</g>
</g>
<!-- Node16&#45;&gt;Node21 -->
<g id="edge10" class="edge"><title>Node16&#45;&gt;Node21</title>
<path fill="none" stroke="midnightblue" d="M353.007,-363.355C370.99,-385.624 406.798,-427.25 444,-455 448.774,-458.561 454.03,-461.923 459.371,-465.019"/>
<polygon fill="midnightblue" stroke="midnightblue" points="457.918,-468.215 468.367,-469.965 461.291,-462.081 457.918,-468.215"/>
</g>
<!-- Node25 -->
<g id="node15" class="node"><title>Node25</title>
<g id="a_node15"><a xlink:href="namespaceplm__functions.html#abf6acfcb1bef51f0c1f8682de53782c4" target="_top" xlink:title=" ">
<polygon fill="white" stroke="black" points="461.5,-235 461.5,-265 544.5,-265 544.5,-235 461.5,-235"/>
<text text-anchor="start" x="469.5" y="-253" font-family="Helvetica,sans-Serif" font-size="10.00">plm_functions::plm</text>
<text text-anchor="middle" x="503" y="-242" font-family="Helvetica,sans-Serif" font-size="10.00">_reconstruction</text>
</a>
</g>
</g>
<!-- Node16&#45;&gt;Node25 -->
<g id="edge15" class="edge"><title>Node16&#45;&gt;Node25</title>
<path fill="none" stroke="midnightblue" d="M359.12,-332.999C379.048,-316.987 412.444,-291.555 444,-274 446.857,-272.411 449.841,-270.864 452.883,-269.373"/>
<polygon fill="midnightblue" stroke="midnightblue" points="454.526,-272.468 462.113,-265.073 451.57,-266.123 454.526,-272.468"/>
</g>
<!-- Node26 -->
<g id="node16" class="node"><title>Node26</title>
<g id="a_node16"><a xlink:href="namespaceplm__functions.html#a66dd52e70d72fb5830f9c4fb16efb2e8" target="_top" xlink:title=" ">
<polygon fill="white" stroke="black" points="450.5,-186 450.5,-216 555.5,-216 555.5,-186 450.5,-186"/>
<text text-anchor="start" x="458.5" y="-204" font-family="Helvetica,sans-Serif" font-size="10.00">plm_functions::plm</text>
<text text-anchor="middle" x="503" y="-193" font-family="Helvetica,sans-Serif" font-size="10.00">_boundary_extrapolation</text>
</a>
</g>
</g>
<!-- Node16&#45;&gt;Node26 -->
<g id="edge16" class="edge"><title>Node16&#45;&gt;Node26</title>
<path fill="none" stroke="midnightblue" d="M350.262,-332.725C366.404,-307.24 402.007,-255.811 444,-225 445.856,-223.638 447.801,-222.338 449.807,-221.098"/>
<polygon fill="midnightblue" stroke="midnightblue" points="451.865,-223.958 458.911,-216.045 448.469,-217.838 451.865,-223.958"/>
</g>
<!-- Node27 -->
<g id="node17" class="node"><title>Node27</title>
<g id="a_node17"><a xlink:href="namespaceppm__functions.html#a97e2144c7499aacd90858788f1312432" target="_top" xlink:title="Builds quadratic polynomials coefficients from cell mean and edge values.">
<polygon fill="white" stroke="black" points="458.5,-49 458.5,-79 547.5,-79 547.5,-49 458.5,-49"/>
<text text-anchor="start" x="466.5" y="-67" font-family="Helvetica,sans-Serif" font-size="10.00">ppm_functions::ppm</text>
<text text-anchor="middle" x="503" y="-56" font-family="Helvetica,sans-Serif" font-size="10.00">_reconstruction</text>
</a>
</g>
</g>
<!-- Node16&#45;&gt;Node27 -->
<g id="edge17" class="edge"><title>Node16&#45;&gt;Node27</title>
<path fill="none" stroke="midnightblue" d="M342.851,-332.869C348.978,-289.062 372.452,-160.64 444,-88 445.807,-86.1658 447.774,-84.4657 449.856,-82.8907"/>
<polygon fill="midnightblue" stroke="midnightblue" points="451.85,-85.7698 458.367,-77.4159 448.063,-79.8828 451.85,-85.7698"/>
</g>
<!-- Node30 -->
<g id="node20" class="node"><title>Node30</title>
<g id="a_node20"><a xlink:href="namespaceppm__functions.html#aaf88d77ece3a30843c730fd2d57c517f" target="_top" xlink:title=" ">
<polygon fill="white" stroke="black" points="450.5,-98 450.5,-128 555.5,-128 555.5,-98 450.5,-98"/>
<text text-anchor="start" x="458.5" y="-116" font-family="Helvetica,sans-Serif" font-size="10.00">ppm_functions::ppm</text>
<text text-anchor="middle" x="503" y="-105" font-family="Helvetica,sans-Serif" font-size="10.00">_boundary_extrapolation</text>
</a>
</g>
</g>
<!-- Node16&#45;&gt;Node30 -->
<g id="edge21" class="edge"><title>Node16&#45;&gt;Node30</title>
<path fill="none" stroke="midnightblue" d="M345.03,-332.945C355.545,-296.185 387.024,-200.65 444,-143 447.454,-139.505 451.401,-136.334 455.575,-133.476"/>
<polygon fill="midnightblue" stroke="midnightblue" points="457.702,-136.277 464.377,-128.049 454.028,-130.319 457.702,-136.277"/>
</g>
<!-- Node31 -->
<g id="node21" class="node"><title>Node31</title>
<g id="a_node21"><a xlink:href="namespaceregrid__edge__slopes.html#a378dcb603968664e58d65e8ed892ec69" target="_top" xlink:title=" ">
<polygon fill="white" stroke="black" points="449.5,-617 449.5,-647 556.5,-647 556.5,-617 449.5,-617"/>
<text text-anchor="start" x="457.5" y="-635" font-family="Helvetica,sans-Serif" font-size="10.00">regrid_edge_slopes</text>
<text text-anchor="middle" x="503" y="-624" font-family="Helvetica,sans-Serif" font-size="10.00">::edge_slopes_implicit_h3</text>
</a>
</g>
</g>
<!-- Node16&#45;&gt;Node31 -->
<g id="edge22" class="edge"><title>Node16&#45;&gt;Node31</title>
<path fill="none" stroke="midnightblue" d="M342.921,-363.024C349.237,-406.527 373.174,-534.128 444,-607 445.404,-608.445 446.906,-609.811 448.483,-611.102"/>
<polygon fill="midnightblue" stroke="midnightblue" points="446.697,-614.123 456.906,-616.954 450.691,-608.374 446.697,-614.123"/>
</g>
<!-- Node32 -->
<g id="node22" class="node"><title>Node32</title>
<g id="a_node22"><a xlink:href="namespacep3m__functions.html#a1769b4b4ced88bbd9f28e348a7bdeabc" target="_top" xlink:title=" ">
<polygon fill="white" stroke="black" points="458.5,-382 458.5,-412 547.5,-412 547.5,-382 458.5,-382"/>
<text text-anchor="start" x="466.5" y="-400" font-family="Helvetica,sans-Serif" font-size="10.00">p3m_functions::p3m</text>
<text text-anchor="middle" x="503" y="-389" font-family="Helvetica,sans-Serif" font-size="10.00">_interpolation</text>
</a>
</g>
</g>
<!-- Node16&#45;&gt;Node32 -->
<g id="edge26" class="edge"><title>Node16&#45;&gt;Node32</title>
<path fill="none" stroke="midnightblue" d="M390.619,-363.101C408.945,-368.679 429.789,-375.023 448.448,-380.702"/>
<polygon fill="midnightblue" stroke="midnightblue" points="447.684,-384.128 458.27,-383.691 449.723,-377.431 447.684,-384.128"/>
</g>
<!-- Node37 -->
<g id="node27" class="node"><title>Node37</title>
<g id="a_node27"><a xlink:href="namespacep3m__functions.html#a1c48a9ed2f3ee6a192f99cbded1298ce" target="_top" xlink:title=" ">
<polygon fill="white" stroke="black" points="598.5,-406 598.5,-436 703.5,-436 703.5,-406 598.5,-406"/>
<text text-anchor="start" x="606.5" y="-424" font-family="Helvetica,sans-Serif" font-size="10.00">p3m_functions::p3m</text>
<text text-anchor="middle" x="651" y="-413" font-family="Helvetica,sans-Serif" font-size="10.00">_boundary_extrapolation</text>
</a>
</g>
</g>
<!-- Node16&#45;&gt;Node37 -->
<g id="edge33" class="edge"><title>Node16&#45;&gt;Node37</title>
<path fill="none" stroke="midnightblue" d="M355.714,-363.038C374.328,-380.877 408.288,-409.628 444,-421 490.751,-435.887 546.554,-434.818 588.282,-430.62"/>
<polygon fill="midnightblue" stroke="midnightblue" points="588.743,-434.09 598.303,-429.525 587.982,-427.132 588.743,-434.09"/>
</g>
<!-- Node38 -->
<g id="node28" class="node"><title>Node38</title>
<g id="a_node28"><a xlink:href="namespaceregrid__edge__values.html#a6c14843c556353d86f2efb4c7c74c9f5" target="_top" xlink:title=" ">
<polygon fill="white" stroke="black" points="449.5,-519 449.5,-549 556.5,-549 556.5,-519 449.5,-519"/>
<text text-anchor="start" x="457.5" y="-537" font-family="Helvetica,sans-Serif" font-size="10.00">regrid_edge_values</text>
<text text-anchor="middle" x="503" y="-526" font-family="Helvetica,sans-Serif" font-size="10.00">::edge_values_implicit_h6</text>
</a>
</g>
</g>
<!-- Node16&#45;&gt;Node38 -->
<g id="edge37" class="edge"><title>Node16&#45;&gt;Node38</title>
<path fill="none" stroke="midnightblue" d="M347.154,-363.447C360.391,-394.885 394.438,-466.888 444,-509 445.938,-510.646 448,-512.199 450.149,-513.663"/>
<polygon fill="midnightblue" stroke="midnightblue" points="448.412,-516.703 458.783,-518.869 452.027,-510.708 448.412,-516.703"/>
</g>
<!-- Node39 -->
<g id="node29" class="node"><title>Node39</title>
<g id="a_node29"><a xlink:href="namespaceregrid__edge__slopes.html#a32fc906bf14cfb859703b4a1a7c46a9c" target="_top" xlink:title=" ">
<polygon fill="white" stroke="black" points="449.5,-568 449.5,-598 556.5,-598 556.5,-568 449.5,-568"/>
<text text-anchor="start" x="457.5" y="-586" font-family="Helvetica,sans-Serif" font-size="10.00">regrid_edge_slopes</text>
<text text-anchor="middle" x="503" y="-575" font-family="Helvetica,sans-Serif" font-size="10.00">::edge_slopes_implicit_h5</text>
</a>
</g>
</g>
<!-- Node16&#45;&gt;Node39 -->
<g id="edge41" class="edge"><title>Node16&#45;&gt;Node39</title>
<path fill="none" stroke="midnightblue" d="M344.526,-363.124C354.075,-400.954 383.858,-500.737 444,-558 445.645,-559.567 447.404,-561.043 449.248,-562.434"/>
<polygon fill="midnightblue" stroke="midnightblue" points="447.492,-565.468 457.78,-568 451.316,-559.605 447.492,-565.468"/>
</g>
<!-- Node40 -->
<g id="node30" class="node"><title>Node40</title>
<g id="a_node30"><a xlink:href="namespacepqm__functions.html#ada7e1a8d9d70b5b78b5e2dfddb5ffa43" target="_top" xlink:title=" ">
<polygon fill="white" stroke="black" points="458.5,-0 458.5,-30 547.5,-30 547.5,-0 458.5,-0"/>
<text text-anchor="start" x="466.5" y="-18" font-family="Helvetica,sans-Serif" font-size="10.00">pqm_functions::pqm</text>
<text text-anchor="middle" x="503" y="-7" font-family="Helvetica,sans-Serif" font-size="10.00">_reconstruction</text>
</a>
</g>
</g>
<!-- Node16&#45;&gt;Node40 -->
<g id="edge45" class="edge"><title>Node16&#45;&gt;Node40</title>
<path fill="none" stroke="midnightblue" d="M341.746,-332.927C344.956,-283.977 361.504,-127.535 444,-39 445.788,-37.0815 447.752,-35.3117 449.843,-33.6795"/>
<polygon fill="midnightblue" stroke="midnightblue" points="451.995,-36.4537 458.438,-28.0429 448.156,-30.6002 451.995,-36.4537"/>
</g>
<!-- Node42 -->
<g id="node32" class="node"><title>Node42</title>
<g id="a_node32"><a xlink:href="namespacepqm__functions.html#ae2c3bd1b82cddbe1bbb0e93e83d93e48" target="_top" xlink:title=" ">
<polygon fill="white" stroke="black" points="444,-333 444,-363 562,-363 562,-333 444,-333"/>
<text text-anchor="start" x="452" y="-351" font-family="Helvetica,sans-Serif" font-size="10.00">pqm_functions::pqm</text>
<text text-anchor="middle" x="503" y="-340" font-family="Helvetica,sans-Serif" font-size="10.00">_boundary_extrapolation_v1</text>
</a>
</g>
</g>
<!-- Node16&#45;&gt;Node42 -->
<g id="edge49" class="edge"><title>Node16&#45;&gt;Node42</title>
<path fill="none" stroke="midnightblue" d="M398.216,-348C409.68,-348 421.834,-348 433.632,-348"/>
<polygon fill="midnightblue" stroke="midnightblue" points="433.882,-351.5 443.882,-348 433.882,-344.5 433.882,-351.5"/>
</g>
<!-- Node18 -->
<g id="node8" class="node"><title>Node18</title>
<g id="a_node8"><a xlink:href="namespaceregrid__edge__values.html#aa204fe78ee22cae62f2b7f1bc76151a9" target="_top" xlink:title=" ">
<polygon fill="white" stroke="black" points="750.5,-130 750.5,-160 843.5,-160 843.5,-130 750.5,-130"/>
<text text-anchor="start" x="758.5" y="-148" font-family="Helvetica,sans-Serif" font-size="10.00">regrid_edge_values</text>
<text text-anchor="middle" x="797" y="-137" font-family="Helvetica,sans-Serif" font-size="10.00">::bound_edge_values</text>
</a>
</g>
</g>
<!-- Node17&#45;&gt;Node18 -->
<g id="edge7" class="edge"><title>Node17&#45;&gt;Node18</title>
<path fill="none" stroke="midnightblue" d="M695.596,-153.367C709.652,-152.196 725.43,-150.881 740.24,-149.647"/>
<polygon fill="midnightblue" stroke="midnightblue" points="740.631,-153.126 750.305,-148.808 740.049,-146.151 740.631,-153.126"/>
</g>
<!-- Node19 -->
<g id="node9" class="node"><title>Node19</title>
<g id="a_node9"><a xlink:href="namespaceregrid__edge__values.html#a2d51073fc6e6639040566f966041fc06" target="_top" xlink:title=" ">
<polygon fill="white" stroke="black" points="745.5,-241.5 745.5,-282.5 848.5,-282.5 848.5,-241.5 745.5,-241.5"/>
<text text-anchor="start" x="753.5" y="-270.5" font-family="Helvetica,sans-Serif" font-size="10.00">regrid_edge_values</text>
<text text-anchor="start" x="753.5" y="-259.5" font-family="Helvetica,sans-Serif" font-size="10.00">::average_discontinuous</text>
<text text-anchor="middle" x="797" y="-248.5" font-family="Helvetica,sans-Serif" font-size="10.00">_edge_values</text>
</a>
</g>
</g>
<!-- Node17&#45;&gt;Node19 -->
<g id="edge8" class="edge"><title>Node17&#45;&gt;Node19</title>
<path fill="none" stroke="midnightblue" d="M672.632,-172.044C695.255,-188.54 731.996,-215.331 759.51,-235.392"/>
<polygon fill="midnightblue" stroke="midnightblue" points="757.584,-238.32 767.726,-241.384 761.708,-232.664 757.584,-238.32"/>
</g>
<!-- Node22 -->
<g id="node12" class="node"><title>Node22</title>
<g id="a_node12"><a xlink:href="namespaceregrid__solvers.html#a8130a338b59de62b00f68da4204568ad" target="_top" xlink:title=" ">
<polygon fill="white" stroke="black" points="606.5,-563 606.5,-593 695.5,-593 695.5,-563 606.5,-563"/>
<text text-anchor="start" x="614.5" y="-581" font-family="Helvetica,sans-Serif" font-size="10.00">regrid_solvers::solve</text>
<text text-anchor="middle" x="651" y="-570" font-family="Helvetica,sans-Serif" font-size="10.00">_linear_system</text>
</a>
</g>
</g>
<!-- Node21&#45;&gt;Node22 -->
<g id="edge11" class="edge"><title>Node21&#45;&gt;Node22</title>
<path fill="none" stroke="midnightblue" d="M547.427,-500.148C552.552,-502.741 557.538,-505.687 562,-509 582.286,-524.063 578.142,-537.377 598,-553 600.032,-554.599 602.183,-556.129 604.408,-557.589"/>
<polygon fill="midnightblue" stroke="midnightblue" points="602.882,-560.754 613.265,-562.864 606.464,-554.739 602.882,-560.754"/>
</g>
<!-- Node23 -->
<g id="node13" class="node"><title>Node23</title>
<g id="a_node13"><a xlink:href="namespacepolynomial__functions.html#aed77465c5ca9937dab06fdb5f94eba39" target="_top" xlink:title=" ">
<polygon fill="white" stroke="black" points="601.5,-514 601.5,-544 700.5,-544 700.5,-514 601.5,-514"/>
<text text-anchor="start" x="609.5" y="-532" font-family="Helvetica,sans-Serif" font-size="10.00">polynomial_functions</text>
<text text-anchor="middle" x="651" y="-521" font-family="Helvetica,sans-Serif" font-size="10.00">::evaluation_polynomial</text>
</a>
</g>
</g>
<!-- Node21&#45;&gt;Node23 -->
<g id="edge13" class="edge"><title>Node21&#45;&gt;Node23</title>
<path fill="none" stroke="midnightblue" d="M553.837,-500.019C565.961,-503.673 579.035,-507.613 591.52,-511.376"/>
<polygon fill="midnightblue" stroke="midnightblue" points="590.792,-514.812 601.376,-514.346 592.811,-508.11 590.792,-514.812"/>
</g>
<!-- Node24 -->
<g id="node14" class="node"><title>Node24</title>
<g id="a_node14"><a xlink:href="namespaceregrid__solvers.html#a0d5c3cff8f31429b0a2c6d267e8b345d" target="_top" xlink:title=" ">
<polygon fill="white" stroke="black" points="606.5,-612 606.5,-642 695.5,-642 695.5,-612 606.5,-612"/>
<text text-anchor="start" x="614.5" y="-630" font-family="Helvetica,sans-Serif" font-size="10.00">regrid_solvers::solve</text>
<text text-anchor="middle" x="651" y="-619" font-family="Helvetica,sans-Serif" font-size="10.00">_tridiagonal_system</text>
</a>
</g>
</g>
<!-- Node21&#45;&gt;Node24 -->
<g id="edge14" class="edge"><title>Node21&#45;&gt;Node24</title>
<path fill="none" stroke="midnightblue" d="M550.554,-500.061C554.736,-502.611 558.649,-505.571 562,-509 592.978,-540.699 567.919,-569.449 598,-602 599.215,-603.315 600.514,-604.568 601.88,-605.762"/>
<polygon fill="midnightblue" stroke="midnightblue" points="600.172,-608.851 610.3,-611.963 604.323,-603.215 600.172,-608.851"/>
</g>
<!-- Node22&#45;&gt;Node13 -->
<g id="edge12" class="edge"><title>Node22&#45;&gt;Node13</title>
<path fill="none" stroke="midnightblue" d="M690.177,-593.015C695.047,-595.667 699.793,-598.664 704,-602 737.535,-628.595 766.013,-669.837 782.052,-695.854"/>
<polygon fill="midnightblue" stroke="midnightblue" points="779.223,-697.94 787.384,-704.696 785.217,-694.325 779.223,-697.94"/>
</g>
<!-- Node28 -->
<g id="node18" class="node"><title>Node28</title>
<g id="a_node18"><a xlink:href="namespaceppm__functions.html#a89920c90b84f0b241c5a6d65fe2870b9" target="_top" xlink:title="Adjusts edge values using the standard PPM limiter (Colella &amp; Woodward, JCP 1984) after first checkin...">
<polygon fill="white" stroke="black" points="606.5,-60 606.5,-90 695.5,-90 695.5,-60 606.5,-60"/>
<text text-anchor="start" x="614.5" y="-78" font-family="Helvetica,sans-Serif" font-size="10.00">ppm_functions::ppm</text>
<text text-anchor="middle" x="651" y="-67" font-family="Helvetica,sans-Serif" font-size="10.00">_limiter_standard</text>
</a>
</g>
</g>
<!-- Node27&#45;&gt;Node28 -->
<g id="edge18" class="edge"><title>Node27&#45;&gt;Node28</title>
<path fill="none" stroke="midnightblue" d="M547.805,-67.3004C563.032,-68.4476 580.289,-69.7478 596.228,-70.9487"/>
<polygon fill="midnightblue" stroke="midnightblue" points="596.243,-74.4597 606.478,-71.7209 596.769,-67.4794 596.243,-74.4597"/>
</g>
<!-- Node28&#45;&gt;Node18 -->
<g id="edge19" class="edge"><title>Node28&#45;&gt;Node18</title>
<path fill="none" stroke="midnightblue" d="M682.892,-90.0168C704.101,-100.327 732.466,-114.116 755.485,-125.305"/>
<polygon fill="midnightblue" stroke="midnightblue" points="754.139,-128.542 764.663,-129.767 757.199,-122.247 754.139,-128.542"/>
</g>
<!-- Node29 -->
<g id="node19" class="node"><title>Node29</title>
<g id="a_node19"><a xlink:href="namespaceregrid__edge__values.html#acbdacbbf7212e538bb52a9729fc949a7" target="_top" xlink:title=" ">
<polygon fill="white" stroke="black" points="750,-46.5 750,-87.5 844,-87.5 844,-46.5 750,-46.5"/>
<text text-anchor="start" x="758" y="-75.5" font-family="Helvetica,sans-Serif" font-size="10.00">regrid_edge_values</text>
<text text-anchor="start" x="758" y="-64.5" font-family="Helvetica,sans-Serif" font-size="10.00">::check_discontinuous</text>
<text text-anchor="middle" x="797" y="-53.5" font-family="Helvetica,sans-Serif" font-size="10.00">_edge_values</text>
</a>
</g>
</g>
<!-- Node28&#45;&gt;Node29 -->
<g id="edge20" class="edge"><title>Node28&#45;&gt;Node29</title>
<path fill="none" stroke="midnightblue" d="M695.596,-72.578C709.518,-71.8046 725.128,-70.9373 739.814,-70.1214"/>
<polygon fill="midnightblue" stroke="midnightblue" points="740.012,-73.6159 749.802,-69.5665 739.623,-66.6267 740.012,-73.6159"/>
</g>
<!-- Node31&#45;&gt;Node22 -->
<g id="edge23" class="edge"><title>Node31&#45;&gt;Node22</title>
<path fill="none" stroke="midnightblue" d="M544.669,-616.958C561.684,-610.665 581.635,-603.286 599.571,-596.652"/>
<polygon fill="midnightblue" stroke="midnightblue" points="601.131,-599.807 609.296,-593.055 598.703,-593.241 601.131,-599.807"/>
</g>
<!-- Node31&#45;&gt;Node23 -->
<g id="edge24" class="edge"><title>Node31&#45;&gt;Node23</title>
<path fill="none" stroke="midnightblue" d="M546.851,-616.949C552.242,-614.095 557.452,-610.791 562,-607 584.156,-588.531 576.08,-571.749 598,-553 599.351,-551.845 600.766,-550.734 602.231,-549.667"/>
<polygon fill="midnightblue" stroke="midnightblue" points="604.509,-552.364 611.05,-544.029 600.739,-546.466 604.509,-552.364"/>
</g>
<!-- Node31&#45;&gt;Node24 -->
<g id="edge25" class="edge"><title>Node31&#45;&gt;Node24</title>
<path fill="none" stroke="midnightblue" d="M556.709,-630.195C569.599,-629.753 583.406,-629.281 596.34,-628.838"/>
<polygon fill="midnightblue" stroke="midnightblue" points="596.617,-632.33 606.492,-628.49 596.378,-625.334 596.617,-632.33"/>
</g>
<!-- Node33 -->
<g id="node23" class="node"><title>Node33</title>
<g id="a_node23"><a xlink:href="namespacep3m__functions.html#a377fa3f7b5caf101d47fa0d4c9b84f64" target="_top" xlink:title=" ">
<polygon fill="white" stroke="black" points="606.5,-345 606.5,-375 695.5,-375 695.5,-345 606.5,-345"/>
<text text-anchor="start" x="614.5" y="-363" font-family="Helvetica,sans-Serif" font-size="10.00">p3m_functions::p3m</text>
<text text-anchor="middle" x="651" y="-352" font-family="Helvetica,sans-Serif" font-size="10.00">_limiter</text>
</a>
</g>
</g>
<!-- Node32&#45;&gt;Node33 -->
<g id="edge27" class="edge"><title>Node32&#45;&gt;Node33</title>
<path fill="none" stroke="midnightblue" d="M547.805,-385.899C563.177,-382.003 580.617,-377.583 596.683,-373.512"/>
<polygon fill="midnightblue" stroke="midnightblue" points="597.644,-376.879 606.478,-371.03 595.924,-370.093 597.644,-376.879"/>
</g>
<!-- Node33&#45;&gt;Node18 -->
<g id="edge28" class="edge"><title>Node33&#45;&gt;Node18</title>
<path fill="none" stroke="midnightblue" d="M662.126,-344.882C686.861,-307.95 750.504,-212.927 780.245,-168.523"/>
<polygon fill="midnightblue" stroke="midnightblue" points="783.229,-170.358 785.885,-160.102 777.413,-166.463 783.229,-170.358"/>
</g>
<!-- Node33&#45;&gt;Node19 -->
<g id="edge29" class="edge"><title>Node33&#45;&gt;Node19</title>
<path fill="none" stroke="midnightblue" d="M674.184,-344.902C696.324,-329.835 730.79,-306.379 757.418,-288.257"/>
<polygon fill="midnightblue" stroke="midnightblue" points="759.465,-291.098 765.763,-282.578 755.526,-285.311 759.465,-291.098"/>
</g>
<!-- Node34 -->
<g id="node24" class="node"><title>Node34</title>
<g id="a_node24"><a xlink:href="namespacep3m__functions.html#a073c1f3e8fabe99bdae91ef37e5161ee" target="_top" xlink:title=" ">
<polygon fill="white" stroke="black" points="752.5,-333 752.5,-363 841.5,-363 841.5,-333 752.5,-333"/>
<text text-anchor="start" x="760.5" y="-351" font-family="Helvetica,sans-Serif" font-size="10.00">p3m_functions::build</text>
<text text-anchor="middle" x="797" y="-340" font-family="Helvetica,sans-Serif" font-size="10.00">_cubic_interpolant</text>
</a>
</g>
</g>
<!-- Node33&#45;&gt;Node34 -->
<g id="edge30" class="edge"><title>Node33&#45;&gt;Node34</title>
<path fill="none" stroke="midnightblue" d="M695.596,-356.367C710.123,-355.156 726.488,-353.793 741.724,-352.523"/>
<polygon fill="midnightblue" stroke="midnightblue" points="742.381,-355.98 752.056,-351.662 741.8,-349.005 742.381,-355.98"/>
</g>
<!-- Node35 -->
<g id="node25" class="node"><title>Node35</title>
<g id="a_node25"><a xlink:href="namespacep3m__functions.html#a7c194c12772ac968650dc2072d5b32ba" target="_top" xlink:title=" ">
<polygon fill="white" stroke="black" points="746.5,-431 746.5,-461 847.5,-461 847.5,-431 746.5,-431"/>
<text text-anchor="start" x="754.5" y="-449" font-family="Helvetica,sans-Serif" font-size="10.00">p3m_functions::is_cubic</text>
<text text-anchor="middle" x="797" y="-438" font-family="Helvetica,sans-Serif" font-size="10.00">_monotonic</text>
</a>
</g>
</g>
<!-- Node33&#45;&gt;Node35 -->
<g id="edge31" class="edge"><title>Node33&#45;&gt;Node35</title>
<path fill="none" stroke="midnightblue" d="M673.763,-375.056C683.078,-381.503 694.074,-389.118 704,-396 720.008,-407.1 723.032,-411.432 740,-421 743.398,-422.916 746.971,-424.796 750.598,-426.61"/>
<polygon fill="midnightblue" stroke="midnightblue" points="749.131,-429.789 759.66,-430.97 752.166,-423.481 749.131,-429.789"/>
</g>
<!-- Node36 -->
<g id="node26" class="node"><title>Node36</title>
<g id="a_node26"><a xlink:href="namespacep3m__functions.html#adb96651fe725f11e90dec2b8509989b0" target="_top" xlink:title=" ">
<polygon fill="white" stroke="black" points="740,-382 740,-412 854,-412 854,-382 740,-382"/>
<text text-anchor="start" x="748" y="-400" font-family="Helvetica,sans-Serif" font-size="10.00">p3m_functions::monotonize</text>
<text text-anchor="middle" x="797" y="-389" font-family="Helvetica,sans-Serif" font-size="10.00">_cubic</text>
</a>
</g>
</g>
<!-- Node33&#45;&gt;Node36 -->
<g id="edge32" class="edge"><title>Node33&#45;&gt;Node36</title>
<path fill="none" stroke="midnightblue" d="M695.596,-371.202C706.46,-373.993 718.353,-377.049 730.032,-380.05"/>
<polygon fill="midnightblue" stroke="midnightblue" points="729.209,-383.452 739.765,-382.551 730.951,-376.672 729.209,-383.452"/>
</g>
<!-- Node37&#45;&gt;Node34 -->
<g id="edge34" class="edge"><title>Node37&#45;&gt;Node34</title>
<path fill="none" stroke="midnightblue" d="M677.428,-405.925C694.806,-395.851 718.496,-382.56 740,-372 743.279,-370.39 746.692,-368.778 750.143,-367.193"/>
<polygon fill="midnightblue" stroke="midnightblue" points="751.612,-370.37 759.303,-363.083 748.747,-363.983 751.612,-370.37"/>
</g>
<!-- Node37&#45;&gt;Node35 -->
<g id="edge35" class="edge"><title>Node37&#45;&gt;Node35</title>
<path fill="none" stroke="midnightblue" d="M703.581,-429.955C714.208,-431.8 725.482,-433.757 736.368,-435.647"/>
<polygon fill="midnightblue" stroke="midnightblue" points="735.775,-439.096 746.226,-437.359 736.972,-432.2 735.775,-439.096"/>
</g>
<!-- Node37&#45;&gt;Node36 -->
<g id="edge36" class="edge"><title>Node37&#45;&gt;Node36</title>
<path fill="none" stroke="midnightblue" d="M703.581,-412.403C712.141,-410.976 721.122,-409.48 729.981,-408.003"/>
<polygon fill="midnightblue" stroke="midnightblue" points="730.614,-411.446 739.902,-406.35 729.463,-404.541 730.614,-411.446"/>
</g>
<!-- Node38&#45;&gt;Node22 -->
<g id="edge38" class="edge"><title>Node38&#45;&gt;Node22</title>
<path fill="none" stroke="midnightblue" d="M553.837,-549.019C567.53,-553.146 582.437,-557.638 596.336,-561.827"/>
<polygon fill="midnightblue" stroke="midnightblue" points="595.662,-565.279 606.246,-564.814 597.681,-558.577 595.662,-565.279"/>
</g>
<!-- Node38&#45;&gt;Node23 -->
<g id="edge39" class="edge"><title>Node38&#45;&gt;Node23</title>
<path fill="none" stroke="midnightblue" d="M556.709,-532.195C567.841,-531.814 579.656,-531.409 591.002,-531.02"/>
<polygon fill="midnightblue" stroke="midnightblue" points="591.383,-534.51 601.257,-530.669 591.143,-527.514 591.383,-534.51"/>
</g>
<!-- Node38&#45;&gt;Node24 -->
<g id="edge40" class="edge"><title>Node38&#45;&gt;Node24</title>
<path fill="none" stroke="midnightblue" d="M547.427,-549.148C552.552,-551.741 557.538,-554.687 562,-558 582.286,-573.063 578.142,-586.377 598,-602 600.032,-603.599 602.183,-605.129 604.408,-606.589"/>
<polygon fill="midnightblue" stroke="midnightblue" points="602.882,-609.754 613.265,-611.864 606.464,-603.739 602.882,-609.754"/>
</g>
<!-- Node39&#45;&gt;Node22 -->
<g id="edge42" class="edge"><title>Node39&#45;&gt;Node22</title>
<path fill="none" stroke="midnightblue" d="M556.709,-581.195C569.599,-580.753 583.406,-580.281 596.34,-579.838"/>
<polygon fill="midnightblue" stroke="midnightblue" points="596.617,-583.33 606.492,-579.49 596.378,-576.334 596.617,-583.33"/>
</g>
<!-- Node39&#45;&gt;Node23 -->
<g id="edge43" class="edge"><title>Node39&#45;&gt;Node23</title>
<path fill="none" stroke="midnightblue" d="M544.669,-567.958C561.684,-561.665 581.635,-554.286 599.571,-547.652"/>
<polygon fill="midnightblue" stroke="midnightblue" points="601.131,-550.807 609.296,-544.055 598.703,-544.241 601.131,-550.807"/>
</g>
<!-- Node39&#45;&gt;Node24 -->
<g id="edge44" class="edge"><title>Node39&#45;&gt;Node24</title>
<path fill="none" stroke="midnightblue" d="M553.837,-598.019C567.53,-602.146 582.437,-606.638 596.336,-610.827"/>
<polygon fill="midnightblue" stroke="midnightblue" points="595.662,-614.279 606.246,-613.814 597.681,-607.577 595.662,-614.279"/>
</g>
<!-- Node41 -->
<g id="node31" class="node"><title>Node41</title>
<g id="a_node31"><a xlink:href="namespacepqm__functions.html#a0ce0d64922453de1312adec7b8746544" target="_top" xlink:title=" ">
<polygon fill="white" stroke="black" points="606.5,-11 606.5,-41 695.5,-41 695.5,-11 606.5,-11"/>
<text text-anchor="start" x="614.5" y="-29" font-family="Helvetica,sans-Serif" font-size="10.00">pqm_functions::pqm</text>
<text text-anchor="middle" x="651" y="-18" font-family="Helvetica,sans-Serif" font-size="10.00">_limiter</text>
</a>
</g>
</g>
<!-- Node40&#45;&gt;Node41 -->
<g id="edge46" class="edge"><title>Node40&#45;&gt;Node41</title>
<path fill="none" stroke="midnightblue" d="M547.805,-18.3004C563.032,-19.4476 580.289,-20.7478 596.228,-21.9487"/>
<polygon fill="midnightblue" stroke="midnightblue" points="596.243,-25.4597 606.478,-22.7209 596.769,-18.4794 596.243,-25.4597"/>
</g>
<!-- Node41&#45;&gt;Node18 -->
<g id="edge47" class="edge"><title>Node41&#45;&gt;Node18</title>
<path fill="none" stroke="midnightblue" d="M690.474,-41.1295C695.245,-43.7501 699.885,-46.7078 704,-50 724.546,-66.4382 721.913,-77.8898 740,-97 748.714,-106.207 759.063,-115.471 768.48,-123.372"/>
<polygon fill="midnightblue" stroke="midnightblue" points="766.504,-126.278 776.45,-129.928 770.95,-120.872 766.504,-126.278"/>
</g>
<!-- Node41&#45;&gt;Node29 -->
<g id="edge48" class="edge"><title>Node41&#45;&gt;Node29</title>
<path fill="none" stroke="midnightblue" d="M695.596,-38.4126C709.518,-42.3766 725.128,-46.8211 739.814,-51.0027"/>
<polygon fill="midnightblue" stroke="midnightblue" points="739.226,-54.4742 749.802,-53.8465 741.143,-47.7418 739.226,-54.4742"/>
</g>
<!-- Node44 -->
<g id="node34" class="node"><title>Node44</title>
<g id="a_node34"><a xlink:href="namespacemom__regridding.html#a6ec0dea34ca979892fcaf54a2c676c5e" target="_top" xlink:title=" ">
<polygon fill="white" stroke="black" points="600.5,-661 600.5,-691 701.5,-691 701.5,-661 600.5,-661"/>
<text text-anchor="start" x="608.5" y="-679" font-family="Helvetica,sans-Serif" font-size="10.00">mom_regridding::get</text>
<text text-anchor="middle" x="651" y="-668" font-family="Helvetica,sans-Serif" font-size="10.00">_polynomial_coordinate</text>
</a>
</g>
</g>
<!-- Node43&#45;&gt;Node44 -->
<g id="edge51" class="edge"><title>Node43&#45;&gt;Node44</title>
<path fill="none" stroke="midnightblue" d="M407.668,-672.079C461.891,-672.956 537.727,-674.183 590.053,-675.03"/>
<polygon fill="midnightblue" stroke="midnightblue" points="590.136,-678.532 600.192,-675.194 590.25,-671.533 590.136,-678.532"/>
</g>
<!-- Node44&#45;&gt;Node13 -->
<g id="edge52" class="edge"><title>Node44&#45;&gt;Node13</title>
<path fill="none" stroke="midnightblue" d="M701.154,-691.019C713.879,-694.908 727.667,-699.121 740.685,-703.098"/>
<polygon fill="midnightblue" stroke="midnightblue" points="739.873,-706.51 750.459,-706.085 741.918,-699.815 739.873,-706.51"/>
</g>
<!-- Node45&#45;&gt;Node13 -->
<g id="edge54" class="edge"><title>Node45&#45;&gt;Node13</title>
<path fill="none" stroke="midnightblue" d="M236.043,-714.501C349.494,-715.615 621.873,-718.29 739.893,-719.449"/>
<polygon fill="midnightblue" stroke="midnightblue" points="740.115,-722.951 750.149,-719.55 740.184,-715.952 740.115,-722.951"/>
</g>
</g>
</svg>
        <g id="navigator" transform="translate(0 0)" fill="#404254">
                <rect fill="#f2f5e9" fill-opacity="0.5" stroke="#606060" stroke-width=".5" x="0" y="0" width="60" height="60"/>
                <use id="zoomplus" xlink:href="#zoomPlus" x="17" y="9" onmousedown="handleZoom(evt,'in')"/>
                <use id="zoomminus" xlink:href="#zoomMin" x="42" y="9" onmousedown="handleZoom(evt,'out')"/>
                <use id="reset" xlink:href="#resetDef" x="30" y="36" onmousedown="handleReset()"/>
                <g id="arrowUp" xlink:href="#dirArrow" transform="translate(30 24)" onmousedown="handlePan(0,-1)">
                  <use xlink:href="#rim" fill="#404040">
                        <set attributeName="fill" to="#808080" begin="arrowUp.mouseover" end="arrowUp.mouseout"/>
                  </use>
                  <path fill="none" stroke="white" stroke-width="1.5" d="M0,-3.0v7 M-2.5,-0.5L0,-3.0L2.5,-0.5"/>
                </g>
                <g id="arrowRight" xlink:href="#dirArrow" transform="rotate(90) translate(36 -43)" onmousedown="handlePan(1,0)">
                  <use xlink:href="#rim" fill="#404040">
                        <set attributeName="fill" to="#808080" begin="arrowRight.mouseover" end="arrowRight.mouseout"/>
                  </use>
                  <path fill="none" stroke="white" stroke-width="1.5" d="M0,-3.0v7 M-2.5,-0.5L0,-3.0L2.5,-0.5"/>
                </g>
                <g id="arrowDown" xlink:href="#dirArrow" transform="rotate(180) translate(-30 -48)" onmousedown="handlePan(0,1)">
                  <use xlink:href="#rim" fill="#404040">
                        <set attributeName="fill" to="#808080" begin="arrowDown.mouseover" end="arrowDown.mouseout"/>
                  </use>
                  <path fill="none" stroke="white" stroke-width="1.5" d="M0,-3.0v7 M-2.5,-0.5L0,-3.0L2.5,-0.5"/>
                </g>
                <g id="arrowLeft" xlink:href="#dirArrow" transform="rotate(270) translate(-36 17)" onmousedown="handlePan(-1,0)">
                  <use xlink:href="#rim" fill="#404040">
                        <set attributeName="fill" to="#808080" begin="arrowLeft.mouseover" end="arrowLeft.mouseout"/>
                  </use>
                  <path fill="none" stroke="white" stroke-width="1.5" d="M0,-3.0v7 M-2.5,-0.5L0,-3.0L2.5,-0.5"/>
                </g>
        </g>
        <svg viewBox="0 0 15 15" width="100%" height="30px" preserveAspectRatio="xMaxYMin meet">
         <g id="arrow_out" transform="scale(0.3 0.3)">
          <a xlink:href="namespacemom__regridding_a3375da62433b875eed537feeba1ae1b3_cgraph_org.svg" target="_base">
           <rect id="button" ry="5" rx="5" y="6" x="6" height="38" width="38"
                fill="#f2f5e9" fill-opacity="0.5" stroke="#606060" stroke-width="1.0"/>
           <path id="arrow"
             d="M 11.500037,31.436501 C 11.940474,20.09759 22.043105,11.32322 32.158766,21.979434 L 37.068811,17.246167 C 37.068811,17.246167 37.088388,32 37.088388,32 L 22.160133,31.978069 C 22.160133,31.978069 26.997745,27.140456 26.997745,27.140456 C 18.528582,18.264221 13.291696,25.230495 11.500037,31.436501 z"
             style="fill:#404040;"/>
          </a>
         </g>
        </svg>
</svg>
