<?xml version="1.0" encoding="UTF-8" standalone="no"?>
<!DOCTYPE svg PUBLIC "-//W3C//DTD SVG 1.1//EN"
 "http://www.w3.org/Graphics/SVG/1.1/DTD/svg11.dtd">
<!-- Generated by graphviz version 2.30.1 (20170916.1124)
 -->
<!-- Title: mom_offline_transport::next_modulo_time Pages: 1 -->
<svg width="240pt" height="87pt"
 viewBox="0.00 0.00 240.00 87.00" xmlns="http://www.w3.org/2000/svg" xmlns:xlink="http://www.w3.org/1999/xlink">
<g id="graph0" class="graph" transform="scale(1 1) rotate(0) translate(4 83)">
<title>mom_offline_transport::next_modulo_time</title>
<polygon fill="white" stroke="white" points="-4,5 -4,-83 237,-83 237,5 -4,5"/>
<!-- Node19 -->
<g id="node1" class="node"><title>Node19</title>
<g id="a_node1"><a xlink:title="Calculates the next timelevel to read from the input fields. This allows the &#39;looping&#39; of the fields.">
<polygon fill="#bfbfbf" stroke="black" points="134.5,-24 134.5,-54 231.5,-54 231.5,-24 134.5,-24"/>
<text text-anchor="start" x="142.5" y="-42" font-family="Helvetica,sans-Serif" font-size="10.00">mom_offline_transport</text>
<text text-anchor="middle" x="183" y="-31" font-family="Helvetica,sans-Serif" font-size="10.00">::next_modulo_time</text>
</a>
</g>
</g>
<!-- Node20 -->
<g id="node2" class="node"><title>Node20</title>
<g id="a_node2"><a xlink:href="namespacemom__offline__transport.html#a44091358f321c2eeb97e5542d2176446" target="_top" xlink:title="Initializes the control structure for offline transport and reads in some of the.">
<polygon fill="white" stroke="black" points="0.5,-49 0.5,-79 97.5,-79 97.5,-49 0.5,-49"/>
<text text-anchor="start" x="8.5" y="-67" font-family="Helvetica,sans-Serif" font-size="10.00">mom_offline_transport</text>
<text text-anchor="middle" x="49" y="-56" font-family="Helvetica,sans-Serif" font-size="10.00">::offline_transport_init</text>
</a>
</g>
</g>
<!-- Node19&#45;&gt;Node20 -->
<g id="edge1" class="edge"><title>Node19&#45;&gt;Node20</title>
<path fill="none" stroke="midnightblue" d="M124.371,-49.9145C115.427,-51.6085 106.275,-53.3419 97.5851,-54.9877"/>
<polygon fill="midnightblue" stroke="midnightblue" points="125.171,-53.3254 134.345,-48.0256 123.868,-46.4476 125.171,-53.3254"/>
</g>
<!-- Node21 -->
<g id="node3" class="node"><title>Node21</title>
<g id="a_node3"><a xlink:href="namespacemom__offline__transport.html#a60b8cb34d18c91e1e965b21b0cc65ce5" target="_top" xlink:title="Controls the reading in 3d mass fluxes, diffusive fluxes, and other fields stored in a previous integ...">
<polygon fill="white" stroke="black" points="0.5,-0 0.5,-30 97.5,-30 97.5,-0 0.5,-0"/>
<text text-anchor="start" x="8.5" y="-18" font-family="Helvetica,sans-Serif" font-size="10.00">mom_offline_transport</text>
<text text-anchor="middle" x="49" y="-7" font-family="Helvetica,sans-Serif" font-size="10.00">::transport_by_files</text>
</a>
</g>
</g>
<!-- Node19&#45;&gt;Node21 -->
<g id="edge2" class="edge"><title>Node19&#45;&gt;Node21</title>
<path fill="none" stroke="midnightblue" d="M124.371,-28.522C115.427,-26.8958 106.275,-25.2318 97.5851,-23.6518"/>
<polygon fill="midnightblue" stroke="midnightblue" points="123.88,-31.9901 134.345,-30.3354 125.132,-25.103 123.88,-31.9901"/>
</g>
</g>
</svg>
