<?xml version="1.0" encoding="UTF-8" standalone="no"?>
<!DOCTYPE svg PUBLIC "-//W3C//DTD SVG 1.1//EN"
 "http://www.w3.org/Graphics/SVG/1.1/DTD/svg11.dtd">
<!-- Generated by graphviz version 2.30.1 (20170916.1124)
 -->
<!-- Title: mom_diag_vkernels::diag_vkernels_unit_tests Pages: 1 -->
<svg width="350pt" height="87pt"
 viewBox="0.00 0.00 350.00 87.00" xmlns="http://www.w3.org/2000/svg" xmlns:xlink="http://www.w3.org/1999/xlink">
<g id="graph0" class="graph" transform="scale(1 1) rotate(0) translate(4 83)">
<title>mom_diag_vkernels::diag_vkernels_unit_tests</title>
<polygon fill="white" stroke="white" points="-4,5 -4,-83 347,-83 347,5 -4,5"/>
<!-- Node0 -->
<g id="node1" class="node"><title>Node0</title>
<g id="a_node1"><a xlink:title="Returns true if any unit tests for module MOM_diag_vkernels fail.">
<polygon fill="#bfbfbf" stroke="black" points="0,-25 0,-55 104,-55 104,-25 0,-25"/>
<text text-anchor="start" x="8" y="-43" font-family="Helvetica,sans-Serif" font-size="10.00">mom_diag_vkernels::</text>
<text text-anchor="middle" x="52" y="-32" font-family="Helvetica,sans-Serif" font-size="10.00">diag_vkernels_unit_tests</text>
</a>
</g>
</g>
<!-- Node1 -->
<g id="node2" class="node"><title>Node1</title>
<g id="a_node2"><a xlink:href="MOM__diag__vkernels_8F90.html#a1bfb1facd41f8ad56f189b7c69569d50" target="_top" xlink:title="Returns true if a test of interpolate_column() produces the wrong answer.">
<polygon fill="white" stroke="black" points="150,-51.5 150,-70.5 204,-70.5 204,-51.5 150,-51.5"/>
<text text-anchor="middle" x="177" y="-58.5" font-family="Helvetica,sans-Serif" font-size="10.00">test_interp</text>
</a>
</g>
</g>
<!-- Node0&#45;&gt;Node1 -->
<g id="edge1" class="edge"><title>Node0&#45;&gt;Node1</title>
<path fill="none" stroke="midnightblue" d="M104.095,-48.7235C115.999,-50.7559 128.439,-52.8799 139.56,-54.7786"/>
<polygon fill="midnightblue" stroke="midnightblue" points="139.312,-58.2868 149.758,-56.5197 140.49,-51.3866 139.312,-58.2868"/>
</g>
<!-- Node3 -->
<g id="node4" class="node"><title>Node3</title>
<g id="a_node4"><a xlink:href="MOM__diag__vkernels_8F90.html#ad40d8068b3cc78571f4c0c405212f7d8" target="_top" xlink:title="Returns true if a test of reintegrate_column() produces the wrong answer.">
<polygon fill="white" stroke="black" points="140.5,-10.5 140.5,-29.5 213.5,-29.5 213.5,-10.5 140.5,-10.5"/>
<text text-anchor="middle" x="177" y="-17.5" font-family="Helvetica,sans-Serif" font-size="10.00">test_reintegrate</text>
</a>
</g>
</g>
<!-- Node0&#45;&gt;Node3 -->
<g id="edge3" class="edge"><title>Node0&#45;&gt;Node3</title>
<path fill="none" stroke="midnightblue" d="M104.095,-31.692C112.729,-30.288 121.645,-28.8383 130.135,-27.4578"/>
<polygon fill="midnightblue" stroke="midnightblue" points="130.924,-30.8755 140.232,-25.8159 129.8,-23.9663 130.924,-30.8755"/>
</g>
<!-- Node2 -->
<g id="node3" class="node"><title>Node2</title>
<g id="a_node3"><a xlink:href="namespacemom__diag__vkernels.html#a4f42f472a725a147f8d97a68b2028c5b" target="_top" xlink:title="Linearly interpolate interface data, u_src, from grid h_src to a grid h_dest.">
<polygon fill="white" stroke="black" points="250,-49 250,-79 342,-79 342,-49 250,-49"/>
<text text-anchor="start" x="258" y="-67" font-family="Helvetica,sans-Serif" font-size="10.00">mom_diag_vkernels::</text>
<text text-anchor="middle" x="296" y="-56" font-family="Helvetica,sans-Serif" font-size="10.00">interpolate_column</text>
</a>
</g>
</g>
<!-- Node1&#45;&gt;Node2 -->
<g id="edge2" class="edge"><title>Node1&#45;&gt;Node2</title>
<path fill="none" stroke="midnightblue" d="M204.257,-61.6733C214.784,-61.9432 227.337,-62.2651 239.699,-62.582"/>
<polygon fill="midnightblue" stroke="midnightblue" points="239.903,-66.0883 249.99,-62.8459 240.083,-59.0906 239.903,-66.0883"/>
</g>
<!-- Node4 -->
<g id="node5" class="node"><title>Node4</title>
<g id="a_node5"><a xlink:href="namespacemom__diag__vkernels.html#a89369e4bf4b7795f6e384762d11f0d23" target="_top" xlink:title="Conservatively calculate integrated data, uh_dest, on grid h_dest, from layer&#45;integrated data,...">
<polygon fill="white" stroke="black" points="250,-0 250,-30 342,-30 342,-0 250,-0"/>
<text text-anchor="start" x="258" y="-18" font-family="Helvetica,sans-Serif" font-size="10.00">mom_diag_vkernels::</text>
<text text-anchor="middle" x="296" y="-7" font-family="Helvetica,sans-Serif" font-size="10.00">reintegrate_column</text>
</a>
</g>
</g>
<!-- Node3&#45;&gt;Node4 -->
<g id="edge4" class="edge"><title>Node3&#45;&gt;Node4</title>
<path fill="none" stroke="midnightblue" d="M213.74,-18.4727C221.951,-18.1218 230.871,-17.7406 239.694,-17.3635"/>
<polygon fill="midnightblue" stroke="midnightblue" points="240.117,-20.8487 249.958,-16.9249 239.818,-13.8551 240.117,-20.8487"/>
</g>
</g>
</svg>
