<?xml version="1.0" encoding="UTF-8" standalone="no"?>
<!DOCTYPE svg PUBLIC "-//W3C//DTD SVG 1.1//EN"
 "http://www.w3.org/Graphics/SVG/1.1/DTD/svg11.dtd">
<!-- Generated by graphviz version 2.30.1 (20170916.1124)
 -->
<!-- Title: p3m_functions::p3m_limiter Pages: 1 -->
<svg width="946pt" height="136pt"
 viewBox="0.00 0.00 946.00 136.00" xmlns="http://www.w3.org/2000/svg" xmlns:xlink="http://www.w3.org/1999/xlink">
<g id="graph0" class="graph" transform="scale(1 1) rotate(0) translate(4 132)">
<title>p3m_functions::p3m_limiter</title>
<polygon fill="white" stroke="white" points="-4,5 -4,-132 943,-132 943,5 -4,5"/>
<!-- Node79 -->
<g id="node1" class="node"><title>Node79</title>
<g id="a_node1"><a xlink:title=" ">
<polygon fill="#bfbfbf" stroke="black" points="848.5,-49 848.5,-79 937.5,-79 937.5,-49 848.5,-49"/>
<text text-anchor="start" x="856.5" y="-67" font-family="Helvetica,sans-Serif" font-size="10.00">p3m_functions::p3m</text>
<text text-anchor="middle" x="893" y="-56" font-family="Helvetica,sans-Serif" font-size="10.00">_limiter</text>
</a>
</g>
</g>
<!-- Node80 -->
<g id="node2" class="node"><title>Node80</title>
<g id="a_node2"><a xlink:href="namespacep3m__functions.html#a1769b4b4ced88bbd9f28e348a7bdeabc" target="_top" xlink:title=" ">
<polygon fill="white" stroke="black" points="722.5,-49 722.5,-79 811.5,-79 811.5,-49 722.5,-49"/>
<text text-anchor="start" x="730.5" y="-67" font-family="Helvetica,sans-Serif" font-size="10.00">p3m_functions::p3m</text>
<text text-anchor="middle" x="767" y="-56" font-family="Helvetica,sans-Serif" font-size="10.00">_interpolation</text>
</a>
</g>
</g>
<!-- Node79&#45;&gt;Node80 -->
<g id="edge1" class="edge"><title>Node79&#45;&gt;Node80</title>
<path fill="none" stroke="midnightblue" d="M838.092,-64C829.288,-64 820.262,-64 811.741,-64"/>
<polygon fill="midnightblue" stroke="midnightblue" points="838.282,-67.5001 848.282,-64 838.282,-60.5001 838.282,-67.5001"/>
</g>
<!-- Node81 -->
<g id="node3" class="node"><title>Node81</title>
<g id="a_node3"><a xlink:href="namespacemom__regridding.html#a580e775df53e4bb61f118fcab44a3f92" target="_top" xlink:title="Given the set of target values and cell densities, this routine builds an interpolated profile for th...">
<polygon fill="white" stroke="black" points="570,-49 570,-79 686,-79 686,-49 570,-49"/>
<text text-anchor="start" x="578" y="-67" font-family="Helvetica,sans-Serif" font-size="10.00">mom_regridding::regridding</text>
<text text-anchor="middle" x="628" y="-56" font-family="Helvetica,sans-Serif" font-size="10.00">_set_ppolys</text>
</a>
</g>
</g>
<!-- Node80&#45;&gt;Node81 -->
<g id="edge2" class="edge"><title>Node80&#45;&gt;Node81</title>
<path fill="none" stroke="midnightblue" d="M712.131,-64C703.657,-64 694.869,-64 686.32,-64"/>
<polygon fill="midnightblue" stroke="midnightblue" points="712.276,-67.5001 722.276,-64 712.276,-60.5001 712.276,-67.5001"/>
</g>
<!-- Node82 -->
<g id="node4" class="node"><title>Node82</title>
<g id="a_node4"><a xlink:href="namespacemom__regridding.html#acbe376c457e1ea0c4514b948cbf5144b" target="_top" xlink:title=" ">
<polygon fill="white" stroke="black" points="438,-98 438,-128 534,-128 534,-98 438,-98"/>
<text text-anchor="start" x="446" y="-116" font-family="Helvetica,sans-Serif" font-size="10.00">mom_regridding::build</text>
<text text-anchor="middle" x="486" y="-105" font-family="Helvetica,sans-Serif" font-size="10.00">_hycom1_column</text>
</a>
</g>
</g>
<!-- Node81&#45;&gt;Node82 -->
<g id="edge3" class="edge"><title>Node81&#45;&gt;Node82</title>
<path fill="none" stroke="midnightblue" d="M574.041,-82.5355C559.583,-87.5959 544.092,-93.0177 530.245,-97.8641"/>
<polygon fill="midnightblue" stroke="midnightblue" points="575.571,-85.7085 583.853,-79.1014 573.258,-79.1015 575.571,-85.7085"/>
</g>
<!-- Node85 -->
<g id="node7" class="node"><title>Node85</title>
<g id="a_node7"><a xlink:href="namespacemom__regridding.html#a799aacb5c6e7ab70f8177ca8b4a5330b" target="_top" xlink:title=" ">
<polygon fill="white" stroke="black" points="438,-49 438,-79 534,-79 534,-49 438,-49"/>
<text text-anchor="start" x="446" y="-67" font-family="Helvetica,sans-Serif" font-size="10.00">mom_regridding::build</text>
<text text-anchor="middle" x="486" y="-56" font-family="Helvetica,sans-Serif" font-size="10.00">_rho_column</text>
</a>
</g>
</g>
<!-- Node81&#45;&gt;Node85 -->
<g id="edge6" class="edge"><title>Node81&#45;&gt;Node85</title>
<path fill="none" stroke="midnightblue" d="M559.627,-64C551.039,-64 542.399,-64 534.224,-64"/>
<polygon fill="midnightblue" stroke="midnightblue" points="559.653,-67.5001 569.653,-64 559.653,-60.5001 559.653,-67.5001"/>
</g>
<!-- Node87 -->
<g id="node9" class="node"><title>Node87</title>
<g id="a_node9"><a xlink:href="namespacemom__regridding.html#aacf680ddf88e9c41a340dd426272906d" target="_top" xlink:title="Finds the new interface locations in a column of water that match the prescribed target densities.">
<polygon fill="white" stroke="black" points="440,-0 440,-30 532,-30 532,-0 440,-0"/>
<text text-anchor="start" x="448" y="-18" font-family="Helvetica,sans-Serif" font-size="10.00">mom_regridding::rho</text>
<text text-anchor="middle" x="486" y="-7" font-family="Helvetica,sans-Serif" font-size="10.00">_interfaces_col</text>
</a>
</g>
</g>
<!-- Node81&#45;&gt;Node87 -->
<g id="edge9" class="edge"><title>Node81&#45;&gt;Node87</title>
<path fill="none" stroke="midnightblue" d="M574.041,-45.4645C559.583,-40.4041 544.092,-34.9823 530.245,-30.1359"/>
<polygon fill="midnightblue" stroke="midnightblue" points="573.258,-48.8985 583.853,-48.8986 575.571,-42.2915 573.258,-48.8985"/>
</g>
<!-- Node83 -->
<g id="node5" class="node"><title>Node83</title>
<g id="a_node5"><a xlink:href="namespacemom__regridding.html#a3375da62433b875eed537feeba1ae1b3" target="_top" xlink:title="Builds a simple HyCOM&#45;like grid with the deepest location of potential density interpolated from the ...">
<polygon fill="white" stroke="black" points="174,-94 174,-124 270,-124 270,-94 174,-94"/>
<text text-anchor="start" x="182" y="-112" font-family="Helvetica,sans-Serif" font-size="10.00">mom_regridding::build</text>
<text text-anchor="middle" x="222" y="-101" font-family="Helvetica,sans-Serif" font-size="10.00">_grid_hycom1</text>
</a>
</g>
</g>
<!-- Node82&#45;&gt;Node83 -->
<g id="edge4" class="edge"><title>Node82&#45;&gt;Node83</title>
<path fill="none" stroke="midnightblue" d="M427.79,-112.127C380.59,-111.406 314.423,-110.396 270.206,-109.721"/>
<polygon fill="midnightblue" stroke="midnightblue" points="427.805,-115.627 437.857,-112.28 427.912,-108.628 427.805,-115.627"/>
</g>
<!-- Node84 -->
<g id="node6" class="node"><title>Node84</title>
<g id="a_node6"><a xlink:href="namespacemom__regridding.html#abf6d4e0d14c8b3b69fa4ffca42122c5f" target="_top" xlink:title=" ">
<polygon fill="white" stroke="black" points="0.5,-54.5 0.5,-73.5 137.5,-73.5 137.5,-54.5 0.5,-54.5"/>
<text text-anchor="middle" x="69" y="-61.5" font-family="Helvetica,sans-Serif" font-size="10.00">mom_regridding::regridding_main</text>
</a>
</g>
</g>
<!-- Node83&#45;&gt;Node84 -->
<g id="edge5" class="edge"><title>Node83&#45;&gt;Node84</title>
<path fill="none" stroke="midnightblue" d="M163.852,-91.969C142.879,-85.7188 119.894,-78.8692 101.921,-73.5128"/>
<polygon fill="midnightblue" stroke="midnightblue" points="163.054,-95.3833 173.637,-94.8852 165.053,-88.6749 163.054,-95.3833"/>
</g>
<!-- Node86 -->
<g id="node8" class="node"><title>Node86</title>
<g id="a_node8"><a xlink:href="namespacemom__regridding.html#a58a19305bbdab26bfa4f336dfac8c4f8" target="_top" xlink:title=" ">
<polygon fill="white" stroke="black" points="306,-49 306,-79 402,-79 402,-49 306,-49"/>
<text text-anchor="start" x="314" y="-67" font-family="Helvetica,sans-Serif" font-size="10.00">mom_regridding::build</text>
<text text-anchor="middle" x="354" y="-56" font-family="Helvetica,sans-Serif" font-size="10.00">_rho_grid</text>
</a>
</g>
</g>
<!-- Node85&#45;&gt;Node86 -->
<g id="edge7" class="edge"><title>Node85&#45;&gt;Node86</title>
<path fill="none" stroke="midnightblue" d="M427.461,-64C418.966,-64 410.297,-64 402.048,-64"/>
<polygon fill="midnightblue" stroke="midnightblue" points="427.699,-67.5001 437.699,-64 427.699,-60.5001 427.699,-67.5001"/>
</g>
<!-- Node86&#45;&gt;Node84 -->
<g id="edge8" class="edge"><title>Node86&#45;&gt;Node84</title>
<path fill="none" stroke="midnightblue" d="M295.905,-64C250.162,-64 185.872,-64 137.567,-64"/>
<polygon fill="midnightblue" stroke="midnightblue" points="295.951,-67.5001 305.951,-64 295.951,-60.5001 295.951,-67.5001"/>
</g>
<!-- Node88 -->
<g id="node10" class="node"><title>Node88</title>
<g id="a_node10"><a xlink:href="namespacemom__regridding.html#a5927168e530c06163baf3693a804e15f" target="_top" xlink:title=" ">
<polygon fill="white" stroke="black" points="306,-0 306,-30 402,-30 402,-0 306,-0"/>
<text text-anchor="start" x="314" y="-18" font-family="Helvetica,sans-Serif" font-size="10.00">mom_regridding::build</text>
<text text-anchor="middle" x="354" y="-7" font-family="Helvetica,sans-Serif" font-size="10.00">_slight_column</text>
</a>
</g>
</g>
<!-- Node87&#45;&gt;Node88 -->
<g id="edge10" class="edge"><title>Node87&#45;&gt;Node88</title>
<path fill="none" stroke="midnightblue" d="M429.72,-15C420.571,-15 411.16,-15 402.233,-15"/>
<polygon fill="midnightblue" stroke="midnightblue" points="429.897,-18.5001 439.897,-15 429.897,-11.5001 429.897,-18.5001"/>
</g>
<!-- Node89 -->
<g id="node11" class="node"><title>Node89</title>
<g id="a_node11"><a xlink:href="namespacemom__regridding.html#adbdde4ab6606ab76f64f57b7ee5dfdeb" target="_top" xlink:title="Builds a grid that tracks density interfaces for water that is denser than the surface density plus a...">
<polygon fill="white" stroke="black" points="174,-3 174,-33 270,-33 270,-3 174,-3"/>
<text text-anchor="start" x="182" y="-21" font-family="Helvetica,sans-Serif" font-size="10.00">mom_regridding::build</text>
<text text-anchor="middle" x="222" y="-10" font-family="Helvetica,sans-Serif" font-size="10.00">_grid_slight</text>
</a>
</g>
</g>
<!-- Node88&#45;&gt;Node89 -->
<g id="edge11" class="edge"><title>Node88&#45;&gt;Node89</title>
<path fill="none" stroke="midnightblue" d="M295.461,-16.3278C286.966,-16.5239 278.297,-16.7239 270.048,-16.9143"/>
<polygon fill="midnightblue" stroke="midnightblue" points="295.783,-19.8214 305.699,-16.0916 295.621,-12.8233 295.783,-19.8214"/>
</g>
<!-- Node89&#45;&gt;Node84 -->
<g id="edge12" class="edge"><title>Node89&#45;&gt;Node84</title>
<path fill="none" stroke="midnightblue" d="M164.065,-35.3446C142.854,-41.8059 119.56,-48.9021 101.459,-54.4164"/>
<polygon fill="midnightblue" stroke="midnightblue" points="165.091,-38.6908 173.637,-32.4285 163.051,-31.9946 165.091,-38.6908"/>
</g>
</g>
</svg>
