<?xml version="1.0" encoding="UTF-8" standalone="no"?>
<!DOCTYPE svg PUBLIC "-//W3C//DTD SVG 1.1//EN"
 "http://www.w3.org/Graphics/SVG/1.1/DTD/svg11.dtd">
<!-- Generated by graphviz version 2.30.1 (20170916.1124)
 -->
<!-- Title: mom_internal_tides::sum_en Pages: 1 -->
<svg width="226pt" height="38pt"
 viewBox="0.00 0.00 226.00 38.00" xmlns="http://www.w3.org/2000/svg" xmlns:xlink="http://www.w3.org/1999/xlink">
<g id="graph0" class="graph" transform="scale(1 1) rotate(0) translate(4 34)">
<title>mom_internal_tides::sum_en</title>
<polygon fill="white" stroke="white" points="-4,5 -4,-34 223,-34 223,5 -4,5"/>
<!-- Node137 -->
<g id="node1" class="node"><title>Node137</title>
<g id="a_node1"><a xlink:title=" ">
<polygon fill="#bfbfbf" stroke="black" points="0,-0 0,-30 86,-30 86,-0 0,-0"/>
<text text-anchor="start" x="8" y="-18" font-family="Helvetica,sans-Serif" font-size="10.00">mom_internal_tides</text>
<text text-anchor="middle" x="43" y="-7" font-family="Helvetica,sans-Serif" font-size="10.00">::sum_en</text>
</a>
</g>
</g>
<!-- Node138 -->
<g id="node2" class="node"><title>Node138</title>
<g id="a_node2"><a xlink:href="namespacemom__spatial__means.html#aa49abab62973a263d6f5a1c776f62a11" target="_top" xlink:title=" ">
<polygon fill="white" stroke="black" points="122.5,-0 122.5,-30 217.5,-30 217.5,-0 122.5,-0"/>
<text text-anchor="start" x="130.5" y="-18" font-family="Helvetica,sans-Serif" font-size="10.00">mom_spatial_means::</text>
<text text-anchor="middle" x="170" y="-7" font-family="Helvetica,sans-Serif" font-size="10.00">global_area_mean</text>
</a>
</g>
</g>
<!-- Node137&#45;&gt;Node138 -->
<g id="edge1" class="edge"><title>Node137&#45;&gt;Node138</title>
<path fill="none" stroke="midnightblue" d="M86.3193,-15C94.668,-15 103.555,-15 112.29,-15"/>
<polygon fill="midnightblue" stroke="midnightblue" points="112.432,-18.5001 122.432,-15 112.432,-11.5001 112.432,-18.5001"/>
</g>
</g>
</svg>
