<?xml version="1.0" encoding="UTF-8" standalone="no"?>
<!DOCTYPE svg PUBLIC "-//W3C//DTD SVG 1.1//EN"
 "http://www.w3.org/Graphics/SVG/1.1/DTD/svg11.dtd">
<!-- Generated by graphviz version 2.30.1 (20170916.1124)
 -->
<!-- Title: mom_ice_shelf::quad_area Pages: 1 -->
<!--zoomable 185 -->
<svg id="main" version="1.1" xmlns="http://www.w3.org/2000/svg" xmlns:xlink="http://www.w3.org/1999/xlink" xml:space="preserve" onload="init(evt)">
<style type="text/css"><![CDATA[
.edge:hover path { stroke: red; }
.edge:hover polygon { stroke: red; fill: red; }
]]></style>
<script type="text/javascript"><![CDATA[
var edges = document.getElementsByTagName('g');
if (edges && edges.length) {
  for (var i=0;i<edges.length;i++) {
    if (edges[i].id.substr(0,4)=='edge') {
      edges[i].setAttribute('class','edge');
    }
  }
}
]]></script>
        <defs>
                <circle id="rim" cx="0" cy="0" r="7"/>
                <circle id="rim2" cx="0" cy="0" r="3.5"/>
                <g id="zoomPlus">
                        <use xlink:href="#rim" fill="#404040">
                                <set attributeName="fill" to="#808080" begin="zoomplus.mouseover" end="zoomplus.mouseout"/>
                        </use>
                        <path d="M-4,0h8M0,-4v8" fill="none" stroke="white" stroke-width="1.5" pointer-events="none"/>
                </g>
                <g id="zoomMin">
                        <use xlink:href="#rim" fill="#404040">
                                <set attributeName="fill" to="#808080" begin="zoomminus.mouseover" end="zoomminus.mouseout"/>
                        </use>
                        <path d="M-4,0h8" fill="none" stroke="white" stroke-width="1.5" pointer-events="none"/>
                </g>
                <g id="dirArrow">
                        <path fill="none" stroke="white" stroke-width="1.5" d="M0,-3.0v7 M-2.5,-0.5L0,-3.0L2.5,-0.5"/>
                </g>
               <g id="resetDef">
                       <use xlink:href="#rim2" fill="#404040">
                               <set attributeName="fill" to="#808080" begin="reset.mouseover" end="reset.mouseout"/>
                       </use>
               </g>
        </defs>

<script type="text/javascript">
var viewWidth = 876;
var viewHeight = 185;
var sectionId = 'dynsection-45';
</script>
<script xlink:href="svgpan.js"/>
<svg id="graph" class="graph">
<g id="viewport">
<title>mom_ice_shelf::quad_area</title>
<polygon fill="white" stroke="white" points="-4,5 -4,-181 873,-181 873,5 -4,5"/>
<!-- Node387 -->
<g id="node1" class="node"><title>Node387</title>
<g id="a_node1"><a xlink:title=" ">
<polygon fill="#bfbfbf" stroke="black" points="754.5,-81.5 754.5,-100.5 867.5,-100.5 867.5,-81.5 754.5,-81.5"/>
<text text-anchor="middle" x="811" y="-88.5" font-family="Helvetica,sans-Serif" font-size="10.00">mom_ice_shelf::quad_area</text>
</a>
</g>
</g>
<!-- Node388 -->
<g id="node2" class="node"><title>Node388</title>
<g id="a_node2"><a xlink:href="namespacemom__ice__shelf.html#a9f77faf4c64078c8bce0546bb024f34e" target="_top" xlink:title=" ">
<polygon fill="white" stroke="black" points="618,-76 618,-106 718,-106 718,-76 618,-76"/>
<text text-anchor="start" x="626" y="-94" font-family="Helvetica,sans-Serif" font-size="10.00">mom_ice_shelf::bilinear</text>
<text text-anchor="middle" x="668" y="-83" font-family="Helvetica,sans-Serif" font-size="10.00">_shape_functions</text>
</a>
</g>
</g>
<!-- Node387&#45;&gt;Node388 -->
<g id="edge1" class="edge"><title>Node387&#45;&gt;Node388</title>
<path fill="none" stroke="midnightblue" d="M744.164,-91C735.489,-91 726.719,-91 718.383,-91"/>
<polygon fill="midnightblue" stroke="midnightblue" points="744.273,-94.5001 754.273,-91 744.273,-87.5001 744.273,-94.5001"/>
</g>
<!-- Node389 -->
<g id="node3" class="node"><title>Node389</title>
<g id="a_node3"><a xlink:href="namespacemom__ice__shelf.html#a5d534895698ad80a68be9a1b992c4d0b" target="_top" xlink:title=" ">
<polygon fill="white" stroke="black" points="470,-76 470,-106 582,-106 582,-76 470,-76"/>
<text text-anchor="start" x="478" y="-94" font-family="Helvetica,sans-Serif" font-size="10.00">mom_ice_shelf::apply</text>
<text text-anchor="middle" x="526" y="-83" font-family="Helvetica,sans-Serif" font-size="10.00">_boundary_values_bilinear</text>
</a>
</g>
</g>
<!-- Node388&#45;&gt;Node389 -->
<g id="edge2" class="edge"><title>Node388&#45;&gt;Node389</title>
<path fill="none" stroke="midnightblue" d="M607.503,-91C599.08,-91 590.449,-91 582.113,-91"/>
<polygon fill="midnightblue" stroke="midnightblue" points="607.641,-94.5001 617.641,-91 607.641,-87.5001 607.641,-94.5001"/>
</g>
<!-- Node391 -->
<g id="node5" class="node"><title>Node391</title>
<g id="a_node5"><a xlink:href="namespacemom__ice__shelf.html#a5d64b696412c0bfd8ded2e2eacaa917c" target="_top" xlink:title=" ">
<polygon fill="white" stroke="black" points="230,-73 230,-103 314,-103 314,-73 230,-73"/>
<text text-anchor="start" x="238" y="-91" font-family="Helvetica,sans-Serif" font-size="10.00">mom_ice_shelf::ice</text>
<text text-anchor="middle" x="272" y="-80" font-family="Helvetica,sans-Serif" font-size="10.00">_shelf_solve_outer</text>
</a>
</g>
</g>
<!-- Node388&#45;&gt;Node391 -->
<g id="edge14" class="edge"><title>Node388&#45;&gt;Node391</title>
<path fill="none" stroke="midnightblue" d="M615.016,-73.1667C604.227,-70.1879 592.841,-67.5611 582,-66 486.714,-52.2779 373.607,-68.5013 314.187,-79.502"/>
<polygon fill="midnightblue" stroke="midnightblue" points="614.145,-76.5582 624.724,-75.9808 616.094,-69.8349 614.145,-76.5582"/>
</g>
<!-- Node398 -->
<g id="node12" class="node"><title>Node398</title>
<g id="a_node12"><a xlink:href="namespacemom__ice__shelf.html#a0fa0e5e0225816e5e5e87994371f11f1" target="_top" xlink:title=" ">
<polygon fill="white" stroke="black" points="478,-125 478,-155 574,-155 574,-125 478,-125"/>
<text text-anchor="start" x="486" y="-143" font-family="Helvetica,sans-Serif" font-size="10.00">mom_ice_shelf::matrix</text>
<text text-anchor="middle" x="526" y="-132" font-family="Helvetica,sans-Serif" font-size="10.00">_diagonal_bilinear</text>
</a>
</g>
</g>
<!-- Node388&#45;&gt;Node398 -->
<g id="edge15" class="edge"><title>Node388&#45;&gt;Node398</title>
<path fill="none" stroke="midnightblue" d="M614.041,-109.536C599.583,-114.596 584.092,-120.018 570.245,-124.864"/>
<polygon fill="midnightblue" stroke="midnightblue" points="615.571,-112.709 623.853,-106.101 613.258,-106.102 615.571,-112.709"/>
</g>
<!-- Node390 -->
<g id="node4" class="node"><title>Node390</title>
<g id="a_node4"><a xlink:href="namespacemom__ice__shelf.html#a95d21b019a635ad3a8ef060d765362e1" target="_top" xlink:title=" ">
<polygon fill="white" stroke="black" points="350,-117 350,-147 434,-147 434,-117 350,-117"/>
<text text-anchor="start" x="358" y="-135" font-family="Helvetica,sans-Serif" font-size="10.00">mom_ice_shelf::ice</text>
<text text-anchor="middle" x="392" y="-124" font-family="Helvetica,sans-Serif" font-size="10.00">_shelf_solve_inner</text>
</a>
</g>
</g>
<!-- Node389&#45;&gt;Node390 -->
<g id="edge3" class="edge"><title>Node389&#45;&gt;Node390</title>
<path fill="none" stroke="midnightblue" d="M466.953,-109.03C455.852,-112.478 444.446,-116.021 434.017,-119.26"/>
<polygon fill="midnightblue" stroke="midnightblue" points="468.086,-112.343 476.598,-106.034 466.009,-105.658 468.086,-112.343"/>
</g>
<!-- Node389&#45;&gt;Node391 -->
<g id="edge13" class="edge"><title>Node389&#45;&gt;Node391</title>
<path fill="none" stroke="midnightblue" d="M459.524,-90.2205C413.55,-89.6732 353.478,-88.9581 314.097,-88.4893"/>
<polygon fill="midnightblue" stroke="midnightblue" points="459.657,-93.7223 469.698,-90.3416 459.74,-86.7227 459.657,-93.7223"/>
</g>
<!-- Node390&#45;&gt;Node391 -->
<g id="edge4" class="edge"><title>Node390&#45;&gt;Node391</title>
<path fill="none" stroke="midnightblue" d="M341.235,-113.444C331.987,-109.995 322.428,-106.431 313.498,-103.101"/>
<polygon fill="midnightblue" stroke="midnightblue" points="340.128,-116.766 350.721,-116.981 342.574,-110.207 340.128,-116.766"/>
</g>
<!-- Node392 -->
<g id="node6" class="node"><title>Node392</title>
<g id="a_node6"><a xlink:href="namespacemom__ice__shelf.html#ae7611e3515ecf0eae0c5d6d17330fd6f" target="_top" xlink:title=" ">
<polygon fill="white" stroke="black" points="92.5,-147 92.5,-177 193.5,-177 193.5,-147 92.5,-147"/>
<text text-anchor="start" x="100.5" y="-165" font-family="Helvetica,sans-Serif" font-size="10.00">mom_ice_shelf::initialize</text>
<text text-anchor="middle" x="143" y="-154" font-family="Helvetica,sans-Serif" font-size="10.00">_diagnostic_fields</text>
</a>
</g>
</g>
<!-- Node391&#45;&gt;Node392 -->
<g id="edge5" class="edge"><title>Node391&#45;&gt;Node392</title>
<path fill="none" stroke="midnightblue" d="M239.815,-108.876C225.982,-117.866 209.383,-128.29 194,-137 188.088,-140.347 181.671,-143.733 175.467,-146.886"/>
<polygon fill="midnightblue" stroke="midnightblue" points="242.02,-111.616 248.466,-103.207 238.183,-105.761 242.02,-111.616"/>
</g>
<!-- Node393 -->
<g id="node7" class="node"><title>Node393</title>
<g id="a_node7"><a xlink:href="namespacemom__ice__shelf.html#ae315e8464ef8a20062e3bccb61886755" target="_top" xlink:title=" ">
<polygon fill="white" stroke="black" points="92.5,-49 92.5,-79 193.5,-79 193.5,-49 92.5,-49"/>
<text text-anchor="start" x="100.5" y="-67" font-family="Helvetica,sans-Serif" font-size="10.00">mom_ice_shelf::initialize</text>
<text text-anchor="middle" x="143" y="-56" font-family="Helvetica,sans-Serif" font-size="10.00">_ice_shelf</text>
</a>
</g>
</g>
<!-- Node391&#45;&gt;Node393 -->
<g id="edge6" class="edge"><title>Node391&#45;&gt;Node393</title>
<path fill="none" stroke="midnightblue" d="M219.888,-78.3411C211.317,-76.7214 202.433,-75.0425 193.893,-73.4287"/>
<polygon fill="midnightblue" stroke="midnightblue" points="219.291,-81.79 229.767,-80.2079 220.591,-74.9118 219.291,-81.79"/>
</g>
<!-- Node396 -->
<g id="node10" class="node"><title>Node396</title>
<g id="a_node10"><a xlink:href="namespacemom__ice__shelf.html#a3b0e0cc9f36c5197236cc05867b780df" target="_top" xlink:title=" ">
<polygon fill="white" stroke="black" points="97.5,-98 97.5,-128 188.5,-128 188.5,-98 97.5,-98"/>
<text text-anchor="start" x="105.5" y="-116" font-family="Helvetica,sans-Serif" font-size="10.00">mom_ice_shelf::shelf</text>
<text text-anchor="middle" x="143" y="-105" font-family="Helvetica,sans-Serif" font-size="10.00">_calc_flux</text>
</a>
</g>
</g>
<!-- Node391&#45;&gt;Node396 -->
<g id="edge9" class="edge"><title>Node391&#45;&gt;Node396</title>
<path fill="none" stroke="midnightblue" d="M219.648,-98.1087C209.339,-100.138 198.586,-102.255 188.531,-104.234"/>
<polygon fill="midnightblue" stroke="midnightblue" points="220.631,-101.482 229.767,-96.1168 219.279,-94.6142 220.631,-101.482"/>
</g>
<!-- Node397 -->
<g id="node11" class="node"><title>Node397</title>
<g id="a_node11"><a xlink:href="namespacemom__ice__shelf.html#ac084bdc5be4e708e3263488e9574a3c9" target="_top" xlink:title=" ">
<polygon fill="white" stroke="black" points="98.5,-0 98.5,-30 187.5,-30 187.5,-0 98.5,-0"/>
<text text-anchor="start" x="106.5" y="-18" font-family="Helvetica,sans-Serif" font-size="10.00">mom_ice_shelf::solo</text>
<text text-anchor="middle" x="143" y="-7" font-family="Helvetica,sans-Serif" font-size="10.00">_time_step</text>
</a>
</g>
</g>
<!-- Node391&#45;&gt;Node397 -->
<g id="edge11" class="edge"><title>Node391&#45;&gt;Node397</title>
<path fill="none" stroke="midnightblue" d="M240.186,-67.2041C226.305,-58.1468 209.566,-47.6484 194,-39 188.529,-35.9604 182.613,-32.9171 176.83,-30.0679"/>
<polygon fill="midnightblue" stroke="midnightblue" points="238.578,-70.3361 248.855,-72.914 242.429,-64.4903 238.578,-70.3361"/>
</g>
<!-- Node394 -->
<g id="node8" class="node"><title>Node394</title>
<g id="a_node8"><a xlink:href="MOM__driver_8F90.html#a08fffeb2d8e8acbf9ed4609be6d258c6" target="_top" xlink:title=" ">
<polygon fill="white" stroke="black" points="0,-75.5 0,-94.5 56,-94.5 56,-75.5 0,-75.5"/>
<text text-anchor="middle" x="28" y="-82.5" font-family="Helvetica,sans-Serif" font-size="10.00">mom_main</text>
</a>
</g>
</g>
<!-- Node393&#45;&gt;Node394 -->
<g id="edge7" class="edge"><title>Node393&#45;&gt;Node394</title>
<path fill="none" stroke="midnightblue" d="M82.4627,-75.0645C73.2674,-76.7733 64.1797,-78.4622 56.1775,-79.9493"/>
<polygon fill="midnightblue" stroke="midnightblue" points="83.2444,-78.4792 92.4366,-73.2109 81.9654,-71.597 83.2444,-78.4792"/>
</g>
<!-- Node395 -->
<g id="node9" class="node"><title>Node395</title>
<g id="a_node9"><a xlink:href="ice__shelf__driver_8F90.html#aec5bef92f0dad343f545cd8d62e378d8" target="_top" xlink:title=" ">
<polygon fill="white" stroke="black" points="0.5,-32.5 0.5,-51.5 55.5,-51.5 55.5,-32.5 0.5,-32.5"/>
<text text-anchor="middle" x="28" y="-39.5" font-family="Helvetica,sans-Serif" font-size="10.00">shelf_main</text>
</a>
</g>
</g>
<!-- Node393&#45;&gt;Node395 -->
<g id="edge8" class="edge"><title>Node393&#45;&gt;Node395</title>
<path fill="none" stroke="midnightblue" d="M82.5717,-52.4299C73.1007,-50.586 63.7397,-48.7635 55.5571,-47.1704"/>
<polygon fill="midnightblue" stroke="midnightblue" points="81.952,-55.8749 92.4366,-54.3505 83.2897,-49.0039 81.952,-55.8749"/>
</g>
<!-- Node396&#45;&gt;Node394 -->
<g id="edge10" class="edge"><title>Node396&#45;&gt;Node394</title>
<path fill="none" stroke="midnightblue" d="M87.4169,-99.475C76.5328,-96.778 65.5537,-94.0575 56.0978,-91.7145"/>
<polygon fill="midnightblue" stroke="midnightblue" points="86.7911,-102.926 97.3394,-101.934 88.4748,-96.1312 86.7911,-102.926"/>
</g>
<!-- Node397&#45;&gt;Node395 -->
<g id="edge12" class="edge"><title>Node397&#45;&gt;Node395</title>
<path fill="none" stroke="midnightblue" d="M88.384,-27.8109C76.9883,-30.5338 65.4358,-33.2941 55.5872,-35.6473"/>
<polygon fill="midnightblue" stroke="midnightblue" points="89.3984,-31.1671 98.3112,-25.4389 87.7716,-24.3588 89.3984,-31.1671"/>
</g>
<!-- Node398&#45;&gt;Node390 -->
<g id="edge16" class="edge"><title>Node398&#45;&gt;Node390</title>
<path fill="none" stroke="midnightblue" d="M467.561,-136.519C456.358,-135.84 444.82,-135.141 434.268,-134.501"/>
<polygon fill="midnightblue" stroke="midnightblue" points="467.524,-140.023 477.718,-137.134 467.948,-133.036 467.524,-140.023"/>
</g>
</g>
</svg>
        <g id="navigator" transform="translate(0 0)" fill="#404254">
                <rect fill="#f2f5e9" fill-opacity="0.5" stroke="#606060" stroke-width=".5" x="0" y="0" width="60" height="60"/>
                <use id="zoomplus" xlink:href="#zoomPlus" x="17" y="9" onmousedown="handleZoom(evt,'in')"/>
                <use id="zoomminus" xlink:href="#zoomMin" x="42" y="9" onmousedown="handleZoom(evt,'out')"/>
                <use id="reset" xlink:href="#resetDef" x="30" y="36" onmousedown="handleReset()"/>
                <g id="arrowUp" xlink:href="#dirArrow" transform="translate(30 24)" onmousedown="handlePan(0,-1)">
                  <use xlink:href="#rim" fill="#404040">
                        <set attributeName="fill" to="#808080" begin="arrowUp.mouseover" end="arrowUp.mouseout"/>
                  </use>
                  <path fill="none" stroke="white" stroke-width="1.5" d="M0,-3.0v7 M-2.5,-0.5L0,-3.0L2.5,-0.5"/>
                </g>
                <g id="arrowRight" xlink:href="#dirArrow" transform="rotate(90) translate(36 -43)" onmousedown="handlePan(1,0)">
                  <use xlink:href="#rim" fill="#404040">
                        <set attributeName="fill" to="#808080" begin="arrowRight.mouseover" end="arrowRight.mouseout"/>
                  </use>
                  <path fill="none" stroke="white" stroke-width="1.5" d="M0,-3.0v7 M-2.5,-0.5L0,-3.0L2.5,-0.5"/>
                </g>
                <g id="arrowDown" xlink:href="#dirArrow" transform="rotate(180) translate(-30 -48)" onmousedown="handlePan(0,1)">
                  <use xlink:href="#rim" fill="#404040">
                        <set attributeName="fill" to="#808080" begin="arrowDown.mouseover" end="arrowDown.mouseout"/>
                  </use>
                  <path fill="none" stroke="white" stroke-width="1.5" d="M0,-3.0v7 M-2.5,-0.5L0,-3.0L2.5,-0.5"/>
                </g>
                <g id="arrowLeft" xlink:href="#dirArrow" transform="rotate(270) translate(-36 17)" onmousedown="handlePan(-1,0)">
                  <use xlink:href="#rim" fill="#404040">
                        <set attributeName="fill" to="#808080" begin="arrowLeft.mouseover" end="arrowLeft.mouseout"/>
                  </use>
                  <path fill="none" stroke="white" stroke-width="1.5" d="M0,-3.0v7 M-2.5,-0.5L0,-3.0L2.5,-0.5"/>
                </g>
        </g>
        <svg viewBox="0 0 15 15" width="100%" height="30px" preserveAspectRatio="xMaxYMin meet">
         <g id="arrow_out" transform="scale(0.3 0.3)">
          <a xlink:href="namespacemom__ice__shelf_a43bcb4adfaabc54cd57ad8d96b71c224_icgraph_org.svg" target="_base">
           <rect id="button" ry="5" rx="5" y="6" x="6" height="38" width="38"
                fill="#f2f5e9" fill-opacity="0.5" stroke="#606060" stroke-width="1.0"/>
           <path id="arrow"
             d="M 11.500037,31.436501 C 11.940474,20.09759 22.043105,11.32322 32.158766,21.979434 L 37.068811,17.246167 C 37.068811,17.246167 37.088388,32 37.088388,32 L 22.160133,31.978069 C 22.160133,31.978069 26.997745,27.140456 26.997745,27.140456 C 18.528582,18.264221 13.291696,25.230495 11.500037,31.436501 z"
             style="fill:#404040;"/>
          </a>
         </g>
        </svg>
</svg>
