<?xml version="1.0" encoding="UTF-8" standalone="no"?>
<!DOCTYPE svg PUBLIC "-//W3C//DTD SVG 1.1//EN"
 "http://www.w3.org/Graphics/SVG/1.1/DTD/svg11.dtd">
<!-- Generated by graphviz version 2.30.1 (20170916.1124)
 -->
<!-- Title: mom_dynamics_unsplit::initialize_dyn_unsplit Pages: 1 -->
<svg width="1232pt" height="684pt"
 viewBox="0.00 0.00 1232.00 683.62" xmlns="http://www.w3.org/2000/svg" xmlns:xlink="http://www.w3.org/1999/xlink">
<g id="graph0" class="graph" transform="scale(1 1) rotate(0) translate(4 679.615)">
<title>mom_dynamics_unsplit::initialize_dyn_unsplit</title>
<polygon fill="white" stroke="white" points="-4,5 -4,-679.615 1229,-679.615 1229,5 -4,5"/>
<!-- Node2 -->
<g id="node1" class="node"><title>Node2</title>
<g id="a_node1"><a xlink:title=" ">
<polygon fill="#bfbfbf" stroke="black" points="0.5,-178.615 0.5,-208.615 99.5,-208.615 99.5,-178.615 0.5,-178.615"/>
<text text-anchor="start" x="8.5" y="-196.615" font-family="Helvetica,sans-Serif" font-size="10.00">mom_dynamics_unsplit</text>
<text text-anchor="middle" x="50" y="-185.615" font-family="Helvetica,sans-Serif" font-size="10.00">::initialize_dyn_unsplit</text>
</a>
</g>
</g>
<!-- Node3 -->
<g id="node2" class="node"><title>Node3</title>
<g id="a_node2"><a xlink:href="namespacemom__continuity.html#aa08c4a80c95080ec4649e366f5bd3ae8" target="_top" xlink:title="Initializes continuity_cs.">
<polygon fill="white" stroke="black" points="140,-433.115 140,-452.115 264,-452.115 264,-433.115 140,-433.115"/>
<text text-anchor="middle" x="202" y="-440.115" font-family="Helvetica,sans-Serif" font-size="10.00">mom_continuity::continuity_init</text>
</a>
</g>
</g>
<!-- Node2&#45;&gt;Node3 -->
<g id="edge1" class="edge"><title>Node2&#45;&gt;Node3</title>
<path fill="none" stroke="midnightblue" d="M54.9818,-208.79C64.5759,-243.332 91.524,-329.415 136,-388.615 147.421,-403.818 163.939,-417.469 177.465,-427.242"/>
<polygon fill="midnightblue" stroke="midnightblue" points="175.633,-430.231 185.838,-433.081 179.638,-424.49 175.633,-430.231"/>
</g>
<!-- Node8 -->
<g id="node7" class="node"><title>Node8</title>
<g id="a_node7"><a xlink:href="namespacemom__coriolisadv.html#ad3ce07f23ce7b484a5a9e0c0abe8b1cd" target="_top" xlink:title="Initializes the control structure for coriolisadv_cs.">
<polygon fill="white" stroke="black" points="136.5,-360.115 136.5,-379.115 267.5,-379.115 267.5,-360.115 136.5,-360.115"/>
<text text-anchor="middle" x="202" y="-367.115" font-family="Helvetica,sans-Serif" font-size="10.00">mom_coriolisadv::coriolisadv_init</text>
</a>
</g>
</g>
<!-- Node2&#45;&gt;Node8 -->
<g id="edge7" class="edge"><title>Node2&#45;&gt;Node8</title>
<path fill="none" stroke="midnightblue" d="M63.7889,-208.621C91.4816,-241.114 156.861,-317.826 186.245,-352.303"/>
<polygon fill="midnightblue" stroke="midnightblue" points="183.745,-354.766 192.895,-360.106 189.073,-350.225 183.745,-354.766"/>
</g>
<!-- Node21 -->
<g id="node20" class="node"><title>Node21</title>
<g id="a_node20"><a xlink:href="namespacemom__verticalgrid.html#af027c312e660a932b3f430f4c7a9675d" target="_top" xlink:title="Returns the model&#39;s thickness flux units, usually m^3/s or kg/s.">
<polygon fill="white" stroke="black" points="155.5,-241.615 155.5,-271.615 248.5,-271.615 248.5,-241.615 155.5,-241.615"/>
<text text-anchor="start" x="163.5" y="-259.615" font-family="Helvetica,sans-Serif" font-size="10.00">mom_verticalgrid::get</text>
<text text-anchor="middle" x="202" y="-248.615" font-family="Helvetica,sans-Serif" font-size="10.00">_flux_units</text>
</a>
</g>
</g>
<!-- Node2&#45;&gt;Node21 -->
<g id="edge27" class="edge"><title>Node2&#45;&gt;Node21</title>
<path fill="none" stroke="midnightblue" d="M86.9287,-208.706C107.54,-217.362 133.614,-228.313 155.629,-237.56"/>
<polygon fill="midnightblue" stroke="midnightblue" points="154.53,-240.894 165.105,-241.539 157.24,-234.44 154.53,-240.894"/>
</g>
<!-- Node22 -->
<g id="node21" class="node"><title>Node22</title>
<g id="a_node21"><a xlink:href="namespacemom__hor__visc.html#a15121289da182e9ecb4561f10de335a5" target="_top" xlink:title=" ">
<polygon fill="white" stroke="black" points="436,-115.115 436,-134.115 552,-134.115 552,-115.115 436,-115.115"/>
<text text-anchor="middle" x="494" y="-122.115" font-family="Helvetica,sans-Serif" font-size="10.00">mom_hor_visc::hor_visc_init</text>
</a>
</g>
</g>
<!-- Node2&#45;&gt;Node22 -->
<g id="edge28" class="edge"><title>Node2&#45;&gt;Node22</title>
<path fill="none" stroke="midnightblue" d="M99.5107,-184.843C111.433,-182.745 124.17,-180.554 136,-178.615 236.674,-162.121 353.627,-144.775 425.473,-134.325"/>
<polygon fill="midnightblue" stroke="midnightblue" points="426.346,-137.736 435.739,-132.835 425.34,-130.808 426.346,-137.736"/>
</g>
<!-- Node4 -->
<g id="node3" class="node"><title>Node4</title>
<g id="a_node3"><a xlink:href="namespacemom__error__handler.html#a460cfb79a06c29fc249952c2a3710d67" target="_top" xlink:title=" ">
<polygon fill="white" stroke="black" points="1000.5,-240.615 1000.5,-270.615 1093.5,-270.615 1093.5,-240.615 1000.5,-240.615"/>
<text text-anchor="start" x="1008.5" y="-258.615" font-family="Helvetica,sans-Serif" font-size="10.00">mom_error_handler::</text>
<text text-anchor="middle" x="1047" y="-247.615" font-family="Helvetica,sans-Serif" font-size="10.00">mom_error</text>
</a>
</g>
</g>
<!-- Node2&#45;&gt;Node4 -->
<g id="edge30" class="edge"><title>Node2&#45;&gt;Node4</title>
<path fill="none" stroke="midnightblue" d="M75.233,-178.512C124.945,-149.017 242.894,-86.6155 351,-86.6155 351,-86.6155 351,-86.6155 769,-86.6155 856.974,-86.6155 891.332,-71.0297 964,-120.615 1003.28,-147.416 1026.97,-199.847 1038.17,-230.891"/>
<polygon fill="midnightblue" stroke="midnightblue" points="1034.92,-232.218 1041.49,-240.532 1041.54,-229.937 1034.92,-232.218"/>
</g>
<!-- Node23 -->
<g id="node22" class="node"><title>Node23</title>
<g id="a_node22"><a xlink:href="namespacemom__pressureforce.html#ab0d856d60f21ad22c3c99f65af8daa92" target="_top" xlink:title="Initialize the pressure force control structure.">
<polygon fill="white" stroke="black" points="721.5,-213.615 721.5,-243.615 814.5,-243.615 814.5,-213.615 721.5,-213.615"/>
<text text-anchor="start" x="729.5" y="-231.615" font-family="Helvetica,sans-Serif" font-size="10.00">mom_pressureforce::</text>
<text text-anchor="middle" x="768" y="-220.615" font-family="Helvetica,sans-Serif" font-size="10.00">pressureforce_init</text>
</a>
</g>
</g>
<!-- Node2&#45;&gt;Node23 -->
<g id="edge31" class="edge"><title>Node2&#45;&gt;Node23</title>
<path fill="none" stroke="midnightblue" d="M99.5232,-198.583C158.795,-204.212 262.15,-212.615 351,-212.615 351,-212.615 351,-212.615 495,-212.615 569.881,-212.615 656.158,-218.733 711.106,-223.403"/>
<polygon fill="midnightblue" stroke="midnightblue" points="711.064,-226.912 721.328,-224.286 711.666,-219.938 711.064,-226.912"/>
</g>
<!-- Node26 -->
<g id="node25" class="node"><title>Node26</title>
<g id="a_node25"><a xlink:href="namespacemom__tidal__forcing.html#aee336a2affeebc78b75845bc6f78a320" target="_top" xlink:title=" ">
<polygon fill="white" stroke="black" points="725,-27.6155 725,-57.6155 811,-57.6155 811,-27.6155 725,-27.6155"/>
<text text-anchor="start" x="733" y="-45.6155" font-family="Helvetica,sans-Serif" font-size="10.00">mom_tidal_forcing::</text>
<text text-anchor="middle" x="768" y="-34.6155" font-family="Helvetica,sans-Serif" font-size="10.00">tidal_forcing_init</text>
</a>
</g>
</g>
<!-- Node2&#45;&gt;Node26 -->
<g id="edge37" class="edge"><title>Node2&#45;&gt;Node26</title>
<path fill="none" stroke="midnightblue" d="M56.8759,-178.23C67.9082,-151.662 94.4253,-97.6309 136,-72.6155 218.52,-22.9633 254.694,-45.6155 351,-45.6155 351,-45.6155 351,-45.6155 495,-45.6155 571.309,-45.6155 659.653,-44.4203 714.437,-43.5386"/>
<polygon fill="midnightblue" stroke="midnightblue" points="714.658,-47.0356 724.599,-43.3725 714.543,-40.0365 714.658,-47.0356"/>
</g>
<!-- Node28 -->
<g id="node27" class="node"><title>Node28</title>
<g id="a_node27"><a xlink:href="namespacemom__vert__friction.html#a02be81324ab60dcbcf3c1ecf3aa0da17" target="_top" xlink:title="Initialise the vertical friction module.">
<polygon fill="white" stroke="black" points="451.5,-153.615 451.5,-183.615 536.5,-183.615 536.5,-153.615 451.5,-153.615"/>
<text text-anchor="start" x="459.5" y="-171.615" font-family="Helvetica,sans-Serif" font-size="10.00">mom_vert_friction::</text>
<text text-anchor="middle" x="494" y="-160.615" font-family="Helvetica,sans-Serif" font-size="10.00">vertvisc_init</text>
</a>
</g>
</g>
<!-- Node2&#45;&gt;Node28 -->
<g id="edge41" class="edge"><title>Node2&#45;&gt;Node28</title>
<path fill="none" stroke="midnightblue" d="M99.5661,-190.869C183.502,-186.121 354.97,-176.423 441.138,-171.549"/>
<polygon fill="midnightblue" stroke="midnightblue" points="441.426,-175.038 451.212,-170.979 441.03,-168.049 441.426,-175.038"/>
</g>
<!-- Node3&#45;&gt;Node4 -->
<g id="edge2" class="edge"><title>Node3&#45;&gt;Node4</title>
<path fill="none" stroke="midnightblue" d="M208.506,-452.331C234.295,-496.428 348.008,-675.615 493,-675.615 493,-675.615 493,-675.615 637,-675.615 795.981,-675.615 858.979,-649.97 964,-530.615 1028.83,-456.937 1042.44,-333.818 1045.27,-280.971"/>
<polygon fill="midnightblue" stroke="midnightblue" points="1048.78,-280.951 1045.73,-270.804 1041.78,-280.638 1048.78,-280.951"/>
</g>
<!-- Node6 -->
<g id="node5" class="node"><title>Node6</title>
<g id="a_node5"><a xlink:href="namespacemom__error__handler.html#a1c462df7b61f1296407b4af51dfeceab" target="_top" xlink:title=" ">
<polygon fill="white" stroke="black" points="305.5,-403.615 305.5,-433.615 398.5,-433.615 398.5,-403.615 305.5,-403.615"/>
<text text-anchor="start" x="313.5" y="-421.615" font-family="Helvetica,sans-Serif" font-size="10.00">mom_error_handler::</text>
<text text-anchor="middle" x="352" y="-410.615" font-family="Helvetica,sans-Serif" font-size="10.00">mom_mesg</text>
</a>
</g>
</g>
<!-- Node3&#45;&gt;Node6 -->
<g id="edge4" class="edge"><title>Node3&#45;&gt;Node6</title>
<path fill="none" stroke="midnightblue" d="M261.919,-433.061C272.792,-431.298 284.12,-429.461 294.907,-427.712"/>
<polygon fill="midnightblue" stroke="midnightblue" points="295.74,-431.122 305.051,-426.067 294.62,-424.213 295.74,-431.122"/>
</g>
<!-- Node7 -->
<g id="node6" class="node"><title>Node7</title>
<g id="a_node6"><a xlink:href="namespacemom__string__functions.html#aca148baf726de2f028b7e7baad3c85d4" target="_top" xlink:title=" ">
<polygon fill="white" stroke="black" points="304.5,-452.615 304.5,-482.615 399.5,-482.615 399.5,-452.615 304.5,-452.615"/>
<text text-anchor="start" x="312.5" y="-470.615" font-family="Helvetica,sans-Serif" font-size="10.00">mom_string_functions</text>
<text text-anchor="middle" x="352" y="-459.615" font-family="Helvetica,sans-Serif" font-size="10.00">::uppercase</text>
</a>
</g>
</g>
<!-- Node3&#45;&gt;Node7 -->
<g id="edge6" class="edge"><title>Node3&#45;&gt;Node7</title>
<path fill="none" stroke="midnightblue" d="M259.375,-452.138C270.874,-454.081 282.976,-456.125 294.48,-458.068"/>
<polygon fill="midnightblue" stroke="midnightblue" points="293.962,-461.53 304.405,-459.745 295.128,-454.628 293.962,-461.53"/>
</g>
<!-- Node5 -->
<g id="node4" class="node"><title>Node5</title>
<g id="a_node4"><a xlink:href="namespacemom__error__handler.html#ad5f00a53059c72fe2332d1436c80ca71" target="_top" xlink:title=" ">
<polygon fill="white" stroke="black" points="1130.5,-584.615 1130.5,-614.615 1223.5,-614.615 1223.5,-584.615 1130.5,-584.615"/>
<text text-anchor="start" x="1138.5" y="-602.615" font-family="Helvetica,sans-Serif" font-size="10.00">mom_error_handler::</text>
<text text-anchor="middle" x="1177" y="-591.615" font-family="Helvetica,sans-Serif" font-size="10.00">is_root_pe</text>
</a>
</g>
</g>
<!-- Node4&#45;&gt;Node5 -->
<g id="edge3" class="edge"><title>Node4&#45;&gt;Node5</title>
<path fill="none" stroke="midnightblue" d="M1053.67,-270.841C1073.78,-324.901 1141.89,-507.954 1166.79,-574.863"/>
<polygon fill="midnightblue" stroke="midnightblue" points="1163.63,-576.415 1170.4,-584.566 1170.19,-573.973 1163.63,-576.415"/>
</g>
<!-- Node6&#45;&gt;Node5 -->
<g id="edge5" class="edge"><title>Node6&#45;&gt;Node5</title>
<path fill="none" stroke="midnightblue" d="M383.911,-433.659C389.341,-436.51 394.888,-439.561 400,-442.615 487.207,-494.719 496.51,-528.464 588,-572.615 766.317,-658.667 1011.53,-629.931 1120.24,-610.867"/>
<polygon fill="midnightblue" stroke="midnightblue" points="1121.1,-614.268 1130.32,-609.056 1119.86,-607.378 1121.1,-614.268"/>
</g>
<!-- Node8&#45;&gt;Node4 -->
<g id="edge8" class="edge"><title>Node8&#45;&gt;Node4</title>
<path fill="none" stroke="midnightblue" d="M222.5,-360.049C268.444,-338.418 387.573,-287.615 493,-287.615 493,-287.615 493,-287.615 637,-287.615 709.701,-287.615 893.326,-314.662 964,-297.615 981.898,-293.298 1000.28,-284.372 1015.09,-275.854"/>
<polygon fill="midnightblue" stroke="midnightblue" points="1017.02,-278.778 1023.82,-270.648 1013.43,-272.767 1017.02,-278.778"/>
</g>
<!-- Node8&#45;&gt;Node6 -->
<g id="edge9" class="edge"><title>Node8&#45;&gt;Node6</title>
<path fill="none" stroke="midnightblue" d="M231.887,-379.179C250.052,-385.193 274.081,-393.149 295.797,-400.339"/>
<polygon fill="midnightblue" stroke="midnightblue" points="294.989,-403.758 305.582,-403.579 297.189,-397.113 294.989,-403.758"/>
</g>
<!-- Node9 -->
<g id="node8" class="node"><title>Node9</title>
<g id="a_node8"><a xlink:href="namespacemom__diag__mediator.html#aa791f75f899ae9b7cd4756165a9c2a1b" target="_top" xlink:title="Returns the &quot;diag_mediator&quot; handle for a group (native, CMOR, z&#45;coord, ...) of diagnostics derived fr...">
<polygon fill="white" stroke="black" points="304.5,-354.615 304.5,-384.615 399.5,-384.615 399.5,-354.615 304.5,-354.615"/>
<text text-anchor="start" x="312.5" y="-372.615" font-family="Helvetica,sans-Serif" font-size="10.00">mom_diag_mediator::</text>
<text text-anchor="middle" x="352" y="-361.615" font-family="Helvetica,sans-Serif" font-size="10.00">register_diag_field</text>
</a>
</g>
</g>
<!-- Node8&#45;&gt;Node9 -->
<g id="edge10" class="edge"><title>Node8&#45;&gt;Node9</title>
<path fill="none" stroke="midnightblue" d="M267.915,-369.615C276.639,-369.615 285.534,-369.615 294.106,-369.615"/>
<polygon fill="midnightblue" stroke="midnightblue" points="294.367,-373.116 304.367,-369.615 294.367,-366.116 294.367,-373.116"/>
</g>
<!-- Node8&#45;&gt;Node7 -->
<g id="edge26" class="edge"><title>Node8&#45;&gt;Node7</title>
<path fill="none" stroke="midnightblue" d="M215.062,-379.167C233.632,-393.678 270.583,-421.788 304,-442.615 306.583,-444.226 309.28,-445.835 312.018,-447.418"/>
<polygon fill="midnightblue" stroke="midnightblue" points="310.381,-450.513 320.816,-452.348 313.804,-444.406 310.381,-450.513"/>
</g>
<!-- Node10 -->
<g id="node9" class="node"><title>Node10</title>
<g id="a_node9"><a xlink:href="namespacemom__diag__mediator.html#ae50b35cba800ac5fd8975929fd2b9f4a" target="_top" xlink:title="Returns True if either the native of CMOr version of the diagnostic were registered....">
<polygon fill="white" stroke="black" points="446.5,-395.115 446.5,-436.115 541.5,-436.115 541.5,-395.115 446.5,-395.115"/>
<text text-anchor="start" x="454.5" y="-424.115" font-family="Helvetica,sans-Serif" font-size="10.00">mom_diag_mediator::</text>
<text text-anchor="start" x="454.5" y="-413.115" font-family="Helvetica,sans-Serif" font-size="10.00">register_diag_field</text>
<text text-anchor="middle" x="494" y="-402.115" font-family="Helvetica,sans-Serif" font-size="10.00">_expand_cmor</text>
</a>
</g>
</g>
<!-- Node9&#45;&gt;Node10 -->
<g id="edge11" class="edge"><title>Node9&#45;&gt;Node10</title>
<path fill="none" stroke="midnightblue" d="M398.841,-384.678C410.797,-388.606 423.824,-392.886 436.271,-396.976"/>
<polygon fill="midnightblue" stroke="midnightblue" points="435.503,-400.408 446.096,-400.204 437.688,-393.757 435.503,-400.408"/>
</g>
<!-- Node11 -->
<g id="node10" class="node"><title>Node11</title>
<g id="a_node10"><a xlink:href="namespacemom__diag__mediator.html#a8415b33a337b1fbc7535688eca85ab37" target="_top" xlink:title="Create a diagnostic type and attached to list.">
<polygon fill="white" stroke="black" points="588.5,-428.615 588.5,-458.615 683.5,-458.615 683.5,-428.615 588.5,-428.615"/>
<text text-anchor="start" x="596.5" y="-446.615" font-family="Helvetica,sans-Serif" font-size="10.00">mom_diag_mediator::</text>
<text text-anchor="middle" x="636" y="-435.615" font-family="Helvetica,sans-Serif" font-size="10.00">add_diag_to_list</text>
</a>
</g>
</g>
<!-- Node10&#45;&gt;Node11 -->
<g id="edge12" class="edge"><title>Node10&#45;&gt;Node11</title>
<path fill="none" stroke="midnightblue" d="M541.618,-424.939C553.301,-427.276 565.965,-429.809 578.087,-432.233"/>
<polygon fill="midnightblue" stroke="midnightblue" points="577.616,-435.708 588.108,-434.237 578.989,-428.844 577.616,-435.708"/>
</g>
<!-- Node17 -->
<g id="node16" class="node"><title>Node17</title>
<g id="a_node16"><a xlink:href="namespacemom__diag__mediator.html#ae0f04c145cb120fc2ab6cbfe9f166392" target="_top" xlink:title="Attaches &quot;cell_methods&quot; attribute to a variable based on defaults for axes_grp or optional arguments.">
<polygon fill="white" stroke="black" points="588.5,-376.615 588.5,-406.615 683.5,-406.615 683.5,-376.615 588.5,-376.615"/>
<text text-anchor="start" x="596.5" y="-394.615" font-family="Helvetica,sans-Serif" font-size="10.00">mom_diag_mediator::</text>
<text text-anchor="middle" x="636" y="-383.615" font-family="Helvetica,sans-Serif" font-size="10.00">attach_cell_methods</text>
</a>
</g>
</g>
<!-- Node10&#45;&gt;Node17 -->
<g id="edge20" class="edge"><title>Node10&#45;&gt;Node17</title>
<path fill="none" stroke="midnightblue" d="M541.618,-407.624C553.301,-405.621 565.965,-403.45 578.087,-401.372"/>
<polygon fill="midnightblue" stroke="midnightblue" points="578.843,-404.793 588.108,-399.654 577.661,-397.894 578.843,-404.793"/>
</g>
<!-- Node10&#45;&gt;Node5 -->
<g id="edge22" class="edge"><title>Node10&#45;&gt;Node5</title>
<path fill="none" stroke="midnightblue" d="M507.338,-436.251C523.19,-461.201 552.891,-503.022 588,-528.615 657.16,-579.031 681.415,-599.615 767,-599.615 767,-599.615 767,-599.615 909,-599.615 981.942,-599.615 1066.09,-599.615 1120.11,-599.615"/>
<polygon fill="midnightblue" stroke="midnightblue" points="1120.17,-603.116 1130.17,-599.615 1120.17,-596.116 1120.17,-603.116"/>
</g>
<!-- Node18 -->
<g id="node17" class="node"><title>Node18</title>
<g id="a_node17"><a xlink:href="namespacemom__diag__mediator.html#a65fe8d329cf5dbfd08c98874a7a64407" target="_top" xlink:title="Log a diagnostic to the available diagnostics file.">
<polygon fill="white" stroke="black" points="588.5,-320.615 588.5,-350.615 683.5,-350.615 683.5,-320.615 588.5,-320.615"/>
<text text-anchor="start" x="596.5" y="-338.615" font-family="Helvetica,sans-Serif" font-size="10.00">mom_diag_mediator::</text>
<text text-anchor="middle" x="636" y="-327.615" font-family="Helvetica,sans-Serif" font-size="10.00">log_available_diag</text>
</a>
</g>
</g>
<!-- Node10&#45;&gt;Node18 -->
<g id="edge23" class="edge"><title>Node10&#45;&gt;Node18</title>
<path fill="none" stroke="midnightblue" d="M531.053,-395.013C552.085,-382.996 578.51,-367.896 599.453,-355.928"/>
<polygon fill="midnightblue" stroke="midnightblue" points="601.41,-358.841 608.356,-350.841 597.937,-352.763 601.41,-358.841"/>
</g>
<!-- Node20 -->
<g id="node19" class="node"><title>Node20</title>
<g id="a_node19"><a xlink:href="namespacemom__diag__mediator.html#aca4a32fea8dade9f51e076a56b9bad2b" target="_top" xlink:title="Returns an FMS id from register_diag_field_fms (the diag_manager routine) after expanding axes (axes&#45;...">
<polygon fill="white" stroke="black" points="588.5,-478.115 588.5,-519.115 683.5,-519.115 683.5,-478.115 588.5,-478.115"/>
<text text-anchor="start" x="596.5" y="-507.115" font-family="Helvetica,sans-Serif" font-size="10.00">mom_diag_mediator::</text>
<text text-anchor="start" x="596.5" y="-496.115" font-family="Helvetica,sans-Serif" font-size="10.00">register_diag_field</text>
<text text-anchor="middle" x="636" y="-485.115" font-family="Helvetica,sans-Serif" font-size="10.00">_expand_axes</text>
</a>
</g>
</g>
<!-- Node10&#45;&gt;Node20 -->
<g id="edge25" class="edge"><title>Node10&#45;&gt;Node20</title>
<path fill="none" stroke="midnightblue" d="M529.607,-436.132C548.369,-447.256 571.735,-461.108 591.695,-472.942"/>
<polygon fill="midnightblue" stroke="midnightblue" points="589.919,-475.958 600.306,-478.047 593.489,-469.937 589.919,-475.958"/>
</g>
<!-- Node12 -->
<g id="node11" class="node"><title>Node12</title>
<g id="a_node11"><a xlink:href="namespacemom__diag__mediator.html#a1b0bed2113a0c268eafd1bafbb48bd4f" target="_top" xlink:title=" ">
<polygon fill="white" stroke="black" points="720.5,-540.615 720.5,-570.615 815.5,-570.615 815.5,-540.615 720.5,-540.615"/>
<text text-anchor="start" x="728.5" y="-558.615" font-family="Helvetica,sans-Serif" font-size="10.00">mom_diag_mediator::</text>
<text text-anchor="middle" x="768" y="-547.615" font-family="Helvetica,sans-Serif" font-size="10.00">alloc_diag_with_id</text>
</a>
</g>
</g>
<!-- Node11&#45;&gt;Node12 -->
<g id="edge13" class="edge"><title>Node11&#45;&gt;Node12</title>
<path fill="none" stroke="midnightblue" d="M670.928,-458.673C675.616,-461.579 680.14,-464.896 684,-468.615 706.946,-490.724 697.054,-508.507 720,-530.615 721.448,-532.01 722.989,-533.348 724.596,-534.63"/>
<polygon fill="midnightblue" stroke="midnightblue" points="722.872,-537.694 733.072,-540.558 726.884,-531.959 722.872,-537.694"/>
</g>
<!-- Node13 -->
<g id="node12" class="node"><title>Node13</title>
<g id="a_node12"><a xlink:href="namespacemom__error__handler.html#a33bcd190d460095104954f2e654f9fe6" target="_top" xlink:title="Issues a FATAL error if the assertion fails, i.e. the first argument is false.">
<polygon fill="white" stroke="black" points="861.5,-404.615 861.5,-434.615 954.5,-434.615 954.5,-404.615 861.5,-404.615"/>
<text text-anchor="start" x="869.5" y="-422.615" font-family="Helvetica,sans-Serif" font-size="10.00">mom_error_handler::</text>
<text text-anchor="middle" x="908" y="-411.615" font-family="Helvetica,sans-Serif" font-size="10.00">assert</text>
</a>
</g>
</g>
<!-- Node11&#45;&gt;Node13 -->
<g id="edge14" class="edge"><title>Node11&#45;&gt;Node13</title>
<path fill="none" stroke="midnightblue" d="M683.908,-436.88C695.675,-435.333 708.286,-433.798 720,-432.615 763.951,-428.18 813.867,-424.793 851.067,-422.59"/>
<polygon fill="midnightblue" stroke="midnightblue" points="851.426,-426.075 861.206,-422 851.02,-419.087 851.426,-426.075"/>
</g>
<!-- Node14 -->
<g id="node13" class="node"><title>Node14</title>
<g id="a_node13"><a xlink:href="namespacemom__diag__mediator.html#a3f7442639213320f7429e2288a79fda2" target="_top" xlink:title="Returns a new diagnostic id, it may be necessary to expand the diagnostics array.">
<polygon fill="white" stroke="black" points="720.5,-491.615 720.5,-521.615 815.5,-521.615 815.5,-491.615 720.5,-491.615"/>
<text text-anchor="start" x="728.5" y="-509.615" font-family="Helvetica,sans-Serif" font-size="10.00">mom_diag_mediator::</text>
<text text-anchor="middle" x="768" y="-498.615" font-family="Helvetica,sans-Serif" font-size="10.00">get_new_diag_id</text>
</a>
</g>
</g>
<!-- Node11&#45;&gt;Node14 -->
<g id="edge16" class="edge"><title>Node11&#45;&gt;Node14</title>
<path fill="none" stroke="midnightblue" d="M668.138,-458.706C685.617,-467.176 707.627,-477.843 726.441,-486.96"/>
<polygon fill="midnightblue" stroke="midnightblue" points="725.14,-490.219 735.665,-491.43 728.193,-483.919 725.14,-490.219"/>
</g>
<!-- Node16 -->
<g id="node15" class="node"><title>Node16</title>
<g id="a_node15"><a xlink:href="namespacemom__diag__mediator.html#a085f313357879a914af6450f2ab8ec79" target="_top" xlink:title="Associates the mask pointers within diag with the appropriate mask based on the axes group.">
<polygon fill="white" stroke="black" points="720.5,-442.615 720.5,-472.615 815.5,-472.615 815.5,-442.615 720.5,-442.615"/>
<text text-anchor="start" x="728.5" y="-460.615" font-family="Helvetica,sans-Serif" font-size="10.00">mom_diag_mediator::</text>
<text text-anchor="middle" x="768" y="-449.615" font-family="Helvetica,sans-Serif" font-size="10.00">set_diag_mask</text>
</a>
</g>
</g>
<!-- Node11&#45;&gt;Node16 -->
<g id="edge19" class="edge"><title>Node11&#45;&gt;Node16</title>
<path fill="none" stroke="midnightblue" d="M683.566,-448.63C692.247,-449.565 701.406,-450.552 710.351,-451.515"/>
<polygon fill="midnightblue" stroke="midnightblue" points="710.005,-454.998 720.322,-452.589 710.755,-448.038 710.005,-454.998"/>
</g>
<!-- Node13&#45;&gt;Node4 -->
<g id="edge15" class="edge"><title>Node13&#45;&gt;Node4</title>
<path fill="none" stroke="midnightblue" d="M943.166,-404.592C950.539,-400.402 957.932,-395.388 964,-389.615 997.584,-357.664 1022.72,-309.074 1035.82,-280.022"/>
<polygon fill="midnightblue" stroke="midnightblue" points="1039.13,-281.184 1039.95,-270.62 1032.72,-278.371 1039.13,-281.184"/>
</g>
<!-- Node14&#45;&gt;Node13 -->
<g id="edge17" class="edge"><title>Node14&#45;&gt;Node13</title>
<path fill="none" stroke="midnightblue" d="M798.61,-491.499C804.439,-488.346 810.463,-484.961 816,-481.615 837.233,-468.788 860.322,-453.034 877.93,-440.617"/>
<polygon fill="midnightblue" stroke="midnightblue" points="879.973,-443.459 886.101,-434.816 875.921,-437.751 879.973,-443.459"/>
</g>
<!-- Node15 -->
<g id="node14" class="node"><title>Node15</title>
<g id="a_node14"><a xlink:href="namespacemom__diag__mediator.html#a883862f004e30bbc5211f38635511ba0" target="_top" xlink:title="Initializes a diag_type (used after allocating new memory)">
<polygon fill="white" stroke="black" points="860.5,-491.615 860.5,-521.615 955.5,-521.615 955.5,-491.615 860.5,-491.615"/>
<text text-anchor="start" x="868.5" y="-509.615" font-family="Helvetica,sans-Serif" font-size="10.00">mom_diag_mediator::</text>
<text text-anchor="middle" x="908" y="-498.615" font-family="Helvetica,sans-Serif" font-size="10.00">initialize_diag_type</text>
</a>
</g>
</g>
<!-- Node14&#45;&gt;Node15 -->
<g id="edge18" class="edge"><title>Node14&#45;&gt;Node15</title>
<path fill="none" stroke="midnightblue" d="M815.721,-506.615C826.736,-506.615 838.6,-506.615 850.012,-506.615"/>
<polygon fill="midnightblue" stroke="midnightblue" points="850.328,-510.116 860.328,-506.615 850.328,-503.116 850.328,-510.116"/>
</g>
<!-- Node17&#45;&gt;Node4 -->
<g id="edge21" class="edge"><title>Node17&#45;&gt;Node4</title>
<path fill="none" stroke="midnightblue" d="M683.753,-396.099C750.215,-400.307 873.931,-399.982 964,-351.615 994.72,-335.119 1018.93,-302.054 1032.85,-279.382"/>
<polygon fill="midnightblue" stroke="midnightblue" points="1035.92,-281.061 1038.01,-270.674 1029.9,-277.493 1035.92,-281.061"/>
</g>
<!-- Node19 -->
<g id="node18" class="node"><title>Node19</title>
<g id="a_node18"><a xlink:href="namespacemom__diag__mediator.html#ae002ca447acba252bf7bdc042e75a01e" target="_top" xlink:title=" ">
<polygon fill="white" stroke="black" points="720.5,-316.615 720.5,-346.615 815.5,-346.615 815.5,-316.615 720.5,-316.615"/>
<text text-anchor="start" x="728.5" y="-334.615" font-family="Helvetica,sans-Serif" font-size="10.00">mom_diag_mediator::</text>
<text text-anchor="middle" x="768" y="-323.615" font-family="Helvetica,sans-Serif" font-size="10.00">describe_option</text>
</a>
</g>
</g>
<!-- Node18&#45;&gt;Node19 -->
<g id="edge24" class="edge"><title>Node18&#45;&gt;Node19</title>
<path fill="none" stroke="midnightblue" d="M683.566,-334.183C692.154,-333.918 701.21,-333.64 710.063,-333.367"/>
<polygon fill="midnightblue" stroke="midnightblue" points="710.435,-336.858 720.322,-333.052 710.219,-329.861 710.435,-336.858"/>
</g>
<!-- Node22&#45;&gt;Node4 -->
<g id="edge29" class="edge"><title>Node22&#45;&gt;Node4</title>
<path fill="none" stroke="midnightblue" d="M552.338,-121.604C661.444,-116.831 894.268,-111.526 964,-148.615 998.08,-166.742 1022.28,-205.924 1035.19,-231.508"/>
<polygon fill="midnightblue" stroke="midnightblue" points="1032.07,-233.1 1039.58,-240.575 1038.37,-230.05 1032.07,-233.1"/>
</g>
<!-- Node23&#45;&gt;Node4 -->
<g id="edge32" class="edge"><title>Node23&#45;&gt;Node4</title>
<path fill="none" stroke="midnightblue" d="M787.032,-243.81C802.964,-256.173 827.425,-272.669 852,-279.615 898.514,-292.764 953.322,-283.853 992.796,-273.358"/>
<polygon fill="midnightblue" stroke="midnightblue" points="993.788,-276.715 1002.49,-270.669 991.916,-269.97 993.788,-276.715"/>
</g>
<!-- Node24 -->
<g id="node23" class="node"><title>Node24</title>
<g id="a_node23"><a xlink:href="namespacemom__pressureforce__afv.html#a443f95a60b35b33a872264f6bacf4554" target="_top" xlink:title="Initializes the finite volume pressure gradient control structure.">
<polygon fill="white" stroke="black" points="856,-240.615 856,-270.615 960,-270.615 960,-240.615 856,-240.615"/>
<text text-anchor="start" x="864" y="-258.615" font-family="Helvetica,sans-Serif" font-size="10.00">mom_pressureforce_afv</text>
<text text-anchor="middle" x="908" y="-247.615" font-family="Helvetica,sans-Serif" font-size="10.00">::pressureforce_afv_init</text>
</a>
</g>
</g>
<!-- Node23&#45;&gt;Node24 -->
<g id="edge33" class="edge"><title>Node23&#45;&gt;Node24</title>
<path fill="none" stroke="midnightblue" d="M814.569,-237.531C824.564,-239.487 835.303,-241.588 845.799,-243.641"/>
<polygon fill="midnightblue" stroke="midnightblue" points="845.269,-247.104 855.755,-245.589 846.613,-240.234 845.269,-247.104"/>
</g>
<!-- Node25 -->
<g id="node24" class="node"><title>Node25</title>
<g id="a_node24"><a xlink:href="namespacemom__pressureforce__mont.html#a560267f015d03452d92aca82f6a46b14" target="_top" xlink:title="Initialize the Montgomery&#45;potential form of PGF control structure.">
<polygon fill="white" stroke="black" points="852.5,-191.615 852.5,-221.615 963.5,-221.615 963.5,-191.615 852.5,-191.615"/>
<text text-anchor="start" x="860.5" y="-209.615" font-family="Helvetica,sans-Serif" font-size="10.00">mom_pressureforce_mont</text>
<text text-anchor="middle" x="908" y="-198.615" font-family="Helvetica,sans-Serif" font-size="10.00">::pressureforce_mont_init</text>
</a>
</g>
</g>
<!-- Node23&#45;&gt;Node25 -->
<g id="edge35" class="edge"><title>Node23&#45;&gt;Node25</title>
<path fill="none" stroke="midnightblue" d="M814.569,-221.351C823.448,-219.935 832.914,-218.426 842.275,-216.934"/>
<polygon fill="midnightblue" stroke="midnightblue" points="843.034,-220.357 852.358,-215.327 841.932,-213.445 843.034,-220.357"/>
</g>
<!-- Node24&#45;&gt;Node4 -->
<g id="edge34" class="edge"><title>Node24&#45;&gt;Node4</title>
<path fill="none" stroke="midnightblue" d="M960.014,-255.615C969.838,-255.615 980.177,-255.615 990.146,-255.615"/>
<polygon fill="midnightblue" stroke="midnightblue" points="990.363,-259.116 1000.36,-255.615 990.363,-252.116 990.363,-259.116"/>
</g>
<!-- Node25&#45;&gt;Node4 -->
<g id="edge36" class="edge"><title>Node25&#45;&gt;Node4</title>
<path fill="none" stroke="midnightblue" d="M951.222,-221.717C964.765,-226.561 979.922,-231.982 994.076,-237.044"/>
<polygon fill="midnightblue" stroke="midnightblue" points="993.087,-240.407 1003.68,-240.48 995.444,-233.816 993.087,-240.407"/>
</g>
<!-- Node26&#45;&gt;Node4 -->
<g id="edge38" class="edge"><title>Node26&#45;&gt;Node4</title>
<path fill="none" stroke="midnightblue" d="M797.812,-27.5631C838.74,-8.49871 914.258,17.8579 964,-17.6155 1033.61,-67.2606 1044.72,-180.03 1046.08,-230.445"/>
<polygon fill="midnightblue" stroke="midnightblue" points="1042.58,-230.543 1046.25,-240.485 1049.58,-230.43 1042.58,-230.543"/>
</g>
<!-- Node27 -->
<g id="node26" class="node"><title>Node27</title>
<g id="a_node26"><a xlink:href="namespacemom__tidal__forcing.html#aba9bdb9c6510bac9f65e674bd5583f39" target="_top" xlink:title=" ">
<polygon fill="white" stroke="black" points="865,-27.6155 865,-57.6155 951,-57.6155 951,-27.6155 865,-27.6155"/>
<text text-anchor="start" x="873" y="-45.6155" font-family="Helvetica,sans-Serif" font-size="10.00">mom_tidal_forcing::</text>
<text text-anchor="middle" x="908" y="-34.6155" font-family="Helvetica,sans-Serif" font-size="10.00">find_in_files</text>
</a>
</g>
</g>
<!-- Node26&#45;&gt;Node27 -->
<g id="edge39" class="edge"><title>Node26&#45;&gt;Node27</title>
<path fill="none" stroke="midnightblue" d="M811.154,-42.6155C824.804,-42.6155 840.114,-42.6155 854.424,-42.6155"/>
<polygon fill="midnightblue" stroke="midnightblue" points="854.628,-46.1156 864.628,-42.6155 854.628,-39.1156 854.628,-46.1156"/>
</g>
<!-- Node27&#45;&gt;Node4 -->
<g id="edge40" class="edge"><title>Node27&#45;&gt;Node4</title>
<path fill="none" stroke="midnightblue" d="M944.869,-57.7521C951.82,-61.842 958.609,-66.7862 964,-72.6155 1007.21,-119.342 1030.52,-192.654 1040.32,-230.754"/>
<polygon fill="midnightblue" stroke="midnightblue" points="1036.94,-231.645 1042.73,-240.515 1043.73,-229.967 1036.94,-231.645"/>
</g>
<!-- Node28&#45;&gt;Node4 -->
<g id="edge42" class="edge"><title>Node28&#45;&gt;Node4</title>
<path fill="none" stroke="midnightblue" d="M536.756,-160.475C621.109,-145.99 816.36,-122.486 964,-181.615 990.16,-192.092 1013.31,-214.925 1028.28,-232.476"/>
<polygon fill="midnightblue" stroke="midnightblue" points="1025.9,-235.089 1034.95,-240.591 1031.3,-230.643 1025.9,-235.089"/>
</g>
</g>
</svg>
