<?xml version="1.0" encoding="UTF-8" standalone="no"?>
<!DOCTYPE svg PUBLIC "-//W3C//DTD SVG 1.1//EN"
 "http://www.w3.org/Graphics/SVG/1.1/DTD/svg11.dtd">
<!-- Generated by graphviz version 2.30.1 (20170916.1124)
 -->
<!-- Title: mom_diag_mediator::define_axes_group Pages: 1 -->
<svg width="374pt" height="77pt"
 viewBox="0.00 0.00 374.00 77.00" xmlns="http://www.w3.org/2000/svg" xmlns:xlink="http://www.w3.org/1999/xlink">
<g id="graph0" class="graph" transform="scale(1 1) rotate(0) translate(4 73)">
<title>mom_diag_mediator::define_axes_group</title>
<polygon fill="white" stroke="white" points="-4,5 -4,-73 371,-73 371,5 -4,5"/>
<!-- Node82 -->
<g id="node1" class="node"><title>Node82</title>
<g id="a_node1"><a xlink:title="Defines a group of &quot;axes&quot; from list of handles.">
<polygon fill="#bfbfbf" stroke="black" points="0.5,-22 0.5,-52 95.5,-52 95.5,-22 0.5,-22"/>
<text text-anchor="start" x="8.5" y="-40" font-family="Helvetica,sans-Serif" font-size="10.00">mom_diag_mediator::</text>
<text text-anchor="middle" x="48" y="-29" font-family="Helvetica,sans-Serif" font-size="10.00">define_axes_group</text>
</a>
</g>
</g>
<!-- Node83 -->
<g id="node2" class="node"><title>Node83</title>
<g id="a_node2"><a xlink:href="namespacemom__diag__mediator.html#a82d9bb70db16b1113304936c82d40e82" target="_top" xlink:title=" ">
<polygon fill="white" stroke="black" points="132,-49.5 132,-68.5 236,-68.5 236,-49.5 132,-49.5"/>
<text text-anchor="middle" x="184" y="-56.5" font-family="Helvetica,sans-Serif" font-size="10.00">mom_diag_mediator::i2s</text>
</a>
</g>
</g>
<!-- Node82&#45;&gt;Node83 -->
<g id="edge1" class="edge"><title>Node82&#45;&gt;Node83</title>
<path fill="none" stroke="midnightblue" d="M95.8667,-44.6945C104.221,-46.0661 113.035,-47.5132 121.72,-48.9391"/>
<polygon fill="midnightblue" stroke="midnightblue" points="121.386,-52.431 131.821,-50.5974 122.52,-45.5235 121.386,-52.431"/>
</g>
<!-- Node84 -->
<g id="node3" class="node"><title>Node84</title>
<g id="a_node3"><a xlink:href="namespacemom__error__handler.html#a460cfb79a06c29fc249952c2a3710d67" target="_top" xlink:title=" ">
<polygon fill="white" stroke="black" points="137.5,-0 137.5,-30 230.5,-30 230.5,-0 137.5,-0"/>
<text text-anchor="start" x="145.5" y="-18" font-family="Helvetica,sans-Serif" font-size="10.00">mom_error_handler::</text>
<text text-anchor="middle" x="184" y="-7" font-family="Helvetica,sans-Serif" font-size="10.00">mom_error</text>
</a>
</g>
</g>
<!-- Node82&#45;&gt;Node84 -->
<g id="edge2" class="edge"><title>Node82&#45;&gt;Node84</title>
<path fill="none" stroke="midnightblue" d="M95.8667,-29.3055C106.047,-27.634 116.911,-25.8504 127.392,-24.1296"/>
<polygon fill="midnightblue" stroke="midnightblue" points="127.988,-27.5788 137.289,-22.5048 126.854,-20.6712 127.988,-27.5788"/>
</g>
<!-- Node85 -->
<g id="node4" class="node"><title>Node85</title>
<g id="a_node4"><a xlink:href="namespacemom__error__handler.html#ad5f00a53059c72fe2332d1436c80ca71" target="_top" xlink:title=" ">
<polygon fill="white" stroke="black" points="272.5,-0 272.5,-30 365.5,-30 365.5,-0 272.5,-0"/>
<text text-anchor="start" x="280.5" y="-18" font-family="Helvetica,sans-Serif" font-size="10.00">mom_error_handler::</text>
<text text-anchor="middle" x="319" y="-7" font-family="Helvetica,sans-Serif" font-size="10.00">is_root_pe</text>
</a>
</g>
</g>
<!-- Node84&#45;&gt;Node85 -->
<g id="edge3" class="edge"><title>Node84&#45;&gt;Node85</title>
<path fill="none" stroke="midnightblue" d="M230.771,-15C240.802,-15 251.533,-15 261.916,-15"/>
<polygon fill="midnightblue" stroke="midnightblue" points="262.145,-18.5001 272.145,-15 262.145,-11.5001 262.145,-18.5001"/>
</g>
</g>
</svg>
