<?xml version="1.0" encoding="UTF-8" standalone="no"?>
<!DOCTYPE svg PUBLIC "-//W3C//DTD SVG 1.1//EN"
 "http://www.w3.org/Graphics/SVG/1.1/DTD/svg11.dtd">
<!-- Generated by graphviz version 2.30.1 (20170916.1124)
 -->
<!-- Title: meso_surface_forcing::meso_surface_forcing_init Pages: 1 -->
<svg width="252pt" height="38pt"
 viewBox="0.00 0.00 252.00 38.00" xmlns="http://www.w3.org/2000/svg" xmlns:xlink="http://www.w3.org/1999/xlink">
<g id="graph0" class="graph" transform="scale(1 1) rotate(0) translate(4 34)">
<title>meso_surface_forcing::meso_surface_forcing_init</title>
<polygon fill="white" stroke="white" points="-4,5 -4,-34 249,-34 249,5 -4,5"/>
<!-- Node11 -->
<g id="node1" class="node"><title>Node11</title>
<g id="a_node1"><a xlink:title=" ">
<polygon fill="#bfbfbf" stroke="black" points="130,-0 130,-30 244,-30 244,-0 130,-0"/>
<text text-anchor="start" x="138" y="-18" font-family="Helvetica,sans-Serif" font-size="10.00">meso_surface_forcing</text>
<text text-anchor="middle" x="187" y="-7" font-family="Helvetica,sans-Serif" font-size="10.00">::meso_surface_forcing_init</text>
</a>
</g>
</g>
<!-- Node12 -->
<g id="node2" class="node"><title>Node12</title>
<g id="a_node2"><a xlink:href="namespacemom__surface__forcing.html#ad01961191fdfc928f233901e285f4beb" target="_top" xlink:title=" ">
<polygon fill="white" stroke="black" points="0,-0 0,-30 94,-30 94,-0 0,-0"/>
<text text-anchor="start" x="8" y="-18" font-family="Helvetica,sans-Serif" font-size="10.00">mom_surface_forcing</text>
<text text-anchor="middle" x="47" y="-7" font-family="Helvetica,sans-Serif" font-size="10.00">::surface_forcing_init</text>
</a>
</g>
</g>
<!-- Node11&#45;&gt;Node12 -->
<g id="edge1" class="edge"><title>Node11&#45;&gt;Node12</title>
<path fill="none" stroke="midnightblue" d="M119.831,-15C111.229,-15 102.568,-15 94.3839,-15"/>
<polygon fill="midnightblue" stroke="midnightblue" points="119.87,-18.5001 129.87,-15 119.87,-11.5001 119.87,-18.5001"/>
</g>
</g>
</svg>
