<?xml version="1.0" encoding="UTF-8" standalone="no"?>
<!DOCTYPE svg PUBLIC "-//W3C//DTD SVG 1.1//EN"
 "http://www.w3.org/Graphics/SVG/1.1/DTD/svg11.dtd">
<!-- Generated by graphviz version 2.30.1 (20170916.1124)
 -->
<!-- Title: user_shelf_init::user_initialize_shelf_mass Pages: 1 -->
<svg width="226pt" height="87pt"
 viewBox="0.00 0.00 226.00 87.00" xmlns="http://www.w3.org/2000/svg" xmlns:xlink="http://www.w3.org/1999/xlink">
<g id="graph0" class="graph" transform="scale(1 1) rotate(0) translate(4 83)">
<title>user_shelf_init::user_initialize_shelf_mass</title>
<polygon fill="white" stroke="white" points="-4,5 -4,-83 223,-83 223,5 -4,5"/>
<!-- Node9 -->
<g id="node1" class="node"><title>Node9</title>
<g id="a_node1"><a xlink:title=" ">
<polygon fill="#bfbfbf" stroke="black" points="0,-24 0,-54 92,-54 92,-24 0,-24"/>
<text text-anchor="start" x="8" y="-42" font-family="Helvetica,sans-Serif" font-size="10.00">user_shelf_init::user</text>
<text text-anchor="middle" x="46" y="-31" font-family="Helvetica,sans-Serif" font-size="10.00">_initialize_shelf_mass</text>
</a>
</g>
</g>
<!-- Node10 -->
<g id="node2" class="node"><title>Node10</title>
<g id="a_node2"><a xlink:href="namespaceuser__shelf__init.html#abd99438d24c4a57aa3fbab3b067a7c81" target="_top" xlink:title=" ">
<polygon fill="white" stroke="black" points="128,-49 128,-79 218,-79 218,-49 128,-49"/>
<text text-anchor="start" x="136" y="-67" font-family="Helvetica,sans-Serif" font-size="10.00">user_shelf_init::user</text>
<text text-anchor="middle" x="173" y="-56" font-family="Helvetica,sans-Serif" font-size="10.00">_update_shelf_mass</text>
</a>
</g>
</g>
<!-- Node9&#45;&gt;Node10 -->
<g id="edge1" class="edge"><title>Node9&#45;&gt;Node10</title>
<path fill="none" stroke="midnightblue" d="M92.1279,-48.0256C100.472,-49.6943 109.264,-51.4528 117.843,-53.1685"/>
<polygon fill="midnightblue" stroke="midnightblue" points="117.284,-56.6259 127.776,-55.1552 118.656,-49.7619 117.284,-56.6259"/>
</g>
<!-- Node11 -->
<g id="node3" class="node"><title>Node11</title>
<g id="a_node3"><a xlink:href="namespaceuser__shelf__init.html#a04dc4958214e8b07da385f8be785d706" target="_top" xlink:title=" ">
<polygon fill="white" stroke="black" points="128.5,-0 128.5,-30 217.5,-30 217.5,-0 128.5,-0"/>
<text text-anchor="start" x="136.5" y="-18" font-family="Helvetica,sans-Serif" font-size="10.00">user_shelf_init::write</text>
<text text-anchor="middle" x="173" y="-7" font-family="Helvetica,sans-Serif" font-size="10.00">_user_log</text>
</a>
</g>
</g>
<!-- Node9&#45;&gt;Node11 -->
<g id="edge2" class="edge"><title>Node9&#45;&gt;Node11</title>
<path fill="none" stroke="midnightblue" d="M92.1279,-30.3354C100.572,-28.7142 109.476,-27.0046 118.153,-25.3387"/>
<polygon fill="midnightblue" stroke="midnightblue" points="119.033,-28.7338 128.193,-23.4109 117.713,-21.8593 119.033,-28.7338"/>
</g>
</g>
</svg>
