<?xml version="1.0" encoding="UTF-8" standalone="no"?>
<!DOCTYPE svg PUBLIC "-//W3C//DTD SVG 1.1//EN"
 "http://www.w3.org/Graphics/SVG/1.1/DTD/svg11.dtd">
<!-- Generated by graphviz version 2.30.1 (20170916.1124)
 -->
<!-- Title: mom_eos::calculate_specific_vol_derivs Pages: 1 -->
<svg width="582pt" height="77pt"
 viewBox="0.00 0.00 582.00 77.00" xmlns="http://www.w3.org/2000/svg" xmlns:xlink="http://www.w3.org/1999/xlink">
<g id="graph0" class="graph" transform="scale(1 1) rotate(0) translate(4 73)">
<title>mom_eos::calculate_specific_vol_derivs</title>
<polygon fill="white" stroke="white" points="-4,5 -4,-73 579,-73 579,5 -4,5"/>
<!-- Node68 -->
<g id="node1" class="node"><title>Node68</title>
<g id="a_node1"><a xlink:title="Calls the appropriate subroutine to calculate specific volume derivatives for an array.">
<polygon fill="#bfbfbf" stroke="black" points="486.5,-22 486.5,-52 573.5,-52 573.5,-22 486.5,-22"/>
<text text-anchor="start" x="494.5" y="-40" font-family="Helvetica,sans-Serif" font-size="10.00">mom_eos::calculate</text>
<text text-anchor="middle" x="530" y="-29" font-family="Helvetica,sans-Serif" font-size="10.00">_specific_vol_derivs</text>
</a>
</g>
</g>
<!-- Node69 -->
<g id="node2" class="node"><title>Node69</title>
<g id="a_node2"><a xlink:href="namespacemom__diabatic__aux.html#a44d0243253dc728f6d1d1dced76883f3" target="_top" xlink:title="Update the thickness, temperature, and salinity due to thermodynamic boundary forcing (contained in f...">
<polygon fill="white" stroke="black" points="128,-49.5 128,-68.5 306,-68.5 306,-49.5 128,-49.5"/>
<text text-anchor="middle" x="217" y="-56.5" font-family="Helvetica,sans-Serif" font-size="10.00">mom_diabatic_aux::applyboundaryfluxesinout</text>
</a>
</g>
</g>
<!-- Node68&#45;&gt;Node69 -->
<g id="edge1" class="edge"><title>Node68&#45;&gt;Node69</title>
<path fill="none" stroke="midnightblue" d="M476.259,-40.7308C429.781,-44.0187 361.127,-48.8752 306.286,-52.7547"/>
<polygon fill="midnightblue" stroke="midnightblue" points="476.681,-44.2099 486.409,-40.0129 476.187,-37.2273 476.681,-44.2099"/>
</g>
<!-- Node71 -->
<g id="node4" class="node"><title>Node71</title>
<g id="a_node4"><a xlink:href="namespacemom__diapyc__energy__req.html#ae781d0079acfadcd996aaff8d63957da" target="_top" xlink:title=" ">
<polygon fill="white" stroke="black" points="342.5,-0 342.5,-30 449.5,-30 449.5,-0 342.5,-0"/>
<text text-anchor="start" x="350.5" y="-18" font-family="Helvetica,sans-Serif" font-size="10.00">mom_diapyc_energy_req</text>
<text text-anchor="middle" x="396" y="-7" font-family="Helvetica,sans-Serif" font-size="10.00">::diapyc_energy_req_calc</text>
</a>
</g>
</g>
<!-- Node68&#45;&gt;Node71 -->
<g id="edge3" class="edge"><title>Node68&#45;&gt;Node71</title>
<path fill="none" stroke="midnightblue" d="M476.141,-28.1901C467.464,-26.744 458.472,-25.2453 449.797,-23.7995"/>
<polygon fill="midnightblue" stroke="midnightblue" points="475.704,-31.6655 486.143,-29.8572 476.855,-24.7608 475.704,-31.6655"/>
</g>
<!-- Node70 -->
<g id="node3" class="node"><title>Node70</title>
<g id="a_node3"><a xlink:href="namespacemom__diabatic__driver.html#a61e57d3902367aa46aa3c2d949ee900f" target="_top" xlink:title="This subroutine imposes the diapycnal mass fluxes and the accompanying diapycnal advection of momentu...">
<polygon fill="white" stroke="black" points="0.5,-22 0.5,-52 91.5,-52 91.5,-22 0.5,-22"/>
<text text-anchor="start" x="8.5" y="-40" font-family="Helvetica,sans-Serif" font-size="10.00">mom_diabatic_driver</text>
<text text-anchor="middle" x="46" y="-29" font-family="Helvetica,sans-Serif" font-size="10.00">::diabatic</text>
</a>
</g>
</g>
<!-- Node69&#45;&gt;Node70 -->
<g id="edge2" class="edge"><title>Node69&#45;&gt;Node70</title>
<path fill="none" stroke="midnightblue" d="M132.665,-48.1516C118.627,-46.3242 104.545,-44.4911 91.9716,-42.8543"/>
<polygon fill="midnightblue" stroke="midnightblue" points="132.489,-51.6582 142.857,-49.4784 133.393,-44.7167 132.489,-51.6582"/>
</g>
<!-- Node72 -->
<g id="node5" class="node"><title>Node72</title>
<g id="a_node5"><a xlink:href="namespacemom__diapyc__energy__req.html#afe7d4fc70231c1812ffd38faef76558e" target="_top" xlink:title=" ">
<polygon fill="white" stroke="black" points="163.5,-0 163.5,-30 270.5,-30 270.5,-0 163.5,-0"/>
<text text-anchor="start" x="171.5" y="-18" font-family="Helvetica,sans-Serif" font-size="10.00">mom_diapyc_energy_req</text>
<text text-anchor="middle" x="217" y="-7" font-family="Helvetica,sans-Serif" font-size="10.00">::diapyc_energy_req_test</text>
</a>
</g>
</g>
<!-- Node71&#45;&gt;Node72 -->
<g id="edge4" class="edge"><title>Node71&#45;&gt;Node72</title>
<path fill="none" stroke="midnightblue" d="M332.351,-15C312.202,-15 290.092,-15 270.729,-15"/>
<polygon fill="midnightblue" stroke="midnightblue" points="332.373,-18.5001 342.373,-15 332.373,-11.5001 332.373,-18.5001"/>
</g>
<!-- Node72&#45;&gt;Node70 -->
<g id="edge5" class="edge"><title>Node72&#45;&gt;Node70</title>
<path fill="none" stroke="midnightblue" d="M153.527,-23.1325C132.953,-25.8109 110.505,-28.733 91.5443,-31.2013"/>
<polygon fill="midnightblue" stroke="midnightblue" points="153.989,-26.602 163.454,-21.8403 153.086,-19.6606 153.989,-26.602"/>
</g>
</g>
</svg>
