<?xml version="1.0" encoding="UTF-8" standalone="no"?>
<!DOCTYPE svg PUBLIC "-//W3C//DTD SVG 1.1//EN"
 "http://www.w3.org/Graphics/SVG/1.1/DTD/svg11.dtd">
<!-- Generated by graphviz version 2.30.1 (20170916.1124)
 -->
<!-- Title: mom_diag_mediator::query_averaging_enabled Pages: 1 -->
<svg width="502pt" height="311pt"
 viewBox="0.00 0.00 502.00 311.00" xmlns="http://www.w3.org/2000/svg" xmlns:xlink="http://www.w3.org/1999/xlink">
<g id="graph0" class="graph" transform="scale(1 1) rotate(0) translate(4 307)">
<title>mom_diag_mediator::query_averaging_enabled</title>
<polygon fill="white" stroke="white" points="-4,5 -4,-307 499,-307 499,5 -4,5"/>
<!-- Node341 -->
<g id="node1" class="node"><title>Node341</title>
<g id="a_node1"><a xlink:title=" ">
<polygon fill="#bfbfbf" stroke="black" points="384,-120 384,-150 494,-150 494,-120 384,-120"/>
<text text-anchor="start" x="392" y="-138" font-family="Helvetica,sans-Serif" font-size="10.00">mom_diag_mediator::</text>
<text text-anchor="middle" x="439" y="-127" font-family="Helvetica,sans-Serif" font-size="10.00">query_averaging_enabled</text>
</a>
</g>
</g>
<!-- Node342 -->
<g id="node2" class="node"><title>Node342</title>
<g id="a_node2"><a xlink:href="namespacemom__lateral__mixing__coeffs.html#af206bc656869b4fc27d4d7e8a15d438e" target="_top" xlink:title="Calculates and stores the non&#45;dimensional resolution functions.">
<polygon fill="white" stroke="black" points="250,-261.5 250,-302.5 338,-302.5 338,-261.5 250,-261.5"/>
<text text-anchor="start" x="258" y="-290.5" font-family="Helvetica,sans-Serif" font-size="10.00">mom_lateral_mixing</text>
<text text-anchor="start" x="258" y="-279.5" font-family="Helvetica,sans-Serif" font-size="10.00">_coeffs::calc_resoln</text>
<text text-anchor="middle" x="294" y="-268.5" font-family="Helvetica,sans-Serif" font-size="10.00">_function</text>
</a>
</g>
</g>
<!-- Node341&#45;&gt;Node342 -->
<g id="edge1" class="edge"><title>Node341&#45;&gt;Node342</title>
<path fill="none" stroke="midnightblue" d="M422.402,-158.48C405.766,-182.453 377.762,-219.893 348,-247 342.375,-252.123 335.932,-257.027 329.521,-261.458"/>
<polygon fill="midnightblue" stroke="midnightblue" points="425.444,-160.232 428.201,-150.002 419.666,-156.28 425.444,-160.232"/>
</g>
<!-- Node345 -->
<g id="node5" class="node"><title>Node345</title>
<g id="a_node5"><a xlink:href="namespacemom__lateral__mixing__coeffs.html#a8abf768b636e96aafa9544287624523e" target="_top" xlink:title="Calculates and stores functions of isopycnal slopes, e.g. Sx, Sy, S*N, mostly used in the Visbeck et ...">
<polygon fill="white" stroke="black" points="104,-171.5 104,-212.5 192,-212.5 192,-171.5 104,-171.5"/>
<text text-anchor="start" x="112" y="-200.5" font-family="Helvetica,sans-Serif" font-size="10.00">mom_lateral_mixing</text>
<text text-anchor="start" x="112" y="-189.5" font-family="Helvetica,sans-Serif" font-size="10.00">_coeffs::calc_slope</text>
<text text-anchor="middle" x="148" y="-178.5" font-family="Helvetica,sans-Serif" font-size="10.00">_functions</text>
</a>
</g>
</g>
<!-- Node341&#45;&gt;Node345 -->
<g id="edge4" class="edge"><title>Node341&#45;&gt;Node345</title>
<path fill="none" stroke="midnightblue" d="M420.231,-157.912C403.843,-177.015 377.622,-202.843 348,-214 296.93,-233.234 233.654,-220.602 192.351,-207.955"/>
<polygon fill="midnightblue" stroke="midnightblue" points="422.94,-160.129 426.634,-150.199 417.553,-155.658 422.94,-160.129"/>
</g>
<!-- Node346 -->
<g id="node6" class="node"><title>Node346</title>
<g id="a_node6"><a xlink:href="namespacemom__lateral__mixing__coeffs.html#ae625fee7e36d68e290b3af57697d0afe" target="_top" xlink:title="Calculates factors used when setting diffusivity coefficients similar to Visbeck et al.">
<polygon fill="white" stroke="black" points="249,-163.5 249,-204.5 339,-204.5 339,-163.5 249,-163.5"/>
<text text-anchor="start" x="257" y="-192.5" font-family="Helvetica,sans-Serif" font-size="10.00">mom_lateral_mixing</text>
<text text-anchor="start" x="257" y="-181.5" font-family="Helvetica,sans-Serif" font-size="10.00">_coeffs::calc_visbeck</text>
<text text-anchor="middle" x="294" y="-170.5" font-family="Helvetica,sans-Serif" font-size="10.00">_coeffs</text>
</a>
</g>
</g>
<!-- Node341&#45;&gt;Node346 -->
<g id="edge5" class="edge"><title>Node341&#45;&gt;Node346</title>
<path fill="none" stroke="midnightblue" d="M384.332,-153.39C369.443,-158.492 353.452,-163.971 339.172,-168.864"/>
<polygon fill="midnightblue" stroke="midnightblue" points="385.603,-156.654 393.928,-150.101 383.334,-150.032 385.603,-156.654"/>
</g>
<!-- Node347 -->
<g id="node7" class="node"><title>Node347</title>
<g id="a_node7"><a xlink:href="namespacemom__diabatic__driver.html#a61e57d3902367aa46aa3c2d949ee900f" target="_top" xlink:title="This subroutine imposes the diapycnal mass fluxes and the accompanying diapycnal advection of momentu...">
<polygon fill="white" stroke="black" points="102.5,-112 102.5,-142 193.5,-142 193.5,-112 102.5,-112"/>
<text text-anchor="start" x="110.5" y="-130" font-family="Helvetica,sans-Serif" font-size="10.00">mom_diabatic_driver</text>
<text text-anchor="middle" x="148" y="-119" font-family="Helvetica,sans-Serif" font-size="10.00">::diabatic</text>
</a>
</g>
</g>
<!-- Node341&#45;&gt;Node347 -->
<g id="edge7" class="edge"><title>Node341&#45;&gt;Node347</title>
<path fill="none" stroke="midnightblue" d="M373.703,-133.22C319.03,-131.707 241.938,-129.573 193.75,-128.239"/>
<polygon fill="midnightblue" stroke="midnightblue" points="373.887,-136.727 383.98,-133.505 374.081,-129.729 373.887,-136.727"/>
</g>
<!-- Node348 -->
<g id="node8" class="node"><title>Node348</title>
<g id="a_node8"><a xlink:href="namespacemom__forcing__type.html#aa685fdcd5863af264335aa60b5b4c210" target="_top" xlink:title="Offer buoyancy forcing fields for diagnostics for those fields registered as part of register_forcing...">
<polygon fill="white" stroke="black" points="92.5,-44 92.5,-74 203.5,-74 203.5,-44 92.5,-44"/>
<text text-anchor="start" x="100.5" y="-62" font-family="Helvetica,sans-Serif" font-size="10.00">mom_forcing_type::forcing</text>
<text text-anchor="middle" x="148" y="-51" font-family="Helvetica,sans-Serif" font-size="10.00">_diagnostics</text>
</a>
</g>
</g>
<!-- Node341&#45;&gt;Node348 -->
<g id="edge8" class="edge"><title>Node341&#45;&gt;Node348</title>
<path fill="none" stroke="midnightblue" d="M411.692,-113.643C394.6,-101.007 371.245,-85.9588 348,-78 301.047,-61.9237 244.456,-57.8791 203.645,-57.4408"/>
<polygon fill="midnightblue" stroke="midnightblue" points="409.947,-116.713 420.026,-119.981 414.185,-111.141 409.947,-116.713"/>
</g>
<!-- Node349 -->
<g id="node9" class="node"><title>Node349</title>
<g id="a_node9"><a xlink:href="namespacemom__forcing__type.html#ab19017105329a14ad5130e2f2aa8e475" target="_top" xlink:title="Offer mechanical forcing fields for diagnostics for those fields registered as part of register_forci...">
<polygon fill="white" stroke="black" points="240.5,-0 240.5,-30 347.5,-30 347.5,-0 240.5,-0"/>
<text text-anchor="start" x="248.5" y="-18" font-family="Helvetica,sans-Serif" font-size="10.00">mom_forcing_type::mech</text>
<text text-anchor="middle" x="294" y="-7" font-family="Helvetica,sans-Serif" font-size="10.00">_forcing_diags</text>
</a>
</g>
</g>
<!-- Node341&#45;&gt;Node349 -->
<g id="edge10" class="edge"><title>Node341&#45;&gt;Node349</title>
<path fill="none" stroke="midnightblue" d="M418.23,-112.001C400.922,-92.6989 374.47,-65.1324 348,-45 340.931,-39.6234 332.795,-34.5452 325.053,-30.1485"/>
<polygon fill="midnightblue" stroke="midnightblue" points="415.813,-114.551 425.06,-119.721 421.055,-109.912 415.813,-114.551"/>
</g>
<!-- Node350 -->
<g id="node10" class="node"><title>Node350</title>
<g id="a_node10"><a xlink:href="namespacemom__opacity.html#aefadc7465f74c0cab731cf1adf5f3a57" target="_top" xlink:title=" ">
<polygon fill="white" stroke="black" points="240,-87.5 240,-106.5 348,-106.5 348,-87.5 240,-87.5"/>
<text text-anchor="middle" x="294" y="-94.5" font-family="Helvetica,sans-Serif" font-size="10.00">mom_opacity::set_opacity</text>
</a>
</g>
</g>
<!-- Node341&#45;&gt;Node350 -->
<g id="edge12" class="edge"><title>Node341&#45;&gt;Node350</title>
<path fill="none" stroke="midnightblue" d="M374.268,-118.064C359.411,-114.116 344.102,-110.048 330.946,-106.552"/>
<polygon fill="midnightblue" stroke="midnightblue" points="373.374,-121.448 383.938,-120.634 375.172,-114.683 373.374,-121.448"/>
</g>
<!-- Node343 -->
<g id="node3" class="node"><title>Node343</title>
<g id="a_node3"><a xlink:href="namespacemom.html#a4c8332b095c6d295084089aa6b3b678a" target="_top" xlink:title="This subroutine orchestrates the time stepping of MOM. The adiabatic dynamics are stepped by calls to...">
<polygon fill="white" stroke="black" points="109.5,-255.5 109.5,-274.5 186.5,-274.5 186.5,-255.5 109.5,-255.5"/>
<text text-anchor="middle" x="148" y="-262.5" font-family="Helvetica,sans-Serif" font-size="10.00">mom::step_mom</text>
</a>
</g>
</g>
<!-- Node342&#45;&gt;Node343 -->
<g id="edge2" class="edge"><title>Node342&#45;&gt;Node343</title>
<path fill="none" stroke="midnightblue" d="M239.674,-275.705C222.114,-273.631 202.961,-271.37 186.802,-269.463"/>
<polygon fill="midnightblue" stroke="midnightblue" points="239.454,-279.203 249.795,-276.899 240.275,-272.251 239.454,-279.203"/>
</g>
<!-- Node344 -->
<g id="node4" class="node"><title>Node344</title>
<g id="a_node4"><a xlink:href="MOM__driver_8F90.html#a08fffeb2d8e8acbf9ed4609be6d258c6" target="_top" xlink:title=" ">
<polygon fill="white" stroke="black" points="0,-49.5 0,-68.5 56,-68.5 56,-49.5 0,-49.5"/>
<text text-anchor="middle" x="28" y="-56.5" font-family="Helvetica,sans-Serif" font-size="10.00">mom_main</text>
</a>
</g>
</g>
<!-- Node343&#45;&gt;Node344 -->
<g id="edge3" class="edge"><title>Node343&#45;&gt;Node344</title>
<path fill="none" stroke="midnightblue" d="M121.967,-249.785C111.566,-242.45 100.065,-232.877 92,-222 54.4141,-171.31 36.3154,-95.3857 30.8498,-68.6963"/>
<polygon fill="midnightblue" stroke="midnightblue" points="120.09,-252.741 130.346,-255.4 123.987,-246.926 120.09,-252.741"/>
</g>
<!-- Node346&#45;&gt;Node345 -->
<g id="edge6" class="edge"><title>Node346&#45;&gt;Node345</title>
<path fill="none" stroke="midnightblue" d="M238.334,-187.037C223.173,-187.879 206.921,-188.782 192.492,-189.584"/>
<polygon fill="midnightblue" stroke="midnightblue" points="238.83,-190.515 248.62,-186.466 238.441,-183.526 238.83,-190.515"/>
</g>
<!-- Node348&#45;&gt;Node344 -->
<g id="edge9" class="edge"><title>Node348&#45;&gt;Node344</title>
<path fill="none" stroke="midnightblue" d="M82.4664,-59C73.2547,-59 64.2245,-59 56.2846,-59"/>
<polygon fill="midnightblue" stroke="midnightblue" points="82.4903,-62.5001 92.4903,-59 82.4902,-55.5001 82.4903,-62.5001"/>
</g>
<!-- Node349&#45;&gt;Node344 -->
<g id="edge11" class="edge"><title>Node349&#45;&gt;Node344</title>
<path fill="none" stroke="midnightblue" d="M230.126,-16.3771C190.115,-18.3696 137.459,-23.0677 92,-34 77.1267,-37.5769 61.1131,-43.9678 48.9527,-49.3924"/>
<polygon fill="midnightblue" stroke="midnightblue" points="230.444,-19.8663 240.275,-15.9159 230.126,-12.8736 230.444,-19.8663"/>
</g>
<!-- Node350&#45;&gt;Node347 -->
<g id="edge13" class="edge"><title>Node350&#45;&gt;Node347</title>
<path fill="none" stroke="midnightblue" d="M237.203,-108.624C222.734,-111.639 207.345,-114.845 193.539,-117.721"/>
<polygon fill="midnightblue" stroke="midnightblue" points="237.966,-112.041 247.042,-106.575 236.538,-105.188 237.966,-112.041"/>
</g>
</g>
</svg>
