<?xml version="1.0" encoding="UTF-8" standalone="no"?>
<!DOCTYPE svg PUBLIC "-//W3C//DTD SVG 1.1//EN"
 "http://www.w3.org/Graphics/SVG/1.1/DTD/svg11.dtd">
<!-- Generated by graphviz version 2.30.1 (20170916.1124)
 -->
<!-- Title: mom_offline_transport::offline_transport_init Pages: 1 -->
<svg width="370pt" height="185pt"
 viewBox="0.00 0.00 370.00 185.00" xmlns="http://www.w3.org/2000/svg" xmlns:xlink="http://www.w3.org/1999/xlink">
<g id="graph0" class="graph" transform="scale(1 1) rotate(0) translate(4 181)">
<title>mom_offline_transport::offline_transport_init</title>
<polygon fill="white" stroke="white" points="-4,5 -4,-181 367,-181 367,5 -4,5"/>
<!-- Node22 -->
<g id="node1" class="node"><title>Node22</title>
<g id="a_node1"><a xlink:title="Initializes the control structure for offline transport and reads in some of the.">
<polygon fill="#bfbfbf" stroke="black" points="0.5,-73 0.5,-103 97.5,-103 97.5,-73 0.5,-73"/>
<text text-anchor="start" x="8.5" y="-91" font-family="Helvetica,sans-Serif" font-size="10.00">mom_offline_transport</text>
<text text-anchor="middle" x="49" y="-80" font-family="Helvetica,sans-Serif" font-size="10.00">::offline_transport_init</text>
</a>
</g>
</g>
<!-- Node23 -->
<g id="node2" class="node"><title>Node23</title>
<g id="a_node2"><a xlink:href="namespacemom__error__handler.html#a9cda07a87815f0e5594066162b4345c3" target="_top" xlink:title="Writes a message about entering a subroutine if call tree reporting is active.">
<polygon fill="white" stroke="black" points="136.5,-147 136.5,-177 229.5,-177 229.5,-147 136.5,-147"/>
<text text-anchor="start" x="144.5" y="-165" font-family="Helvetica,sans-Serif" font-size="10.00">mom_error_handler::</text>
<text text-anchor="middle" x="183" y="-154" font-family="Helvetica,sans-Serif" font-size="10.00">calltree_enter</text>
</a>
</g>
</g>
<!-- Node22&#45;&gt;Node23 -->
<g id="edge1" class="edge"><title>Node22&#45;&gt;Node23</title>
<path fill="none" stroke="midnightblue" d="M75.1828,-103.113C91.7748,-112.966 114.043,-125.99 134,-137 137.054,-138.685 140.232,-140.407 143.434,-142.12"/>
<polygon fill="midnightblue" stroke="midnightblue" points="141.959,-145.3 152.435,-146.885 145.234,-139.113 141.959,-145.3"/>
</g>
<!-- Node25 -->
<g id="node4" class="node"><title>Node25</title>
<g id="a_node4"><a xlink:href="namespacemom__error__handler.html#a88ea67781e2ed9b73ab7eac8ea5e8578" target="_top" xlink:title="Writes a message about leaving a subroutine if call tree reporting is active.">
<polygon fill="white" stroke="black" points="136.5,-98 136.5,-128 229.5,-128 229.5,-98 136.5,-98"/>
<text text-anchor="start" x="144.5" y="-116" font-family="Helvetica,sans-Serif" font-size="10.00">mom_error_handler::</text>
<text text-anchor="middle" x="183" y="-105" font-family="Helvetica,sans-Serif" font-size="10.00">calltree_leave</text>
</a>
</g>
</g>
<!-- Node22&#45;&gt;Node25 -->
<g id="edge3" class="edge"><title>Node22&#45;&gt;Node25</title>
<path fill="none" stroke="midnightblue" d="M97.655,-97.0256C106.874,-98.7717 116.613,-100.616 126.068,-102.407"/>
<polygon fill="midnightblue" stroke="midnightblue" points="125.703,-105.9 136.18,-104.322 127.006,-99.0222 125.703,-105.9"/>
</g>
<!-- Node26 -->
<g id="node5" class="node"><title>Node26</title>
<g id="a_node5"><a xlink:href="namespacemom__error__handler.html#a460cfb79a06c29fc249952c2a3710d67" target="_top" xlink:title=" ">
<polygon fill="white" stroke="black" points="136.5,-49 136.5,-79 229.5,-79 229.5,-49 136.5,-49"/>
<text text-anchor="start" x="144.5" y="-67" font-family="Helvetica,sans-Serif" font-size="10.00">mom_error_handler::</text>
<text text-anchor="middle" x="183" y="-56" font-family="Helvetica,sans-Serif" font-size="10.00">mom_error</text>
</a>
</g>
</g>
<!-- Node22&#45;&gt;Node26 -->
<g id="edge5" class="edge"><title>Node22&#45;&gt;Node26</title>
<path fill="none" stroke="midnightblue" d="M97.655,-79.3354C106.874,-77.6592 116.613,-75.8886 126.068,-74.1694"/>
<polygon fill="midnightblue" stroke="midnightblue" points="126.968,-77.5634 136.18,-72.3309 125.715,-70.6763 126.968,-77.5634"/>
</g>
<!-- Node27 -->
<g id="node6" class="node"><title>Node27</title>
<g id="a_node6"><a xlink:href="namespacemom__offline__transport.html#a277e868a412054fa0cf723b15e32b8a2" target="_top" xlink:title="Calculates the next timelevel to read from the input fields. This allows the &#39;looping&#39; of the fields.">
<polygon fill="white" stroke="black" points="134.5,-0 134.5,-30 231.5,-30 231.5,-0 134.5,-0"/>
<text text-anchor="start" x="142.5" y="-18" font-family="Helvetica,sans-Serif" font-size="10.00">mom_offline_transport</text>
<text text-anchor="middle" x="183" y="-7" font-family="Helvetica,sans-Serif" font-size="10.00">::next_modulo_time</text>
</a>
</g>
</g>
<!-- Node22&#45;&gt;Node27 -->
<g id="edge7" class="edge"><title>Node22&#45;&gt;Node27</title>
<path fill="none" stroke="midnightblue" d="M75.9607,-72.8181C92.4852,-63.241 114.392,-50.7033 134,-40 137.104,-38.3055 140.333,-36.5688 143.584,-34.839"/>
<polygon fill="midnightblue" stroke="midnightblue" points="145.501,-37.7846 152.713,-30.0228 142.235,-31.5934 145.501,-37.7846"/>
</g>
<!-- Node24 -->
<g id="node3" class="node"><title>Node24</title>
<g id="a_node3"><a xlink:href="namespacemom__error__handler.html#ad5f00a53059c72fe2332d1436c80ca71" target="_top" xlink:title=" ">
<polygon fill="white" stroke="black" points="268.5,-98 268.5,-128 361.5,-128 361.5,-98 268.5,-98"/>
<text text-anchor="start" x="276.5" y="-116" font-family="Helvetica,sans-Serif" font-size="10.00">mom_error_handler::</text>
<text text-anchor="middle" x="315" y="-105" font-family="Helvetica,sans-Serif" font-size="10.00">is_root_pe</text>
</a>
</g>
</g>
<!-- Node23&#45;&gt;Node24 -->
<g id="edge2" class="edge"><title>Node23&#45;&gt;Node24</title>
<path fill="none" stroke="midnightblue" d="M224.065,-146.899C236.792,-142.101 251.022,-136.738 264.341,-131.718"/>
<polygon fill="midnightblue" stroke="midnightblue" points="265.721,-134.938 273.843,-128.136 263.252,-128.388 265.721,-134.938"/>
</g>
<!-- Node25&#45;&gt;Node24 -->
<g id="edge4" class="edge"><title>Node25&#45;&gt;Node24</title>
<path fill="none" stroke="midnightblue" d="M229.833,-113C238.959,-113 248.639,-113 258.06,-113"/>
<polygon fill="midnightblue" stroke="midnightblue" points="258.143,-116.5 268.143,-113 258.143,-109.5 258.143,-116.5"/>
</g>
<!-- Node26&#45;&gt;Node24 -->
<g id="edge6" class="edge"><title>Node26&#45;&gt;Node24</title>
<path fill="none" stroke="midnightblue" d="M224.065,-79.1014C236.792,-83.8985 251.022,-89.2622 264.341,-94.2823"/>
<polygon fill="midnightblue" stroke="midnightblue" points="263.252,-97.6121 273.843,-97.8641 265.721,-91.0619 263.252,-97.6121"/>
</g>
</g>
</svg>
