<?xml version="1.0" encoding="UTF-8" standalone="no"?>
<!DOCTYPE svg PUBLIC "-//W3C//DTD SVG 1.1//EN"
 "http://www.w3.org/Graphics/SVG/1.1/DTD/svg11.dtd">
<!-- Generated by graphviz version 2.30.1 (20170916.1124)
 -->
<!-- Title: mom_diag_mediator::log_available_diag Pages: 1 -->
<!--zoomable 528 -->
<svg id="main" version="1.1" xmlns="http://www.w3.org/2000/svg" xmlns:xlink="http://www.w3.org/1999/xlink" xml:space="preserve" onload="init(evt)">
<style type="text/css"><![CDATA[
.edge:hover path { stroke: red; }
.edge:hover polygon { stroke: red; fill: red; }
]]></style>
<script type="text/javascript"><![CDATA[
var edges = document.getElementsByTagName('g');
if (edges && edges.length) {
  for (var i=0;i<edges.length;i++) {
    if (edges[i].id.substr(0,4)=='edge') {
      edges[i].setAttribute('class','edge');
    }
  }
}
]]></script>
        <defs>
                <circle id="rim" cx="0" cy="0" r="7"/>
                <circle id="rim2" cx="0" cy="0" r="3.5"/>
                <g id="zoomPlus">
                        <use xlink:href="#rim" fill="#404040">
                                <set attributeName="fill" to="#808080" begin="zoomplus.mouseover" end="zoomplus.mouseout"/>
                        </use>
                        <path d="M-4,0h8M0,-4v8" fill="none" stroke="white" stroke-width="1.5" pointer-events="none"/>
                </g>
                <g id="zoomMin">
                        <use xlink:href="#rim" fill="#404040">
                                <set attributeName="fill" to="#808080" begin="zoomminus.mouseover" end="zoomminus.mouseout"/>
                        </use>
                        <path d="M-4,0h8" fill="none" stroke="white" stroke-width="1.5" pointer-events="none"/>
                </g>
                <g id="dirArrow">
                        <path fill="none" stroke="white" stroke-width="1.5" d="M0,-3.0v7 M-2.5,-0.5L0,-3.0L2.5,-0.5"/>
                </g>
               <g id="resetDef">
                       <use xlink:href="#rim2" fill="#404040">
                               <set attributeName="fill" to="#808080" begin="reset.mouseover" end="reset.mouseout"/>
                       </use>
               </g>
        </defs>

<script type="text/javascript">
var viewWidth = 808;
var viewHeight = 528;
var sectionId = 'dynsection-21';
</script>
<script xlink:href="svgpan.js"/>
<svg id="graph" class="graph">
<g id="viewport">
<title>mom_diag_mediator::log_available_diag</title>
<polygon fill="white" stroke="white" points="-4,5 -4,-523.957 805,-523.957 805,5 -4,5"/>
<!-- Node247 -->
<g id="node1" class="node"><title>Node247</title>
<g id="a_node1"><a xlink:title="Log a diagnostic to the available diagnostics file.">
<polygon fill="#bfbfbf" stroke="black" points="704.5,-98.9568 704.5,-128.957 799.5,-128.957 799.5,-98.9568 704.5,-98.9568"/>
<text text-anchor="start" x="712.5" y="-116.957" font-family="Helvetica,sans-Serif" font-size="10.00">mom_diag_mediator::</text>
<text text-anchor="middle" x="752" y="-105.957" font-family="Helvetica,sans-Serif" font-size="10.00">log_available_diag</text>
</a>
</g>
</g>
<!-- Node248 -->
<g id="node2" class="node"><title>Node248</title>
<g id="a_node2"><a xlink:href="namespacemom__diag__mediator.html#ae50b35cba800ac5fd8975929fd2b9f4a" target="_top" xlink:title="Returns True if either the native of CMOr version of the diagnostic were registered....">
<polygon fill="white" stroke="black" points="572.5,-189.457 572.5,-230.457 667.5,-230.457 667.5,-189.457 572.5,-189.457"/>
<text text-anchor="start" x="580.5" y="-218.457" font-family="Helvetica,sans-Serif" font-size="10.00">mom_diag_mediator::</text>
<text text-anchor="start" x="580.5" y="-207.457" font-family="Helvetica,sans-Serif" font-size="10.00">register_diag_field</text>
<text text-anchor="middle" x="620" y="-196.457" font-family="Helvetica,sans-Serif" font-size="10.00">_expand_cmor</text>
</a>
</g>
</g>
<!-- Node247&#45;&gt;Node248 -->
<g id="edge1" class="edge"><title>Node247&#45;&gt;Node248</title>
<path fill="none" stroke="midnightblue" d="M722.149,-135.262C700.267,-151.421 670.371,-173.498 648.761,-189.456"/>
<polygon fill="midnightblue" stroke="midnightblue" points="724.436,-137.924 730.401,-129.168 720.278,-132.293 724.436,-137.924"/>
</g>
<!-- Node269 -->
<g id="node23" class="node"><title>Node269</title>
<g id="a_node23"><a xlink:href="namespacemom__diag__mediator.html#afb4254e1cfbbcfc43028f14915173f80" target="_top" xlink:title=" ">
<polygon fill="white" stroke="black" points="572.5,-49.9568 572.5,-79.9568 667.5,-79.9568 667.5,-49.9568 572.5,-49.9568"/>
<text text-anchor="start" x="580.5" y="-67.9568" font-family="Helvetica,sans-Serif" font-size="10.00">mom_diag_mediator::</text>
<text text-anchor="middle" x="620" y="-56.9568" font-family="Helvetica,sans-Serif" font-size="10.00">register_scalar_field</text>
</a>
</g>
</g>
<!-- Node247&#45;&gt;Node269 -->
<g id="edge22" class="edge"><title>Node247&#45;&gt;Node269</title>
<path fill="none" stroke="midnightblue" d="M701.437,-95.2753C688.122,-90.2567 673.891,-84.8925 661.157,-80.0928"/>
<polygon fill="midnightblue" stroke="midnightblue" points="700.343,-98.6034 710.935,-98.8554 702.812,-92.0532 700.343,-98.6034"/>
</g>
<!-- Node270 -->
<g id="node24" class="node"><title>Node270</title>
<g id="a_node24"><a xlink:href="namespacemom__diag__mediator.html#abe591ed2565e9f026c5be055bc2fc0b7" target="_top" xlink:title="Registers a static diagnostic, returning an integer handle.">
<polygon fill="white" stroke="black" points="572.5,-98.9568 572.5,-128.957 667.5,-128.957 667.5,-98.9568 572.5,-98.9568"/>
<text text-anchor="start" x="580.5" y="-116.957" font-family="Helvetica,sans-Serif" font-size="10.00">mom_diag_mediator::</text>
<text text-anchor="middle" x="620" y="-105.957" font-family="Helvetica,sans-Serif" font-size="10.00">register_static_field</text>
</a>
</g>
</g>
<!-- Node247&#45;&gt;Node270 -->
<g id="edge23" class="edge"><title>Node247&#45;&gt;Node270</title>
<path fill="none" stroke="midnightblue" d="M694.178,-113.957C685.327,-113.957 676.27,-113.957 667.678,-113.957"/>
<polygon fill="midnightblue" stroke="midnightblue" points="694.434,-117.457 704.434,-113.957 694.434,-110.457 694.434,-117.457"/>
</g>
<!-- Node249 -->
<g id="node3" class="node"><title>Node249</title>
<g id="a_node3"><a xlink:href="namespacemom__diag__mediator.html#aa791f75f899ae9b7cd4756165a9c2a1b" target="_top" xlink:title="Returns the &quot;diag_mediator&quot; handle for a group (native, CMOR, z&#45;coord, ...) of diagnostics derived fr...">
<polygon fill="white" stroke="black" points="418.5,-214.957 418.5,-244.957 513.5,-244.957 513.5,-214.957 418.5,-214.957"/>
<text text-anchor="start" x="426.5" y="-232.957" font-family="Helvetica,sans-Serif" font-size="10.00">mom_diag_mediator::</text>
<text text-anchor="middle" x="466" y="-221.957" font-family="Helvetica,sans-Serif" font-size="10.00">register_diag_field</text>
</a>
</g>
</g>
<!-- Node248&#45;&gt;Node249 -->
<g id="edge2" class="edge"><title>Node248&#45;&gt;Node249</title>
<path fill="none" stroke="midnightblue" d="M561.906,-217.469C546.002,-219.562 528.919,-221.81 513.691,-223.813"/>
<polygon fill="midnightblue" stroke="midnightblue" points="562.697,-220.895 572.155,-216.121 561.784,-213.955 562.697,-220.895"/>
</g>
<!-- Node250 -->
<g id="node4" class="node"><title>Node250</title>
<g id="a_node4"><a xlink:href="namespacemom__ale.html#a994efb3c62fc5f63da2617f29cbd6be1" target="_top" xlink:title="Initialize diagnostics for the ALE module.">
<polygon fill="white" stroke="black" points="246,-376.957 246,-406.957 342,-406.957 342,-376.957 246,-376.957"/>
<text text-anchor="start" x="254" y="-394.957" font-family="Helvetica,sans-Serif" font-size="10.00">mom_ale::ale_register</text>
<text text-anchor="middle" x="294" y="-383.957" font-family="Helvetica,sans-Serif" font-size="10.00">_diags</text>
</a>
</g>
</g>
<!-- Node249&#45;&gt;Node250 -->
<g id="edge3" class="edge"><title>Node249&#45;&gt;Node250</title>
<path fill="none" stroke="midnightblue" d="M451.942,-254.375C434.623,-284.651 401.364,-336.03 360,-366.957 354.577,-371.011 348.417,-374.488 342.101,-377.446"/>
<polygon fill="midnightblue" stroke="midnightblue" points="455.169,-255.776 456.996,-245.339 449.06,-252.359 455.169,-255.776"/>
</g>
<!-- Node251 -->
<g id="node5" class="node"><title>Node251</title>
<g id="a_node5"><a xlink:href="namespacemom__coriolisadv.html#ad3ce07f23ce7b484a5a9e0c0abe8b1cd" target="_top" xlink:title="Initializes the control structure for coriolisadv_cs.">
<polygon fill="white" stroke="black" points="228.5,-338.457 228.5,-357.457 359.5,-357.457 359.5,-338.457 228.5,-338.457"/>
<text text-anchor="middle" x="294" y="-345.457" font-family="Helvetica,sans-Serif" font-size="10.00">mom_coriolisadv::coriolisadv_init</text>
</a>
</g>
</g>
<!-- Node249&#45;&gt;Node251 -->
<g id="edge4" class="edge"><title>Node249&#45;&gt;Node251</title>
<path fill="none" stroke="midnightblue" d="M446.133,-252.773C426.679,-274.926 394.404,-308.042 360,-327.957 352.643,-332.215 344.282,-335.661 336.065,-338.413"/>
<polygon fill="midnightblue" stroke="midnightblue" points="448.824,-255.013 452.701,-245.153 443.521,-250.443 448.824,-255.013"/>
</g>
<!-- Node256 -->
<g id="node10" class="node"><title>Node256</title>
<g id="a_node10"><a xlink:href="namespacemom__diag__mediator.html#a21267e25d12fa3e5d2540d2a299d2d2c" target="_top" xlink:title="Registers a diagnostic using the information encapsulated in the vardesc type argument and returns an...">
<polygon fill="white" stroke="black" points="246.5,-288.957 246.5,-318.957 341.5,-318.957 341.5,-288.957 246.5,-288.957"/>
<text text-anchor="start" x="254.5" y="-306.957" font-family="Helvetica,sans-Serif" font-size="10.00">mom_diag_mediator::</text>
<text text-anchor="middle" x="294" y="-295.957" font-family="Helvetica,sans-Serif" font-size="10.00">ocean_register_diag</text>
</a>
</g>
</g>
<!-- Node249&#45;&gt;Node256 -->
<g id="edge9" class="edge"><title>Node249&#45;&gt;Node256</title>
<path fill="none" stroke="midnightblue" d="M424.845,-249.494C405.404,-258.748 381.638,-269.76 360,-278.957 352.1,-282.315 343.582,-285.733 335.397,-288.92"/>
<polygon fill="midnightblue" stroke="midnightblue" points="426.502,-252.581 434.013,-245.109 423.481,-246.267 426.502,-252.581"/>
</g>
<!-- Node258 -->
<g id="node12" class="node"><title>Node258</title>
<g id="a_node12"><a xlink:href="namespacemom__diapyc__energy__req.html#aa0ce122f4dc6d9a6ec9e17996484bb76" target="_top" xlink:title=" ">
<polygon fill="white" stroke="black" points="240.5,-239.957 240.5,-269.957 347.5,-269.957 347.5,-239.957 240.5,-239.957"/>
<text text-anchor="start" x="248.5" y="-257.957" font-family="Helvetica,sans-Serif" font-size="10.00">mom_diapyc_energy_req</text>
<text text-anchor="middle" x="294" y="-246.957" font-family="Helvetica,sans-Serif" font-size="10.00">::diapyc_energy_req_init</text>
</a>
</g>
</g>
<!-- Node249&#45;&gt;Node258 -->
<g id="edge11" class="edge"><title>Node249&#45;&gt;Node258</title>
<path fill="none" stroke="midnightblue" d="M408.127,-238.32C388.626,-241.188 366.899,-244.383 347.739,-247.201"/>
<polygon fill="midnightblue" stroke="midnightblue" points="408.712,-241.772 418.097,-236.854 407.694,-234.847 408.712,-241.772"/>
</g>
<!-- Node259 -->
<g id="node13" class="node"><title>Node259</title>
<g id="a_node13"><a xlink:href="namespacemom__diffconvection.html#ac36d9d7fd69e4422e7de01242094ff34" target="_top" xlink:title=" ">
<polygon fill="white" stroke="black" points="250.5,-190.957 250.5,-220.957 337.5,-220.957 337.5,-190.957 250.5,-190.957"/>
<text text-anchor="start" x="258.5" y="-208.957" font-family="Helvetica,sans-Serif" font-size="10.00">mom_diffconvection</text>
<text text-anchor="middle" x="294" y="-197.957" font-family="Helvetica,sans-Serif" font-size="10.00">::diffconvection_init</text>
</a>
</g>
</g>
<!-- Node249&#45;&gt;Node259 -->
<g id="edge12" class="edge"><title>Node249&#45;&gt;Node259</title>
<path fill="none" stroke="midnightblue" d="M408.113,-221.926C385.108,-218.678 359.007,-214.993 337.679,-211.982"/>
<polygon fill="midnightblue" stroke="midnightblue" points="407.706,-225.403 418.097,-223.335 408.684,-218.472 407.706,-225.403"/>
</g>
<!-- Node260 -->
<g id="node14" class="node"><title>Node260</title>
<g id="a_node14"><a xlink:href="namespacemom__int__tide__input.html#a29a707637da633ccee155b53557b5f17" target="_top" xlink:title=" ">
<polygon fill="white" stroke="black" points="251,-141.957 251,-171.957 337,-171.957 337,-141.957 251,-141.957"/>
<text text-anchor="start" x="259" y="-159.957" font-family="Helvetica,sans-Serif" font-size="10.00">mom_int_tide_input</text>
<text text-anchor="middle" x="294" y="-148.957" font-family="Helvetica,sans-Serif" font-size="10.00">::int_tide_input_init</text>
</a>
</g>
</g>
<!-- Node249&#45;&gt;Node260 -->
<g id="edge13" class="edge"><title>Node249&#45;&gt;Node260</title>
<path fill="none" stroke="midnightblue" d="M424.377,-210.68C405.008,-201.671 381.436,-190.969 360,-181.957 352.087,-178.63 343.563,-175.225 335.376,-172.042"/>
<polygon fill="midnightblue" stroke="midnightblue" points="422.979,-213.89 433.52,-214.952 425.942,-207.548 422.979,-213.89"/>
</g>
<!-- Node261 -->
<g id="node15" class="node"><title>Node261</title>
<g id="a_node15"><a xlink:href="namespacemom__kpp.html#a9c834424b6e067e280928db3700ec77e" target="_top" xlink:title="Initialize the CVmix KPP module and set up diagnostics Returns True if KPP is to be used,...">
<polygon fill="white" stroke="black" points="252.5,-103.457 252.5,-122.457 335.5,-122.457 335.5,-103.457 252.5,-103.457"/>
<text text-anchor="middle" x="294" y="-110.457" font-family="Helvetica,sans-Serif" font-size="10.00">mom_kpp::kpp_init</text>
</a>
</g>
</g>
<!-- Node249&#45;&gt;Node261 -->
<g id="edge14" class="edge"><title>Node249&#45;&gt;Node261</title>
<path fill="none" stroke="midnightblue" d="M446.193,-207.037C426.784,-184.804 394.544,-151.628 360,-131.957 352.542,-127.71 344.052,-124.34 335.725,-121.692"/>
<polygon fill="midnightblue" stroke="midnightblue" points="443.581,-209.367 452.744,-214.687 448.898,-204.815 443.581,-209.367"/>
</g>
<!-- Node262 -->
<g id="node16" class="node"><title>Node262</title>
<g id="a_node16"><a xlink:href="namespacemom__opacity.html#ab8dbcd70b93f5bd77b2a525cd73f0eb9" target="_top" xlink:title=" ">
<polygon fill="white" stroke="black" points="240.5,-65.4568 240.5,-84.4568 347.5,-84.4568 347.5,-65.4568 240.5,-65.4568"/>
<text text-anchor="middle" x="294" y="-72.4568" font-family="Helvetica,sans-Serif" font-size="10.00">mom_opacity::opacity_init</text>
</a>
</g>
</g>
<!-- Node249&#45;&gt;Node262 -->
<g id="edge15" class="edge"><title>Node249&#45;&gt;Node262</title>
<path fill="none" stroke="midnightblue" d="M452.56,-205.645C435.686,-175.078 402.686,-123.088 360,-93.9568 354.368,-90.113 347.951,-87.0356 341.394,-84.5746"/>
<polygon fill="midnightblue" stroke="midnightblue" points="449.644,-207.612 457.464,-214.76 455.808,-204.295 449.644,-207.612"/>
</g>
<!-- Node264 -->
<g id="node18" class="node"><title>Node264</title>
<g id="a_node18"><a xlink:href="namespacemom__set__diffusivity.html#ac0a2a098bc7dc3b087a4bae87511b7ca" target="_top" xlink:title=" ">
<polygon fill="white" stroke="black" points="251,-15.9568 251,-45.9568 337,-45.9568 337,-15.9568 251,-15.9568"/>
<text text-anchor="start" x="259" y="-33.9568" font-family="Helvetica,sans-Serif" font-size="10.00">mom_set_diffusivity</text>
<text text-anchor="middle" x="294" y="-22.9568" font-family="Helvetica,sans-Serif" font-size="10.00">::set_diffusivity_init</text>
</a>
</g>
</g>
<!-- Node249&#45;&gt;Node264 -->
<g id="edge17" class="edge"><title>Node249&#45;&gt;Node264</title>
<path fill="none" stroke="midnightblue" d="M456.174,-205.303C441.65,-168.023 409.313,-97.2827 360,-55.9568 353.328,-50.3654 345.267,-45.9416 337.127,-42.4709"/>
<polygon fill="midnightblue" stroke="midnightblue" points="452.985,-206.764 459.797,-214.878 459.532,-204.287 452.985,-206.764"/>
</g>
<!-- Node265 -->
<g id="node19" class="node"><title>Node265</title>
<g id="a_node19"><a xlink:href="namespacemom__neutral__diffusion.html#a87cf821c52ac1111493d4168f0a91d17" target="_top" xlink:title="Diagnostic handles for neutral diffusion tendencies.">
<polygon fill="white" stroke="black" points="237.5,-487.957 237.5,-517.957 350.5,-517.957 350.5,-487.957 237.5,-487.957"/>
<text text-anchor="start" x="245.5" y="-505.957" font-family="Helvetica,sans-Serif" font-size="10.00">mom_neutral_diffusion</text>
<text text-anchor="middle" x="294" y="-494.957" font-family="Helvetica,sans-Serif" font-size="10.00">::neutral_diffusion_diag_init</text>
</a>
</g>
</g>
<!-- Node249&#45;&gt;Node265 -->
<g id="edge18" class="edge"><title>Node249&#45;&gt;Node265</title>
<path fill="none" stroke="midnightblue" d="M459.256,-255.004C447.567,-301.272 417.152,-401.22 360,-464.957 351.622,-474.3 340.387,-481.979 329.616,-487.929"/>
<polygon fill="midnightblue" stroke="midnightblue" points="462.675,-255.757 461.651,-245.212 455.876,-254.094 462.675,-255.757"/>
</g>
<!-- Node268 -->
<g id="node22" class="node"><title>Node268</title>
<g id="a_node22"><a xlink:href="namespacemom__tracer__hor__diff.html#a2fc116afe7913994a8bfc9570efb4b9f" target="_top" xlink:title="Initialize lateral tracer diffusion module.">
<polygon fill="white" stroke="black" points="248,-425.957 248,-455.957 340,-455.957 340,-425.957 248,-425.957"/>
<text text-anchor="start" x="256" y="-443.957" font-family="Helvetica,sans-Serif" font-size="10.00">mom_tracer_hor_diff</text>
<text text-anchor="middle" x="294" y="-432.957" font-family="Helvetica,sans-Serif" font-size="10.00">::tracer_hor_diff_init</text>
</a>
</g>
</g>
<!-- Node249&#45;&gt;Node268 -->
<g id="edge21" class="edge"><title>Node249&#45;&gt;Node268</title>
<path fill="none" stroke="midnightblue" d="M457.228,-254.618C443.631,-293.984 411.926,-371.142 360,-415.957 354.234,-420.934 347.369,-424.975 340.295,-428.24"/>
<polygon fill="midnightblue" stroke="midnightblue" points="460.586,-255.613 460.441,-245.02 453.948,-253.391 460.586,-255.613"/>
</g>
<!-- Node252 -->
<g id="node6" class="node"><title>Node252</title>
<g id="a_node6"><a xlink:href="namespacemom__dynamics__legacy__split.html#aef55fe2e12672940edbd2dc5d7e72fd7" target="_top" xlink:title=" ">
<polygon fill="white" stroke="black" points="92.5,-380.457 92.5,-421.457 191.5,-421.457 191.5,-380.457 92.5,-380.457"/>
<text text-anchor="start" x="100.5" y="-409.457" font-family="Helvetica,sans-Serif" font-size="10.00">mom_dynamics_legacy</text>
<text text-anchor="start" x="100.5" y="-398.457" font-family="Helvetica,sans-Serif" font-size="10.00">_split::initialize_dyn</text>
<text text-anchor="middle" x="142" y="-387.457" font-family="Helvetica,sans-Serif" font-size="10.00">_legacy_split</text>
</a>
</g>
</g>
<!-- Node251&#45;&gt;Node252 -->
<g id="edge5" class="edge"><title>Node251&#45;&gt;Node252</title>
<path fill="none" stroke="midnightblue" d="M250.675,-360.498C243.094,-362.881 235.289,-365.424 228,-367.957 216.187,-372.061 203.57,-376.775 191.771,-381.331"/>
<polygon fill="midnightblue" stroke="midnightblue" points="251.932,-363.772 260.45,-357.471 249.862,-357.085 251.932,-363.772"/>
</g>
<!-- Node253 -->
<g id="node7" class="node"><title>Node253</title>
<g id="a_node7"><a xlink:href="namespacemom__dynamics__split__rk2.html#a3bae09afc9136333ab281704dc9d9415" target="_top" xlink:title="This subroutine initializes all of the variables that are used by this dynamic core,...">
<polygon fill="white" stroke="black" points="97,-320.457 97,-361.457 187,-361.457 187,-320.457 97,-320.457"/>
<text text-anchor="start" x="105" y="-349.457" font-family="Helvetica,sans-Serif" font-size="10.00">mom_dynamics_split</text>
<text text-anchor="start" x="105" y="-338.457" font-family="Helvetica,sans-Serif" font-size="10.00">_rk2::initialize_dyn</text>
<text text-anchor="middle" x="142" y="-327.457" font-family="Helvetica,sans-Serif" font-size="10.00">_split_rk2</text>
</a>
</g>
</g>
<!-- Node251&#45;&gt;Node253 -->
<g id="edge6" class="edge"><title>Node251&#45;&gt;Node253</title>
<path fill="none" stroke="midnightblue" d="M218.016,-344.458C207.491,-343.966 196.965,-343.475 187.268,-343.023"/>
<polygon fill="midnightblue" stroke="midnightblue" points="217.928,-347.957 228.08,-344.927 218.254,-340.965 217.928,-347.957"/>
</g>
<!-- Node254 -->
<g id="node8" class="node"><title>Node254</title>
<g id="a_node8"><a xlink:href="namespacemom__dynamics__unsplit.html#ac557a7a55605cba7a17074f6375107f6" target="_top" xlink:title=" ">
<polygon fill="white" stroke="black" points="92.5,-270.957 92.5,-300.957 191.5,-300.957 191.5,-270.957 92.5,-270.957"/>
<text text-anchor="start" x="100.5" y="-288.957" font-family="Helvetica,sans-Serif" font-size="10.00">mom_dynamics_unsplit</text>
<text text-anchor="middle" x="142" y="-277.957" font-family="Helvetica,sans-Serif" font-size="10.00">::initialize_dyn_unsplit</text>
</a>
</g>
</g>
<!-- Node251&#45;&gt;Node254 -->
<g id="edge7" class="edge"><title>Node251&#45;&gt;Node254</title>
<path fill="none" stroke="midnightblue" d="M248.308,-335.244C241.443,-332.993 234.486,-330.538 228,-327.957 222.38,-325.72 195.187,-312.204 173.05,-301.099"/>
<polygon fill="midnightblue" stroke="midnightblue" points="247.644,-338.705 258.234,-338.385 249.756,-332.031 247.644,-338.705"/>
</g>
<!-- Node255 -->
<g id="node9" class="node"><title>Node255</title>
<g id="a_node9"><a xlink:href="namespacemom__dynamics__unsplit__rk2.html#a7be251effa3bf4a236ea3feda6fc6d91" target="_top" xlink:title=" ">
<polygon fill="white" stroke="black" points="92.5,-440.457 92.5,-481.457 191.5,-481.457 191.5,-440.457 92.5,-440.457"/>
<text text-anchor="start" x="100.5" y="-469.457" font-family="Helvetica,sans-Serif" font-size="10.00">mom_dynamics_unsplit</text>
<text text-anchor="start" x="100.5" y="-458.457" font-family="Helvetica,sans-Serif" font-size="10.00">_rk2::initialize_dyn</text>
<text text-anchor="middle" x="142" y="-447.457" font-family="Helvetica,sans-Serif" font-size="10.00">_unsplit_rk2</text>
</a>
</g>
</g>
<!-- Node251&#45;&gt;Node255 -->
<g id="edge8" class="edge"><title>Node251&#45;&gt;Node255</title>
<path fill="none" stroke="midnightblue" d="M237.359,-361.787C234.045,-363.598 230.889,-365.644 228,-367.957 202.824,-388.111 214.456,-407.811 192,-430.957 188.805,-434.25 185.176,-437.328 181.372,-440.163"/>
<polygon fill="midnightblue" stroke="midnightblue" points="238.866,-364.947 246.427,-357.525 235.888,-358.612 238.866,-364.947"/>
</g>
<!-- Node257 -->
<g id="node11" class="node"><title>Node257</title>
<g id="a_node11"><a xlink:href="namespacemom__diag__to__z.html#a90526b2f59f94c6af2f525a221029772" target="_top" xlink:title=" ">
<polygon fill="white" stroke="black" points="92,-221.957 92,-251.957 192,-251.957 192,-221.957 92,-221.957"/>
<text text-anchor="start" x="100" y="-239.957" font-family="Helvetica,sans-Serif" font-size="10.00">mom_diag_to_z::ocean</text>
<text text-anchor="middle" x="142" y="-228.957" font-family="Helvetica,sans-Serif" font-size="10.00">_register_diag_with_z</text>
</a>
</g>
</g>
<!-- Node256&#45;&gt;Node257 -->
<g id="edge10" class="edge"><title>Node256&#45;&gt;Node257</title>
<path fill="none" stroke="midnightblue" d="M242.655,-285.121C237.678,-283.101 232.724,-281.027 228,-278.957 217.447,-274.332 193.015,-262.204 173.041,-252.163"/>
<polygon fill="midnightblue" stroke="midnightblue" points="241.613,-288.474 252.198,-288.922 244.203,-281.97 241.613,-288.474"/>
</g>
<!-- Node263 -->
<g id="node17" class="node"><title>Node263</title>
<g id="a_node17"><a xlink:href="namespacemom__diabatic__driver.html#afa0b30bd6f0e080bcacbd6dcb15ff990" target="_top" xlink:title="This routine initializes the diabatic driver module.">
<polygon fill="white" stroke="black" points="96.5,-15.9568 96.5,-45.9568 187.5,-45.9568 187.5,-15.9568 96.5,-15.9568"/>
<text text-anchor="start" x="104.5" y="-33.9568" font-family="Helvetica,sans-Serif" font-size="10.00">mom_diabatic_driver</text>
<text text-anchor="middle" x="142" y="-22.9568" font-family="Helvetica,sans-Serif" font-size="10.00">::diabatic_driver_init</text>
</a>
</g>
</g>
<!-- Node262&#45;&gt;Node263 -->
<g id="edge16" class="edge"><title>Node262&#45;&gt;Node263</title>
<path fill="none" stroke="midnightblue" d="M250.833,-62.5878C231.15,-56.8143 207.709,-49.9382 187.718,-44.074"/>
<polygon fill="midnightblue" stroke="midnightblue" points="249.871,-65.9532 260.452,-65.4095 251.842,-59.2362 249.871,-65.9532"/>
</g>
<!-- Node266 -->
<g id="node20" class="node"><title>Node266</title>
<g id="a_node20"><a xlink:href="namespacemom.html#a0be2869fef30e1e0604facfe1b41555d" target="_top" xlink:title="This subroutine initializes MOM.">
<polygon fill="white" stroke="black" points="97.5,-500.457 97.5,-519.457 186.5,-519.457 186.5,-500.457 97.5,-500.457"/>
<text text-anchor="middle" x="142" y="-507.457" font-family="Helvetica,sans-Serif" font-size="10.00">mom::initialize_mom</text>
</a>
</g>
</g>
<!-- Node265&#45;&gt;Node266 -->
<g id="edge19" class="edge"><title>Node265&#45;&gt;Node266</title>
<path fill="none" stroke="midnightblue" d="M226.857,-506.044C213.263,-506.678 199.275,-507.331 186.714,-507.917"/>
<polygon fill="midnightblue" stroke="midnightblue" points="227.32,-509.526 237.146,-505.563 226.993,-502.533 227.32,-509.526"/>
</g>
<!-- Node267 -->
<g id="node21" class="node"><title>Node267</title>
<g id="a_node21"><a xlink:href="MOM__driver_8F90.html#a08fffeb2d8e8acbf9ed4609be6d258c6" target="_top" xlink:title=" ">
<polygon fill="white" stroke="black" points="0,-500.457 0,-519.457 56,-519.457 56,-500.457 0,-500.457"/>
<text text-anchor="middle" x="28" y="-507.457" font-family="Helvetica,sans-Serif" font-size="10.00">mom_main</text>
</a>
</g>
</g>
<!-- Node266&#45;&gt;Node267 -->
<g id="edge20" class="edge"><title>Node266&#45;&gt;Node267</title>
<path fill="none" stroke="midnightblue" d="M87.1555,-509.957C76.4062,-509.957 65.5509,-509.957 56.1768,-509.957"/>
<polygon fill="midnightblue" stroke="midnightblue" points="87.3772,-513.457 97.3772,-509.957 87.3771,-506.457 87.3772,-513.457"/>
</g>
<!-- Node271 -->
<g id="node25" class="node"><title>Node271</title>
<g id="a_node25"><a xlink:href="namespacemom__geothermal.html#a0abbb7953860e3357bbd3d35f46fd851" target="_top" xlink:title=" ">
<polygon fill="white" stroke="black" points="396.5,-22.4568 396.5,-41.4568 535.5,-41.4568 535.5,-22.4568 396.5,-22.4568"/>
<text text-anchor="middle" x="466" y="-29.4568" font-family="Helvetica,sans-Serif" font-size="10.00">mom_geothermal::geothermal_init</text>
</a>
</g>
</g>
<!-- Node270&#45;&gt;Node271 -->
<g id="edge24" class="edge"><title>Node270&#45;&gt;Node271</title>
<path fill="none" stroke="midnightblue" d="M581.569,-94.0837C578.331,-92.3532 575.106,-90.6261 572,-88.9568 541.122,-72.3638 505.253,-52.8378 484.439,-41.4826"/>
<polygon fill="midnightblue" stroke="midnightblue" points="580.175,-97.307 590.646,-98.9248 583.47,-91.1306 580.175,-97.307"/>
</g>
<!-- Node271&#45;&gt;Node263 -->
<g id="edge25" class="edge"><title>Node271&#45;&gt;Node263</title>
<path fill="none" stroke="midnightblue" d="M424.872,-19.5918C405.48,-14.244 381.748,-8.60939 360,-5.95683 301.765,1.14597 286.068,2.40543 228,-5.95683 213.841,-7.99588 198.751,-11.8528 185.276,-15.9376"/>
<polygon fill="midnightblue" stroke="midnightblue" points="424.008,-22.9847 434.583,-22.3449 425.917,-16.2501 424.008,-22.9847"/>
</g>
</g>
</svg>
        <g id="navigator" transform="translate(0 0)" fill="#404254">
                <rect fill="#f2f5e9" fill-opacity="0.5" stroke="#606060" stroke-width=".5" x="0" y="0" width="60" height="60"/>
                <use id="zoomplus" xlink:href="#zoomPlus" x="17" y="9" onmousedown="handleZoom(evt,'in')"/>
                <use id="zoomminus" xlink:href="#zoomMin" x="42" y="9" onmousedown="handleZoom(evt,'out')"/>
                <use id="reset" xlink:href="#resetDef" x="30" y="36" onmousedown="handleReset()"/>
                <g id="arrowUp" xlink:href="#dirArrow" transform="translate(30 24)" onmousedown="handlePan(0,-1)">
                  <use xlink:href="#rim" fill="#404040">
                        <set attributeName="fill" to="#808080" begin="arrowUp.mouseover" end="arrowUp.mouseout"/>
                  </use>
                  <path fill="none" stroke="white" stroke-width="1.5" d="M0,-3.0v7 M-2.5,-0.5L0,-3.0L2.5,-0.5"/>
                </g>
                <g id="arrowRight" xlink:href="#dirArrow" transform="rotate(90) translate(36 -43)" onmousedown="handlePan(1,0)">
                  <use xlink:href="#rim" fill="#404040">
                        <set attributeName="fill" to="#808080" begin="arrowRight.mouseover" end="arrowRight.mouseout"/>
                  </use>
                  <path fill="none" stroke="white" stroke-width="1.5" d="M0,-3.0v7 M-2.5,-0.5L0,-3.0L2.5,-0.5"/>
                </g>
                <g id="arrowDown" xlink:href="#dirArrow" transform="rotate(180) translate(-30 -48)" onmousedown="handlePan(0,1)">
                  <use xlink:href="#rim" fill="#404040">
                        <set attributeName="fill" to="#808080" begin="arrowDown.mouseover" end="arrowDown.mouseout"/>
                  </use>
                  <path fill="none" stroke="white" stroke-width="1.5" d="M0,-3.0v7 M-2.5,-0.5L0,-3.0L2.5,-0.5"/>
                </g>
                <g id="arrowLeft" xlink:href="#dirArrow" transform="rotate(270) translate(-36 17)" onmousedown="handlePan(-1,0)">
                  <use xlink:href="#rim" fill="#404040">
                        <set attributeName="fill" to="#808080" begin="arrowLeft.mouseover" end="arrowLeft.mouseout"/>
                  </use>
                  <path fill="none" stroke="white" stroke-width="1.5" d="M0,-3.0v7 M-2.5,-0.5L0,-3.0L2.5,-0.5"/>
                </g>
        </g>
        <svg viewBox="0 0 15 15" width="100%" height="30px" preserveAspectRatio="xMaxYMin meet">
         <g id="arrow_out" transform="scale(0.3 0.3)">
          <a xlink:href="namespacemom__diag__mediator_a65fe8d329cf5dbfd08c98874a7a64407_icgraph_org.svg" target="_base">
           <rect id="button" ry="5" rx="5" y="6" x="6" height="38" width="38"
                fill="#f2f5e9" fill-opacity="0.5" stroke="#606060" stroke-width="1.0"/>
           <path id="arrow"
             d="M 11.500037,31.436501 C 11.940474,20.09759 22.043105,11.32322 32.158766,21.979434 L 37.068811,17.246167 C 37.068811,17.246167 37.088388,32 37.088388,32 L 22.160133,31.978069 C 22.160133,31.978069 26.997745,27.140456 26.997745,27.140456 C 18.528582,18.264221 13.291696,25.230495 11.500037,31.436501 z"
             style="fill:#404040;"/>
          </a>
         </g>
        </svg>
</svg>
