<?xml version="1.0" encoding="UTF-8" standalone="no"?>
<!DOCTYPE svg PUBLIC "-//W3C//DTD SVG 1.1//EN"
 "http://www.w3.org/Graphics/SVG/1.1/DTD/svg11.dtd">
<!-- Generated by graphviz version 2.30.1 (20170916.1124)
 -->
<!-- Title: mom_tracer_diabatic::applytracerboundaryfluxesinout Pages: 1 -->
<!--zoomable 515 -->
<svg id="main" version="1.1" xmlns="http://www.w3.org/2000/svg" xmlns:xlink="http://www.w3.org/1999/xlink" xml:space="preserve" onload="init(evt)">
<style type="text/css"><![CDATA[
.edge:hover path { stroke: red; }
.edge:hover polygon { stroke: red; fill: red; }
]]></style>
<script type="text/javascript"><![CDATA[
var edges = document.getElementsByTagName('g');
if (edges && edges.length) {
  for (var i=0;i<edges.length;i++) {
    if (edges[i].id.substr(0,4)=='edge') {
      edges[i].setAttribute('class','edge');
    }
  }
}
]]></script>
        <defs>
                <circle id="rim" cx="0" cy="0" r="7"/>
                <circle id="rim2" cx="0" cy="0" r="3.5"/>
                <g id="zoomPlus">
                        <use xlink:href="#rim" fill="#404040">
                                <set attributeName="fill" to="#808080" begin="zoomplus.mouseover" end="zoomplus.mouseout"/>
                        </use>
                        <path d="M-4,0h8M0,-4v8" fill="none" stroke="white" stroke-width="1.5" pointer-events="none"/>
                </g>
                <g id="zoomMin">
                        <use xlink:href="#rim" fill="#404040">
                                <set attributeName="fill" to="#808080" begin="zoomminus.mouseover" end="zoomminus.mouseout"/>
                        </use>
                        <path d="M-4,0h8" fill="none" stroke="white" stroke-width="1.5" pointer-events="none"/>
                </g>
                <g id="dirArrow">
                        <path fill="none" stroke="white" stroke-width="1.5" d="M0,-3.0v7 M-2.5,-0.5L0,-3.0L2.5,-0.5"/>
                </g>
               <g id="resetDef">
                       <use xlink:href="#rim2" fill="#404040">
                               <set attributeName="fill" to="#808080" begin="reset.mouseover" end="reset.mouseout"/>
                       </use>
               </g>
        </defs>

<script type="text/javascript">
var viewWidth = 382;
var viewHeight = 515;
var sectionId = 'dynsection-1';
</script>
<script xlink:href="svgpan.js"/>
<svg id="graph" class="graph">
<g id="viewport">
<title>mom_tracer_diabatic::applytracerboundaryfluxesinout</title>
<polygon fill="white" stroke="white" points="-4,5 -4,-511 379,-511 379,5 -4,5"/>
<!-- Node3 -->
<g id="node1" class="node"><title>Node3</title>
<g id="a_node1"><a xlink:title=" ">
<polygon fill="#bfbfbf" stroke="black" points="242,-224 242,-254 374,-254 374,-224 242,-224"/>
<text text-anchor="start" x="250" y="-242" font-family="Helvetica,sans-Serif" font-size="10.00">mom_tracer_diabatic</text>
<text text-anchor="middle" x="308" y="-231" font-family="Helvetica,sans-Serif" font-size="10.00">::applytracerboundaryfluxesinout</text>
</a>
</g>
</g>
<!-- Node4 -->
<g id="node2" class="node"><title>Node4</title>
<g id="a_node2"><a xlink:href="namespaceadvection__test__tracer.html#a02a7937d0c46fd2b70a64161d25ed378" target="_top" xlink:title=" ">
<polygon fill="white" stroke="black" points="100,-465.5 100,-506.5 198,-506.5 198,-465.5 100,-465.5"/>
<text text-anchor="start" x="108" y="-494.5" font-family="Helvetica,sans-Serif" font-size="10.00">advection_test_tracer</text>
<text text-anchor="start" x="108" y="-483.5" font-family="Helvetica,sans-Serif" font-size="10.00">::advection_test_tracer</text>
<text text-anchor="middle" x="149" y="-472.5" font-family="Helvetica,sans-Serif" font-size="10.00">_column_physics</text>
</a>
</g>
</g>
<!-- Node3&#45;&gt;Node4 -->
<g id="edge1" class="edge"><title>Node3&#45;&gt;Node4</title>
<path fill="none" stroke="midnightblue" d="M301.024,-263.816C289.411,-307.477 260.062,-398.811 206,-456 202.742,-459.446 198.998,-462.582 195.025,-465.413"/>
<polygon fill="midnightblue" stroke="midnightblue" points="304.439,-264.591 303.539,-254.035 297.659,-262.848 304.439,-264.591"/>
</g>
<!-- Node5 -->
<g id="node3" class="node"><title>Node5</title>
<g id="a_node3"><a xlink:href="namespaceboundary__impulse__tracer.html#aca66c0e29a18f158c998ab10fecd6beb" target="_top" xlink:title=" ">
<polygon fill="white" stroke="black" points="93,-405.5 93,-446.5 205,-446.5 205,-405.5 93,-405.5"/>
<text text-anchor="start" x="101" y="-434.5" font-family="Helvetica,sans-Serif" font-size="10.00">boundary_impulse_tracer</text>
<text text-anchor="start" x="101" y="-423.5" font-family="Helvetica,sans-Serif" font-size="10.00">::boundary_impulse_tracer</text>
<text text-anchor="middle" x="149" y="-412.5" font-family="Helvetica,sans-Serif" font-size="10.00">_column_physics</text>
</a>
</g>
</g>
<!-- Node3&#45;&gt;Node5 -->
<g id="edge2" class="edge"><title>Node3&#45;&gt;Node5</title>
<path fill="none" stroke="midnightblue" d="M295.933,-263.425C279.947,-296.567 247.683,-356.098 206,-395 201.938,-398.791 197.326,-402.284 192.535,-405.45"/>
<polygon fill="midnightblue" stroke="midnightblue" points="299.26,-264.576 300.364,-254.039 292.93,-261.588 299.26,-264.576"/>
</g>
<!-- Node6 -->
<g id="node4" class="node"><title>Node6</title>
<g id="a_node4"><a xlink:href="namespacedome__tracer.html#a51c45f9e7745b7e0ac334c8e29c60bcd" target="_top" xlink:title=" ">
<polygon fill="white" stroke="black" points="92.5,-356 92.5,-386 205.5,-386 205.5,-356 92.5,-356"/>
<text text-anchor="start" x="100.5" y="-374" font-family="Helvetica,sans-Serif" font-size="10.00">dome_tracer::dome_tracer</text>
<text text-anchor="middle" x="149" y="-363" font-family="Helvetica,sans-Serif" font-size="10.00">_column_physics</text>
</a>
</g>
</g>
<!-- Node3&#45;&gt;Node6 -->
<g id="edge3" class="edge"><title>Node3&#45;&gt;Node6</title>
<path fill="none" stroke="midnightblue" d="M289.525,-262.348C270.922,-285.925 239.585,-322.172 206,-346 200.79,-349.696 194.946,-353.034 189.051,-355.977"/>
<polygon fill="midnightblue" stroke="midnightblue" points="292.418,-264.328 295.783,-254.281 286.888,-260.037 292.418,-264.328"/>
</g>
<!-- Node7 -->
<g id="node5" class="node"><title>Node7</title>
<g id="a_node5"><a xlink:href="namespaceregional__dyes.html#a071a809a79a9ca752f395a35b4887ca1" target="_top" xlink:title=" ">
<polygon fill="white" stroke="black" points="98,-307 98,-337 200,-337 200,-307 98,-307"/>
<text text-anchor="start" x="106" y="-325" font-family="Helvetica,sans-Serif" font-size="10.00">regional_dyes::dye</text>
<text text-anchor="middle" x="149" y="-314" font-family="Helvetica,sans-Serif" font-size="10.00">_tracer_column_physics</text>
</a>
</g>
</g>
<!-- Node3&#45;&gt;Node7 -->
<g id="edge4" class="edge"><title>Node3&#45;&gt;Node7</title>
<path fill="none" stroke="midnightblue" d="M273.694,-259.262C254.226,-270.818 229.027,-285.287 206,-297 199.357,-300.379 192.16,-303.78 185.209,-306.937"/>
<polygon fill="midnightblue" stroke="midnightblue" points="275.691,-262.147 282.481,-254.014 272.102,-256.137 275.691,-262.147"/>
</g>
<!-- Node8 -->
<g id="node6" class="node"><title>Node8</title>
<g id="a_node6"><a xlink:href="namespaceideal__age__example.html#a910b9f6a989e02e130231ce67b708bfe" target="_top" xlink:title=" ">
<polygon fill="white" stroke="black" points="95.5,-246.5 95.5,-287.5 202.5,-287.5 202.5,-246.5 95.5,-246.5"/>
<text text-anchor="start" x="103.5" y="-275.5" font-family="Helvetica,sans-Serif" font-size="10.00">ideal_age_example::</text>
<text text-anchor="start" x="103.5" y="-264.5" font-family="Helvetica,sans-Serif" font-size="10.00">ideal_age_tracer_column</text>
<text text-anchor="middle" x="149" y="-253.5" font-family="Helvetica,sans-Serif" font-size="10.00">_physics</text>
</a>
</g>
</g>
<!-- Node3&#45;&gt;Node8 -->
<g id="edge5" class="edge"><title>Node3&#45;&gt;Node8</title>
<path fill="none" stroke="midnightblue" d="M231.673,-252.434C221.925,-254.173 212.112,-255.923 202.837,-257.577"/>
<polygon fill="midnightblue" stroke="midnightblue" points="232.552,-255.833 241.782,-250.631 231.323,-248.941 232.552,-255.833"/>
</g>
<!-- Node9 -->
<g id="node7" class="node"><title>Node9</title>
<g id="a_node7"><a xlink:href="namespaceisomip__tracer.html#ab39c7461cc8f1db9e0b681b9250abad1" target="_top" xlink:title="This subroutine applies diapycnal diffusion and any other column.">
<polygon fill="white" stroke="black" points="98,-197 98,-227 200,-227 200,-197 98,-197"/>
<text text-anchor="start" x="106" y="-215" font-family="Helvetica,sans-Serif" font-size="10.00">isomip_tracer::isomip</text>
<text text-anchor="middle" x="149" y="-204" font-family="Helvetica,sans-Serif" font-size="10.00">_tracer_column_physics</text>
</a>
</g>
</g>
<!-- Node3&#45;&gt;Node9 -->
<g id="edge6" class="edge"><title>Node3&#45;&gt;Node9</title>
<path fill="none" stroke="midnightblue" d="M231.669,-226.045C221.07,-224.222 210.394,-222.386 200.415,-220.67"/>
<polygon fill="midnightblue" stroke="midnightblue" points="231.333,-229.539 241.782,-227.784 232.52,-222.64 231.333,-229.539"/>
</g>
<!-- Node10 -->
<g id="node8" class="node"><title>Node10</title>
<g id="a_node8"><a xlink:href="namespacemom__ocmip2__cfc.html#af97d6b5ffc3e2a02d565592ba52bd39b" target="_top" xlink:title=" ">
<polygon fill="white" stroke="black" points="94.5,-148 94.5,-178 203.5,-178 203.5,-148 94.5,-148"/>
<text text-anchor="start" x="102.5" y="-166" font-family="Helvetica,sans-Serif" font-size="10.00">mom_ocmip2_cfc::ocmip2</text>
<text text-anchor="middle" x="149" y="-155" font-family="Helvetica,sans-Serif" font-size="10.00">_cfc_column_physics</text>
</a>
</g>
</g>
<!-- Node3&#45;&gt;Node10 -->
<g id="edge7" class="edge"><title>Node3&#45;&gt;Node10</title>
<path fill="none" stroke="midnightblue" d="M268.87,-219.206C250.05,-209.575 226.944,-197.956 206,-188 199.077,-184.709 191.618,-181.291 184.473,-178.079"/>
<polygon fill="midnightblue" stroke="midnightblue" points="267.516,-222.446 278.011,-223.9 270.714,-216.219 267.516,-222.446"/>
</g>
<!-- Node11 -->
<g id="node9" class="node"><title>Node11</title>
<g id="a_node9"><a xlink:href="namespaceoil__tracer.html#a16435914b962aacb079217f7c88d7b0a" target="_top" xlink:title=" ">
<polygon fill="white" stroke="black" points="105.5,-99 105.5,-129 192.5,-129 192.5,-99 105.5,-99"/>
<text text-anchor="start" x="113.5" y="-117" font-family="Helvetica,sans-Serif" font-size="10.00">oil_tracer::oil_tracer</text>
<text text-anchor="middle" x="149" y="-106" font-family="Helvetica,sans-Serif" font-size="10.00">_column_physics</text>
</a>
</g>
</g>
<!-- Node3&#45;&gt;Node11 -->
<g id="edge8" class="edge"><title>Node3&#45;&gt;Node11</title>
<path fill="none" stroke="midnightblue" d="M288.015,-215.868C269.042,-193.882 238.141,-160.996 206,-139 200.64,-135.332 194.655,-131.993 188.647,-129.033"/>
<polygon fill="midnightblue" stroke="midnightblue" points="285.538,-218.359 294.68,-223.715 290.874,-213.828 285.538,-218.359"/>
</g>
<!-- Node12 -->
<g id="node10" class="node"><title>Node12</title>
<g id="a_node10"><a xlink:href="namespacepseudo__salt__tracer.html#a006d8a5e36cc4ed2aed60fb0bace3902" target="_top" xlink:title=" ">
<polygon fill="white" stroke="black" points="104.5,-38.5 104.5,-79.5 193.5,-79.5 193.5,-38.5 104.5,-38.5"/>
<text text-anchor="start" x="112.5" y="-67.5" font-family="Helvetica,sans-Serif" font-size="10.00">pseudo_salt_tracer</text>
<text text-anchor="start" x="112.5" y="-56.5" font-family="Helvetica,sans-Serif" font-size="10.00">::pseudo_salt_tracer</text>
<text text-anchor="middle" x="149" y="-45.5" font-family="Helvetica,sans-Serif" font-size="10.00">_column_physics</text>
</a>
</g>
</g>
<!-- Node3&#45;&gt;Node12 -->
<g id="edge9" class="edge"><title>Node3&#45;&gt;Node12</title>
<path fill="none" stroke="midnightblue" d="M295.164,-214.717C278.712,-182.912 246.352,-126.87 206,-90 201.898,-86.2521 197.262,-82.7857 192.458,-79.6338"/>
<polygon fill="midnightblue" stroke="midnightblue" points="292.106,-216.426 299.75,-223.762 298.349,-213.26 292.106,-216.426"/>
</g>
<!-- Node13 -->
<g id="node11" class="node"><title>Node13</title>
<g id="a_node11"><a xlink:href="namespacemom.html#ada859fe9e7e841ea281dae323cc4f6ac" target="_top" xlink:title="step_tracers is the main driver for running tracers offline in MOM6. This has been primarily develope...">
<polygon fill="white" stroke="black" points="107.5,-0.5 107.5,-19.5 190.5,-19.5 190.5,-0.5 107.5,-0.5"/>
<text text-anchor="middle" x="149" y="-7.5" font-family="Helvetica,sans-Serif" font-size="10.00">mom::step_tracers</text>
</a>
</g>
</g>
<!-- Node3&#45;&gt;Node13 -->
<g id="edge10" class="edge"><title>Node3&#45;&gt;Node13</title>
<path fill="none" stroke="midnightblue" d="M301.694,-214.06C291.126,-170.365 263.358,-79.7962 206,-29 201.542,-25.0522 196.23,-21.9179 190.679,-19.4313"/>
<polygon fill="midnightblue" stroke="midnightblue" points="298.298,-214.911 303.964,-223.864 305.118,-213.332 298.298,-214.911"/>
</g>
<!-- Node14 -->
<g id="node12" class="node"><title>Node14</title>
<g id="a_node12"><a xlink:href="MOM__driver_8F90.html#a08fffeb2d8e8acbf9ed4609be6d258c6" target="_top" xlink:title=" ">
<polygon fill="white" stroke="black" points="0,-0.5 0,-19.5 56,-19.5 56,-0.5 0,-0.5"/>
<text text-anchor="middle" x="28" y="-7.5" font-family="Helvetica,sans-Serif" font-size="10.00">mom_main</text>
</a>
</g>
</g>
<!-- Node13&#45;&gt;Node14 -->
<g id="edge11" class="edge"><title>Node13&#45;&gt;Node14</title>
<path fill="none" stroke="midnightblue" d="M97.3058,-10C83.2444,-10 68.512,-10 56.3442,-10"/>
<polygon fill="midnightblue" stroke="midnightblue" points="97.3798,-13.5001 107.38,-10 97.3797,-6.5001 97.3798,-13.5001"/>
</g>
</g>
</svg>
        <g id="navigator" transform="translate(0 0)" fill="#404254">
                <rect fill="#f2f5e9" fill-opacity="0.5" stroke="#606060" stroke-width=".5" x="0" y="0" width="60" height="60"/>
                <use id="zoomplus" xlink:href="#zoomPlus" x="17" y="9" onmousedown="handleZoom(evt,'in')"/>
                <use id="zoomminus" xlink:href="#zoomMin" x="42" y="9" onmousedown="handleZoom(evt,'out')"/>
                <use id="reset" xlink:href="#resetDef" x="30" y="36" onmousedown="handleReset()"/>
                <g id="arrowUp" xlink:href="#dirArrow" transform="translate(30 24)" onmousedown="handlePan(0,-1)">
                  <use xlink:href="#rim" fill="#404040">
                        <set attributeName="fill" to="#808080" begin="arrowUp.mouseover" end="arrowUp.mouseout"/>
                  </use>
                  <path fill="none" stroke="white" stroke-width="1.5" d="M0,-3.0v7 M-2.5,-0.5L0,-3.0L2.5,-0.5"/>
                </g>
                <g id="arrowRight" xlink:href="#dirArrow" transform="rotate(90) translate(36 -43)" onmousedown="handlePan(1,0)">
                  <use xlink:href="#rim" fill="#404040">
                        <set attributeName="fill" to="#808080" begin="arrowRight.mouseover" end="arrowRight.mouseout"/>
                  </use>
                  <path fill="none" stroke="white" stroke-width="1.5" d="M0,-3.0v7 M-2.5,-0.5L0,-3.0L2.5,-0.5"/>
                </g>
                <g id="arrowDown" xlink:href="#dirArrow" transform="rotate(180) translate(-30 -48)" onmousedown="handlePan(0,1)">
                  <use xlink:href="#rim" fill="#404040">
                        <set attributeName="fill" to="#808080" begin="arrowDown.mouseover" end="arrowDown.mouseout"/>
                  </use>
                  <path fill="none" stroke="white" stroke-width="1.5" d="M0,-3.0v7 M-2.5,-0.5L0,-3.0L2.5,-0.5"/>
                </g>
                <g id="arrowLeft" xlink:href="#dirArrow" transform="rotate(270) translate(-36 17)" onmousedown="handlePan(-1,0)">
                  <use xlink:href="#rim" fill="#404040">
                        <set attributeName="fill" to="#808080" begin="arrowLeft.mouseover" end="arrowLeft.mouseout"/>
                  </use>
                  <path fill="none" stroke="white" stroke-width="1.5" d="M0,-3.0v7 M-2.5,-0.5L0,-3.0L2.5,-0.5"/>
                </g>
        </g>
        <svg viewBox="0 0 15 15" width="100%" height="30px" preserveAspectRatio="xMaxYMin meet">
         <g id="arrow_out" transform="scale(0.3 0.3)">
          <a xlink:href="namespacemom__tracer__diabatic_a1fd213439071bcb31be7de49e7a72039_icgraph_org.svg" target="_base">
           <rect id="button" ry="5" rx="5" y="6" x="6" height="38" width="38"
                fill="#f2f5e9" fill-opacity="0.5" stroke="#606060" stroke-width="1.0"/>
           <path id="arrow"
             d="M 11.500037,31.436501 C 11.940474,20.09759 22.043105,11.32322 32.158766,21.979434 L 37.068811,17.246167 C 37.068811,17.246167 37.088388,32 37.088388,32 L 22.160133,31.978069 C 22.160133,31.978069 26.997745,27.140456 26.997745,27.140456 C 18.528582,18.264221 13.291696,25.230495 11.500037,31.436501 z"
             style="fill:#404040;"/>
          </a>
         </g>
        </svg>
</svg>
