<?xml version="1.0" encoding="UTF-8" standalone="no"?>
<!DOCTYPE svg PUBLIC "-//W3C//DTD SVG 1.1//EN"
 "http://www.w3.org/Graphics/SVG/1.1/DTD/svg11.dtd">
<!-- Generated by graphviz version 2.30.1 (20170916.1124)
 -->
<!-- Title: mom_diapyc_energy_req::diapyc_energy_req_init Pages: 1 -->
<!--zoomable 362 -->
<svg id="main" version="1.1" xmlns="http://www.w3.org/2000/svg" xmlns:xlink="http://www.w3.org/1999/xlink" xml:space="preserve" onload="init(evt)">
<style type="text/css"><![CDATA[
.edge:hover path { stroke: red; }
.edge:hover polygon { stroke: red; fill: red; }
]]></style>
<script type="text/javascript"><![CDATA[
var edges = document.getElementsByTagName('g');
if (edges && edges.length) {
  for (var i=0;i<edges.length;i++) {
    if (edges[i].id.substr(0,4)=='edge') {
      edges[i].setAttribute('class','edge');
    }
  }
}
]]></script>
        <defs>
                <circle id="rim" cx="0" cy="0" r="7"/>
                <circle id="rim2" cx="0" cy="0" r="3.5"/>
                <g id="zoomPlus">
                        <use xlink:href="#rim" fill="#404040">
                                <set attributeName="fill" to="#808080" begin="zoomplus.mouseover" end="zoomplus.mouseout"/>
                        </use>
                        <path d="M-4,0h8M0,-4v8" fill="none" stroke="white" stroke-width="1.5" pointer-events="none"/>
                </g>
                <g id="zoomMin">
                        <use xlink:href="#rim" fill="#404040">
                                <set attributeName="fill" to="#808080" begin="zoomminus.mouseover" end="zoomminus.mouseout"/>
                        </use>
                        <path d="M-4,0h8" fill="none" stroke="white" stroke-width="1.5" pointer-events="none"/>
                </g>
                <g id="dirArrow">
                        <path fill="none" stroke="white" stroke-width="1.5" d="M0,-3.0v7 M-2.5,-0.5L0,-3.0L2.5,-0.5"/>
                </g>
               <g id="resetDef">
                       <use xlink:href="#rim2" fill="#404040">
                               <set attributeName="fill" to="#808080" begin="reset.mouseover" end="reset.mouseout"/>
                       </use>
               </g>
        </defs>

<script type="text/javascript">
var viewWidth = 1036;
var viewHeight = 362;
var sectionId = 'dynsection-2';
</script>
<script xlink:href="svgpan.js"/>
<svg id="graph" class="graph">
<g id="viewport">
<title>mom_diapyc_energy_req::diapyc_energy_req_init</title>
<polygon fill="white" stroke="white" points="-4,5 -4,-358 1033,-358 1033,5 -4,5"/>
<!-- Node13 -->
<g id="node1" class="node"><title>Node13</title>
<g id="a_node1"><a xlink:title=" ">
<polygon fill="#bfbfbf" stroke="black" points="0.5,-105 0.5,-135 107.5,-135 107.5,-105 0.5,-105"/>
<text text-anchor="start" x="8.5" y="-123" font-family="Helvetica,sans-Serif" font-size="10.00">mom_diapyc_energy_req</text>
<text text-anchor="middle" x="54" y="-112" font-family="Helvetica,sans-Serif" font-size="10.00">::diapyc_energy_req_init</text>
</a>
</g>
</g>
<!-- Node14 -->
<g id="node2" class="node"><title>Node14</title>
<g id="a_node2"><a xlink:href="namespacemom__diag__mediator.html#aa791f75f899ae9b7cd4756165a9c2a1b" target="_top" xlink:title="Returns the &quot;diag_mediator&quot; handle for a group (native, CMOR, z&#45;coord, ...) of diagnostics derived fr...">
<polygon fill="white" stroke="black" points="144.5,-105 144.5,-135 239.5,-135 239.5,-105 144.5,-105"/>
<text text-anchor="start" x="152.5" y="-123" font-family="Helvetica,sans-Serif" font-size="10.00">mom_diag_mediator::</text>
<text text-anchor="middle" x="192" y="-112" font-family="Helvetica,sans-Serif" font-size="10.00">register_diag_field</text>
</a>
</g>
</g>
<!-- Node13&#45;&gt;Node14 -->
<g id="edge1" class="edge"><title>Node13&#45;&gt;Node14</title>
<path fill="none" stroke="midnightblue" d="M107.581,-120C116.284,-120 125.344,-120 134.146,-120"/>
<polygon fill="midnightblue" stroke="midnightblue" points="134.326,-123.5 144.326,-120 134.326,-116.5 134.326,-123.5"/>
</g>
<!-- Node15 -->
<g id="node3" class="node"><title>Node15</title>
<g id="a_node3"><a xlink:href="namespacemom__diag__mediator.html#ae50b35cba800ac5fd8975929fd2b9f4a" target="_top" xlink:title="Returns True if either the native of CMOr version of the diagnostic were registered....">
<polygon fill="white" stroke="black" points="276.5,-99.5 276.5,-140.5 371.5,-140.5 371.5,-99.5 276.5,-99.5"/>
<text text-anchor="start" x="284.5" y="-128.5" font-family="Helvetica,sans-Serif" font-size="10.00">mom_diag_mediator::</text>
<text text-anchor="start" x="284.5" y="-117.5" font-family="Helvetica,sans-Serif" font-size="10.00">register_diag_field</text>
<text text-anchor="middle" x="324" y="-106.5" font-family="Helvetica,sans-Serif" font-size="10.00">_expand_cmor</text>
</a>
</g>
</g>
<!-- Node14&#45;&gt;Node15 -->
<g id="edge2" class="edge"><title>Node14&#45;&gt;Node15</title>
<path fill="none" stroke="midnightblue" d="M239.566,-120C248.154,-120 257.21,-120 266.063,-120"/>
<polygon fill="midnightblue" stroke="midnightblue" points="266.322,-123.5 276.322,-120 266.322,-116.5 266.322,-123.5"/>
</g>
<!-- Node16 -->
<g id="node4" class="node"><title>Node16</title>
<g id="a_node4"><a xlink:href="namespacemom__diag__mediator.html#a8415b33a337b1fbc7535688eca85ab37" target="_top" xlink:title="Create a diagnostic type and attached to list.">
<polygon fill="white" stroke="black" points="408.5,-236 408.5,-266 503.5,-266 503.5,-236 408.5,-236"/>
<text text-anchor="start" x="416.5" y="-254" font-family="Helvetica,sans-Serif" font-size="10.00">mom_diag_mediator::</text>
<text text-anchor="middle" x="456" y="-243" font-family="Helvetica,sans-Serif" font-size="10.00">add_diag_to_list</text>
</a>
</g>
</g>
<!-- Node15&#45;&gt;Node16 -->
<g id="edge3" class="edge"><title>Node15&#45;&gt;Node16</title>
<path fill="none" stroke="midnightblue" d="M345.599,-140.757C369.346,-164.687 408.238,-203.879 432.687,-228.515"/>
<polygon fill="midnightblue" stroke="midnightblue" points="430.25,-231.028 439.778,-235.661 435.218,-226.097 430.25,-231.028"/>
</g>
<!-- Node24 -->
<g id="node12" class="node"><title>Node24</title>
<g id="a_node12"><a xlink:href="namespacemom__diag__mediator.html#ae0f04c145cb120fc2ab6cbfe9f166392" target="_top" xlink:title="Attaches &quot;cell_methods&quot; attribute to a variable based on defaults for axes_grp or optional arguments.">
<polygon fill="white" stroke="black" points="672.5,-149 672.5,-179 767.5,-179 767.5,-149 672.5,-149"/>
<text text-anchor="start" x="680.5" y="-167" font-family="Helvetica,sans-Serif" font-size="10.00">mom_diag_mediator::</text>
<text text-anchor="middle" x="720" y="-156" font-family="Helvetica,sans-Serif" font-size="10.00">attach_cell_methods</text>
</a>
</g>
</g>
<!-- Node15&#45;&gt;Node24 -->
<g id="edge12" class="edge"><title>Node15&#45;&gt;Node24</title>
<path fill="none" stroke="midnightblue" d="M371.88,-128.504C383.648,-130.474 396.266,-132.446 408,-134 496.506,-145.718 599.758,-154.769 662.211,-159.739"/>
<polygon fill="midnightblue" stroke="midnightblue" points="662.009,-163.233 672.253,-160.53 662.559,-156.255 662.009,-163.233"/>
</g>
<!-- Node20 -->
<g id="node8" class="node"><title>Node20</title>
<g id="a_node8"><a xlink:href="namespacemom__error__handler.html#ad5f00a53059c72fe2332d1436c80ca71" target="_top" xlink:title=" ">
<polygon fill="white" stroke="black" points="934.5,-127 934.5,-157 1027.5,-157 1027.5,-127 934.5,-127"/>
<text text-anchor="start" x="942.5" y="-145" font-family="Helvetica,sans-Serif" font-size="10.00">mom_error_handler::</text>
<text text-anchor="middle" x="981" y="-134" font-family="Helvetica,sans-Serif" font-size="10.00">is_root_pe</text>
</a>
</g>
</g>
<!-- Node15&#45;&gt;Node20 -->
<g id="edge14" class="edge"><title>Node15&#45;&gt;Node20</title>
<path fill="none" stroke="midnightblue" d="M371.855,-120C424.274,-120 511.72,-120 587,-120 587,-120 587,-120 721,-120 791.229,-120 871.787,-128.13 924.162,-134.506"/>
<polygon fill="midnightblue" stroke="midnightblue" points="923.896,-137.999 934.25,-135.755 924.756,-131.052 923.896,-137.999"/>
</g>
<!-- Node25 -->
<g id="node13" class="node"><title>Node25</title>
<g id="a_node13"><a xlink:href="namespacemom__diag__mediator.html#a65fe8d329cf5dbfd08c98874a7a64407" target="_top" xlink:title="Log a diagnostic to the available diagnostics file.">
<polygon fill="white" stroke="black" points="408.5,-61 408.5,-91 503.5,-91 503.5,-61 408.5,-61"/>
<text text-anchor="start" x="416.5" y="-79" font-family="Helvetica,sans-Serif" font-size="10.00">mom_diag_mediator::</text>
<text text-anchor="middle" x="456" y="-68" font-family="Helvetica,sans-Serif" font-size="10.00">log_available_diag</text>
</a>
</g>
</g>
<!-- Node15&#45;&gt;Node25 -->
<g id="edge15" class="edge"><title>Node15&#45;&gt;Node25</title>
<path fill="none" stroke="midnightblue" d="M371.566,-104.239C381.073,-101.021 391.155,-97.6092 400.9,-94.3109"/>
<polygon fill="midnightblue" stroke="midnightblue" points="402.149,-97.5833 410.499,-91.062 399.904,-90.9528 402.149,-97.5833"/>
</g>
<!-- Node27 -->
<g id="node15" class="node"><title>Node27</title>
<g id="a_node15"><a xlink:href="namespacemom__diag__mediator.html#aca4a32fea8dade9f51e076a56b9bad2b" target="_top" xlink:title="Returns an FMS id from register_diag_field_fms (the diag_manager routine) after expanding axes (axes&#45;...">
<polygon fill="white" stroke="black" points="408.5,-0.5 408.5,-41.5 503.5,-41.5 503.5,-0.5 408.5,-0.5"/>
<text text-anchor="start" x="416.5" y="-29.5" font-family="Helvetica,sans-Serif" font-size="10.00">mom_diag_mediator::</text>
<text text-anchor="start" x="416.5" y="-18.5" font-family="Helvetica,sans-Serif" font-size="10.00">register_diag_field</text>
<text text-anchor="middle" x="456" y="-7.5" font-family="Helvetica,sans-Serif" font-size="10.00">_expand_axes</text>
</a>
</g>
</g>
<!-- Node15&#45;&gt;Node27 -->
<g id="edge17" class="edge"><title>Node15&#45;&gt;Node27</title>
<path fill="none" stroke="midnightblue" d="M348.336,-99.2564C364.63,-85.1113 387.117,-66.2523 408,-51 409.612,-49.8224 411.27,-48.6398 412.955,-47.4607"/>
<polygon fill="midnightblue" stroke="midnightblue" points="415.225,-50.1497 421.528,-41.6332 411.29,-44.3606 415.225,-50.1497"/>
</g>
<!-- Node17 -->
<g id="node5" class="node"><title>Node17</title>
<g id="a_node5"><a xlink:href="namespacemom__diag__mediator.html#a1b0bed2113a0c268eafd1bafbb48bd4f" target="_top" xlink:title=" ">
<polygon fill="white" stroke="black" points="540.5,-324 540.5,-354 635.5,-354 635.5,-324 540.5,-324"/>
<text text-anchor="start" x="548.5" y="-342" font-family="Helvetica,sans-Serif" font-size="10.00">mom_diag_mediator::</text>
<text text-anchor="middle" x="588" y="-331" font-family="Helvetica,sans-Serif" font-size="10.00">alloc_diag_with_id</text>
</a>
</g>
</g>
<!-- Node16&#45;&gt;Node17 -->
<g id="edge4" class="edge"><title>Node16&#45;&gt;Node17</title>
<path fill="none" stroke="midnightblue" d="M477.983,-266.026C494.664,-277.882 518.659,-294.742 540,-309 544.628,-312.092 549.548,-315.309 554.396,-318.438"/>
<polygon fill="midnightblue" stroke="midnightblue" points="552.657,-321.48 562.965,-323.93 556.434,-315.587 552.657,-321.48"/>
</g>
<!-- Node18 -->
<g id="node6" class="node"><title>Node18</title>
<g id="a_node6"><a xlink:href="namespacemom__error__handler.html#a33bcd190d460095104954f2e654f9fe6" target="_top" xlink:title="Issues a FATAL error if the assertion fails, i.e. the first argument is false.">
<polygon fill="white" stroke="black" points="673.5,-263 673.5,-293 766.5,-293 766.5,-263 673.5,-263"/>
<text text-anchor="start" x="681.5" y="-281" font-family="Helvetica,sans-Serif" font-size="10.00">mom_error_handler::</text>
<text text-anchor="middle" x="720" y="-270" font-family="Helvetica,sans-Serif" font-size="10.00">assert</text>
</a>
</g>
</g>
<!-- Node16&#45;&gt;Node18 -->
<g id="edge5" class="edge"><title>Node16&#45;&gt;Node18</title>
<path fill="none" stroke="midnightblue" d="M500.885,-266.034C513.375,-269.668 527.095,-273.061 540,-275 580.983,-281.157 627.834,-281.714 663.322,-280.834"/>
<polygon fill="midnightblue" stroke="midnightblue" points="663.59,-284.328 673.483,-280.536 663.384,-277.331 663.59,-284.328"/>
</g>
<!-- Node21 -->
<g id="node9" class="node"><title>Node21</title>
<g id="a_node9"><a xlink:href="namespacemom__diag__mediator.html#a3f7442639213320f7429e2288a79fda2" target="_top" xlink:title="Returns a new diagnostic id, it may be necessary to expand the diagnostics array.">
<polygon fill="white" stroke="black" points="540.5,-236 540.5,-266 635.5,-266 635.5,-236 540.5,-236"/>
<text text-anchor="start" x="548.5" y="-254" font-family="Helvetica,sans-Serif" font-size="10.00">mom_diag_mediator::</text>
<text text-anchor="middle" x="588" y="-243" font-family="Helvetica,sans-Serif" font-size="10.00">get_new_diag_id</text>
</a>
</g>
</g>
<!-- Node16&#45;&gt;Node21 -->
<g id="edge8" class="edge"><title>Node16&#45;&gt;Node21</title>
<path fill="none" stroke="midnightblue" d="M503.566,-251C512.154,-251 521.21,-251 530.063,-251"/>
<polygon fill="midnightblue" stroke="midnightblue" points="530.322,-254.5 540.322,-251 530.322,-247.5 530.322,-254.5"/>
</g>
<!-- Node23 -->
<g id="node11" class="node"><title>Node23</title>
<g id="a_node11"><a xlink:href="namespacemom__diag__mediator.html#a085f313357879a914af6450f2ab8ec79" target="_top" xlink:title="Associates the mask pointers within diag with the appropriate mask based on the axes group.">
<polygon fill="white" stroke="black" points="540.5,-187 540.5,-217 635.5,-217 635.5,-187 540.5,-187"/>
<text text-anchor="start" x="548.5" y="-205" font-family="Helvetica,sans-Serif" font-size="10.00">mom_diag_mediator::</text>
<text text-anchor="middle" x="588" y="-194" font-family="Helvetica,sans-Serif" font-size="10.00">set_diag_mask</text>
</a>
</g>
</g>
<!-- Node16&#45;&gt;Node23 -->
<g id="edge11" class="edge"><title>Node16&#45;&gt;Node23</title>
<path fill="none" stroke="midnightblue" d="M497.065,-235.899C509.792,-231.101 524.022,-225.738 537.341,-220.718"/>
<polygon fill="midnightblue" stroke="midnightblue" points="538.721,-223.938 546.843,-217.136 536.252,-217.388 538.721,-223.938"/>
</g>
<!-- Node19 -->
<g id="node7" class="node"><title>Node19</title>
<g id="a_node7"><a xlink:href="namespacemom__error__handler.html#a460cfb79a06c29fc249952c2a3710d67" target="_top" xlink:title=" ">
<polygon fill="white" stroke="black" points="804.5,-149 804.5,-179 897.5,-179 897.5,-149 804.5,-149"/>
<text text-anchor="start" x="812.5" y="-167" font-family="Helvetica,sans-Serif" font-size="10.00">mom_error_handler::</text>
<text text-anchor="middle" x="851" y="-156" font-family="Helvetica,sans-Serif" font-size="10.00">mom_error</text>
</a>
</g>
</g>
<!-- Node18&#45;&gt;Node19 -->
<g id="edge6" class="edge"><title>Node18&#45;&gt;Node19</title>
<path fill="none" stroke="midnightblue" d="M753.251,-262.723C758.369,-259.775 763.465,-256.502 768,-253 792.914,-233.76 816.754,-206.555 832.242,-187.299"/>
<polygon fill="midnightblue" stroke="midnightblue" points="835.091,-189.34 838.546,-179.324 829.599,-184.999 835.091,-189.34"/>
</g>
<!-- Node19&#45;&gt;Node20 -->
<g id="edge7" class="edge"><title>Node19&#45;&gt;Node20</title>
<path fill="none" stroke="midnightblue" d="M897.849,-156.12C906.501,-154.633 915.636,-153.063 924.545,-151.531"/>
<polygon fill="midnightblue" stroke="midnightblue" points="925.208,-154.969 934.471,-149.825 924.022,-148.07 925.208,-154.969"/>
</g>
<!-- Node21&#45;&gt;Node18 -->
<g id="edge9" class="edge"><title>Node21&#45;&gt;Node18</title>
<path fill="none" stroke="midnightblue" d="M635.566,-260.671C644.554,-262.538 654.056,-264.512 663.301,-266.432"/>
<polygon fill="midnightblue" stroke="midnightblue" points="662.693,-269.88 673.195,-268.487 664.116,-263.026 662.693,-269.88"/>
</g>
<!-- Node22 -->
<g id="node10" class="node"><title>Node22</title>
<g id="a_node10"><a xlink:href="namespacemom__diag__mediator.html#a883862f004e30bbc5211f38635511ba0" target="_top" xlink:title="Initializes a diag_type (used after allocating new memory)">
<polygon fill="white" stroke="black" points="672.5,-214 672.5,-244 767.5,-244 767.5,-214 672.5,-214"/>
<text text-anchor="start" x="680.5" y="-232" font-family="Helvetica,sans-Serif" font-size="10.00">mom_diag_mediator::</text>
<text text-anchor="middle" x="720" y="-221" font-family="Helvetica,sans-Serif" font-size="10.00">initialize_diag_type</text>
</a>
</g>
</g>
<!-- Node21&#45;&gt;Node22 -->
<g id="edge10" class="edge"><title>Node21&#45;&gt;Node22</title>
<path fill="none" stroke="midnightblue" d="M635.566,-243.12C644.247,-241.651 653.406,-240.1 662.351,-238.587"/>
<polygon fill="midnightblue" stroke="midnightblue" points="663.047,-242.019 672.322,-236.899 661.879,-235.117 663.047,-242.019"/>
</g>
<!-- Node24&#45;&gt;Node19 -->
<g id="edge13" class="edge"><title>Node24&#45;&gt;Node19</title>
<path fill="none" stroke="midnightblue" d="M767.572,-164C776.183,-164 785.256,-164 794.11,-164"/>
<polygon fill="midnightblue" stroke="midnightblue" points="794.361,-167.5 804.361,-164 794.361,-160.5 794.361,-167.5"/>
</g>
<!-- Node26 -->
<g id="node14" class="node"><title>Node26</title>
<g id="a_node14"><a xlink:href="namespacemom__diag__mediator.html#ae002ca447acba252bf7bdc042e75a01e" target="_top" xlink:title=" ">
<polygon fill="white" stroke="black" points="540.5,-61 540.5,-91 635.5,-91 635.5,-61 540.5,-61"/>
<text text-anchor="start" x="548.5" y="-79" font-family="Helvetica,sans-Serif" font-size="10.00">mom_diag_mediator::</text>
<text text-anchor="middle" x="588" y="-68" font-family="Helvetica,sans-Serif" font-size="10.00">describe_option</text>
</a>
</g>
</g>
<!-- Node25&#45;&gt;Node26 -->
<g id="edge16" class="edge"><title>Node25&#45;&gt;Node26</title>
<path fill="none" stroke="midnightblue" d="M503.566,-76C512.154,-76 521.21,-76 530.063,-76"/>
<polygon fill="midnightblue" stroke="midnightblue" points="530.322,-79.5001 540.322,-76 530.322,-72.5001 530.322,-79.5001"/>
</g>
</g>
</svg>
        <g id="navigator" transform="translate(0 0)" fill="#404254">
                <rect fill="#f2f5e9" fill-opacity="0.5" stroke="#606060" stroke-width=".5" x="0" y="0" width="60" height="60"/>
                <use id="zoomplus" xlink:href="#zoomPlus" x="17" y="9" onmousedown="handleZoom(evt,'in')"/>
                <use id="zoomminus" xlink:href="#zoomMin" x="42" y="9" onmousedown="handleZoom(evt,'out')"/>
                <use id="reset" xlink:href="#resetDef" x="30" y="36" onmousedown="handleReset()"/>
                <g id="arrowUp" xlink:href="#dirArrow" transform="translate(30 24)" onmousedown="handlePan(0,-1)">
                  <use xlink:href="#rim" fill="#404040">
                        <set attributeName="fill" to="#808080" begin="arrowUp.mouseover" end="arrowUp.mouseout"/>
                  </use>
                  <path fill="none" stroke="white" stroke-width="1.5" d="M0,-3.0v7 M-2.5,-0.5L0,-3.0L2.5,-0.5"/>
                </g>
                <g id="arrowRight" xlink:href="#dirArrow" transform="rotate(90) translate(36 -43)" onmousedown="handlePan(1,0)">
                  <use xlink:href="#rim" fill="#404040">
                        <set attributeName="fill" to="#808080" begin="arrowRight.mouseover" end="arrowRight.mouseout"/>
                  </use>
                  <path fill="none" stroke="white" stroke-width="1.5" d="M0,-3.0v7 M-2.5,-0.5L0,-3.0L2.5,-0.5"/>
                </g>
                <g id="arrowDown" xlink:href="#dirArrow" transform="rotate(180) translate(-30 -48)" onmousedown="handlePan(0,1)">
                  <use xlink:href="#rim" fill="#404040">
                        <set attributeName="fill" to="#808080" begin="arrowDown.mouseover" end="arrowDown.mouseout"/>
                  </use>
                  <path fill="none" stroke="white" stroke-width="1.5" d="M0,-3.0v7 M-2.5,-0.5L0,-3.0L2.5,-0.5"/>
                </g>
                <g id="arrowLeft" xlink:href="#dirArrow" transform="rotate(270) translate(-36 17)" onmousedown="handlePan(-1,0)">
                  <use xlink:href="#rim" fill="#404040">
                        <set attributeName="fill" to="#808080" begin="arrowLeft.mouseover" end="arrowLeft.mouseout"/>
                  </use>
                  <path fill="none" stroke="white" stroke-width="1.5" d="M0,-3.0v7 M-2.5,-0.5L0,-3.0L2.5,-0.5"/>
                </g>
        </g>
        <svg viewBox="0 0 15 15" width="100%" height="30px" preserveAspectRatio="xMaxYMin meet">
         <g id="arrow_out" transform="scale(0.3 0.3)">
          <a xlink:href="namespacemom__diapyc__energy__req_aa0ce122f4dc6d9a6ec9e17996484bb76_cgraph_org.svg" target="_base">
           <rect id="button" ry="5" rx="5" y="6" x="6" height="38" width="38"
                fill="#f2f5e9" fill-opacity="0.5" stroke="#606060" stroke-width="1.0"/>
           <path id="arrow"
             d="M 11.500037,31.436501 C 11.940474,20.09759 22.043105,11.32322 32.158766,21.979434 L 37.068811,17.246167 C 37.068811,17.246167 37.088388,32 37.088388,32 L 22.160133,31.978069 C 22.160133,31.978069 26.997745,27.140456 26.997745,27.140456 C 18.528582,18.264221 13.291696,25.230495 11.500037,31.436501 z"
             style="fill:#404040;"/>
          </a>
         </g>
        </svg>
</svg>
