<?xml version="1.0" encoding="UTF-8" standalone="no"?>
<!DOCTYPE svg PUBLIC "-//W3C//DTD SVG 1.1//EN"
 "http://www.w3.org/Graphics/SVG/1.1/DTD/svg11.dtd">
<!-- Generated by graphviz version 2.30.1 (20170916.1124)
 -->
<!-- Title: mom_remapping::build_reconstructions_1d Pages: 1 -->
<svg width="656pt" height="575pt"
 viewBox="0.00 0.00 656.00 575.24" xmlns="http://www.w3.org/2000/svg" xmlns:xlink="http://www.w3.org/1999/xlink">
<g id="graph0" class="graph" transform="scale(1 1) rotate(0) translate(4 571.237)">
<title>mom_remapping::build_reconstructions_1d</title>
<polygon fill="white" stroke="white" points="-4,5 -4,-571.237 653,-571.237 653,5 -4,5"/>
<!-- Node22 -->
<g id="node1" class="node"><title>Node22</title>
<g id="a_node1"><a xlink:title="Creates polynomial reconstructions of u0 on the source grid h0.">
<polygon fill="#bfbfbf" stroke="black" points="0,-269 0,-299 98,-299 98,-269 0,-269"/>
<text text-anchor="start" x="8" y="-287" font-family="Helvetica,sans-Serif" font-size="10.00">mom_remapping::build</text>
<text text-anchor="middle" x="49" y="-276" font-family="Helvetica,sans-Serif" font-size="10.00">_reconstructions_1d</text>
</a>
</g>
</g>
<!-- Node23 -->
<g id="node2" class="node"><title>Node23</title>
<g id="a_node2"><a xlink:href="namespaceregrid__edge__slopes.html#a378dcb603968664e58d65e8ed892ec69" target="_top" xlink:title=" ">
<polygon fill="white" stroke="black" points="139.5,-392 139.5,-422 246.5,-422 246.5,-392 139.5,-392"/>
<text text-anchor="start" x="147.5" y="-410" font-family="Helvetica,sans-Serif" font-size="10.00">regrid_edge_slopes</text>
<text text-anchor="middle" x="193" y="-399" font-family="Helvetica,sans-Serif" font-size="10.00">::edge_slopes_implicit_h3</text>
</a>
</g>
</g>
<!-- Node22&#45;&gt;Node23 -->
<g id="edge1" class="edge"><title>Node22&#45;&gt;Node23</title>
<path fill="none" stroke="midnightblue" d="M59.6961,-299.164C73.8149,-320.211 101.878,-358.354 134,-382 136.359,-383.737 138.858,-385.383 141.441,-386.94"/>
<polygon fill="midnightblue" stroke="midnightblue" points="140.018,-390.151 150.47,-391.883 143.38,-384.011 140.018,-390.151"/>
</g>
<!-- Node29 -->
<g id="node8" class="node"><title>Node29</title>
<g id="a_node8"><a xlink:href="namespaceregrid__edge__slopes.html#a32fc906bf14cfb859703b4a1a7c46a9c" target="_top" xlink:title=" ">
<polygon fill="white" stroke="black" points="139.5,-343 139.5,-373 246.5,-373 246.5,-343 139.5,-343"/>
<text text-anchor="start" x="147.5" y="-361" font-family="Helvetica,sans-Serif" font-size="10.00">regrid_edge_slopes</text>
<text text-anchor="middle" x="193" y="-350" font-family="Helvetica,sans-Serif" font-size="10.00">::edge_slopes_implicit_h5</text>
</a>
</g>
</g>
<!-- Node22&#45;&gt;Node29 -->
<g id="edge7" class="edge"><title>Node22&#45;&gt;Node29</title>
<path fill="none" stroke="midnightblue" d="M74.1929,-299.163C90.747,-309.276 113.352,-322.576 134,-333 137.799,-334.918 141.779,-336.829 145.799,-338.691"/>
<polygon fill="midnightblue" stroke="midnightblue" points="144.626,-342.002 155.181,-342.928 147.507,-335.622 144.626,-342.002"/>
</g>
<!-- Node30 -->
<g id="node9" class="node"><title>Node30</title>
<g id="a_node9"><a xlink:href="namespaceregrid__edge__values.html#a2c2460b31b6de501eed3cb7db07a4be5" target="_top" xlink:title=" ">
<polygon fill="white" stroke="black" points="139.5,-490 139.5,-520 246.5,-520 246.5,-490 139.5,-490"/>
<text text-anchor="start" x="147.5" y="-508" font-family="Helvetica,sans-Serif" font-size="10.00">regrid_edge_values</text>
<text text-anchor="middle" x="193" y="-497" font-family="Helvetica,sans-Serif" font-size="10.00">::edge_values_implicit_h4</text>
</a>
</g>
</g>
<!-- Node22&#45;&gt;Node30 -->
<g id="edge11" class="edge"><title>Node22&#45;&gt;Node30</title>
<path fill="none" stroke="midnightblue" d="M52.5342,-299.15C59.3071,-335.182 81.0449,-426.935 134,-480 135.423,-481.426 136.941,-482.776 138.532,-484.054"/>
<polygon fill="midnightblue" stroke="midnightblue" points="136.777,-487.094 147.006,-489.857 140.732,-481.319 136.777,-487.094"/>
</g>
<!-- Node31 -->
<g id="node10" class="node"><title>Node31</title>
<g id="a_node10"><a xlink:href="namespaceregrid__edge__values.html#a6c14843c556353d86f2efb4c7c74c9f5" target="_top" xlink:title=" ">
<polygon fill="white" stroke="black" points="139.5,-441 139.5,-471 246.5,-471 246.5,-441 139.5,-441"/>
<text text-anchor="start" x="147.5" y="-459" font-family="Helvetica,sans-Serif" font-size="10.00">regrid_edge_values</text>
<text text-anchor="middle" x="193" y="-448" font-family="Helvetica,sans-Serif" font-size="10.00">::edge_values_implicit_h6</text>
</a>
</g>
</g>
<!-- Node22&#45;&gt;Node31 -->
<g id="edge15" class="edge"><title>Node22&#45;&gt;Node31</title>
<path fill="none" stroke="midnightblue" d="M54.9127,-299.004C65.1655,-328.176 91.4812,-393.002 134,-431 135.727,-432.544 137.564,-434.003 139.481,-435.38"/>
<polygon fill="midnightblue" stroke="midnightblue" points="137.974,-438.567 148.306,-440.913 141.693,-432.636 137.974,-438.567"/>
</g>
<!-- Node25 -->
<g id="node4" class="node"><title>Node25</title>
<g id="a_node4"><a xlink:href="namespacemom__error__handler.html#a460cfb79a06c29fc249952c2a3710d67" target="_top" xlink:title=" ">
<polygon fill="white" stroke="black" points="424.5,-512 424.5,-542 517.5,-542 517.5,-512 424.5,-512"/>
<text text-anchor="start" x="432.5" y="-530" font-family="Helvetica,sans-Serif" font-size="10.00">mom_error_handler::</text>
<text text-anchor="middle" x="471" y="-519" font-family="Helvetica,sans-Serif" font-size="10.00">mom_error</text>
</a>
</g>
</g>
<!-- Node22&#45;&gt;Node25 -->
<g id="edge19" class="edge"><title>Node22&#45;&gt;Node25</title>
<path fill="none" stroke="midnightblue" d="M49.7181,-299.253C49.8271,-343.794 56.9786,-473.985 134,-529 217.645,-588.747 345.335,-565.295 416.804,-544.873"/>
<polygon fill="midnightblue" stroke="midnightblue" points="417.899,-548.199 426.505,-542.02 415.924,-541.484 417.899,-548.199"/>
</g>
<!-- Node32 -->
<g id="node11" class="node"><title>Node32</title>
<g id="a_node11"><a xlink:href="namespacepcm__functions.html#a273c33619766b17e1bea2f9bbc1d5e1b" target="_top" xlink:title=" ">
<polygon fill="white" stroke="black" points="149.5,-294 149.5,-324 236.5,-324 236.5,-294 149.5,-294"/>
<text text-anchor="start" x="157.5" y="-312" font-family="Helvetica,sans-Serif" font-size="10.00">pcm_functions::pcm</text>
<text text-anchor="middle" x="193" y="-301" font-family="Helvetica,sans-Serif" font-size="10.00">_reconstruction</text>
</a>
</g>
</g>
<!-- Node22&#45;&gt;Node32 -->
<g id="edge20" class="edge"><title>Node22&#45;&gt;Node32</title>
<path fill="none" stroke="midnightblue" d="M98.0747,-292.464C111.283,-294.789 125.676,-297.323 139.138,-299.693"/>
<polygon fill="midnightblue" stroke="midnightblue" points="138.759,-303.18 149.215,-301.467 139.973,-296.286 138.759,-303.18"/>
</g>
<!-- Node33 -->
<g id="node12" class="node"><title>Node33</title>
<g id="a_node12"><a xlink:href="namespaceplm__functions.html#a66dd52e70d72fb5830f9c4fb16efb2e8" target="_top" xlink:title=" ">
<polygon fill="white" stroke="black" points="140.5,-245 140.5,-275 245.5,-275 245.5,-245 140.5,-245"/>
<text text-anchor="start" x="148.5" y="-263" font-family="Helvetica,sans-Serif" font-size="10.00">plm_functions::plm</text>
<text text-anchor="middle" x="193" y="-252" font-family="Helvetica,sans-Serif" font-size="10.00">_boundary_extrapolation</text>
</a>
</g>
</g>
<!-- Node22&#45;&gt;Node33 -->
<g id="edge21" class="edge"><title>Node22&#45;&gt;Node33</title>
<path fill="none" stroke="midnightblue" d="M98.0747,-275.875C108.318,-274.143 119.275,-272.292 129.957,-270.486"/>
<polygon fill="midnightblue" stroke="midnightblue" points="130.805,-273.893 140.082,-268.775 129.638,-266.99 130.805,-273.893"/>
</g>
<!-- Node34 -->
<g id="node13" class="node"><title>Node34</title>
<g id="a_node13"><a xlink:href="namespaceplm__functions.html#abf6acfcb1bef51f0c1f8682de53782c4" target="_top" xlink:title=" ">
<polygon fill="white" stroke="black" points="151.5,-196 151.5,-226 234.5,-226 234.5,-196 151.5,-196"/>
<text text-anchor="start" x="159.5" y="-214" font-family="Helvetica,sans-Serif" font-size="10.00">plm_functions::plm</text>
<text text-anchor="middle" x="193" y="-203" font-family="Helvetica,sans-Serif" font-size="10.00">_reconstruction</text>
</a>
</g>
</g>
<!-- Node22&#45;&gt;Node34 -->
<g id="edge22" class="edge"><title>Node22&#45;&gt;Node34</title>
<path fill="none" stroke="midnightblue" d="M73.7828,-268.961C90.3466,-258.778 113.125,-245.348 134,-235 137.32,-233.354 140.781,-231.723 144.287,-230.13"/>
<polygon fill="midnightblue" stroke="midnightblue" points="145.868,-233.258 153.607,-226.023 143.045,-226.852 145.868,-233.258"/>
</g>
<!-- Node35 -->
<g id="node14" class="node"><title>Node35</title>
<g id="a_node14"><a xlink:href="namespaceppm__functions.html#aaf88d77ece3a30843c730fd2d57c517f" target="_top" xlink:title=" ">
<polygon fill="white" stroke="black" points="140.5,-147 140.5,-177 245.5,-177 245.5,-147 140.5,-147"/>
<text text-anchor="start" x="148.5" y="-165" font-family="Helvetica,sans-Serif" font-size="10.00">ppm_functions::ppm</text>
<text text-anchor="middle" x="193" y="-154" font-family="Helvetica,sans-Serif" font-size="10.00">_boundary_extrapolation</text>
</a>
</g>
</g>
<!-- Node22&#45;&gt;Node35 -->
<g id="edge23" class="edge"><title>Node22&#45;&gt;Node35</title>
<path fill="none" stroke="midnightblue" d="M59.6482,-268.771C73.71,-247.645 101.706,-209.411 134,-186 135.864,-184.649 137.815,-183.357 139.827,-182.125"/>
<polygon fill="midnightblue" stroke="midnightblue" points="141.88,-184.989 148.947,-177.096 138.5,-178.859 141.88,-184.989"/>
</g>
<!-- Node36 -->
<g id="node15" class="node"><title>Node36</title>
<g id="a_node15"><a xlink:href="namespaceppm__functions.html#a97e2144c7499aacd90858788f1312432" target="_top" xlink:title="Builds quadratic polynomials coefficients from cell mean and edge values.">
<polygon fill="white" stroke="black" points="148.5,-98 148.5,-128 237.5,-128 237.5,-98 148.5,-98"/>
<text text-anchor="start" x="156.5" y="-116" font-family="Helvetica,sans-Serif" font-size="10.00">ppm_functions::ppm</text>
<text text-anchor="middle" x="193" y="-105" font-family="Helvetica,sans-Serif" font-size="10.00">_reconstruction</text>
</a>
</g>
</g>
<!-- Node22&#45;&gt;Node36 -->
<g id="edge24" class="edge"><title>Node22&#45;&gt;Node36</title>
<path fill="none" stroke="midnightblue" d="M54.864,-268.941C65.0314,-239.673 91.2044,-174.686 134,-137 135.728,-135.479 137.565,-134.045 139.483,-132.695"/>
<polygon fill="midnightblue" stroke="midnightblue" points="141.603,-135.5 148.309,-127.297 137.951,-129.528 141.603,-135.5"/>
</g>
<!-- Node40 -->
<g id="node19" class="node"><title>Node40</title>
<g id="a_node19"><a xlink:href="namespacepqm__functions.html#ae2c3bd1b82cddbe1bbb0e93e83d93e48" target="_top" xlink:title=" ">
<polygon fill="white" stroke="black" points="134,-0 134,-30 252,-30 252,-0 134,-0"/>
<text text-anchor="start" x="142" y="-18" font-family="Helvetica,sans-Serif" font-size="10.00">pqm_functions::pqm</text>
<text text-anchor="middle" x="193" y="-7" font-family="Helvetica,sans-Serif" font-size="10.00">_boundary_extrapolation_v1</text>
</a>
</g>
</g>
<!-- Node22&#45;&gt;Node40 -->
<g id="edge28" class="edge"><title>Node22&#45;&gt;Node40</title>
<path fill="none" stroke="midnightblue" d="M50.9713,-268.882C54.4539,-226.869 69.795,-107.317 134,-39 134.903,-38.0396 135.849,-37.1165 136.834,-36.2291"/>
<polygon fill="midnightblue" stroke="midnightblue" points="139.112,-38.8962 145.024,-30.1045 134.92,-33.2903 139.112,-38.8962"/>
</g>
<!-- Node41 -->
<g id="node20" class="node"><title>Node41</title>
<g id="a_node20"><a xlink:href="namespacepqm__functions.html#ada7e1a8d9d70b5b78b5e2dfddb5ffa43" target="_top" xlink:title=" ">
<polygon fill="white" stroke="black" points="148.5,-49 148.5,-79 237.5,-79 237.5,-49 148.5,-49"/>
<text text-anchor="start" x="156.5" y="-67" font-family="Helvetica,sans-Serif" font-size="10.00">pqm_functions::pqm</text>
<text text-anchor="middle" x="193" y="-56" font-family="Helvetica,sans-Serif" font-size="10.00">_reconstruction</text>
</a>
</g>
</g>
<!-- Node22&#45;&gt;Node41 -->
<g id="edge29" class="edge"><title>Node22&#45;&gt;Node41</title>
<path fill="none" stroke="midnightblue" d="M52.4836,-268.799C59.1455,-232.655 80.6581,-140.676 134,-88 135.832,-86.191 137.82,-84.5115 139.919,-82.953"/>
<polygon fill="midnightblue" stroke="midnightblue" points="141.906,-85.837 148.474,-77.5235 138.156,-79.9267 141.906,-85.837"/>
</g>
<!-- Node24 -->
<g id="node3" class="node"><title>Node24</title>
<g id="a_node3"><a xlink:href="namespaceregrid__solvers.html#a8130a338b59de62b00f68da4204568ad" target="_top" xlink:title=" ">
<polygon fill="white" stroke="black" points="293.5,-490 293.5,-520 382.5,-520 382.5,-490 293.5,-490"/>
<text text-anchor="start" x="301.5" y="-508" font-family="Helvetica,sans-Serif" font-size="10.00">regrid_solvers::solve</text>
<text text-anchor="middle" x="338" y="-497" font-family="Helvetica,sans-Serif" font-size="10.00">_linear_system</text>
</a>
</g>
</g>
<!-- Node23&#45;&gt;Node24 -->
<g id="edge2" class="edge"><title>Node23&#45;&gt;Node24</title>
<path fill="none" stroke="midnightblue" d="M236.357,-422.133C241.883,-424.987 247.262,-428.269 252,-432 272.949,-448.5 267.596,-462.83 288,-480 289.781,-481.499 291.667,-482.939 293.622,-484.318"/>
<polygon fill="midnightblue" stroke="midnightblue" points="292.204,-487.563 302.523,-489.964 295.954,-481.652 292.204,-487.563"/>
</g>
<!-- Node27 -->
<g id="node6" class="node"><title>Node27</title>
<g id="a_node6"><a xlink:href="namespacepolynomial__functions.html#aed77465c5ca9937dab06fdb5f94eba39" target="_top" xlink:title=" ">
<polygon fill="white" stroke="black" points="288.5,-441 288.5,-471 387.5,-471 387.5,-441 288.5,-441"/>
<text text-anchor="start" x="296.5" y="-459" font-family="Helvetica,sans-Serif" font-size="10.00">polynomial_functions</text>
<text text-anchor="middle" x="338" y="-448" font-family="Helvetica,sans-Serif" font-size="10.00">::evaluation_polynomial</text>
</a>
</g>
</g>
<!-- Node23&#45;&gt;Node27 -->
<g id="edge5" class="edge"><title>Node23&#45;&gt;Node27</title>
<path fill="none" stroke="midnightblue" d="M238.072,-422.101C252.343,-426.992 268.333,-432.471 283.227,-437.574"/>
<polygon fill="midnightblue" stroke="midnightblue" points="282.233,-440.933 292.828,-440.864 284.502,-434.311 282.233,-440.933"/>
</g>
<!-- Node28 -->
<g id="node7" class="node"><title>Node28</title>
<g id="a_node7"><a xlink:href="namespaceregrid__solvers.html#a0d5c3cff8f31429b0a2c6d267e8b345d" target="_top" xlink:title=" ">
<polygon fill="white" stroke="black" points="293.5,-392 293.5,-422 382.5,-422 382.5,-392 293.5,-392"/>
<text text-anchor="start" x="301.5" y="-410" font-family="Helvetica,sans-Serif" font-size="10.00">regrid_solvers::solve</text>
<text text-anchor="middle" x="338" y="-399" font-family="Helvetica,sans-Serif" font-size="10.00">_tridiagonal_system</text>
</a>
</g>
</g>
<!-- Node23&#45;&gt;Node28 -->
<g id="edge6" class="edge"><title>Node23&#45;&gt;Node28</title>
<path fill="none" stroke="midnightblue" d="M246.842,-407C258.656,-407 271.202,-407 283.061,-407"/>
<polygon fill="midnightblue" stroke="midnightblue" points="283.27,-410.5 293.27,-407 283.27,-403.5 283.27,-410.5"/>
</g>
<!-- Node24&#45;&gt;Node25 -->
<g id="edge3" class="edge"><title>Node24&#45;&gt;Node25</title>
<path fill="none" stroke="midnightblue" d="M382.621,-512.326C392.774,-514.031 403.719,-515.869 414.313,-517.648"/>
<polygon fill="midnightblue" stroke="midnightblue" points="413.885,-521.125 424.326,-519.33 415.044,-514.222 413.885,-521.125"/>
</g>
<!-- Node26 -->
<g id="node5" class="node"><title>Node26</title>
<g id="a_node5"><a xlink:href="namespacemom__error__handler.html#ad5f00a53059c72fe2332d1436c80ca71" target="_top" xlink:title=" ">
<polygon fill="white" stroke="black" points="554.5,-512 554.5,-542 647.5,-542 647.5,-512 554.5,-512"/>
<text text-anchor="start" x="562.5" y="-530" font-family="Helvetica,sans-Serif" font-size="10.00">mom_error_handler::</text>
<text text-anchor="middle" x="601" y="-519" font-family="Helvetica,sans-Serif" font-size="10.00">is_root_pe</text>
</a>
</g>
</g>
<!-- Node25&#45;&gt;Node26 -->
<g id="edge4" class="edge"><title>Node25&#45;&gt;Node26</title>
<path fill="none" stroke="midnightblue" d="M517.849,-527C526.408,-527 535.439,-527 544.258,-527"/>
<polygon fill="midnightblue" stroke="midnightblue" points="544.471,-530.5 554.471,-527 544.471,-523.5 544.471,-530.5"/>
</g>
<!-- Node29&#45;&gt;Node24 -->
<g id="edge8" class="edge"><title>Node29&#45;&gt;Node24</title>
<path fill="none" stroke="midnightblue" d="M239.469,-373.135C244.071,-375.919 248.376,-379.184 252,-383 283.666,-416.344 257.431,-445.648 288,-480 289.032,-481.159 290.13,-482.272 291.282,-483.34"/>
<polygon fill="midnightblue" stroke="midnightblue" points="289.487,-486.377 299.533,-489.743 293.778,-480.847 289.487,-486.377"/>
</g>
<!-- Node29&#45;&gt;Node27 -->
<g id="edge9" class="edge"><title>Node29&#45;&gt;Node27</title>
<path fill="none" stroke="midnightblue" d="M236.357,-373.133C241.883,-375.987 247.262,-379.269 252,-383 272.949,-399.5 267.596,-413.83 288,-431 289.781,-432.499 291.667,-433.939 293.622,-435.318"/>
<polygon fill="midnightblue" stroke="midnightblue" points="292.204,-438.563 302.523,-440.964 295.954,-432.652 292.204,-438.563"/>
</g>
<!-- Node29&#45;&gt;Node28 -->
<g id="edge10" class="edge"><title>Node29&#45;&gt;Node28</title>
<path fill="none" stroke="midnightblue" d="M238.072,-373.101C252.478,-378.038 268.635,-383.574 283.649,-388.719"/>
<polygon fill="midnightblue" stroke="midnightblue" points="282.725,-392.102 293.32,-392.033 284.994,-385.48 282.725,-392.102"/>
</g>
<!-- Node30&#45;&gt;Node24 -->
<g id="edge12" class="edge"><title>Node30&#45;&gt;Node24</title>
<path fill="none" stroke="midnightblue" d="M246.842,-505C258.656,-505 271.202,-505 283.061,-505"/>
<polygon fill="midnightblue" stroke="midnightblue" points="283.27,-508.5 293.27,-505 283.27,-501.5 283.27,-508.5"/>
</g>
<!-- Node30&#45;&gt;Node27 -->
<g id="edge13" class="edge"><title>Node30&#45;&gt;Node27</title>
<path fill="none" stroke="midnightblue" d="M238.072,-489.899C252.343,-485.008 268.333,-479.529 283.227,-474.426"/>
<polygon fill="midnightblue" stroke="midnightblue" points="284.502,-477.689 292.828,-471.136 282.233,-471.067 284.502,-477.689"/>
</g>
<!-- Node30&#45;&gt;Node28 -->
<g id="edge14" class="edge"><title>Node30&#45;&gt;Node28</title>
<path fill="none" stroke="midnightblue" d="M236.357,-489.867C241.883,-487.013 247.262,-483.731 252,-480 272.949,-463.5 267.596,-449.17 288,-432 289.781,-430.501 291.667,-429.061 293.622,-427.682"/>
<polygon fill="midnightblue" stroke="midnightblue" points="295.954,-430.348 302.523,-422.036 292.204,-424.437 295.954,-430.348"/>
</g>
<!-- Node31&#45;&gt;Node24 -->
<g id="edge16" class="edge"><title>Node31&#45;&gt;Node24</title>
<path fill="none" stroke="midnightblue" d="M238.072,-471.101C252.478,-476.038 268.635,-481.574 283.649,-486.719"/>
<polygon fill="midnightblue" stroke="midnightblue" points="282.725,-490.102 293.32,-490.033 284.994,-483.48 282.725,-490.102"/>
</g>
<!-- Node31&#45;&gt;Node27 -->
<g id="edge17" class="edge"><title>Node31&#45;&gt;Node27</title>
<path fill="none" stroke="midnightblue" d="M246.842,-456C256.986,-456 267.669,-456 277.993,-456"/>
<polygon fill="midnightblue" stroke="midnightblue" points="278.164,-459.5 288.164,-456 278.164,-452.5 278.164,-459.5"/>
</g>
<!-- Node31&#45;&gt;Node28 -->
<g id="edge18" class="edge"><title>Node31&#45;&gt;Node28</title>
<path fill="none" stroke="midnightblue" d="M238.072,-440.899C252.478,-435.962 268.635,-430.426 283.649,-425.281"/>
<polygon fill="midnightblue" stroke="midnightblue" points="284.994,-428.52 293.32,-421.967 282.725,-421.898 284.994,-428.52"/>
</g>
<!-- Node37 -->
<g id="node16" class="node"><title>Node37</title>
<g id="a_node16"><a xlink:href="namespaceppm__functions.html#a89920c90b84f0b241c5a6d65fe2870b9" target="_top" xlink:title="Adjusts edge values using the standard PPM limiter (Colella &amp; Woodward, JCP 1984) after first checkin...">
<polygon fill="white" stroke="black" points="293.5,-98 293.5,-128 382.5,-128 382.5,-98 293.5,-98"/>
<text text-anchor="start" x="301.5" y="-116" font-family="Helvetica,sans-Serif" font-size="10.00">ppm_functions::ppm</text>
<text text-anchor="middle" x="338" y="-105" font-family="Helvetica,sans-Serif" font-size="10.00">_limiter_standard</text>
</a>
</g>
</g>
<!-- Node36&#45;&gt;Node37 -->
<g id="edge25" class="edge"><title>Node36&#45;&gt;Node37</title>
<path fill="none" stroke="midnightblue" d="M237.682,-113C251.963,-113 267.999,-113 282.95,-113"/>
<polygon fill="midnightblue" stroke="midnightblue" points="283.093,-116.5 293.093,-113 283.093,-109.5 283.093,-116.5"/>
</g>
<!-- Node38 -->
<g id="node17" class="node"><title>Node38</title>
<g id="a_node17"><a xlink:href="namespaceregrid__edge__values.html#aa204fe78ee22cae62f2b7f1bc76151a9" target="_top" xlink:title=" ">
<polygon fill="white" stroke="black" points="424.5,-46 424.5,-76 517.5,-76 517.5,-46 424.5,-46"/>
<text text-anchor="start" x="432.5" y="-64" font-family="Helvetica,sans-Serif" font-size="10.00">regrid_edge_values</text>
<text text-anchor="middle" x="471" y="-53" font-family="Helvetica,sans-Serif" font-size="10.00">::bound_edge_values</text>
</a>
</g>
</g>
<!-- Node37&#45;&gt;Node38 -->
<g id="edge26" class="edge"><title>Node37&#45;&gt;Node38</title>
<path fill="none" stroke="midnightblue" d="M376.891,-97.9594C391.148,-92.3002 407.541,-85.793 422.56,-79.8313"/>
<polygon fill="midnightblue" stroke="midnightblue" points="424.191,-82.9493 432.195,-76.0068 421.609,-76.4432 424.191,-82.9493"/>
</g>
<!-- Node39 -->
<g id="node18" class="node"><title>Node39</title>
<g id="a_node18"><a xlink:href="namespaceregrid__edge__values.html#acbdacbbf7212e538bb52a9729fc949a7" target="_top" xlink:title=" ">
<polygon fill="white" stroke="black" points="424,-95.5 424,-136.5 518,-136.5 518,-95.5 424,-95.5"/>
<text text-anchor="start" x="432" y="-124.5" font-family="Helvetica,sans-Serif" font-size="10.00">regrid_edge_values</text>
<text text-anchor="start" x="432" y="-113.5" font-family="Helvetica,sans-Serif" font-size="10.00">::check_discontinuous</text>
<text text-anchor="middle" x="471" y="-102.5" font-family="Helvetica,sans-Serif" font-size="10.00">_edge_values</text>
</a>
</g>
</g>
<!-- Node37&#45;&gt;Node39 -->
<g id="edge27" class="edge"><title>Node37&#45;&gt;Node39</title>
<path fill="none" stroke="midnightblue" d="M382.621,-113.999C392.557,-114.227 403.253,-114.471 413.636,-114.709"/>
<polygon fill="midnightblue" stroke="midnightblue" points="413.797,-118.214 423.875,-114.944 413.958,-111.216 413.797,-118.214"/>
</g>
<!-- Node42 -->
<g id="node21" class="node"><title>Node42</title>
<g id="a_node21"><a xlink:href="namespacepqm__functions.html#a0ce0d64922453de1312adec7b8746544" target="_top" xlink:title=" ">
<polygon fill="white" stroke="black" points="293.5,-49 293.5,-79 382.5,-79 382.5,-49 293.5,-49"/>
<text text-anchor="start" x="301.5" y="-67" font-family="Helvetica,sans-Serif" font-size="10.00">pqm_functions::pqm</text>
<text text-anchor="middle" x="338" y="-56" font-family="Helvetica,sans-Serif" font-size="10.00">_limiter</text>
</a>
</g>
</g>
<!-- Node41&#45;&gt;Node42 -->
<g id="edge30" class="edge"><title>Node41&#45;&gt;Node42</title>
<path fill="none" stroke="midnightblue" d="M237.682,-64C251.963,-64 267.999,-64 282.95,-64"/>
<polygon fill="midnightblue" stroke="midnightblue" points="283.093,-67.5001 293.093,-64 283.093,-60.5001 283.093,-67.5001"/>
</g>
<!-- Node42&#45;&gt;Node38 -->
<g id="edge31" class="edge"><title>Node42&#45;&gt;Node38</title>
<path fill="none" stroke="midnightblue" d="M382.621,-63.001C392.774,-62.7685 403.719,-62.5179 414.313,-62.2753"/>
<polygon fill="midnightblue" stroke="midnightblue" points="414.409,-65.7741 424.326,-62.046 414.249,-58.7759 414.409,-65.7741"/>
</g>
<!-- Node42&#45;&gt;Node39 -->
<g id="edge32" class="edge"><title>Node42&#45;&gt;Node39</title>
<path fill="none" stroke="midnightblue" d="M376.891,-79.0406C388.573,-83.6776 401.689,-88.884 414.308,-93.8931"/>
<polygon fill="midnightblue" stroke="midnightblue" points="413.243,-97.2361 423.829,-97.6725 415.825,-90.7299 413.243,-97.2361"/>
</g>
</g>
</svg>
