<?xml version="1.0" encoding="UTF-8" standalone="no"?>
<!DOCTYPE svg PUBLIC "-//W3C//DTD SVG 1.1//EN"
 "http://www.w3.org/Graphics/SVG/1.1/DTD/svg11.dtd">
<!-- Generated by graphviz version 2.30.1 (20170916.1124)
 -->
<!-- Title: mom_mixed_layer_restrat::mixedlayer_restrat_general Pages: 1 -->
<svg width="274pt" height="38pt"
 viewBox="0.00 0.00 274.00 38.00" xmlns="http://www.w3.org/2000/svg" xmlns:xlink="http://www.w3.org/1999/xlink">
<g id="graph0" class="graph" transform="scale(1 1) rotate(0) translate(4 34)">
<title>mom_mixed_layer_restrat::mixedlayer_restrat_general</title>
<polygon fill="white" stroke="white" points="-4,5 -4,-34 271,-34 271,5 -4,5"/>
<!-- Node17 -->
<g id="node1" class="node"><title>Node17</title>
<g id="a_node1"><a xlink:title="This subroutine does interface depth diffusion. The fluxes are limited to give positive definiteness,...">
<polygon fill="#bfbfbf" stroke="black" points="146.5,-0 146.5,-30 265.5,-30 265.5,-0 146.5,-0"/>
<text text-anchor="start" x="154.5" y="-18" font-family="Helvetica,sans-Serif" font-size="10.00">mom_mixed_layer_restrat</text>
<text text-anchor="middle" x="206" y="-7" font-family="Helvetica,sans-Serif" font-size="10.00">::mixedlayer_restrat_general</text>
</a>
</g>
</g>
<!-- Node18 -->
<g id="node2" class="node"><title>Node18</title>
<g id="a_node2"><a xlink:href="namespacemom__mixed__layer__restrat.html#a27efc1d26cdf8b66108c3dad047bbb91" target="_top" xlink:title="This subroutine does interface depth diffusion. The fluxes are limited to give positive definiteness,...">
<polygon fill="white" stroke="black" points="0,-0 0,-30 110,-30 110,-0 0,-0"/>
<text text-anchor="start" x="8" y="-18" font-family="Helvetica,sans-Serif" font-size="10.00">mom_mixed_layer_restrat</text>
<text text-anchor="middle" x="55" y="-7" font-family="Helvetica,sans-Serif" font-size="10.00">::mixedlayer_restrat</text>
</a>
</g>
</g>
<!-- Node17&#45;&gt;Node18 -->
<g id="edge1" class="edge"><title>Node17&#45;&gt;Node18</title>
<path fill="none" stroke="midnightblue" d="M135.988,-15C127.301,-15 118.513,-15 110.102,-15"/>
<polygon fill="midnightblue" stroke="midnightblue" points="136.111,-18.5001 146.111,-15 136.111,-11.5001 136.111,-18.5001"/>
</g>
</g>
</svg>
