<?xml version="1.0" encoding="UTF-8" standalone="no"?>
<!DOCTYPE svg PUBLIC "-//W3C//DTD SVG 1.1//EN"
 "http://www.w3.org/Graphics/SVG/1.1/DTD/svg11.dtd">
<!-- Generated by graphviz version 2.30.1 (20170916.1124)
 -->
<!-- Title: mom_checksums::is_nan_0d Pages: 1 -->
<svg width="284pt" height="104pt"
 viewBox="0.00 0.00 284.00 104.00" xmlns="http://www.w3.org/2000/svg" xmlns:xlink="http://www.w3.org/1999/xlink">
<g id="graph0" class="graph" transform="scale(1 1) rotate(0) translate(4 100)">
<title>mom_checksums::is_nan_0d</title>
<polygon fill="white" stroke="white" points="-4,5 -4,-100 281,-100 281,5 -4,5"/>
<!-- Node106 -->
<g id="node1" class="node"><title>Node106</title>
<g id="a_node1"><a xlink:title="This function returns .true. if x is a NaN, and .false. otherwise.">
<polygon fill="#bfbfbf" stroke="black" points="156.5,-38.5 156.5,-57.5 275.5,-57.5 275.5,-38.5 156.5,-38.5"/>
<text text-anchor="middle" x="216" y="-45.5" font-family="Helvetica,sans-Serif" font-size="10.00">mom_checksums::is_nan_0d</text>
</a>
</g>
</g>
<!-- Node107 -->
<g id="node2" class="node"><title>Node107</title>
<g id="a_node2"><a xlink:href="namespacemom__checksums.html#a2ae26d49eb294b8b0e6872cc1642eb4b" target="_top" xlink:title="This function returns .true. if any element of x is a NaN, and .false. otherwise.">
<polygon fill="white" stroke="black" points="0.5,-76.5 0.5,-95.5 119.5,-95.5 119.5,-76.5 0.5,-76.5"/>
<text text-anchor="middle" x="60" y="-83.5" font-family="Helvetica,sans-Serif" font-size="10.00">mom_checksums::is_nan_1d</text>
</a>
</g>
</g>
<!-- Node106&#45;&gt;Node107 -->
<g id="edge1" class="edge"><title>Node106&#45;&gt;Node107</title>
<path fill="none" stroke="midnightblue" d="M166.206,-60.04C144.692,-65.3488 119.768,-71.4988 99.5813,-76.4799"/>
<polygon fill="midnightblue" stroke="midnightblue" points="167.269,-63.3828 176.139,-57.589 165.592,-56.5867 167.269,-63.3828"/>
</g>
<!-- Node108 -->
<g id="node3" class="node"><title>Node108</title>
<g id="a_node3"><a xlink:href="namespacemom__checksums.html#ae5399b160c30b9e0d9a806af7e322f8e" target="_top" xlink:title="This function returns .true. if any element of x is a NaN, and .false. otherwise.">
<polygon fill="white" stroke="black" points="0.5,-38.5 0.5,-57.5 119.5,-57.5 119.5,-38.5 0.5,-38.5"/>
<text text-anchor="middle" x="60" y="-45.5" font-family="Helvetica,sans-Serif" font-size="10.00">mom_checksums::is_nan_2d</text>
</a>
</g>
</g>
<!-- Node106&#45;&gt;Node108 -->
<g id="edge2" class="edge"><title>Node106&#45;&gt;Node108</title>
<path fill="none" stroke="midnightblue" d="M146.106,-48C137.309,-48 128.369,-48 119.752,-48"/>
<polygon fill="midnightblue" stroke="midnightblue" points="146.34,-51.5001 156.34,-48 146.34,-44.5001 146.34,-51.5001"/>
</g>
<!-- Node109 -->
<g id="node4" class="node"><title>Node109</title>
<g id="a_node4"><a xlink:href="namespacemom__checksums.html#a1cfab80ba102a9eb5b77d6c5db2a298a" target="_top" xlink:title="This function returns .true. if any element of x is a NaN, and .false. otherwise.">
<polygon fill="white" stroke="black" points="0.5,-0.5 0.5,-19.5 119.5,-19.5 119.5,-0.5 0.5,-0.5"/>
<text text-anchor="middle" x="60" y="-7.5" font-family="Helvetica,sans-Serif" font-size="10.00">mom_checksums::is_nan_3d</text>
</a>
</g>
</g>
<!-- Node106&#45;&gt;Node109 -->
<g id="edge3" class="edge"><title>Node106&#45;&gt;Node109</title>
<path fill="none" stroke="midnightblue" d="M166.206,-35.96C144.692,-30.6512 119.768,-24.5012 99.5813,-19.5201"/>
<polygon fill="midnightblue" stroke="midnightblue" points="165.592,-39.4133 176.139,-38.411 167.269,-32.6172 165.592,-39.4133"/>
</g>
</g>
</svg>
