<?xml version="1.0" encoding="UTF-8" standalone="no"?>
<!DOCTYPE svg PUBLIC "-//W3C//DTD SVG 1.1//EN"
 "http://www.w3.org/Graphics/SVG/1.1/DTD/svg11.dtd">
<!-- Generated by graphviz version 2.30.1 (20170916.1124)
 -->
<!-- Title: mom_meke::meke_alloc_register_restart Pages: 1 -->
<svg width="778pt" height="153pt"
 viewBox="0.00 0.00 778.00 153.00" xmlns="http://www.w3.org/2000/svg" xmlns:xlink="http://www.w3.org/1999/xlink">
<g id="graph0" class="graph" transform="scale(1 1) rotate(0) translate(4 149)">
<title>mom_meke::meke_alloc_register_restart</title>
<polygon fill="white" stroke="white" points="-4,5 -4,-149 775,-149 775,5 -4,5"/>
<!-- Node0 -->
<g id="node1" class="node"><title>Node0</title>
<g id="a_node1"><a xlink:title="Allocates memory and register restart fields for the MOM_MEKE module.">
<polygon fill="#bfbfbf" stroke="black" points="0.5,-44 0.5,-74 103.5,-74 103.5,-44 0.5,-44"/>
<text text-anchor="start" x="8.5" y="-62" font-family="Helvetica,sans-Serif" font-size="10.00">mom_meke::meke_alloc</text>
<text text-anchor="middle" x="52" y="-51" font-family="Helvetica,sans-Serif" font-size="10.00">_register_restart</text>
</a>
</g>
</g>
<!-- Node1 -->
<g id="node2" class="node"><title>Node1</title>
<g id="a_node2"><a xlink:href="namespacemom__error__handler.html#a460cfb79a06c29fc249952c2a3710d67" target="_top" xlink:title=" ">
<polygon fill="white" stroke="black" points="546.5,-44 546.5,-74 639.5,-74 639.5,-44 546.5,-44"/>
<text text-anchor="start" x="554.5" y="-62" font-family="Helvetica,sans-Serif" font-size="10.00">mom_error_handler::</text>
<text text-anchor="middle" x="593" y="-51" font-family="Helvetica,sans-Serif" font-size="10.00">mom_error</text>
</a>
</g>
</g>
<!-- Node0&#45;&gt;Node1 -->
<g id="edge1" class="edge"><title>Node0&#45;&gt;Node1</title>
<path fill="none" stroke="midnightblue" d="M103.708,-59C204.902,-59 431.195,-59 536.333,-59"/>
<polygon fill="midnightblue" stroke="midnightblue" points="536.425,-62.5001 546.425,-59 536.425,-55.5001 536.425,-62.5001"/>
</g>
<!-- Node3 -->
<g id="node4" class="node"><title>Node3</title>
<g id="a_node4"><a xlink:href="namespacemom__error__handler.html#a1c462df7b61f1296407b4af51dfeceab" target="_top" xlink:title=" ">
<polygon fill="white" stroke="black" points="264.5,-0 264.5,-30 357.5,-30 357.5,-0 264.5,-0"/>
<text text-anchor="start" x="272.5" y="-18" font-family="Helvetica,sans-Serif" font-size="10.00">mom_error_handler::</text>
<text text-anchor="middle" x="311" y="-7" font-family="Helvetica,sans-Serif" font-size="10.00">mom_mesg</text>
</a>
</g>
</g>
<!-- Node0&#45;&gt;Node3 -->
<g id="edge3" class="edge"><title>Node0&#45;&gt;Node3</title>
<path fill="none" stroke="midnightblue" d="M103.775,-50.307C147.203,-42.8718 209.603,-32.1885 254.374,-24.5236"/>
<polygon fill="midnightblue" stroke="midnightblue" points="255.232,-27.9277 264.498,-22.7903 254.05,-21.0281 255.232,-27.9277"/>
</g>
<!-- Node4 -->
<g id="node5" class="node"><title>Node4</title>
<g id="a_node5"><a xlink:href="namespacemom__io.html#a39c3ccc06bb1a6e446af2ee9010eba16" target="_top" xlink:title="Returns a vardesc type whose elements have been filled with the provided fields. The argument name is...">
<polygon fill="white" stroke="black" points="140,-87.5 140,-106.5 222,-106.5 222,-87.5 140,-87.5"/>
<text text-anchor="middle" x="181" y="-94.5" font-family="Helvetica,sans-Serif" font-size="10.00">mom_io::var_desc</text>
</a>
</g>
</g>
<!-- Node0&#45;&gt;Node4 -->
<g id="edge5" class="edge"><title>Node0&#45;&gt;Node4</title>
<path fill="none" stroke="midnightblue" d="M103.194,-74.0186C114.884,-77.5165 127.204,-81.2028 138.472,-84.5742"/>
<polygon fill="midnightblue" stroke="midnightblue" points="137.476,-87.9297 148.06,-87.4432 139.483,-81.2234 137.476,-87.9297"/>
</g>
<!-- Node2 -->
<g id="node3" class="node"><title>Node2</title>
<g id="a_node3"><a xlink:href="namespacemom__error__handler.html#ad5f00a53059c72fe2332d1436c80ca71" target="_top" xlink:title=" ">
<polygon fill="white" stroke="black" points="676.5,-22 676.5,-52 769.5,-52 769.5,-22 676.5,-22"/>
<text text-anchor="start" x="684.5" y="-40" font-family="Helvetica,sans-Serif" font-size="10.00">mom_error_handler::</text>
<text text-anchor="middle" x="723" y="-29" font-family="Helvetica,sans-Serif" font-size="10.00">is_root_pe</text>
</a>
</g>
</g>
<!-- Node1&#45;&gt;Node2 -->
<g id="edge2" class="edge"><title>Node1&#45;&gt;Node2</title>
<path fill="none" stroke="midnightblue" d="M639.849,-51.1196C648.501,-49.6326 657.636,-48.0626 666.545,-46.5313"/>
<polygon fill="midnightblue" stroke="midnightblue" points="667.208,-49.9688 676.471,-44.8253 666.022,-43.0699 667.208,-49.9688"/>
</g>
<!-- Node3&#45;&gt;Node2 -->
<g id="edge4" class="edge"><title>Node3&#45;&gt;Node2</title>
<path fill="none" stroke="midnightblue" d="M357.839,-17.4596C433.586,-21.5241 584.616,-29.6282 666.359,-34.0144"/>
<polygon fill="midnightblue" stroke="midnightblue" points="666.283,-37.5152 676.456,-34.5562 666.658,-30.5253 666.283,-37.5152"/>
</g>
<!-- Node5 -->
<g id="node6" class="node"><title>Node5</title>
<g id="a_node6"><a xlink:href="namespacemom__io.html#af96b29cb8410d557e8e452b81586223b" target="_top" xlink:title="This routine modifies the named elements of a vardesc type. All arguments are optional,...">
<polygon fill="white" stroke="black" points="258.5,-125.5 258.5,-144.5 363.5,-144.5 363.5,-125.5 258.5,-125.5"/>
<text text-anchor="middle" x="311" y="-132.5" font-family="Helvetica,sans-Serif" font-size="10.00">mom_io::modify_vardesc</text>
</a>
</g>
</g>
<!-- Node4&#45;&gt;Node5 -->
<g id="edge6" class="edge"><title>Node4&#45;&gt;Node5</title>
<path fill="none" stroke="midnightblue" d="M214.3,-106.589C230.52,-111.404 250.375,-117.299 267.787,-122.468"/>
<polygon fill="midnightblue" stroke="midnightblue" points="267.128,-125.923 277.711,-125.414 269.12,-119.213 267.128,-125.923"/>
</g>
<!-- Node6 -->
<g id="node7" class="node"><title>Node6</title>
<g id="a_node7"><a xlink:href="namespacemom__io.html#ac4bc408e8b38dbd669842753f26ebf88" target="_top" xlink:title="Copies a string.">
<polygon fill="white" stroke="black" points="400,-87.5 400,-106.5 510,-106.5 510,-87.5 400,-87.5"/>
<text text-anchor="middle" x="455" y="-94.5" font-family="Helvetica,sans-Serif" font-size="10.00">mom_io::safe_string_copy</text>
</a>
</g>
</g>
<!-- Node4&#45;&gt;Node6 -->
<g id="edge9" class="edge"><title>Node4&#45;&gt;Node6</title>
<path fill="none" stroke="midnightblue" d="M222.135,-97C266.19,-97 337.554,-97 389.487,-97"/>
<polygon fill="midnightblue" stroke="midnightblue" points="389.6,-100.5 399.6,-97 389.6,-93.5001 389.6,-100.5"/>
</g>
<!-- Node5&#45;&gt;Node6 -->
<g id="edge7" class="edge"><title>Node5&#45;&gt;Node6</title>
<path fill="none" stroke="midnightblue" d="M347.833,-125.411C366.163,-120.506 388.678,-114.48 408.25,-109.243"/>
<polygon fill="midnightblue" stroke="midnightblue" points="409.424,-112.552 418.179,-106.586 407.614,-105.79 409.424,-112.552"/>
</g>
<!-- Node6&#45;&gt;Node1 -->
<g id="edge8" class="edge"><title>Node6&#45;&gt;Node1</title>
<path fill="none" stroke="midnightblue" d="M490.319,-87.411C504.261,-83.5152 520.731,-78.9133 536.31,-74.5604"/>
<polygon fill="midnightblue" stroke="midnightblue" points="537.694,-77.8079 546.383,-71.7459 535.81,-71.0662 537.694,-77.8079"/>
</g>
</g>
</svg>
