<?xml version="1.0" encoding="UTF-8" standalone="no"?>
<!DOCTYPE svg PUBLIC "-//W3C//DTD SVG 1.1//EN"
 "http://www.w3.org/Graphics/SVG/1.1/DTD/svg11.dtd">
<!-- Generated by graphviz version 2.30.1 (20170916.1124)
 -->
<!-- Title: mom_barotropic::set_dtbt Pages: 1 -->
<svg width="282pt" height="77pt"
 viewBox="0.00 0.00 282.00 77.00" xmlns="http://www.w3.org/2000/svg" xmlns:xlink="http://www.w3.org/1999/xlink">
<g id="graph0" class="graph" transform="scale(1 1) rotate(0) translate(4 73)">
<title>mom_barotropic::set_dtbt</title>
<polygon fill="white" stroke="white" points="-4,5 -4,-73 279,-73 279,5 -4,5"/>
<!-- Node92 -->
<g id="node1" class="node"><title>Node92</title>
<g id="a_node1"><a xlink:title=" ">
<polygon fill="#bfbfbf" stroke="black" points="166,-27.5 166,-46.5 274,-46.5 274,-27.5 166,-27.5"/>
<text text-anchor="middle" x="220" y="-34.5" font-family="Helvetica,sans-Serif" font-size="10.00">mom_barotropic::set_dtbt</text>
</a>
</g>
</g>
<!-- Node93 -->
<g id="node2" class="node"><title>Node93</title>
<g id="a_node2"><a xlink:href="namespacemom__barotropic.html#a8bf1849bbd33dbc234b6eeae40392ded" target="_top" xlink:title=" ">
<polygon fill="white" stroke="black" points="0,-49.5 0,-68.5 130,-68.5 130,-49.5 0,-49.5"/>
<text text-anchor="middle" x="65" y="-56.5" font-family="Helvetica,sans-Serif" font-size="10.00">mom_barotropic::barotropic_init</text>
</a>
</g>
</g>
<!-- Node92&#45;&gt;Node93 -->
<g id="edge1" class="edge"><title>Node92&#45;&gt;Node93</title>
<path fill="none" stroke="midnightblue" d="M155.998,-46.059C147.435,-47.2904 138.638,-48.5553 130.056,-49.7893"/>
<polygon fill="midnightblue" stroke="midnightblue" points="156.517,-49.5205 165.917,-44.6328 155.521,-42.5918 156.517,-49.5205"/>
</g>
<!-- Node94 -->
<g id="node3" class="node"><title>Node94</title>
<g id="a_node3"><a xlink:href="namespacemom__dynamics__split__rk2.html#a81cce65643a8cf94979d68354a9a1979" target="_top" xlink:title="RK2 splitting for time stepping MOM adiabatic dynamics.">
<polygon fill="white" stroke="black" points="2.5,-0 2.5,-30 127.5,-30 127.5,-0 2.5,-0"/>
<text text-anchor="start" x="10.5" y="-18" font-family="Helvetica,sans-Serif" font-size="10.00">mom_dynamics_split</text>
<text text-anchor="middle" x="65" y="-7" font-family="Helvetica,sans-Serif" font-size="10.00">_rk2::step_mom_dyn_split_rk2</text>
</a>
</g>
</g>
<!-- Node92&#45;&gt;Node94 -->
<g id="edge2" class="edge"><title>Node92&#45;&gt;Node94</title>
<path fill="none" stroke="midnightblue" d="M155.919,-27.9296C146.58,-26.5867 136.966,-25.2042 127.657,-23.8656"/>
<polygon fill="midnightblue" stroke="midnightblue" points="155.521,-31.4082 165.917,-29.3672 156.517,-24.4795 155.521,-31.4082"/>
</g>
</g>
</svg>
