<?xml version="1.0" encoding="UTF-8" standalone="no"?>
<!DOCTYPE svg PUBLIC "-//W3C//DTD SVG 1.1//EN"
 "http://www.w3.org/Graphics/SVG/1.1/DTD/svg11.dtd">
<!-- Generated by graphviz version 2.30.1 (20170916.1124)
 -->
<!-- Title: mom_tidal_forcing::calc_tidal_forcing Pages: 1 -->
<svg width="402pt" height="185pt"
 viewBox="0.00 0.00 402.00 185.00" xmlns="http://www.w3.org/2000/svg" xmlns:xlink="http://www.w3.org/1999/xlink">
<g id="graph0" class="graph" transform="scale(1 1) rotate(0) translate(4 181)">
<title>mom_tidal_forcing::calc_tidal_forcing</title>
<polygon fill="white" stroke="white" points="-4,5 -4,-181 399,-181 399,5 -4,5"/>
<!-- Node1 -->
<g id="node1" class="node"><title>Node1</title>
<g id="a_node1"><a xlink:title=" ">
<polygon fill="#bfbfbf" stroke="black" points="308,-73 308,-103 394,-103 394,-73 308,-73"/>
<text text-anchor="start" x="316" y="-91" font-family="Helvetica,sans-Serif" font-size="10.00">mom_tidal_forcing::</text>
<text text-anchor="middle" x="351" y="-80" font-family="Helvetica,sans-Serif" font-size="10.00">calc_tidal_forcing</text>
</a>
</g>
</g>
<!-- Node2 -->
<g id="node2" class="node"><title>Node2</title>
<g id="a_node2"><a xlink:href="namespacemom__pressureforce__afv.html#a2b38fa4956dd9305ec682fcc64ae32ea" target="_top" xlink:title="Boussinesq analytically&#45;integrated finite volume form of pressure gradient.">
<polygon fill="white" stroke="black" points="150.5,-147 150.5,-177 261.5,-177 261.5,-147 150.5,-147"/>
<text text-anchor="start" x="158.5" y="-165" font-family="Helvetica,sans-Serif" font-size="10.00">mom_pressureforce_afv</text>
<text text-anchor="middle" x="206" y="-154" font-family="Helvetica,sans-Serif" font-size="10.00">::pressureforce_afv_bouss</text>
</a>
</g>
</g>
<!-- Node1&#45;&gt;Node2 -->
<g id="edge1" class="edge"><title>Node1&#45;&gt;Node2</title>
<path fill="none" stroke="midnightblue" d="M320.087,-108.702C305.89,-118.025 288.462,-128.761 272,-137 264.972,-140.517 257.323,-143.86 249.82,-146.891"/>
<polygon fill="midnightblue" stroke="midnightblue" points="322.09,-111.573 328.471,-103.115 318.209,-105.748 322.09,-111.573"/>
</g>
<!-- Node4 -->
<g id="node4" class="node"><title>Node4</title>
<g id="a_node4"><a xlink:href="namespacemom__pressureforce__afv.html#ac872477c8b86d0997199db68a8969466" target="_top" xlink:title="Non&#45;Boussinesq analytically&#45;integrated finite volume form of pressure gradient.">
<polygon fill="white" stroke="black" points="143.5,-98 143.5,-128 268.5,-128 268.5,-98 143.5,-98"/>
<text text-anchor="start" x="151.5" y="-116" font-family="Helvetica,sans-Serif" font-size="10.00">mom_pressureforce_afv</text>
<text text-anchor="middle" x="206" y="-105" font-family="Helvetica,sans-Serif" font-size="10.00">::pressureforce_afv_nonbouss</text>
</a>
</g>
</g>
<!-- Node1&#45;&gt;Node4 -->
<g id="edge3" class="edge"><title>Node1&#45;&gt;Node4</title>
<path fill="none" stroke="midnightblue" d="M297.826,-97.1214C288.361,-98.776 278.409,-100.516 268.702,-102.213"/>
<polygon fill="midnightblue" stroke="midnightblue" points="298.621,-100.536 307.869,-95.3656 297.415,-93.6401 298.621,-100.536"/>
</g>
<!-- Node5 -->
<g id="node5" class="node"><title>Node5</title>
<g id="a_node5"><a xlink:href="namespacemom__pressureforce__mont.html#a15f395ec4b0c1bbc6f87af689f0de944" target="_top" xlink:title="Boussinesq Montgomery&#45;potential form of pressure gradient.">
<polygon fill="white" stroke="black" points="146.5,-49 146.5,-79 265.5,-79 265.5,-49 146.5,-49"/>
<text text-anchor="start" x="154.5" y="-67" font-family="Helvetica,sans-Serif" font-size="10.00">mom_pressureforce_mont</text>
<text text-anchor="middle" x="206" y="-56" font-family="Helvetica,sans-Serif" font-size="10.00">::pressureforce_mont_bouss</text>
</a>
</g>
</g>
<!-- Node1&#45;&gt;Node5 -->
<g id="edge5" class="edge"><title>Node1&#45;&gt;Node5</title>
<path fill="none" stroke="midnightblue" d="M297.978,-79.269C287.431,-77.4989 276.272,-75.626 265.518,-73.8212"/>
<polygon fill="midnightblue" stroke="midnightblue" points="297.427,-82.7255 307.869,-80.929 298.586,-75.822 297.427,-82.7255"/>
</g>
<!-- Node6 -->
<g id="node6" class="node"><title>Node6</title>
<g id="a_node6"><a xlink:href="namespacemom__pressureforce__mont.html#af536642cd29fc7ad6465c4f277ff0764" target="_top" xlink:title="Non&#45;Boussinesq Montgomery&#45;potential form of pressure gradient.">
<polygon fill="white" stroke="black" points="140,-0 140,-30 272,-30 272,-0 140,-0"/>
<text text-anchor="start" x="148" y="-18" font-family="Helvetica,sans-Serif" font-size="10.00">mom_pressureforce_mont</text>
<text text-anchor="middle" x="206" y="-7" font-family="Helvetica,sans-Serif" font-size="10.00">::pressureforce_mont_nonbouss</text>
</a>
</g>
</g>
<!-- Node1&#45;&gt;Node6 -->
<g id="edge6" class="edge"><title>Node1&#45;&gt;Node6</title>
<path fill="none" stroke="midnightblue" d="M319.02,-67.1108C305.003,-58.1408 288.016,-47.9236 272,-40 264.848,-36.4616 257.063,-33.086 249.447,-30.0244"/>
<polygon fill="midnightblue" stroke="midnightblue" points="317.47,-70.2775 327.763,-72.7886 321.283,-64.4068 317.47,-70.2775"/>
</g>
<!-- Node3 -->
<g id="node3" class="node"><title>Node3</title>
<g id="a_node3"><a xlink:href="namespacemom__pressureforce__afv.html#aa3fa5f17809b17fc1c065fb5ba6a11dc" target="_top" xlink:title="Thin interface between the model and the Boussinesq and non&#45;Boussinesq pressure force routines.">
<polygon fill="white" stroke="black" points="0,-122 0,-152 104,-152 104,-122 0,-122"/>
<text text-anchor="start" x="8" y="-140" font-family="Helvetica,sans-Serif" font-size="10.00">mom_pressureforce_afv</text>
<text text-anchor="middle" x="52" y="-129" font-family="Helvetica,sans-Serif" font-size="10.00">::pressureforce_afv</text>
</a>
</g>
</g>
<!-- Node2&#45;&gt;Node3 -->
<g id="edge2" class="edge"><title>Node2&#45;&gt;Node3</title>
<path fill="none" stroke="midnightblue" d="M140.159,-151.335C128.158,-149.361 115.777,-147.325 104.248,-145.429"/>
<polygon fill="midnightblue" stroke="midnightblue" points="139.689,-154.805 150.125,-152.974 140.825,-147.898 139.689,-154.805"/>
</g>
<!-- Node4&#45;&gt;Node3 -->
<g id="edge4" class="edge"><title>Node4&#45;&gt;Node3</title>
<path fill="none" stroke="midnightblue" d="M133.045,-124.361C123.266,-125.905 113.397,-127.464 104.09,-128.933"/>
<polygon fill="midnightblue" stroke="midnightblue" points="133.844,-127.779 143.176,-122.762 132.752,-120.864 133.844,-127.779"/>
</g>
</g>
</svg>
