<?xml version="1.0" encoding="UTF-8" standalone="no"?>
<!DOCTYPE svg PUBLIC "-//W3C//DTD SVG 1.1//EN"
 "http://www.w3.org/Graphics/SVG/1.1/DTD/svg11.dtd">
<!-- Generated by graphviz version 2.30.1 (20170916.1124)
 -->
<!-- Title: mom_document::writemessageanddesc Pages: 1 -->
<svg width="344pt" height="492pt"
 viewBox="0.00 0.00 344.00 492.00" xmlns="http://www.w3.org/2000/svg" xmlns:xlink="http://www.w3.org/1999/xlink">
<g id="graph0" class="graph" transform="scale(1 1) rotate(0) translate(4 488)">
<title>mom_document::writemessageanddesc</title>
<polygon fill="white" stroke="white" points="-4,5 -4,-488 341,-488 341,5 -4,5"/>
<!-- Node215 -->
<g id="node1" class="node"><title>Node215</title>
<g id="a_node1"><a xlink:title=" ">
<polygon fill="#bfbfbf" stroke="black" points="178,-243.5 178,-262.5 336,-262.5 336,-243.5 178,-243.5"/>
<text text-anchor="middle" x="257" y="-250.5" font-family="Helvetica,sans-Serif" font-size="10.00">mom_document::writemessageanddesc</text>
</a>
</g>
</g>
<!-- Node216 -->
<g id="node2" class="node"><title>Node216</title>
<g id="a_node2"><a xlink:href="namespacemom__document.html#a058916aee316efa7a6484b3bb1d3f3df" target="_top" xlink:title=" ">
<polygon fill="white" stroke="black" points="5,-464.5 5,-483.5 137,-483.5 137,-464.5 5,-464.5"/>
<text text-anchor="middle" x="71" y="-471.5" font-family="Helvetica,sans-Serif" font-size="10.00">mom_document::doc_closeblock</text>
</a>
</g>
</g>
<!-- Node215&#45;&gt;Node216 -->
<g id="edge1" class="edge"><title>Node215&#45;&gt;Node216</title>
<path fill="none" stroke="midnightblue" d="M250.593,-272.517C238.353,-312.985 204.602,-406.312 142,-455 137.03,-458.865 131.331,-461.946 125.378,-464.4"/>
<polygon fill="midnightblue" stroke="midnightblue" points="253.989,-273.374 253.423,-262.794 247.268,-271.418 253.989,-273.374"/>
</g>
<!-- Node217 -->
<g id="node3" class="node"><title>Node217</title>
<g id="a_node3"><a xlink:href="namespacemom__document.html#a29ab772c411aedcc137942020c1ee042" target="_top" xlink:title=" ">
<polygon fill="white" stroke="black" points="10,-426.5 10,-445.5 132,-445.5 132,-426.5 10,-426.5"/>
<text text-anchor="middle" x="71" y="-433.5" font-family="Helvetica,sans-Serif" font-size="10.00">mom_document::doc_module</text>
</a>
</g>
</g>
<!-- Node215&#45;&gt;Node217 -->
<g id="edge2" class="edge"><title>Node215&#45;&gt;Node217</title>
<path fill="none" stroke="midnightblue" d="M248.204,-271.85C233.029,-306.16 196.187,-378.788 142,-417 136.443,-420.919 130.115,-424.03 123.59,-426.499"/>
<polygon fill="midnightblue" stroke="midnightblue" points="251.484,-273.082 252.214,-262.512 245.052,-270.32 251.484,-273.082"/>
</g>
<!-- Node218 -->
<g id="node4" class="node"><title>Node218</title>
<g id="a_node4"><a xlink:href="namespacemom__document.html#ada55c6a65638e04d2b550f419aafa929" target="_top" xlink:title=" ">
<polygon fill="white" stroke="black" points="5,-388.5 5,-407.5 137,-407.5 137,-388.5 5,-388.5"/>
<text text-anchor="middle" x="71" y="-395.5" font-family="Helvetica,sans-Serif" font-size="10.00">mom_document::doc_openblock</text>
</a>
</g>
</g>
<!-- Node215&#45;&gt;Node218 -->
<g id="edge3" class="edge"><title>Node215&#45;&gt;Node218</title>
<path fill="none" stroke="midnightblue" d="M244.548,-271.241C226.281,-298.81 187.888,-350.853 142,-379 135.667,-382.885 128.535,-385.988 121.308,-388.464"/>
<polygon fill="midnightblue" stroke="midnightblue" points="247.653,-272.886 250.15,-262.589 241.777,-269.082 247.653,-272.886"/>
</g>
<!-- Node219 -->
<g id="node5" class="node"><title>Node219</title>
<g id="a_node5"><a xlink:href="namespacemom__document.html#aeef6510f5e76c23d9a9a9c587f62d4d9" target="_top" xlink:title=" ">
<polygon fill="white" stroke="black" points="1,-350.5 1,-369.5 141,-369.5 141,-350.5 1,-350.5"/>
<text text-anchor="middle" x="71" y="-357.5" font-family="Helvetica,sans-Serif" font-size="10.00">mom_document::doc_param_char</text>
</a>
</g>
</g>
<!-- Node215&#45;&gt;Node219 -->
<g id="edge4" class="edge"><title>Node215&#45;&gt;Node219</title>
<path fill="none" stroke="midnightblue" d="M238.748,-269.892C217.623,-289.676 179.951,-322.14 142,-341 134.332,-344.811 125.798,-347.938 117.4,-350.475"/>
<polygon fill="midnightblue" stroke="midnightblue" points="241.423,-272.177 246.248,-262.744 236.594,-267.109 241.423,-272.177"/>
</g>
<!-- Node220 -->
<g id="node6" class="node"><title>Node220</title>
<g id="a_node6"><a xlink:href="namespacemom__document.html#a14995c64ee277f19aa10b957431aa4c1" target="_top" xlink:title=" ">
<polygon fill="white" stroke="black" points="5,-312.5 5,-331.5 137,-331.5 137,-312.5 5,-312.5"/>
<text text-anchor="middle" x="71" y="-319.5" font-family="Helvetica,sans-Serif" font-size="10.00">mom_document::doc_param_int</text>
</a>
</g>
</g>
<!-- Node215&#45;&gt;Node220 -->
<g id="edge5" class="edge"><title>Node215&#45;&gt;Node220</title>
<path fill="none" stroke="midnightblue" d="M226.59,-266.873C203.81,-277.316 171.299,-291.566 142,-302 131.284,-305.816 119.451,-309.421 108.611,-312.492"/>
<polygon fill="midnightblue" stroke="midnightblue" points="228.111,-270.025 235.72,-262.652 225.174,-263.671 228.111,-270.025"/>
</g>
<!-- Node221 -->
<g id="node7" class="node"><title>Node221</title>
<g id="a_node7"><a xlink:href="namespacemom__document.html#a3ce71018037d66ba8f51d860bedbdcbb" target="_top" xlink:title=" ">
<polygon fill="white" stroke="black" points="11.5,-263 11.5,-293 130.5,-293 130.5,-263 11.5,-263"/>
<text text-anchor="start" x="19.5" y="-281" font-family="Helvetica,sans-Serif" font-size="10.00">mom_document::doc_param</text>
<text text-anchor="middle" x="71" y="-270" font-family="Helvetica,sans-Serif" font-size="10.00">_int_array</text>
</a>
</g>
</g>
<!-- Node215&#45;&gt;Node221 -->
<g id="edge6" class="edge"><title>Node215&#45;&gt;Node221</title>
<path fill="none" stroke="midnightblue" d="M175.958,-263.875C160.683,-265.951 144.961,-268.087 130.515,-270.05"/>
<polygon fill="midnightblue" stroke="midnightblue" points="176.475,-267.337 185.913,-262.523 175.532,-260.401 176.475,-267.337"/>
</g>
<!-- Node222 -->
<g id="node8" class="node"><title>Node222</title>
<g id="a_node8"><a xlink:href="namespacemom__document.html#ae29b615a7c566d9da64ade24864805b2" target="_top" xlink:title=" ">
<polygon fill="white" stroke="black" points="11.5,-214 11.5,-244 130.5,-244 130.5,-214 11.5,-214"/>
<text text-anchor="start" x="19.5" y="-232" font-family="Helvetica,sans-Serif" font-size="10.00">mom_document::doc_param</text>
<text text-anchor="middle" x="71" y="-221" font-family="Helvetica,sans-Serif" font-size="10.00">_logical</text>
</a>
</g>
</g>
<!-- Node215&#45;&gt;Node222 -->
<g id="edge7" class="edge"><title>Node215&#45;&gt;Node222</title>
<path fill="none" stroke="midnightblue" d="M172.755,-242.142C158.571,-240.292 144.106,-238.405 130.727,-236.66"/>
<polygon fill="midnightblue" stroke="midnightblue" points="172.645,-245.657 183.014,-243.48 173.551,-238.716 172.645,-245.657"/>
</g>
<!-- Node223 -->
<g id="node9" class="node"><title>Node223</title>
<g id="a_node9"><a xlink:href="namespacemom__document.html#a9792937a5eb8f9a2a58c7b816520470d" target="_top" xlink:title=" ">
<polygon fill="white" stroke="black" points="11.5,-165 11.5,-195 130.5,-195 130.5,-165 11.5,-165"/>
<text text-anchor="start" x="19.5" y="-183" font-family="Helvetica,sans-Serif" font-size="10.00">mom_document::doc_param</text>
<text text-anchor="middle" x="71" y="-172" font-family="Helvetica,sans-Serif" font-size="10.00">_logical_array</text>
</a>
</g>
</g>
<!-- Node215&#45;&gt;Node223 -->
<g id="edge8" class="edge"><title>Node215&#45;&gt;Node223</title>
<path fill="none" stroke="midnightblue" d="M225.102,-239.443C202.276,-229.561 170.372,-216.03 142,-205 133.46,-201.68 124.273,-198.279 115.454,-195.097"/>
<polygon fill="midnightblue" stroke="midnightblue" points="223.726,-242.661 234.292,-243.436 226.515,-236.241 223.726,-242.661"/>
</g>
<!-- Node224 -->
<g id="node10" class="node"><title>Node224</title>
<g id="a_node10"><a xlink:href="namespacemom__document.html#ab6438889d6e98b10d8c42d5ff6b00ef8" target="_top" xlink:title=" ">
<polygon fill="white" stroke="black" points="0,-126.5 0,-145.5 142,-145.5 142,-126.5 0,-126.5"/>
<text text-anchor="middle" x="71" y="-133.5" font-family="Helvetica,sans-Serif" font-size="10.00">mom_document::doc_param_none</text>
</a>
</g>
</g>
<!-- Node215&#45;&gt;Node224 -->
<g id="edge9" class="edge"><title>Node215&#45;&gt;Node224</title>
<path fill="none" stroke="midnightblue" d="M240.601,-236.014C220.112,-214.4 181.814,-177.321 142,-156 134.089,-151.764 125.182,-148.339 116.44,-145.601"/>
<polygon fill="midnightblue" stroke="midnightblue" points="238.172,-238.541 247.548,-243.475 243.296,-233.771 238.172,-238.541"/>
</g>
<!-- Node225 -->
<g id="node11" class="node"><title>Node225</title>
<g id="a_node11"><a xlink:href="namespacemom__document.html#aae79ba23b83e7e2be3dcc46f50ee0f69" target="_top" xlink:title=" ">
<polygon fill="white" stroke="black" points="2.5,-88.5 2.5,-107.5 139.5,-107.5 139.5,-88.5 2.5,-88.5"/>
<text text-anchor="middle" x="71" y="-95.5" font-family="Helvetica,sans-Serif" font-size="10.00">mom_document::doc_param_real</text>
</a>
</g>
</g>
<!-- Node215&#45;&gt;Node225 -->
<g id="edge10" class="edge"><title>Node215&#45;&gt;Node225</title>
<path fill="none" stroke="midnightblue" d="M245.659,-234.544C228.199,-205.109 190.033,-147.727 142,-117 135.954,-113.132 129.129,-110.045 122.174,-107.582"/>
<polygon fill="midnightblue" stroke="midnightblue" points="242.732,-236.475 250.771,-243.377 248.791,-232.968 242.732,-236.475"/>
</g>
<!-- Node226 -->
<g id="node12" class="node"><title>Node226</title>
<g id="a_node12"><a xlink:href="namespacemom__document.html#a09ce71cb5106c9abb604c07b98e62863" target="_top" xlink:title=" ">
<polygon fill="white" stroke="black" points="11.5,-39 11.5,-69 130.5,-69 130.5,-39 11.5,-39"/>
<text text-anchor="start" x="19.5" y="-57" font-family="Helvetica,sans-Serif" font-size="10.00">mom_document::doc_param</text>
<text text-anchor="middle" x="71" y="-46" font-family="Helvetica,sans-Serif" font-size="10.00">_real_array</text>
</a>
</g>
</g>
<!-- Node215&#45;&gt;Node226 -->
<g id="edge11" class="edge"><title>Node215&#45;&gt;Node226</title>
<path fill="none" stroke="midnightblue" d="M248.413,-233.878C233.383,-198.355 196.495,-121.9 142,-79 137.133,-75.1685 131.63,-71.8949 125.901,-69.1047"/>
<polygon fill="midnightblue" stroke="midnightblue" points="245.178,-235.215 252.221,-243.13 251.651,-232.551 245.178,-235.215"/>
</g>
<!-- Node227 -->
<g id="node13" class="node"><title>Node227</title>
<g id="a_node13"><a xlink:href="namespacemom__document.html#a88e4bef8326a973afec58f1cb66fdd0c" target="_top" xlink:title=" ">
<polygon fill="white" stroke="black" points="1.5,-0.5 1.5,-19.5 140.5,-19.5 140.5,-0.5 1.5,-0.5"/>
<text text-anchor="middle" x="71" y="-7.5" font-family="Helvetica,sans-Serif" font-size="10.00">mom_document::doc_param_time</text>
</a>
</g>
</g>
<!-- Node215&#45;&gt;Node227 -->
<g id="edge12" class="edge"><title>Node215&#45;&gt;Node227</title>
<path fill="none" stroke="midnightblue" d="M251.603,-233.34C240.845,-189.879 209.038,-85.1334 142,-30 136.729,-25.6647 130.566,-22.2685 124.124,-19.6081"/>
<polygon fill="midnightblue" stroke="midnightblue" points="248.233,-234.299 253.943,-243.223 255.044,-232.686 248.233,-234.299"/>
</g>
</g>
</svg>
