<?xml version="1.0" encoding="UTF-8" standalone="no"?>
<!DOCTYPE svg PUBLIC "-//W3C//DTD SVG 1.1//EN"
 "http://www.w3.org/Graphics/SVG/1.1/DTD/svg11.dtd">
<!-- Generated by graphviz version 2.30.1 (20170916.1124)
 -->
<!-- Title: ideal_age_example::initialize_ideal_age_tracer Pages: 1 -->
<svg width="646pt" height="350pt"
 viewBox="0.00 0.00 646.00 350.00" xmlns="http://www.w3.org/2000/svg" xmlns:xlink="http://www.w3.org/1999/xlink">
<g id="graph0" class="graph" transform="scale(1 1) rotate(0) translate(4 346)">
<title>ideal_age_example::initialize_ideal_age_tracer</title>
<polygon fill="white" stroke="white" points="-4,5 -4,-346 643,-346 643,5 -4,5"/>
<!-- Node23 -->
<g id="node1" class="node"><title>Node23</title>
<g id="a_node1"><a xlink:title=" ">
<polygon fill="#bfbfbf" stroke="black" points="0,-224.5 0,-265.5 90,-265.5 90,-224.5 0,-224.5"/>
<text text-anchor="start" x="8" y="-253.5" font-family="Helvetica,sans-Serif" font-size="10.00">ideal_age_example::</text>
<text text-anchor="start" x="8" y="-242.5" font-family="Helvetica,sans-Serif" font-size="10.00">initialize_ideal_age</text>
<text text-anchor="middle" x="45" y="-231.5" font-family="Helvetica,sans-Serif" font-size="10.00">_tracer</text>
</a>
</g>
</g>
<!-- Node24 -->
<g id="node2" class="node"><title>Node24</title>
<g id="a_node2"><a xlink:href="namespacemom__tracer__registry.html#ac008525fee272a225a19998ae437b5bf" target="_top" xlink:title="This subroutine adds diagnostic arrays for a tracer that has previously been registered by a call to ...">
<polygon fill="white" stroke="black" points="127,-312 127,-342 231,-342 231,-312 127,-312"/>
<text text-anchor="start" x="135" y="-330" font-family="Helvetica,sans-Serif" font-size="10.00">mom_tracer_registry</text>
<text text-anchor="middle" x="179" y="-319" font-family="Helvetica,sans-Serif" font-size="10.00">::add_tracer_diagnostics</text>
</a>
</g>
</g>
<!-- Node23&#45;&gt;Node24 -->
<g id="edge1" class="edge"><title>Node23&#45;&gt;Node24</title>
<path fill="none" stroke="midnightblue" d="M76.909,-265.637C91.6549,-275.341 109.617,-286.959 126,-297 131.18,-300.175 136.698,-303.46 142.131,-306.639"/>
<polygon fill="midnightblue" stroke="midnightblue" points="140.712,-309.863 151.119,-311.854 144.225,-303.808 140.712,-309.863"/>
</g>
<!-- Node25 -->
<g id="node3" class="node"><title>Node25</title>
<g id="a_node3"><a xlink:href="namespacemom__error__handler.html#a460cfb79a06c29fc249952c2a3710d67" target="_top" xlink:title=" ">
<polygon fill="white" stroke="black" points="414.5,-186 414.5,-216 507.5,-216 507.5,-186 414.5,-186"/>
<text text-anchor="start" x="422.5" y="-204" font-family="Helvetica,sans-Serif" font-size="10.00">mom_error_handler::</text>
<text text-anchor="middle" x="461" y="-193" font-family="Helvetica,sans-Serif" font-size="10.00">mom_error</text>
</a>
</g>
</g>
<!-- Node23&#45;&gt;Node25 -->
<g id="edge4" class="edge"><title>Node23&#45;&gt;Node25</title>
<path fill="none" stroke="midnightblue" d="M90.122,-257.8C155.098,-274.394 279.469,-297.48 378,-264 401.594,-255.983 423.709,-238.138 439.013,-223.48"/>
<polygon fill="midnightblue" stroke="midnightblue" points="441.74,-225.706 446.367,-216.175 436.806,-220.74 441.74,-225.706"/>
</g>
<!-- Node27 -->
<g id="node5" class="node"><title>Node27</title>
<g id="a_node5"><a xlink:href="namespacemom__io.html#a23e82d1d89d9bb1c9bdf802ce80d4508" target="_top" xlink:title="This routine queries vardesc.">
<polygon fill="white" stroke="black" points="128,-235.5 128,-254.5 230,-254.5 230,-235.5 128,-235.5"/>
<text text-anchor="middle" x="179" y="-242.5" font-family="Helvetica,sans-Serif" font-size="10.00">mom_io::query_vardesc</text>
</a>
</g>
</g>
<!-- Node23&#45;&gt;Node27 -->
<g id="edge5" class="edge"><title>Node23&#45;&gt;Node27</title>
<path fill="none" stroke="midnightblue" d="M90.3213,-245C99.0281,-245 108.301,-245 117.434,-245"/>
<polygon fill="midnightblue" stroke="midnightblue" points="117.649,-248.5 127.649,-245 117.649,-241.5 117.649,-248.5"/>
</g>
<!-- Node29 -->
<g id="node7" class="node"><title>Node29</title>
<g id="a_node7"><a xlink:href="namespacemom__diag__to__z.html#a6946a3316715041c5944df17db1aef74" target="_top" xlink:title=" ">
<polygon fill="white" stroke="black" points="126.5,-186 126.5,-216 231.5,-216 231.5,-186 126.5,-186"/>
<text text-anchor="start" x="134.5" y="-204" font-family="Helvetica,sans-Serif" font-size="10.00">mom_diag_to_z::register</text>
<text text-anchor="middle" x="179" y="-193" font-family="Helvetica,sans-Serif" font-size="10.00">_z_tracer</text>
</a>
</g>
</g>
<!-- Node23&#45;&gt;Node29 -->
<g id="edge8" class="edge"><title>Node23&#45;&gt;Node29</title>
<path fill="none" stroke="midnightblue" d="M90.3213,-230.226C100.758,-226.747 112.008,-222.997 122.856,-219.381"/>
<polygon fill="midnightblue" stroke="midnightblue" points="124.29,-222.593 132.67,-216.11 122.076,-215.952 124.29,-222.593"/>
</g>
<!-- Node31 -->
<g id="node9" class="node"><title>Node31</title>
<g id="a_node9"><a xlink:href="namespacemom__tracer__z__init.html#a153c8859a6918fc350976a4a7c279c79" target="_top" xlink:title=" ">
<polygon fill="white" stroke="black" points="135.5,-98 135.5,-128 222.5,-128 222.5,-98 135.5,-98"/>
<text text-anchor="start" x="143.5" y="-116" font-family="Helvetica,sans-Serif" font-size="10.00">mom_tracer_z_init::</text>
<text text-anchor="middle" x="179" y="-105" font-family="Helvetica,sans-Serif" font-size="10.00">tracer_z_init</text>
</a>
</g>
</g>
<!-- Node23&#45;&gt;Node31 -->
<g id="edge11" class="edge"><title>Node23&#45;&gt;Node31</title>
<path fill="none" stroke="midnightblue" d="M66.625,-224.375C90.807,-200.193 130.74,-160.26 155.645,-135.355"/>
<polygon fill="midnightblue" stroke="midnightblue" points="158.262,-137.688 162.858,-128.142 153.312,-132.738 158.262,-137.688"/>
</g>
<!-- Node24&#45;&gt;Node25 -->
<g id="edge2" class="edge"><title>Node24&#45;&gt;Node25</title>
<path fill="none" stroke="midnightblue" d="M231.123,-328.844C273.071,-328.194 332.717,-322.159 378,-297 408.312,-280.159 432.476,-247.47 446.514,-224.953"/>
<polygon fill="midnightblue" stroke="midnightblue" points="449.568,-226.665 451.729,-216.293 443.572,-223.053 449.568,-226.665"/>
</g>
<!-- Node26 -->
<g id="node4" class="node"><title>Node26</title>
<g id="a_node4"><a xlink:href="namespacemom__error__handler.html#ad5f00a53059c72fe2332d1436c80ca71" target="_top" xlink:title=" ">
<polygon fill="white" stroke="black" points="544.5,-152 544.5,-182 637.5,-182 637.5,-152 544.5,-152"/>
<text text-anchor="start" x="552.5" y="-170" font-family="Helvetica,sans-Serif" font-size="10.00">mom_error_handler::</text>
<text text-anchor="middle" x="591" y="-159" font-family="Helvetica,sans-Serif" font-size="10.00">is_root_pe</text>
</a>
</g>
</g>
<!-- Node25&#45;&gt;Node26 -->
<g id="edge3" class="edge"><title>Node25&#45;&gt;Node26</title>
<path fill="none" stroke="midnightblue" d="M507.849,-188.821C516.501,-186.523 525.636,-184.097 534.545,-181.73"/>
<polygon fill="midnightblue" stroke="midnightblue" points="535.704,-185.044 544.471,-179.094 533.907,-178.278 535.704,-185.044"/>
</g>
<!-- Node28 -->
<g id="node6" class="node"><title>Node28</title>
<g id="a_node6"><a xlink:href="namespacemom__io.html#ac4bc408e8b38dbd669842753f26ebf88" target="_top" xlink:title="Copies a string.">
<polygon fill="white" stroke="black" points="268,-235.5 268,-254.5 378,-254.5 378,-235.5 268,-235.5"/>
<text text-anchor="middle" x="323" y="-242.5" font-family="Helvetica,sans-Serif" font-size="10.00">mom_io::safe_string_copy</text>
</a>
</g>
</g>
<!-- Node27&#45;&gt;Node28 -->
<g id="edge6" class="edge"><title>Node27&#45;&gt;Node28</title>
<path fill="none" stroke="midnightblue" d="M230.064,-245C238.882,-245 248.174,-245 257.324,-245"/>
<polygon fill="midnightblue" stroke="midnightblue" points="257.562,-248.5 267.562,-245 257.562,-241.5 257.562,-248.5"/>
</g>
<!-- Node28&#45;&gt;Node25 -->
<g id="edge7" class="edge"><title>Node28&#45;&gt;Node25</title>
<path fill="none" stroke="midnightblue" d="M353.51,-235.453C368.539,-230.59 387.308,-224.518 404.884,-218.832"/>
<polygon fill="midnightblue" stroke="midnightblue" points="406.058,-222.13 414.495,-215.722 403.903,-215.47 406.058,-222.13"/>
</g>
<!-- Node30 -->
<g id="node8" class="node"><title>Node30</title>
<g id="a_node8"><a xlink:href="namespacemom__diag__to__z.html#adde57f2503f5c182af511fba0f4c83ea" target="_top" xlink:title=" ">
<polygon fill="white" stroke="black" points="270.5,-186 270.5,-216 375.5,-216 375.5,-186 270.5,-186"/>
<text text-anchor="start" x="278.5" y="-204" font-family="Helvetica,sans-Serif" font-size="10.00">mom_diag_to_z::register</text>
<text text-anchor="middle" x="323" y="-193" font-family="Helvetica,sans-Serif" font-size="10.00">_z_tracer_low</text>
</a>
</g>
</g>
<!-- Node29&#45;&gt;Node30 -->
<g id="edge9" class="edge"><title>Node29&#45;&gt;Node30</title>
<path fill="none" stroke="midnightblue" d="M231.667,-201C240.868,-201 250.538,-201 259.992,-201"/>
<polygon fill="midnightblue" stroke="midnightblue" points="260.134,-204.5 270.134,-201 260.134,-197.5 260.134,-204.5"/>
</g>
<!-- Node30&#45;&gt;Node25 -->
<g id="edge10" class="edge"><title>Node30&#45;&gt;Node25</title>
<path fill="none" stroke="midnightblue" d="M375.804,-201C385.065,-201 394.752,-201 404.121,-201"/>
<polygon fill="midnightblue" stroke="midnightblue" points="404.128,-204.5 414.128,-201 404.128,-197.5 404.128,-204.5"/>
</g>
<!-- Node32 -->
<g id="node10" class="node"><title>Node32</title>
<g id="a_node10"><a xlink:href="namespacemom__tracer__z__init.html#a00e2eb419a924624bf8ae6d84e64ef47" target="_top" xlink:title=" ">
<polygon fill="white" stroke="black" points="279.5,-98 279.5,-128 366.5,-128 366.5,-98 279.5,-98"/>
<text text-anchor="start" x="287.5" y="-116" font-family="Helvetica,sans-Serif" font-size="10.00">mom_tracer_z_init::</text>
<text text-anchor="middle" x="323" y="-105" font-family="Helvetica,sans-Serif" font-size="10.00">read_z_edges</text>
</a>
</g>
</g>
<!-- Node31&#45;&gt;Node32 -->
<g id="edge12" class="edge"><title>Node31&#45;&gt;Node32</title>
<path fill="none" stroke="midnightblue" d="M222.605,-113C237.207,-113 253.729,-113 269.049,-113"/>
<polygon fill="midnightblue" stroke="midnightblue" points="269.425,-116.5 279.425,-113 269.425,-109.5 269.425,-116.5"/>
</g>
<!-- Node31&#45;&gt;Node25 -->
<g id="edge16" class="edge"><title>Node31&#45;&gt;Node25</title>
<path fill="none" stroke="midnightblue" d="M222.526,-126.365C271.206,-141.665 351.099,-166.774 404.607,-183.591"/>
<polygon fill="midnightblue" stroke="midnightblue" points="403.688,-186.971 414.278,-186.63 405.787,-180.293 403.688,-186.971"/>
</g>
<!-- Node34 -->
<g id="node12" class="node"><title>Node34</title>
<g id="a_node12"><a xlink:href="namespacemom__diag__to__z.html#a7bb6af99ccb5eb1daf7473663ca19aea" target="_top" xlink:title=" ">
<polygon fill="white" stroke="black" points="277.5,-49 277.5,-79 368.5,-79 368.5,-49 277.5,-49"/>
<text text-anchor="start" x="285.5" y="-67" font-family="Helvetica,sans-Serif" font-size="10.00">mom_diag_to_z::find</text>
<text text-anchor="middle" x="323" y="-56" font-family="Helvetica,sans-Serif" font-size="10.00">_overlap</text>
</a>
</g>
</g>
<!-- Node31&#45;&gt;Node34 -->
<g id="edge17" class="edge"><title>Node31&#45;&gt;Node34</title>
<path fill="none" stroke="midnightblue" d="M222.605,-98.2984C237.08,-93.3035 253.44,-87.658 268.647,-82.4105"/>
<polygon fill="midnightblue" stroke="midnightblue" points="270.131,-85.601 278.442,-79.0304 267.848,-78.9839 270.131,-85.601"/>
</g>
<!-- Node35 -->
<g id="node13" class="node"><title>Node35</title>
<g id="a_node13"><a xlink:href="namespacemom__diag__to__z.html#a55f6203cfb483bb62c543f689ab30741" target="_top" xlink:title=" ">
<polygon fill="white" stroke="black" points="277.5,-0 277.5,-30 368.5,-30 368.5,-0 277.5,-0"/>
<text text-anchor="start" x="285.5" y="-18" font-family="Helvetica,sans-Serif" font-size="10.00">mom_diag_to_z::find</text>
<text text-anchor="middle" x="323" y="-7" font-family="Helvetica,sans-Serif" font-size="10.00">_limited_slope</text>
</a>
</g>
</g>
<!-- Node31&#45;&gt;Node35 -->
<g id="edge18" class="edge"><title>Node31&#45;&gt;Node35</title>
<path fill="none" stroke="midnightblue" d="M195.172,-97.9214C211.933,-81.8425 240.241,-56.3535 268,-39 270.406,-37.496 272.922,-36.0368 275.497,-34.6303"/>
<polygon fill="midnightblue" stroke="midnightblue" points="277.101,-37.7414 284.401,-30.063 273.906,-31.513 277.101,-37.7414"/>
</g>
<!-- Node32&#45;&gt;Node25 -->
<g id="edge13" class="edge"><title>Node32&#45;&gt;Node25</title>
<path fill="none" stroke="midnightblue" d="M352.363,-128.002C360.729,-132.629 369.829,-137.862 378,-143 396.309,-154.513 416.125,-168.485 431.69,-179.83"/>
<polygon fill="midnightblue" stroke="midnightblue" points="429.731,-182.734 439.863,-185.831 433.874,-177.092 429.731,-182.734"/>
</g>
<!-- Node33 -->
<g id="node11" class="node"><title>Node33</title>
<g id="a_node11"><a xlink:href="namespacemom__error__handler.html#a1c462df7b61f1296407b4af51dfeceab" target="_top" xlink:title=" ">
<polygon fill="white" stroke="black" points="414.5,-118 414.5,-148 507.5,-148 507.5,-118 414.5,-118"/>
<text text-anchor="start" x="422.5" y="-136" font-family="Helvetica,sans-Serif" font-size="10.00">mom_error_handler::</text>
<text text-anchor="middle" x="461" y="-125" font-family="Helvetica,sans-Serif" font-size="10.00">mom_mesg</text>
</a>
</g>
</g>
<!-- Node32&#45;&gt;Node33 -->
<g id="edge14" class="edge"><title>Node32&#45;&gt;Node33</title>
<path fill="none" stroke="midnightblue" d="M366.658,-119.273C378.583,-121.027 391.721,-122.959 404.281,-124.806"/>
<polygon fill="midnightblue" stroke="midnightblue" points="403.792,-128.272 414.195,-126.264 404.811,-121.346 403.792,-128.272"/>
</g>
<!-- Node33&#45;&gt;Node26 -->
<g id="edge15" class="edge"><title>Node33&#45;&gt;Node26</title>
<path fill="none" stroke="midnightblue" d="M507.849,-145.179C516.501,-147.477 525.636,-149.903 534.545,-152.27"/>
<polygon fill="midnightblue" stroke="midnightblue" points="533.907,-155.722 544.471,-154.906 535.704,-148.956 533.907,-155.722"/>
</g>
</g>
</svg>
