<?xml version="1.0" encoding="UTF-8" standalone="no"?>
<!DOCTYPE svg PUBLIC "-//W3C//DTD SVG 1.1//EN"
 "http://www.w3.org/Graphics/SVG/1.1/DTD/svg11.dtd">
<!-- Generated by graphviz version 2.30.1 (20170916.1124)
 -->
<!-- Title: mom_remapping::remapbydeltaz Pages: 1 -->
<svg width="626pt" height="38pt"
 viewBox="0.00 0.00 626.00 38.00" xmlns="http://www.w3.org/2000/svg" xmlns:xlink="http://www.w3.org/1999/xlink">
<g id="graph0" class="graph" transform="scale(1 1) rotate(0) translate(4 34)">
<title>mom_remapping::remapbydeltaz</title>
<polygon fill="white" stroke="white" points="-4,5 -4,-34 623,-34 623,5 -4,5"/>
<!-- Node197 -->
<g id="node1" class="node"><title>Node197</title>
<g id="a_node1"><a xlink:title="Remaps column of values u0 on grid h0 to implied grid h1 where the interfaces of h1 differ from those...">
<polygon fill="#bfbfbf" stroke="black" points="484,-5.5 484,-24.5 618,-24.5 618,-5.5 484,-5.5"/>
<text text-anchor="middle" x="551" y="-12.5" font-family="Helvetica,sans-Serif" font-size="10.00">mom_remapping::remapbydeltaz</text>
</a>
</g>
</g>
<!-- Node198 -->
<g id="node2" class="node"><title>Node198</title>
<g id="a_node2"><a xlink:href="namespacemom__remapping.html#a8a79c37c89f8b800f79198aceca5f090" target="_top" xlink:title="Runs unit tests on remapping functions. Should only be called from a single/root thread Returns True ...">
<polygon fill="white" stroke="black" points="328,-0 328,-30 448,-30 448,-0 328,-0"/>
<text text-anchor="start" x="336" y="-18" font-family="Helvetica,sans-Serif" font-size="10.00">mom_remapping::remapping</text>
<text text-anchor="middle" x="388" y="-7" font-family="Helvetica,sans-Serif" font-size="10.00">_unit_tests</text>
</a>
</g>
</g>
<!-- Node197&#45;&gt;Node198 -->
<g id="edge1" class="edge"><title>Node197&#45;&gt;Node198</title>
<path fill="none" stroke="midnightblue" d="M473.571,-15C464.996,-15 456.359,-15 448.051,-15"/>
<polygon fill="midnightblue" stroke="midnightblue" points="473.586,-18.5001 483.586,-15 473.586,-11.5001 473.586,-18.5001"/>
</g>
<!-- Node199 -->
<g id="node3" class="node"><title>Node199</title>
<g id="a_node3"><a xlink:href="namespacemom.html#ae77cfd2e790f1266b31d93c58659d46c" target="_top" xlink:title="Calls unit tests for other modules. These are NOT normally invoked and so we provide the module use s...">
<polygon fill="white" stroke="black" points="218.5,-5.5 218.5,-24.5 291.5,-24.5 291.5,-5.5 218.5,-5.5"/>
<text text-anchor="middle" x="255" y="-12.5" font-family="Helvetica,sans-Serif" font-size="10.00">mom::unit_tests</text>
</a>
</g>
</g>
<!-- Node198&#45;&gt;Node199 -->
<g id="edge2" class="edge"><title>Node198&#45;&gt;Node199</title>
<path fill="none" stroke="midnightblue" d="M317.496,-15C308.524,-15 299.653,-15 291.558,-15"/>
<polygon fill="midnightblue" stroke="midnightblue" points="317.633,-18.5001 327.633,-15 317.633,-11.5001 317.633,-18.5001"/>
</g>
<!-- Node200 -->
<g id="node4" class="node"><title>Node200</title>
<g id="a_node4"><a xlink:href="namespacemom.html#a0be2869fef30e1e0604facfe1b41555d" target="_top" xlink:title="This subroutine initializes MOM.">
<polygon fill="white" stroke="black" points="92.5,-5.5 92.5,-24.5 181.5,-24.5 181.5,-5.5 92.5,-5.5"/>
<text text-anchor="middle" x="137" y="-12.5" font-family="Helvetica,sans-Serif" font-size="10.00">mom::initialize_mom</text>
</a>
</g>
</g>
<!-- Node199&#45;&gt;Node200 -->
<g id="edge3" class="edge"><title>Node199&#45;&gt;Node200</title>
<path fill="none" stroke="midnightblue" d="M208.196,-15C199.437,-15 190.288,-15 181.6,-15"/>
<polygon fill="midnightblue" stroke="midnightblue" points="208.25,-18.5001 218.25,-15 208.25,-11.5001 208.25,-18.5001"/>
</g>
<!-- Node201 -->
<g id="node5" class="node"><title>Node201</title>
<g id="a_node5"><a xlink:href="MOM__driver_8F90.html#a08fffeb2d8e8acbf9ed4609be6d258c6" target="_top" xlink:title=" ">
<polygon fill="white" stroke="black" points="0,-5.5 0,-24.5 56,-24.5 56,-5.5 0,-5.5"/>
<text text-anchor="middle" x="28" y="-12.5" font-family="Helvetica,sans-Serif" font-size="10.00">mom_main</text>
</a>
</g>
</g>
<!-- Node200&#45;&gt;Node201 -->
<g id="edge4" class="edge"><title>Node200&#45;&gt;Node201</title>
<path fill="none" stroke="midnightblue" d="M82.3096,-15C73.2562,-15 64.21,-15 56.2082,-15"/>
<polygon fill="midnightblue" stroke="midnightblue" points="82.479,-18.5001 92.479,-15 82.479,-11.5001 82.479,-18.5001"/>
</g>
</g>
</svg>
