<?xml version="1.0" encoding="UTF-8" standalone="no"?>
<!DOCTYPE svg PUBLIC "-//W3C//DTD SVG 1.1//EN"
 "http://www.w3.org/Graphics/SVG/1.1/DTD/svg11.dtd">
<!-- Generated by graphviz version 2.30.1 (20170916.1124)
 -->
<!-- Title: mom_remapping::remapping_set_param Pages: 1 -->
<svg width="584pt" height="87pt"
 viewBox="0.00 0.00 584.00 87.00" xmlns="http://www.w3.org/2000/svg" xmlns:xlink="http://www.w3.org/1999/xlink">
<g id="graph0" class="graph" transform="scale(1 1) rotate(0) translate(4 83)">
<title>mom_remapping::remapping_set_param</title>
<polygon fill="white" stroke="white" points="-4,5 -4,-83 581,-83 581,5 -4,5"/>
<!-- Node284 -->
<g id="node1" class="node"><title>Node284</title>
<g id="a_node1"><a xlink:title="Set parameters within remapping object.">
<polygon fill="#bfbfbf" stroke="black" points="0,-24 0,-54 120,-54 120,-24 0,-24"/>
<text text-anchor="start" x="8" y="-42" font-family="Helvetica,sans-Serif" font-size="10.00">mom_remapping::remapping</text>
<text text-anchor="middle" x="60" y="-31" font-family="Helvetica,sans-Serif" font-size="10.00">_set_param</text>
</a>
</g>
</g>
<!-- Node285 -->
<g id="node2" class="node"><title>Node285</title>
<g id="a_node2"><a xlink:href="namespacemom__remapping.html#a41a89ac62578250500b7a450d5fdfae7" target="_top" xlink:title="Changes the method of reconstruction Use this routine to parse a string parameter specifying the reco...">
<polygon fill="white" stroke="black" points="156,-29.5 156,-48.5 314,-48.5 314,-29.5 156,-29.5"/>
<text text-anchor="middle" x="235" y="-36.5" font-family="Helvetica,sans-Serif" font-size="10.00">mom_remapping::setreconstructiontype</text>
</a>
</g>
</g>
<!-- Node284&#45;&gt;Node285 -->
<g id="edge1" class="edge"><title>Node284&#45;&gt;Node285</title>
<path fill="none" stroke="midnightblue" d="M120.053,-39C128.355,-39 137.033,-39 145.735,-39"/>
<polygon fill="midnightblue" stroke="midnightblue" points="145.94,-42.5001 155.94,-39 145.94,-35.5001 145.94,-42.5001"/>
</g>
<!-- Node286 -->
<g id="node3" class="node"><title>Node286</title>
<g id="a_node3"><a xlink:href="namespacemom__string__functions.html#aca148baf726de2f028b7e7baad3c85d4" target="_top" xlink:title=" ">
<polygon fill="white" stroke="black" points="350.5,-49 350.5,-79 445.5,-79 445.5,-49 350.5,-49"/>
<text text-anchor="start" x="358.5" y="-67" font-family="Helvetica,sans-Serif" font-size="10.00">mom_string_functions</text>
<text text-anchor="middle" x="398" y="-56" font-family="Helvetica,sans-Serif" font-size="10.00">::uppercase</text>
</a>
</g>
</g>
<!-- Node285&#45;&gt;Node286 -->
<g id="edge2" class="edge"><title>Node285&#45;&gt;Node286</title>
<path fill="none" stroke="midnightblue" d="M297.326,-48.5227C311.485,-50.7213 326.484,-53.0503 340.429,-55.2157"/>
<polygon fill="midnightblue" stroke="midnightblue" points="339.951,-58.6833 350.37,-56.7593 341.025,-51.7662 339.951,-58.6833"/>
</g>
<!-- Node287 -->
<g id="node4" class="node"><title>Node287</title>
<g id="a_node4"><a xlink:href="namespacemom__error__handler.html#a460cfb79a06c29fc249952c2a3710d67" target="_top" xlink:title=" ">
<polygon fill="white" stroke="black" points="351.5,-0 351.5,-30 444.5,-30 444.5,-0 351.5,-0"/>
<text text-anchor="start" x="359.5" y="-18" font-family="Helvetica,sans-Serif" font-size="10.00">mom_error_handler::</text>
<text text-anchor="middle" x="398" y="-7" font-family="Helvetica,sans-Serif" font-size="10.00">mom_error</text>
</a>
</g>
</g>
<!-- Node285&#45;&gt;Node287 -->
<g id="edge3" class="edge"><title>Node285&#45;&gt;Node287</title>
<path fill="none" stroke="midnightblue" d="M300.094,-29.4456C313.79,-27.4039 328.148,-25.2636 341.49,-23.2749"/>
<polygon fill="midnightblue" stroke="midnightblue" points="342.091,-26.7239 351.466,-21.7877 341.059,-19.8004 342.091,-26.7239"/>
</g>
<!-- Node288 -->
<g id="node5" class="node"><title>Node288</title>
<g id="a_node5"><a xlink:href="namespacemom__error__handler.html#ad5f00a53059c72fe2332d1436c80ca71" target="_top" xlink:title=" ">
<polygon fill="white" stroke="black" points="482.5,-0 482.5,-30 575.5,-30 575.5,-0 482.5,-0"/>
<text text-anchor="start" x="490.5" y="-18" font-family="Helvetica,sans-Serif" font-size="10.00">mom_error_handler::</text>
<text text-anchor="middle" x="529" y="-7" font-family="Helvetica,sans-Serif" font-size="10.00">is_root_pe</text>
</a>
</g>
</g>
<!-- Node287&#45;&gt;Node288 -->
<g id="edge4" class="edge"><title>Node287&#45;&gt;Node288</title>
<path fill="none" stroke="midnightblue" d="M444.844,-15C453.683,-15 463.034,-15 472.151,-15"/>
<polygon fill="midnightblue" stroke="midnightblue" points="472.304,-18.5001 482.304,-15 472.304,-11.5001 472.304,-18.5001"/>
</g>
</g>
</svg>
