<?xml version="1.0" encoding="UTF-8" standalone="no"?>
<!DOCTYPE svg PUBLIC "-//W3C//DTD SVG 1.1//EN"
 "http://www.w3.org/Graphics/SVG/1.1/DTD/svg11.dtd">
<!-- Generated by graphviz version 2.30.1 (20170916.1124)
 -->
<!-- Title: isomip_initialization::isomip_initialize_thickness Pages: 1 -->
<svg width="380pt" height="87pt"
 viewBox="0.00 0.00 380.00 87.00" xmlns="http://www.w3.org/2000/svg" xmlns:xlink="http://www.w3.org/1999/xlink">
<g id="graph0" class="graph" transform="scale(1 1) rotate(0) translate(4 83)">
<title>isomip_initialization::isomip_initialize_thickness</title>
<polygon fill="white" stroke="white" points="-4,5 -4,-83 377,-83 377,5 -4,5"/>
<!-- Node10 -->
<g id="node1" class="node"><title>Node10</title>
<g id="a_node1"><a xlink:title="Initialization of thicknesses.">
<polygon fill="#bfbfbf" stroke="black" points="0,-24 0,-54 112,-54 112,-24 0,-24"/>
<text text-anchor="start" x="8" y="-42" font-family="Helvetica,sans-Serif" font-size="10.00">isomip_initialization</text>
<text text-anchor="middle" x="56" y="-31" font-family="Helvetica,sans-Serif" font-size="10.00">::isomip_initialize_thickness</text>
</a>
</g>
</g>
<!-- Node11 -->
<g id="node2" class="node"><title>Node11</title>
<g id="a_node2"><a xlink:href="namespacemom__error__handler.html#a460cfb79a06c29fc249952c2a3710d67" target="_top" xlink:title=" ">
<polygon fill="white" stroke="black" points="148.5,-49 148.5,-79 241.5,-79 241.5,-49 148.5,-49"/>
<text text-anchor="start" x="156.5" y="-67" font-family="Helvetica,sans-Serif" font-size="10.00">mom_error_handler::</text>
<text text-anchor="middle" x="195" y="-56" font-family="Helvetica,sans-Serif" font-size="10.00">mom_error</text>
</a>
</g>
</g>
<!-- Node10&#45;&gt;Node11 -->
<g id="edge1" class="edge"><title>Node10&#45;&gt;Node11</title>
<path fill="none" stroke="midnightblue" d="M112.328,-49.0964C120.868,-50.6548 129.693,-52.2651 138.242,-53.8252"/>
<polygon fill="midnightblue" stroke="midnightblue" points="137.653,-57.2754 148.119,-55.6276 138.91,-50.3892 137.653,-57.2754"/>
</g>
<!-- Node13 -->
<g id="node4" class="node"><title>Node13</title>
<g id="a_node4"><a xlink:href="namespacemom__error__handler.html#a1c462df7b61f1296407b4af51dfeceab" target="_top" xlink:title=" ">
<polygon fill="white" stroke="black" points="148.5,-0 148.5,-30 241.5,-30 241.5,-0 148.5,-0"/>
<text text-anchor="start" x="156.5" y="-18" font-family="Helvetica,sans-Serif" font-size="10.00">mom_error_handler::</text>
<text text-anchor="middle" x="195" y="-7" font-family="Helvetica,sans-Serif" font-size="10.00">mom_mesg</text>
</a>
</g>
</g>
<!-- Node10&#45;&gt;Node13 -->
<g id="edge3" class="edge"><title>Node10&#45;&gt;Node13</title>
<path fill="none" stroke="midnightblue" d="M112.328,-29.3075C120.868,-27.8114 129.693,-26.2655 138.242,-24.7678"/>
<polygon fill="midnightblue" stroke="midnightblue" points="138.873,-28.2107 148.119,-23.0375 137.665,-21.3157 138.873,-28.2107"/>
</g>
<!-- Node12 -->
<g id="node3" class="node"><title>Node12</title>
<g id="a_node3"><a xlink:href="namespacemom__error__handler.html#ad5f00a53059c72fe2332d1436c80ca71" target="_top" xlink:title=" ">
<polygon fill="white" stroke="black" points="278.5,-24 278.5,-54 371.5,-54 371.5,-24 278.5,-24"/>
<text text-anchor="start" x="286.5" y="-42" font-family="Helvetica,sans-Serif" font-size="10.00">mom_error_handler::</text>
<text text-anchor="middle" x="325" y="-31" font-family="Helvetica,sans-Serif" font-size="10.00">is_root_pe</text>
</a>
</g>
</g>
<!-- Node11&#45;&gt;Node12 -->
<g id="edge2" class="edge"><title>Node11&#45;&gt;Node12</title>
<path fill="none" stroke="midnightblue" d="M241.849,-55.045C250.501,-53.3552 259.636,-51.5712 268.545,-49.8311"/>
<polygon fill="midnightblue" stroke="midnightblue" points="269.327,-53.2445 278.471,-47.8924 267.985,-46.3743 269.327,-53.2445"/>
</g>
<!-- Node13&#45;&gt;Node12 -->
<g id="edge4" class="edge"><title>Node13&#45;&gt;Node12</title>
<path fill="none" stroke="midnightblue" d="M241.849,-23.5968C250.501,-25.219 259.636,-26.9317 268.545,-28.6022"/>
<polygon fill="midnightblue" stroke="midnightblue" points="267.997,-32.0603 278.471,-30.4633 269.287,-25.1802 267.997,-32.0603"/>
</g>
</g>
</svg>
