<?xml version="1.0" encoding="UTF-8" standalone="no"?>
<!DOCTYPE svg PUBLIC "-//W3C//DTD SVG 1.1//EN"
 "http://www.w3.org/Graphics/SVG/1.1/DTD/svg11.dtd">
<!-- Generated by graphviz version 2.30.1 (20170916.1124)
 -->
<!-- Title: mom_get_input::get_mom_input Pages: 1 -->
<svg width="336pt" height="197pt"
 viewBox="0.00 0.00 336.00 197.20" xmlns="http://www.w3.org/2000/svg" xmlns:xlink="http://www.w3.org/1999/xlink">
<g id="graph0" class="graph" transform="scale(1 1) rotate(0) translate(4 193.201)">
<title>mom_get_input::get_mom_input</title>
<polygon fill="white" stroke="white" points="-4,5 -4,-193.201 333,-193.201 333,5 -4,5"/>
<!-- Node13 -->
<g id="node1" class="node"><title>Node13</title>
<g id="a_node1"><a xlink:title=" ">
<polygon fill="#bfbfbf" stroke="black" points="240,-71.2014 240,-101.201 328,-101.201 328,-71.2014 240,-71.2014"/>
<text text-anchor="start" x="248" y="-89.2014" font-family="Helvetica,sans-Serif" font-size="10.00">mom_get_input::get</text>
<text text-anchor="middle" x="284" y="-78.2014" font-family="Helvetica,sans-Serif" font-size="10.00">_mom_input</text>
</a>
</g>
</g>
<!-- Node14 -->
<g id="node2" class="node"><title>Node14</title>
<g id="a_node2"><a xlink:href="namespacemom__ice__shelf.html#ae315e8464ef8a20062e3bccb61886755" target="_top" xlink:title=" ">
<polygon fill="white" stroke="black" points="97.5,-22.2014 97.5,-52.2014 198.5,-52.2014 198.5,-22.2014 97.5,-22.2014"/>
<text text-anchor="start" x="105.5" y="-40.2014" font-family="Helvetica,sans-Serif" font-size="10.00">mom_ice_shelf::initialize</text>
<text text-anchor="middle" x="148" y="-29.2014" font-family="Helvetica,sans-Serif" font-size="10.00">_ice_shelf</text>
</a>
</g>
</g>
<!-- Node13&#45;&gt;Node14 -->
<g id="edge1" class="edge"><title>Node13&#45;&gt;Node14</title>
<path fill="none" stroke="midnightblue" d="M231.912,-67.5199C218.188,-62.5014 203.518,-57.1371 190.392,-52.3374"/>
<polygon fill="midnightblue" stroke="midnightblue" points="231.108,-70.9528 241.702,-71.1 233.512,-64.3785 231.108,-70.9528"/>
</g>
<!-- Node17 -->
<g id="node5" class="node"><title>Node17</title>
<g id="a_node5"><a xlink:href="namespacemom.html#a0be2869fef30e1e0604facfe1b41555d" target="_top" xlink:title="This subroutine initializes MOM.">
<polygon fill="white" stroke="black" points="103.5,-120.701 103.5,-139.701 192.5,-139.701 192.5,-120.701 103.5,-120.701"/>
<text text-anchor="middle" x="148" y="-127.701" font-family="Helvetica,sans-Serif" font-size="10.00">mom::initialize_mom</text>
</a>
</g>
</g>
<!-- Node13&#45;&gt;Node17 -->
<g id="edge4" class="edge"><title>Node13&#45;&gt;Node17</title>
<path fill="none" stroke="midnightblue" d="M230.186,-103.543C212.447,-109.368 193.318,-115.649 178.086,-120.651"/>
<polygon fill="midnightblue" stroke="midnightblue" points="231.455,-106.811 239.864,-100.366 229.271,-100.16 231.455,-106.811"/>
</g>
<!-- Node18 -->
<g id="node6" class="node"><title>Node18</title>
<g id="a_node6"><a xlink:href="namespaceocean__model__mod.html#a6b00b9a33be391bb23668abbfa4d99c6" target="_top" xlink:title=" ">
<polygon fill="white" stroke="black" points="92.5,-71.2014 92.5,-101.201 203.5,-101.201 203.5,-71.2014 92.5,-71.2014"/>
<text text-anchor="start" x="100.5" y="-89.2014" font-family="Helvetica,sans-Serif" font-size="10.00">ocean_model_mod::ocean</text>
<text text-anchor="middle" x="148" y="-78.2014" font-family="Helvetica,sans-Serif" font-size="10.00">_model_flux_init</text>
</a>
</g>
</g>
<!-- Node13&#45;&gt;Node18 -->
<g id="edge6" class="edge"><title>Node13&#45;&gt;Node18</title>
<path fill="none" stroke="midnightblue" d="M229.681,-86.2014C221.177,-86.2014 212.365,-86.2014 203.826,-86.2014"/>
<polygon fill="midnightblue" stroke="midnightblue" points="229.864,-89.7015 239.864,-86.2014 229.864,-82.7015 229.864,-89.7015"/>
</g>
<!-- Node15 -->
<g id="node3" class="node"><title>Node15</title>
<g id="a_node3"><a xlink:href="ice__shelf__driver_8F90.html#aec5bef92f0dad343f545cd8d62e378d8" target="_top" xlink:title=" ">
<polygon fill="white" stroke="black" points="0.5,-5.70144 0.5,-24.7014 55.5,-24.7014 55.5,-5.70144 0.5,-5.70144"/>
<text text-anchor="middle" x="28" y="-12.7014" font-family="Helvetica,sans-Serif" font-size="10.00">shelf_main</text>
</a>
</g>
</g>
<!-- Node13&#45;&gt;Node15 -->
<g id="edge7" class="edge"><title>Node13&#45;&gt;Node15</title>
<path fill="none" stroke="midnightblue" d="M266.189,-62.8844C251.912,-45.2329 229.683,-22.3516 204,-12.2014 154.546,7.34307 90.9272,-1.23533 55.6195,-8.62051"/>
<polygon fill="midnightblue" stroke="midnightblue" points="263.638,-65.3053 272.54,-71.0509 269.164,-61.0082 263.638,-65.3053"/>
</g>
<!-- Node19 -->
<g id="node7" class="node"><title>Node19</title>
<g id="a_node7"><a xlink:href="namespacemom__surface__forcing.html#a08ab046cc02cb51f5045c8efa7337f65" target="_top" xlink:title=" ">
<polygon fill="white" stroke="black" points="101,-159.201 101,-189.201 195,-189.201 195,-159.201 101,-159.201"/>
<text text-anchor="start" x="109" y="-177.201" font-family="Helvetica,sans-Serif" font-size="10.00">mom_surface_forcing</text>
<text text-anchor="middle" x="148" y="-166.201" font-family="Helvetica,sans-Serif" font-size="10.00">::surface_forcing_init</text>
</a>
</g>
</g>
<!-- Node13&#45;&gt;Node19 -->
<g id="edge8" class="edge"><title>Node13&#45;&gt;Node19</title>
<path fill="none" stroke="midnightblue" d="M258.827,-108.069C243.752,-121.03 223.56,-137.212 204,-149.201 198.187,-152.764 191.781,-156.13 185.457,-159.168"/>
<polygon fill="midnightblue" stroke="midnightblue" points="261.408,-110.461 266.638,-101.247 256.804,-105.189 261.408,-110.461"/>
</g>
<!-- Node14&#45;&gt;Node15 -->
<g id="edge2" class="edge"><title>Node14&#45;&gt;Node15</title>
<path fill="none" stroke="midnightblue" d="M87.2126,-26.0546C76.1925,-24 65.2089,-21.9523 55.8002,-20.1981"/>
<polygon fill="midnightblue" stroke="midnightblue" points="86.8273,-29.543 97.2994,-27.9352 88.1103,-22.6616 86.8273,-29.543"/>
</g>
<!-- Node16 -->
<g id="node4" class="node"><title>Node16</title>
<g id="a_node4"><a xlink:href="MOM__driver_8F90.html#a08fffeb2d8e8acbf9ed4609be6d258c6" target="_top" xlink:title=" ">
<polygon fill="white" stroke="black" points="0,-120.701 0,-139.701 56,-139.701 56,-120.701 0,-120.701"/>
<text text-anchor="middle" x="28" y="-127.701" font-family="Helvetica,sans-Serif" font-size="10.00">mom_main</text>
</a>
</g>
</g>
<!-- Node14&#45;&gt;Node16 -->
<g id="edge3" class="edge"><title>Node14&#45;&gt;Node16</title>
<path fill="none" stroke="midnightblue" d="M97.8035,-57.3673C95.8025,-58.593 93.8586,-59.8714 92,-61.2014 67.9917,-78.3825 46.278,-106.009 35.7308,-120.545"/>
<polygon fill="midnightblue" stroke="midnightblue" points="99.8168,-60.2526 106.855,-52.333 96.4142,-54.1351 99.8168,-60.2526"/>
</g>
<!-- Node17&#45;&gt;Node16 -->
<g id="edge5" class="edge"><title>Node17&#45;&gt;Node16</title>
<path fill="none" stroke="midnightblue" d="M93.2616,-130.201C80.4778,-130.201 67.3619,-130.201 56.3403,-130.201"/>
<polygon fill="midnightblue" stroke="midnightblue" points="93.3964,-133.702 103.396,-130.201 93.3964,-126.702 93.3964,-133.702"/>
</g>
<!-- Node19&#45;&gt;Node16 -->
<g id="edge9" class="edge"><title>Node19&#45;&gt;Node16</title>
<path fill="none" stroke="midnightblue" d="M97.2448,-155.649C82.5936,-150.186 67.1626,-144.432 54.6872,-139.78"/>
<polygon fill="midnightblue" stroke="midnightblue" points="96.1285,-158.968 106.721,-159.182 98.5742,-152.409 96.1285,-158.968"/>
</g>
</g>
</svg>
