<?xml version="1.0" encoding="UTF-8" standalone="no"?>
<!DOCTYPE svg PUBLIC "-//W3C//DTD SVG 1.1//EN"
 "http://www.w3.org/Graphics/SVG/1.1/DTD/svg11.dtd">
<!-- Generated by graphviz version 2.30.1 (20170916.1124)
 -->
<!-- Title: rossby_front_2d_initialization::rossby_front_initialize_velocity Pages: 1 -->
<svg width="456pt" height="82pt"
 viewBox="0.00 0.00 456.00 82.00" xmlns="http://www.w3.org/2000/svg" xmlns:xlink="http://www.w3.org/1999/xlink">
<g id="graph0" class="graph" transform="scale(1 1) rotate(0) translate(4 78)">
<title>rossby_front_2d_initialization::rossby_front_initialize_velocity</title>
<polygon fill="white" stroke="white" points="-4,5 -4,-78 453,-78 453,5 -4,5"/>
<!-- Node26 -->
<g id="node1" class="node"><title>Node26</title>
<g id="a_node1"><a xlink:title="Initialization of u and v in the Rossby front test.">
<polygon fill="#bfbfbf" stroke="black" points="0.5,-16.5 0.5,-57.5 119.5,-57.5 119.5,-16.5 0.5,-16.5"/>
<text text-anchor="start" x="8.5" y="-45.5" font-family="Helvetica,sans-Serif" font-size="10.00">rossby_front_2d_initialization</text>
<text text-anchor="start" x="8.5" y="-34.5" font-family="Helvetica,sans-Serif" font-size="10.00">::rossby_front_initialize</text>
<text text-anchor="middle" x="60" y="-23.5" font-family="Helvetica,sans-Serif" font-size="10.00">_velocity</text>
</a>
</g>
</g>
<!-- Node27 -->
<g id="node2" class="node"><title>Node27</title>
<g id="a_node2"><a xlink:href="namespacerossby__front__2d__initialization.html#a587a5f5c3f4694558d3d5206840ccab2" target="_top" xlink:title="Analytic prescription of mixed layer temperature gradient in 2d Rossby front test.">
<polygon fill="white" stroke="black" points="164.5,-44 164.5,-74 283.5,-74 283.5,-44 164.5,-44"/>
<text text-anchor="start" x="172.5" y="-62" font-family="Helvetica,sans-Serif" font-size="10.00">rossby_front_2d_initialization</text>
<text text-anchor="middle" x="224" y="-51" font-family="Helvetica,sans-Serif" font-size="10.00">::dtdy</text>
</a>
</g>
</g>
<!-- Node26&#45;&gt;Node27 -->
<g id="edge1" class="edge"><title>Node26&#45;&gt;Node27</title>
<path fill="none" stroke="midnightblue" d="M119.944,-45.0047C131.139,-46.5251 142.943,-48.1281 154.408,-49.685"/>
<polygon fill="midnightblue" stroke="midnightblue" points="153.991,-53.1605 164.371,-51.0381 154.933,-46.2241 153.991,-53.1605"/>
</g>
<!-- Node28 -->
<g id="node3" class="node"><title>Node28</title>
<g id="a_node3"><a xlink:href="namespacerossby__front__2d__initialization.html#aa10adb0378184432ecaa78eb339c6c5a" target="_top" xlink:title="Analytic prescription of mixed layer depth in 2d Rossby front test.">
<polygon fill="white" stroke="black" points="156,-5.5 156,-24.5 292,-24.5 292,-5.5 156,-5.5"/>
<text text-anchor="middle" x="224" y="-12.5" font-family="Helvetica,sans-Serif" font-size="10.00">rossby_front_2d_initialization::hml</text>
</a>
</g>
</g>
<!-- Node26&#45;&gt;Node28 -->
<g id="edge2" class="edge"><title>Node26&#45;&gt;Node28</title>
<path fill="none" stroke="midnightblue" d="M119.944,-28.9953C128.332,-27.8561 137.062,-26.6706 145.734,-25.4929"/>
<polygon fill="midnightblue" stroke="midnightblue" points="146.427,-28.931 155.865,-24.1171 145.485,-21.9947 146.427,-28.931"/>
</g>
<!-- Node29 -->
<g id="node4" class="node"><title>Node29</title>
<g id="a_node4"><a xlink:href="namespacerossby__front__2d__initialization.html#a15a0b752df24fbae7deabe844a418239" target="_top" xlink:title="Pseudo coordinate across domain used by Hml() and dTdy() returns a coordinate from &#45;PI/2 ....">
<polygon fill="white" stroke="black" points="328.5,-0 328.5,-30 447.5,-30 447.5,-0 328.5,-0"/>
<text text-anchor="start" x="336.5" y="-18" font-family="Helvetica,sans-Serif" font-size="10.00">rossby_front_2d_initialization</text>
<text text-anchor="middle" x="388" y="-7" font-family="Helvetica,sans-Serif" font-size="10.00">::ypseudo</text>
</a>
</g>
</g>
<!-- Node28&#45;&gt;Node29 -->
<g id="edge3" class="edge"><title>Node28&#45;&gt;Node29</title>
<path fill="none" stroke="midnightblue" d="M292.295,-15C300.918,-15 309.754,-15 318.397,-15"/>
<polygon fill="midnightblue" stroke="midnightblue" points="318.43,-18.5001 328.43,-15 318.43,-11.5001 318.43,-18.5001"/>
</g>
</g>
</svg>
