<?xml version="1.0" encoding="UTF-8" standalone="no"?>
<!DOCTYPE svg PUBLIC "-//W3C//DTD SVG 1.1//EN"
 "http://www.w3.org/Graphics/SVG/1.1/DTD/svg11.dtd">
<!-- Generated by graphviz version 2.30.1 (20170916.1124)
 -->
<!-- Title: ocean_model_mod::update_ocean_model Pages: 1 -->
<svg width="542pt" height="228pt"
 viewBox="0.00 0.00 542.00 228.00" xmlns="http://www.w3.org/2000/svg" xmlns:xlink="http://www.w3.org/1999/xlink">
<g id="graph0" class="graph" transform="scale(1 1) rotate(0) translate(4 224)">
<title>ocean_model_mod::update_ocean_model</title>
<polygon fill="white" stroke="white" points="-4,5 -4,-224 539,-224 539,5 -4,5"/>
<!-- Node91 -->
<g id="node1" class="node"><title>Node91</title>
<g id="a_node1"><a xlink:title=" ">
<polygon fill="#bfbfbf" stroke="black" points="0,-108 0,-138 114,-138 114,-108 0,-108"/>
<text text-anchor="start" x="8" y="-126" font-family="Helvetica,sans-Serif" font-size="10.00">ocean_model_mod::update</text>
<text text-anchor="middle" x="57" y="-115" font-family="Helvetica,sans-Serif" font-size="10.00">_ocean_model</text>
</a>
</g>
</g>
<!-- Node92 -->
<g id="node2" class="node"><title>Node92</title>
<g id="a_node2"><a xlink:href="namespaceocean__model__mod.html#abb35a8c805506687bdbffdfeeb657b7d" target="_top" xlink:title=" ">
<polygon fill="white" stroke="black" points="160.5,-190 160.5,-220 263.5,-220 263.5,-190 160.5,-190"/>
<text text-anchor="start" x="168.5" y="-208" font-family="Helvetica,sans-Serif" font-size="10.00">ocean_model_mod::add</text>
<text text-anchor="middle" x="212" y="-197" font-family="Helvetica,sans-Serif" font-size="10.00">_berg_flux_to_shelf</text>
</a>
</g>
</g>
<!-- Node91&#45;&gt;Node92 -->
<g id="edge1" class="edge"><title>Node91&#45;&gt;Node92</title>
<path fill="none" stroke="midnightblue" d="M83.9529,-138.196C102.263,-148.786 127.448,-163.093 150,-175 156.529,-178.447 163.51,-182.001 170.333,-185.404"/>
<polygon fill="midnightblue" stroke="midnightblue" points="168.964,-188.632 179.48,-189.926 172.067,-182.357 168.964,-188.632"/>
</g>
<!-- Node93 -->
<g id="node3" class="node"><title>Node93</title>
<g id="a_node3"><a xlink:href="namespacemom__error__handler.html#a9cda07a87815f0e5594066162b4345c3" target="_top" xlink:title="Writes a message about entering a subroutine if call tree reporting is active.">
<polygon fill="white" stroke="black" points="310.5,-133 310.5,-163 403.5,-163 403.5,-133 310.5,-133"/>
<text text-anchor="start" x="318.5" y="-151" font-family="Helvetica,sans-Serif" font-size="10.00">mom_error_handler::</text>
<text text-anchor="middle" x="357" y="-140" font-family="Helvetica,sans-Serif" font-size="10.00">calltree_enter</text>
</a>
</g>
</g>
<!-- Node91&#45;&gt;Node93 -->
<g id="edge2" class="edge"><title>Node91&#45;&gt;Node93</title>
<path fill="none" stroke="midnightblue" d="M114.186,-136.223C125.957,-138.537 138.337,-140.636 150,-142 200.615,-147.918 258.675,-149.108 300.228,-148.999"/>
<polygon fill="midnightblue" stroke="midnightblue" points="300.441,-152.498 310.422,-148.946 300.404,-145.498 300.441,-152.498"/>
</g>
<!-- Node95 -->
<g id="node5" class="node"><title>Node95</title>
<g id="a_node5"><a xlink:href="namespacemom__error__handler.html#a88ea67781e2ed9b73ab7eac8ea5e8578" target="_top" xlink:title="Writes a message about leaving a subroutine if call tree reporting is active.">
<polygon fill="white" stroke="black" points="310.5,-84 310.5,-114 403.5,-114 403.5,-84 310.5,-84"/>
<text text-anchor="start" x="318.5" y="-102" font-family="Helvetica,sans-Serif" font-size="10.00">mom_error_handler::</text>
<text text-anchor="middle" x="357" y="-91" font-family="Helvetica,sans-Serif" font-size="10.00">calltree_leave</text>
</a>
</g>
</g>
<!-- Node91&#45;&gt;Node95 -->
<g id="edge4" class="edge"><title>Node91&#45;&gt;Node95</title>
<path fill="none" stroke="midnightblue" d="M114.181,-109.733C125.952,-107.422 138.333,-105.335 150,-104 200.623,-98.2058 258.682,-97.3112 300.233,-97.6579"/>
<polygon fill="midnightblue" stroke="midnightblue" points="300.388,-101.16 310.426,-97.7706 300.466,-94.1602 300.388,-101.16"/>
</g>
<!-- Node96 -->
<g id="node6" class="node"><title>Node96</title>
<g id="a_node6"><a xlink:href="namespaceocean__model__mod.html#a6a8bf59f8921de9dbff794f676b54aba" target="_top" xlink:title=" ">
<polygon fill="white" stroke="black" points="154,-26 154,-56 270,-56 270,-26 154,-26"/>
<text text-anchor="start" x="162" y="-44" font-family="Helvetica,sans-Serif" font-size="10.00">ocean_model_mod::convert</text>
<text text-anchor="middle" x="212" y="-33" font-family="Helvetica,sans-Serif" font-size="10.00">_state_to_ocean_type</text>
</a>
</g>
</g>
<!-- Node91&#45;&gt;Node96 -->
<g id="edge6" class="edge"><title>Node91&#45;&gt;Node96</title>
<path fill="none" stroke="midnightblue" d="M83.9529,-107.804C102.263,-97.2137 127.448,-82.9065 150,-71 156.529,-67.5528 163.51,-63.9988 170.333,-60.596"/>
<polygon fill="midnightblue" stroke="midnightblue" points="172.067,-63.6432 179.48,-56.0739 168.964,-57.3682 172.067,-63.6432"/>
</g>
<!-- Node99 -->
<g id="node9" class="node"><title>Node99</title>
<g id="a_node9"><a xlink:href="namespacemom.html#a0dd32ae97ee7dd3cbb8e14e4cf11f191" target="_top" xlink:title="This subroutine finishes initializing MOM and writes out the initial conditions.">
<polygon fill="white" stroke="black" points="150,-113.5 150,-132.5 274,-132.5 274,-113.5 150,-113.5"/>
<text text-anchor="middle" x="212" y="-120.5" font-family="Helvetica,sans-Serif" font-size="10.00">mom::finish_mom_initialization</text>
</a>
</g>
</g>
<!-- Node91&#45;&gt;Node99 -->
<g id="edge9" class="edge"><title>Node91&#45;&gt;Node99</title>
<path fill="none" stroke="midnightblue" d="M114.103,-123C122.439,-123 131.125,-123 139.722,-123"/>
<polygon fill="midnightblue" stroke="midnightblue" points="139.747,-126.5 149.747,-123 139.747,-119.5 139.747,-126.5"/>
</g>
<!-- Node94 -->
<g id="node4" class="node"><title>Node94</title>
<g id="a_node4"><a xlink:href="namespacemom__error__handler.html#ad5f00a53059c72fe2332d1436c80ca71" target="_top" xlink:title=" ">
<polygon fill="white" stroke="black" points="440.5,-108 440.5,-138 533.5,-138 533.5,-108 440.5,-108"/>
<text text-anchor="start" x="448.5" y="-126" font-family="Helvetica,sans-Serif" font-size="10.00">mom_error_handler::</text>
<text text-anchor="middle" x="487" y="-115" font-family="Helvetica,sans-Serif" font-size="10.00">is_root_pe</text>
</a>
</g>
</g>
<!-- Node93&#45;&gt;Node94 -->
<g id="edge3" class="edge"><title>Node93&#45;&gt;Node94</title>
<path fill="none" stroke="midnightblue" d="M403.849,-139.045C412.501,-137.355 421.636,-135.571 430.545,-133.831"/>
<polygon fill="midnightblue" stroke="midnightblue" points="431.327,-137.245 440.471,-131.892 429.985,-130.374 431.327,-137.245"/>
</g>
<!-- Node95&#45;&gt;Node94 -->
<g id="edge5" class="edge"><title>Node95&#45;&gt;Node94</title>
<path fill="none" stroke="midnightblue" d="M403.849,-107.597C412.501,-109.219 421.636,-110.932 430.545,-112.602"/>
<polygon fill="midnightblue" stroke="midnightblue" points="429.997,-116.06 440.471,-114.463 431.287,-109.18 429.997,-116.06"/>
</g>
<!-- Node97 -->
<g id="node7" class="node"><title>Node97</title>
<g id="a_node7"><a xlink:href="gsw__pt__from__ct_8f90.html#a39fd494fdb16e10c262c380b5778abc5" target="_top" xlink:title=" ">
<polygon fill="white" stroke="black" points="320,-38.5 320,-57.5 394,-57.5 394,-38.5 320,-38.5"/>
<text text-anchor="middle" x="357" y="-45.5" font-family="Helvetica,sans-Serif" font-size="10.00">gsw_pt_from_ct</text>
</a>
</g>
</g>
<!-- Node96&#45;&gt;Node97 -->
<g id="edge7" class="edge"><title>Node96&#45;&gt;Node97</title>
<path fill="none" stroke="midnightblue" d="M270.34,-43.8068C283.331,-44.4428 296.971,-45.1105 309.452,-45.7214"/>
<polygon fill="midnightblue" stroke="midnightblue" points="309.464,-49.2261 319.623,-46.2193 309.806,-42.2345 309.464,-49.2261"/>
</g>
<!-- Node98 -->
<g id="node8" class="node"><title>Node98</title>
<g id="a_node8"><a xlink:href="gsw__sp__from__sr_8f90.html#aa7b9e331b76a3f6dc1bd4ca41b78283a" target="_top" xlink:title=" ">
<polygon fill="white" stroke="black" points="319,-0.5 319,-19.5 395,-19.5 395,-0.5 319,-0.5"/>
<text text-anchor="middle" x="357" y="-7.5" font-family="Helvetica,sans-Serif" font-size="10.00">gsw_sp_from_sr</text>
</a>
</g>
</g>
<!-- Node96&#45;&gt;Node98 -->
<g id="edge8" class="edge"><title>Node96&#45;&gt;Node98</title>
<path fill="none" stroke="midnightblue" d="M270.34,-28.5697C283.088,-25.8062 296.461,-22.907 308.751,-20.2428"/>
<polygon fill="midnightblue" stroke="midnightblue" points="309.75,-23.6076 318.781,-18.0684 308.267,-16.7665 309.75,-23.6076"/>
</g>
<!-- Node99&#45;&gt;Node93 -->
<g id="edge10" class="edge"><title>Node99&#45;&gt;Node93</title>
<path fill="none" stroke="midnightblue" d="M267.47,-132.523C278.117,-134.384 289.299,-136.339 299.994,-138.209"/>
<polygon fill="midnightblue" stroke="midnightblue" points="299.613,-141.695 310.067,-139.97 300.819,-134.8 299.613,-141.695"/>
</g>
<!-- Node99&#45;&gt;Node95 -->
<g id="edge11" class="edge"><title>Node99&#45;&gt;Node95</title>
<path fill="none" stroke="midnightblue" d="M269.928,-113.446C279.871,-111.777 290.206,-110.042 300.12,-108.378"/>
<polygon fill="midnightblue" stroke="midnightblue" points="300.983,-111.783 310.265,-106.676 299.824,-104.879 300.983,-111.783"/>
</g>
</g>
</svg>
