<?xml version="1.0" encoding="UTF-8" standalone="no"?>
<!DOCTYPE svg PUBLIC "-//W3C//DTD SVG 1.1//EN"
 "http://www.w3.org/Graphics/SVG/1.1/DTD/svg11.dtd">
<!-- Generated by graphviz version 2.30.1 (20170916.1124)
 -->
<!-- Title: mom_regridding::check_grid_column Pages: 1 -->
<svg width="418pt" height="38pt"
 viewBox="0.00 0.00 418.00 38.00" xmlns="http://www.w3.org/2000/svg" xmlns:xlink="http://www.w3.org/1999/xlink">
<g id="graph0" class="graph" transform="scale(1 1) rotate(0) translate(4 34)">
<title>mom_regridding::check_grid_column</title>
<polygon fill="white" stroke="white" points="-4,5 -4,-34 415,-34 415,5 -4,5"/>
<!-- Node267 -->
<g id="node1" class="node"><title>Node267</title>
<g id="a_node1"><a xlink:title="Check that the total thickness of new and old grids are consistent.">
<polygon fill="#bfbfbf" stroke="black" points="310,-0 310,-30 410,-30 410,-0 310,-0"/>
<text text-anchor="start" x="318" y="-18" font-family="Helvetica,sans-Serif" font-size="10.00">mom_regridding::check</text>
<text text-anchor="middle" x="360" y="-7" font-family="Helvetica,sans-Serif" font-size="10.00">_grid_column</text>
</a>
</g>
</g>
<!-- Node268 -->
<g id="node2" class="node"><title>Node268</title>
<g id="a_node2"><a xlink:href="namespacemom__regridding.html#a810d6a0658d645ac7a9e2b6680ce819c" target="_top" xlink:title="Check that the total thickness of two grids match.">
<polygon fill="white" stroke="black" points="174,-0 174,-30 274,-30 274,-0 174,-0"/>
<text text-anchor="start" x="182" y="-18" font-family="Helvetica,sans-Serif" font-size="10.00">mom_regridding::check</text>
<text text-anchor="middle" x="224" y="-7" font-family="Helvetica,sans-Serif" font-size="10.00">_remapping_grid</text>
</a>
</g>
</g>
<!-- Node267&#45;&gt;Node268 -->
<g id="edge1" class="edge"><title>Node267&#45;&gt;Node268</title>
<path fill="none" stroke="midnightblue" d="M299.602,-15C291.091,-15 282.414,-15 274.13,-15"/>
<polygon fill="midnightblue" stroke="midnightblue" points="299.864,-18.5001 309.864,-15 299.864,-11.5001 299.864,-18.5001"/>
</g>
<!-- Node269 -->
<g id="node3" class="node"><title>Node269</title>
<g id="a_node3"><a xlink:href="namespacemom__regridding.html#abf6d4e0d14c8b3b69fa4ffca42122c5f" target="_top" xlink:title=" ">
<polygon fill="white" stroke="black" points="0.5,-5.5 0.5,-24.5 137.5,-24.5 137.5,-5.5 0.5,-5.5"/>
<text text-anchor="middle" x="69" y="-12.5" font-family="Helvetica,sans-Serif" font-size="10.00">mom_regridding::regridding_main</text>
</a>
</g>
</g>
<!-- Node268&#45;&gt;Node269 -->
<g id="edge2" class="edge"><title>Node268&#45;&gt;Node269</title>
<path fill="none" stroke="midnightblue" d="M163.54,-15C155.026,-15 146.216,-15 137.56,-15"/>
<polygon fill="midnightblue" stroke="midnightblue" points="163.748,-18.5001 173.748,-15 163.748,-11.5001 163.748,-18.5001"/>
</g>
</g>
</svg>
