<?xml version="1.0" encoding="UTF-8" standalone="no"?>
<!DOCTYPE svg PUBLIC "-//W3C//DTD SVG 1.1//EN"
 "http://www.w3.org/Graphics/SVG/1.1/DTD/svg11.dtd">
<!-- Generated by graphviz version 2.30.1 (20170916.1124)
 -->
<!-- Title: mom_coms::efp_list_sum_across_pes Pages: 1 -->
<svg width="398pt" height="115pt"
 viewBox="0.00 0.00 398.00 115.00" xmlns="http://www.w3.org/2000/svg" xmlns:xlink="http://www.w3.org/1999/xlink">
<g id="graph0" class="graph" transform="scale(1 1) rotate(0) translate(4 111)">
<title>mom_coms::efp_list_sum_across_pes</title>
<polygon fill="white" stroke="white" points="-4,5 -4,-111 395,-111 395,5 -4,5"/>
<!-- Node7 -->
<g id="node1" class="node"><title>Node7</title>
<g id="a_node1"><a xlink:title=" ">
<polygon fill="#bfbfbf" stroke="black" points="0.5,-44 0.5,-74 87.5,-74 87.5,-44 0.5,-44"/>
<text text-anchor="start" x="8.5" y="-62" font-family="Helvetica,sans-Serif" font-size="10.00">mom_coms::efp_list</text>
<text text-anchor="middle" x="44" y="-51" font-family="Helvetica,sans-Serif" font-size="10.00">_sum_across_pes</text>
</a>
</g>
</g>
<!-- Node8 -->
<g id="node2" class="node"><title>Node8</title>
<g id="a_node2"><a xlink:href="namespacemom__coms.html#a3fe107391eb9d2c199eb09e451f4dbb2" target="_top" xlink:title=" ">
<polygon fill="white" stroke="black" points="124.5,-87.5 124.5,-106.5 239.5,-106.5 239.5,-87.5 124.5,-87.5"/>
<text text-anchor="middle" x="182" y="-94.5" font-family="Helvetica,sans-Serif" font-size="10.00">mom_coms::carry_overflow</text>
</a>
</g>
</g>
<!-- Node7&#45;&gt;Node8 -->
<g id="edge1" class="edge"><title>Node7&#45;&gt;Node8</title>
<path fill="none" stroke="midnightblue" d="M87.6581,-70.9192C103.25,-75.2758 120.916,-80.2119 136.652,-84.6088"/>
<polygon fill="midnightblue" stroke="midnightblue" points="136.1,-88.0885 146.673,-87.4087 137.984,-81.3467 136.1,-88.0885"/>
</g>
<!-- Node9 -->
<g id="node3" class="node"><title>Node9</title>
<g id="a_node3"><a xlink:href="namespacemom__coms.html#a4aaf51b372bcaf7b46939145577eff92" target="_top" xlink:title=" ">
<polygon fill="white" stroke="black" points="130.5,-49.5 130.5,-68.5 233.5,-68.5 233.5,-49.5 130.5,-49.5"/>
<text text-anchor="middle" x="182" y="-56.5" font-family="Helvetica,sans-Serif" font-size="10.00">mom_coms::efp_to_real</text>
</a>
</g>
</g>
<!-- Node7&#45;&gt;Node9 -->
<g id="edge2" class="edge"><title>Node7&#45;&gt;Node9</title>
<path fill="none" stroke="midnightblue" d="M87.6581,-59C98.0357,-59 109.332,-59 120.367,-59"/>
<polygon fill="midnightblue" stroke="midnightblue" points="120.393,-62.5001 130.393,-59 120.393,-55.5001 120.393,-62.5001"/>
</g>
<!-- Node12 -->
<g id="node6" class="node"><title>Node12</title>
<g id="a_node6"><a xlink:href="namespacemom__error__handler.html#a460cfb79a06c29fc249952c2a3710d67" target="_top" xlink:title=" ">
<polygon fill="white" stroke="black" points="135.5,-0 135.5,-30 228.5,-30 228.5,-0 135.5,-0"/>
<text text-anchor="start" x="143.5" y="-18" font-family="Helvetica,sans-Serif" font-size="10.00">mom_error_handler::</text>
<text text-anchor="middle" x="182" y="-7" font-family="Helvetica,sans-Serif" font-size="10.00">mom_error</text>
</a>
</g>
</g>
<!-- Node7&#45;&gt;Node12 -->
<g id="edge5" class="edge"><title>Node7&#45;&gt;Node12</title>
<path fill="none" stroke="midnightblue" d="M87.6581,-45.1988C99.7008,-41.3027 112.981,-37.0062 125.653,-32.9063"/>
<polygon fill="midnightblue" stroke="midnightblue" points="126.758,-36.2276 135.195,-29.8192 124.603,-29.5675 126.758,-36.2276"/>
</g>
<!-- Node10 -->
<g id="node4" class="node"><title>Node10</title>
<g id="a_node4"><a xlink:href="namespacemom__coms.html#ab8feff19e782af36bb7ccccd5ba9eddc" target="_top" xlink:title=" ">
<polygon fill="white" stroke="black" points="276,-87.5 276,-106.5 390,-106.5 390,-87.5 276,-87.5"/>
<text text-anchor="middle" x="333" y="-94.5" font-family="Helvetica,sans-Serif" font-size="10.00">mom_coms::regularize_ints</text>
</a>
</g>
</g>
<!-- Node9&#45;&gt;Node10 -->
<g id="edge3" class="edge"><title>Node9&#45;&gt;Node10</title>
<path fill="none" stroke="midnightblue" d="M220.599,-68.589C240.084,-73.5583 264.075,-79.6767 284.796,-84.9613"/>
<polygon fill="midnightblue" stroke="midnightblue" points="284.117,-88.4001 294.671,-87.4799 285.846,-81.6172 284.117,-88.4001"/>
</g>
<!-- Node11 -->
<g id="node5" class="node"><title>Node11</title>
<g id="a_node5"><a xlink:href="namespacemom__coms.html#a24ac5b7cc37b1498f23b61eea03fb8c3" target="_top" xlink:title=" ">
<polygon fill="white" stroke="black" points="281,-49.5 281,-68.5 385,-68.5 385,-49.5 281,-49.5"/>
<text text-anchor="middle" x="333" y="-56.5" font-family="Helvetica,sans-Serif" font-size="10.00">mom_coms::ints_to_real</text>
</a>
</g>
</g>
<!-- Node9&#45;&gt;Node11 -->
<g id="edge4" class="edge"><title>Node9&#45;&gt;Node11</title>
<path fill="none" stroke="midnightblue" d="M233.861,-59C245.716,-59 258.462,-59 270.716,-59"/>
<polygon fill="midnightblue" stroke="midnightblue" points="270.863,-62.5001 280.863,-59 270.863,-55.5001 270.863,-62.5001"/>
</g>
<!-- Node13 -->
<g id="node7" class="node"><title>Node13</title>
<g id="a_node7"><a xlink:href="namespacemom__error__handler.html#ad5f00a53059c72fe2332d1436c80ca71" target="_top" xlink:title=" ">
<polygon fill="white" stroke="black" points="286.5,-0 286.5,-30 379.5,-30 379.5,-0 286.5,-0"/>
<text text-anchor="start" x="294.5" y="-18" font-family="Helvetica,sans-Serif" font-size="10.00">mom_error_handler::</text>
<text text-anchor="middle" x="333" y="-7" font-family="Helvetica,sans-Serif" font-size="10.00">is_root_pe</text>
</a>
</g>
</g>
<!-- Node12&#45;&gt;Node13 -->
<g id="edge6" class="edge"><title>Node12&#45;&gt;Node13</title>
<path fill="none" stroke="midnightblue" d="M228.515,-15C243.538,-15 260.425,-15 276.131,-15"/>
<polygon fill="midnightblue" stroke="midnightblue" points="276.251,-18.5001 286.251,-15 276.251,-11.5001 276.251,-18.5001"/>
</g>
</g>
</svg>
