<?xml version="1.0" encoding="UTF-8" standalone="no"?>
<!DOCTYPE svg PUBLIC "-//W3C//DTD SVG 1.1//EN"
 "http://www.w3.org/Graphics/SVG/1.1/DTD/svg11.dtd">
<!-- Generated by graphviz version 2.30.1 (20170916.1124)
 -->
<!-- Title: mom_ale::ale_build_grid Pages: 1 -->
<svg width="372pt" height="87pt"
 viewBox="0.00 0.00 372.00 87.00" xmlns="http://www.w3.org/2000/svg" xmlns:xlink="http://www.w3.org/1999/xlink">
<g id="graph0" class="graph" transform="scale(1 1) rotate(0) translate(4 83)">
<title>mom_ale::ale_build_grid</title>
<polygon fill="white" stroke="white" points="-4,5 -4,-83 369,-83 369,5 -4,5"/>
<!-- Node2 -->
<g id="node1" class="node"><title>Node2</title>
<g id="a_node1"><a xlink:title="Generates new grid.">
<polygon fill="#bfbfbf" stroke="black" points="0,-29.5 0,-48.5 104,-48.5 104,-29.5 0,-29.5"/>
<text text-anchor="middle" x="52" y="-36.5" font-family="Helvetica,sans-Serif" font-size="10.00">mom_ale::ale_build_grid</text>
</a>
</g>
</g>
<!-- Node3 -->
<g id="node2" class="node"><title>Node3</title>
<g id="a_node2"><a xlink:href="namespacemom__error__handler.html#a9cda07a87815f0e5594066162b4345c3" target="_top" xlink:title="Writes a message about entering a subroutine if call tree reporting is active.">
<polygon fill="white" stroke="black" points="140.5,-49 140.5,-79 233.5,-79 233.5,-49 140.5,-49"/>
<text text-anchor="start" x="148.5" y="-67" font-family="Helvetica,sans-Serif" font-size="10.00">mom_error_handler::</text>
<text text-anchor="middle" x="187" y="-56" font-family="Helvetica,sans-Serif" font-size="10.00">calltree_enter</text>
</a>
</g>
</g>
<!-- Node2&#45;&gt;Node3 -->
<g id="edge1" class="edge"><title>Node2&#45;&gt;Node3</title>
<path fill="none" stroke="midnightblue" d="M103.661,-48.5227C112.408,-50.167 121.544,-51.8841 130.413,-53.5513"/>
<polygon fill="midnightblue" stroke="midnightblue" points="129.804,-56.998 140.278,-55.4057 131.097,-50.1185 129.804,-56.998"/>
</g>
<!-- Node5 -->
<g id="node4" class="node"><title>Node5</title>
<g id="a_node4"><a xlink:href="namespacemom__error__handler.html#a88ea67781e2ed9b73ab7eac8ea5e8578" target="_top" xlink:title="Writes a message about leaving a subroutine if call tree reporting is active.">
<polygon fill="white" stroke="black" points="140.5,-0 140.5,-30 233.5,-30 233.5,-0 140.5,-0"/>
<text text-anchor="start" x="148.5" y="-18" font-family="Helvetica,sans-Serif" font-size="10.00">mom_error_handler::</text>
<text text-anchor="middle" x="187" y="-7" font-family="Helvetica,sans-Serif" font-size="10.00">calltree_leave</text>
</a>
</g>
</g>
<!-- Node2&#45;&gt;Node5 -->
<g id="edge3" class="edge"><title>Node2&#45;&gt;Node5</title>
<path fill="none" stroke="midnightblue" d="M104.041,-29.7896C112.571,-28.2504 121.459,-26.6464 130.103,-25.0867"/>
<polygon fill="midnightblue" stroke="midnightblue" points="130.881,-28.5028 140.101,-23.2825 129.638,-21.6141 130.881,-28.5028"/>
</g>
<!-- Node4 -->
<g id="node3" class="node"><title>Node4</title>
<g id="a_node3"><a xlink:href="namespacemom__error__handler.html#ad5f00a53059c72fe2332d1436c80ca71" target="_top" xlink:title=" ">
<polygon fill="white" stroke="black" points="270.5,-24 270.5,-54 363.5,-54 363.5,-24 270.5,-24"/>
<text text-anchor="start" x="278.5" y="-42" font-family="Helvetica,sans-Serif" font-size="10.00">mom_error_handler::</text>
<text text-anchor="middle" x="317" y="-31" font-family="Helvetica,sans-Serif" font-size="10.00">is_root_pe</text>
</a>
</g>
</g>
<!-- Node3&#45;&gt;Node4 -->
<g id="edge2" class="edge"><title>Node3&#45;&gt;Node4</title>
<path fill="none" stroke="midnightblue" d="M233.849,-55.045C242.501,-53.3552 251.636,-51.5712 260.545,-49.8311"/>
<polygon fill="midnightblue" stroke="midnightblue" points="261.327,-53.2445 270.471,-47.8924 259.985,-46.3743 261.327,-53.2445"/>
</g>
<!-- Node5&#45;&gt;Node4 -->
<g id="edge4" class="edge"><title>Node5&#45;&gt;Node4</title>
<path fill="none" stroke="midnightblue" d="M233.849,-23.5968C242.501,-25.219 251.636,-26.9317 260.545,-28.6022"/>
<polygon fill="midnightblue" stroke="midnightblue" points="259.997,-32.0603 270.471,-30.4633 261.287,-25.1802 259.997,-32.0603"/>
</g>
</g>
</svg>
