<?xml version="1.0" encoding="UTF-8" standalone="no"?>
<!DOCTYPE svg PUBLIC "-//W3C//DTD SVG 1.1//EN"
 "http://www.w3.org/Graphics/SVG/1.1/DTD/svg11.dtd">
<!-- Generated by graphviz version 2.30.1 (20170916.1124)
 -->
<!-- Title: mom_diag_vkernels::reintegrate_column Pages: 1 -->
<svg width="720pt" height="82pt"
 viewBox="0.00 0.00 720.00 82.00" xmlns="http://www.w3.org/2000/svg" xmlns:xlink="http://www.w3.org/1999/xlink">
<g id="graph0" class="graph" transform="scale(1 1) rotate(0) translate(4 78)">
<title>mom_diag_vkernels::reintegrate_column</title>
<polygon fill="white" stroke="white" points="-4,5 -4,-78 717,-78 717,5 -4,5"/>
<!-- Node18 -->
<g id="node1" class="node"><title>Node18</title>
<g id="a_node1"><a xlink:title="Conservatively calculate integrated data, uh_dest, on grid h_dest, from layer&#45;integrated data,...">
<polygon fill="#bfbfbf" stroke="black" points="620,-22 620,-52 712,-52 712,-22 620,-22"/>
<text text-anchor="start" x="628" y="-40" font-family="Helvetica,sans-Serif" font-size="10.00">mom_diag_vkernels::</text>
<text text-anchor="middle" x="666" y="-29" font-family="Helvetica,sans-Serif" font-size="10.00">reintegrate_column</text>
</a>
</g>
</g>
<!-- Node19 -->
<g id="node2" class="node"><title>Node19</title>
<g id="a_node2"><a xlink:href="MOM__diag__vkernels_8F90.html#ad40d8068b3cc78571f4c0c405212f7d8" target="_top" xlink:title="Returns true if a test of reintegrate_column() produces the wrong answer.">
<polygon fill="white" stroke="black" points="489.5,-49.5 489.5,-68.5 562.5,-68.5 562.5,-49.5 489.5,-49.5"/>
<text text-anchor="middle" x="526" y="-56.5" font-family="Helvetica,sans-Serif" font-size="10.00">test_reintegrate</text>
</a>
</g>
</g>
<!-- Node18&#45;&gt;Node19 -->
<g id="edge1" class="edge"><title>Node18&#45;&gt;Node19</title>
<path fill="none" stroke="midnightblue" d="M609.597,-45.8324C593.776,-48.3546 576.961,-51.0351 562.662,-53.3148"/>
<polygon fill="midnightblue" stroke="midnightblue" points="610.489,-49.2344 619.814,-44.2036 609.387,-42.3217 610.489,-49.2344"/>
</g>
<!-- Node24 -->
<g id="node7" class="node"><title>Node24</title>
<g id="a_node7"><a xlink:href="namespacemom__diag__remap.html#a123c7b7093ec2c3c304024184c3c7287" target="_top" xlink:title="Vertically re&#45;grid an already vertically&#45;integrated diagnostic field to alternative vertical grid.">
<polygon fill="white" stroke="black" points="468,-0 468,-30 584,-30 584,-0 468,-0"/>
<text text-anchor="start" x="476" y="-18" font-family="Helvetica,sans-Serif" font-size="10.00">mom_diag_remap::vertically</text>
<text text-anchor="middle" x="526" y="-7" font-family="Helvetica,sans-Serif" font-size="10.00">_reintegrate_diag_field</text>
</a>
</g>
</g>
<!-- Node18&#45;&gt;Node24 -->
<g id="edge6" class="edge"><title>Node18&#45;&gt;Node24</title>
<path fill="none" stroke="midnightblue" d="M609.788,-28.1981C601.426,-26.865 592.782,-25.487 584.375,-24.1468"/>
<polygon fill="midnightblue" stroke="midnightblue" points="609.387,-31.6783 619.814,-29.7964 610.489,-24.7656 609.387,-31.6783"/>
</g>
<!-- Node20 -->
<g id="node3" class="node"><title>Node20</title>
<g id="a_node3"><a xlink:href="namespacemom__diag__vkernels.html#a87079735c577e9119ad7919d6bf6cd39" target="_top" xlink:title="Returns true if any unit tests for module MOM_diag_vkernels fail.">
<polygon fill="white" stroke="black" points="328,-44 328,-74 432,-74 432,-44 328,-44"/>
<text text-anchor="start" x="336" y="-62" font-family="Helvetica,sans-Serif" font-size="10.00">mom_diag_vkernels::</text>
<text text-anchor="middle" x="380" y="-51" font-family="Helvetica,sans-Serif" font-size="10.00">diag_vkernels_unit_tests</text>
</a>
</g>
</g>
<!-- Node19&#45;&gt;Node20 -->
<g id="edge2" class="edge"><title>Node19&#45;&gt;Node20</title>
<path fill="none" stroke="midnightblue" d="M479.347,-59C464.356,-59 447.597,-59 432.22,-59"/>
<polygon fill="midnightblue" stroke="midnightblue" points="479.405,-62.5001 489.404,-59 479.404,-55.5001 479.405,-62.5001"/>
</g>
<!-- Node21 -->
<g id="node4" class="node"><title>Node21</title>
<g id="a_node4"><a xlink:href="namespacemom.html#ae77cfd2e790f1266b31d93c58659d46c" target="_top" xlink:title="Calls unit tests for other modules. These are NOT normally invoked and so we provide the module use s...">
<polygon fill="white" stroke="black" points="218.5,-49.5 218.5,-68.5 291.5,-68.5 291.5,-49.5 218.5,-49.5"/>
<text text-anchor="middle" x="255" y="-56.5" font-family="Helvetica,sans-Serif" font-size="10.00">mom::unit_tests</text>
</a>
</g>
</g>
<!-- Node20&#45;&gt;Node21 -->
<g id="edge3" class="edge"><title>Node20&#45;&gt;Node21</title>
<path fill="none" stroke="midnightblue" d="M317.858,-59C308.92,-59 299.971,-59 291.768,-59"/>
<polygon fill="midnightblue" stroke="midnightblue" points="317.906,-62.5001 327.905,-59 317.905,-55.5001 317.906,-62.5001"/>
</g>
<!-- Node22 -->
<g id="node5" class="node"><title>Node22</title>
<g id="a_node5"><a xlink:href="namespacemom.html#a0be2869fef30e1e0604facfe1b41555d" target="_top" xlink:title="This subroutine initializes MOM.">
<polygon fill="white" stroke="black" points="92.5,-49.5 92.5,-68.5 181.5,-68.5 181.5,-49.5 92.5,-49.5"/>
<text text-anchor="middle" x="137" y="-56.5" font-family="Helvetica,sans-Serif" font-size="10.00">mom::initialize_mom</text>
</a>
</g>
</g>
<!-- Node21&#45;&gt;Node22 -->
<g id="edge4" class="edge"><title>Node21&#45;&gt;Node22</title>
<path fill="none" stroke="midnightblue" d="M208.196,-59C199.437,-59 190.288,-59 181.6,-59"/>
<polygon fill="midnightblue" stroke="midnightblue" points="208.25,-62.5001 218.25,-59 208.25,-55.5001 208.25,-62.5001"/>
</g>
<!-- Node23 -->
<g id="node6" class="node"><title>Node23</title>
<g id="a_node6"><a xlink:href="MOM__driver_8F90.html#a08fffeb2d8e8acbf9ed4609be6d258c6" target="_top" xlink:title=" ">
<polygon fill="white" stroke="black" points="0,-49.5 0,-68.5 56,-68.5 56,-49.5 0,-49.5"/>
<text text-anchor="middle" x="28" y="-56.5" font-family="Helvetica,sans-Serif" font-size="10.00">mom_main</text>
</a>
</g>
</g>
<!-- Node22&#45;&gt;Node23 -->
<g id="edge5" class="edge"><title>Node22&#45;&gt;Node23</title>
<path fill="none" stroke="midnightblue" d="M82.3096,-59C73.2562,-59 64.21,-59 56.2082,-59"/>
<polygon fill="midnightblue" stroke="midnightblue" points="82.479,-62.5001 92.479,-59 82.479,-55.5001 82.479,-62.5001"/>
</g>
</g>
</svg>
