<?xml version="1.0" encoding="UTF-8" standalone="no"?>
<!DOCTYPE svg PUBLIC "-//W3C//DTD SVG 1.1//EN"
 "http://www.w3.org/Graphics/SVG/1.1/DTD/svg11.dtd">
<!-- Generated by graphviz version 2.30.1 (20170916.1124)
 -->
<!-- Title: mom_eos::calculate_density_derivs Pages: 1 -->
<!--zoomable 1026 -->
<svg id="main" version="1.1" xmlns="http://www.w3.org/2000/svg" xmlns:xlink="http://www.w3.org/1999/xlink" xml:space="preserve" onload="init(evt)">
<style type="text/css"><![CDATA[
.edge:hover path { stroke: red; }
.edge:hover polygon { stroke: red; fill: red; }
]]></style>
<script type="text/javascript"><![CDATA[
var edges = document.getElementsByTagName('g');
if (edges && edges.length) {
  for (var i=0;i<edges.length;i++) {
    if (edges[i].id.substr(0,4)=='edge') {
      edges[i].setAttribute('class','edge');
    }
  }
}
]]></script>
        <defs>
                <circle id="rim" cx="0" cy="0" r="7"/>
                <circle id="rim2" cx="0" cy="0" r="3.5"/>
                <g id="zoomPlus">
                        <use xlink:href="#rim" fill="#404040">
                                <set attributeName="fill" to="#808080" begin="zoomplus.mouseover" end="zoomplus.mouseout"/>
                        </use>
                        <path d="M-4,0h8M0,-4v8" fill="none" stroke="white" stroke-width="1.5" pointer-events="none"/>
                </g>
                <g id="zoomMin">
                        <use xlink:href="#rim" fill="#404040">
                                <set attributeName="fill" to="#808080" begin="zoomminus.mouseover" end="zoomminus.mouseout"/>
                        </use>
                        <path d="M-4,0h8" fill="none" stroke="white" stroke-width="1.5" pointer-events="none"/>
                </g>
                <g id="dirArrow">
                        <path fill="none" stroke="white" stroke-width="1.5" d="M0,-3.0v7 M-2.5,-0.5L0,-3.0L2.5,-0.5"/>
                </g>
               <g id="resetDef">
                       <use xlink:href="#rim2" fill="#404040">
                               <set attributeName="fill" to="#808080" begin="reset.mouseover" end="reset.mouseout"/>
                       </use>
               </g>
        </defs>

<script type="text/javascript">
var viewWidth = 736;
var viewHeight = 1026;
var sectionId = 'dynsection-5';
</script>
<script xlink:href="svgpan.js"/>
<svg id="graph" class="graph">
<g id="viewport">
<title>mom_eos::calculate_density_derivs</title>
<polygon fill="white" stroke="white" points="-4,5 -4,-1022 733,-1022 733,5 -4,5"/>
<!-- Node22 -->
<g id="node1" class="node"><title>Node22</title>
<g id="a_node1"><a xlink:title="Calls the appropriate subroutine to calculate density derivatives for 1&#45;D array inputs.">
<polygon fill="#bfbfbf" stroke="black" points="640.5,-526 640.5,-556 727.5,-556 727.5,-526 640.5,-526"/>
<text text-anchor="start" x="648.5" y="-544" font-family="Helvetica,sans-Serif" font-size="10.00">mom_eos::calculate</text>
<text text-anchor="middle" x="684" y="-533" font-family="Helvetica,sans-Serif" font-size="10.00">_density_derivs</text>
</a>
</g>
</g>
<!-- Node23 -->
<g id="node2" class="node"><title>Node23</title>
<g id="a_node2"><a xlink:href="namespacebenchmark__initialization.html#a90737806bc1ea923d7698ff7ecd1d8eb" target="_top" xlink:title="This function puts the initial layer temperatures and salinities into T(:,:,:) and S(:,...">
<polygon fill="white" stroke="black" points="455,-872.5 455,-913.5 579,-913.5 579,-872.5 455,-872.5"/>
<text text-anchor="start" x="463" y="-901.5" font-family="Helvetica,sans-Serif" font-size="10.00">benchmark_initialization</text>
<text text-anchor="start" x="463" y="-890.5" font-family="Helvetica,sans-Serif" font-size="10.00">::benchmark_init_temperature</text>
<text text-anchor="middle" x="517" y="-879.5" font-family="Helvetica,sans-Serif" font-size="10.00">_salinity</text>
</a>
</g>
</g>
<!-- Node22&#45;&gt;Node23 -->
<g id="edge1" class="edge"><title>Node22&#45;&gt;Node23</title>
<path fill="none" stroke="midnightblue" d="M679.888,-566.583C671.111,-634.795 644.165,-818.824 604,-863 597.192,-870.488 588.413,-876.107 579.074,-880.323"/>
<polygon fill="midnightblue" stroke="midnightblue" points="683.404,-566.672 681.183,-556.312 676.459,-565.795 683.404,-566.672"/>
</g>
<!-- Node27 -->
<g id="node6" class="node"><title>Node27</title>
<g id="a_node6"><a xlink:href="namespacebenchmark__initialization.html#aefce536aee33c71ce3b914d0cabc7c31" target="_top" xlink:title="This subroutine initializes layer thicknesses for the benchmark test case, by finding the depths of i...">
<polygon fill="white" stroke="black" points="466.5,-752.5 466.5,-793.5 567.5,-793.5 567.5,-752.5 466.5,-752.5"/>
<text text-anchor="start" x="474.5" y="-781.5" font-family="Helvetica,sans-Serif" font-size="10.00">benchmark_initialization</text>
<text text-anchor="start" x="474.5" y="-770.5" font-family="Helvetica,sans-Serif" font-size="10.00">::benchmark_initialize</text>
<text text-anchor="middle" x="517" y="-759.5" font-family="Helvetica,sans-Serif" font-size="10.00">_thickness</text>
</a>
</g>
</g>
<!-- Node22&#45;&gt;Node27 -->
<g id="edge5" class="edge"><title>Node22&#45;&gt;Node27</title>
<path fill="none" stroke="midnightblue" d="M679.996,-566.015C673.621,-608.272 654.889,-693.968 604,-743 593.979,-752.655 580.686,-759.217 567.553,-763.672"/>
<polygon fill="midnightblue" stroke="midnightblue" points="683.475,-566.408 681.393,-556.02 676.542,-565.439 683.475,-566.408"/>
</g>
<!-- Node28 -->
<g id="node7" class="node"><title>Node28</title>
<g id="a_node7"><a xlink:href="namespacemom__bulk__mixed__layer.html#a9c3a37aae75b52453efad11d8c8abbe6" target="_top" xlink:title=" ">
<polygon fill="white" stroke="black" points="256.5,-584 256.5,-614 357.5,-614 357.5,-584 256.5,-584"/>
<text text-anchor="start" x="264.5" y="-602" font-family="Helvetica,sans-Serif" font-size="10.00">mom_bulk_mixed_layer</text>
<text text-anchor="middle" x="307" y="-591" font-family="Helvetica,sans-Serif" font-size="10.00">::bulkmixedlayer</text>
</a>
</g>
</g>
<!-- Node22&#45;&gt;Node28 -->
<g id="edge6" class="edge"><title>Node22&#45;&gt;Node28</title>
<path fill="none" stroke="midnightblue" d="M656.832,-562.112C642.208,-572.6 623.118,-584.237 604,-590 520.441,-615.189 417.55,-610.93 357.703,-605.201"/>
<polygon fill="midnightblue" stroke="midnightblue" points="658.954,-564.897 664.893,-556.124 654.779,-559.278 658.954,-564.897"/>
</g>
<!-- Node30 -->
<g id="node9" class="node"><title>Node30</title>
<g id="a_node9"><a xlink:href="namespacemom__isopycnal__slopes.html#ad8b145434d470eceaf9a151a65a74dd5" target="_top" xlink:title=" ">
<polygon fill="white" stroke="black" points="466.5,-551 466.5,-581 567.5,-581 567.5,-551 466.5,-551"/>
<text text-anchor="start" x="474.5" y="-569" font-family="Helvetica,sans-Serif" font-size="10.00">mom_isopycnal_slopes</text>
<text text-anchor="middle" x="517" y="-558" font-family="Helvetica,sans-Serif" font-size="10.00">::calc_isoneutral_slopes</text>
</a>
</g>
</g>
<!-- Node22&#45;&gt;Node30 -->
<g id="edge8" class="edge"><title>Node22&#45;&gt;Node30</title>
<path fill="none" stroke="midnightblue" d="M630.188,-549.002C610.166,-552.036 587.451,-555.477 567.722,-558.466"/>
<polygon fill="midnightblue" stroke="midnightblue" points="630.716,-552.462 640.079,-547.503 629.667,-545.541 630.716,-552.462"/>
</g>
<!-- Node32 -->
<g id="node11" class="node"><title>Node32</title>
<g id="a_node11"><a xlink:href="namespacemom__kappa__shear.html#a84a0a23b1cb6df3e8613fdd7853cb495" target="_top" xlink:title=" ">
<polygon fill="white" stroke="black" points="456.5,-502 456.5,-532 577.5,-532 577.5,-502 456.5,-502"/>
<text text-anchor="start" x="464.5" y="-520" font-family="Helvetica,sans-Serif" font-size="10.00">mom_kappa_shear::calculate</text>
<text text-anchor="middle" x="517" y="-509" font-family="Helvetica,sans-Serif" font-size="10.00">_kappa_shear</text>
</a>
</g>
</g>
<!-- Node22&#45;&gt;Node32 -->
<g id="edge10" class="edge"><title>Node22&#45;&gt;Node32</title>
<path fill="none" stroke="midnightblue" d="M629.985,-533.289C613.344,-530.868 594.86,-528.18 577.785,-525.696"/>
<polygon fill="midnightblue" stroke="midnightblue" points="629.679,-536.781 640.079,-534.757 630.687,-529.854 629.679,-536.781"/>
</g>
<!-- Node34 -->
<g id="node13" class="node"><title>Node34</title>
<g id="a_node13"><a xlink:href="namespacemom__forcing__type.html#a2bb917f3d8bcdcf4f5bf49c435992640" target="_top" xlink:title="This routine calculates surface buoyancy flux by adding up the heat, FW &amp; salt fluxes....">
<polygon fill="white" stroke="black" points="430.5,-714.5 430.5,-733.5 603.5,-733.5 603.5,-714.5 430.5,-714.5"/>
<text text-anchor="middle" x="517" y="-721.5" font-family="Helvetica,sans-Serif" font-size="10.00">mom_forcing_type::calculatebuoyancyflux1d</text>
</a>
</g>
</g>
<!-- Node22&#45;&gt;Node34 -->
<g id="edge12" class="edge"><title>Node22&#45;&gt;Node34</title>
<path fill="none" stroke="midnightblue" d="M677.326,-566.235C668.089,-601.447 646.41,-664.933 604,-700 596.354,-706.322 587.157,-710.983 577.661,-714.418"/>
<polygon fill="midnightblue" stroke="midnightblue" points="680.786,-566.827 679.803,-556.278 673.993,-565.137 680.786,-566.827"/>
</g>
<!-- Node36 -->
<g id="node15" class="node"><title>Node36</title>
<g id="a_node15"><a xlink:href="namespacemidas__vertmap.html#aaa8a9e13494c4d80d09c162e0a02d6eb" target="_top" xlink:title=" ">
<polygon fill="white" stroke="black" points="461,-355 461,-385 573,-385 573,-355 461,-355"/>
<text text-anchor="start" x="469" y="-373" font-family="Helvetica,sans-Serif" font-size="10.00">midas_vertmap::determine</text>
<text text-anchor="middle" x="517" y="-362" font-family="Helvetica,sans-Serif" font-size="10.00">_temperature</text>
</a>
</g>
</g>
<!-- Node22&#45;&gt;Node36 -->
<g id="edge15" class="edge"><title>Node22&#45;&gt;Node36</title>
<path fill="none" stroke="midnightblue" d="M676.334,-516.216C666.212,-483.366 643.803,-425.853 604,-394 595.044,-386.833 584.08,-381.804 573.017,-378.276"/>
<polygon fill="midnightblue" stroke="midnightblue" points="673.017,-517.344 679.195,-525.951 679.733,-515.37 673.017,-517.344"/>
</g>
<!-- Node37 -->
<g id="node16" class="node"><title>Node37</title>
<g id="a_node16"><a xlink:href="namespacemom__set__diffusivity.html#a79611c5775b154d49d3219efde90055c" target="_top" xlink:title=" ">
<polygon fill="white" stroke="black" points="474,-453 474,-483 560,-483 560,-453 474,-453"/>
<text text-anchor="start" x="482" y="-471" font-family="Helvetica,sans-Serif" font-size="10.00">mom_set_diffusivity</text>
<text text-anchor="middle" x="517" y="-460" font-family="Helvetica,sans-Serif" font-size="10.00">::double_diffusion</text>
</a>
</g>
</g>
<!-- Node22&#45;&gt;Node37 -->
<g id="edge16" class="edge"><title>Node22&#45;&gt;Node37</title>
<path fill="none" stroke="midnightblue" d="M653.933,-520.209C639.46,-510.588 621.378,-499.629 604,-492 590.232,-485.956 574.551,-481.047 560.383,-477.28"/>
<polygon fill="midnightblue" stroke="midnightblue" points="652.199,-523.262 662.439,-525.984 656.131,-517.471 652.199,-523.262"/>
</g>
<!-- Node38 -->
<g id="node17" class="node"><title>Node38</title>
<g id="a_node17"><a xlink:href="namespacemom__entrain__diffusive.html#acf36bae78e6175d37c3de0d61b0ac32f" target="_top" xlink:title=" ">
<polygon fill="white" stroke="black" points="468.5,-306 468.5,-336 565.5,-336 565.5,-306 468.5,-306"/>
<text text-anchor="start" x="476.5" y="-324" font-family="Helvetica,sans-Serif" font-size="10.00">mom_entrain_diffusive</text>
<text text-anchor="middle" x="517" y="-313" font-family="Helvetica,sans-Serif" font-size="10.00">::entrainment_diffusive</text>
</a>
</g>
</g>
<!-- Node22&#45;&gt;Node38 -->
<g id="edge18" class="edge"><title>Node22&#45;&gt;Node38</title>
<path fill="none" stroke="midnightblue" d="M680,-515.8C673.676,-474.07 655.075,-390.699 604,-345 593.372,-335.491 579.276,-329.717 565.577,-326.221"/>
<polygon fill="midnightblue" stroke="midnightblue" points="676.565,-516.513 681.415,-525.933 683.498,-515.544 676.565,-516.513"/>
</g>
<!-- Node39 -->
<g id="node18" class="node"><title>Node39</title>
<g id="a_node18"><a xlink:href="namespacemom__set__diffusivity.html#a3280e9e2ed60f24be11cb2308dd5a22d" target="_top" xlink:title=" ">
<polygon fill="white" stroke="black" points="474,-404 474,-434 560,-434 560,-404 474,-404"/>
<text text-anchor="start" x="482" y="-422" font-family="Helvetica,sans-Serif" font-size="10.00">mom_set_diffusivity</text>
<text text-anchor="middle" x="517" y="-411" font-family="Helvetica,sans-Serif" font-size="10.00">::find_n2</text>
</a>
</g>
</g>
<!-- Node22&#45;&gt;Node39 -->
<g id="edge19" class="edge"><title>Node22&#45;&gt;Node39</title>
<path fill="none" stroke="midnightblue" d="M669.682,-517.046C656.025,-494.659 632.748,-461.927 604,-443 590.924,-434.391 574.779,-428.839 560.022,-425.272"/>
<polygon fill="midnightblue" stroke="midnightblue" points="666.834,-519.106 674.933,-525.936 672.861,-515.546 666.834,-519.106"/>
</g>
<!-- Node40 -->
<g id="node19" class="node"><title>Node40</title>
<g id="a_node19"><a xlink:href="namespacemom__int__tide__input.html#a66b16dd9f27c4131d8bd37886b947721" target="_top" xlink:title=" ">
<polygon fill="white" stroke="black" points="474,-257 474,-287 560,-287 560,-257 474,-257"/>
<text text-anchor="start" x="482" y="-275" font-family="Helvetica,sans-Serif" font-size="10.00">mom_int_tide_input</text>
<text text-anchor="middle" x="517" y="-264" font-family="Helvetica,sans-Serif" font-size="10.00">::find_n2_bottom</text>
</a>
</g>
</g>
<!-- Node22&#45;&gt;Node40 -->
<g id="edge21" class="edge"><title>Node22&#45;&gt;Node40</title>
<path fill="none" stroke="midnightblue" d="M682.356,-515.654C679.689,-466.142 666.612,-356.17 604,-296 592.264,-284.722 575.688,-278.658 560.216,-275.428"/>
<polygon fill="midnightblue" stroke="midnightblue" points="678.866,-515.965 682.799,-525.802 685.86,-515.659 678.866,-515.965"/>
</g>
<!-- Node42 -->
<g id="node21" class="node"><title>Node42</title>
<g id="a_node21"><a xlink:href="namespacemom__geothermal.html#aa54e8135e741b81d14af892252df1872" target="_top" xlink:title=" ">
<polygon fill="white" stroke="black" points="244.5,-682.5 244.5,-701.5 369.5,-701.5 369.5,-682.5 244.5,-682.5"/>
<text text-anchor="middle" x="307" y="-689.5" font-family="Helvetica,sans-Serif" font-size="10.00">mom_geothermal::geothermal</text>
</a>
</g>
</g>
<!-- Node22&#45;&gt;Node42 -->
<g id="edge23" class="edge"><title>Node22&#45;&gt;Node42</title>
<path fill="none" stroke="midnightblue" d="M671.866,-565.438C659.172,-590.298 635.966,-627.813 604,-647 531.913,-690.27 432.752,-696.826 369.508,-695.788"/>
<polygon fill="midnightblue" stroke="midnightblue" points="675.096,-566.799 676.361,-556.28 668.812,-563.715 675.096,-566.799"/>
</g>
<!-- Node43 -->
<g id="node22" class="node"><title>Node43</title>
<g id="a_node22"><a xlink:href="namespaceisomip__initialization.html#ae66f2df6194791a13d91ca94ce89a8f3" target="_top" xlink:title="Initial values for temperature and salinity.">
<polygon fill="white" stroke="black" points="455,-812.5 455,-853.5 579,-853.5 579,-812.5 455,-812.5"/>
<text text-anchor="start" x="463" y="-841.5" font-family="Helvetica,sans-Serif" font-size="10.00">isomip_initialization</text>
<text text-anchor="start" x="463" y="-830.5" font-family="Helvetica,sans-Serif" font-size="10.00">::isomip_initialize_temperature</text>
<text text-anchor="middle" x="517" y="-819.5" font-family="Helvetica,sans-Serif" font-size="10.00">_salinity</text>
</a>
</g>
</g>
<!-- Node22&#45;&gt;Node43 -->
<g id="edge25" class="edge"><title>Node22&#45;&gt;Node43</title>
<path fill="none" stroke="midnightblue" d="M682.635,-566.263C680.519,-617.77 668.457,-735.725 604,-803 597.108,-810.193 588.4,-815.663 579.187,-819.822"/>
<polygon fill="midnightblue" stroke="midnightblue" points="686.14,-566.149 682.957,-556.044 679.144,-565.929 686.14,-566.149"/>
</g>
<!-- Node44 -->
<g id="node23" class="node"><title>Node44</title>
<g id="a_node23"><a xlink:href="namespacemom__neutral__diffusion.html#a53d5e3f8d7610b60644aaa9f44fd854e" target="_top" xlink:title="Calculate remapping factors for u/v columns used to map adjoining columns to a shared coordinate spac...">
<polygon fill="white" stroke="black" points="468,-196.5 468,-237.5 566,-237.5 566,-196.5 468,-196.5"/>
<text text-anchor="start" x="476" y="-225.5" font-family="Helvetica,sans-Serif" font-size="10.00">mom_neutral_diffusion</text>
<text text-anchor="start" x="476" y="-214.5" font-family="Helvetica,sans-Serif" font-size="10.00">::neutral_diffusion_calc</text>
<text text-anchor="middle" x="517" y="-203.5" font-family="Helvetica,sans-Serif" font-size="10.00">_coeffs</text>
</a>
</g>
</g>
<!-- Node22&#45;&gt;Node44 -->
<g id="edge27" class="edge"><title>Node22&#45;&gt;Node44</title>
<path fill="none" stroke="midnightblue" d="M683.644,-515.803C683.677,-459.893 675.849,-324.306 604,-247 593.988,-236.228 579.901,-229.323 566.021,-224.898"/>
<polygon fill="midnightblue" stroke="midnightblue" points="680.143,-515.849 683.549,-525.882 687.143,-515.915 680.143,-515.849"/>
</g>
<!-- Node46 -->
<g id="node25" class="node"><title>Node46</title>
<g id="a_node25"><a xlink:href="namespacemom__set__visc.html#a9e73d0338646bb91d14b78e86f6e3886" target="_top" xlink:title=" ">
<polygon fill="white" stroke="black" points="453.5,-158.5 453.5,-177.5 580.5,-177.5 580.5,-158.5 453.5,-158.5"/>
<text text-anchor="middle" x="517" y="-165.5" font-family="Helvetica,sans-Serif" font-size="10.00">mom_set_visc::set_viscous_bbl</text>
</a>
</g>
</g>
<!-- Node22&#45;&gt;Node46 -->
<g id="edge29" class="edge"><title>Node22&#45;&gt;Node46</title>
<path fill="none" stroke="midnightblue" d="M680.818,-515.561C674.026,-442.41 650.849,-233.75 604,-187 597.506,-180.52 589.332,-176.033 580.622,-172.962"/>
<polygon fill="midnightblue" stroke="midnightblue" points="677.35,-516.07 681.736,-525.715 684.322,-515.44 677.35,-516.07"/>
</g>
<!-- Node51 -->
<g id="node30" class="node"><title>Node51</title>
<g id="a_node30"><a xlink:href="namespacemom__set__visc.html#afa97c345f1c4caaaf53b039d0b3fc9d8" target="_top" xlink:title=" ">
<polygon fill="white" stroke="black" points="454.5,-120.5 454.5,-139.5 579.5,-139.5 579.5,-120.5 454.5,-120.5"/>
<text text-anchor="middle" x="517" y="-127.5" font-family="Helvetica,sans-Serif" font-size="10.00">mom_set_visc::set_viscous_ml</text>
</a>
</g>
</g>
<!-- Node22&#45;&gt;Node51 -->
<g id="edge34" class="edge"><title>Node22&#45;&gt;Node51</title>
<path fill="none" stroke="midnightblue" d="M681.412,-515.503C676.003,-437.093 655.683,-201.652 604,-149 597.359,-142.235 588.89,-137.632 579.869,-134.541"/>
<polygon fill="midnightblue" stroke="midnightblue" points="677.947,-516.146 682.103,-525.892 684.931,-515.681 677.947,-516.146"/>
</g>
<!-- Node52 -->
<g id="node31" class="node"><title>Node52</title>
<g id="a_node31"><a xlink:href="namespacemom__thickness__diffuse.html#ad461e8977f22cd7488fb1925e58cf084" target="_top" xlink:title="Calculates parameterized layer transports for use in the continuity equation. Fluxes are limited to g...">
<polygon fill="white" stroke="black" points="467.5,-985 467.5,-1015 566.5,-1015 566.5,-985 467.5,-985"/>
<text text-anchor="start" x="475.5" y="-1003" font-family="Helvetica,sans-Serif" font-size="10.00">mom_thickness_diffuse</text>
<text text-anchor="middle" x="517" y="-992" font-family="Helvetica,sans-Serif" font-size="10.00">::thickness_diffuse_full</text>
</a>
</g>
</g>
<!-- Node22&#45;&gt;Node52 -->
<g id="edge39" class="edge"><title>Node22&#45;&gt;Node52</title>
<path fill="none" stroke="midnightblue" d="M681.703,-566.056C676.942,-648.64 657.804,-910.488 604,-972 594.386,-982.991 580.407,-989.692 566.504,-993.769"/>
<polygon fill="midnightblue" stroke="midnightblue" points="685.199,-566.23 682.26,-556.051 678.21,-565.842 685.199,-566.23"/>
</g>
<!-- Node55 -->
<g id="node34" class="node"><title>Node55</title>
<g id="a_node34"><a xlink:href="namespacemom__wave__speed.html#a72302e356c47c5055ba0b1a8714c772a" target="_top" xlink:title="Calculates the wave speed of the first baroclinic mode.">
<polygon fill="white" stroke="black" points="463.5,-933 463.5,-963 570.5,-963 570.5,-933 463.5,-933"/>
<text text-anchor="start" x="471.5" y="-951" font-family="Helvetica,sans-Serif" font-size="10.00">mom_wave_speed::wave</text>
<text text-anchor="middle" x="517" y="-940" font-family="Helvetica,sans-Serif" font-size="10.00">_speed</text>
</a>
</g>
</g>
<!-- Node22&#45;&gt;Node55 -->
<g id="edge43" class="edge"><title>Node22&#45;&gt;Node55</title>
<path fill="none" stroke="midnightblue" d="M681.125,-566.226C674.939,-642.753 652.733,-870.258 604,-923 595.242,-932.479 583.123,-938.439 570.743,-942.166"/>
<polygon fill="midnightblue" stroke="midnightblue" points="684.628,-566.313 681.922,-556.07 677.65,-565.765 684.628,-566.313"/>
</g>
<!-- Node58 -->
<g id="node37" class="node"><title>Node58</title>
<g id="a_node37"><a xlink:href="namespacemom__wave__speed.html#a0009abd8573168b780c95db2962982d6" target="_top" xlink:title="Calculates the wave speeds for the first few barolinic modes.">
<polygon fill="white" stroke="black" points="253.5,-633 253.5,-663 360.5,-663 360.5,-633 253.5,-633"/>
<text text-anchor="start" x="261.5" y="-651" font-family="Helvetica,sans-Serif" font-size="10.00">mom_wave_speed::wave</text>
<text text-anchor="middle" x="307" y="-640" font-family="Helvetica,sans-Serif" font-size="10.00">_speeds</text>
</a>
</g>
</g>
<!-- Node22&#45;&gt;Node58 -->
<g id="edge47" class="edge"><title>Node22&#45;&gt;Node58</title>
<path fill="none" stroke="midnightblue" d="M665.274,-563.821C650.758,-580.718 628.651,-602.69 604,-614 524.898,-650.293 421.916,-653.566 360.61,-651.547"/>
<polygon fill="midnightblue" stroke="midnightblue" points="668.071,-565.932 671.768,-556.003 662.686,-561.459 668.071,-565.932"/>
</g>
<!-- Node59 -->
<g id="node38" class="node"><title>Node59</title>
<g id="a_node38"><a xlink:href="namespacemom__wave__structure.html#a6dab6eaab930bb622d4462d5f51f8ab4" target="_top" xlink:title=" ">
<polygon fill="white" stroke="black" points="470,-36 470,-66 564,-66 564,-36 470,-36"/>
<text text-anchor="start" x="478" y="-54" font-family="Helvetica,sans-Serif" font-size="10.00">mom_wave_structure</text>
<text text-anchor="middle" x="517" y="-43" font-family="Helvetica,sans-Serif" font-size="10.00">::wave_structure</text>
</a>
</g>
</g>
<!-- Node22&#45;&gt;Node59 -->
<g id="edge49" class="edge"><title>Node22&#45;&gt;Node59</title>
<path fill="none" stroke="midnightblue" d="M680.86,-515.519C673.607,-433.743 647.927,-179.282 604,-111 591.294,-91.2493 569.556,-76.1684 551.115,-66.066"/>
<polygon fill="midnightblue" stroke="midnightblue" points="677.408,-516.216 681.761,-525.875 684.381,-515.609 677.408,-516.216"/>
</g>
<!-- Node24 -->
<g id="node3" class="node"><title>Node24</title>
<g id="a_node3"><a xlink:href="namespacemom__state__initialization.html#af4e854627c6572332ba3fd895f169321" target="_top" xlink:title=" ">
<polygon fill="white" stroke="black" points="256.5,-829 256.5,-859 357.5,-859 357.5,-829 256.5,-829"/>
<text text-anchor="start" x="264.5" y="-847" font-family="Helvetica,sans-Serif" font-size="10.00">mom_state_initialization</text>
<text text-anchor="middle" x="307" y="-836" font-family="Helvetica,sans-Serif" font-size="10.00">::mom_initialize_state</text>
</a>
</g>
</g>
<!-- Node23&#45;&gt;Node24 -->
<g id="edge2" class="edge"><title>Node23&#45;&gt;Node24</title>
<path fill="none" stroke="midnightblue" d="M445.024,-876.28C416.337,-869.522 383.909,-861.882 357.804,-855.733"/>
<polygon fill="midnightblue" stroke="midnightblue" points="444.462,-879.743 454.999,-878.629 446.068,-872.93 444.462,-879.743"/>
</g>
<!-- Node25 -->
<g id="node4" class="node"><title>Node25</title>
<g id="a_node4"><a xlink:href="namespacemom.html#a0be2869fef30e1e0604facfe1b41555d" target="_top" xlink:title="This subroutine initializes MOM.">
<polygon fill="white" stroke="black" points="93.5,-867.5 93.5,-886.5 182.5,-886.5 182.5,-867.5 93.5,-867.5"/>
<text text-anchor="middle" x="138" y="-874.5" font-family="Helvetica,sans-Serif" font-size="10.00">mom::initialize_mom</text>
</a>
</g>
</g>
<!-- Node24&#45;&gt;Node25 -->
<g id="edge3" class="edge"><title>Node24&#45;&gt;Node25</title>
<path fill="none" stroke="midnightblue" d="M246.508,-855.756C225.395,-859.928 202.043,-864.542 182.513,-868.402"/>
<polygon fill="midnightblue" stroke="midnightblue" points="247.215,-859.184 256.347,-853.812 245.858,-852.317 247.215,-859.184"/>
</g>
<!-- Node26 -->
<g id="node5" class="node"><title>Node26</title>
<g id="a_node5"><a xlink:href="MOM__driver_8F90.html#a08fffeb2d8e8acbf9ed4609be6d258c6" target="_top" xlink:title=" ">
<polygon fill="white" stroke="black" points="0,-902.5 0,-921.5 56,-921.5 56,-902.5 0,-902.5"/>
<text text-anchor="middle" x="28" y="-909.5" font-family="Helvetica,sans-Serif" font-size="10.00">mom_main</text>
</a>
</g>
</g>
<!-- Node25&#45;&gt;Node26 -->
<g id="edge4" class="edge"><title>Node25&#45;&gt;Node26</title>
<path fill="none" stroke="midnightblue" d="M97.7613,-889.716C83.9877,-894.18 68.8262,-899.093 56.253,-903.168"/>
<polygon fill="midnightblue" stroke="midnightblue" points="99.0546,-892.976 107.489,-886.564 96.8966,-886.317 99.0546,-892.976"/>
</g>
<!-- Node29 -->
<g id="node8" class="node"><title>Node29</title>
<g id="a_node8"><a xlink:href="namespacemom__diabatic__driver.html#a61e57d3902367aa46aa3c2d949ee900f" target="_top" xlink:title="This subroutine imposes the diapycnal mass fluxes and the accompanying diapycnal advection of momentu...">
<polygon fill="white" stroke="black" points="92.5,-655 92.5,-685 183.5,-685 183.5,-655 92.5,-655"/>
<text text-anchor="start" x="100.5" y="-673" font-family="Helvetica,sans-Serif" font-size="10.00">mom_diabatic_driver</text>
<text text-anchor="middle" x="138" y="-662" font-family="Helvetica,sans-Serif" font-size="10.00">::diabatic</text>
</a>
</g>
</g>
<!-- Node28&#45;&gt;Node29 -->
<g id="edge7" class="edge"><title>Node28&#45;&gt;Node29</title>
<path fill="none" stroke="midnightblue" d="M246.455,-613.487C237.461,-616.284 228.392,-619.462 220,-623 199.325,-631.716 177.403,-644.692 161.586,-654.804"/>
<polygon fill="midnightblue" stroke="midnightblue" points="247.563,-616.81 256.149,-610.603 245.566,-610.1 247.563,-616.81"/>
</g>
<!-- Node31 -->
<g id="node10" class="node"><title>Node31</title>
<g id="a_node10"><a xlink:href="namespacemom__lateral__mixing__coeffs.html#a8abf768b636e96aafa9544287624523e" target="_top" xlink:title="Calculates and stores functions of isopycnal slopes, e.g. Sx, Sy, S*N, mostly used in the Visbeck et ...">
<polygon fill="white" stroke="black" points="263,-523.5 263,-564.5 351,-564.5 351,-523.5 263,-523.5"/>
<text text-anchor="start" x="271" y="-552.5" font-family="Helvetica,sans-Serif" font-size="10.00">mom_lateral_mixing</text>
<text text-anchor="start" x="271" y="-541.5" font-family="Helvetica,sans-Serif" font-size="10.00">_coeffs::calc_slope</text>
<text text-anchor="middle" x="307" y="-530.5" font-family="Helvetica,sans-Serif" font-size="10.00">_functions</text>
</a>
</g>
</g>
<!-- Node30&#45;&gt;Node31 -->
<g id="edge9" class="edge"><title>Node30&#45;&gt;Node31</title>
<path fill="none" stroke="midnightblue" d="M456.292,-559.685C422.733,-556.135 381.609,-551.786 351.187,-548.568"/>
<polygon fill="midnightblue" stroke="midnightblue" points="456.13,-563.187 466.443,-560.758 456.867,-556.226 456.13,-563.187"/>
</g>
<!-- Node33 -->
<g id="node12" class="node"><title>Node33</title>
<g id="a_node12"><a xlink:href="namespacemom__set__diffusivity.html#a8b1f646393f0ec717ca690e4f04d96e8" target="_top" xlink:title=" ">
<polygon fill="white" stroke="black" points="264,-453 264,-483 350,-483 350,-453 264,-453"/>
<text text-anchor="start" x="272" y="-471" font-family="Helvetica,sans-Serif" font-size="10.00">mom_set_diffusivity</text>
<text text-anchor="middle" x="307" y="-460" font-family="Helvetica,sans-Serif" font-size="10.00">::set_diffusivity</text>
</a>
</g>
</g>
<!-- Node32&#45;&gt;Node33 -->
<g id="edge11" class="edge"><title>Node32&#45;&gt;Node33</title>
<path fill="none" stroke="midnightblue" d="M446.651,-500.663C414.692,-493.134 377.804,-484.444 350.114,-477.921"/>
<polygon fill="midnightblue" stroke="midnightblue" points="445.859,-504.072 456.396,-502.959 447.465,-497.259 445.859,-504.072"/>
</g>
<!-- Node35 -->
<g id="node14" class="node"><title>Node35</title>
<g id="a_node14"><a xlink:href="namespacemom__forcing__type.html#ada776515b52ca3fa34901572cfef5858" target="_top" xlink:title="Calculates surface buoyancy flux by adding up the heat, FW and salt fluxes, for 2d arrays....">
<polygon fill="white" stroke="black" points="220.5,-720.5 220.5,-739.5 393.5,-739.5 393.5,-720.5 220.5,-720.5"/>
<text text-anchor="middle" x="307" y="-727.5" font-family="Helvetica,sans-Serif" font-size="10.00">mom_forcing_type::calculatebuoyancyflux2d</text>
</a>
</g>
</g>
<!-- Node34&#45;&gt;Node35 -->
<g id="edge13" class="edge"><title>Node34&#45;&gt;Node35</title>
<path fill="none" stroke="midnightblue" d="M420.415,-726.757C411.439,-727.016 402.38,-727.278 393.506,-727.533"/>
<polygon fill="midnightblue" stroke="midnightblue" points="420.603,-730.253 430.498,-726.466 420.401,-723.256 420.603,-730.253"/>
</g>
<!-- Node35&#45;&gt;Node29 -->
<g id="edge14" class="edge"><title>Node35&#45;&gt;Node29</title>
<path fill="none" stroke="midnightblue" d="M242.835,-717.962C235.06,-715.92 227.29,-713.603 220,-711 200.704,-704.109 180.118,-693.644 164.527,-685.011"/>
<polygon fill="midnightblue" stroke="midnightblue" points="242.101,-721.386 252.65,-720.402 243.79,-714.593 242.101,-721.386"/>
</g>
<!-- Node37&#45;&gt;Node33 -->
<g id="edge17" class="edge"><title>Node37&#45;&gt;Node33</title>
<path fill="none" stroke="midnightblue" d="M463.826,-468C428.653,-468 382.858,-468 350.029,-468"/>
<polygon fill="midnightblue" stroke="midnightblue" points="463.908,-471.5 473.908,-468 463.908,-464.5 463.908,-471.5"/>
</g>
<!-- Node39&#45;&gt;Node33 -->
<g id="edge20" class="edge"><title>Node39&#45;&gt;Node33</title>
<path fill="none" stroke="midnightblue" d="M463.826,-431.291C428.653,-439.577 382.858,-450.365 350.029,-458.099"/>
<polygon fill="midnightblue" stroke="midnightblue" points="464.977,-434.616 473.908,-428.916 463.372,-427.802 464.977,-434.616"/>
</g>
<!-- Node41 -->
<g id="node20" class="node"><title>Node41</title>
<g id="a_node20"><a xlink:href="namespacemom__int__tide__input.html#a085f75d081e7a3091ad5bdfe91858714" target="_top" xlink:title=" ">
<polygon fill="white" stroke="black" points="264,-306 264,-336 350,-336 350,-306 264,-306"/>
<text text-anchor="start" x="272" y="-324" font-family="Helvetica,sans-Serif" font-size="10.00">mom_int_tide_input</text>
<text text-anchor="middle" x="307" y="-313" font-family="Helvetica,sans-Serif" font-size="10.00">::set_int_tide_input</text>
</a>
</g>
</g>
<!-- Node40&#45;&gt;Node41 -->
<g id="edge22" class="edge"><title>Node40&#45;&gt;Node41</title>
<path fill="none" stroke="midnightblue" d="M463.826,-284.291C428.653,-292.577 382.858,-303.365 350.029,-311.099"/>
<polygon fill="midnightblue" stroke="midnightblue" points="464.977,-287.616 473.908,-281.916 463.372,-280.802 464.977,-287.616"/>
</g>
<!-- Node42&#45;&gt;Node29 -->
<g id="edge24" class="edge"><title>Node42&#45;&gt;Node29</title>
<path fill="none" stroke="midnightblue" d="M234.242,-682.547C217.004,-680.276 199.084,-677.915 183.502,-675.863"/>
<polygon fill="midnightblue" stroke="midnightblue" points="233.918,-686.034 244.29,-683.871 234.833,-679.094 233.918,-686.034"/>
</g>
<!-- Node43&#45;&gt;Node24 -->
<g id="edge26" class="edge"><title>Node43&#45;&gt;Node24</title>
<path fill="none" stroke="midnightblue" d="M444.648,-836.773C416.054,-838.286 383.795,-839.992 357.804,-841.366"/>
<polygon fill="midnightblue" stroke="midnightblue" points="445.197,-840.249 454.999,-836.226 444.828,-833.259 445.197,-840.249"/>
</g>
<!-- Node45 -->
<g id="node24" class="node"><title>Node45</title>
<g id="a_node24"><a xlink:href="namespacemom__tracer__hor__diff.html#a069e22612062290389c2630c7f90ede2" target="_top" xlink:title="Compute along&#45;coordinate diffusion of all tracers using the diffusivity in CSKhTr,...">
<polygon fill="white" stroke="black" points="261,-257 261,-287 353,-287 353,-257 261,-257"/>
<text text-anchor="start" x="269" y="-275" font-family="Helvetica,sans-Serif" font-size="10.00">mom_tracer_hor_diff</text>
<text text-anchor="middle" x="307" y="-264" font-family="Helvetica,sans-Serif" font-size="10.00">::tracer_hordiff</text>
</a>
</g>
</g>
<!-- Node44&#45;&gt;Node45 -->
<g id="edge28" class="edge"><title>Node44&#45;&gt;Node45</title>
<path fill="none" stroke="midnightblue" d="M457.749,-232.403C424.636,-241.159 383.795,-251.958 353.133,-260.066"/>
<polygon fill="midnightblue" stroke="midnightblue" points="458.985,-235.696 467.758,-229.756 457.195,-228.929 458.985,-235.696"/>
</g>
<!-- Node47 -->
<g id="node26" class="node"><title>Node47</title>
<g id="a_node26"><a xlink:href="namespacemom__dynamics__legacy__split.html#ae34fe0561f87dc05c2fad64bf6d5a1ee" target="_top" xlink:title=" ">
<polygon fill="white" stroke="black" points="257.5,-147.5 257.5,-188.5 356.5,-188.5 356.5,-147.5 257.5,-147.5"/>
<text text-anchor="start" x="265.5" y="-176.5" font-family="Helvetica,sans-Serif" font-size="10.00">mom_dynamics_legacy</text>
<text text-anchor="start" x="265.5" y="-165.5" font-family="Helvetica,sans-Serif" font-size="10.00">_split::step_mom_dyn</text>
<text text-anchor="middle" x="307" y="-154.5" font-family="Helvetica,sans-Serif" font-size="10.00">_legacy_split</text>
</a>
</g>
</g>
<!-- Node46&#45;&gt;Node47 -->
<g id="edge30" class="edge"><title>Node46&#45;&gt;Node47</title>
<path fill="none" stroke="midnightblue" d="M442.954,-168C414.371,-168 382.356,-168 356.684,-168"/>
<polygon fill="midnightblue" stroke="midnightblue" points="443.311,-171.5 453.311,-168 443.311,-164.5 443.311,-171.5"/>
</g>
<!-- Node48 -->
<g id="node27" class="node"><title>Node48</title>
<g id="a_node27"><a xlink:href="namespacemom__dynamics__split__rk2.html#a81cce65643a8cf94979d68354a9a1979" target="_top" xlink:title="RK2 splitting for time stepping MOM adiabatic dynamics.">
<polygon fill="white" stroke="black" points="244.5,-98 244.5,-128 369.5,-128 369.5,-98 244.5,-98"/>
<text text-anchor="start" x="252.5" y="-116" font-family="Helvetica,sans-Serif" font-size="10.00">mom_dynamics_split</text>
<text text-anchor="middle" x="307" y="-105" font-family="Helvetica,sans-Serif" font-size="10.00">_rk2::step_mom_dyn_split_rk2</text>
</a>
</g>
</g>
<!-- Node46&#45;&gt;Node48 -->
<g id="edge31" class="edge"><title>Node46&#45;&gt;Node48</title>
<path fill="none" stroke="midnightblue" d="M459.64,-156.219C449.73,-153.956 439.539,-151.507 430,-149 413.819,-144.748 410.033,-142.78 394,-138 383.123,-134.757 371.456,-131.331 360.334,-128.09"/>
<polygon fill="midnightblue" stroke="midnightblue" points="458.897,-159.639 469.421,-158.414 460.43,-152.809 458.897,-159.639"/>
</g>
<!-- Node49 -->
<g id="node28" class="node"><title>Node49</title>
<g id="a_node28"><a xlink:href="namespacemom__dynamics__unsplit.html#a53a72861e61f049479fdec46ea11227b" target="_top" xlink:title=" ">
<polygon fill="white" stroke="black" points="255.5,-49 255.5,-79 358.5,-79 358.5,-49 255.5,-49"/>
<text text-anchor="start" x="263.5" y="-67" font-family="Helvetica,sans-Serif" font-size="10.00">mom_dynamics_unsplit</text>
<text text-anchor="middle" x="307" y="-56" font-family="Helvetica,sans-Serif" font-size="10.00">::step_mom_dyn_unsplit</text>
</a>
</g>
</g>
<!-- Node46&#45;&gt;Node49 -->
<g id="edge32" class="edge"><title>Node46&#45;&gt;Node49</title>
<path fill="none" stroke="midnightblue" d="M443.695,-156.827C438.85,-154.648 434.224,-152.064 430,-149 404.517,-130.516 418.967,-107.174 394,-88 383.796,-80.1637 371.168,-74.886 358.762,-71.3314"/>
<polygon fill="midnightblue" stroke="midnightblue" points="442.648,-160.175 453.237,-160.536 445.184,-153.651 442.648,-160.175"/>
</g>
<!-- Node50 -->
<g id="node29" class="node"><title>Node50</title>
<g id="a_node29"><a xlink:href="namespacemom__dynamics__unsplit__rk2.html#ae10d75d92c1ec7783df7e5d8965b86a0" target="_top" xlink:title=" ">
<polygon fill="white" stroke="black" points="240,-208 240,-238 374,-238 374,-208 240,-208"/>
<text text-anchor="start" x="248" y="-226" font-family="Helvetica,sans-Serif" font-size="10.00">mom_dynamics_unsplit</text>
<text text-anchor="middle" x="307" y="-215" font-family="Helvetica,sans-Serif" font-size="10.00">_rk2::step_mom_dyn_unsplit_rk2</text>
</a>
</g>
</g>
<!-- Node46&#45;&gt;Node50 -->
<g id="edge33" class="edge"><title>Node46&#45;&gt;Node50</title>
<path fill="none" stroke="midnightblue" d="M459.64,-179.781C449.73,-182.044 439.539,-184.493 430,-187 413.819,-191.252 410.033,-193.22 394,-198 383.123,-201.243 371.456,-204.669 360.334,-207.91"/>
<polygon fill="midnightblue" stroke="midnightblue" points="460.43,-183.191 469.421,-177.586 458.897,-176.361 460.43,-183.191"/>
</g>
<!-- Node51&#45;&gt;Node47 -->
<g id="edge35" class="edge"><title>Node51&#45;&gt;Node47</title>
<path fill="none" stroke="midnightblue" d="M453.91,-141.343C422.799,-147.027 385.681,-153.808 356.668,-159.109"/>
<polygon fill="midnightblue" stroke="midnightblue" points="454.573,-144.78 463.781,-139.54 453.315,-137.894 454.573,-144.78"/>
</g>
<!-- Node51&#45;&gt;Node48 -->
<g id="edge36" class="edge"><title>Node51&#45;&gt;Node48</title>
<path fill="none" stroke="midnightblue" d="M444.226,-124.134C419.988,-122.153 393.159,-119.96 369.764,-118.048"/>
<polygon fill="midnightblue" stroke="midnightblue" points="444.185,-127.642 454.437,-124.968 444.756,-120.665 444.185,-127.642"/>
</g>
<!-- Node51&#45;&gt;Node49 -->
<g id="edge37" class="edge"><title>Node51&#45;&gt;Node49</title>
<path fill="none" stroke="midnightblue" d="M480.008,-116.98C455.812,-108.383 423.137,-97.0721 394,-88 382.604,-84.4516 370.283,-80.8666 358.624,-77.5879"/>
<polygon fill="midnightblue" stroke="midnightblue" points="478.9,-120.301 489.495,-120.366 481.253,-113.708 478.9,-120.301"/>
</g>
<!-- Node51&#45;&gt;Node50 -->
<g id="edge38" class="edge"><title>Node51&#45;&gt;Node50</title>
<path fill="none" stroke="midnightblue" d="M444.68,-141.389C439.524,-143.514 434.564,-146.027 430,-149 407.356,-163.748 416.149,-182.518 394,-198 388.01,-202.187 381.321,-205.679 374.391,-208.59"/>
<polygon fill="midnightblue" stroke="midnightblue" points="445.918,-144.664 454.131,-137.971 443.537,-138.081 445.918,-144.664"/>
</g>
<!-- Node53 -->
<g id="node32" class="node"><title>Node53</title>
<g id="a_node32"><a xlink:href="namespacemom__thickness__diffuse.html#a9506f374762ce6d5d12424a9314fad2f" target="_top" xlink:title="Calculates thickness diffusion coefficients and applies thickness diffusion to layer thicknesses,...">
<polygon fill="white" stroke="black" points="257.5,-988 257.5,-1018 356.5,-1018 356.5,-988 257.5,-988"/>
<text text-anchor="start" x="265.5" y="-1006" font-family="Helvetica,sans-Serif" font-size="10.00">mom_thickness_diffuse</text>
<text text-anchor="middle" x="307" y="-995" font-family="Helvetica,sans-Serif" font-size="10.00">::thickness_diffuse</text>
</a>
</g>
</g>
<!-- Node52&#45;&gt;Node53 -->
<g id="edge40" class="edge"><title>Node52&#45;&gt;Node53</title>
<path fill="none" stroke="midnightblue" d="M457.43,-1000.84C425.602,-1001.3 386.709,-1001.86 356.581,-1002.3"/>
<polygon fill="midnightblue" stroke="midnightblue" points="457.547,-1004.34 467.496,-1000.7 457.446,-997.344 457.547,-1004.34"/>
</g>
<!-- Node54 -->
<g id="node33" class="node"><title>Node54</title>
<g id="a_node33"><a xlink:href="namespacemom.html#a4c8332b095c6d295084089aa6b3b678a" target="_top" xlink:title="This subroutine orchestrates the time stepping of MOM. The adiabatic dynamics are stepped by calls to...">
<polygon fill="white" stroke="black" points="99.5,-938.5 99.5,-957.5 176.5,-957.5 176.5,-938.5 99.5,-938.5"/>
<text text-anchor="middle" x="138" y="-945.5" font-family="Helvetica,sans-Serif" font-size="10.00">mom::step_mom</text>
</a>
</g>
</g>
<!-- Node53&#45;&gt;Node54 -->
<g id="edge41" class="edge"><title>Node53&#45;&gt;Node54</title>
<path fill="none" stroke="midnightblue" d="M247.299,-986.547C238.128,-983.8 228.783,-980.899 220,-978 200.775,-971.655 179.301,-963.659 163.297,-957.518"/>
<polygon fill="midnightblue" stroke="midnightblue" points="246.565,-989.98 257.147,-989.459 248.55,-983.267 246.565,-989.98"/>
</g>
<!-- Node54&#45;&gt;Node26 -->
<g id="edge42" class="edge"><title>Node54&#45;&gt;Node26</title>
<path fill="none" stroke="midnightblue" d="M98.5083,-935.169C84.5556,-930.519 69.0935,-925.364 56.302,-921.101"/>
<polygon fill="midnightblue" stroke="midnightblue" points="97.7479,-938.605 108.342,-938.447 99.9615,-931.964 97.7479,-938.605"/>
</g>
<!-- Node56 -->
<g id="node35" class="node"><title>Node56</title>
<g id="a_node35"><a xlink:href="namespacemom__diagnostics.html#abb6644248c28ab2e952361bfec436063" target="_top" xlink:title=" ">
<polygon fill="white" stroke="black" points="250.5,-878 250.5,-908 363.5,-908 363.5,-878 250.5,-878"/>
<text text-anchor="start" x="258.5" y="-896" font-family="Helvetica,sans-Serif" font-size="10.00">mom_diagnostics::calculate</text>
<text text-anchor="middle" x="307" y="-885" font-family="Helvetica,sans-Serif" font-size="10.00">_diagnostic_fields</text>
</a>
</g>
</g>
<!-- Node55&#45;&gt;Node56 -->
<g id="edge44" class="edge"><title>Node55&#45;&gt;Node56</title>
<path fill="none" stroke="midnightblue" d="M453.366,-931.438C424.804,-923.886 391.269,-915.018 363.61,-907.705"/>
<polygon fill="midnightblue" stroke="midnightblue" points="452.681,-934.877 463.244,-934.05 454.471,-928.11 452.681,-934.877"/>
</g>
<!-- Node57 -->
<g id="node36" class="node"><title>Node57</title>
<g id="a_node36"><a xlink:href="namespacemom__lateral__mixing__coeffs.html#af206bc656869b4fc27d4d7e8a15d438e" target="_top" xlink:title="Calculates and stores the non&#45;dimensional resolution functions.">
<polygon fill="white" stroke="black" points="263,-927.5 263,-968.5 351,-968.5 351,-927.5 263,-927.5"/>
<text text-anchor="start" x="271" y="-956.5" font-family="Helvetica,sans-Serif" font-size="10.00">mom_lateral_mixing</text>
<text text-anchor="start" x="271" y="-945.5" font-family="Helvetica,sans-Serif" font-size="10.00">_coeffs::calc_resoln</text>
<text text-anchor="middle" x="307" y="-934.5" font-family="Helvetica,sans-Serif" font-size="10.00">_function</text>
</a>
</g>
</g>
<!-- Node55&#45;&gt;Node57 -->
<g id="edge45" class="edge"><title>Node55&#45;&gt;Node57</title>
<path fill="none" stroke="midnightblue" d="M452.82,-948C419.951,-948 380.615,-948 351.24,-948"/>
<polygon fill="midnightblue" stroke="midnightblue" points="453.244,-951.5 463.244,-948 453.244,-944.5 453.244,-951.5"/>
</g>
<!-- Node57&#45;&gt;Node54 -->
<g id="edge46" class="edge"><title>Node57&#45;&gt;Node54</title>
<path fill="none" stroke="midnightblue" d="M252.68,-948C227.963,-948 199.169,-948 176.745,-948"/>
<polygon fill="midnightblue" stroke="midnightblue" points="252.993,-951.5 262.993,-948 252.993,-944.5 252.993,-951.5"/>
</g>
<!-- Node58&#45;&gt;Node29 -->
<g id="edge48" class="edge"><title>Node58&#45;&gt;Node29</title>
<path fill="none" stroke="midnightblue" d="M243.003,-656.299C223.246,-658.902 201.857,-661.719 183.643,-664.119"/>
<polygon fill="midnightblue" stroke="midnightblue" points="243.703,-659.737 253.16,-654.961 242.789,-652.797 243.703,-659.737"/>
</g>
<!-- Node60 -->
<g id="node39" class="node"><title>Node60</title>
<g id="a_node39"><a xlink:href="namespacemom__internal__tides.html#a6cae26da43d0539e8ac959105cf125c2" target="_top" xlink:title=" ">
<polygon fill="white" stroke="black" points="263,-0 263,-30 351,-30 351,-0 263,-0"/>
<text text-anchor="start" x="271" y="-18" font-family="Helvetica,sans-Serif" font-size="10.00">mom_internal_tides</text>
<text text-anchor="middle" x="307" y="-7" font-family="Helvetica,sans-Serif" font-size="10.00">::propagate_int_tide</text>
</a>
</g>
</g>
<!-- Node59&#45;&gt;Node60 -->
<g id="edge50" class="edge"><title>Node59&#45;&gt;Node60</title>
<path fill="none" stroke="midnightblue" d="M459.55,-41.2299C425.429,-35.3243 382.606,-27.9126 351.192,-22.4756"/>
<polygon fill="midnightblue" stroke="midnightblue" points="459.388,-44.7537 469.838,-43.0104 460.581,-37.8562 459.388,-44.7537"/>
</g>
</g>
</svg>
        <g id="navigator" transform="translate(0 0)" fill="#404254">
                <rect fill="#f2f5e9" fill-opacity="0.5" stroke="#606060" stroke-width=".5" x="0" y="0" width="60" height="60"/>
                <use id="zoomplus" xlink:href="#zoomPlus" x="17" y="9" onmousedown="handleZoom(evt,'in')"/>
                <use id="zoomminus" xlink:href="#zoomMin" x="42" y="9" onmousedown="handleZoom(evt,'out')"/>
                <use id="reset" xlink:href="#resetDef" x="30" y="36" onmousedown="handleReset()"/>
                <g id="arrowUp" xlink:href="#dirArrow" transform="translate(30 24)" onmousedown="handlePan(0,-1)">
                  <use xlink:href="#rim" fill="#404040">
                        <set attributeName="fill" to="#808080" begin="arrowUp.mouseover" end="arrowUp.mouseout"/>
                  </use>
                  <path fill="none" stroke="white" stroke-width="1.5" d="M0,-3.0v7 M-2.5,-0.5L0,-3.0L2.5,-0.5"/>
                </g>
                <g id="arrowRight" xlink:href="#dirArrow" transform="rotate(90) translate(36 -43)" onmousedown="handlePan(1,0)">
                  <use xlink:href="#rim" fill="#404040">
                        <set attributeName="fill" to="#808080" begin="arrowRight.mouseover" end="arrowRight.mouseout"/>
                  </use>
                  <path fill="none" stroke="white" stroke-width="1.5" d="M0,-3.0v7 M-2.5,-0.5L0,-3.0L2.5,-0.5"/>
                </g>
                <g id="arrowDown" xlink:href="#dirArrow" transform="rotate(180) translate(-30 -48)" onmousedown="handlePan(0,1)">
                  <use xlink:href="#rim" fill="#404040">
                        <set attributeName="fill" to="#808080" begin="arrowDown.mouseover" end="arrowDown.mouseout"/>
                  </use>
                  <path fill="none" stroke="white" stroke-width="1.5" d="M0,-3.0v7 M-2.5,-0.5L0,-3.0L2.5,-0.5"/>
                </g>
                <g id="arrowLeft" xlink:href="#dirArrow" transform="rotate(270) translate(-36 17)" onmousedown="handlePan(-1,0)">
                  <use xlink:href="#rim" fill="#404040">
                        <set attributeName="fill" to="#808080" begin="arrowLeft.mouseover" end="arrowLeft.mouseout"/>
                  </use>
                  <path fill="none" stroke="white" stroke-width="1.5" d="M0,-3.0v7 M-2.5,-0.5L0,-3.0L2.5,-0.5"/>
                </g>
        </g>
        <svg viewBox="0 0 15 15" width="100%" height="30px" preserveAspectRatio="xMaxYMin meet">
         <g id="arrow_out" transform="scale(0.3 0.3)">
          <a xlink:href="namespacemom__eos_a204529f8434a0322314e6ce2a9762436_icgraph_org.svg" target="_base">
           <rect id="button" ry="5" rx="5" y="6" x="6" height="38" width="38"
                fill="#f2f5e9" fill-opacity="0.5" stroke="#606060" stroke-width="1.0"/>
           <path id="arrow"
             d="M 11.500037,31.436501 C 11.940474,20.09759 22.043105,11.32322 32.158766,21.979434 L 37.068811,17.246167 C 37.068811,17.246167 37.088388,32 37.088388,32 L 22.160133,31.978069 C 22.160133,31.978069 26.997745,27.140456 26.997745,27.140456 C 18.528582,18.264221 13.291696,25.230495 11.500037,31.436501 z"
             style="fill:#404040;"/>
          </a>
         </g>
        </svg>
</svg>
