<?xml version="1.0" encoding="UTF-8" standalone="no"?>
<!DOCTYPE svg PUBLIC "-//W3C//DTD SVG 1.1//EN"
 "http://www.w3.org/Graphics/SVG/1.1/DTD/svg11.dtd">
<!-- Generated by graphviz version 2.30.1 (20170916.1124)
 -->
<!-- Title: mom_error_handler::calltree_waypoint Pages: 1 -->
<svg width="630pt" height="423pt"
 viewBox="0.00 0.00 630.00 423.17" xmlns="http://www.w3.org/2000/svg" xmlns:xlink="http://www.w3.org/1999/xlink">
<g id="graph0" class="graph" transform="scale(1 1) rotate(0) translate(4 419.171)">
<title>mom_error_handler::calltree_waypoint</title>
<polygon fill="white" stroke="white" points="-4,5 -4,-419.171 627,-419.171 627,5 -4,5"/>
<!-- Node170 -->
<g id="node1" class="node"><title>Node170</title>
<g id="a_node1"><a xlink:title="Writes a message about reaching a milestone if call tree reporting is active.">
<polygon fill="#bfbfbf" stroke="black" points="528.5,-229 528.5,-259 621.5,-259 621.5,-229 528.5,-229"/>
<text text-anchor="start" x="536.5" y="-247" font-family="Helvetica,sans-Serif" font-size="10.00">mom_error_handler::</text>
<text text-anchor="middle" x="575" y="-236" font-family="Helvetica,sans-Serif" font-size="10.00">calltree_waypoint</text>
</a>
</g>
</g>
<!-- Node171 -->
<g id="node2" class="node"><title>Node171</title>
<g id="a_node2"><a xlink:href="namespacemom__ale.html#a85ced017378248ea6db867aa03220a1d" target="_top" xlink:title="Takes care of (1) building a new grid and (2) remapping all variables between the old grid and the ne...">
<polygon fill="white" stroke="black" points="231,-379.5 231,-398.5 317,-398.5 317,-379.5 231,-379.5"/>
<text text-anchor="middle" x="274" y="-386.5" font-family="Helvetica,sans-Serif" font-size="10.00">mom_ale::ale_main</text>
</a>
</g>
</g>
<!-- Node170&#45;&gt;Node171 -->
<g id="edge1" class="edge"><title>Node170&#45;&gt;Node171</title>
<path fill="none" stroke="midnightblue" d="M567.93,-269.417C558.298,-303.398 535.929,-362.327 492,-388 434.753,-421.456 353.654,-409.383 308.558,-398.57"/>
<polygon fill="midnightblue" stroke="midnightblue" points="571.424,-269.898 570.621,-259.334 564.661,-268.093 571.424,-269.898"/>
</g>
<!-- Node172 -->
<g id="node3" class="node"><title>Node172</title>
<g id="a_node3"><a xlink:href="namespacemom__ale.html#a5a39781fe9a087c4ab8b4b2ea86ef05c" target="_top" xlink:title="Takes care of (1) building a new grid and (2) remapping all variables between the old grid and the ne...">
<polygon fill="white" stroke="black" points="218,-322.5 218,-341.5 330,-341.5 330,-322.5 218,-322.5"/>
<text text-anchor="middle" x="274" y="-329.5" font-family="Helvetica,sans-Serif" font-size="10.00">mom_ale::ale_main_offline</text>
</a>
</g>
</g>
<!-- Node170&#45;&gt;Node172 -->
<g id="edge2" class="edge"><title>Node170&#45;&gt;Node172</title>
<path fill="none" stroke="midnightblue" d="M534.088,-263.229C520.887,-269.126 505.993,-275.294 492,-280 436.371,-298.71 370.585,-313.486 326.147,-322.432"/>
<polygon fill="midnightblue" stroke="midnightblue" points="535.712,-266.335 543.364,-259.007 532.813,-259.963 535.712,-266.335"/>
</g>
<!-- Node175 -->
<g id="node6" class="node"><title>Node175</title>
<g id="a_node6"><a xlink:href="namespacemom__ale.html#adb107f7111d155d1c5a2715d8190bfb1" target="_top" xlink:title="Remaps all tracers from h onto h_target. This is intended to be called when tracers are done offline....">
<polygon fill="white" stroke="black" points="229,-273 229,-303 319,-303 319,-273 229,-273"/>
<text text-anchor="start" x="237" y="-291" font-family="Helvetica,sans-Serif" font-size="10.00">mom_ale::ale_offline</text>
<text text-anchor="middle" x="274" y="-280" font-family="Helvetica,sans-Serif" font-size="10.00">_tracer_final</text>
</a>
</g>
</g>
<!-- Node170&#45;&gt;Node175 -->
<g id="edge5" class="edge"><title>Node170&#45;&gt;Node175</title>
<path fill="none" stroke="midnightblue" d="M518.596,-253.705C509.71,-255.191 500.607,-256.671 492,-258 432.238,-267.23 363.002,-276.568 319.114,-282.318"/>
<polygon fill="midnightblue" stroke="midnightblue" points="519.222,-257.149 528.5,-252.033 518.057,-250.246 519.222,-257.149"/>
</g>
<!-- Node176 -->
<g id="node7" class="node"><title>Node176</title>
<g id="a_node7"><a xlink:href="namespacemom__diabatic__driver.html#a61e57d3902367aa46aa3c2d949ee900f" target="_top" xlink:title="This subroutine imposes the diapycnal mass fluxes and the accompanying diapycnal advection of momentu...">
<polygon fill="white" stroke="black" points="383.5,-147 383.5,-177 474.5,-177 474.5,-147 383.5,-147"/>
<text text-anchor="start" x="391.5" y="-165" font-family="Helvetica,sans-Serif" font-size="10.00">mom_diabatic_driver</text>
<text text-anchor="middle" x="429" y="-154" font-family="Helvetica,sans-Serif" font-size="10.00">::diabatic</text>
</a>
</g>
</g>
<!-- Node170&#45;&gt;Node176 -->
<g id="edge7" class="edge"><title>Node170&#45;&gt;Node176</title>
<path fill="none" stroke="midnightblue" d="M543.306,-223.359C528.118,-213.452 509.361,-201.663 492,-192 482.701,-186.824 472.374,-181.621 462.858,-177.035"/>
<polygon fill="midnightblue" stroke="midnightblue" points="541.52,-226.374 551.798,-228.946 545.367,-220.526 541.52,-226.374"/>
</g>
<!-- Node177 -->
<g id="node8" class="node"><title>Node177</title>
<g id="a_node8"><a xlink:href="namespacemom.html#a0be2869fef30e1e0604facfe1b41555d" target="_top" xlink:title="This subroutine initializes MOM.">
<polygon fill="white" stroke="black" points="92.5,-237.5 92.5,-256.5 181.5,-256.5 181.5,-237.5 92.5,-237.5"/>
<text text-anchor="middle" x="137" y="-244.5" font-family="Helvetica,sans-Serif" font-size="10.00">mom::initialize_mom</text>
</a>
</g>
</g>
<!-- Node170&#45;&gt;Node177 -->
<g id="edge8" class="edge"><title>Node170&#45;&gt;Node177</title>
<path fill="none" stroke="midnightblue" d="M518.108,-244.385C430.147,-244.99 261.25,-246.152 181.603,-246.7"/>
<polygon fill="midnightblue" stroke="midnightblue" points="518.189,-247.884 528.164,-244.315 518.141,-240.884 518.189,-247.884"/>
</g>
<!-- Node174 -->
<g id="node5" class="node"><title>Node174</title>
<g id="a_node5"><a xlink:href="MOM__driver_8F90.html#a08fffeb2d8e8acbf9ed4609be6d258c6" target="_top" xlink:title=" ">
<polygon fill="white" stroke="black" points="0,-257.5 0,-276.5 56,-276.5 56,-257.5 0,-257.5"/>
<text text-anchor="middle" x="28" y="-264.5" font-family="Helvetica,sans-Serif" font-size="10.00">mom_main</text>
</a>
</g>
</g>
<!-- Node170&#45;&gt;Node174 -->
<g id="edge10" class="edge"><title>Node170&#45;&gt;Node174</title>
<path fill="none" stroke="midnightblue" d="M570.176,-269.056C562.791,-307.631 542.573,-380.409 492,-412 479.496,-419.811 224.719,-410.332 218,-408 137.168,-379.952 62.3474,-303.722 37.5988,-276.677"/>
<polygon fill="midnightblue" stroke="midnightblue" points="573.633,-269.603 571.933,-259.146 566.741,-268.381 573.633,-269.603"/>
</g>
<!-- Node178 -->
<g id="node9" class="node"><title>Node178</title>
<g id="a_node9"><a xlink:href="namespacemom__ale.html#afa44870e6fe590c2e2bc5265998dc19f" target="_top" xlink:title="This routine takes care of remapping all variable between the old and the new grids....">
<polygon fill="white" stroke="black" points="384.5,-349 384.5,-379 473.5,-379 473.5,-349 384.5,-349"/>
<text text-anchor="start" x="392.5" y="-367" font-family="Helvetica,sans-Serif" font-size="10.00">mom_ale::remap_all</text>
<text text-anchor="middle" x="429" y="-356" font-family="Helvetica,sans-Serif" font-size="10.00">_state_vars</text>
</a>
</g>
</g>
<!-- Node170&#45;&gt;Node178 -->
<g id="edge11" class="edge"><title>Node170&#45;&gt;Node178</title>
<path fill="none" stroke="midnightblue" d="M557.014,-267.143C541.691,-286.814 517.674,-314.834 492,-334 484.43,-339.651 475.628,-344.671 467.075,-348.912"/>
<polygon fill="midnightblue" stroke="midnightblue" points="559.934,-269.086 563.222,-259.014 554.371,-264.837 559.934,-269.086"/>
</g>
<!-- Node179 -->
<g id="node10" class="node"><title>Node179</title>
<g id="a_node10"><a xlink:href="namespacemom__set__diffusivity.html#a8b1f646393f0ec717ca690e4f04d96e8" target="_top" xlink:title=" ">
<polygon fill="white" stroke="black" points="386,-98 386,-128 472,-128 472,-98 386,-98"/>
<text text-anchor="start" x="394" y="-116" font-family="Helvetica,sans-Serif" font-size="10.00">mom_set_diffusivity</text>
<text text-anchor="middle" x="429" y="-105" font-family="Helvetica,sans-Serif" font-size="10.00">::set_diffusivity</text>
</a>
</g>
</g>
<!-- Node170&#45;&gt;Node179 -->
<g id="edge15" class="edge"><title>Node170&#45;&gt;Node179</title>
<path fill="none" stroke="midnightblue" d="M560.757,-220.236C546.501,-196.555 521.809,-160.559 492,-138 486.077,-133.518 479.241,-129.714 472.318,-126.53"/>
<polygon fill="midnightblue" stroke="midnightblue" points="557.792,-222.099 565.87,-228.955 563.831,-218.558 557.792,-222.099"/>
</g>
<!-- Node180 -->
<g id="node11" class="node"><title>Node180</title>
<g id="a_node11"><a xlink:href="namespacemom.html#a4c8332b095c6d295084089aa6b3b678a" target="_top" xlink:title="This subroutine orchestrates the time stepping of MOM. The adiabatic dynamics are stepped by calls to...">
<polygon fill="white" stroke="black" points="98.5,-199.5 98.5,-218.5 175.5,-218.5 175.5,-199.5 98.5,-199.5"/>
<text text-anchor="middle" x="137" y="-206.5" font-family="Helvetica,sans-Serif" font-size="10.00">mom::step_mom</text>
</a>
</g>
</g>
<!-- Node170&#45;&gt;Node180 -->
<g id="edge16" class="edge"><title>Node170&#45;&gt;Node180</title>
<path fill="none" stroke="midnightblue" d="M518.125,-239.515C427.923,-232.274 252.571,-218.197 175.675,-212.024"/>
<polygon fill="midnightblue" stroke="midnightblue" points="517.916,-243.009 528.164,-240.321 518.477,-236.031 517.916,-243.009"/>
</g>
<!-- Node181 -->
<g id="node12" class="node"><title>Node181</title>
<g id="a_node12"><a xlink:href="namespacemom__dynamics__split__rk2.html#a81cce65643a8cf94979d68354a9a1979" target="_top" xlink:title="RK2 splitting for time stepping MOM adiabatic dynamics.">
<polygon fill="white" stroke="black" points="366.5,-49 366.5,-79 491.5,-79 491.5,-49 366.5,-49"/>
<text text-anchor="start" x="374.5" y="-67" font-family="Helvetica,sans-Serif" font-size="10.00">mom_dynamics_split</text>
<text text-anchor="middle" x="429" y="-56" font-family="Helvetica,sans-Serif" font-size="10.00">_rk2::step_mom_dyn_split_rk2</text>
</a>
</g>
</g>
<!-- Node170&#45;&gt;Node181 -->
<g id="edge18" class="edge"><title>Node170&#45;&gt;Node181</title>
<path fill="none" stroke="midnightblue" d="M566.774,-218.976C555.823,-185.176 531.955,-125.027 492,-89 487.776,-85.1917 482.898,-81.9254 477.771,-79.1331"/>
<polygon fill="midnightblue" stroke="midnightblue" points="563.445,-220.058 569.761,-228.564 570.128,-217.975 563.445,-220.058"/>
</g>
<!-- Node182 -->
<g id="node13" class="node"><title>Node182</title>
<g id="a_node13"><a xlink:href="namespacemom__tracer__hor__diff.html#a069e22612062290389c2630c7f90ede2" target="_top" xlink:title="Compute along&#45;coordinate diffusion of all tracers using the diffusivity in CSKhTr,...">
<polygon fill="white" stroke="black" points="383,-0 383,-30 475,-30 475,-0 383,-0"/>
<text text-anchor="start" x="391" y="-18" font-family="Helvetica,sans-Serif" font-size="10.00">mom_tracer_hor_diff</text>
<text text-anchor="middle" x="429" y="-7" font-family="Helvetica,sans-Serif" font-size="10.00">::tracer_hordiff</text>
</a>
</g>
</g>
<!-- Node170&#45;&gt;Node182 -->
<g id="edge19" class="edge"><title>Node170&#45;&gt;Node182</title>
<path fill="none" stroke="midnightblue" d="M570.412,-218.986C563.092,-176.682 542.624,-90.6796 492,-40 487.161,-35.1554 481.259,-31.216 475.041,-28.0218"/>
<polygon fill="midnightblue" stroke="midnightblue" points="566.979,-219.678 572.036,-228.988 573.888,-218.556 566.979,-219.678"/>
</g>
<!-- Node173 -->
<g id="node4" class="node"><title>Node173</title>
<g id="a_node4"><a xlink:href="namespacemom.html#ada859fe9e7e841ea281dae323cc4f6ac" target="_top" xlink:title="step_tracers is the main driver for running tracers offline in MOM6. This has been primarily develope...">
<polygon fill="white" stroke="black" points="95.5,-278.5 95.5,-297.5 178.5,-297.5 178.5,-278.5 95.5,-278.5"/>
<text text-anchor="middle" x="137" y="-285.5" font-family="Helvetica,sans-Serif" font-size="10.00">mom::step_tracers</text>
</a>
</g>
</g>
<!-- Node172&#45;&gt;Node173 -->
<g id="edge3" class="edge"><title>Node172&#45;&gt;Node173</title>
<path fill="none" stroke="midnightblue" d="M233.984,-319.284C212.693,-312.344 186.772,-303.896 167.236,-297.529"/>
<polygon fill="midnightblue" stroke="midnightblue" points="233.115,-322.681 243.707,-322.453 235.284,-316.026 233.115,-322.681"/>
</g>
<!-- Node173&#45;&gt;Node174 -->
<g id="edge4" class="edge"><title>Node173&#45;&gt;Node174</title>
<path fill="none" stroke="midnightblue" d="M85.2593,-278.042C75.1791,-276.063 64.9679,-274.059 56.0622,-272.311"/>
<polygon fill="midnightblue" stroke="midnightblue" points="84.7558,-281.509 95.2426,-280.001 86.1039,-274.64 84.7558,-281.509"/>
</g>
<!-- Node175&#45;&gt;Node173 -->
<g id="edge6" class="edge"><title>Node175&#45;&gt;Node173</title>
<path fill="none" stroke="midnightblue" d="M218.741,-288C205.36,-288 191.257,-288 178.647,-288"/>
<polygon fill="midnightblue" stroke="midnightblue" points="218.796,-291.5 228.796,-288 218.796,-284.5 218.796,-291.5"/>
</g>
<!-- Node177&#45;&gt;Node174 -->
<g id="edge9" class="edge"><title>Node177&#45;&gt;Node174</title>
<path fill="none" stroke="midnightblue" d="M82.6016,-256.981C73.4508,-258.691 64.2961,-260.403 56.2082,-261.914"/>
<polygon fill="midnightblue" stroke="midnightblue" points="83.2923,-260.413 92.479,-255.135 82.0061,-253.532 83.2923,-260.413"/>
</g>
<!-- Node178&#45;&gt;Node171 -->
<g id="edge12" class="edge"><title>Node178&#45;&gt;Node171</title>
<path fill="none" stroke="midnightblue" d="M374.256,-372.782C355.478,-375.85 334.688,-379.247 317.006,-382.136"/>
<polygon fill="midnightblue" stroke="midnightblue" points="374.852,-376.231 384.156,-371.164 373.723,-369.322 374.852,-376.231"/>
</g>
<!-- Node178&#45;&gt;Node172 -->
<g id="edge13" class="edge"><title>Node178&#45;&gt;Node172</title>
<path fill="none" stroke="midnightblue" d="M374.071,-352.721C356.547,-349.056 337.288,-345.028 320.447,-341.505"/>
<polygon fill="midnightblue" stroke="midnightblue" points="373.652,-356.209 384.156,-354.83 375.085,-349.357 373.652,-356.209"/>
</g>
<!-- Node178&#45;&gt;Node175 -->
<g id="edge14" class="edge"><title>Node178&#45;&gt;Node175</title>
<path fill="none" stroke="midnightblue" d="M391.033,-344.17C372.779,-334.531 350.357,-322.915 330,-313 323.211,-309.693 315.89,-306.269 308.873,-303.055"/>
<polygon fill="midnightblue" stroke="midnightblue" points="389.423,-347.278 399.898,-348.869 392.701,-341.094 389.423,-347.278"/>
</g>
<!-- Node180&#45;&gt;Node174 -->
<g id="edge17" class="edge"><title>Node180&#45;&gt;Node174</title>
<path fill="none" stroke="midnightblue" d="M102.528,-222.84C98.9389,-224.505 95.3702,-226.241 92,-228 74.6656,-237.046 55.7058,-249.099 43.1619,-257.399"/>
<polygon fill="midnightblue" stroke="midnightblue" points="104.251,-225.903 111.953,-218.628 101.395,-219.512 104.251,-225.903"/>
</g>
</g>
</svg>
