<?xml version="1.0" encoding="UTF-8" standalone="no"?>
<!DOCTYPE svg PUBLIC "-//W3C//DTD SVG 1.1//EN"
 "http://www.w3.org/Graphics/SVG/1.1/DTD/svg11.dtd">
<!-- Generated by graphviz version 2.30.1 (20170916.1124)
 -->
<!-- Title: user_tracer_example::user_tracer_surface_state Pages: 1 -->
<svg width="524pt" height="38pt"
 viewBox="0.00 0.00 524.00 38.00" xmlns="http://www.w3.org/2000/svg" xmlns:xlink="http://www.w3.org/1999/xlink">
<g id="graph0" class="graph" transform="scale(1 1) rotate(0) translate(4 34)">
<title>user_tracer_example::user_tracer_surface_state</title>
<polygon fill="white" stroke="white" points="-4,5 -4,-34 521,-34 521,5 -4,5"/>
<!-- Node30 -->
<g id="node1" class="node"><title>Node30</title>
<g id="a_node1"><a xlink:title=" ">
<polygon fill="#bfbfbf" stroke="black" points="0.5,-0 0.5,-30 115.5,-30 115.5,-0 0.5,-0"/>
<text text-anchor="start" x="8.5" y="-18" font-family="Helvetica,sans-Serif" font-size="10.00">user_tracer_example</text>
<text text-anchor="middle" x="58" y="-7" font-family="Helvetica,sans-Serif" font-size="10.00">::user_tracer_surface_state</text>
</a>
</g>
</g>
<!-- Node31 -->
<g id="node2" class="node"><title>Node31</title>
<g id="a_node2"><a xlink:href="namespacecoupler__util.html#a905a5b5d76999092172d1a6cfd17a1e6" target="_top" xlink:title=" ">
<polygon fill="white" stroke="black" points="152.5,-0 152.5,-30 255.5,-30 255.5,-0 152.5,-0"/>
<text text-anchor="start" x="160.5" y="-18" font-family="Helvetica,sans-Serif" font-size="10.00">coupler_util::set_coupler</text>
<text text-anchor="middle" x="204" y="-7" font-family="Helvetica,sans-Serif" font-size="10.00">_values</text>
</a>
</g>
</g>
<!-- Node30&#45;&gt;Node31 -->
<g id="edge1" class="edge"><title>Node30&#45;&gt;Node31</title>
<path fill="none" stroke="midnightblue" d="M115.913,-15C124.501,-15 133.39,-15 142.059,-15"/>
<polygon fill="midnightblue" stroke="midnightblue" points="142.104,-18.5001 152.104,-15 142.104,-11.5001 142.104,-18.5001"/>
</g>
<!-- Node32 -->
<g id="node3" class="node"><title>Node32</title>
<g id="a_node3"><a xlink:href="namespacemom__error__handler.html#a460cfb79a06c29fc249952c2a3710d67" target="_top" xlink:title=" ">
<polygon fill="white" stroke="black" points="292.5,-0 292.5,-30 385.5,-30 385.5,-0 292.5,-0"/>
<text text-anchor="start" x="300.5" y="-18" font-family="Helvetica,sans-Serif" font-size="10.00">mom_error_handler::</text>
<text text-anchor="middle" x="339" y="-7" font-family="Helvetica,sans-Serif" font-size="10.00">mom_error</text>
</a>
</g>
</g>
<!-- Node31&#45;&gt;Node32 -->
<g id="edge2" class="edge"><title>Node31&#45;&gt;Node32</title>
<path fill="none" stroke="midnightblue" d="M255.661,-15C264.314,-15 273.347,-15 282.127,-15"/>
<polygon fill="midnightblue" stroke="midnightblue" points="282.278,-18.5001 292.278,-15 282.278,-11.5001 282.278,-18.5001"/>
</g>
<!-- Node33 -->
<g id="node4" class="node"><title>Node33</title>
<g id="a_node4"><a xlink:href="namespacemom__error__handler.html#ad5f00a53059c72fe2332d1436c80ca71" target="_top" xlink:title=" ">
<polygon fill="white" stroke="black" points="422.5,-0 422.5,-30 515.5,-30 515.5,-0 422.5,-0"/>
<text text-anchor="start" x="430.5" y="-18" font-family="Helvetica,sans-Serif" font-size="10.00">mom_error_handler::</text>
<text text-anchor="middle" x="469" y="-7" font-family="Helvetica,sans-Serif" font-size="10.00">is_root_pe</text>
</a>
</g>
</g>
<!-- Node32&#45;&gt;Node33 -->
<g id="edge3" class="edge"><title>Node32&#45;&gt;Node33</title>
<path fill="none" stroke="midnightblue" d="M385.849,-15C394.408,-15 403.439,-15 412.258,-15"/>
<polygon fill="midnightblue" stroke="midnightblue" points="412.471,-18.5001 422.471,-15 412.471,-11.5001 412.471,-18.5001"/>
</g>
</g>
</svg>
