<?xml version="1.0" encoding="UTF-8" standalone="no"?>
<!DOCTYPE svg PUBLIC "-//W3C//DTD SVG 1.1//EN"
 "http://www.w3.org/Graphics/SVG/1.1/DTD/svg11.dtd">
<!-- Generated by graphviz version 2.30.1 (20170916.1124)
 -->
<!-- Title: oil_tracer::oil_tracer_column_physics Pages: 1 -->
<svg width="524pt" height="87pt"
 viewBox="0.00 0.00 524.00 87.00" xmlns="http://www.w3.org/2000/svg" xmlns:xlink="http://www.w3.org/1999/xlink">
<g id="graph0" class="graph" transform="scale(1 1) rotate(0) translate(4 83)">
<title>oil_tracer::oil_tracer_column_physics</title>
<polygon fill="white" stroke="white" points="-4,5 -4,-83 521,-83 521,5 -4,5"/>
<!-- Node23 -->
<g id="node1" class="node"><title>Node23</title>
<g id="a_node1"><a xlink:title=" ">
<polygon fill="#bfbfbf" stroke="black" points="0.5,-24 0.5,-54 87.5,-54 87.5,-24 0.5,-24"/>
<text text-anchor="start" x="8.5" y="-42" font-family="Helvetica,sans-Serif" font-size="10.00">oil_tracer::oil_tracer</text>
<text text-anchor="middle" x="44" y="-31" font-family="Helvetica,sans-Serif" font-size="10.00">_column_physics</text>
</a>
</g>
</g>
<!-- Node24 -->
<g id="node2" class="node"><title>Node24</title>
<g id="a_node2"><a xlink:href="namespacemom__tracer__diabatic.html#a1fd213439071bcb31be7de49e7a72039" target="_top" xlink:title=" ">
<polygon fill="white" stroke="black" points="124,-49 124,-79 256,-79 256,-49 124,-49"/>
<text text-anchor="start" x="132" y="-67" font-family="Helvetica,sans-Serif" font-size="10.00">mom_tracer_diabatic</text>
<text text-anchor="middle" x="190" y="-56" font-family="Helvetica,sans-Serif" font-size="10.00">::applytracerboundaryfluxesinout</text>
</a>
</g>
</g>
<!-- Node23&#45;&gt;Node24 -->
<g id="edge1" class="edge"><title>Node23&#45;&gt;Node24</title>
<path fill="none" stroke="midnightblue" d="M87.8149,-46.4331C96.0671,-47.8658 104.935,-49.4054 113.868,-50.9562"/>
<polygon fill="midnightblue" stroke="midnightblue" points="113.499,-54.4445 123.95,-52.7067 114.697,-47.5477 113.499,-54.4445"/>
</g>
<!-- Node27 -->
<g id="node5" class="node"><title>Node27</title>
<g id="a_node5"><a xlink:href="namespacemom__tracer__diabatic.html#ac5d57973547cc4ed3a89808d3910943e" target="_top" xlink:title="This subroutine solves a tridiagonal equation for the final tracer concentrations after the dual&#45;entr...">
<polygon fill="white" stroke="black" points="144,-0 144,-30 236,-30 236,-0 144,-0"/>
<text text-anchor="start" x="152" y="-18" font-family="Helvetica,sans-Serif" font-size="10.00">mom_tracer_diabatic</text>
<text text-anchor="middle" x="190" y="-7" font-family="Helvetica,sans-Serif" font-size="10.00">::tracer_vertdiff</text>
</a>
</g>
</g>
<!-- Node23&#45;&gt;Node27 -->
<g id="edge4" class="edge"><title>Node23&#45;&gt;Node27</title>
<path fill="none" stroke="midnightblue" d="M87.8149,-31.8642C102.301,-29.4499 118.683,-26.7194 133.982,-24.1697"/>
<polygon fill="midnightblue" stroke="midnightblue" points="134.559,-27.6219 143.847,-22.5255 133.408,-20.7172 134.559,-27.6219"/>
</g>
<!-- Node25 -->
<g id="node3" class="node"><title>Node25</title>
<g id="a_node3"><a xlink:href="namespacemom__error__handler.html#a460cfb79a06c29fc249952c2a3710d67" target="_top" xlink:title=" ">
<polygon fill="white" stroke="black" points="292.5,-49 292.5,-79 385.5,-79 385.5,-49 292.5,-49"/>
<text text-anchor="start" x="300.5" y="-67" font-family="Helvetica,sans-Serif" font-size="10.00">mom_error_handler::</text>
<text text-anchor="middle" x="339" y="-56" font-family="Helvetica,sans-Serif" font-size="10.00">mom_error</text>
</a>
</g>
</g>
<!-- Node24&#45;&gt;Node25 -->
<g id="edge2" class="edge"><title>Node24&#45;&gt;Node25</title>
<path fill="none" stroke="midnightblue" d="M256.332,-64C264.946,-64 273.711,-64 282.146,-64"/>
<polygon fill="midnightblue" stroke="midnightblue" points="282.239,-67.5001 292.239,-64 282.239,-60.5001 282.239,-67.5001"/>
</g>
<!-- Node26 -->
<g id="node4" class="node"><title>Node26</title>
<g id="a_node4"><a xlink:href="namespacemom__error__handler.html#ad5f00a53059c72fe2332d1436c80ca71" target="_top" xlink:title=" ">
<polygon fill="white" stroke="black" points="422.5,-49 422.5,-79 515.5,-79 515.5,-49 422.5,-49"/>
<text text-anchor="start" x="430.5" y="-67" font-family="Helvetica,sans-Serif" font-size="10.00">mom_error_handler::</text>
<text text-anchor="middle" x="469" y="-56" font-family="Helvetica,sans-Serif" font-size="10.00">is_root_pe</text>
</a>
</g>
</g>
<!-- Node25&#45;&gt;Node26 -->
<g id="edge3" class="edge"><title>Node25&#45;&gt;Node26</title>
<path fill="none" stroke="midnightblue" d="M385.849,-64C394.408,-64 403.439,-64 412.258,-64"/>
<polygon fill="midnightblue" stroke="midnightblue" points="412.471,-67.5001 422.471,-64 412.471,-60.5001 412.471,-67.5001"/>
</g>
</g>
</svg>
