<?xml version="1.0" encoding="UTF-8" standalone="no"?>
<!DOCTYPE svg PUBLIC "-//W3C//DTD SVG 1.1//EN"
 "http://www.w3.org/Graphics/SVG/1.1/DTD/svg11.dtd">
<!-- Generated by graphviz version 2.30.1 (20170916.1124)
 -->
<!-- Title: mom_sum_output::depth_list_setup Pages: 1 -->
<svg width="518pt" height="213pt"
 viewBox="0.00 0.00 518.00 213.00" xmlns="http://www.w3.org/2000/svg" xmlns:xlink="http://www.w3.org/1999/xlink">
<g id="graph0" class="graph" transform="scale(1 1) rotate(0) translate(4 209)">
<title>mom_sum_output::depth_list_setup</title>
<polygon fill="white" stroke="white" points="-4,5 -4,-209 515,-209 515,5 -4,5"/>
<!-- Node11 -->
<g id="node1" class="node"><title>Node11</title>
<g id="a_node1"><a xlink:title=" ">
<polygon fill="#bfbfbf" stroke="black" points="0,-93 0,-123 106,-123 106,-93 0,-93"/>
<text text-anchor="start" x="8" y="-111" font-family="Helvetica,sans-Serif" font-size="10.00">mom_sum_output::depth</text>
<text text-anchor="middle" x="53" y="-100" font-family="Helvetica,sans-Serif" font-size="10.00">_list_setup</text>
</a>
</g>
</g>
<!-- Node12 -->
<g id="node2" class="node"><title>Node12</title>
<g id="a_node2"><a xlink:href="namespacemom__sum__output.html#a1db5001777c2171a7f3f16122b4bacd1" target="_top" xlink:title="create_depth_list makes an ordered list of depths, along with the cross sectional areas at each depth...">
<polygon fill="white" stroke="black" points="142,-175 142,-205 250,-205 250,-175 142,-175"/>
<text text-anchor="start" x="150" y="-193" font-family="Helvetica,sans-Serif" font-size="10.00">mom_sum_output::create</text>
<text text-anchor="middle" x="196" y="-182" font-family="Helvetica,sans-Serif" font-size="10.00">_depth_list</text>
</a>
</g>
</g>
<!-- Node11&#45;&gt;Node12 -->
<g id="edge1" class="edge"><title>Node11&#45;&gt;Node12</title>
<path fill="none" stroke="midnightblue" d="M79.3425,-123.144C96.8859,-133.586 120.802,-147.739 142,-160 147.586,-163.231 153.521,-166.626 159.321,-169.924"/>
<polygon fill="midnightblue" stroke="midnightblue" points="157.829,-173.102 168.254,-174.989 161.281,-167.012 157.829,-173.102"/>
</g>
<!-- Node13 -->
<g id="node3" class="node"><title>Node13</title>
<g id="a_node3"><a xlink:href="namespacemom__error__handler.html#ad5f00a53059c72fe2332d1436c80ca71" target="_top" xlink:title=" ">
<polygon fill="white" stroke="black" points="416.5,-49 416.5,-79 509.5,-79 509.5,-49 416.5,-49"/>
<text text-anchor="start" x="424.5" y="-67" font-family="Helvetica,sans-Serif" font-size="10.00">mom_error_handler::</text>
<text text-anchor="middle" x="463" y="-56" font-family="Helvetica,sans-Serif" font-size="10.00">is_root_pe</text>
</a>
</g>
</g>
<!-- Node11&#45;&gt;Node13 -->
<g id="edge2" class="edge"><title>Node11&#45;&gt;Node13</title>
<path fill="none" stroke="midnightblue" d="M106.113,-109.38C117.913,-109.638 130.387,-109.868 142,-110 189.997,-110.545 202.169,-114.019 250,-110 308.394,-105.094 322.893,-101.142 380,-88 388.612,-86.0181 397.657,-83.6588 406.467,-81.2051"/>
<polygon fill="midnightblue" stroke="midnightblue" points="407.62,-84.516 416.278,-78.4098 405.702,-77.7839 407.62,-84.516"/>
</g>
<!-- Node14 -->
<g id="node4" class="node"><title>Node14</title>
<g id="a_node4"><a xlink:href="namespacemom__error__handler.html#a460cfb79a06c29fc249952c2a3710d67" target="_top" xlink:title=" ">
<polygon fill="white" stroke="black" points="286.5,-49 286.5,-79 379.5,-79 379.5,-49 286.5,-49"/>
<text text-anchor="start" x="294.5" y="-67" font-family="Helvetica,sans-Serif" font-size="10.00">mom_error_handler::</text>
<text text-anchor="middle" x="333" y="-56" font-family="Helvetica,sans-Serif" font-size="10.00">mom_error</text>
</a>
</g>
</g>
<!-- Node11&#45;&gt;Node14 -->
<g id="edge3" class="edge"><title>Node11&#45;&gt;Node14</title>
<path fill="none" stroke="midnightblue" d="M106.379,-105.268C146.077,-102.568 201.83,-97.4245 250,-88 258.673,-86.3031 267.75,-84.0962 276.574,-81.7085"/>
<polygon fill="midnightblue" stroke="midnightblue" points="277.711,-85.0248 286.394,-78.9535 275.82,-78.285 277.711,-85.0248"/>
</g>
<!-- Node15 -->
<g id="node5" class="node"><title>Node15</title>
<g id="a_node5"><a xlink:href="namespacemom__sum__output.html#a451f9101467634477df735d1699b538c" target="_top" xlink:title=" ">
<polygon fill="white" stroke="black" points="145,-49 145,-79 247,-79 247,-49 145,-49"/>
<text text-anchor="start" x="153" y="-67" font-family="Helvetica,sans-Serif" font-size="10.00">mom_sum_output::read</text>
<text text-anchor="middle" x="196" y="-56" font-family="Helvetica,sans-Serif" font-size="10.00">_depth_list</text>
</a>
</g>
</g>
<!-- Node11&#45;&gt;Node15 -->
<g id="edge5" class="edge"><title>Node11&#45;&gt;Node15</title>
<path fill="none" stroke="midnightblue" d="M102.13,-92.9808C113.349,-89.4798 125.411,-85.7158 137.006,-82.0973"/>
<polygon fill="midnightblue" stroke="midnightblue" points="138.105,-85.421 146.608,-79.1009 136.02,-78.7388 138.105,-85.421"/>
</g>
<!-- Node16 -->
<g id="node6" class="node"><title>Node16</title>
<g id="a_node6"><a xlink:href="namespacemom__sum__output.html#a0dc24305437100a7d073a489ff531ec1" target="_top" xlink:title=" ">
<polygon fill="white" stroke="black" points="144.5,-0 144.5,-30 247.5,-30 247.5,-0 144.5,-0"/>
<text text-anchor="start" x="152.5" y="-18" font-family="Helvetica,sans-Serif" font-size="10.00">mom_sum_output::write</text>
<text text-anchor="middle" x="196" y="-7" font-family="Helvetica,sans-Serif" font-size="10.00">_depth_list</text>
</a>
</g>
</g>
<!-- Node11&#45;&gt;Node16 -->
<g id="edge7" class="edge"><title>Node11&#45;&gt;Node16</title>
<path fill="none" stroke="midnightblue" d="M70.6382,-92.9626C87.7041,-78.0324 115.439,-55.1057 142,-39 144.47,-37.5025 147.049,-36.0401 149.682,-34.6237"/>
<polygon fill="midnightblue" stroke="midnightblue" points="151.44,-37.6562 158.764,-30.0006 148.265,-31.4179 151.44,-37.6562"/>
</g>
<!-- Node14&#45;&gt;Node13 -->
<g id="edge4" class="edge"><title>Node14&#45;&gt;Node13</title>
<path fill="none" stroke="midnightblue" d="M379.849,-64C388.408,-64 397.439,-64 406.258,-64"/>
<polygon fill="midnightblue" stroke="midnightblue" points="406.471,-67.5001 416.471,-64 406.471,-60.5001 406.471,-67.5001"/>
</g>
<!-- Node15&#45;&gt;Node14 -->
<g id="edge6" class="edge"><title>Node15&#45;&gt;Node14</title>
<path fill="none" stroke="midnightblue" d="M247.269,-64C256.628,-64 266.461,-64 275.979,-64"/>
<polygon fill="midnightblue" stroke="midnightblue" points="276.148,-67.5001 286.148,-64 276.148,-60.5001 276.148,-67.5001"/>
</g>
<!-- Node16&#45;&gt;Node13 -->
<g id="edge8" class="edge"><title>Node16&#45;&gt;Node13</title>
<path fill="none" stroke="midnightblue" d="M247.876,-19.3918C284.812,-23.132 335.842,-29.4419 380,-39 388.973,-40.9423 398.383,-43.4001 407.499,-46.0123"/>
<polygon fill="midnightblue" stroke="midnightblue" points="406.657,-49.4133 417.239,-48.8903 408.641,-42.7002 406.657,-49.4133"/>
</g>
<!-- Node16&#45;&gt;Node14 -->
<g id="edge9" class="edge"><title>Node16&#45;&gt;Node14</title>
<path fill="none" stroke="midnightblue" d="M238.606,-30.1014C251.951,-34.9451 266.887,-40.3664 280.834,-45.4285"/>
<polygon fill="midnightblue" stroke="midnightblue" points="279.705,-48.7422 290.299,-48.8641 282.093,-42.1622 279.705,-48.7422"/>
</g>
</g>
</svg>
