<?xml version="1.0" encoding="UTF-8" standalone="no"?>
<!DOCTYPE svg PUBLIC "-//W3C//DTD SVG 1.1//EN"
 "http://www.w3.org/Graphics/SVG/1.1/DTD/svg11.dtd">
<!-- Generated by graphviz version 2.30.1 (20170916.1124)
 -->
<!-- Title: mom_error_checking::totaltands Pages: 1 -->
<svg width="230pt" height="87pt"
 viewBox="0.00 0.00 230.00 87.00" xmlns="http://www.w3.org/2000/svg" xmlns:xlink="http://www.w3.org/1999/xlink">
<g id="graph0" class="graph" transform="scale(1 1) rotate(0) translate(4 83)">
<title>mom_error_checking::totaltands</title>
<polygon fill="white" stroke="white" points="-4,5 -4,-83 227,-83 227,5 -4,5"/>
<!-- Node27 -->
<g id="node1" class="node"><title>Node27</title>
<g id="a_node1"><a xlink:title="This subroutine display the total thickness, temperature and salinity as well as the change since the...">
<polygon fill="#bfbfbf" stroke="black" points="0,-24 0,-54 92,-54 92,-24 0,-24"/>
<text text-anchor="start" x="8" y="-42" font-family="Helvetica,sans-Serif" font-size="10.00">mom_error_checking</text>
<text text-anchor="middle" x="46" y="-31" font-family="Helvetica,sans-Serif" font-size="10.00">::totaltands</text>
</a>
</g>
</g>
<!-- Node28 -->
<g id="node2" class="node"><title>Node28</title>
<g id="a_node2"><a xlink:href="namespacemom__error__handler.html#ad5f00a53059c72fe2332d1436c80ca71" target="_top" xlink:title=" ">
<polygon fill="white" stroke="black" points="128.5,-49 128.5,-79 221.5,-79 221.5,-49 128.5,-49"/>
<text text-anchor="start" x="136.5" y="-67" font-family="Helvetica,sans-Serif" font-size="10.00">mom_error_handler::</text>
<text text-anchor="middle" x="175" y="-56" font-family="Helvetica,sans-Serif" font-size="10.00">is_root_pe</text>
</a>
</g>
</g>
<!-- Node27&#45;&gt;Node28 -->
<g id="edge1" class="edge"><title>Node27&#45;&gt;Node28</title>
<path fill="none" stroke="midnightblue" d="M92.133,-47.8845C100.537,-49.5388 109.411,-51.2856 118.092,-52.9945"/>
<polygon fill="midnightblue" stroke="midnightblue" points="117.668,-56.4781 128.156,-54.9755 119.02,-49.6099 117.668,-56.4781"/>
</g>
<!-- Node29 -->
<g id="node3" class="node"><title>Node29</title>
<g id="a_node3"><a xlink:href="namespacemom__error__checking.html#a1584aedd10e6259ebd02a901d9c3a659" target="_top" xlink:title="This function returns the sum over computational domain of all processors of hThick*stuff,...">
<polygon fill="white" stroke="black" points="129,-0 129,-30 221,-30 221,-0 129,-0"/>
<text text-anchor="start" x="137" y="-18" font-family="Helvetica,sans-Serif" font-size="10.00">mom_error_checking</text>
<text text-anchor="middle" x="175" y="-7" font-family="Helvetica,sans-Serif" font-size="10.00">::totalstuff</text>
</a>
</g>
</g>
<!-- Node27&#45;&gt;Node29 -->
<g id="edge2" class="edge"><title>Node27&#45;&gt;Node29</title>
<path fill="none" stroke="midnightblue" d="M92.133,-30.4709C100.732,-28.8459 109.823,-27.128 118.696,-25.4511"/>
<polygon fill="midnightblue" stroke="midnightblue" points="119.408,-28.8786 128.584,-23.5825 118.108,-22.0003 119.408,-28.8786"/>
</g>
</g>
</svg>
