<?xml version="1.0" encoding="UTF-8" standalone="no"?>
<!DOCTYPE svg PUBLIC "-//W3C//DTD SVG 1.1//EN"
 "http://www.w3.org/Graphics/SVG/1.1/DTD/svg11.dtd">
<!-- Generated by graphviz version 2.30.1 (20170916.1124)
 -->
<!-- Title: mom_diag_mediator::ocean_register_diag Pages: 1 -->
<svg width="240pt" height="38pt"
 viewBox="0.00 0.00 240.00 38.00" xmlns="http://www.w3.org/2000/svg" xmlns:xlink="http://www.w3.org/1999/xlink">
<g id="graph0" class="graph" transform="scale(1 1) rotate(0) translate(4 34)">
<title>mom_diag_mediator::ocean_register_diag</title>
<polygon fill="white" stroke="white" points="-4,5 -4,-34 237,-34 237,5 -4,5"/>
<!-- Node289 -->
<g id="node1" class="node"><title>Node289</title>
<g id="a_node1"><a xlink:title="Registers a diagnostic using the information encapsulated in the vardesc type argument and returns an...">
<polygon fill="#bfbfbf" stroke="black" points="136.5,-0 136.5,-30 231.5,-30 231.5,-0 136.5,-0"/>
<text text-anchor="start" x="144.5" y="-18" font-family="Helvetica,sans-Serif" font-size="10.00">mom_diag_mediator::</text>
<text text-anchor="middle" x="184" y="-7" font-family="Helvetica,sans-Serif" font-size="10.00">ocean_register_diag</text>
</a>
</g>
</g>
<!-- Node290 -->
<g id="node2" class="node"><title>Node290</title>
<g id="a_node2"><a xlink:href="namespacemom__diag__to__z.html#a90526b2f59f94c6af2f525a221029772" target="_top" xlink:title=" ">
<polygon fill="white" stroke="black" points="0,-0 0,-30 100,-30 100,-0 0,-0"/>
<text text-anchor="start" x="8" y="-18" font-family="Helvetica,sans-Serif" font-size="10.00">mom_diag_to_z::ocean</text>
<text text-anchor="middle" x="50" y="-7" font-family="Helvetica,sans-Serif" font-size="10.00">_register_diag_with_z</text>
</a>
</g>
</g>
<!-- Node289&#45;&gt;Node290 -->
<g id="edge1" class="edge"><title>Node289&#45;&gt;Node290</title>
<path fill="none" stroke="midnightblue" d="M126.39,-15C117.692,-15 108.772,-15 100.25,-15"/>
<polygon fill="midnightblue" stroke="midnightblue" points="126.462,-18.5001 136.462,-15 126.462,-11.5001 126.462,-18.5001"/>
</g>
</g>
</svg>
