<?xml version="1.0" encoding="UTF-8" standalone="no"?>
<!DOCTYPE svg PUBLIC "-//W3C//DTD SVG 1.1//EN"
 "http://www.w3.org/Graphics/SVG/1.1/DTD/svg11.dtd">
<!-- Generated by graphviz version 2.30.1 (20170916.1124)
 -->
<!-- Title: mom_document::find_unused_unit_number Pages: 1 -->
<svg width="418pt" height="569pt"
 viewBox="0.00 0.00 418.00 569.00" xmlns="http://www.w3.org/2000/svg" xmlns:xlink="http://www.w3.org/1999/xlink">
<g id="graph0" class="graph" transform="scale(1 1) rotate(0) translate(4 565)">
<title>mom_document::find_unused_unit_number</title>
<polygon fill="white" stroke="white" points="-4,5 -4,-565 415,-565 415,5 -4,5"/>
<!-- Node137 -->
<g id="node1" class="node"><title>Node137</title>
<g id="a_node1"><a xlink:title=" ">
<polygon fill="#bfbfbf" stroke="black" points="312.5,-245 312.5,-275 409.5,-275 409.5,-245 312.5,-245"/>
<text text-anchor="start" x="320.5" y="-263" font-family="Helvetica,sans-Serif" font-size="10.00">mom_document::find</text>
<text text-anchor="middle" x="361" y="-252" font-family="Helvetica,sans-Serif" font-size="10.00">_unused_unit_number</text>
</a>
</g>
</g>
<!-- Node138 -->
<g id="node2" class="node"><title>Node138</title>
<g id="a_node2"><a xlink:href="namespacemom__document.html#aab976b6c6c9c01833438d217fca228a4" target="_top" xlink:title=" ">
<polygon fill="white" stroke="black" points="178.5,-245 178.5,-275 275.5,-275 275.5,-245 178.5,-245"/>
<text text-anchor="start" x="186.5" y="-263" font-family="Helvetica,sans-Serif" font-size="10.00">mom_document::open</text>
<text text-anchor="middle" x="227" y="-252" font-family="Helvetica,sans-Serif" font-size="10.00">_doc_file</text>
</a>
</g>
</g>
<!-- Node137&#45;&gt;Node138 -->
<g id="edge1" class="edge"><title>Node137&#45;&gt;Node138</title>
<path fill="none" stroke="midnightblue" d="M302.083,-260C293.23,-260 284.181,-260 275.585,-260"/>
<polygon fill="midnightblue" stroke="midnightblue" points="302.345,-263.5 312.345,-260 302.345,-256.5 302.345,-263.5"/>
</g>
<!-- Node139 -->
<g id="node3" class="node"><title>Node139</title>
<g id="a_node3"><a xlink:href="namespacemom__document.html#ab6438889d6e98b10d8c42d5ff6b00ef8" target="_top" xlink:title=" ">
<polygon fill="white" stroke="black" points="0,-541.5 0,-560.5 142,-560.5 142,-541.5 0,-541.5"/>
<text text-anchor="middle" x="71" y="-548.5" font-family="Helvetica,sans-Serif" font-size="10.00">mom_document::doc_param_none</text>
</a>
</g>
</g>
<!-- Node138&#45;&gt;Node139 -->
<g id="edge2" class="edge"><title>Node138&#45;&gt;Node139</title>
<path fill="none" stroke="midnightblue" d="M225.74,-285.367C223.777,-338.674 211.535,-462.997 142,-531 137.572,-535.33 132.275,-538.735 126.603,-541.411"/>
<polygon fill="midnightblue" stroke="midnightblue" points="229.245,-285.208 226.02,-275.116 222.248,-285.017 229.245,-285.208"/>
</g>
<!-- Node140 -->
<g id="node4" class="node"><title>Node140</title>
<g id="a_node4"><a xlink:href="namespacemom__document.html#ae29b615a7c566d9da64ade24864805b2" target="_top" xlink:title=" ">
<polygon fill="white" stroke="black" points="11.5,-492 11.5,-522 130.5,-522 130.5,-492 11.5,-492"/>
<text text-anchor="start" x="19.5" y="-510" font-family="Helvetica,sans-Serif" font-size="10.00">mom_document::doc_param</text>
<text text-anchor="middle" x="71" y="-499" font-family="Helvetica,sans-Serif" font-size="10.00">_logical</text>
</a>
</g>
</g>
<!-- Node138&#45;&gt;Node140 -->
<g id="edge3" class="edge"><title>Node138&#45;&gt;Node140</title>
<path fill="none" stroke="midnightblue" d="M223.346,-285.169C217.239,-330.657 198.106,-426.934 142,-482 138.04,-485.887 133.435,-489.173 128.514,-491.951"/>
<polygon fill="midnightblue" stroke="midnightblue" points="226.849,-285.359 224.605,-275.005 219.902,-284.499 226.849,-285.359"/>
</g>
<!-- Node141 -->
<g id="node5" class="node"><title>Node141</title>
<g id="a_node5"><a xlink:href="namespacemom__document.html#a9792937a5eb8f9a2a58c7b816520470d" target="_top" xlink:title=" ">
<polygon fill="white" stroke="black" points="11.5,-443 11.5,-473 130.5,-473 130.5,-443 11.5,-443"/>
<text text-anchor="start" x="19.5" y="-461" font-family="Helvetica,sans-Serif" font-size="10.00">mom_document::doc_param</text>
<text text-anchor="middle" x="71" y="-450" font-family="Helvetica,sans-Serif" font-size="10.00">_logical_array</text>
</a>
</g>
</g>
<!-- Node138&#45;&gt;Node141 -->
<g id="edge4" class="edge"><title>Node138&#45;&gt;Node141</title>
<path fill="none" stroke="midnightblue" d="M220.275,-285.102C210.505,-322.437 187.14,-392.531 142,-433 137.676,-436.876 132.71,-440.163 127.46,-442.946"/>
<polygon fill="midnightblue" stroke="midnightblue" points="223.754,-285.613 222.779,-275.063 216.962,-283.919 223.754,-285.613"/>
</g>
<!-- Node142 -->
<g id="node6" class="node"><title>Node142</title>
<g id="a_node6"><a xlink:href="namespacemom__document.html#a14995c64ee277f19aa10b957431aa4c1" target="_top" xlink:title=" ">
<polygon fill="white" stroke="black" points="5,-404.5 5,-423.5 137,-423.5 137,-404.5 5,-404.5"/>
<text text-anchor="middle" x="71" y="-411.5" font-family="Helvetica,sans-Serif" font-size="10.00">mom_document::doc_param_int</text>
</a>
</g>
</g>
<!-- Node138&#45;&gt;Node142 -->
<g id="edge5" class="edge"><title>Node138&#45;&gt;Node142</title>
<path fill="none" stroke="midnightblue" d="M216.911,-284.859C204.577,-315.123 179.663,-365.69 142,-394 136.241,-398.329 129.577,-401.721 122.695,-404.38"/>
<polygon fill="midnightblue" stroke="midnightblue" points="220.214,-286.022 220.612,-275.435 213.698,-283.464 220.214,-286.022"/>
</g>
<!-- Node143 -->
<g id="node7" class="node"><title>Node143</title>
<g id="a_node7"><a xlink:href="namespacemom__document.html#a3ce71018037d66ba8f51d860bedbdcbb" target="_top" xlink:title=" ">
<polygon fill="white" stroke="black" points="11.5,-355 11.5,-385 130.5,-385 130.5,-355 11.5,-355"/>
<text text-anchor="start" x="19.5" y="-373" font-family="Helvetica,sans-Serif" font-size="10.00">mom_document::doc_param</text>
<text text-anchor="middle" x="71" y="-362" font-family="Helvetica,sans-Serif" font-size="10.00">_int_array</text>
</a>
</g>
</g>
<!-- Node138&#45;&gt;Node143 -->
<g id="edge6" class="edge"><title>Node138&#45;&gt;Node143</title>
<path fill="none" stroke="midnightblue" d="M208.168,-283.116C192.52,-302.032 168.218,-328.3 142,-345 136.123,-348.744 129.61,-352.021 122.992,-354.861"/>
<polygon fill="midnightblue" stroke="midnightblue" points="210.958,-285.233 214.525,-275.257 205.515,-280.831 210.958,-285.233"/>
</g>
<!-- Node144 -->
<g id="node8" class="node"><title>Node144</title>
<g id="a_node8"><a xlink:href="namespacemom__document.html#aae79ba23b83e7e2be3dcc46f50ee0f69" target="_top" xlink:title=" ">
<polygon fill="white" stroke="black" points="2.5,-316.5 2.5,-335.5 139.5,-335.5 139.5,-316.5 2.5,-316.5"/>
<text text-anchor="middle" x="71" y="-323.5" font-family="Helvetica,sans-Serif" font-size="10.00">mom_document::doc_param_real</text>
</a>
</g>
</g>
<!-- Node138&#45;&gt;Node144 -->
<g id="edge7" class="edge"><title>Node138&#45;&gt;Node144</title>
<path fill="none" stroke="midnightblue" d="M192.769,-280.43C177.661,-289.129 159.322,-298.887 142,-306 132.296,-309.985 121.526,-313.488 111.402,-316.403"/>
<polygon fill="midnightblue" stroke="midnightblue" points="194.863,-283.26 201.721,-275.184 191.323,-277.221 194.863,-283.26"/>
</g>
<!-- Node145 -->
<g id="node9" class="node"><title>Node145</title>
<g id="a_node9"><a xlink:href="namespacemom__document.html#a09ce71cb5106c9abb604c07b98e62863" target="_top" xlink:title=" ">
<polygon fill="white" stroke="black" points="11.5,-267 11.5,-297 130.5,-297 130.5,-267 11.5,-267"/>
<text text-anchor="start" x="19.5" y="-285" font-family="Helvetica,sans-Serif" font-size="10.00">mom_document::doc_param</text>
<text text-anchor="middle" x="71" y="-274" font-family="Helvetica,sans-Serif" font-size="10.00">_real_array</text>
</a>
</g>
</g>
<!-- Node138&#45;&gt;Node145 -->
<g id="edge8" class="edge"><title>Node138&#45;&gt;Node145</title>
<path fill="none" stroke="midnightblue" d="M168.048,-268.279C155.834,-270.024 142.939,-271.866 130.698,-273.615"/>
<polygon fill="midnightblue" stroke="midnightblue" points="168.713,-271.719 178.118,-266.84 167.723,-264.79 168.713,-271.719"/>
</g>
<!-- Node146 -->
<g id="node10" class="node"><title>Node146</title>
<g id="a_node10"><a xlink:href="namespacemom__document.html#aeef6510f5e76c23d9a9a9c587f62d4d9" target="_top" xlink:title=" ">
<polygon fill="white" stroke="black" points="1,-228.5 1,-247.5 141,-247.5 141,-228.5 1,-228.5"/>
<text text-anchor="middle" x="71" y="-235.5" font-family="Helvetica,sans-Serif" font-size="10.00">mom_document::doc_param_char</text>
</a>
</g>
</g>
<!-- Node138&#45;&gt;Node146 -->
<g id="edge9" class="edge"><title>Node138&#45;&gt;Node146</title>
<path fill="none" stroke="midnightblue" d="M168.207,-251.744C158.52,-250.36 148.4,-248.914 138.515,-247.502"/>
<polygon fill="midnightblue" stroke="midnightblue" points="167.723,-255.21 178.118,-253.16 168.713,-248.281 167.723,-255.21"/>
</g>
<!-- Node147 -->
<g id="node11" class="node"><title>Node147</title>
<g id="a_node11"><a xlink:href="namespacemom__document.html#ada55c6a65638e04d2b550f419aafa929" target="_top" xlink:title=" ">
<polygon fill="white" stroke="black" points="5,-190.5 5,-209.5 137,-209.5 137,-190.5 5,-190.5"/>
<text text-anchor="middle" x="71" y="-197.5" font-family="Helvetica,sans-Serif" font-size="10.00">mom_document::doc_openblock</text>
</a>
</g>
</g>
<!-- Node138&#45;&gt;Node147 -->
<g id="edge10" class="edge"><title>Node138&#45;&gt;Node147</title>
<path fill="none" stroke="midnightblue" d="M189.449,-240.292C174.947,-232.97 157.95,-224.995 142,-219 132.57,-215.455 122.198,-212.271 112.394,-209.567"/>
<polygon fill="midnightblue" stroke="midnightblue" points="188.088,-243.527 198.582,-244.982 191.285,-237.3 188.088,-243.527"/>
</g>
<!-- Node148 -->
<g id="node12" class="node"><title>Node148</title>
<g id="a_node12"><a xlink:href="namespacemom__document.html#a058916aee316efa7a6484b3bb1d3f3df" target="_top" xlink:title=" ">
<polygon fill="white" stroke="black" points="5,-152.5 5,-171.5 137,-171.5 137,-152.5 5,-152.5"/>
<text text-anchor="middle" x="71" y="-159.5" font-family="Helvetica,sans-Serif" font-size="10.00">mom_document::doc_closeblock</text>
</a>
</g>
</g>
<!-- Node138&#45;&gt;Node148 -->
<g id="edge11" class="edge"><title>Node138&#45;&gt;Node148</title>
<path fill="none" stroke="midnightblue" d="M207.387,-237.195C191.707,-219.417 167.759,-195.405 142,-181 135.076,-177.128 127.32,-174.011 119.562,-171.512"/>
<polygon fill="midnightblue" stroke="midnightblue" points="204.812,-239.569 213.987,-244.868 210.119,-235.004 204.812,-239.569"/>
</g>
<!-- Node149 -->
<g id="node13" class="node"><title>Node149</title>
<g id="a_node13"><a xlink:href="namespacemom__document.html#a88e4bef8326a973afec58f1cb66fdd0c" target="_top" xlink:title=" ">
<polygon fill="white" stroke="black" points="1.5,-114.5 1.5,-133.5 140.5,-133.5 140.5,-114.5 1.5,-114.5"/>
<text text-anchor="middle" x="71" y="-121.5" font-family="Helvetica,sans-Serif" font-size="10.00">mom_document::doc_param_time</text>
</a>
</g>
</g>
<!-- Node138&#45;&gt;Node149 -->
<g id="edge12" class="edge"><title>Node138&#45;&gt;Node149</title>
<path fill="none" stroke="midnightblue" d="M214.932,-235.823C201.465,-209.111 176.216,-166.741 142,-143 136.413,-139.124 130.069,-136.037 123.535,-133.58"/>
<polygon fill="midnightblue" stroke="midnightblue" points="211.826,-237.439 219.355,-244.892 218.117,-234.37 211.826,-237.439"/>
</g>
<!-- Node150 -->
<g id="node14" class="node"><title>Node150</title>
<g id="a_node14"><a xlink:href="namespacemom__document.html#a29ab772c411aedcc137942020c1ee042" target="_top" xlink:title=" ">
<polygon fill="white" stroke="black" points="10,-76.5 10,-95.5 132,-95.5 132,-76.5 10,-76.5"/>
<text text-anchor="middle" x="71" y="-83.5" font-family="Helvetica,sans-Serif" font-size="10.00">mom_document::doc_module</text>
</a>
</g>
</g>
<!-- Node138&#45;&gt;Node150 -->
<g id="edge13" class="edge"><title>Node138&#45;&gt;Node150</title>
<path fill="none" stroke="midnightblue" d="M219.187,-234.8C208.54,-200.282 184.627,-138.744 142,-105 137.063,-101.092 131.385,-97.9859 125.442,-95.5173"/>
<polygon fill="midnightblue" stroke="midnightblue" points="215.887,-235.982 222.072,-244.584 222.601,-234.002 215.887,-235.982"/>
</g>
<!-- Node151 -->
<g id="node15" class="node"><title>Node151</title>
<g id="a_node15"><a xlink:href="namespacemom__document.html#ab7020ae92729a51ce8915cd1f080bb14" target="_top" xlink:title=" ">
<polygon fill="white" stroke="black" points="4,-38.5 4,-57.5 138,-57.5 138,-38.5 4,-38.5"/>
<text text-anchor="middle" x="71" y="-45.5" font-family="Helvetica,sans-Serif" font-size="10.00">mom_document::doc_subroutine</text>
</a>
</g>
</g>
<!-- Node138&#45;&gt;Node151 -->
<g id="edge14" class="edge"><title>Node138&#45;&gt;Node151</title>
<path fill="none" stroke="midnightblue" d="M222.171,-234.801C214.546,-193.494 193.524,-111.525 142,-67 137.522,-63.1302 132.329,-60.0409 126.834,-57.576"/>
<polygon fill="midnightblue" stroke="midnightblue" points="218.755,-235.587 223.907,-244.845 225.653,-234.395 218.755,-235.587"/>
</g>
<!-- Node152 -->
<g id="node16" class="node"><title>Node152</title>
<g id="a_node16"><a xlink:href="namespacemom__document.html#a69dd076650308c992b1e19967804902a" target="_top" xlink:title=" ">
<polygon fill="white" stroke="black" points="9,-0.5 9,-19.5 133,-19.5 133,-0.5 9,-0.5"/>
<text text-anchor="middle" x="71" y="-7.5" font-family="Helvetica,sans-Serif" font-size="10.00">mom_document::doc_function</text>
</a>
</g>
</g>
<!-- Node138&#45;&gt;Node152 -->
<g id="edge15" class="edge"><title>Node138&#45;&gt;Node152</title>
<path fill="none" stroke="midnightblue" d="M224.22,-234.68C219.494,-187.205 202.468,-84.6057 142,-29 137.829,-25.1643 132.961,-22.09 127.771,-19.628"/>
<polygon fill="midnightblue" stroke="midnightblue" points="220.741,-235.072 225.116,-244.722 227.714,-234.451 220.741,-235.072"/>
</g>
</g>
</svg>
