<?xml version="1.0" encoding="UTF-8" standalone="no"?>
<!DOCTYPE svg PUBLIC "-//W3C//DTD SVG 1.1//EN"
 "http://www.w3.org/Graphics/SVG/1.1/DTD/svg11.dtd">
<!-- Generated by graphviz version 2.30.1 (20170916.1124)
 -->
<!-- Title: rossby_front_2d_initialization::dtdy Pages: 1 -->
<svg width="640pt" height="50pt"
 viewBox="0.00 0.00 640.00 50.00" xmlns="http://www.w3.org/2000/svg" xmlns:xlink="http://www.w3.org/1999/xlink">
<g id="graph0" class="graph" transform="scale(1 1) rotate(0) translate(4 46)">
<title>rossby_front_2d_initialization::dtdy</title>
<polygon fill="white" stroke="white" points="-4,5 -4,-46 637,-46 637,5 -4,5"/>
<!-- Node1 -->
<g id="node1" class="node"><title>Node1</title>
<g id="a_node1"><a xlink:title="Analytic prescription of mixed layer temperature gradient in 2d Rossby front test.">
<polygon fill="#bfbfbf" stroke="black" points="512.5,-6 512.5,-36 631.5,-36 631.5,-6 512.5,-6"/>
<text text-anchor="start" x="520.5" y="-24" font-family="Helvetica,sans-Serif" font-size="10.00">rossby_front_2d_initialization</text>
<text text-anchor="middle" x="572" y="-13" font-family="Helvetica,sans-Serif" font-size="10.00">::dtdy</text>
</a>
</g>
</g>
<!-- Node2 -->
<g id="node2" class="node"><title>Node2</title>
<g id="a_node2"><a xlink:href="namespacerossby__front__2d__initialization.html#a5496d0e26ba5adaa3b14e420a57a7d2f" target="_top" xlink:title="Initialization of u and v in the Rossby front test.">
<polygon fill="white" stroke="black" points="356.5,-0.5 356.5,-41.5 475.5,-41.5 475.5,-0.5 356.5,-0.5"/>
<text text-anchor="start" x="364.5" y="-29.5" font-family="Helvetica,sans-Serif" font-size="10.00">rossby_front_2d_initialization</text>
<text text-anchor="start" x="364.5" y="-18.5" font-family="Helvetica,sans-Serif" font-size="10.00">::rossby_front_initialize</text>
<text text-anchor="middle" x="416" y="-7.5" font-family="Helvetica,sans-Serif" font-size="10.00">_velocity</text>
</a>
</g>
</g>
<!-- Node1&#45;&gt;Node2 -->
<g id="edge1" class="edge"><title>Node1&#45;&gt;Node2</title>
<path fill="none" stroke="midnightblue" d="M502.106,-21C493.309,-21 484.369,-21 475.752,-21"/>
<polygon fill="midnightblue" stroke="midnightblue" points="502.34,-24.5001 512.34,-21 502.34,-17.5001 502.34,-24.5001"/>
</g>
<!-- Node3 -->
<g id="node3" class="node"><title>Node3</title>
<g id="a_node3"><a xlink:href="namespacemom__state__initialization.html#af4e854627c6572332ba3fd895f169321" target="_top" xlink:title=" ">
<polygon fill="white" stroke="black" points="218.5,-6 218.5,-36 319.5,-36 319.5,-6 218.5,-6"/>
<text text-anchor="start" x="226.5" y="-24" font-family="Helvetica,sans-Serif" font-size="10.00">mom_state_initialization</text>
<text text-anchor="middle" x="269" y="-13" font-family="Helvetica,sans-Serif" font-size="10.00">::mom_initialize_state</text>
</a>
</g>
</g>
<!-- Node2&#45;&gt;Node3 -->
<g id="edge2" class="edge"><title>Node2&#45;&gt;Node3</title>
<path fill="none" stroke="midnightblue" d="M346.42,-21C337.488,-21 328.477,-21 319.931,-21"/>
<polygon fill="midnightblue" stroke="midnightblue" points="346.441,-24.5001 356.441,-21 346.441,-17.5001 346.441,-24.5001"/>
</g>
<!-- Node4 -->
<g id="node4" class="node"><title>Node4</title>
<g id="a_node4"><a xlink:href="namespacemom.html#a0be2869fef30e1e0604facfe1b41555d" target="_top" xlink:title="This subroutine initializes MOM.">
<polygon fill="white" stroke="black" points="92.5,-11.5 92.5,-30.5 181.5,-30.5 181.5,-11.5 92.5,-11.5"/>
<text text-anchor="middle" x="137" y="-18.5" font-family="Helvetica,sans-Serif" font-size="10.00">mom::initialize_mom</text>
</a>
</g>
</g>
<!-- Node3&#45;&gt;Node4 -->
<g id="edge3" class="edge"><title>Node3&#45;&gt;Node4</title>
<path fill="none" stroke="midnightblue" d="M208.461,-21C199.5,-21 190.4,-21 181.848,-21"/>
<polygon fill="midnightblue" stroke="midnightblue" points="208.482,-24.5001 218.482,-21 208.482,-17.5001 208.482,-24.5001"/>
</g>
<!-- Node5 -->
<g id="node5" class="node"><title>Node5</title>
<g id="a_node5"><a xlink:href="MOM__driver_8F90.html#a08fffeb2d8e8acbf9ed4609be6d258c6" target="_top" xlink:title=" ">
<polygon fill="white" stroke="black" points="0,-11.5 0,-30.5 56,-30.5 56,-11.5 0,-11.5"/>
<text text-anchor="middle" x="28" y="-18.5" font-family="Helvetica,sans-Serif" font-size="10.00">mom_main</text>
</a>
</g>
</g>
<!-- Node4&#45;&gt;Node5 -->
<g id="edge4" class="edge"><title>Node4&#45;&gt;Node5</title>
<path fill="none" stroke="midnightblue" d="M82.3096,-21C73.2562,-21 64.21,-21 56.2082,-21"/>
<polygon fill="midnightblue" stroke="midnightblue" points="82.479,-24.5001 92.479,-21 82.479,-17.5001 82.479,-24.5001"/>
</g>
</g>
</svg>
