<?xml version="1.0" encoding="UTF-8" standalone="no"?>
<!DOCTYPE svg PUBLIC "-//W3C//DTD SVG 1.1//EN"
 "http://www.w3.org/Graphics/SVG/1.1/DTD/svg11.dtd">
<!-- Generated by graphviz version 2.30.1 (20170916.1124)
 -->
<!-- Title: atmos_ocean_fluxes_mod::aof_set_coupler_flux Pages: 1 -->
<svg width="278pt" height="574pt"
 viewBox="0.00 0.00 278.00 574.00" xmlns="http://www.w3.org/2000/svg" xmlns:xlink="http://www.w3.org/1999/xlink">
<g id="graph0" class="graph" transform="scale(1 1) rotate(0) translate(4 570)">
<title>atmos_ocean_fluxes_mod::aof_set_coupler_flux</title>
<polygon fill="white" stroke="white" points="-4,5 -4,-570 275,-570 275,5 -4,5"/>
<!-- Node1 -->
<g id="node1" class="node"><title>Node1</title>
<g id="a_node1"><a xlink:title=" ">
<polygon fill="#bfbfbf" stroke="black" points="154.5,-268 154.5,-298 269.5,-298 269.5,-268 154.5,-268"/>
<text text-anchor="start" x="162.5" y="-286" font-family="Helvetica,sans-Serif" font-size="10.00">atmos_ocean_fluxes</text>
<text text-anchor="middle" x="212" y="-275" font-family="Helvetica,sans-Serif" font-size="10.00">_mod::aof_set_coupler_flux</text>
</a>
</g>
</g>
<!-- Node2 -->
<g id="node2" class="node"><title>Node2</title>
<g id="a_node2"><a xlink:href="namespaceocean__model__mod.html#a6b00b9a33be391bb23668abbfa4d99c6" target="_top" xlink:title=" ">
<polygon fill="white" stroke="black" points="3.5,-536 3.5,-566 114.5,-566 114.5,-536 3.5,-536"/>
<text text-anchor="start" x="11.5" y="-554" font-family="Helvetica,sans-Serif" font-size="10.00">ocean_model_mod::ocean</text>
<text text-anchor="middle" x="59" y="-543" font-family="Helvetica,sans-Serif" font-size="10.00">_model_flux_init</text>
</a>
</g>
</g>
<!-- Node1&#45;&gt;Node2 -->
<g id="edge1" class="edge"><title>Node1&#45;&gt;Node2</title>
<path fill="none" stroke="midnightblue" d="M207.883,-308.195C200.651,-356.508 178.473,-462.967 118,-526 114.356,-529.798 110.04,-533.051 105.431,-535.829"/>
<polygon fill="midnightblue" stroke="midnightblue" points="211.352,-308.664 209.278,-298.274 204.42,-307.69 211.352,-308.664"/>
</g>
<!-- Node3 -->
<g id="node3" class="node"><title>Node3</title>
<g id="a_node3"><a xlink:href="namespaceadvection__test__tracer.html#a6cc3e00a5d5cb9e31339c784eb966c91" target="_top" xlink:title=" ">
<polygon fill="white" stroke="black" points="12.5,-475.5 12.5,-516.5 105.5,-516.5 105.5,-475.5 12.5,-475.5"/>
<text text-anchor="start" x="20.5" y="-504.5" font-family="Helvetica,sans-Serif" font-size="10.00">advection_test_tracer</text>
<text text-anchor="start" x="20.5" y="-493.5" font-family="Helvetica,sans-Serif" font-size="10.00">::register_advection</text>
<text text-anchor="middle" x="59" y="-482.5" font-family="Helvetica,sans-Serif" font-size="10.00">_test_tracer</text>
</a>
</g>
</g>
<!-- Node1&#45;&gt;Node3 -->
<g id="edge2" class="edge"><title>Node1&#45;&gt;Node3</title>
<path fill="none" stroke="midnightblue" d="M203.798,-307.983C191.672,-346.243 163.903,-419.767 118,-466 114.326,-469.701 110.099,-473.04 105.638,-476.028"/>
<polygon fill="midnightblue" stroke="midnightblue" points="207.219,-308.765 206.806,-298.178 200.527,-306.712 207.219,-308.765"/>
</g>
<!-- Node4 -->
<g id="node4" class="node"><title>Node4</title>
<g id="a_node4"><a xlink:href="namespaceboundary__impulse__tracer.html#a8c333281de8a3f7a255a0da4187427ad" target="_top" xlink:title="Read in runtime options and add boundary impulse tracer to tracer registry.">
<polygon fill="white" stroke="black" points="0,-415.5 0,-456.5 118,-456.5 118,-415.5 0,-415.5"/>
<text text-anchor="start" x="8" y="-444.5" font-family="Helvetica,sans-Serif" font-size="10.00">boundary_impulse_tracer</text>
<text text-anchor="start" x="8" y="-433.5" font-family="Helvetica,sans-Serif" font-size="10.00">::register_boundary_impulse</text>
<text text-anchor="middle" x="59" y="-422.5" font-family="Helvetica,sans-Serif" font-size="10.00">_tracer</text>
</a>
</g>
</g>
<!-- Node1&#45;&gt;Node4 -->
<g id="edge3" class="edge"><title>Node1&#45;&gt;Node4</title>
<path fill="none" stroke="midnightblue" d="M197.194,-306.826C180.91,-333.357 151.744,-376.279 118,-405 113.566,-408.774 108.596,-412.275 103.481,-415.461"/>
<polygon fill="midnightblue" stroke="midnightblue" points="200.243,-308.547 202.404,-298.175 194.247,-304.936 200.243,-308.547"/>
</g>
<!-- Node5 -->
<g id="node5" class="node"><title>Node5</title>
<g id="a_node5"><a xlink:href="namespacedome__tracer.html#a2a6918ef09b8674c6ad56f80dfc370ff" target="_top" xlink:title=" ">
<polygon fill="white" stroke="black" points="12,-366 12,-396 106,-396 106,-366 12,-366"/>
<text text-anchor="start" x="20" y="-384" font-family="Helvetica,sans-Serif" font-size="10.00">dome_tracer::register</text>
<text text-anchor="middle" x="59" y="-373" font-family="Helvetica,sans-Serif" font-size="10.00">_dome_tracer</text>
</a>
</g>
</g>
<!-- Node1&#45;&gt;Node5 -->
<g id="edge4" class="edge"><title>Node1&#45;&gt;Node5</title>
<path fill="none" stroke="midnightblue" d="M186.756,-304.891C168.693,-320.467 142.941,-341.177 118,-356 111.967,-359.585 105.326,-362.94 98.7575,-365.956"/>
<polygon fill="midnightblue" stroke="midnightblue" points="189.259,-307.352 194.484,-298.135 184.652,-302.082 189.259,-307.352"/>
</g>
<!-- Node6 -->
<g id="node6" class="node"><title>Node6</title>
<g id="a_node6"><a xlink:href="namespaceregional__dyes.html#af9da6e5dbe58dedce4ede6f0533fe702" target="_top" xlink:title=" ">
<polygon fill="white" stroke="black" points="10,-317 10,-347 108,-347 108,-317 10,-317"/>
<text text-anchor="start" x="18" y="-335" font-family="Helvetica,sans-Serif" font-size="10.00">regional_dyes::register</text>
<text text-anchor="middle" x="59" y="-324" font-family="Helvetica,sans-Serif" font-size="10.00">_dye_tracer</text>
</a>
</g>
</g>
<!-- Node1&#45;&gt;Node6 -->
<g id="edge5" class="edge"><title>Node1&#45;&gt;Node6</title>
<path fill="none" stroke="midnightblue" d="M154.732,-301.259C138.806,-306.427 121.656,-311.992 106.383,-316.948"/>
<polygon fill="midnightblue" stroke="midnightblue" points="156.032,-304.517 164.463,-298.101 153.871,-297.859 156.032,-304.517"/>
</g>
<!-- Node7 -->
<g id="node7" class="node"><title>Node7</title>
<g id="a_node7"><a xlink:href="namespaceideal__age__example.html#a58d550a02148b87b1d1ce979fcaf6c00" target="_top" xlink:title=" ">
<polygon fill="white" stroke="black" points="5,-268 5,-298 113,-298 113,-268 5,-268"/>
<text text-anchor="start" x="13" y="-286" font-family="Helvetica,sans-Serif" font-size="10.00">ideal_age_example::</text>
<text text-anchor="middle" x="59" y="-275" font-family="Helvetica,sans-Serif" font-size="10.00">register_ideal_age_tracer</text>
</a>
</g>
</g>
<!-- Node1&#45;&gt;Node7 -->
<g id="edge6" class="edge"><title>Node1&#45;&gt;Node7</title>
<path fill="none" stroke="midnightblue" d="M144.172,-283C133.899,-283 123.409,-283 113.476,-283"/>
<polygon fill="midnightblue" stroke="midnightblue" points="144.344,-286.5 154.344,-283 144.344,-279.5 144.344,-286.5"/>
</g>
<!-- Node8 -->
<g id="node8" class="node"><title>Node8</title>
<g id="a_node8"><a xlink:href="namespaceisomip__tracer.html#a7d66fe5ba12076654324a7e7d8ab2e4f" target="_top" xlink:title="This subroutine is used to register tracer fields.">
<polygon fill="white" stroke="black" points="11,-219 11,-249 107,-249 107,-219 11,-219"/>
<text text-anchor="start" x="19" y="-237" font-family="Helvetica,sans-Serif" font-size="10.00">isomip_tracer::register</text>
<text text-anchor="middle" x="59" y="-226" font-family="Helvetica,sans-Serif" font-size="10.00">_isomip_tracer</text>
</a>
</g>
</g>
<!-- Node1&#45;&gt;Node8 -->
<g id="edge7" class="edge"><title>Node1&#45;&gt;Node8</title>
<path fill="none" stroke="midnightblue" d="M154.732,-264.741C138.806,-259.573 121.656,-254.008 106.383,-249.052"/>
<polygon fill="midnightblue" stroke="midnightblue" points="153.871,-268.141 164.463,-267.899 156.032,-261.483 153.871,-268.141"/>
</g>
<!-- Node9 -->
<g id="node9" class="node"><title>Node9</title>
<g id="a_node9"><a xlink:href="namespacemom__ocmip2__cfc.html#ac04494ce35222c8583a7ee7589e1cf13" target="_top" xlink:title=" ">
<polygon fill="white" stroke="black" points="4,-170 4,-200 114,-200 114,-170 4,-170"/>
<text text-anchor="start" x="12" y="-188" font-family="Helvetica,sans-Serif" font-size="10.00">mom_ocmip2_cfc::register</text>
<text text-anchor="middle" x="59" y="-177" font-family="Helvetica,sans-Serif" font-size="10.00">_ocmip2_cfc</text>
</a>
</g>
</g>
<!-- Node1&#45;&gt;Node9 -->
<g id="edge8" class="edge"><title>Node1&#45;&gt;Node9</title>
<path fill="none" stroke="midnightblue" d="M186.756,-261.109C168.693,-245.533 142.941,-224.823 118,-210 111.967,-206.415 105.326,-203.06 98.7575,-200.044"/>
<polygon fill="midnightblue" stroke="midnightblue" points="184.652,-263.918 194.484,-267.865 189.259,-258.648 184.652,-263.918"/>
</g>
<!-- Node10 -->
<g id="node10" class="node"><title>Node10</title>
<g id="a_node10"><a xlink:href="namespaceoil__tracer.html#ae9bef348e3fea3af157e841a0c9f6aeb" target="_top" xlink:title=" ">
<polygon fill="white" stroke="black" points="18.5,-121 18.5,-151 99.5,-151 99.5,-121 18.5,-121"/>
<text text-anchor="start" x="26.5" y="-139" font-family="Helvetica,sans-Serif" font-size="10.00">oil_tracer::register</text>
<text text-anchor="middle" x="59" y="-128" font-family="Helvetica,sans-Serif" font-size="10.00">_oil_tracer</text>
</a>
</g>
</g>
<!-- Node1&#45;&gt;Node10 -->
<g id="edge9" class="edge"><title>Node1&#45;&gt;Node10</title>
<path fill="none" stroke="midnightblue" d="M197.882,-259.079C182.042,-232.102 153.106,-188.428 118,-161 112.47,-156.68 106.08,-152.957 99.6057,-149.803"/>
<polygon fill="midnightblue" stroke="midnightblue" points="194.914,-260.94 202.927,-267.871 200.985,-257.456 194.914,-260.94"/>
</g>
<!-- Node11 -->
<g id="node11" class="node"><title>Node11</title>
<g id="a_node11"><a xlink:href="namespacepseudo__salt__tracer.html#a147eabcabc9a787c01310dd67a5bab08" target="_top" xlink:title=" ">
<polygon fill="white" stroke="black" points="11.5,-60.5 11.5,-101.5 106.5,-101.5 106.5,-60.5 11.5,-60.5"/>
<text text-anchor="start" x="19.5" y="-89.5" font-family="Helvetica,sans-Serif" font-size="10.00">pseudo_salt_tracer</text>
<text text-anchor="start" x="19.5" y="-78.5" font-family="Helvetica,sans-Serif" font-size="10.00">::register_pseudo_salt</text>
<text text-anchor="middle" x="59" y="-67.5" font-family="Helvetica,sans-Serif" font-size="10.00">_tracer</text>
</a>
</g>
</g>
<!-- Node1&#45;&gt;Node11 -->
<g id="edge10" class="edge"><title>Node1&#45;&gt;Node11</title>
<path fill="none" stroke="midnightblue" d="M202.737,-258.193C189.676,-222.143 161.219,-154.906 118,-112 114.192,-108.219 109.827,-104.782 105.238,-101.689"/>
<polygon fill="midnightblue" stroke="midnightblue" points="199.533,-259.633 206.154,-267.904 206.136,-257.309 199.533,-259.633"/>
</g>
<!-- Node12 -->
<g id="node12" class="node"><title>Node12</title>
<g id="a_node12"><a xlink:href="namespaceuser__tracer__example.html#a71efc349b3fbeb6f4cb2155de1f8bbe5" target="_top" xlink:title=" ">
<polygon fill="white" stroke="black" points="12,-0.5 12,-41.5 106,-41.5 106,-0.5 12,-0.5"/>
<text text-anchor="start" x="20" y="-29.5" font-family="Helvetica,sans-Serif" font-size="10.00">user_tracer_example</text>
<text text-anchor="start" x="20" y="-18.5" font-family="Helvetica,sans-Serif" font-size="10.00">::user_register_tracer</text>
<text text-anchor="middle" x="59" y="-7.5" font-family="Helvetica,sans-Serif" font-size="10.00">_example</text>
</a>
</g>
</g>
<!-- Node1&#45;&gt;Node12 -->
<g id="edge11" class="edge"><title>Node1&#45;&gt;Node12</title>
<path fill="none" stroke="midnightblue" d="M206.859,-257.717C198.11,-211.48 173.774,-112.409 118,-51 114.57,-47.2236 110.554,-43.8479 106.263,-40.8486"/>
<polygon fill="midnightblue" stroke="midnightblue" points="203.453,-258.552 208.671,-267.772 210.342,-257.31 203.453,-258.552"/>
</g>
</g>
</svg>
