<?xml version="1.0" encoding="UTF-8" standalone="no"?>
<!DOCTYPE svg PUBLIC "-//W3C//DTD SVG 1.1//EN"
 "http://www.w3.org/Graphics/SVG/1.1/DTD/svg11.dtd">
<!-- Generated by graphviz version 2.30.1 (20170916.1124)
 -->
<!-- Title: mom_regridding::interpolation_scheme Pages: 1 -->
<svg width="402pt" height="38pt"
 viewBox="0.00 0.00 402.00 38.00" xmlns="http://www.w3.org/2000/svg" xmlns:xlink="http://www.w3.org/1999/xlink">
<g id="graph0" class="graph" transform="scale(1 1) rotate(0) translate(4 34)">
<title>mom_regridding::interpolation_scheme</title>
<polygon fill="white" stroke="white" points="-4,5 -4,-34 399,-34 399,5 -4,5"/>
<!-- Node367 -->
<g id="node1" class="node"><title>Node367</title>
<g id="a_node1"><a xlink:title="Numeric value of interpolation_scheme corresponding to scheme name.">
<polygon fill="#bfbfbf" stroke="black" points="270.5,-0 270.5,-30 393.5,-30 393.5,-0 270.5,-0"/>
<text text-anchor="start" x="278.5" y="-18" font-family="Helvetica,sans-Serif" font-size="10.00">mom_regridding::interpolation</text>
<text text-anchor="middle" x="332" y="-7" font-family="Helvetica,sans-Serif" font-size="10.00">_scheme</text>
</a>
</g>
</g>
<!-- Node368 -->
<g id="node2" class="node"><title>Node368</title>
<g id="a_node2"><a xlink:href="namespacemom__regridding.html#a86255799ed0417334397e0f6be8ba9fb" target="_top" xlink:title="Can be used to set any of the parameters for MOM_regridding.">
<polygon fill="white" stroke="black" points="144,-0 144,-30 234,-30 234,-0 144,-0"/>
<text text-anchor="start" x="152" y="-18" font-family="Helvetica,sans-Serif" font-size="10.00">mom_regridding::set</text>
<text text-anchor="middle" x="189" y="-7" font-family="Helvetica,sans-Serif" font-size="10.00">_regrid_params</text>
</a>
</g>
</g>
<!-- Node367&#45;&gt;Node368 -->
<g id="edge1" class="edge"><title>Node367&#45;&gt;Node368</title>
<path fill="none" stroke="midnightblue" d="M260.121,-15C251.353,-15 242.593,-15 234.383,-15"/>
<polygon fill="midnightblue" stroke="midnightblue" points="260.385,-18.5001 270.385,-15 260.385,-11.5001 260.385,-18.5001"/>
</g>
<!-- Node369 -->
<g id="node3" class="node"><title>Node369</title>
<g id="a_node3"><a xlink:href="namespacemom__regridding.html#af375f9f79f880b10aa85cd11de23519b" target="_top" xlink:title="Initialization and configures a regridding control structure based on customizable run&#45;time parameter...">
<polygon fill="white" stroke="black" points="0.5,-0 0.5,-30 107.5,-30 107.5,-0 0.5,-0"/>
<text text-anchor="start" x="8.5" y="-18" font-family="Helvetica,sans-Serif" font-size="10.00">mom_regridding::initialize</text>
<text text-anchor="middle" x="54" y="-7" font-family="Helvetica,sans-Serif" font-size="10.00">_regridding</text>
</a>
</g>
</g>
<!-- Node368&#45;&gt;Node369 -->
<g id="edge2" class="edge"><title>Node368&#45;&gt;Node369</title>
<path fill="none" stroke="midnightblue" d="M133.541,-15C125.06,-15 116.308,-15 107.864,-15"/>
<polygon fill="midnightblue" stroke="midnightblue" points="133.713,-18.5001 143.713,-15 133.713,-11.5001 133.713,-18.5001"/>
</g>
</g>
</svg>
