<?xml version="1.0" encoding="UTF-8" standalone="no"?>
<!DOCTYPE svg PUBLIC "-//W3C//DTD SVG 1.1//EN"
 "http://www.w3.org/Graphics/SVG/1.1/DTD/svg11.dtd">
<!-- Generated by graphviz version 2.30.1 (20170916.1124)
 -->
<!-- Title: mom_vert_friction::vertvisc_coef Pages: 1 -->
<svg width="354pt" height="87pt"
 viewBox="0.00 0.00 354.00 87.00" xmlns="http://www.w3.org/2000/svg" xmlns:xlink="http://www.w3.org/1999/xlink">
<g id="graph0" class="graph" transform="scale(1 1) rotate(0) translate(4 83)">
<title>mom_vert_friction::vertvisc_coef</title>
<polygon fill="white" stroke="white" points="-4,5 -4,-83 351,-83 351,5 -4,5"/>
<!-- Node14 -->
<g id="node1" class="node"><title>Node14</title>
<g id="a_node1"><a xlink:title="Calculate the coupling coefficients (CSa_u and CSa_v) and effective layer thicknesses (CSh_u and CSh_...">
<polygon fill="#bfbfbf" stroke="black" points="0.5,-24 0.5,-54 85.5,-54 85.5,-24 0.5,-24"/>
<text text-anchor="start" x="8.5" y="-42" font-family="Helvetica,sans-Serif" font-size="10.00">mom_vert_friction::</text>
<text text-anchor="middle" x="43" y="-31" font-family="Helvetica,sans-Serif" font-size="10.00">vertvisc_coef</text>
</a>
</g>
</g>
<!-- Node15 -->
<g id="node2" class="node"><title>Node15</title>
<g id="a_node2"><a xlink:href="namespacemom__vert__friction.html#a7d6a94a701085b308b349335cf3e5b06" target="_top" xlink:title="Calculate the &#39;coupling coefficient&#39; (a[k]) at the interfaces. If BOTTOMDRAGLAW is defined,...">
<polygon fill="white" stroke="black" points="126.5,-49 126.5,-79 211.5,-79 211.5,-49 126.5,-49"/>
<text text-anchor="start" x="134.5" y="-67" font-family="Helvetica,sans-Serif" font-size="10.00">mom_vert_friction::</text>
<text text-anchor="middle" x="169" y="-56" font-family="Helvetica,sans-Serif" font-size="10.00">find_coupling_coef</text>
</a>
</g>
</g>
<!-- Node14&#45;&gt;Node15 -->
<g id="edge1" class="edge"><title>Node14&#45;&gt;Node15</title>
<path fill="none" stroke="midnightblue" d="M85.6352,-47.3942C95.4501,-49.373 106.031,-51.5063 116.232,-53.5629"/>
<polygon fill="midnightblue" stroke="midnightblue" points="115.769,-57.0399 126.264,-55.5854 117.153,-50.178 115.769,-57.0399"/>
</g>
<!-- Node16 -->
<g id="node3" class="node"><title>Node16</title>
<g id="a_node3"><a xlink:href="namespacemom__error__handler.html#a460cfb79a06c29fc249952c2a3710d67" target="_top" xlink:title=" ">
<polygon fill="white" stroke="black" points="122.5,-0 122.5,-30 215.5,-30 215.5,-0 122.5,-0"/>
<text text-anchor="start" x="130.5" y="-18" font-family="Helvetica,sans-Serif" font-size="10.00">mom_error_handler::</text>
<text text-anchor="middle" x="169" y="-7" font-family="Helvetica,sans-Serif" font-size="10.00">mom_error</text>
</a>
</g>
</g>
<!-- Node14&#45;&gt;Node16 -->
<g id="edge2" class="edge"><title>Node14&#45;&gt;Node16</title>
<path fill="none" stroke="midnightblue" d="M85.6352,-30.9416C94.2232,-29.2794 103.398,-27.5037 112.391,-25.763"/>
<polygon fill="midnightblue" stroke="midnightblue" points="113.274,-29.1572 122.427,-23.8206 111.944,-22.2847 113.274,-29.1572"/>
</g>
<!-- Node17 -->
<g id="node4" class="node"><title>Node17</title>
<g id="a_node4"><a xlink:href="namespacemom__error__handler.html#ad5f00a53059c72fe2332d1436c80ca71" target="_top" xlink:title=" ">
<polygon fill="white" stroke="black" points="252.5,-0 252.5,-30 345.5,-30 345.5,-0 252.5,-0"/>
<text text-anchor="start" x="260.5" y="-18" font-family="Helvetica,sans-Serif" font-size="10.00">mom_error_handler::</text>
<text text-anchor="middle" x="299" y="-7" font-family="Helvetica,sans-Serif" font-size="10.00">is_root_pe</text>
</a>
</g>
</g>
<!-- Node16&#45;&gt;Node17 -->
<g id="edge3" class="edge"><title>Node16&#45;&gt;Node17</title>
<path fill="none" stroke="midnightblue" d="M215.849,-15C224.408,-15 233.439,-15 242.258,-15"/>
<polygon fill="midnightblue" stroke="midnightblue" points="242.471,-18.5001 252.471,-15 242.471,-11.5001 242.471,-18.5001"/>
</g>
</g>
</svg>
