<?xml version="1.0" encoding="UTF-8" standalone="no"?>
<!DOCTYPE svg PUBLIC "-//W3C//DTD SVG 1.1//EN"
 "http://www.w3.org/Graphics/SVG/1.1/DTD/svg11.dtd">
<!-- Generated by graphviz version 2.30.1 (20170916.1124)
 -->
<!-- Title: mom_continuity_ppm::set_merid_bt_cont Pages: 1 -->
<svg width="362pt" height="38pt"
 viewBox="0.00 0.00 362.00 38.00" xmlns="http://www.w3.org/2000/svg" xmlns:xlink="http://www.w3.org/1999/xlink">
<g id="graph0" class="graph" transform="scale(1 1) rotate(0) translate(4 34)">
<title>mom_continuity_ppm::set_merid_bt_cont</title>
<polygon fill="white" stroke="white" points="-4,5 -4,-34 359,-34 359,5 -4,5"/>
<!-- Node93 -->
<g id="node1" class="node"><title>Node93</title>
<g id="a_node1"><a xlink:title="Sets of a structure that describes the meridional barotropic volume or mass fluxes as a function of b...">
<polygon fill="#bfbfbf" stroke="black" points="262,-0 262,-30 354,-30 354,-0 262,-0"/>
<text text-anchor="start" x="270" y="-18" font-family="Helvetica,sans-Serif" font-size="10.00">mom_continuity_ppm</text>
<text text-anchor="middle" x="308" y="-7" font-family="Helvetica,sans-Serif" font-size="10.00">::set_merid_bt_cont</text>
</a>
</g>
</g>
<!-- Node94 -->
<g id="node2" class="node"><title>Node94</title>
<g id="a_node2"><a xlink:href="namespacemom__continuity__ppm.html#ae326b8319da257f423f73a32a984b641" target="_top" xlink:title="Calculates the mass or volume fluxes through the meridional faces, and other related quantities.">
<polygon fill="white" stroke="black" points="128,-0 128,-30 226,-30 226,-0 128,-0"/>
<text text-anchor="start" x="136" y="-18" font-family="Helvetica,sans-Serif" font-size="10.00">mom_continuity_ppm</text>
<text text-anchor="middle" x="177" y="-7" font-family="Helvetica,sans-Serif" font-size="10.00">::meridional_mass_flux</text>
</a>
</g>
</g>
<!-- Node93&#45;&gt;Node94 -->
<g id="edge1" class="edge"><title>Node93&#45;&gt;Node94</title>
<path fill="none" stroke="midnightblue" d="M251.741,-15C243.306,-15 234.656,-15 226.385,-15"/>
<polygon fill="midnightblue" stroke="midnightblue" points="251.882,-18.5001 261.882,-15 251.882,-11.5001 251.882,-18.5001"/>
</g>
<!-- Node95 -->
<g id="node3" class="node"><title>Node95</title>
<g id="a_node3"><a xlink:href="namespacemom__continuity__ppm.html#a59586aae1668f03f3a78d58f5712cc0f" target="_top" xlink:title="Time steps the layer thicknesses, using a monotonically limit, directionally split PPM scheme,...">
<polygon fill="white" stroke="black" points="0,-0 0,-30 92,-30 92,-0 0,-0"/>
<text text-anchor="start" x="8" y="-18" font-family="Helvetica,sans-Serif" font-size="10.00">mom_continuity_ppm</text>
<text text-anchor="middle" x="46" y="-7" font-family="Helvetica,sans-Serif" font-size="10.00">::continuity_ppm</text>
</a>
</g>
</g>
<!-- Node94&#45;&gt;Node95 -->
<g id="edge2" class="edge"><title>Node94&#45;&gt;Node95</title>
<path fill="none" stroke="midnightblue" d="M117.905,-15C109.243,-15 100.425,-15 92.084,-15"/>
<polygon fill="midnightblue" stroke="midnightblue" points="117.965,-18.5001 127.965,-15 117.965,-11.5001 117.965,-18.5001"/>
</g>
</g>
</svg>
