<?xml version="1.0" encoding="UTF-8" standalone="no"?>
<!DOCTYPE svg PUBLIC "-//W3C//DTD SVG 1.1//EN"
 "http://www.w3.org/Graphics/SVG/1.1/DTD/svg11.dtd">
<!-- Generated by graphviz version 2.30.1 (20170916.1124)
 -->
<!-- Title: mom_continuity_ppm::set_merid_bt_cont Pages: 1 -->
<svg width="364pt" height="60pt"
 viewBox="0.00 0.00 364.00 60.00" xmlns="http://www.w3.org/2000/svg" xmlns:xlink="http://www.w3.org/1999/xlink">
<g id="graph0" class="graph" transform="scale(1 1) rotate(0) translate(4 56)">
<title>mom_continuity_ppm::set_merid_bt_cont</title>
<polygon fill="white" stroke="white" points="-4,5 -4,-56 361,-56 361,5 -4,5"/>
<!-- Node90 -->
<g id="node1" class="node"><title>Node90</title>
<g id="a_node1"><a xlink:title="Sets of a structure that describes the meridional barotropic volume or mass fluxes as a function of b...">
<polygon fill="#bfbfbf" stroke="black" points="0,-22 0,-52 92,-52 92,-22 0,-22"/>
<text text-anchor="start" x="8" y="-40" font-family="Helvetica,sans-Serif" font-size="10.00">mom_continuity_ppm</text>
<text text-anchor="middle" x="46" y="-29" font-family="Helvetica,sans-Serif" font-size="10.00">::set_merid_bt_cont</text>
</a>
</g>
</g>
<!-- Node91 -->
<g id="node2" class="node"><title>Node91</title>
<g id="a_node2"><a xlink:href="namespacemom__continuity__ppm.html#a1036571b2b764e39c6386a47fc978836" target="_top" xlink:title="Evaluates the meridional mass or volume fluxes in a layer.">
<polygon fill="white" stroke="black" points="264,-22 264,-52 356,-52 356,-22 264,-22"/>
<text text-anchor="start" x="272" y="-40" font-family="Helvetica,sans-Serif" font-size="10.00">mom_continuity_ppm</text>
<text text-anchor="middle" x="310" y="-29" font-family="Helvetica,sans-Serif" font-size="10.00">::merid_flux_layer</text>
</a>
</g>
</g>
<!-- Node90&#45;&gt;Node91 -->
<g id="edge1" class="edge"><title>Node90&#45;&gt;Node91</title>
<path fill="none" stroke="midnightblue" d="M92.4071,-38.3185C104.011,-38.6013 116.466,-38.8576 128,-39 172.441,-39.5486 183.559,-39.5486 228,-39 236.2,-38.8988 244.866,-38.7399 253.36,-38.555"/>
<polygon fill="midnightblue" stroke="midnightblue" points="253.676,-42.0487 263.593,-38.3185 253.515,-35.0506 253.676,-42.0487"/>
</g>
<!-- Node92 -->
<g id="node3" class="node"><title>Node92</title>
<g id="a_node3"><a xlink:href="namespacemom__continuity__ppm.html#a1a09c28286ea6568eb1a25e91d481f60" target="_top" xlink:title="Returns the barotropic velocity adjustment that gives the desired barotropic (layer&#45;summed) transport...">
<polygon fill="white" stroke="black" points="128,-0 128,-30 228,-30 228,-0 128,-0"/>
<text text-anchor="start" x="136" y="-18" font-family="Helvetica,sans-Serif" font-size="10.00">mom_continuity_ppm</text>
<text text-anchor="middle" x="178" y="-7" font-family="Helvetica,sans-Serif" font-size="10.00">::meridional_flux_adjust</text>
</a>
</g>
</g>
<!-- Node90&#45;&gt;Node92 -->
<g id="edge2" class="edge"><title>Node90&#45;&gt;Node92</title>
<path fill="none" stroke="midnightblue" d="M92.1029,-29.3672C100.431,-27.9579 109.241,-26.4669 117.91,-24.9998"/>
<polygon fill="midnightblue" stroke="midnightblue" points="118.709,-28.4146 127.984,-23.295 117.54,-21.5127 118.709,-28.4146"/>
</g>
<!-- Node92&#45;&gt;Node91 -->
<g id="edge3" class="edge"><title>Node92&#45;&gt;Node91</title>
<path fill="none" stroke="midnightblue" d="M228.147,-23.3173C236.428,-24.7187 245.075,-26.1819 253.504,-27.6084"/>
<polygon fill="midnightblue" stroke="midnightblue" points="253.194,-31.1056 263.638,-29.3233 254.362,-24.2037 253.194,-31.1056"/>
</g>
</g>
</svg>
