<?xml version="1.0" encoding="UTF-8" standalone="no"?>
<!DOCTYPE svg PUBLIC "-//W3C//DTD SVG 1.1//EN"
 "http://www.w3.org/Graphics/SVG/1.1/DTD/svg11.dtd">
<!-- Generated by graphviz version 2.30.1 (20170916.1124)
 -->
<!-- Title: boundary_impulse_tracer::boundary_impulse_tracer_column_physics Pages: 1 -->
<svg width="548pt" height="87pt"
 viewBox="0.00 0.00 548.00 87.00" xmlns="http://www.w3.org/2000/svg" xmlns:xlink="http://www.w3.org/1999/xlink">
<g id="graph0" class="graph" transform="scale(1 1) rotate(0) translate(4 83)">
<title>boundary_impulse_tracer::boundary_impulse_tracer_column_physics</title>
<polygon fill="white" stroke="white" points="-4,5 -4,-83 545,-83 545,5 -4,5"/>
<!-- Node6 -->
<g id="node1" class="node"><title>Node6</title>
<g id="a_node1"><a xlink:title=" ">
<polygon fill="#bfbfbf" stroke="black" points="0,-18.5 0,-59.5 112,-59.5 112,-18.5 0,-18.5"/>
<text text-anchor="start" x="8" y="-47.5" font-family="Helvetica,sans-Serif" font-size="10.00">boundary_impulse_tracer</text>
<text text-anchor="start" x="8" y="-36.5" font-family="Helvetica,sans-Serif" font-size="10.00">::boundary_impulse_tracer</text>
<text text-anchor="middle" x="56" y="-25.5" font-family="Helvetica,sans-Serif" font-size="10.00">_column_physics</text>
</a>
</g>
</g>
<!-- Node7 -->
<g id="node2" class="node"><title>Node7</title>
<g id="a_node2"><a xlink:href="namespacemom__tracer__diabatic.html#a1fd213439071bcb31be7de49e7a72039" target="_top" xlink:title=" ">
<polygon fill="white" stroke="black" points="148,-49 148,-79 280,-79 280,-49 148,-49"/>
<text text-anchor="start" x="156" y="-67" font-family="Helvetica,sans-Serif" font-size="10.00">mom_tracer_diabatic</text>
<text text-anchor="middle" x="214" y="-56" font-family="Helvetica,sans-Serif" font-size="10.00">::applytracerboundaryfluxesinout</text>
</a>
</g>
</g>
<!-- Node6&#45;&gt;Node7 -->
<g id="edge1" class="edge"><title>Node6&#45;&gt;Node7</title>
<path fill="none" stroke="midnightblue" d="M112.439,-47.8845C120.685,-49.2059 129.299,-50.5863 137.866,-51.9594"/>
<polygon fill="midnightblue" stroke="midnightblue" points="137.45,-55.4372 147.878,-53.5638 138.558,-48.5254 137.45,-55.4372"/>
</g>
<!-- Node10 -->
<g id="node5" class="node"><title>Node10</title>
<g id="a_node5"><a xlink:href="namespacemom__tracer__diabatic.html#ac5d57973547cc4ed3a89808d3910943e" target="_top" xlink:title="This subroutine solves a tridiagonal equation for the final tracer concentrations after the dual&#45;entr...">
<polygon fill="white" stroke="black" points="168,-0 168,-30 260,-30 260,-0 168,-0"/>
<text text-anchor="start" x="176" y="-18" font-family="Helvetica,sans-Serif" font-size="10.00">mom_tracer_diabatic</text>
<text text-anchor="middle" x="214" y="-7" font-family="Helvetica,sans-Serif" font-size="10.00">::tracer_vertdiff</text>
</a>
</g>
</g>
<!-- Node6&#45;&gt;Node10 -->
<g id="edge4" class="edge"><title>Node6&#45;&gt;Node10</title>
<path fill="none" stroke="midnightblue" d="M112.439,-30.4709C127.168,-28.2049 143.072,-25.7582 157.789,-23.494"/>
<polygon fill="midnightblue" stroke="midnightblue" points="158.407,-26.9401 167.759,-21.9602 157.343,-20.0215 158.407,-26.9401"/>
</g>
<!-- Node8 -->
<g id="node3" class="node"><title>Node8</title>
<g id="a_node3"><a xlink:href="namespacemom__error__handler.html#a460cfb79a06c29fc249952c2a3710d67" target="_top" xlink:title=" ">
<polygon fill="white" stroke="black" points="316.5,-49 316.5,-79 409.5,-79 409.5,-49 316.5,-49"/>
<text text-anchor="start" x="324.5" y="-67" font-family="Helvetica,sans-Serif" font-size="10.00">mom_error_handler::</text>
<text text-anchor="middle" x="363" y="-56" font-family="Helvetica,sans-Serif" font-size="10.00">mom_error</text>
</a>
</g>
</g>
<!-- Node7&#45;&gt;Node8 -->
<g id="edge2" class="edge"><title>Node7&#45;&gt;Node8</title>
<path fill="none" stroke="midnightblue" d="M280.332,-64C288.946,-64 297.711,-64 306.146,-64"/>
<polygon fill="midnightblue" stroke="midnightblue" points="306.239,-67.5001 316.239,-64 306.239,-60.5001 306.239,-67.5001"/>
</g>
<!-- Node9 -->
<g id="node4" class="node"><title>Node9</title>
<g id="a_node4"><a xlink:href="namespacemom__error__handler.html#ad5f00a53059c72fe2332d1436c80ca71" target="_top" xlink:title=" ">
<polygon fill="white" stroke="black" points="446.5,-49 446.5,-79 539.5,-79 539.5,-49 446.5,-49"/>
<text text-anchor="start" x="454.5" y="-67" font-family="Helvetica,sans-Serif" font-size="10.00">mom_error_handler::</text>
<text text-anchor="middle" x="493" y="-56" font-family="Helvetica,sans-Serif" font-size="10.00">is_root_pe</text>
</a>
</g>
</g>
<!-- Node8&#45;&gt;Node9 -->
<g id="edge3" class="edge"><title>Node8&#45;&gt;Node9</title>
<path fill="none" stroke="midnightblue" d="M409.849,-64C418.408,-64 427.439,-64 436.258,-64"/>
<polygon fill="midnightblue" stroke="midnightblue" points="436.471,-67.5001 446.471,-64 436.471,-60.5001 436.471,-67.5001"/>
</g>
</g>
</svg>
