<?xml version="1.0" encoding="UTF-8" standalone="no"?>
<!DOCTYPE svg PUBLIC "-//W3C//DTD SVG 1.1//EN"
 "http://www.w3.org/Graphics/SVG/1.1/DTD/svg11.dtd">
<!-- Generated by graphviz version 2.30.1 (20170916.1124)
 -->
<!-- Title: mom_diabatic_aux::applyboundaryfluxesinout Pages: 1 -->
<svg width="622pt" height="175pt"
 viewBox="0.00 0.00 622.00 175.00" xmlns="http://www.w3.org/2000/svg" xmlns:xlink="http://www.w3.org/1999/xlink">
<g id="graph0" class="graph" transform="scale(1 1) rotate(0) translate(4 171)">
<title>mom_diabatic_aux::applyboundaryfluxesinout</title>
<polygon fill="white" stroke="white" points="-4,5 -4,-171 619,-171 619,5 -4,5"/>
<!-- Node2 -->
<g id="node1" class="node"><title>Node2</title>
<g id="a_node1"><a xlink:title="Update the thickness, temperature, and salinity due to thermodynamic boundary forcing (contained in f...">
<polygon fill="#bfbfbf" stroke="black" points="0,-71.5 0,-90.5 178,-90.5 178,-71.5 0,-71.5"/>
<text text-anchor="middle" x="89" y="-78.5" font-family="Helvetica,sans-Serif" font-size="10.00">mom_diabatic_aux::applyboundaryfluxesinout</text>
</a>
</g>
</g>
<!-- Node3 -->
<g id="node2" class="node"><title>Node3</title>
<g id="a_node2"><a xlink:href="namespacemom__shortwave__abs.html#a977474b56b68f4db0d6b0dc604755e6c" target="_top" xlink:title="Apply shortwave heating below surface boundary layer.">
<polygon fill="white" stroke="black" points="235,-137 235,-167 333,-167 333,-137 235,-137"/>
<text text-anchor="start" x="243" y="-155" font-family="Helvetica,sans-Serif" font-size="10.00">mom_shortwave_abs::</text>
<text text-anchor="middle" x="284" y="-144" font-family="Helvetica,sans-Serif" font-size="10.00">absorbremainingsw</text>
</a>
</g>
</g>
<!-- Node2&#45;&gt;Node3 -->
<g id="edge1" class="edge"><title>Node2&#45;&gt;Node3</title>
<path fill="none" stroke="midnightblue" d="M115.627,-90.5718C140.687,-99.9163 179.938,-114.512 214,-127 219.809,-129.13 225.898,-131.351 231.95,-133.553"/>
<polygon fill="midnightblue" stroke="midnightblue" points="230.792,-136.856 241.386,-136.98 233.182,-130.277 230.792,-136.856"/>
</g>
<!-- Node4 -->
<g id="node3" class="node"><title>Node4</title>
<g id="a_node3"><a xlink:href="namespacemom__eos.html#ab6ed65d2df376be9bbea2050f50fe46e" target="_top" xlink:title="Calls the appropriate subroutine to calculate specific volume derivatives for an array.">
<polygon fill="white" stroke="black" points="240.5,-88 240.5,-118 327.5,-118 327.5,-88 240.5,-88"/>
<text text-anchor="start" x="248.5" y="-106" font-family="Helvetica,sans-Serif" font-size="10.00">mom_eos::calculate</text>
<text text-anchor="middle" x="284" y="-95" font-family="Helvetica,sans-Serif" font-size="10.00">_specific_vol_derivs</text>
</a>
</g>
</g>
<!-- Node2&#45;&gt;Node4 -->
<g id="edge2" class="edge"><title>Node2&#45;&gt;Node4</title>
<path fill="none" stroke="midnightblue" d="M173.53,-90.5216C192.777,-92.7155 212.724,-94.9893 230.235,-96.9854"/>
<polygon fill="midnightblue" stroke="midnightblue" points="229.908,-100.471 240.24,-98.1258 230.701,-93.5157 229.908,-100.471"/>
</g>
<!-- Node7 -->
<g id="node6" class="node"><title>Node7</title>
<g id="a_node6"><a xlink:href="namespacemom__forcing__type.html#ab67e7c2e99099bcf22d12885f349e1e4" target="_top" xlink:title="This subroutine extracts fluxes from the surface fluxes type. It works on a j&#45;row for optimization pu...">
<polygon fill="white" stroke="black" points="214,-49.5 214,-68.5 354,-68.5 354,-49.5 214,-49.5"/>
<text text-anchor="middle" x="284" y="-56.5" font-family="Helvetica,sans-Serif" font-size="10.00">mom_forcing_type::extractfluxes1d</text>
</a>
</g>
</g>
<!-- Node2&#45;&gt;Node7 -->
<g id="edge5" class="edge"><title>Node2&#45;&gt;Node7</title>
<path fill="none" stroke="midnightblue" d="M173.53,-71.4784C183.511,-70.3407 193.68,-69.1816 203.6,-68.0508"/>
<polygon fill="midnightblue" stroke="midnightblue" points="204.29,-71.4949 213.829,-66.8847 203.497,-64.5399 204.29,-71.4949"/>
</g>
<!-- Node8 -->
<g id="node7" class="node"><title>Node8</title>
<g id="a_node7"><a xlink:href="namespacemom__forcing__type.html#a1048a8e80ebd47f83b91772c02aedba2" target="_top" xlink:title="Write out values of the fluxes arrays at the i,j location. This is a debugging tool.">
<polygon fill="white" stroke="black" points="228.5,-0 228.5,-30 339.5,-30 339.5,-0 228.5,-0"/>
<text text-anchor="start" x="236.5" y="-18" font-family="Helvetica,sans-Serif" font-size="10.00">mom_forcing_type::forcing</text>
<text text-anchor="middle" x="284" y="-7" font-family="Helvetica,sans-Serif" font-size="10.00">_singlepointprint</text>
</a>
</g>
</g>
<!-- Node2&#45;&gt;Node8 -->
<g id="edge7" class="edge"><title>Node2&#45;&gt;Node8</title>
<path fill="none" stroke="midnightblue" d="M118.064,-71.403C147.019,-61.5012 192.911,-45.8075 228.944,-33.4855"/>
<polygon fill="midnightblue" stroke="midnightblue" points="230.494,-36.6546 238.823,-30.1071 228.229,-30.0312 230.494,-36.6546"/>
</g>
<!-- Node5 -->
<g id="node4" class="node"><title>Node5</title>
<g id="a_node4"><a xlink:href="namespacemom__error__handler.html#a460cfb79a06c29fc249952c2a3710d67" target="_top" xlink:title=" ">
<polygon fill="white" stroke="black" points="390.5,-66 390.5,-96 483.5,-96 483.5,-66 390.5,-66"/>
<text text-anchor="start" x="398.5" y="-84" font-family="Helvetica,sans-Serif" font-size="10.00">mom_error_handler::</text>
<text text-anchor="middle" x="437" y="-73" font-family="Helvetica,sans-Serif" font-size="10.00">mom_error</text>
</a>
</g>
</g>
<!-- Node4&#45;&gt;Node5 -->
<g id="edge3" class="edge"><title>Node4&#45;&gt;Node5</title>
<path fill="none" stroke="midnightblue" d="M327.867,-96.7545C344.193,-94.3758 363.041,-91.6298 380.382,-89.1033"/>
<polygon fill="midnightblue" stroke="midnightblue" points="380.997,-92.5507 390.388,-87.6455 379.988,-85.6239 380.997,-92.5507"/>
</g>
<!-- Node6 -->
<g id="node5" class="node"><title>Node6</title>
<g id="a_node5"><a xlink:href="namespacemom__error__handler.html#ad5f00a53059c72fe2332d1436c80ca71" target="_top" xlink:title=" ">
<polygon fill="white" stroke="black" points="520.5,-66 520.5,-96 613.5,-96 613.5,-66 520.5,-66"/>
<text text-anchor="start" x="528.5" y="-84" font-family="Helvetica,sans-Serif" font-size="10.00">mom_error_handler::</text>
<text text-anchor="middle" x="567" y="-73" font-family="Helvetica,sans-Serif" font-size="10.00">is_root_pe</text>
</a>
</g>
</g>
<!-- Node5&#45;&gt;Node6 -->
<g id="edge4" class="edge"><title>Node5&#45;&gt;Node6</title>
<path fill="none" stroke="midnightblue" d="M483.849,-81C492.408,-81 501.439,-81 510.258,-81"/>
<polygon fill="midnightblue" stroke="midnightblue" points="510.471,-84.5001 520.471,-81 510.471,-77.5001 510.471,-84.5001"/>
</g>
<!-- Node7&#45;&gt;Node5 -->
<g id="edge6" class="edge"><title>Node7&#45;&gt;Node5</title>
<path fill="none" stroke="midnightblue" d="M350.353,-68.5216C360.291,-69.9695 370.468,-71.4523 380.179,-72.8671"/>
<polygon fill="midnightblue" stroke="midnightblue" points="379.699,-76.3341 390.099,-74.3125 380.708,-69.4072 379.699,-76.3341"/>
</g>
<!-- Node9 -->
<g id="node8" class="node"><title>Node9</title>
<g id="a_node8"><a xlink:href="MOM__forcing__type_8F90.html#a17e3300314324a127a3ae8c284cf4195" target="_top" xlink:title="Format and write a message depending on associated state of array.">
<polygon fill="white" stroke="black" points="416.5,-5.5 416.5,-24.5 457.5,-24.5 457.5,-5.5 416.5,-5.5"/>
<text text-anchor="middle" x="437" y="-12.5" font-family="Helvetica,sans-Serif" font-size="10.00">locmsg</text>
</a>
</g>
</g>
<!-- Node8&#45;&gt;Node9 -->
<g id="edge8" class="edge"><title>Node8&#45;&gt;Node9</title>
<path fill="none" stroke="midnightblue" d="M339.514,-15C361.934,-15 387.035,-15 406.014,-15"/>
<polygon fill="midnightblue" stroke="midnightblue" points="406.143,-18.5001 416.143,-15 406.143,-11.5001 406.143,-18.5001"/>
</g>
</g>
</svg>
