<?xml version="1.0" encoding="UTF-8" standalone="no"?>
<!DOCTYPE svg PUBLIC "-//W3C//DTD SVG 1.1//EN"
 "http://www.w3.org/Graphics/SVG/1.1/DTD/svg11.dtd">
<!-- Generated by graphviz version 2.30.1 (20170916.1124)
 -->
<!-- Title: mom_barotropic::register_barotropic_restarts Pages: 1 -->
<svg width="248pt" height="50pt"
 viewBox="0.00 0.00 248.00 50.00" xmlns="http://www.w3.org/2000/svg" xmlns:xlink="http://www.w3.org/1999/xlink">
<g id="graph0" class="graph" transform="scale(1 1) rotate(0) translate(4 46)">
<title>mom_barotropic::register_barotropic_restarts</title>
<polygon fill="white" stroke="white" points="-4,5 -4,-46 245,-46 245,5 -4,5"/>
<!-- Node84 -->
<g id="node1" class="node"><title>Node84</title>
<g id="a_node1"><a xlink:title=" ">
<polygon fill="#bfbfbf" stroke="black" points="132.5,-6 132.5,-36 239.5,-36 239.5,-6 132.5,-6"/>
<text text-anchor="start" x="140.5" y="-24" font-family="Helvetica,sans-Serif" font-size="10.00">mom_barotropic::register</text>
<text text-anchor="middle" x="186" y="-13" font-family="Helvetica,sans-Serif" font-size="10.00">_barotropic_restarts</text>
</a>
</g>
</g>
<!-- Node85 -->
<g id="node2" class="node"><title>Node85</title>
<g id="a_node2"><a xlink:href="namespacemom__dynamics__split__rk2.html#a9f889b82fd5ed29a854da99d3c929366" target="_top" xlink:title="This subroutine sets up any auxiliary restart variables that are specific to the unsplit time steppin...">
<polygon fill="white" stroke="black" points="0.5,-0.5 0.5,-41.5 95.5,-41.5 95.5,-0.5 0.5,-0.5"/>
<text text-anchor="start" x="8.5" y="-29.5" font-family="Helvetica,sans-Serif" font-size="10.00">mom_dynamics_split</text>
<text text-anchor="start" x="8.5" y="-18.5" font-family="Helvetica,sans-Serif" font-size="10.00">_rk2::register_restarts</text>
<text text-anchor="middle" x="48" y="-7.5" font-family="Helvetica,sans-Serif" font-size="10.00">_dyn_split_rk2</text>
</a>
</g>
</g>
<!-- Node84&#45;&gt;Node85 -->
<g id="edge1" class="edge"><title>Node84&#45;&gt;Node85</title>
<path fill="none" stroke="midnightblue" d="M122.365,-21C113.383,-21 104.275,-21 95.6741,-21"/>
<polygon fill="midnightblue" stroke="midnightblue" points="122.419,-24.5001 132.419,-21 122.419,-17.5001 122.419,-24.5001"/>
</g>
</g>
</svg>
