<?xml version="1.0" encoding="UTF-8" standalone="no"?>
<!DOCTYPE svg PUBLIC "-//W3C//DTD SVG 1.1//EN"
 "http://www.w3.org/Graphics/SVG/1.1/DTD/svg11.dtd">
<!-- Generated by graphviz version 2.30.1 (20170916.1124)
 -->
<!-- Title: mom_pressureforce_mont::pressureforce_mont_bouss Pages: 1 -->
<svg width="552pt" height="164pt"
 viewBox="0.00 0.00 552.00 164.00" xmlns="http://www.w3.org/2000/svg" xmlns:xlink="http://www.w3.org/1999/xlink">
<g id="graph0" class="graph" transform="scale(1 1) rotate(0) translate(4 160)">
<title>mom_pressureforce_mont::pressureforce_mont_bouss</title>
<polygon fill="white" stroke="white" points="-4,5 -4,-160 549,-160 549,5 -4,5"/>
<!-- Node0 -->
<g id="node1" class="node"><title>Node0</title>
<g id="a_node1"><a xlink:title="Boussinesq Montgomery&#45;potential form of pressure gradient.">
<polygon fill="#bfbfbf" stroke="black" points="0.5,-63 0.5,-93 119.5,-93 119.5,-63 0.5,-63"/>
<text text-anchor="start" x="8.5" y="-81" font-family="Helvetica,sans-Serif" font-size="10.00">mom_pressureforce_mont</text>
<text text-anchor="middle" x="60" y="-70" font-family="Helvetica,sans-Serif" font-size="10.00">::pressureforce_mont_bouss</text>
</a>
</g>
</g>
<!-- Node1 -->
<g id="node2" class="node"><title>Node1</title>
<g id="a_node2"><a xlink:href="namespacemom__tidal__forcing.html#ab88c76dce908a227ab2bfa42f4869fe7" target="_top" xlink:title=" ">
<polygon fill="white" stroke="black" points="177,-126 177,-156 263,-156 263,-126 177,-126"/>
<text text-anchor="start" x="185" y="-144" font-family="Helvetica,sans-Serif" font-size="10.00">mom_tidal_forcing::</text>
<text text-anchor="middle" x="220" y="-133" font-family="Helvetica,sans-Serif" font-size="10.00">calc_tidal_forcing</text>
</a>
</g>
</g>
<!-- Node0&#45;&gt;Node1 -->
<g id="edge1" class="edge"><title>Node0&#45;&gt;Node1</title>
<path fill="none" stroke="midnightblue" d="M98.8449,-93.0901C120.75,-101.824 148.513,-112.894 171.832,-122.192"/>
<polygon fill="midnightblue" stroke="midnightblue" points="170.605,-125.471 181.19,-125.924 173.198,-118.969 170.605,-125.471"/>
</g>
<!-- Node2 -->
<g id="node3" class="node"><title>Node2</title>
<g id="a_node3"><a xlink:href="namespacemom__error__handler.html#a460cfb79a06c29fc249952c2a3710d67" target="_top" xlink:title=" ">
<polygon fill="white" stroke="black" points="320.5,-63 320.5,-93 413.5,-93 413.5,-63 320.5,-63"/>
<text text-anchor="start" x="328.5" y="-81" font-family="Helvetica,sans-Serif" font-size="10.00">mom_error_handler::</text>
<text text-anchor="middle" x="367" y="-70" font-family="Helvetica,sans-Serif" font-size="10.00">mom_error</text>
</a>
</g>
</g>
<!-- Node0&#45;&gt;Node2 -->
<g id="edge2" class="edge"><title>Node0&#45;&gt;Node2</title>
<path fill="none" stroke="midnightblue" d="M119.807,-78C174.774,-78 256.255,-78 310.22,-78"/>
<polygon fill="midnightblue" stroke="midnightblue" points="310.297,-81.5001 320.297,-78 310.297,-74.5001 310.297,-81.5001"/>
</g>
<!-- Node4 -->
<g id="node5" class="node"><title>Node4</title>
<g id="a_node5"><a xlink:href="namespacemom__eos.html#aee169aee0e4cbed420782d772282bb69" target="_top" xlink:title="Returns true if the equation of state is compressible (i.e. has pressure dependence)">
<polygon fill="white" stroke="black" points="156,-49.5 156,-68.5 284,-68.5 284,-49.5 156,-49.5"/>
<text text-anchor="middle" x="220" y="-56.5" font-family="Helvetica,sans-Serif" font-size="10.00">mom_eos::query_compressible</text>
</a>
</g>
</g>
<!-- Node0&#45;&gt;Node4 -->
<g id="edge4" class="edge"><title>Node0&#45;&gt;Node4</title>
<path fill="none" stroke="midnightblue" d="M119.833,-70.9251C128.284,-69.9089 137.064,-68.8531 145.751,-67.8085"/>
<polygon fill="midnightblue" stroke="midnightblue" points="146.37,-71.2593 155.88,-66.5904 145.534,-64.3094 146.37,-71.2593"/>
</g>
<!-- Node5 -->
<g id="node6" class="node"><title>Node5</title>
<g id="a_node6"><a xlink:href="namespacemom__pressureforce__mont.html#a9c2cfd1900c6dfc60b918920372cad6f" target="_top" xlink:title="Determines the partial derivative of the acceleration due to pressure forces with the free surface he...">
<polygon fill="white" stroke="black" points="164.5,-0 164.5,-30 275.5,-30 275.5,-0 164.5,-0"/>
<text text-anchor="start" x="172.5" y="-18" font-family="Helvetica,sans-Serif" font-size="10.00">mom_pressureforce_mont</text>
<text text-anchor="middle" x="220" y="-7" font-family="Helvetica,sans-Serif" font-size="10.00">::set_pbce_bouss</text>
</a>
</g>
</g>
<!-- Node0&#45;&gt;Node5 -->
<g id="edge6" class="edge"><title>Node0&#45;&gt;Node5</title>
<path fill="none" stroke="midnightblue" d="M98.4405,-62.9964C115.924,-55.997 137.023,-47.5608 156,-40 161.056,-37.9857 166.341,-35.8832 171.608,-33.7902"/>
<polygon fill="midnightblue" stroke="midnightblue" points="173.013,-36.9982 181.015,-30.054 170.429,-30.4925 173.013,-36.9982"/>
</g>
<!-- Node3 -->
<g id="node4" class="node"><title>Node3</title>
<g id="a_node4"><a xlink:href="namespacemom__error__handler.html#ad5f00a53059c72fe2332d1436c80ca71" target="_top" xlink:title=" ">
<polygon fill="white" stroke="black" points="450.5,-63 450.5,-93 543.5,-93 543.5,-63 450.5,-63"/>
<text text-anchor="start" x="458.5" y="-81" font-family="Helvetica,sans-Serif" font-size="10.00">mom_error_handler::</text>
<text text-anchor="middle" x="497" y="-70" font-family="Helvetica,sans-Serif" font-size="10.00">is_root_pe</text>
</a>
</g>
</g>
<!-- Node2&#45;&gt;Node3 -->
<g id="edge3" class="edge"><title>Node2&#45;&gt;Node3</title>
<path fill="none" stroke="midnightblue" d="M413.849,-78C422.408,-78 431.439,-78 440.258,-78"/>
<polygon fill="midnightblue" stroke="midnightblue" points="440.471,-81.5001 450.471,-78 440.471,-74.5001 440.471,-81.5001"/>
</g>
<!-- Node4&#45;&gt;Node2 -->
<g id="edge5" class="edge"><title>Node4&#45;&gt;Node2</title>
<path fill="none" stroke="midnightblue" d="M284.177,-67.2784C292.954,-68.4284 301.916,-69.6027 310.537,-70.7324"/>
<polygon fill="midnightblue" stroke="midnightblue" points="310.099,-74.2049 320.469,-72.0339 311.009,-67.2642 310.099,-74.2049"/>
</g>
</g>
</svg>
