<?xml version="1.0" encoding="UTF-8" standalone="no"?>
<!DOCTYPE svg PUBLIC "-//W3C//DTD SVG 1.1//EN"
 "http://www.w3.org/Graphics/SVG/1.1/DTD/svg11.dtd">
<!-- Generated by graphviz version 2.30.1 (20170916.1124)
 -->
<!-- Title: mom_coord_initialization::mom_initialize_coord Pages: 1 -->
<!--zoomable 608 -->
<svg id="main" version="1.1" xmlns="http://www.w3.org/2000/svg" xmlns:xlink="http://www.w3.org/1999/xlink" xml:space="preserve" onload="init(evt)">
<style type="text/css"><![CDATA[
.edge:hover path { stroke: red; }
.edge:hover polygon { stroke: red; fill: red; }
]]></style>
<script type="text/javascript"><![CDATA[
var edges = document.getElementsByTagName('g');
if (edges && edges.length) {
  for (var i=0;i<edges.length;i++) {
    if (edges[i].id.substr(0,4)=='edge') {
      edges[i].setAttribute('class','edge');
    }
  }
}
]]></script>
        <defs>
                <circle id="rim" cx="0" cy="0" r="7"/>
                <circle id="rim2" cx="0" cy="0" r="3.5"/>
                <g id="zoomPlus">
                        <use xlink:href="#rim" fill="#404040">
                                <set attributeName="fill" to="#808080" begin="zoomplus.mouseover" end="zoomplus.mouseout"/>
                        </use>
                        <path d="M-4,0h8M0,-4v8" fill="none" stroke="white" stroke-width="1.5" pointer-events="none"/>
                </g>
                <g id="zoomMin">
                        <use xlink:href="#rim" fill="#404040">
                                <set attributeName="fill" to="#808080" begin="zoomminus.mouseover" end="zoomminus.mouseout"/>
                        </use>
                        <path d="M-4,0h8" fill="none" stroke="white" stroke-width="1.5" pointer-events="none"/>
                </g>
                <g id="dirArrow">
                        <path fill="none" stroke="white" stroke-width="1.5" d="M0,-3.0v7 M-2.5,-0.5L0,-3.0L2.5,-0.5"/>
                </g>
               <g id="resetDef">
                       <use xlink:href="#rim2" fill="#404040">
                               <set attributeName="fill" to="#808080" begin="reset.mouseover" end="reset.mouseout"/>
                       </use>
               </g>
        </defs>

<script type="text/javascript">
var viewWidth = 974;
var viewHeight = 608;
var sectionId = 'dynsection-0';
</script>
<script xlink:href="svgpan.js"/>
<svg id="graph" class="graph">
<g id="viewport">
<title>mom_coord_initialization::mom_initialize_coord</title>
<polygon fill="white" stroke="white" points="-4,5 -4,-604 971,-604 971,5 -4,5"/>
<!-- Node0 -->
<g id="node1" class="node"><title>Node0</title>
<g id="a_node1"><a xlink:title="MOM_initialize_coord sets up time&#45;invariant quantities related to MOM6&#39;s vertical coordinate.">
<polygon fill="#bfbfbf" stroke="black" points="0,-286 0,-316 104,-316 104,-286 0,-286"/>
<text text-anchor="start" x="8" y="-304" font-family="Helvetica,sans-Serif" font-size="10.00">mom_coord_initialization</text>
<text text-anchor="middle" x="52" y="-293" font-family="Helvetica,sans-Serif" font-size="10.00">::mom_initialize_coord</text>
</a>
</g>
</g>
<!-- Node1 -->
<g id="node2" class="node"><title>Node1</title>
<g id="a_node2"><a xlink:href="namespacebfb__initialization.html#a681cb69f1a6fe142e5baa6aee5f57060" target="_top" xlink:title=" ">
<polygon fill="white" stroke="black" points="178,-570 178,-600 250,-600 250,-570 178,-570"/>
<text text-anchor="start" x="186" y="-588" font-family="Helvetica,sans-Serif" font-size="10.00">bfb_initialization</text>
<text text-anchor="middle" x="214" y="-577" font-family="Helvetica,sans-Serif" font-size="10.00">::bfb_set_coord</text>
</a>
</g>
</g>
<!-- Node0&#45;&gt;Node1 -->
<g id="edge1" class="edge"><title>Node0&#45;&gt;Node1</title>
<path fill="none" stroke="midnightblue" d="M53.9416,-316.06C57.4129,-359.068 73.0487,-483.912 140,-555 147.696,-563.171 157.942,-569.185 168.318,-573.585"/>
<polygon fill="midnightblue" stroke="midnightblue" points="167.222,-576.913 177.814,-577.188 169.706,-570.369 167.222,-576.913"/>
</g>
<!-- Node3 -->
<g id="node4" class="node"><title>Node3</title>
<g id="a_node4"><a xlink:href="namespacemom__error__handler.html#a9cda07a87815f0e5594066162b4345c3" target="_top" xlink:title="Writes a message about entering a subroutine if call tree reporting is active.">
<polygon fill="white" stroke="black" points="324.5,-335 324.5,-365 417.5,-365 417.5,-335 324.5,-335"/>
<text text-anchor="start" x="332.5" y="-353" font-family="Helvetica,sans-Serif" font-size="10.00">mom_error_handler::</text>
<text text-anchor="middle" x="371" y="-342" font-family="Helvetica,sans-Serif" font-size="10.00">calltree_enter</text>
</a>
</g>
</g>
<!-- Node0&#45;&gt;Node3 -->
<g id="edge3" class="edge"><title>Node0&#45;&gt;Node3</title>
<path fill="none" stroke="midnightblue" d="M53.5776,-316.237C56.0733,-357.753 69.3517,-472.966 140,-521 194.396,-557.984 232.333,-556.042 288,-521 339.32,-488.694 359.24,-414.359 366.377,-375.195"/>
<polygon fill="midnightblue" stroke="midnightblue" points="369.86,-375.587 368.067,-365.145 362.957,-374.426 369.86,-375.587"/>
</g>
<!-- Node5 -->
<g id="node6" class="node"><title>Node5</title>
<g id="a_node6"><a xlink:href="namespacemom__error__handler.html#a88ea67781e2ed9b73ab7eac8ea5e8578" target="_top" xlink:title="Writes a message about leaving a subroutine if call tree reporting is active.">
<polygon fill="white" stroke="black" points="324.5,-286 324.5,-316 417.5,-316 417.5,-286 324.5,-286"/>
<text text-anchor="start" x="332.5" y="-304" font-family="Helvetica,sans-Serif" font-size="10.00">mom_error_handler::</text>
<text text-anchor="middle" x="371" y="-293" font-family="Helvetica,sans-Serif" font-size="10.00">calltree_leave</text>
</a>
</g>
</g>
<!-- Node0&#45;&gt;Node5 -->
<g id="edge5" class="edge"><title>Node0&#45;&gt;Node5</title>
<path fill="none" stroke="midnightblue" d="M57.5162,-285.746C67.1327,-256.391 92.7123,-192.678 140,-167 197.805,-135.61 230.619,-134.842 288,-167 329.469,-190.241 352.481,-243.951 362.946,-275.867"/>
<polygon fill="midnightblue" stroke="midnightblue" points="359.716,-277.267 366.023,-285.78 366.401,-275.192 359.716,-277.267"/>
</g>
<!-- Node6 -->
<g id="node7" class="node"><title>Node6</title>
<g id="a_node7"><a xlink:href="namespacemom__coord__initialization.html#a8db4253bf3b8ce75334db0c010ba570a" target="_top" xlink:title=" ">
<polygon fill="white" stroke="black" points="162,-335 162,-365 266,-365 266,-335 162,-335"/>
<text text-anchor="start" x="170" y="-353" font-family="Helvetica,sans-Serif" font-size="10.00">mom_coord_initialization</text>
<text text-anchor="middle" x="214" y="-342" font-family="Helvetica,sans-Serif" font-size="10.00">::set_coord_from_file</text>
</a>
</g>
</g>
<!-- Node0&#45;&gt;Node6 -->
<g id="edge7" class="edge"><title>Node0&#45;&gt;Node6</title>
<path fill="none" stroke="midnightblue" d="M102.311,-316.101C118.66,-321.108 137.024,-326.732 154.025,-331.939"/>
<polygon fill="midnightblue" stroke="midnightblue" points="153.265,-335.367 163.852,-334.948 155.315,-328.674 153.265,-335.367"/>
</g>
<!-- Node7 -->
<g id="node8" class="node"><title>Node7</title>
<g id="a_node8"><a xlink:href="namespacemom__coord__initialization.html#a0ea7e12068fd0a186d1129dde25112c5" target="_top" xlink:title=" ">
<polygon fill="white" stroke="black" points="160.5,-286 160.5,-316 267.5,-316 267.5,-286 160.5,-286"/>
<text text-anchor="start" x="168.5" y="-304" font-family="Helvetica,sans-Serif" font-size="10.00">mom_coord_initialization</text>
<text text-anchor="middle" x="214" y="-293" font-family="Helvetica,sans-Serif" font-size="10.00">::set_coord_from_gprime</text>
</a>
</g>
</g>
<!-- Node0&#45;&gt;Node7 -->
<g id="edge10" class="edge"><title>Node0&#45;&gt;Node7</title>
<path fill="none" stroke="midnightblue" d="M104.065,-301C118.703,-301 134.836,-301 150.097,-301"/>
<polygon fill="midnightblue" stroke="midnightblue" points="150.495,-304.5 160.495,-301 150.495,-297.5 150.495,-304.5"/>
</g>
<!-- Node8 -->
<g id="node9" class="node"><title>Node8</title>
<g id="a_node9"><a xlink:href="namespacemom__coord__initialization.html#ac7fbb06dced36178003cea6f30bb8251" target="_top" xlink:title=" ">
<polygon fill="white" stroke="black" points="162,-225.5 162,-266.5 266,-266.5 266,-225.5 162,-225.5"/>
<text text-anchor="start" x="170" y="-254.5" font-family="Helvetica,sans-Serif" font-size="10.00">mom_coord_initialization</text>
<text text-anchor="start" x="170" y="-243.5" font-family="Helvetica,sans-Serif" font-size="10.00">::set_coord_from_layer</text>
<text text-anchor="middle" x="214" y="-232.5" font-family="Helvetica,sans-Serif" font-size="10.00">_density</text>
</a>
</g>
</g>
<!-- Node0&#45;&gt;Node8 -->
<g id="edge13" class="edge"><title>Node0&#45;&gt;Node8</title>
<path fill="none" stroke="midnightblue" d="M96.7207,-285.971C113.897,-280.067 133.905,-273.189 152.432,-266.82"/>
<polygon fill="midnightblue" stroke="midnightblue" points="153.644,-270.105 161.963,-263.544 151.368,-263.485 153.644,-270.105"/>
</g>
<!-- Node9 -->
<g id="node10" class="node"><title>Node9</title>
<g id="a_node10"><a xlink:href="namespacemom__coord__initialization.html#a47eea61df5d0ea7f91d52dd17e6532e0" target="_top" xlink:title=" ">
<polygon fill="white" stroke="black" points="157,-176 157,-206 271,-206 271,-176 157,-176"/>
<text text-anchor="start" x="165" y="-194" font-family="Helvetica,sans-Serif" font-size="10.00">mom_coord_initialization</text>
<text text-anchor="middle" x="214" y="-183" font-family="Helvetica,sans-Serif" font-size="10.00">::set_coord_from_ts_profile</text>
</a>
</g>
</g>
<!-- Node0&#45;&gt;Node9 -->
<g id="edge16" class="edge"><title>Node0&#45;&gt;Node9</title>
<path fill="none" stroke="midnightblue" d="M64.9639,-285.701C80.4299,-266.866 109.071,-235.042 140,-216 143.369,-213.926 146.932,-211.998 150.599,-210.209"/>
<polygon fill="midnightblue" stroke="midnightblue" points="152.187,-213.333 159.88,-206.048 149.323,-206.946 152.187,-213.333"/>
</g>
<!-- Node10 -->
<g id="node11" class="node"><title>Node10</title>
<g id="a_node11"><a xlink:href="namespacemom__coord__initialization.html#aa10f125cb362adb012f56feb46d9e0a9" target="_top" xlink:title=" ">
<polygon fill="white" stroke="black" points="157.5,-482 157.5,-512 270.5,-512 270.5,-482 157.5,-482"/>
<text text-anchor="start" x="165.5" y="-500" font-family="Helvetica,sans-Serif" font-size="10.00">mom_coord_initialization</text>
<text text-anchor="middle" x="214" y="-489" font-family="Helvetica,sans-Serif" font-size="10.00">::set_coord_from_ts_range</text>
</a>
</g>
</g>
<!-- Node0&#45;&gt;Node10 -->
<g id="edge19" class="edge"><title>Node0&#45;&gt;Node10</title>
<path fill="none" stroke="midnightblue" d="M56.575,-316.194C65.1417,-349.318 89.9511,-428.54 140,-472 142.66,-474.31 145.544,-476.409 148.577,-478.316"/>
<polygon fill="midnightblue" stroke="midnightblue" points="147.012,-481.449 157.461,-483.199 150.383,-475.315 147.012,-481.449"/>
</g>
<!-- Node11 -->
<g id="node12" class="node"><title>Node11</title>
<g id="a_node12"><a xlink:href="namespacemom__coord__initialization.html#a2497b25bed6dd92fadd4193b7532ef64" target="_top" xlink:title=" ">
<polygon fill="white" stroke="black" points="162,-433 162,-463 266,-463 266,-433 162,-433"/>
<text text-anchor="start" x="170" y="-451" font-family="Helvetica,sans-Serif" font-size="10.00">mom_coord_initialization</text>
<text text-anchor="middle" x="214" y="-440" font-family="Helvetica,sans-Serif" font-size="10.00">::set_coord_from_ts_ref</text>
</a>
</g>
</g>
<!-- Node0&#45;&gt;Node11 -->
<g id="edge22" class="edge"><title>Node0&#45;&gt;Node11</title>
<path fill="none" stroke="midnightblue" d="M59.8547,-316.063C72.2502,-341.675 100.79,-393.768 140,-423 143.89,-425.9 148.14,-428.48 152.571,-430.772"/>
<polygon fill="midnightblue" stroke="midnightblue" points="151.319,-434.049 161.863,-435.084 154.265,-427.7 151.319,-434.049"/>
</g>
<!-- Node12 -->
<g id="node13" class="node"><title>Node12</title>
<g id="a_node13"><a xlink:href="namespacemom__coord__initialization.html#a79fb324b0147fafc4e21093a1ceeb016" target="_top" xlink:title=" ">
<polygon fill="white" stroke="black" points="162,-384 162,-414 266,-414 266,-384 162,-384"/>
<text text-anchor="start" x="170" y="-402" font-family="Helvetica,sans-Serif" font-size="10.00">mom_coord_initialization</text>
<text text-anchor="middle" x="214" y="-391" font-family="Helvetica,sans-Serif" font-size="10.00">::set_coord_linear</text>
</a>
</g>
</g>
<!-- Node0&#45;&gt;Node12 -->
<g id="edge25" class="edge"><title>Node0&#45;&gt;Node12</title>
<path fill="none" stroke="midnightblue" d="M67.4254,-316.051C83.7185,-332.302 111.671,-358.004 140,-374 143.911,-376.209 148.051,-378.268 152.291,-380.178"/>
<polygon fill="midnightblue" stroke="midnightblue" points="151.11,-383.479 161.685,-384.124 153.821,-377.025 151.11,-383.479"/>
</g>
<!-- Node13 -->
<g id="node14" class="node"><title>Node13</title>
<g id="a_node14"><a xlink:href="namespacemom__verticalgrid.html#aca0b871025638d55736e051a43906719" target="_top" xlink:title="This sets the coordinate data for the &quot;layer mode&quot; of the isopycnal model.">
<polygon fill="white" stroke="black" points="140.5,-0.5 140.5,-19.5 287.5,-19.5 287.5,-0.5 140.5,-0.5"/>
<text text-anchor="middle" x="214" y="-7.5" font-family="Helvetica,sans-Serif" font-size="10.00">mom_verticalgrid::setverticalgridaxes</text>
</a>
</g>
</g>
<!-- Node0&#45;&gt;Node13 -->
<g id="edge28" class="edge"><title>Node0&#45;&gt;Node13</title>
<path fill="none" stroke="midnightblue" d="M53.0691,-285.735C54.1413,-239.716 63.8444,-101.082 140,-29 141.661,-27.4274 143.436,-25.981 145.301,-24.6508"/>
<polygon fill="midnightblue" stroke="midnightblue" points="147.144,-27.6268 153.981,-19.5325 143.589,-21.5971 147.144,-27.6268"/>
</g>
<!-- Node14 -->
<g id="node15" class="node"><title>Node14</title>
<g id="a_node15"><a xlink:href="namespaceuser__initialization.html#a541d25539cbb198ae0ed7c1356f267cf" target="_top" xlink:title="Set vertical coordinates.">
<polygon fill="white" stroke="black" points="175.5,-88 175.5,-118 252.5,-118 252.5,-88 175.5,-88"/>
<text text-anchor="start" x="183.5" y="-106" font-family="Helvetica,sans-Serif" font-size="10.00">user_initialization</text>
<text text-anchor="middle" x="214" y="-95" font-family="Helvetica,sans-Serif" font-size="10.00">::user_set_coord</text>
</a>
</g>
</g>
<!-- Node0&#45;&gt;Node14 -->
<g id="edge29" class="edge"><title>Node0&#45;&gt;Node14</title>
<path fill="none" stroke="midnightblue" d="M56.9879,-285.8C66.2231,-253.4 92.0376,-176.921 140,-133 147.427,-126.199 156.607,-120.83 165.921,-116.631"/>
<polygon fill="midnightblue" stroke="midnightblue" points="167.299,-119.849 175.22,-112.814 164.64,-113.374 167.299,-119.849"/>
</g>
<!-- Node17 -->
<g id="node18" class="node"><title>Node17</title>
<g id="a_node18"><a xlink:href="namespacemom__coord__initialization.html#a45fb62504679264febbaa0617332ecc1" target="_top" xlink:title=" ">
<polygon fill="white" stroke="black" points="162,-39 162,-69 266,-69 266,-39 162,-39"/>
<text text-anchor="start" x="170" y="-57" font-family="Helvetica,sans-Serif" font-size="10.00">mom_coord_initialization</text>
<text text-anchor="middle" x="214" y="-46" font-family="Helvetica,sans-Serif" font-size="10.00">::write_vertgrid_file</text>
</a>
</g>
</g>
<!-- Node0&#45;&gt;Node17 -->
<g id="edge33" class="edge"><title>Node0&#45;&gt;Node17</title>
<path fill="none" stroke="midnightblue" d="M54.5746,-285.94C59.5132,-246.309 78.2534,-138.114 140,-79 143.774,-75.387 148.092,-72.2947 152.701,-69.6481"/>
<polygon fill="midnightblue" stroke="midnightblue" points="154.466,-72.6795 161.857,-65.0886 151.345,-66.4135 154.466,-72.6795"/>
</g>
<!-- Node2 -->
<g id="node3" class="node"><title>Node2</title>
<g id="a_node3"><a xlink:href="namespacebfb__initialization.html#acf4641a95e7aa3b9953db2b04a627c97" target="_top" xlink:title="Write output about the parameter values being used.">
<polygon fill="white" stroke="black" points="335,-570 335,-600 407,-600 407,-570 335,-570"/>
<text text-anchor="start" x="343" y="-588" font-family="Helvetica,sans-Serif" font-size="10.00">bfb_initialization</text>
<text text-anchor="middle" x="371" y="-577" font-family="Helvetica,sans-Serif" font-size="10.00">::write_bfb_log</text>
</a>
</g>
</g>
<!-- Node1&#45;&gt;Node2 -->
<g id="edge2" class="edge"><title>Node1&#45;&gt;Node2</title>
<path fill="none" stroke="midnightblue" d="M250.172,-585C272.269,-585 300.988,-585 324.771,-585"/>
<polygon fill="midnightblue" stroke="midnightblue" points="324.967,-588.5 334.967,-585 324.967,-581.5 324.967,-588.5"/>
</g>
<!-- Node4 -->
<g id="node5" class="node"><title>Node4</title>
<g id="a_node5"><a xlink:href="namespacemom__error__handler.html#ad5f00a53059c72fe2332d1436c80ca71" target="_top" xlink:title=" ">
<polygon fill="white" stroke="black" points="872.5,-286 872.5,-316 965.5,-316 965.5,-286 872.5,-286"/>
<text text-anchor="start" x="880.5" y="-304" font-family="Helvetica,sans-Serif" font-size="10.00">mom_error_handler::</text>
<text text-anchor="middle" x="919" y="-293" font-family="Helvetica,sans-Serif" font-size="10.00">is_root_pe</text>
</a>
</g>
</g>
<!-- Node3&#45;&gt;Node4 -->
<g id="edge4" class="edge"><title>Node3&#45;&gt;Node4</title>
<path fill="none" stroke="midnightblue" d="M417.584,-347.983C500.899,-343.98 683.253,-333.758 836,-315 844.448,-313.962 853.353,-312.661 862.056,-311.271"/>
<polygon fill="midnightblue" stroke="midnightblue" points="862.842,-314.689 872.14,-309.61 861.705,-307.782 862.842,-314.689"/>
</g>
<!-- Node5&#45;&gt;Node4 -->
<g id="edge6" class="edge"><title>Node5&#45;&gt;Node4</title>
<path fill="none" stroke="midnightblue" d="M417.613,-301C517.177,-301 753.714,-301 862.058,-301"/>
<polygon fill="midnightblue" stroke="midnightblue" points="862.133,-304.5 872.133,-301 862.133,-297.5 862.133,-304.5"/>
</g>
<!-- Node6&#45;&gt;Node3 -->
<g id="edge8" class="edge"><title>Node6&#45;&gt;Node3</title>
<path fill="none" stroke="midnightblue" d="M266.182,-350C281.59,-350 298.572,-350 314.259,-350"/>
<polygon fill="midnightblue" stroke="midnightblue" points="314.352,-353.5 324.352,-350 314.352,-346.5 314.352,-353.5"/>
</g>
<!-- Node6&#45;&gt;Node5 -->
<g id="edge9" class="edge"><title>Node6&#45;&gt;Node5</title>
<path fill="none" stroke="midnightblue" d="M262.77,-334.899C279.128,-329.727 297.57,-323.897 314.488,-318.549"/>
<polygon fill="midnightblue" stroke="midnightblue" points="315.765,-321.816 324.245,-315.464 313.655,-315.142 315.765,-321.816"/>
</g>
<!-- Node7&#45;&gt;Node3 -->
<g id="edge11" class="edge"><title>Node7&#45;&gt;Node3</title>
<path fill="none" stroke="midnightblue" d="M262.77,-316.101C279.128,-321.273 297.57,-327.103 314.488,-332.451"/>
<polygon fill="midnightblue" stroke="midnightblue" points="313.655,-335.858 324.245,-335.536 315.765,-329.184 313.655,-335.858"/>
</g>
<!-- Node7&#45;&gt;Node5 -->
<g id="edge12" class="edge"><title>Node7&#45;&gt;Node5</title>
<path fill="none" stroke="midnightblue" d="M267.909,-301C282.801,-301 299.045,-301 314.106,-301"/>
<polygon fill="midnightblue" stroke="midnightblue" points="314.313,-304.5 324.313,-301 314.313,-297.5 314.313,-304.5"/>
</g>
<!-- Node8&#45;&gt;Node3 -->
<g id="edge14" class="edge"><title>Node8&#45;&gt;Node3</title>
<path fill="none" stroke="midnightblue" d="M266.031,-263.544C273.782,-267.35 281.388,-271.821 288,-277 308.994,-293.443 303.822,-307.566 324,-325 325.676,-326.448 327.451,-327.848 329.289,-329.194"/>
<polygon fill="midnightblue" stroke="midnightblue" points="327.386,-332.132 337.653,-334.746 331.257,-326.3 327.386,-332.132"/>
</g>
<!-- Node8&#45;&gt;Node5 -->
<g id="edge15" class="edge"><title>Node8&#45;&gt;Node5</title>
<path fill="none" stroke="midnightblue" d="M266.182,-264.161C282.841,-270.073 301.342,-276.637 318.056,-282.568"/>
<polygon fill="midnightblue" stroke="midnightblue" points="317.068,-285.932 327.663,-285.977 319.409,-279.335 317.068,-285.932"/>
</g>
<!-- Node9&#45;&gt;Node3 -->
<g id="edge17" class="edge"><title>Node9&#45;&gt;Node3</title>
<path fill="none" stroke="midnightblue" d="M271.22,-204.074C277.408,-207.228 283.196,-211.143 288,-216 323.877,-252.272 291.29,-285.847 324,-325 324.983,-326.177 326.037,-327.308 327.147,-328.393"/>
<polygon fill="midnightblue" stroke="midnightblue" points="325.188,-331.31 335.155,-334.903 329.604,-325.879 325.188,-331.31"/>
</g>
<!-- Node9&#45;&gt;Node5 -->
<g id="edge18" class="edge"><title>Node9&#45;&gt;Node5</title>
<path fill="none" stroke="midnightblue" d="M268.609,-206.039C275.371,-208.884 282.01,-212.189 288,-216 313.954,-232.513 337.649,-258.863 352.82,-277.85"/>
<polygon fill="midnightblue" stroke="midnightblue" points="350.26,-280.259 359.168,-285.994 355.781,-275.955 350.26,-280.259"/>
</g>
<!-- Node10&#45;&gt;Node3 -->
<g id="edge20" class="edge"><title>Node10&#45;&gt;Node3</title>
<path fill="none" stroke="midnightblue" d="M270.786,-482.235C276.904,-479.378 282.792,-475.996 288,-472 321.901,-445.988 346.534,-401.813 359.521,-374.361"/>
<polygon fill="midnightblue" stroke="midnightblue" points="362.794,-375.618 363.774,-365.069 356.429,-372.705 362.794,-375.618"/>
</g>
<!-- Node10&#45;&gt;Node5 -->
<g id="edge21" class="edge"><title>Node10&#45;&gt;Node5</title>
<path fill="none" stroke="midnightblue" d="M270.502,-484.834C277.043,-481.533 283.115,-477.336 288,-472 333.128,-422.705 283.163,-378.905 324,-326 324.812,-324.948 325.682,-323.934 326.6,-322.958"/>
<polygon fill="midnightblue" stroke="midnightblue" points="329.146,-325.383 334.425,-316.197 324.57,-320.087 329.146,-325.383"/>
</g>
<!-- Node11&#45;&gt;Node3 -->
<g id="edge23" class="edge"><title>Node11&#45;&gt;Node3</title>
<path fill="none" stroke="midnightblue" d="M266.031,-433.454C273.619,-430.463 281.175,-426.987 288,-423 311.337,-409.368 333.979,-388.441 349.536,-372.483"/>
<polygon fill="midnightblue" stroke="midnightblue" points="352.207,-374.754 356.576,-365.102 347.142,-369.922 352.207,-374.754"/>
</g>
<!-- Node11&#45;&gt;Node5 -->
<g id="edge24" class="edge"><title>Node11&#45;&gt;Node5</title>
<path fill="none" stroke="midnightblue" d="M266.234,-437.006C274.229,-433.54 281.861,-428.985 288,-423 320.927,-390.9 293.88,-360.747 324,-326 325.005,-324.841 326.077,-323.726 327.203,-322.655"/>
<polygon fill="midnightblue" stroke="midnightblue" points="329.651,-325.179 335.282,-316.205 325.283,-319.709 329.651,-325.179"/>
</g>
<!-- Node12&#45;&gt;Node3 -->
<g id="edge26" class="edge"><title>Node12&#45;&gt;Node3</title>
<path fill="none" stroke="midnightblue" d="M262.77,-383.899C279.128,-378.727 297.57,-372.897 314.488,-367.549"/>
<polygon fill="midnightblue" stroke="midnightblue" points="315.765,-370.816 324.245,-364.464 313.655,-364.142 315.765,-370.816"/>
</g>
<!-- Node12&#45;&gt;Node5 -->
<g id="edge27" class="edge"><title>Node12&#45;&gt;Node5</title>
<path fill="none" stroke="midnightblue" d="M266.036,-385.946C273.786,-382.74 281.39,-378.805 288,-374 309.569,-358.319 303.822,-343.434 324,-326 325.676,-324.552 327.451,-323.152 329.289,-321.806"/>
<polygon fill="midnightblue" stroke="midnightblue" points="331.257,-324.7 337.653,-316.254 327.386,-318.868 331.257,-324.7"/>
</g>
<!-- Node15 -->
<g id="node16" class="node"><title>Node15</title>
<g id="a_node16"><a xlink:href="namespacemom__error__handler.html#a460cfb79a06c29fc249952c2a3710d67" target="_top" xlink:title=" ">
<polygon fill="white" stroke="black" points="742.5,-131 742.5,-161 835.5,-161 835.5,-131 742.5,-131"/>
<text text-anchor="start" x="750.5" y="-149" font-family="Helvetica,sans-Serif" font-size="10.00">mom_error_handler::</text>
<text text-anchor="middle" x="789" y="-138" font-family="Helvetica,sans-Serif" font-size="10.00">mom_error</text>
</a>
</g>
</g>
<!-- Node14&#45;&gt;Node15 -->
<g id="edge30" class="edge"><title>Node14&#45;&gt;Node15</title>
<path fill="none" stroke="midnightblue" d="M252.574,-112.527C273.465,-117.419 300.015,-122.974 324,-126 470.44,-144.478 644.706,-146.756 732.124,-146.555"/>
<polygon fill="midnightblue" stroke="midnightblue" points="732.359,-150.054 742.346,-146.519 732.334,-143.054 732.359,-150.054"/>
</g>
<!-- Node16 -->
<g id="node17" class="node"><title>Node16</title>
<g id="a_node17"><a xlink:href="namespaceuser__initialization.html#aebfc0db710e83bae83f08e1a774256dd" target="_top" xlink:title="Write output about the parameter values being used.">
<polygon fill="white" stroke="black" points="332.5,-87 332.5,-117 409.5,-117 409.5,-87 332.5,-87"/>
<text text-anchor="start" x="340.5" y="-105" font-family="Helvetica,sans-Serif" font-size="10.00">user_initialization</text>
<text text-anchor="middle" x="371" y="-94" font-family="Helvetica,sans-Serif" font-size="10.00">::write_user_log</text>
</a>
</g>
</g>
<!-- Node14&#45;&gt;Node16 -->
<g id="edge32" class="edge"><title>Node14&#45;&gt;Node16</title>
<path fill="none" stroke="midnightblue" d="M252.521,-102.758C273.405,-102.623 299.621,-102.454 321.987,-102.31"/>
<polygon fill="midnightblue" stroke="midnightblue" points="322.31,-105.808 332.287,-102.243 322.265,-98.808 322.31,-105.808"/>
</g>
<!-- Node15&#45;&gt;Node4 -->
<g id="edge31" class="edge"><title>Node15&#45;&gt;Node4</title>
<path fill="none" stroke="midnightblue" d="M802.506,-161.144C824.912,-188.276 872.035,-245.339 898.644,-277.561"/>
<polygon fill="midnightblue" stroke="midnightblue" points="896.187,-280.083 905.253,-285.565 901.585,-275.625 896.187,-280.083"/>
</g>
<!-- Node18 -->
<g id="node19" class="node"><title>Node18</title>
<g id="a_node19"><a xlink:href="namespacemom__io.html#a39c3ccc06bb1a6e446af2ee9010eba16" target="_top" xlink:title="Returns a vardesc type whose elements have been filled with the provided fields. The argument name is...">
<polygon fill="white" stroke="black" points="330,-46.5 330,-65.5 412,-65.5 412,-46.5 330,-46.5"/>
<text text-anchor="middle" x="371" y="-53.5" font-family="Helvetica,sans-Serif" font-size="10.00">mom_io::var_desc</text>
</a>
</g>
</g>
<!-- Node17&#45;&gt;Node18 -->
<g id="edge34" class="edge"><title>Node17&#45;&gt;Node18</title>
<path fill="none" stroke="midnightblue" d="M266.182,-54.6604C283.27,-54.8809 302.294,-55.1264 319.342,-55.3463"/>
<polygon fill="midnightblue" stroke="midnightblue" points="319.622,-58.8502 329.666,-55.4796 319.712,-51.8507 319.622,-58.8502"/>
</g>
<!-- Node19 -->
<g id="node20" class="node"><title>Node19</title>
<g id="a_node20"><a xlink:href="namespacemom__io.html#ac4bc408e8b38dbd669842753f26ebf88" target="_top" xlink:title="Copies a string.">
<polygon fill="white" stroke="black" points="596,-84.5 596,-103.5 706,-103.5 706,-84.5 596,-84.5"/>
<text text-anchor="middle" x="651" y="-91.5" font-family="Helvetica,sans-Serif" font-size="10.00">mom_io::safe_string_copy</text>
</a>
</g>
</g>
<!-- Node18&#45;&gt;Node19 -->
<g id="edge35" class="edge"><title>Node18&#45;&gt;Node19</title>
<path fill="none" stroke="midnightblue" d="M408.534,-65.5455C422.656,-68.9504 439.002,-72.5463 454,-75 497.669,-82.1443 547.284,-86.9213 585.669,-89.8985"/>
<polygon fill="midnightblue" stroke="midnightblue" points="585.443,-93.3913 595.678,-90.6539 585.97,-86.4111 585.443,-93.3913"/>
</g>
<!-- Node20 -->
<g id="node21" class="node"><title>Node20</title>
<g id="a_node21"><a xlink:href="namespacemom__io.html#af96b29cb8410d557e8e452b81586223b" target="_top" xlink:title="This routine modifies the named elements of a vardesc type. All arguments are optional,...">
<polygon fill="white" stroke="black" points="454.5,-46.5 454.5,-65.5 559.5,-65.5 559.5,-46.5 454.5,-46.5"/>
<text text-anchor="middle" x="507" y="-53.5" font-family="Helvetica,sans-Serif" font-size="10.00">mom_io::modify_vardesc</text>
</a>
</g>
</g>
<!-- Node18&#45;&gt;Node20 -->
<g id="edge37" class="edge"><title>Node18&#45;&gt;Node20</title>
<path fill="none" stroke="midnightblue" d="M412.204,-56C422.253,-56 433.264,-56 444.096,-56"/>
<polygon fill="midnightblue" stroke="midnightblue" points="444.39,-59.5001 454.39,-56 444.39,-52.5001 444.39,-59.5001"/>
</g>
<!-- Node19&#45;&gt;Node15 -->
<g id="edge36" class="edge"><title>Node19&#45;&gt;Node15</title>
<path fill="none" stroke="midnightblue" d="M676.944,-103.538C694.301,-110.174 718.014,-119.241 739.073,-127.293"/>
<polygon fill="midnightblue" stroke="midnightblue" points="737.938,-130.606 748.529,-130.908 740.439,-124.068 737.938,-130.606"/>
</g>
<!-- Node20&#45;&gt;Node19 -->
<g id="edge38" class="edge"><title>Node20&#45;&gt;Node19</title>
<path fill="none" stroke="midnightblue" d="M543.833,-65.589C562.163,-70.4944 584.678,-76.5196 604.25,-81.7571"/>
<polygon fill="midnightblue" stroke="midnightblue" points="603.614,-85.2099 614.179,-84.4141 605.424,-78.4479 603.614,-85.2099"/>
</g>
</g>
</svg>
        <g id="navigator" transform="translate(0 0)" fill="#404254">
                <rect fill="#f2f5e9" fill-opacity="0.5" stroke="#606060" stroke-width=".5" x="0" y="0" width="60" height="60"/>
                <use id="zoomplus" xlink:href="#zoomPlus" x="17" y="9" onmousedown="handleZoom(evt,'in')"/>
                <use id="zoomminus" xlink:href="#zoomMin" x="42" y="9" onmousedown="handleZoom(evt,'out')"/>
                <use id="reset" xlink:href="#resetDef" x="30" y="36" onmousedown="handleReset()"/>
                <g id="arrowUp" xlink:href="#dirArrow" transform="translate(30 24)" onmousedown="handlePan(0,-1)">
                  <use xlink:href="#rim" fill="#404040">
                        <set attributeName="fill" to="#808080" begin="arrowUp.mouseover" end="arrowUp.mouseout"/>
                  </use>
                  <path fill="none" stroke="white" stroke-width="1.5" d="M0,-3.0v7 M-2.5,-0.5L0,-3.0L2.5,-0.5"/>
                </g>
                <g id="arrowRight" xlink:href="#dirArrow" transform="rotate(90) translate(36 -43)" onmousedown="handlePan(1,0)">
                  <use xlink:href="#rim" fill="#404040">
                        <set attributeName="fill" to="#808080" begin="arrowRight.mouseover" end="arrowRight.mouseout"/>
                  </use>
                  <path fill="none" stroke="white" stroke-width="1.5" d="M0,-3.0v7 M-2.5,-0.5L0,-3.0L2.5,-0.5"/>
                </g>
                <g id="arrowDown" xlink:href="#dirArrow" transform="rotate(180) translate(-30 -48)" onmousedown="handlePan(0,1)">
                  <use xlink:href="#rim" fill="#404040">
                        <set attributeName="fill" to="#808080" begin="arrowDown.mouseover" end="arrowDown.mouseout"/>
                  </use>
                  <path fill="none" stroke="white" stroke-width="1.5" d="M0,-3.0v7 M-2.5,-0.5L0,-3.0L2.5,-0.5"/>
                </g>
                <g id="arrowLeft" xlink:href="#dirArrow" transform="rotate(270) translate(-36 17)" onmousedown="handlePan(-1,0)">
                  <use xlink:href="#rim" fill="#404040">
                        <set attributeName="fill" to="#808080" begin="arrowLeft.mouseover" end="arrowLeft.mouseout"/>
                  </use>
                  <path fill="none" stroke="white" stroke-width="1.5" d="M0,-3.0v7 M-2.5,-0.5L0,-3.0L2.5,-0.5"/>
                </g>
        </g>
        <svg viewBox="0 0 15 15" width="100%" height="30px" preserveAspectRatio="xMaxYMin meet">
         <g id="arrow_out" transform="scale(0.3 0.3)">
          <a xlink:href="namespacemom__coord__initialization_a6e2f4c11bc99476ea9c64a9aceac3b81_cgraph_org.svg" target="_base">
           <rect id="button" ry="5" rx="5" y="6" x="6" height="38" width="38"
                fill="#f2f5e9" fill-opacity="0.5" stroke="#606060" stroke-width="1.0"/>
           <path id="arrow"
             d="M 11.500037,31.436501 C 11.940474,20.09759 22.043105,11.32322 32.158766,21.979434 L 37.068811,17.246167 C 37.068811,17.246167 37.088388,32 37.088388,32 L 22.160133,31.978069 C 22.160133,31.978069 26.997745,27.140456 26.997745,27.140456 C 18.528582,18.264221 13.291696,25.230495 11.500037,31.436501 z"
             style="fill:#404040;"/>
          </a>
         </g>
        </svg>
</svg>
