<?xml version="1.0" encoding="UTF-8" standalone="no"?>
<!DOCTYPE svg PUBLIC "-//W3C//DTD SVG 1.1//EN"
 "http://www.w3.org/Graphics/SVG/1.1/DTD/svg11.dtd">
<!-- Generated by graphviz version 2.30.1 (20170916.1124)
 -->
<!-- Title: mom_document::doc_param_none Pages: 1 -->
<!--zoomable 137 -->
<svg id="main" version="1.1" xmlns="http://www.w3.org/2000/svg" xmlns:xlink="http://www.w3.org/1999/xlink" xml:space="preserve" onload="init(evt)">
<style type="text/css"><![CDATA[
.edge:hover path { stroke: red; }
.edge:hover polygon { stroke: red; fill: red; }
]]></style>
<script type="text/javascript"><![CDATA[
var edges = document.getElementsByTagName('g');
if (edges && edges.length) {
  for (var i=0;i<edges.length;i++) {
    if (edges[i].id.substr(0,4)=='edge') {
      edges[i].setAttribute('class','edge');
    }
  }
}
]]></script>
        <defs>
                <circle id="rim" cx="0" cy="0" r="7"/>
                <circle id="rim2" cx="0" cy="0" r="3.5"/>
                <g id="zoomPlus">
                        <use xlink:href="#rim" fill="#404040">
                                <set attributeName="fill" to="#808080" begin="zoomplus.mouseover" end="zoomplus.mouseout"/>
                        </use>
                        <path d="M-4,0h8M0,-4v8" fill="none" stroke="white" stroke-width="1.5" pointer-events="none"/>
                </g>
                <g id="zoomMin">
                        <use xlink:href="#rim" fill="#404040">
                                <set attributeName="fill" to="#808080" begin="zoomminus.mouseover" end="zoomminus.mouseout"/>
                        </use>
                        <path d="M-4,0h8" fill="none" stroke="white" stroke-width="1.5" pointer-events="none"/>
                </g>
                <g id="dirArrow">
                        <path fill="none" stroke="white" stroke-width="1.5" d="M0,-3.0v7 M-2.5,-0.5L0,-3.0L2.5,-0.5"/>
                </g>
               <g id="resetDef">
                       <use xlink:href="#rim2" fill="#404040">
                               <set attributeName="fill" to="#808080" begin="reset.mouseover" end="reset.mouseout"/>
                       </use>
               </g>
        </defs>

<script type="text/javascript">
var viewWidth = 814;
var viewHeight = 137;
var sectionId = 'dynsection-10';
</script>
<script xlink:href="svgpan.js"/>
<svg id="graph" class="graph">
<g id="viewport">
<title>mom_document::doc_param_none</title>
<polygon fill="white" stroke="white" points="-4,5 -4,-133.327 811,-133.327 811,5 -4,5"/>
<!-- Node88 -->
<g id="node1" class="node"><title>Node88</title>
<g id="a_node1"><a xlink:title=" ">
<polygon fill="#bfbfbf" stroke="black" points="0,-66.5 0,-85.5 142,-85.5 142,-66.5 0,-66.5"/>
<text text-anchor="middle" x="71" y="-73.5" font-family="Helvetica,sans-Serif" font-size="10.00">mom_document::doc_param_none</text>
</a>
</g>
</g>
<!-- Node89 -->
<g id="node2" class="node"><title>Node89</title>
<g id="a_node2"><a xlink:href="namespacemom__error__handler.html#ad5f00a53059c72fe2332d1436c80ca71" target="_top" xlink:title=" ">
<polygon fill="white" stroke="black" points="712.5,-39 712.5,-69 805.5,-69 805.5,-39 712.5,-39"/>
<text text-anchor="start" x="720.5" y="-57" font-family="Helvetica,sans-Serif" font-size="10.00">mom_error_handler::</text>
<text text-anchor="middle" x="759" y="-46" font-family="Helvetica,sans-Serif" font-size="10.00">is_root_pe</text>
</a>
</g>
</g>
<!-- Node88&#45;&gt;Node89 -->
<g id="edge1" class="edge"><title>Node88&#45;&gt;Node89</title>
<path fill="none" stroke="midnightblue" d="M108.557,-85.5608C128.879,-90.5507 154.697,-96.3581 178,-100 339.766,-125.282 383.975,-140.565 546,-117 603.811,-108.592 667.789,-87.9248 710.183,-72.5404"/>
<polygon fill="midnightblue" stroke="midnightblue" points="711.504,-75.7838 719.683,-69.0498 709.09,-69.2132 711.504,-75.7838"/>
</g>
<!-- Node90 -->
<g id="node3" class="node"><title>Node90</title>
<g id="a_node3"><a xlink:href="namespacemom__document.html#aa23ed2e58e74e88a71de374685ee11ec" target="_top" xlink:title=" ">
<polygon fill="white" stroke="black" points="372.5,-88.5 372.5,-107.5 545.5,-107.5 545.5,-88.5 372.5,-88.5"/>
<text text-anchor="middle" x="459" y="-95.5" font-family="Helvetica,sans-Serif" font-size="10.00">mom_document::mesghasbeendocumented</text>
</a>
</g>
</g>
<!-- Node88&#45;&gt;Node90 -->
<g id="edge2" class="edge"><title>Node88&#45;&gt;Node90</title>
<path fill="none" stroke="midnightblue" d="M142.35,-80.0096C203.883,-83.5166 293.817,-88.6424 361.964,-92.5264"/>
<polygon fill="midnightblue" stroke="midnightblue" points="362.096,-96.0396 372.279,-93.1144 362.495,-89.0509 362.096,-96.0396"/>
</g>
<!-- Node92 -->
<g id="node5" class="node"><title>Node92</title>
<g id="a_node5"><a xlink:href="namespacemom__document.html#aab976b6c6c9c01833438d217fca228a4" target="_top" xlink:title=" ">
<polygon fill="white" stroke="black" points="208.5,-39 208.5,-69 305.5,-69 305.5,-39 208.5,-39"/>
<text text-anchor="start" x="216.5" y="-57" font-family="Helvetica,sans-Serif" font-size="10.00">mom_document::open</text>
<text text-anchor="middle" x="257" y="-46" font-family="Helvetica,sans-Serif" font-size="10.00">_doc_file</text>
</a>
</g>
</g>
<!-- Node88&#45;&gt;Node92 -->
<g id="edge5" class="edge"><title>Node88&#45;&gt;Node92</title>
<path fill="none" stroke="midnightblue" d="M142.087,-67.62C160.595,-65.4071 180.359,-63.0441 198.14,-60.9181"/>
<polygon fill="midnightblue" stroke="midnightblue" points="198.842,-64.3591 208.356,-59.6966 198.011,-57.4087 198.842,-64.3591"/>
</g>
<!-- Node94 -->
<g id="node7" class="node"><title>Node94</title>
<g id="a_node7"><a xlink:href="namespacemom__document.html#a22d84550b1affd1037328c5117496a65" target="_top" xlink:title=" ">
<polygon fill="white" stroke="black" points="178,-0.5 178,-19.5 336,-19.5 336,-0.5 178,-0.5"/>
<text text-anchor="middle" x="257" y="-7.5" font-family="Helvetica,sans-Serif" font-size="10.00">mom_document::writemessageanddesc</text>
</a>
</g>
</g>
<!-- Node88&#45;&gt;Node94 -->
<g id="edge10" class="edge"><title>Node88&#45;&gt;Node94</title>
<path fill="none" stroke="midnightblue" d="M90.7403,-66.4636C111.611,-56.1353 146.557,-39.7049 178,-29 185.329,-26.5049 193.15,-24.198 200.904,-22.1152"/>
<polygon fill="midnightblue" stroke="midnightblue" points="201.84,-25.4883 210.648,-19.5995 200.09,-18.7105 201.84,-25.4883"/>
</g>
<!-- Node91 -->
<g id="node4" class="node"><title>Node91</title>
<g id="a_node4"><a xlink:href="namespacemom__error__handler.html#a460cfb79a06c29fc249952c2a3710d67" target="_top" xlink:title=" ">
<polygon fill="white" stroke="black" points="582.5,-39 582.5,-69 675.5,-69 675.5,-39 582.5,-39"/>
<text text-anchor="start" x="590.5" y="-57" font-family="Helvetica,sans-Serif" font-size="10.00">mom_error_handler::</text>
<text text-anchor="middle" x="629" y="-46" font-family="Helvetica,sans-Serif" font-size="10.00">mom_error</text>
</a>
</g>
</g>
<!-- Node90&#45;&gt;Node91 -->
<g id="edge3" class="edge"><title>Node90&#45;&gt;Node91</title>
<path fill="none" stroke="midnightblue" d="M503.426,-88.4013C517.091,-85.2471 532.211,-81.6183 546,-78 554.548,-75.757 563.559,-73.2581 572.354,-70.744"/>
<polygon fill="midnightblue" stroke="midnightblue" points="573.52,-74.0502 582.155,-67.9117 571.577,-67.3253 573.52,-74.0502"/>
</g>
<!-- Node91&#45;&gt;Node89 -->
<g id="edge4" class="edge"><title>Node91&#45;&gt;Node89</title>
<path fill="none" stroke="midnightblue" d="M675.849,-54C684.408,-54 693.439,-54 702.258,-54"/>
<polygon fill="midnightblue" stroke="midnightblue" points="702.471,-57.5001 712.471,-54 702.471,-50.5001 702.471,-57.5001"/>
</g>
<!-- Node92&#45;&gt;Node89 -->
<g id="edge6" class="edge"><title>Node92&#45;&gt;Node89</title>
<path fill="none" stroke="midnightblue" d="M305.252,-38.9014C335.793,-29.1713 370.192,-18.2786 372,-18 505.621,2.59683 543.238,-3.44377 676,-29 685.437,-30.8165 695.33,-33.3072 704.849,-36.0163"/>
<polygon fill="midnightblue" stroke="midnightblue" points="704.016,-39.4199 714.598,-38.8995 706.001,-32.7072 704.016,-39.4199"/>
</g>
<!-- Node93 -->
<g id="node6" class="node"><title>Node93</title>
<g id="a_node6"><a xlink:href="namespacemom__document.html#a5f2661445a72a7d0f774677e91366db5" target="_top" xlink:title=" ">
<polygon fill="white" stroke="black" points="410.5,-39 410.5,-69 507.5,-69 507.5,-39 410.5,-39"/>
<text text-anchor="start" x="418.5" y="-57" font-family="Helvetica,sans-Serif" font-size="10.00">mom_document::find</text>
<text text-anchor="middle" x="459" y="-46" font-family="Helvetica,sans-Serif" font-size="10.00">_unused_unit_number</text>
</a>
</g>
</g>
<!-- Node92&#45;&gt;Node93 -->
<g id="edge7" class="edge"><title>Node92&#45;&gt;Node93</title>
<path fill="none" stroke="midnightblue" d="M305.651,-54C333.97,-54 370.089,-54 400.05,-54"/>
<polygon fill="midnightblue" stroke="midnightblue" points="400.368,-57.5001 410.368,-54 400.368,-50.5001 400.368,-57.5001"/>
</g>
<!-- Node92&#45;&gt;Node91 -->
<g id="edge9" class="edge"><title>Node92&#45;&gt;Node91</title>
<path fill="none" stroke="midnightblue" d="M305.6,-41.1572C325.897,-36.3096 349.942,-31.3902 372,-29 448.883,-20.6688 469.512,-17.5992 546,-29 556.374,-30.5463 567.251,-33.136 577.568,-36.0773"/>
<polygon fill="midnightblue" stroke="midnightblue" points="576.669,-39.4616 587.253,-38.9826 578.68,-32.7568 576.669,-39.4616"/>
</g>
<!-- Node93&#45;&gt;Node91 -->
<g id="edge8" class="edge"><title>Node93&#45;&gt;Node91</title>
<path fill="none" stroke="midnightblue" d="M507.693,-54C527.784,-54 551.307,-54 572.197,-54"/>
<polygon fill="midnightblue" stroke="midnightblue" points="572.215,-57.5001 582.215,-54 572.215,-50.5001 572.215,-57.5001"/>
</g>
</g>
</svg>
        <g id="navigator" transform="translate(0 0)" fill="#404254">
                <rect fill="#f2f5e9" fill-opacity="0.5" stroke="#606060" stroke-width=".5" x="0" y="0" width="60" height="60"/>
                <use id="zoomplus" xlink:href="#zoomPlus" x="17" y="9" onmousedown="handleZoom(evt,'in')"/>
                <use id="zoomminus" xlink:href="#zoomMin" x="42" y="9" onmousedown="handleZoom(evt,'out')"/>
                <use id="reset" xlink:href="#resetDef" x="30" y="36" onmousedown="handleReset()"/>
                <g id="arrowUp" xlink:href="#dirArrow" transform="translate(30 24)" onmousedown="handlePan(0,-1)">
                  <use xlink:href="#rim" fill="#404040">
                        <set attributeName="fill" to="#808080" begin="arrowUp.mouseover" end="arrowUp.mouseout"/>
                  </use>
                  <path fill="none" stroke="white" stroke-width="1.5" d="M0,-3.0v7 M-2.5,-0.5L0,-3.0L2.5,-0.5"/>
                </g>
                <g id="arrowRight" xlink:href="#dirArrow" transform="rotate(90) translate(36 -43)" onmousedown="handlePan(1,0)">
                  <use xlink:href="#rim" fill="#404040">
                        <set attributeName="fill" to="#808080" begin="arrowRight.mouseover" end="arrowRight.mouseout"/>
                  </use>
                  <path fill="none" stroke="white" stroke-width="1.5" d="M0,-3.0v7 M-2.5,-0.5L0,-3.0L2.5,-0.5"/>
                </g>
                <g id="arrowDown" xlink:href="#dirArrow" transform="rotate(180) translate(-30 -48)" onmousedown="handlePan(0,1)">
                  <use xlink:href="#rim" fill="#404040">
                        <set attributeName="fill" to="#808080" begin="arrowDown.mouseover" end="arrowDown.mouseout"/>
                  </use>
                  <path fill="none" stroke="white" stroke-width="1.5" d="M0,-3.0v7 M-2.5,-0.5L0,-3.0L2.5,-0.5"/>
                </g>
                <g id="arrowLeft" xlink:href="#dirArrow" transform="rotate(270) translate(-36 17)" onmousedown="handlePan(-1,0)">
                  <use xlink:href="#rim" fill="#404040">
                        <set attributeName="fill" to="#808080" begin="arrowLeft.mouseover" end="arrowLeft.mouseout"/>
                  </use>
                  <path fill="none" stroke="white" stroke-width="1.5" d="M0,-3.0v7 M-2.5,-0.5L0,-3.0L2.5,-0.5"/>
                </g>
        </g>
        <svg viewBox="0 0 15 15" width="100%" height="30px" preserveAspectRatio="xMaxYMin meet">
         <g id="arrow_out" transform="scale(0.3 0.3)">
          <a xlink:href="namespacemom__document_ab6438889d6e98b10d8c42d5ff6b00ef8_cgraph_org.svg" target="_base">
           <rect id="button" ry="5" rx="5" y="6" x="6" height="38" width="38"
                fill="#f2f5e9" fill-opacity="0.5" stroke="#606060" stroke-width="1.0"/>
           <path id="arrow"
             d="M 11.500037,31.436501 C 11.940474,20.09759 22.043105,11.32322 32.158766,21.979434 L 37.068811,17.246167 C 37.068811,17.246167 37.088388,32 37.088388,32 L 22.160133,31.978069 C 22.160133,31.978069 26.997745,27.140456 26.997745,27.140456 C 18.528582,18.264221 13.291696,25.230495 11.500037,31.436501 z"
             style="fill:#404040;"/>
          </a>
         </g>
        </svg>
</svg>
