<?xml version="1.0" encoding="UTF-8" standalone="no"?>
<!DOCTYPE svg PUBLIC "-//W3C//DTD SVG 1.1//EN"
 "http://www.w3.org/Graphics/SVG/1.1/DTD/svg11.dtd">
<!-- Generated by graphviz version 2.30.1 (20170916.1124)
 -->
<!-- Title: mom_shortwave_abs::absorbremainingsw Pages: 1 -->
<svg width="448pt" height="77pt"
 viewBox="0.00 0.00 448.00 77.00" xmlns="http://www.w3.org/2000/svg" xmlns:xlink="http://www.w3.org/1999/xlink">
<g id="graph0" class="graph" transform="scale(1 1) rotate(0) translate(4 73)">
<title>mom_shortwave_abs::absorbremainingsw</title>
<polygon fill="white" stroke="white" points="-4,5 -4,-73 445,-73 445,5 -4,5"/>
<!-- Node1 -->
<g id="node1" class="node"><title>Node1</title>
<g id="a_node1"><a xlink:title="Apply shortwave heating below surface boundary layer.">
<polygon fill="#bfbfbf" stroke="black" points="342,-22 342,-52 440,-52 440,-22 342,-22"/>
<text text-anchor="start" x="350" y="-40" font-family="Helvetica,sans-Serif" font-size="10.00">mom_shortwave_abs::</text>
<text text-anchor="middle" x="391" y="-29" font-family="Helvetica,sans-Serif" font-size="10.00">absorbremainingsw</text>
</a>
</g>
</g>
<!-- Node2 -->
<g id="node2" class="node"><title>Node2</title>
<g id="a_node2"><a xlink:href="namespacemom__diabatic__aux.html#a44d0243253dc728f6d1d1dced76883f3" target="_top" xlink:title="Update the thickness, temperature, and salinity due to thermodynamic boundary forcing (contained in f...">
<polygon fill="white" stroke="black" points="128,-49.5 128,-68.5 306,-68.5 306,-49.5 128,-49.5"/>
<text text-anchor="middle" x="217" y="-56.5" font-family="Helvetica,sans-Serif" font-size="10.00">mom_diabatic_aux::applyboundaryfluxesinout</text>
</a>
</g>
</g>
<!-- Node1&#45;&gt;Node2 -->
<g id="edge1" class="edge"><title>Node1&#45;&gt;Node2</title>
<path fill="none" stroke="midnightblue" d="M331.707,-44.456C319.065,-46.0731 305.528,-47.8046 292.361,-49.4887"/>
<polygon fill="midnightblue" stroke="midnightblue" points="332.156,-47.9273 341.631,-43.1868 331.267,-40.9839 332.156,-47.9273"/>
</g>
<!-- Node4 -->
<g id="node4" class="node"><title>Node4</title>
<g id="a_node4"><a xlink:href="namespacemom__bulk__mixed__layer.html#a9c3a37aae75b52453efad11d8c8abbe6" target="_top" xlink:title=" ">
<polygon fill="white" stroke="black" points="166.5,-0 166.5,-30 267.5,-30 267.5,-0 166.5,-0"/>
<text text-anchor="start" x="174.5" y="-18" font-family="Helvetica,sans-Serif" font-size="10.00">mom_bulk_mixed_layer</text>
<text text-anchor="middle" x="217" y="-7" font-family="Helvetica,sans-Serif" font-size="10.00">::bulkmixedlayer</text>
</a>
</g>
</g>
<!-- Node1&#45;&gt;Node4 -->
<g id="edge3" class="edge"><title>Node1&#45;&gt;Node4</title>
<path fill="none" stroke="midnightblue" d="M331.664,-29.5384C310.917,-26.8847 287.766,-23.9236 267.8,-21.3698"/>
<polygon fill="midnightblue" stroke="midnightblue" points="331.267,-33.0161 341.631,-30.8132 332.156,-26.0727 331.267,-33.0161"/>
</g>
<!-- Node3 -->
<g id="node3" class="node"><title>Node3</title>
<g id="a_node3"><a xlink:href="namespacemom__diabatic__driver.html#a61e57d3902367aa46aa3c2d949ee900f" target="_top" xlink:title="This subroutine imposes the diapycnal mass fluxes and the accompanying diapycnal advection of momentu...">
<polygon fill="white" stroke="black" points="0.5,-22 0.5,-52 91.5,-52 91.5,-22 0.5,-22"/>
<text text-anchor="start" x="8.5" y="-40" font-family="Helvetica,sans-Serif" font-size="10.00">mom_diabatic_driver</text>
<text text-anchor="middle" x="46" y="-29" font-family="Helvetica,sans-Serif" font-size="10.00">::diabatic</text>
</a>
</g>
</g>
<!-- Node2&#45;&gt;Node3 -->
<g id="edge2" class="edge"><title>Node2&#45;&gt;Node3</title>
<path fill="none" stroke="midnightblue" d="M132.665,-48.1516C118.627,-46.3242 104.545,-44.4911 91.9716,-42.8543"/>
<polygon fill="midnightblue" stroke="midnightblue" points="132.489,-51.6582 142.857,-49.4784 133.393,-44.7167 132.489,-51.6582"/>
</g>
<!-- Node4&#45;&gt;Node3 -->
<g id="edge4" class="edge"><title>Node4&#45;&gt;Node3</title>
<path fill="none" stroke="midnightblue" d="M156.282,-22.7739C134.973,-25.5478 111.358,-28.6221 91.5478,-31.2009"/>
<polygon fill="midnightblue" stroke="midnightblue" points="156.744,-26.2434 166.208,-21.4817 155.84,-19.302 156.744,-26.2434"/>
</g>
</g>
</svg>
