<?xml version="1.0" encoding="UTF-8" standalone="no"?>
<!DOCTYPE svg PUBLIC "-//W3C//DTD SVG 1.1//EN"
 "http://www.w3.org/Graphics/SVG/1.1/DTD/svg11.dtd">
<!-- Generated by graphviz version 2.30.1 (20170916.1124)
 -->
<!-- Title: mom_legacy_barotropic::apply_velocity_obcs Pages: 1 -->
<svg width="248pt" height="87pt"
 viewBox="0.00 0.00 248.00 87.00" xmlns="http://www.w3.org/2000/svg" xmlns:xlink="http://www.w3.org/1999/xlink">
<g id="graph0" class="graph" transform="scale(1 1) rotate(0) translate(4 83)">
<title>mom_legacy_barotropic::apply_velocity_obcs</title>
<polygon fill="white" stroke="white" points="-4,5 -4,-83 245,-83 245,5 -4,5"/>
<!-- Node3 -->
<g id="node1" class="node"><title>Node3</title>
<g id="a_node1"><a xlink:title=" ">
<polygon fill="#bfbfbf" stroke="black" points="0,-24 0,-54 102,-54 102,-24 0,-24"/>
<text text-anchor="start" x="8" y="-42" font-family="Helvetica,sans-Serif" font-size="10.00">mom_legacy_barotropic</text>
<text text-anchor="middle" x="51" y="-31" font-family="Helvetica,sans-Serif" font-size="10.00">::apply_velocity_obcs</text>
</a>
</g>
</g>
<!-- Node4 -->
<g id="node2" class="node"><title>Node4</title>
<g id="a_node2"><a xlink:href="namespacemom__legacy__barotropic.html#a6089379e215508c9dd32d0b3819dbbe7" target="_top" xlink:title=" ">
<polygon fill="white" stroke="black" points="138,-49 138,-79 240,-79 240,-49 138,-49"/>
<text text-anchor="start" x="146" y="-67" font-family="Helvetica,sans-Serif" font-size="10.00">mom_legacy_barotropic</text>
<text text-anchor="middle" x="189" y="-56" font-family="Helvetica,sans-Serif" font-size="10.00">::find_uhbt</text>
</a>
</g>
</g>
<!-- Node3&#45;&gt;Node4 -->
<g id="edge1" class="edge"><title>Node3&#45;&gt;Node4</title>
<path fill="none" stroke="midnightblue" d="M102.255,-48.238C110.63,-49.7776 119.392,-51.3882 127.981,-52.9671"/>
<polygon fill="midnightblue" stroke="midnightblue" points="127.484,-56.4342 137.952,-54.7999 128.749,-49.5496 127.484,-56.4342"/>
</g>
<!-- Node5 -->
<g id="node3" class="node"><title>Node5</title>
<g id="a_node3"><a xlink:href="namespacemom__legacy__barotropic.html#a381d788c4648d9b4aa94a12319623030" target="_top" xlink:title=" ">
<polygon fill="white" stroke="black" points="138,-0 138,-30 240,-30 240,-0 138,-0"/>
<text text-anchor="start" x="146" y="-18" font-family="Helvetica,sans-Serif" font-size="10.00">mom_legacy_barotropic</text>
<text text-anchor="middle" x="189" y="-7" font-family="Helvetica,sans-Serif" font-size="10.00">::find_vhbt</text>
</a>
</g>
</g>
<!-- Node3&#45;&gt;Node5 -->
<g id="edge2" class="edge"><title>Node3&#45;&gt;Node5</title>
<path fill="none" stroke="midnightblue" d="M102.255,-30.1315C110.63,-28.6535 119.392,-27.1073 127.981,-25.5916"/>
<polygon fill="midnightblue" stroke="midnightblue" points="128.712,-29.0168 137.952,-23.8321 127.495,-22.1233 128.712,-29.0168"/>
</g>
</g>
</svg>
