<?xml version="1.0" encoding="UTF-8" standalone="no"?>
<!DOCTYPE svg PUBLIC "-//W3C//DTD SVG 1.1//EN"
 "http://www.w3.org/Graphics/SVG/1.1/DTD/svg11.dtd">
<!-- Generated by graphviz version 2.30.1 (20170916.1124)
 -->
<!-- Title: ppm_functions::ppm_reconstruction Pages: 1 -->
<svg width="1128pt" height="410pt"
 viewBox="0.00 0.00 1128.00 410.00" xmlns="http://www.w3.org/2000/svg" xmlns:xlink="http://www.w3.org/1999/xlink">
<g id="graph0" class="graph" transform="scale(1 1) rotate(0) translate(4 406)">
<title>ppm_functions::ppm_reconstruction</title>
<polygon fill="white" stroke="white" points="-4,5 -4,-406 1125,-406 1125,5 -4,5"/>
<!-- Node67 -->
<g id="node1" class="node"><title>Node67</title>
<g id="a_node1"><a xlink:title="Builds quadratic polynomials coefficients from cell mean and edge values.">
<polygon fill="#bfbfbf" stroke="black" points="1030.5,-161 1030.5,-191 1119.5,-191 1119.5,-161 1030.5,-161"/>
<text text-anchor="start" x="1038.5" y="-179" font-family="Helvetica,sans-Serif" font-size="10.00">ppm_functions::ppm</text>
<text text-anchor="middle" x="1075" y="-168" font-family="Helvetica,sans-Serif" font-size="10.00">_reconstruction</text>
</a>
</g>
</g>
<!-- Node68 -->
<g id="node2" class="node"><title>Node68</title>
<g id="a_node2"><a xlink:href="namespacemom__remapping.html#a07d7276310f329f56560a1290bcb8b0a" target="_top" xlink:title="Creates polynomial reconstructions of u0 on the source grid h0.">
<polygon fill="white" stroke="black" points="875,-224 875,-254 973,-254 973,-224 875,-224"/>
<text text-anchor="start" x="883" y="-242" font-family="Helvetica,sans-Serif" font-size="10.00">mom_remapping::build</text>
<text text-anchor="middle" x="924" y="-231" font-family="Helvetica,sans-Serif" font-size="10.00">_reconstructions_1d</text>
</a>
</g>
</g>
<!-- Node67&#45;&gt;Node68 -->
<g id="edge1" class="edge"><title>Node67&#45;&gt;Node68</title>
<path fill="none" stroke="midnightblue" d="M1034.85,-195.516C1021.96,-201.694 1007.47,-208.375 994,-214 985.887,-217.387 977.135,-220.765 968.678,-223.892"/>
<polygon fill="midnightblue" stroke="midnightblue" points="1036.44,-198.634 1043.92,-191.128 1033.39,-192.333 1036.44,-198.634"/>
</g>
<!-- Node86 -->
<g id="node20" class="node"><title>Node86</title>
<g id="a_node20"><a xlink:href="namespacemom__ale.html#aea1b73dedf1ae5f3db9fa0a6aa6ebaa0" target="_top" xlink:title="Use ppm reconstruction for pressure gradient (determine edge values) By using a PPM (limited piecewis...">
<polygon fill="white" stroke="black" points="854,-185.5 854,-204.5 994,-204.5 994,-185.5 854,-185.5"/>
<text text-anchor="middle" x="924" y="-192.5" font-family="Helvetica,sans-Serif" font-size="10.00">mom_ale::pressure_gradient_ppm</text>
</a>
</g>
</g>
<!-- Node67&#45;&gt;Node86 -->
<g id="edge21" class="edge"><title>Node67&#45;&gt;Node86</title>
<path fill="none" stroke="midnightblue" d="M1020.02,-182.883C1011.57,-183.96 1002.75,-185.086 994.021,-186.199"/>
<polygon fill="midnightblue" stroke="midnightblue" points="1020.62,-186.335 1030.1,-181.598 1019.74,-179.391 1020.62,-186.335"/>
</g>
<!-- Node87 -->
<g id="node21" class="node"><title>Node87</title>
<g id="a_node21"><a xlink:href="namespacemom__regridding.html#a580e775df53e4bb61f118fcab44a3f92" target="_top" xlink:title="Given the set of target values and cell densities, this routine builds an interpolated profile for th...">
<polygon fill="white" stroke="black" points="866,-74 866,-104 982,-104 982,-74 866,-74"/>
<text text-anchor="start" x="874" y="-92" font-family="Helvetica,sans-Serif" font-size="10.00">mom_regridding::regridding</text>
<text text-anchor="middle" x="924" y="-81" font-family="Helvetica,sans-Serif" font-size="10.00">_set_ppolys</text>
</a>
</g>
</g>
<!-- Node67&#45;&gt;Node87 -->
<g id="edge22" class="edge"><title>Node67&#45;&gt;Node87</title>
<path fill="none" stroke="midnightblue" d="M1039.3,-155.736C1012.28,-139.963 975.385,-118.42 950.906,-104.126"/>
<polygon fill="midnightblue" stroke="midnightblue" points="1037.65,-158.826 1048.05,-160.846 1041.18,-152.781 1037.65,-158.826"/>
</g>
<!-- Node84 -->
<g id="node18" class="node"><title>Node84</title>
<g id="a_node18"><a xlink:href="namespacemom__remapping.html#a8a79c37c89f8b800f79198aceca5f090" target="_top" xlink:title="Runs unit tests on remapping functions. Should only be called from a single/root thread Returns True ...">
<polygon fill="white" stroke="black" points="542,-142 542,-172 662,-172 662,-142 542,-142"/>
<text text-anchor="start" x="550" y="-160" font-family="Helvetica,sans-Serif" font-size="10.00">mom_remapping::remapping</text>
<text text-anchor="middle" x="602" y="-149" font-family="Helvetica,sans-Serif" font-size="10.00">_unit_tests</text>
</a>
</g>
</g>
<!-- Node67&#45;&gt;Node84 -->
<g id="edge33" class="edge"><title>Node67&#45;&gt;Node84</title>
<path fill="none" stroke="midnightblue" d="M1019.97,-173.821C931.048,-170.233 754.531,-163.113 662.283,-159.391"/>
<polygon fill="midnightblue" stroke="midnightblue" points="1019.98,-177.324 1030.11,-174.23 1020.26,-170.329 1019.98,-177.324"/>
</g>
<!-- Node69 -->
<g id="node3" class="node"><title>Node69</title>
<g id="a_node3"><a xlink:href="namespacemom__remapping.html#a6d1533ffa647f3305aba055e2685b095" target="_top" xlink:title="Remaps column of values u0 on grid h0 to grid h1 assuming the top edge is aligned.">
<polygon fill="white" stroke="black" points="698,-257 698,-287 818,-287 818,-257 698,-257"/>
<text text-anchor="start" x="706" y="-275" font-family="Helvetica,sans-Serif" font-size="10.00">mom_remapping::remapping</text>
<text text-anchor="middle" x="758" y="-264" font-family="Helvetica,sans-Serif" font-size="10.00">_core_h</text>
</a>
</g>
</g>
<!-- Node68&#45;&gt;Node69 -->
<g id="edge2" class="edge"><title>Node68&#45;&gt;Node69</title>
<path fill="none" stroke="midnightblue" d="M864.449,-250.782C849.361,-253.818 833.116,-257.086 818.005,-260.127"/>
<polygon fill="midnightblue" stroke="midnightblue" points="865.569,-254.127 874.682,-248.723 864.188,-247.264 865.569,-254.127"/>
</g>
<!-- Node83 -->
<g id="node17" class="node"><title>Node83</title>
<g id="a_node17"><a xlink:href="namespacemom__remapping.html#a8b967872b8db2ac7d538991f7f255e56" target="_top" xlink:title="Remaps column of values u0 on grid h0 to implied grid h1 where the interfaces of h1 differ from those...">
<polygon fill="white" stroke="black" points="698,-208 698,-238 818,-238 818,-208 698,-208"/>
<text text-anchor="start" x="706" y="-226" font-family="Helvetica,sans-Serif" font-size="10.00">mom_remapping::remapping</text>
<text text-anchor="middle" x="758" y="-215" font-family="Helvetica,sans-Serif" font-size="10.00">_core_w</text>
</a>
</g>
</g>
<!-- Node68&#45;&gt;Node83 -->
<g id="edge17" class="edge"><title>Node68&#45;&gt;Node83</title>
<path fill="none" stroke="midnightblue" d="M864.449,-233.288C849.361,-231.816 833.116,-230.231 818.005,-228.757"/>
<polygon fill="midnightblue" stroke="midnightblue" points="864.389,-236.798 874.682,-234.286 865.069,-229.831 864.389,-236.798"/>
</g>
<!-- Node70 -->
<g id="node4" class="node"><title>Node70</title>
<g id="a_node4"><a xlink:href="namespacemom__ale__sponge.html#a8f6e6db99f860b048a58e97e58c101a6" target="_top" xlink:title="This subroutine applies damping to the layers thicknesses, temp, salt and a variety of tracers for ev...">
<polygon fill="white" stroke="black" points="550,-355 550,-385 654,-385 654,-355 550,-355"/>
<text text-anchor="start" x="558" y="-373" font-family="Helvetica,sans-Serif" font-size="10.00">mom_ale_sponge::apply</text>
<text text-anchor="middle" x="602" y="-362" font-family="Helvetica,sans-Serif" font-size="10.00">_ale_sponge</text>
</a>
</g>
</g>
<!-- Node69&#45;&gt;Node70 -->
<g id="edge3" class="edge"><title>Node69&#45;&gt;Node70</title>
<path fill="none" stroke="midnightblue" d="M732.436,-293.687C713.948,-309.29 687.512,-330.121 662,-345 655.85,-348.587 649.087,-351.943 642.403,-354.959"/>
<polygon fill="midnightblue" stroke="midnightblue" points="734.767,-296.299 740.092,-287.14 730.217,-290.979 734.767,-296.299"/>
</g>
<!-- Node72 -->
<g id="node6" class="node"><title>Node72</title>
<g id="a_node6"><a xlink:href="namespacemom__state__initialization.html#a71ee3c056ca59c1c3529a4ec22e09fe3" target="_top" xlink:title="Adjust the layer thicknesses by cutting away the top at the depth where the hydrostatic pressure matc...">
<polygon fill="white" stroke="black" points="551.5,-208 551.5,-238 652.5,-238 652.5,-208 551.5,-208"/>
<text text-anchor="start" x="559.5" y="-226" font-family="Helvetica,sans-Serif" font-size="10.00">mom_state_initialization</text>
<text text-anchor="middle" x="602" y="-215" font-family="Helvetica,sans-Serif" font-size="10.00">::cut_off_column_top</text>
</a>
</g>
</g>
<!-- Node69&#45;&gt;Node72 -->
<g id="edge5" class="edge"><title>Node69&#45;&gt;Node72</title>
<path fill="none" stroke="midnightblue" d="M699.614,-253.741C683.371,-248.573 665.881,-243.008 650.305,-238.052"/>
<polygon fill="midnightblue" stroke="midnightblue" points="698.948,-257.202 709.538,-256.899 701.07,-250.531 698.948,-257.202"/>
</g>
<!-- Node78 -->
<g id="node12" class="node"><title>Node78</title>
<g id="a_node12"><a xlink:href="namespacemom__diag__remap.html#a4b76283906971bcb94e85c0ed25f4e7b" target="_top" xlink:title="Remap diagnostic field to alternative vertical grid.">
<polygon fill="white" stroke="black" points="551.5,-257 551.5,-287 652.5,-287 652.5,-257 551.5,-257"/>
<text text-anchor="start" x="559.5" y="-275" font-family="Helvetica,sans-Serif" font-size="10.00">mom_diag_remap::diag</text>
<text text-anchor="middle" x="602" y="-264" font-family="Helvetica,sans-Serif" font-size="10.00">_remap_do_remap</text>
</a>
</g>
</g>
<!-- Node69&#45;&gt;Node78 -->
<g id="edge11" class="edge"><title>Node69&#45;&gt;Node78</title>
<path fill="none" stroke="midnightblue" d="M687.635,-272C675.851,-272 663.827,-272 652.68,-272"/>
<polygon fill="midnightblue" stroke="midnightblue" points="687.9,-275.5 697.9,-272 687.9,-268.5 687.9,-275.5"/>
</g>
<!-- Node79 -->
<g id="node13" class="node"><title>Node79</title>
<g id="a_node13"><a xlink:href="namespacemom__wave__speed.html#a72302e356c47c5055ba0b1a8714c772a" target="_top" xlink:title="Calculates the wave speed of the first baroclinic mode.">
<polygon fill="white" stroke="black" points="548.5,-306 548.5,-336 655.5,-336 655.5,-306 548.5,-306"/>
<text text-anchor="start" x="556.5" y="-324" font-family="Helvetica,sans-Serif" font-size="10.00">mom_wave_speed::wave</text>
<text text-anchor="middle" x="602" y="-313" font-family="Helvetica,sans-Serif" font-size="10.00">_speed</text>
</a>
</g>
</g>
<!-- Node69&#45;&gt;Node79 -->
<g id="edge12" class="edge"><title>Node69&#45;&gt;Node79</title>
<path fill="none" stroke="midnightblue" d="M699.614,-290.259C683.371,-295.427 665.881,-300.992 650.305,-305.948"/>
<polygon fill="midnightblue" stroke="midnightblue" points="701.07,-293.469 709.538,-287.101 698.948,-286.798 701.07,-293.469"/>
</g>
<!-- Node71 -->
<g id="node5" class="node"><title>Node71</title>
<g id="a_node5"><a xlink:href="namespacemom__diabatic__driver.html#a61e57d3902367aa46aa3c2d949ee900f" target="_top" xlink:title="This subroutine imposes the diapycnal mass fluxes and the accompanying diapycnal advection of momentu...">
<polygon fill="white" stroke="black" points="403.5,-372 403.5,-402 494.5,-402 494.5,-372 403.5,-372"/>
<text text-anchor="start" x="411.5" y="-390" font-family="Helvetica,sans-Serif" font-size="10.00">mom_diabatic_driver</text>
<text text-anchor="middle" x="449" y="-379" font-family="Helvetica,sans-Serif" font-size="10.00">::diabatic</text>
</a>
</g>
</g>
<!-- Node70&#45;&gt;Node71 -->
<g id="edge4" class="edge"><title>Node70&#45;&gt;Node71</title>
<path fill="none" stroke="midnightblue" d="M539.585,-376.914C524.493,-378.613 508.621,-380.4 494.501,-381.99"/>
<polygon fill="midnightblue" stroke="midnightblue" points="540.333,-380.352 549.878,-375.755 539.549,-373.396 540.333,-380.352"/>
</g>
<!-- Node73 -->
<g id="node7" class="node"><title>Node73</title>
<g id="a_node7"><a xlink:href="namespacemom__state__initialization.html#a5c77bf2b0ea9d28e28b661a2a42d3f88" target="_top" xlink:title="Run simple unit tests.">
<polygon fill="white" stroke="black" points="398.5,-235 398.5,-265 499.5,-265 499.5,-235 398.5,-235"/>
<text text-anchor="start" x="406.5" y="-253" font-family="Helvetica,sans-Serif" font-size="10.00">mom_state_initialization</text>
<text text-anchor="middle" x="449" y="-242" font-family="Helvetica,sans-Serif" font-size="10.00">::mom_state_init_tests</text>
</a>
</g>
</g>
<!-- Node72&#45;&gt;Node73 -->
<g id="edge6" class="edge"><title>Node72&#45;&gt;Node73</title>
<path fill="none" stroke="midnightblue" d="M541.238,-233.686C527.424,-236.156 512.874,-238.758 499.552,-241.14"/>
<polygon fill="midnightblue" stroke="midnightblue" points="541.911,-237.121 551.138,-231.916 540.679,-230.231 541.911,-237.121"/>
</g>
<!-- Node74 -->
<g id="node8" class="node"><title>Node74</title>
<g id="a_node8"><a xlink:href="namespacemom__state__initialization.html#acc1029776c1bdda2862ed0f95c8dc640" target="_top" xlink:title="Adjust the layer thicknesses by cutting away the top of each model column at the depth where the hydr...">
<polygon fill="white" stroke="black" points="398.5,-186 398.5,-216 499.5,-216 499.5,-186 398.5,-186"/>
<text text-anchor="start" x="406.5" y="-204" font-family="Helvetica,sans-Serif" font-size="10.00">mom_state_initialization</text>
<text text-anchor="middle" x="449" y="-193" font-family="Helvetica,sans-Serif" font-size="10.00">::trim_for_ice</text>
</a>
</g>
</g>
<!-- Node72&#45;&gt;Node74 -->
<g id="edge7" class="edge"><title>Node72&#45;&gt;Node74</title>
<path fill="none" stroke="midnightblue" d="M541.238,-214.293C527.424,-212.28 512.874,-210.16 499.552,-208.219"/>
<polygon fill="midnightblue" stroke="midnightblue" points="540.738,-217.757 551.138,-215.735 541.748,-210.83 540.738,-217.757"/>
</g>
<!-- Node75 -->
<g id="node9" class="node"><title>Node75</title>
<g id="a_node9"><a xlink:href="namespacemom__state__initialization.html#af4e854627c6572332ba3fd895f169321" target="_top" xlink:title=" ">
<polygon fill="white" stroke="black" points="236.5,-186 236.5,-216 337.5,-216 337.5,-186 236.5,-186"/>
<text text-anchor="start" x="244.5" y="-204" font-family="Helvetica,sans-Serif" font-size="10.00">mom_state_initialization</text>
<text text-anchor="middle" x="287" y="-193" font-family="Helvetica,sans-Serif" font-size="10.00">::mom_initialize_state</text>
</a>
</g>
</g>
<!-- Node74&#45;&gt;Node75 -->
<g id="edge8" class="edge"><title>Node74&#45;&gt;Node75</title>
<path fill="none" stroke="midnightblue" d="M388.104,-201C371.503,-201 353.668,-201 337.717,-201"/>
<polygon fill="midnightblue" stroke="midnightblue" points="388.252,-204.5 398.252,-201 388.252,-197.5 388.252,-204.5"/>
</g>
<!-- Node76 -->
<g id="node10" class="node"><title>Node76</title>
<g id="a_node10"><a xlink:href="namespacemom.html#a0be2869fef30e1e0604facfe1b41555d" target="_top" xlink:title="This subroutine initializes MOM.">
<polygon fill="white" stroke="black" points="92.5,-191.5 92.5,-210.5 181.5,-210.5 181.5,-191.5 92.5,-191.5"/>
<text text-anchor="middle" x="137" y="-198.5" font-family="Helvetica,sans-Serif" font-size="10.00">mom::initialize_mom</text>
</a>
</g>
</g>
<!-- Node75&#45;&gt;Node76 -->
<g id="edge9" class="edge"><title>Node75&#45;&gt;Node76</title>
<path fill="none" stroke="midnightblue" d="M226.199,-201C211.373,-201 195.756,-201 181.853,-201"/>
<polygon fill="midnightblue" stroke="midnightblue" points="226.306,-204.5 236.306,-201 226.306,-197.5 226.306,-204.5"/>
</g>
<!-- Node77 -->
<g id="node11" class="node"><title>Node77</title>
<g id="a_node11"><a xlink:href="MOM__driver_8F90.html#a08fffeb2d8e8acbf9ed4609be6d258c6" target="_top" xlink:title=" ">
<polygon fill="white" stroke="black" points="0,-225.5 0,-244.5 56,-244.5 56,-225.5 0,-225.5"/>
<text text-anchor="middle" x="28" y="-232.5" font-family="Helvetica,sans-Serif" font-size="10.00">mom_main</text>
</a>
</g>
</g>
<!-- Node76&#45;&gt;Node77 -->
<g id="edge10" class="edge"><title>Node76&#45;&gt;Node77</title>
<path fill="none" stroke="midnightblue" d="M96.0683,-213.689C82.8188,-217.899 68.3805,-222.487 56.3056,-226.323"/>
<polygon fill="midnightblue" stroke="midnightblue" points="97.4393,-216.925 105.91,-210.561 95.3194,-210.254 97.4393,-216.925"/>
</g>
<!-- Node80 -->
<g id="node14" class="node"><title>Node80</title>
<g id="a_node14"><a xlink:href="namespacemom__lateral__mixing__coeffs.html#af206bc656869b4fc27d4d7e8a15d438e" target="_top" xlink:title="Calculates and stores the non&#45;dimensional resolution functions.">
<polygon fill="white" stroke="black" points="243,-278.5 243,-319.5 331,-319.5 331,-278.5 243,-278.5"/>
<text text-anchor="start" x="251" y="-307.5" font-family="Helvetica,sans-Serif" font-size="10.00">mom_lateral_mixing</text>
<text text-anchor="start" x="251" y="-296.5" font-family="Helvetica,sans-Serif" font-size="10.00">_coeffs::calc_resoln</text>
<text text-anchor="middle" x="287" y="-285.5" font-family="Helvetica,sans-Serif" font-size="10.00">_function</text>
</a>
</g>
</g>
<!-- Node79&#45;&gt;Node80 -->
<g id="edge13" class="edge"><title>Node79&#45;&gt;Node80</title>
<path fill="none" stroke="midnightblue" d="M538.097,-322.511C527.388,-322.715 516.376,-322.891 506,-323 455.336,-323.533 442.341,-328.733 392,-323 371.748,-320.694 349.698,-315.938 331.135,-311.264"/>
<polygon fill="midnightblue" stroke="midnightblue" points="538.313,-326.007 548.241,-322.308 538.173,-319.009 538.313,-326.007"/>
</g>
<!-- Node82 -->
<g id="node16" class="node"><title>Node82</title>
<g id="a_node16"><a xlink:href="namespacemom__diagnostics.html#abb6644248c28ab2e952361bfec436063" target="_top" xlink:title=" ">
<polygon fill="white" stroke="black" points="392.5,-284 392.5,-314 505.5,-314 505.5,-284 392.5,-284"/>
<text text-anchor="start" x="400.5" y="-302" font-family="Helvetica,sans-Serif" font-size="10.00">mom_diagnostics::calculate</text>
<text text-anchor="middle" x="449" y="-291" font-family="Helvetica,sans-Serif" font-size="10.00">_diagnostic_fields</text>
</a>
</g>
</g>
<!-- Node79&#45;&gt;Node82 -->
<g id="edge16" class="edge"><title>Node79&#45;&gt;Node82</title>
<path fill="none" stroke="midnightblue" d="M538.011,-311.823C527.255,-310.256 516.15,-308.638 505.604,-307.101"/>
<polygon fill="midnightblue" stroke="midnightblue" points="537.787,-315.327 548.188,-313.305 538.797,-308.4 537.787,-315.327"/>
</g>
<!-- Node81 -->
<g id="node15" class="node"><title>Node81</title>
<g id="a_node15"><a xlink:href="namespacemom.html#a4c8332b095c6d295084089aa6b3b678a" target="_top" xlink:title="This subroutine orchestrates the time stepping of MOM. The adiabatic dynamics are stepped by calls to...">
<polygon fill="white" stroke="black" points="98.5,-259.5 98.5,-278.5 175.5,-278.5 175.5,-259.5 98.5,-259.5"/>
<text text-anchor="middle" x="137" y="-266.5" font-family="Helvetica,sans-Serif" font-size="10.00">mom::step_mom</text>
</a>
</g>
</g>
<!-- Node80&#45;&gt;Node81 -->
<g id="edge14" class="edge"><title>Node80&#45;&gt;Node81</title>
<path fill="none" stroke="midnightblue" d="M232.871,-288.231C214.054,-284.416 193.277,-280.205 175.976,-276.698"/>
<polygon fill="midnightblue" stroke="midnightblue" points="232.298,-291.686 242.794,-290.242 233.689,-284.825 232.298,-291.686"/>
</g>
<!-- Node81&#45;&gt;Node77 -->
<g id="edge15" class="edge"><title>Node81&#45;&gt;Node77</title>
<path fill="none" stroke="midnightblue" d="M96.0683,-256.311C82.8188,-252.101 68.3805,-247.513 56.3056,-243.677"/>
<polygon fill="midnightblue" stroke="midnightblue" points="95.3194,-259.746 105.91,-259.439 97.4393,-253.075 95.3194,-259.746"/>
</g>
<!-- Node83&#45;&gt;Node84 -->
<g id="edge18" class="edge"><title>Node83&#45;&gt;Node84</title>
<path fill="none" stroke="midnightblue" d="M712.232,-203.814C688.649,-193.707 660.143,-181.49 638.166,-172.071"/>
<polygon fill="midnightblue" stroke="midnightblue" points="711.099,-207.136 721.669,-207.858 713.857,-200.702 711.099,-207.136"/>
</g>
<!-- Node85 -->
<g id="node19" class="node"><title>Node85</title>
<g id="a_node19"><a xlink:href="namespacemom.html#ae77cfd2e790f1266b31d93c58659d46c" target="_top" xlink:title="Calls unit tests for other modules. These are NOT normally invoked and so we provide the module use s...">
<polygon fill="white" stroke="black" points="250.5,-147.5 250.5,-166.5 323.5,-166.5 323.5,-147.5 250.5,-147.5"/>
<text text-anchor="middle" x="287" y="-154.5" font-family="Helvetica,sans-Serif" font-size="10.00">mom::unit_tests</text>
</a>
</g>
</g>
<!-- Node84&#45;&gt;Node85 -->
<g id="edge19" class="edge"><title>Node84&#45;&gt;Node85</title>
<path fill="none" stroke="midnightblue" d="M531.688,-157C467.323,-157 374.062,-157 323.619,-157"/>
<polygon fill="midnightblue" stroke="midnightblue" points="531.759,-160.5 541.759,-157 531.759,-153.5 531.759,-160.5"/>
</g>
<!-- Node85&#45;&gt;Node76 -->
<g id="edge20" class="edge"><title>Node85&#45;&gt;Node76</title>
<path fill="none" stroke="midnightblue" d="M241.314,-169.277C233.53,-171.475 225.521,-173.775 218,-176 201.396,-180.913 182.942,-186.66 167.946,-191.405"/>
<polygon fill="midnightblue" stroke="midnightblue" points="242.315,-172.631 250.999,-166.56 240.425,-165.891 242.315,-172.631"/>
</g>
<!-- Node88 -->
<g id="node22" class="node"><title>Node88</title>
<g id="a_node22"><a xlink:href="namespacemom__regridding.html#acbe376c457e1ea0c4514b948cbf5144b" target="_top" xlink:title=" ">
<polygon fill="white" stroke="black" points="710,-0 710,-30 806,-30 806,-0 710,-0"/>
<text text-anchor="start" x="718" y="-18" font-family="Helvetica,sans-Serif" font-size="10.00">mom_regridding::build</text>
<text text-anchor="middle" x="758" y="-7" font-family="Helvetica,sans-Serif" font-size="10.00">_hycom1_column</text>
</a>
</g>
</g>
<!-- Node87&#45;&gt;Node88 -->
<g id="edge23" class="edge"><title>Node87&#45;&gt;Node88</title>
<path fill="none" stroke="midnightblue" d="M883.231,-69.3936C863.702,-59.9372 839.75,-48.5925 818,-39 811.221,-36.0102 803.949,-32.9415 796.907,-30.0399"/>
<polygon fill="midnightblue" stroke="midnightblue" points="881.91,-72.643 892.434,-73.8681 884.971,-66.3477 881.91,-72.643"/>
</g>
<!-- Node91 -->
<g id="node25" class="node"><title>Node91</title>
<g id="a_node25"><a xlink:href="namespacemom__regridding.html#a799aacb5c6e7ab70f8177ca8b4a5330b" target="_top" xlink:title=" ">
<polygon fill="white" stroke="black" points="710,-98 710,-128 806,-128 806,-98 710,-98"/>
<text text-anchor="start" x="718" y="-116" font-family="Helvetica,sans-Serif" font-size="10.00">mom_regridding::build</text>
<text text-anchor="middle" x="758" y="-105" font-family="Helvetica,sans-Serif" font-size="10.00">_rho_column</text>
</a>
</g>
</g>
<!-- Node87&#45;&gt;Node91 -->
<g id="edge26" class="edge"><title>Node87&#45;&gt;Node91</title>
<path fill="none" stroke="midnightblue" d="M855.435,-98.8875C838.835,-101.317 821.419,-103.865 806.027,-106.118"/>
<polygon fill="midnightblue" stroke="midnightblue" points="856.253,-102.305 865.641,-97.394 855.239,-95.379 856.253,-102.305"/>
</g>
<!-- Node93 -->
<g id="node27" class="node"><title>Node93</title>
<g id="a_node27"><a xlink:href="namespacemom__regridding.html#aacf680ddf88e9c41a340dd426272906d" target="_top" xlink:title="Finds the new interface locations in a column of water that match the prescribed target densities.">
<polygon fill="white" stroke="black" points="712,-49 712,-79 804,-79 804,-49 712,-49"/>
<text text-anchor="start" x="720" y="-67" font-family="Helvetica,sans-Serif" font-size="10.00">mom_regridding::rho</text>
<text text-anchor="middle" x="758" y="-56" font-family="Helvetica,sans-Serif" font-size="10.00">_interfaces_col</text>
</a>
</g>
</g>
<!-- Node87&#45;&gt;Node93 -->
<g id="edge29" class="edge"><title>Node87&#45;&gt;Node93</title>
<path fill="none" stroke="midnightblue" d="M855.578,-78.7222C838.27,-76.0838 820.066,-73.3088 804.187,-70.8882"/>
<polygon fill="midnightblue" stroke="midnightblue" points="855.227,-82.2092 865.641,-80.2562 856.282,-75.2891 855.227,-82.2092"/>
</g>
<!-- Node89 -->
<g id="node23" class="node"><title>Node89</title>
<g id="a_node23"><a xlink:href="namespacemom__regridding.html#a3375da62433b875eed537feeba1ae1b3" target="_top" xlink:title="Builds a simple HyCOM&#45;like grid with the deepest location of potential density interpolated from the ...">
<polygon fill="white" stroke="black" points="401,-0 401,-30 497,-30 497,-0 401,-0"/>
<text text-anchor="start" x="409" y="-18" font-family="Helvetica,sans-Serif" font-size="10.00">mom_regridding::build</text>
<text text-anchor="middle" x="449" y="-7" font-family="Helvetica,sans-Serif" font-size="10.00">_grid_hycom1</text>
</a>
</g>
</g>
<!-- Node88&#45;&gt;Node89 -->
<g id="edge24" class="edge"><title>Node88&#45;&gt;Node89</title>
<path fill="none" stroke="midnightblue" d="M699.522,-15C641.051,-15 551.515,-15 497.098,-15"/>
<polygon fill="midnightblue" stroke="midnightblue" points="699.704,-18.5001 709.704,-15 699.704,-11.5001 699.704,-18.5001"/>
</g>
<!-- Node90 -->
<g id="node24" class="node"><title>Node90</title>
<g id="a_node24"><a xlink:href="namespacemom__regridding.html#abf6d4e0d14c8b3b69fa4ffca42122c5f" target="_top" xlink:title=" ">
<polygon fill="white" stroke="black" points="218.5,-54.5 218.5,-73.5 355.5,-73.5 355.5,-54.5 218.5,-54.5"/>
<text text-anchor="middle" x="287" y="-61.5" font-family="Helvetica,sans-Serif" font-size="10.00">mom_regridding::regridding_main</text>
</a>
</g>
</g>
<!-- Node89&#45;&gt;Node90 -->
<g id="edge25" class="edge"><title>Node89&#45;&gt;Node90</title>
<path fill="none" stroke="midnightblue" d="M391.055,-32.4393C366.847,-39.8532 339.558,-48.2102 319.146,-54.4615"/>
<polygon fill="midnightblue" stroke="midnightblue" points="392.323,-35.7115 400.86,-29.4366 390.274,-29.0183 392.323,-35.7115"/>
</g>
<!-- Node92 -->
<g id="node26" class="node"><title>Node92</title>
<g id="a_node26"><a xlink:href="namespacemom__regridding.html#a58a19305bbdab26bfa4f336dfac8c4f8" target="_top" xlink:title=" ">
<polygon fill="white" stroke="black" points="401,-98 401,-128 497,-128 497,-98 401,-98"/>
<text text-anchor="start" x="409" y="-116" font-family="Helvetica,sans-Serif" font-size="10.00">mom_regridding::build</text>
<text text-anchor="middle" x="449" y="-105" font-family="Helvetica,sans-Serif" font-size="10.00">_rho_grid</text>
</a>
</g>
</g>
<!-- Node91&#45;&gt;Node92 -->
<g id="edge27" class="edge"><title>Node91&#45;&gt;Node92</title>
<path fill="none" stroke="midnightblue" d="M699.522,-113C641.051,-113 551.515,-113 497.098,-113"/>
<polygon fill="midnightblue" stroke="midnightblue" points="699.704,-116.5 709.704,-113 699.704,-109.5 699.704,-116.5"/>
</g>
<!-- Node92&#45;&gt;Node90 -->
<g id="edge28" class="edge"><title>Node92&#45;&gt;Node90</title>
<path fill="none" stroke="midnightblue" d="M391.055,-95.5607C366.847,-88.1468 339.558,-79.7898 319.146,-73.5385"/>
<polygon fill="midnightblue" stroke="midnightblue" points="390.274,-98.9817 400.86,-98.5634 392.323,-92.2885 390.274,-98.9817"/>
</g>
<!-- Node94 -->
<g id="node28" class="node"><title>Node94</title>
<g id="a_node28"><a xlink:href="namespacemom__regridding.html#a5927168e530c06163baf3693a804e15f" target="_top" xlink:title=" ">
<polygon fill="white" stroke="black" points="554,-49 554,-79 650,-79 650,-49 554,-49"/>
<text text-anchor="start" x="562" y="-67" font-family="Helvetica,sans-Serif" font-size="10.00">mom_regridding::build</text>
<text text-anchor="middle" x="602" y="-56" font-family="Helvetica,sans-Serif" font-size="10.00">_slight_column</text>
</a>
</g>
</g>
<!-- Node93&#45;&gt;Node94 -->
<g id="edge30" class="edge"><title>Node93&#45;&gt;Node94</title>
<path fill="none" stroke="midnightblue" d="M701.401,-64C684.619,-64 666.364,-64 650.186,-64"/>
<polygon fill="midnightblue" stroke="midnightblue" points="701.628,-67.5001 711.628,-64 701.628,-60.5001 701.628,-67.5001"/>
</g>
<!-- Node95 -->
<g id="node29" class="node"><title>Node95</title>
<g id="a_node29"><a xlink:href="namespacemom__regridding.html#adbdde4ab6606ab76f64f57b7ee5dfdeb" target="_top" xlink:title="Builds a grid that tracks density interfaces for water that is denser than the surface density plus a...">
<polygon fill="white" stroke="black" points="401,-49 401,-79 497,-79 497,-49 401,-49"/>
<text text-anchor="start" x="409" y="-67" font-family="Helvetica,sans-Serif" font-size="10.00">mom_regridding::build</text>
<text text-anchor="middle" x="449" y="-56" font-family="Helvetica,sans-Serif" font-size="10.00">_grid_slight</text>
</a>
</g>
</g>
<!-- Node94&#45;&gt;Node95 -->
<g id="edge31" class="edge"><title>Node94&#45;&gt;Node95</title>
<path fill="none" stroke="midnightblue" d="M543.288,-64C528.056,-64 511.799,-64 497.195,-64"/>
<polygon fill="midnightblue" stroke="midnightblue" points="543.637,-67.5001 553.637,-64 543.637,-60.5001 543.637,-67.5001"/>
</g>
<!-- Node95&#45;&gt;Node90 -->
<g id="edge32" class="edge"><title>Node95&#45;&gt;Node90</title>
<path fill="none" stroke="midnightblue" d="M390.633,-64C379.261,-64 367.224,-64 355.55,-64"/>
<polygon fill="midnightblue" stroke="midnightblue" points="390.86,-67.5001 400.86,-64 390.86,-60.5001 390.86,-67.5001"/>
</g>
</g>
</svg>
