<?xml version="1.0" encoding="UTF-8" standalone="no"?>
<!DOCTYPE svg PUBLIC "-//W3C//DTD SVG 1.1//EN"
 "http://www.w3.org/Graphics/SVG/1.1/DTD/svg11.dtd">
<!-- Generated by graphviz version 2.30.1 (20170916.1124)
 -->
<!-- Title: user_surface_forcing::user_wind_forcing Pages: 1 -->
<svg width="380pt" height="87pt"
 viewBox="0.00 0.00 380.00 87.00" xmlns="http://www.w3.org/2000/svg" xmlns:xlink="http://www.w3.org/1999/xlink">
<g id="graph0" class="graph" transform="scale(1 1) rotate(0) translate(4 83)">
<title>user_surface_forcing::user_wind_forcing</title>
<polygon fill="white" stroke="white" points="-4,5 -4,-83 377,-83 377,5 -4,5"/>
<!-- Node13 -->
<g id="node1" class="node"><title>Node13</title>
<g id="a_node1"><a xlink:title=" ">
<polygon fill="#bfbfbf" stroke="black" points="0,-24 0,-54 92,-54 92,-24 0,-24"/>
<text text-anchor="start" x="8" y="-42" font-family="Helvetica,sans-Serif" font-size="10.00">user_surface_forcing</text>
<text text-anchor="middle" x="46" y="-31" font-family="Helvetica,sans-Serif" font-size="10.00">::user_wind_forcing</text>
</a>
</g>
</g>
<!-- Node14 -->
<g id="node2" class="node"><title>Node14</title>
<g id="a_node2"><a xlink:href="namespacemom__forcing__type.html#a4258a1dc8dc6733eb8269d771efe837d" target="_top" xlink:title="Conditionally allocate fields within the forcing type.">
<polygon fill="white" stroke="black" points="128,-49 128,-79 242,-79 242,-49 128,-49"/>
<text text-anchor="start" x="136" y="-67" font-family="Helvetica,sans-Serif" font-size="10.00">mom_forcing_type::allocate</text>
<text text-anchor="middle" x="185" y="-56" font-family="Helvetica,sans-Serif" font-size="10.00">_forcing_type</text>
</a>
</g>
</g>
<!-- Node13&#45;&gt;Node14 -->
<g id="edge1" class="edge"><title>Node13&#45;&gt;Node14</title>
<path fill="none" stroke="midnightblue" d="M92.2386,-47.2552C100.417,-48.7477 109.098,-50.3318 117.732,-51.9072"/>
<polygon fill="midnightblue" stroke="midnightblue" points="117.346,-55.3946 127.812,-53.7467 118.603,-48.5083 117.346,-55.3946"/>
</g>
<!-- Node16 -->
<g id="node4" class="node"><title>Node16</title>
<g id="a_node4"><a xlink:href="namespacemom__error__handler.html#a460cfb79a06c29fc249952c2a3710d67" target="_top" xlink:title=" ">
<polygon fill="white" stroke="black" points="138.5,-0 138.5,-30 231.5,-30 231.5,-0 138.5,-0"/>
<text text-anchor="start" x="146.5" y="-18" font-family="Helvetica,sans-Serif" font-size="10.00">mom_error_handler::</text>
<text text-anchor="middle" x="185" y="-7" font-family="Helvetica,sans-Serif" font-size="10.00">mom_error</text>
</a>
</g>
</g>
<!-- Node13&#45;&gt;Node16 -->
<g id="edge3" class="edge"><title>Node13&#45;&gt;Node16</title>
<path fill="none" stroke="midnightblue" d="M92.2386,-31.075C103.808,-29.0483 116.381,-26.8456 128.405,-24.7393"/>
<polygon fill="midnightblue" stroke="midnightblue" points="129.095,-28.1718 138.341,-22.9987 127.887,-21.2768 129.095,-28.1718"/>
</g>
<!-- Node15 -->
<g id="node3" class="node"><title>Node15</title>
<g id="a_node3"><a xlink:href="MOM__forcing__type_8F90.html#aede7c3d8c91ec3e8a8a3b68824a5e9e8" target="_top" xlink:title="Allocates and zeroes&#45;out array.">
<polygon fill="white" stroke="black" points="303.5,-54.5 303.5,-73.5 346.5,-73.5 346.5,-54.5 303.5,-54.5"/>
<text text-anchor="middle" x="325" y="-61.5" font-family="Helvetica,sans-Serif" font-size="10.00">myalloc</text>
</a>
</g>
</g>
<!-- Node14&#45;&gt;Node15 -->
<g id="edge2" class="edge"><title>Node14&#45;&gt;Node15</title>
<path fill="none" stroke="midnightblue" d="M242.13,-64C259.543,-64 278.091,-64 293.121,-64"/>
<polygon fill="midnightblue" stroke="midnightblue" points="293.377,-67.5001 303.377,-64 293.377,-60.5001 293.377,-67.5001"/>
</g>
<!-- Node17 -->
<g id="node5" class="node"><title>Node17</title>
<g id="a_node5"><a xlink:href="namespacemom__error__handler.html#ad5f00a53059c72fe2332d1436c80ca71" target="_top" xlink:title=" ">
<polygon fill="white" stroke="black" points="278.5,-0 278.5,-30 371.5,-30 371.5,-0 278.5,-0"/>
<text text-anchor="start" x="286.5" y="-18" font-family="Helvetica,sans-Serif" font-size="10.00">mom_error_handler::</text>
<text text-anchor="middle" x="325" y="-7" font-family="Helvetica,sans-Serif" font-size="10.00">is_root_pe</text>
</a>
</g>
</g>
<!-- Node16&#45;&gt;Node17 -->
<g id="edge4" class="edge"><title>Node16&#45;&gt;Node17</title>
<path fill="none" stroke="midnightblue" d="M231.569,-15C243.345,-15 256.155,-15 268.381,-15"/>
<polygon fill="midnightblue" stroke="midnightblue" points="268.479,-18.5001 278.479,-15 268.479,-11.5001 268.479,-18.5001"/>
</g>
</g>
</svg>
