<?xml version="1.0" encoding="UTF-8" standalone="no"?>
<!DOCTYPE svg PUBLIC "-//W3C//DTD SVG 1.1//EN"
 "http://www.w3.org/Graphics/SVG/1.1/DTD/svg11.dtd">
<!-- Generated by graphviz version 2.30.1 (20170916.1124)
 -->
<!-- Title: mom_dynamics_unsplit::register_restarts_dyn_unsplit Pages: 1 -->
<svg width="368pt" height="87pt"
 viewBox="0.00 0.00 368.00 87.00" xmlns="http://www.w3.org/2000/svg" xmlns:xlink="http://www.w3.org/1999/xlink">
<g id="graph0" class="graph" transform="scale(1 1) rotate(0) translate(4 83)">
<title>mom_dynamics_unsplit::register_restarts_dyn_unsplit</title>
<polygon fill="white" stroke="white" points="-4,5 -4,-83 365,-83 365,5 -4,5"/>
<!-- Node30 -->
<g id="node1" class="node"><title>Node30</title>
<g id="a_node1"><a xlink:title=" ">
<polygon fill="#bfbfbf" stroke="black" points="0.5,-18.5 0.5,-59.5 99.5,-59.5 99.5,-18.5 0.5,-18.5"/>
<text text-anchor="start" x="8.5" y="-47.5" font-family="Helvetica,sans-Serif" font-size="10.00">mom_dynamics_unsplit</text>
<text text-anchor="start" x="8.5" y="-36.5" font-family="Helvetica,sans-Serif" font-size="10.00">::register_restarts_dyn</text>
<text text-anchor="middle" x="50" y="-25.5" font-family="Helvetica,sans-Serif" font-size="10.00">_unsplit</text>
</a>
</g>
</g>
<!-- Node31 -->
<g id="node2" class="node"><title>Node31</title>
<g id="a_node2"><a xlink:href="namespacemom__verticalgrid.html#af027c312e660a932b3f430f4c7a9675d" target="_top" xlink:title="Returns the model&#39;s thickness flux units, usually m^3/s or kg/s.">
<polygon fill="white" stroke="black" points="136.5,-49 136.5,-79 229.5,-79 229.5,-49 136.5,-49"/>
<text text-anchor="start" x="144.5" y="-67" font-family="Helvetica,sans-Serif" font-size="10.00">mom_verticalgrid::get</text>
<text text-anchor="middle" x="183" y="-56" font-family="Helvetica,sans-Serif" font-size="10.00">_flux_units</text>
</a>
</g>
</g>
<!-- Node30&#45;&gt;Node31 -->
<g id="edge1" class="edge"><title>Node30&#45;&gt;Node31</title>
<path fill="none" stroke="midnightblue" d="M99.7796,-48.3091C108.448,-49.9633 117.534,-51.6974 126.375,-53.3846"/>
<polygon fill="midnightblue" stroke="midnightblue" points="125.738,-56.8261 136.217,-55.2628 127.05,-49.9502 125.738,-56.8261"/>
</g>
<!-- Node32 -->
<g id="node3" class="node"><title>Node32</title>
<g id="a_node3"><a xlink:href="namespacemom__error__handler.html#a460cfb79a06c29fc249952c2a3710d67" target="_top" xlink:title=" ">
<polygon fill="white" stroke="black" points="136.5,-0 136.5,-30 229.5,-30 229.5,-0 136.5,-0"/>
<text text-anchor="start" x="144.5" y="-18" font-family="Helvetica,sans-Serif" font-size="10.00">mom_error_handler::</text>
<text text-anchor="middle" x="183" y="-7" font-family="Helvetica,sans-Serif" font-size="10.00">mom_error</text>
</a>
</g>
</g>
<!-- Node30&#45;&gt;Node32 -->
<g id="edge2" class="edge"><title>Node30&#45;&gt;Node32</title>
<path fill="none" stroke="midnightblue" d="M99.7796,-30.0633C108.448,-28.4753 117.534,-26.8105 126.375,-25.1908"/>
<polygon fill="midnightblue" stroke="midnightblue" points="127.012,-28.6326 136.217,-23.3877 125.75,-21.7472 127.012,-28.6326"/>
</g>
<!-- Node33 -->
<g id="node4" class="node"><title>Node33</title>
<g id="a_node4"><a xlink:href="namespacemom__error__handler.html#ad5f00a53059c72fe2332d1436c80ca71" target="_top" xlink:title=" ">
<polygon fill="white" stroke="black" points="266.5,-0 266.5,-30 359.5,-30 359.5,-0 266.5,-0"/>
<text text-anchor="start" x="274.5" y="-18" font-family="Helvetica,sans-Serif" font-size="10.00">mom_error_handler::</text>
<text text-anchor="middle" x="313" y="-7" font-family="Helvetica,sans-Serif" font-size="10.00">is_root_pe</text>
</a>
</g>
</g>
<!-- Node32&#45;&gt;Node33 -->
<g id="edge3" class="edge"><title>Node32&#45;&gt;Node33</title>
<path fill="none" stroke="midnightblue" d="M229.849,-15C238.408,-15 247.439,-15 256.258,-15"/>
<polygon fill="midnightblue" stroke="midnightblue" points="256.471,-18.5001 266.471,-15 256.471,-11.5001 256.471,-18.5001"/>
</g>
</g>
</svg>
