<?xml version="1.0" encoding="UTF-8" standalone="no"?>
<!DOCTYPE svg PUBLIC "-//W3C//DTD SVG 1.1//EN"
 "http://www.w3.org/Graphics/SVG/1.1/DTD/svg11.dtd">
<!-- Generated by graphviz version 2.30.1 (20170916.1124)
 -->
<!-- Title: user_initialization::user_initialize_sponges Pages: 1 -->
<svg width="372pt" height="87pt"
 viewBox="0.00 0.00 372.00 87.00" xmlns="http://www.w3.org/2000/svg" xmlns:xlink="http://www.w3.org/1999/xlink">
<g id="graph0" class="graph" transform="scale(1 1) rotate(0) translate(4 83)">
<title>user_initialization::user_initialize_sponges</title>
<polygon fill="white" stroke="white" points="-4,5 -4,-83 369,-83 369,5 -4,5"/>
<!-- Node10 -->
<g id="node1" class="node"><title>Node10</title>
<g id="a_node1"><a xlink:title="Set up the sponges.">
<polygon fill="#bfbfbf" stroke="black" points="0.5,-24 0.5,-54 103.5,-54 103.5,-24 0.5,-24"/>
<text text-anchor="start" x="8.5" y="-42" font-family="Helvetica,sans-Serif" font-size="10.00">user_initialization</text>
<text text-anchor="middle" x="52" y="-31" font-family="Helvetica,sans-Serif" font-size="10.00">::user_initialize_sponges</text>
</a>
</g>
</g>
<!-- Node11 -->
<g id="node2" class="node"><title>Node11</title>
<g id="a_node2"><a xlink:href="namespacemom__error__handler.html#a460cfb79a06c29fc249952c2a3710d67" target="_top" xlink:title=" ">
<polygon fill="white" stroke="black" points="140.5,-49 140.5,-79 233.5,-79 233.5,-49 140.5,-49"/>
<text text-anchor="start" x="148.5" y="-67" font-family="Helvetica,sans-Serif" font-size="10.00">mom_error_handler::</text>
<text text-anchor="middle" x="187" y="-56" font-family="Helvetica,sans-Serif" font-size="10.00">mom_error</text>
</a>
</g>
</g>
<!-- Node10&#45;&gt;Node11 -->
<g id="edge1" class="edge"><title>Node10&#45;&gt;Node11</title>
<path fill="none" stroke="midnightblue" d="M103.661,-48.5227C112.408,-50.167 121.544,-51.8841 130.413,-53.5513"/>
<polygon fill="midnightblue" stroke="midnightblue" points="129.804,-56.998 140.278,-55.4057 131.097,-50.1185 129.804,-56.998"/>
</g>
<!-- Node13 -->
<g id="node4" class="node"><title>Node13</title>
<g id="a_node4"><a xlink:href="namespaceuser__initialization.html#aebfc0db710e83bae83f08e1a774256dd" target="_top" xlink:title="Write output about the parameter values being used.">
<polygon fill="white" stroke="black" points="148.5,-0 148.5,-30 225.5,-30 225.5,-0 148.5,-0"/>
<text text-anchor="start" x="156.5" y="-18" font-family="Helvetica,sans-Serif" font-size="10.00">user_initialization</text>
<text text-anchor="middle" x="187" y="-7" font-family="Helvetica,sans-Serif" font-size="10.00">::write_user_log</text>
</a>
</g>
</g>
<!-- Node10&#45;&gt;Node13 -->
<g id="edge3" class="edge"><title>Node10&#45;&gt;Node13</title>
<path fill="none" stroke="midnightblue" d="M103.661,-29.8582C115.014,-27.8095 127.022,-25.6427 138.252,-23.6162"/>
<polygon fill="midnightblue" stroke="midnightblue" points="139.086,-27.0223 148.306,-21.802 137.843,-20.1335 139.086,-27.0223"/>
</g>
<!-- Node12 -->
<g id="node3" class="node"><title>Node12</title>
<g id="a_node3"><a xlink:href="namespacemom__error__handler.html#ad5f00a53059c72fe2332d1436c80ca71" target="_top" xlink:title=" ">
<polygon fill="white" stroke="black" points="270.5,-49 270.5,-79 363.5,-79 363.5,-49 270.5,-49"/>
<text text-anchor="start" x="278.5" y="-67" font-family="Helvetica,sans-Serif" font-size="10.00">mom_error_handler::</text>
<text text-anchor="middle" x="317" y="-56" font-family="Helvetica,sans-Serif" font-size="10.00">is_root_pe</text>
</a>
</g>
</g>
<!-- Node11&#45;&gt;Node12 -->
<g id="edge2" class="edge"><title>Node11&#45;&gt;Node12</title>
<path fill="none" stroke="midnightblue" d="M233.849,-64C242.408,-64 251.439,-64 260.258,-64"/>
<polygon fill="midnightblue" stroke="midnightblue" points="260.471,-67.5001 270.471,-64 260.471,-60.5001 260.471,-67.5001"/>
</g>
</g>
</svg>
