<?xml version="1.0" encoding="UTF-8" standalone="no"?>
<!DOCTYPE svg PUBLIC "-//W3C//DTD SVG 1.1//EN"
 "http://www.w3.org/Graphics/SVG/1.1/DTD/svg11.dtd">
<!-- Generated by graphviz version 2.30.1 (20170916.1124)
 -->
<!-- Title: mom_document::doc_param_logical Pages: 1 -->
<svg width="792pt" height="252pt"
 viewBox="0.00 0.00 792.00 252.00" xmlns="http://www.w3.org/2000/svg" xmlns:xlink="http://www.w3.org/1999/xlink">
<g id="graph0" class="graph" transform="scale(1 1) rotate(0) translate(4 248)">
<title>mom_document::doc_param_logical</title>
<polygon fill="white" stroke="white" points="-4,5 -4,-248 789,-248 789,5 -4,5"/>
<!-- Node69 -->
<g id="node1" class="node"><title>Node69</title>
<g id="a_node1"><a xlink:title=" ">
<polygon fill="#bfbfbf" stroke="black" points="0.5,-110 0.5,-140 119.5,-140 119.5,-110 0.5,-110"/>
<text text-anchor="start" x="8.5" y="-128" font-family="Helvetica,sans-Serif" font-size="10.00">mom_document::doc_param</text>
<text text-anchor="middle" x="60" y="-117" font-family="Helvetica,sans-Serif" font-size="10.00">_logical</text>
</a>
</g>
</g>
<!-- Node70 -->
<g id="node2" class="node"><title>Node70</title>
<g id="a_node2"><a xlink:href="namespacemom__document.html#aadc9c21a3f71a85107454b8080d6ec5c" target="_top" xlink:title=" ">
<polygon fill="white" stroke="black" points="184.5,-214 184.5,-244 285.5,-244 285.5,-214 184.5,-214"/>
<text text-anchor="start" x="192.5" y="-232" font-family="Helvetica,sans-Serif" font-size="10.00">mom_document::define</text>
<text text-anchor="middle" x="235" y="-221" font-family="Helvetica,sans-Serif" font-size="10.00">_string</text>
</a>
</g>
</g>
<!-- Node69&#45;&gt;Node70 -->
<g id="edge1" class="edge"><title>Node69&#45;&gt;Node70</title>
<path fill="none" stroke="midnightblue" d="M77.4247,-140.265C95.5587,-156.504 126.152,-182.129 156,-199 163.094,-203.01 170.829,-206.704 178.584,-210.028"/>
<polygon fill="midnightblue" stroke="midnightblue" points="177.429,-213.338 188.009,-213.896 180.087,-206.862 177.429,-213.338"/>
</g>
<!-- Node71 -->
<g id="node3" class="node"><title>Node71</title>
<g id="a_node3"><a xlink:href="namespacemom__error__handler.html#ad5f00a53059c72fe2332d1436c80ca71" target="_top" xlink:title=" ">
<polygon fill="white" stroke="black" points="690.5,-88 690.5,-118 783.5,-118 783.5,-88 690.5,-88"/>
<text text-anchor="start" x="698.5" y="-106" font-family="Helvetica,sans-Serif" font-size="10.00">mom_error_handler::</text>
<text text-anchor="middle" x="737" y="-95" font-family="Helvetica,sans-Serif" font-size="10.00">is_root_pe</text>
</a>
</g>
</g>
<!-- Node69&#45;&gt;Node71 -->
<g id="edge2" class="edge"><title>Node69&#45;&gt;Node71</title>
<path fill="none" stroke="midnightblue" d="M114.44,-140.093C127.914,-143.458 142.414,-146.704 156,-149 317.44,-176.285 361.975,-189.565 524,-166 581.811,-157.592 645.789,-136.925 688.183,-121.54"/>
<polygon fill="midnightblue" stroke="midnightblue" points="689.504,-124.784 697.683,-118.05 687.09,-118.213 689.504,-124.784"/>
</g>
<!-- Node72 -->
<g id="node4" class="node"><title>Node72</title>
<g id="a_node4"><a xlink:href="namespacemom__document.html#aa23ed2e58e74e88a71de374685ee11ec" target="_top" xlink:title=" ">
<polygon fill="white" stroke="black" points="350.5,-137.5 350.5,-156.5 523.5,-156.5 523.5,-137.5 350.5,-137.5"/>
<text text-anchor="middle" x="437" y="-144.5" font-family="Helvetica,sans-Serif" font-size="10.00">mom_document::mesghasbeendocumented</text>
</a>
</g>
</g>
<!-- Node69&#45;&gt;Node72 -->
<g id="edge3" class="edge"><title>Node69&#45;&gt;Node72</title>
<path fill="none" stroke="midnightblue" d="M119.594,-128.438C178.593,-131.899 270.597,-137.296 340.217,-141.381"/>
<polygon fill="midnightblue" stroke="midnightblue" points="340.132,-144.882 350.32,-141.973 340.542,-137.894 340.132,-144.882"/>
</g>
<!-- Node74 -->
<g id="node6" class="node"><title>Node74</title>
<g id="a_node6"><a xlink:href="namespacemom__document.html#aab976b6c6c9c01833438d217fca228a4" target="_top" xlink:title=" ">
<polygon fill="white" stroke="black" points="186.5,-88 186.5,-118 283.5,-118 283.5,-88 186.5,-88"/>
<text text-anchor="start" x="194.5" y="-106" font-family="Helvetica,sans-Serif" font-size="10.00">mom_document::open</text>
<text text-anchor="middle" x="235" y="-95" font-family="Helvetica,sans-Serif" font-size="10.00">_doc_file</text>
</a>
</g>
</g>
<!-- Node69&#45;&gt;Node74 -->
<g id="edge6" class="edge"><title>Node69&#45;&gt;Node74</title>
<path fill="none" stroke="midnightblue" d="M119.57,-117.552C137.931,-115.217 158.173,-112.643 176.463,-110.317"/>
<polygon fill="midnightblue" stroke="midnightblue" points="176.919,-113.787 186.398,-109.053 176.036,-106.843 176.919,-113.787"/>
</g>
<!-- Node76 -->
<g id="node8" class="node"><title>Node76</title>
<g id="a_node8"><a xlink:href="namespacemom__document.html#a9c86e696b2b0cda80be9ded5ca4a927f" target="_top" xlink:title=" ">
<polygon fill="white" stroke="black" points="185.5,-39 185.5,-69 284.5,-69 284.5,-39 185.5,-39"/>
<text text-anchor="start" x="193.5" y="-57" font-family="Helvetica,sans-Serif" font-size="10.00">mom_document::undef</text>
<text text-anchor="middle" x="235" y="-46" font-family="Helvetica,sans-Serif" font-size="10.00">_string</text>
</a>
</g>
</g>
<!-- Node69&#45;&gt;Node76 -->
<g id="edge11" class="edge"><title>Node69&#45;&gt;Node76</title>
<path fill="none" stroke="midnightblue" d="M89.6291,-109.83C108.241,-100.297 133.201,-88.1206 156,-79 162.298,-76.4804 168.958,-74.0317 175.625,-71.715"/>
<polygon fill="midnightblue" stroke="midnightblue" points="177.007,-74.9425 185.358,-68.4224 174.763,-68.3117 177.007,-74.9425"/>
</g>
<!-- Node77 -->
<g id="node9" class="node"><title>Node77</title>
<g id="a_node9"><a xlink:href="namespacemom__document.html#a22d84550b1affd1037328c5117496a65" target="_top" xlink:title=" ">
<polygon fill="white" stroke="black" points="156,-0.5 156,-19.5 314,-19.5 314,-0.5 156,-0.5"/>
<text text-anchor="middle" x="235" y="-7.5" font-family="Helvetica,sans-Serif" font-size="10.00">mom_document::writemessageanddesc</text>
</a>
</g>
</g>
<!-- Node69&#45;&gt;Node77 -->
<g id="edge12" class="edge"><title>Node69&#45;&gt;Node77</title>
<path fill="none" stroke="midnightblue" d="M71.6985,-109.778C87.5776,-88.3661 119.468,-49.6646 156,-29 159.998,-26.7387 164.259,-24.7447 168.649,-22.9868"/>
<polygon fill="midnightblue" stroke="midnightblue" points="170.171,-26.1597 178.414,-19.503 167.819,-19.5667 170.171,-26.1597"/>
</g>
<!-- Node73 -->
<g id="node5" class="node"><title>Node73</title>
<g id="a_node5"><a xlink:href="namespacemom__error__handler.html#a460cfb79a06c29fc249952c2a3710d67" target="_top" xlink:title=" ">
<polygon fill="white" stroke="black" points="560.5,-88 560.5,-118 653.5,-118 653.5,-88 560.5,-88"/>
<text text-anchor="start" x="568.5" y="-106" font-family="Helvetica,sans-Serif" font-size="10.00">mom_error_handler::</text>
<text text-anchor="middle" x="607" y="-95" font-family="Helvetica,sans-Serif" font-size="10.00">mom_error</text>
</a>
</g>
</g>
<!-- Node72&#45;&gt;Node73 -->
<g id="edge4" class="edge"><title>Node72&#45;&gt;Node73</title>
<path fill="none" stroke="midnightblue" d="M481.426,-137.401C495.091,-134.247 510.211,-130.618 524,-127 532.548,-124.757 541.559,-122.258 550.354,-119.744"/>
<polygon fill="midnightblue" stroke="midnightblue" points="551.52,-123.05 560.155,-116.912 549.577,-116.325 551.52,-123.05"/>
</g>
<!-- Node73&#45;&gt;Node71 -->
<g id="edge5" class="edge"><title>Node73&#45;&gt;Node71</title>
<path fill="none" stroke="midnightblue" d="M653.849,-103C662.408,-103 671.439,-103 680.258,-103"/>
<polygon fill="midnightblue" stroke="midnightblue" points="680.471,-106.5 690.471,-103 680.471,-99.5001 680.471,-106.5"/>
</g>
<!-- Node74&#45;&gt;Node71 -->
<g id="edge7" class="edge"><title>Node74&#45;&gt;Node71</title>
<path fill="none" stroke="midnightblue" d="M283.252,-87.9014C313.793,-78.1713 348.192,-67.2786 350,-67 483.638,-46.4006 521.176,-53.6772 654,-79 662.681,-80.655 671.763,-82.8396 680.588,-85.2176"/>
<polygon fill="midnightblue" stroke="midnightblue" points="679.836,-88.6414 690.409,-87.9667 681.723,-81.9005 679.836,-88.6414"/>
</g>
<!-- Node75 -->
<g id="node7" class="node"><title>Node75</title>
<g id="a_node7"><a xlink:href="namespacemom__document.html#a5f2661445a72a7d0f774677e91366db5" target="_top" xlink:title=" ">
<polygon fill="white" stroke="black" points="388.5,-88 388.5,-118 485.5,-118 485.5,-88 388.5,-88"/>
<text text-anchor="start" x="396.5" y="-106" font-family="Helvetica,sans-Serif" font-size="10.00">mom_document::find</text>
<text text-anchor="middle" x="437" y="-95" font-family="Helvetica,sans-Serif" font-size="10.00">_unused_unit_number</text>
</a>
</g>
</g>
<!-- Node74&#45;&gt;Node75 -->
<g id="edge8" class="edge"><title>Node74&#45;&gt;Node75</title>
<path fill="none" stroke="midnightblue" d="M283.651,-103C311.97,-103 348.089,-103 378.05,-103"/>
<polygon fill="midnightblue" stroke="midnightblue" points="378.368,-106.5 388.368,-103 378.368,-99.5001 378.368,-106.5"/>
</g>
<!-- Node74&#45;&gt;Node73 -->
<g id="edge10" class="edge"><title>Node74&#45;&gt;Node73</title>
<path fill="none" stroke="midnightblue" d="M283.63,-90.6699C303.931,-86.016 327.972,-81.2936 350,-79 426.918,-70.9912 447.449,-68.0276 524,-79 533.59,-80.3746 543.624,-82.6099 553.251,-85.1774"/>
<polygon fill="midnightblue" stroke="midnightblue" points="552.527,-88.6094 563.101,-87.951 554.424,-81.8714 552.527,-88.6094"/>
</g>
<!-- Node75&#45;&gt;Node73 -->
<g id="edge9" class="edge"><title>Node75&#45;&gt;Node73</title>
<path fill="none" stroke="midnightblue" d="M485.693,-103C505.784,-103 529.307,-103 550.197,-103"/>
<polygon fill="midnightblue" stroke="midnightblue" points="550.215,-106.5 560.215,-103 550.215,-99.5001 550.215,-106.5"/>
</g>
</g>
</svg>
