<?xml version="1.0" encoding="UTF-8" standalone="no"?>
<!DOCTYPE svg PUBLIC "-//W3C//DTD SVG 1.1//EN"
 "http://www.w3.org/Graphics/SVG/1.1/DTD/svg11.dtd">
<!-- Generated by graphviz version 2.30.1 (20170916.1124)
 -->
<!-- Title: mom_string_functions::left_reals Pages: 1 -->
<svg width="584pt" height="38pt"
 viewBox="0.00 0.00 584.00 38.00" xmlns="http://www.w3.org/2000/svg" xmlns:xlink="http://www.w3.org/1999/xlink">
<g id="graph0" class="graph" transform="scale(1 1) rotate(0) translate(4 34)">
<title>mom_string_functions::left_reals</title>
<polygon fill="white" stroke="white" points="-4,5 -4,-34 581,-34 581,5 -4,5"/>
<!-- Node75 -->
<g id="node1" class="node"><title>Node75</title>
<g id="a_node1"><a xlink:title=" ">
<polygon fill="#bfbfbf" stroke="black" points="480.5,-0 480.5,-30 575.5,-30 575.5,-0 480.5,-0"/>
<text text-anchor="start" x="488.5" y="-18" font-family="Helvetica,sans-Serif" font-size="10.00">mom_string_functions</text>
<text text-anchor="middle" x="528" y="-7" font-family="Helvetica,sans-Serif" font-size="10.00">::left_reals</text>
</a>
</g>
</g>
<!-- Node76 -->
<g id="node2" class="node"><title>Node76</title>
<g id="a_node2"><a xlink:href="namespacemom__string__functions.html#a82a6737657a9ae78a53b30ab2a761d23" target="_top" xlink:title="Returns true if a unit test of string_functions fails.">
<polygon fill="white" stroke="black" points="328.5,-0 328.5,-30 443.5,-30 443.5,-0 328.5,-0"/>
<text text-anchor="start" x="336.5" y="-18" font-family="Helvetica,sans-Serif" font-size="10.00">mom_string_functions</text>
<text text-anchor="middle" x="386" y="-7" font-family="Helvetica,sans-Serif" font-size="10.00">::string_functions_unit_tests</text>
</a>
</g>
</g>
<!-- Node75&#45;&gt;Node76 -->
<g id="edge1" class="edge"><title>Node75&#45;&gt;Node76</title>
<path fill="none" stroke="midnightblue" d="M470.247,-15C461.472,-15 452.407,-15 443.634,-15"/>
<polygon fill="midnightblue" stroke="midnightblue" points="470.382,-18.5001 480.382,-15 470.382,-11.5001 470.382,-18.5001"/>
</g>
<!-- Node77 -->
<g id="node3" class="node"><title>Node77</title>
<g id="a_node3"><a xlink:href="namespacemom.html#ae77cfd2e790f1266b31d93c58659d46c" target="_top" xlink:title="Calls unit tests for other modules. These are NOT normally invoked and so we provide the module use s...">
<polygon fill="white" stroke="black" points="218.5,-5.5 218.5,-24.5 291.5,-24.5 291.5,-5.5 218.5,-5.5"/>
<text text-anchor="middle" x="255" y="-12.5" font-family="Helvetica,sans-Serif" font-size="10.00">mom::unit_tests</text>
</a>
</g>
</g>
<!-- Node76&#45;&gt;Node77 -->
<g id="edge2" class="edge"><title>Node76&#45;&gt;Node77</title>
<path fill="none" stroke="midnightblue" d="M318.15,-15C309.044,-15 300,-15 291.746,-15"/>
<polygon fill="midnightblue" stroke="midnightblue" points="318.419,-18.5001 328.419,-15 318.419,-11.5001 318.419,-18.5001"/>
</g>
<!-- Node78 -->
<g id="node4" class="node"><title>Node78</title>
<g id="a_node4"><a xlink:href="namespacemom.html#a0be2869fef30e1e0604facfe1b41555d" target="_top" xlink:title="This subroutine initializes MOM.">
<polygon fill="white" stroke="black" points="92.5,-5.5 92.5,-24.5 181.5,-24.5 181.5,-5.5 92.5,-5.5"/>
<text text-anchor="middle" x="137" y="-12.5" font-family="Helvetica,sans-Serif" font-size="10.00">mom::initialize_mom</text>
</a>
</g>
</g>
<!-- Node77&#45;&gt;Node78 -->
<g id="edge3" class="edge"><title>Node77&#45;&gt;Node78</title>
<path fill="none" stroke="midnightblue" d="M208.196,-15C199.437,-15 190.288,-15 181.6,-15"/>
<polygon fill="midnightblue" stroke="midnightblue" points="208.25,-18.5001 218.25,-15 208.25,-11.5001 208.25,-18.5001"/>
</g>
<!-- Node79 -->
<g id="node5" class="node"><title>Node79</title>
<g id="a_node5"><a xlink:href="MOM__driver_8F90.html#a08fffeb2d8e8acbf9ed4609be6d258c6" target="_top" xlink:title=" ">
<polygon fill="white" stroke="black" points="0,-5.5 0,-24.5 56,-24.5 56,-5.5 0,-5.5"/>
<text text-anchor="middle" x="28" y="-12.5" font-family="Helvetica,sans-Serif" font-size="10.00">mom_main</text>
</a>
</g>
</g>
<!-- Node78&#45;&gt;Node79 -->
<g id="edge4" class="edge"><title>Node78&#45;&gt;Node79</title>
<path fill="none" stroke="midnightblue" d="M82.3096,-15C73.2562,-15 64.21,-15 56.2082,-15"/>
<polygon fill="midnightblue" stroke="midnightblue" points="82.479,-18.5001 92.479,-15 82.479,-11.5001 82.479,-18.5001"/>
</g>
</g>
</svg>
