<?xml version="1.0" encoding="UTF-8" standalone="no"?>
<!DOCTYPE svg PUBLIC "-//W3C//DTD SVG 1.1//EN"
 "http://www.w3.org/Graphics/SVG/1.1/DTD/svg11.dtd">
<!-- Generated by graphviz version 2.30.1 (20170916.1124)
 -->
<!-- Title: mom_thickness_diffuse::thickness_diffuse Pages: 1 -->
<svg width="650pt" height="224pt"
 viewBox="0.00 0.00 650.00 224.00" xmlns="http://www.w3.org/2000/svg" xmlns:xlink="http://www.w3.org/1999/xlink">
<g id="graph0" class="graph" transform="scale(1 1) rotate(0) translate(4 220)">
<title>mom_thickness_diffuse::thickness_diffuse</title>
<polygon fill="white" stroke="white" points="-4,5 -4,-220 647,-220 647,5 -4,5"/>
<!-- Node5 -->
<g id="node1" class="node"><title>Node5</title>
<g id="a_node1"><a xlink:title="Calculates thickness diffusion coefficients and applies thickness diffusion to layer thicknesses,...">
<polygon fill="#bfbfbf" stroke="black" points="0.5,-115 0.5,-145 99.5,-145 99.5,-115 0.5,-115"/>
<text text-anchor="start" x="8.5" y="-133" font-family="Helvetica,sans-Serif" font-size="10.00">mom_thickness_diffuse</text>
<text text-anchor="middle" x="50" y="-122" font-family="Helvetica,sans-Serif" font-size="10.00">::thickness_diffuse</text>
</a>
</g>
</g>
<!-- Node6 -->
<g id="node2" class="node"><title>Node6</title>
<g id="a_node2"><a xlink:href="namespacemom__thickness__diffuse.html#a364792384e494f2e7e5644282e7f42c7" target="_top" xlink:title="Modifies thickness diffusivities to untangle layer structures.">
<polygon fill="white" stroke="black" points="141.5,-186 141.5,-216 240.5,-216 240.5,-186 141.5,-186"/>
<text text-anchor="start" x="149.5" y="-204" font-family="Helvetica,sans-Serif" font-size="10.00">mom_thickness_diffuse</text>
<text text-anchor="middle" x="191" y="-193" font-family="Helvetica,sans-Serif" font-size="10.00">::add_detangling_kh</text>
</a>
</g>
</g>
<!-- Node5&#45;&gt;Node6 -->
<g id="edge1" class="edge"><title>Node5&#45;&gt;Node6</title>
<path fill="none" stroke="midnightblue" d="M77.9522,-145.144C94.5539,-154.332 116.351,-166.147 136,-176 139.74,-177.876 143.648,-179.783 147.578,-181.666"/>
<polygon fill="midnightblue" stroke="midnightblue" points="146.18,-184.877 156.717,-185.988 149.173,-178.549 146.18,-184.877"/>
</g>
<!-- Node7 -->
<g id="node3" class="node"><title>Node7</title>
<g id="a_node3"><a xlink:href="namespacemom__diag__mediator.html#a833421744c815eb432a645bd984a5c86" target="_top" xlink:title="Build/update vertical grids for diagnostic remapping.">
<polygon fill="white" stroke="black" points="136,-137 136,-167 246,-167 246,-137 136,-137"/>
<text text-anchor="start" x="144" y="-155" font-family="Helvetica,sans-Serif" font-size="10.00">mom_diag_mediator::</text>
<text text-anchor="middle" x="191" y="-144" font-family="Helvetica,sans-Serif" font-size="10.00">diag_update_remap_grids</text>
</a>
</g>
</g>
<!-- Node5&#45;&gt;Node7 -->
<g id="edge2" class="edge"><title>Node5&#45;&gt;Node7</title>
<path fill="none" stroke="midnightblue" d="M99.6155,-137.695C108.148,-139.045 117.143,-140.469 126.017,-141.873"/>
<polygon fill="midnightblue" stroke="midnightblue" points="125.53,-145.34 135.954,-143.446 126.624,-138.426 125.53,-145.34"/>
</g>
<!-- Node8 -->
<g id="node4" class="node"><title>Node8</title>
<g id="a_node4"><a xlink:href="namespacemom__error__handler.html#a460cfb79a06c29fc249952c2a3710d67" target="_top" xlink:title=" ">
<polygon fill="white" stroke="black" points="418.5,-46 418.5,-76 511.5,-76 511.5,-46 418.5,-46"/>
<text text-anchor="start" x="426.5" y="-64" font-family="Helvetica,sans-Serif" font-size="10.00">mom_error_handler::</text>
<text text-anchor="middle" x="465" y="-53" font-family="Helvetica,sans-Serif" font-size="10.00">mom_error</text>
</a>
</g>
</g>
<!-- Node5&#45;&gt;Node8 -->
<g id="edge3" class="edge"><title>Node5&#45;&gt;Node8</title>
<path fill="none" stroke="midnightblue" d="M99.745,-126.755C164.751,-121.76 283.121,-110.335 382,-88 392.414,-85.6476 403.382,-82.5139 413.789,-79.2157"/>
<polygon fill="midnightblue" stroke="midnightblue" points="415.14,-82.4563 423.558,-76.0232 412.965,-75.8026 415.14,-82.4563"/>
</g>
<!-- Node10 -->
<g id="node6" class="node"><title>Node10</title>
<g id="a_node6"><a xlink:href="namespacemom__thickness__diffuse.html#ad461e8977f22cd7488fb1925e58cf084" target="_top" xlink:title="Calculates parameterized layer transports for use in the continuity equation. Fluxes are limited to g...">
<polygon fill="white" stroke="black" points="141.5,-49 141.5,-79 240.5,-79 240.5,-49 141.5,-49"/>
<text text-anchor="start" x="149.5" y="-67" font-family="Helvetica,sans-Serif" font-size="10.00">mom_thickness_diffuse</text>
<text text-anchor="middle" x="191" y="-56" font-family="Helvetica,sans-Serif" font-size="10.00">::thickness_diffuse_full</text>
</a>
</g>
</g>
<!-- Node5&#45;&gt;Node10 -->
<g id="edge5" class="edge"><title>Node5&#45;&gt;Node10</title>
<path fill="none" stroke="midnightblue" d="M82.8894,-114.858C102.578,-105.509 128.031,-93.4244 149.183,-83.3806"/>
<polygon fill="midnightblue" stroke="midnightblue" points="150.727,-86.5223 158.259,-79.0713 147.724,-80.1989 150.727,-86.5223"/>
</g>
<!-- Node9 -->
<g id="node5" class="node"><title>Node9</title>
<g id="a_node5"><a xlink:href="namespacemom__error__handler.html#ad5f00a53059c72fe2332d1436c80ca71" target="_top" xlink:title=" ">
<polygon fill="white" stroke="black" points="548.5,-46 548.5,-76 641.5,-76 641.5,-46 548.5,-46"/>
<text text-anchor="start" x="556.5" y="-64" font-family="Helvetica,sans-Serif" font-size="10.00">mom_error_handler::</text>
<text text-anchor="middle" x="595" y="-53" font-family="Helvetica,sans-Serif" font-size="10.00">is_root_pe</text>
</a>
</g>
</g>
<!-- Node8&#45;&gt;Node9 -->
<g id="edge4" class="edge"><title>Node8&#45;&gt;Node9</title>
<path fill="none" stroke="midnightblue" d="M511.849,-61C520.408,-61 529.439,-61 538.258,-61"/>
<polygon fill="midnightblue" stroke="midnightblue" points="538.471,-64.5001 548.471,-61 538.471,-57.5001 538.471,-64.5001"/>
</g>
<!-- Node11 -->
<g id="node7" class="node"><title>Node11</title>
<g id="a_node7"><a xlink:href="namespacemom__thickness__diffuse.html#aff6aa879773518e476ed0a603a1a301e" target="_top" xlink:title="Fills tracer values in massless layers with sensible values by diffusing vertically with a (small) co...">
<polygon fill="white" stroke="black" points="282.5,-49 282.5,-79 381.5,-79 381.5,-49 282.5,-49"/>
<text text-anchor="start" x="290.5" y="-67" font-family="Helvetica,sans-Serif" font-size="10.00">mom_thickness_diffuse</text>
<text text-anchor="middle" x="332" y="-56" font-family="Helvetica,sans-Serif" font-size="10.00">::vert_fill_ts</text>
</a>
</g>
</g>
<!-- Node10&#45;&gt;Node11 -->
<g id="edge6" class="edge"><title>Node10&#45;&gt;Node11</title>
<path fill="none" stroke="midnightblue" d="M240.615,-64C250.715,-64 261.462,-64 271.891,-64"/>
<polygon fill="midnightblue" stroke="midnightblue" points="272.177,-67.5001 282.177,-64 272.177,-60.5001 272.177,-67.5001"/>
</g>
<!-- Node12 -->
<g id="node8" class="node"><title>Node12</title>
<g id="a_node8"><a xlink:href="namespacemom__eos.html#a204529f8434a0322314e6ce2a9762436" target="_top" xlink:title="Calls the appropriate subroutine to calculate density derivatives for 1&#45;D array inputs.">
<polygon fill="white" stroke="black" points="288.5,-0 288.5,-30 375.5,-30 375.5,-0 288.5,-0"/>
<text text-anchor="start" x="296.5" y="-18" font-family="Helvetica,sans-Serif" font-size="10.00">mom_eos::calculate</text>
<text text-anchor="middle" x="332" y="-7" font-family="Helvetica,sans-Serif" font-size="10.00">_density_derivs</text>
</a>
</g>
</g>
<!-- Node10&#45;&gt;Node12 -->
<g id="edge7" class="edge"><title>Node10&#45;&gt;Node12</title>
<path fill="none" stroke="midnightblue" d="M234.839,-48.8986C248.579,-44.0549 263.958,-38.6336 278.317,-33.5715"/>
<polygon fill="midnightblue" stroke="midnightblue" points="279.796,-36.7615 288.063,-30.1359 277.469,-30.1597 279.796,-36.7615"/>
</g>
<!-- Node12&#45;&gt;Node8 -->
<g id="edge8" class="edge"><title>Node12&#45;&gt;Node8</title>
<path fill="none" stroke="midnightblue" d="M375.532,-29.9349C387.086,-33.9921 399.732,-38.4327 411.756,-42.6549"/>
<polygon fill="midnightblue" stroke="midnightblue" points="410.638,-45.9718 421.233,-45.9826 412.958,-39.3671 410.638,-45.9718"/>
</g>
</g>
</svg>
