<?xml version="1.0" encoding="UTF-8" standalone="no"?>
<!DOCTYPE svg PUBLIC "-//W3C//DTD SVG 1.1//EN"
 "http://www.w3.org/Graphics/SVG/1.1/DTD/svg11.dtd">
<!-- Generated by graphviz version 2.30.1 (20170916.1124)
 -->
<!-- Title: mom_sum_output::mom_sum_output_init Pages: 1 -->
<svg width="658pt" height="194pt"
 viewBox="0.00 0.00 658.00 193.80" xmlns="http://www.w3.org/2000/svg" xmlns:xlink="http://www.w3.org/1999/xlink">
<g id="graph0" class="graph" transform="scale(1 1) rotate(0) translate(4 189.803)">
<title>mom_sum_output::mom_sum_output_init</title>
<polygon fill="white" stroke="white" points="-4,5 -4,-189.803 655,-189.803 655,5 -4,5"/>
<!-- Node23 -->
<g id="node1" class="node"><title>Node23</title>
<g id="a_node1"><a xlink:title=" ">
<polygon fill="#bfbfbf" stroke="black" points="0,-4.39446 0,-34.3945 104,-34.3945 104,-4.39446 0,-4.39446"/>
<text text-anchor="start" x="8" y="-22.3945" font-family="Helvetica,sans-Serif" font-size="10.00">mom_sum_output::mom</text>
<text text-anchor="middle" x="52" y="-11.3945" font-family="Helvetica,sans-Serif" font-size="10.00">_sum_output_init</text>
</a>
</g>
</g>
<!-- Node24 -->
<g id="node2" class="node"><title>Node24</title>
<g id="a_node2"><a xlink:href="namespacemom__sum__output.html#a6be0bb6885b7df65618f4039d493f5c7" target="_top" xlink:title=" ">
<polygon fill="white" stroke="black" points="140,-57.3945 140,-87.3945 246,-87.3945 246,-57.3945 140,-57.3945"/>
<text text-anchor="start" x="148" y="-75.3945" font-family="Helvetica,sans-Serif" font-size="10.00">mom_sum_output::depth</text>
<text text-anchor="middle" x="193" y="-64.3945" font-family="Helvetica,sans-Serif" font-size="10.00">_list_setup</text>
</a>
</g>
</g>
<!-- Node23&#45;&gt;Node24 -->
<g id="edge1" class="edge"><title>Node23&#45;&gt;Node24</title>
<path fill="none" stroke="midnightblue" d="M92.46,-34.4404C108.16,-40.4267 126.393,-47.3788 142.931,-53.6849"/>
<polygon fill="midnightblue" stroke="midnightblue" points="141.851,-57.0185 152.441,-57.3109 144.344,-50.4778 141.851,-57.0185"/>
</g>
<!-- Node27 -->
<g id="node5" class="node"><title>Node27</title>
<g id="a_node5"><a xlink:href="namespacemom__error__handler.html#a460cfb79a06c29fc249952c2a3710d67" target="_top" xlink:title=" ">
<polygon fill="white" stroke="black" points="426.5,-33.3945 426.5,-63.3945 519.5,-63.3945 519.5,-33.3945 426.5,-33.3945"/>
<text text-anchor="start" x="434.5" y="-51.3945" font-family="Helvetica,sans-Serif" font-size="10.00">mom_error_handler::</text>
<text text-anchor="middle" x="473" y="-40.3945" font-family="Helvetica,sans-Serif" font-size="10.00">mom_error</text>
</a>
</g>
</g>
<!-- Node23&#45;&gt;Node27 -->
<g id="edge11" class="edge"><title>Node23&#45;&gt;Node27</title>
<path fill="none" stroke="midnightblue" d="M104.192,-11.2243C170.818,-2.20079 290.49,8.48738 390,-12.3945 405.701,-15.6893 422.067,-22.1769 436.012,-28.7482"/>
<polygon fill="midnightblue" stroke="midnightblue" points="434.721,-32.0132 445.24,-33.2726 437.802,-25.7279 434.721,-32.0132"/>
</g>
<!-- Node25 -->
<g id="node3" class="node"><title>Node25</title>
<g id="a_node3"><a xlink:href="namespacemom__sum__output.html#a1db5001777c2171a7f3f16122b4bacd1" target="_top" xlink:title="create_depth_list makes an ordered list of depths, along with the cross sectional areas at each depth...">
<polygon fill="white" stroke="black" points="282,-131.394 282,-161.394 390,-161.394 390,-131.394 282,-131.394"/>
<text text-anchor="start" x="290" y="-149.394" font-family="Helvetica,sans-Serif" font-size="10.00">mom_sum_output::create</text>
<text text-anchor="middle" x="336" y="-138.394" font-family="Helvetica,sans-Serif" font-size="10.00">_depth_list</text>
</a>
</g>
</g>
<!-- Node24&#45;&gt;Node25 -->
<g id="edge2" class="edge"><title>Node24&#45;&gt;Node25</title>
<path fill="none" stroke="midnightblue" d="M219.935,-87.4394C237.331,-97.3806 260.845,-110.531 282,-121.394 285.514,-123.199 289.181,-125.031 292.875,-126.841"/>
<polygon fill="midnightblue" stroke="midnightblue" points="291.509,-130.069 302.036,-131.266 294.554,-123.765 291.509,-130.069"/>
</g>
<!-- Node26 -->
<g id="node4" class="node"><title>Node26</title>
<g id="a_node4"><a xlink:href="namespacemom__error__handler.html#ad5f00a53059c72fe2332d1436c80ca71" target="_top" xlink:title=" ">
<polygon fill="white" stroke="black" points="556.5,-82.3945 556.5,-112.394 649.5,-112.394 649.5,-82.3945 556.5,-82.3945"/>
<text text-anchor="start" x="564.5" y="-100.394" font-family="Helvetica,sans-Serif" font-size="10.00">mom_error_handler::</text>
<text text-anchor="middle" x="603" y="-89.3945" font-family="Helvetica,sans-Serif" font-size="10.00">is_root_pe</text>
</a>
</g>
</g>
<!-- Node24&#45;&gt;Node26 -->
<g id="edge3" class="edge"><title>Node24&#45;&gt;Node26</title>
<path fill="none" stroke="midnightblue" d="M202.063,-87.5978C215.236,-110.595 243.783,-153.348 282,-170.394 381.29,-214.682 510.325,-152.408 569.618,-117.81"/>
<polygon fill="midnightblue" stroke="midnightblue" points="571.714,-120.636 578.52,-112.516 568.136,-114.619 571.714,-120.636"/>
</g>
<!-- Node24&#45;&gt;Node27 -->
<g id="edge4" class="edge"><title>Node24&#45;&gt;Node27</title>
<path fill="none" stroke="midnightblue" d="M214.052,-57.3013C231.108,-45.4673 256.781,-29.9423 282,-23.3945 328.46,-11.3317 342.524,-16.3181 390,-23.3945 400.374,-24.9408 411.251,-27.5305 421.568,-30.4718"/>
<polygon fill="midnightblue" stroke="midnightblue" points="420.669,-33.8561 431.253,-33.377 422.68,-27.1513 420.669,-33.8561"/>
</g>
<!-- Node28 -->
<g id="node6" class="node"><title>Node28</title>
<g id="a_node6"><a xlink:href="namespacemom__sum__output.html#a451f9101467634477df735d1699b538c" target="_top" xlink:title=" ">
<polygon fill="white" stroke="black" points="285,-33.3945 285,-63.3945 387,-63.3945 387,-33.3945 285,-33.3945"/>
<text text-anchor="start" x="293" y="-51.3945" font-family="Helvetica,sans-Serif" font-size="10.00">mom_sum_output::read</text>
<text text-anchor="middle" x="336" y="-40.3945" font-family="Helvetica,sans-Serif" font-size="10.00">_depth_list</text>
</a>
</g>
</g>
<!-- Node24&#45;&gt;Node28 -->
<g id="edge6" class="edge"><title>Node24&#45;&gt;Node28</title>
<path fill="none" stroke="midnightblue" d="M246.103,-63.5259C255.535,-61.9205 265.439,-60.2346 275.074,-58.5946"/>
<polygon fill="midnightblue" stroke="midnightblue" points="275.715,-62.0359 284.986,-56.9074 274.541,-55.1351 275.715,-62.0359"/>
</g>
<!-- Node29 -->
<g id="node7" class="node"><title>Node29</title>
<g id="a_node7"><a xlink:href="namespacemom__sum__output.html#a0dc24305437100a7d073a489ff531ec1" target="_top" xlink:title=" ">
<polygon fill="white" stroke="black" points="284.5,-82.3945 284.5,-112.394 387.5,-112.394 387.5,-82.3945 284.5,-82.3945"/>
<text text-anchor="start" x="292.5" y="-100.394" font-family="Helvetica,sans-Serif" font-size="10.00">mom_sum_output::write</text>
<text text-anchor="middle" x="336" y="-89.3945" font-family="Helvetica,sans-Serif" font-size="10.00">_depth_list</text>
</a>
</g>
</g>
<!-- Node24&#45;&gt;Node29 -->
<g id="edge8" class="edge"><title>Node24&#45;&gt;Node29</title>
<path fill="none" stroke="midnightblue" d="M246.103,-81.6325C255.205,-83.2464 264.747,-84.9383 274.063,-86.59"/>
<polygon fill="midnightblue" stroke="midnightblue" points="273.593,-90.0612 284.051,-88.3609 274.815,-83.1687 273.593,-90.0612"/>
</g>
<!-- Node27&#45;&gt;Node26 -->
<g id="edge5" class="edge"><title>Node27&#45;&gt;Node26</title>
<path fill="none" stroke="midnightblue" d="M513.449,-63.4959C525.98,-68.293 539.991,-73.6567 553.105,-78.6768"/>
<polygon fill="midnightblue" stroke="midnightblue" points="551.871,-81.952 562.461,-82.2585 554.373,-75.4147 551.871,-81.952"/>
</g>
<!-- Node28&#45;&gt;Node27 -->
<g id="edge7" class="edge"><title>Node28&#45;&gt;Node27</title>
<path fill="none" stroke="midnightblue" d="M387.269,-48.3945C396.628,-48.3945 406.461,-48.3945 415.979,-48.3945"/>
<polygon fill="midnightblue" stroke="midnightblue" points="416.148,-51.8946 426.148,-48.3945 416.148,-44.8946 416.148,-51.8946"/>
</g>
<!-- Node29&#45;&gt;Node26 -->
<g id="edge9" class="edge"><title>Node29&#45;&gt;Node26</title>
<path fill="none" stroke="midnightblue" d="M387.781,-97.3945C433.051,-97.3945 499.199,-97.3945 545.992,-97.3945"/>
<polygon fill="midnightblue" stroke="midnightblue" points="546.259,-100.895 556.259,-97.3945 546.259,-93.8946 546.259,-100.895"/>
</g>
<!-- Node29&#45;&gt;Node27 -->
<g id="edge10" class="edge"><title>Node29&#45;&gt;Node27</title>
<path fill="none" stroke="midnightblue" d="M378.606,-82.293C391.951,-77.4494 406.887,-72.0281 420.834,-66.966"/>
<polygon fill="midnightblue" stroke="midnightblue" points="422.093,-70.2323 430.299,-63.5304 419.705,-63.6523 422.093,-70.2323"/>
</g>
</g>
</svg>
