<?xml version="1.0" encoding="UTF-8" standalone="no"?>
<!DOCTYPE svg PUBLIC "-//W3C//DTD SVG 1.1//EN"
 "http://www.w3.org/Graphics/SVG/1.1/DTD/svg11.dtd">
<!-- Generated by graphviz version 2.30.1 (20170916.1124)
 -->
<!-- Title: mom_grid::mom_grid_end Pages: 1 -->
<svg width="338pt" height="66pt"
 viewBox="0.00 0.00 338.00 66.00" xmlns="http://www.w3.org/2000/svg" xmlns:xlink="http://www.w3.org/1999/xlink">
<g id="graph0" class="graph" transform="scale(1 1) rotate(0) translate(4 62)">
<title>mom_grid::mom_grid_end</title>
<polygon fill="white" stroke="white" points="-4,5 -4,-62 335,-62 335,5 -4,5"/>
<!-- Node19 -->
<g id="node1" class="node"><title>Node19</title>
<g id="a_node1"><a xlink:title="Release memory used by the ocean_grid_type and related structures.">
<polygon fill="#bfbfbf" stroke="black" points="218.5,-19.5 218.5,-38.5 329.5,-38.5 329.5,-19.5 218.5,-19.5"/>
<text text-anchor="middle" x="274" y="-26.5" font-family="Helvetica,sans-Serif" font-size="10.00">mom_grid::mom_grid_end</text>
</a>
</g>
</g>
<!-- Node20 -->
<g id="node2" class="node"><title>Node20</title>
<g id="a_node2"><a xlink:href="namespacemom.html#a0be2869fef30e1e0604facfe1b41555d" target="_top" xlink:title="This subroutine initializes MOM.">
<polygon fill="white" stroke="black" points="92.5,-38.5 92.5,-57.5 181.5,-57.5 181.5,-38.5 92.5,-38.5"/>
<text text-anchor="middle" x="137" y="-45.5" font-family="Helvetica,sans-Serif" font-size="10.00">mom::initialize_mom</text>
</a>
</g>
</g>
<!-- Node19&#45;&gt;Node20 -->
<g id="edge1" class="edge"><title>Node19&#45;&gt;Node20</title>
<path fill="none" stroke="midnightblue" d="M208.296,-38.1065C199.219,-39.3839 190.075,-40.6709 181.522,-41.8747"/>
<polygon fill="midnightblue" stroke="midnightblue" points="209.065,-41.5329 218.479,-36.6733 208.089,-34.6012 209.065,-41.5329"/>
</g>
<!-- Node22 -->
<g id="node4" class="node"><title>Node22</title>
<g id="a_node4"><a xlink:href="namespacemom.html#ae6dad976fb4be1c7ba7fc1aff809616b" target="_top" xlink:title="End of model.">
<polygon fill="white" stroke="black" points="99.5,-0.5 99.5,-19.5 174.5,-19.5 174.5,-0.5 99.5,-0.5"/>
<text text-anchor="middle" x="137" y="-7.5" font-family="Helvetica,sans-Serif" font-size="10.00">mom::mom_end</text>
</a>
</g>
</g>
<!-- Node19&#45;&gt;Node22 -->
<g id="edge3" class="edge"><title>Node19&#45;&gt;Node22</title>
<path fill="none" stroke="midnightblue" d="M208.334,-19.8989C196.717,-18.2639 184.988,-16.6131 174.526,-15.1407"/>
<polygon fill="midnightblue" stroke="midnightblue" points="208.089,-23.3988 218.479,-21.3267 209.065,-16.4671 208.089,-23.3988"/>
</g>
<!-- Node21 -->
<g id="node3" class="node"><title>Node21</title>
<g id="a_node3"><a xlink:href="MOM__driver_8F90.html#a08fffeb2d8e8acbf9ed4609be6d258c6" target="_top" xlink:title=" ">
<polygon fill="white" stroke="black" points="0,-19.5 0,-38.5 56,-38.5 56,-19.5 0,-19.5"/>
<text text-anchor="middle" x="28" y="-26.5" font-family="Helvetica,sans-Serif" font-size="10.00">mom_main</text>
</a>
</g>
</g>
<!-- Node20&#45;&gt;Node21 -->
<g id="edge2" class="edge"><title>Node20&#45;&gt;Node21</title>
<path fill="none" stroke="midnightblue" d="M82.6016,-38.518C73.4508,-36.8931 64.2961,-35.2675 56.2082,-33.8314"/>
<polygon fill="midnightblue" stroke="midnightblue" points="82.0211,-41.9696 92.479,-40.272 83.245,-35.0774 82.0211,-41.9696"/>
</g>
<!-- Node22&#45;&gt;Node21 -->
<g id="edge4" class="edge"><title>Node22&#45;&gt;Node21</title>
<path fill="none" stroke="midnightblue" d="M89.6275,-18.2344C78.2313,-20.258 66.3959,-22.3596 56.2396,-24.1631"/>
<polygon fill="midnightblue" stroke="midnightblue" points="90.2419,-21.6801 99.4759,-16.4856 89.018,-14.7879 90.2419,-21.6801"/>
</g>
</g>
</svg>
