<?xml version="1.0" encoding="UTF-8" standalone="no"?>
<!DOCTYPE svg PUBLIC "-//W3C//DTD SVG 1.1//EN"
 "http://www.w3.org/Graphics/SVG/1.1/DTD/svg11.dtd">
<!-- Generated by graphviz version 2.30.1 (20170916.1124)
 -->
<!-- Title: mom_shared_initialization::read_face_length_list Pages: 1 -->
<svg width="248pt" height="38pt"
 viewBox="0.00 0.00 248.00 38.00" xmlns="http://www.w3.org/2000/svg" xmlns:xlink="http://www.w3.org/1999/xlink">
<g id="graph0" class="graph" transform="scale(1 1) rotate(0) translate(4 34)">
<title>mom_shared_initialization::read_face_length_list</title>
<polygon fill="white" stroke="white" points="-4,5 -4,-34 245,-34 245,5 -4,5"/>
<!-- Node44 -->
<g id="node1" class="node"><title>Node44</title>
<g id="a_node1"><a xlink:title=" ">
<polygon fill="#bfbfbf" stroke="black" points="0,-0 0,-30 108,-30 108,-0 0,-0"/>
<text text-anchor="start" x="8" y="-18" font-family="Helvetica,sans-Serif" font-size="10.00">mom_shared_initialization</text>
<text text-anchor="middle" x="54" y="-7" font-family="Helvetica,sans-Serif" font-size="10.00">::read_face_length_list</text>
</a>
</g>
</g>
<!-- Node45 -->
<g id="node2" class="node"><title>Node45</title>
<g id="a_node2"><a xlink:href="namespacemom__string__functions.html#aca148baf726de2f028b7e7baad3c85d4" target="_top" xlink:title=" ">
<polygon fill="white" stroke="black" points="144.5,-0 144.5,-30 239.5,-30 239.5,-0 144.5,-0"/>
<text text-anchor="start" x="152.5" y="-18" font-family="Helvetica,sans-Serif" font-size="10.00">mom_string_functions</text>
<text text-anchor="middle" x="192" y="-7" font-family="Helvetica,sans-Serif" font-size="10.00">::uppercase</text>
</a>
</g>
</g>
<!-- Node44&#45;&gt;Node45 -->
<g id="edge1" class="edge"><title>Node44&#45;&gt;Node45</title>
<path fill="none" stroke="midnightblue" d="M108.36,-15C116.825,-15 125.608,-15 134.149,-15"/>
<polygon fill="midnightblue" stroke="midnightblue" points="134.411,-18.5001 144.411,-15 134.411,-11.5001 134.411,-18.5001"/>
</g>
</g>
</svg>
