<?xml version="1.0" encoding="UTF-8" standalone="no"?>
<!DOCTYPE svg PUBLIC "-//W3C//DTD SVG 1.1//EN"
 "http://www.w3.org/Graphics/SVG/1.1/DTD/svg11.dtd">
<!-- Generated by graphviz version 2.30.1 (20170916.1124)
 -->
<!-- Title: mom_continuity_ppm::zonal_flux_layer Pages: 1 -->
<!--zoomable 95 -->
<svg id="main" version="1.1" xmlns="http://www.w3.org/2000/svg" xmlns:xlink="http://www.w3.org/1999/xlink" xml:space="preserve" onload="init(evt)">
<style type="text/css"><![CDATA[
.edge:hover path { stroke: red; }
.edge:hover polygon { stroke: red; fill: red; }
]]></style>
<script type="text/javascript"><![CDATA[
var edges = document.getElementsByTagName('g');
if (edges && edges.length) {
  for (var i=0;i<edges.length;i++) {
    if (edges[i].id.substr(0,4)=='edge') {
      edges[i].setAttribute('class','edge');
    }
  }
}
]]></script>
        <defs>
                <circle id="rim" cx="0" cy="0" r="7"/>
                <circle id="rim2" cx="0" cy="0" r="3.5"/>
                <g id="zoomPlus">
                        <use xlink:href="#rim" fill="#404040">
                                <set attributeName="fill" to="#808080" begin="zoomplus.mouseover" end="zoomplus.mouseout"/>
                        </use>
                        <path d="M-4,0h8M0,-4v8" fill="none" stroke="white" stroke-width="1.5" pointer-events="none"/>
                </g>
                <g id="zoomMin">
                        <use xlink:href="#rim" fill="#404040">
                                <set attributeName="fill" to="#808080" begin="zoomminus.mouseover" end="zoomminus.mouseout"/>
                        </use>
                        <path d="M-4,0h8" fill="none" stroke="white" stroke-width="1.5" pointer-events="none"/>
                </g>
                <g id="dirArrow">
                        <path fill="none" stroke="white" stroke-width="1.5" d="M0,-3.0v7 M-2.5,-0.5L0,-3.0L2.5,-0.5"/>
                </g>
               <g id="resetDef">
                       <use xlink:href="#rim2" fill="#404040">
                               <set attributeName="fill" to="#808080" begin="reset.mouseover" end="reset.mouseout"/>
                       </use>
               </g>
        </defs>

<script type="text/javascript">
var viewWidth = 612;
var viewHeight = 95;
var sectionId = 'dynsection-23';
</script>
<script xlink:href="svgpan.js"/>
<svg id="graph" class="graph">
<g id="viewport">
<title>mom_continuity_ppm::zonal_flux_layer</title>
<polygon fill="white" stroke="white" points="-4,5 -4,-90.6647 609,-90.6647 609,5 -4,5"/>
<!-- Node113 -->
<g id="node1" class="node"><title>Node113</title>
<g id="a_node1"><a xlink:title="Evaluates the zonal mass or volume fluxes in a layer.">
<polygon fill="#bfbfbf" stroke="black" points="512,-15.6647 512,-45.6647 604,-45.6647 604,-15.6647 512,-15.6647"/>
<text text-anchor="start" x="520" y="-33.6647" font-family="Helvetica,sans-Serif" font-size="10.00">mom_continuity_ppm</text>
<text text-anchor="middle" x="558" y="-22.6647" font-family="Helvetica,sans-Serif" font-size="10.00">::zonal_flux_layer</text>
</a>
</g>
</g>
<!-- Node114 -->
<g id="node2" class="node"><title>Node114</title>
<g id="a_node2"><a xlink:href="namespacemom__continuity__ppm.html#aad852a51f55e24f5e276e4fbfe639394" target="_top" xlink:title="Sets a structure that describes the zonal barotropic volume or mass fluxes as a function of barotropi...">
<polygon fill="white" stroke="black" points="256,-56.6647 256,-86.6647 348,-86.6647 348,-56.6647 256,-56.6647"/>
<text text-anchor="start" x="264" y="-74.6647" font-family="Helvetica,sans-Serif" font-size="10.00">mom_continuity_ppm</text>
<text text-anchor="middle" x="302" y="-63.6647" font-family="Helvetica,sans-Serif" font-size="10.00">::set_zonal_bt_cont</text>
</a>
</g>
</g>
<!-- Node113&#45;&gt;Node114 -->
<g id="edge1" class="edge"><title>Node113&#45;&gt;Node114</title>
<path fill="none" stroke="midnightblue" d="M502.266,-48.4099C493.547,-50.7928 484.576,-52.9886 476,-54.6647 433.052,-63.0582 383.255,-67.3973 348.146,-69.5821"/>
<polygon fill="midnightblue" stroke="midnightblue" points="503.301,-51.7542 511.967,-45.6578 501.391,-45.02 503.301,-51.7542"/>
</g>
<!-- Node117 -->
<g id="node5" class="node"><title>Node117</title>
<g id="a_node5"><a xlink:href="namespacemom__continuity__ppm.html#a409d8171ed588e0c2b492dbfc963570d" target="_top" xlink:title="Returns the barotropic velocity adjustment that gives the desired barotropic (layer&#45;summed) transport...">
<polygon fill="white" stroke="black" points="384,-15.6647 384,-45.6647 476,-45.6647 476,-15.6647 384,-15.6647"/>
<text text-anchor="start" x="392" y="-33.6647" font-family="Helvetica,sans-Serif" font-size="10.00">mom_continuity_ppm</text>
<text text-anchor="middle" x="430" y="-22.6647" font-family="Helvetica,sans-Serif" font-size="10.00">::zonal_flux_adjust</text>
</a>
</g>
</g>
<!-- Node113&#45;&gt;Node117 -->
<g id="edge4" class="edge"><title>Node113&#45;&gt;Node117</title>
<path fill="none" stroke="midnightblue" d="M501.647,-30.6647C493.156,-30.6647 484.478,-30.6647 476.241,-30.6647"/>
<polygon fill="midnightblue" stroke="midnightblue" points="501.867,-34.1648 511.867,-30.6647 501.867,-27.1648 501.867,-34.1648"/>
</g>
<!-- Node115 -->
<g id="node3" class="node"><title>Node115</title>
<g id="a_node3"><a xlink:href="namespacemom__continuity__ppm.html#aaee3d916bed27d4884d9473218c20fc9" target="_top" xlink:title="Calculates the mass or volume fluxes through the zonal faces, and other related quantities.">
<polygon fill="white" stroke="black" points="128,-12.6647 128,-42.6647 220,-42.6647 220,-12.6647 128,-12.6647"/>
<text text-anchor="start" x="136" y="-30.6647" font-family="Helvetica,sans-Serif" font-size="10.00">mom_continuity_ppm</text>
<text text-anchor="middle" x="174" y="-19.6647" font-family="Helvetica,sans-Serif" font-size="10.00">::zonal_mass_flux</text>
</a>
</g>
</g>
<!-- Node113&#45;&gt;Node115 -->
<g id="edge7" class="edge"><title>Node113&#45;&gt;Node115</title>
<path fill="none" stroke="midnightblue" d="M506.881,-12.6518C496.783,-9.74795 486.15,-7.19544 476,-5.66466 385.85,7.931 279.193,-7.11839 220.115,-18.1543"/>
<polygon fill="midnightblue" stroke="midnightblue" points="506.178,-16.0959 516.763,-15.6479 508.209,-9.39698 506.178,-16.0959"/>
</g>
<!-- Node114&#45;&gt;Node115 -->
<g id="edge2" class="edge"><title>Node114&#45;&gt;Node115</title>
<path fill="none" stroke="midnightblue" d="M248.484,-53.3259C238.416,-49.8098 227.979,-46.1654 218.244,-42.7656"/>
<polygon fill="midnightblue" stroke="midnightblue" points="247.396,-56.6528 257.99,-56.6454 249.703,-50.0442 247.396,-56.6528"/>
</g>
<!-- Node116 -->
<g id="node4" class="node"><title>Node116</title>
<g id="a_node4"><a xlink:href="namespacemom__continuity__ppm.html#a59586aae1668f03f3a78d58f5712cc0f" target="_top" xlink:title="Time steps the layer thicknesses, using a monotonically limit, directionally split PPM scheme,...">
<polygon fill="white" stroke="black" points="0,-12.6647 0,-42.6647 92,-42.6647 92,-12.6647 0,-12.6647"/>
<text text-anchor="start" x="8" y="-30.6647" font-family="Helvetica,sans-Serif" font-size="10.00">mom_continuity_ppm</text>
<text text-anchor="middle" x="46" y="-19.6647" font-family="Helvetica,sans-Serif" font-size="10.00">::continuity_ppm</text>
</a>
</g>
</g>
<!-- Node115&#45;&gt;Node116 -->
<g id="edge3" class="edge"><title>Node115&#45;&gt;Node116</title>
<path fill="none" stroke="midnightblue" d="M117.647,-27.6647C109.156,-27.6647 100.478,-27.6647 92.2414,-27.6647"/>
<polygon fill="midnightblue" stroke="midnightblue" points="117.867,-31.1648 127.867,-27.6647 117.867,-24.1648 117.867,-31.1648"/>
</g>
<!-- Node117&#45;&gt;Node114 -->
<g id="edge5" class="edge"><title>Node117&#45;&gt;Node114</title>
<path fill="none" stroke="midnightblue" d="M374.206,-48.4944C365.538,-51.3149 356.659,-54.204 348.241,-56.9433"/>
<polygon fill="midnightblue" stroke="midnightblue" points="375.441,-51.7734 383.867,-45.3508 373.275,-45.1169 375.441,-51.7734"/>
</g>
<!-- Node117&#45;&gt;Node115 -->
<g id="edge6" class="edge"><title>Node117&#45;&gt;Node115</title>
<path fill="none" stroke="midnightblue" d="M373.784,-30.0125C327.781,-29.4692 263.068,-28.7048 220.124,-28.1976"/>
<polygon fill="midnightblue" stroke="midnightblue" points="373.842,-33.5133 383.883,-30.1318 373.925,-26.5138 373.842,-33.5133"/>
</g>
</g>
</svg>
        <g id="navigator" transform="translate(0 0)" fill="#404254">
                <rect fill="#f2f5e9" fill-opacity="0.5" stroke="#606060" stroke-width=".5" x="0" y="0" width="60" height="60"/>
                <use id="zoomplus" xlink:href="#zoomPlus" x="17" y="9" onmousedown="handleZoom(evt,'in')"/>
                <use id="zoomminus" xlink:href="#zoomMin" x="42" y="9" onmousedown="handleZoom(evt,'out')"/>
                <use id="reset" xlink:href="#resetDef" x="30" y="36" onmousedown="handleReset()"/>
                <g id="arrowUp" xlink:href="#dirArrow" transform="translate(30 24)" onmousedown="handlePan(0,-1)">
                  <use xlink:href="#rim" fill="#404040">
                        <set attributeName="fill" to="#808080" begin="arrowUp.mouseover" end="arrowUp.mouseout"/>
                  </use>
                  <path fill="none" stroke="white" stroke-width="1.5" d="M0,-3.0v7 M-2.5,-0.5L0,-3.0L2.5,-0.5"/>
                </g>
                <g id="arrowRight" xlink:href="#dirArrow" transform="rotate(90) translate(36 -43)" onmousedown="handlePan(1,0)">
                  <use xlink:href="#rim" fill="#404040">
                        <set attributeName="fill" to="#808080" begin="arrowRight.mouseover" end="arrowRight.mouseout"/>
                  </use>
                  <path fill="none" stroke="white" stroke-width="1.5" d="M0,-3.0v7 M-2.5,-0.5L0,-3.0L2.5,-0.5"/>
                </g>
                <g id="arrowDown" xlink:href="#dirArrow" transform="rotate(180) translate(-30 -48)" onmousedown="handlePan(0,1)">
                  <use xlink:href="#rim" fill="#404040">
                        <set attributeName="fill" to="#808080" begin="arrowDown.mouseover" end="arrowDown.mouseout"/>
                  </use>
                  <path fill="none" stroke="white" stroke-width="1.5" d="M0,-3.0v7 M-2.5,-0.5L0,-3.0L2.5,-0.5"/>
                </g>
                <g id="arrowLeft" xlink:href="#dirArrow" transform="rotate(270) translate(-36 17)" onmousedown="handlePan(-1,0)">
                  <use xlink:href="#rim" fill="#404040">
                        <set attributeName="fill" to="#808080" begin="arrowLeft.mouseover" end="arrowLeft.mouseout"/>
                  </use>
                  <path fill="none" stroke="white" stroke-width="1.5" d="M0,-3.0v7 M-2.5,-0.5L0,-3.0L2.5,-0.5"/>
                </g>
        </g>
        <svg viewBox="0 0 15 15" width="100%" height="30px" preserveAspectRatio="xMaxYMin meet">
         <g id="arrow_out" transform="scale(0.3 0.3)">
          <a xlink:href="namespacemom__continuity__ppm_a3c7a68d00ff8defb2edcc60d0b7ddb7e_icgraph_org.svg" target="_base">
           <rect id="button" ry="5" rx="5" y="6" x="6" height="38" width="38"
                fill="#f2f5e9" fill-opacity="0.5" stroke="#606060" stroke-width="1.0"/>
           <path id="arrow"
             d="M 11.500037,31.436501 C 11.940474,20.09759 22.043105,11.32322 32.158766,21.979434 L 37.068811,17.246167 C 37.068811,17.246167 37.088388,32 37.088388,32 L 22.160133,31.978069 C 22.160133,31.978069 26.997745,27.140456 26.997745,27.140456 C 18.528582,18.264221 13.291696,25.230495 11.500037,31.436501 z"
             style="fill:#404040;"/>
          </a>
         </g>
        </svg>
</svg>
