<?xml version="1.0" encoding="UTF-8" standalone="no"?>
<!DOCTYPE svg PUBLIC "-//W3C//DTD SVG 1.1//EN"
 "http://www.w3.org/Graphics/SVG/1.1/DTD/svg11.dtd">
<!-- Generated by graphviz version 2.30.1 (20170916.1124)
 -->
<!-- Title: mom_tracer_z_init::read_z_edges Pages: 1 -->
<svg width="496pt" height="148pt"
 viewBox="0.00 0.00 496.00 148.00" xmlns="http://www.w3.org/2000/svg" xmlns:xlink="http://www.w3.org/1999/xlink">
<g id="graph0" class="graph" transform="scale(1 1) rotate(0) translate(4 144)">
<title>mom_tracer_z_init::read_z_edges</title>
<polygon fill="white" stroke="white" points="-4,5 -4,-144 493,-144 493,5 -4,5"/>
<!-- Node4 -->
<g id="node1" class="node"><title>Node4</title>
<g id="a_node1"><a xlink:title=" ">
<polygon fill="#bfbfbf" stroke="black" points="400.5,-49 400.5,-79 487.5,-79 487.5,-49 400.5,-49"/>
<text text-anchor="start" x="408.5" y="-67" font-family="Helvetica,sans-Serif" font-size="10.00">mom_tracer_z_init::</text>
<text text-anchor="middle" x="444" y="-56" font-family="Helvetica,sans-Serif" font-size="10.00">read_z_edges</text>
</a>
</g>
</g>
<!-- Node5 -->
<g id="node2" class="node"><title>Node5</title>
<g id="a_node2"><a xlink:href="namespacemom__tracer__z__init.html#a153c8859a6918fc350976a4a7c279c79" target="_top" xlink:title=" ">
<polygon fill="white" stroke="black" points="276.5,-49 276.5,-79 363.5,-79 363.5,-49 276.5,-49"/>
<text text-anchor="start" x="284.5" y="-67" font-family="Helvetica,sans-Serif" font-size="10.00">mom_tracer_z_init::</text>
<text text-anchor="middle" x="320" y="-56" font-family="Helvetica,sans-Serif" font-size="10.00">tracer_z_init</text>
</a>
</g>
</g>
<!-- Node4&#45;&gt;Node5 -->
<g id="edge1" class="edge"><title>Node4&#45;&gt;Node5</title>
<path fill="none" stroke="midnightblue" d="M390.163,-64C381.374,-64 372.354,-64 363.852,-64"/>
<polygon fill="midnightblue" stroke="midnightblue" points="390.33,-67.5001 400.33,-64 390.33,-60.5001 390.33,-67.5001"/>
</g>
<!-- Node6 -->
<g id="node3" class="node"><title>Node6</title>
<g id="a_node3"><a xlink:href="namespaceideal__age__example.html#abec4db7c44f7a6d5c891a6d8a17a99b3" target="_top" xlink:title=" ">
<polygon fill="white" stroke="black" points="148,-98.5 148,-139.5 238,-139.5 238,-98.5 148,-98.5"/>
<text text-anchor="start" x="156" y="-127.5" font-family="Helvetica,sans-Serif" font-size="10.00">ideal_age_example::</text>
<text text-anchor="start" x="156" y="-116.5" font-family="Helvetica,sans-Serif" font-size="10.00">initialize_ideal_age</text>
<text text-anchor="middle" x="193" y="-105.5" font-family="Helvetica,sans-Serif" font-size="10.00">_tracer</text>
</a>
</g>
</g>
<!-- Node5&#45;&gt;Node6 -->
<g id="edge2" class="edge"><title>Node5&#45;&gt;Node6</title>
<path fill="none" stroke="midnightblue" d="M275.489,-83.145C263.501,-88.4195 250.484,-94.1471 238.444,-99.4445"/>
<polygon fill="midnightblue" stroke="midnightblue" points="277.1,-86.26 284.843,-79.029 274.28,-79.8528 277.1,-86.26"/>
</g>
<!-- Node7 -->
<g id="node4" class="node"><title>Node7</title>
<g id="a_node4"><a xlink:href="namespacemom__ocmip2__cfc.html#a403331f12c4b16682f42f284bf57f330" target="_top" xlink:title=" ">
<polygon fill="white" stroke="black" points="146.5,-49 146.5,-79 239.5,-79 239.5,-49 146.5,-49"/>
<text text-anchor="start" x="154.5" y="-67" font-family="Helvetica,sans-Serif" font-size="10.00">mom_ocmip2_cfc::init</text>
<text text-anchor="middle" x="193" y="-56" font-family="Helvetica,sans-Serif" font-size="10.00">_tracer_cfc</text>
</a>
</g>
</g>
<!-- Node5&#45;&gt;Node7 -->
<g id="edge3" class="edge"><title>Node5&#45;&gt;Node7</title>
<path fill="none" stroke="midnightblue" d="M266.221,-64C257.47,-64 248.458,-64 239.895,-64"/>
<polygon fill="midnightblue" stroke="midnightblue" points="266.332,-67.5001 276.332,-64 266.332,-60.5001 266.332,-67.5001"/>
</g>
<!-- Node9 -->
<g id="node6" class="node"><title>Node9</title>
<g id="a_node6"><a xlink:href="namespaceoil__tracer.html#a2bb5dd516d506706c1e67e1206e389b5" target="_top" xlink:title=" ">
<polygon fill="white" stroke="black" points="152.5,-0 152.5,-30 233.5,-30 233.5,-0 152.5,-0"/>
<text text-anchor="start" x="160.5" y="-18" font-family="Helvetica,sans-Serif" font-size="10.00">oil_tracer::initialize</text>
<text text-anchor="middle" x="193" y="-7" font-family="Helvetica,sans-Serif" font-size="10.00">_oil_tracer</text>
</a>
</g>
</g>
<!-- Node5&#45;&gt;Node9 -->
<g id="edge5" class="edge"><title>Node5&#45;&gt;Node9</title>
<path fill="none" stroke="midnightblue" d="M270.97,-45.1722C258.275,-40.1958 244.738,-34.8891 232.612,-30.1359"/>
<polygon fill="midnightblue" stroke="midnightblue" points="269.888,-48.5075 280.476,-48.8986 272.443,-41.9903 269.888,-48.5075"/>
</g>
<!-- Node8 -->
<g id="node5" class="node"><title>Node8</title>
<g id="a_node5"><a xlink:href="namespacemom__ocmip2__cfc.html#a0c916b2f0835bd79002803f246d2ef49" target="_top" xlink:title=" ">
<polygon fill="white" stroke="black" points="0,-49 0,-79 110,-79 110,-49 0,-49"/>
<text text-anchor="start" x="8" y="-67" font-family="Helvetica,sans-Serif" font-size="10.00">mom_ocmip2_cfc::initialize</text>
<text text-anchor="middle" x="55" y="-56" font-family="Helvetica,sans-Serif" font-size="10.00">_ocmip2_cfc</text>
</a>
</g>
</g>
<!-- Node7&#45;&gt;Node8 -->
<g id="edge4" class="edge"><title>Node7&#45;&gt;Node8</title>
<path fill="none" stroke="midnightblue" d="M136.092,-64C127.557,-64 118.758,-64 110.259,-64"/>
<polygon fill="midnightblue" stroke="midnightblue" points="136.336,-67.5001 146.336,-64 136.336,-60.5001 136.336,-67.5001"/>
</g>
</g>
</svg>
