<?xml version="1.0" encoding="UTF-8" standalone="no"?>
<!DOCTYPE svg PUBLIC "-//W3C//DTD SVG 1.1//EN"
 "http://www.w3.org/Graphics/SVG/1.1/DTD/svg11.dtd">
<!-- Generated by graphviz version 2.30.1 (20170916.1124)
 -->
<!-- Title: mom_sum_output::write_depth_list Pages: 1 -->
<svg width="542pt" height="77pt"
 viewBox="0.00 0.00 542.00 77.00" xmlns="http://www.w3.org/2000/svg" xmlns:xlink="http://www.w3.org/1999/xlink">
<g id="graph0" class="graph" transform="scale(1 1) rotate(0) translate(4 73)">
<title>mom_sum_output::write_depth_list</title>
<polygon fill="white" stroke="white" points="-4,5 -4,-73 539,-73 539,5 -4,5"/>
<!-- Node44 -->
<g id="node1" class="node"><title>Node44</title>
<g id="a_node1"><a xlink:title=" ">
<polygon fill="#bfbfbf" stroke="black" points="430.5,-22 430.5,-52 533.5,-52 533.5,-22 430.5,-22"/>
<text text-anchor="start" x="438.5" y="-40" font-family="Helvetica,sans-Serif" font-size="10.00">mom_sum_output::write</text>
<text text-anchor="middle" x="482" y="-29" font-family="Helvetica,sans-Serif" font-size="10.00">_depth_list</text>
</a>
</g>
</g>
<!-- Node45 -->
<g id="node2" class="node"><title>Node45</title>
<g id="a_node2"><a xlink:href="namespacemom__sum__output.html#a6be0bb6885b7df65618f4039d493f5c7" target="_top" xlink:title=" ">
<polygon fill="white" stroke="black" points="288,-22 288,-52 394,-52 394,-22 288,-22"/>
<text text-anchor="start" x="296" y="-40" font-family="Helvetica,sans-Serif" font-size="10.00">mom_sum_output::depth</text>
<text text-anchor="middle" x="341" y="-29" font-family="Helvetica,sans-Serif" font-size="10.00">_list_setup</text>
</a>
</g>
</g>
<!-- Node44&#45;&gt;Node45 -->
<g id="edge1" class="edge"><title>Node44&#45;&gt;Node45</title>
<path fill="none" stroke="midnightblue" d="M420.316,-37C411.603,-37 402.702,-37 394.172,-37"/>
<polygon fill="midnightblue" stroke="midnightblue" points="420.425,-40.5001 430.425,-37 420.425,-33.5001 420.425,-40.5001"/>
</g>
<!-- Node46 -->
<g id="node3" class="node"><title>Node46</title>
<g id="a_node3"><a xlink:href="namespacemom__sum__output.html#ab1d2eb6c53a3cdd079ff60f82691fccb" target="_top" xlink:title=" ">
<polygon fill="white" stroke="black" points="148,-22 148,-52 252,-52 252,-22 148,-22"/>
<text text-anchor="start" x="156" y="-40" font-family="Helvetica,sans-Serif" font-size="10.00">mom_sum_output::mom</text>
<text text-anchor="middle" x="200" y="-29" font-family="Helvetica,sans-Serif" font-size="10.00">_sum_output_init</text>
</a>
</g>
</g>
<!-- Node45&#45;&gt;Node46 -->
<g id="edge2" class="edge"><title>Node45&#45;&gt;Node46</title>
<path fill="none" stroke="midnightblue" d="M277.832,-37C269.215,-37 260.445,-37 252.062,-37"/>
<polygon fill="midnightblue" stroke="midnightblue" points="277.846,-40.5001 287.846,-37 277.846,-33.5001 277.846,-40.5001"/>
</g>
<!-- Node47 -->
<g id="node4" class="node"><title>Node47</title>
<g id="a_node4"><a xlink:href="MOM__driver_8F90.html#a08fffeb2d8e8acbf9ed4609be6d258c6" target="_top" xlink:title=" ">
<polygon fill="white" stroke="black" points="28,-49.5 28,-68.5 84,-68.5 84,-49.5 28,-49.5"/>
<text text-anchor="middle" x="56" y="-56.5" font-family="Helvetica,sans-Serif" font-size="10.00">mom_main</text>
</a>
</g>
</g>
<!-- Node46&#45;&gt;Node47 -->
<g id="edge3" class="edge"><title>Node46&#45;&gt;Node47</title>
<path fill="none" stroke="midnightblue" d="M137.781,-46.4847C119.097,-49.3794 99.491,-52.4169 84.274,-54.7745"/>
<polygon fill="midnightblue" stroke="midnightblue" points="138.389,-49.9324 147.735,-44.9425 137.317,-43.0149 138.389,-49.9324"/>
</g>
<!-- Node48 -->
<g id="node5" class="node"><title>Node48</title>
<g id="a_node5"><a xlink:href="namespaceocean__model__mod.html#aced9c77abd80a4a509c7cc317af707a7" target="_top" xlink:title=" ">
<polygon fill="white" stroke="black" points="0.5,-0 0.5,-30 111.5,-30 111.5,-0 0.5,-0"/>
<text text-anchor="start" x="8.5" y="-18" font-family="Helvetica,sans-Serif" font-size="10.00">ocean_model_mod::ocean</text>
<text text-anchor="middle" x="56" y="-7" font-family="Helvetica,sans-Serif" font-size="10.00">_model_init</text>
</a>
</g>
</g>
<!-- Node46&#45;&gt;Node48 -->
<g id="edge4" class="edge"><title>Node46&#45;&gt;Node48</title>
<path fill="none" stroke="midnightblue" d="M137.66,-27.4967C128.974,-26.1509 120.092,-24.7748 111.546,-23.4507"/>
<polygon fill="midnightblue" stroke="midnightblue" points="137.317,-30.9851 147.735,-29.0575 138.389,-24.0676 137.317,-30.9851"/>
</g>
</g>
</svg>
