<?xml version="1.0" encoding="UTF-8" standalone="no"?>
<!DOCTYPE svg PUBLIC "-//W3C//DTD SVG 1.1//EN"
 "http://www.w3.org/Graphics/SVG/1.1/DTD/svg11.dtd">
<!-- Generated by graphviz version 2.30.1 (20170916.1124)
 -->
<!-- Title: mom_io::reopen_file Pages: 1 -->
<svg width="480pt" height="53pt"
 viewBox="0.00 0.00 480.00 53.00" xmlns="http://www.w3.org/2000/svg" xmlns:xlink="http://www.w3.org/1999/xlink">
<g id="graph0" class="graph" transform="scale(1 1) rotate(0) translate(4 49)">
<title>mom_io::reopen_file</title>
<polygon fill="white" stroke="white" points="-4,5 -4,-49 477,-49 477,5 -4,5"/>
<!-- Node99 -->
<g id="node1" class="node"><title>Node99</title>
<g id="a_node1"><a xlink:title="This routine opens an existing NetCDF file for output. If it does not find the file,...">
<polygon fill="#bfbfbf" stroke="black" points="0.5,-6.5 0.5,-25.5 89.5,-25.5 89.5,-6.5 0.5,-6.5"/>
<text text-anchor="middle" x="45" y="-13.5" font-family="Helvetica,sans-Serif" font-size="10.00">mom_io::reopen_file</text>
</a>
</g>
</g>
<!-- Node100 -->
<g id="node2" class="node"><title>Node100</title>
<g id="a_node2"><a xlink:href="namespacemom__io.html#af1055066586190a2ce5c225c85261ee3" target="_top" xlink:title="Routine creates a new NetCDF file. It also sets up structures that describe this file and variables t...">
<polygon fill="white" stroke="black" points="126,-25.5 126,-44.5 212,-44.5 212,-25.5 126,-25.5"/>
<text text-anchor="middle" x="169" y="-32.5" font-family="Helvetica,sans-Serif" font-size="10.00">mom_io::create_file</text>
</a>
</g>
</g>
<!-- Node99&#45;&gt;Node100 -->
<g id="edge1" class="edge"><title>Node99&#45;&gt;Node100</title>
<path fill="none" stroke="midnightblue" d="M89.7002,-22.8058C98.1527,-24.1221 107.088,-25.5138 115.781,-26.8675"/>
<polygon fill="midnightblue" stroke="midnightblue" points="115.411,-30.352 125.83,-28.4326 116.488,-23.4354 115.411,-30.352"/>
</g>
<!-- Node101 -->
<g id="node3" class="node"><title>Node101</title>
<g id="a_node3"><a xlink:href="namespacemom__error__handler.html#a460cfb79a06c29fc249952c2a3710d67" target="_top" xlink:title=" ">
<polygon fill="white" stroke="black" points="248.5,-1 248.5,-31 341.5,-31 341.5,-1 248.5,-1"/>
<text text-anchor="start" x="256.5" y="-19" font-family="Helvetica,sans-Serif" font-size="10.00">mom_error_handler::</text>
<text text-anchor="middle" x="295" y="-8" font-family="Helvetica,sans-Serif" font-size="10.00">mom_error</text>
</a>
</g>
</g>
<!-- Node99&#45;&gt;Node101 -->
<g id="edge4" class="edge"><title>Node99&#45;&gt;Node101</title>
<path fill="none" stroke="midnightblue" d="M89.7665,-16C131.048,-16 193.122,-16 237.996,-16"/>
<polygon fill="midnightblue" stroke="midnightblue" points="238.152,-19.5001 248.152,-16 238.152,-12.5001 238.152,-19.5001"/>
</g>
<!-- Node100&#45;&gt;Node101 -->
<g id="edge2" class="edge"><title>Node100&#45;&gt;Node101</title>
<path fill="none" stroke="midnightblue" d="M212.327,-28.5144C220.698,-27.2318 229.603,-25.8673 238.338,-24.5289"/>
<polygon fill="midnightblue" stroke="midnightblue" points="239.118,-27.9503 248.472,-22.9761 238.057,-21.0311 239.118,-27.9503"/>
</g>
<!-- Node102 -->
<g id="node4" class="node"><title>Node102</title>
<g id="a_node4"><a xlink:href="namespacemom__error__handler.html#ad5f00a53059c72fe2332d1436c80ca71" target="_top" xlink:title=" ">
<polygon fill="white" stroke="black" points="378.5,-1 378.5,-31 471.5,-31 471.5,-1 378.5,-1"/>
<text text-anchor="start" x="386.5" y="-19" font-family="Helvetica,sans-Serif" font-size="10.00">mom_error_handler::</text>
<text text-anchor="middle" x="425" y="-8" font-family="Helvetica,sans-Serif" font-size="10.00">is_root_pe</text>
</a>
</g>
</g>
<!-- Node101&#45;&gt;Node102 -->
<g id="edge3" class="edge"><title>Node101&#45;&gt;Node102</title>
<path fill="none" stroke="midnightblue" d="M341.849,-16C350.408,-16 359.439,-16 368.258,-16"/>
<polygon fill="midnightblue" stroke="midnightblue" points="368.471,-19.5001 378.471,-16 368.471,-12.5001 368.471,-19.5001"/>
</g>
</g>
</svg>
