<?xml version="1.0" encoding="UTF-8" standalone="no"?>
<!DOCTYPE svg PUBLIC "-//W3C//DTD SVG 1.1//EN"
 "http://www.w3.org/Graphics/SVG/1.1/DTD/svg11.dtd">
<!-- Generated by graphviz version 2.30.1 (20170916.1124)
 -->
<!-- Title: mom_ocmip2_cfc::initialize_ocmip2_cfc Pages: 1 -->
<!--zoomable 381 -->
<svg id="main" version="1.1" xmlns="http://www.w3.org/2000/svg" xmlns:xlink="http://www.w3.org/1999/xlink" xml:space="preserve" onload="init(evt)">
<style type="text/css"><![CDATA[
.edge:hover path { stroke: red; }
.edge:hover polygon { stroke: red; fill: red; }
]]></style>
<script type="text/javascript"><![CDATA[
var edges = document.getElementsByTagName('g');
if (edges && edges.length) {
  for (var i=0;i<edges.length;i++) {
    if (edges[i].id.substr(0,4)=='edge') {
      edges[i].setAttribute('class','edge');
    }
  }
}
]]></script>
        <defs>
                <circle id="rim" cx="0" cy="0" r="7"/>
                <circle id="rim2" cx="0" cy="0" r="3.5"/>
                <g id="zoomPlus">
                        <use xlink:href="#rim" fill="#404040">
                                <set attributeName="fill" to="#808080" begin="zoomplus.mouseover" end="zoomplus.mouseout"/>
                        </use>
                        <path d="M-4,0h8M0,-4v8" fill="none" stroke="white" stroke-width="1.5" pointer-events="none"/>
                </g>
                <g id="zoomMin">
                        <use xlink:href="#rim" fill="#404040">
                                <set attributeName="fill" to="#808080" begin="zoomminus.mouseover" end="zoomminus.mouseout"/>
                        </use>
                        <path d="M-4,0h8" fill="none" stroke="white" stroke-width="1.5" pointer-events="none"/>
                </g>
                <g id="dirArrow">
                        <path fill="none" stroke="white" stroke-width="1.5" d="M0,-3.0v7 M-2.5,-0.5L0,-3.0L2.5,-0.5"/>
                </g>
               <g id="resetDef">
                       <use xlink:href="#rim2" fill="#404040">
                               <set attributeName="fill" to="#808080" begin="reset.mouseover" end="reset.mouseout"/>
                       </use>
               </g>
        </defs>

<script type="text/javascript">
var viewWidth = 808;
var viewHeight = 381;
var sectionId = 'dynsection-2';
</script>
<script xlink:href="svgpan.js"/>
<svg id="graph" class="graph">
<g id="viewport">
<title>mom_ocmip2_cfc::initialize_ocmip2_cfc</title>
<polygon fill="white" stroke="white" points="-4,5 -4,-376.908 805,-376.908 805,5 -4,5"/>
<!-- Node10 -->
<g id="node1" class="node"><title>Node10</title>
<g id="a_node1"><a xlink:title=" ">
<polygon fill="#bfbfbf" stroke="black" points="0,-268 0,-298 110,-298 110,-268 0,-268"/>
<text text-anchor="start" x="8" y="-286" font-family="Helvetica,sans-Serif" font-size="10.00">mom_ocmip2_cfc::initialize</text>
<text text-anchor="middle" x="55" y="-275" font-family="Helvetica,sans-Serif" font-size="10.00">_ocmip2_cfc</text>
</a>
</g>
</g>
<!-- Node11 -->
<g id="node2" class="node"><title>Node11</title>
<g id="a_node2"><a xlink:href="namespacemom__tracer__registry.html#ac008525fee272a225a19998ae437b5bf" target="_top" xlink:title="This subroutine adds diagnostic arrays for a tracer that has previously been registered by a call to ...">
<polygon fill="white" stroke="black" points="289,-219 289,-249 393,-249 393,-219 289,-219"/>
<text text-anchor="start" x="297" y="-237" font-family="Helvetica,sans-Serif" font-size="10.00">mom_tracer_registry</text>
<text text-anchor="middle" x="341" y="-226" font-family="Helvetica,sans-Serif" font-size="10.00">::add_tracer_diagnostics</text>
</a>
</g>
</g>
<!-- Node10&#45;&gt;Node11 -->
<g id="edge1" class="edge"><title>Node10&#45;&gt;Node11</title>
<path fill="none" stroke="midnightblue" d="M105.199,-267.92C118.36,-264.275 132.642,-260.666 146,-258 189.993,-249.219 240.279,-243.107 278.63,-239.249"/>
<polygon fill="midnightblue" stroke="midnightblue" points="279.002,-242.73 288.612,-238.269 278.318,-235.763 279.002,-242.73"/>
</g>
<!-- Node14 -->
<g id="node5" class="node"><title>Node14</title>
<g id="a_node5"><a xlink:href="namespacemom__ocmip2__cfc.html#a403331f12c4b16682f42f284bf57f330" target="_top" xlink:title=" ">
<polygon fill="white" stroke="black" points="152.5,-175 152.5,-205 245.5,-205 245.5,-175 152.5,-175"/>
<text text-anchor="start" x="160.5" y="-193" font-family="Helvetica,sans-Serif" font-size="10.00">mom_ocmip2_cfc::init</text>
<text text-anchor="middle" x="199" y="-182" font-family="Helvetica,sans-Serif" font-size="10.00">_tracer_cfc</text>
</a>
</g>
</g>
<!-- Node10&#45;&gt;Node14 -->
<g id="edge4" class="edge"><title>Node10&#45;&gt;Node14</title>
<path fill="none" stroke="midnightblue" d="M77.6446,-267.938C95.7644,-255.424 122.377,-237.264 146,-222 151.862,-218.212 158.149,-214.256 164.254,-210.468"/>
<polygon fill="midnightblue" stroke="midnightblue" points="166.321,-213.306 172.998,-205.079 162.648,-207.347 166.321,-213.306"/>
</g>
<!-- Node12 -->
<g id="node3" class="node"><title>Node12</title>
<g id="a_node3"><a xlink:href="namespacemom__error__handler.html#a460cfb79a06c29fc249952c2a3710d67" target="_top" xlink:title=" ">
<polygon fill="white" stroke="black" points="576.5,-200 576.5,-230 669.5,-230 669.5,-200 576.5,-200"/>
<text text-anchor="start" x="584.5" y="-218" font-family="Helvetica,sans-Serif" font-size="10.00">mom_error_handler::</text>
<text text-anchor="middle" x="623" y="-207" font-family="Helvetica,sans-Serif" font-size="10.00">mom_error</text>
</a>
</g>
</g>
<!-- Node10&#45;&gt;Node12 -->
<g id="edge14" class="edge"><title>Node10&#45;&gt;Node12</title>
<path fill="none" stroke="midnightblue" d="M71.2638,-298.202C87.9702,-313.668 116.35,-336.654 146,-346 220.353,-369.438 441.152,-394.712 540,-340 579.001,-318.413 602.579,-269.528 613.874,-239.69"/>
<polygon fill="midnightblue" stroke="midnightblue" points="617.266,-240.601 617.362,-230.007 610.68,-238.229 617.266,-240.601"/>
</g>
<!-- Node20 -->
<g id="node11" class="node"><title>Node20</title>
<g id="a_node11"><a xlink:href="namespacemom__io.html#a23e82d1d89d9bb1c9bdf802ce80d4508" target="_top" xlink:title="This routine queries vardesc.">
<polygon fill="white" stroke="black" points="148,-317.5 148,-336.5 250,-336.5 250,-317.5 148,-317.5"/>
<text text-anchor="middle" x="199" y="-324.5" font-family="Helvetica,sans-Serif" font-size="10.00">mom_io::query_vardesc</text>
</a>
</g>
</g>
<!-- Node10&#45;&gt;Node20 -->
<g id="edge15" class="edge"><title>Node10&#45;&gt;Node20</title>
<path fill="none" stroke="midnightblue" d="M104.471,-298.019C121.637,-303.338 140.763,-309.265 157.225,-314.365"/>
<polygon fill="midnightblue" stroke="midnightblue" points="156.5,-317.805 167.088,-317.422 158.572,-311.119 156.5,-317.805"/>
</g>
<!-- Node22 -->
<g id="node13" class="node"><title>Node22</title>
<g id="a_node13"><a xlink:href="namespacemom__diag__to__z.html#a6946a3316715041c5944df17db1aef74" target="_top" xlink:title=" ">
<polygon fill="white" stroke="black" points="146.5,-268 146.5,-298 251.5,-298 251.5,-268 146.5,-268"/>
<text text-anchor="start" x="154.5" y="-286" font-family="Helvetica,sans-Serif" font-size="10.00">mom_diag_to_z::register</text>
<text text-anchor="middle" x="199" y="-275" font-family="Helvetica,sans-Serif" font-size="10.00">_z_tracer</text>
</a>
</g>
</g>
<!-- Node10&#45;&gt;Node22 -->
<g id="edge18" class="edge"><title>Node10&#45;&gt;Node22</title>
<path fill="none" stroke="midnightblue" d="M110.089,-283C118.652,-283 127.563,-283 136.284,-283"/>
<polygon fill="midnightblue" stroke="midnightblue" points="136.402,-286.5 146.402,-283 136.402,-279.5 136.402,-286.5"/>
</g>
<!-- Node11&#45;&gt;Node12 -->
<g id="edge2" class="edge"><title>Node11&#45;&gt;Node12</title>
<path fill="none" stroke="midnightblue" d="M393.031,-230.537C442.024,-227.213 515.839,-222.204 566.329,-218.778"/>
<polygon fill="midnightblue" stroke="midnightblue" points="566.677,-222.262 576.417,-218.093 566.203,-215.278 566.677,-222.262"/>
</g>
<!-- Node13 -->
<g id="node4" class="node"><title>Node13</title>
<g id="a_node4"><a xlink:href="namespacemom__error__handler.html#ad5f00a53059c72fe2332d1436c80ca71" target="_top" xlink:title=" ">
<polygon fill="white" stroke="black" points="706.5,-142 706.5,-172 799.5,-172 799.5,-142 706.5,-142"/>
<text text-anchor="start" x="714.5" y="-160" font-family="Helvetica,sans-Serif" font-size="10.00">mom_error_handler::</text>
<text text-anchor="middle" x="753" y="-149" font-family="Helvetica,sans-Serif" font-size="10.00">is_root_pe</text>
</a>
</g>
</g>
<!-- Node12&#45;&gt;Node13 -->
<g id="edge3" class="edge"><title>Node12&#45;&gt;Node13</title>
<path fill="none" stroke="midnightblue" d="M657.296,-199.913C673.296,-192.663 692.652,-183.892 709.683,-176.175"/>
<polygon fill="midnightblue" stroke="midnightblue" points="711.206,-179.327 718.87,-172.012 708.317,-172.951 711.206,-179.327"/>
</g>
<!-- Node14&#45;&gt;Node12 -->
<g id="edge5" class="edge"><title>Node14&#45;&gt;Node12</title>
<path fill="none" stroke="midnightblue" d="M245.562,-192.699C323.409,-197.311 481.772,-206.693 566.148,-211.691"/>
<polygon fill="midnightblue" stroke="midnightblue" points="566.119,-215.196 576.309,-212.293 566.533,-208.208 566.119,-215.196"/>
</g>
<!-- Node15 -->
<g id="node6" class="node"><title>Node15</title>
<g id="a_node6"><a xlink:href="namespacemom__tracer__z__init.html#a153c8859a6918fc350976a4a7c279c79" target="_top" xlink:title=" ">
<polygon fill="white" stroke="black" points="297.5,-88 297.5,-118 384.5,-118 384.5,-88 297.5,-88"/>
<text text-anchor="start" x="305.5" y="-106" font-family="Helvetica,sans-Serif" font-size="10.00">mom_tracer_z_init::</text>
<text text-anchor="middle" x="341" y="-95" font-family="Helvetica,sans-Serif" font-size="10.00">tracer_z_init</text>
</a>
</g>
</g>
<!-- Node14&#45;&gt;Node15 -->
<g id="edge6" class="edge"><title>Node14&#45;&gt;Node15</title>
<path fill="none" stroke="midnightblue" d="M224.386,-174.846C247.232,-160.649 281.559,-139.317 306.877,-123.583"/>
<polygon fill="midnightblue" stroke="midnightblue" points="308.777,-126.523 315.424,-118.272 305.083,-120.578 308.777,-126.523"/>
</g>
<!-- Node16 -->
<g id="node7" class="node"><title>Node16</title>
<g id="a_node7"><a xlink:href="namespacemom__tracer__z__init.html#a00e2eb419a924624bf8ae6d84e64ef47" target="_top" xlink:title=" ">
<polygon fill="white" stroke="black" points="441.5,-0 441.5,-30 528.5,-30 528.5,-0 441.5,-0"/>
<text text-anchor="start" x="449.5" y="-18" font-family="Helvetica,sans-Serif" font-size="10.00">mom_tracer_z_init::</text>
<text text-anchor="middle" x="485" y="-7" font-family="Helvetica,sans-Serif" font-size="10.00">read_z_edges</text>
</a>
</g>
</g>
<!-- Node15&#45;&gt;Node16 -->
<g id="edge7" class="edge"><title>Node15&#45;&gt;Node16</title>
<path fill="none" stroke="midnightblue" d="M363.765,-87.9924C381.396,-75.9969 406.998,-58.9423 430,-45 435.477,-41.6802 441.337,-38.2767 447.104,-35.0092"/>
<polygon fill="midnightblue" stroke="midnightblue" points="449.004,-37.9568 456.02,-30.0182 445.585,-31.8486 449.004,-37.9568"/>
</g>
<!-- Node15&#45;&gt;Node12 -->
<g id="edge11" class="edge"><title>Node15&#45;&gt;Node12</title>
<path fill="none" stroke="midnightblue" d="M373.433,-87.9457C414.513,-70.6307 487.403,-48.1829 540,-78 551.151,-84.3216 588.997,-153.031 609.14,-190.672"/>
<polygon fill="midnightblue" stroke="midnightblue" points="606.294,-192.773 614.085,-199.953 612.472,-189.481 606.294,-192.773"/>
</g>
<!-- Node18 -->
<g id="node9" class="node"><title>Node18</title>
<g id="a_node9"><a xlink:href="namespacemom__diag__to__z.html#a7bb6af99ccb5eb1daf7473663ca19aea" target="_top" xlink:title=" ">
<polygon fill="white" stroke="black" points="439.5,-88 439.5,-118 530.5,-118 530.5,-88 439.5,-88"/>
<text text-anchor="start" x="447.5" y="-106" font-family="Helvetica,sans-Serif" font-size="10.00">mom_diag_to_z::find</text>
<text text-anchor="middle" x="485" y="-95" font-family="Helvetica,sans-Serif" font-size="10.00">_overlap</text>
</a>
</g>
</g>
<!-- Node15&#45;&gt;Node18 -->
<g id="edge12" class="edge"><title>Node15&#45;&gt;Node18</title>
<path fill="none" stroke="midnightblue" d="M384.605,-103C398.676,-103 414.53,-103 429.373,-103"/>
<polygon fill="midnightblue" stroke="midnightblue" points="429.454,-106.5 439.454,-103 429.454,-99.5001 429.454,-106.5"/>
</g>
<!-- Node19 -->
<g id="node10" class="node"><title>Node19</title>
<g id="a_node10"><a xlink:href="namespacemom__diag__to__z.html#a55f6203cfb483bb62c543f689ab30741" target="_top" xlink:title=" ">
<polygon fill="white" stroke="black" points="439.5,-137 439.5,-167 530.5,-167 530.5,-137 439.5,-137"/>
<text text-anchor="start" x="447.5" y="-155" font-family="Helvetica,sans-Serif" font-size="10.00">mom_diag_to_z::find</text>
<text text-anchor="middle" x="485" y="-144" font-family="Helvetica,sans-Serif" font-size="10.00">_limited_slope</text>
</a>
</g>
</g>
<!-- Node15&#45;&gt;Node19 -->
<g id="edge13" class="edge"><title>Node15&#45;&gt;Node19</title>
<path fill="none" stroke="midnightblue" d="M384.605,-117.702C399.08,-122.697 415.44,-128.342 430.647,-133.589"/>
<polygon fill="midnightblue" stroke="midnightblue" points="429.848,-137.016 440.442,-136.97 432.131,-130.399 429.848,-137.016"/>
</g>
<!-- Node16&#45;&gt;Node12 -->
<g id="edge8" class="edge"><title>Node16&#45;&gt;Node12</title>
<path fill="none" stroke="midnightblue" d="M520.908,-30.0885C527.832,-34.2032 534.616,-39.1696 540,-45 566.178,-73.3465 559.293,-89.2197 576,-124 586.98,-146.859 600.076,-172.63 609.481,-190.896"/>
<polygon fill="midnightblue" stroke="midnightblue" points="606.462,-192.678 614.161,-199.957 612.682,-189.466 606.462,-192.678"/>
</g>
<!-- Node17 -->
<g id="node8" class="node"><title>Node17</title>
<g id="a_node8"><a xlink:href="namespacemom__error__handler.html#a1c462df7b61f1296407b4af51dfeceab" target="_top" xlink:title=" ">
<polygon fill="white" stroke="black" points="576.5,-85 576.5,-115 669.5,-115 669.5,-85 576.5,-85"/>
<text text-anchor="start" x="584.5" y="-103" font-family="Helvetica,sans-Serif" font-size="10.00">mom_error_handler::</text>
<text text-anchor="middle" x="623" y="-92" font-family="Helvetica,sans-Serif" font-size="10.00">mom_mesg</text>
</a>
</g>
</g>
<!-- Node16&#45;&gt;Node17 -->
<g id="edge9" class="edge"><title>Node16&#45;&gt;Node17</title>
<path fill="none" stroke="midnightblue" d="M514.284,-30.1304C522.647,-34.7605 531.766,-39.9635 540,-45 557.48,-55.6922 576.515,-68.3913 591.842,-78.8917"/>
<polygon fill="midnightblue" stroke="midnightblue" points="590.177,-81.9952 600.397,-84.7883 594.149,-76.2315 590.177,-81.9952"/>
</g>
<!-- Node17&#45;&gt;Node13 -->
<g id="edge10" class="edge"><title>Node17&#45;&gt;Node13</title>
<path fill="none" stroke="midnightblue" d="M657.966,-115.125C673.444,-122.018 691.953,-130.26 708.44,-137.602"/>
<polygon fill="midnightblue" stroke="midnightblue" points="707.317,-140.933 717.876,-141.804 710.164,-134.539 707.317,-140.933"/>
</g>
<!-- Node21 -->
<g id="node12" class="node"><title>Node21</title>
<g id="a_node12"><a xlink:href="namespacemom__io.html#ac4bc408e8b38dbd669842753f26ebf88" target="_top" xlink:title="Copies a string.">
<polygon fill="white" stroke="black" points="430,-311.5 430,-330.5 540,-330.5 540,-311.5 430,-311.5"/>
<text text-anchor="middle" x="485" y="-318.5" font-family="Helvetica,sans-Serif" font-size="10.00">mom_io::safe_string_copy</text>
</a>
</g>
</g>
<!-- Node20&#45;&gt;Node21 -->
<g id="edge16" class="edge"><title>Node20&#45;&gt;Node21</title>
<path fill="none" stroke="midnightblue" d="M250.12,-325.941C297.295,-324.944 368.179,-323.447 419.542,-322.362"/>
<polygon fill="midnightblue" stroke="midnightblue" points="419.617,-325.861 429.541,-322.151 419.47,-318.863 419.617,-325.861"/>
</g>
<!-- Node21&#45;&gt;Node12 -->
<g id="edge17" class="edge"><title>Node21&#45;&gt;Node12</title>
<path fill="none" stroke="midnightblue" d="M505.933,-311.391C516.437,-305.97 529.32,-298.742 540,-291 562.149,-274.944 584.763,-253.531 600.618,-237.527"/>
<polygon fill="midnightblue" stroke="midnightblue" points="603.34,-239.75 607.827,-230.152 598.334,-234.857 603.34,-239.75"/>
</g>
<!-- Node23 -->
<g id="node14" class="node"><title>Node23</title>
<g id="a_node14"><a xlink:href="namespacemom__diag__to__z.html#adde57f2503f5c182af511fba0f4c83ea" target="_top" xlink:title=" ">
<polygon fill="white" stroke="black" points="288.5,-268 288.5,-298 393.5,-298 393.5,-268 288.5,-268"/>
<text text-anchor="start" x="296.5" y="-286" font-family="Helvetica,sans-Serif" font-size="10.00">mom_diag_to_z::register</text>
<text text-anchor="middle" x="341" y="-275" font-family="Helvetica,sans-Serif" font-size="10.00">_z_tracer_low</text>
</a>
</g>
</g>
<!-- Node22&#45;&gt;Node23 -->
<g id="edge19" class="edge"><title>Node22&#45;&gt;Node23</title>
<path fill="none" stroke="midnightblue" d="M251.733,-283C260.355,-283 269.374,-283 278.216,-283"/>
<polygon fill="midnightblue" stroke="midnightblue" points="278.48,-286.5 288.48,-283 278.48,-279.5 278.48,-286.5"/>
</g>
<!-- Node23&#45;&gt;Node12 -->
<g id="edge20" class="edge"><title>Node23&#45;&gt;Node12</title>
<path fill="none" stroke="midnightblue" d="M393.503,-272.529C433.595,-264.143 490.549,-251.716 540,-239 548.559,-236.799 557.575,-234.323 566.373,-231.818"/>
<polygon fill="midnightblue" stroke="midnightblue" points="567.537,-235.125 576.176,-228.992 565.598,-228.399 567.537,-235.125"/>
</g>
</g>
</svg>
        <g id="navigator" transform="translate(0 0)" fill="#404254">
                <rect fill="#f2f5e9" fill-opacity="0.5" stroke="#606060" stroke-width=".5" x="0" y="0" width="60" height="60"/>
                <use id="zoomplus" xlink:href="#zoomPlus" x="17" y="9" onmousedown="handleZoom(evt,'in')"/>
                <use id="zoomminus" xlink:href="#zoomMin" x="42" y="9" onmousedown="handleZoom(evt,'out')"/>
                <use id="reset" xlink:href="#resetDef" x="30" y="36" onmousedown="handleReset()"/>
                <g id="arrowUp" xlink:href="#dirArrow" transform="translate(30 24)" onmousedown="handlePan(0,-1)">
                  <use xlink:href="#rim" fill="#404040">
                        <set attributeName="fill" to="#808080" begin="arrowUp.mouseover" end="arrowUp.mouseout"/>
                  </use>
                  <path fill="none" stroke="white" stroke-width="1.5" d="M0,-3.0v7 M-2.5,-0.5L0,-3.0L2.5,-0.5"/>
                </g>
                <g id="arrowRight" xlink:href="#dirArrow" transform="rotate(90) translate(36 -43)" onmousedown="handlePan(1,0)">
                  <use xlink:href="#rim" fill="#404040">
                        <set attributeName="fill" to="#808080" begin="arrowRight.mouseover" end="arrowRight.mouseout"/>
                  </use>
                  <path fill="none" stroke="white" stroke-width="1.5" d="M0,-3.0v7 M-2.5,-0.5L0,-3.0L2.5,-0.5"/>
                </g>
                <g id="arrowDown" xlink:href="#dirArrow" transform="rotate(180) translate(-30 -48)" onmousedown="handlePan(0,1)">
                  <use xlink:href="#rim" fill="#404040">
                        <set attributeName="fill" to="#808080" begin="arrowDown.mouseover" end="arrowDown.mouseout"/>
                  </use>
                  <path fill="none" stroke="white" stroke-width="1.5" d="M0,-3.0v7 M-2.5,-0.5L0,-3.0L2.5,-0.5"/>
                </g>
                <g id="arrowLeft" xlink:href="#dirArrow" transform="rotate(270) translate(-36 17)" onmousedown="handlePan(-1,0)">
                  <use xlink:href="#rim" fill="#404040">
                        <set attributeName="fill" to="#808080" begin="arrowLeft.mouseover" end="arrowLeft.mouseout"/>
                  </use>
                  <path fill="none" stroke="white" stroke-width="1.5" d="M0,-3.0v7 M-2.5,-0.5L0,-3.0L2.5,-0.5"/>
                </g>
        </g>
        <svg viewBox="0 0 15 15" width="100%" height="30px" preserveAspectRatio="xMaxYMin meet">
         <g id="arrow_out" transform="scale(0.3 0.3)">
          <a xlink:href="namespacemom__ocmip2__cfc_a0c916b2f0835bd79002803f246d2ef49_cgraph_org.svg" target="_base">
           <rect id="button" ry="5" rx="5" y="6" x="6" height="38" width="38"
                fill="#f2f5e9" fill-opacity="0.5" stroke="#606060" stroke-width="1.0"/>
           <path id="arrow"
             d="M 11.500037,31.436501 C 11.940474,20.09759 22.043105,11.32322 32.158766,21.979434 L 37.068811,17.246167 C 37.068811,17.246167 37.088388,32 37.088388,32 L 22.160133,31.978069 C 22.160133,31.978069 26.997745,27.140456 26.997745,27.140456 C 18.528582,18.264221 13.291696,25.230495 11.500037,31.436501 z"
             style="fill:#404040;"/>
          </a>
         </g>
        </svg>
</svg>
