<?xml version="1.0" encoding="UTF-8" standalone="no"?>
<!DOCTYPE svg PUBLIC "-//W3C//DTD SVG 1.1//EN"
 "http://www.w3.org/Graphics/SVG/1.1/DTD/svg11.dtd">
<!-- Generated by graphviz version 2.30.1 (20170916.1124)
 -->
<!-- Title: mom_forcing_type::forcing_singlepointprint Pages: 1 -->
<svg width="462pt" height="38pt"
 viewBox="0.00 0.00 462.00 38.00" xmlns="http://www.w3.org/2000/svg" xmlns:xlink="http://www.w3.org/1999/xlink">
<g id="graph0" class="graph" transform="scale(1 1) rotate(0) translate(4 34)">
<title>mom_forcing_type::forcing_singlepointprint</title>
<polygon fill="white" stroke="white" points="-4,5 -4,-34 459,-34 459,5 -4,5"/>
<!-- Node69 -->
<g id="node1" class="node"><title>Node69</title>
<g id="a_node1"><a xlink:title="Write out values of the fluxes arrays at the i,j location. This is a debugging tool.">
<polygon fill="#bfbfbf" stroke="black" points="342.5,-0 342.5,-30 453.5,-30 453.5,-0 342.5,-0"/>
<text text-anchor="start" x="350.5" y="-18" font-family="Helvetica,sans-Serif" font-size="10.00">mom_forcing_type::forcing</text>
<text text-anchor="middle" x="398" y="-7" font-family="Helvetica,sans-Serif" font-size="10.00">_singlepointprint</text>
</a>
</g>
</g>
<!-- Node70 -->
<g id="node2" class="node"><title>Node70</title>
<g id="a_node2"><a xlink:href="namespacemom__diabatic__aux.html#a44d0243253dc728f6d1d1dced76883f3" target="_top" xlink:title="Update the thickness, temperature, and salinity due to thermodynamic boundary forcing (contained in f...">
<polygon fill="white" stroke="black" points="128,-5.5 128,-24.5 306,-24.5 306,-5.5 128,-5.5"/>
<text text-anchor="middle" x="217" y="-12.5" font-family="Helvetica,sans-Serif" font-size="10.00">mom_diabatic_aux::applyboundaryfluxesinout</text>
</a>
</g>
</g>
<!-- Node69&#45;&gt;Node70 -->
<g id="edge1" class="edge"><title>Node69&#45;&gt;Node70</title>
<path fill="none" stroke="midnightblue" d="M332.223,-15C323.796,-15 315.053,-15 306.324,-15"/>
<polygon fill="midnightblue" stroke="midnightblue" points="332.322,-18.5001 342.321,-15 332.321,-11.5001 332.322,-18.5001"/>
</g>
<!-- Node71 -->
<g id="node3" class="node"><title>Node71</title>
<g id="a_node3"><a xlink:href="namespacemom__diabatic__driver.html#a61e57d3902367aa46aa3c2d949ee900f" target="_top" xlink:title="This subroutine imposes the diapycnal mass fluxes and the accompanying diapycnal advection of momentu...">
<polygon fill="white" stroke="black" points="0.5,-0 0.5,-30 91.5,-30 91.5,-0 0.5,-0"/>
<text text-anchor="start" x="8.5" y="-18" font-family="Helvetica,sans-Serif" font-size="10.00">mom_diabatic_driver</text>
<text text-anchor="middle" x="46" y="-7" font-family="Helvetica,sans-Serif" font-size="10.00">::diabatic</text>
</a>
</g>
</g>
<!-- Node70&#45;&gt;Node71 -->
<g id="edge2" class="edge"><title>Node70&#45;&gt;Node71</title>
<path fill="none" stroke="midnightblue" d="M117.368,-15C108.421,-15 99.6916,-15 91.5962,-15"/>
<polygon fill="midnightblue" stroke="midnightblue" points="117.54,-18.5001 127.54,-15 117.54,-11.5001 117.54,-18.5001"/>
</g>
</g>
</svg>
