<?xml version="1.0" encoding="UTF-8" standalone="no"?>
<!DOCTYPE svg PUBLIC "-//W3C//DTD SVG 1.1//EN"
 "http://www.w3.org/Graphics/SVG/1.1/DTD/svg11.dtd">
<!-- Generated by graphviz version 2.30.1 (20170916.1124)
 -->
<!-- Title: mom_surface_forcing::surface_forcing_init Pages: 1 -->
<!--zoomable 586 -->
<svg id="main" version="1.1" xmlns="http://www.w3.org/2000/svg" xmlns:xlink="http://www.w3.org/1999/xlink" xml:space="preserve" onload="init(evt)">
<style type="text/css"><![CDATA[
.edge:hover path { stroke: red; }
.edge:hover polygon { stroke: red; fill: red; }
]]></style>
<script type="text/javascript"><![CDATA[
var edges = document.getElementsByTagName('g');
if (edges && edges.length) {
  for (var i=0;i<edges.length;i++) {
    if (edges[i].id.substr(0,4)=='edge') {
      edges[i].setAttribute('class','edge');
    }
  }
}
]]></script>
        <defs>
                <circle id="rim" cx="0" cy="0" r="7"/>
                <circle id="rim2" cx="0" cy="0" r="3.5"/>
                <g id="zoomPlus">
                        <use xlink:href="#rim" fill="#404040">
                                <set attributeName="fill" to="#808080" begin="zoomplus.mouseover" end="zoomplus.mouseout"/>
                        </use>
                        <path d="M-4,0h8M0,-4v8" fill="none" stroke="white" stroke-width="1.5" pointer-events="none"/>
                </g>
                <g id="zoomMin">
                        <use xlink:href="#rim" fill="#404040">
                                <set attributeName="fill" to="#808080" begin="zoomminus.mouseover" end="zoomminus.mouseout"/>
                        </use>
                        <path d="M-4,0h8" fill="none" stroke="white" stroke-width="1.5" pointer-events="none"/>
                </g>
                <g id="dirArrow">
                        <path fill="none" stroke="white" stroke-width="1.5" d="M0,-3.0v7 M-2.5,-0.5L0,-3.0L2.5,-0.5"/>
                </g>
               <g id="resetDef">
                       <use xlink:href="#rim2" fill="#404040">
                               <set attributeName="fill" to="#808080" begin="reset.mouseover" end="reset.mouseout"/>
                       </use>
               </g>
        </defs>

<script type="text/javascript">
var viewWidth = 1136;
var viewHeight = 586;
var sectionId = 'dynsection-17';
</script>
<script xlink:href="svgpan.js"/>
<svg id="graph" class="graph">
<g id="viewport">
<title>mom_surface_forcing::surface_forcing_init</title>
<polygon fill="white" stroke="white" points="-4,5 -4,-581.774 1133,-581.774 1133,5 -4,5"/>
<!-- Node90 -->
<g id="node1" class="node"><title>Node90</title>
<g id="a_node1"><a xlink:title=" ">
<polygon fill="#bfbfbf" stroke="black" points="0,-308.774 0,-338.774 94,-338.774 94,-308.774 0,-308.774"/>
<text text-anchor="start" x="8" y="-326.774" font-family="Helvetica,sans-Serif" font-size="10.00">mom_surface_forcing</text>
<text text-anchor="middle" x="47" y="-315.774" font-family="Helvetica,sans-Serif" font-size="10.00">::surface_forcing_init</text>
</a>
</g>
</g>
<!-- Node91 -->
<g id="node2" class="node"><title>Node91</title>
<g id="a_node2"><a xlink:href="namespacemom__get__input.html#a299c5b9476662ef1a382e23a8d078143" target="_top" xlink:title=" ">
<polygon fill="white" stroke="black" points="139,-333.774 139,-363.774 227,-363.774 227,-333.774 139,-333.774"/>
<text text-anchor="start" x="147" y="-351.774" font-family="Helvetica,sans-Serif" font-size="10.00">mom_get_input::get</text>
<text text-anchor="middle" x="183" y="-340.774" font-family="Helvetica,sans-Serif" font-size="10.00">_mom_input</text>
</a>
</g>
</g>
<!-- Node90&#45;&gt;Node91 -->
<g id="edge1" class="edge"><title>Node90&#45;&gt;Node91</title>
<path fill="none" stroke="midnightblue" d="M94.1152,-332.378C105.358,-334.475 117.472,-336.736 129.006,-338.887"/>
<polygon fill="midnightblue" stroke="midnightblue" points="128.484,-342.35 138.956,-340.744 129.768,-335.469 128.484,-342.35"/>
</g>
<!-- Node92 -->
<g id="node3" class="node"><title>Node92</title>
<g id="a_node3"><a xlink:href="namespacemom__error__handler.html#a460cfb79a06c29fc249952c2a3710d67" target="_top" xlink:title=" ">
<polygon fill="white" stroke="black" points="801.5,-339.774 801.5,-369.774 894.5,-369.774 894.5,-339.774 801.5,-339.774"/>
<text text-anchor="start" x="809.5" y="-357.774" font-family="Helvetica,sans-Serif" font-size="10.00">mom_error_handler::</text>
<text text-anchor="middle" x="848" y="-346.774" font-family="Helvetica,sans-Serif" font-size="10.00">mom_error</text>
</a>
</g>
</g>
<!-- Node90&#45;&gt;Node92 -->
<g id="edge20" class="edge"><title>Node90&#45;&gt;Node92</title>
<path fill="none" stroke="midnightblue" d="M67.6798,-338.916C83.58,-350.283 107.019,-365.148 130,-372.774 212.687,-400.214 237.879,-392.774 325,-392.774 325,-392.774 325,-392.774 473,-392.774 586.602,-392.774 718.624,-375.207 791.498,-363.961"/>
<polygon fill="midnightblue" stroke="midnightblue" points="792.04,-367.419 801.38,-362.419 790.96,-360.503 792.04,-367.419"/>
</g>
<!-- Node104 -->
<g id="node15" class="node"><title>Node104</title>
<g id="a_node15"><a xlink:href="namespacemom__restart.html#a304183ab574d06ac810b41b1e82eb89c" target="_top" xlink:title=" ">
<polygon fill="white" stroke="black" points="138,-284.774 138,-314.774 228,-314.774 228,-284.774 138,-284.774"/>
<text text-anchor="start" x="146" y="-302.774" font-family="Helvetica,sans-Serif" font-size="10.00">mom_restart::restart</text>
<text text-anchor="middle" x="183" y="-291.774" font-family="Helvetica,sans-Serif" font-size="10.00">_init_end</text>
</a>
</g>
</g>
<!-- Node90&#45;&gt;Node104 -->
<g id="edge21" class="edge"><title>Node90&#45;&gt;Node104</title>
<path fill="none" stroke="midnightblue" d="M94.1152,-315.515C104.896,-313.584 116.479,-311.51 127.583,-309.521"/>
<polygon fill="midnightblue" stroke="midnightblue" points="128.383,-312.933 137.61,-307.725 127.149,-306.043 128.383,-312.933"/>
</g>
<!-- Node106 -->
<g id="node17" class="node"><title>Node106</title>
<g id="a_node17"><a xlink:href="namespacemom__restart.html#aec60d8a437fc858db4a020f9985b449d" target="_top" xlink:title=" ">
<polygon fill="white" stroke="black" points="426,-465.774 426,-495.774 518,-495.774 518,-465.774 426,-465.774"/>
<text text-anchor="start" x="434" y="-483.774" font-family="Helvetica,sans-Serif" font-size="10.00">mom_restart::restore</text>
<text text-anchor="middle" x="472" y="-472.774" font-family="Helvetica,sans-Serif" font-size="10.00">_state</text>
</a>
</g>
</g>
<!-- Node90&#45;&gt;Node106 -->
<g id="edge23" class="edge"><title>Node90&#45;&gt;Node106</title>
<path fill="none" stroke="midnightblue" d="M58.5853,-338.968C72.6389,-357.925 99.2903,-389.895 130,-406.774 221.965,-457.323 345.611,-473.346 415.952,-478.422"/>
<polygon fill="midnightblue" stroke="midnightblue" points="415.72,-481.914 425.933,-479.095 416.191,-474.93 415.72,-481.914"/>
</g>
<!-- Node109 -->
<g id="node20" class="node"><title>Node109</title>
<g id="a_node20"><a xlink:href="namespacemom__string__functions.html#aca148baf726de2f028b7e7baad3c85d4" target="_top" xlink:title=" ">
<polygon fill="white" stroke="black" points="135.5,-235.774 135.5,-265.774 230.5,-265.774 230.5,-235.774 135.5,-235.774"/>
<text text-anchor="start" x="143.5" y="-253.774" font-family="Helvetica,sans-Serif" font-size="10.00">mom_string_functions</text>
<text text-anchor="middle" x="183" y="-242.774" font-family="Helvetica,sans-Serif" font-size="10.00">::uppercase</text>
</a>
</g>
</g>
<!-- Node90&#45;&gt;Node109 -->
<g id="edge29" class="edge"><title>Node90&#45;&gt;Node109</title>
<path fill="none" stroke="midnightblue" d="M72.4632,-308.75C88.6109,-299.009 110.339,-286.233 130,-275.774 133.434,-273.948 137.022,-272.1 140.639,-270.28"/>
<polygon fill="midnightblue" stroke="midnightblue" points="142.206,-273.41 149.618,-265.839 139.103,-267.135 142.206,-273.41"/>
</g>
<!-- Node110 -->
<g id="node21" class="node"><title>Node110</title>
<g id="a_node21"><a xlink:href="namespaceuser__revise__forcing.html#a2ad3d5246a9856b8beca995015e63887" target="_top" xlink:title=" ">
<polygon fill="white" stroke="black" points="130.5,-186.774 130.5,-216.774 235.5,-216.774 235.5,-186.774 130.5,-186.774"/>
<text text-anchor="start" x="138.5" y="-204.774" font-family="Helvetica,sans-Serif" font-size="10.00">user_revise_forcing</text>
<text text-anchor="middle" x="183" y="-193.774" font-family="Helvetica,sans-Serif" font-size="10.00">::user_revise_forcing_init</text>
</a>
</g>
</g>
<!-- Node90&#45;&gt;Node110 -->
<g id="edge30" class="edge"><title>Node90&#45;&gt;Node110</title>
<path fill="none" stroke="midnightblue" d="M57.7883,-308.588C71.749,-287.887 99.1318,-250.661 130,-226.774 132.08,-225.165 134.279,-223.623 136.553,-222.151"/>
<polygon fill="midnightblue" stroke="midnightblue" points="138.748,-224.92 145.589,-216.83 135.196,-218.889 138.748,-224.92"/>
</g>
<!-- Node91&#45;&gt;Node92 -->
<g id="edge2" class="edge"><title>Node91&#45;&gt;Node92</title>
<path fill="none" stroke="midnightblue" d="M227.246,-349.166C343.279,-350.216 661.444,-353.095 790.999,-354.268"/>
<polygon fill="midnightblue" stroke="midnightblue" points="791.07,-357.768 801.101,-354.359 791.134,-350.769 791.07,-357.768"/>
</g>
<!-- Node94 -->
<g id="node5" class="node"><title>Node94</title>
<g id="a_node5"><a xlink:href="namespacemom__file__parser.html#abecae1b9386aafa17aec927af1f8c448" target="_top" xlink:title=" ">
<polygon fill="white" stroke="black" points="276.5,-263.774 276.5,-293.774 375.5,-293.774 375.5,-263.774 276.5,-263.774"/>
<text text-anchor="start" x="284.5" y="-281.774" font-family="Helvetica,sans-Serif" font-size="10.00">mom_file_parser::open</text>
<text text-anchor="middle" x="326" y="-270.774" font-family="Helvetica,sans-Serif" font-size="10.00">_param_file</text>
</a>
</g>
</g>
<!-- Node91&#45;&gt;Node94 -->
<g id="edge4" class="edge"><title>Node91&#45;&gt;Node94</title>
<path fill="none" stroke="midnightblue" d="M215.673,-333.672C222.395,-330.431 229.442,-327.009 236,-323.774 252.46,-315.657 270.548,-306.547 286.094,-298.658"/>
<polygon fill="midnightblue" stroke="midnightblue" points="288.079,-301.575 295.408,-293.923 284.907,-295.335 288.079,-301.575"/>
</g>
<!-- Node93 -->
<g id="node4" class="node"><title>Node93</title>
<g id="a_node4"><a xlink:href="namespacemom__error__handler.html#ad5f00a53059c72fe2332d1436c80ca71" target="_top" xlink:title=" ">
<polygon fill="white" stroke="black" points="1002.5,-160.774 1002.5,-190.774 1095.5,-190.774 1095.5,-160.774 1002.5,-160.774"/>
<text text-anchor="start" x="1010.5" y="-178.774" font-family="Helvetica,sans-Serif" font-size="10.00">mom_error_handler::</text>
<text text-anchor="middle" x="1049" y="-167.774" font-family="Helvetica,sans-Serif" font-size="10.00">is_root_pe</text>
</a>
</g>
</g>
<!-- Node92&#45;&gt;Node93 -->
<g id="edge3" class="edge"><title>Node92&#45;&gt;Node93</title>
<path fill="none" stroke="midnightblue" d="M865.967,-339.513C901.214,-307.809 982.48,-234.71 1023.45,-197.861"/>
<polygon fill="midnightblue" stroke="midnightblue" points="1025.98,-200.287 1031.08,-190.997 1021.3,-195.083 1025.98,-200.287"/>
</g>
<!-- Node94&#45;&gt;Node93 -->
<g id="edge5" class="edge"><title>Node94&#45;&gt;Node93</title>
<path fill="none" stroke="midnightblue" d="M366.909,-263.713C371.661,-260.872 376.174,-257.574 380,-253.774 406.233,-227.718 393.882,-208.404 416,-178.774 469.081,-107.669 481.204,-76.6877 564,-44.7745 717.791,14.5034 797.257,22.241 934,-69.7745 961.398,-88.211 946.395,-111.68 970,-134.774 978.629,-143.217 989.348,-150.35 1000.05,-156.179"/>
<polygon fill="midnightblue" stroke="midnightblue" points="998.495,-159.314 1008.99,-160.768 1001.69,-153.087 998.495,-159.314"/>
</g>
<!-- Node95 -->
<g id="node6" class="node"><title>Node95</title>
<g id="a_node6"><a xlink:href="MOM__memory_8h.html#ae22791a326f7ecd05017238a41eea3a8" target="_top" xlink:title=" ">
<polygon fill="white" stroke="black" points="450,-269.274 450,-288.274 494,-288.274 494,-269.274 450,-269.274"/>
<text text-anchor="middle" x="472" y="-276.274" font-family="Helvetica,sans-Serif" font-size="10.00">number</text>
</a>
</g>
</g>
<!-- Node94&#45;&gt;Node95 -->
<g id="edge6" class="edge"><title>Node94&#45;&gt;Node95</title>
<path fill="none" stroke="midnightblue" d="M375.752,-278.774C396.858,-278.774 420.949,-278.774 439.622,-278.774"/>
<polygon fill="midnightblue" stroke="midnightblue" points="439.655,-282.275 449.655,-278.774 439.655,-275.275 439.655,-282.275"/>
</g>
<!-- Node96 -->
<g id="node7" class="node"><title>Node96</title>
<g id="a_node7"><a xlink:href="namespacemom__file__parser.html#a7abfd98d7f0831fc0d1f3747a68f1be9" target="_top" xlink:title=" ">
<polygon fill="white" stroke="black" points="416,-187.774 416,-217.774 528,-217.774 528,-187.774 416,-187.774"/>
<text text-anchor="start" x="424" y="-205.774" font-family="Helvetica,sans-Serif" font-size="10.00">mom_file_parser::populate</text>
<text text-anchor="middle" x="472" y="-194.774" font-family="Helvetica,sans-Serif" font-size="10.00">_param_data</text>
</a>
</g>
</g>
<!-- Node94&#45;&gt;Node96 -->
<g id="edge7" class="edge"><title>Node94&#45;&gt;Node96</title>
<path fill="none" stroke="midnightblue" d="M359.971,-263.66C366.643,-260.479 373.579,-257.083 380,-253.774 398.745,-244.116 419.264,-232.693 436.065,-223.108"/>
<polygon fill="midnightblue" stroke="midnightblue" points="438.048,-226.006 444.982,-217.996 434.566,-219.934 438.048,-226.006"/>
</g>
<!-- Node97 -->
<g id="node8" class="node"><title>Node97</title>
<g id="a_node8"><a xlink:href="namespacemom__file__parser.html#a99c426fd23fc4df0c4d05e33039e0a66" target="_top" xlink:title=" ">
<polygon fill="white" stroke="black" points="564.5,-269.274 564.5,-288.274 725.5,-288.274 725.5,-269.274 564.5,-269.274"/>
<text text-anchor="middle" x="645" y="-276.274" font-family="Helvetica,sans-Serif" font-size="10.00">mom_file_parser::closemultilinecomment</text>
</a>
</g>
</g>
<!-- Node96&#45;&gt;Node97 -->
<g id="edge8" class="edge"><title>Node96&#45;&gt;Node97</title>
<path fill="none" stroke="midnightblue" d="M492.911,-217.936C510.681,-230.791 537.861,-248.834 564,-259.774 570.105,-262.33 576.622,-264.582 583.202,-266.558"/>
<polygon fill="midnightblue" stroke="midnightblue" points="582.274,-269.933 592.847,-269.259 584.161,-263.192 582.274,-269.933"/>
</g>
<!-- Node96&#45;&gt;Node93 -->
<g id="edge9" class="edge"><title>Node96&#45;&gt;Node93</title>
<path fill="none" stroke="midnightblue" d="M528.205,-193.144C539.985,-191.408 552.378,-189.82 564,-188.774 718.575,-174.864 901.945,-174.256 992.169,-174.999"/>
<polygon fill="midnightblue" stroke="midnightblue" points="992.147,-178.499 1002.18,-175.09 992.21,-171.499 992.147,-178.499"/>
</g>
<!-- Node98 -->
<g id="node9" class="node"><title>Node98</title>
<g id="a_node9"><a xlink:href="namespacemom__file__parser.html#ab4b89d9420e174185db1c6aa3feb948b" target="_top" xlink:title=" ">
<polygon fill="white" stroke="black" points="762,-79.2745 762,-98.2745 934,-98.2745 934,-79.2745 762,-79.2745"/>
<text text-anchor="middle" x="848" y="-86.2745" font-family="Helvetica,sans-Serif" font-size="10.00">mom_file_parser::lastnoncommentnonblank</text>
</a>
</g>
</g>
<!-- Node96&#45;&gt;Node98 -->
<g id="edge10" class="edge"><title>Node96&#45;&gt;Node98</title>
<path fill="none" stroke="midnightblue" d="M477.98,-187.606C488.487,-158.419 515.992,-95.0967 564,-69.7745 644.981,-27.0603 757.61,-56.4132 813.2,-75.6824"/>
<polygon fill="midnightblue" stroke="midnightblue" points="812.301,-79.0778 822.896,-79.1434 814.654,-72.4852 812.301,-79.0778"/>
</g>
<!-- Node96&#45;&gt;Node92 -->
<g id="edge12" class="edge"><title>Node96&#45;&gt;Node92</title>
<path fill="none" stroke="midnightblue" d="M528.089,-195.604C581.478,-191.179 663.35,-191.218 726,-221.774 775.285,-245.812 813.905,-299.483 833.291,-330.802"/>
<polygon fill="midnightblue" stroke="midnightblue" points="830.299,-332.618 838.461,-339.373 836.293,-329.002 830.299,-332.618"/>
</g>
<!-- Node100 -->
<g id="node11" class="node"><title>Node100</title>
<g id="a_node11"><a xlink:href="namespacemom__file__parser.html#a476a2649ce161e38088588e07f7df130" target="_top" xlink:title=" ">
<polygon fill="white" stroke="black" points="767.5,-117.274 767.5,-136.274 928.5,-136.274 928.5,-117.274 767.5,-117.274"/>
<text text-anchor="middle" x="848" y="-124.274" font-family="Helvetica,sans-Serif" font-size="10.00">mom_file_parser::openmultilinecomment</text>
</a>
</g>
</g>
<!-- Node96&#45;&gt;Node100 -->
<g id="edge13" class="edge"><title>Node96&#45;&gt;Node100</title>
<path fill="none" stroke="midnightblue" d="M493.481,-187.585C511.177,-175.347 537.94,-158.889 564,-150.774 626.732,-131.24 700.831,-125.539 757.469,-124.563"/>
<polygon fill="midnightblue" stroke="midnightblue" points="757.521,-128.063 767.476,-124.436 757.432,-121.063 757.521,-128.063"/>
</g>
<!-- Node101 -->
<g id="node12" class="node"><title>Node101</title>
<g id="a_node12"><a xlink:href="namespacemom__file__parser.html#ae0b982cc161173a401291757a6677373" target="_top" xlink:title=" ">
<polygon fill="white" stroke="black" points="572.5,-79.2745 572.5,-98.2745 717.5,-98.2745 717.5,-79.2745 572.5,-79.2745"/>
<text text-anchor="middle" x="645" y="-86.2745" font-family="Helvetica,sans-Serif" font-size="10.00">mom_file_parser::removecomments</text>
</a>
</g>
</g>
<!-- Node96&#45;&gt;Node101 -->
<g id="edge15" class="edge"><title>Node96&#45;&gt;Node101</title>
<path fill="none" stroke="midnightblue" d="M484.254,-187.748C499.97,-167.789 530.37,-132.735 564,-112.774 571.61,-108.257 580.139,-104.53 588.715,-101.473"/>
<polygon fill="midnightblue" stroke="midnightblue" points="589.965,-104.746 598.372,-98.2989 587.779,-98.0961 589.965,-104.746"/>
</g>
<!-- Node102 -->
<g id="node13" class="node"><title>Node102</title>
<g id="a_node13"><a xlink:href="namespacemom__file__parser.html#a9813087789e0924f363d7f67768c7f42" target="_top" xlink:title=" ">
<polygon fill="white" stroke="black" points="584,-307.274 584,-326.274 706,-326.274 706,-307.274 584,-307.274"/>
<text text-anchor="middle" x="645" y="-314.274" font-family="Helvetica,sans-Serif" font-size="10.00">mom_file_parser::replacetabs</text>
</a>
</g>
</g>
<!-- Node96&#45;&gt;Node102 -->
<g id="edge17" class="edge"><title>Node96&#45;&gt;Node102</title>
<path fill="none" stroke="midnightblue" d="M487.978,-218.221C499.059,-229.666 514.506,-245.66 528,-259.774 544.077,-276.59 543.843,-286.158 564,-297.774 567.861,-300 571.97,-301.965 576.21,-303.7"/>
<polygon fill="midnightblue" stroke="midnightblue" points="575.058,-307.005 585.652,-307.143 577.457,-300.429 575.058,-307.005"/>
</g>
<!-- Node103 -->
<g id="node14" class="node"><title>Node103</title>
<g id="a_node14"><a xlink:href="namespacemom__file__parser.html#a3ad322925f44e8cb48c4e652634f6f93" target="_top" xlink:title=" ">
<polygon fill="white" stroke="black" points="572,-231.274 572,-250.274 718,-250.274 718,-231.274 572,-231.274"/>
<text text-anchor="middle" x="645" y="-238.274" font-family="Helvetica,sans-Serif" font-size="10.00">mom_file_parser::simplifywhitespace</text>
</a>
</g>
</g>
<!-- Node96&#45;&gt;Node103 -->
<g id="edge18" class="edge"><title>Node96&#45;&gt;Node103</title>
<path fill="none" stroke="midnightblue" d="M528.047,-215.007C548.259,-219.499 571.084,-224.571 591.103,-229.02"/>
<polygon fill="midnightblue" stroke="midnightblue" points="590.463,-232.463 600.984,-231.215 591.981,-225.629 590.463,-232.463"/>
</g>
<!-- Node99 -->
<g id="node10" class="node"><title>Node99</title>
<g id="a_node10"><a xlink:href="namespacemom__file__parser.html#a000fd0a0681f9e73481ef2663154df78" target="_top" xlink:title=" ">
<polygon fill="white" stroke="black" points="970,-106.274 970,-125.274 1128,-125.274 1128,-106.274 970,-106.274"/>
<text text-anchor="middle" x="1049" y="-113.274" font-family="Helvetica,sans-Serif" font-size="10.00">mom_file_parser::lastnoncommentindex</text>
</a>
</g>
</g>
<!-- Node98&#45;&gt;Node99 -->
<g id="edge11" class="edge"><title>Node98&#45;&gt;Node99</title>
<path fill="none" stroke="midnightblue" d="M919.16,-98.2936C934.914,-100.431 951.745,-102.715 967.87,-104.903"/>
<polygon fill="midnightblue" stroke="midnightblue" points="967.423,-108.374 977.803,-106.25 968.364,-101.437 967.423,-108.374"/>
</g>
<!-- Node100&#45;&gt;Node99 -->
<g id="edge14" class="edge"><title>Node100&#45;&gt;Node99</title>
<path fill="none" stroke="midnightblue" d="M928.508,-122.38C938.739,-121.814 949.263,-121.232 959.625,-120.66"/>
<polygon fill="midnightblue" stroke="midnightblue" points="960.124,-124.137 969.916,-120.091 959.738,-117.148 960.124,-124.137"/>
</g>
<!-- Node101&#45;&gt;Node98 -->
<g id="edge16" class="edge"><title>Node101&#45;&gt;Node98</title>
<path fill="none" stroke="midnightblue" d="M717.714,-88.7745C728.789,-88.7745 740.372,-88.7745 751.862,-88.7745"/>
<polygon fill="midnightblue" stroke="midnightblue" points="751.92,-92.2746 761.92,-88.7745 751.92,-85.2746 751.92,-92.2746"/>
</g>
<!-- Node103&#45;&gt;Node92 -->
<g id="edge19" class="edge"><title>Node103&#45;&gt;Node92</title>
<path fill="none" stroke="midnightblue" d="M700.461,-250.347C709.225,-252.833 718.028,-255.93 726,-259.774 764.304,-278.249 801.769,-310.493 824.621,-332.231"/>
<polygon fill="midnightblue" stroke="midnightblue" points="822.452,-335.003 832.072,-339.443 827.32,-329.973 822.452,-335.003"/>
</g>
<!-- Node105 -->
<g id="node16" class="node"><title>Node105</title>
<g id="a_node16"><a xlink:href="namespacemom__restart.html#ab1ebc8fc62c81dd175b09d376ca2a564" target="_top" xlink:title=" ">
<polygon fill="white" stroke="black" points="272,-225.274 272,-244.274 380,-244.274 380,-225.274 272,-225.274"/>
<text text-anchor="middle" x="326" y="-232.274" font-family="Helvetica,sans-Serif" font-size="10.00">mom_restart::restart_end</text>
</a>
</g>
</g>
<!-- Node104&#45;&gt;Node105 -->
<g id="edge22" class="edge"><title>Node104&#45;&gt;Node105</title>
<path fill="none" stroke="midnightblue" d="M216.047,-284.733C222.679,-281.518 229.595,-278.09 236,-274.774 252.255,-266.361 255.393,-262.471 272,-254.774 277.075,-252.423 282.511,-250.128 287.897,-247.983"/>
<polygon fill="midnightblue" stroke="midnightblue" points="289.378,-251.163 297.449,-244.3 286.86,-244.632 289.378,-251.163"/>
</g>
<!-- Node106&#45;&gt;Node93 -->
<g id="edge24" class="edge"><title>Node106&#45;&gt;Node93</title>
<path fill="none" stroke="midnightblue" d="M518.322,-484.949C532.894,-486.107 549.116,-487.203 564,-487.774 635.947,-490.538 656.087,-504.983 726,-487.774 827.344,-462.829 859.138,-451.497 934,-378.774 988.257,-326.068 1024.11,-241.94 1039.47,-200.495"/>
<polygon fill="midnightblue" stroke="midnightblue" points="1042.82,-201.517 1042.93,-190.923 1036.24,-199.136 1042.82,-201.517"/>
</g>
<!-- Node107 -->
<g id="node18" class="node"><title>Node107</title>
<g id="a_node18"><a xlink:href="namespacemom__string__functions.html#a4d76e9e8c2cd53f210b02006924a9212" target="_top" xlink:title=" ">
<polygon fill="white" stroke="black" points="597.5,-547.774 597.5,-577.774 692.5,-577.774 692.5,-547.774 597.5,-547.774"/>
<text text-anchor="start" x="605.5" y="-565.774" font-family="Helvetica,sans-Serif" font-size="10.00">mom_string_functions</text>
<text text-anchor="middle" x="645" y="-554.774" font-family="Helvetica,sans-Serif" font-size="10.00">::lowercase</text>
</a>
</g>
</g>
<!-- Node106&#45;&gt;Node107 -->
<g id="edge25" class="edge"><title>Node106&#45;&gt;Node107</title>
<path fill="none" stroke="midnightblue" d="M497.151,-495.993C515.171,-506.995 540.611,-521.793 564,-532.774 572.381,-536.71 581.432,-540.509 590.327,-544.006"/>
<polygon fill="midnightblue" stroke="midnightblue" points="589.289,-547.356 599.879,-547.673 591.798,-540.821 589.289,-547.356"/>
</g>
<!-- Node106&#45;&gt;Node92 -->
<g id="edge26" class="edge"><title>Node106&#45;&gt;Node92</title>
<path fill="none" stroke="midnightblue" d="M518.423,-485.54C570.674,-489.167 658,-489.456 726,-460.774 768.77,-442.734 807.008,-403.436 828.571,-378.089"/>
<polygon fill="midnightblue" stroke="midnightblue" points="831.527,-380.007 835.226,-370.079 826.143,-375.534 831.527,-380.007"/>
</g>
<!-- Node108 -->
<g id="node19" class="node"><title>Node108</title>
<g id="a_node19"><a xlink:href="namespacemom__restart.html#a4b143fb18dab7c0825e426fbf9532623" target="_top" xlink:title=" ">
<polygon fill="white" stroke="black" points="600,-421.774 600,-451.774 690,-451.774 690,-421.774 600,-421.774"/>
<text text-anchor="start" x="608" y="-439.774" font-family="Helvetica,sans-Serif" font-size="10.00">mom_restart::restart</text>
<text text-anchor="middle" x="645" y="-428.774" font-family="Helvetica,sans-Serif" font-size="10.00">_error</text>
</a>
</g>
</g>
<!-- Node106&#45;&gt;Node108 -->
<g id="edge27" class="edge"><title>Node106&#45;&gt;Node108</title>
<path fill="none" stroke="midnightblue" d="M518.376,-469.099C540.354,-463.444 566.908,-456.611 589.929,-450.687"/>
<polygon fill="midnightblue" stroke="midnightblue" points="591.079,-454.006 599.891,-448.124 589.334,-447.227 591.079,-454.006"/>
</g>
<!-- Node108&#45;&gt;Node92 -->
<g id="edge28" class="edge"><title>Node108&#45;&gt;Node92</title>
<path fill="none" stroke="midnightblue" d="M687.253,-421.728C699.747,-417.057 713.476,-411.81 726,-406.774 751.894,-396.362 780.604,-384.057 803.557,-374.032"/>
<polygon fill="midnightblue" stroke="midnightblue" points="805.263,-377.106 813.017,-369.887 802.453,-370.694 805.263,-377.106"/>
</g>
</g>
</svg>
        <g id="navigator" transform="translate(0 0)" fill="#404254">
                <rect fill="#f2f5e9" fill-opacity="0.5" stroke="#606060" stroke-width=".5" x="0" y="0" width="60" height="60"/>
                <use id="zoomplus" xlink:href="#zoomPlus" x="17" y="9" onmousedown="handleZoom(evt,'in')"/>
                <use id="zoomminus" xlink:href="#zoomMin" x="42" y="9" onmousedown="handleZoom(evt,'out')"/>
                <use id="reset" xlink:href="#resetDef" x="30" y="36" onmousedown="handleReset()"/>
                <g id="arrowUp" xlink:href="#dirArrow" transform="translate(30 24)" onmousedown="handlePan(0,-1)">
                  <use xlink:href="#rim" fill="#404040">
                        <set attributeName="fill" to="#808080" begin="arrowUp.mouseover" end="arrowUp.mouseout"/>
                  </use>
                  <path fill="none" stroke="white" stroke-width="1.5" d="M0,-3.0v7 M-2.5,-0.5L0,-3.0L2.5,-0.5"/>
                </g>
                <g id="arrowRight" xlink:href="#dirArrow" transform="rotate(90) translate(36 -43)" onmousedown="handlePan(1,0)">
                  <use xlink:href="#rim" fill="#404040">
                        <set attributeName="fill" to="#808080" begin="arrowRight.mouseover" end="arrowRight.mouseout"/>
                  </use>
                  <path fill="none" stroke="white" stroke-width="1.5" d="M0,-3.0v7 M-2.5,-0.5L0,-3.0L2.5,-0.5"/>
                </g>
                <g id="arrowDown" xlink:href="#dirArrow" transform="rotate(180) translate(-30 -48)" onmousedown="handlePan(0,1)">
                  <use xlink:href="#rim" fill="#404040">
                        <set attributeName="fill" to="#808080" begin="arrowDown.mouseover" end="arrowDown.mouseout"/>
                  </use>
                  <path fill="none" stroke="white" stroke-width="1.5" d="M0,-3.0v7 M-2.5,-0.5L0,-3.0L2.5,-0.5"/>
                </g>
                <g id="arrowLeft" xlink:href="#dirArrow" transform="rotate(270) translate(-36 17)" onmousedown="handlePan(-1,0)">
                  <use xlink:href="#rim" fill="#404040">
                        <set attributeName="fill" to="#808080" begin="arrowLeft.mouseover" end="arrowLeft.mouseout"/>
                  </use>
                  <path fill="none" stroke="white" stroke-width="1.5" d="M0,-3.0v7 M-2.5,-0.5L0,-3.0L2.5,-0.5"/>
                </g>
        </g>
        <svg viewBox="0 0 15 15" width="100%" height="30px" preserveAspectRatio="xMaxYMin meet">
         <g id="arrow_out" transform="scale(0.3 0.3)">
          <a xlink:href="namespacemom__surface__forcing_a08ab046cc02cb51f5045c8efa7337f65_cgraph_org.svg" target="_base">
           <rect id="button" ry="5" rx="5" y="6" x="6" height="38" width="38"
                fill="#f2f5e9" fill-opacity="0.5" stroke="#606060" stroke-width="1.0"/>
           <path id="arrow"
             d="M 11.500037,31.436501 C 11.940474,20.09759 22.043105,11.32322 32.158766,21.979434 L 37.068811,17.246167 C 37.068811,17.246167 37.088388,32 37.088388,32 L 22.160133,31.978069 C 22.160133,31.978069 26.997745,27.140456 26.997745,27.140456 C 18.528582,18.264221 13.291696,25.230495 11.500037,31.436501 z"
             style="fill:#404040;"/>
          </a>
         </g>
        </svg>
</svg>
