<?xml version="1.0" encoding="UTF-8" standalone="no"?>
<!DOCTYPE svg PUBLIC "-//W3C//DTD SVG 1.1//EN"
 "http://www.w3.org/Graphics/SVG/1.1/DTD/svg11.dtd">
<!-- Generated by graphviz version 2.30.1 (20170916.1124)
 -->
<!-- Title: mom::calculate_surface_state Pages: 1 -->
<svg width="350pt" height="92pt"
 viewBox="0.00 0.00 350.00 92.19" xmlns="http://www.w3.org/2000/svg" xmlns:xlink="http://www.w3.org/1999/xlink">
<g id="graph0" class="graph" transform="scale(1 1) rotate(0) translate(4 88.1927)">
<title>mom::calculate_surface_state</title>
<polygon fill="white" stroke="white" points="-4,5 -4,-88.1927 347,-88.1927 347,5 -4,5"/>
<!-- Node4 -->
<g id="node1" class="node"><title>Node4</title>
<g id="a_node1"><a xlink:title="This subroutine sets the surface (return) properties of the ocean model by setting the appropriate po...">
<polygon fill="#bfbfbf" stroke="black" points="240.5,-39 240.5,-69 341.5,-69 341.5,-39 240.5,-39"/>
<text text-anchor="start" x="248.5" y="-57" font-family="Helvetica,sans-Serif" font-size="10.00">mom::calculate_surface</text>
<text text-anchor="middle" x="291" y="-46" font-family="Helvetica,sans-Serif" font-size="10.00">_state</text>
</a>
</g>
</g>
<!-- Node5 -->
<g id="node2" class="node"><title>Node5</title>
<g id="a_node2"><a xlink:href="MOM__driver_8F90.html#a08fffeb2d8e8acbf9ed4609be6d258c6" target="_top" xlink:title=" ">
<polygon fill="white" stroke="black" points="0,-44.5 0,-63.5 56,-63.5 56,-44.5 0,-44.5"/>
<text text-anchor="middle" x="28" y="-51.5" font-family="Helvetica,sans-Serif" font-size="10.00">mom_main</text>
</a>
</g>
</g>
<!-- Node4&#45;&gt;Node5 -->
<g id="edge1" class="edge"><title>Node4&#45;&gt;Node5</title>
<path fill="none" stroke="midnightblue" d="M235.27,-71.6621C224.983,-74.2974 214.242,-76.5977 204,-78 154.682,-84.7525 140.956,-87.0091 92,-78 76.9206,-75.225 60.7771,-69.0055 48.6072,-63.5934"/>
<polygon fill="midnightblue" stroke="midnightblue" points="236.216,-75.0321 244.961,-69.0511 234.395,-68.2731 236.216,-75.0321"/>
</g>
<!-- Node6 -->
<g id="node3" class="node"><title>Node6</title>
<g id="a_node3"><a xlink:href="namespaceocean__model__mod.html#a2fca652469ca65c63305060534a14c0e" target="_top" xlink:title=" ">
<polygon fill="white" stroke="black" points="92.5,-39 92.5,-69 203.5,-69 203.5,-39 92.5,-39"/>
<text text-anchor="start" x="100.5" y="-57" font-family="Helvetica,sans-Serif" font-size="10.00">ocean_model_mod::ocean</text>
<text text-anchor="middle" x="148" y="-46" font-family="Helvetica,sans-Serif" font-size="10.00">_model_init_sfc</text>
</a>
</g>
</g>
<!-- Node4&#45;&gt;Node6 -->
<g id="edge2" class="edge"><title>Node4&#45;&gt;Node6</title>
<path fill="none" stroke="midnightblue" d="M230.082,-54C221.271,-54 212.233,-54 203.538,-54"/>
<polygon fill="midnightblue" stroke="midnightblue" points="230.289,-57.5001 240.289,-54 230.289,-50.5001 230.289,-57.5001"/>
</g>
<!-- Node7 -->
<g id="node4" class="node"><title>Node7</title>
<g id="a_node4"><a xlink:href="namespacemom.html#a4c8332b095c6d295084089aa6b3b678a" target="_top" xlink:title="This subroutine orchestrates the time stepping of MOM. The adiabatic dynamics are stepped by calls to...">
<polygon fill="white" stroke="black" points="109.5,-0.5 109.5,-19.5 186.5,-19.5 186.5,-0.5 109.5,-0.5"/>
<text text-anchor="middle" x="148" y="-7.5" font-family="Helvetica,sans-Serif" font-size="10.00">mom::step_mom</text>
</a>
</g>
</g>
<!-- Node4&#45;&gt;Node7 -->
<g id="edge3" class="edge"><title>Node4&#45;&gt;Node7</title>
<path fill="none" stroke="midnightblue" d="M232.045,-35.9147C214.096,-30.3138 195.027,-24.363 179.694,-19.5783"/>
<polygon fill="midnightblue" stroke="midnightblue" points="231.282,-39.3429 241.87,-38.9808 233.367,-32.6607 231.282,-39.3429"/>
</g>
<!-- Node7&#45;&gt;Node5 -->
<g id="edge4" class="edge"><title>Node7&#45;&gt;Node5</title>
<path fill="none" stroke="midnightblue" d="M110.776,-23.0838C104.509,-25.3727 98.0613,-27.7436 92,-30 79.3858,-34.6959 65.3914,-40.016 53.8024,-44.4518"/>
<polygon fill="midnightblue" stroke="midnightblue" points="112.194,-26.2922 120.394,-19.5826 109.8,-19.7144 112.194,-26.2922"/>
</g>
</g>
</svg>
