<?xml version="1.0" encoding="UTF-8" standalone="no"?>
<!DOCTYPE svg PUBLIC "-//W3C//DTD SVG 1.1//EN"
 "http://www.w3.org/Graphics/SVG/1.1/DTD/svg11.dtd">
<!-- Generated by graphviz version 2.30.1 (20170916.1124)
 -->
<!-- Title: mom_entrain_diffusive::set_ent_bl Pages: 1 -->
<svg width="240pt" height="38pt"
 viewBox="0.00 0.00 240.00 38.00" xmlns="http://www.w3.org/2000/svg" xmlns:xlink="http://www.w3.org/1999/xlink">
<g id="graph0" class="graph" transform="scale(1 1) rotate(0) translate(4 34)">
<title>mom_entrain_diffusive::set_ent_bl</title>
<polygon fill="white" stroke="white" points="-4,5 -4,-34 237,-34 237,5 -4,5"/>
<!-- Node50 -->
<g id="node1" class="node"><title>Node50</title>
<g id="a_node1"><a xlink:title=" ">
<polygon fill="#bfbfbf" stroke="black" points="134.5,-0 134.5,-30 231.5,-30 231.5,-0 134.5,-0"/>
<text text-anchor="start" x="142.5" y="-18" font-family="Helvetica,sans-Serif" font-size="10.00">mom_entrain_diffusive</text>
<text text-anchor="middle" x="183" y="-7" font-family="Helvetica,sans-Serif" font-size="10.00">::set_ent_bl</text>
</a>
</g>
</g>
<!-- Node51 -->
<g id="node2" class="node"><title>Node51</title>
<g id="a_node2"><a xlink:href="namespacemom__entrain__diffusive.html#acf36bae78e6175d37c3de0d61b0ac32f" target="_top" xlink:title=" ">
<polygon fill="white" stroke="black" points="0.5,-0 0.5,-30 97.5,-30 97.5,-0 0.5,-0"/>
<text text-anchor="start" x="8.5" y="-18" font-family="Helvetica,sans-Serif" font-size="10.00">mom_entrain_diffusive</text>
<text text-anchor="middle" x="49" y="-7" font-family="Helvetica,sans-Serif" font-size="10.00">::entrainment_diffusive</text>
</a>
</g>
</g>
<!-- Node50&#45;&gt;Node51 -->
<g id="edge1" class="edge"><title>Node50&#45;&gt;Node51</title>
<path fill="none" stroke="midnightblue" d="M124.083,-15C115.23,-15 106.181,-15 97.5851,-15"/>
<polygon fill="midnightblue" stroke="midnightblue" points="124.345,-18.5001 134.345,-15 124.345,-11.5001 124.345,-18.5001"/>
</g>
</g>
</svg>
