<?xml version="1.0" encoding="UTF-8" standalone="no"?>
<!DOCTYPE svg PUBLIC "-//W3C//DTD SVG 1.1//EN"
 "http://www.w3.org/Graphics/SVG/1.1/DTD/svg11.dtd">
<!-- Generated by graphviz version 2.30.1 (20170916.1124)
 -->
<!-- Title: mom_diapyc_energy_req::diapyc_energy_req_calc Pages: 1 -->
<svg width="650pt" height="156pt"
 viewBox="0.00 0.00 650.00 156.00" xmlns="http://www.w3.org/2000/svg" xmlns:xlink="http://www.w3.org/1999/xlink">
<g id="graph0" class="graph" transform="scale(1 1) rotate(0) translate(4 152)">
<title>mom_diapyc_energy_req::diapyc_energy_req_calc</title>
<polygon fill="white" stroke="white" points="-4,5 -4,-152 647,-152 647,5 -4,5"/>
<!-- Node0 -->
<g id="node1" class="node"><title>Node0</title>
<g id="a_node1"><a xlink:title=" ">
<polygon fill="#bfbfbf" stroke="black" points="0.5,-73 0.5,-103 107.5,-103 107.5,-73 0.5,-73"/>
<text text-anchor="start" x="8.5" y="-91" font-family="Helvetica,sans-Serif" font-size="10.00">mom_diapyc_energy_req</text>
<text text-anchor="middle" x="54" y="-80" font-family="Helvetica,sans-Serif" font-size="10.00">::diapyc_energy_req_calc</text>
</a>
</g>
</g>
<!-- Node1 -->
<g id="node2" class="node"><title>Node1</title>
<g id="a_node2"><a xlink:href="namespacemom__eos.html#ab6ed65d2df376be9bbea2050f50fe46e" target="_top" xlink:title="Calls the appropriate subroutine to calculate specific volume derivatives for an array.">
<polygon fill="white" stroke="black" points="291.5,-118 291.5,-148 378.5,-148 378.5,-118 291.5,-118"/>
<text text-anchor="start" x="299.5" y="-136" font-family="Helvetica,sans-Serif" font-size="10.00">mom_eos::calculate</text>
<text text-anchor="middle" x="335" y="-125" font-family="Helvetica,sans-Serif" font-size="10.00">_specific_vol_derivs</text>
</a>
</g>
</g>
<!-- Node0&#45;&gt;Node1 -->
<g id="edge1" class="edge"><title>Node0&#45;&gt;Node1</title>
<path fill="none" stroke="midnightblue" d="M75.307,-103.095C92.5728,-114.931 118.546,-130.456 144,-137 189.32,-148.651 242.74,-146.165 281.376,-141.63"/>
<polygon fill="midnightblue" stroke="midnightblue" points="281.878,-145.094 291.363,-140.373 281.004,-138.149 281.878,-145.094"/>
</g>
<!-- Node4 -->
<g id="node5" class="node"><title>Node4</title>
<g id="a_node5"><a xlink:href="namespacemom__diapyc__energy__req.html#a7a3fbef0d9b211d5993f2ce89f3cf93e" target="_top" xlink:title="This subroutine calculates the change in potential energy and or derivatives for several changes in a...">
<polygon fill="white" stroke="black" points="144.5,-98 144.5,-128 251.5,-128 251.5,-98 144.5,-98"/>
<text text-anchor="start" x="152.5" y="-116" font-family="Helvetica,sans-Serif" font-size="10.00">mom_diapyc_energy_req</text>
<text text-anchor="middle" x="198" y="-105" font-family="Helvetica,sans-Serif" font-size="10.00">::find_pe_chg</text>
</a>
</g>
</g>
<!-- Node0&#45;&gt;Node4 -->
<g id="edge4" class="edge"><title>Node0&#45;&gt;Node4</title>
<path fill="none" stroke="midnightblue" d="M107.876,-97.3091C116.377,-98.8058 125.25,-100.368 133.961,-101.902"/>
<polygon fill="midnightblue" stroke="midnightblue" points="133.625,-105.396 144.08,-103.683 134.839,-98.5022 133.625,-105.396"/>
</g>
<!-- Node5 -->
<g id="node6" class="node"><title>Node5</title>
<g id="a_node6"><a xlink:href="namespacemom__diapyc__energy__req.html#ab30595bc6f14a3b356519645ed7b8828" target="_top" xlink:title="This subroutine calculates the change in potential energy and or derivatives for several changes in a...">
<polygon fill="white" stroke="black" points="144.5,-49 144.5,-79 251.5,-79 251.5,-49 144.5,-49"/>
<text text-anchor="start" x="152.5" y="-67" font-family="Helvetica,sans-Serif" font-size="10.00">mom_diapyc_energy_req</text>
<text text-anchor="middle" x="198" y="-56" font-family="Helvetica,sans-Serif" font-size="10.00">::find_pe_chg_orig</text>
</a>
</g>
</g>
<!-- Node0&#45;&gt;Node5 -->
<g id="edge5" class="edge"><title>Node0&#45;&gt;Node5</title>
<path fill="none" stroke="midnightblue" d="M107.876,-79.0633C116.377,-77.6264 125.25,-76.1268 133.961,-74.6545"/>
<polygon fill="midnightblue" stroke="midnightblue" points="134.803,-78.0618 144.08,-72.9442 133.637,-71.1597 134.803,-78.0618"/>
</g>
<!-- Node6 -->
<g id="node7" class="node"><title>Node6</title>
<g id="a_node7"><a xlink:href="namespacemom__diag__mediator.html#ab5b75b68fa1742ce312c371f4b2c6ac1" target="_top" xlink:title=" ">
<polygon fill="white" stroke="black" points="150.5,-0 150.5,-30 245.5,-30 245.5,-0 150.5,-0"/>
<text text-anchor="start" x="158.5" y="-18" font-family="Helvetica,sans-Serif" font-size="10.00">mom_diag_mediator::</text>
<text text-anchor="middle" x="198" y="-7" font-family="Helvetica,sans-Serif" font-size="10.00">post_data_1d_k</text>
</a>
</g>
</g>
<!-- Node0&#45;&gt;Node6 -->
<g id="edge6" class="edge"><title>Node0&#45;&gt;Node6</title>
<path fill="none" stroke="midnightblue" d="M81.1946,-72.8738C98.773,-62.8984 122.551,-49.7406 144,-39 147.074,-37.4609 150.267,-35.9069 153.493,-34.3691"/>
<polygon fill="midnightblue" stroke="midnightblue" points="155.03,-37.5142 162.603,-30.1043 152.062,-31.1746 155.03,-37.5142"/>
</g>
<!-- Node2 -->
<g id="node3" class="node"><title>Node2</title>
<g id="a_node3"><a xlink:href="namespacemom__error__handler.html#a460cfb79a06c29fc249952c2a3710d67" target="_top" xlink:title=" ">
<polygon fill="white" stroke="black" points="418.5,-82 418.5,-112 511.5,-112 511.5,-82 418.5,-82"/>
<text text-anchor="start" x="426.5" y="-100" font-family="Helvetica,sans-Serif" font-size="10.00">mom_error_handler::</text>
<text text-anchor="middle" x="465" y="-89" font-family="Helvetica,sans-Serif" font-size="10.00">mom_error</text>
</a>
</g>
</g>
<!-- Node1&#45;&gt;Node2 -->
<g id="edge2" class="edge"><title>Node1&#45;&gt;Node2</title>
<path fill="none" stroke="midnightblue" d="M378.622,-121.013C388.222,-118.313 398.547,-115.409 408.584,-112.586"/>
<polygon fill="midnightblue" stroke="midnightblue" points="409.81,-115.877 418.489,-109.8 407.915,-109.138 409.81,-115.877"/>
</g>
<!-- Node3 -->
<g id="node4" class="node"><title>Node3</title>
<g id="a_node4"><a xlink:href="namespacemom__error__handler.html#ad5f00a53059c72fe2332d1436c80ca71" target="_top" xlink:title=" ">
<polygon fill="white" stroke="black" points="548.5,-82 548.5,-112 641.5,-112 641.5,-82 548.5,-82"/>
<text text-anchor="start" x="556.5" y="-100" font-family="Helvetica,sans-Serif" font-size="10.00">mom_error_handler::</text>
<text text-anchor="middle" x="595" y="-89" font-family="Helvetica,sans-Serif" font-size="10.00">is_root_pe</text>
</a>
</g>
</g>
<!-- Node2&#45;&gt;Node3 -->
<g id="edge3" class="edge"><title>Node2&#45;&gt;Node3</title>
<path fill="none" stroke="midnightblue" d="M511.849,-97C520.408,-97 529.439,-97 538.258,-97"/>
<polygon fill="midnightblue" stroke="midnightblue" points="538.471,-100.5 548.471,-97 538.471,-93.5001 538.471,-100.5"/>
</g>
<!-- Node7 -->
<g id="node8" class="node"><title>Node7</title>
<g id="a_node8"><a xlink:href="namespacemom__error__handler.html#a33bcd190d460095104954f2e654f9fe6" target="_top" xlink:title="Issues a FATAL error if the assertion fails, i.e. the first argument is false.">
<polygon fill="white" stroke="black" points="288.5,-46 288.5,-76 381.5,-76 381.5,-46 288.5,-46"/>
<text text-anchor="start" x="296.5" y="-64" font-family="Helvetica,sans-Serif" font-size="10.00">mom_error_handler::</text>
<text text-anchor="middle" x="335" y="-53" font-family="Helvetica,sans-Serif" font-size="10.00">assert</text>
</a>
</g>
</g>
<!-- Node6&#45;&gt;Node7 -->
<g id="edge7" class="edge"><title>Node6&#45;&gt;Node7</title>
<path fill="none" stroke="midnightblue" d="M243.204,-30.0621C254.975,-34.0731 267.824,-38.4512 280.054,-42.6183"/>
<polygon fill="midnightblue" stroke="midnightblue" points="279.102,-45.9916 289.697,-45.904 281.36,-39.3657 279.102,-45.9916"/>
</g>
<!-- Node7&#45;&gt;Node2 -->
<g id="edge8" class="edge"><title>Node7&#45;&gt;Node2</title>
<path fill="none" stroke="midnightblue" d="M381.849,-73.8951C390.594,-76.3547 399.832,-78.9528 408.832,-81.4841"/>
<polygon fill="midnightblue" stroke="midnightblue" points="407.897,-84.8566 418.471,-84.1949 409.792,-78.1181 407.897,-84.8566"/>
</g>
</g>
</svg>
