<?xml version="1.0" encoding="UTF-8" standalone="no"?>
<!DOCTYPE svg PUBLIC "-//W3C//DTD SVG 1.1//EN"
 "http://www.w3.org/Graphics/SVG/1.1/DTD/svg11.dtd">
<!-- Generated by graphviz version 2.30.1 (20170916.1124)
 -->
<!-- Title: regrid_edge_values::check_discontinuous_edge_values Pages: 1 -->
<!--zoomable 392 -->
<svg id="main" version="1.1" xmlns="http://www.w3.org/2000/svg" xmlns:xlink="http://www.w3.org/1999/xlink" xml:space="preserve" onload="init(evt)">
<style type="text/css"><![CDATA[
.edge:hover path { stroke: red; }
.edge:hover polygon { stroke: red; fill: red; }
]]></style>
<script type="text/javascript"><![CDATA[
var edges = document.getElementsByTagName('g');
if (edges && edges.length) {
  for (var i=0;i<edges.length;i++) {
    if (edges[i].id.substr(0,4)=='edge') {
      edges[i].setAttribute('class','edge');
    }
  }
}
]]></script>
        <defs>
                <circle id="rim" cx="0" cy="0" r="7"/>
                <circle id="rim2" cx="0" cy="0" r="3.5"/>
                <g id="zoomPlus">
                        <use xlink:href="#rim" fill="#404040">
                                <set attributeName="fill" to="#808080" begin="zoomplus.mouseover" end="zoomplus.mouseout"/>
                        </use>
                        <path d="M-4,0h8M0,-4v8" fill="none" stroke="white" stroke-width="1.5" pointer-events="none"/>
                </g>
                <g id="zoomMin">
                        <use xlink:href="#rim" fill="#404040">
                                <set attributeName="fill" to="#808080" begin="zoomminus.mouseover" end="zoomminus.mouseout"/>
                        </use>
                        <path d="M-4,0h8" fill="none" stroke="white" stroke-width="1.5" pointer-events="none"/>
                </g>
                <g id="dirArrow">
                        <path fill="none" stroke="white" stroke-width="1.5" d="M0,-3.0v7 M-2.5,-0.5L0,-3.0L2.5,-0.5"/>
                </g>
               <g id="resetDef">
                       <use xlink:href="#rim2" fill="#404040">
                               <set attributeName="fill" to="#808080" begin="reset.mouseover" end="reset.mouseout"/>
                       </use>
               </g>
        </defs>

<script type="text/javascript">
var viewWidth = 1384;
var viewHeight = 392;
var sectionId = 'dynsection-2';
</script>
<script xlink:href="svgpan.js"/>
<svg id="graph" class="graph">
<g id="viewport">
<title>regrid_edge_values::check_discontinuous_edge_values</title>
<polygon fill="white" stroke="white" points="-4,5 -4,-388 1381,-388 1381,5 -4,5"/>
<!-- Node52 -->
<g id="node1" class="node"><title>Node52</title>
<g id="a_node1"><a xlink:title=" ">
<polygon fill="#bfbfbf" stroke="black" points="1282,-128.5 1282,-169.5 1376,-169.5 1376,-128.5 1282,-128.5"/>
<text text-anchor="start" x="1290" y="-157.5" font-family="Helvetica,sans-Serif" font-size="10.00">regrid_edge_values</text>
<text text-anchor="start" x="1290" y="-146.5" font-family="Helvetica,sans-Serif" font-size="10.00">::check_discontinuous</text>
<text text-anchor="middle" x="1329" y="-135.5" font-family="Helvetica,sans-Serif" font-size="10.00">_edge_values</text>
</a>
</g>
</g>
<!-- Node53 -->
<g id="node2" class="node"><title>Node53</title>
<g id="a_node2"><a xlink:href="namespaceppm__functions.html#a89920c90b84f0b241c5a6d65fe2870b9" target="_top" xlink:title="Adjusts edge values using the standard PPM limiter (Colella &amp; Woodward, JCP 1984) after first checkin...">
<polygon fill="white" stroke="black" points="1156.5,-110 1156.5,-140 1245.5,-140 1245.5,-110 1156.5,-110"/>
<text text-anchor="start" x="1164.5" y="-128" font-family="Helvetica,sans-Serif" font-size="10.00">ppm_functions::ppm</text>
<text text-anchor="middle" x="1201" y="-117" font-family="Helvetica,sans-Serif" font-size="10.00">_limiter_standard</text>
</a>
</g>
</g>
<!-- Node52&#45;&gt;Node53 -->
<g id="edge1" class="edge"><title>Node52&#45;&gt;Node53</title>
<path fill="none" stroke="midnightblue" d="M1271.97,-138.327C1263.15,-136.649 1254.16,-134.935 1245.68,-133.32"/>
<polygon fill="midnightblue" stroke="midnightblue" points="1271.32,-141.767 1281.8,-140.2 1272.63,-134.89 1271.32,-141.767"/>
</g>
<!-- Node83 -->
<g id="node32" class="node"><title>Node83</title>
<g id="a_node32"><a xlink:href="namespacepqm__functions.html#a0ce0d64922453de1312adec7b8746544" target="_top" xlink:title=" ">
<polygon fill="white" stroke="black" points="1156.5,-159 1156.5,-189 1245.5,-189 1245.5,-159 1156.5,-159"/>
<text text-anchor="start" x="1164.5" y="-177" font-family="Helvetica,sans-Serif" font-size="10.00">pqm_functions::pqm</text>
<text text-anchor="middle" x="1201" y="-166" font-family="Helvetica,sans-Serif" font-size="10.00">_limiter</text>
</a>
</g>
</g>
<!-- Node52&#45;&gt;Node83 -->
<g id="edge36" class="edge"><title>Node52&#45;&gt;Node83</title>
<path fill="none" stroke="midnightblue" d="M1271.97,-160.118C1263.15,-161.866 1254.16,-163.651 1245.68,-165.333"/>
<polygon fill="midnightblue" stroke="midnightblue" points="1272.67,-163.546 1281.8,-158.167 1271.31,-156.68 1272.67,-163.546"/>
</g>
<!-- Node54 -->
<g id="node3" class="node"><title>Node54</title>
<g id="a_node3"><a xlink:href="namespaceppm__functions.html#a97e2144c7499aacd90858788f1312432" target="_top" xlink:title="Builds quadratic polynomials coefficients from cell mean and edge values.">
<polygon fill="white" stroke="black" points="1030.5,-110 1030.5,-140 1119.5,-140 1119.5,-110 1030.5,-110"/>
<text text-anchor="start" x="1038.5" y="-128" font-family="Helvetica,sans-Serif" font-size="10.00">ppm_functions::ppm</text>
<text text-anchor="middle" x="1075" y="-117" font-family="Helvetica,sans-Serif" font-size="10.00">_reconstruction</text>
</a>
</g>
</g>
<!-- Node53&#45;&gt;Node54 -->
<g id="edge2" class="edge"><title>Node53&#45;&gt;Node54</title>
<path fill="none" stroke="midnightblue" d="M1146.09,-125C1137.29,-125 1128.26,-125 1119.74,-125"/>
<polygon fill="midnightblue" stroke="midnightblue" points="1146.28,-128.5 1156.28,-125 1146.28,-121.5 1146.28,-128.5"/>
</g>
<!-- Node55 -->
<g id="node4" class="node"><title>Node55</title>
<g id="a_node4"><a xlink:href="namespacemom__remapping.html#a07d7276310f329f56560a1290bcb8b0a" target="_top" xlink:title="Creates polynomial reconstructions of u0 on the source grid h0.">
<polygon fill="white" stroke="black" points="875,-132 875,-162 973,-162 973,-132 875,-132"/>
<text text-anchor="start" x="883" y="-150" font-family="Helvetica,sans-Serif" font-size="10.00">mom_remapping::build</text>
<text text-anchor="middle" x="924" y="-139" font-family="Helvetica,sans-Serif" font-size="10.00">_reconstructions_1d</text>
</a>
</g>
</g>
<!-- Node54&#45;&gt;Node55 -->
<g id="edge3" class="edge"><title>Node54&#45;&gt;Node55</title>
<path fill="none" stroke="midnightblue" d="M1020.18,-132.946C1004.76,-135.223 988.057,-137.69 973.01,-139.911"/>
<polygon fill="midnightblue" stroke="midnightblue" points="1020.72,-136.405 1030.1,-131.482 1019.7,-129.48 1020.72,-136.405"/>
</g>
<!-- Node73 -->
<g id="node22" class="node"><title>Node73</title>
<g id="a_node22"><a xlink:href="namespacemom__ale.html#aea1b73dedf1ae5f3db9fa0a6aa6ebaa0" target="_top" xlink:title="Use ppm reconstruction for pressure gradient (determine edge values) By using a PPM (limited piecewis...">
<polygon fill="white" stroke="black" points="854,-93.5 854,-112.5 994,-112.5 994,-93.5 854,-93.5"/>
<text text-anchor="middle" x="924" y="-100.5" font-family="Helvetica,sans-Serif" font-size="10.00">mom_ale::pressure_gradient_ppm</text>
</a>
</g>
</g>
<!-- Node54&#45;&gt;Node73 -->
<g id="edge23" class="edge"><title>Node54&#45;&gt;Node73</title>
<path fill="none" stroke="midnightblue" d="M1020.02,-117.03C1010.13,-115.57 999.726,-114.033 989.568,-112.534"/>
<polygon fill="midnightblue" stroke="midnightblue" points="1019.7,-120.52 1030.1,-118.518 1020.72,-113.595 1019.7,-120.52"/>
</g>
<!-- Node74 -->
<g id="node23" class="node"><title>Node74</title>
<g id="a_node23"><a xlink:href="namespacemom__regridding.html#a580e775df53e4bb61f118fcab44a3f92" target="_top" xlink:title="Given the set of target values and cell densities, this routine builds an interpolated profile for th...">
<polygon fill="white" stroke="black" points="866,-255 866,-285 982,-285 982,-255 866,-255"/>
<text text-anchor="start" x="874" y="-273" font-family="Helvetica,sans-Serif" font-size="10.00">mom_regridding::regridding</text>
<text text-anchor="middle" x="924" y="-262" font-family="Helvetica,sans-Serif" font-size="10.00">_set_ppolys</text>
</a>
</g>
</g>
<!-- Node54&#45;&gt;Node74 -->
<g id="edge24" class="edge"><title>Node54&#45;&gt;Node74</title>
<path fill="none" stroke="midnightblue" d="M1034.21,-145.811C1032.76,-146.848 1031.35,-147.912 1030,-149 989.916,-181.263 952.932,-230.086 935.5,-254.686"/>
<polygon fill="midnightblue" stroke="midnightblue" points="1036.36,-148.587 1042.81,-140.184 1032.52,-142.73 1036.36,-148.587"/>
</g>
<!-- Node71 -->
<g id="node20" class="node"><title>Node71</title>
<g id="a_node20"><a xlink:href="namespacemom__remapping.html#a8a79c37c89f8b800f79198aceca5f090" target="_top" xlink:title="Runs unit tests on remapping functions. Should only be called from a single/root thread Returns True ...">
<polygon fill="white" stroke="black" points="542,-10 542,-40 662,-40 662,-10 542,-10"/>
<text text-anchor="start" x="550" y="-28" font-family="Helvetica,sans-Serif" font-size="10.00">mom_remapping::remapping</text>
<text text-anchor="middle" x="602" y="-17" font-family="Helvetica,sans-Serif" font-size="10.00">_unit_tests</text>
</a>
</g>
</g>
<!-- Node54&#45;&gt;Node71 -->
<g id="edge35" class="edge"><title>Node54&#45;&gt;Node71</title>
<path fill="none" stroke="midnightblue" d="M1040.9,-104.977C1026.88,-97.3158 1010.08,-89.1823 994,-84 880.14,-47.3164 740.129,-33.2363 662.319,-27.9846"/>
<polygon fill="midnightblue" stroke="midnightblue" points="1039.24,-108.062 1049.68,-109.907 1042.67,-101.959 1039.24,-108.062"/>
</g>
<!-- Node56 -->
<g id="node5" class="node"><title>Node56</title>
<g id="a_node5"><a xlink:href="namespacemom__remapping.html#a6d1533ffa647f3305aba055e2685b095" target="_top" xlink:title="Remaps column of values u0 on grid h0 to grid h1 assuming the top edge is aligned.">
<polygon fill="white" stroke="black" points="698,-132 698,-162 818,-162 818,-132 698,-132"/>
<text text-anchor="start" x="706" y="-150" font-family="Helvetica,sans-Serif" font-size="10.00">mom_remapping::remapping</text>
<text text-anchor="middle" x="758" y="-139" font-family="Helvetica,sans-Serif" font-size="10.00">_core_h</text>
</a>
</g>
</g>
<!-- Node55&#45;&gt;Node56 -->
<g id="edge4" class="edge"><title>Node55&#45;&gt;Node56</title>
<path fill="none" stroke="midnightblue" d="M864.449,-147C849.361,-147 833.116,-147 818.005,-147"/>
<polygon fill="midnightblue" stroke="midnightblue" points="864.682,-150.5 874.682,-147 864.682,-143.5 864.682,-150.5"/>
</g>
<!-- Node70 -->
<g id="node19" class="node"><title>Node70</title>
<g id="a_node19"><a xlink:href="namespacemom__remapping.html#a8b967872b8db2ac7d538991f7f255e56" target="_top" xlink:title="Remaps column of values u0 on grid h0 to implied grid h1 where the interfaces of h1 differ from those...">
<polygon fill="white" stroke="black" points="698,-82 698,-112 818,-112 818,-82 698,-82"/>
<text text-anchor="start" x="706" y="-100" font-family="Helvetica,sans-Serif" font-size="10.00">mom_remapping::remapping</text>
<text text-anchor="middle" x="758" y="-89" font-family="Helvetica,sans-Serif" font-size="10.00">_core_w</text>
</a>
</g>
</g>
<!-- Node55&#45;&gt;Node70 -->
<g id="edge19" class="edge"><title>Node55&#45;&gt;Node70</title>
<path fill="none" stroke="midnightblue" d="M864.917,-129.292C846.443,-123.659 826.194,-117.486 808.393,-112.059"/>
<polygon fill="midnightblue" stroke="midnightblue" points="864.096,-132.7 874.682,-132.269 866.137,-126.005 864.096,-132.7"/>
</g>
<!-- Node57 -->
<g id="node6" class="node"><title>Node57</title>
<g id="a_node6"><a xlink:href="namespacemom__ale__sponge.html#a8f6e6db99f860b048a58e97e58c101a6" target="_top" xlink:title="This subroutine applies damping to the layers thicknesses, temp, salt and a variety of tracers for ev...">
<polygon fill="white" stroke="black" points="550,-206 550,-236 654,-236 654,-206 550,-206"/>
<text text-anchor="start" x="558" y="-224" font-family="Helvetica,sans-Serif" font-size="10.00">mom_ale_sponge::apply</text>
<text text-anchor="middle" x="602" y="-213" font-family="Helvetica,sans-Serif" font-size="10.00">_ale_sponge</text>
</a>
</g>
</g>
<!-- Node56&#45;&gt;Node57 -->
<g id="edge5" class="edge"><title>Node56&#45;&gt;Node57</title>
<path fill="none" stroke="midnightblue" d="M719.76,-167.033C702.364,-176.178 681.28,-186.959 662,-196 654.849,-199.354 647.126,-202.77 639.699,-205.956"/>
<polygon fill="midnightblue" stroke="midnightblue" points="721.805,-169.911 729.01,-162.143 718.534,-163.722 721.805,-169.911"/>
</g>
<!-- Node59 -->
<g id="node8" class="node"><title>Node59</title>
<g id="a_node8"><a xlink:href="namespacemom__state__initialization.html#a71ee3c056ca59c1c3529a4ec22e09fe3" target="_top" xlink:title="Adjust the layer thicknesses by cutting away the top at the depth where the hydrostatic pressure matc...">
<polygon fill="white" stroke="black" points="551.5,-59 551.5,-89 652.5,-89 652.5,-59 551.5,-59"/>
<text text-anchor="start" x="559.5" y="-77" font-family="Helvetica,sans-Serif" font-size="10.00">mom_state_initialization</text>
<text text-anchor="middle" x="602" y="-66" font-family="Helvetica,sans-Serif" font-size="10.00">::cut_off_column_top</text>
</a>
</g>
</g>
<!-- Node56&#45;&gt;Node59 -->
<g id="edge7" class="edge"><title>Node56&#45;&gt;Node59</title>
<path fill="none" stroke="midnightblue" d="M711.167,-127.637C706.673,-125.49 702.218,-123.26 698,-121 681.264,-112.034 678.864,-106.724 662,-98 655.911,-94.8497 649.31,-91.8176 642.803,-89.0312"/>
<polygon fill="midnightblue" stroke="midnightblue" points="709.841,-130.88 720.386,-131.911 712.786,-124.529 709.841,-130.88"/>
</g>
<!-- Node65 -->
<g id="node14" class="node"><title>Node65</title>
<g id="a_node14"><a xlink:href="namespacemom__diag__remap.html#a4b76283906971bcb94e85c0ed25f4e7b" target="_top" xlink:title="Remap diagnostic field to alternative vertical grid.">
<polygon fill="white" stroke="black" points="551.5,-108 551.5,-138 652.5,-138 652.5,-108 551.5,-108"/>
<text text-anchor="start" x="559.5" y="-126" font-family="Helvetica,sans-Serif" font-size="10.00">mom_diag_remap::diag</text>
<text text-anchor="middle" x="602" y="-115" font-family="Helvetica,sans-Serif" font-size="10.00">_remap_do_remap</text>
</a>
</g>
</g>
<!-- Node56&#45;&gt;Node65 -->
<g id="edge13" class="edge"><title>Node56&#45;&gt;Node65</title>
<path fill="none" stroke="midnightblue" d="M687.992,-136.246C676.095,-134.391 663.94,-132.497 652.68,-130.742"/>
<polygon fill="midnightblue" stroke="midnightblue" points="687.48,-139.708 697.9,-137.79 688.558,-132.791 687.48,-139.708"/>
</g>
<!-- Node66 -->
<g id="node15" class="node"><title>Node66</title>
<g id="a_node15"><a xlink:href="namespacemom__wave__speed.html#a72302e356c47c5055ba0b1a8714c772a" target="_top" xlink:title="Calculates the wave speed of the first baroclinic mode.">
<polygon fill="white" stroke="black" points="548.5,-157 548.5,-187 655.5,-187 655.5,-157 548.5,-157"/>
<text text-anchor="start" x="556.5" y="-175" font-family="Helvetica,sans-Serif" font-size="10.00">mom_wave_speed::wave</text>
<text text-anchor="middle" x="602" y="-164" font-family="Helvetica,sans-Serif" font-size="10.00">_speed</text>
</a>
</g>
</g>
<!-- Node56&#45;&gt;Node66 -->
<g id="edge14" class="edge"><title>Node56&#45;&gt;Node66</title>
<path fill="none" stroke="midnightblue" d="M688.008,-158.2C677.144,-159.964 666.065,-161.762 655.648,-163.453"/>
<polygon fill="midnightblue" stroke="midnightblue" points="688.59,-161.651 697.9,-156.594 687.468,-154.742 688.59,-161.651"/>
</g>
<!-- Node58 -->
<g id="node7" class="node"><title>Node58</title>
<g id="a_node7"><a xlink:href="namespacemom__diabatic__driver.html#a61e57d3902367aa46aa3c2d949ee900f" target="_top" xlink:title="This subroutine imposes the diapycnal mass fluxes and the accompanying diapycnal advection of momentu...">
<polygon fill="white" stroke="black" points="403.5,-206 403.5,-236 494.5,-236 494.5,-206 403.5,-206"/>
<text text-anchor="start" x="411.5" y="-224" font-family="Helvetica,sans-Serif" font-size="10.00">mom_diabatic_driver</text>
<text text-anchor="middle" x="449" y="-213" font-family="Helvetica,sans-Serif" font-size="10.00">::diabatic</text>
</a>
</g>
</g>
<!-- Node57&#45;&gt;Node58 -->
<g id="edge6" class="edge"><title>Node57&#45;&gt;Node58</title>
<path fill="none" stroke="midnightblue" d="M539.585,-221C524.493,-221 508.621,-221 494.501,-221"/>
<polygon fill="midnightblue" stroke="midnightblue" points="539.878,-224.5 549.878,-221 539.878,-217.5 539.878,-224.5"/>
</g>
<!-- Node60 -->
<g id="node9" class="node"><title>Node60</title>
<g id="a_node9"><a xlink:href="namespacemom__state__initialization.html#a5c77bf2b0ea9d28e28b661a2a42d3f88" target="_top" xlink:title="Run simple unit tests.">
<polygon fill="white" stroke="black" points="398.5,-20 398.5,-50 499.5,-50 499.5,-20 398.5,-20"/>
<text text-anchor="start" x="406.5" y="-38" font-family="Helvetica,sans-Serif" font-size="10.00">mom_state_initialization</text>
<text text-anchor="middle" x="449" y="-27" font-family="Helvetica,sans-Serif" font-size="10.00">::mom_state_init_tests</text>
</a>
</g>
</g>
<!-- Node59&#45;&gt;Node60 -->
<g id="edge8" class="edge"><title>Node59&#45;&gt;Node60</title>
<path fill="none" stroke="midnightblue" d="M541.238,-58.5647C527.424,-54.9969 512.874,-51.239 499.552,-47.7981"/>
<polygon fill="midnightblue" stroke="midnightblue" points="540.581,-62.0099 551.138,-61.1219 542.331,-55.2323 540.581,-62.0099"/>
</g>
<!-- Node61 -->
<g id="node10" class="node"><title>Node61</title>
<g id="a_node10"><a xlink:href="namespacemom__state__initialization.html#acc1029776c1bdda2862ed0f95c8dc640" target="_top" xlink:title="Adjust the layer thicknesses by cutting away the top of each model column at the depth where the hydr...">
<polygon fill="white" stroke="black" points="398.5,-69 398.5,-99 499.5,-99 499.5,-69 398.5,-69"/>
<text text-anchor="start" x="406.5" y="-87" font-family="Helvetica,sans-Serif" font-size="10.00">mom_state_initialization</text>
<text text-anchor="middle" x="449" y="-76" font-family="Helvetica,sans-Serif" font-size="10.00">::trim_for_ice</text>
</a>
</g>
</g>
<!-- Node59&#45;&gt;Node61 -->
<g id="edge9" class="edge"><title>Node59&#45;&gt;Node61</title>
<path fill="none" stroke="midnightblue" d="M540.835,-77.9844C527.141,-78.8913 512.745,-79.8447 499.552,-80.7184"/>
<polygon fill="midnightblue" stroke="midnightblue" points="541.392,-81.4553 551.138,-77.3021 540.929,-74.4706 541.392,-81.4553"/>
</g>
<!-- Node62 -->
<g id="node11" class="node"><title>Node62</title>
<g id="a_node11"><a xlink:href="namespacemom__state__initialization.html#af4e854627c6572332ba3fd895f169321" target="_top" xlink:title=" ">
<polygon fill="white" stroke="black" points="236.5,-58 236.5,-88 337.5,-88 337.5,-58 236.5,-58"/>
<text text-anchor="start" x="244.5" y="-76" font-family="Helvetica,sans-Serif" font-size="10.00">mom_state_initialization</text>
<text text-anchor="middle" x="287" y="-65" font-family="Helvetica,sans-Serif" font-size="10.00">::mom_initialize_state</text>
</a>
</g>
</g>
<!-- Node61&#45;&gt;Node62 -->
<g id="edge10" class="edge"><title>Node61&#45;&gt;Node62</title>
<path fill="none" stroke="midnightblue" d="M388.104,-79.8821C371.503,-78.7408 353.668,-77.5147 337.717,-76.4181"/>
<polygon fill="midnightblue" stroke="midnightblue" points="388.036,-83.3856 398.252,-80.5798 388.516,-76.4021 388.036,-83.3856"/>
</g>
<!-- Node63 -->
<g id="node12" class="node"><title>Node63</title>
<g id="a_node12"><a xlink:href="namespacemom.html#a0be2869fef30e1e0604facfe1b41555d" target="_top" xlink:title="This subroutine initializes MOM.">
<polygon fill="white" stroke="black" points="92.5,-63.5 92.5,-82.5 181.5,-82.5 181.5,-63.5 92.5,-63.5"/>
<text text-anchor="middle" x="137" y="-70.5" font-family="Helvetica,sans-Serif" font-size="10.00">mom::initialize_mom</text>
</a>
</g>
</g>
<!-- Node62&#45;&gt;Node63 -->
<g id="edge11" class="edge"><title>Node62&#45;&gt;Node63</title>
<path fill="none" stroke="midnightblue" d="M226.199,-73C211.373,-73 195.756,-73 181.853,-73"/>
<polygon fill="midnightblue" stroke="midnightblue" points="226.306,-76.5001 236.306,-73 226.306,-69.5001 226.306,-76.5001"/>
</g>
<!-- Node64 -->
<g id="node13" class="node"><title>Node64</title>
<g id="a_node13"><a xlink:href="MOM__driver_8F90.html#a08fffeb2d8e8acbf9ed4609be6d258c6" target="_top" xlink:title=" ">
<polygon fill="white" stroke="black" points="0,-86.5 0,-105.5 56,-105.5 56,-86.5 0,-86.5"/>
<text text-anchor="middle" x="28" y="-93.5" font-family="Helvetica,sans-Serif" font-size="10.00">mom_main</text>
</a>
</g>
</g>
<!-- Node63&#45;&gt;Node64 -->
<g id="edge12" class="edge"><title>Node63&#45;&gt;Node64</title>
<path fill="none" stroke="midnightblue" d="M82.6016,-84.4782C73.4508,-86.4451 64.2961,-88.413 56.2082,-90.1515"/>
<polygon fill="midnightblue" stroke="midnightblue" points="83.4379,-87.8784 92.479,-82.355 81.9668,-81.0347 83.4379,-87.8784"/>
</g>
<!-- Node67 -->
<g id="node16" class="node"><title>Node67</title>
<g id="a_node16"><a xlink:href="namespacemom__lateral__mixing__coeffs.html#af206bc656869b4fc27d4d7e8a15d438e" target="_top" xlink:title="Calculates and stores the non&#45;dimensional resolution functions.">
<polygon fill="white" stroke="black" points="243,-107.5 243,-148.5 331,-148.5 331,-107.5 243,-107.5"/>
<text text-anchor="start" x="251" y="-136.5" font-family="Helvetica,sans-Serif" font-size="10.00">mom_lateral_mixing</text>
<text text-anchor="start" x="251" y="-125.5" font-family="Helvetica,sans-Serif" font-size="10.00">_coeffs::calc_resoln</text>
<text text-anchor="middle" x="287" y="-114.5" font-family="Helvetica,sans-Serif" font-size="10.00">_function</text>
</a>
</g>
</g>
<!-- Node66&#45;&gt;Node67 -->
<g id="edge15" class="edge"><title>Node66&#45;&gt;Node67</title>
<path fill="none" stroke="midnightblue" d="M540.277,-154.38C528.958,-151.564 517.176,-148.943 506,-147 445.926,-136.556 375.49,-131.74 331.298,-129.599"/>
<polygon fill="midnightblue" stroke="midnightblue" points="539.521,-157.799 550.077,-156.892 541.259,-151.018 539.521,-157.799"/>
</g>
<!-- Node69 -->
<g id="node18" class="node"><title>Node69</title>
<g id="a_node18"><a xlink:href="namespacemom__diagnostics.html#abb6644248c28ab2e952361bfec436063" target="_top" xlink:title=" ">
<polygon fill="white" stroke="black" points="392.5,-157 392.5,-187 505.5,-187 505.5,-157 392.5,-157"/>
<text text-anchor="start" x="400.5" y="-175" font-family="Helvetica,sans-Serif" font-size="10.00">mom_diagnostics::calculate</text>
<text text-anchor="middle" x="449" y="-164" font-family="Helvetica,sans-Serif" font-size="10.00">_diagnostic_fields</text>
</a>
</g>
</g>
<!-- Node66&#45;&gt;Node69 -->
<g id="edge18" class="edge"><title>Node66&#45;&gt;Node69</title>
<path fill="none" stroke="midnightblue" d="M538.011,-172C527.255,-172 516.15,-172 505.604,-172"/>
<polygon fill="midnightblue" stroke="midnightblue" points="538.188,-175.5 548.188,-172 538.187,-168.5 538.188,-175.5"/>
</g>
<!-- Node68 -->
<g id="node17" class="node"><title>Node68</title>
<g id="a_node17"><a xlink:href="namespacemom.html#a4c8332b095c6d295084089aa6b3b678a" target="_top" xlink:title="This subroutine orchestrates the time stepping of MOM. The adiabatic dynamics are stepped by calls to...">
<polygon fill="white" stroke="black" points="98.5,-109.5 98.5,-128.5 175.5,-128.5 175.5,-109.5 98.5,-109.5"/>
<text text-anchor="middle" x="137" y="-116.5" font-family="Helvetica,sans-Serif" font-size="10.00">mom::step_mom</text>
</a>
</g>
</g>
<!-- Node67&#45;&gt;Node68 -->
<g id="edge16" class="edge"><title>Node67&#45;&gt;Node68</title>
<path fill="none" stroke="midnightblue" d="M232.61,-124.753C213.863,-123.613 193.198,-122.357 175.976,-121.309"/>
<polygon fill="midnightblue" stroke="midnightblue" points="232.6,-128.259 242.794,-125.373 233.025,-121.272 232.6,-128.259"/>
</g>
<!-- Node68&#45;&gt;Node64 -->
<g id="edge17" class="edge"><title>Node68&#45;&gt;Node64</title>
<path fill="none" stroke="midnightblue" d="M88.3445,-108.756C77.3702,-106.397 66.0638,-103.967 56.3024,-101.869"/>
<polygon fill="midnightblue" stroke="midnightblue" points="87.7636,-112.211 98.2758,-110.891 89.2347,-105.368 87.7636,-112.211"/>
</g>
<!-- Node70&#45;&gt;Node71 -->
<g id="edge20" class="edge"><title>Node70&#45;&gt;Node71</title>
<path fill="none" stroke="midnightblue" d="M719.393,-77.1106C702.075,-68.1818 681.158,-57.7188 662,-49 655.357,-45.9768 648.218,-42.9173 641.28,-40.041"/>
<polygon fill="midnightblue" stroke="midnightblue" points="718.122,-80.3939 728.61,-81.8924 721.345,-74.1804 718.122,-80.3939"/>
</g>
<!-- Node72 -->
<g id="node21" class="node"><title>Node72</title>
<g id="a_node21"><a xlink:href="namespacemom.html#ae77cfd2e790f1266b31d93c58659d46c" target="_top" xlink:title="Calls unit tests for other modules. These are NOT normally invoked and so we provide the module use s...">
<polygon fill="white" stroke="black" points="250.5,-0.5 250.5,-19.5 323.5,-19.5 323.5,-0.5 250.5,-0.5"/>
<text text-anchor="middle" x="287" y="-7.5" font-family="Helvetica,sans-Serif" font-size="10.00">mom::unit_tests</text>
</a>
</g>
</g>
<!-- Node71&#45;&gt;Node72 -->
<g id="edge21" class="edge"><title>Node71&#45;&gt;Node72</title>
<path fill="none" stroke="midnightblue" d="M531.786,-12.783C523.128,-11.6353 514.375,-10.6571 506,-10 441.857,-4.96724 366.77,-6.61862 323.561,-8.2961"/>
<polygon fill="midnightblue" stroke="midnightblue" points="531.489,-16.2756 541.878,-14.1991 532.461,-9.34346 531.489,-16.2756"/>
</g>
<!-- Node72&#45;&gt;Node63 -->
<g id="edge22" class="edge"><title>Node72&#45;&gt;Node63</title>
<path fill="none" stroke="midnightblue" d="M254.122,-23.5697C225.983,-35.5479 185.66,-52.7123 160.69,-63.3416"/>
<polygon fill="midnightblue" stroke="midnightblue" points="255.692,-26.7055 263.522,-19.5683 252.95,-20.2647 255.692,-26.7055"/>
</g>
<!-- Node75 -->
<g id="node24" class="node"><title>Node75</title>
<g id="a_node24"><a xlink:href="namespacemom__regridding.html#acbe376c457e1ea0c4514b948cbf5144b" target="_top" xlink:title=" ">
<polygon fill="white" stroke="black" points="710,-255 710,-285 806,-285 806,-255 710,-255"/>
<text text-anchor="start" x="718" y="-273" font-family="Helvetica,sans-Serif" font-size="10.00">mom_regridding::build</text>
<text text-anchor="middle" x="758" y="-262" font-family="Helvetica,sans-Serif" font-size="10.00">_hycom1_column</text>
</a>
</g>
</g>
<!-- Node74&#45;&gt;Node75 -->
<g id="edge25" class="edge"><title>Node74&#45;&gt;Node75</title>
<path fill="none" stroke="midnightblue" d="M855.435,-270C838.835,-270 821.419,-270 806.027,-270"/>
<polygon fill="midnightblue" stroke="midnightblue" points="855.641,-273.5 865.641,-270 855.641,-266.5 855.641,-273.5"/>
</g>
<!-- Node78 -->
<g id="node27" class="node"><title>Node78</title>
<g id="a_node27"><a xlink:href="namespacemom__regridding.html#a799aacb5c6e7ab70f8177ca8b4a5330b" target="_top" xlink:title=" ">
<polygon fill="white" stroke="black" points="710,-353 710,-383 806,-383 806,-353 710,-353"/>
<text text-anchor="start" x="718" y="-371" font-family="Helvetica,sans-Serif" font-size="10.00">mom_regridding::build</text>
<text text-anchor="middle" x="758" y="-360" font-family="Helvetica,sans-Serif" font-size="10.00">_rho_column</text>
</a>
</g>
</g>
<!-- Node74&#45;&gt;Node78 -->
<g id="edge28" class="edge"><title>Node74&#45;&gt;Node78</title>
<path fill="none" stroke="midnightblue" d="M895.667,-291.35C875.049,-306.863 845.679,-327.729 818,-343 811.571,-346.547 804.536,-349.927 797.634,-352.989"/>
<polygon fill="midnightblue" stroke="midnightblue" points="897.821,-294.109 903.664,-285.271 893.585,-288.537 897.821,-294.109"/>
</g>
<!-- Node80 -->
<g id="node29" class="node"><title>Node80</title>
<g id="a_node29"><a xlink:href="namespacemom__regridding.html#aacf680ddf88e9c41a340dd426272906d" target="_top" xlink:title="Finds the new interface locations in a column of water that match the prescribed target densities.">
<polygon fill="white" stroke="black" points="712,-304 712,-334 804,-334 804,-304 712,-304"/>
<text text-anchor="start" x="720" y="-322" font-family="Helvetica,sans-Serif" font-size="10.00">mom_regridding::rho</text>
<text text-anchor="middle" x="758" y="-311" font-family="Helvetica,sans-Serif" font-size="10.00">_interfaces_col</text>
</a>
</g>
</g>
<!-- Node74&#45;&gt;Node80 -->
<g id="edge31" class="edge"><title>Node74&#45;&gt;Node80</title>
<path fill="none" stroke="midnightblue" d="M862.792,-287.989C843.383,-293.788 822.217,-300.112 804.092,-305.527"/>
<polygon fill="midnightblue" stroke="midnightblue" points="863.877,-291.318 872.456,-285.101 861.873,-284.611 863.877,-291.318"/>
</g>
<!-- Node76 -->
<g id="node25" class="node"><title>Node76</title>
<g id="a_node25"><a xlink:href="namespacemom__regridding.html#a3375da62433b875eed537feeba1ae1b3" target="_top" xlink:title="Builds a simple HyCOM&#45;like grid with the deepest location of potential density interpolated from the ...">
<polygon fill="white" stroke="black" points="401,-255 401,-285 497,-285 497,-255 401,-255"/>
<text text-anchor="start" x="409" y="-273" font-family="Helvetica,sans-Serif" font-size="10.00">mom_regridding::build</text>
<text text-anchor="middle" x="449" y="-262" font-family="Helvetica,sans-Serif" font-size="10.00">_grid_hycom1</text>
</a>
</g>
</g>
<!-- Node75&#45;&gt;Node76 -->
<g id="edge26" class="edge"><title>Node75&#45;&gt;Node76</title>
<path fill="none" stroke="midnightblue" d="M699.522,-270C641.051,-270 551.515,-270 497.098,-270"/>
<polygon fill="midnightblue" stroke="midnightblue" points="699.704,-273.5 709.704,-270 699.704,-266.5 699.704,-273.5"/>
</g>
<!-- Node77 -->
<g id="node26" class="node"><title>Node77</title>
<g id="a_node26"><a xlink:href="namespacemom__regridding.html#abf6d4e0d14c8b3b69fa4ffca42122c5f" target="_top" xlink:title=" ">
<polygon fill="white" stroke="black" points="218.5,-309.5 218.5,-328.5 355.5,-328.5 355.5,-309.5 218.5,-309.5"/>
<text text-anchor="middle" x="287" y="-316.5" font-family="Helvetica,sans-Serif" font-size="10.00">mom_regridding::regridding_main</text>
</a>
</g>
</g>
<!-- Node76&#45;&gt;Node77 -->
<g id="edge27" class="edge"><title>Node76&#45;&gt;Node77</title>
<path fill="none" stroke="midnightblue" d="M391.055,-287.439C366.847,-294.853 339.558,-303.21 319.146,-309.461"/>
<polygon fill="midnightblue" stroke="midnightblue" points="392.323,-290.712 400.86,-284.437 390.274,-284.018 392.323,-290.712"/>
</g>
<!-- Node79 -->
<g id="node28" class="node"><title>Node79</title>
<g id="a_node28"><a xlink:href="namespacemom__regridding.html#a58a19305bbdab26bfa4f336dfac8c4f8" target="_top" xlink:title=" ">
<polygon fill="white" stroke="black" points="401,-353 401,-383 497,-383 497,-353 401,-353"/>
<text text-anchor="start" x="409" y="-371" font-family="Helvetica,sans-Serif" font-size="10.00">mom_regridding::build</text>
<text text-anchor="middle" x="449" y="-360" font-family="Helvetica,sans-Serif" font-size="10.00">_rho_grid</text>
</a>
</g>
</g>
<!-- Node78&#45;&gt;Node79 -->
<g id="edge29" class="edge"><title>Node78&#45;&gt;Node79</title>
<path fill="none" stroke="midnightblue" d="M699.522,-368C641.051,-368 551.515,-368 497.098,-368"/>
<polygon fill="midnightblue" stroke="midnightblue" points="699.704,-371.5 709.704,-368 699.704,-364.5 699.704,-371.5"/>
</g>
<!-- Node79&#45;&gt;Node77 -->
<g id="edge30" class="edge"><title>Node79&#45;&gt;Node77</title>
<path fill="none" stroke="midnightblue" d="M391.055,-350.561C366.847,-343.147 339.558,-334.79 319.146,-328.539"/>
<polygon fill="midnightblue" stroke="midnightblue" points="390.274,-353.982 400.86,-353.563 392.323,-347.288 390.274,-353.982"/>
</g>
<!-- Node81 -->
<g id="node30" class="node"><title>Node81</title>
<g id="a_node30"><a xlink:href="namespacemom__regridding.html#a5927168e530c06163baf3693a804e15f" target="_top" xlink:title=" ">
<polygon fill="white" stroke="black" points="554,-304 554,-334 650,-334 650,-304 554,-304"/>
<text text-anchor="start" x="562" y="-322" font-family="Helvetica,sans-Serif" font-size="10.00">mom_regridding::build</text>
<text text-anchor="middle" x="602" y="-311" font-family="Helvetica,sans-Serif" font-size="10.00">_slight_column</text>
</a>
</g>
</g>
<!-- Node80&#45;&gt;Node81 -->
<g id="edge32" class="edge"><title>Node80&#45;&gt;Node81</title>
<path fill="none" stroke="midnightblue" d="M701.401,-319C684.619,-319 666.364,-319 650.186,-319"/>
<polygon fill="midnightblue" stroke="midnightblue" points="701.628,-322.5 711.628,-319 701.628,-315.5 701.628,-322.5"/>
</g>
<!-- Node82 -->
<g id="node31" class="node"><title>Node82</title>
<g id="a_node31"><a xlink:href="namespacemom__regridding.html#adbdde4ab6606ab76f64f57b7ee5dfdeb" target="_top" xlink:title="Builds a grid that tracks density interfaces for water that is denser than the surface density plus a...">
<polygon fill="white" stroke="black" points="401,-304 401,-334 497,-334 497,-304 401,-304"/>
<text text-anchor="start" x="409" y="-322" font-family="Helvetica,sans-Serif" font-size="10.00">mom_regridding::build</text>
<text text-anchor="middle" x="449" y="-311" font-family="Helvetica,sans-Serif" font-size="10.00">_grid_slight</text>
</a>
</g>
</g>
<!-- Node81&#45;&gt;Node82 -->
<g id="edge33" class="edge"><title>Node81&#45;&gt;Node82</title>
<path fill="none" stroke="midnightblue" d="M543.288,-319C528.056,-319 511.799,-319 497.195,-319"/>
<polygon fill="midnightblue" stroke="midnightblue" points="543.637,-322.5 553.637,-319 543.637,-315.5 543.637,-322.5"/>
</g>
<!-- Node82&#45;&gt;Node77 -->
<g id="edge34" class="edge"><title>Node82&#45;&gt;Node77</title>
<path fill="none" stroke="midnightblue" d="M390.633,-319C379.261,-319 367.224,-319 355.55,-319"/>
<polygon fill="midnightblue" stroke="midnightblue" points="390.86,-322.5 400.86,-319 390.86,-315.5 390.86,-322.5"/>
</g>
<!-- Node84 -->
<g id="node33" class="node"><title>Node84</title>
<g id="a_node33"><a xlink:href="namespacepqm__functions.html#ada7e1a8d9d70b5b78b5e2dfddb5ffa43" target="_top" xlink:title=" ">
<polygon fill="white" stroke="black" points="1030.5,-159 1030.5,-189 1119.5,-189 1119.5,-159 1030.5,-159"/>
<text text-anchor="start" x="1038.5" y="-177" font-family="Helvetica,sans-Serif" font-size="10.00">pqm_functions::pqm</text>
<text text-anchor="middle" x="1075" y="-166" font-family="Helvetica,sans-Serif" font-size="10.00">_reconstruction</text>
</a>
</g>
</g>
<!-- Node83&#45;&gt;Node84 -->
<g id="edge37" class="edge"><title>Node83&#45;&gt;Node84</title>
<path fill="none" stroke="midnightblue" d="M1146.09,-174C1137.29,-174 1128.26,-174 1119.74,-174"/>
<polygon fill="midnightblue" stroke="midnightblue" points="1146.28,-177.5 1156.28,-174 1146.28,-170.5 1146.28,-177.5"/>
</g>
<!-- Node84&#45;&gt;Node55 -->
<g id="edge38" class="edge"><title>Node84&#45;&gt;Node55</title>
<path fill="none" stroke="midnightblue" d="M1020.18,-164.248C1004.76,-161.454 988.057,-158.426 973.01,-155.7"/>
<polygon fill="midnightblue" stroke="midnightblue" points="1019.64,-167.706 1030.1,-166.045 1020.89,-160.818 1019.64,-167.706"/>
</g>
<!-- Node84&#45;&gt;Node74 -->
<g id="edge39" class="edge"><title>Node84&#45;&gt;Node74</title>
<path fill="none" stroke="midnightblue" d="M1041.73,-194.792C1013.65,-212.881 973.631,-238.667 948.499,-254.86"/>
<polygon fill="midnightblue" stroke="midnightblue" points="1043.88,-197.57 1050.39,-189.211 1040.09,-191.685 1043.88,-197.57"/>
</g>
</g>
</svg>
        <g id="navigator" transform="translate(0 0)" fill="#404254">
                <rect fill="#f2f5e9" fill-opacity="0.5" stroke="#606060" stroke-width=".5" x="0" y="0" width="60" height="60"/>
                <use id="zoomplus" xlink:href="#zoomPlus" x="17" y="9" onmousedown="handleZoom(evt,'in')"/>
                <use id="zoomminus" xlink:href="#zoomMin" x="42" y="9" onmousedown="handleZoom(evt,'out')"/>
                <use id="reset" xlink:href="#resetDef" x="30" y="36" onmousedown="handleReset()"/>
                <g id="arrowUp" xlink:href="#dirArrow" transform="translate(30 24)" onmousedown="handlePan(0,-1)">
                  <use xlink:href="#rim" fill="#404040">
                        <set attributeName="fill" to="#808080" begin="arrowUp.mouseover" end="arrowUp.mouseout"/>
                  </use>
                  <path fill="none" stroke="white" stroke-width="1.5" d="M0,-3.0v7 M-2.5,-0.5L0,-3.0L2.5,-0.5"/>
                </g>
                <g id="arrowRight" xlink:href="#dirArrow" transform="rotate(90) translate(36 -43)" onmousedown="handlePan(1,0)">
                  <use xlink:href="#rim" fill="#404040">
                        <set attributeName="fill" to="#808080" begin="arrowRight.mouseover" end="arrowRight.mouseout"/>
                  </use>
                  <path fill="none" stroke="white" stroke-width="1.5" d="M0,-3.0v7 M-2.5,-0.5L0,-3.0L2.5,-0.5"/>
                </g>
                <g id="arrowDown" xlink:href="#dirArrow" transform="rotate(180) translate(-30 -48)" onmousedown="handlePan(0,1)">
                  <use xlink:href="#rim" fill="#404040">
                        <set attributeName="fill" to="#808080" begin="arrowDown.mouseover" end="arrowDown.mouseout"/>
                  </use>
                  <path fill="none" stroke="white" stroke-width="1.5" d="M0,-3.0v7 M-2.5,-0.5L0,-3.0L2.5,-0.5"/>
                </g>
                <g id="arrowLeft" xlink:href="#dirArrow" transform="rotate(270) translate(-36 17)" onmousedown="handlePan(-1,0)">
                  <use xlink:href="#rim" fill="#404040">
                        <set attributeName="fill" to="#808080" begin="arrowLeft.mouseover" end="arrowLeft.mouseout"/>
                  </use>
                  <path fill="none" stroke="white" stroke-width="1.5" d="M0,-3.0v7 M-2.5,-0.5L0,-3.0L2.5,-0.5"/>
                </g>
        </g>
        <svg viewBox="0 0 15 15" width="100%" height="30px" preserveAspectRatio="xMaxYMin meet">
         <g id="arrow_out" transform="scale(0.3 0.3)">
          <a xlink:href="namespaceregrid__edge__values_acbdacbbf7212e538bb52a9729fc949a7_icgraph_org.svg" target="_base">
           <rect id="button" ry="5" rx="5" y="6" x="6" height="38" width="38"
                fill="#f2f5e9" fill-opacity="0.5" stroke="#606060" stroke-width="1.0"/>
           <path id="arrow"
             d="M 11.500037,31.436501 C 11.940474,20.09759 22.043105,11.32322 32.158766,21.979434 L 37.068811,17.246167 C 37.068811,17.246167 37.088388,32 37.088388,32 L 22.160133,31.978069 C 22.160133,31.978069 26.997745,27.140456 26.997745,27.140456 C 18.528582,18.264221 13.291696,25.230495 11.500037,31.436501 z"
             style="fill:#404040;"/>
          </a>
         </g>
        </svg>
</svg>
