<?xml version="1.0" encoding="UTF-8" standalone="no"?>
<!DOCTYPE svg PUBLIC "-//W3C//DTD SVG 1.1//EN"
 "http://www.w3.org/Graphics/SVG/1.1/DTD/svg11.dtd">
<!-- Generated by graphviz version 2.30.1 (20170916.1124)
 -->
<!-- Title: mom_coms::efp_real_diff Pages: 1 -->
<svg width="406pt" height="66pt"
 viewBox="0.00 0.00 406.00 66.00" xmlns="http://www.w3.org/2000/svg" xmlns:xlink="http://www.w3.org/1999/xlink">
<g id="graph0" class="graph" transform="scale(1 1) rotate(0) translate(4 62)">
<title>mom_coms::efp_real_diff</title>
<polygon fill="white" stroke="white" points="-4,5 -4,-62 403,-62 403,5 -4,5"/>
<!-- Node21 -->
<g id="node1" class="node"><title>Node21</title>
<g id="a_node1"><a xlink:title=" ">
<polygon fill="#bfbfbf" stroke="black" points="0.5,-19.5 0.5,-38.5 107.5,-38.5 107.5,-19.5 0.5,-19.5"/>
<text text-anchor="middle" x="54" y="-26.5" font-family="Helvetica,sans-Serif" font-size="10.00">mom_coms::efp_real_diff</text>
</a>
</g>
</g>
<!-- Node22 -->
<g id="node2" class="node"><title>Node22</title>
<g id="a_node2"><a xlink:href="namespacemom__coms.html#a4aaf51b372bcaf7b46939145577eff92" target="_top" xlink:title=" ">
<polygon fill="white" stroke="black" points="144.5,-19.5 144.5,-38.5 247.5,-38.5 247.5,-19.5 144.5,-19.5"/>
<text text-anchor="middle" x="196" y="-26.5" font-family="Helvetica,sans-Serif" font-size="10.00">mom_coms::efp_to_real</text>
</a>
</g>
</g>
<!-- Node21&#45;&gt;Node22 -->
<g id="edge1" class="edge"><title>Node21&#45;&gt;Node22</title>
<path fill="none" stroke="midnightblue" d="M107.529,-29C116.323,-29 125.511,-29 134.486,-29"/>
<polygon fill="midnightblue" stroke="midnightblue" points="134.497,-32.5001 144.497,-29 134.497,-25.5001 134.497,-32.5001"/>
</g>
<!-- Node23 -->
<g id="node3" class="node"><title>Node23</title>
<g id="a_node3"><a xlink:href="namespacemom__coms.html#ab8feff19e782af36bb7ccccd5ba9eddc" target="_top" xlink:title=" ">
<polygon fill="white" stroke="black" points="284,-38.5 284,-57.5 398,-57.5 398,-38.5 284,-38.5"/>
<text text-anchor="middle" x="341" y="-45.5" font-family="Helvetica,sans-Serif" font-size="10.00">mom_coms::regularize_ints</text>
</a>
</g>
</g>
<!-- Node22&#45;&gt;Node23 -->
<g id="edge2" class="edge"><title>Node22&#45;&gt;Node23</title>
<path fill="none" stroke="midnightblue" d="M247.819,-35.7522C256.243,-36.8715 265.087,-38.0465 273.823,-39.2073"/>
<polygon fill="midnightblue" stroke="midnightblue" points="273.625,-42.7116 283.999,-40.5593 274.547,-35.7726 273.625,-42.7116"/>
</g>
<!-- Node24 -->
<g id="node4" class="node"><title>Node24</title>
<g id="a_node4"><a xlink:href="namespacemom__coms.html#a24ac5b7cc37b1498f23b61eea03fb8c3" target="_top" xlink:title=" ">
<polygon fill="white" stroke="black" points="289,-0.5 289,-19.5 393,-19.5 393,-0.5 289,-0.5"/>
<text text-anchor="middle" x="341" y="-7.5" font-family="Helvetica,sans-Serif" font-size="10.00">mom_coms::ints_to_real</text>
</a>
</g>
</g>
<!-- Node22&#45;&gt;Node24 -->
<g id="edge3" class="edge"><title>Node22&#45;&gt;Node24</title>
<path fill="none" stroke="midnightblue" d="M247.819,-22.2478C257.814,-20.9199 268.398,-19.5135 278.695,-18.1455"/>
<polygon fill="midnightblue" stroke="midnightblue" points="279.411,-21.5812 288.863,-16.7945 278.489,-14.6421 279.411,-21.5812"/>
</g>
</g>
</svg>
