<?xml version="1.0" encoding="UTF-8" standalone="no"?>
<!DOCTYPE svg PUBLIC "-//W3C//DTD SVG 1.1//EN"
 "http://www.w3.org/Graphics/SVG/1.1/DTD/svg11.dtd">
<!-- Generated by graphviz version 2.30.1 (20170916.1124)
 -->
<!-- Title: mom_hor_visc::hor_visc_init Pages: 1 -->
<svg width="260pt" height="220pt"
 viewBox="0.00 0.00 260.00 220.00" xmlns="http://www.w3.org/2000/svg" xmlns:xlink="http://www.w3.org/1999/xlink">
<g id="graph0" class="graph" transform="scale(1 1) rotate(0) translate(4 216)">
<title>mom_hor_visc::hor_visc_init</title>
<polygon fill="white" stroke="white" points="-4,5 -4,-216 257,-216 257,5 -4,5"/>
<!-- Node5 -->
<g id="node1" class="node"><title>Node5</title>
<g id="a_node1"><a xlink:title=" ">
<polygon fill="#bfbfbf" stroke="black" points="136,-93.5 136,-112.5 252,-112.5 252,-93.5 136,-93.5"/>
<text text-anchor="middle" x="194" y="-100.5" font-family="Helvetica,sans-Serif" font-size="10.00">mom_hor_visc::hor_visc_init</text>
</a>
</g>
</g>
<!-- Node6 -->
<g id="node2" class="node"><title>Node6</title>
<g id="a_node2"><a xlink:href="namespacemom__dynamics__legacy__split.html#aef55fe2e12672940edbd2dc5d7e72fd7" target="_top" xlink:title=" ">
<polygon fill="white" stroke="black" points="0.5,-170.5 0.5,-211.5 99.5,-211.5 99.5,-170.5 0.5,-170.5"/>
<text text-anchor="start" x="8.5" y="-199.5" font-family="Helvetica,sans-Serif" font-size="10.00">mom_dynamics_legacy</text>
<text text-anchor="start" x="8.5" y="-188.5" font-family="Helvetica,sans-Serif" font-size="10.00">_split::initialize_dyn</text>
<text text-anchor="middle" x="50" y="-177.5" font-family="Helvetica,sans-Serif" font-size="10.00">_legacy_split</text>
</a>
</g>
</g>
<!-- Node5&#45;&gt;Node6 -->
<g id="edge1" class="edge"><title>Node5&#45;&gt;Node6</title>
<path fill="none" stroke="midnightblue" d="M169.038,-118.019C150.277,-129.761 123.509,-146.473 100,-161 95.0785,-164.041 89.8718,-167.244 84.7619,-170.38"/>
<polygon fill="midnightblue" stroke="midnightblue" points="170.938,-120.959 177.556,-112.686 167.223,-115.026 170.938,-120.959"/>
</g>
<!-- Node7 -->
<g id="node3" class="node"><title>Node7</title>
<g id="a_node3"><a xlink:href="namespacemom__dynamics__split__rk2.html#a3bae09afc9136333ab281704dc9d9415" target="_top" xlink:title="This subroutine initializes all of the variables that are used by this dynamic core,...">
<polygon fill="white" stroke="black" points="5,-110.5 5,-151.5 95,-151.5 95,-110.5 5,-110.5"/>
<text text-anchor="start" x="13" y="-139.5" font-family="Helvetica,sans-Serif" font-size="10.00">mom_dynamics_split</text>
<text text-anchor="start" x="13" y="-128.5" font-family="Helvetica,sans-Serif" font-size="10.00">_rk2::initialize_dyn</text>
<text text-anchor="middle" x="50" y="-117.5" font-family="Helvetica,sans-Serif" font-size="10.00">_split_rk2</text>
</a>
</g>
</g>
<!-- Node5&#45;&gt;Node7 -->
<g id="edge2" class="edge"><title>Node5&#45;&gt;Node7</title>
<path fill="none" stroke="midnightblue" d="M134.657,-114.504C121.556,-117.087 107.862,-119.788 95.4352,-122.238"/>
<polygon fill="midnightblue" stroke="midnightblue" points="135.395,-117.926 144.529,-112.558 134.041,-111.058 135.395,-117.926"/>
</g>
<!-- Node8 -->
<g id="node4" class="node"><title>Node8</title>
<g id="a_node4"><a xlink:href="namespacemom__dynamics__unsplit.html#ac557a7a55605cba7a17074f6375107f6" target="_top" xlink:title=" ">
<polygon fill="white" stroke="black" points="0.5,-61 0.5,-91 99.5,-91 99.5,-61 0.5,-61"/>
<text text-anchor="start" x="8.5" y="-79" font-family="Helvetica,sans-Serif" font-size="10.00">mom_dynamics_unsplit</text>
<text text-anchor="middle" x="50" y="-68" font-family="Helvetica,sans-Serif" font-size="10.00">::initialize_dyn_unsplit</text>
</a>
</g>
</g>
<!-- Node5&#45;&gt;Node8 -->
<g id="edge3" class="edge"><title>Node5&#45;&gt;Node8</title>
<path fill="none" stroke="midnightblue" d="M132.889,-91.5704C121.802,-89.4624 110.353,-87.2855 99.6573,-85.2517"/>
<polygon fill="midnightblue" stroke="midnightblue" points="132.458,-95.0512 142.936,-93.4808 133.766,-88.1744 132.458,-95.0512"/>
</g>
<!-- Node9 -->
<g id="node5" class="node"><title>Node9</title>
<g id="a_node5"><a xlink:href="namespacemom__dynamics__unsplit__rk2.html#a7be251effa3bf4a236ea3feda6fc6d91" target="_top" xlink:title=" ">
<polygon fill="white" stroke="black" points="0.5,-0.5 0.5,-41.5 99.5,-41.5 99.5,-0.5 0.5,-0.5"/>
<text text-anchor="start" x="8.5" y="-29.5" font-family="Helvetica,sans-Serif" font-size="10.00">mom_dynamics_unsplit</text>
<text text-anchor="start" x="8.5" y="-18.5" font-family="Helvetica,sans-Serif" font-size="10.00">_rk2::initialize_dyn</text>
<text text-anchor="middle" x="50" y="-7.5" font-family="Helvetica,sans-Serif" font-size="10.00">_unsplit_rk2</text>
</a>
</g>
</g>
<!-- Node5&#45;&gt;Node9 -->
<g id="edge4" class="edge"><title>Node5&#45;&gt;Node9</title>
<path fill="none" stroke="midnightblue" d="M167.476,-88.2608C144.944,-75.2493 111.861,-56.1453 86.7058,-41.6189"/>
<polygon fill="midnightblue" stroke="midnightblue" points="166.023,-91.4632 176.433,-93.4331 169.523,-85.4013 166.023,-91.4632"/>
</g>
</g>
</svg>
