<?xml version="1.0" encoding="UTF-8" standalone="no"?>
<!DOCTYPE svg PUBLIC "-//W3C//DTD SVG 1.1//EN"
 "http://www.w3.org/Graphics/SVG/1.1/DTD/svg11.dtd">
<!-- Generated by graphviz version 2.30.1 (20170916.1124)
 -->
<!-- Title: mom_regridding::check_remapping_grid Pages: 1 -->
<svg width="504pt" height="38pt"
 viewBox="0.00 0.00 504.00 38.00" xmlns="http://www.w3.org/2000/svg" xmlns:xlink="http://www.w3.org/1999/xlink">
<g id="graph0" class="graph" transform="scale(1 1) rotate(0) translate(4 34)">
<title>mom_regridding::check_remapping_grid</title>
<polygon fill="white" stroke="white" points="-4,5 -4,-34 501,-34 501,5 -4,5"/>
<!-- Node273 -->
<g id="node1" class="node"><title>Node273</title>
<g id="a_node1"><a xlink:title="Check that the total thickness of two grids match.">
<polygon fill="#bfbfbf" stroke="black" points="0,-0 0,-30 100,-30 100,-0 0,-0"/>
<text text-anchor="start" x="8" y="-18" font-family="Helvetica,sans-Serif" font-size="10.00">mom_regridding::check</text>
<text text-anchor="middle" x="50" y="-7" font-family="Helvetica,sans-Serif" font-size="10.00">_remapping_grid</text>
</a>
</g>
</g>
<!-- Node274 -->
<g id="node2" class="node"><title>Node274</title>
<g id="a_node2"><a xlink:href="namespacemom__regridding.html#ab2a6be87039f49176d91a494126d8430" target="_top" xlink:title="Check that the total thickness of new and old grids are consistent.">
<polygon fill="white" stroke="black" points="136,-0 136,-30 236,-30 236,-0 136,-0"/>
<text text-anchor="start" x="144" y="-18" font-family="Helvetica,sans-Serif" font-size="10.00">mom_regridding::check</text>
<text text-anchor="middle" x="186" y="-7" font-family="Helvetica,sans-Serif" font-size="10.00">_grid_column</text>
</a>
</g>
</g>
<!-- Node273&#45;&gt;Node274 -->
<g id="edge1" class="edge"><title>Node273&#45;&gt;Node274</title>
<path fill="none" stroke="midnightblue" d="M100.136,-15C108.42,-15 117.097,-15 125.608,-15"/>
<polygon fill="midnightblue" stroke="midnightblue" points="125.87,-18.5001 135.87,-15 125.87,-11.5001 125.87,-18.5001"/>
</g>
<!-- Node275 -->
<g id="node3" class="node"><title>Node275</title>
<g id="a_node3"><a xlink:href="namespacemom__error__handler.html#a460cfb79a06c29fc249952c2a3710d67" target="_top" xlink:title=" ">
<polygon fill="white" stroke="black" points="272.5,-0 272.5,-30 365.5,-30 365.5,-0 272.5,-0"/>
<text text-anchor="start" x="280.5" y="-18" font-family="Helvetica,sans-Serif" font-size="10.00">mom_error_handler::</text>
<text text-anchor="middle" x="319" y="-7" font-family="Helvetica,sans-Serif" font-size="10.00">mom_error</text>
</a>
</g>
</g>
<!-- Node274&#45;&gt;Node275 -->
<g id="edge2" class="edge"><title>Node274&#45;&gt;Node275</title>
<path fill="none" stroke="midnightblue" d="M236.152,-15C244.71,-15 253.666,-15 262.382,-15"/>
<polygon fill="midnightblue" stroke="midnightblue" points="262.467,-18.5001 272.467,-15 262.467,-11.5001 262.467,-18.5001"/>
</g>
<!-- Node276 -->
<g id="node4" class="node"><title>Node276</title>
<g id="a_node4"><a xlink:href="namespacemom__error__handler.html#ad5f00a53059c72fe2332d1436c80ca71" target="_top" xlink:title=" ">
<polygon fill="white" stroke="black" points="402.5,-0 402.5,-30 495.5,-30 495.5,-0 402.5,-0"/>
<text text-anchor="start" x="410.5" y="-18" font-family="Helvetica,sans-Serif" font-size="10.00">mom_error_handler::</text>
<text text-anchor="middle" x="449" y="-7" font-family="Helvetica,sans-Serif" font-size="10.00">is_root_pe</text>
</a>
</g>
</g>
<!-- Node275&#45;&gt;Node276 -->
<g id="edge3" class="edge"><title>Node275&#45;&gt;Node276</title>
<path fill="none" stroke="midnightblue" d="M365.849,-15C374.408,-15 383.439,-15 392.258,-15"/>
<polygon fill="midnightblue" stroke="midnightblue" points="392.471,-18.5001 402.471,-15 392.471,-11.5001 392.471,-18.5001"/>
</g>
</g>
</svg>
