<?xml version="1.0" encoding="UTF-8" standalone="no"?>
<!DOCTYPE svg PUBLIC "-//W3C//DTD SVG 1.1//EN"
 "http://www.w3.org/Graphics/SVG/1.1/DTD/svg11.dtd">
<!-- Generated by graphviz version 2.30.1 (20170916.1124)
 -->
<!-- Title: mom_string_functions::uppercase Pages: 1 -->
<!--zoomable 1000 -->
<svg id="main" version="1.1" xmlns="http://www.w3.org/2000/svg" xmlns:xlink="http://www.w3.org/1999/xlink" xml:space="preserve" onload="init(evt)">
<style type="text/css"><![CDATA[
.edge:hover path { stroke: red; }
.edge:hover polygon { stroke: red; fill: red; }
]]></style>
<script type="text/javascript"><![CDATA[
var edges = document.getElementsByTagName('g');
if (edges && edges.length) {
  for (var i=0;i<edges.length;i++) {
    if (edges[i].id.substr(0,4)=='edge') {
      edges[i].setAttribute('class','edge');
    }
  }
}
]]></script>
        <defs>
                <circle id="rim" cx="0" cy="0" r="7"/>
                <circle id="rim2" cx="0" cy="0" r="3.5"/>
                <g id="zoomPlus">
                        <use xlink:href="#rim" fill="#404040">
                                <set attributeName="fill" to="#808080" begin="zoomplus.mouseover" end="zoomplus.mouseout"/>
                        </use>
                        <path d="M-4,0h8M0,-4v8" fill="none" stroke="white" stroke-width="1.5" pointer-events="none"/>
                </g>
                <g id="zoomMin">
                        <use xlink:href="#rim" fill="#404040">
                                <set attributeName="fill" to="#808080" begin="zoomminus.mouseover" end="zoomminus.mouseout"/>
                        </use>
                        <path d="M-4,0h8" fill="none" stroke="white" stroke-width="1.5" pointer-events="none"/>
                </g>
                <g id="dirArrow">
                        <path fill="none" stroke="white" stroke-width="1.5" d="M0,-3.0v7 M-2.5,-0.5L0,-3.0L2.5,-0.5"/>
                </g>
               <g id="resetDef">
                       <use xlink:href="#rim2" fill="#404040">
                               <set attributeName="fill" to="#808080" begin="reset.mouseover" end="reset.mouseout"/>
                       </use>
               </g>
        </defs>

<script type="text/javascript">
var viewWidth = 1276;
var viewHeight = 1000;
var sectionId = 'dynsection-20';
</script>
<script xlink:href="svgpan.js"/>
<svg id="graph" class="graph">
<g id="viewport">
<title>mom_string_functions::uppercase</title>
<polygon fill="white" stroke="white" points="-4,5 -4,-996 1273,-996 1273,5 -4,5"/>
<!-- Node121 -->
<g id="node1" class="node"><title>Node121</title>
<g id="a_node1"><a xlink:title=" ">
<polygon fill="#bfbfbf" stroke="black" points="1172.5,-295 1172.5,-325 1267.5,-325 1267.5,-295 1172.5,-295"/>
<text text-anchor="start" x="1180.5" y="-313" font-family="Helvetica,sans-Serif" font-size="10.00">mom_string_functions</text>
<text text-anchor="middle" x="1220" y="-302" font-family="Helvetica,sans-Serif" font-size="10.00">::uppercase</text>
</a>
</g>
</g>
<!-- Node122 -->
<g id="node2" class="node"><title>Node122</title>
<g id="a_node2"><a xlink:href="namespacemom__continuity.html#aa08c4a80c95080ec4649e366f5bd3ae8" target="_top" xlink:title="Initializes continuity_cs.">
<polygon fill="white" stroke="black" points="995,-860.5 995,-879.5 1119,-879.5 1119,-860.5 995,-860.5"/>
<text text-anchor="middle" x="1057" y="-867.5" font-family="Helvetica,sans-Serif" font-size="10.00">mom_continuity::continuity_init</text>
</a>
</g>
</g>
<!-- Node121&#45;&gt;Node122 -->
<g id="edge1" class="edge"><title>Node121&#45;&gt;Node122</title>
<path fill="none" stroke="midnightblue" d="M1218.71,-335.411C1217.1,-431.925 1206.42,-774.195 1136,-851 1131.29,-856.137 1125.45,-859.992 1119.09,-862.869"/>
<polygon fill="midnightblue" stroke="midnightblue" points="1222.22,-335.185 1218.87,-325.134 1215.22,-335.081 1222.22,-335.185"/>
</g>
<!-- Node127 -->
<g id="node7" class="node"><title>Node127</title>
<g id="a_node7"><a xlink:href="namespaceregrid__consts.html#a06ccba5b7b038bed853606a315df306a" target="_top" xlink:title="Parse a string parameter specifying the coordinate mode and return the appropriate enumerated integer...">
<polygon fill="white" stroke="black" points="993.5,-595.5 993.5,-614.5 1120.5,-614.5 1120.5,-595.5 993.5,-595.5"/>
<text text-anchor="middle" x="1057" y="-602.5" font-family="Helvetica,sans-Serif" font-size="10.00">regrid_consts::coordinatemode</text>
</a>
</g>
</g>
<!-- Node121&#45;&gt;Node127 -->
<g id="edge6" class="edge"><title>Node121&#45;&gt;Node127</title>
<path fill="none" stroke="midnightblue" d="M1207.53,-334.731C1192.08,-367.633 1163.36,-427.42 1136,-477 1111.1,-522.112 1078.06,-574.012 1064.36,-595.213"/>
<polygon fill="midnightblue" stroke="midnightblue" points="1210.81,-335.965 1211.88,-325.424 1204.47,-333 1210.81,-335.965"/>
</g>
<!-- Node134 -->
<g id="node14" class="node"><title>Node134</title>
<g id="a_node14"><a xlink:href="namespacemom__coriolisadv.html#ad3ce07f23ce7b484a5a9e0c0abe8b1cd" target="_top" xlink:title="Initializes the control structure for coriolisadv_cs.">
<polygon fill="white" stroke="black" points="991.5,-822.5 991.5,-841.5 1122.5,-841.5 1122.5,-822.5 991.5,-822.5"/>
<text text-anchor="middle" x="1057" y="-829.5" font-family="Helvetica,sans-Serif" font-size="10.00">mom_coriolisadv::coriolisadv_init</text>
</a>
</g>
</g>
<!-- Node121&#45;&gt;Node134 -->
<g id="edge13" class="edge"><title>Node121&#45;&gt;Node134</title>
<path fill="none" stroke="midnightblue" d="M1213.26,-335.156C1200.83,-388.749 1169.81,-517.951 1136,-624 1111.28,-701.532 1074.32,-792.559 1062.09,-822.165"/>
<polygon fill="midnightblue" stroke="midnightblue" points="1216.72,-335.719 1215.56,-325.188 1209.9,-334.146 1216.72,-335.719"/>
</g>
<!-- Node135 -->
<g id="node15" class="node"><title>Node135</title>
<g id="a_node15"><a xlink:href="namespacemom__eos.html#a6686ef94d0db1f1dcfb4284ebfc2be88" target="_top" xlink:title="Initializes EOS_type by allocating and reading parameters.">
<polygon fill="white" stroke="black" points="1015.5,-448.5 1015.5,-467.5 1098.5,-467.5 1098.5,-448.5 1015.5,-448.5"/>
<text text-anchor="middle" x="1057" y="-455.5" font-family="Helvetica,sans-Serif" font-size="10.00">mom_eos::eos_init</text>
</a>
</g>
</g>
<!-- Node121&#45;&gt;Node135 -->
<g id="edge18" class="edge"><title>Node121&#45;&gt;Node135</title>
<path fill="none" stroke="midnightblue" d="M1207.93,-334.3C1194.51,-361.247 1169.45,-404.295 1136,-430 1125.16,-438.328 1111.63,-444.331 1098.89,-448.588"/>
<polygon fill="midnightblue" stroke="midnightblue" points="1211.15,-335.69 1212.35,-325.163 1204.85,-332.645 1211.15,-335.69"/>
</g>
<!-- Node139 -->
<g id="node19" class="node"><title>Node139</title>
<g id="a_node19"><a xlink:href="namespacemom__regridding.html#a6d580fc0f39c34d7ee31b473fef6ae3d" target="_top" xlink:title="Numeric value of interpolation_scheme corresponding to scheme name.">
<polygon fill="white" stroke="black" points="995.5,-273 995.5,-303 1118.5,-303 1118.5,-273 995.5,-273"/>
<text text-anchor="start" x="1003.5" y="-291" font-family="Helvetica,sans-Serif" font-size="10.00">mom_regridding::interpolation</text>
<text text-anchor="middle" x="1057" y="-280" font-family="Helvetica,sans-Serif" font-size="10.00">_scheme</text>
</a>
</g>
</g>
<!-- Node121&#45;&gt;Node139 -->
<g id="edge22" class="edge"><title>Node121&#45;&gt;Node139</title>
<path fill="none" stroke="midnightblue" d="M1162.33,-302.257C1148.17,-300.321 1132.91,-298.237 1118.56,-296.276"/>
<polygon fill="midnightblue" stroke="midnightblue" points="1162.05,-305.751 1172.43,-303.637 1163,-298.815 1162.05,-305.751"/>
</g>
<!-- Node142 -->
<g id="node22" class="node"><title>Node142</title>
<g id="a_node22"><a xlink:href="namespaceocean__model__mod.html#aced9c77abd80a4a509c7cc317af707a7" target="_top" xlink:title=" ">
<polygon fill="white" stroke="black" points="1001.5,-224 1001.5,-254 1112.5,-254 1112.5,-224 1001.5,-224"/>
<text text-anchor="start" x="1009.5" y="-242" font-family="Helvetica,sans-Serif" font-size="10.00">ocean_model_mod::ocean</text>
<text text-anchor="middle" x="1057" y="-231" font-family="Helvetica,sans-Serif" font-size="10.00">_model_init</text>
</a>
</g>
</g>
<!-- Node121&#45;&gt;Node142 -->
<g id="edge25" class="edge"><title>Node121&#45;&gt;Node142</title>
<path fill="none" stroke="midnightblue" d="M1186.5,-289.427C1171.52,-280.511 1153.25,-270.435 1136,-263 1128.45,-259.748 1120.32,-256.738 1112.26,-254.026"/>
<polygon fill="midnightblue" stroke="midnightblue" points="1185.01,-292.612 1195.38,-294.794 1188.63,-286.623 1185.01,-292.612"/>
</g>
<!-- Node143 -->
<g id="node23" class="node"><title>Node143</title>
<g id="a_node23"><a xlink:href="namespacemom__opacity.html#ab8dbcd70b93f5bd77b2a525cd73f0eb9" target="_top" xlink:title=" ">
<polygon fill="white" stroke="black" points="1003.5,-185.5 1003.5,-204.5 1110.5,-204.5 1110.5,-185.5 1003.5,-185.5"/>
<text text-anchor="middle" x="1057" y="-192.5" font-family="Helvetica,sans-Serif" font-size="10.00">mom_opacity::opacity_init</text>
</a>
</g>
</g>
<!-- Node121&#45;&gt;Node143 -->
<g id="edge26" class="edge"><title>Node121&#45;&gt;Node143</title>
<path fill="none" stroke="midnightblue" d="M1204.7,-286.261C1190.15,-264.187 1165.58,-232.071 1136,-214 1128.27,-209.277 1119.44,-205.727 1110.56,-203.06"/>
<polygon fill="midnightblue" stroke="midnightblue" points="1201.79,-288.211 1210.12,-294.75 1207.69,-284.439 1201.79,-288.211"/>
</g>
<!-- Node145 -->
<g id="node25" class="node"><title>Node145</title>
<g id="a_node25"><a xlink:href="namespacemom__shared__initialization.html#a49c0443c10514a0d5ce5d8df4d68bce8" target="_top" xlink:title=" ">
<polygon fill="white" stroke="black" points="1003,-98 1003,-128 1111,-128 1111,-98 1003,-98"/>
<text text-anchor="start" x="1011" y="-116" font-family="Helvetica,sans-Serif" font-size="10.00">mom_shared_initialization</text>
<text text-anchor="middle" x="1057" y="-105" font-family="Helvetica,sans-Serif" font-size="10.00">::read_face_length_list</text>
</a>
</g>
</g>
<!-- Node121&#45;&gt;Node145 -->
<g id="edge28" class="edge"><title>Node121&#45;&gt;Node145</title>
<path fill="none" stroke="midnightblue" d="M1212.83,-285.082C1202.68,-249.008 1179.15,-182.271 1136,-143 1128.81,-136.457 1120.04,-131.284 1111.01,-127.212"/>
<polygon fill="midnightblue" stroke="midnightblue" points="1209.47,-286.066 1215.45,-294.812 1216.23,-284.246 1209.47,-286.066"/>
</g>
<!-- Node146 -->
<g id="node26" class="node"><title>Node146</title>
<g id="a_node26"><a xlink:href="namespacemom__shared__initialization.html#a6e8080f56f3d751c7eac51a942f4fa9a" target="_top" xlink:title=" ">
<polygon fill="white" stroke="black" points="824,-114 824,-144 932,-144 932,-114 824,-114"/>
<text text-anchor="start" x="832" y="-132" font-family="Helvetica,sans-Serif" font-size="10.00">mom_shared_initialization</text>
<text text-anchor="middle" x="878" y="-121" font-family="Helvetica,sans-Serif" font-size="10.00">::reset_face_lengths_list</text>
</a>
</g>
</g>
<!-- Node121&#45;&gt;Node146 -->
<g id="edge30" class="edge"><title>Node121&#45;&gt;Node146</title>
<path fill="none" stroke="midnightblue" d="M1210.72,-285.021C1199.13,-254.193 1175,-202.598 1136,-176 1103.54,-153.861 997.308,-140.162 932.023,-133.618"/>
<polygon fill="midnightblue" stroke="midnightblue" points="1207.49,-286.39 1214.17,-294.613 1214.08,-284.019 1207.49,-286.39"/>
</g>
<!-- Node147 -->
<g id="node27" class="node"><title>Node147</title>
<g id="a_node27"><a xlink:href="namespacemom__set__diffusivity.html#ac0a2a098bc7dc3b087a4bae87511b7ca" target="_top" xlink:title=" ">
<polygon fill="white" stroke="black" points="1014,-49 1014,-79 1100,-79 1100,-49 1014,-49"/>
<text text-anchor="start" x="1022" y="-67" font-family="Helvetica,sans-Serif" font-size="10.00">mom_set_diffusivity</text>
<text text-anchor="middle" x="1057" y="-56" font-family="Helvetica,sans-Serif" font-size="10.00">::set_diffusivity_init</text>
</a>
</g>
</g>
<!-- Node121&#45;&gt;Node147 -->
<g id="edge31" class="edge"><title>Node121&#45;&gt;Node147</title>
<path fill="none" stroke="midnightblue" d="M1216.74,-284.882C1211.28,-239.126 1193.25,-141.95 1136,-88 1126.2,-78.7688 1112.94,-73.0838 1100.12,-69.5843"/>
<polygon fill="midnightblue" stroke="midnightblue" points="1213.26,-285.283 1217.83,-294.846 1220.22,-284.526 1213.26,-285.283"/>
</g>
<!-- Node148 -->
<g id="node28" class="node"><title>Node148</title>
<g id="a_node28"><a xlink:href="namespacemom__remapping.html#a41a89ac62578250500b7a450d5fdfae7" target="_top" xlink:title="Changes the method of reconstruction Use this routine to parse a string parameter specifying the reco...">
<polygon fill="white" stroke="black" points="978,-401.5 978,-420.5 1136,-420.5 1136,-401.5 978,-401.5"/>
<text text-anchor="middle" x="1057" y="-408.5" font-family="Helvetica,sans-Serif" font-size="10.00">mom_remapping::setreconstructiontype</text>
</a>
</g>
</g>
<!-- Node121&#45;&gt;Node148 -->
<g id="edge32" class="edge"><title>Node121&#45;&gt;Node148</title>
<path fill="none" stroke="midnightblue" d="M1198.28,-332.769C1182.53,-348.935 1159.61,-370.145 1136,-384 1123.39,-391.398 1108.45,-397.187 1095.03,-401.475"/>
<polygon fill="midnightblue" stroke="midnightblue" points="1201.04,-334.945 1205.41,-325.292 1195.97,-330.115 1201.04,-334.945"/>
</g>
<!-- Node160 -->
<g id="node40" class="node"><title>Node160</title>
<g id="a_node40"><a xlink:href="namespacemom__surface__forcing.html#a08ab046cc02cb51f5045c8efa7337f65" target="_top" xlink:title=" ">
<polygon fill="white" stroke="black" points="92,-390 92,-420 186,-420 186,-390 92,-390"/>
<text text-anchor="start" x="100" y="-408" font-family="Helvetica,sans-Serif" font-size="10.00">mom_surface_forcing</text>
<text text-anchor="middle" x="139" y="-397" font-family="Helvetica,sans-Serif" font-size="10.00">::surface_forcing_init</text>
</a>
</g>
</g>
<!-- Node121&#45;&gt;Node160 -->
<g id="edge46" class="edge"><title>Node121&#45;&gt;Node160</title>
<path fill="none" stroke="midnightblue" d="M1162.5,-326.207C1095.47,-343.977 980.056,-370 879,-370 879,-370 879,-370 417,-370 335.324,-370 241.161,-385.163 186.335,-395.528"/>
<polygon fill="midnightblue" stroke="midnightblue" points="1163.68,-329.513 1172.43,-323.54 1161.87,-322.753 1163.68,-329.513"/>
</g>
<!-- Node161 -->
<g id="node41" class="node"><title>Node161</title>
<g id="a_node41"><a xlink:href="namespacemom__surface__forcing.html#a20f66a7798d7d28348dac1d2c690ce99" target="_top" xlink:title=" ">
<polygon fill="white" stroke="black" points="1010,-0 1010,-30 1104,-30 1104,-0 1010,-0"/>
<text text-anchor="start" x="1018" y="-18" font-family="Helvetica,sans-Serif" font-size="10.00">mom_surface_forcing</text>
<text text-anchor="middle" x="1057" y="-7" font-family="Helvetica,sans-Serif" font-size="10.00">::wind_forcing_const</text>
</a>
</g>
</g>
<!-- Node121&#45;&gt;Node161 -->
<g id="edge48" class="edge"><title>Node121&#45;&gt;Node161</title>
<path fill="none" stroke="midnightblue" d="M1218.74,-284.749C1216.78,-231.666 1204.66,-107.747 1136,-39 1127.39,-30.3786 1115.76,-24.8412 1104.12,-21.2887"/>
<polygon fill="midnightblue" stroke="midnightblue" points="1215.24,-285.056 1219.01,-294.956 1222.24,-284.864 1215.24,-285.056"/>
</g>
<!-- Node162 -->
<g id="node42" class="node"><title>Node162</title>
<g id="a_node42"><a xlink:href="namespacemom__surface__forcing.html#a3c2efab8f262459aa7de2c592d1a3b1e" target="_top" xlink:title=" ">
<polygon fill="white" stroke="black" points="672.5,-311 672.5,-341 773.5,-341 773.5,-311 672.5,-311"/>
<text text-anchor="start" x="680.5" y="-329" font-family="Helvetica,sans-Serif" font-size="10.00">mom_surface_forcing</text>
<text text-anchor="middle" x="723" y="-318" font-family="Helvetica,sans-Serif" font-size="10.00">::wind_forcing_from_file</text>
</a>
</g>
</g>
<!-- Node121&#45;&gt;Node162 -->
<g id="edge49" class="edge"><title>Node121&#45;&gt;Node162</title>
<path fill="none" stroke="midnightblue" d="M1162.16,-311.837C1064.47,-314.995 866.302,-321.4 773.736,-324.392"/>
<polygon fill="midnightblue" stroke="midnightblue" points="1162.55,-315.327 1172.43,-311.505 1162.32,-308.33 1162.55,-315.327"/>
</g>
<!-- Node123 -->
<g id="node3" class="node"><title>Node123</title>
<g id="a_node3"><a xlink:href="namespacemom__dynamics__legacy__split.html#aef55fe2e12672940edbd2dc5d7e72fd7" target="_top" xlink:title=" ">
<polygon fill="white" stroke="black" points="828.5,-890.5 828.5,-931.5 927.5,-931.5 927.5,-890.5 828.5,-890.5"/>
<text text-anchor="start" x="836.5" y="-919.5" font-family="Helvetica,sans-Serif" font-size="10.00">mom_dynamics_legacy</text>
<text text-anchor="start" x="836.5" y="-908.5" font-family="Helvetica,sans-Serif" font-size="10.00">_split::initialize_dyn</text>
<text text-anchor="middle" x="878" y="-897.5" font-family="Helvetica,sans-Serif" font-size="10.00">_legacy_split</text>
</a>
</g>
</g>
<!-- Node122&#45;&gt;Node123 -->
<g id="edge2" class="edge"><title>Node122&#45;&gt;Node123</title>
<path fill="none" stroke="midnightblue" d="M1005.17,-881.774C980.809,-887.417 951.765,-894.145 927.688,-899.722"/>
<polygon fill="midnightblue" stroke="midnightblue" points="1006,-885.176 1014.95,-879.509 1004.42,-878.356 1006,-885.176"/>
</g>
<!-- Node124 -->
<g id="node4" class="node"><title>Node124</title>
<g id="a_node4"><a xlink:href="namespacemom__dynamics__split__rk2.html#a3bae09afc9136333ab281704dc9d9415" target="_top" xlink:title="This subroutine initializes all of the variables that are used by this dynamic core,...">
<polygon fill="white" stroke="black" points="833,-830.5 833,-871.5 923,-871.5 923,-830.5 833,-830.5"/>
<text text-anchor="start" x="841" y="-859.5" font-family="Helvetica,sans-Serif" font-size="10.00">mom_dynamics_split</text>
<text text-anchor="start" x="841" y="-848.5" font-family="Helvetica,sans-Serif" font-size="10.00">_rk2::initialize_dyn</text>
<text text-anchor="middle" x="878" y="-837.5" font-family="Helvetica,sans-Serif" font-size="10.00">_split_rk2</text>
</a>
</g>
</g>
<!-- Node122&#45;&gt;Node124 -->
<g id="edge3" class="edge"><title>Node122&#45;&gt;Node124</title>
<path fill="none" stroke="midnightblue" d="M984.503,-862.325C963.696,-860.092 941.587,-857.718 923.012,-855.724"/>
<polygon fill="midnightblue" stroke="midnightblue" points="984.274,-865.821 994.591,-863.408 985.021,-858.861 984.274,-865.821"/>
</g>
<!-- Node125 -->
<g id="node5" class="node"><title>Node125</title>
<g id="a_node5"><a xlink:href="namespacemom__dynamics__unsplit.html#ac557a7a55605cba7a17074f6375107f6" target="_top" xlink:title=" ">
<polygon fill="white" stroke="black" points="828.5,-781 828.5,-811 927.5,-811 927.5,-781 828.5,-781"/>
<text text-anchor="start" x="836.5" y="-799" font-family="Helvetica,sans-Serif" font-size="10.00">mom_dynamics_unsplit</text>
<text text-anchor="middle" x="878" y="-788" font-family="Helvetica,sans-Serif" font-size="10.00">::initialize_dyn_unsplit</text>
</a>
</g>
</g>
<!-- Node122&#45;&gt;Node125 -->
<g id="edge4" class="edge"><title>Node122&#45;&gt;Node125</title>
<path fill="none" stroke="midnightblue" d="M992.597,-857.197C987.554,-855.387 982.627,-853.332 978,-851 959.401,-841.626 959.904,-831.641 942,-821 935.83,-817.333 929.023,-813.994 922.233,-811.035"/>
<polygon fill="midnightblue" stroke="midnightblue" points="991.799,-860.617 1002.39,-860.383 993.964,-853.961 991.799,-860.617"/>
</g>
<!-- Node126 -->
<g id="node6" class="node"><title>Node126</title>
<g id="a_node6"><a xlink:href="namespacemom__dynamics__unsplit__rk2.html#a7be251effa3bf4a236ea3feda6fc6d91" target="_top" xlink:title=" ">
<polygon fill="white" stroke="black" points="828.5,-950.5 828.5,-991.5 927.5,-991.5 927.5,-950.5 828.5,-950.5"/>
<text text-anchor="start" x="836.5" y="-979.5" font-family="Helvetica,sans-Serif" font-size="10.00">mom_dynamics_unsplit</text>
<text text-anchor="start" x="836.5" y="-968.5" font-family="Helvetica,sans-Serif" font-size="10.00">_rk2::initialize_dyn</text>
<text text-anchor="middle" x="878" y="-957.5" font-family="Helvetica,sans-Serif" font-size="10.00">_unsplit_rk2</text>
</a>
</g>
</g>
<!-- Node122&#45;&gt;Node126 -->
<g id="edge5" class="edge"><title>Node122&#45;&gt;Node126</title>
<path fill="none" stroke="midnightblue" d="M1032.97,-885.415C1010.26,-900.356 974.359,-923.292 942,-941 936.155,-944.199 929.914,-947.407 923.716,-950.475"/>
<polygon fill="midnightblue" stroke="midnightblue" points="1035.15,-888.168 1041.56,-879.73 1031.29,-882.33 1035.15,-888.168"/>
</g>
<!-- Node128 -->
<g id="node8" class="node"><title>Node128</title>
<g id="a_node8"><a xlink:href="namespaceregrid__consts.html#abb7bad7b33524d0373426750c48cb1c6" target="_top" xlink:title="Returns a string with the coordinate units associated with the string defining the coordinate mode.">
<polygon fill="white" stroke="black" points="814.5,-595.5 814.5,-614.5 941.5,-614.5 941.5,-595.5 814.5,-595.5"/>
<text text-anchor="middle" x="878" y="-602.5" font-family="Helvetica,sans-Serif" font-size="10.00">regrid_consts::coordinateunitss</text>
</a>
</g>
</g>
<!-- Node127&#45;&gt;Node128 -->
<g id="edge7" class="edge"><title>Node127&#45;&gt;Node128</title>
<path fill="none" stroke="midnightblue" d="M982.783,-605C969.138,-605 954.993,-605 941.699,-605"/>
<polygon fill="midnightblue" stroke="midnightblue" points="983.098,-608.5 993.098,-605 983.098,-601.5 983.098,-608.5"/>
</g>
<!-- Node129 -->
<g id="node9" class="node"><title>Node129</title>
<g id="a_node9"><a xlink:href="namespaceregrid__consts.html#ab231ec7fa57aa5630c057ecbf9fbb95d" target="_top" xlink:title="Returns true if the coordinate is dependent on the state density, returns false otherwise.">
<polygon fill="white" stroke="black" points="835,-546 835,-576 921,-576 921,-546 835,-546"/>
<text text-anchor="start" x="843" y="-564" font-family="Helvetica,sans-Serif" font-size="10.00">regrid_consts::state</text>
<text text-anchor="middle" x="878" y="-553" font-family="Helvetica,sans-Serif" font-size="10.00">_dependent_char</text>
</a>
</g>
</g>
<!-- Node127&#45;&gt;Node129 -->
<g id="edge8" class="edge"><title>Node127&#45;&gt;Node129</title>
<path fill="none" stroke="midnightblue" d="M1007.55,-592.956C980.46,-586.222 947.025,-577.91 921.045,-571.452"/>
<polygon fill="midnightblue" stroke="midnightblue" points="1007.04,-596.437 1017.59,-595.453 1008.73,-589.644 1007.04,-596.437"/>
</g>
<!-- Node130 -->
<g id="node10" class="node"><title>Node130</title>
<g id="a_node10"><a xlink:href="namespacemom__diag__remap.html#a0607b4ad01c1d80f181aa7450ba4f703" target="_top" xlink:title="Initialize a diagnostic remapping type with the given vertical coordinate.">
<polygon fill="white" stroke="black" points="827.5,-497 827.5,-527 928.5,-527 928.5,-497 827.5,-497"/>
<text text-anchor="start" x="835.5" y="-515" font-family="Helvetica,sans-Serif" font-size="10.00">mom_diag_remap::diag</text>
<text text-anchor="middle" x="878" y="-504" font-family="Helvetica,sans-Serif" font-size="10.00">_remap_init</text>
</a>
</g>
</g>
<!-- Node127&#45;&gt;Node130 -->
<g id="edge9" class="edge"><title>Node127&#45;&gt;Node130</title>
<path fill="none" stroke="midnightblue" d="M1033.12,-589.866C1010.52,-575.281 974.704,-553.114 942,-537 934.928,-533.515 927.242,-530.142 919.749,-527.061"/>
<polygon fill="midnightblue" stroke="midnightblue" points="1031.37,-592.905 1041.66,-595.426 1035.19,-587.038 1031.37,-592.905"/>
</g>
<!-- Node131 -->
<g id="node11" class="node"><title>Node131</title>
<g id="a_node11"><a xlink:href="namespacemom__diag__remap.html#ac557898257c62be5c83415bfb60797bd" target="_top" xlink:title="Configure the vertical axes for a diagnostic remapping control structure. Reads a configuration param...">
<polygon fill="white" stroke="black" points="826.5,-732 826.5,-762 929.5,-762 929.5,-732 826.5,-732"/>
<text text-anchor="start" x="834.5" y="-750" font-family="Helvetica,sans-Serif" font-size="10.00">mom_diag_remap::diag</text>
<text text-anchor="middle" x="878" y="-739" font-family="Helvetica,sans-Serif" font-size="10.00">_remap_configure_axes</text>
</a>
</g>
</g>
<!-- Node127&#45;&gt;Node131 -->
<g id="edge10" class="edge"><title>Node127&#45;&gt;Node131</title>
<path fill="none" stroke="midnightblue" d="M1042.73,-622.737C1023.15,-647.848 984.241,-693.835 942,-722 936.419,-725.721 930.201,-729.024 923.905,-731.912"/>
<polygon fill="midnightblue" stroke="midnightblue" points="1045.74,-624.568 1049.04,-614.502 1040.18,-620.311 1045.74,-624.568"/>
</g>
<!-- Node132 -->
<g id="node12" class="node"><title>Node132</title>
<g id="a_node12"><a xlink:href="namespacemom__diag__remap.html#a1fb71d2982777f33bcbf183187e1819b" target="_top" xlink:title="Build/update target vertical grids for diagnostic remapping.">
<polygon fill="white" stroke="black" points="827.5,-683 827.5,-713 928.5,-713 928.5,-683 827.5,-683"/>
<text text-anchor="start" x="835.5" y="-701" font-family="Helvetica,sans-Serif" font-size="10.00">mom_diag_remap::diag</text>
<text text-anchor="middle" x="878" y="-690" font-family="Helvetica,sans-Serif" font-size="10.00">_remap_update</text>
</a>
</g>
</g>
<!-- Node127&#45;&gt;Node132 -->
<g id="edge11" class="edge"><title>Node127&#45;&gt;Node132</title>
<path fill="none" stroke="midnightblue" d="M1033.12,-620.134C1010.52,-634.719 974.704,-656.886 942,-673 934.928,-676.485 927.242,-679.858 919.749,-682.939"/>
<polygon fill="midnightblue" stroke="midnightblue" points="1035.19,-622.962 1041.66,-614.574 1031.37,-617.095 1035.19,-622.962"/>
</g>
<!-- Node133 -->
<g id="node13" class="node"><title>Node133</title>
<g id="a_node13"><a xlink:href="namespacemom__diag__remap.html#a4b76283906971bcb94e85c0ed25f4e7b" target="_top" xlink:title="Remap diagnostic field to alternative vertical grid.">
<polygon fill="white" stroke="black" points="827.5,-634 827.5,-664 928.5,-664 928.5,-634 827.5,-634"/>
<text text-anchor="start" x="835.5" y="-652" font-family="Helvetica,sans-Serif" font-size="10.00">mom_diag_remap::diag</text>
<text text-anchor="middle" x="878" y="-641" font-family="Helvetica,sans-Serif" font-size="10.00">_remap_do_remap</text>
</a>
</g>
</g>
<!-- Node127&#45;&gt;Node133 -->
<g id="edge12" class="edge"><title>Node127&#45;&gt;Node133</title>
<path fill="none" stroke="midnightblue" d="M1007.79,-616.985C983.269,-623.08 953.509,-630.478 928.775,-636.626"/>
<polygon fill="midnightblue" stroke="midnightblue" points="1008.73,-620.356 1017.59,-614.547 1007.04,-613.563 1008.73,-620.356"/>
</g>
<!-- Node134&#45;&gt;Node123 -->
<g id="edge14" class="edge"><title>Node134&#45;&gt;Node123</title>
<path fill="none" stroke="midnightblue" d="M992.597,-844.803C987.554,-846.613 982.627,-848.668 978,-851 959.401,-860.374 959.539,-869.768 942,-881 936.899,-884.266 931.388,-887.401 925.82,-890.332"/>
<polygon fill="midnightblue" stroke="midnightblue" points="993.964,-848.039 1002.39,-841.617 991.799,-841.383 993.964,-848.039"/>
</g>
<!-- Node134&#45;&gt;Node124 -->
<g id="edge15" class="edge"><title>Node134&#45;&gt;Node124</title>
<path fill="none" stroke="midnightblue" d="M981.377,-840.01C961.505,-842.144 940.675,-844.38 923.031,-846.274"/>
<polygon fill="midnightblue" stroke="midnightblue" points="981.778,-843.487 991.348,-838.94 981.031,-836.527 981.778,-843.487"/>
</g>
<!-- Node134&#45;&gt;Node125 -->
<g id="edge16" class="edge"><title>Node134&#45;&gt;Node125</title>
<path fill="none" stroke="midnightblue" d="M999.065,-820.42C976.077,-815.745 949.819,-810.404 927.733,-805.912"/>
<polygon fill="midnightblue" stroke="midnightblue" points="998.535,-823.884 1009.03,-822.447 999.93,-817.024 998.535,-823.884"/>
</g>
<!-- Node134&#45;&gt;Node126 -->
<g id="edge17" class="edge"><title>Node134&#45;&gt;Node126</title>
<path fill="none" stroke="midnightblue" d="M983.688,-846.685C981.7,-848.006 979.796,-849.442 978,-851 945.459,-879.232 971.474,-909.579 942,-941 937.856,-945.418 932.927,-949.254 927.679,-952.568"/>
<polygon fill="midnightblue" stroke="midnightblue" points="985.829,-849.5 992.879,-841.592 982.436,-843.378 985.829,-849.5"/>
</g>
<!-- Node136 -->
<g id="node16" class="node"><title>Node136</title>
<g id="a_node16"><a xlink:href="namespacemom__ice__shelf.html#ae315e8464ef8a20062e3bccb61886755" target="_top" xlink:title=" ">
<polygon fill="white" stroke="black" points="827.5,-448 827.5,-478 928.5,-478 928.5,-448 827.5,-448"/>
<text text-anchor="start" x="835.5" y="-466" font-family="Helvetica,sans-Serif" font-size="10.00">mom_ice_shelf::initialize</text>
<text text-anchor="middle" x="878" y="-455" font-family="Helvetica,sans-Serif" font-size="10.00">_ice_shelf</text>
</a>
</g>
</g>
<!-- Node135&#45;&gt;Node136 -->
<g id="edge19" class="edge"><title>Node135&#45;&gt;Node136</title>
<path fill="none" stroke="midnightblue" d="M1005.37,-459.43C981.266,-460.111 952.54,-460.923 928.572,-461.6"/>
<polygon fill="midnightblue" stroke="midnightblue" points="1005.5,-462.928 1015.39,-459.147 1005.3,-455.931 1005.5,-462.928"/>
</g>
<!-- Node137 -->
<g id="node17" class="node"><title>Node137</title>
<g id="a_node17"><a xlink:href="MOM__driver_8F90.html#a08fffeb2d8e8acbf9ed4609be6d258c6" target="_top" xlink:title=" ">
<polygon fill="white" stroke="black" points="0,-466.5 0,-485.5 56,-485.5 56,-466.5 0,-466.5"/>
<text text-anchor="middle" x="28" y="-473.5" font-family="Helvetica,sans-Serif" font-size="10.00">mom_main</text>
</a>
</g>
</g>
<!-- Node136&#45;&gt;Node137 -->
<g id="edge20" class="edge"><title>Node136&#45;&gt;Node137</title>
<path fill="none" stroke="midnightblue" d="M828.71,-481.902C823.729,-483.93 818.754,-485.987 814,-488 706.248,-533.625 690.014,-594 573,-594 573,-594 573,-594 272,-594 187.242,-594 165.25,-573.643 92,-531 70.4178,-518.436 49.3975,-497.927 37.9266,-485.821"/>
<polygon fill="midnightblue" stroke="midnightblue" points="830.273,-485.046 838.238,-478.06 827.655,-478.554 830.273,-485.046"/>
</g>
<!-- Node138 -->
<g id="node18" class="node"><title>Node138</title>
<g id="a_node18"><a xlink:href="ice__shelf__driver_8F90.html#aec5bef92f0dad343f545cd8d62e378d8" target="_top" xlink:title=" ">
<polygon fill="white" stroke="black" points="695.5,-458.5 695.5,-477.5 750.5,-477.5 750.5,-458.5 695.5,-458.5"/>
<text text-anchor="middle" x="723" y="-465.5" font-family="Helvetica,sans-Serif" font-size="10.00">shelf_main</text>
</a>
</g>
</g>
<!-- Node136&#45;&gt;Node138 -->
<g id="edge21" class="edge"><title>Node136&#45;&gt;Node138</title>
<path fill="none" stroke="midnightblue" d="M817.274,-464.952C794.254,-465.704 769.103,-466.526 750.724,-467.127"/>
<polygon fill="midnightblue" stroke="midnightblue" points="817.445,-468.448 827.325,-464.623 817.216,-461.452 817.445,-468.448"/>
</g>
<!-- Node140 -->
<g id="node20" class="node"><title>Node140</title>
<g id="a_node20"><a xlink:href="namespacemom__regridding.html#a86255799ed0417334397e0f6be8ba9fb" target="_top" xlink:title="Can be used to set any of the parameters for MOM_regridding.">
<polygon fill="white" stroke="black" points="833,-267 833,-297 923,-297 923,-267 833,-267"/>
<text text-anchor="start" x="841" y="-285" font-family="Helvetica,sans-Serif" font-size="10.00">mom_regridding::set</text>
<text text-anchor="middle" x="878" y="-274" font-family="Helvetica,sans-Serif" font-size="10.00">_regrid_params</text>
</a>
</g>
</g>
<!-- Node139&#45;&gt;Node140 -->
<g id="edge23" class="edge"><title>Node139&#45;&gt;Node140</title>
<path fill="none" stroke="midnightblue" d="M984.979,-285.593C964.126,-284.886 941.924,-284.133 923.258,-283.5"/>
<polygon fill="midnightblue" stroke="midnightblue" points="984.974,-289.094 995.087,-285.935 985.211,-282.098 984.974,-289.094"/>
</g>
<!-- Node141 -->
<g id="node21" class="node"><title>Node141</title>
<g id="a_node21"><a xlink:href="namespacemom__regridding.html#af375f9f79f880b10aa85cd11de23519b" target="_top" xlink:title="Initialization and configures a regridding control structure based on customizable run&#45;time parameter...">
<polygon fill="white" stroke="black" points="669.5,-262 669.5,-292 776.5,-292 776.5,-262 669.5,-262"/>
<text text-anchor="start" x="677.5" y="-280" font-family="Helvetica,sans-Serif" font-size="10.00">mom_regridding::initialize</text>
<text text-anchor="middle" x="723" y="-269" font-family="Helvetica,sans-Serif" font-size="10.00">_regridding</text>
</a>
</g>
</g>
<!-- Node140&#45;&gt;Node141 -->
<g id="edge24" class="edge"><title>Node140&#45;&gt;Node141</title>
<path fill="none" stroke="midnightblue" d="M822.606,-280.222C807.628,-279.733 791.413,-279.203 776.542,-278.717"/>
<polygon fill="midnightblue" stroke="midnightblue" points="822.637,-283.725 832.746,-280.554 822.866,-276.729 822.637,-283.725"/>
</g>
<!-- Node144 -->
<g id="node24" class="node"><title>Node144</title>
<g id="a_node24"><a xlink:href="namespacemom__diabatic__driver.html#afa0b30bd6f0e080bcacbd6dcb15ff990" target="_top" xlink:title="This routine initializes the diabatic driver module.">
<polygon fill="white" stroke="black" points="832.5,-180 832.5,-210 923.5,-210 923.5,-180 832.5,-180"/>
<text text-anchor="start" x="840.5" y="-198" font-family="Helvetica,sans-Serif" font-size="10.00">mom_diabatic_driver</text>
<text text-anchor="middle" x="878" y="-187" font-family="Helvetica,sans-Serif" font-size="10.00">::diabatic_driver_init</text>
</a>
</g>
</g>
<!-- Node143&#45;&gt;Node144 -->
<g id="edge27" class="edge"><title>Node143&#45;&gt;Node144</title>
<path fill="none" stroke="midnightblue" d="M993.347,-195C970.334,-195 944.765,-195 923.651,-195"/>
<polygon fill="midnightblue" stroke="midnightblue" points="993.373,-198.5 1003.37,-195 993.373,-191.5 993.373,-198.5"/>
</g>
<!-- Node145&#45;&gt;Node146 -->
<g id="edge29" class="edge"><title>Node145&#45;&gt;Node146</title>
<path fill="none" stroke="midnightblue" d="M992.702,-118.722C972.845,-120.517 951.142,-122.479 932.068,-124.203"/>
<polygon fill="midnightblue" stroke="midnightblue" points="993.25,-122.187 1002.89,-117.801 992.62,-115.215 993.25,-122.187"/>
</g>
<!-- Node149 -->
<g id="node29" class="node"><title>Node149</title>
<g id="a_node29"><a xlink:href="namespacemom__remapping.html#a9e811f89c505a4416ea0eec315769801" target="_top" xlink:title="Set parameters within remapping object.">
<polygon fill="white" stroke="black" points="818,-399 818,-429 938,-429 938,-399 818,-399"/>
<text text-anchor="start" x="826" y="-417" font-family="Helvetica,sans-Serif" font-size="10.00">mom_remapping::remapping</text>
<text text-anchor="middle" x="878" y="-406" font-family="Helvetica,sans-Serif" font-size="10.00">_set_param</text>
</a>
</g>
</g>
<!-- Node148&#45;&gt;Node149 -->
<g id="edge33" class="edge"><title>Node148&#45;&gt;Node149</title>
<path fill="none" stroke="midnightblue" d="M967.808,-412.495C957.745,-412.665 947.676,-412.836 938.123,-412.998"/>
<polygon fill="midnightblue" stroke="midnightblue" points="967.911,-415.994 977.85,-412.325 967.792,-408.995 967.911,-415.994"/>
</g>
<!-- Node150 -->
<g id="node30" class="node"><title>Node150</title>
<g id="a_node30"><a xlink:href="namespacemom__remapping.html#a6847e0c44ccb54fb72587677f90d95b6" target="_top" xlink:title="Constructor for remapping control structure.">
<polygon fill="white" stroke="black" points="668.5,-409 668.5,-439 777.5,-439 777.5,-409 668.5,-409"/>
<text text-anchor="start" x="676.5" y="-427" font-family="Helvetica,sans-Serif" font-size="10.00">mom_remapping::initialize</text>
<text text-anchor="middle" x="723" y="-416" font-family="Helvetica,sans-Serif" font-size="10.00">_remapping</text>
</a>
</g>
</g>
<!-- Node149&#45;&gt;Node150 -->
<g id="edge34" class="edge"><title>Node149&#45;&gt;Node150</title>
<path fill="none" stroke="midnightblue" d="M807.585,-418.537C797.656,-419.186 787.566,-419.845 777.993,-420.471"/>
<polygon fill="midnightblue" stroke="midnightblue" points="808.096,-422.011 817.846,-417.866 807.639,-415.026 808.096,-422.011"/>
</g>
<!-- Node151 -->
<g id="node31" class="node"><title>Node151</title>
<g id="a_node31"><a xlink:href="namespacemom__ale__sponge.html#a135d5ca4d0dff789bc6db5ac789b4142" target="_top" xlink:title="This subroutine determines the number of points which are within.">
<polygon fill="white" stroke="black" points="516,-474 516,-504 628,-504 628,-474 516,-474"/>
<text text-anchor="start" x="524" y="-492" font-family="Helvetica,sans-Serif" font-size="10.00">mom_ale_sponge::initialize</text>
<text text-anchor="middle" x="572" y="-481" font-family="Helvetica,sans-Serif" font-size="10.00">_ale_sponge</text>
</a>
</g>
</g>
<!-- Node150&#45;&gt;Node151 -->
<g id="edge35" class="edge"><title>Node150&#45;&gt;Node151</title>
<path fill="none" stroke="midnightblue" d="M678.11,-443.146C655.622,-452.957 628.629,-464.732 607.628,-473.894"/>
<polygon fill="midnightblue" stroke="midnightblue" points="679.676,-446.282 687.442,-439.076 676.877,-439.866 679.676,-446.282"/>
</g>
<!-- Node155 -->
<g id="node35" class="node"><title>Node155</title>
<g id="a_node35"><a xlink:href="namespacemom__remapping.html#a8a79c37c89f8b800f79198aceca5f090" target="_top" xlink:title="Runs unit tests on remapping functions. Should only be called from a single/root thread Returns True ...">
<polygon fill="white" stroke="black" points="512,-531 512,-561 632,-561 632,-531 512,-531"/>
<text text-anchor="start" x="520" y="-549" font-family="Helvetica,sans-Serif" font-size="10.00">mom_remapping::remapping</text>
<text text-anchor="middle" x="572" y="-538" font-family="Helvetica,sans-Serif" font-size="10.00">_unit_tests</text>
</a>
</g>
</g>
<!-- Node150&#45;&gt;Node155 -->
<g id="edge40" class="edge"><title>Node150&#45;&gt;Node155</title>
<path fill="none" stroke="midnightblue" d="M673.296,-444.623C671.44,-446.004 669.664,-447.462 668,-449 644.032,-471.15 655.105,-489.951 632,-513 624.937,-520.046 616.06,-526.05 607.352,-530.929"/>
<polygon fill="midnightblue" stroke="midnightblue" points="675.374,-447.447 681.847,-439.06 671.556,-441.579 675.374,-447.447"/>
</g>
<!-- Node157 -->
<g id="node37" class="node"><title>Node157</title>
<g id="a_node37"><a xlink:href="namespacemom__wave__speed.html#a46e21529ec8098b0b19053afa133b971" target="_top" xlink:title="Initialize control structure for MOM_wave_speed.">
<polygon fill="white" stroke="black" points="518.5,-409 518.5,-439 625.5,-439 625.5,-409 518.5,-409"/>
<text text-anchor="start" x="526.5" y="-427" font-family="Helvetica,sans-Serif" font-size="10.00">mom_wave_speed::wave</text>
<text text-anchor="middle" x="572" y="-416" font-family="Helvetica,sans-Serif" font-size="10.00">_speed_init</text>
</a>
</g>
</g>
<!-- Node150&#45;&gt;Node157 -->
<g id="edge43" class="edge"><title>Node150&#45;&gt;Node157</title>
<path fill="none" stroke="midnightblue" d="M658.002,-424C647.23,-424 636.16,-424 625.715,-424"/>
<polygon fill="midnightblue" stroke="midnightblue" points="658.208,-427.5 668.208,-424 658.208,-420.5 658.208,-427.5"/>
</g>
<!-- Node152 -->
<g id="node32" class="node"><title>Node152</title>
<g id="a_node32"><a xlink:href="namespacedome2d__initialization.html#ab0df2b602fe1c83baa66ba03cc2c6dd4" target="_top" xlink:title="Set up sponges in 2d DOME configuration.">
<polygon fill="white" stroke="black" points="360,-497 360,-527 476,-527 476,-497 360,-497"/>
<text text-anchor="start" x="368" y="-515" font-family="Helvetica,sans-Serif" font-size="10.00">dome2d_initialization</text>
<text text-anchor="middle" x="418" y="-504" font-family="Helvetica,sans-Serif" font-size="10.00">::dome2d_initialize_sponges</text>
</a>
</g>
</g>
<!-- Node151&#45;&gt;Node152 -->
<g id="edge36" class="edge"><title>Node151&#45;&gt;Node152</title>
<path fill="none" stroke="midnightblue" d="M505.572,-498.9C495.748,-500.387 485.683,-501.91 476.052,-503.367"/>
<polygon fill="midnightblue" stroke="midnightblue" points="506.331,-502.325 515.695,-497.369 505.283,-495.404 506.331,-502.325"/>
</g>
<!-- Node153 -->
<g id="node33" class="node"><title>Node153</title>
<g id="a_node33"><a xlink:href="namespacemom__state__initialization.html#af4e854627c6572332ba3fd895f169321" target="_top" xlink:title=" ">
<polygon fill="white" stroke="black" points="222.5,-497 222.5,-527 323.5,-527 323.5,-497 222.5,-497"/>
<text text-anchor="start" x="230.5" y="-515" font-family="Helvetica,sans-Serif" font-size="10.00">mom_state_initialization</text>
<text text-anchor="middle" x="273" y="-504" font-family="Helvetica,sans-Serif" font-size="10.00">::mom_initialize_state</text>
</a>
</g>
</g>
<!-- Node152&#45;&gt;Node153 -->
<g id="edge37" class="edge"><title>Node152&#45;&gt;Node153</title>
<path fill="none" stroke="midnightblue" d="M349.465,-512C340.721,-512 331.899,-512 323.522,-512"/>
<polygon fill="midnightblue" stroke="midnightblue" points="349.66,-515.5 359.66,-512 349.66,-508.5 349.66,-515.5"/>
</g>
<!-- Node154 -->
<g id="node34" class="node"><title>Node154</title>
<g id="a_node34"><a xlink:href="namespacemom.html#a0be2869fef30e1e0604facfe1b41555d" target="_top" xlink:title="This subroutine initializes MOM.">
<polygon fill="white" stroke="black" points="94.5,-502.5 94.5,-521.5 183.5,-521.5 183.5,-502.5 94.5,-502.5"/>
<text text-anchor="middle" x="139" y="-509.5" font-family="Helvetica,sans-Serif" font-size="10.00">mom::initialize_mom</text>
</a>
</g>
</g>
<!-- Node153&#45;&gt;Node154 -->
<g id="edge38" class="edge"><title>Node153&#45;&gt;Node154</title>
<path fill="none" stroke="midnightblue" d="M212.183,-512C202.601,-512 192.844,-512 183.729,-512"/>
<polygon fill="midnightblue" stroke="midnightblue" points="212.473,-515.5 222.473,-512 212.472,-508.5 212.473,-515.5"/>
</g>
<!-- Node154&#45;&gt;Node137 -->
<g id="edge39" class="edge"><title>Node154&#45;&gt;Node137</title>
<path fill="none" stroke="midnightblue" d="M99.4855,-499.28C85.1814,-494.555 69.2655,-489.299 56.1825,-484.978"/>
<polygon fill="midnightblue" stroke="midnightblue" points="98.483,-502.634 109.076,-502.447 100.678,-495.988 98.483,-502.634"/>
</g>
<!-- Node156 -->
<g id="node36" class="node"><title>Node156</title>
<g id="a_node36"><a xlink:href="namespacemom.html#ae77cfd2e790f1266b31d93c58659d46c" target="_top" xlink:title="Calls unit tests for other modules. These are NOT normally invoked and so we provide the module use s...">
<polygon fill="white" stroke="black" points="236.5,-546.5 236.5,-565.5 309.5,-565.5 309.5,-546.5 236.5,-546.5"/>
<text text-anchor="middle" x="273" y="-553.5" font-family="Helvetica,sans-Serif" font-size="10.00">mom::unit_tests</text>
</a>
</g>
</g>
<!-- Node155&#45;&gt;Node156 -->
<g id="edge41" class="edge"><title>Node155&#45;&gt;Node156</title>
<path fill="none" stroke="midnightblue" d="M501.789,-548.33C441.651,-550.355 356.967,-553.206 309.618,-554.801"/>
<polygon fill="midnightblue" stroke="midnightblue" points="502.091,-551.822 511.967,-547.988 501.855,-544.826 502.091,-551.822"/>
</g>
<!-- Node156&#45;&gt;Node154 -->
<g id="edge42" class="edge"><title>Node156&#45;&gt;Node154</title>
<path fill="none" stroke="midnightblue" d="M233.851,-543.284C213.033,-536.344 187.688,-527.896 168.586,-521.529"/>
<polygon fill="midnightblue" stroke="midnightblue" points="232.764,-546.611 243.358,-546.453 234.978,-539.97 232.764,-546.611"/>
</g>
<!-- Node158 -->
<g id="node38" class="node"><title>Node158</title>
<g id="a_node38"><a xlink:href="namespacemom__diagnostics.html#ab2108574e351f6deb812da3faf437278" target="_top" xlink:title=" ">
<polygon fill="white" stroke="black" points="367.5,-399 367.5,-429 468.5,-429 468.5,-399 367.5,-399"/>
<text text-anchor="start" x="375.5" y="-417" font-family="Helvetica,sans-Serif" font-size="10.00">mom_diagnostics::mom</text>
<text text-anchor="middle" x="418" y="-406" font-family="Helvetica,sans-Serif" font-size="10.00">_diagnostics_init</text>
</a>
</g>
</g>
<!-- Node157&#45;&gt;Node158 -->
<g id="edge44" class="edge"><title>Node157&#45;&gt;Node158</title>
<path fill="none" stroke="midnightblue" d="M508.278,-419.874C495.041,-419.003 481.249,-418.095 468.577,-417.262"/>
<polygon fill="midnightblue" stroke="midnightblue" points="508.056,-423.366 518.264,-420.531 508.516,-416.382 508.056,-423.366"/>
</g>
<!-- Node159 -->
<g id="node39" class="node"><title>Node159</title>
<g id="a_node39"><a xlink:href="namespacemom__lateral__mixing__coeffs.html#aeb658054e8d4d723dff397f8ae186e4a" target="_top" xlink:title="Initializes the variables mixing coefficients container.">
<polygon fill="white" stroke="black" points="374,-448 374,-478 462,-478 462,-448 374,-448"/>
<text text-anchor="start" x="382" y="-466" font-family="Helvetica,sans-Serif" font-size="10.00">mom_lateral_mixing</text>
<text text-anchor="middle" x="418" y="-455" font-family="Helvetica,sans-Serif" font-size="10.00">_coeffs::varmix_init</text>
</a>
</g>
</g>
<!-- Node157&#45;&gt;Node159 -->
<g id="edge45" class="edge"><title>Node157&#45;&gt;Node159</title>
<path fill="none" stroke="midnightblue" d="M508.207,-440.111C492.694,-444.092 476.423,-448.266 462.089,-451.944"/>
<polygon fill="midnightblue" stroke="midnightblue" points="509.448,-443.406 518.264,-437.531 507.708,-436.626 509.448,-443.406"/>
</g>
<!-- Node160&#45;&gt;Node137 -->
<g id="edge47" class="edge"><title>Node160&#45;&gt;Node137</title>
<path fill="none" stroke="midnightblue" d="M106.404,-425.581C85.7464,-439.037 59.7221,-455.988 43.7286,-466.406"/>
<polygon fill="midnightblue" stroke="midnightblue" points="108.415,-428.448 114.884,-420.057 104.594,-422.583 108.415,-428.448"/>
</g>
<!-- Node163 -->
<g id="node43" class="node"><title>Node163</title>
<g id="a_node43"><a xlink:href="namespacemom__surface__forcing.html#ad4eeb543c0b616e42ddb7c0a37f03bf0" target="_top" xlink:title=" ">
<polygon fill="white" stroke="black" points="226,-311 226,-341 320,-341 320,-311 226,-311"/>
<text text-anchor="start" x="234" y="-329" font-family="Helvetica,sans-Serif" font-size="10.00">mom_surface_forcing</text>
<text text-anchor="middle" x="273" y="-318" font-family="Helvetica,sans-Serif" font-size="10.00">::set_forcing</text>
</a>
</g>
</g>
<!-- Node162&#45;&gt;Node163 -->
<g id="edge50" class="edge"><title>Node162&#45;&gt;Node163</title>
<path fill="none" stroke="midnightblue" d="M662.245,-326C571.75,-326 401.856,-326 320.17,-326"/>
<polygon fill="midnightblue" stroke="midnightblue" points="662.344,-329.5 672.344,-326 662.344,-322.5 662.344,-329.5"/>
</g>
<!-- Node163&#45;&gt;Node137 -->
<g id="edge51" class="edge"><title>Node163&#45;&gt;Node137</title>
<path fill="none" stroke="midnightblue" d="M216.036,-332.597C178.02,-339.375 128.254,-352.965 92,-380 60.8372,-403.238 40.5954,-446.775 32.7183,-466.204"/>
<polygon fill="midnightblue" stroke="midnightblue" points="216.645,-336.043 225.928,-330.938 215.487,-329.14 216.645,-336.043"/>
</g>
</g>
</svg>
        <g id="navigator" transform="translate(0 0)" fill="#404254">
                <rect fill="#f2f5e9" fill-opacity="0.5" stroke="#606060" stroke-width=".5" x="0" y="0" width="60" height="60"/>
                <use id="zoomplus" xlink:href="#zoomPlus" x="17" y="9" onmousedown="handleZoom(evt,'in')"/>
                <use id="zoomminus" xlink:href="#zoomMin" x="42" y="9" onmousedown="handleZoom(evt,'out')"/>
                <use id="reset" xlink:href="#resetDef" x="30" y="36" onmousedown="handleReset()"/>
                <g id="arrowUp" xlink:href="#dirArrow" transform="translate(30 24)" onmousedown="handlePan(0,-1)">
                  <use xlink:href="#rim" fill="#404040">
                        <set attributeName="fill" to="#808080" begin="arrowUp.mouseover" end="arrowUp.mouseout"/>
                  </use>
                  <path fill="none" stroke="white" stroke-width="1.5" d="M0,-3.0v7 M-2.5,-0.5L0,-3.0L2.5,-0.5"/>
                </g>
                <g id="arrowRight" xlink:href="#dirArrow" transform="rotate(90) translate(36 -43)" onmousedown="handlePan(1,0)">
                  <use xlink:href="#rim" fill="#404040">
                        <set attributeName="fill" to="#808080" begin="arrowRight.mouseover" end="arrowRight.mouseout"/>
                  </use>
                  <path fill="none" stroke="white" stroke-width="1.5" d="M0,-3.0v7 M-2.5,-0.5L0,-3.0L2.5,-0.5"/>
                </g>
                <g id="arrowDown" xlink:href="#dirArrow" transform="rotate(180) translate(-30 -48)" onmousedown="handlePan(0,1)">
                  <use xlink:href="#rim" fill="#404040">
                        <set attributeName="fill" to="#808080" begin="arrowDown.mouseover" end="arrowDown.mouseout"/>
                  </use>
                  <path fill="none" stroke="white" stroke-width="1.5" d="M0,-3.0v7 M-2.5,-0.5L0,-3.0L2.5,-0.5"/>
                </g>
                <g id="arrowLeft" xlink:href="#dirArrow" transform="rotate(270) translate(-36 17)" onmousedown="handlePan(-1,0)">
                  <use xlink:href="#rim" fill="#404040">
                        <set attributeName="fill" to="#808080" begin="arrowLeft.mouseover" end="arrowLeft.mouseout"/>
                  </use>
                  <path fill="none" stroke="white" stroke-width="1.5" d="M0,-3.0v7 M-2.5,-0.5L0,-3.0L2.5,-0.5"/>
                </g>
        </g>
        <svg viewBox="0 0 15 15" width="100%" height="30px" preserveAspectRatio="xMaxYMin meet">
         <g id="arrow_out" transform="scale(0.3 0.3)">
          <a xlink:href="namespacemom__string__functions_aca148baf726de2f028b7e7baad3c85d4_icgraph_org.svg" target="_base">
           <rect id="button" ry="5" rx="5" y="6" x="6" height="38" width="38"
                fill="#f2f5e9" fill-opacity="0.5" stroke="#606060" stroke-width="1.0"/>
           <path id="arrow"
             d="M 11.500037,31.436501 C 11.940474,20.09759 22.043105,11.32322 32.158766,21.979434 L 37.068811,17.246167 C 37.068811,17.246167 37.088388,32 37.088388,32 L 22.160133,31.978069 C 22.160133,31.978069 26.997745,27.140456 26.997745,27.140456 C 18.528582,18.264221 13.291696,25.230495 11.500037,31.436501 z"
             style="fill:#404040;"/>
          </a>
         </g>
        </svg>
</svg>
