<?xml version="1.0" encoding="UTF-8" standalone="no"?>
<!DOCTYPE svg PUBLIC "-//W3C//DTD SVG 1.1//EN"
 "http://www.w3.org/Graphics/SVG/1.1/DTD/svg11.dtd">
<!-- Generated by graphviz version 2.30.1 (20170916.1124)
 -->
<!-- Title: mom_document::real_string Pages: 1 -->
<svg width="430pt" height="115pt"
 viewBox="0.00 0.00 430.00 115.00" xmlns="http://www.w3.org/2000/svg" xmlns:xlink="http://www.w3.org/1999/xlink">
<g id="graph0" class="graph" transform="scale(1 1) rotate(0) translate(4 111)">
<title>mom_document::real_string</title>
<polygon fill="white" stroke="white" points="-4,5 -4,-111 427,-111 427,5 -4,5"/>
<!-- Node201 -->
<g id="node1" class="node"><title>Node201</title>
<g id="a_node1"><a xlink:title=" ">
<polygon fill="#bfbfbf" stroke="black" points="330,-44 330,-74 422,-74 422,-44 330,-44"/>
<text text-anchor="start" x="338" y="-62" font-family="Helvetica,sans-Serif" font-size="10.00">mom_document::real</text>
<text text-anchor="middle" x="376" y="-51" font-family="Helvetica,sans-Serif" font-size="10.00">_string</text>
</a>
</g>
</g>
<!-- Node202 -->
<g id="node2" class="node"><title>Node202</title>
<g id="a_node2"><a xlink:href="namespacemom__document.html#aae79ba23b83e7e2be3dcc46f50ee0f69" target="_top" xlink:title=" ">
<polygon fill="white" stroke="black" points="156.5,-87.5 156.5,-106.5 293.5,-106.5 293.5,-87.5 156.5,-87.5"/>
<text text-anchor="middle" x="225" y="-94.5" font-family="Helvetica,sans-Serif" font-size="10.00">mom_document::doc_param_real</text>
</a>
</g>
</g>
<!-- Node201&#45;&gt;Node202 -->
<g id="edge1" class="edge"><title>Node201&#45;&gt;Node202</title>
<path fill="none" stroke="midnightblue" d="M319.949,-73.0399C301.133,-77.8387 280.537,-83.0913 263.437,-87.4524"/>
<polygon fill="midnightblue" stroke="midnightblue" points="321.066,-76.3671 329.891,-70.5044 319.336,-69.5842 321.066,-76.3671"/>
</g>
<!-- Node203 -->
<g id="node3" class="node"><title>Node203</title>
<g id="a_node3"><a xlink:href="namespacemom__document.html#a09ce71cb5106c9abb604c07b98e62863" target="_top" xlink:title=" ">
<polygon fill="white" stroke="black" points="0.5,-22 0.5,-52 119.5,-52 119.5,-22 0.5,-22"/>
<text text-anchor="start" x="8.5" y="-40" font-family="Helvetica,sans-Serif" font-size="10.00">mom_document::doc_param</text>
<text text-anchor="middle" x="60" y="-29" font-family="Helvetica,sans-Serif" font-size="10.00">_real_array</text>
</a>
</g>
</g>
<!-- Node201&#45;&gt;Node203 -->
<g id="edge2" class="edge"><title>Node201&#45;&gt;Node203</title>
<path fill="none" stroke="midnightblue" d="M319.563,-55.1159C263.433,-51.1832 176.961,-45.1246 119.691,-41.1121"/>
<polygon fill="midnightblue" stroke="midnightblue" points="319.457,-58.6169 329.677,-55.8245 319.946,-51.6341 319.457,-58.6169"/>
</g>
<!-- Node204 -->
<g id="node4" class="node"><title>Node204</title>
<g id="a_node4"><a xlink:href="namespacemom__document.html#a436486f7289eafc7b4e8ba65812f3459" target="_top" xlink:title=" ">
<polygon fill="white" stroke="black" points="179,-0 179,-30 271,-30 271,-0 179,-0"/>
<text text-anchor="start" x="187" y="-18" font-family="Helvetica,sans-Serif" font-size="10.00">mom_document::real</text>
<text text-anchor="middle" x="225" y="-7" font-family="Helvetica,sans-Serif" font-size="10.00">_array_string</text>
</a>
</g>
</g>
<!-- Node201&#45;&gt;Node204 -->
<g id="edge3" class="edge"><title>Node201&#45;&gt;Node204</title>
<path fill="none" stroke="midnightblue" d="M320.079,-42.7817C304.001,-38.0339 286.614,-32.8994 271.213,-28.3515"/>
<polygon fill="midnightblue" stroke="midnightblue" points="319.309,-46.2037 329.891,-45.6791 321.291,-39.4903 319.309,-46.2037"/>
</g>
<!-- Node204&#45;&gt;Node203 -->
<g id="edge4" class="edge"><title>Node204&#45;&gt;Node203</title>
<path fill="none" stroke="midnightblue" d="M168.479,-22.4937C152.724,-24.6201 135.522,-26.9418 119.591,-29.092"/>
<polygon fill="midnightblue" stroke="midnightblue" points="169.153,-25.9344 178.595,-21.1282 168.217,-18.9973 169.153,-25.9344"/>
</g>
</g>
</svg>
