<?xml version="1.0" encoding="UTF-8" standalone="no"?>
<!DOCTYPE svg PUBLIC "-//W3C//DTD SVG 1.1//EN"
 "http://www.w3.org/Graphics/SVG/1.1/DTD/svg11.dtd">
<!-- Generated by graphviz version 2.30.1 (20170916.1124)
 -->
<!-- Title: mom_legacy_barotropic::set_up_bt_obc Pages: 1 -->
<svg width="378pt" height="136pt"
 viewBox="0.00 0.00 378.00 136.00" xmlns="http://www.w3.org/2000/svg" xmlns:xlink="http://www.w3.org/1999/xlink">
<g id="graph0" class="graph" transform="scale(1 1) rotate(0) translate(4 132)">
<title>mom_legacy_barotropic::set_up_bt_obc</title>
<polygon fill="white" stroke="white" points="-4,5 -4,-132 375,-132 375,5 -4,5"/>
<!-- Node92 -->
<g id="node1" class="node"><title>Node92</title>
<g id="a_node1"><a xlink:title=" ">
<polygon fill="#bfbfbf" stroke="black" points="0,-49 0,-79 102,-79 102,-49 0,-49"/>
<text text-anchor="start" x="8" y="-67" font-family="Helvetica,sans-Serif" font-size="10.00">mom_legacy_barotropic</text>
<text text-anchor="middle" x="51" y="-56" font-family="Helvetica,sans-Serif" font-size="10.00">::set_up_bt_obc</text>
</a>
</g>
</g>
<!-- Node93 -->
<g id="node2" class="node"><title>Node93</title>
<g id="a_node2"><a xlink:href="namespacemom__error__handler.html#a460cfb79a06c29fc249952c2a3710d67" target="_top" xlink:title=" ">
<polygon fill="white" stroke="black" points="142.5,-98 142.5,-128 235.5,-128 235.5,-98 142.5,-98"/>
<text text-anchor="start" x="150.5" y="-116" font-family="Helvetica,sans-Serif" font-size="10.00">mom_error_handler::</text>
<text text-anchor="middle" x="189" y="-105" font-family="Helvetica,sans-Serif" font-size="10.00">mom_error</text>
</a>
</g>
</g>
<!-- Node92&#45;&gt;Node93 -->
<g id="edge1" class="edge"><title>Node92&#45;&gt;Node93</title>
<path fill="none" stroke="midnightblue" d="M93.9142,-79.1014C107.358,-83.9451 122.405,-89.3664 136.455,-94.4285"/>
<polygon fill="midnightblue" stroke="midnightblue" points="135.396,-97.7672 145.99,-97.8641 137.768,-91.1816 135.396,-97.7672"/>
</g>
<!-- Node95 -->
<g id="node4" class="node"><title>Node95</title>
<g id="a_node4"><a xlink:href="namespacemom__legacy__barotropic.html#ad9add945a282d75804293003405f794d" target="_top" xlink:title=" ">
<polygon fill="white" stroke="black" points="138,-49 138,-79 240,-79 240,-49 138,-49"/>
<text text-anchor="start" x="146" y="-67" font-family="Helvetica,sans-Serif" font-size="10.00">mom_legacy_barotropic</text>
<text text-anchor="middle" x="189" y="-56" font-family="Helvetica,sans-Serif" font-size="10.00">::uhbt_to_ubt</text>
</a>
</g>
</g>
<!-- Node92&#45;&gt;Node95 -->
<g id="edge3" class="edge"><title>Node92&#45;&gt;Node95</title>
<path fill="none" stroke="midnightblue" d="M102.255,-64C110.539,-64 119.201,-64 127.701,-64"/>
<polygon fill="midnightblue" stroke="midnightblue" points="127.952,-67.5001 137.952,-64 127.952,-60.5001 127.952,-67.5001"/>
</g>
<!-- Node96 -->
<g id="node5" class="node"><title>Node96</title>
<g id="a_node5"><a xlink:href="namespacemom__legacy__barotropic.html#aa500b44df0ce8db775bed7840dfb436c" target="_top" xlink:title=" ">
<polygon fill="white" stroke="black" points="138,-0 138,-30 240,-30 240,-0 138,-0"/>
<text text-anchor="start" x="146" y="-18" font-family="Helvetica,sans-Serif" font-size="10.00">mom_legacy_barotropic</text>
<text text-anchor="middle" x="189" y="-7" font-family="Helvetica,sans-Serif" font-size="10.00">::vhbt_to_vbt</text>
</a>
</g>
</g>
<!-- Node92&#45;&gt;Node96 -->
<g id="edge4" class="edge"><title>Node92&#45;&gt;Node96</title>
<path fill="none" stroke="midnightblue" d="M93.9142,-48.8986C107.358,-44.0549 122.405,-38.6336 136.455,-33.5715"/>
<polygon fill="midnightblue" stroke="midnightblue" points="137.768,-36.8184 145.99,-30.1359 135.396,-30.2328 137.768,-36.8184"/>
</g>
<!-- Node94 -->
<g id="node3" class="node"><title>Node94</title>
<g id="a_node3"><a xlink:href="namespacemom__error__handler.html#ad5f00a53059c72fe2332d1436c80ca71" target="_top" xlink:title=" ">
<polygon fill="white" stroke="black" points="276.5,-98 276.5,-128 369.5,-128 369.5,-98 276.5,-98"/>
<text text-anchor="start" x="284.5" y="-116" font-family="Helvetica,sans-Serif" font-size="10.00">mom_error_handler::</text>
<text text-anchor="middle" x="323" y="-105" font-family="Helvetica,sans-Serif" font-size="10.00">is_root_pe</text>
</a>
</g>
</g>
<!-- Node93&#45;&gt;Node94 -->
<g id="edge2" class="edge"><title>Node93&#45;&gt;Node94</title>
<path fill="none" stroke="midnightblue" d="M235.797,-113C245.626,-113 256.116,-113 266.274,-113"/>
<polygon fill="midnightblue" stroke="midnightblue" points="266.284,-116.5 276.284,-113 266.284,-109.5 266.284,-116.5"/>
</g>
</g>
</svg>
