<?xml version="1.0" encoding="UTF-8" standalone="no"?>
<!DOCTYPE svg PUBLIC "-//W3C//DTD SVG 1.1//EN"
 "http://www.w3.org/Graphics/SVG/1.1/DTD/svg11.dtd">
<!-- Generated by graphviz version 2.30.1 (20170916.1124)
 -->
<!-- Title: mom_eos_wright::calculate_density_scalar_wright Pages: 1 -->
<svg width="272pt" height="38pt"
 viewBox="0.00 0.00 272.00 38.00" xmlns="http://www.w3.org/2000/svg" xmlns:xlink="http://www.w3.org/1999/xlink">
<g id="graph0" class="graph" transform="scale(1 1) rotate(0) translate(4 34)">
<title>mom_eos_wright::calculate_density_scalar_wright</title>
<polygon fill="white" stroke="white" points="-4,5 -4,-34 269,-34 269,5 -4,5"/>
<!-- Node11 -->
<g id="node1" class="node"><title>Node11</title>
<g id="a_node1"><a xlink:title=" ">
<polygon fill="#bfbfbf" stroke="black" points="0.5,-0 0.5,-30 113.5,-30 113.5,-0 0.5,-0"/>
<text text-anchor="start" x="8.5" y="-18" font-family="Helvetica,sans-Serif" font-size="10.00">mom_eos_wright::calculate</text>
<text text-anchor="middle" x="57" y="-7" font-family="Helvetica,sans-Serif" font-size="10.00">_density_scalar_wright</text>
</a>
</g>
</g>
<!-- Node12 -->
<g id="node2" class="node"><title>Node12</title>
<g id="a_node2"><a xlink:href="namespacemom__eos__wright.html#a61a76e245f361e0b3583f866d00df40a" target="_top" xlink:title=" ">
<polygon fill="white" stroke="black" points="150.5,-0 150.5,-30 263.5,-30 263.5,-0 150.5,-0"/>
<text text-anchor="start" x="158.5" y="-18" font-family="Helvetica,sans-Serif" font-size="10.00">mom_eos_wright::calculate</text>
<text text-anchor="middle" x="207" y="-7" font-family="Helvetica,sans-Serif" font-size="10.00">_density_array_wright</text>
</a>
</g>
</g>
<!-- Node11&#45;&gt;Node12 -->
<g id="edge1" class="edge"><title>Node11&#45;&gt;Node12</title>
<path fill="none" stroke="midnightblue" d="M113.531,-15C122.138,-15 131.101,-15 139.913,-15"/>
<polygon fill="midnightblue" stroke="midnightblue" points="140.158,-18.5001 150.158,-15 140.158,-11.5001 140.158,-18.5001"/>
</g>
</g>
</svg>
