<?xml version="1.0" encoding="UTF-8" standalone="no"?>
<!DOCTYPE svg PUBLIC "-//W3C//DTD SVG 1.1//EN"
 "http://www.w3.org/Graphics/SVG/1.1/DTD/svg11.dtd">
<!-- Generated by graphviz version 2.30.1 (20170916.1124)
 -->
<!-- Title: mom_vert_friction::vertvisc_limit_vel Pages: 1 -->
<svg width="230pt" height="99pt"
 viewBox="0.00 0.00 230.00 99.00" xmlns="http://www.w3.org/2000/svg" xmlns:xlink="http://www.w3.org/1999/xlink">
<g id="graph0" class="graph" transform="scale(1 1) rotate(0) translate(4 95)">
<title>mom_vert_friction::vertvisc_limit_vel</title>
<polygon fill="white" stroke="white" points="-4,5 -4,-95 227,-95 227,5 -4,5"/>
<!-- Node29 -->
<g id="node1" class="node"><title>Node29</title>
<g id="a_node1"><a xlink:title="Velocity components which exceed a threshold for physically reasonable values are truncated....">
<polygon fill="#bfbfbf" stroke="black" points="136.5,-27 136.5,-57 221.5,-57 221.5,-27 136.5,-27"/>
<text text-anchor="start" x="144.5" y="-45" font-family="Helvetica,sans-Serif" font-size="10.00">mom_vert_friction::</text>
<text text-anchor="middle" x="179" y="-34" font-family="Helvetica,sans-Serif" font-size="10.00">vertvisc_limit_vel</text>
</a>
</g>
</g>
<!-- Node30 -->
<g id="node2" class="node"><title>Node30</title>
<g id="a_node2"><a xlink:href="namespacemom__dynamics__legacy__split.html#ae34fe0561f87dc05c2fad64bf6d5a1ee" target="_top" xlink:title=" ">
<polygon fill="white" stroke="black" points="0.5,-49.5 0.5,-90.5 99.5,-90.5 99.5,-49.5 0.5,-49.5"/>
<text text-anchor="start" x="8.5" y="-78.5" font-family="Helvetica,sans-Serif" font-size="10.00">mom_dynamics_legacy</text>
<text text-anchor="start" x="8.5" y="-67.5" font-family="Helvetica,sans-Serif" font-size="10.00">_split::step_mom_dyn</text>
<text text-anchor="middle" x="50" y="-56.5" font-family="Helvetica,sans-Serif" font-size="10.00">_legacy_split</text>
</a>
</g>
</g>
<!-- Node29&#45;&gt;Node30 -->
<g id="edge1" class="edge"><title>Node29&#45;&gt;Node30</title>
<path fill="none" stroke="midnightblue" d="M126.586,-53.3354C117.723,-55.2894 108.534,-57.3154 99.744,-59.2533"/>
<polygon fill="midnightblue" stroke="midnightblue" points="127.404,-56.7393 136.415,-51.1682 125.896,-49.9034 127.404,-56.7393"/>
</g>
<!-- Node31 -->
<g id="node3" class="node"><title>Node31</title>
<g id="a_node3"><a xlink:href="namespacemom__vert__friction.html#afcb3ca5d907b32d50101f90e93d0b160" target="_top" xlink:title="Perform a fully implicit vertical diffusion of momentum. Stress top and bottom boundary conditions ar...">
<polygon fill="white" stroke="black" points="7.5,-0 7.5,-30 92.5,-30 92.5,-0 7.5,-0"/>
<text text-anchor="start" x="15.5" y="-18" font-family="Helvetica,sans-Serif" font-size="10.00">mom_vert_friction::</text>
<text text-anchor="middle" x="50" y="-7" font-family="Helvetica,sans-Serif" font-size="10.00">vertvisc</text>
</a>
</g>
</g>
<!-- Node29&#45;&gt;Node31 -->
<g id="edge2" class="edge"><title>Node29&#45;&gt;Node31</title>
<path fill="none" stroke="midnightblue" d="M126.321,-31.0132C115.129,-28.6337 103.428,-26.1462 92.678,-23.8607"/>
<polygon fill="midnightblue" stroke="midnightblue" points="125.906,-34.5031 136.415,-33.1592 127.362,-27.6561 125.906,-34.5031"/>
</g>
</g>
</svg>
