<?xml version="1.0" encoding="UTF-8" standalone="no"?>
<!DOCTYPE svg PUBLIC "-//W3C//DTD SVG 1.1//EN"
 "http://www.w3.org/Graphics/SVG/1.1/DTD/svg11.dtd">
<!-- Generated by graphviz version 2.30.1 (20170916.1124)
 -->
<!-- Title: mom_internal_tides::propagate_int_tide Pages: 1 -->
<!--zoomable 732 -->
<svg id="main" version="1.1" xmlns="http://www.w3.org/2000/svg" xmlns:xlink="http://www.w3.org/1999/xlink" xml:space="preserve" onload="init(evt)">
<style type="text/css"><![CDATA[
.edge:hover path { stroke: red; }
.edge:hover polygon { stroke: red; fill: red; }
]]></style>
<script type="text/javascript"><![CDATA[
var edges = document.getElementsByTagName('g');
if (edges && edges.length) {
  for (var i=0;i<edges.length;i++) {
    if (edges[i].id.substr(0,4)=='edge') {
      edges[i].setAttribute('class','edge');
    }
  }
}
]]></script>
        <defs>
                <circle id="rim" cx="0" cy="0" r="7"/>
                <circle id="rim2" cx="0" cy="0" r="3.5"/>
                <g id="zoomPlus">
                        <use xlink:href="#rim" fill="#404040">
                                <set attributeName="fill" to="#808080" begin="zoomplus.mouseover" end="zoomplus.mouseout"/>
                        </use>
                        <path d="M-4,0h8M0,-4v8" fill="none" stroke="white" stroke-width="1.5" pointer-events="none"/>
                </g>
                <g id="zoomMin">
                        <use xlink:href="#rim" fill="#404040">
                                <set attributeName="fill" to="#808080" begin="zoomminus.mouseover" end="zoomminus.mouseout"/>
                        </use>
                        <path d="M-4,0h8" fill="none" stroke="white" stroke-width="1.5" pointer-events="none"/>
                </g>
                <g id="dirArrow">
                        <path fill="none" stroke="white" stroke-width="1.5" d="M0,-3.0v7 M-2.5,-0.5L0,-3.0L2.5,-0.5"/>
                </g>
               <g id="resetDef">
                       <use xlink:href="#rim2" fill="#404040">
                               <set attributeName="fill" to="#808080" begin="reset.mouseover" end="reset.mouseout"/>
                       </use>
               </g>
        </defs>

<script type="text/javascript">
var viewWidth = 786;
var viewHeight = 732;
var sectionId = 'dynsection-17';
</script>
<script xlink:href="svgpan.js"/>
<svg id="graph" class="graph">
<g id="viewport">
<title>mom_internal_tides::propagate_int_tide</title>
<polygon fill="white" stroke="white" points="-4,5 -4,-728 783,-728 783,5 -4,5"/>
<!-- Node77 -->
<g id="node1" class="node"><title>Node77</title>
<g id="a_node1"><a xlink:title=" ">
<polygon fill="#bfbfbf" stroke="black" points="0,-180 0,-210 88,-210 88,-180 0,-180"/>
<text text-anchor="start" x="8" y="-198" font-family="Helvetica,sans-Serif" font-size="10.00">mom_internal_tides</text>
<text text-anchor="middle" x="44" y="-187" font-family="Helvetica,sans-Serif" font-size="10.00">::propagate_int_tide</text>
</a>
</g>
</g>
<!-- Node78 -->
<g id="node2" class="node"><title>Node78</title>
<g id="a_node2"><a xlink:href="namespacemom__domains.html#ad6fe013fb609fbb74bfeb66852d26796" target="_top" xlink:title=" ">
<polygon fill="white" stroke="black" points="124,-454 124,-484 230,-484 230,-454 124,-454"/>
<text text-anchor="start" x="132" y="-472" font-family="Helvetica,sans-Serif" font-size="10.00">mom_domains::complete</text>
<text text-anchor="middle" x="177" y="-461" font-family="Helvetica,sans-Serif" font-size="10.00">_group_pass</text>
</a>
</g>
</g>
<!-- Node77&#45;&gt;Node78 -->
<g id="edge1" class="edge"><title>Node77&#45;&gt;Node78</title>
<path fill="none" stroke="midnightblue" d="M45.7474,-210.161C48.5921,-252.332 62.009,-372.594 124,-444 125.129,-445.3 126.34,-446.538 127.618,-447.717"/>
<polygon fill="midnightblue" stroke="midnightblue" points="125.498,-450.502 135.554,-453.835 129.772,-444.958 125.498,-450.502"/>
</g>
<!-- Node79 -->
<g id="node3" class="node"><title>Node79</title>
<g id="a_node3"><a xlink:href="namespacemom__internal__tides.html#a6643978290bfd9080c1218c338acd605" target="_top" xlink:title=" ">
<polygon fill="white" stroke="black" points="275.5,-136 275.5,-166 372.5,-166 372.5,-136 275.5,-136"/>
<text text-anchor="start" x="283.5" y="-154" font-family="Helvetica,sans-Serif" font-size="10.00">mom_internal_tides</text>
<text text-anchor="middle" x="324" y="-143" font-family="Helvetica,sans-Serif" font-size="10.00">::correct_halo_rotation</text>
</a>
</g>
</g>
<!-- Node77&#45;&gt;Node79 -->
<g id="edge2" class="edge"><title>Node77&#45;&gt;Node79</title>
<path fill="none" stroke="midnightblue" d="M88.0164,-187.169C99.6821,-185.103 112.316,-182.916 124,-181 171.418,-173.226 225.321,-165.146 265.055,-159.333"/>
<polygon fill="midnightblue" stroke="midnightblue" points="265.706,-162.775 275.096,-157.868 264.696,-155.849 265.706,-162.775"/>
</g>
<!-- Node82 -->
<g id="node6" class="node"><title>Node82</title>
<g id="a_node6"><a xlink:href="namespacemom__internal__tides.html#abb26441c0f9e0748f0ad66d22c1d81b0" target="_top" xlink:title=" ">
<polygon fill="white" stroke="black" points="131,-98 131,-128 223,-128 223,-98 131,-98"/>
<text text-anchor="start" x="139" y="-116" font-family="Helvetica,sans-Serif" font-size="10.00">mom_internal_tides</text>
<text text-anchor="middle" x="177" y="-105" font-family="Helvetica,sans-Serif" font-size="10.00">::itidal_lowmode_loss</text>
</a>
</g>
</g>
<!-- Node77&#45;&gt;Node82 -->
<g id="edge5" class="edge"><title>Node77&#45;&gt;Node82</title>
<path fill="none" stroke="midnightblue" d="M67.2483,-179.852C82.9537,-169.283 104.575,-154.982 124,-143 129.171,-139.81 134.684,-136.517 140.114,-133.334"/>
<polygon fill="midnightblue" stroke="midnightblue" points="142.209,-136.165 149.101,-128.117 138.695,-130.111 142.209,-136.165"/>
</g>
<!-- Node80 -->
<g id="node4" class="node"><title>Node80</title>
<g id="a_node4"><a xlink:href="namespacemom__error__handler.html#a460cfb79a06c29fc249952c2a3710d67" target="_top" xlink:title=" ">
<polygon fill="white" stroke="black" points="554.5,-336 554.5,-366 647.5,-366 647.5,-336 554.5,-336"/>
<text text-anchor="start" x="562.5" y="-354" font-family="Helvetica,sans-Serif" font-size="10.00">mom_error_handler::</text>
<text text-anchor="middle" x="601" y="-343" font-family="Helvetica,sans-Serif" font-size="10.00">mom_error</text>
</a>
</g>
</g>
<!-- Node77&#45;&gt;Node80 -->
<g id="edge6" class="edge"><title>Node77&#45;&gt;Node80</title>
<path fill="none" stroke="midnightblue" d="M88.1383,-193.138C152.805,-191.306 278.353,-191.479 382,-214 445.393,-227.774 463.898,-231.203 518,-267 543.204,-283.676 566.723,-309.218 582.052,-327.759"/>
<polygon fill="midnightblue" stroke="midnightblue" points="579.486,-330.152 588.495,-335.728 584.93,-325.751 579.486,-330.152"/>
</g>
<!-- Node83 -->
<g id="node7" class="node"><title>Node83</title>
<g id="a_node7"><a xlink:href="namespacemom__internal__tides.html#a22caa92b67ed4077ce78eac34d15b14d" target="_top" xlink:title=" ">
<polygon fill="white" stroke="black" points="134,-405 134,-435 220,-435 220,-405 134,-405"/>
<text text-anchor="start" x="142" y="-423" font-family="Helvetica,sans-Serif" font-size="10.00">mom_internal_tides</text>
<text text-anchor="middle" x="177" y="-412" font-family="Helvetica,sans-Serif" font-size="10.00">::propagate</text>
</a>
</g>
</g>
<!-- Node77&#45;&gt;Node83 -->
<g id="edge7" class="edge"><title>Node77&#45;&gt;Node83</title>
<path fill="none" stroke="midnightblue" d="M53.7987,-210.112C76.1252,-248.459 135.117,-349.782 162.134,-396.184"/>
<polygon fill="midnightblue" stroke="midnightblue" points="159.183,-398.073 167.24,-404.954 165.233,-394.55 159.183,-398.073"/>
</g>
<!-- Node94 -->
<g id="node18" class="node"><title>Node94</title>
<g id="a_node18"><a xlink:href="namespacemom__internal__tides.html#a1008324f9434f216ded4fbd182cbae28" target="_top" xlink:title=" ">
<polygon fill="white" stroke="black" points="134,-224 134,-254 220,-254 220,-224 134,-224"/>
<text text-anchor="start" x="142" y="-242" font-family="Helvetica,sans-Serif" font-size="10.00">mom_internal_tides</text>
<text text-anchor="middle" x="177" y="-231" font-family="Helvetica,sans-Serif" font-size="10.00">::refract</text>
</a>
</g>
</g>
<!-- Node77&#45;&gt;Node94 -->
<g id="edge25" class="edge"><title>Node77&#45;&gt;Node94</title>
<path fill="none" stroke="midnightblue" d="M88.2574,-209.529C99.6692,-213.362 112.103,-217.538 123.927,-221.51"/>
<polygon fill="midnightblue" stroke="midnightblue" points="123.086,-224.919 133.68,-224.786 125.315,-218.284 123.086,-224.919"/>
</g>
<!-- Node96 -->
<g id="node20" class="node"><title>Node96</title>
<g id="a_node20"><a xlink:href="namespacemom__domains.html#aee5ecb920463220ac2622e011151f8cd" target="_top" xlink:title=" ">
<polygon fill="white" stroke="black" points="132.5,-49 132.5,-79 221.5,-79 221.5,-49 132.5,-49"/>
<text text-anchor="start" x="140.5" y="-67" font-family="Helvetica,sans-Serif" font-size="10.00">mom_domains::start</text>
<text text-anchor="middle" x="177" y="-56" font-family="Helvetica,sans-Serif" font-size="10.00">_group_pass</text>
</a>
</g>
</g>
<!-- Node77&#45;&gt;Node96 -->
<g id="edge28" class="edge"><title>Node77&#45;&gt;Node96</title>
<path fill="none" stroke="midnightblue" d="M53.0253,-179.627C65.5222,-156.956 91.5968,-114.397 124,-88 125.532,-86.7519 127.14,-85.5529 128.802,-84.4029"/>
<polygon fill="midnightblue" stroke="midnightblue" points="130.793,-87.287 137.471,-79.0613 127.121,-81.3276 130.793,-87.287"/>
</g>
<!-- Node97 -->
<g id="node21" class="node"><title>Node97</title>
<g id="a_node21"><a xlink:href="namespacemom__internal__tides.html#a9e8e7b153aef9049c2217658821e3178" target="_top" xlink:title=" ">
<polygon fill="white" stroke="black" points="134,-0 134,-30 220,-30 220,-0 134,-0"/>
<text text-anchor="start" x="142" y="-18" font-family="Helvetica,sans-Serif" font-size="10.00">mom_internal_tides</text>
<text text-anchor="middle" x="177" y="-7" font-family="Helvetica,sans-Serif" font-size="10.00">::sum_en</text>
</a>
</g>
</g>
<!-- Node77&#45;&gt;Node97 -->
<g id="edge29" class="edge"><title>Node77&#45;&gt;Node97</title>
<path fill="none" stroke="midnightblue" d="M49.0603,-179.648C57.855,-149.096 81.3865,-80.0918 124,-39 125.096,-37.9432 126.247,-36.9269 127.442,-35.9501"/>
<polygon fill="midnightblue" stroke="midnightblue" points="129.672,-38.6618 135.865,-30.0654 125.663,-32.9236 129.672,-38.6618"/>
</g>
<!-- Node99 -->
<g id="node23" class="node"><title>Node99</title>
<g id="a_node23"><a xlink:href="namespacemom__wave__structure.html#a6dab6eaab930bb622d4462d5f51f8ab4" target="_top" xlink:title=" ">
<polygon fill="white" stroke="black" points="277,-312 277,-342 371,-342 371,-312 277,-312"/>
<text text-anchor="start" x="285" y="-330" font-family="Helvetica,sans-Serif" font-size="10.00">mom_wave_structure</text>
<text text-anchor="middle" x="324" y="-319" font-family="Helvetica,sans-Serif" font-size="10.00">::wave_structure</text>
</a>
</g>
</g>
<!-- Node77&#45;&gt;Node99 -->
<g id="edge31" class="edge"><title>Node77&#45;&gt;Node99</title>
<path fill="none" stroke="midnightblue" d="M59.0636,-210.257C73.8915,-225.531 98.5857,-248.753 124,-263 169.038,-288.247 225.477,-305.199 266.736,-315.278"/>
<polygon fill="midnightblue" stroke="midnightblue" points="266.079,-318.719 276.618,-317.632 267.701,-311.91 266.079,-318.719"/>
</g>
<!-- Node79&#45;&gt;Node80 -->
<g id="edge3" class="edge"><title>Node79&#45;&gt;Node80</title>
<path fill="none" stroke="midnightblue" d="M372.521,-146.684C414.725,-145.366 476.045,-149.907 518,-181 565.922,-216.515 587.153,-287.477 595.421,-325.519"/>
<polygon fill="midnightblue" stroke="midnightblue" points="592.08,-326.655 597.504,-335.756 598.94,-325.259 592.08,-326.655"/>
</g>
<!-- Node81 -->
<g id="node5" class="node"><title>Node81</title>
<g id="a_node5"><a xlink:href="namespacemom__error__handler.html#ad5f00a53059c72fe2332d1436c80ca71" target="_top" xlink:title=" ">
<polygon fill="white" stroke="black" points="684.5,-336 684.5,-366 777.5,-366 777.5,-336 684.5,-336"/>
<text text-anchor="start" x="692.5" y="-354" font-family="Helvetica,sans-Serif" font-size="10.00">mom_error_handler::</text>
<text text-anchor="middle" x="731" y="-343" font-family="Helvetica,sans-Serif" font-size="10.00">is_root_pe</text>
</a>
</g>
</g>
<!-- Node80&#45;&gt;Node81 -->
<g id="edge4" class="edge"><title>Node80&#45;&gt;Node81</title>
<path fill="none" stroke="midnightblue" d="M647.849,-351C656.408,-351 665.439,-351 674.258,-351"/>
<polygon fill="midnightblue" stroke="midnightblue" points="674.471,-354.5 684.471,-351 674.471,-347.5 674.471,-354.5"/>
</g>
<!-- Node84 -->
<g id="node8" class="node"><title>Node84</title>
<g id="a_node8"><a xlink:href="namespacemom__internal__tides.html#a66c9354cfdcde3d06a2ebe8775572d23" target="_top" xlink:title=" ">
<polygon fill="white" stroke="black" points="266.5,-405 266.5,-435 381.5,-435 381.5,-405 266.5,-405"/>
<text text-anchor="start" x="274.5" y="-423" font-family="Helvetica,sans-Serif" font-size="10.00">mom_internal_tides</text>
<text text-anchor="middle" x="324" y="-412" font-family="Helvetica,sans-Serif" font-size="10.00">::propagate_corner_spread</text>
</a>
</g>
</g>
<!-- Node83&#45;&gt;Node84 -->
<g id="edge8" class="edge"><title>Node83&#45;&gt;Node84</title>
<path fill="none" stroke="midnightblue" d="M220.33,-420C231.562,-420 243.971,-420 256.164,-420"/>
<polygon fill="midnightblue" stroke="midnightblue" points="256.326,-423.5 266.326,-420 256.326,-416.5 256.326,-423.5"/>
</g>
<!-- Node85 -->
<g id="node9" class="node"><title>Node85</title>
<g id="a_node9"><a xlink:href="namespacemom__internal__tides.html#a487e6cad7cea4c5095f198c236628d6d" target="_top" xlink:title=" ">
<polygon fill="white" stroke="black" points="281,-596 281,-626 367,-626 367,-596 281,-596"/>
<text text-anchor="start" x="289" y="-614" font-family="Helvetica,sans-Serif" font-size="10.00">mom_internal_tides</text>
<text text-anchor="middle" x="324" y="-603" font-family="Helvetica,sans-Serif" font-size="10.00">::propagate_x</text>
</a>
</g>
</g>
<!-- Node83&#45;&gt;Node85 -->
<g id="edge10" class="edge"><title>Node83&#45;&gt;Node85</title>
<path fill="none" stroke="midnightblue" d="M217.687,-435.049C222.209,-437.882 226.458,-441.181 230,-445 259.859,-477.192 244.387,-498.78 266,-537 276.343,-555.29 290.818,-574.022 302.593,-588.064"/>
<polygon fill="midnightblue" stroke="midnightblue" points="300.004,-590.422 309.162,-595.75 305.325,-585.874 300.004,-590.422"/>
</g>
<!-- Node91 -->
<g id="node15" class="node"><title>Node91</title>
<g id="a_node15"><a xlink:href="namespacemom__internal__tides.html#a5f63667c6d87b8ae6d51076ea2942aca" target="_top" xlink:title=" ">
<polygon fill="white" stroke="black" points="281,-498 281,-528 367,-528 367,-498 281,-498"/>
<text text-anchor="start" x="289" y="-516" font-family="Helvetica,sans-Serif" font-size="10.00">mom_internal_tides</text>
<text text-anchor="middle" x="324" y="-505" font-family="Helvetica,sans-Serif" font-size="10.00">::propagate_y</text>
</a>
</g>
</g>
<!-- Node83&#45;&gt;Node91 -->
<g id="edge18" class="edge"><title>Node83&#45;&gt;Node91</title>
<path fill="none" stroke="midnightblue" d="M211.765,-435.119C217.937,-438.195 224.243,-441.551 230,-445 253.297,-458.957 278.044,-477.238 296.148,-491.33"/>
<polygon fill="midnightblue" stroke="midnightblue" points="294.443,-494.442 304.467,-497.874 298.771,-488.941 294.443,-494.442"/>
</g>
<!-- Node84&#45;&gt;Node80 -->
<g id="edge9" class="edge"><title>Node84&#45;&gt;Node80</title>
<path fill="none" stroke="midnightblue" d="M381.672,-420.529C420.868,-419.365 473.727,-414.718 518,-400 537.207,-393.615 556.738,-382.181 571.918,-371.963"/>
<polygon fill="midnightblue" stroke="midnightblue" points="574.097,-374.712 580.318,-366.135 570.107,-368.96 574.097,-374.712"/>
</g>
<!-- Node86 -->
<g id="node10" class="node"><title>Node86</title>
<g id="a_node10"><a xlink:href="namespacemom__internal__tides.html#afa863318cc960c0be08672731ce6f225" target="_top" xlink:title=" ">
<polygon fill="white" stroke="black" points="418,-645 418,-675 518,-675 518,-645 418,-645"/>
<text text-anchor="start" x="426" y="-663" font-family="Helvetica,sans-Serif" font-size="10.00">mom_internal_tides</text>
<text text-anchor="middle" x="468" y="-652" font-family="Helvetica,sans-Serif" font-size="10.00">::ppm_reconstruction_x</text>
</a>
</g>
</g>
<!-- Node85&#45;&gt;Node86 -->
<g id="edge11" class="edge"><title>Node85&#45;&gt;Node86</title>
<path fill="none" stroke="midnightblue" d="M367.22,-625.569C381.706,-630.568 398.115,-636.23 413.383,-641.498"/>
<polygon fill="midnightblue" stroke="midnightblue" points="412.624,-644.939 423.218,-644.892 414.907,-638.322 412.624,-644.939"/>
</g>
<!-- Node88 -->
<g id="node12" class="node"><title>Node88</title>
<g id="a_node12"><a xlink:href="namespacemom__internal__tides.html#a11b6fedbef7fd03428f8dfc404252792" target="_top" xlink:title=" ">
<polygon fill="white" stroke="black" points="425,-694 425,-724 511,-724 511,-694 425,-694"/>
<text text-anchor="start" x="433" y="-712" font-family="Helvetica,sans-Serif" font-size="10.00">mom_internal_tides</text>
<text text-anchor="middle" x="468" y="-701" font-family="Helvetica,sans-Serif" font-size="10.00">::zonal_flux_en</text>
</a>
</g>
</g>
<!-- Node85&#45;&gt;Node88 -->
<g id="edge14" class="edge"><title>Node85&#45;&gt;Node88</title>
<path fill="none" stroke="midnightblue" d="M342.075,-626.057C360.181,-641.618 389.981,-666.094 418,-684 420.612,-685.669 423.349,-687.317 426.137,-688.921"/>
<polygon fill="midnightblue" stroke="midnightblue" points="424.681,-692.115 435.129,-693.875 428.059,-685.984 424.681,-692.115"/>
</g>
<!-- Node89 -->
<g id="node13" class="node"><title>Node89</title>
<g id="a_node13"><a xlink:href="namespacemom__internal__tides.html#a6c622bfe3863b8fcea98c78104477491" target="_top" xlink:title=" ">
<polygon fill="white" stroke="black" points="425,-547 425,-577 511,-577 511,-547 425,-547"/>
<text text-anchor="start" x="433" y="-565" font-family="Helvetica,sans-Serif" font-size="10.00">mom_internal_tides</text>
<text text-anchor="middle" x="468" y="-554" font-family="Helvetica,sans-Serif" font-size="10.00">::reflect</text>
</a>
</g>
</g>
<!-- Node85&#45;&gt;Node89 -->
<g id="edge15" class="edge"><title>Node85&#45;&gt;Node89</title>
<path fill="none" stroke="midnightblue" d="M367.22,-596.431C382.25,-591.245 399.351,-585.344 415.098,-579.91"/>
<polygon fill="midnightblue" stroke="midnightblue" points="416.386,-583.168 424.697,-576.597 414.103,-576.551 416.386,-583.168"/>
</g>
<!-- Node90 -->
<g id="node14" class="node"><title>Node90</title>
<g id="a_node14"><a xlink:href="namespacemom__internal__tides.html#a0a20d26531e245a26385d1c056b6a5b6" target="_top" xlink:title=" ">
<polygon fill="white" stroke="black" points="425,-596 425,-626 511,-626 511,-596 425,-596"/>
<text text-anchor="start" x="433" y="-614" font-family="Helvetica,sans-Serif" font-size="10.00">mom_internal_tides</text>
<text text-anchor="middle" x="468" y="-603" font-family="Helvetica,sans-Serif" font-size="10.00">::teleport</text>
</a>
</g>
</g>
<!-- Node85&#45;&gt;Node90 -->
<g id="edge16" class="edge"><title>Node85&#45;&gt;Node90</title>
<path fill="none" stroke="midnightblue" d="M367.22,-611C382.108,-611 399.029,-611 414.652,-611"/>
<polygon fill="midnightblue" stroke="midnightblue" points="414.697,-614.5 424.697,-611 414.697,-607.5 414.697,-614.5"/>
</g>
<!-- Node86&#45;&gt;Node80 -->
<g id="edge12" class="edge"><title>Node86&#45;&gt;Node80</title>
<path fill="none" stroke="midnightblue" d="M506.734,-644.972C510.94,-642.135 514.839,-638.83 518,-635 551.361,-594.583 583.683,-437.893 595.39,-376.181"/>
<polygon fill="midnightblue" stroke="midnightblue" points="598.87,-376.611 597.272,-366.138 591.99,-375.322 598.87,-376.611"/>
</g>
<!-- Node87 -->
<g id="node11" class="node"><title>Node87</title>
<g id="a_node11"><a xlink:href="namespacemom__internal__tides.html#a16dd5b071e0fc87eb04c32f602c08aa5" target="_top" xlink:title=" ">
<polygon fill="white" stroke="black" points="558,-571 558,-601 644,-601 644,-571 558,-571"/>
<text text-anchor="start" x="566" y="-589" font-family="Helvetica,sans-Serif" font-size="10.00">mom_internal_tides</text>
<text text-anchor="middle" x="601" y="-578" font-family="Helvetica,sans-Serif" font-size="10.00">::ppm_limit_pos</text>
</a>
</g>
</g>
<!-- Node86&#45;&gt;Node87 -->
<g id="edge13" class="edge"><title>Node86&#45;&gt;Node87</title>
<path fill="none" stroke="midnightblue" d="M499.227,-644.978C505.474,-641.761 511.983,-638.328 518,-635 534.345,-625.96 552.179,-615.39 567.029,-606.387"/>
<polygon fill="midnightblue" stroke="midnightblue" points="569.132,-609.204 575.849,-601.011 565.488,-603.227 569.132,-609.204"/>
</g>
<!-- Node90&#45;&gt;Node80 -->
<g id="edge17" class="edge"><title>Node90&#45;&gt;Node80</title>
<path fill="none" stroke="midnightblue" d="M506.537,-595.804C510.775,-592.996 514.735,-589.742 518,-586 572.439,-523.601 591.324,-422.936 597.38,-376.262"/>
<polygon fill="midnightblue" stroke="midnightblue" points="600.88,-376.472 598.6,-366.125 593.93,-375.635 600.88,-376.472"/>
</g>
<!-- Node92 -->
<g id="node16" class="node"><title>Node92</title>
<g id="a_node16"><a xlink:href="namespacemom__internal__tides.html#a6c3dc6d74dfd6e5b13d5f710899be278" target="_top" xlink:title=" ">
<polygon fill="white" stroke="black" points="418,-498 418,-528 518,-528 518,-498 418,-498"/>
<text text-anchor="start" x="426" y="-516" font-family="Helvetica,sans-Serif" font-size="10.00">mom_internal_tides</text>
<text text-anchor="middle" x="468" y="-505" font-family="Helvetica,sans-Serif" font-size="10.00">::ppm_reconstruction_y</text>
</a>
</g>
</g>
<!-- Node91&#45;&gt;Node92 -->
<g id="edge19" class="edge"><title>Node91&#45;&gt;Node92</title>
<path fill="none" stroke="midnightblue" d="M367.22,-513C379.924,-513 394.107,-513 407.702,-513"/>
<polygon fill="midnightblue" stroke="midnightblue" points="407.949,-516.5 417.949,-513 407.949,-509.5 407.949,-516.5"/>
</g>
<!-- Node93 -->
<g id="node17" class="node"><title>Node93</title>
<g id="a_node17"><a xlink:href="namespacemom__internal__tides.html#a08d375b914ce03bed1b317c9b7371f77" target="_top" xlink:title=" ">
<polygon fill="white" stroke="black" points="425,-449 425,-479 511,-479 511,-449 425,-449"/>
<text text-anchor="start" x="433" y="-467" font-family="Helvetica,sans-Serif" font-size="10.00">mom_internal_tides</text>
<text text-anchor="middle" x="468" y="-456" font-family="Helvetica,sans-Serif" font-size="10.00">::merid_flux_en</text>
</a>
</g>
</g>
<!-- Node91&#45;&gt;Node93 -->
<g id="edge22" class="edge"><title>Node91&#45;&gt;Node93</title>
<path fill="none" stroke="midnightblue" d="M367.22,-498.431C382.25,-493.245 399.351,-487.344 415.098,-481.91"/>
<polygon fill="midnightblue" stroke="midnightblue" points="416.386,-485.168 424.697,-478.597 414.103,-478.551 416.386,-485.168"/>
</g>
<!-- Node91&#45;&gt;Node89 -->
<g id="edge23" class="edge"><title>Node91&#45;&gt;Node89</title>
<path fill="none" stroke="midnightblue" d="M367.22,-527.569C382.25,-532.755 399.351,-538.656 415.098,-544.09"/>
<polygon fill="midnightblue" stroke="midnightblue" points="414.103,-547.449 424.697,-547.403 416.386,-540.832 414.103,-547.449"/>
</g>
<!-- Node91&#45;&gt;Node90 -->
<g id="edge24" class="edge"><title>Node91&#45;&gt;Node90</title>
<path fill="none" stroke="midnightblue" d="M342.075,-528.057C360.181,-543.618 389.981,-568.094 418,-586 420.612,-587.669 423.349,-589.317 426.137,-590.921"/>
<polygon fill="midnightblue" stroke="midnightblue" points="424.681,-594.115 435.129,-595.875 428.059,-587.984 424.681,-594.115"/>
</g>
<!-- Node92&#45;&gt;Node80 -->
<g id="edge20" class="edge"><title>Node92&#45;&gt;Node80</title>
<path fill="none" stroke="midnightblue" d="M504.585,-497.904C509.388,-495.018 514.023,-491.717 518,-488 552.752,-455.52 577.759,-405.026 590.471,-375.263"/>
<polygon fill="midnightblue" stroke="midnightblue" points="593.706,-376.597 594.306,-366.02 587.241,-373.914 593.706,-376.597"/>
</g>
<!-- Node92&#45;&gt;Node87 -->
<g id="edge21" class="edge"><title>Node92&#45;&gt;Node87</title>
<path fill="none" stroke="midnightblue" d="M499.204,-528.064C505.453,-531.278 511.968,-534.699 518,-538 534.058,-546.787 551.603,-556.975 566.327,-565.699"/>
<polygon fill="midnightblue" stroke="midnightblue" points="564.709,-568.809 575.093,-570.916 568.289,-562.794 564.709,-568.809"/>
</g>
<!-- Node94&#45;&gt;Node80 -->
<g id="edge26" class="edge"><title>Node94&#45;&gt;Node80</title>
<path fill="none" stroke="midnightblue" d="M220.217,-251.91C234.63,-255.943 250.917,-260.093 266,-263 376.702,-284.338 412.855,-251.322 518,-292 539.668,-300.383 560.868,-315.888 576.282,-328.9"/>
<polygon fill="midnightblue" stroke="midnightblue" points="574.377,-331.882 584.217,-335.811 578.975,-326.604 574.377,-331.882"/>
</g>
<!-- Node95 -->
<g id="node19" class="node"><title>Node95</title>
<g id="a_node19"><a xlink:href="namespacemom__internal__tides.html#ae34593443ab6362445946e9d75528155" target="_top" xlink:title=" ">
<polygon fill="white" stroke="black" points="276,-224 276,-254 372,-254 372,-224 276,-224"/>
<text text-anchor="start" x="284" y="-242" font-family="Helvetica,sans-Serif" font-size="10.00">mom_internal_tides</text>
<text text-anchor="middle" x="324" y="-231" font-family="Helvetica,sans-Serif" font-size="10.00">::ppm_angular_advect</text>
</a>
</g>
</g>
<!-- Node94&#45;&gt;Node95 -->
<g id="edge27" class="edge"><title>Node94&#45;&gt;Node95</title>
<path fill="none" stroke="midnightblue" d="M220.33,-239C234.457,-239 250.444,-239 265.524,-239"/>
<polygon fill="midnightblue" stroke="midnightblue" points="265.785,-242.5 275.785,-239 265.785,-235.5 265.785,-242.5"/>
</g>
<!-- Node98 -->
<g id="node22" class="node"><title>Node98</title>
<g id="a_node22"><a xlink:href="namespacemom__spatial__means.html#aa49abab62973a263d6f5a1c776f62a11" target="_top" xlink:title=" ">
<polygon fill="white" stroke="black" points="276.5,-0 276.5,-30 371.5,-30 371.5,-0 276.5,-0"/>
<text text-anchor="start" x="284.5" y="-18" font-family="Helvetica,sans-Serif" font-size="10.00">mom_spatial_means::</text>
<text text-anchor="middle" x="324" y="-7" font-family="Helvetica,sans-Serif" font-size="10.00">global_area_mean</text>
</a>
</g>
</g>
<!-- Node97&#45;&gt;Node98 -->
<g id="edge30" class="edge"><title>Node97&#45;&gt;Node98</title>
<path fill="none" stroke="midnightblue" d="M220.33,-15C234.593,-15 250.751,-15 265.959,-15"/>
<polygon fill="midnightblue" stroke="midnightblue" points="266.3,-18.5001 276.3,-15 266.299,-11.5001 266.3,-18.5001"/>
</g>
<!-- Node99&#45;&gt;Node80 -->
<g id="edge32" class="edge"><title>Node99&#45;&gt;Node80</title>
<path fill="none" stroke="midnightblue" d="M367.846,-311.89C407.414,-300.17 467.518,-288.066 518,-302 537.912,-307.496 557.859,-319.243 573.094,-329.858"/>
<polygon fill="midnightblue" stroke="midnightblue" points="571.328,-332.9 581.483,-335.921 575.428,-327.227 571.328,-332.9"/>
</g>
<!-- Node100 -->
<g id="node24" class="node"><title>Node100</title>
<g id="a_node24"><a xlink:href="namespacemom__eos.html#a204529f8434a0322314e6ce2a9762436" target="_top" xlink:title="Calls the appropriate subroutine to calculate density derivatives for 1&#45;D array inputs.">
<polygon fill="white" stroke="black" points="424.5,-361 424.5,-391 511.5,-391 511.5,-361 424.5,-361"/>
<text text-anchor="start" x="432.5" y="-379" font-family="Helvetica,sans-Serif" font-size="10.00">mom_eos::calculate</text>
<text text-anchor="middle" x="468" y="-368" font-family="Helvetica,sans-Serif" font-size="10.00">_density_derivs</text>
</a>
</g>
</g>
<!-- Node99&#45;&gt;Node100 -->
<g id="edge33" class="edge"><title>Node99&#45;&gt;Node100</title>
<path fill="none" stroke="midnightblue" d="M368.763,-342.101C383.202,-347.084 399.413,-352.678 414.439,-357.863"/>
<polygon fill="midnightblue" stroke="midnightblue" points="413.518,-361.247 424.112,-361.201 415.801,-354.63 413.518,-361.247"/>
</g>
<!-- Node101 -->
<g id="node25" class="node"><title>Node101</title>
<g id="a_node25"><a xlink:href="namespacemom__wave__structure.html#ad8e6e47af44d24efcd3f3b80f4344fbd" target="_top" xlink:title=" ">
<polygon fill="white" stroke="black" points="421,-312 421,-342 515,-342 515,-312 421,-312"/>
<text text-anchor="start" x="429" y="-330" font-family="Helvetica,sans-Serif" font-size="10.00">mom_wave_structure</text>
<text text-anchor="middle" x="468" y="-319" font-family="Helvetica,sans-Serif" font-size="10.00">::tridiag_solver</text>
</a>
</g>
</g>
<!-- Node99&#45;&gt;Node101 -->
<g id="edge35" class="edge"><title>Node99&#45;&gt;Node101</title>
<path fill="none" stroke="midnightblue" d="M371.103,-327C383.628,-327 397.336,-327 410.369,-327"/>
<polygon fill="midnightblue" stroke="midnightblue" points="410.642,-330.5 420.642,-327 410.642,-323.5 410.642,-330.5"/>
</g>
<!-- Node100&#45;&gt;Node80 -->
<g id="edge34" class="edge"><title>Node100&#45;&gt;Node80</title>
<path fill="none" stroke="midnightblue" d="M511.532,-367.883C521.942,-365.897 533.239,-363.741 544.168,-361.655"/>
<polygon fill="midnightblue" stroke="midnightblue" points="544.899,-365.079 554.066,-359.766 543.587,-358.203 544.899,-365.079"/>
</g>
<!-- Node101&#45;&gt;Node80 -->
<g id="edge36" class="edge"><title>Node101&#45;&gt;Node80</title>
<path fill="none" stroke="midnightblue" d="M515.186,-335.462C524.589,-337.184 534.576,-339.014 544.271,-340.79"/>
<polygon fill="midnightblue" stroke="midnightblue" points="543.764,-344.255 554.231,-342.615 545.026,-337.37 543.764,-344.255"/>
</g>
</g>
</svg>
        <g id="navigator" transform="translate(0 0)" fill="#404254">
                <rect fill="#f2f5e9" fill-opacity="0.5" stroke="#606060" stroke-width=".5" x="0" y="0" width="60" height="60"/>
                <use id="zoomplus" xlink:href="#zoomPlus" x="17" y="9" onmousedown="handleZoom(evt,'in')"/>
                <use id="zoomminus" xlink:href="#zoomMin" x="42" y="9" onmousedown="handleZoom(evt,'out')"/>
                <use id="reset" xlink:href="#resetDef" x="30" y="36" onmousedown="handleReset()"/>
                <g id="arrowUp" xlink:href="#dirArrow" transform="translate(30 24)" onmousedown="handlePan(0,-1)">
                  <use xlink:href="#rim" fill="#404040">
                        <set attributeName="fill" to="#808080" begin="arrowUp.mouseover" end="arrowUp.mouseout"/>
                  </use>
                  <path fill="none" stroke="white" stroke-width="1.5" d="M0,-3.0v7 M-2.5,-0.5L0,-3.0L2.5,-0.5"/>
                </g>
                <g id="arrowRight" xlink:href="#dirArrow" transform="rotate(90) translate(36 -43)" onmousedown="handlePan(1,0)">
                  <use xlink:href="#rim" fill="#404040">
                        <set attributeName="fill" to="#808080" begin="arrowRight.mouseover" end="arrowRight.mouseout"/>
                  </use>
                  <path fill="none" stroke="white" stroke-width="1.5" d="M0,-3.0v7 M-2.5,-0.5L0,-3.0L2.5,-0.5"/>
                </g>
                <g id="arrowDown" xlink:href="#dirArrow" transform="rotate(180) translate(-30 -48)" onmousedown="handlePan(0,1)">
                  <use xlink:href="#rim" fill="#404040">
                        <set attributeName="fill" to="#808080" begin="arrowDown.mouseover" end="arrowDown.mouseout"/>
                  </use>
                  <path fill="none" stroke="white" stroke-width="1.5" d="M0,-3.0v7 M-2.5,-0.5L0,-3.0L2.5,-0.5"/>
                </g>
                <g id="arrowLeft" xlink:href="#dirArrow" transform="rotate(270) translate(-36 17)" onmousedown="handlePan(-1,0)">
                  <use xlink:href="#rim" fill="#404040">
                        <set attributeName="fill" to="#808080" begin="arrowLeft.mouseover" end="arrowLeft.mouseout"/>
                  </use>
                  <path fill="none" stroke="white" stroke-width="1.5" d="M0,-3.0v7 M-2.5,-0.5L0,-3.0L2.5,-0.5"/>
                </g>
        </g>
        <svg viewBox="0 0 15 15" width="100%" height="30px" preserveAspectRatio="xMaxYMin meet">
         <g id="arrow_out" transform="scale(0.3 0.3)">
          <a xlink:href="namespacemom__internal__tides_a6cae26da43d0539e8ac959105cf125c2_cgraph_org.svg" target="_base">
           <rect id="button" ry="5" rx="5" y="6" x="6" height="38" width="38"
                fill="#f2f5e9" fill-opacity="0.5" stroke="#606060" stroke-width="1.0"/>
           <path id="arrow"
             d="M 11.500037,31.436501 C 11.940474,20.09759 22.043105,11.32322 32.158766,21.979434 L 37.068811,17.246167 C 37.068811,17.246167 37.088388,32 37.088388,32 L 22.160133,31.978069 C 22.160133,31.978069 26.997745,27.140456 26.997745,27.140456 C 18.528582,18.264221 13.291696,25.230495 11.500037,31.436501 z"
             style="fill:#404040;"/>
          </a>
         </g>
        </svg>
</svg>
