<?xml version="1.0" encoding="UTF-8" standalone="no"?>
<!DOCTYPE svg PUBLIC "-//W3C//DTD SVG 1.1//EN"
 "http://www.w3.org/Graphics/SVG/1.1/DTD/svg11.dtd">
<!-- Generated by graphviz version 2.30.1 (20170916.1124)
 -->
<!-- Title: user_initialization::user_initialize_topography Pages: 1 -->
<svg width="628pt" height="38pt"
 viewBox="0.00 0.00 628.00 38.00" xmlns="http://www.w3.org/2000/svg" xmlns:xlink="http://www.w3.org/1999/xlink">
<g id="graph0" class="graph" transform="scale(1 1) rotate(0) translate(4 34)">
<title>user_initialization::user_initialize_topography</title>
<polygon fill="white" stroke="white" points="-4,5 -4,-34 625,-34 625,5 -4,5"/>
<!-- Node27 -->
<g id="node1" class="node"><title>Node27</title>
<g id="a_node1"><a xlink:title="Initialize topography.">
<polygon fill="#bfbfbf" stroke="black" points="506.5,-0 506.5,-30 619.5,-30 619.5,-0 506.5,-0"/>
<text text-anchor="start" x="514.5" y="-18" font-family="Helvetica,sans-Serif" font-size="10.00">user_initialization</text>
<text text-anchor="middle" x="563" y="-7" font-family="Helvetica,sans-Serif" font-size="10.00">::user_initialize_topography</text>
</a>
</g>
</g>
<!-- Node28 -->
<g id="node2" class="node"><title>Node28</title>
<g id="a_node2"><a xlink:href="namespacemom__fixed__initialization.html#a4f19c092d796f0cbb036c96575299b11" target="_top" xlink:title="MOM_initialize_topography makes the appropriate call to set up the bathymetry.">
<polygon fill="white" stroke="black" points="354,-0 354,-30 470,-30 470,-0 354,-0"/>
<text text-anchor="start" x="362" y="-18" font-family="Helvetica,sans-Serif" font-size="10.00">mom_fixed_initialization</text>
<text text-anchor="middle" x="412" y="-7" font-family="Helvetica,sans-Serif" font-size="10.00">::mom_initialize_topography</text>
</a>
</g>
</g>
<!-- Node27&#45;&gt;Node28 -->
<g id="edge1" class="edge"><title>Node27&#45;&gt;Node28</title>
<path fill="none" stroke="midnightblue" d="M496.073,-15C487.451,-15 478.675,-15 470.213,-15"/>
<polygon fill="midnightblue" stroke="midnightblue" points="496.094,-18.5001 506.094,-15 496.094,-11.5001 496.094,-18.5001"/>
</g>
<!-- Node29 -->
<g id="node3" class="node"><title>Node29</title>
<g id="a_node3"><a xlink:href="namespacemom__fixed__initialization.html#a6c1c054d9cda9f1bd11abba748614c92" target="_top" xlink:title="MOM_initialize_fixed sets up time&#45;invariant quantities related to MOM6&#39;s horizontal grid,...">
<polygon fill="white" stroke="black" points="218,-0 218,-30 318,-30 318,-0 218,-0"/>
<text text-anchor="start" x="226" y="-18" font-family="Helvetica,sans-Serif" font-size="10.00">mom_fixed_initialization</text>
<text text-anchor="middle" x="268" y="-7" font-family="Helvetica,sans-Serif" font-size="10.00">::mom_initialize_fixed</text>
</a>
</g>
</g>
<!-- Node28&#45;&gt;Node29 -->
<g id="edge2" class="edge"><title>Node28&#45;&gt;Node29</title>
<path fill="none" stroke="midnightblue" d="M343.41,-15C334.96,-15 326.446,-15 318.347,-15"/>
<polygon fill="midnightblue" stroke="midnightblue" points="343.653,-18.5001 353.652,-15 343.652,-11.5001 343.653,-18.5001"/>
</g>
<!-- Node30 -->
<g id="node4" class="node"><title>Node30</title>
<g id="a_node4"><a xlink:href="namespacemom.html#a0be2869fef30e1e0604facfe1b41555d" target="_top" xlink:title="This subroutine initializes MOM.">
<polygon fill="white" stroke="black" points="92.5,-5.5 92.5,-24.5 181.5,-24.5 181.5,-5.5 92.5,-5.5"/>
<text text-anchor="middle" x="137" y="-12.5" font-family="Helvetica,sans-Serif" font-size="10.00">mom::initialize_mom</text>
</a>
</g>
</g>
<!-- Node29&#45;&gt;Node30 -->
<g id="edge3" class="edge"><title>Node29&#45;&gt;Node30</title>
<path fill="none" stroke="midnightblue" d="M207.632,-15C198.833,-15 189.905,-15 181.511,-15"/>
<polygon fill="midnightblue" stroke="midnightblue" points="207.863,-18.5001 217.863,-15 207.863,-11.5001 207.863,-18.5001"/>
</g>
<!-- Node31 -->
<g id="node5" class="node"><title>Node31</title>
<g id="a_node5"><a xlink:href="MOM__driver_8F90.html#a08fffeb2d8e8acbf9ed4609be6d258c6" target="_top" xlink:title=" ">
<polygon fill="white" stroke="black" points="0,-5.5 0,-24.5 56,-24.5 56,-5.5 0,-5.5"/>
<text text-anchor="middle" x="28" y="-12.5" font-family="Helvetica,sans-Serif" font-size="10.00">mom_main</text>
</a>
</g>
</g>
<!-- Node30&#45;&gt;Node31 -->
<g id="edge4" class="edge"><title>Node30&#45;&gt;Node31</title>
<path fill="none" stroke="midnightblue" d="M82.3096,-15C73.2562,-15 64.21,-15 56.2082,-15"/>
<polygon fill="midnightblue" stroke="midnightblue" points="82.479,-18.5001 92.479,-15 82.479,-11.5001 82.479,-18.5001"/>
</g>
</g>
</svg>
