<?xml version="1.0" encoding="UTF-8" standalone="no"?>
<!DOCTYPE svg PUBLIC "-//W3C//DTD SVG 1.1//EN"
 "http://www.w3.org/Graphics/SVG/1.1/DTD/svg11.dtd">
<!-- Generated by graphviz version 2.30.1 (20170916.1124)
 -->
<!-- Title: mom_file_parser::log_param_char Pages: 1 -->
<svg width="228pt" height="87pt"
 viewBox="0.00 0.00 228.00 87.00" xmlns="http://www.w3.org/2000/svg" xmlns:xlink="http://www.w3.org/1999/xlink">
<g id="graph0" class="graph" transform="scale(1 1) rotate(0) translate(4 83)">
<title>mom_file_parser::log_param_char</title>
<polygon fill="white" stroke="white" points="-4,5 -4,-83 225,-83 225,5 -4,5"/>
<!-- Node184 -->
<g id="node1" class="node"><title>Node184</title>
<g id="a_node1"><a xlink:title=" ">
<polygon fill="#bfbfbf" stroke="black" points="128,-24 128,-54 220,-54 220,-24 128,-24"/>
<text text-anchor="start" x="136" y="-42" font-family="Helvetica,sans-Serif" font-size="10.00">mom_file_parser::log</text>
<text text-anchor="middle" x="174" y="-31" font-family="Helvetica,sans-Serif" font-size="10.00">_param_char</text>
</a>
</g>
</g>
<!-- Node185 -->
<g id="node2" class="node"><title>Node185</title>
<g id="a_node2"><a xlink:href="namespacemom__file__parser.html#a73ba84992b53a7898e3ea651da1847ed" target="_top" xlink:title=" ">
<polygon fill="white" stroke="black" points="0,-49 0,-79 92,-79 92,-49 0,-49"/>
<text text-anchor="start" x="8" y="-67" font-family="Helvetica,sans-Serif" font-size="10.00">mom_file_parser::get</text>
<text text-anchor="middle" x="46" y="-56" font-family="Helvetica,sans-Serif" font-size="10.00">_param_char</text>
</a>
</g>
</g>
<!-- Node184&#45;&gt;Node185 -->
<g id="edge1" class="edge"><title>Node184&#45;&gt;Node185</title>
<path fill="none" stroke="midnightblue" d="M117.926,-49.9273C109.347,-51.6295 100.569,-53.3712 92.2414,-55.0235"/>
<polygon fill="midnightblue" stroke="midnightblue" points="118.739,-53.3343 127.867,-47.955 117.377,-46.4682 118.739,-53.3343"/>
</g>
<!-- Node186 -->
<g id="node3" class="node"><title>Node186</title>
<g id="a_node3"><a xlink:href="namespacemom__file__parser.html#aa3f8a251fb4f7bbae28b136ebc17a8f3" target="_top" xlink:title=" ">
<polygon fill="white" stroke="black" points="0,-0 0,-30 92,-30 92,-0 0,-0"/>
<text text-anchor="start" x="8" y="-18" font-family="Helvetica,sans-Serif" font-size="10.00">mom_file_parser::get</text>
<text text-anchor="middle" x="46" y="-7" font-family="Helvetica,sans-Serif" font-size="10.00">_param_char_array</text>
</a>
</g>
</g>
<!-- Node184&#45;&gt;Node186 -->
<g id="edge2" class="edge"><title>Node184&#45;&gt;Node186</title>
<path fill="none" stroke="midnightblue" d="M117.926,-28.5098C109.347,-26.8757 100.569,-25.2036 92.2414,-23.6174"/>
<polygon fill="midnightblue" stroke="midnightblue" points="117.389,-31.9702 127.867,-30.4032 118.699,-25.0939 117.389,-31.9702"/>
</g>
</g>
</svg>
