<?xml version="1.0" encoding="UTF-8" standalone="no"?>
<!DOCTYPE svg PUBLIC "-//W3C//DTD SVG 1.1//EN"
 "http://www.w3.org/Graphics/SVG/1.1/DTD/svg11.dtd">
<!-- Generated by graphviz version 2.30.1 (20170916.1124)
 -->
<!-- Title: ppm_functions::ppm_reconstruction Pages: 1 -->
<svg width="354pt" height="99pt"
 viewBox="0.00 0.00 354.00 99.00" xmlns="http://www.w3.org/2000/svg" xmlns:xlink="http://www.w3.org/1999/xlink">
<g id="graph0" class="graph" transform="scale(1 1) rotate(0) translate(4 95)">
<title>ppm_functions::ppm_reconstruction</title>
<polygon fill="white" stroke="white" points="-4,5 -4,-95 351,-95 351,5 -4,5"/>
<!-- Node63 -->
<g id="node1" class="node"><title>Node63</title>
<g id="a_node1"><a xlink:title="Builds quadratic polynomials coefficients from cell mean and edge values.">
<polygon fill="#bfbfbf" stroke="black" points="0.5,-33 0.5,-63 89.5,-63 89.5,-33 0.5,-33"/>
<text text-anchor="start" x="8.5" y="-51" font-family="Helvetica,sans-Serif" font-size="10.00">ppm_functions::ppm</text>
<text text-anchor="middle" x="45" y="-40" font-family="Helvetica,sans-Serif" font-size="10.00">_reconstruction</text>
</a>
</g>
</g>
<!-- Node64 -->
<g id="node2" class="node"><title>Node64</title>
<g id="a_node2"><a xlink:href="namespaceppm__functions.html#a89920c90b84f0b241c5a6d65fe2870b9" target="_top" xlink:title="Adjusts edge values using the standard PPM limiter (Colella &amp; Woodward, JCP 1984) after first checkin...">
<polygon fill="white" stroke="black" points="126.5,-33 126.5,-63 215.5,-63 215.5,-33 126.5,-33"/>
<text text-anchor="start" x="134.5" y="-51" font-family="Helvetica,sans-Serif" font-size="10.00">ppm_functions::ppm</text>
<text text-anchor="middle" x="171" y="-40" font-family="Helvetica,sans-Serif" font-size="10.00">_limiter_standard</text>
</a>
</g>
</g>
<!-- Node63&#45;&gt;Node64 -->
<g id="edge1" class="edge"><title>Node63&#45;&gt;Node64</title>
<path fill="none" stroke="midnightblue" d="M89.7178,-48C98.2376,-48 107.263,-48 116.068,-48"/>
<polygon fill="midnightblue" stroke="midnightblue" points="116.259,-51.5001 126.259,-48 116.259,-44.5001 116.259,-51.5001"/>
</g>
<!-- Node65 -->
<g id="node3" class="node"><title>Node65</title>
<g id="a_node3"><a xlink:href="namespaceregrid__edge__values.html#aa204fe78ee22cae62f2b7f1bc76151a9" target="_top" xlink:title=" ">
<polygon fill="white" stroke="black" points="252.5,-61 252.5,-91 345.5,-91 345.5,-61 252.5,-61"/>
<text text-anchor="start" x="260.5" y="-79" font-family="Helvetica,sans-Serif" font-size="10.00">regrid_edge_values</text>
<text text-anchor="middle" x="299" y="-68" font-family="Helvetica,sans-Serif" font-size="10.00">::bound_edge_values</text>
</a>
</g>
</g>
<!-- Node64&#45;&gt;Node65 -->
<g id="edge2" class="edge"><title>Node64&#45;&gt;Node65</title>
<path fill="none" stroke="midnightblue" d="M215.715,-57.7145C224.288,-59.6195 233.388,-61.6417 242.291,-63.6201"/>
<polygon fill="midnightblue" stroke="midnightblue" points="241.699,-67.074 252.22,-65.8267 243.218,-60.2407 241.699,-67.074"/>
</g>
<!-- Node66 -->
<g id="node4" class="node"><title>Node66</title>
<g id="a_node4"><a xlink:href="namespaceregrid__edge__values.html#acbdacbbf7212e538bb52a9729fc949a7" target="_top" xlink:title=" ">
<polygon fill="white" stroke="black" points="252,-0.5 252,-41.5 346,-41.5 346,-0.5 252,-0.5"/>
<text text-anchor="start" x="260" y="-29.5" font-family="Helvetica,sans-Serif" font-size="10.00">regrid_edge_values</text>
<text text-anchor="start" x="260" y="-18.5" font-family="Helvetica,sans-Serif" font-size="10.00">::check_discontinuous</text>
<text text-anchor="middle" x="299" y="-7.5" font-family="Helvetica,sans-Serif" font-size="10.00">_edge_values</text>
</a>
</g>
</g>
<!-- Node64&#45;&gt;Node66 -->
<g id="edge3" class="edge"><title>Node64&#45;&gt;Node66</title>
<path fill="none" stroke="midnightblue" d="M215.715,-38.6325C224.184,-36.8176 233.168,-34.8925 241.969,-33.0067"/>
<polygon fill="midnightblue" stroke="midnightblue" points="242.745,-36.42 251.789,-30.9023 241.278,-29.5753 242.745,-36.42"/>
</g>
</g>
</svg>
