<?xml version="1.0" encoding="UTF-8" standalone="no"?>
<!DOCTYPE svg PUBLIC "-//W3C//DTD SVG 1.1//EN"
 "http://www.w3.org/Graphics/SVG/1.1/DTD/svg11.dtd">
<!-- Generated by graphviz version 2.30.1 (20170916.1124)
 -->
<!-- Title: mom_document::doc_function Pages: 1 -->
<svg width="660pt" height="110pt"
 viewBox="0.00 0.00 660.00 109.56" xmlns="http://www.w3.org/2000/svg" xmlns:xlink="http://www.w3.org/1999/xlink">
<g id="graph0" class="graph" transform="scale(1 1) rotate(0) translate(4 105.559)">
<title>mom_document::doc_function</title>
<polygon fill="white" stroke="white" points="-4,5 -4,-105.559 657,-105.559 657,5 -4,5"/>
<!-- Node18 -->
<g id="node1" class="node"><title>Node18</title>
<g id="a_node1"><a xlink:title=" ">
<polygon fill="#bfbfbf" stroke="black" points="0,-82.0594 0,-101.059 124,-101.059 124,-82.0594 0,-82.0594"/>
<text text-anchor="middle" x="62" y="-89.0594" font-family="Helvetica,sans-Serif" font-size="10.00">mom_document::doc_function</text>
</a>
</g>
</g>
<!-- Node19 -->
<g id="node2" class="node"><title>Node19</title>
<g id="a_node2"><a xlink:href="namespacemom__error__handler.html#ad5f00a53059c72fe2332d1436c80ca71" target="_top" xlink:title=" ">
<polygon fill="white" stroke="black" points="558.5,-60.5594 558.5,-90.5594 651.5,-90.5594 651.5,-60.5594 558.5,-60.5594"/>
<text text-anchor="start" x="566.5" y="-78.5594" font-family="Helvetica,sans-Serif" font-size="10.00">mom_error_handler::</text>
<text text-anchor="middle" x="605" y="-67.5594" font-family="Helvetica,sans-Serif" font-size="10.00">is_root_pe</text>
</a>
</g>
</g>
<!-- Node18&#45;&gt;Node19 -->
<g id="edge1" class="edge"><title>Node18&#45;&gt;Node19</title>
<path fill="none" stroke="midnightblue" d="M124.286,-91.2218C212.329,-90.5101 379.685,-88.3119 522,-81.5594 530.506,-81.1558 539.5,-80.6145 548.294,-80.0216"/>
<polygon fill="midnightblue" stroke="midnightblue" points="548.752,-83.4981 558.483,-79.307 548.263,-76.5153 548.752,-83.4981"/>
</g>
<!-- Node20 -->
<g id="node3" class="node"><title>Node20</title>
<g id="a_node3"><a xlink:href="namespacemom__document.html#aab976b6c6c9c01833438d217fca228a4" target="_top" xlink:title=" ">
<polygon fill="white" stroke="black" points="160.5,-35.5594 160.5,-65.5594 257.5,-65.5594 257.5,-35.5594 160.5,-35.5594"/>
<text text-anchor="start" x="168.5" y="-53.5594" font-family="Helvetica,sans-Serif" font-size="10.00">mom_document::open</text>
<text text-anchor="middle" x="209" y="-42.5594" font-family="Helvetica,sans-Serif" font-size="10.00">_doc_file</text>
</a>
</g>
</g>
<!-- Node18&#45;&gt;Node20 -->
<g id="edge2" class="edge"><title>Node18&#45;&gt;Node20</title>
<path fill="none" stroke="midnightblue" d="M96.6304,-82.0501C112.657,-77.5184 132.282,-71.9692 150.569,-66.7985"/>
<polygon fill="midnightblue" stroke="midnightblue" points="151.6,-70.1443 160.271,-64.0553 149.695,-63.4084 151.6,-70.1443"/>
</g>
<!-- Node20&#45;&gt;Node19 -->
<g id="edge3" class="edge"><title>Node20&#45;&gt;Node19</title>
<path fill="none" stroke="midnightblue" d="M257.526,-53.575C330.686,-58.2171 470.568,-67.0929 548.349,-72.0283"/>
<polygon fill="midnightblue" stroke="midnightblue" points="548.237,-75.5281 558.439,-72.6685 548.68,-68.5421 548.237,-75.5281"/>
</g>
<!-- Node21 -->
<g id="node4" class="node"><title>Node21</title>
<g id="a_node4"><a xlink:href="namespacemom__document.html#a5f2661445a72a7d0f774677e91366db5" target="_top" xlink:title=" ">
<polygon fill="white" stroke="black" points="294.5,-16.5594 294.5,-46.5594 391.5,-46.5594 391.5,-16.5594 294.5,-16.5594"/>
<text text-anchor="start" x="302.5" y="-34.5594" font-family="Helvetica,sans-Serif" font-size="10.00">mom_document::find</text>
<text text-anchor="middle" x="343" y="-23.5594" font-family="Helvetica,sans-Serif" font-size="10.00">_unused_unit_number</text>
</a>
</g>
</g>
<!-- Node20&#45;&gt;Node21 -->
<g id="edge4" class="edge"><title>Node20&#45;&gt;Node21</title>
<path fill="none" stroke="midnightblue" d="M257.655,-43.7C266.347,-42.4488 275.5,-41.1313 284.443,-39.8441"/>
<polygon fill="midnightblue" stroke="midnightblue" points="285.016,-43.2979 294.415,-38.4088 284.018,-36.3693 285.016,-43.2979"/>
</g>
<!-- Node22 -->
<g id="node5" class="node"><title>Node22</title>
<g id="a_node5"><a xlink:href="namespacemom__error__handler.html#a460cfb79a06c29fc249952c2a3710d67" target="_top" xlink:title=" ">
<polygon fill="white" stroke="black" points="428.5,-16.5594 428.5,-46.5594 521.5,-46.5594 521.5,-16.5594 428.5,-16.5594"/>
<text text-anchor="start" x="436.5" y="-34.5594" font-family="Helvetica,sans-Serif" font-size="10.00">mom_error_handler::</text>
<text text-anchor="middle" x="475" y="-23.5594" font-family="Helvetica,sans-Serif" font-size="10.00">mom_error</text>
</a>
</g>
</g>
<!-- Node20&#45;&gt;Node22 -->
<g id="edge7" class="edge"><title>Node20&#45;&gt;Node22</title>
<path fill="none" stroke="midnightblue" d="M231.632,-35.4772C247.938,-25.0717 271.3,-12.1448 294,-6.55941 336.294,3.84701 348.92,-0.138291 392,-6.55941 402.374,-8.10575 413.251,-10.6954 423.568,-13.6368"/>
<polygon fill="midnightblue" stroke="midnightblue" points="422.669,-17.021 433.253,-16.542 424.68,-10.3162 422.669,-17.021"/>
</g>
<!-- Node21&#45;&gt;Node22 -->
<g id="edge5" class="edge"><title>Node21&#45;&gt;Node22</title>
<path fill="none" stroke="midnightblue" d="M391.669,-31.5594C400.211,-31.5594 409.183,-31.5594 417.936,-31.5594"/>
<polygon fill="midnightblue" stroke="midnightblue" points="418.07,-35.0595 428.07,-31.5594 418.07,-28.0595 418.07,-35.0595"/>
</g>
<!-- Node22&#45;&gt;Node19 -->
<g id="edge6" class="edge"><title>Node22&#45;&gt;Node19</title>
<path fill="none" stroke="midnightblue" d="M519.692,-46.5787C529.571,-49.9745 540.17,-53.618 550.405,-57.1361"/>
<polygon fill="midnightblue" stroke="midnightblue" points="549.475,-60.5175 560.07,-60.4585 551.751,-53.8977 549.475,-60.5175"/>
</g>
</g>
</svg>
