<?xml version="1.0" encoding="UTF-8" standalone="no"?>
<!DOCTYPE svg PUBLIC "-//W3C//DTD SVG 1.1//EN"
 "http://www.w3.org/Graphics/SVG/1.1/DTD/svg11.dtd">
<!-- Generated by graphviz version 2.30.1 (20170916.1124)
 -->
<!-- Title: mom_document::define_string Pages: 1 -->
<svg width="286pt" height="301pt"
 viewBox="0.00 0.00 286.00 301.00" xmlns="http://www.w3.org/2000/svg" xmlns:xlink="http://www.w3.org/1999/xlink">
<g id="graph0" class="graph" transform="scale(1 1) rotate(0) translate(4 297)">
<title>mom_document::define_string</title>
<polygon fill="white" stroke="white" points="-4,5 -4,-297 283,-297 283,5 -4,5"/>
<!-- Node1 -->
<g id="node1" class="node"><title>Node1</title>
<g id="a_node1"><a xlink:title=" ">
<polygon fill="#bfbfbf" stroke="black" points="176.5,-137 176.5,-167 277.5,-167 277.5,-137 176.5,-137"/>
<text text-anchor="start" x="184.5" y="-155" font-family="Helvetica,sans-Serif" font-size="10.00">mom_document::define</text>
<text text-anchor="middle" x="227" y="-144" font-family="Helvetica,sans-Serif" font-size="10.00">_string</text>
</a>
</g>
</g>
<!-- Node2 -->
<g id="node2" class="node"><title>Node2</title>
<g id="a_node2"><a xlink:href="namespacemom__document.html#aeef6510f5e76c23d9a9a9c587f62d4d9" target="_top" xlink:title=" ">
<polygon fill="white" stroke="black" points="0,-273.5 0,-292.5 140,-292.5 140,-273.5 0,-273.5"/>
<text text-anchor="middle" x="70" y="-280.5" font-family="Helvetica,sans-Serif" font-size="10.00">mom_document::doc_param_char</text>
</a>
</g>
</g>
<!-- Node1&#45;&gt;Node2 -->
<g id="edge1" class="edge"><title>Node1&#45;&gt;Node2</title>
<path fill="none" stroke="midnightblue" d="M213.597,-176.281C199.283,-201.881 173.365,-241.548 140,-264 134.227,-267.885 127.678,-270.979 120.969,-273.443"/>
<polygon fill="midnightblue" stroke="midnightblue" points="216.819,-177.683 218.507,-167.223 210.664,-174.347 216.819,-177.683"/>
</g>
<!-- Node3 -->
<g id="node3" class="node"><title>Node3</title>
<g id="a_node3"><a xlink:href="namespacemom__document.html#a14995c64ee277f19aa10b957431aa4c1" target="_top" xlink:title=" ">
<polygon fill="white" stroke="black" points="4,-235.5 4,-254.5 136,-254.5 136,-235.5 4,-235.5"/>
<text text-anchor="middle" x="70" y="-242.5" font-family="Helvetica,sans-Serif" font-size="10.00">mom_document::doc_param_int</text>
</a>
</g>
</g>
<!-- Node1&#45;&gt;Node3 -->
<g id="edge2" class="edge"><title>Node1&#45;&gt;Node3</title>
<path fill="none" stroke="midnightblue" d="M204.827,-174.483C188.499,-190.624 164.612,-211.778 140,-225 132.089,-229.25 123.17,-232.691 114.436,-235.442"/>
<polygon fill="midnightblue" stroke="midnightblue" points="207.664,-176.591 212.205,-167.019 202.686,-171.67 207.664,-176.591"/>
</g>
<!-- Node4 -->
<g id="node4" class="node"><title>Node4</title>
<g id="a_node4"><a xlink:href="namespacemom__document.html#a3ce71018037d66ba8f51d860bedbdcbb" target="_top" xlink:title=" ">
<polygon fill="white" stroke="black" points="10.5,-186 10.5,-216 129.5,-216 129.5,-186 10.5,-186"/>
<text text-anchor="start" x="18.5" y="-204" font-family="Helvetica,sans-Serif" font-size="10.00">mom_document::doc_param</text>
<text text-anchor="middle" x="70" y="-193" font-family="Helvetica,sans-Serif" font-size="10.00">_int_array</text>
</a>
</g>
</g>
<!-- Node1&#45;&gt;Node4 -->
<g id="edge3" class="edge"><title>Node1&#45;&gt;Node4</title>
<path fill="none" stroke="midnightblue" d="M168.242,-170.259C151.893,-175.427 134.289,-180.992 118.612,-185.948"/>
<polygon fill="midnightblue" stroke="midnightblue" points="169.75,-173.453 178.23,-167.101 167.64,-166.779 169.75,-173.453"/>
</g>
<!-- Node5 -->
<g id="node5" class="node"><title>Node5</title>
<g id="a_node5"><a xlink:href="namespacemom__document.html#ae29b615a7c566d9da64ade24864805b2" target="_top" xlink:title=" ">
<polygon fill="white" stroke="black" points="10.5,-137 10.5,-167 129.5,-167 129.5,-137 10.5,-137"/>
<text text-anchor="start" x="18.5" y="-155" font-family="Helvetica,sans-Serif" font-size="10.00">mom_document::doc_param</text>
<text text-anchor="middle" x="70" y="-144" font-family="Helvetica,sans-Serif" font-size="10.00">_logical</text>
</a>
</g>
</g>
<!-- Node1&#45;&gt;Node5 -->
<g id="edge4" class="edge"><title>Node1&#45;&gt;Node5</title>
<path fill="none" stroke="midnightblue" d="M165.851,-152C153.983,-152 141.542,-152 129.721,-152"/>
<polygon fill="midnightblue" stroke="midnightblue" points="166.104,-155.5 176.104,-152 166.104,-148.5 166.104,-155.5"/>
</g>
<!-- Node6 -->
<g id="node6" class="node"><title>Node6</title>
<g id="a_node6"><a xlink:href="namespacemom__document.html#a9792937a5eb8f9a2a58c7b816520470d" target="_top" xlink:title=" ">
<polygon fill="white" stroke="black" points="10.5,-88 10.5,-118 129.5,-118 129.5,-88 10.5,-88"/>
<text text-anchor="start" x="18.5" y="-106" font-family="Helvetica,sans-Serif" font-size="10.00">mom_document::doc_param</text>
<text text-anchor="middle" x="70" y="-95" font-family="Helvetica,sans-Serif" font-size="10.00">_logical_array</text>
</a>
</g>
</g>
<!-- Node1&#45;&gt;Node6 -->
<g id="edge5" class="edge"><title>Node1&#45;&gt;Node6</title>
<path fill="none" stroke="midnightblue" d="M168.242,-133.741C151.893,-128.573 134.289,-123.008 118.612,-118.052"/>
<polygon fill="midnightblue" stroke="midnightblue" points="167.64,-137.221 178.23,-136.899 169.75,-130.547 167.64,-137.221"/>
</g>
<!-- Node7 -->
<g id="node7" class="node"><title>Node7</title>
<g id="a_node7"><a xlink:href="namespacemom__document.html#aae79ba23b83e7e2be3dcc46f50ee0f69" target="_top" xlink:title=" ">
<polygon fill="white" stroke="black" points="1.5,-49.5 1.5,-68.5 138.5,-68.5 138.5,-49.5 1.5,-49.5"/>
<text text-anchor="middle" x="70" y="-56.5" font-family="Helvetica,sans-Serif" font-size="10.00">mom_document::doc_param_real</text>
</a>
</g>
</g>
<!-- Node1&#45;&gt;Node7 -->
<g id="edge6" class="edge"><title>Node1&#45;&gt;Node7</title>
<path fill="none" stroke="midnightblue" d="M204.827,-129.517C188.499,-113.376 164.612,-92.2216 140,-79 132.089,-74.7503 123.17,-71.309 114.436,-68.5575"/>
<polygon fill="midnightblue" stroke="midnightblue" points="202.686,-132.33 212.205,-136.981 207.664,-127.409 202.686,-132.33"/>
</g>
<!-- Node8 -->
<g id="node8" class="node"><title>Node8</title>
<g id="a_node8"><a xlink:href="namespacemom__document.html#a09ce71cb5106c9abb604c07b98e62863" target="_top" xlink:title=" ">
<polygon fill="white" stroke="black" points="10.5,-0 10.5,-30 129.5,-30 129.5,-0 10.5,-0"/>
<text text-anchor="start" x="18.5" y="-18" font-family="Helvetica,sans-Serif" font-size="10.00">mom_document::doc_param</text>
<text text-anchor="middle" x="70" y="-7" font-family="Helvetica,sans-Serif" font-size="10.00">_real_array</text>
</a>
</g>
</g>
<!-- Node1&#45;&gt;Node8 -->
<g id="edge7" class="edge"><title>Node1&#45;&gt;Node8</title>
<path fill="none" stroke="midnightblue" d="M213.006,-127.812C198.345,-102.628 172.278,-63.6226 140,-40 134.756,-36.1624 128.863,-32.8616 122.788,-30.0361"/>
<polygon fill="midnightblue" stroke="midnightblue" points="210.082,-129.751 218.057,-136.727 216.173,-126.301 210.082,-129.751"/>
</g>
</g>
</svg>
