<?xml version="1.0" encoding="UTF-8" standalone="no"?>
<!DOCTYPE svg PUBLIC "-//W3C//DTD SVG 1.1//EN"
 "http://www.w3.org/Graphics/SVG/1.1/DTD/svg11.dtd">
<!-- Generated by graphviz version 2.30.1 (20170916.1124)
 -->
<!-- Title: mom_document::doc_param_real Pages: 1 -->
<!--zoomable 279 -->
<svg id="main" version="1.1" xmlns="http://www.w3.org/2000/svg" xmlns:xlink="http://www.w3.org/1999/xlink" xml:space="preserve" onload="init(evt)">
<style type="text/css"><![CDATA[
.edge:hover path { stroke: red; }
.edge:hover polygon { stroke: red; fill: red; }
]]></style>
<script type="text/javascript"><![CDATA[
var edges = document.getElementsByTagName('g');
if (edges && edges.length) {
  for (var i=0;i<edges.length;i++) {
    if (edges[i].id.substr(0,4)=='edge') {
      edges[i].setAttribute('class','edge');
    }
  }
}
]]></script>
        <defs>
                <circle id="rim" cx="0" cy="0" r="7"/>
                <circle id="rim2" cx="0" cy="0" r="3.5"/>
                <g id="zoomPlus">
                        <use xlink:href="#rim" fill="#404040">
                                <set attributeName="fill" to="#808080" begin="zoomplus.mouseover" end="zoomplus.mouseout"/>
                        </use>
                        <path d="M-4,0h8M0,-4v8" fill="none" stroke="white" stroke-width="1.5" pointer-events="none"/>
                </g>
                <g id="zoomMin">
                        <use xlink:href="#rim" fill="#404040">
                                <set attributeName="fill" to="#808080" begin="zoomminus.mouseover" end="zoomminus.mouseout"/>
                        </use>
                        <path d="M-4,0h8" fill="none" stroke="white" stroke-width="1.5" pointer-events="none"/>
                </g>
                <g id="dirArrow">
                        <path fill="none" stroke="white" stroke-width="1.5" d="M0,-3.0v7 M-2.5,-0.5L0,-3.0L2.5,-0.5"/>
                </g>
               <g id="resetDef">
                       <use xlink:href="#rim2" fill="#404040">
                               <set attributeName="fill" to="#808080" begin="reset.mouseover" end="reset.mouseout"/>
                       </use>
               </g>
        </defs>

<script type="text/javascript">
var viewWidth = 810;
var viewHeight = 279;
var sectionId = 'dynsection-11';
</script>
<script xlink:href="svgpan.js"/>
<svg id="graph" class="graph">
<g id="viewport">
<title>mom_document::doc_param_real</title>
<polygon fill="white" stroke="white" points="-4,5 -4,-275 807,-275 807,5 -4,5"/>
<!-- Node96 -->
<g id="node1" class="node"><title>Node96</title>
<g id="a_node1"><a xlink:title=" ">
<polygon fill="#bfbfbf" stroke="black" points="0.5,-142.5 0.5,-161.5 137.5,-161.5 137.5,-142.5 0.5,-142.5"/>
<text text-anchor="middle" x="69" y="-149.5" font-family="Helvetica,sans-Serif" font-size="10.00">mom_document::doc_param_real</text>
</a>
</g>
</g>
<!-- Node97 -->
<g id="node2" class="node"><title>Node97</title>
<g id="a_node2"><a xlink:href="namespacemom__document.html#aadc9c21a3f71a85107454b8080d6ec5c" target="_top" xlink:title=" ">
<polygon fill="white" stroke="black" points="202.5,-241 202.5,-271 303.5,-271 303.5,-241 202.5,-241"/>
<text text-anchor="start" x="210.5" y="-259" font-family="Helvetica,sans-Serif" font-size="10.00">mom_document::define</text>
<text text-anchor="middle" x="253" y="-248" font-family="Helvetica,sans-Serif" font-size="10.00">_string</text>
</a>
</g>
</g>
<!-- Node96&#45;&gt;Node97 -->
<g id="edge1" class="edge"><title>Node96&#45;&gt;Node97</title>
<path fill="none" stroke="midnightblue" d="M81.5277,-161.69C100.067,-176.921 138.078,-206.71 174,-226 181.442,-229.996 189.533,-233.726 197.593,-237.105"/>
<polygon fill="midnightblue" stroke="midnightblue" points="196.417,-240.404 207,-240.904 199.038,-233.914 196.417,-240.404"/>
</g>
<!-- Node98 -->
<g id="node3" class="node"><title>Node98</title>
<g id="a_node3"><a xlink:href="namespacemom__error__handler.html#ad5f00a53059c72fe2332d1436c80ca71" target="_top" xlink:title=" ">
<polygon fill="white" stroke="black" points="708.5,-115 708.5,-145 801.5,-145 801.5,-115 708.5,-115"/>
<text text-anchor="start" x="716.5" y="-133" font-family="Helvetica,sans-Serif" font-size="10.00">mom_error_handler::</text>
<text text-anchor="middle" x="755" y="-122" font-family="Helvetica,sans-Serif" font-size="10.00">is_root_pe</text>
</a>
</g>
</g>
<!-- Node96&#45;&gt;Node98 -->
<g id="edge2" class="edge"><title>Node96&#45;&gt;Node98</title>
<path fill="none" stroke="midnightblue" d="M105.856,-161.575C125.791,-166.569 151.123,-172.376 174,-176 335.714,-201.617 379.975,-216.565 542,-193 599.811,-184.592 663.789,-163.925 706.183,-148.54"/>
<polygon fill="midnightblue" stroke="midnightblue" points="707.504,-151.784 715.683,-145.05 705.09,-145.213 707.504,-151.784"/>
</g>
<!-- Node99 -->
<g id="node4" class="node"><title>Node99</title>
<g id="a_node4"><a xlink:href="namespacemom__document.html#aa23ed2e58e74e88a71de374685ee11ec" target="_top" xlink:title=" ">
<polygon fill="white" stroke="black" points="368.5,-164.5 368.5,-183.5 541.5,-183.5 541.5,-164.5 368.5,-164.5"/>
<text text-anchor="middle" x="455" y="-171.5" font-family="Helvetica,sans-Serif" font-size="10.00">mom_document::mesghasbeendocumented</text>
</a>
</g>
</g>
<!-- Node96&#45;&gt;Node99 -->
<g id="edge3" class="edge"><title>Node96&#45;&gt;Node99</title>
<path fill="none" stroke="midnightblue" d="M137.768,-155.883C198.899,-159.385 289.477,-164.574 358.044,-168.503"/>
<polygon fill="midnightblue" stroke="midnightblue" points="358.239,-172.019 368.423,-169.097 358.64,-165.031 358.239,-172.019"/>
</g>
<!-- Node101 -->
<g id="node6" class="node"><title>Node101</title>
<g id="a_node6"><a xlink:href="namespacemom__document.html#aab976b6c6c9c01833438d217fca228a4" target="_top" xlink:title=" ">
<polygon fill="white" stroke="black" points="204.5,-115 204.5,-145 301.5,-145 301.5,-115 204.5,-115"/>
<text text-anchor="start" x="212.5" y="-133" font-family="Helvetica,sans-Serif" font-size="10.00">mom_document::open</text>
<text text-anchor="middle" x="253" y="-122" font-family="Helvetica,sans-Serif" font-size="10.00">_doc_file</text>
</a>
</g>
</g>
<!-- Node96&#45;&gt;Node101 -->
<g id="edge6" class="edge"><title>Node96&#45;&gt;Node101</title>
<path fill="none" stroke="midnightblue" d="M137.511,-143.839C156.203,-141.58 176.313,-139.149 194.385,-136.964"/>
<polygon fill="midnightblue" stroke="midnightblue" points="194.969,-140.419 204.477,-135.745 194.129,-133.47 194.969,-140.419"/>
</g>
<!-- Node103 -->
<g id="node8" class="node"><title>Node103</title>
<g id="a_node8"><a xlink:href="namespacemom__document.html#a966b8926bf40ee436654a0048b2bf42a" target="_top" xlink:title=" ">
<polygon fill="white" stroke="black" points="207,-66 207,-96 299,-96 299,-66 207,-66"/>
<text text-anchor="start" x="215" y="-84" font-family="Helvetica,sans-Serif" font-size="10.00">mom_document::real</text>
<text text-anchor="middle" x="253" y="-73" font-family="Helvetica,sans-Serif" font-size="10.00">_string</text>
</a>
</g>
</g>
<!-- Node96&#45;&gt;Node103 -->
<g id="edge11" class="edge"><title>Node96&#45;&gt;Node103</title>
<path fill="none" stroke="midnightblue" d="M90.0615,-142.364C110.814,-132.578 144.289,-117.296 174,-106 181.383,-103.193 189.235,-100.427 197.004,-97.8167"/>
<polygon fill="midnightblue" stroke="midnightblue" points="198.357,-101.056 206.759,-94.6019 196.166,-94.4078 198.357,-101.056"/>
</g>
<!-- Node105 -->
<g id="node10" class="node"><title>Node105</title>
<g id="a_node10"><a xlink:href="namespacemom__document.html#a22d84550b1affd1037328c5117496a65" target="_top" xlink:title=" ">
<polygon fill="white" stroke="black" points="174,-27.5 174,-46.5 332,-46.5 332,-27.5 174,-27.5"/>
<text text-anchor="middle" x="253" y="-34.5" font-family="Helvetica,sans-Serif" font-size="10.00">mom_document::writemessageanddesc</text>
</a>
</g>
</g>
<!-- Node96&#45;&gt;Node105 -->
<g id="edge13" class="edge"><title>Node96&#45;&gt;Node105</title>
<path fill="none" stroke="midnightblue" d="M77.7554,-142.252C93.6664,-122.928 132.051,-79.6778 174,-57 179.121,-54.2316 184.64,-51.8347 190.291,-49.7616"/>
<polygon fill="midnightblue" stroke="midnightblue" points="191.498,-53.0488 199.881,-46.5701 189.287,-46.407 191.498,-53.0488"/>
</g>
<!-- Node100 -->
<g id="node5" class="node"><title>Node100</title>
<g id="a_node5"><a xlink:href="namespacemom__error__handler.html#a460cfb79a06c29fc249952c2a3710d67" target="_top" xlink:title=" ">
<polygon fill="white" stroke="black" points="578.5,-115 578.5,-145 671.5,-145 671.5,-115 578.5,-115"/>
<text text-anchor="start" x="586.5" y="-133" font-family="Helvetica,sans-Serif" font-size="10.00">mom_error_handler::</text>
<text text-anchor="middle" x="625" y="-122" font-family="Helvetica,sans-Serif" font-size="10.00">mom_error</text>
</a>
</g>
</g>
<!-- Node99&#45;&gt;Node100 -->
<g id="edge4" class="edge"><title>Node99&#45;&gt;Node100</title>
<path fill="none" stroke="midnightblue" d="M499.426,-164.401C513.091,-161.247 528.211,-157.618 542,-154 550.548,-151.757 559.559,-149.258 568.354,-146.744"/>
<polygon fill="midnightblue" stroke="midnightblue" points="569.52,-150.05 578.155,-143.912 567.577,-143.325 569.52,-150.05"/>
</g>
<!-- Node100&#45;&gt;Node98 -->
<g id="edge5" class="edge"><title>Node100&#45;&gt;Node98</title>
<path fill="none" stroke="midnightblue" d="M671.849,-130C680.408,-130 689.439,-130 698.258,-130"/>
<polygon fill="midnightblue" stroke="midnightblue" points="698.471,-133.5 708.471,-130 698.471,-126.5 698.471,-133.5"/>
</g>
<!-- Node101&#45;&gt;Node98 -->
<g id="edge7" class="edge"><title>Node101&#45;&gt;Node98</title>
<path fill="none" stroke="midnightblue" d="M301.252,-114.901C331.793,-105.171 366.192,-94.2786 368,-94 501.638,-73.4006 539.176,-80.6772 672,-106 680.681,-107.655 689.763,-109.84 698.588,-112.218"/>
<polygon fill="midnightblue" stroke="midnightblue" points="697.836,-115.641 708.409,-114.967 699.723,-108.901 697.836,-115.641"/>
</g>
<!-- Node102 -->
<g id="node7" class="node"><title>Node102</title>
<g id="a_node7"><a xlink:href="namespacemom__document.html#a5f2661445a72a7d0f774677e91366db5" target="_top" xlink:title=" ">
<polygon fill="white" stroke="black" points="406.5,-115 406.5,-145 503.5,-145 503.5,-115 406.5,-115"/>
<text text-anchor="start" x="414.5" y="-133" font-family="Helvetica,sans-Serif" font-size="10.00">mom_document::find</text>
<text text-anchor="middle" x="455" y="-122" font-family="Helvetica,sans-Serif" font-size="10.00">_unused_unit_number</text>
</a>
</g>
</g>
<!-- Node101&#45;&gt;Node102 -->
<g id="edge8" class="edge"><title>Node101&#45;&gt;Node102</title>
<path fill="none" stroke="midnightblue" d="M301.651,-130C329.97,-130 366.089,-130 396.05,-130"/>
<polygon fill="midnightblue" stroke="midnightblue" points="396.368,-133.5 406.368,-130 396.368,-126.5 396.368,-133.5"/>
</g>
<!-- Node101&#45;&gt;Node100 -->
<g id="edge10" class="edge"><title>Node101&#45;&gt;Node100</title>
<path fill="none" stroke="midnightblue" d="M301.63,-117.67C321.931,-113.016 345.972,-108.294 368,-106 444.918,-97.9912 465.449,-95.0276 542,-106 551.59,-107.375 561.624,-109.61 571.251,-112.177"/>
<polygon fill="midnightblue" stroke="midnightblue" points="570.527,-115.609 581.101,-114.951 572.424,-108.871 570.527,-115.609"/>
</g>
<!-- Node102&#45;&gt;Node100 -->
<g id="edge9" class="edge"><title>Node102&#45;&gt;Node100</title>
<path fill="none" stroke="midnightblue" d="M503.693,-130C523.784,-130 547.307,-130 568.197,-130"/>
<polygon fill="midnightblue" stroke="midnightblue" points="568.215,-133.5 578.215,-130 568.215,-126.5 568.215,-133.5"/>
</g>
<!-- Node104 -->
<g id="node9" class="node"><title>Node104</title>
<g id="a_node9"><a xlink:href="namespacemom__document.html#acbd7bf94c8e359a48ace95fe1f3d3bb4" target="_top" xlink:title=" ">
<polygon fill="white" stroke="black" points="375,-0.5 375,-19.5 535,-19.5 535,-0.5 375,-0.5"/>
<text text-anchor="middle" x="455" y="-7.5" font-family="Helvetica,sans-Serif" font-size="10.00">mom_document::testformattedfloatisreal</text>
</a>
</g>
</g>
<!-- Node103&#45;&gt;Node104 -->
<g id="edge12" class="edge"><title>Node103&#45;&gt;Node104</title>
<path fill="none" stroke="midnightblue" d="M299.242,-68.5135C310.16,-64.9531 321.656,-60.7358 332,-56 349.049,-48.1941 350.806,-41.4804 368,-34 378.444,-29.4564 389.978,-25.5438 401.115,-22.2744"/>
<polygon fill="midnightblue" stroke="midnightblue" points="402.08,-25.6388 410.762,-19.5672 400.189,-18.8991 402.08,-25.6388"/>
</g>
</g>
</svg>
        <g id="navigator" transform="translate(0 0)" fill="#404254">
                <rect fill="#f2f5e9" fill-opacity="0.5" stroke="#606060" stroke-width=".5" x="0" y="0" width="60" height="60"/>
                <use id="zoomplus" xlink:href="#zoomPlus" x="17" y="9" onmousedown="handleZoom(evt,'in')"/>
                <use id="zoomminus" xlink:href="#zoomMin" x="42" y="9" onmousedown="handleZoom(evt,'out')"/>
                <use id="reset" xlink:href="#resetDef" x="30" y="36" onmousedown="handleReset()"/>
                <g id="arrowUp" xlink:href="#dirArrow" transform="translate(30 24)" onmousedown="handlePan(0,-1)">
                  <use xlink:href="#rim" fill="#404040">
                        <set attributeName="fill" to="#808080" begin="arrowUp.mouseover" end="arrowUp.mouseout"/>
                  </use>
                  <path fill="none" stroke="white" stroke-width="1.5" d="M0,-3.0v7 M-2.5,-0.5L0,-3.0L2.5,-0.5"/>
                </g>
                <g id="arrowRight" xlink:href="#dirArrow" transform="rotate(90) translate(36 -43)" onmousedown="handlePan(1,0)">
                  <use xlink:href="#rim" fill="#404040">
                        <set attributeName="fill" to="#808080" begin="arrowRight.mouseover" end="arrowRight.mouseout"/>
                  </use>
                  <path fill="none" stroke="white" stroke-width="1.5" d="M0,-3.0v7 M-2.5,-0.5L0,-3.0L2.5,-0.5"/>
                </g>
                <g id="arrowDown" xlink:href="#dirArrow" transform="rotate(180) translate(-30 -48)" onmousedown="handlePan(0,1)">
                  <use xlink:href="#rim" fill="#404040">
                        <set attributeName="fill" to="#808080" begin="arrowDown.mouseover" end="arrowDown.mouseout"/>
                  </use>
                  <path fill="none" stroke="white" stroke-width="1.5" d="M0,-3.0v7 M-2.5,-0.5L0,-3.0L2.5,-0.5"/>
                </g>
                <g id="arrowLeft" xlink:href="#dirArrow" transform="rotate(270) translate(-36 17)" onmousedown="handlePan(-1,0)">
                  <use xlink:href="#rim" fill="#404040">
                        <set attributeName="fill" to="#808080" begin="arrowLeft.mouseover" end="arrowLeft.mouseout"/>
                  </use>
                  <path fill="none" stroke="white" stroke-width="1.5" d="M0,-3.0v7 M-2.5,-0.5L0,-3.0L2.5,-0.5"/>
                </g>
        </g>
        <svg viewBox="0 0 15 15" width="100%" height="30px" preserveAspectRatio="xMaxYMin meet">
         <g id="arrow_out" transform="scale(0.3 0.3)">
          <a xlink:href="namespacemom__document_aae79ba23b83e7e2be3dcc46f50ee0f69_cgraph_org.svg" target="_base">
           <rect id="button" ry="5" rx="5" y="6" x="6" height="38" width="38"
                fill="#f2f5e9" fill-opacity="0.5" stroke="#606060" stroke-width="1.0"/>
           <path id="arrow"
             d="M 11.500037,31.436501 C 11.940474,20.09759 22.043105,11.32322 32.158766,21.979434 L 37.068811,17.246167 C 37.068811,17.246167 37.088388,32 37.088388,32 L 22.160133,31.978069 C 22.160133,31.978069 26.997745,27.140456 26.997745,27.140456 C 18.528582,18.264221 13.291696,25.230495 11.500037,31.436501 z"
             style="fill:#404040;"/>
          </a>
         </g>
        </svg>
</svg>
