<?xml version="1.0" encoding="UTF-8" standalone="no"?>
<!DOCTYPE svg PUBLIC "-//W3C//DTD SVG 1.1//EN"
 "http://www.w3.org/Graphics/SVG/1.1/DTD/svg11.dtd">
<!-- Generated by graphviz version 2.30.1 (20170916.1124)
 -->
<!-- Title: mom_tracer_initialization_from_z::mom_initialize_tracer_from_z Pages: 1 -->
<svg width="420pt" height="240pt"
 viewBox="0.00 0.00 420.00 240.00" xmlns="http://www.w3.org/2000/svg" xmlns:xlink="http://www.w3.org/1999/xlink">
<g id="graph0" class="graph" transform="scale(1 1) rotate(0) translate(4 236)">
<title>mom_tracer_initialization_from_z::mom_initialize_tracer_from_z</title>
<polygon fill="white" stroke="white" points="-4,5 -4,-236 417,-236 417,5 -4,5"/>
<!-- Node34 -->
<g id="node1" class="node"><title>Node34</title>
<g id="a_node1"><a xlink:title=" ">
<polygon fill="#bfbfbf" stroke="black" points="0,-98.5 0,-139.5 104,-139.5 104,-98.5 0,-98.5"/>
<text text-anchor="start" x="8" y="-127.5" font-family="Helvetica,sans-Serif" font-size="10.00">mom_tracer_initialization</text>
<text text-anchor="start" x="8" y="-116.5" font-family="Helvetica,sans-Serif" font-size="10.00">_from_z::mom_initialize</text>
<text text-anchor="middle" x="52" y="-105.5" font-family="Helvetica,sans-Serif" font-size="10.00">_tracer_from_z</text>
</a>
</g>
</g>
<!-- Node35 -->
<g id="node2" class="node"><title>Node35</title>
<g id="a_node2"><a xlink:href="namespacemom__ale.html#aab30651699eb2cd8dc5a67c8e03474ee" target="_top" xlink:title="Remaps a single scalar between grids described by thicknesses h_src and h_dst. h_dst must be dimensio...">
<polygon fill="white" stroke="black" points="149,-202 149,-232 241,-232 241,-202 149,-202"/>
<text text-anchor="start" x="157" y="-220" font-family="Helvetica,sans-Serif" font-size="10.00">mom_ale::ale_remap</text>
<text text-anchor="middle" x="195" y="-209" font-family="Helvetica,sans-Serif" font-size="10.00">_scalar</text>
</a>
</g>
</g>
<!-- Node34&#45;&gt;Node35 -->
<g id="edge1" class="edge"><title>Node34&#45;&gt;Node35</title>
<path fill="none" stroke="midnightblue" d="M74.2735,-139.626C91.1609,-155.288 115.867,-176.672 140,-192 142.791,-193.772 145.727,-195.492 148.73,-197.145"/>
<polygon fill="midnightblue" stroke="midnightblue" points="147.369,-200.382 157.856,-201.888 150.597,-194.171 147.369,-200.382"/>
</g>
<!-- Node37 -->
<g id="node4" class="node"><title>Node37</title>
<g id="a_node4"><a xlink:href="namespacemom__error__handler.html#a9cda07a87815f0e5594066162b4345c3" target="_top" xlink:title="Writes a message about entering a subroutine if call tree reporting is active.">
<polygon fill="white" stroke="black" points="148.5,-153 148.5,-183 241.5,-183 241.5,-153 148.5,-153"/>
<text text-anchor="start" x="156.5" y="-171" font-family="Helvetica,sans-Serif" font-size="10.00">mom_error_handler::</text>
<text text-anchor="middle" x="195" y="-160" font-family="Helvetica,sans-Serif" font-size="10.00">calltree_enter</text>
</a>
</g>
</g>
<!-- Node34&#45;&gt;Node37 -->
<g id="edge3" class="edge"><title>Node34&#45;&gt;Node37</title>
<path fill="none" stroke="midnightblue" d="M104.303,-136.829C116.114,-140.933 128.704,-145.308 140.601,-149.443"/>
<polygon fill="midnightblue" stroke="midnightblue" points="139.806,-152.872 150.4,-152.848 142.104,-146.26 139.806,-152.872"/>
</g>
<!-- Node39 -->
<g id="node6" class="node"><title>Node39</title>
<g id="a_node6"><a xlink:href="namespacemom__error__handler.html#a88ea67781e2ed9b73ab7eac8ea5e8578" target="_top" xlink:title="Writes a message about leaving a subroutine if call tree reporting is active.">
<polygon fill="white" stroke="black" points="148.5,-104 148.5,-134 241.5,-134 241.5,-104 148.5,-104"/>
<text text-anchor="start" x="156.5" y="-122" font-family="Helvetica,sans-Serif" font-size="10.00">mom_error_handler::</text>
<text text-anchor="middle" x="195" y="-111" font-family="Helvetica,sans-Serif" font-size="10.00">calltree_leave</text>
</a>
</g>
</g>
<!-- Node34&#45;&gt;Node39 -->
<g id="edge5" class="edge"><title>Node34&#45;&gt;Node39</title>
<path fill="none" stroke="midnightblue" d="M104.303,-119C115.275,-119 126.919,-119 138.056,-119"/>
<polygon fill="midnightblue" stroke="midnightblue" points="138.107,-122.5 148.107,-119 138.107,-115.5 138.107,-122.5"/>
</g>
<!-- Node40 -->
<g id="node7" class="node"><title>Node40</title>
<g id="a_node7"><a xlink:href="namespacemom__tracer__initialization__from__z.html#a5f3dc84eae5f78304c8e366bf80e3afd" target="_top" xlink:title=" ">
<polygon fill="white" stroke="black" points="140,-43.5 140,-84.5 250,-84.5 250,-43.5 140,-43.5"/>
<text text-anchor="start" x="148" y="-72.5" font-family="Helvetica,sans-Serif" font-size="10.00">mom_tracer_initialization</text>
<text text-anchor="start" x="148" y="-61.5" font-family="Helvetica,sans-Serif" font-size="10.00">_from_z::horiz_interp_and</text>
<text text-anchor="middle" x="195" y="-50.5" font-family="Helvetica,sans-Serif" font-size="10.00">_extrap_tracer</text>
</a>
</g>
</g>
<!-- Node34&#45;&gt;Node40 -->
<g id="edge7" class="edge"><title>Node34&#45;&gt;Node40</title>
<path fill="none" stroke="midnightblue" d="M104.303,-98.9882C113.186,-95.5232 122.509,-91.8865 131.647,-88.322"/>
<polygon fill="midnightblue" stroke="midnightblue" points="133.032,-91.5386 141.077,-84.6438 130.489,-85.0172 133.032,-91.5386"/>
</g>
<!-- Node43 -->
<g id="node10" class="node"><title>Node43</title>
<g id="a_node10"><a xlink:href="namespacemom__tracer__initialization__from__z.html#adcb9907744147d5e873af4b5912044ea" target="_top" xlink:title=" ">
<polygon fill="white" stroke="black" points="297,-0 297,-30 401,-30 401,-0 297,-0"/>
<text text-anchor="start" x="305" y="-18" font-family="Helvetica,sans-Serif" font-size="10.00">mom_tracer_initialization</text>
<text text-anchor="middle" x="349" y="-7" font-family="Helvetica,sans-Serif" font-size="10.00">_from_z::mystats</text>
</a>
</g>
</g>
<!-- Node34&#45;&gt;Node43 -->
<g id="edge11" class="edge"><title>Node34&#45;&gt;Node43</title>
<path fill="none" stroke="midnightblue" d="M67.2979,-98.4576C82.6797,-78.1939 109.132,-48.2477 140,-34 186.025,-12.7564 243.808,-9.04806 286.783,-10.0587"/>
<polygon fill="midnightblue" stroke="midnightblue" points="286.711,-13.5581 296.82,-10.3862 286.939,-6.56187 286.711,-13.5581"/>
</g>
<!-- Node36 -->
<g id="node3" class="node"><title>Node36</title>
<g id="a_node3"><a xlink:href="namespacemom__remapping.html#a494289c324db2496816f2687f4ceea76" target="_top" xlink:title="Calculates the change in interface positions based on h1 and h2.">
<polygon fill="white" stroke="black" points="286.5,-207.5 286.5,-226.5 411.5,-226.5 411.5,-207.5 286.5,-207.5"/>
<text text-anchor="middle" x="349" y="-214.5" font-family="Helvetica,sans-Serif" font-size="10.00">mom_remapping::dzfromh1h2</text>
</a>
</g>
</g>
<!-- Node35&#45;&gt;Node36 -->
<g id="edge2" class="edge"><title>Node35&#45;&gt;Node36</title>
<path fill="none" stroke="midnightblue" d="M241.193,-217C252.269,-217 264.395,-217 276.376,-217"/>
<polygon fill="midnightblue" stroke="midnightblue" points="276.38,-220.5 286.38,-217 276.379,-213.5 276.38,-220.5"/>
</g>
<!-- Node38 -->
<g id="node5" class="node"><title>Node38</title>
<g id="a_node5"><a xlink:href="namespacemom__error__handler.html#ad5f00a53059c72fe2332d1436c80ca71" target="_top" xlink:title=" ">
<polygon fill="white" stroke="black" points="302.5,-150 302.5,-180 395.5,-180 395.5,-150 302.5,-150"/>
<text text-anchor="start" x="310.5" y="-168" font-family="Helvetica,sans-Serif" font-size="10.00">mom_error_handler::</text>
<text text-anchor="middle" x="349" y="-157" font-family="Helvetica,sans-Serif" font-size="10.00">is_root_pe</text>
</a>
</g>
</g>
<!-- Node37&#45;&gt;Node38 -->
<g id="edge4" class="edge"><title>Node37&#45;&gt;Node38</title>
<path fill="none" stroke="midnightblue" d="M241.605,-167.1C257.537,-166.785 275.602,-166.429 292.265,-166.1"/>
<polygon fill="midnightblue" stroke="midnightblue" points="292.498,-169.596 302.427,-165.899 292.36,-162.598 292.498,-169.596"/>
</g>
<!-- Node39&#45;&gt;Node38 -->
<g id="edge6" class="edge"><title>Node39&#45;&gt;Node38</title>
<path fill="none" stroke="midnightblue" d="M241.605,-132.802C257.687,-137.668 275.943,-143.193 292.736,-148.275"/>
<polygon fill="midnightblue" stroke="midnightblue" points="291.842,-151.662 302.427,-151.208 293.87,-144.962 291.842,-151.662"/>
</g>
<!-- Node41 -->
<g id="node8" class="node"><title>Node41</title>
<g id="a_node8"><a xlink:href="namespacemom__tracer__initialization__from__z.html#a3e944fc452963865258b02181f817283" target="_top" xlink:title=" ">
<polygon fill="white" stroke="black" points="297,-98 297,-128 401,-128 401,-98 297,-98"/>
<text text-anchor="start" x="305" y="-116" font-family="Helvetica,sans-Serif" font-size="10.00">mom_tracer_initialization</text>
<text text-anchor="middle" x="349" y="-105" font-family="Helvetica,sans-Serif" font-size="10.00">_from_z::fill_miss_2d</text>
</a>
</g>
</g>
<!-- Node40&#45;&gt;Node41 -->
<g id="edge8" class="edge"><title>Node40&#45;&gt;Node41</title>
<path fill="none" stroke="midnightblue" d="M250.017,-81.4135C263.476,-85.752 277.94,-90.4149 291.514,-94.7906"/>
<polygon fill="midnightblue" stroke="midnightblue" points="290.621,-98.1803 301.213,-97.9174 292.769,-91.5179 290.621,-98.1803"/>
</g>
<!-- Node42 -->
<g id="node9" class="node"><title>Node42</title>
<g id="a_node9"><a xlink:href="namespacemom__tracer__initialization__from__z.html#ac3910d4783aaa36b1e2c21ff4ee08453" target="_top" xlink:title=" ">
<polygon fill="white" stroke="black" points="297,-49 297,-79 401,-79 401,-49 297,-49"/>
<text text-anchor="start" x="305" y="-67" font-family="Helvetica,sans-Serif" font-size="10.00">mom_tracer_initialization</text>
<text text-anchor="middle" x="349" y="-56" font-family="Helvetica,sans-Serif" font-size="10.00">_from_z::meshgrid</text>
</a>
</g>
</g>
<!-- Node40&#45;&gt;Node42 -->
<g id="edge9" class="edge"><title>Node40&#45;&gt;Node42</title>
<path fill="none" stroke="midnightblue" d="M250.017,-64C261.95,-64 274.674,-64 286.867,-64"/>
<polygon fill="midnightblue" stroke="midnightblue" points="286.955,-67.5001 296.955,-64 286.955,-60.5001 286.955,-67.5001"/>
</g>
<!-- Node40&#45;&gt;Node43 -->
<g id="edge10" class="edge"><title>Node40&#45;&gt;Node43</title>
<path fill="none" stroke="midnightblue" d="M250.017,-46.5865C263.476,-42.248 277.94,-37.5851 291.514,-33.2094"/>
<polygon fill="midnightblue" stroke="midnightblue" points="292.769,-36.4821 301.213,-30.0826 290.621,-29.8197 292.769,-36.4821"/>
</g>
</g>
</svg>
