<?xml version="1.0" encoding="UTF-8" standalone="no"?>
<!DOCTYPE svg PUBLIC "-//W3C//DTD SVG 1.1//EN"
 "http://www.w3.org/Graphics/SVG/1.1/DTD/svg11.dtd">
<!-- Generated by graphviz version 2.30.1 (20170916.1124)
 -->
<!-- Title: mom_meke::meke_equilibrium Pages: 1 -->
<svg width="510pt" height="28pt"
 viewBox="0.00 0.00 510.00 28.00" xmlns="http://www.w3.org/2000/svg" xmlns:xlink="http://www.w3.org/1999/xlink">
<g id="graph0" class="graph" transform="scale(1 1) rotate(0) translate(4 24)">
<title>mom_meke::meke_equilibrium</title>
<polygon fill="white" stroke="white" points="-4,5 -4,-24 507,-24 507,5 -4,5"/>
<!-- Node14 -->
<g id="node1" class="node"><title>Node14</title>
<g id="a_node1"><a xlink:title="Calculates the equilibrium solutino where the source depends only on MEKE diffusivity and there is no...">
<polygon fill="#bfbfbf" stroke="black" points="376.5,-0.5 376.5,-19.5 501.5,-19.5 501.5,-0.5 376.5,-0.5"/>
<text text-anchor="middle" x="439" y="-7.5" font-family="Helvetica,sans-Serif" font-size="10.00">mom_meke::meke_equilibrium</text>
</a>
</g>
</g>
<!-- Node15 -->
<g id="node2" class="node"><title>Node15</title>
<g id="a_node2"><a xlink:href="namespacemom__meke.html#adff303c8c542ec848294078e4b3bc010" target="_top" xlink:title="Integrates forward&#45;in&#45;time the MEKE eddy energy equation. See MEKE equations.">
<polygon fill="white" stroke="black" points="206,-0.5 206,-19.5 340,-19.5 340,-0.5 206,-0.5"/>
<text text-anchor="middle" x="273" y="-7.5" font-family="Helvetica,sans-Serif" font-size="10.00">mom_meke::step_forward_meke</text>
</a>
</g>
</g>
<!-- Node14&#45;&gt;Node15 -->
<g id="edge1" class="edge"><title>Node14&#45;&gt;Node15</title>
<path fill="none" stroke="midnightblue" d="M366.376,-10C357.7,-10 348.866,-10 340.271,-10"/>
<polygon fill="midnightblue" stroke="midnightblue" points="366.466,-13.5001 376.466,-10 366.466,-6.5001 366.466,-13.5001"/>
</g>
<!-- Node16 -->
<g id="node3" class="node"><title>Node16</title>
<g id="a_node3"><a xlink:href="namespacemom.html#a4c8332b095c6d295084089aa6b3b678a" target="_top" xlink:title="This subroutine orchestrates the time stepping of MOM. The adiabatic dynamics are stepped by calls to...">
<polygon fill="white" stroke="black" points="92.5,-0.5 92.5,-19.5 169.5,-19.5 169.5,-0.5 92.5,-0.5"/>
<text text-anchor="middle" x="131" y="-7.5" font-family="Helvetica,sans-Serif" font-size="10.00">mom::step_mom</text>
</a>
</g>
</g>
<!-- Node15&#45;&gt;Node16 -->
<g id="edge2" class="edge"><title>Node15&#45;&gt;Node16</title>
<path fill="none" stroke="midnightblue" d="M195.599,-10C186.686,-10 177.913,-10 169.864,-10"/>
<polygon fill="midnightblue" stroke="midnightblue" points="195.69,-13.5001 205.69,-10 195.69,-6.5001 195.69,-13.5001"/>
</g>
<!-- Node17 -->
<g id="node4" class="node"><title>Node17</title>
<g id="a_node4"><a xlink:href="MOM__driver_8F90.html#a08fffeb2d8e8acbf9ed4609be6d258c6" target="_top" xlink:title=" ">
<polygon fill="white" stroke="black" points="0,-0.5 0,-19.5 56,-19.5 56,-0.5 0,-0.5"/>
<text text-anchor="middle" x="28" y="-7.5" font-family="Helvetica,sans-Serif" font-size="10.00">mom_main</text>
</a>
</g>
</g>
<!-- Node16&#45;&gt;Node17 -->
<g id="edge3" class="edge"><title>Node16&#45;&gt;Node17</title>
<path fill="none" stroke="midnightblue" d="M82.3728,-10C73.3999,-10 64.3057,-10 56.2281,-10"/>
<polygon fill="midnightblue" stroke="midnightblue" points="82.3914,-13.5001 92.3913,-10 82.3913,-6.5001 82.3914,-13.5001"/>
</g>
</g>
</svg>
