<?xml version="1.0" encoding="UTF-8" standalone="no"?>
<!DOCTYPE svg PUBLIC "-//W3C//DTD SVG 1.1//EN"
 "http://www.w3.org/Graphics/SVG/1.1/DTD/svg11.dtd">
<!-- Generated by graphviz version 2.30.1 (20170916.1124)
 -->
<!-- Title: mom_verticalgrid::get_tr_flux_units Pages: 1 -->
<svg width="362pt" height="38pt"
 viewBox="0.00 0.00 362.00 38.00" xmlns="http://www.w3.org/2000/svg" xmlns:xlink="http://www.w3.org/1999/xlink">
<g id="graph0" class="graph" transform="scale(1 1) rotate(0) translate(4 34)">
<title>mom_verticalgrid::get_tr_flux_units</title>
<polygon fill="white" stroke="white" points="-4,5 -4,-34 359,-34 359,5 -4,5"/>
<!-- Node20 -->
<g id="node1" class="node"><title>Node20</title>
<g id="a_node1"><a xlink:title="Returns the model&#39;s tracer flux units.">
<polygon fill="#bfbfbf" stroke="black" points="0.5,-0 0.5,-30 93.5,-30 93.5,-0 0.5,-0"/>
<text text-anchor="start" x="8.5" y="-18" font-family="Helvetica,sans-Serif" font-size="10.00">mom_verticalgrid::get</text>
<text text-anchor="middle" x="47" y="-7" font-family="Helvetica,sans-Serif" font-size="10.00">_tr_flux_units</text>
</a>
</g>
</g>
<!-- Node21 -->
<g id="node2" class="node"><title>Node21</title>
<g id="a_node2"><a xlink:href="namespacemom__error__handler.html#a460cfb79a06c29fc249952c2a3710d67" target="_top" xlink:title=" ">
<polygon fill="white" stroke="black" points="130.5,-0 130.5,-30 223.5,-30 223.5,-0 130.5,-0"/>
<text text-anchor="start" x="138.5" y="-18" font-family="Helvetica,sans-Serif" font-size="10.00">mom_error_handler::</text>
<text text-anchor="middle" x="177" y="-7" font-family="Helvetica,sans-Serif" font-size="10.00">mom_error</text>
</a>
</g>
</g>
<!-- Node20&#45;&gt;Node21 -->
<g id="edge1" class="edge"><title>Node20&#45;&gt;Node21</title>
<path fill="none" stroke="midnightblue" d="M93.8494,-15C102.408,-15 111.439,-15 120.258,-15"/>
<polygon fill="midnightblue" stroke="midnightblue" points="120.471,-18.5001 130.471,-15 120.471,-11.5001 120.471,-18.5001"/>
</g>
<!-- Node22 -->
<g id="node3" class="node"><title>Node22</title>
<g id="a_node3"><a xlink:href="namespacemom__error__handler.html#ad5f00a53059c72fe2332d1436c80ca71" target="_top" xlink:title=" ">
<polygon fill="white" stroke="black" points="260.5,-0 260.5,-30 353.5,-30 353.5,-0 260.5,-0"/>
<text text-anchor="start" x="268.5" y="-18" font-family="Helvetica,sans-Serif" font-size="10.00">mom_error_handler::</text>
<text text-anchor="middle" x="307" y="-7" font-family="Helvetica,sans-Serif" font-size="10.00">is_root_pe</text>
</a>
</g>
</g>
<!-- Node21&#45;&gt;Node22 -->
<g id="edge2" class="edge"><title>Node21&#45;&gt;Node22</title>
<path fill="none" stroke="midnightblue" d="M223.849,-15C232.408,-15 241.439,-15 250.258,-15"/>
<polygon fill="midnightblue" stroke="midnightblue" points="250.471,-18.5001 260.471,-15 250.471,-11.5001 250.471,-18.5001"/>
</g>
</g>
</svg>
