<?xml version="1.0" encoding="UTF-8" standalone="no"?>
<!DOCTYPE svg PUBLIC "-//W3C//DTD SVG 1.1//EN"
 "http://www.w3.org/Graphics/SVG/1.1/DTD/svg11.dtd">
<!-- Generated by graphviz version 2.30.1 (20170916.1124)
 -->
<!-- Title: user_initialization::user_set_rotation Pages: 1 -->
<svg width="352pt" height="87pt"
 viewBox="0.00 0.00 352.00 87.00" xmlns="http://www.w3.org/2000/svg" xmlns:xlink="http://www.w3.org/1999/xlink">
<g id="graph0" class="graph" transform="scale(1 1) rotate(0) translate(4 83)">
<title>user_initialization::user_set_rotation</title>
<polygon fill="white" stroke="white" points="-4,5 -4,-83 349,-83 349,5 -4,5"/>
<!-- Node48 -->
<g id="node1" class="node"><title>Node48</title>
<g id="a_node1"><a xlink:title=" ">
<polygon fill="#bfbfbf" stroke="black" points="0.5,-24 0.5,-54 83.5,-54 83.5,-24 0.5,-24"/>
<text text-anchor="start" x="8.5" y="-42" font-family="Helvetica,sans-Serif" font-size="10.00">user_initialization</text>
<text text-anchor="middle" x="42" y="-31" font-family="Helvetica,sans-Serif" font-size="10.00">::user_set_rotation</text>
</a>
</g>
</g>
<!-- Node49 -->
<g id="node2" class="node"><title>Node49</title>
<g id="a_node2"><a xlink:href="namespacemom__error__handler.html#a460cfb79a06c29fc249952c2a3710d67" target="_top" xlink:title=" ">
<polygon fill="white" stroke="black" points="120.5,-49 120.5,-79 213.5,-79 213.5,-49 120.5,-49"/>
<text text-anchor="start" x="128.5" y="-67" font-family="Helvetica,sans-Serif" font-size="10.00">mom_error_handler::</text>
<text text-anchor="middle" x="167" y="-56" font-family="Helvetica,sans-Serif" font-size="10.00">mom_error</text>
</a>
</g>
</g>
<!-- Node48&#45;&gt;Node49 -->
<g id="edge1" class="edge"><title>Node48&#45;&gt;Node49</title>
<path fill="none" stroke="midnightblue" d="M83.6157,-47.2552C92.157,-48.9913 101.308,-50.8513 110.293,-52.6774"/>
<polygon fill="midnightblue" stroke="midnightblue" points="109.828,-56.1545 120.325,-54.7165 111.223,-49.2947 109.828,-56.1545"/>
</g>
<!-- Node51 -->
<g id="node4" class="node"><title>Node51</title>
<g id="a_node4"><a xlink:href="namespaceuser__initialization.html#aebfc0db710e83bae83f08e1a774256dd" target="_top" xlink:title="Write output about the parameter values being used.">
<polygon fill="white" stroke="black" points="128.5,-0 128.5,-30 205.5,-30 205.5,-0 128.5,-0"/>
<text text-anchor="start" x="136.5" y="-18" font-family="Helvetica,sans-Serif" font-size="10.00">user_initialization</text>
<text text-anchor="middle" x="167" y="-7" font-family="Helvetica,sans-Serif" font-size="10.00">::write_user_log</text>
</a>
</g>
</g>
<!-- Node48&#45;&gt;Node51 -->
<g id="edge3" class="edge"><title>Node48&#45;&gt;Node51</title>
<path fill="none" stroke="midnightblue" d="M83.6157,-31.075C94.7647,-28.8996 106.953,-26.5214 118.453,-24.2774"/>
<polygon fill="midnightblue" stroke="midnightblue" points="119.195,-27.6987 128.34,-22.3483 117.855,-20.8283 119.195,-27.6987"/>
</g>
<!-- Node50 -->
<g id="node3" class="node"><title>Node50</title>
<g id="a_node3"><a xlink:href="namespacemom__error__handler.html#ad5f00a53059c72fe2332d1436c80ca71" target="_top" xlink:title=" ">
<polygon fill="white" stroke="black" points="250.5,-49 250.5,-79 343.5,-79 343.5,-49 250.5,-49"/>
<text text-anchor="start" x="258.5" y="-67" font-family="Helvetica,sans-Serif" font-size="10.00">mom_error_handler::</text>
<text text-anchor="middle" x="297" y="-56" font-family="Helvetica,sans-Serif" font-size="10.00">is_root_pe</text>
</a>
</g>
</g>
<!-- Node49&#45;&gt;Node50 -->
<g id="edge2" class="edge"><title>Node49&#45;&gt;Node50</title>
<path fill="none" stroke="midnightblue" d="M213.849,-64C222.408,-64 231.439,-64 240.258,-64"/>
<polygon fill="midnightblue" stroke="midnightblue" points="240.471,-67.5001 250.471,-64 240.471,-60.5001 240.471,-67.5001"/>
</g>
</g>
</svg>
