<?xml version="1.0" encoding="UTF-8" standalone="no"?>
<!DOCTYPE svg PUBLIC "-//W3C//DTD SVG 1.1//EN"
 "http://www.w3.org/Graphics/SVG/1.1/DTD/svg11.dtd">
<!-- Generated by graphviz version 2.30.1 (20170916.1124)
 -->
<!-- Title: mom_surface_forcing::surface_forcing_end Pages: 1 -->
<svg width="262pt" height="38pt"
 viewBox="0.00 0.00 262.00 38.00" xmlns="http://www.w3.org/2000/svg" xmlns:xlink="http://www.w3.org/1999/xlink">
<g id="graph0" class="graph" transform="scale(1 1) rotate(0) translate(4 34)">
<title>mom_surface_forcing::surface_forcing_end</title>
<polygon fill="white" stroke="white" points="-4,5 -4,-34 259,-34 259,5 -4,5"/>
<!-- Node87 -->
<g id="node1" class="node"><title>Node87</title>
<g id="a_node1"><a xlink:title=" ">
<polygon fill="#bfbfbf" stroke="black" points="0,-0 0,-30 94,-30 94,-0 0,-0"/>
<text text-anchor="start" x="8" y="-18" font-family="Helvetica,sans-Serif" font-size="10.00">mom_surface_forcing</text>
<text text-anchor="middle" x="47" y="-7" font-family="Helvetica,sans-Serif" font-size="10.00">::surface_forcing_end</text>
</a>
</g>
</g>
<!-- Node88 -->
<g id="node2" class="node"><title>Node88</title>
<g id="a_node2"><a xlink:href="namespacemom__forcing__type.html#a432b1cbc47ab082b64bf7007a8674973" target="_top" xlink:title="Deallocate the forcing type.">
<polygon fill="white" stroke="black" points="130.5,-0 130.5,-30 253.5,-30 253.5,-0 130.5,-0"/>
<text text-anchor="start" x="138.5" y="-18" font-family="Helvetica,sans-Serif" font-size="10.00">mom_forcing_type::deallocate</text>
<text text-anchor="middle" x="192" y="-7" font-family="Helvetica,sans-Serif" font-size="10.00">_forcing_type</text>
</a>
</g>
</g>
<!-- Node87&#45;&gt;Node88 -->
<g id="edge1" class="edge"><title>Node87&#45;&gt;Node88</title>
<path fill="none" stroke="midnightblue" d="M94.0332,-15C102.457,-15 111.423,-15 120.371,-15"/>
<polygon fill="midnightblue" stroke="midnightblue" points="120.436,-18.5001 130.436,-15 120.436,-11.5001 120.436,-18.5001"/>
</g>
</g>
</svg>
