<?xml version="1.0" encoding="UTF-8" standalone="no"?>
<!DOCTYPE svg PUBLIC "-//W3C//DTD SVG 1.1//EN"
 "http://www.w3.org/Graphics/SVG/1.1/DTD/svg11.dtd">
<!-- Generated by graphviz version 2.30.1 (20170916.1124)
 -->
<!-- Title: mom_spatial_means::adjust_area_mean_to_zero Pages: 1 -->
<svg width="258pt" height="38pt"
 viewBox="0.00 0.00 258.00 38.00" xmlns="http://www.w3.org/2000/svg" xmlns:xlink="http://www.w3.org/1999/xlink">
<g id="graph0" class="graph" transform="scale(1 1) rotate(0) translate(4 34)">
<title>mom_spatial_means::adjust_area_mean_to_zero</title>
<polygon fill="white" stroke="white" points="-4,5 -4,-34 255,-34 255,5 -4,5"/>
<!-- Node1 -->
<g id="node1" class="node"><title>Node1</title>
<g id="a_node1"><a xlink:title="Adjust 2d array such that area mean is zero without moving the zero contour.">
<polygon fill="#bfbfbf" stroke="black" points="134.5,-0 134.5,-30 249.5,-30 249.5,-0 134.5,-0"/>
<text text-anchor="start" x="142.5" y="-18" font-family="Helvetica,sans-Serif" font-size="10.00">mom_spatial_means::</text>
<text text-anchor="middle" x="192" y="-7" font-family="Helvetica,sans-Serif" font-size="10.00">adjust_area_mean_to_zero</text>
</a>
</g>
</g>
<!-- Node2 -->
<g id="node2" class="node"><title>Node2</title>
<g id="a_node2"><a xlink:href="namespacemom__surface__forcing.html#abca0c231a823abb684ce9f7d74f5f965" target="_top" xlink:title=" ">
<polygon fill="white" stroke="black" points="0,-0 0,-30 98,-30 98,-0 0,-0"/>
<text text-anchor="start" x="8" y="-18" font-family="Helvetica,sans-Serif" font-size="10.00">mom_surface_forcing</text>
<text text-anchor="middle" x="49" y="-7" font-family="Helvetica,sans-Serif" font-size="10.00">::convert_iob_to_fluxes</text>
</a>
</g>
</g>
<!-- Node1&#45;&gt;Node2 -->
<g id="edge1" class="edge"><title>Node1&#45;&gt;Node2</title>
<path fill="none" stroke="midnightblue" d="M124.278,-15C115.544,-15 106.733,-15 98.3824,-15"/>
<polygon fill="midnightblue" stroke="midnightblue" points="124.462,-18.5001 134.462,-15 124.462,-11.5001 124.462,-18.5001"/>
</g>
</g>
</svg>
