<?xml version="1.0" encoding="UTF-8" standalone="no"?>
<!DOCTYPE svg PUBLIC "-//W3C//DTD SVG 1.1//EN"
 "http://www.w3.org/Graphics/SVG/1.1/DTD/svg11.dtd">
<!-- Generated by graphviz version 2.30.1 (20170916.1124)
 -->
<!-- Title: mom_coms::regularize_ints Pages: 1 -->
<svg width="500pt" height="194pt"
 viewBox="0.00 0.00 500.00 194.00" xmlns="http://www.w3.org/2000/svg" xmlns:xlink="http://www.w3.org/1999/xlink">
<g id="graph0" class="graph" transform="scale(1 1) rotate(0) translate(4 190)">
<title>mom_coms::regularize_ints</title>
<polygon fill="white" stroke="white" points="-4,5 -4,-190 497,-190 497,5 -4,5"/>
<!-- Node82 -->
<g id="node1" class="node"><title>Node82</title>
<g id="a_node1"><a xlink:title=" ">
<polygon fill="#bfbfbf" stroke="black" points="378,-54.5 378,-73.5 492,-73.5 492,-54.5 378,-54.5"/>
<text text-anchor="middle" x="435" y="-61.5" font-family="Helvetica,sans-Serif" font-size="10.00">mom_coms::regularize_ints</text>
</a>
</g>
</g>
<!-- Node83 -->
<g id="node2" class="node"><title>Node83</title>
<g id="a_node2"><a xlink:href="namespacemom__coms.html#a4aaf51b372bcaf7b46939145577eff92" target="_top" xlink:title=" ">
<polygon fill="white" stroke="black" points="237.5,-98.5 237.5,-117.5 340.5,-117.5 340.5,-98.5 237.5,-98.5"/>
<text text-anchor="middle" x="289" y="-105.5" font-family="Helvetica,sans-Serif" font-size="10.00">mom_coms::efp_to_real</text>
</a>
</g>
</g>
<!-- Node82&#45;&gt;Node83 -->
<g id="edge1" class="edge"><title>Node82&#45;&gt;Node83</title>
<path fill="none" stroke="midnightblue" d="M392.998,-76.5285C370.173,-83.5027 342.212,-92.0465 321.185,-98.4713"/>
<polygon fill="midnightblue" stroke="midnightblue" points="394.213,-79.8168 402.754,-73.5473 392.168,-73.1224 394.213,-79.8168"/>
</g>
<!-- Node89 -->
<g id="node8" class="node"><title>Node89</title>
<g id="a_node8"><a xlink:href="namespacemom__coms.html#a99e145acc9227dad1bddc6cf211e4daf" target="_top" xlink:title=" ">
<polygon fill="white" stroke="black" points="236.5,-49 236.5,-79 341.5,-79 341.5,-49 236.5,-49"/>
<text text-anchor="start" x="244.5" y="-67" font-family="Helvetica,sans-Serif" font-size="10.00">mom_coms::reproducing</text>
<text text-anchor="middle" x="289" y="-56" font-family="Helvetica,sans-Serif" font-size="10.00">_sum_2d</text>
</a>
</g>
</g>
<!-- Node82&#45;&gt;Node89 -->
<g id="edge7" class="edge"><title>Node82&#45;&gt;Node89</title>
<path fill="none" stroke="midnightblue" d="M367.806,-64C359.125,-64 350.331,-64 341.933,-64"/>
<polygon fill="midnightblue" stroke="midnightblue" points="367.914,-67.5001 377.914,-64 367.913,-60.5001 367.914,-67.5001"/>
</g>
<!-- Node90 -->
<g id="node9" class="node"><title>Node90</title>
<g id="a_node9"><a xlink:href="namespacemom__coms.html#aa21533e0badf43b331b5f7a9730c005f" target="_top" xlink:title=" ">
<polygon fill="white" stroke="black" points="236.5,-0 236.5,-30 341.5,-30 341.5,-0 236.5,-0"/>
<text text-anchor="start" x="244.5" y="-18" font-family="Helvetica,sans-Serif" font-size="10.00">mom_coms::reproducing</text>
<text text-anchor="middle" x="289" y="-7" font-family="Helvetica,sans-Serif" font-size="10.00">_sum_3d</text>
</a>
</g>
</g>
<!-- Node82&#45;&gt;Node90 -->
<g id="edge8" class="edge"><title>Node82&#45;&gt;Node90</title>
<path fill="none" stroke="midnightblue" d="M396.356,-51.1907C377.312,-44.7103 354.079,-36.8045 334.19,-30.037"/>
<polygon fill="midnightblue" stroke="midnightblue" points="395.299,-54.528 405.894,-54.436 397.554,-47.9011 395.299,-54.528"/>
</g>
<!-- Node84 -->
<g id="node3" class="node"><title>Node84</title>
<g id="a_node3"><a xlink:href="namespacemom__coms.html#a6cbcab29d87b134dcd5c4bdb922b4344" target="_top" xlink:title=" ">
<polygon fill="white" stroke="black" points="102.5,-156 102.5,-186 189.5,-186 189.5,-156 102.5,-156"/>
<text text-anchor="start" x="110.5" y="-174" font-family="Helvetica,sans-Serif" font-size="10.00">mom_coms::efp_list</text>
<text text-anchor="middle" x="146" y="-163" font-family="Helvetica,sans-Serif" font-size="10.00">_sum_across_pes</text>
</a>
</g>
</g>
<!-- Node83&#45;&gt;Node84 -->
<g id="edge2" class="edge"><title>Node83&#45;&gt;Node84</title>
<path fill="none" stroke="midnightblue" d="M257.442,-121.654C234.832,-131.756 204.043,-145.513 180.717,-155.935"/>
<polygon fill="midnightblue" stroke="midnightblue" points="258.883,-124.843 266.585,-117.568 256.027,-118.452 258.883,-124.843"/>
</g>
<!-- Node85 -->
<g id="node4" class="node"><title>Node85</title>
<g id="a_node4"><a xlink:href="namespacemom__coms.html#a8f23ba3eaaf03101afa61c339fac805b" target="_top" xlink:title=" ">
<polygon fill="white" stroke="black" points="92.5,-117.5 92.5,-136.5 199.5,-136.5 199.5,-117.5 92.5,-117.5"/>
<text text-anchor="middle" x="146" y="-124.5" font-family="Helvetica,sans-Serif" font-size="10.00">mom_coms::efp_real_diff</text>
</a>
</g>
</g>
<!-- Node83&#45;&gt;Node85 -->
<g id="edge3" class="edge"><title>Node83&#45;&gt;Node85</title>
<path fill="none" stroke="midnightblue" d="M227.514,-116.151C218.202,-117.405 208.652,-118.692 199.531,-119.921"/>
<polygon fill="midnightblue" stroke="midnightblue" points="228.051,-119.61 237.494,-114.806 227.116,-112.673 228.051,-119.61"/>
</g>
<!-- Node86 -->
<g id="node5" class="node"><title>Node86</title>
<g id="a_node5"><a xlink:href="MOM__sum__driver_8F90.html#a08fffeb2d8e8acbf9ed4609be6d258c6" target="_top" xlink:title=" ">
<polygon fill="white" stroke="black" points="118,-79.5 118,-98.5 174,-98.5 174,-79.5 118,-79.5"/>
<text text-anchor="middle" x="146" y="-86.5" font-family="Helvetica,sans-Serif" font-size="10.00">mom_main</text>
</a>
</g>
</g>
<!-- Node83&#45;&gt;Node86 -->
<g id="edge4" class="edge"><title>Node83&#45;&gt;Node86</title>
<path fill="none" stroke="midnightblue" d="M227.331,-99.8248C208.807,-97.3286 189.36,-94.708 174.24,-92.6706"/>
<polygon fill="midnightblue" stroke="midnightblue" points="227.116,-103.327 237.494,-101.194 228.051,-96.39 227.116,-103.327"/>
</g>
<!-- Node87 -->
<g id="node6" class="node"><title>Node87</title>
<g id="a_node6"><a xlink:href="namespacemom__sum__output.html#aef94e597f85f3ee439b2ddc2b46a043a" target="_top" xlink:title=" ">
<polygon fill="white" stroke="black" points="94.5,-30 94.5,-60 197.5,-60 197.5,-30 94.5,-30"/>
<text text-anchor="start" x="102.5" y="-48" font-family="Helvetica,sans-Serif" font-size="10.00">mom_sum_output::write</text>
<text text-anchor="middle" x="146" y="-37" font-family="Helvetica,sans-Serif" font-size="10.00">_energy</text>
</a>
</g>
</g>
<!-- Node83&#45;&gt;Node87 -->
<g id="edge5" class="edge"><title>Node83&#45;&gt;Node87</title>
<path fill="none" stroke="midnightblue" d="M252.045,-94.6916C246.633,-92.5385 241.144,-90.2689 236,-88 219.633,-80.7808 216.091,-77.8163 200,-70 193.32,-66.7549 186.14,-63.3277 179.288,-60.0861"/>
<polygon fill="midnightblue" stroke="midnightblue" points="251.023,-98.0498 261.612,-98.4159 253.563,-91.5266 251.023,-98.0498"/>
</g>
<!-- Node88 -->
<g id="node7" class="node"><title>Node88</title>
<g id="a_node7"><a xlink:href="MOM__driver_8F90.html#a08fffeb2d8e8acbf9ed4609be6d258c6" target="_top" xlink:title=" ">
<polygon fill="white" stroke="black" points="0,-35.5 0,-54.5 56,-54.5 56,-35.5 0,-35.5"/>
<text text-anchor="middle" x="28" y="-42.5" font-family="Helvetica,sans-Serif" font-size="10.00">mom_main</text>
</a>
</g>
</g>
<!-- Node87&#45;&gt;Node88 -->
<g id="edge6" class="edge"><title>Node87&#45;&gt;Node88</title>
<path fill="none" stroke="midnightblue" d="M84.2018,-45C74.3515,-45 64.609,-45 56.1145,-45"/>
<polygon fill="midnightblue" stroke="midnightblue" points="84.4582,-48.5001 94.4582,-45 84.4581,-41.5001 84.4582,-48.5001"/>
</g>
</g>
</svg>
