<?xml version="1.0" encoding="UTF-8" standalone="no"?>
<!DOCTYPE svg PUBLIC "-//W3C//DTD SVG 1.1//EN"
 "http://www.w3.org/Graphics/SVG/1.1/DTD/svg11.dtd">
<!-- Generated by graphviz version 2.30.1 (20170916.1124)
 -->
<!-- Title: mom_obsolete_diagnostics::register_obsolete_diagnostics Pages: 1 -->
<svg width="544pt" height="96pt"
 viewBox="0.00 0.00 544.00 95.72" xmlns="http://www.w3.org/2000/svg" xmlns:xlink="http://www.w3.org/1999/xlink">
<g id="graph0" class="graph" transform="scale(1 1) rotate(0) translate(4 91.7185)">
<title>mom_obsolete_diagnostics::register_obsolete_diagnostics</title>
<polygon fill="white" stroke="white" points="-4,5 -4,-91.7185 541,-91.7185 541,5 -4,5"/>
<!-- Node7 -->
<g id="node1" class="node"><title>Node7</title>
<g id="a_node1"><a xlink:title="Scan through the diag_table searching for obsolete parameters and issue informational messages and op...">
<polygon fill="#bfbfbf" stroke="black" points="0,-13.7185 0,-43.7185 126,-43.7185 126,-13.7185 0,-13.7185"/>
<text text-anchor="start" x="8" y="-31.7185" font-family="Helvetica,sans-Serif" font-size="10.00">mom_obsolete_diagnostics</text>
<text text-anchor="middle" x="63" y="-20.7185" font-family="Helvetica,sans-Serif" font-size="10.00">::register_obsolete_diagnostics</text>
</a>
</g>
</g>
<!-- Node8 -->
<g id="node2" class="node"><title>Node8</title>
<g id="a_node2"><a xlink:href="namespacemom__obsolete__diagnostics.html#a137ff7cb882b715d0ccf915fef52386c" target="_top" xlink:title="Fakes a register of a diagnostic to find out if an obsolete parameter appears in the diag_table.">
<polygon fill="white" stroke="black" points="162.5,-57.7185 162.5,-87.7185 275.5,-87.7185 275.5,-57.7185 162.5,-57.7185"/>
<text text-anchor="start" x="170.5" y="-75.7185" font-family="Helvetica,sans-Serif" font-size="10.00">mom_obsolete_diagnostics</text>
<text text-anchor="middle" x="219" y="-64.7185" font-family="Helvetica,sans-Serif" font-size="10.00">::found_in_diagtable</text>
</a>
</g>
</g>
<!-- Node7&#45;&gt;Node8 -->
<g id="edge1" class="edge"><title>Node7&#45;&gt;Node8</title>
<path fill="none" stroke="midnightblue" d="M116.567,-43.7377C129.135,-47.3285 142.672,-51.1961 155.634,-54.8995"/>
<polygon fill="midnightblue" stroke="midnightblue" points="154.831,-58.3103 165.408,-57.6923 156.755,-51.5796 154.831,-58.3103"/>
</g>
<!-- Node9 -->
<g id="node3" class="node"><title>Node9</title>
<g id="a_node3"><a xlink:href="namespacemom__error__handler.html#ad5f00a53059c72fe2332d1436c80ca71" target="_top" xlink:title=" ">
<polygon fill="white" stroke="black" points="442.5,-16.7185 442.5,-46.7185 535.5,-46.7185 535.5,-16.7185 442.5,-16.7185"/>
<text text-anchor="start" x="450.5" y="-34.7185" font-family="Helvetica,sans-Serif" font-size="10.00">mom_error_handler::</text>
<text text-anchor="middle" x="489" y="-23.7185" font-family="Helvetica,sans-Serif" font-size="10.00">is_root_pe</text>
</a>
</g>
</g>
<!-- Node7&#45;&gt;Node9 -->
<g id="edge5" class="edge"><title>Node7&#45;&gt;Node9</title>
<path fill="none" stroke="midnightblue" d="M126.113,-16.8689C194.895,-5.56849 308.901,7.7543 406,-6.71847 416.374,-8.2648 427.251,-10.8545 437.568,-13.7958"/>
<polygon fill="midnightblue" stroke="midnightblue" points="436.669,-17.1801 447.253,-16.701 438.68,-10.4753 436.669,-17.1801"/>
</g>
<!-- Node10 -->
<g id="node4" class="node"><title>Node10</title>
<g id="a_node4"><a xlink:href="namespacemom__error__handler.html#a460cfb79a06c29fc249952c2a3710d67" target="_top" xlink:title=" ">
<polygon fill="white" stroke="black" points="312.5,-16.7185 312.5,-46.7185 405.5,-46.7185 405.5,-16.7185 312.5,-16.7185"/>
<text text-anchor="start" x="320.5" y="-34.7185" font-family="Helvetica,sans-Serif" font-size="10.00">mom_error_handler::</text>
<text text-anchor="middle" x="359" y="-23.7185" font-family="Helvetica,sans-Serif" font-size="10.00">mom_error</text>
</a>
</g>
</g>
<!-- Node7&#45;&gt;Node10 -->
<g id="edge6" class="edge"><title>Node7&#45;&gt;Node10</title>
<path fill="none" stroke="midnightblue" d="M126.35,-29.3547C178.388,-29.8857 251.897,-30.6358 302.062,-31.1477"/>
<polygon fill="midnightblue" stroke="midnightblue" points="302.047,-34.6476 312.083,-31.2499 302.119,-27.648 302.047,-34.6476"/>
</g>
<!-- Node8&#45;&gt;Node9 -->
<g id="edge2" class="edge"><title>Node8&#45;&gt;Node9</title>
<path fill="none" stroke="midnightblue" d="M275.735,-70.4455C312.89,-68.2407 362.677,-63.9578 406,-55.7185 414.682,-54.0673 423.764,-51.8849 432.59,-49.5078"/>
<polygon fill="midnightblue" stroke="midnightblue" points="433.724,-52.8249 442.411,-46.7592 431.837,-46.0839 433.724,-52.8249"/>
</g>
<!-- Node8&#45;&gt;Node10 -->
<g id="edge3" class="edge"><title>Node8&#45;&gt;Node10</title>
<path fill="none" stroke="midnightblue" d="M270.603,-57.6844C281.086,-54.5698 292.18,-51.2736 302.818,-48.1131"/>
<polygon fill="midnightblue" stroke="midnightblue" points="303.839,-51.461 312.428,-45.2579 301.845,-44.7509 303.839,-51.461"/>
</g>
<!-- Node10&#45;&gt;Node9 -->
<g id="edge4" class="edge"><title>Node10&#45;&gt;Node9</title>
<path fill="none" stroke="midnightblue" d="M405.849,-31.7185C414.408,-31.7185 423.439,-31.7185 432.258,-31.7185"/>
<polygon fill="midnightblue" stroke="midnightblue" points="432.471,-35.2186 442.471,-31.7185 432.471,-28.2186 432.471,-35.2186"/>
</g>
</g>
</svg>
