<?xml version="1.0" encoding="UTF-8" standalone="no"?>
<!DOCTYPE svg PUBLIC "-//W3C//DTD SVG 1.1//EN"
 "http://www.w3.org/Graphics/SVG/1.1/DTD/svg11.dtd">
<!-- Generated by graphviz version 2.30.1 (20170916.1124)
 -->
<!-- Title: mom_diag_to_z::find_limited_slope Pages: 1 -->
<!--zoomable 148 -->
<svg id="main" version="1.1" xmlns="http://www.w3.org/2000/svg" xmlns:xlink="http://www.w3.org/1999/xlink" xml:space="preserve" onload="init(evt)">
<style type="text/css"><![CDATA[
.edge:hover path { stroke: red; }
.edge:hover polygon { stroke: red; fill: red; }
]]></style>
<script type="text/javascript"><![CDATA[
var edges = document.getElementsByTagName('g');
if (edges && edges.length) {
  for (var i=0;i<edges.length;i++) {
    if (edges[i].id.substr(0,4)=='edge') {
      edges[i].setAttribute('class','edge');
    }
  }
}
]]></script>
        <defs>
                <circle id="rim" cx="0" cy="0" r="7"/>
                <circle id="rim2" cx="0" cy="0" r="3.5"/>
                <g id="zoomPlus">
                        <use xlink:href="#rim" fill="#404040">
                                <set attributeName="fill" to="#808080" begin="zoomplus.mouseover" end="zoomplus.mouseout"/>
                        </use>
                        <path d="M-4,0h8M0,-4v8" fill="none" stroke="white" stroke-width="1.5" pointer-events="none"/>
                </g>
                <g id="zoomMin">
                        <use xlink:href="#rim" fill="#404040">
                                <set attributeName="fill" to="#808080" begin="zoomminus.mouseover" end="zoomminus.mouseout"/>
                        </use>
                        <path d="M-4,0h8" fill="none" stroke="white" stroke-width="1.5" pointer-events="none"/>
                </g>
                <g id="dirArrow">
                        <path fill="none" stroke="white" stroke-width="1.5" d="M0,-3.0v7 M-2.5,-0.5L0,-3.0L2.5,-0.5"/>
                </g>
               <g id="resetDef">
                       <use xlink:href="#rim2" fill="#404040">
                               <set attributeName="fill" to="#808080" begin="reset.mouseover" end="reset.mouseout"/>
                       </use>
               </g>
        </defs>

<script type="text/javascript">
var viewWidth = 522;
var viewHeight = 148;
var sectionId = 'dynsection-4';
</script>
<script xlink:href="svgpan.js"/>
<svg id="graph" class="graph">
<g id="viewport">
<title>mom_diag_to_z::find_limited_slope</title>
<polygon fill="white" stroke="white" points="-4,5 -4,-144 519,-144 519,5 -4,5"/>
<!-- Node18 -->
<g id="node1" class="node"><title>Node18</title>
<g id="a_node1"><a xlink:title=" ">
<polygon fill="#bfbfbf" stroke="black" points="422.5,-73 422.5,-103 513.5,-103 513.5,-73 422.5,-73"/>
<text text-anchor="start" x="430.5" y="-91" font-family="Helvetica,sans-Serif" font-size="10.00">mom_diag_to_z::find</text>
<text text-anchor="middle" x="468" y="-80" font-family="Helvetica,sans-Serif" font-size="10.00">_limited_slope</text>
</a>
</g>
</g>
<!-- Node19 -->
<g id="node2" class="node"><title>Node19</title>
<g id="a_node2"><a xlink:href="namespacemom__diag__to__z.html#ae5ced59bff38c963ab5637cc6b06098f" target="_top" xlink:title=" ">
<polygon fill="white" stroke="black" points="276.5,-98 276.5,-128 385.5,-128 385.5,-98 276.5,-98"/>
<text text-anchor="start" x="284.5" y="-116" font-family="Helvetica,sans-Serif" font-size="10.00">mom_diag_to_z::calculate</text>
<text text-anchor="middle" x="331" y="-105" font-family="Helvetica,sans-Serif" font-size="10.00">_z_diag_fields</text>
</a>
</g>
</g>
<!-- Node18&#45;&gt;Node19 -->
<g id="edge1" class="edge"><title>Node18&#45;&gt;Node19</title>
<path fill="none" stroke="midnightblue" d="M412.362,-98.1181C403.646,-99.7323 394.632,-101.402 385.932,-103.013"/>
<polygon fill="midnightblue" stroke="midnightblue" points="413.226,-101.518 422.422,-96.2552 411.952,-94.6347 413.226,-101.518"/>
</g>
<!-- Node20 -->
<g id="node3" class="node"><title>Node20</title>
<g id="a_node3"><a xlink:href="namespacemom__tracer__z__init.html#a153c8859a6918fc350976a4a7c279c79" target="_top" xlink:title=" ">
<polygon fill="white" stroke="black" points="287.5,-49 287.5,-79 374.5,-79 374.5,-49 287.5,-49"/>
<text text-anchor="start" x="295.5" y="-67" font-family="Helvetica,sans-Serif" font-size="10.00">mom_tracer_z_init::</text>
<text text-anchor="middle" x="331" y="-56" font-family="Helvetica,sans-Serif" font-size="10.00">tracer_z_init</text>
</a>
</g>
</g>
<!-- Node18&#45;&gt;Node20 -->
<g id="edge2" class="edge"><title>Node18&#45;&gt;Node20</title>
<path fill="none" stroke="midnightblue" d="M412.497,-78.3106C399.91,-76.0729 386.696,-73.7238 374.697,-71.5907"/>
<polygon fill="midnightblue" stroke="midnightblue" points="411.964,-81.7705 422.422,-80.075 413.189,-74.8786 411.964,-81.7705"/>
</g>
<!-- Node21 -->
<g id="node4" class="node"><title>Node21</title>
<g id="a_node4"><a xlink:href="namespaceideal__age__example.html#abec4db7c44f7a6d5c891a6d8a17a99b3" target="_top" xlink:title=" ">
<polygon fill="white" stroke="black" points="148,-98.5 148,-139.5 238,-139.5 238,-98.5 148,-98.5"/>
<text text-anchor="start" x="156" y="-127.5" font-family="Helvetica,sans-Serif" font-size="10.00">ideal_age_example::</text>
<text text-anchor="start" x="156" y="-116.5" font-family="Helvetica,sans-Serif" font-size="10.00">initialize_ideal_age</text>
<text text-anchor="middle" x="193" y="-105.5" font-family="Helvetica,sans-Serif" font-size="10.00">_tracer</text>
</a>
</g>
</g>
<!-- Node20&#45;&gt;Node21 -->
<g id="edge3" class="edge"><title>Node20&#45;&gt;Node21</title>
<path fill="none" stroke="midnightblue" d="M283.488,-82.8102C268.887,-88.7146 252.814,-95.2148 238.367,-101.058"/>
<polygon fill="midnightblue" stroke="midnightblue" points="284.879,-86.0229 292.837,-79.029 282.255,-79.5335 284.879,-86.0229"/>
</g>
<!-- Node22 -->
<g id="node5" class="node"><title>Node22</title>
<g id="a_node5"><a xlink:href="namespacemom__ocmip2__cfc.html#a403331f12c4b16682f42f284bf57f330" target="_top" xlink:title=" ">
<polygon fill="white" stroke="black" points="146.5,-49 146.5,-79 239.5,-79 239.5,-49 146.5,-49"/>
<text text-anchor="start" x="154.5" y="-67" font-family="Helvetica,sans-Serif" font-size="10.00">mom_ocmip2_cfc::init</text>
<text text-anchor="middle" x="193" y="-56" font-family="Helvetica,sans-Serif" font-size="10.00">_tracer_cfc</text>
</a>
</g>
</g>
<!-- Node20&#45;&gt;Node22 -->
<g id="edge4" class="edge"><title>Node20&#45;&gt;Node22</title>
<path fill="none" stroke="midnightblue" d="M277.183,-64C264.846,-64 251.808,-64 239.805,-64"/>
<polygon fill="midnightblue" stroke="midnightblue" points="277.342,-67.5001 287.342,-64 277.342,-60.5001 277.342,-67.5001"/>
</g>
<!-- Node24 -->
<g id="node7" class="node"><title>Node24</title>
<g id="a_node7"><a xlink:href="namespaceoil__tracer.html#a2bb5dd516d506706c1e67e1206e389b5" target="_top" xlink:title=" ">
<polygon fill="white" stroke="black" points="152.5,-0 152.5,-30 233.5,-30 233.5,-0 152.5,-0"/>
<text text-anchor="start" x="160.5" y="-18" font-family="Helvetica,sans-Serif" font-size="10.00">oil_tracer::initialize</text>
<text text-anchor="middle" x="193" y="-7" font-family="Helvetica,sans-Serif" font-size="10.00">_oil_tracer</text>
</a>
</g>
</g>
<!-- Node20&#45;&gt;Node24 -->
<g id="edge6" class="edge"><title>Node20&#45;&gt;Node24</title>
<path fill="none" stroke="midnightblue" d="M278.52,-45.4521C263.669,-40.1015 247.7,-34.3477 233.684,-29.2979"/>
<polygon fill="midnightblue" stroke="midnightblue" points="277.491,-48.8016 288.086,-48.8986 279.864,-42.2161 277.491,-48.8016"/>
</g>
<!-- Node23 -->
<g id="node6" class="node"><title>Node23</title>
<g id="a_node6"><a xlink:href="namespacemom__ocmip2__cfc.html#a0c916b2f0835bd79002803f246d2ef49" target="_top" xlink:title=" ">
<polygon fill="white" stroke="black" points="0,-49 0,-79 110,-79 110,-49 0,-49"/>
<text text-anchor="start" x="8" y="-67" font-family="Helvetica,sans-Serif" font-size="10.00">mom_ocmip2_cfc::initialize</text>
<text text-anchor="middle" x="55" y="-56" font-family="Helvetica,sans-Serif" font-size="10.00">_ocmip2_cfc</text>
</a>
</g>
</g>
<!-- Node22&#45;&gt;Node23 -->
<g id="edge5" class="edge"><title>Node22&#45;&gt;Node23</title>
<path fill="none" stroke="midnightblue" d="M136.092,-64C127.557,-64 118.758,-64 110.259,-64"/>
<polygon fill="midnightblue" stroke="midnightblue" points="136.336,-67.5001 146.336,-64 136.336,-60.5001 136.336,-67.5001"/>
</g>
</g>
</svg>
        <g id="navigator" transform="translate(0 0)" fill="#404254">
                <rect fill="#f2f5e9" fill-opacity="0.5" stroke="#606060" stroke-width=".5" x="0" y="0" width="60" height="60"/>
                <use id="zoomplus" xlink:href="#zoomPlus" x="17" y="9" onmousedown="handleZoom(evt,'in')"/>
                <use id="zoomminus" xlink:href="#zoomMin" x="42" y="9" onmousedown="handleZoom(evt,'out')"/>
                <use id="reset" xlink:href="#resetDef" x="30" y="36" onmousedown="handleReset()"/>
                <g id="arrowUp" xlink:href="#dirArrow" transform="translate(30 24)" onmousedown="handlePan(0,-1)">
                  <use xlink:href="#rim" fill="#404040">
                        <set attributeName="fill" to="#808080" begin="arrowUp.mouseover" end="arrowUp.mouseout"/>
                  </use>
                  <path fill="none" stroke="white" stroke-width="1.5" d="M0,-3.0v7 M-2.5,-0.5L0,-3.0L2.5,-0.5"/>
                </g>
                <g id="arrowRight" xlink:href="#dirArrow" transform="rotate(90) translate(36 -43)" onmousedown="handlePan(1,0)">
                  <use xlink:href="#rim" fill="#404040">
                        <set attributeName="fill" to="#808080" begin="arrowRight.mouseover" end="arrowRight.mouseout"/>
                  </use>
                  <path fill="none" stroke="white" stroke-width="1.5" d="M0,-3.0v7 M-2.5,-0.5L0,-3.0L2.5,-0.5"/>
                </g>
                <g id="arrowDown" xlink:href="#dirArrow" transform="rotate(180) translate(-30 -48)" onmousedown="handlePan(0,1)">
                  <use xlink:href="#rim" fill="#404040">
                        <set attributeName="fill" to="#808080" begin="arrowDown.mouseover" end="arrowDown.mouseout"/>
                  </use>
                  <path fill="none" stroke="white" stroke-width="1.5" d="M0,-3.0v7 M-2.5,-0.5L0,-3.0L2.5,-0.5"/>
                </g>
                <g id="arrowLeft" xlink:href="#dirArrow" transform="rotate(270) translate(-36 17)" onmousedown="handlePan(-1,0)">
                  <use xlink:href="#rim" fill="#404040">
                        <set attributeName="fill" to="#808080" begin="arrowLeft.mouseover" end="arrowLeft.mouseout"/>
                  </use>
                  <path fill="none" stroke="white" stroke-width="1.5" d="M0,-3.0v7 M-2.5,-0.5L0,-3.0L2.5,-0.5"/>
                </g>
        </g>
        <svg viewBox="0 0 15 15" width="100%" height="30px" preserveAspectRatio="xMaxYMin meet">
         <g id="arrow_out" transform="scale(0.3 0.3)">
          <a xlink:href="namespacemom__diag__to__z_a55f6203cfb483bb62c543f689ab30741_icgraph_org.svg" target="_base">
           <rect id="button" ry="5" rx="5" y="6" x="6" height="38" width="38"
                fill="#f2f5e9" fill-opacity="0.5" stroke="#606060" stroke-width="1.0"/>
           <path id="arrow"
             d="M 11.500037,31.436501 C 11.940474,20.09759 22.043105,11.32322 32.158766,21.979434 L 37.068811,17.246167 C 37.068811,17.246167 37.088388,32 37.088388,32 L 22.160133,31.978069 C 22.160133,31.978069 26.997745,27.140456 26.997745,27.140456 C 18.528582,18.264221 13.291696,25.230495 11.500037,31.436501 z"
             style="fill:#404040;"/>
          </a>
         </g>
        </svg>
</svg>
