<?xml version="1.0" encoding="UTF-8" standalone="no"?>
<!DOCTYPE svg PUBLIC "-//W3C//DTD SVG 1.1//EN"
 "http://www.w3.org/Graphics/SVG/1.1/DTD/svg11.dtd">
<!-- Generated by graphviz version 2.30.1 (20170916.1124)
 -->
<!-- Title: mom_string_functions::lowercase Pages: 1 -->
<!--zoomable 170 -->
<svg id="main" version="1.1" xmlns="http://www.w3.org/2000/svg" xmlns:xlink="http://www.w3.org/1999/xlink" xml:space="preserve" onload="init(evt)">
<style type="text/css"><![CDATA[
.edge:hover path { stroke: red; }
.edge:hover polygon { stroke: red; fill: red; }
]]></style>
<script type="text/javascript"><![CDATA[
var edges = document.getElementsByTagName('g');
if (edges && edges.length) {
  for (var i=0;i<edges.length;i++) {
    if (edges[i].id.substr(0,4)=='edge') {
      edges[i].setAttribute('class','edge');
    }
  }
}
]]></script>
        <defs>
                <circle id="rim" cx="0" cy="0" r="7"/>
                <circle id="rim2" cx="0" cy="0" r="3.5"/>
                <g id="zoomPlus">
                        <use xlink:href="#rim" fill="#404040">
                                <set attributeName="fill" to="#808080" begin="zoomplus.mouseover" end="zoomplus.mouseout"/>
                        </use>
                        <path d="M-4,0h8M0,-4v8" fill="none" stroke="white" stroke-width="1.5" pointer-events="none"/>
                </g>
                <g id="zoomMin">
                        <use xlink:href="#rim" fill="#404040">
                                <set attributeName="fill" to="#808080" begin="zoomminus.mouseover" end="zoomminus.mouseout"/>
                        </use>
                        <path d="M-4,0h8" fill="none" stroke="white" stroke-width="1.5" pointer-events="none"/>
                </g>
                <g id="dirArrow">
                        <path fill="none" stroke="white" stroke-width="1.5" d="M0,-3.0v7 M-2.5,-0.5L0,-3.0L2.5,-0.5"/>
                </g>
               <g id="resetDef">
                       <use xlink:href="#rim2" fill="#404040">
                               <set attributeName="fill" to="#808080" begin="reset.mouseover" end="reset.mouseout"/>
                       </use>
               </g>
        </defs>

<script type="text/javascript">
var viewWidth = 604;
var viewHeight = 170;
var sectionId = 'dynsection-15';
</script>
<script xlink:href="svgpan.js"/>
<svg id="graph" class="graph">
<g id="viewport">
<title>mom_string_functions::lowercase</title>
<polygon fill="white" stroke="white" points="-4,5 -4,-166 601,-166 601,5 -4,5"/>
<!-- Node81 -->
<g id="node1" class="node"><title>Node81</title>
<g id="a_node1"><a xlink:title=" ">
<polygon fill="#bfbfbf" stroke="black" points="500.5,-88 500.5,-118 595.5,-118 595.5,-88 500.5,-88"/>
<text text-anchor="start" x="508.5" y="-106" font-family="Helvetica,sans-Serif" font-size="10.00">mom_string_functions</text>
<text text-anchor="middle" x="548" y="-95" font-family="Helvetica,sans-Serif" font-size="10.00">::lowercase</text>
</a>
</g>
</g>
<!-- Node82 -->
<g id="node2" class="node"><title>Node82</title>
<g id="a_node2"><a xlink:href="namespacemom__diag__remap.html#ac557898257c62be5c83415bfb60797bd" target="_top" xlink:title="Configure the vertical axes for a diagnostic remapping control structure. Reads a configuration param...">
<polygon fill="white" stroke="black" points="360.5,-132 360.5,-162 463.5,-162 463.5,-132 360.5,-132"/>
<text text-anchor="start" x="368.5" y="-150" font-family="Helvetica,sans-Serif" font-size="10.00">mom_diag_remap::diag</text>
<text text-anchor="middle" x="412" y="-139" font-family="Helvetica,sans-Serif" font-size="10.00">_remap_configure_axes</text>
</a>
</g>
</g>
<!-- Node81&#45;&gt;Node82 -->
<g id="edge1" class="edge"><title>Node81&#45;&gt;Node82</title>
<path fill="none" stroke="midnightblue" d="M491.481,-121.23C480.671,-124.78 469.45,-128.464 458.989,-131.899"/>
<polygon fill="midnightblue" stroke="midnightblue" points="492.851,-124.464 501.26,-118.019 490.667,-117.814 492.851,-124.464"/>
</g>
<!-- Node83 -->
<g id="node3" class="node"><title>Node83</title>
<g id="a_node3"><a xlink:href="namespacemom__io.html#a79952045e028c6882f5b04ea5a1a83f7" target="_top" xlink:title="This function determines how many time levels a variable has.">
<polygon fill="white" stroke="black" points="360,-93.5 360,-112.5 464,-112.5 464,-93.5 360,-93.5"/>
<text text-anchor="middle" x="412" y="-100.5" font-family="Helvetica,sans-Serif" font-size="10.00">mom_io::num_timelevels</text>
</a>
</g>
</g>
<!-- Node81&#45;&gt;Node83 -->
<g id="edge2" class="edge"><title>Node81&#45;&gt;Node83</title>
<path fill="none" stroke="midnightblue" d="M489.869,-103C481.334,-103 472.581,-103 464.179,-103"/>
<polygon fill="midnightblue" stroke="midnightblue" points="490.133,-106.5 500.133,-103 490.133,-99.5001 490.133,-106.5"/>
</g>
<!-- Node84 -->
<g id="node4" class="node"><title>Node84</title>
<g id="a_node4"><a xlink:href="namespacemom__restart.html#aec60d8a437fc858db4a020f9985b449d" target="_top" xlink:title=" ">
<polygon fill="white" stroke="black" points="366,-44 366,-74 458,-74 458,-44 366,-44"/>
<text text-anchor="start" x="374" y="-62" font-family="Helvetica,sans-Serif" font-size="10.00">mom_restart::restore</text>
<text text-anchor="middle" x="412" y="-51" font-family="Helvetica,sans-Serif" font-size="10.00">_state</text>
</a>
</g>
</g>
<!-- Node81&#45;&gt;Node84 -->
<g id="edge3" class="edge"><title>Node81&#45;&gt;Node84</title>
<path fill="none" stroke="midnightblue" d="M491.599,-84.8086C480.439,-81.1441 468.836,-77.3342 458.08,-73.8025"/>
<polygon fill="midnightblue" stroke="midnightblue" points="490.667,-88.1863 501.26,-87.9808 492.851,-81.5357 490.667,-88.1863"/>
</g>
<!-- Node85 -->
<g id="node5" class="node"><title>Node85</title>
<g id="a_node5"><a xlink:href="namespacemom__ice__shelf.html#ae315e8464ef8a20062e3bccb61886755" target="_top" xlink:title=" ">
<polygon fill="white" stroke="black" points="222.5,-93 222.5,-123 323.5,-123 323.5,-93 222.5,-93"/>
<text text-anchor="start" x="230.5" y="-111" font-family="Helvetica,sans-Serif" font-size="10.00">mom_ice_shelf::initialize</text>
<text text-anchor="middle" x="273" y="-100" font-family="Helvetica,sans-Serif" font-size="10.00">_ice_shelf</text>
</a>
</g>
</g>
<!-- Node84&#45;&gt;Node85 -->
<g id="edge4" class="edge"><title>Node84&#45;&gt;Node85</title>
<path fill="none" stroke="midnightblue" d="M359.176,-77.5355C345.028,-82.5959 329.869,-88.0177 316.319,-92.8641"/>
<polygon fill="midnightblue" stroke="midnightblue" points="360.54,-80.7648 368.778,-74.1014 358.183,-74.1737 360.54,-80.7648"/>
</g>
<!-- Node88 -->
<g id="node8" class="node"><title>Node88</title>
<g id="a_node8"><a xlink:href="namespacemom__state__initialization.html#af4e854627c6572332ba3fd895f169321" target="_top" xlink:title=" ">
<polygon fill="white" stroke="black" points="222.5,-44 222.5,-74 323.5,-74 323.5,-44 222.5,-44"/>
<text text-anchor="start" x="230.5" y="-62" font-family="Helvetica,sans-Serif" font-size="10.00">mom_state_initialization</text>
<text text-anchor="middle" x="273" y="-51" font-family="Helvetica,sans-Serif" font-size="10.00">::mom_initialize_state</text>
</a>
</g>
</g>
<!-- Node84&#45;&gt;Node88 -->
<g id="edge7" class="edge"><title>Node84&#45;&gt;Node88</title>
<path fill="none" stroke="midnightblue" d="M355.492,-59C345.046,-59 334.18,-59 323.917,-59"/>
<polygon fill="midnightblue" stroke="midnightblue" points="355.761,-62.5001 365.761,-59 355.761,-55.5001 355.761,-62.5001"/>
</g>
<!-- Node90 -->
<g id="node10" class="node"><title>Node90</title>
<g id="a_node10"><a xlink:href="namespacemom__surface__forcing.html#a08ab046cc02cb51f5045c8efa7337f65" target="_top" xlink:title=" ">
<polygon fill="white" stroke="black" points="92,-0 92,-30 186,-30 186,-0 92,-0"/>
<text text-anchor="start" x="100" y="-18" font-family="Helvetica,sans-Serif" font-size="10.00">mom_surface_forcing</text>
<text text-anchor="middle" x="139" y="-7" font-family="Helvetica,sans-Serif" font-size="10.00">::surface_forcing_init</text>
</a>
</g>
</g>
<!-- Node84&#45;&gt;Node90 -->
<g id="edge10" class="edge"><title>Node84&#45;&gt;Node90</title>
<path fill="none" stroke="midnightblue" d="M355.869,-41.5723C345.367,-38.7048 334.406,-36.0159 324,-34 277.496,-24.9909 223.497,-20.0559 186.079,-17.491"/>
<polygon fill="midnightblue" stroke="midnightblue" points="355.19,-45.0171 365.765,-44.36 357.088,-38.2794 355.19,-45.0171"/>
</g>
<!-- Node86 -->
<g id="node6" class="node"><title>Node86</title>
<g id="a_node6"><a xlink:href="MOM__driver_8F90.html#a08fffeb2d8e8acbf9ed4609be6d258c6" target="_top" xlink:title=" ">
<polygon fill="white" stroke="black" points="0,-49.5 0,-68.5 56,-68.5 56,-49.5 0,-49.5"/>
<text text-anchor="middle" x="28" y="-56.5" font-family="Helvetica,sans-Serif" font-size="10.00">mom_main</text>
</a>
</g>
</g>
<!-- Node85&#45;&gt;Node86 -->
<g id="edge5" class="edge"><title>Node85&#45;&gt;Node86</title>
<path fill="none" stroke="midnightblue" d="M212.275,-122.435C176.272,-128.302 130.154,-130.699 92,-116 67.2252,-106.456 46.1437,-82.1531 35.8101,-68.5647"/>
<polygon fill="midnightblue" stroke="midnightblue" points="212.904,-125.878 222.146,-120.699 211.691,-118.984 212.904,-125.878"/>
</g>
<!-- Node87 -->
<g id="node7" class="node"><title>Node87</title>
<g id="a_node7"><a xlink:href="ice__shelf__driver_8F90.html#aec5bef92f0dad343f545cd8d62e378d8" target="_top" xlink:title=" ">
<polygon fill="white" stroke="black" points="111.5,-87.5 111.5,-106.5 166.5,-106.5 166.5,-87.5 111.5,-87.5"/>
<text text-anchor="middle" x="139" y="-94.5" font-family="Helvetica,sans-Serif" font-size="10.00">shelf_main</text>
</a>
</g>
</g>
<!-- Node85&#45;&gt;Node87 -->
<g id="edge6" class="edge"><title>Node85&#45;&gt;Node87</title>
<path fill="none" stroke="midnightblue" d="M212.151,-103.013C196.281,-101.69 179.932,-100.328 166.818,-99.2348"/>
<polygon fill="midnightblue" stroke="midnightblue" points="212.216,-106.53 222.473,-103.873 212.798,-99.5543 212.216,-106.53"/>
</g>
<!-- Node89 -->
<g id="node9" class="node"><title>Node89</title>
<g id="a_node9"><a xlink:href="namespacemom.html#a0be2869fef30e1e0604facfe1b41555d" target="_top" xlink:title="This subroutine initializes MOM.">
<polygon fill="white" stroke="black" points="94.5,-49.5 94.5,-68.5 183.5,-68.5 183.5,-49.5 94.5,-49.5"/>
<text text-anchor="middle" x="139" y="-56.5" font-family="Helvetica,sans-Serif" font-size="10.00">mom::initialize_mom</text>
</a>
</g>
</g>
<!-- Node88&#45;&gt;Node89 -->
<g id="edge8" class="edge"><title>Node88&#45;&gt;Node89</title>
<path fill="none" stroke="midnightblue" d="M212.183,-59C202.601,-59 192.844,-59 183.729,-59"/>
<polygon fill="midnightblue" stroke="midnightblue" points="212.473,-62.5001 222.473,-59 212.472,-55.5001 212.473,-62.5001"/>
</g>
<!-- Node89&#45;&gt;Node86 -->
<g id="edge9" class="edge"><title>Node89&#45;&gt;Node86</title>
<path fill="none" stroke="midnightblue" d="M84.1917,-59C74.4375,-59 64.6537,-59 56.0904,-59"/>
<polygon fill="midnightblue" stroke="midnightblue" points="84.2936,-62.5001 94.2936,-59 84.2935,-55.5001 84.2936,-62.5001"/>
</g>
<!-- Node90&#45;&gt;Node86 -->
<g id="edge11" class="edge"><title>Node90&#45;&gt;Node86</title>
<path fill="none" stroke="midnightblue" d="M91.2656,-33.8653C77.964,-39.2347 64.0324,-44.8585 52.728,-49.4217"/>
<polygon fill="midnightblue" stroke="midnightblue" points="92.8304,-37.0081 100.793,-30.0192 90.2101,-30.517 92.8304,-37.0081"/>
</g>
</g>
</svg>
        <g id="navigator" transform="translate(0 0)" fill="#404254">
                <rect fill="#f2f5e9" fill-opacity="0.5" stroke="#606060" stroke-width=".5" x="0" y="0" width="60" height="60"/>
                <use id="zoomplus" xlink:href="#zoomPlus" x="17" y="9" onmousedown="handleZoom(evt,'in')"/>
                <use id="zoomminus" xlink:href="#zoomMin" x="42" y="9" onmousedown="handleZoom(evt,'out')"/>
                <use id="reset" xlink:href="#resetDef" x="30" y="36" onmousedown="handleReset()"/>
                <g id="arrowUp" xlink:href="#dirArrow" transform="translate(30 24)" onmousedown="handlePan(0,-1)">
                  <use xlink:href="#rim" fill="#404040">
                        <set attributeName="fill" to="#808080" begin="arrowUp.mouseover" end="arrowUp.mouseout"/>
                  </use>
                  <path fill="none" stroke="white" stroke-width="1.5" d="M0,-3.0v7 M-2.5,-0.5L0,-3.0L2.5,-0.5"/>
                </g>
                <g id="arrowRight" xlink:href="#dirArrow" transform="rotate(90) translate(36 -43)" onmousedown="handlePan(1,0)">
                  <use xlink:href="#rim" fill="#404040">
                        <set attributeName="fill" to="#808080" begin="arrowRight.mouseover" end="arrowRight.mouseout"/>
                  </use>
                  <path fill="none" stroke="white" stroke-width="1.5" d="M0,-3.0v7 M-2.5,-0.5L0,-3.0L2.5,-0.5"/>
                </g>
                <g id="arrowDown" xlink:href="#dirArrow" transform="rotate(180) translate(-30 -48)" onmousedown="handlePan(0,1)">
                  <use xlink:href="#rim" fill="#404040">
                        <set attributeName="fill" to="#808080" begin="arrowDown.mouseover" end="arrowDown.mouseout"/>
                  </use>
                  <path fill="none" stroke="white" stroke-width="1.5" d="M0,-3.0v7 M-2.5,-0.5L0,-3.0L2.5,-0.5"/>
                </g>
                <g id="arrowLeft" xlink:href="#dirArrow" transform="rotate(270) translate(-36 17)" onmousedown="handlePan(-1,0)">
                  <use xlink:href="#rim" fill="#404040">
                        <set attributeName="fill" to="#808080" begin="arrowLeft.mouseover" end="arrowLeft.mouseout"/>
                  </use>
                  <path fill="none" stroke="white" stroke-width="1.5" d="M0,-3.0v7 M-2.5,-0.5L0,-3.0L2.5,-0.5"/>
                </g>
        </g>
        <svg viewBox="0 0 15 15" width="100%" height="30px" preserveAspectRatio="xMaxYMin meet">
         <g id="arrow_out" transform="scale(0.3 0.3)">
          <a xlink:href="namespacemom__string__functions_a4d76e9e8c2cd53f210b02006924a9212_icgraph_org.svg" target="_base">
           <rect id="button" ry="5" rx="5" y="6" x="6" height="38" width="38"
                fill="#f2f5e9" fill-opacity="0.5" stroke="#606060" stroke-width="1.0"/>
           <path id="arrow"
             d="M 11.500037,31.436501 C 11.940474,20.09759 22.043105,11.32322 32.158766,21.979434 L 37.068811,17.246167 C 37.068811,17.246167 37.088388,32 37.088388,32 L 22.160133,31.978069 C 22.160133,31.978069 26.997745,27.140456 26.997745,27.140456 C 18.528582,18.264221 13.291696,25.230495 11.500037,31.436501 z"
             style="fill:#404040;"/>
          </a>
         </g>
        </svg>
</svg>
