<?xml version="1.0" encoding="UTF-8" standalone="no"?>
<!DOCTYPE svg PUBLIC "-//W3C//DTD SVG 1.1//EN"
 "http://www.w3.org/Graphics/SVG/1.1/DTD/svg11.dtd">
<!-- Generated by graphviz version 2.30.1 (20170916.1124)
 -->
<!-- Title: mom_eos::compute_integral_quadratic Pages: 1 -->
<svg width="256pt" height="38pt"
 viewBox="0.00 0.00 256.00 38.00" xmlns="http://www.w3.org/2000/svg" xmlns:xlink="http://www.w3.org/1999/xlink">
<g id="graph0" class="graph" transform="scale(1 1) rotate(0) translate(4 34)">
<title>mom_eos::compute_integral_quadratic</title>
<polygon fill="white" stroke="white" points="-4,5 -4,-34 253,-34 253,5 -4,5"/>
<!-- Node88 -->
<g id="node1" class="node"><title>Node88</title>
<g id="a_node1"><a xlink:title=" ">
<polygon fill="#bfbfbf" stroke="black" points="130,-0 130,-30 248,-30 248,-0 130,-0"/>
<text text-anchor="start" x="138" y="-18" font-family="Helvetica,sans-Serif" font-size="10.00">mom_eos::compute_integral</text>
<text text-anchor="middle" x="189" y="-7" font-family="Helvetica,sans-Serif" font-size="10.00">_quadratic</text>
</a>
</g>
</g>
<!-- Node89 -->
<g id="node2" class="node"><title>Node89</title>
<g id="a_node2"><a xlink:href="namespacemom__eos.html#a594df0f0a5756c77a5c7e5a5c2e36a20" target="_top" xlink:title=" ">
<polygon fill="white" stroke="black" points="0,-0 0,-30 94,-30 94,-0 0,-0"/>
<text text-anchor="start" x="8" y="-18" font-family="Helvetica,sans-Serif" font-size="10.00">mom_eos::int_density</text>
<text text-anchor="middle" x="47" y="-7" font-family="Helvetica,sans-Serif" font-size="10.00">_dz_generic_ppm</text>
</a>
</g>
</g>
<!-- Node88&#45;&gt;Node89 -->
<g id="edge1" class="edge"><title>Node88&#45;&gt;Node89</title>
<path fill="none" stroke="midnightblue" d="M119.749,-15C111.109,-15 102.433,-15 94.249,-15"/>
<polygon fill="midnightblue" stroke="midnightblue" points="119.844,-18.5001 129.844,-15 119.844,-11.5001 119.844,-18.5001"/>
</g>
</g>
</svg>
