<?xml version="1.0" encoding="UTF-8" standalone="no"?>
<!DOCTYPE svg PUBLIC "-//W3C//DTD SVG 1.1//EN"
 "http://www.w3.org/Graphics/SVG/1.1/DTD/svg11.dtd">
<!-- Generated by graphviz version 2.30.1 (20170916.1124)
 -->
<!-- Title: dome2d_initialization::dome2d_initialize_thickness Pages: 1 -->
<svg width="388pt" height="87pt"
 viewBox="0.00 0.00 388.00 87.00" xmlns="http://www.w3.org/2000/svg" xmlns:xlink="http://www.w3.org/1999/xlink">
<g id="graph0" class="graph" transform="scale(1 1) rotate(0) translate(4 83)">
<title>dome2d_initialization::dome2d_initialize_thickness</title>
<polygon fill="white" stroke="white" points="-4,5 -4,-83 385,-83 385,5 -4,5"/>
<!-- Node18 -->
<g id="node1" class="node"><title>Node18</title>
<g id="a_node1"><a xlink:title="Initialize thicknesses according to coordinate mode.">
<polygon fill="#bfbfbf" stroke="black" points="0.5,-24 0.5,-54 119.5,-54 119.5,-24 0.5,-24"/>
<text text-anchor="start" x="8.5" y="-42" font-family="Helvetica,sans-Serif" font-size="10.00">dome2d_initialization</text>
<text text-anchor="middle" x="60" y="-31" font-family="Helvetica,sans-Serif" font-size="10.00">::dome2d_initialize_thickness</text>
</a>
</g>
</g>
<!-- Node19 -->
<g id="node2" class="node"><title>Node19</title>
<g id="a_node2"><a xlink:href="namespacemom__error__handler.html#a460cfb79a06c29fc249952c2a3710d67" target="_top" xlink:title=" ">
<polygon fill="white" stroke="black" points="156.5,-49 156.5,-79 249.5,-79 249.5,-49 156.5,-49"/>
<text text-anchor="start" x="164.5" y="-67" font-family="Helvetica,sans-Serif" font-size="10.00">mom_error_handler::</text>
<text text-anchor="middle" x="203" y="-56" font-family="Helvetica,sans-Serif" font-size="10.00">mom_error</text>
</a>
</g>
</g>
<!-- Node18&#45;&gt;Node19 -->
<g id="edge1" class="edge"><title>Node18&#45;&gt;Node19</title>
<path fill="none" stroke="midnightblue" d="M119.572,-49.3851C128.382,-50.9471 137.448,-52.5546 146.198,-54.106"/>
<polygon fill="midnightblue" stroke="midnightblue" points="145.832,-57.5957 156.29,-55.8954 147.054,-50.7032 145.832,-57.5957"/>
</g>
<!-- Node21 -->
<g id="node4" class="node"><title>Node21</title>
<g id="a_node4"><a xlink:href="namespacemom__error__handler.html#a1c462df7b61f1296407b4af51dfeceab" target="_top" xlink:title=" ">
<polygon fill="white" stroke="black" points="156.5,-0 156.5,-30 249.5,-30 249.5,-0 156.5,-0"/>
<text text-anchor="start" x="164.5" y="-18" font-family="Helvetica,sans-Serif" font-size="10.00">mom_error_handler::</text>
<text text-anchor="middle" x="203" y="-7" font-family="Helvetica,sans-Serif" font-size="10.00">mom_mesg</text>
</a>
</g>
</g>
<!-- Node18&#45;&gt;Node21 -->
<g id="edge3" class="edge"><title>Node18&#45;&gt;Node21</title>
<path fill="none" stroke="midnightblue" d="M119.572,-29.0303C128.382,-27.5308 137.448,-25.9876 146.198,-24.4983"/>
<polygon fill="midnightblue" stroke="midnightblue" points="147.019,-27.9089 156.29,-22.7805 145.844,-21.0082 147.019,-27.9089"/>
</g>
<!-- Node20 -->
<g id="node3" class="node"><title>Node20</title>
<g id="a_node3"><a xlink:href="namespacemom__error__handler.html#ad5f00a53059c72fe2332d1436c80ca71" target="_top" xlink:title=" ">
<polygon fill="white" stroke="black" points="286.5,-24 286.5,-54 379.5,-54 379.5,-24 286.5,-24"/>
<text text-anchor="start" x="294.5" y="-42" font-family="Helvetica,sans-Serif" font-size="10.00">mom_error_handler::</text>
<text text-anchor="middle" x="333" y="-31" font-family="Helvetica,sans-Serif" font-size="10.00">is_root_pe</text>
</a>
</g>
</g>
<!-- Node19&#45;&gt;Node20 -->
<g id="edge2" class="edge"><title>Node19&#45;&gt;Node20</title>
<path fill="none" stroke="midnightblue" d="M249.849,-55.045C258.501,-53.3552 267.636,-51.5712 276.545,-49.8311"/>
<polygon fill="midnightblue" stroke="midnightblue" points="277.327,-53.2445 286.471,-47.8924 275.985,-46.3743 277.327,-53.2445"/>
</g>
<!-- Node21&#45;&gt;Node20 -->
<g id="edge4" class="edge"><title>Node21&#45;&gt;Node20</title>
<path fill="none" stroke="midnightblue" d="M249.849,-23.5968C258.501,-25.219 267.636,-26.9317 276.545,-28.6022"/>
<polygon fill="midnightblue" stroke="midnightblue" points="275.997,-32.0603 286.471,-30.4633 277.287,-25.1802 275.997,-32.0603"/>
</g>
</g>
</svg>
