<?xml version="1.0" encoding="UTF-8" standalone="no"?>
<!DOCTYPE svg PUBLIC "-//W3C//DTD SVG 1.1//EN"
 "http://www.w3.org/Graphics/SVG/1.1/DTD/svg11.dtd">
<!-- Generated by graphviz version 2.30.1 (20170916.1124)
 -->
<!-- Title: mom_regridding::build_slight_column Pages: 1 -->
<!--zoomable 979 -->
<svg id="main" version="1.1" xmlns="http://www.w3.org/2000/svg" xmlns:xlink="http://www.w3.org/1999/xlink" xml:space="preserve" onload="init(evt)">
<style type="text/css"><![CDATA[
.edge:hover path { stroke: red; }
.edge:hover polygon { stroke: red; fill: red; }
]]></style>
<script type="text/javascript"><![CDATA[
var edges = document.getElementsByTagName('g');
if (edges && edges.length) {
  for (var i=0;i<edges.length;i++) {
    if (edges[i].id.substr(0,4)=='edge') {
      edges[i].setAttribute('class','edge');
    }
  }
}
]]></script>
        <defs>
                <circle id="rim" cx="0" cy="0" r="7"/>
                <circle id="rim2" cx="0" cy="0" r="3.5"/>
                <g id="zoomPlus">
                        <use xlink:href="#rim" fill="#404040">
                                <set attributeName="fill" to="#808080" begin="zoomplus.mouseover" end="zoomplus.mouseout"/>
                        </use>
                        <path d="M-4,0h8M0,-4v8" fill="none" stroke="white" stroke-width="1.5" pointer-events="none"/>
                </g>
                <g id="zoomMin">
                        <use xlink:href="#rim" fill="#404040">
                                <set attributeName="fill" to="#808080" begin="zoomminus.mouseover" end="zoomminus.mouseout"/>
                        </use>
                        <path d="M-4,0h8" fill="none" stroke="white" stroke-width="1.5" pointer-events="none"/>
                </g>
                <g id="dirArrow">
                        <path fill="none" stroke="white" stroke-width="1.5" d="M0,-3.0v7 M-2.5,-0.5L0,-3.0L2.5,-0.5"/>
                </g>
               <g id="resetDef">
                       <use xlink:href="#rim2" fill="#404040">
                               <set attributeName="fill" to="#808080" begin="reset.mouseover" end="reset.mouseout"/>
                       </use>
               </g>
        </defs>

<script type="text/javascript">
var viewWidth = 962;
var viewHeight = 979;
var sectionId = 'dynsection-16';
</script>
<script xlink:href="svgpan.js"/>
<svg id="graph" class="graph">
<g id="viewport">
<title>mom_regridding::build_slight_column</title>
<polygon fill="white" stroke="white" points="-4,5 -4,-975 959,-975 959,5 -4,5"/>
<!-- Node209 -->
<g id="node1" class="node"><title>Node209</title>
<g id="a_node1"><a xlink:title=" ">
<polygon fill="#bfbfbf" stroke="black" points="0,-814 0,-844 96,-844 96,-814 0,-814"/>
<text text-anchor="start" x="8" y="-832" font-family="Helvetica,sans-Serif" font-size="10.00">mom_regridding::build</text>
<text text-anchor="middle" x="48" y="-821" font-family="Helvetica,sans-Serif" font-size="10.00">_slight_column</text>
</a>
</g>
</g>
<!-- Node210 -->
<g id="node2" class="node"><title>Node210</title>
<g id="a_node2"><a xlink:href="namespacemom__eos.html#a14a3add75346358ce7d31d3b841a750d" target="_top" xlink:title="Calls the appropriate subroutine to calculate the density and compressibility for 1&#45;D array inputs.">
<polygon fill="white" stroke="black" points="134.5,-814 134.5,-844 221.5,-844 221.5,-814 134.5,-814"/>
<text text-anchor="start" x="142.5" y="-832" font-family="Helvetica,sans-Serif" font-size="10.00">mom_eos::calculate</text>
<text text-anchor="middle" x="178" y="-821" font-family="Helvetica,sans-Serif" font-size="10.00">_compress</text>
</a>
</g>
</g>
<!-- Node209&#45;&gt;Node210 -->
<g id="edge1" class="edge"><title>Node209&#45;&gt;Node210</title>
<path fill="none" stroke="midnightblue" d="M96.2988,-829C105.302,-829 114.779,-829 123.948,-829"/>
<polygon fill="midnightblue" stroke="midnightblue" points="124.126,-832.5 134.126,-829 124.126,-825.5 124.126,-832.5"/>
</g>
<!-- Node216 -->
<g id="node8" class="node"><title>Node216</title>
<g id="a_node8"><a xlink:href="namespacemom__error__handler.html#a460cfb79a06c29fc249952c2a3710d67" target="_top" xlink:title=" ">
<polygon fill="white" stroke="black" points="720.5,-702 720.5,-732 813.5,-732 813.5,-702 720.5,-702"/>
<text text-anchor="start" x="728.5" y="-720" font-family="Helvetica,sans-Serif" font-size="10.00">mom_error_handler::</text>
<text text-anchor="middle" x="767" y="-709" font-family="Helvetica,sans-Serif" font-size="10.00">mom_error</text>
</a>
</g>
</g>
<!-- Node209&#45;&gt;Node216 -->
<g id="edge9" class="edge"><title>Node209&#45;&gt;Node216</title>
<path fill="none" stroke="midnightblue" d="M64.453,-844.196C103.417,-880.829 210.27,-971 318,-971 318,-971 318,-971 474,-971 613.322,-971 718.52,-804.358 753.469,-741.028"/>
<polygon fill="midnightblue" stroke="midnightblue" points="756.604,-742.588 758.291,-732.128 750.449,-739.253 756.604,-742.588"/>
</g>
<!-- Node218 -->
<g id="node10" class="node"><title>Node218</title>
<g id="a_node10"><a xlink:href="namespacemom__regridding.html#aacf680ddf88e9c41a340dd426272906d" target="_top" xlink:title="Finds the new interface locations in a column of water that match the prescribed target densities.">
<polygon fill="white" stroke="black" points="132,-683 132,-713 224,-713 224,-683 132,-683"/>
<text text-anchor="start" x="140" y="-701" font-family="Helvetica,sans-Serif" font-size="10.00">mom_regridding::rho</text>
<text text-anchor="middle" x="178" y="-690" font-family="Helvetica,sans-Serif" font-size="10.00">_interfaces_col</text>
</a>
</g>
</g>
<!-- Node209&#45;&gt;Node218 -->
<g id="edge10" class="edge"><title>Node209&#45;&gt;Node218</title>
<path fill="none" stroke="midnightblue" d="M63.6832,-813.973C86.0361,-791.096 128.754,-747.376 154.878,-720.64"/>
<polygon fill="midnightblue" stroke="midnightblue" points="157.608,-722.854 162.094,-713.256 152.602,-717.962 157.608,-722.854"/>
</g>
<!-- Node211 -->
<g id="node3" class="node"><title>Node211</title>
<g id="a_node3"><a xlink:href="namespacemom__eos__linear.html#a2d051ebfb3ee1ef96888c74c09a1a6ca" target="_top" xlink:title=" ">
<polygon fill="white" stroke="black" points="263.5,-814 263.5,-844 374.5,-844 374.5,-814 263.5,-814"/>
<text text-anchor="start" x="271.5" y="-832" font-family="Helvetica,sans-Serif" font-size="10.00">mom_eos_linear::calculate</text>
<text text-anchor="middle" x="319" y="-821" font-family="Helvetica,sans-Serif" font-size="10.00">_compress_linear</text>
</a>
</g>
</g>
<!-- Node210&#45;&gt;Node211 -->
<g id="edge2" class="edge"><title>Node210&#45;&gt;Node211</title>
<path fill="none" stroke="midnightblue" d="M221.839,-829C231.813,-829 242.651,-829 253.335,-829"/>
<polygon fill="midnightblue" stroke="midnightblue" points="253.499,-832.5 263.499,-829 253.499,-825.5 253.499,-832.5"/>
</g>
<!-- Node212 -->
<g id="node4" class="node"><title>Node212</title>
<g id="a_node4"><a xlink:href="namespacemom__eos__nemo.html#ab9441b5fdd50f09a5bac70012def0ea7" target="_top" xlink:title=" ">
<polygon fill="white" stroke="black" points="263,-765 263,-795 375,-795 375,-765 263,-765"/>
<text text-anchor="start" x="271" y="-783" font-family="Helvetica,sans-Serif" font-size="10.00">mom_eos_nemo::calculate</text>
<text text-anchor="middle" x="319" y="-772" font-family="Helvetica,sans-Serif" font-size="10.00">_compress_nemo</text>
</a>
</g>
</g>
<!-- Node210&#45;&gt;Node212 -->
<g id="edge3" class="edge"><title>Node210&#45;&gt;Node212</title>
<path fill="none" stroke="midnightblue" d="M221.839,-813.899C235.579,-809.055 250.958,-803.634 265.317,-798.572"/>
<polygon fill="midnightblue" stroke="midnightblue" points="266.796,-801.762 275.063,-795.136 264.469,-795.16 266.796,-801.762"/>
</g>
<!-- Node214 -->
<g id="node6" class="node"><title>Node214</title>
<g id="a_node6"><a xlink:href="namespacemom__eos__unesco.html#a4a125f4eb70d4b2517dadd2f9446f261" target="_top" xlink:title=" ">
<polygon fill="white" stroke="black" points="260.5,-912 260.5,-942 377.5,-942 377.5,-912 260.5,-912"/>
<text text-anchor="start" x="268.5" y="-930" font-family="Helvetica,sans-Serif" font-size="10.00">mom_eos_unesco::calculate</text>
<text text-anchor="middle" x="319" y="-919" font-family="Helvetica,sans-Serif" font-size="10.00">_compress_unesco</text>
</a>
</g>
</g>
<!-- Node210&#45;&gt;Node214 -->
<g id="edge5" class="edge"><title>Node210&#45;&gt;Node214</title>
<path fill="none" stroke="midnightblue" d="M192.739,-844.014C207.974,-859.995 233.866,-885.24 260,-902 262.903,-903.862 265.968,-905.643 269.112,-907.337"/>
<polygon fill="midnightblue" stroke="midnightblue" points="267.605,-910.496 278.11,-911.867 270.752,-904.244 267.605,-910.496"/>
</g>
<!-- Node215 -->
<g id="node7" class="node"><title>Node215</title>
<g id="a_node7"><a xlink:href="namespacemom__eos__wright.html#ab5610ab6dd25f488ff5821dcbde78e0d" target="_top" xlink:title=" ">
<polygon fill="white" stroke="black" points="262.5,-863 262.5,-893 375.5,-893 375.5,-863 262.5,-863"/>
<text text-anchor="start" x="270.5" y="-881" font-family="Helvetica,sans-Serif" font-size="10.00">mom_eos_wright::calculate</text>
<text text-anchor="middle" x="319" y="-870" font-family="Helvetica,sans-Serif" font-size="10.00">_compress_wright</text>
</a>
</g>
</g>
<!-- Node210&#45;&gt;Node215 -->
<g id="edge6" class="edge"><title>Node210&#45;&gt;Node215</title>
<path fill="none" stroke="midnightblue" d="M221.839,-844.101C235.579,-848.945 250.958,-854.366 265.317,-859.428"/>
<polygon fill="midnightblue" stroke="midnightblue" points="264.469,-862.84 275.063,-862.864 266.796,-856.238 264.469,-862.84"/>
</g>
<!-- Node210&#45;&gt;Node216 -->
<g id="edge7" class="edge"><title>Node210&#45;&gt;Node216</title>
<path fill="none" stroke="midnightblue" d="M190.519,-813.807C204.715,-796.386 230.598,-768.612 260,-756 280.403,-747.248 582.42,-728.097 709.896,-720.351"/>
<polygon fill="midnightblue" stroke="midnightblue" points="710.453,-723.824 720.223,-719.725 710.029,-716.837 710.453,-723.824"/>
</g>
<!-- Node213 -->
<g id="node5" class="node"><title>Node213</title>
<g id="a_node5"><a xlink:href="namespacemom__eos__nemo.html#a6889819926cf3d89725e2987740ff922" target="_top" xlink:title=" ">
<polygon fill="white" stroke="black" points="417,-765 417,-795 529,-795 529,-765 417,-765"/>
<text text-anchor="start" x="425" y="-783" font-family="Helvetica,sans-Serif" font-size="10.00">mom_eos_nemo::calculate</text>
<text text-anchor="middle" x="473" y="-772" font-family="Helvetica,sans-Serif" font-size="10.00">_density_array_nemo</text>
</a>
</g>
</g>
<!-- Node212&#45;&gt;Node213 -->
<g id="edge4" class="edge"><title>Node212&#45;&gt;Node213</title>
<path fill="none" stroke="midnightblue" d="M375.305,-780C385.598,-780 396.438,-780 406.99,-780"/>
<polygon fill="midnightblue" stroke="midnightblue" points="406.99,-783.5 416.99,-780 406.99,-776.5 406.99,-783.5"/>
</g>
<!-- Node217 -->
<g id="node9" class="node"><title>Node217</title>
<g id="a_node9"><a xlink:href="namespacemom__error__handler.html#ad5f00a53059c72fe2332d1436c80ca71" target="_top" xlink:title=" ">
<polygon fill="white" stroke="black" points="860.5,-702 860.5,-732 953.5,-732 953.5,-702 860.5,-702"/>
<text text-anchor="start" x="868.5" y="-720" font-family="Helvetica,sans-Serif" font-size="10.00">mom_error_handler::</text>
<text text-anchor="middle" x="907" y="-709" font-family="Helvetica,sans-Serif" font-size="10.00">is_root_pe</text>
</a>
</g>
</g>
<!-- Node216&#45;&gt;Node217 -->
<g id="edge8" class="edge"><title>Node216&#45;&gt;Node217</title>
<path fill="none" stroke="midnightblue" d="M813.569,-717C825.345,-717 838.155,-717 850.381,-717"/>
<polygon fill="midnightblue" stroke="midnightblue" points="850.479,-720.5 860.479,-717 850.479,-713.5 850.479,-720.5"/>
</g>
<!-- Node218&#45;&gt;Node216 -->
<g id="edge11" class="edge"><title>Node218&#45;&gt;Node216</title>
<path fill="none" stroke="midnightblue" d="M224.086,-699.459C330.019,-702.888 594.543,-711.45 710.291,-715.197"/>
<polygon fill="midnightblue" stroke="midnightblue" points="710.248,-718.697 720.356,-715.523 710.475,-711.701 710.248,-718.697"/>
</g>
<!-- Node219 -->
<g id="node11" class="node"><title>Node219</title>
<g id="a_node11"><a xlink:href="namespacemom__regridding.html#a580e775df53e4bb61f118fcab44a3f92" target="_top" xlink:title="Given the set of target values and cell densities, this routine builds an interpolated profile for th...">
<polygon fill="white" stroke="black" points="261,-345 261,-375 377,-375 377,-345 261,-345"/>
<text text-anchor="start" x="269" y="-363" font-family="Helvetica,sans-Serif" font-size="10.00">mom_regridding::regridding</text>
<text text-anchor="middle" x="319" y="-352" font-family="Helvetica,sans-Serif" font-size="10.00">_set_ppolys</text>
</a>
</g>
</g>
<!-- Node218&#45;&gt;Node219 -->
<g id="edge12" class="edge"><title>Node218&#45;&gt;Node219</title>
<path fill="none" stroke="midnightblue" d="M185.334,-682.599C207.364,-629.028 280.777,-450.513 307.855,-384.669"/>
<polygon fill="midnightblue" stroke="midnightblue" points="311.221,-385.685 311.788,-375.106 304.748,-383.023 311.221,-385.685"/>
</g>
<!-- Node220 -->
<g id="node12" class="node"><title>Node220</title>
<g id="a_node12"><a xlink:href="namespacep1m__functions.html#a273326895b99b2f74560cc9ec4c26c3d" target="_top" xlink:title=" ">
<polygon fill="white" stroke="black" points="576.5,-154 576.5,-184 665.5,-184 665.5,-154 576.5,-154"/>
<text text-anchor="start" x="584.5" y="-172" font-family="Helvetica,sans-Serif" font-size="10.00">p1m_functions::p1m</text>
<text text-anchor="middle" x="621" y="-161" font-family="Helvetica,sans-Serif" font-size="10.00">_interpolation</text>
</a>
</g>
</g>
<!-- Node219&#45;&gt;Node220 -->
<g id="edge13" class="edge"><title>Node219&#45;&gt;Node220</title>
<path fill="none" stroke="midnightblue" d="M323.236,-344.795C331.489,-310.172 356.835,-225.559 414,-188 458.973,-158.451 521.867,-156.982 566.299,-160.846"/>
<polygon fill="midnightblue" stroke="midnightblue" points="566.034,-164.337 576.329,-161.835 566.721,-157.371 566.034,-164.337"/>
</g>
<!-- Node223 -->
<g id="node15" class="node"><title>Node223</title>
<g id="a_node15"><a xlink:href="namespacep1m__functions.html#a5b0595c2a8b890e7e539768bd1126942" target="_top" xlink:title=" ">
<polygon fill="white" stroke="black" points="420.5,-22 420.5,-52 525.5,-52 525.5,-22 420.5,-22"/>
<text text-anchor="start" x="428.5" y="-40" font-family="Helvetica,sans-Serif" font-size="10.00">p1m_functions::p1m</text>
<text text-anchor="middle" x="473" y="-29" font-family="Helvetica,sans-Serif" font-size="10.00">_boundary_extrapolation</text>
</a>
</g>
</g>
<!-- Node219&#45;&gt;Node223 -->
<g id="edge16" class="edge"><title>Node219&#45;&gt;Node223</title>
<path fill="none" stroke="midnightblue" d="M320.895,-344.673C324.398,-297.664 340.871,-153.479 414,-67 416.92,-63.5469 420.338,-60.4414 424.029,-57.6592"/>
<polygon fill="midnightblue" stroke="midnightblue" points="426.052,-60.5171 432.455,-52.0753 422.185,-54.6821 426.052,-60.5171"/>
</g>
<!-- Node224 -->
<g id="node16" class="node"><title>Node224</title>
<g id="a_node16"><a xlink:href="namespaceregrid__edge__values.html#a2c2460b31b6de501eed3cb7db07a4be5" target="_top" xlink:title=" ">
<polygon fill="white" stroke="black" points="419.5,-443 419.5,-473 526.5,-473 526.5,-443 419.5,-443"/>
<text text-anchor="start" x="427.5" y="-461" font-family="Helvetica,sans-Serif" font-size="10.00">regrid_edge_values</text>
<text text-anchor="middle" x="473" y="-450" font-family="Helvetica,sans-Serif" font-size="10.00">::edge_values_implicit_h4</text>
</a>
</g>
</g>
<!-- Node219&#45;&gt;Node224 -->
<g id="edge17" class="edge"><title>Node219&#45;&gt;Node224</title>
<path fill="none" stroke="midnightblue" d="M336.722,-375.119C354.823,-390.958 385.003,-415.868 414,-433 417.21,-434.896 420.59,-436.73 424.039,-438.484"/>
<polygon fill="midnightblue" stroke="midnightblue" points="422.731,-441.739 433.258,-442.93 425.771,-435.434 422.731,-441.739"/>
</g>
<!-- Node228 -->
<g id="node20" class="node"><title>Node228</title>
<g id="a_node20"><a xlink:href="namespaceplm__functions.html#abf6acfcb1bef51f0c1f8682de53782c4" target="_top" xlink:title=" ">
<polygon fill="white" stroke="black" points="431.5,-639 431.5,-669 514.5,-669 514.5,-639 431.5,-639"/>
<text text-anchor="start" x="439.5" y="-657" font-family="Helvetica,sans-Serif" font-size="10.00">plm_functions::plm</text>
<text text-anchor="middle" x="473" y="-646" font-family="Helvetica,sans-Serif" font-size="10.00">_reconstruction</text>
</a>
</g>
</g>
<!-- Node219&#45;&gt;Node228 -->
<g id="edge22" class="edge"><title>Node219&#45;&gt;Node228</title>
<path fill="none" stroke="midnightblue" d="M321.126,-375.251C325.212,-420.039 343.017,-552.805 414,-629 416.581,-631.77 419.521,-634.248 422.676,-636.462"/>
<polygon fill="midnightblue" stroke="midnightblue" points="421.058,-639.573 431.432,-641.725 424.664,-633.574 421.058,-639.573"/>
</g>
<!-- Node229 -->
<g id="node21" class="node"><title>Node229</title>
<g id="a_node21"><a xlink:href="namespaceplm__functions.html#a66dd52e70d72fb5830f9c4fb16efb2e8" target="_top" xlink:title=" ">
<polygon fill="white" stroke="black" points="420.5,-590 420.5,-620 525.5,-620 525.5,-590 420.5,-590"/>
<text text-anchor="start" x="428.5" y="-608" font-family="Helvetica,sans-Serif" font-size="10.00">plm_functions::plm</text>
<text text-anchor="middle" x="473" y="-597" font-family="Helvetica,sans-Serif" font-size="10.00">_boundary_extrapolation</text>
</a>
</g>
</g>
<!-- Node219&#45;&gt;Node229 -->
<g id="edge23" class="edge"><title>Node219&#45;&gt;Node229</title>
<path fill="none" stroke="midnightblue" d="M322.496,-375.248C329.654,-414.386 353.742,-519.55 414,-580 415.422,-581.427 416.939,-582.778 418.53,-584.056"/>
<polygon fill="midnightblue" stroke="midnightblue" points="416.774,-587.096 427.001,-589.861 420.731,-581.321 416.774,-587.096"/>
</g>
<!-- Node230 -->
<g id="node22" class="node"><title>Node230</title>
<g id="a_node22"><a xlink:href="namespaceppm__functions.html#a97e2144c7499aacd90858788f1312432" target="_top" xlink:title="Builds quadratic polynomials coefficients from cell mean and edge values.">
<polygon fill="white" stroke="black" points="428.5,-198 428.5,-228 517.5,-228 517.5,-198 428.5,-198"/>
<text text-anchor="start" x="436.5" y="-216" font-family="Helvetica,sans-Serif" font-size="10.00">ppm_functions::ppm</text>
<text text-anchor="middle" x="473" y="-205" font-family="Helvetica,sans-Serif" font-size="10.00">_reconstruction</text>
</a>
</g>
</g>
<!-- Node219&#45;&gt;Node230 -->
<g id="edge24" class="edge"><title>Node219&#45;&gt;Node230</title>
<path fill="none" stroke="midnightblue" d="M328.121,-344.685C342.362,-319.141 374.152,-267.627 414,-237 415.79,-235.624 417.67,-234.314 419.615,-233.067"/>
<polygon fill="midnightblue" stroke="midnightblue" points="421.522,-236.009 428.466,-228.007 418.047,-229.932 421.522,-236.009"/>
</g>
<!-- Node233 -->
<g id="node25" class="node"><title>Node233</title>
<g id="a_node25"><a xlink:href="namespaceppm__functions.html#aaf88d77ece3a30843c730fd2d57c517f" target="_top" xlink:title=" ">
<polygon fill="white" stroke="black" points="420.5,-541 420.5,-571 525.5,-571 525.5,-541 420.5,-541"/>
<text text-anchor="start" x="428.5" y="-559" font-family="Helvetica,sans-Serif" font-size="10.00">ppm_functions::ppm</text>
<text text-anchor="middle" x="473" y="-548" font-family="Helvetica,sans-Serif" font-size="10.00">_boundary_extrapolation</text>
</a>
</g>
</g>
<!-- Node219&#45;&gt;Node233 -->
<g id="edge28" class="edge"><title>Node219&#45;&gt;Node233</title>
<path fill="none" stroke="midnightblue" d="M324.644,-375.409C335.274,-408.267 364.356,-485.891 414,-531 415.714,-532.558 417.541,-534.029 419.449,-535.416"/>
<polygon fill="midnightblue" stroke="midnightblue" points="417.924,-538.593 428.246,-540.98 421.665,-532.677 417.924,-538.593"/>
</g>
<!-- Node234 -->
<g id="node26" class="node"><title>Node234</title>
<g id="a_node26"><a xlink:href="namespaceregrid__edge__slopes.html#a378dcb603968664e58d65e8ed892ec69" target="_top" xlink:title=" ">
<polygon fill="white" stroke="black" points="419.5,-394 419.5,-424 526.5,-424 526.5,-394 419.5,-394"/>
<text text-anchor="start" x="427.5" y="-412" font-family="Helvetica,sans-Serif" font-size="10.00">regrid_edge_slopes</text>
<text text-anchor="middle" x="473" y="-401" font-family="Helvetica,sans-Serif" font-size="10.00">::edge_slopes_implicit_h3</text>
</a>
</g>
</g>
<!-- Node219&#45;&gt;Node234 -->
<g id="edge29" class="edge"><title>Node219&#45;&gt;Node234</title>
<path fill="none" stroke="midnightblue" d="M366.845,-375.101C382.232,-380.062 399.497,-385.627 415.521,-390.793"/>
<polygon fill="midnightblue" stroke="midnightblue" points="414.718,-394.211 425.309,-393.948 416.866,-387.549 414.718,-394.211"/>
</g>
<!-- Node235 -->
<g id="node27" class="node"><title>Node235</title>
<g id="a_node27"><a xlink:href="namespacep3m__functions.html#a1769b4b4ced88bbd9f28e348a7bdeabc" target="_top" xlink:title=" ">
<polygon fill="white" stroke="black" points="428.5,-110 428.5,-140 517.5,-140 517.5,-110 428.5,-110"/>
<text text-anchor="start" x="436.5" y="-128" font-family="Helvetica,sans-Serif" font-size="10.00">p3m_functions::p3m</text>
<text text-anchor="middle" x="473" y="-117" font-family="Helvetica,sans-Serif" font-size="10.00">_interpolation</text>
</a>
</g>
</g>
<!-- Node219&#45;&gt;Node235 -->
<g id="edge33" class="edge"><title>Node219&#45;&gt;Node235</title>
<path fill="none" stroke="midnightblue" d="M323.301,-344.946C332.047,-308.189 359.011,-212.66 414,-155 417.345,-151.493 421.19,-148.32 425.275,-145.469"/>
<polygon fill="midnightblue" stroke="midnightblue" points="427.294,-148.334 433.913,-140.061 423.58,-142.4 427.294,-148.334"/>
</g>
<!-- Node240 -->
<g id="node32" class="node"><title>Node240</title>
<g id="a_node32"><a xlink:href="namespacep3m__functions.html#a1c48a9ed2f3ee6a192f99cbded1298ce" target="_top" xlink:title=" ">
<polygon fill="white" stroke="black" points="568.5,-51 568.5,-81 673.5,-81 673.5,-51 568.5,-51"/>
<text text-anchor="start" x="576.5" y="-69" font-family="Helvetica,sans-Serif" font-size="10.00">p3m_functions::p3m</text>
<text text-anchor="middle" x="621" y="-58" font-family="Helvetica,sans-Serif" font-size="10.00">_boundary_extrapolation</text>
</a>
</g>
</g>
<!-- Node219&#45;&gt;Node240 -->
<g id="edge40" class="edge"><title>Node219&#45;&gt;Node240</title>
<path fill="none" stroke="midnightblue" d="M320.474,-344.726C322.767,-299.394 336.132,-164.757 414,-100 453.818,-66.8867 513.353,-60.144 558.196,-60.6512"/>
<polygon fill="midnightblue" stroke="midnightblue" points="558.312,-64.1548 568.392,-60.8927 558.478,-57.1568 558.312,-64.1548"/>
</g>
<!-- Node241 -->
<g id="node33" class="node"><title>Node241</title>
<g id="a_node33"><a xlink:href="namespaceregrid__edge__values.html#a6c14843c556353d86f2efb4c7c74c9f5" target="_top" xlink:title=" ">
<polygon fill="white" stroke="black" points="419.5,-345 419.5,-375 526.5,-375 526.5,-345 419.5,-345"/>
<text text-anchor="start" x="427.5" y="-363" font-family="Helvetica,sans-Serif" font-size="10.00">regrid_edge_values</text>
<text text-anchor="middle" x="473" y="-352" font-family="Helvetica,sans-Serif" font-size="10.00">::edge_values_implicit_h6</text>
</a>
</g>
</g>
<!-- Node219&#45;&gt;Node241 -->
<g id="edge44" class="edge"><title>Node219&#45;&gt;Node241</title>
<path fill="none" stroke="midnightblue" d="M377.032,-360C387.501,-360 398.483,-360 409.113,-360"/>
<polygon fill="midnightblue" stroke="midnightblue" points="409.168,-363.5 419.168,-360 409.168,-356.5 409.168,-363.5"/>
</g>
<!-- Node242 -->
<g id="node34" class="node"><title>Node242</title>
<g id="a_node34"><a xlink:href="namespaceregrid__edge__slopes.html#a32fc906bf14cfb859703b4a1a7c46a9c" target="_top" xlink:title=" ">
<polygon fill="white" stroke="black" points="419.5,-296 419.5,-326 526.5,-326 526.5,-296 419.5,-296"/>
<text text-anchor="start" x="427.5" y="-314" font-family="Helvetica,sans-Serif" font-size="10.00">regrid_edge_slopes</text>
<text text-anchor="middle" x="473" y="-303" font-family="Helvetica,sans-Serif" font-size="10.00">::edge_slopes_implicit_h5</text>
</a>
</g>
</g>
<!-- Node219&#45;&gt;Node242 -->
<g id="edge48" class="edge"><title>Node219&#45;&gt;Node242</title>
<path fill="none" stroke="midnightblue" d="M366.845,-344.899C382.232,-339.938 399.497,-334.373 415.521,-329.207"/>
<polygon fill="midnightblue" stroke="midnightblue" points="416.866,-332.451 425.309,-326.052 414.718,-325.789 416.866,-332.451"/>
</g>
<!-- Node243 -->
<g id="node35" class="node"><title>Node243</title>
<g id="a_node35"><a xlink:href="namespacepqm__functions.html#ada7e1a8d9d70b5b78b5e2dfddb5ffa43" target="_top" xlink:title=" ">
<polygon fill="white" stroke="black" points="428.5,-247 428.5,-277 517.5,-277 517.5,-247 428.5,-247"/>
<text text-anchor="start" x="436.5" y="-265" font-family="Helvetica,sans-Serif" font-size="10.00">pqm_functions::pqm</text>
<text text-anchor="middle" x="473" y="-254" font-family="Helvetica,sans-Serif" font-size="10.00">_reconstruction</text>
</a>
</g>
</g>
<!-- Node219&#45;&gt;Node243 -->
<g id="edge52" class="edge"><title>Node219&#45;&gt;Node243</title>
<path fill="none" stroke="midnightblue" d="M336.305,-344.865C354.294,-328.738 384.605,-303.208 414,-286 416.642,-284.453 419.403,-282.957 422.224,-281.519"/>
<polygon fill="midnightblue" stroke="midnightblue" points="423.868,-284.612 431.371,-277.132 420.841,-278.3 423.868,-284.612"/>
</g>
<!-- Node245 -->
<g id="node37" class="node"><title>Node245</title>
<g id="a_node37"><a xlink:href="namespacepqm__functions.html#ae2c3bd1b82cddbe1bbb0e93e83d93e48" target="_top" xlink:title=" ">
<polygon fill="white" stroke="black" points="414,-492 414,-522 532,-522 532,-492 414,-492"/>
<text text-anchor="start" x="422" y="-510" font-family="Helvetica,sans-Serif" font-size="10.00">pqm_functions::pqm</text>
<text text-anchor="middle" x="473" y="-499" font-family="Helvetica,sans-Serif" font-size="10.00">_boundary_extrapolation_v1</text>
</a>
</g>
</g>
<!-- Node219&#45;&gt;Node245 -->
<g id="edge56" class="edge"><title>Node219&#45;&gt;Node245</title>
<path fill="none" stroke="midnightblue" d="M328.201,-375.124C342.561,-400.363 374.519,-451.318 414,-482 416.273,-483.766 418.689,-485.433 421.196,-487.002"/>
<polygon fill="midnightblue" stroke="midnightblue" points="419.561,-490.098 429.99,-491.965 423.001,-484.002 419.561,-490.098"/>
</g>
<!-- Node221 -->
<g id="node13" class="node"><title>Node221</title>
<g id="a_node13"><a xlink:href="namespaceregrid__edge__values.html#aa204fe78ee22cae62f2b7f1bc76151a9" target="_top" xlink:title=" ">
<polygon fill="white" stroke="black" points="720.5,-208 720.5,-238 813.5,-238 813.5,-208 720.5,-208"/>
<text text-anchor="start" x="728.5" y="-226" font-family="Helvetica,sans-Serif" font-size="10.00">regrid_edge_values</text>
<text text-anchor="middle" x="767" y="-215" font-family="Helvetica,sans-Serif" font-size="10.00">::bound_edge_values</text>
</a>
</g>
</g>
<!-- Node220&#45;&gt;Node221 -->
<g id="edge14" class="edge"><title>Node220&#45;&gt;Node221</title>
<path fill="none" stroke="midnightblue" d="M662.112,-184.042C678.894,-190.335 698.572,-197.714 716.262,-204.348"/>
<polygon fill="midnightblue" stroke="midnightblue" points="715.261,-207.711 725.854,-207.945 717.719,-201.157 715.261,-207.711"/>
</g>
<!-- Node222 -->
<g id="node14" class="node"><title>Node222</title>
<g id="a_node14"><a xlink:href="namespaceregrid__edge__values.html#a2d51073fc6e6639040566f966041fc06" target="_top" xlink:title=" ">
<polygon fill="white" stroke="black" points="715.5,-147.5 715.5,-188.5 818.5,-188.5 818.5,-147.5 715.5,-147.5"/>
<text text-anchor="start" x="723.5" y="-176.5" font-family="Helvetica,sans-Serif" font-size="10.00">regrid_edge_values</text>
<text text-anchor="start" x="723.5" y="-165.5" font-family="Helvetica,sans-Serif" font-size="10.00">::average_discontinuous</text>
<text text-anchor="middle" x="767" y="-154.5" font-family="Helvetica,sans-Serif" font-size="10.00">_edge_values</text>
</a>
</g>
</g>
<!-- Node220&#45;&gt;Node222 -->
<g id="edge15" class="edge"><title>Node220&#45;&gt;Node222</title>
<path fill="none" stroke="midnightblue" d="M665.596,-168.697C678.129,-168.61 692.03,-168.514 705.393,-168.421"/>
<polygon fill="midnightblue" stroke="midnightblue" points="705.501,-171.92 715.476,-168.351 705.452,-164.92 705.501,-171.92"/>
</g>
<!-- Node225 -->
<g id="node17" class="node"><title>Node225</title>
<g id="a_node17"><a xlink:href="namespaceregrid__solvers.html#a8130a338b59de62b00f68da4204568ad" target="_top" xlink:title=" ">
<polygon fill="white" stroke="black" points="576.5,-345 576.5,-375 665.5,-375 665.5,-345 576.5,-345"/>
<text text-anchor="start" x="584.5" y="-363" font-family="Helvetica,sans-Serif" font-size="10.00">regrid_solvers::solve</text>
<text text-anchor="middle" x="621" y="-352" font-family="Helvetica,sans-Serif" font-size="10.00">_linear_system</text>
</a>
</g>
</g>
<!-- Node224&#45;&gt;Node225 -->
<g id="edge18" class="edge"><title>Node224&#45;&gt;Node225</title>
<path fill="none" stroke="midnightblue" d="M516.391,-442.91C521.912,-440.05 527.281,-436.755 532,-433 553.147,-416.175 547.069,-401.093 568,-384 569.531,-382.75 571.137,-381.55 572.798,-380.398"/>
<polygon fill="midnightblue" stroke="midnightblue" points="574.791,-383.282 581.463,-375.052 571.115,-377.324 574.791,-383.282"/>
</g>
<!-- Node226 -->
<g id="node18" class="node"><title>Node226</title>
<g id="a_node18"><a xlink:href="namespacepolynomial__functions.html#aed77465c5ca9937dab06fdb5f94eba39" target="_top" xlink:title=" ">
<polygon fill="white" stroke="black" points="571.5,-443 571.5,-473 670.5,-473 670.5,-443 571.5,-443"/>
<text text-anchor="start" x="579.5" y="-461" font-family="Helvetica,sans-Serif" font-size="10.00">polynomial_functions</text>
<text text-anchor="middle" x="621" y="-450" font-family="Helvetica,sans-Serif" font-size="10.00">::evaluation_polynomial</text>
</a>
</g>
</g>
<!-- Node224&#45;&gt;Node226 -->
<g id="edge20" class="edge"><title>Node224&#45;&gt;Node226</title>
<path fill="none" stroke="midnightblue" d="M526.709,-458C537.841,-458 549.656,-458 561.002,-458"/>
<polygon fill="midnightblue" stroke="midnightblue" points="561.257,-461.5 571.257,-458 561.257,-454.5 561.257,-461.5"/>
</g>
<!-- Node227 -->
<g id="node19" class="node"><title>Node227</title>
<g id="a_node19"><a xlink:href="namespaceregrid__solvers.html#a0d5c3cff8f31429b0a2c6d267e8b345d" target="_top" xlink:title=" ">
<polygon fill="white" stroke="black" points="576.5,-394 576.5,-424 665.5,-424 665.5,-394 576.5,-394"/>
<text text-anchor="start" x="584.5" y="-412" font-family="Helvetica,sans-Serif" font-size="10.00">regrid_solvers::solve</text>
<text text-anchor="middle" x="621" y="-401" font-family="Helvetica,sans-Serif" font-size="10.00">_tridiagonal_system</text>
</a>
</g>
</g>
<!-- Node224&#45;&gt;Node227 -->
<g id="edge21" class="edge"><title>Node224&#45;&gt;Node227</title>
<path fill="none" stroke="midnightblue" d="M518.996,-442.899C534.122,-437.822 551.139,-432.111 566.832,-426.844"/>
<polygon fill="midnightblue" stroke="midnightblue" points="568.037,-430.132 576.404,-423.632 565.81,-423.495 568.037,-430.132"/>
</g>
<!-- Node225&#45;&gt;Node216 -->
<g id="edge19" class="edge"><title>Node225&#45;&gt;Node216</title>
<path fill="none" stroke="midnightblue" d="M663.843,-375.085C667.619,-377.636 671.104,-380.589 674,-384 752.574,-476.539 764.411,-630.908 765.923,-691.491"/>
<polygon fill="midnightblue" stroke="midnightblue" points="762.427,-691.738 766.099,-701.676 769.426,-691.617 762.427,-691.738"/>
</g>
<!-- Node231 -->
<g id="node23" class="node"><title>Node231</title>
<g id="a_node23"><a xlink:href="namespaceppm__functions.html#a89920c90b84f0b241c5a6d65fe2870b9" target="_top" xlink:title="Adjusts edge values using the standard PPM limiter (Colella &amp; Woodward, JCP 1984) after first checkin...">
<polygon fill="white" stroke="black" points="576.5,-205 576.5,-235 665.5,-235 665.5,-205 576.5,-205"/>
<text text-anchor="start" x="584.5" y="-223" font-family="Helvetica,sans-Serif" font-size="10.00">ppm_functions::ppm</text>
<text text-anchor="middle" x="621" y="-212" font-family="Helvetica,sans-Serif" font-size="10.00">_limiter_standard</text>
</a>
</g>
</g>
<!-- Node230&#45;&gt;Node231 -->
<g id="edge25" class="edge"><title>Node230&#45;&gt;Node231</title>
<path fill="none" stroke="midnightblue" d="M517.805,-215.1C533.032,-215.83 550.289,-216.658 566.228,-217.422"/>
<polygon fill="midnightblue" stroke="midnightblue" points="566.322,-220.93 576.478,-217.913 566.657,-213.938 566.322,-220.93"/>
</g>
<!-- Node231&#45;&gt;Node221 -->
<g id="edge26" class="edge"><title>Node231&#45;&gt;Node221</title>
<path fill="none" stroke="midnightblue" d="M665.596,-220.908C679.652,-221.201 695.43,-221.53 710.24,-221.838"/>
<polygon fill="midnightblue" stroke="midnightblue" points="710.235,-225.339 720.305,-222.048 710.38,-218.34 710.235,-225.339"/>
</g>
<!-- Node232 -->
<g id="node24" class="node"><title>Node232</title>
<g id="a_node24"><a xlink:href="namespaceregrid__edge__values.html#acbdacbbf7212e538bb52a9729fc949a7" target="_top" xlink:title=" ">
<polygon fill="white" stroke="black" points="720,-257.5 720,-298.5 814,-298.5 814,-257.5 720,-257.5"/>
<text text-anchor="start" x="728" y="-286.5" font-family="Helvetica,sans-Serif" font-size="10.00">regrid_edge_values</text>
<text text-anchor="start" x="728" y="-275.5" font-family="Helvetica,sans-Serif" font-size="10.00">::check_discontinuous</text>
<text text-anchor="middle" x="767" y="-264.5" font-family="Helvetica,sans-Serif" font-size="10.00">_edge_values</text>
</a>
</g>
</g>
<!-- Node231&#45;&gt;Node232 -->
<g id="edge27" class="edge"><title>Node231&#45;&gt;Node232</title>
<path fill="none" stroke="midnightblue" d="M659.458,-235.087C675.068,-241.375 693.516,-248.805 710.636,-255.701"/>
<polygon fill="midnightblue" stroke="midnightblue" points="709.401,-258.976 719.984,-259.466 712.016,-252.483 709.401,-258.976"/>
</g>
<!-- Node234&#45;&gt;Node225 -->
<g id="edge30" class="edge"><title>Node234&#45;&gt;Node225</title>
<path fill="none" stroke="midnightblue" d="M518.996,-393.899C534.122,-388.822 551.139,-383.111 566.832,-377.844"/>
<polygon fill="midnightblue" stroke="midnightblue" points="568.037,-381.132 576.404,-374.632 565.81,-374.495 568.037,-381.132"/>
</g>
<!-- Node234&#45;&gt;Node226 -->
<g id="edge31" class="edge"><title>Node234&#45;&gt;Node226</title>
<path fill="none" stroke="midnightblue" d="M518.996,-424.101C533.636,-429.015 550.046,-434.522 565.314,-439.647"/>
<polygon fill="midnightblue" stroke="midnightblue" points="564.558,-443.085 575.152,-442.948 566.786,-436.448 564.558,-443.085"/>
</g>
<!-- Node234&#45;&gt;Node227 -->
<g id="edge32" class="edge"><title>Node234&#45;&gt;Node227</title>
<path fill="none" stroke="midnightblue" d="M526.709,-409C539.599,-409 553.406,-409 566.34,-409"/>
<polygon fill="midnightblue" stroke="midnightblue" points="566.492,-412.5 576.492,-409 566.492,-405.5 566.492,-412.5"/>
</g>
<!-- Node236 -->
<g id="node28" class="node"><title>Node236</title>
<g id="a_node28"><a xlink:href="namespacep3m__functions.html#a377fa3f7b5caf101d47fa0d4c9b84f64" target="_top" xlink:title=" ">
<polygon fill="white" stroke="black" points="576.5,-102 576.5,-132 665.5,-132 665.5,-102 576.5,-102"/>
<text text-anchor="start" x="584.5" y="-120" font-family="Helvetica,sans-Serif" font-size="10.00">p3m_functions::p3m</text>
<text text-anchor="middle" x="621" y="-109" font-family="Helvetica,sans-Serif" font-size="10.00">_limiter</text>
</a>
</g>
</g>
<!-- Node235&#45;&gt;Node236 -->
<g id="edge34" class="edge"><title>Node235&#45;&gt;Node236</title>
<path fill="none" stroke="midnightblue" d="M517.805,-122.6C533.032,-121.765 550.289,-120.82 566.228,-119.946"/>
<polygon fill="midnightblue" stroke="midnightblue" points="566.684,-123.427 576.478,-119.385 566.301,-116.437 566.684,-123.427"/>
</g>
<!-- Node236&#45;&gt;Node221 -->
<g id="edge35" class="edge"><title>Node236&#45;&gt;Node221</title>
<path fill="none" stroke="midnightblue" d="M657.152,-132.136C663.123,-135.553 669.001,-139.519 674,-144 695.478,-163.254 687.963,-179.388 710,-198 711.957,-199.653 714.041,-201.216 716.211,-202.692"/>
<polygon fill="midnightblue" stroke="midnightblue" points="714.549,-205.777 724.918,-207.954 718.17,-199.786 714.549,-205.777"/>
</g>
<!-- Node236&#45;&gt;Node222 -->
<g id="edge36" class="edge"><title>Node236&#45;&gt;Node222</title>
<path fill="none" stroke="midnightblue" d="M664.426,-132.026C677.435,-136.633 692.004,-141.793 705.956,-146.735"/>
<polygon fill="midnightblue" stroke="midnightblue" points="704.896,-150.072 715.49,-150.111 707.233,-143.473 704.896,-150.072"/>
</g>
<!-- Node237 -->
<g id="node29" class="node"><title>Node237</title>
<g id="a_node29"><a xlink:href="namespacep3m__functions.html#a073c1f3e8fabe99bdae91ef37e5161ee" target="_top" xlink:title=" ">
<polygon fill="white" stroke="black" points="722.5,-98 722.5,-128 811.5,-128 811.5,-98 722.5,-98"/>
<text text-anchor="start" x="730.5" y="-116" font-family="Helvetica,sans-Serif" font-size="10.00">p3m_functions::build</text>
<text text-anchor="middle" x="767" y="-105" font-family="Helvetica,sans-Serif" font-size="10.00">_cubic_interpolant</text>
</a>
</g>
</g>
<!-- Node236&#45;&gt;Node237 -->
<g id="edge37" class="edge"><title>Node236&#45;&gt;Node237</title>
<path fill="none" stroke="midnightblue" d="M665.596,-115.789C680.123,-115.385 696.488,-114.931 711.724,-114.508"/>
<polygon fill="midnightblue" stroke="midnightblue" points="712.157,-117.997 722.056,-114.221 711.962,-111 712.157,-117.997"/>
</g>
<!-- Node238 -->
<g id="node30" class="node"><title>Node238</title>
<g id="a_node30"><a xlink:href="namespacep3m__functions.html#a7c194c12772ac968650dc2072d5b32ba" target="_top" xlink:title=" ">
<polygon fill="white" stroke="black" points="716.5,-49 716.5,-79 817.5,-79 817.5,-49 716.5,-49"/>
<text text-anchor="start" x="724.5" y="-67" font-family="Helvetica,sans-Serif" font-size="10.00">p3m_functions::is_cubic</text>
<text text-anchor="middle" x="767" y="-56" font-family="Helvetica,sans-Serif" font-size="10.00">_monotonic</text>
</a>
</g>
</g>
<!-- Node236&#45;&gt;Node238 -->
<g id="edge38" class="edge"><title>Node236&#45;&gt;Node238</title>
<path fill="none" stroke="midnightblue" d="M662.879,-101.954C679.144,-95.9677 698.033,-89.0157 715.166,-82.7096"/>
<polygon fill="midnightblue" stroke="midnightblue" points="716.843,-85.8222 725.018,-79.0835 714.425,-79.253 716.843,-85.8222"/>
</g>
<!-- Node239 -->
<g id="node31" class="node"><title>Node239</title>
<g id="a_node31"><a xlink:href="namespacep3m__functions.html#adb96651fe725f11e90dec2b8509989b0" target="_top" xlink:title=" ">
<polygon fill="white" stroke="black" points="710,-0 710,-30 824,-30 824,-0 710,-0"/>
<text text-anchor="start" x="718" y="-18" font-family="Helvetica,sans-Serif" font-size="10.00">p3m_functions::monotonize</text>
<text text-anchor="middle" x="767" y="-7" font-family="Helvetica,sans-Serif" font-size="10.00">_cubic</text>
</a>
</g>
</g>
<!-- Node236&#45;&gt;Node239 -->
<g id="edge39" class="edge"><title>Node236&#45;&gt;Node239</title>
<path fill="none" stroke="midnightblue" d="M656.782,-101.908C662.856,-98.4662 668.865,-94.4812 674,-90 694.904,-71.7572 688.435,-56.4568 710,-39 711.542,-37.7521 713.158,-36.5583 714.829,-35.4173"/>
<polygon fill="midnightblue" stroke="midnightblue" points="716.807,-38.3115 723.559,-30.1469 713.19,-32.3188 716.807,-38.3115"/>
</g>
<!-- Node240&#45;&gt;Node237 -->
<g id="edge41" class="edge"><title>Node240&#45;&gt;Node237</title>
<path fill="none" stroke="midnightblue" d="M667.958,-81.0003C682.136,-85.6278 697.871,-90.7635 712.511,-95.5417"/>
<polygon fill="midnightblue" stroke="midnightblue" points="711.846,-99.0063 722.438,-98.7819 714.018,-92.3518 711.846,-99.0063"/>
</g>
<!-- Node240&#45;&gt;Node238 -->
<g id="edge42" class="edge"><title>Node240&#45;&gt;Node238</title>
<path fill="none" stroke="midnightblue" d="M673.581,-65.2836C684.1,-65.1375 695.252,-64.9826 706.035,-64.8329"/>
<polygon fill="midnightblue" stroke="midnightblue" points="706.276,-68.3299 716.226,-64.6913 706.178,-61.3306 706.276,-68.3299"/>
</g>
<!-- Node240&#45;&gt;Node239 -->
<g id="edge43" class="edge"><title>Node240&#45;&gt;Node239</title>
<path fill="none" stroke="midnightblue" d="M664.426,-50.9742C679.815,-45.5237 697.387,-39.3006 713.538,-33.5801"/>
<polygon fill="midnightblue" stroke="midnightblue" points="715.122,-36.7324 723.38,-30.0947 712.785,-30.134 715.122,-36.7324"/>
</g>
<!-- Node241&#45;&gt;Node225 -->
<g id="edge45" class="edge"><title>Node241&#45;&gt;Node225</title>
<path fill="none" stroke="midnightblue" d="M526.709,-360C539.599,-360 553.406,-360 566.34,-360"/>
<polygon fill="midnightblue" stroke="midnightblue" points="566.492,-363.5 576.492,-360 566.492,-356.5 566.492,-363.5"/>
</g>
<!-- Node241&#45;&gt;Node226 -->
<g id="edge46" class="edge"><title>Node241&#45;&gt;Node226</title>
<path fill="none" stroke="midnightblue" d="M517.896,-375.082C522.886,-377.675 527.711,-380.639 532,-384 553.269,-400.67 547.204,-415.743 568,-433 569.956,-434.623 572.035,-436.17 574.194,-437.64"/>
<polygon fill="midnightblue" stroke="midnightblue" points="572.466,-440.686 582.822,-442.926 576.124,-434.718 572.466,-440.686"/>
</g>
<!-- Node241&#45;&gt;Node227 -->
<g id="edge47" class="edge"><title>Node241&#45;&gt;Node227</title>
<path fill="none" stroke="midnightblue" d="M518.996,-375.101C534.122,-380.178 551.139,-385.889 566.832,-391.156"/>
<polygon fill="midnightblue" stroke="midnightblue" points="565.81,-394.505 576.404,-394.368 568.037,-387.868 565.81,-394.505"/>
</g>
<!-- Node242&#45;&gt;Node225 -->
<g id="edge49" class="edge"><title>Node242&#45;&gt;Node225</title>
<path fill="none" stroke="midnightblue" d="M518.996,-326.101C534.122,-331.178 551.139,-336.889 566.832,-342.156"/>
<polygon fill="midnightblue" stroke="midnightblue" points="565.81,-345.505 576.404,-345.368 568.037,-338.868 565.81,-345.505"/>
</g>
<!-- Node242&#45;&gt;Node226 -->
<g id="edge50" class="edge"><title>Node242&#45;&gt;Node226</title>
<path fill="none" stroke="midnightblue" d="M520.615,-326.002C524.785,-328.564 528.678,-331.542 532,-335 564.143,-368.465 536.803,-398.651 568,-433 569.181,-434.3 570.443,-435.539 571.772,-436.72"/>
<polygon fill="midnightblue" stroke="midnightblue" points="569.872,-439.67 579.977,-442.856 574.065,-434.064 569.872,-439.67"/>
</g>
<!-- Node242&#45;&gt;Node227 -->
<g id="edge51" class="edge"><title>Node242&#45;&gt;Node227</title>
<path fill="none" stroke="midnightblue" d="M517.896,-326.082C522.886,-328.675 527.711,-331.639 532,-335 553.269,-351.67 547.204,-366.743 568,-384 569.956,-385.623 572.035,-387.17 574.194,-388.64"/>
<polygon fill="midnightblue" stroke="midnightblue" points="572.466,-391.686 582.822,-393.926 576.124,-385.718 572.466,-391.686"/>
</g>
<!-- Node244 -->
<g id="node36" class="node"><title>Node244</title>
<g id="a_node36"><a xlink:href="namespacepqm__functions.html#a0ce0d64922453de1312adec7b8746544" target="_top" xlink:title=" ">
<polygon fill="white" stroke="black" points="576.5,-254 576.5,-284 665.5,-284 665.5,-254 576.5,-254"/>
<text text-anchor="start" x="584.5" y="-272" font-family="Helvetica,sans-Serif" font-size="10.00">pqm_functions::pqm</text>
<text text-anchor="middle" x="621" y="-261" font-family="Helvetica,sans-Serif" font-size="10.00">_limiter</text>
</a>
</g>
</g>
<!-- Node243&#45;&gt;Node244 -->
<g id="edge53" class="edge"><title>Node243&#45;&gt;Node244</title>
<path fill="none" stroke="midnightblue" d="M517.805,-264.1C533.032,-264.83 550.289,-265.658 566.228,-266.422"/>
<polygon fill="midnightblue" stroke="midnightblue" points="566.322,-269.93 576.478,-266.913 566.657,-262.938 566.322,-269.93"/>
</g>
<!-- Node244&#45;&gt;Node221 -->
<g id="edge54" class="edge"><title>Node244&#45;&gt;Node221</title>
<path fill="none" stroke="midnightblue" d="M665.596,-255.074C679.788,-250.54 695.733,-245.446 710.667,-240.676"/>
<polygon fill="midnightblue" stroke="midnightblue" points="711.845,-243.974 720.305,-237.597 709.715,-237.306 711.845,-243.974"/>
</g>
<!-- Node244&#45;&gt;Node232 -->
<g id="edge55" class="edge"><title>Node244&#45;&gt;Node232</title>
<path fill="none" stroke="midnightblue" d="M665.596,-271.725C679.518,-272.595 695.128,-273.57 709.814,-274.488"/>
<polygon fill="midnightblue" stroke="midnightblue" points="709.603,-277.982 719.802,-275.113 710.04,-270.996 709.603,-277.982"/>
</g>
</g>
</svg>
        <g id="navigator" transform="translate(0 0)" fill="#404254">
                <rect fill="#f2f5e9" fill-opacity="0.5" stroke="#606060" stroke-width=".5" x="0" y="0" width="60" height="60"/>
                <use id="zoomplus" xlink:href="#zoomPlus" x="17" y="9" onmousedown="handleZoom(evt,'in')"/>
                <use id="zoomminus" xlink:href="#zoomMin" x="42" y="9" onmousedown="handleZoom(evt,'out')"/>
                <use id="reset" xlink:href="#resetDef" x="30" y="36" onmousedown="handleReset()"/>
                <g id="arrowUp" xlink:href="#dirArrow" transform="translate(30 24)" onmousedown="handlePan(0,-1)">
                  <use xlink:href="#rim" fill="#404040">
                        <set attributeName="fill" to="#808080" begin="arrowUp.mouseover" end="arrowUp.mouseout"/>
                  </use>
                  <path fill="none" stroke="white" stroke-width="1.5" d="M0,-3.0v7 M-2.5,-0.5L0,-3.0L2.5,-0.5"/>
                </g>
                <g id="arrowRight" xlink:href="#dirArrow" transform="rotate(90) translate(36 -43)" onmousedown="handlePan(1,0)">
                  <use xlink:href="#rim" fill="#404040">
                        <set attributeName="fill" to="#808080" begin="arrowRight.mouseover" end="arrowRight.mouseout"/>
                  </use>
                  <path fill="none" stroke="white" stroke-width="1.5" d="M0,-3.0v7 M-2.5,-0.5L0,-3.0L2.5,-0.5"/>
                </g>
                <g id="arrowDown" xlink:href="#dirArrow" transform="rotate(180) translate(-30 -48)" onmousedown="handlePan(0,1)">
                  <use xlink:href="#rim" fill="#404040">
                        <set attributeName="fill" to="#808080" begin="arrowDown.mouseover" end="arrowDown.mouseout"/>
                  </use>
                  <path fill="none" stroke="white" stroke-width="1.5" d="M0,-3.0v7 M-2.5,-0.5L0,-3.0L2.5,-0.5"/>
                </g>
                <g id="arrowLeft" xlink:href="#dirArrow" transform="rotate(270) translate(-36 17)" onmousedown="handlePan(-1,0)">
                  <use xlink:href="#rim" fill="#404040">
                        <set attributeName="fill" to="#808080" begin="arrowLeft.mouseover" end="arrowLeft.mouseout"/>
                  </use>
                  <path fill="none" stroke="white" stroke-width="1.5" d="M0,-3.0v7 M-2.5,-0.5L0,-3.0L2.5,-0.5"/>
                </g>
        </g>
        <svg viewBox="0 0 15 15" width="100%" height="30px" preserveAspectRatio="xMaxYMin meet">
         <g id="arrow_out" transform="scale(0.3 0.3)">
          <a xlink:href="namespacemom__regridding_a5927168e530c06163baf3693a804e15f_cgraph_org.svg" target="_base">
           <rect id="button" ry="5" rx="5" y="6" x="6" height="38" width="38"
                fill="#f2f5e9" fill-opacity="0.5" stroke="#606060" stroke-width="1.0"/>
           <path id="arrow"
             d="M 11.500037,31.436501 C 11.940474,20.09759 22.043105,11.32322 32.158766,21.979434 L 37.068811,17.246167 C 37.068811,17.246167 37.088388,32 37.088388,32 L 22.160133,31.978069 C 22.160133,31.978069 26.997745,27.140456 26.997745,27.140456 C 18.528582,18.264221 13.291696,25.230495 11.500037,31.436501 z"
             style="fill:#404040;"/>
          </a>
         </g>
        </svg>
</svg>
