<?xml version="1.0" encoding="UTF-8" standalone="no"?>
<!DOCTYPE svg PUBLIC "-//W3C//DTD SVG 1.1//EN"
 "http://www.w3.org/Graphics/SVG/1.1/DTD/svg11.dtd">
<!-- Generated by graphviz version 2.30.1 (20170916.1124)
 -->
<!-- Title: mom_legacy_barotropic::legacy_barotropic_init Pages: 1 -->
<svg width="518pt" height="248pt"
 viewBox="0.00 0.00 518.00 248.36" xmlns="http://www.w3.org/2000/svg" xmlns:xlink="http://www.w3.org/1999/xlink">
<g id="graph0" class="graph" transform="scale(1 1) rotate(0) translate(4 244.356)">
<title>mom_legacy_barotropic::legacy_barotropic_init</title>
<polygon fill="white" stroke="white" points="-4,5 -4,-244.356 515,-244.356 515,5 -4,5"/>
<!-- Node33 -->
<g id="node1" class="node"><title>Node33</title>
<g id="a_node1"><a xlink:title=" ">
<polygon fill="#bfbfbf" stroke="black" points="0,-94.3561 0,-124.356 102,-124.356 102,-94.3561 0,-94.3561"/>
<text text-anchor="start" x="8" y="-112.356" font-family="Helvetica,sans-Serif" font-size="10.00">mom_legacy_barotropic</text>
<text text-anchor="middle" x="51" y="-101.356" font-family="Helvetica,sans-Serif" font-size="10.00">::legacy_barotropic_init</text>
</a>
</g>
</g>
<!-- Node34 -->
<g id="node2" class="node"><title>Node34</title>
<g id="a_node2"><a xlink:href="namespacemom__variables.html#a26d7f4002ba856a1929f5a3962eb0e99" target="_top" xlink:title=" ">
<polygon fill="white" stroke="black" points="143.5,-70.3561 143.5,-100.356 234.5,-100.356 234.5,-70.3561 143.5,-70.3561"/>
<text text-anchor="start" x="151.5" y="-88.3561" font-family="Helvetica,sans-Serif" font-size="10.00">mom_variables::alloc</text>
<text text-anchor="middle" x="189" y="-77.3561" font-family="Helvetica,sans-Serif" font-size="10.00">_bt_cont_type</text>
</a>
</g>
</g>
<!-- Node33&#45;&gt;Node34 -->
<g id="edge1" class="edge"><title>Node33&#45;&gt;Node34</title>
<path fill="none" stroke="midnightblue" d="M102.255,-100.488C112.356,-98.7049 123.02,-96.8232 133.265,-95.0152"/>
<polygon fill="midnightblue" stroke="midnightblue" points="134.095,-98.4229 143.335,-93.2382 132.879,-91.5294 134.095,-98.4229"/>
</g>
<!-- Node37 -->
<g id="node5" class="node"><title>Node37</title>
<g id="a_node5"><a xlink:href="namespacemom__legacy__barotropic.html#ab334a4e8ef23ec6d784b24b6336d22f7" target="_top" xlink:title=" ">
<polygon fill="white" stroke="black" points="277,-168.356 277,-198.356 379,-198.356 379,-168.356 277,-168.356"/>
<text text-anchor="start" x="285" y="-186.356" font-family="Helvetica,sans-Serif" font-size="10.00">mom_legacy_barotropic</text>
<text text-anchor="middle" x="328" y="-175.356" font-family="Helvetica,sans-Serif" font-size="10.00">::find_face_areas</text>
</a>
</g>
</g>
<!-- Node33&#45;&gt;Node37 -->
<g id="edge4" class="edge"><title>Node33&#45;&gt;Node37</title>
<path fill="none" stroke="midnightblue" d="M73.165,-124.521C89.9314,-135.743 114.385,-150.407 138,-158.356 179.576,-172.351 228.762,-178.556 266.534,-181.286"/>
<polygon fill="midnightblue" stroke="midnightblue" points="266.661,-184.802 276.869,-181.967 267.121,-177.817 266.661,-184.802"/>
</g>
<!-- Node38 -->
<g id="node6" class="node"><title>Node38</title>
<g id="a_node6"><a xlink:href="namespacemom__legacy__barotropic.html#a22c219e251401bfcd6ca49f5899e181b" target="_top" xlink:title=" ">
<polygon fill="white" stroke="black" points="138,-21.3561 138,-51.3561 240,-51.3561 240,-21.3561 138,-21.3561"/>
<text text-anchor="start" x="146" y="-39.3561" font-family="Helvetica,sans-Serif" font-size="10.00">mom_legacy_barotropic</text>
<text text-anchor="middle" x="189" y="-28.3561" font-family="Helvetica,sans-Serif" font-size="10.00">::legacy_btcalc</text>
</a>
</g>
</g>
<!-- Node33&#45;&gt;Node38 -->
<g id="edge5" class="edge"><title>Node33&#45;&gt;Node38</title>
<path fill="none" stroke="midnightblue" d="M77.329,-94.3007C94.3223,-84.3551 117.3,-71.204 138,-60.3561 140.857,-58.8588 143.823,-57.3424 146.819,-55.8376"/>
<polygon fill="midnightblue" stroke="midnightblue" points="148.41,-58.9555 155.825,-51.3882 145.31,-52.6796 148.41,-58.9555"/>
</g>
<!-- Node39 -->
<g id="node7" class="node"><title>Node39</title>
<g id="a_node7"><a xlink:href="namespacemom__legacy__barotropic.html#aaa2063f7d7fbe940bc5bd80117befaed" target="_top" xlink:title=" ">
<polygon fill="white" stroke="black" points="138,-119.356 138,-149.356 240,-149.356 240,-119.356 138,-119.356"/>
<text text-anchor="start" x="146" y="-137.356" font-family="Helvetica,sans-Serif" font-size="10.00">mom_legacy_barotropic</text>
<text text-anchor="middle" x="189" y="-126.356" font-family="Helvetica,sans-Serif" font-size="10.00">::legacy_set_dtbt</text>
</a>
</g>
</g>
<!-- Node33&#45;&gt;Node39 -->
<g id="edge7" class="edge"><title>Node33&#45;&gt;Node39</title>
<path fill="none" stroke="midnightblue" d="M102.255,-118.594C110.63,-120.134 119.392,-121.744 127.981,-123.323"/>
<polygon fill="midnightblue" stroke="midnightblue" points="127.484,-126.79 137.952,-125.156 128.749,-119.906 127.484,-126.79"/>
</g>
<!-- Node35 -->
<g id="node3" class="node"><title>Node35</title>
<g id="a_node3"><a xlink:href="namespacemom__error__handler.html#a460cfb79a06c29fc249952c2a3710d67" target="_top" xlink:title=" ">
<polygon fill="white" stroke="black" points="281.5,-21.3561 281.5,-51.3561 374.5,-51.3561 374.5,-21.3561 281.5,-21.3561"/>
<text text-anchor="start" x="289.5" y="-39.3561" font-family="Helvetica,sans-Serif" font-size="10.00">mom_error_handler::</text>
<text text-anchor="middle" x="328" y="-28.3561" font-family="Helvetica,sans-Serif" font-size="10.00">mom_error</text>
</a>
</g>
</g>
<!-- Node33&#45;&gt;Node35 -->
<g id="edge12" class="edge"><title>Node33&#45;&gt;Node35</title>
<path fill="none" stroke="midnightblue" d="M59.7858,-94.1634C72.5334,-71.1808 100.266,-28.446 138,-11.3561 184.556,9.72918 243.712,-3.71762 283.329,-17.7098"/>
<polygon fill="midnightblue" stroke="midnightblue" points="282.368,-21.0854 292.961,-21.2581 284.788,-14.5169 282.368,-21.0854"/>
</g>
<!-- Node42 -->
<g id="node10" class="node"><title>Node42</title>
<g id="a_node10"><a xlink:href="namespacemom__error__handler.html#a1c462df7b61f1296407b4af51dfeceab" target="_top" xlink:title=" ">
<polygon fill="white" stroke="black" points="142.5,-210.356 142.5,-240.356 235.5,-240.356 235.5,-210.356 142.5,-210.356"/>
<text text-anchor="start" x="150.5" y="-228.356" font-family="Helvetica,sans-Serif" font-size="10.00">mom_error_handler::</text>
<text text-anchor="middle" x="189" y="-217.356" font-family="Helvetica,sans-Serif" font-size="10.00">mom_mesg</text>
</a>
</g>
</g>
<!-- Node33&#45;&gt;Node42 -->
<g id="edge13" class="edge"><title>Node33&#45;&gt;Node42</title>
<path fill="none" stroke="midnightblue" d="M65.3907,-124.527C81.5791,-142.39 110.132,-172.401 138,-194.356 142.626,-198 147.704,-201.575 152.796,-204.928"/>
<polygon fill="midnightblue" stroke="midnightblue" points="150.985,-207.924 161.302,-210.332 154.739,-202.015 150.985,-207.924"/>
</g>
<!-- Node34&#45;&gt;Node35 -->
<g id="edge2" class="edge"><title>Node34&#45;&gt;Node35</title>
<path fill="none" stroke="midnightblue" d="M232.222,-70.2546C245.765,-65.411 260.922,-59.9897 275.076,-54.9276"/>
<polygon fill="midnightblue" stroke="midnightblue" points="276.444,-58.1553 284.681,-51.492 274.087,-51.5642 276.444,-58.1553"/>
</g>
<!-- Node36 -->
<g id="node4" class="node"><title>Node36</title>
<g id="a_node4"><a xlink:href="namespacemom__error__handler.html#ad5f00a53059c72fe2332d1436c80ca71" target="_top" xlink:title=" ">
<polygon fill="white" stroke="black" points="416.5,-116.356 416.5,-146.356 509.5,-146.356 509.5,-116.356 416.5,-116.356"/>
<text text-anchor="start" x="424.5" y="-134.356" font-family="Helvetica,sans-Serif" font-size="10.00">mom_error_handler::</text>
<text text-anchor="middle" x="463" y="-123.356" font-family="Helvetica,sans-Serif" font-size="10.00">is_root_pe</text>
</a>
</g>
</g>
<!-- Node35&#45;&gt;Node36 -->
<g id="edge3" class="edge"><title>Node35&#45;&gt;Node36</title>
<path fill="none" stroke="midnightblue" d="M364.254,-51.3889C369.662,-54.1353 375.078,-57.1545 380,-60.3561 401.84,-74.5633 424.025,-94.1528 439.802,-109.157"/>
<polygon fill="midnightblue" stroke="midnightblue" points="437.379,-111.682 447.003,-116.11 442.241,-106.646 437.379,-111.682"/>
</g>
<!-- Node38&#45;&gt;Node35 -->
<g id="edge6" class="edge"><title>Node38&#45;&gt;Node35</title>
<path fill="none" stroke="midnightblue" d="M240.236,-36.3561C250.316,-36.3561 260.966,-36.3561 271.221,-36.3561"/>
<polygon fill="midnightblue" stroke="midnightblue" points="271.31,-39.8562 281.31,-36.3561 271.31,-32.8562 271.31,-39.8562"/>
</g>
<!-- Node39&#45;&gt;Node35 -->
<g id="edge8" class="edge"><title>Node39&#45;&gt;Node35</title>
<path fill="none" stroke="midnightblue" d="M225.479,-119.284C230.606,-116.364 235.622,-113.047 240,-109.356 260.662,-91.9387 255.132,-77.5263 276,-60.3561 277.502,-59.1203 279.078,-57.9318 280.708,-56.7906"/>
<polygon fill="midnightblue" stroke="midnightblue" points="282.581,-59.7468 289.208,-51.4797 278.872,-53.8103 282.581,-59.7468"/>
</g>
<!-- Node40 -->
<g id="node8" class="node"><title>Node40</title>
<g id="a_node8"><a xlink:href="namespacemom__legacy__barotropic.html#aa06249abf57a70498ab07eee534e5e52" target="_top" xlink:title=" ">
<polygon fill="white" stroke="black" points="276.5,-70.3561 276.5,-100.356 379.5,-100.356 379.5,-70.3561 276.5,-70.3561"/>
<text text-anchor="start" x="284.5" y="-88.3561" font-family="Helvetica,sans-Serif" font-size="10.00">mom_legacy_barotropic</text>
<text text-anchor="middle" x="328" y="-77.3561" font-family="Helvetica,sans-Serif" font-size="10.00">::bt_cont_to_face_areas</text>
</a>
</g>
</g>
<!-- Node39&#45;&gt;Node40 -->
<g id="edge9" class="edge"><title>Node39&#45;&gt;Node40</title>
<path fill="none" stroke="midnightblue" d="M232.222,-119.255C245.765,-114.411 260.922,-108.99 275.076,-103.928"/>
<polygon fill="midnightblue" stroke="midnightblue" points="276.444,-107.155 284.681,-100.492 274.087,-100.564 276.444,-107.155"/>
</g>
<!-- Node39&#45;&gt;Node37 -->
<g id="edge10" class="edge"><title>Node39&#45;&gt;Node37</title>
<path fill="none" stroke="midnightblue" d="M232.222,-149.458C245.765,-154.301 260.922,-159.722 275.076,-164.785"/>
<polygon fill="midnightblue" stroke="midnightblue" points="274.087,-168.148 284.681,-168.22 276.444,-161.557 274.087,-168.148"/>
</g>
<!-- Node41 -->
<g id="node9" class="node"><title>Node41</title>
<g id="a_node9"><a xlink:href="namespacemom__tidal__forcing.html#a0a1564c68489a35802c626a07f4629d7" target="_top" xlink:title=" ">
<polygon fill="white" stroke="black" points="279.5,-119.356 279.5,-149.356 376.5,-149.356 376.5,-119.356 279.5,-119.356"/>
<text text-anchor="start" x="287.5" y="-137.356" font-family="Helvetica,sans-Serif" font-size="10.00">mom_tidal_forcing::</text>
<text text-anchor="middle" x="328" y="-126.356" font-family="Helvetica,sans-Serif" font-size="10.00">tidal_forcing_sensitivity</text>
</a>
</g>
</g>
<!-- Node39&#45;&gt;Node41 -->
<g id="edge11" class="edge"><title>Node39&#45;&gt;Node41</title>
<path fill="none" stroke="midnightblue" d="M240.236,-134.356C249.545,-134.356 259.341,-134.356 268.862,-134.356"/>
<polygon fill="midnightblue" stroke="midnightblue" points="269.051,-137.856 279.051,-134.356 269.051,-130.856 269.051,-137.856"/>
</g>
<!-- Node42&#45;&gt;Node36 -->
<g id="edge14" class="edge"><title>Node42&#45;&gt;Node36</title>
<path fill="none" stroke="midnightblue" d="M235.835,-229.047C275.67,-230.423 334.033,-227.936 380,-207.356 406.034,-195.7 429.199,-172.383 444.211,-154.633"/>
<polygon fill="midnightblue" stroke="midnightblue" points="447.286,-156.401 450.902,-146.442 441.865,-151.972 447.286,-156.401"/>
</g>
</g>
</svg>
