<?xml version="1.0" encoding="UTF-8" standalone="no"?>
<!DOCTYPE svg PUBLIC "-//W3C//DTD SVG 1.1//EN"
 "http://www.w3.org/Graphics/SVG/1.1/DTD/svg11.dtd">
<!-- Generated by graphviz version 2.30.1 (20170916.1124)
 -->
<!-- Title: mom_domains::complete_group_pass Pages: 1 -->
<svg width="368pt" height="165pt"
 viewBox="0.00 0.00 368.00 165.00" xmlns="http://www.w3.org/2000/svg" xmlns:xlink="http://www.w3.org/1999/xlink">
<g id="graph0" class="graph" transform="scale(1 1) rotate(0) translate(4 161)">
<title>mom_domains::complete_group_pass</title>
<polygon fill="white" stroke="white" points="-4,5 -4,-161 365,-161 365,5 -4,5"/>
<!-- Node9 -->
<g id="node1" class="node"><title>Node9</title>
<g id="a_node1"><a xlink:title=" ">
<polygon fill="#bfbfbf" stroke="black" points="254,-66 254,-96 360,-96 360,-66 254,-66"/>
<text text-anchor="start" x="262" y="-84" font-family="Helvetica,sans-Serif" font-size="10.00">mom_domains::complete</text>
<text text-anchor="middle" x="307" y="-73" font-family="Helvetica,sans-Serif" font-size="10.00">_group_pass</text>
</a>
</g>
</g>
<!-- Node10 -->
<g id="node2" class="node"><title>Node10</title>
<g id="a_node2"><a xlink:href="namespacemom__barotropic.html#a98cdf3c559146cc9485fcb9daa4cdbca" target="_top" xlink:title=" ">
<polygon fill="white" stroke="black" points="104.5,-137.5 104.5,-156.5 205.5,-156.5 205.5,-137.5 104.5,-137.5"/>
<text text-anchor="middle" x="155" y="-144.5" font-family="Helvetica,sans-Serif" font-size="10.00">mom_barotropic::btstep</text>
</a>
</g>
</g>
<!-- Node9&#45;&gt;Node10 -->
<g id="edge1" class="edge"><title>Node9&#45;&gt;Node10</title>
<path fill="none" stroke="midnightblue" d="M271.056,-101.01C255.167,-109.651 235.943,-119.48 218,-127 208.821,-130.847 198.626,-134.412 189.199,-137.435"/>
<polygon fill="midnightblue" stroke="midnightblue" points="272.922,-103.978 279.991,-96.0864 269.544,-97.8476 272.922,-103.978"/>
</g>
<!-- Node11 -->
<g id="node3" class="node"><title>Node11</title>
<g id="a_node3"><a xlink:href="namespacemom__internal__tides.html#a6cae26da43d0539e8ac959105cf125c2" target="_top" xlink:title=" ">
<polygon fill="white" stroke="black" points="111,-88 111,-118 199,-118 199,-88 111,-88"/>
<text text-anchor="start" x="119" y="-106" font-family="Helvetica,sans-Serif" font-size="10.00">mom_internal_tides</text>
<text text-anchor="middle" x="155" y="-95" font-family="Helvetica,sans-Serif" font-size="10.00">::propagate_int_tide</text>
</a>
</g>
</g>
<!-- Node9&#45;&gt;Node11 -->
<g id="edge2" class="edge"><title>Node9&#45;&gt;Node11</title>
<path fill="none" stroke="midnightblue" d="M243.694,-90.1382C228.662,-92.3429 212.929,-94.6505 199.006,-96.6925"/>
<polygon fill="midnightblue" stroke="midnightblue" points="244.572,-93.547 253.958,-88.6328 243.556,-86.6211 244.572,-93.547"/>
</g>
<!-- Node12 -->
<g id="node4" class="node"><title>Node12</title>
<g id="a_node4"><a xlink:href="namespacemom.html#a4c8332b095c6d295084089aa6b3b678a" target="_top" xlink:title="This subroutine orchestrates the time stepping of MOM. The adiabatic dynamics are stepped by calls to...">
<polygon fill="white" stroke="black" points="116.5,-49.5 116.5,-68.5 193.5,-68.5 193.5,-49.5 116.5,-49.5"/>
<text text-anchor="middle" x="155" y="-56.5" font-family="Helvetica,sans-Serif" font-size="10.00">mom::step_mom</text>
</a>
</g>
</g>
<!-- Node9&#45;&gt;Node12 -->
<g id="edge3" class="edge"><title>Node9&#45;&gt;Node12</title>
<path fill="none" stroke="midnightblue" d="M244.05,-71.914C226.992,-69.4121 209.004,-66.774 193.765,-64.5389"/>
<polygon fill="midnightblue" stroke="midnightblue" points="243.556,-75.3789 253.958,-73.3672 244.572,-68.453 243.556,-75.3789"/>
</g>
<!-- Node14 -->
<g id="node6" class="node"><title>Node14</title>
<g id="a_node6"><a xlink:href="namespacemom__dynamics__split__rk2.html#a81cce65643a8cf94979d68354a9a1979" target="_top" xlink:title="RK2 splitting for time stepping MOM adiabatic dynamics.">
<polygon fill="white" stroke="black" points="92.5,-0 92.5,-30 217.5,-30 217.5,-0 92.5,-0"/>
<text text-anchor="start" x="100.5" y="-18" font-family="Helvetica,sans-Serif" font-size="10.00">mom_dynamics_split</text>
<text text-anchor="middle" x="155" y="-7" font-family="Helvetica,sans-Serif" font-size="10.00">_rk2::step_mom_dyn_split_rk2</text>
</a>
</g>
</g>
<!-- Node9&#45;&gt;Node14 -->
<g id="edge5" class="edge"><title>Node9&#45;&gt;Node14</title>
<path fill="none" stroke="midnightblue" d="M265.412,-61.5454C250.572,-54.5763 233.599,-46.7732 218,-40 210.335,-36.6718 202.077,-33.2382 194.167,-30.0217"/>
<polygon fill="midnightblue" stroke="midnightblue" points="264.284,-64.8828 274.821,-65.9853 267.271,-58.5523 264.284,-64.8828"/>
</g>
<!-- Node13 -->
<g id="node5" class="node"><title>Node13</title>
<g id="a_node5"><a xlink:href="MOM__driver_8F90.html#a08fffeb2d8e8acbf9ed4609be6d258c6" target="_top" xlink:title=" ">
<polygon fill="white" stroke="black" points="0,-49.5 0,-68.5 56,-68.5 56,-49.5 0,-49.5"/>
<text text-anchor="middle" x="28" y="-56.5" font-family="Helvetica,sans-Serif" font-size="10.00">mom_main</text>
</a>
</g>
</g>
<!-- Node12&#45;&gt;Node13 -->
<g id="edge4" class="edge"><title>Node12&#45;&gt;Node13</title>
<path fill="none" stroke="midnightblue" d="M106.191,-59C89.246,-59 70.7741,-59 56.1496,-59"/>
<polygon fill="midnightblue" stroke="midnightblue" points="106.496,-62.5001 116.496,-59 106.496,-55.5001 106.496,-62.5001"/>
</g>
</g>
</svg>
