<?xml version="1.0" encoding="UTF-8" standalone="no"?>
<!DOCTYPE svg PUBLIC "-//W3C//DTD SVG 1.1//EN"
 "http://www.w3.org/Graphics/SVG/1.1/DTD/svg11.dtd">
<!-- Generated by graphviz version 2.30.1 (20170916.1124)
 -->
<!-- Title: mom_regridding::build_rho_column Pages: 1 -->
<svg width="852pt" height="678pt"
 viewBox="0.00 0.00 852.00 678.12" xmlns="http://www.w3.org/2000/svg" xmlns:xlink="http://www.w3.org/1999/xlink">
<g id="graph0" class="graph" transform="scale(1 1) rotate(0) translate(4 674.125)">
<title>mom_regridding::build_rho_column</title>
<polygon fill="white" stroke="white" points="-4,5 -4,-674.125 849,-674.125 849,5 -4,5"/>
<!-- Node125 -->
<g id="node1" class="node"><title>Node125</title>
<g id="a_node1"><a xlink:title=" ">
<polygon fill="#bfbfbf" stroke="black" points="0,-323 0,-353 96,-353 96,-323 0,-323"/>
<text text-anchor="start" x="8" y="-341" font-family="Helvetica,sans-Serif" font-size="10.00">mom_regridding::build</text>
<text text-anchor="middle" x="48" y="-330" font-family="Helvetica,sans-Serif" font-size="10.00">_rho_column</text>
</a>
</g>
</g>
<!-- Node126 -->
<g id="node2" class="node"><title>Node126</title>
<g id="a_node2"><a xlink:href="namespacemom__regridding.html#a12dff5ec4c479e77db1813a8d53db7c2" target="_top" xlink:title=" ">
<polygon fill="white" stroke="black" points="132.5,-519.5 132.5,-538.5 267.5,-538.5 267.5,-519.5 132.5,-519.5"/>
<text text-anchor="middle" x="200" y="-526.5" font-family="Helvetica,sans-Serif" font-size="10.00">mom_regridding::interpolate_grid</text>
</a>
</g>
</g>
<!-- Node125&#45;&gt;Node126 -->
<g id="edge1" class="edge"><title>Node125&#45;&gt;Node126</title>
<path fill="none" stroke="midnightblue" d="M61.0216,-353.307C88.5679,-388.383 156.115,-474.394 185.253,-511.495"/>
<polygon fill="midnightblue" stroke="midnightblue" points="182.551,-513.721 191.48,-519.424 188.056,-509.398 182.551,-513.721"/>
</g>
<!-- Node130 -->
<g id="node6" class="node"><title>Node130</title>
<g id="a_node6"><a xlink:href="namespacemom__regridding.html#a392230123ef4347e6fe6c0b847be60bc" target="_top" xlink:title=" ">
<polygon fill="white" stroke="black" points="155,-274 155,-304 245,-304 245,-274 155,-274"/>
<text text-anchor="start" x="163" y="-292" font-family="Helvetica,sans-Serif" font-size="10.00">mom_regridding::old</text>
<text text-anchor="middle" x="200" y="-281" font-family="Helvetica,sans-Serif" font-size="10.00">_inflate_layers_1d</text>
</a>
</g>
</g>
<!-- Node125&#45;&gt;Node130 -->
<g id="edge5" class="edge"><title>Node125&#45;&gt;Node130</title>
<path fill="none" stroke="midnightblue" d="M95.2289,-322.899C110.983,-317.752 128.734,-311.954 145.04,-306.627"/>
<polygon fill="midnightblue" stroke="midnightblue" points="146.557,-309.813 154.976,-303.381 144.384,-303.159 146.557,-309.813"/>
</g>
<!-- Node131 -->
<g id="node7" class="node"><title>Node131</title>
<g id="a_node7"><a xlink:href="namespacemom__regridding.html#a580e775df53e4bb61f118fcab44a3f92" target="_top" xlink:title="Given the set of target values and cell densities, this routine builds an interpolated profile for th...">
<polygon fill="white" stroke="black" points="142,-323 142,-353 258,-353 258,-323 142,-323"/>
<text text-anchor="start" x="150" y="-341" font-family="Helvetica,sans-Serif" font-size="10.00">mom_regridding::regridding</text>
<text text-anchor="middle" x="200" y="-330" font-family="Helvetica,sans-Serif" font-size="10.00">_set_ppolys</text>
</a>
</g>
</g>
<!-- Node125&#45;&gt;Node131 -->
<g id="edge6" class="edge"><title>Node125&#45;&gt;Node131</title>
<path fill="none" stroke="midnightblue" d="M96.0494,-338C107.393,-338 119.733,-338 131.8,-338"/>
<polygon fill="midnightblue" stroke="midnightblue" points="131.844,-341.5 141.844,-338 131.844,-334.5 131.844,-341.5"/>
</g>
<!-- Node127 -->
<g id="node3" class="node"><title>Node127</title>
<g id="a_node3"><a xlink:href="namespacemom__regridding.html#a6ec0dea34ca979892fcaf54a2c676c5e" target="_top" xlink:title=" ">
<polygon fill="white" stroke="black" points="460.5,-590 460.5,-620 561.5,-620 561.5,-590 460.5,-590"/>
<text text-anchor="start" x="468.5" y="-608" font-family="Helvetica,sans-Serif" font-size="10.00">mom_regridding::get</text>
<text text-anchor="middle" x="511" y="-597" font-family="Helvetica,sans-Serif" font-size="10.00">_polynomial_coordinate</text>
</a>
</g>
</g>
<!-- Node126&#45;&gt;Node127 -->
<g id="edge2" class="edge"><title>Node126&#45;&gt;Node127</title>
<path fill="none" stroke="midnightblue" d="M205.211,-538.763C216.683,-563.938 251.207,-630.843 304,-656 351.344,-678.56 371.354,-669.615 422,-656 443.726,-650.159 465.623,-637.5 482.14,-626.256"/>
<polygon fill="midnightblue" stroke="midnightblue" points="484.567,-628.828 490.727,-620.207 480.536,-623.105 484.567,-628.828"/>
</g>
<!-- Node128 -->
<g id="node4" class="node"><title>Node128</title>
<g id="a_node4"><a xlink:href="namespacemom__error__handler.html#a460cfb79a06c29fc249952c2a3710d67" target="_top" xlink:title=" ">
<polygon fill="white" stroke="black" points="610.5,-481 610.5,-511 703.5,-511 703.5,-481 610.5,-481"/>
<text text-anchor="start" x="618.5" y="-499" font-family="Helvetica,sans-Serif" font-size="10.00">mom_error_handler::</text>
<text text-anchor="middle" x="657" y="-488" font-family="Helvetica,sans-Serif" font-size="10.00">mom_error</text>
</a>
</g>
</g>
<!-- Node127&#45;&gt;Node128 -->
<g id="edge3" class="edge"><title>Node127&#45;&gt;Node128</title>
<path fill="none" stroke="midnightblue" d="M532.023,-589.844C556.955,-570.972 599.693,-538.622 627.897,-517.273"/>
<polygon fill="midnightblue" stroke="midnightblue" points="630.287,-519.853 636.147,-511.027 626.062,-514.272 630.287,-519.853"/>
</g>
<!-- Node129 -->
<g id="node5" class="node"><title>Node129</title>
<g id="a_node5"><a xlink:href="namespacemom__error__handler.html#ad5f00a53059c72fe2332d1436c80ca71" target="_top" xlink:title=" ">
<polygon fill="white" stroke="black" points="750.5,-481 750.5,-511 843.5,-511 843.5,-481 750.5,-481"/>
<text text-anchor="start" x="758.5" y="-499" font-family="Helvetica,sans-Serif" font-size="10.00">mom_error_handler::</text>
<text text-anchor="middle" x="797" y="-488" font-family="Helvetica,sans-Serif" font-size="10.00">is_root_pe</text>
</a>
</g>
</g>
<!-- Node128&#45;&gt;Node129 -->
<g id="edge4" class="edge"><title>Node128&#45;&gt;Node129</title>
<path fill="none" stroke="midnightblue" d="M703.569,-496C715.345,-496 728.155,-496 740.381,-496"/>
<polygon fill="midnightblue" stroke="midnightblue" points="740.479,-499.5 750.479,-496 740.479,-492.5 740.479,-499.5"/>
</g>
<!-- Node132 -->
<g id="node8" class="node"><title>Node132</title>
<g id="a_node8"><a xlink:href="namespacep1m__functions.html#a273326895b99b2f74560cc9ec4c26c3d" target="_top" xlink:title=" ">
<polygon fill="white" stroke="black" points="466.5,-181 466.5,-211 555.5,-211 555.5,-181 466.5,-181"/>
<text text-anchor="start" x="474.5" y="-199" font-family="Helvetica,sans-Serif" font-size="10.00">p1m_functions::p1m</text>
<text text-anchor="middle" x="511" y="-188" font-family="Helvetica,sans-Serif" font-size="10.00">_interpolation</text>
</a>
</g>
</g>
<!-- Node131&#45;&gt;Node132 -->
<g id="edge7" class="edge"><title>Node131&#45;&gt;Node132</title>
<path fill="none" stroke="midnightblue" d="M254.803,-322.916C259.629,-320.142 264.141,-316.866 268,-313 300.487,-280.456 267.563,-244.052 304,-216 346.923,-182.955 410.732,-181.894 455.942,-186.606"/>
<polygon fill="midnightblue" stroke="midnightblue" points="455.811,-190.115 466.15,-187.8 456.624,-183.162 455.811,-190.115"/>
</g>
<!-- Node135 -->
<g id="node11" class="node"><title>Node135</title>
<g id="a_node11"><a xlink:href="namespacep1m__functions.html#a5b0595c2a8b890e7e539768bd1126942" target="_top" xlink:title=" ">
<polygon fill="white" stroke="black" points="310.5,-49 310.5,-79 415.5,-79 415.5,-49 310.5,-49"/>
<text text-anchor="start" x="318.5" y="-67" font-family="Helvetica,sans-Serif" font-size="10.00">p1m_functions::p1m</text>
<text text-anchor="middle" x="363" y="-56" font-family="Helvetica,sans-Serif" font-size="10.00">_boundary_extrapolation</text>
</a>
</g>
</g>
<!-- Node131&#45;&gt;Node135 -->
<g id="edge10" class="edge"><title>Node131&#45;&gt;Node135</title>
<path fill="none" stroke="midnightblue" d="M256.867,-322.832C261.041,-320.083 264.845,-316.835 268,-313 330.658,-236.818 246.031,-173.809 304,-94 306.405,-90.6893 309.284,-87.7158 312.457,-85.0503"/>
<polygon fill="midnightblue" stroke="midnightblue" points="314.753,-87.711 320.844,-79.042 310.676,-82.0205 314.753,-87.711"/>
</g>
<!-- Node136 -->
<g id="node12" class="node"><title>Node136</title>
<g id="a_node12"><a xlink:href="namespaceregrid__edge__values.html#a2c2460b31b6de501eed3cb7db07a4be5" target="_top" xlink:title=" ">
<polygon fill="white" stroke="black" points="309.5,-323 309.5,-353 416.5,-353 416.5,-323 309.5,-323"/>
<text text-anchor="start" x="317.5" y="-341" font-family="Helvetica,sans-Serif" font-size="10.00">regrid_edge_values</text>
<text text-anchor="middle" x="363" y="-330" font-family="Helvetica,sans-Serif" font-size="10.00">::edge_values_implicit_h4</text>
</a>
</g>
</g>
<!-- Node131&#45;&gt;Node136 -->
<g id="edge11" class="edge"><title>Node131&#45;&gt;Node136</title>
<path fill="none" stroke="midnightblue" d="M258.216,-338C271.468,-338 285.642,-338 299.122,-338"/>
<polygon fill="midnightblue" stroke="midnightblue" points="299.269,-341.5 309.269,-338 299.269,-334.5 299.269,-341.5"/>
</g>
<!-- Node140 -->
<g id="node16" class="node"><title>Node140</title>
<g id="a_node16"><a xlink:href="namespaceplm__functions.html#abf6acfcb1bef51f0c1f8682de53782c4" target="_top" xlink:title=" ">
<polygon fill="white" stroke="black" points="321.5,-0 321.5,-30 404.5,-30 404.5,-0 321.5,-0"/>
<text text-anchor="start" x="329.5" y="-18" font-family="Helvetica,sans-Serif" font-size="10.00">plm_functions::plm</text>
<text text-anchor="middle" x="363" y="-7" font-family="Helvetica,sans-Serif" font-size="10.00">_reconstruction</text>
</a>
</g>
</g>
<!-- Node131&#45;&gt;Node140 -->
<g id="edge16" class="edge"><title>Node131&#45;&gt;Node140</title>
<path fill="none" stroke="midnightblue" d="M257,-322.94C261.146,-320.168 264.908,-316.886 268,-313 344.479,-216.892 229.224,-136.439 304,-39 306.467,-35.7851 309.441,-32.9977 312.723,-30.5816"/>
<polygon fill="midnightblue" stroke="midnightblue" points="314.673,-33.4922 321.402,-25.3082 311.038,-27.51 314.673,-33.4922"/>
</g>
<!-- Node141 -->
<g id="node17" class="node"><title>Node141</title>
<g id="a_node17"><a xlink:href="namespaceplm__functions.html#a66dd52e70d72fb5830f9c4fb16efb2e8" target="_top" xlink:title=" ">
<polygon fill="white" stroke="black" points="310.5,-617 310.5,-647 415.5,-647 415.5,-617 310.5,-617"/>
<text text-anchor="start" x="318.5" y="-635" font-family="Helvetica,sans-Serif" font-size="10.00">plm_functions::plm</text>
<text text-anchor="middle" x="363" y="-624" font-family="Helvetica,sans-Serif" font-size="10.00">_boundary_extrapolation</text>
</a>
</g>
</g>
<!-- Node131&#45;&gt;Node141 -->
<g id="edge17" class="edge"><title>Node131&#45;&gt;Node141</title>
<path fill="none" stroke="midnightblue" d="M206.997,-353.154C218.819,-383.077 245.9,-451.89 268,-510 284.346,-552.981 272.334,-573.656 304,-607 305.359,-608.431 306.814,-609.785 308.344,-611.064"/>
<polygon fill="midnightblue" stroke="midnightblue" points="306.348,-613.939 316.531,-616.865 310.395,-608.228 306.348,-613.939"/>
</g>
<!-- Node142 -->
<g id="node18" class="node"><title>Node142</title>
<g id="a_node18"><a xlink:href="namespaceppm__functions.html#a97e2144c7499aacd90858788f1312432" target="_top" xlink:title="Builds quadratic polynomials coefficients from cell mean and edge values.">
<polygon fill="white" stroke="black" points="318.5,-274 318.5,-304 407.5,-304 407.5,-274 318.5,-274"/>
<text text-anchor="start" x="326.5" y="-292" font-family="Helvetica,sans-Serif" font-size="10.00">ppm_functions::ppm</text>
<text text-anchor="middle" x="363" y="-281" font-family="Helvetica,sans-Serif" font-size="10.00">_reconstruction</text>
</a>
</g>
</g>
<!-- Node131&#45;&gt;Node142 -->
<g id="edge18" class="edge"><title>Node131&#45;&gt;Node142</title>
<path fill="none" stroke="midnightblue" d="M250.619,-322.899C268.945,-317.321 289.789,-310.977 308.448,-305.298"/>
<polygon fill="midnightblue" stroke="midnightblue" points="309.723,-308.569 318.27,-302.309 307.684,-301.872 309.723,-308.569"/>
</g>
<!-- Node145 -->
<g id="node21" class="node"><title>Node145</title>
<g id="a_node21"><a xlink:href="namespaceppm__functions.html#aaf88d77ece3a30843c730fd2d57c517f" target="_top" xlink:title=" ">
<polygon fill="white" stroke="black" points="310.5,-568 310.5,-598 415.5,-598 415.5,-568 310.5,-568"/>
<text text-anchor="start" x="318.5" y="-586" font-family="Helvetica,sans-Serif" font-size="10.00">ppm_functions::ppm</text>
<text text-anchor="middle" x="363" y="-575" font-family="Helvetica,sans-Serif" font-size="10.00">_boundary_extrapolation</text>
</a>
</g>
</g>
<!-- Node131&#45;&gt;Node145 -->
<g id="edge22" class="edge"><title>Node131&#45;&gt;Node145</title>
<path fill="none" stroke="midnightblue" d="M206.468,-353.133C222.798,-397.658 272.057,-527.029 304,-558 305.476,-559.431 307.047,-560.787 308.691,-562.07"/>
<polygon fill="midnightblue" stroke="midnightblue" points="307.16,-565.257 317.42,-567.902 311.049,-559.436 307.16,-565.257"/>
</g>
<!-- Node146 -->
<g id="node22" class="node"><title>Node146</title>
<g id="a_node22"><a xlink:href="namespaceregrid__edge__slopes.html#a378dcb603968664e58d65e8ed892ec69" target="_top" xlink:title=" ">
<polygon fill="white" stroke="black" points="309.5,-470 309.5,-500 416.5,-500 416.5,-470 309.5,-470"/>
<text text-anchor="start" x="317.5" y="-488" font-family="Helvetica,sans-Serif" font-size="10.00">regrid_edge_slopes</text>
<text text-anchor="middle" x="363" y="-477" font-family="Helvetica,sans-Serif" font-size="10.00">::edge_slopes_implicit_h3</text>
</a>
</g>
</g>
<!-- Node131&#45;&gt;Node146 -->
<g id="edge23" class="edge"><title>Node131&#45;&gt;Node146</title>
<path fill="none" stroke="midnightblue" d="M210.342,-353.08C226.6,-378.253 262.37,-429.114 304,-460 306.353,-461.746 308.846,-463.399 311.426,-464.961"/>
<polygon fill="midnightblue" stroke="midnightblue" points="309.995,-468.169 320.445,-469.917 313.367,-462.034 309.995,-468.169"/>
</g>
<!-- Node147 -->
<g id="node23" class="node"><title>Node147</title>
<g id="a_node23"><a xlink:href="namespacep3m__functions.html#a1769b4b4ced88bbd9f28e348a7bdeabc" target="_top" xlink:title=" ">
<polygon fill="white" stroke="black" points="318.5,-137 318.5,-167 407.5,-167 407.5,-137 318.5,-137"/>
<text text-anchor="start" x="326.5" y="-155" font-family="Helvetica,sans-Serif" font-size="10.00">p3m_functions::p3m</text>
<text text-anchor="middle" x="363" y="-144" font-family="Helvetica,sans-Serif" font-size="10.00">_interpolation</text>
</a>
</g>
</g>
<!-- Node131&#45;&gt;Node147 -->
<g id="edge27" class="edge"><title>Node131&#45;&gt;Node147</title>
<path fill="none" stroke="midnightblue" d="M255.803,-322.864C260.312,-320.105 264.48,-316.847 268,-313 308.755,-268.448 265.995,-228.919 304,-182 306.729,-178.63 309.938,-175.598 313.422,-172.877"/>
<polygon fill="midnightblue" stroke="midnightblue" points="315.648,-175.597 321.953,-167.083 311.715,-169.806 315.648,-175.597"/>
</g>
<!-- Node152 -->
<g id="node28" class="node"><title>Node152</title>
<g id="a_node28"><a xlink:href="namespacep3m__functions.html#a1c48a9ed2f3ee6a192f99cbded1298ce" target="_top" xlink:title=" ">
<polygon fill="white" stroke="black" points="458.5,-76 458.5,-106 563.5,-106 563.5,-76 458.5,-76"/>
<text text-anchor="start" x="466.5" y="-94" font-family="Helvetica,sans-Serif" font-size="10.00">p3m_functions::p3m</text>
<text text-anchor="middle" x="511" y="-83" font-family="Helvetica,sans-Serif" font-size="10.00">_boundary_extrapolation</text>
</a>
</g>
</g>
<!-- Node131&#45;&gt;Node152 -->
<g id="edge34" class="edge"><title>Node131&#45;&gt;Node152</title>
<path fill="none" stroke="midnightblue" d="M256.436,-322.94C260.758,-320.167 264.711,-316.885 268,-313 322.4,-248.731 243.922,-185.995 304,-127 324.016,-107.344 394.937,-98.3006 448.008,-94.2196"/>
<polygon fill="midnightblue" stroke="midnightblue" points="448.308,-97.7071 458.028,-93.4909 447.801,-90.7255 448.308,-97.7071"/>
</g>
<!-- Node153 -->
<g id="node29" class="node"><title>Node153</title>
<g id="a_node29"><a xlink:href="namespaceregrid__edge__values.html#a6c14843c556353d86f2efb4c7c74c9f5" target="_top" xlink:title=" ">
<polygon fill="white" stroke="black" points="309.5,-421 309.5,-451 416.5,-451 416.5,-421 309.5,-421"/>
<text text-anchor="start" x="317.5" y="-439" font-family="Helvetica,sans-Serif" font-size="10.00">regrid_edge_values</text>
<text text-anchor="middle" x="363" y="-428" font-family="Helvetica,sans-Serif" font-size="10.00">::edge_values_implicit_h6</text>
</a>
</g>
</g>
<!-- Node131&#45;&gt;Node153 -->
<g id="edge38" class="edge"><title>Node131&#45;&gt;Node153</title>
<path fill="none" stroke="midnightblue" d="M219.941,-353.266C240.019,-368.997 273.042,-393.612 304,-411 307.451,-412.938 311.081,-414.827 314.772,-416.641"/>
<polygon fill="midnightblue" stroke="midnightblue" points="313.466,-419.895 324.005,-420.985 316.446,-413.561 313.466,-419.895"/>
</g>
<!-- Node154 -->
<g id="node30" class="node"><title>Node154</title>
<g id="a_node30"><a xlink:href="namespaceregrid__edge__slopes.html#a32fc906bf14cfb859703b4a1a7c46a9c" target="_top" xlink:title=" ">
<polygon fill="white" stroke="black" points="309.5,-372 309.5,-402 416.5,-402 416.5,-372 309.5,-372"/>
<text text-anchor="start" x="317.5" y="-390" font-family="Helvetica,sans-Serif" font-size="10.00">regrid_edge_slopes</text>
<text text-anchor="middle" x="363" y="-379" font-family="Helvetica,sans-Serif" font-size="10.00">::edge_slopes_implicit_h5</text>
</a>
</g>
</g>
<!-- Node131&#45;&gt;Node154 -->
<g id="edge42" class="edge"><title>Node131&#45;&gt;Node154</title>
<path fill="none" stroke="midnightblue" d="M250.619,-353.101C267.07,-358.108 285.549,-363.732 302.657,-368.939"/>
<polygon fill="midnightblue" stroke="midnightblue" points="301.959,-372.385 312.545,-371.948 303.997,-365.688 301.959,-372.385"/>
</g>
<!-- Node155 -->
<g id="node31" class="node"><title>Node155</title>
<g id="a_node31"><a xlink:href="namespacepqm__functions.html#ada7e1a8d9d70b5b78b5e2dfddb5ffa43" target="_top" xlink:title=" ">
<polygon fill="white" stroke="black" points="318.5,-225 318.5,-255 407.5,-255 407.5,-225 318.5,-225"/>
<text text-anchor="start" x="326.5" y="-243" font-family="Helvetica,sans-Serif" font-size="10.00">pqm_functions::pqm</text>
<text text-anchor="middle" x="363" y="-232" font-family="Helvetica,sans-Serif" font-size="10.00">_reconstruction</text>
</a>
</g>
</g>
<!-- Node131&#45;&gt;Node155 -->
<g id="edge46" class="edge"><title>Node131&#45;&gt;Node155</title>
<path fill="none" stroke="midnightblue" d="M251.328,-322.877C257.22,-320.066 262.93,-316.793 268,-313 289.354,-297.027 283.051,-281.5 304,-265 306.073,-263.367 308.268,-261.821 310.545,-260.359"/>
<polygon fill="midnightblue" stroke="midnightblue" points="312.715,-263.149 319.643,-255.133 309.229,-257.079 312.715,-263.149"/>
</g>
<!-- Node157 -->
<g id="node33" class="node"><title>Node157</title>
<g id="a_node33"><a xlink:href="namespacepqm__functions.html#ae2c3bd1b82cddbe1bbb0e93e83d93e48" target="_top" xlink:title=" ">
<polygon fill="white" stroke="black" points="304,-519 304,-549 422,-549 422,-519 304,-519"/>
<text text-anchor="start" x="312" y="-537" font-family="Helvetica,sans-Serif" font-size="10.00">pqm_functions::pqm</text>
<text text-anchor="middle" x="363" y="-526" font-family="Helvetica,sans-Serif" font-size="10.00">_boundary_extrapolation_v1</text>
</a>
</g>
</g>
<!-- Node131&#45;&gt;Node157 -->
<g id="edge50" class="edge"><title>Node131&#45;&gt;Node157</title>
<path fill="none" stroke="midnightblue" d="M206.506,-353.405C218.964,-386.255 252.312,-463.865 304,-509 305.915,-510.672 307.959,-512.247 310.093,-513.727"/>
<polygon fill="midnightblue" stroke="midnightblue" points="308.329,-516.751 318.686,-518.982 311.98,-510.779 308.329,-516.751"/>
</g>
<!-- Node133 -->
<g id="node9" class="node"><title>Node133</title>
<g id="a_node9"><a xlink:href="namespaceregrid__edge__values.html#aa204fe78ee22cae62f2b7f1bc76151a9" target="_top" xlink:title=" ">
<polygon fill="white" stroke="black" points="610.5,-235 610.5,-265 703.5,-265 703.5,-235 610.5,-235"/>
<text text-anchor="start" x="618.5" y="-253" font-family="Helvetica,sans-Serif" font-size="10.00">regrid_edge_values</text>
<text text-anchor="middle" x="657" y="-242" font-family="Helvetica,sans-Serif" font-size="10.00">::bound_edge_values</text>
</a>
</g>
</g>
<!-- Node132&#45;&gt;Node133 -->
<g id="edge8" class="edge"><title>Node132&#45;&gt;Node133</title>
<path fill="none" stroke="midnightblue" d="M552.112,-211.042C568.894,-217.335 588.572,-224.714 606.262,-231.348"/>
<polygon fill="midnightblue" stroke="midnightblue" points="605.261,-234.711 615.854,-234.945 607.719,-228.157 605.261,-234.711"/>
</g>
<!-- Node134 -->
<g id="node10" class="node"><title>Node134</title>
<g id="a_node10"><a xlink:href="namespaceregrid__edge__values.html#a2d51073fc6e6639040566f966041fc06" target="_top" xlink:title=" ">
<polygon fill="white" stroke="black" points="605.5,-174.5 605.5,-215.5 708.5,-215.5 708.5,-174.5 605.5,-174.5"/>
<text text-anchor="start" x="613.5" y="-203.5" font-family="Helvetica,sans-Serif" font-size="10.00">regrid_edge_values</text>
<text text-anchor="start" x="613.5" y="-192.5" font-family="Helvetica,sans-Serif" font-size="10.00">::average_discontinuous</text>
<text text-anchor="middle" x="657" y="-181.5" font-family="Helvetica,sans-Serif" font-size="10.00">_edge_values</text>
</a>
</g>
</g>
<!-- Node132&#45;&gt;Node134 -->
<g id="edge9" class="edge"><title>Node132&#45;&gt;Node134</title>
<path fill="none" stroke="midnightblue" d="M555.596,-195.697C568.129,-195.61 582.03,-195.514 595.393,-195.421"/>
<polygon fill="midnightblue" stroke="midnightblue" points="595.501,-198.92 605.476,-195.351 595.452,-191.92 595.501,-198.92"/>
</g>
<!-- Node137 -->
<g id="node13" class="node"><title>Node137</title>
<g id="a_node13"><a xlink:href="namespaceregrid__solvers.html#a8130a338b59de62b00f68da4204568ad" target="_top" xlink:title=" ">
<polygon fill="white" stroke="black" points="466.5,-372 466.5,-402 555.5,-402 555.5,-372 466.5,-372"/>
<text text-anchor="start" x="474.5" y="-390" font-family="Helvetica,sans-Serif" font-size="10.00">regrid_solvers::solve</text>
<text text-anchor="middle" x="511" y="-379" font-family="Helvetica,sans-Serif" font-size="10.00">_linear_system</text>
</a>
</g>
</g>
<!-- Node136&#45;&gt;Node137 -->
<g id="edge12" class="edge"><title>Node136&#45;&gt;Node137</title>
<path fill="none" stroke="midnightblue" d="M408.996,-353.101C424.122,-358.178 441.139,-363.889 456.832,-369.156"/>
<polygon fill="midnightblue" stroke="midnightblue" points="455.81,-372.505 466.404,-372.368 458.037,-365.868 455.81,-372.505"/>
</g>
<!-- Node138 -->
<g id="node14" class="node"><title>Node138</title>
<g id="a_node14"><a xlink:href="namespacepolynomial__functions.html#aed77465c5ca9937dab06fdb5f94eba39" target="_top" xlink:title=" ">
<polygon fill="white" stroke="black" points="461.5,-470 461.5,-500 560.5,-500 560.5,-470 461.5,-470"/>
<text text-anchor="start" x="469.5" y="-488" font-family="Helvetica,sans-Serif" font-size="10.00">polynomial_functions</text>
<text text-anchor="middle" x="511" y="-477" font-family="Helvetica,sans-Serif" font-size="10.00">::evaluation_polynomial</text>
</a>
</g>
</g>
<!-- Node136&#45;&gt;Node138 -->
<g id="edge14" class="edge"><title>Node136&#45;&gt;Node138</title>
<path fill="none" stroke="midnightblue" d="M409.469,-353.135C414.071,-355.919 418.376,-359.184 422,-363 453.666,-396.344 427.027,-426.011 458,-460 459.183,-461.298 460.448,-462.535 461.777,-463.715"/>
<polygon fill="midnightblue" stroke="midnightblue" points="459.882,-466.667 469.989,-469.845 464.07,-461.058 459.882,-466.667"/>
</g>
<!-- Node139 -->
<g id="node15" class="node"><title>Node139</title>
<g id="a_node15"><a xlink:href="namespaceregrid__solvers.html#a0d5c3cff8f31429b0a2c6d267e8b345d" target="_top" xlink:title=" ">
<polygon fill="white" stroke="black" points="466.5,-421 466.5,-451 555.5,-451 555.5,-421 466.5,-421"/>
<text text-anchor="start" x="474.5" y="-439" font-family="Helvetica,sans-Serif" font-size="10.00">regrid_solvers::solve</text>
<text text-anchor="middle" x="511" y="-428" font-family="Helvetica,sans-Serif" font-size="10.00">_tridiagonal_system</text>
</a>
</g>
</g>
<!-- Node136&#45;&gt;Node139 -->
<g id="edge15" class="edge"><title>Node136&#45;&gt;Node139</title>
<path fill="none" stroke="midnightblue" d="M406.357,-353.133C411.883,-355.987 417.262,-359.269 422,-363 442.949,-379.5 437.395,-394.073 458,-411 459.964,-412.613 462.05,-414.153 464.213,-415.617"/>
<polygon fill="midnightblue" stroke="midnightblue" points="462.495,-418.668 472.855,-420.887 466.139,-412.692 462.495,-418.668"/>
</g>
<!-- Node137&#45;&gt;Node128 -->
<g id="edge13" class="edge"><title>Node137&#45;&gt;Node128</title>
<path fill="none" stroke="midnightblue" d="M546.91,-402.038C552.781,-405.055 558.688,-408.412 564,-412 590.66,-430.008 617.4,-455.449 635.125,-473.605"/>
<polygon fill="midnightblue" stroke="midnightblue" points="632.687,-476.12 642.144,-480.898 637.731,-471.265 632.687,-476.12"/>
</g>
<!-- Node143 -->
<g id="node19" class="node"><title>Node143</title>
<g id="a_node19"><a xlink:href="namespaceppm__functions.html#a89920c90b84f0b241c5a6d65fe2870b9" target="_top" xlink:title="Adjusts edge values using the standard PPM limiter (Colella &amp; Woodward, JCP 1984) after first checkin...">
<polygon fill="white" stroke="black" points="466.5,-282 466.5,-312 555.5,-312 555.5,-282 466.5,-282"/>
<text text-anchor="start" x="474.5" y="-300" font-family="Helvetica,sans-Serif" font-size="10.00">ppm_functions::ppm</text>
<text text-anchor="middle" x="511" y="-289" font-family="Helvetica,sans-Serif" font-size="10.00">_limiter_standard</text>
</a>
</g>
</g>
<!-- Node142&#45;&gt;Node143 -->
<g id="edge19" class="edge"><title>Node142&#45;&gt;Node143</title>
<path fill="none" stroke="midnightblue" d="M407.805,-291.4C423.032,-292.235 440.289,-293.18 456.228,-294.054"/>
<polygon fill="midnightblue" stroke="midnightblue" points="456.301,-297.563 466.478,-294.615 456.684,-290.573 456.301,-297.563"/>
</g>
<!-- Node143&#45;&gt;Node133 -->
<g id="edge20" class="edge"><title>Node143&#45;&gt;Node133</title>
<path fill="none" stroke="midnightblue" d="M555.596,-282.771C569.788,-278.139 585.733,-272.934 600.667,-268.06"/>
<polygon fill="midnightblue" stroke="midnightblue" points="601.885,-271.344 610.305,-264.914 599.713,-264.69 601.885,-271.344"/>
</g>
<!-- Node144 -->
<g id="node20" class="node"><title>Node144</title>
<g id="a_node20"><a xlink:href="namespaceregrid__edge__values.html#acbdacbbf7212e538bb52a9729fc949a7" target="_top" xlink:title=" ">
<polygon fill="white" stroke="black" points="610,-284.5 610,-325.5 704,-325.5 704,-284.5 610,-284.5"/>
<text text-anchor="start" x="618" y="-313.5" font-family="Helvetica,sans-Serif" font-size="10.00">regrid_edge_values</text>
<text text-anchor="start" x="618" y="-302.5" font-family="Helvetica,sans-Serif" font-size="10.00">::check_discontinuous</text>
<text text-anchor="middle" x="657" y="-291.5" font-family="Helvetica,sans-Serif" font-size="10.00">_edge_values</text>
</a>
</g>
</g>
<!-- Node143&#45;&gt;Node144 -->
<g id="edge21" class="edge"><title>Node143&#45;&gt;Node144</title>
<path fill="none" stroke="midnightblue" d="M555.596,-299.422C569.518,-300.195 585.128,-301.063 599.814,-301.879"/>
<polygon fill="midnightblue" stroke="midnightblue" points="599.623,-305.373 609.802,-302.433 600.012,-298.384 599.623,-305.373"/>
</g>
<!-- Node146&#45;&gt;Node137 -->
<g id="edge24" class="edge"><title>Node146&#45;&gt;Node137</title>
<path fill="none" stroke="midnightblue" d="M406.357,-469.867C411.883,-467.013 417.262,-463.731 422,-460 442.949,-443.5 437.395,-428.927 458,-412 459.964,-410.387 462.05,-408.847 464.213,-407.383"/>
<polygon fill="midnightblue" stroke="midnightblue" points="466.139,-410.308 472.855,-402.113 462.495,-404.332 466.139,-410.308"/>
</g>
<!-- Node146&#45;&gt;Node138 -->
<g id="edge25" class="edge"><title>Node146&#45;&gt;Node138</title>
<path fill="none" stroke="midnightblue" d="M416.709,-485C427.841,-485 439.656,-485 451.002,-485"/>
<polygon fill="midnightblue" stroke="midnightblue" points="451.257,-488.5 461.257,-485 451.257,-481.5 451.257,-488.5"/>
</g>
<!-- Node146&#45;&gt;Node139 -->
<g id="edge26" class="edge"><title>Node146&#45;&gt;Node139</title>
<path fill="none" stroke="midnightblue" d="M408.996,-469.899C424.122,-464.822 441.139,-459.111 456.832,-453.844"/>
<polygon fill="midnightblue" stroke="midnightblue" points="458.037,-457.132 466.404,-450.632 455.81,-450.495 458.037,-457.132"/>
</g>
<!-- Node148 -->
<g id="node24" class="node"><title>Node148</title>
<g id="a_node24"><a xlink:href="namespacep3m__functions.html#a377fa3f7b5caf101d47fa0d4c9b84f64" target="_top" xlink:title=" ">
<polygon fill="white" stroke="black" points="466.5,-128 466.5,-158 555.5,-158 555.5,-128 466.5,-128"/>
<text text-anchor="start" x="474.5" y="-146" font-family="Helvetica,sans-Serif" font-size="10.00">p3m_functions::p3m</text>
<text text-anchor="middle" x="511" y="-135" font-family="Helvetica,sans-Serif" font-size="10.00">_limiter</text>
</a>
</g>
</g>
<!-- Node147&#45;&gt;Node148 -->
<g id="edge28" class="edge"><title>Node147&#45;&gt;Node148</title>
<path fill="none" stroke="midnightblue" d="M407.805,-149.3C423.032,-148.361 440.289,-147.297 456.228,-146.315"/>
<polygon fill="midnightblue" stroke="midnightblue" points="456.712,-149.792 466.478,-145.683 456.281,-142.805 456.712,-149.792"/>
</g>
<!-- Node148&#45;&gt;Node133 -->
<g id="edge29" class="edge"><title>Node148&#45;&gt;Node133</title>
<path fill="none" stroke="midnightblue" d="M544.651,-158.139C551.452,-162.107 558.282,-166.764 564,-172 585.001,-191.231 578.166,-206.721 600,-225 601.964,-226.645 604.054,-228.201 606.229,-229.671"/>
<polygon fill="midnightblue" stroke="midnightblue" points="604.575,-232.761 614.948,-234.918 608.184,-226.763 604.575,-232.761"/>
</g>
<!-- Node148&#45;&gt;Node134 -->
<g id="edge30" class="edge"><title>Node148&#45;&gt;Node134</title>
<path fill="none" stroke="midnightblue" d="M553.651,-158.041C566.744,-162.769 581.476,-168.088 595.596,-173.188"/>
<polygon fill="midnightblue" stroke="midnightblue" points="594.652,-176.568 605.247,-176.672 597.03,-169.984 594.652,-176.568"/>
</g>
<!-- Node149 -->
<g id="node25" class="node"><title>Node149</title>
<g id="a_node25"><a xlink:href="namespacep3m__functions.html#a073c1f3e8fabe99bdae91ef37e5161ee" target="_top" xlink:title=" ">
<polygon fill="white" stroke="black" points="612.5,-27 612.5,-57 701.5,-57 701.5,-27 612.5,-27"/>
<text text-anchor="start" x="620.5" y="-45" font-family="Helvetica,sans-Serif" font-size="10.00">p3m_functions::build</text>
<text text-anchor="middle" x="657" y="-34" font-family="Helvetica,sans-Serif" font-size="10.00">_cubic_interpolant</text>
</a>
</g>
</g>
<!-- Node148&#45;&gt;Node149 -->
<g id="edge31" class="edge"><title>Node148&#45;&gt;Node149</title>
<path fill="none" stroke="midnightblue" d="M545.339,-127.905C551.877,-124.177 558.428,-119.843 564,-115 584.396,-97.2716 578.836,-82.803 600,-66 601.584,-64.7422 603.244,-63.5383 604.96,-62.3874"/>
<polygon fill="midnightblue" stroke="midnightblue" points="607.101,-65.1867 613.91,-57.0692 603.525,-59.169 607.101,-65.1867"/>
</g>
<!-- Node150 -->
<g id="node26" class="node"><title>Node150</title>
<g id="a_node26"><a xlink:href="namespacep3m__functions.html#a7c194c12772ac968650dc2072d5b32ba" target="_top" xlink:title=" ">
<polygon fill="white" stroke="black" points="606.5,-125 606.5,-155 707.5,-155 707.5,-125 606.5,-125"/>
<text text-anchor="start" x="614.5" y="-143" font-family="Helvetica,sans-Serif" font-size="10.00">p3m_functions::is_cubic</text>
<text text-anchor="middle" x="657" y="-132" font-family="Helvetica,sans-Serif" font-size="10.00">_monotonic</text>
</a>
</g>
</g>
<!-- Node148&#45;&gt;Node150 -->
<g id="edge32" class="edge"><title>Node148&#45;&gt;Node150</title>
<path fill="none" stroke="midnightblue" d="M555.596,-142.092C568.327,-141.827 582.469,-141.532 596.026,-141.249"/>
<polygon fill="midnightblue" stroke="midnightblue" points="596.321,-144.744 606.246,-141.037 596.175,-137.746 596.321,-144.744"/>
</g>
<!-- Node151 -->
<g id="node27" class="node"><title>Node151</title>
<g id="a_node27"><a xlink:href="namespacep3m__functions.html#adb96651fe725f11e90dec2b8509989b0" target="_top" xlink:title=" ">
<polygon fill="white" stroke="black" points="600,-76 600,-106 714,-106 714,-76 600,-76"/>
<text text-anchor="start" x="608" y="-94" font-family="Helvetica,sans-Serif" font-size="10.00">p3m_functions::monotonize</text>
<text text-anchor="middle" x="657" y="-83" font-family="Helvetica,sans-Serif" font-size="10.00">_cubic</text>
</a>
</g>
</g>
<!-- Node148&#45;&gt;Node151 -->
<g id="edge33" class="edge"><title>Node148&#45;&gt;Node151</title>
<path fill="none" stroke="midnightblue" d="M553.651,-127.959C569.621,-122.192 588.03,-115.545 604.794,-109.491"/>
<polygon fill="midnightblue" stroke="midnightblue" points="606.226,-112.695 614.443,-106.007 603.849,-106.111 606.226,-112.695"/>
</g>
<!-- Node152&#45;&gt;Node149 -->
<g id="edge35" class="edge"><title>Node152&#45;&gt;Node149</title>
<path fill="none" stroke="midnightblue" d="M556.38,-75.8986C570.887,-70.9622 587.157,-65.4259 602.275,-60.2813"/>
<polygon fill="midnightblue" stroke="midnightblue" points="603.675,-63.5022 612.014,-56.9673 601.42,-56.8754 603.675,-63.5022"/>
</g>
<!-- Node152&#45;&gt;Node150 -->
<g id="edge36" class="edge"><title>Node152&#45;&gt;Node150</title>
<path fill="none" stroke="midnightblue" d="M556.38,-106.101C570.751,-110.992 586.853,-116.471 601.851,-121.574"/>
<polygon fill="midnightblue" stroke="midnightblue" points="600.924,-124.956 611.519,-124.864 603.179,-118.329 600.924,-124.956"/>
</g>
<!-- Node152&#45;&gt;Node151 -->
<g id="edge37" class="edge"><title>Node152&#45;&gt;Node151</title>
<path fill="none" stroke="midnightblue" d="M563.581,-91C572.049,-91 580.929,-91 589.695,-91"/>
<polygon fill="midnightblue" stroke="midnightblue" points="589.902,-94.5001 599.902,-91 589.902,-87.5001 589.902,-94.5001"/>
</g>
<!-- Node153&#45;&gt;Node137 -->
<g id="edge39" class="edge"><title>Node153&#45;&gt;Node137</title>
<path fill="none" stroke="midnightblue" d="M408.996,-420.899C424.122,-415.822 441.139,-410.111 456.832,-404.844"/>
<polygon fill="midnightblue" stroke="midnightblue" points="458.037,-408.132 466.404,-401.632 455.81,-401.495 458.037,-408.132"/>
</g>
<!-- Node153&#45;&gt;Node138 -->
<g id="edge40" class="edge"><title>Node153&#45;&gt;Node138</title>
<path fill="none" stroke="midnightblue" d="M408.996,-451.101C423.636,-456.015 440.046,-461.522 455.314,-466.647"/>
<polygon fill="midnightblue" stroke="midnightblue" points="454.558,-470.085 465.152,-469.948 456.786,-463.448 454.558,-470.085"/>
</g>
<!-- Node153&#45;&gt;Node139 -->
<g id="edge41" class="edge"><title>Node153&#45;&gt;Node139</title>
<path fill="none" stroke="midnightblue" d="M416.709,-436C429.599,-436 443.406,-436 456.34,-436"/>
<polygon fill="midnightblue" stroke="midnightblue" points="456.492,-439.5 466.492,-436 456.492,-432.5 456.492,-439.5"/>
</g>
<!-- Node154&#45;&gt;Node137 -->
<g id="edge43" class="edge"><title>Node154&#45;&gt;Node137</title>
<path fill="none" stroke="midnightblue" d="M416.709,-387C429.599,-387 443.406,-387 456.34,-387"/>
<polygon fill="midnightblue" stroke="midnightblue" points="456.492,-390.5 466.492,-387 456.492,-383.5 456.492,-390.5"/>
</g>
<!-- Node154&#45;&gt;Node138 -->
<g id="edge44" class="edge"><title>Node154&#45;&gt;Node138</title>
<path fill="none" stroke="midnightblue" d="M406.357,-402.133C411.883,-404.987 417.262,-408.269 422,-412 442.949,-428.5 437.395,-443.073 458,-460 459.964,-461.613 462.05,-463.153 464.213,-464.617"/>
<polygon fill="midnightblue" stroke="midnightblue" points="462.495,-467.668 472.855,-469.887 466.139,-461.692 462.495,-467.668"/>
</g>
<!-- Node154&#45;&gt;Node139 -->
<g id="edge45" class="edge"><title>Node154&#45;&gt;Node139</title>
<path fill="none" stroke="midnightblue" d="M408.996,-402.101C424.122,-407.178 441.139,-412.889 456.832,-418.156"/>
<polygon fill="midnightblue" stroke="midnightblue" points="455.81,-421.505 466.404,-421.368 458.037,-414.868 455.81,-421.505"/>
</g>
<!-- Node156 -->
<g id="node32" class="node"><title>Node156</title>
<g id="a_node32"><a xlink:href="namespacepqm__functions.html#a0ce0d64922453de1312adec7b8746544" target="_top" xlink:title=" ">
<polygon fill="white" stroke="black" points="466.5,-233 466.5,-263 555.5,-263 555.5,-233 466.5,-233"/>
<text text-anchor="start" x="474.5" y="-251" font-family="Helvetica,sans-Serif" font-size="10.00">pqm_functions::pqm</text>
<text text-anchor="middle" x="511" y="-240" font-family="Helvetica,sans-Serif" font-size="10.00">_limiter</text>
</a>
</g>
</g>
<!-- Node155&#45;&gt;Node156 -->
<g id="edge47" class="edge"><title>Node155&#45;&gt;Node156</title>
<path fill="none" stroke="midnightblue" d="M407.805,-242.4C423.032,-243.235 440.289,-244.18 456.228,-245.054"/>
<polygon fill="midnightblue" stroke="midnightblue" points="456.301,-248.563 466.478,-245.615 456.684,-241.573 456.301,-248.563"/>
</g>
<!-- Node156&#45;&gt;Node133 -->
<g id="edge48" class="edge"><title>Node156&#45;&gt;Node133</title>
<path fill="none" stroke="midnightblue" d="M555.596,-248.605C569.652,-248.801 585.43,-249.02 600.24,-249.226"/>
<polygon fill="midnightblue" stroke="midnightblue" points="600.258,-252.726 610.305,-249.365 600.355,-245.727 600.258,-252.726"/>
</g>
<!-- Node156&#45;&gt;Node144 -->
<g id="edge49" class="edge"><title>Node156&#45;&gt;Node144</title>
<path fill="none" stroke="midnightblue" d="M550.211,-263.125C565.535,-269.191 583.499,-276.302 600.229,-282.924"/>
<polygon fill="midnightblue" stroke="midnightblue" points="599.322,-286.329 609.908,-286.755 601.899,-279.821 599.322,-286.329"/>
</g>
</g>
</svg>
