<?xml version="1.0" encoding="UTF-8" standalone="no"?>
<!DOCTYPE svg PUBLIC "-//W3C//DTD SVG 1.1//EN"
 "http://www.w3.org/Graphics/SVG/1.1/DTD/svg11.dtd">
<!-- Generated by graphviz version 2.30.1 (20170916.1124)
 -->
<!-- Title: mom_surface_forcing::set_forcing Pages: 1 -->
<!--zoomable 485 -->
<svg id="main" version="1.1" xmlns="http://www.w3.org/2000/svg" xmlns:xlink="http://www.w3.org/1999/xlink" xml:space="preserve" onload="init(evt)">
<style type="text/css"><![CDATA[
.edge:hover path { stroke: red; }
.edge:hover polygon { stroke: red; fill: red; }
]]></style>
<script type="text/javascript"><![CDATA[
var edges = document.getElementsByTagName('g');
if (edges && edges.length) {
  for (var i=0;i<edges.length;i++) {
    if (edges[i].id.substr(0,4)=='edge') {
      edges[i].setAttribute('class','edge');
    }
  }
}
]]></script>
        <defs>
                <circle id="rim" cx="0" cy="0" r="7"/>
                <circle id="rim2" cx="0" cy="0" r="3.5"/>
                <g id="zoomPlus">
                        <use xlink:href="#rim" fill="#404040">
                                <set attributeName="fill" to="#808080" begin="zoomplus.mouseover" end="zoomplus.mouseout"/>
                        </use>
                        <path d="M-4,0h8M0,-4v8" fill="none" stroke="white" stroke-width="1.5" pointer-events="none"/>
                </g>
                <g id="zoomMin">
                        <use xlink:href="#rim" fill="#404040">
                                <set attributeName="fill" to="#808080" begin="zoomminus.mouseover" end="zoomminus.mouseout"/>
                        </use>
                        <path d="M-4,0h8" fill="none" stroke="white" stroke-width="1.5" pointer-events="none"/>
                </g>
                <g id="dirArrow">
                        <path fill="none" stroke="white" stroke-width="1.5" d="M0,-3.0v7 M-2.5,-0.5L0,-3.0L2.5,-0.5"/>
                </g>
               <g id="resetDef">
                       <use xlink:href="#rim2" fill="#404040">
                               <set attributeName="fill" to="#808080" begin="reset.mouseover" end="reset.mouseout"/>
                       </use>
               </g>
        </defs>

<script type="text/javascript">
var viewWidth = 798;
var viewHeight = 485;
var sectionId = 'dynsection-14';
</script>
<script xlink:href="svgpan.js"/>
<svg id="graph" class="graph">
<g id="viewport">
<title>mom_surface_forcing::set_forcing</title>
<polygon fill="white" stroke="white" points="-4,5 -4,-481.093 795,-481.093 795,5 -4,5"/>
<!-- Node67 -->
<g id="node1" class="node"><title>Node67</title>
<g id="a_node1"><a xlink:title=" ">
<polygon fill="#bfbfbf" stroke="black" points="0,-217.181 0,-247.181 94,-247.181 94,-217.181 0,-217.181"/>
<text text-anchor="start" x="8" y="-235.181" font-family="Helvetica,sans-Serif" font-size="10.00">mom_surface_forcing</text>
<text text-anchor="middle" x="47" y="-224.181" font-family="Helvetica,sans-Serif" font-size="10.00">::set_forcing</text>
</a>
</g>
</g>
<!-- Node68 -->
<g id="node2" class="node"><title>Node68</title>
<g id="a_node2"><a xlink:href="namespacemom__surface__forcing.html#acca2bc9bf2a06c2ccfcacfe0686013d4" target="_top" xlink:title=" ">
<polygon fill="white" stroke="black" points="130,-389.181 130,-419.181 252,-419.181 252,-389.181 130,-389.181"/>
<text text-anchor="start" x="138" y="-407.181" font-family="Helvetica,sans-Serif" font-size="10.00">mom_surface_forcing</text>
<text text-anchor="middle" x="191" y="-396.181" font-family="Helvetica,sans-Serif" font-size="10.00">::buoyancy_forcing_from_files</text>
</a>
</g>
</g>
<!-- Node67&#45;&gt;Node68 -->
<g id="edge1" class="edge"><title>Node67&#45;&gt;Node68</title>
<path fill="none" stroke="midnightblue" d="M52.6549,-247.231C62.4166,-276.483 87.693,-341.443 130,-379.181 131.745,-380.738 133.6,-382.206 135.537,-383.59"/>
<polygon fill="midnightblue" stroke="midnightblue" points="134.116,-386.828 144.457,-389.132 137.81,-380.882 134.116,-386.828"/>
</g>
<!-- Node72 -->
<g id="node6" class="node"><title>Node72</title>
<g id="a_node6"><a xlink:href="namespacemom__surface__forcing.html#a04a68cf8f709d78372dda5507a1223b7" target="_top" xlink:title=" ">
<polygon fill="white" stroke="black" points="137.5,-291.181 137.5,-321.181 244.5,-321.181 244.5,-291.181 137.5,-291.181"/>
<text text-anchor="start" x="145.5" y="-309.181" font-family="Helvetica,sans-Serif" font-size="10.00">mom_surface_forcing</text>
<text text-anchor="middle" x="191" y="-298.181" font-family="Helvetica,sans-Serif" font-size="10.00">::buoyancy_forcing_linear</text>
</a>
</g>
</g>
<!-- Node67&#45;&gt;Node72 -->
<g id="edge5" class="edge"><title>Node67&#45;&gt;Node72</title>
<path fill="none" stroke="midnightblue" d="M71.1777,-247.252C87.3299,-257.449 109.561,-270.884 130,-281.181 133.962,-283.177 138.122,-285.15 142.326,-287.059"/>
<polygon fill="midnightblue" stroke="midnightblue" points="140.977,-290.289 151.539,-291.122 143.801,-283.885 140.977,-290.289"/>
</g>
<!-- Node75 -->
<g id="node9" class="node"><title>Node75</title>
<g id="a_node9"><a xlink:href="namespacemom__surface__forcing.html#a34cd389230cf9a9a2a620f5da6530474" target="_top" xlink:title=" ">
<polygon fill="white" stroke="black" points="139,-340.181 139,-370.181 243,-370.181 243,-340.181 139,-340.181"/>
<text text-anchor="start" x="147" y="-358.181" font-family="Helvetica,sans-Serif" font-size="10.00">mom_surface_forcing</text>
<text text-anchor="middle" x="191" y="-347.181" font-family="Helvetica,sans-Serif" font-size="10.00">::buoyancy_forcing_zero</text>
</a>
</g>
</g>
<!-- Node67&#45;&gt;Node75 -->
<g id="edge12" class="edge"><title>Node67&#45;&gt;Node75</title>
<path fill="none" stroke="midnightblue" d="M57.3409,-247.412C70.9757,-268.54 98.1959,-306.776 130,-330.181 132.465,-331.995 135.082,-333.706 137.79,-335.314"/>
<polygon fill="midnightblue" stroke="midnightblue" points="136.214,-338.441 146.677,-340.105 139.535,-332.279 136.214,-338.441"/>
</g>
<!-- Node70 -->
<g id="node4" class="node"><title>Node70</title>
<g id="a_node4"><a xlink:href="namespacemom__error__handler.html#a460cfb79a06c29fc249952c2a3710d67" target="_top" xlink:title=" ">
<polygon fill="white" stroke="black" points="566.5,-293.181 566.5,-323.181 659.5,-323.181 659.5,-293.181 566.5,-293.181"/>
<text text-anchor="start" x="574.5" y="-311.181" font-family="Helvetica,sans-Serif" font-size="10.00">mom_error_handler::</text>
<text text-anchor="middle" x="613" y="-300.181" font-family="Helvetica,sans-Serif" font-size="10.00">mom_error</text>
</a>
</g>
</g>
<!-- Node67&#45;&gt;Node70 -->
<g id="edge14" class="edge"><title>Node67&#45;&gt;Node70</title>
<path fill="none" stroke="midnightblue" d="M48.9719,-247.43C52.3372,-285.802 67.0536,-386.283 130,-428.181 279.237,-527.516 369.304,-455.653 530,-376.181 553.011,-364.801 575.175,-345.771 590.646,-330.732"/>
<polygon fill="midnightblue" stroke="midnightblue" points="593.493,-332.835 598.096,-323.293 588.547,-327.882 593.493,-332.835"/>
</g>
<!-- Node76 -->
<g id="node10" class="node"><title>Node76</title>
<g id="a_node10"><a xlink:href="namespacemom__error__handler.html#a1c462df7b61f1296407b4af51dfeceab" target="_top" xlink:title=" ">
<polygon fill="white" stroke="black" points="566.5,-124.181 566.5,-154.181 659.5,-154.181 659.5,-124.181 566.5,-124.181"/>
<text text-anchor="start" x="574.5" y="-142.181" font-family="Helvetica,sans-Serif" font-size="10.00">mom_error_handler::</text>
<text text-anchor="middle" x="613" y="-131.181" font-family="Helvetica,sans-Serif" font-size="10.00">mom_mesg</text>
</a>
</g>
</g>
<!-- Node67&#45;&gt;Node76 -->
<g id="edge15" class="edge"><title>Node67&#45;&gt;Node76</title>
<path fill="none" stroke="midnightblue" d="M48.9719,-216.933C52.3372,-178.56 67.0536,-78.0797 130,-36.1812 277.296,61.8619 501.115,-65.6824 581.734,-118.351"/>
<polygon fill="midnightblue" stroke="midnightblue" points="580.134,-121.489 590.405,-124.089 583.997,-115.651 580.134,-121.489"/>
</g>
<!-- Node77 -->
<g id="node11" class="node"><title>Node77</title>
<g id="a_node11"><a xlink:href="namespacemom__surface__forcing.html#aa35a779a00dd1481216f8e9ece2d658c" target="_top" xlink:title=" ">
<polygon fill="white" stroke="black" points="144,-242.181 144,-272.181 238,-272.181 238,-242.181 144,-242.181"/>
<text text-anchor="start" x="152" y="-260.181" font-family="Helvetica,sans-Serif" font-size="10.00">mom_surface_forcing</text>
<text text-anchor="middle" x="191" y="-249.181" font-family="Helvetica,sans-Serif" font-size="10.00">::wind_forcing_1gyre</text>
</a>
</g>
</g>
<!-- Node67&#45;&gt;Node77 -->
<g id="edge17" class="edge"><title>Node67&#45;&gt;Node77</title>
<path fill="none" stroke="midnightblue" d="M94.1033,-240.298C106.752,-242.525 120.607,-244.964 133.756,-247.279"/>
<polygon fill="midnightblue" stroke="midnightblue" points="133.187,-250.733 143.642,-249.02 134.4,-243.839 133.187,-250.733"/>
</g>
<!-- Node80 -->
<g id="node14" class="node"><title>Node80</title>
<g id="a_node14"><a xlink:href="namespacemom__surface__forcing.html#adb45934fb80592e1b256e5a19ca375f2" target="_top" xlink:title=" ">
<polygon fill="white" stroke="black" points="144,-193.181 144,-223.181 238,-223.181 238,-193.181 144,-193.181"/>
<text text-anchor="start" x="152" y="-211.181" font-family="Helvetica,sans-Serif" font-size="10.00">mom_surface_forcing</text>
<text text-anchor="middle" x="191" y="-200.181" font-family="Helvetica,sans-Serif" font-size="10.00">::wind_forcing_2gyre</text>
</a>
</g>
</g>
<!-- Node67&#45;&gt;Node80 -->
<g id="edge20" class="edge"><title>Node67&#45;&gt;Node80</title>
<path fill="none" stroke="midnightblue" d="M94.1033,-224.389C106.752,-222.251 120.607,-219.91 133.756,-217.687"/>
<polygon fill="midnightblue" stroke="midnightblue" points="134.365,-221.134 143.642,-216.016 133.199,-214.232 134.365,-221.134"/>
</g>
<!-- Node81 -->
<g id="node15" class="node"><title>Node81</title>
<g id="a_node15"><a xlink:href="namespacemom__surface__forcing.html#a3c2efab8f262459aa7de2c592d1a3b1e" target="_top" xlink:title=" ">
<polygon fill="white" stroke="black" points="140.5,-46.1812 140.5,-76.1812 241.5,-76.1812 241.5,-46.1812 140.5,-46.1812"/>
<text text-anchor="start" x="148.5" y="-64.1812" font-family="Helvetica,sans-Serif" font-size="10.00">mom_surface_forcing</text>
<text text-anchor="middle" x="191" y="-53.1812" font-family="Helvetica,sans-Serif" font-size="10.00">::wind_forcing_from_file</text>
</a>
</g>
</g>
<!-- Node67&#45;&gt;Node81 -->
<g id="edge22" class="edge"><title>Node67&#45;&gt;Node81</title>
<path fill="none" stroke="midnightblue" d="M52.6076,-217.078C62.2866,-187.733 87.4245,-122.616 130,-85.1812 131.332,-84.0098 132.729,-82.8915 134.177,-81.8243"/>
<polygon fill="midnightblue" stroke="midnightblue" points="136.377,-84.5732 142.94,-76.2557 132.622,-78.6652 136.377,-84.5732"/>
</g>
<!-- Node83 -->
<g id="node17" class="node"><title>Node83</title>
<g id="a_node17"><a xlink:href="namespacemom__surface__forcing.html#a33a33acb23912c2c764502570518c2ad" target="_top" xlink:title=" ">
<polygon fill="white" stroke="black" points="144,-144.181 144,-174.181 238,-174.181 238,-144.181 144,-144.181"/>
<text text-anchor="start" x="152" y="-162.181" font-family="Helvetica,sans-Serif" font-size="10.00">mom_surface_forcing</text>
<text text-anchor="middle" x="191" y="-151.181" font-family="Helvetica,sans-Serif" font-size="10.00">::wind_forcing_gyres</text>
</a>
</g>
</g>
<!-- Node67&#45;&gt;Node83 -->
<g id="edge26" class="edge"><title>Node67&#45;&gt;Node83</title>
<path fill="none" stroke="midnightblue" d="M71.1312,-217.017C87.2626,-206.778 109.488,-193.333 130,-183.181 133.365,-181.516 136.876,-179.875 140.437,-178.282"/>
<polygon fill="midnightblue" stroke="midnightblue" points="142.121,-181.368 149.914,-174.19 139.346,-174.941 142.121,-181.368"/>
</g>
<!-- Node84 -->
<g id="node18" class="node"><title>Node84</title>
<g id="a_node18"><a xlink:href="namespacemom__surface__forcing.html#a4d940b91cd4ca8f1aa44de3dca60c7c0" target="_top" xlink:title=" ">
<polygon fill="white" stroke="black" points="144,-95.1812 144,-125.181 238,-125.181 238,-95.1812 144,-95.1812"/>
<text text-anchor="start" x="152" y="-113.181" font-family="Helvetica,sans-Serif" font-size="10.00">mom_surface_forcing</text>
<text text-anchor="middle" x="191" y="-102.181" font-family="Helvetica,sans-Serif" font-size="10.00">::wind_forcing_zero</text>
</a>
</g>
</g>
<!-- Node67&#45;&gt;Node84 -->
<g id="edge28" class="edge"><title>Node67&#45;&gt;Node84</title>
<path fill="none" stroke="midnightblue" d="M57.2946,-216.887C70.8743,-195.684 98.0295,-157.358 130,-134.181 131.882,-132.817 133.852,-131.516 135.884,-130.278"/>
<polygon fill="midnightblue" stroke="midnightblue" points="138.007,-133.107 145.107,-125.243 134.653,-126.963 138.007,-133.107"/>
</g>
<!-- Node69 -->
<g id="node3" class="node"><title>Node69</title>
<g id="a_node3"><a xlink:href="namespacemom__surface__forcing.html#ac7bf83a9b318dd6317a17c1f7df73314" target="_top" xlink:title=" ">
<polygon fill="white" stroke="black" points="288.5,-340.181 288.5,-370.181 403.5,-370.181 403.5,-340.181 288.5,-340.181"/>
<text text-anchor="start" x="296.5" y="-358.181" font-family="Helvetica,sans-Serif" font-size="10.00">mom_surface_forcing</text>
<text text-anchor="middle" x="346" y="-347.181" font-family="Helvetica,sans-Serif" font-size="10.00">::buoyancy_forcing_allocate</text>
</a>
</g>
</g>
<!-- Node68&#45;&gt;Node69 -->
<g id="edge2" class="edge"><title>Node68&#45;&gt;Node69</title>
<path fill="none" stroke="midnightblue" d="M239.153,-389.08C254.641,-384.12 272.02,-378.554 288.149,-373.388"/>
<polygon fill="midnightblue" stroke="midnightblue" points="289.546,-376.616 298.002,-370.233 287.411,-369.95 289.546,-376.616"/>
</g>
<!-- Node68&#45;&gt;Node70 -->
<g id="edge3" class="edge"><title>Node68&#45;&gt;Node70</title>
<path fill="none" stroke="midnightblue" d="M252.009,-401.183C320.938,-396.213 436.55,-383.155 530,-349.181 545.829,-343.426 562.583,-335.424 576.793,-328.015"/>
<polygon fill="midnightblue" stroke="midnightblue" points="578.543,-331.048 585.728,-323.261 575.255,-324.868 578.543,-331.048"/>
</g>
<!-- Node71 -->
<g id="node5" class="node"><title>Node71</title>
<g id="a_node5"><a xlink:href="namespacemom__error__handler.html#ad5f00a53059c72fe2332d1436c80ca71" target="_top" xlink:title=" ">
<polygon fill="white" stroke="black" points="696.5,-208.181 696.5,-238.181 789.5,-238.181 789.5,-208.181 696.5,-208.181"/>
<text text-anchor="start" x="704.5" y="-226.181" font-family="Helvetica,sans-Serif" font-size="10.00">mom_error_handler::</text>
<text text-anchor="middle" x="743" y="-215.181" font-family="Helvetica,sans-Serif" font-size="10.00">is_root_pe</text>
</a>
</g>
</g>
<!-- Node70&#45;&gt;Node71 -->
<g id="edge4" class="edge"><title>Node70&#45;&gt;Node71</title>
<path fill="none" stroke="midnightblue" d="M636.589,-293.181C657.208,-279.488 687.878,-259.122 710.826,-243.883"/>
<polygon fill="midnightblue" stroke="midnightblue" points="712.812,-246.765 719.206,-238.318 708.939,-240.934 712.812,-246.765"/>
</g>
<!-- Node72&#45;&gt;Node69 -->
<g id="edge6" class="edge"><title>Node72&#45;&gt;Node69</title>
<path fill="none" stroke="midnightblue" d="M239.153,-321.283C254.641,-326.243 272.02,-331.809 288.149,-336.974"/>
<polygon fill="midnightblue" stroke="midnightblue" points="287.411,-340.413 298.002,-340.13 289.546,-333.746 287.411,-340.413"/>
</g>
<!-- Node72&#45;&gt;Node70 -->
<g id="edge7" class="edge"><title>Node72&#45;&gt;Node70</title>
<path fill="none" stroke="midnightblue" d="M244.682,-295.612C311.414,-283.822 429.796,-268.246 530,-283.181 540.374,-284.728 551.251,-287.317 561.568,-290.259"/>
<polygon fill="midnightblue" stroke="midnightblue" points="560.669,-293.643 571.253,-293.164 562.68,-286.938 560.669,-293.643"/>
</g>
<!-- Node73 -->
<g id="node7" class="node"><title>Node73</title>
<g id="a_node7"><a xlink:href="namespacemom__restart.html#ab88b83af8a7dc731b70bc534325ba2b4" target="_top" xlink:title=" ">
<polygon fill="white" stroke="black" points="290.5,-298.681 290.5,-317.681 401.5,-317.681 401.5,-298.681 290.5,-298.681"/>
<text text-anchor="middle" x="346" y="-305.681" font-family="Helvetica,sans-Serif" font-size="10.00">mom_restart::save_restart</text>
</a>
</g>
</g>
<!-- Node72&#45;&gt;Node73 -->
<g id="edge8" class="edge"><title>Node72&#45;&gt;Node73</title>
<path fill="none" stroke="midnightblue" d="M244.654,-306.869C256.086,-307.019 268.308,-307.179 280.149,-307.333"/>
<polygon fill="midnightblue" stroke="midnightblue" points="280.382,-310.837 290.427,-307.468 280.473,-303.837 280.382,-310.837"/>
</g>
<!-- Node73&#45;&gt;Node70 -->
<g id="edge9" class="edge"><title>Node73&#45;&gt;Node70</title>
<path fill="none" stroke="midnightblue" d="M376.366,-317.792C394.485,-323.21 418.33,-329.43 440,-332.181 479.682,-337.219 490.405,-337.857 530,-332.181 539.59,-330.807 549.624,-328.571 559.251,-326.004"/>
<polygon fill="midnightblue" stroke="midnightblue" points="560.424,-329.31 569.101,-323.23 558.527,-322.572 560.424,-329.31"/>
</g>
<!-- Node74 -->
<g id="node8" class="node"><title>Node74</title>
<g id="a_node8"><a xlink:href="namespacemom__restart.html#a4b143fb18dab7c0825e426fbf9532623" target="_top" xlink:title=" ">
<polygon fill="white" stroke="black" points="440,-293.181 440,-323.181 530,-323.181 530,-293.181 440,-293.181"/>
<text text-anchor="start" x="448" y="-311.181" font-family="Helvetica,sans-Serif" font-size="10.00">mom_restart::restart</text>
<text text-anchor="middle" x="485" y="-300.181" font-family="Helvetica,sans-Serif" font-size="10.00">_error</text>
</a>
</g>
</g>
<!-- Node73&#45;&gt;Node74 -->
<g id="edge10" class="edge"><title>Node73&#45;&gt;Node74</title>
<path fill="none" stroke="midnightblue" d="M401.54,-308.181C410.756,-308.181 420.325,-308.181 429.54,-308.181"/>
<polygon fill="midnightblue" stroke="midnightblue" points="429.755,-311.681 439.755,-308.181 429.755,-304.681 429.755,-311.681"/>
</g>
<!-- Node74&#45;&gt;Node70 -->
<g id="edge11" class="edge"><title>Node74&#45;&gt;Node70</title>
<path fill="none" stroke="midnightblue" d="M530.069,-308.181C538.536,-308.181 547.506,-308.181 556.285,-308.181"/>
<polygon fill="midnightblue" stroke="midnightblue" points="556.461,-311.681 566.461,-308.181 556.461,-304.681 556.461,-311.681"/>
</g>
<!-- Node75&#45;&gt;Node69 -->
<g id="edge13" class="edge"><title>Node75&#45;&gt;Node69</title>
<path fill="none" stroke="midnightblue" d="M243.372,-355.181C254.518,-355.181 266.465,-355.181 278.11,-355.181"/>
<polygon fill="midnightblue" stroke="midnightblue" points="278.237,-358.681 288.237,-355.181 278.237,-351.681 278.237,-358.681"/>
</g>
<!-- Node76&#45;&gt;Node71 -->
<g id="edge16" class="edge"><title>Node76&#45;&gt;Node71</title>
<path fill="none" stroke="midnightblue" d="M636.884,-154.199C657.325,-167.613 687.471,-187.396 710.244,-202.341"/>
<polygon fill="midnightblue" stroke="midnightblue" points="708.602,-205.45 718.883,-208.01 712.443,-199.598 708.602,-205.45"/>
</g>
<!-- Node78 -->
<g id="node12" class="node"><title>Node78</title>
<g id="a_node12"><a xlink:href="namespacemom__forcing__type.html#a4258a1dc8dc6733eb8269d771efe837d" target="_top" xlink:title="Conditionally allocate fields within the forcing type.">
<polygon fill="white" stroke="black" points="289,-144.181 289,-174.181 403,-174.181 403,-144.181 289,-144.181"/>
<text text-anchor="start" x="297" y="-162.181" font-family="Helvetica,sans-Serif" font-size="10.00">mom_forcing_type::allocate</text>
<text text-anchor="middle" x="346" y="-151.181" font-family="Helvetica,sans-Serif" font-size="10.00">_forcing_type</text>
</a>
</g>
</g>
<!-- Node77&#45;&gt;Node78 -->
<g id="edge18" class="edge"><title>Node77&#45;&gt;Node78</title>
<path fill="none" stroke="midnightblue" d="M232.429,-242.108C239.118,-239.116 245.866,-235.776 252,-232.181 277.031,-217.51 302.773,-196.785 320.81,-181.164"/>
<polygon fill="midnightblue" stroke="midnightblue" points="323.323,-183.615 328.525,-174.386 318.702,-178.356 323.323,-183.615"/>
</g>
<!-- Node79 -->
<g id="node13" class="node"><title>Node79</title>
<g id="a_node13"><a xlink:href="MOM__forcing__type_8F90.html#aede7c3d8c91ec3e8a8a3b68824a5e9e8" target="_top" xlink:title="Allocates and zeroes&#45;out array.">
<polygon fill="white" stroke="black" points="463.5,-149.681 463.5,-168.681 506.5,-168.681 506.5,-149.681 463.5,-149.681"/>
<text text-anchor="middle" x="485" y="-156.681" font-family="Helvetica,sans-Serif" font-size="10.00">myalloc</text>
</a>
</g>
</g>
<!-- Node78&#45;&gt;Node79 -->
<g id="edge19" class="edge"><title>Node78&#45;&gt;Node79</title>
<path fill="none" stroke="midnightblue" d="M403.118,-159.181C420.244,-159.181 438.437,-159.181 453.223,-159.181"/>
<polygon fill="midnightblue" stroke="midnightblue" points="453.323,-162.681 463.323,-159.181 453.323,-155.681 453.323,-162.681"/>
</g>
<!-- Node80&#45;&gt;Node78 -->
<g id="edge21" class="edge"><title>Node80&#45;&gt;Node78</title>
<path fill="none" stroke="midnightblue" d="M238.32,-193.347C254.128,-188.284 271.983,-182.566 288.5,-177.276"/>
<polygon fill="midnightblue" stroke="midnightblue" points="289.589,-180.603 298.045,-174.219 287.454,-173.936 289.589,-180.603"/>
</g>
<!-- Node81&#45;&gt;Node78 -->
<g id="edge23" class="edge"><title>Node81&#45;&gt;Node78</title>
<path fill="none" stroke="midnightblue" d="M236.425,-76.3105C241.866,-78.9185 247.195,-81.873 252,-85.1812 271.43,-98.5578 269.777,-109.202 288,-124.181 294.244,-129.314 301.307,-134.244 308.282,-138.7"/>
<polygon fill="midnightblue" stroke="midnightblue" points="306.651,-141.807 317.001,-144.073 310.323,-135.847 306.651,-141.807"/>
</g>
<!-- Node82 -->
<g id="node16" class="node"><title>Node82</title>
<g id="a_node16"><a xlink:href="namespacemom__string__functions.html#aca148baf726de2f028b7e7baad3c85d4" target="_top" xlink:title=" ">
<polygon fill="white" stroke="black" points="298.5,-46.1812 298.5,-76.1812 393.5,-76.1812 393.5,-46.1812 298.5,-46.1812"/>
<text text-anchor="start" x="306.5" y="-64.1812" font-family="Helvetica,sans-Serif" font-size="10.00">mom_string_functions</text>
<text text-anchor="middle" x="346" y="-53.1812" font-family="Helvetica,sans-Serif" font-size="10.00">::uppercase</text>
</a>
</g>
</g>
<!-- Node81&#45;&gt;Node82 -->
<g id="edge24" class="edge"><title>Node81&#45;&gt;Node82</title>
<path fill="none" stroke="midnightblue" d="M241.675,-61.1812C256.492,-61.1812 272.846,-61.1812 288.088,-61.1812"/>
<polygon fill="midnightblue" stroke="midnightblue" points="288.43,-64.6813 298.43,-61.1812 288.43,-57.6813 288.43,-64.6813"/>
</g>
<!-- Node81&#45;&gt;Node70 -->
<g id="edge25" class="edge"><title>Node81&#45;&gt;Node70</title>
<path fill="none" stroke="midnightblue" d="M241.776,-73.8414C256.63,-77.561 272.961,-81.5927 288,-85.1812 395.287,-110.781 443.552,-71.6791 530,-140.181 576.188,-176.781 598.108,-245.979 606.949,-283.12"/>
<polygon fill="midnightblue" stroke="midnightblue" points="603.589,-284.13 609.196,-293.12 610.419,-282.596 603.589,-284.13"/>
</g>
<!-- Node83&#45;&gt;Node78 -->
<g id="edge27" class="edge"><title>Node83&#45;&gt;Node78</title>
<path fill="none" stroke="midnightblue" d="M238.32,-159.181C251.006,-159.181 265.011,-159.181 278.584,-159.181"/>
<polygon fill="midnightblue" stroke="midnightblue" points="278.851,-162.681 288.851,-159.181 278.851,-155.681 278.851,-162.681"/>
</g>
<!-- Node84&#45;&gt;Node78 -->
<g id="edge29" class="edge"><title>Node84&#45;&gt;Node78</title>
<path fill="none" stroke="midnightblue" d="M238.32,-125.016C254.128,-130.078 271.983,-135.797 288.5,-141.086"/>
<polygon fill="midnightblue" stroke="midnightblue" points="287.454,-144.426 298.045,-144.143 289.589,-137.76 287.454,-144.426"/>
</g>
</g>
</svg>
        <g id="navigator" transform="translate(0 0)" fill="#404254">
                <rect fill="#f2f5e9" fill-opacity="0.5" stroke="#606060" stroke-width=".5" x="0" y="0" width="60" height="60"/>
                <use id="zoomplus" xlink:href="#zoomPlus" x="17" y="9" onmousedown="handleZoom(evt,'in')"/>
                <use id="zoomminus" xlink:href="#zoomMin" x="42" y="9" onmousedown="handleZoom(evt,'out')"/>
                <use id="reset" xlink:href="#resetDef" x="30" y="36" onmousedown="handleReset()"/>
                <g id="arrowUp" xlink:href="#dirArrow" transform="translate(30 24)" onmousedown="handlePan(0,-1)">
                  <use xlink:href="#rim" fill="#404040">
                        <set attributeName="fill" to="#808080" begin="arrowUp.mouseover" end="arrowUp.mouseout"/>
                  </use>
                  <path fill="none" stroke="white" stroke-width="1.5" d="M0,-3.0v7 M-2.5,-0.5L0,-3.0L2.5,-0.5"/>
                </g>
                <g id="arrowRight" xlink:href="#dirArrow" transform="rotate(90) translate(36 -43)" onmousedown="handlePan(1,0)">
                  <use xlink:href="#rim" fill="#404040">
                        <set attributeName="fill" to="#808080" begin="arrowRight.mouseover" end="arrowRight.mouseout"/>
                  </use>
                  <path fill="none" stroke="white" stroke-width="1.5" d="M0,-3.0v7 M-2.5,-0.5L0,-3.0L2.5,-0.5"/>
                </g>
                <g id="arrowDown" xlink:href="#dirArrow" transform="rotate(180) translate(-30 -48)" onmousedown="handlePan(0,1)">
                  <use xlink:href="#rim" fill="#404040">
                        <set attributeName="fill" to="#808080" begin="arrowDown.mouseover" end="arrowDown.mouseout"/>
                  </use>
                  <path fill="none" stroke="white" stroke-width="1.5" d="M0,-3.0v7 M-2.5,-0.5L0,-3.0L2.5,-0.5"/>
                </g>
                <g id="arrowLeft" xlink:href="#dirArrow" transform="rotate(270) translate(-36 17)" onmousedown="handlePan(-1,0)">
                  <use xlink:href="#rim" fill="#404040">
                        <set attributeName="fill" to="#808080" begin="arrowLeft.mouseover" end="arrowLeft.mouseout"/>
                  </use>
                  <path fill="none" stroke="white" stroke-width="1.5" d="M0,-3.0v7 M-2.5,-0.5L0,-3.0L2.5,-0.5"/>
                </g>
        </g>
        <svg viewBox="0 0 15 15" width="100%" height="30px" preserveAspectRatio="xMaxYMin meet">
         <g id="arrow_out" transform="scale(0.3 0.3)">
          <a xlink:href="namespacemom__surface__forcing_ad4eeb543c0b616e42ddb7c0a37f03bf0_cgraph_org.svg" target="_base">
           <rect id="button" ry="5" rx="5" y="6" x="6" height="38" width="38"
                fill="#f2f5e9" fill-opacity="0.5" stroke="#606060" stroke-width="1.0"/>
           <path id="arrow"
             d="M 11.500037,31.436501 C 11.940474,20.09759 22.043105,11.32322 32.158766,21.979434 L 37.068811,17.246167 C 37.068811,17.246167 37.088388,32 37.088388,32 L 22.160133,31.978069 C 22.160133,31.978069 26.997745,27.140456 26.997745,27.140456 C 18.528582,18.264221 13.291696,25.230495 11.500037,31.436501 z"
             style="fill:#404040;"/>
          </a>
         </g>
        </svg>
</svg>
