<?xml version="1.0" encoding="UTF-8" standalone="no"?>
<!DOCTYPE svg PUBLIC "-//W3C//DTD SVG 1.1//EN"
 "http://www.w3.org/Graphics/SVG/1.1/DTD/svg11.dtd">
<!-- Generated by graphviz version 2.30.1 (20170916.1124)
 -->
<!-- Title: mom_shared_initialization::reset_face_lengths_list Pages: 1 -->
<svg width="392pt" height="153pt"
 viewBox="0.00 0.00 392.00 152.98" xmlns="http://www.w3.org/2000/svg" xmlns:xlink="http://www.w3.org/1999/xlink">
<g id="graph0" class="graph" transform="scale(1 1) rotate(0) translate(4 148.981)">
<title>mom_shared_initialization::reset_face_lengths_list</title>
<polygon fill="white" stroke="white" points="-4,5 -4,-148.981 389,-148.981 389,5 -4,5"/>
<!-- Node53 -->
<g id="node1" class="node"><title>Node53</title>
<g id="a_node1"><a xlink:title=" ">
<polygon fill="#bfbfbf" stroke="black" points="0,-40.9811 0,-70.9811 108,-70.9811 108,-40.9811 0,-40.9811"/>
<text text-anchor="start" x="8" y="-58.9811" font-family="Helvetica,sans-Serif" font-size="10.00">mom_shared_initialization</text>
<text text-anchor="middle" x="54" y="-47.9811" font-family="Helvetica,sans-Serif" font-size="10.00">::reset_face_lengths_list</text>
</a>
</g>
</g>
<!-- Node54 -->
<g id="node2" class="node"><title>Node54</title>
<g id="a_node2"><a xlink:href="namespacemom__error__handler.html#a9cda07a87815f0e5594066162b4345c3" target="_top" xlink:title="Writes a message about entering a subroutine if call tree reporting is active.">
<polygon fill="white" stroke="black" points="151.5,-114.981 151.5,-144.981 244.5,-144.981 244.5,-114.981 151.5,-114.981"/>
<text text-anchor="start" x="159.5" y="-132.981" font-family="Helvetica,sans-Serif" font-size="10.00">mom_error_handler::</text>
<text text-anchor="middle" x="198" y="-121.981" font-family="Helvetica,sans-Serif" font-size="10.00">calltree_enter</text>
</a>
</g>
</g>
<!-- Node53&#45;&gt;Node54 -->
<g id="edge1" class="edge"><title>Node53&#45;&gt;Node54</title>
<path fill="none" stroke="midnightblue" d="M81.25,-70.9976C98.8519,-80.9268 122.635,-94.0742 144,-104.981 147.568,-106.803 151.292,-108.655 155.04,-110.486"/>
<polygon fill="midnightblue" stroke="midnightblue" points="153.802,-113.775 164.33,-114.963 156.841,-107.469 153.802,-113.775"/>
</g>
<!-- Node56 -->
<g id="node4" class="node"><title>Node56</title>
<g id="a_node4"><a xlink:href="namespacemom__error__handler.html#a88ea67781e2ed9b73ab7eac8ea5e8578" target="_top" xlink:title="Writes a message about leaving a subroutine if call tree reporting is active.">
<polygon fill="white" stroke="black" points="151.5,-65.9811 151.5,-95.9811 244.5,-95.9811 244.5,-65.9811 151.5,-65.9811"/>
<text text-anchor="start" x="159.5" y="-83.9811" font-family="Helvetica,sans-Serif" font-size="10.00">mom_error_handler::</text>
<text text-anchor="middle" x="198" y="-72.9811" font-family="Helvetica,sans-Serif" font-size="10.00">calltree_leave</text>
</a>
</g>
</g>
<!-- Node53&#45;&gt;Node56 -->
<g id="edge3" class="edge"><title>Node53&#45;&gt;Node56</title>
<path fill="none" stroke="midnightblue" d="M108.28,-65.3613C119.125,-67.2708 130.56,-69.2839 141.481,-71.2067"/>
<polygon fill="midnightblue" stroke="midnightblue" points="140.879,-74.6545 151.335,-72.9414 142.093,-67.7605 140.879,-74.6545"/>
</g>
<!-- Node57 -->
<g id="node5" class="node"><title>Node57</title>
<g id="a_node5"><a xlink:href="namespacemom__shared__initialization.html#a49c0443c10514a0d5ce5d8df4d68bce8" target="_top" xlink:title=" ">
<polygon fill="white" stroke="black" points="144,-16.9811 144,-46.9811 252,-46.9811 252,-16.9811 144,-16.9811"/>
<text text-anchor="start" x="152" y="-34.9811" font-family="Helvetica,sans-Serif" font-size="10.00">mom_shared_initialization</text>
<text text-anchor="middle" x="198" y="-23.9811" font-family="Helvetica,sans-Serif" font-size="10.00">::read_face_length_list</text>
</a>
</g>
</g>
<!-- Node53&#45;&gt;Node57 -->
<g id="edge5" class="edge"><title>Node53&#45;&gt;Node57</title>
<path fill="none" stroke="midnightblue" d="M108.28,-46.9761C116.651,-45.5613 125.374,-44.087 133.94,-42.6392"/>
<polygon fill="midnightblue" stroke="midnightblue" points="134.617,-46.0744 143.894,-40.9568 133.451,-39.1723 134.617,-46.0744"/>
</g>
<!-- Node58 -->
<g id="node6" class="node"><title>Node58</title>
<g id="a_node6"><a xlink:href="namespacemom__string__functions.html#aca148baf726de2f028b7e7baad3c85d4" target="_top" xlink:title=" ">
<polygon fill="white" stroke="black" points="288.5,-5.98114 288.5,-35.9811 383.5,-35.9811 383.5,-5.98114 288.5,-5.98114"/>
<text text-anchor="start" x="296.5" y="-23.9811" font-family="Helvetica,sans-Serif" font-size="10.00">mom_string_functions</text>
<text text-anchor="middle" x="336" y="-12.9811" font-family="Helvetica,sans-Serif" font-size="10.00">::uppercase</text>
</a>
</g>
</g>
<!-- Node53&#45;&gt;Node58 -->
<g id="edge7" class="edge"><title>Node53&#45;&gt;Node58</title>
<path fill="none" stroke="midnightblue" d="M75.307,-40.8859C92.5728,-29.0506 118.546,-13.5249 144,-6.98114 188.192,4.38009 239.893,-0.463059 278.352,-7.40192"/>
<polygon fill="midnightblue" stroke="midnightblue" points="277.852,-10.8695 288.331,-9.30227 279.162,-3.99313 277.852,-10.8695"/>
</g>
<!-- Node55 -->
<g id="node3" class="node"><title>Node55</title>
<g id="a_node3"><a xlink:href="namespacemom__error__handler.html#ad5f00a53059c72fe2332d1436c80ca71" target="_top" xlink:title=" ">
<polygon fill="white" stroke="black" points="289.5,-76.9811 289.5,-106.981 382.5,-106.981 382.5,-76.9811 289.5,-76.9811"/>
<text text-anchor="start" x="297.5" y="-94.9811" font-family="Helvetica,sans-Serif" font-size="10.00">mom_error_handler::</text>
<text text-anchor="middle" x="336" y="-83.9811" font-family="Helvetica,sans-Serif" font-size="10.00">is_root_pe</text>
</a>
</g>
</g>
<!-- Node54&#45;&gt;Node55 -->
<g id="edge2" class="edge"><title>Node54&#45;&gt;Node55</title>
<path fill="none" stroke="midnightblue" d="M244.664,-117.222C255.766,-114.12 267.76,-110.769 279.27,-107.553"/>
<polygon fill="midnightblue" stroke="midnightblue" points="280.535,-110.833 289.225,-104.771 278.652,-104.092 280.535,-110.833"/>
</g>
<!-- Node56&#45;&gt;Node55 -->
<g id="edge4" class="edge"><title>Node56&#45;&gt;Node55</title>
<path fill="none" stroke="midnightblue" d="M244.664,-84.6746C255.653,-85.5634 267.518,-86.523 278.921,-87.4453"/>
<polygon fill="midnightblue" stroke="midnightblue" points="278.975,-90.961 289.225,-88.2787 279.539,-83.9838 278.975,-90.961"/>
</g>
<!-- Node57&#45;&gt;Node58 -->
<g id="edge6" class="edge"><title>Node57&#45;&gt;Node58</title>
<path fill="none" stroke="midnightblue" d="M252.36,-27.6652C260.918,-26.973 269.801,-26.2546 278.431,-25.5566"/>
<polygon fill="midnightblue" stroke="midnightblue" points="278.725,-29.0443 288.411,-24.7494 278.161,-22.0671 278.725,-29.0443"/>
</g>
</g>
</svg>
