<?xml version="1.0" encoding="UTF-8" standalone="no"?>
<!DOCTYPE svg PUBLIC "-//W3C//DTD SVG 1.1//EN"
 "http://www.w3.org/Graphics/SVG/1.1/DTD/svg11.dtd">
<!-- Generated by graphviz version 2.30.1 (20170916.1124)
 -->
<!-- Title: mom::write_static_fields Pages: 1 -->
<svg width="328pt" height="28pt"
 viewBox="0.00 0.00 328.00 28.00" xmlns="http://www.w3.org/2000/svg" xmlns:xlink="http://www.w3.org/1999/xlink">
<g id="graph0" class="graph" transform="scale(1 1) rotate(0) translate(4 24)">
<title>mom::write_static_fields</title>
<polygon fill="white" stroke="white" points="-4,5 -4,-24 325,-24 325,5 -4,5"/>
<!-- Node487 -->
<g id="node1" class="node"><title>Node487</title>
<g id="a_node1"><a xlink:title="Offers the static fields in the ocean grid type for output via the diag_manager.">
<polygon fill="#bfbfbf" stroke="black" points="218.5,-0.5 218.5,-19.5 319.5,-19.5 319.5,-0.5 218.5,-0.5"/>
<text text-anchor="middle" x="269" y="-7.5" font-family="Helvetica,sans-Serif" font-size="10.00">mom::write_static_fields</text>
</a>
</g>
</g>
<!-- Node488 -->
<g id="node2" class="node"><title>Node488</title>
<g id="a_node2"><a xlink:href="namespacemom.html#a0be2869fef30e1e0604facfe1b41555d" target="_top" xlink:title="This subroutine initializes MOM.">
<polygon fill="white" stroke="black" points="92.5,-0.5 92.5,-19.5 181.5,-19.5 181.5,-0.5 92.5,-0.5"/>
<text text-anchor="middle" x="137" y="-7.5" font-family="Helvetica,sans-Serif" font-size="10.00">mom::initialize_mom</text>
</a>
</g>
</g>
<!-- Node487&#45;&gt;Node488 -->
<g id="edge1" class="edge"><title>Node487&#45;&gt;Node488</title>
<path fill="none" stroke="midnightblue" d="M208.461,-10C199.5,-10 190.4,-10 181.848,-10"/>
<polygon fill="midnightblue" stroke="midnightblue" points="208.482,-13.5001 218.482,-10 208.482,-6.5001 208.482,-13.5001"/>
</g>
<!-- Node489 -->
<g id="node3" class="node"><title>Node489</title>
<g id="a_node3"><a xlink:href="MOM__driver_8F90.html#a08fffeb2d8e8acbf9ed4609be6d258c6" target="_top" xlink:title=" ">
<polygon fill="white" stroke="black" points="0,-0.5 0,-19.5 56,-19.5 56,-0.5 0,-0.5"/>
<text text-anchor="middle" x="28" y="-7.5" font-family="Helvetica,sans-Serif" font-size="10.00">mom_main</text>
</a>
</g>
</g>
<!-- Node488&#45;&gt;Node489 -->
<g id="edge2" class="edge"><title>Node488&#45;&gt;Node489</title>
<path fill="none" stroke="midnightblue" d="M82.3096,-10C73.2562,-10 64.21,-10 56.2082,-10"/>
<polygon fill="midnightblue" stroke="midnightblue" points="82.479,-13.5001 92.479,-10 82.479,-6.5001 82.479,-13.5001"/>
</g>
</g>
</svg>
