<?xml version="1.0" encoding="UTF-8" standalone="no"?>
<!DOCTYPE svg PUBLIC "-//W3C//DTD SVG 1.1//EN"
 "http://www.w3.org/Graphics/SVG/1.1/DTD/svg11.dtd">
<!-- Generated by graphviz version 2.30.1 (20170916.1124)
 -->
<!-- Title: plm_functions::plm_boundary_extrapolation Pages: 1 -->
<svg width="1136pt" height="417pt"
 viewBox="0.00 0.00 1136.00 417.00" xmlns="http://www.w3.org/2000/svg" xmlns:xlink="http://www.w3.org/1999/xlink">
<g id="graph0" class="graph" transform="scale(1 1) rotate(0) translate(4 413)">
<title>plm_functions::plm_boundary_extrapolation</title>
<polygon fill="white" stroke="white" points="-4,5 -4,-413 1133,-413 1133,5 -4,5"/>
<!-- Node1 -->
<g id="node1" class="node"><title>Node1</title>
<g id="a_node1"><a xlink:title=" ">
<polygon fill="#bfbfbf" stroke="black" points="1022.5,-155 1022.5,-185 1127.5,-185 1127.5,-155 1022.5,-155"/>
<text text-anchor="start" x="1030.5" y="-173" font-family="Helvetica,sans-Serif" font-size="10.00">plm_functions::plm</text>
<text text-anchor="middle" x="1075" y="-162" font-family="Helvetica,sans-Serif" font-size="10.00">_boundary_extrapolation</text>
</a>
</g>
</g>
<!-- Node2 -->
<g id="node2" class="node"><title>Node2</title>
<g id="a_node2"><a xlink:href="namespacemom__remapping.html#a07d7276310f329f56560a1290bcb8b0a" target="_top" xlink:title="Creates polynomial reconstructions of u0 on the source grid h0.">
<polygon fill="white" stroke="black" points="868,-220 868,-250 966,-250 966,-220 868,-220"/>
<text text-anchor="start" x="876" y="-238" font-family="Helvetica,sans-Serif" font-size="10.00">mom_remapping::build</text>
<text text-anchor="middle" x="917" y="-227" font-family="Helvetica,sans-Serif" font-size="10.00">_reconstructions_1d</text>
</a>
</g>
</g>
<!-- Node1&#45;&gt;Node2 -->
<g id="edge1" class="edge"><title>Node1&#45;&gt;Node2</title>
<path fill="none" stroke="midnightblue" d="M1028.36,-189.015C1004.76,-198.852 976.341,-210.691 954.255,-219.894"/>
<polygon fill="midnightblue" stroke="midnightblue" points="1029.93,-192.153 1037.82,-185.076 1027.24,-185.691 1029.93,-192.153"/>
</g>
<!-- Node20 -->
<g id="node20" class="node"><title>Node20</title>
<g id="a_node20"><a xlink:href="namespacemom__ale.html#aabdfc467d534b505fcee9f63d7eb3f77" target="_top" xlink:title="Use plm reconstruction for pressure gradient (determine edge values) By using a PLM (limited piecewis...">
<polygon fill="white" stroke="black" points="848.5,-160.5 848.5,-179.5 985.5,-179.5 985.5,-160.5 848.5,-160.5"/>
<text text-anchor="middle" x="917" y="-167.5" font-family="Helvetica,sans-Serif" font-size="10.00">mom_ale::pressure_gradient_plm</text>
</a>
</g>
</g>
<!-- Node1&#45;&gt;Node20 -->
<g id="edge21" class="edge"><title>Node1&#45;&gt;Node20</title>
<path fill="none" stroke="midnightblue" d="M1012.34,-170C1003.56,-170 994.484,-170 985.595,-170"/>
<polygon fill="midnightblue" stroke="midnightblue" points="1012.49,-173.5 1022.49,-170 1012.49,-166.5 1012.49,-173.5"/>
</g>
<!-- Node21 -->
<g id="node21" class="node"><title>Node21</title>
<g id="a_node21"><a xlink:href="namespacemom__regridding.html#a580e775df53e4bb61f118fcab44a3f92" target="_top" xlink:title="Given the set of target values and cell densities, this routine builds an interpolated profile for th...">
<polygon fill="white" stroke="black" points="859,-70 859,-100 975,-100 975,-70 859,-70"/>
<text text-anchor="start" x="867" y="-88" font-family="Helvetica,sans-Serif" font-size="10.00">mom_regridding::regridding</text>
<text text-anchor="middle" x="917" y="-77" font-family="Helvetica,sans-Serif" font-size="10.00">_set_ppolys</text>
</a>
</g>
</g>
<!-- Node1&#45;&gt;Node21 -->
<g id="edge22" class="edge"><title>Node1&#45;&gt;Node21</title>
<path fill="none" stroke="midnightblue" d="M1037.39,-150.05C1009.37,-134.784 971.324,-114.055 945.78,-100.137"/>
<polygon fill="midnightblue" stroke="midnightblue" points="1036.01,-153.288 1046.47,-154.999 1039.36,-147.141 1036.01,-153.288"/>
</g>
<!-- Node3 -->
<g id="node3" class="node"><title>Node3</title>
<g id="a_node3"><a xlink:href="namespacemom__remapping.html#a6d1533ffa647f3305aba055e2685b095" target="_top" xlink:title="Remaps column of values u0 on grid h0 to grid h1 assuming the top edge is aligned.">
<polygon fill="white" stroke="black" points="692,-220 692,-250 812,-250 812,-220 692,-220"/>
<text text-anchor="start" x="700" y="-238" font-family="Helvetica,sans-Serif" font-size="10.00">mom_remapping::remapping</text>
<text text-anchor="middle" x="752" y="-227" font-family="Helvetica,sans-Serif" font-size="10.00">_core_h</text>
</a>
</g>
</g>
<!-- Node2&#45;&gt;Node3 -->
<g id="edge2" class="edge"><title>Node2&#45;&gt;Node3</title>
<path fill="none" stroke="midnightblue" d="M857.916,-235C843.085,-235 827.124,-235 812.236,-235"/>
<polygon fill="midnightblue" stroke="midnightblue" points="857.976,-238.5 867.976,-235 857.976,-231.5 857.976,-238.5"/>
</g>
<!-- Node17 -->
<g id="node17" class="node"><title>Node17</title>
<g id="a_node17"><a xlink:href="namespacemom__remapping.html#a8b967872b8db2ac7d538991f7f255e56" target="_top" xlink:title="Remaps column of values u0 on grid h0 to implied grid h1 where the interfaces of h1 differ from those...">
<polygon fill="white" stroke="black" points="692,-324 692,-354 812,-354 812,-324 692,-324"/>
<text text-anchor="start" x="700" y="-342" font-family="Helvetica,sans-Serif" font-size="10.00">mom_remapping::remapping</text>
<text text-anchor="middle" x="752" y="-331" font-family="Helvetica,sans-Serif" font-size="10.00">_core_w</text>
</a>
</g>
</g>
<!-- Node2&#45;&gt;Node17 -->
<g id="edge17" class="edge"><title>Node2&#45;&gt;Node17</title>
<path fill="none" stroke="midnightblue" d="M883.854,-255.51C852.326,-275.627 804.991,-305.828 776.73,-323.859"/>
<polygon fill="midnightblue" stroke="midnightblue" points="885.751,-258.452 892.298,-250.122 881.986,-252.551 885.751,-258.452"/>
</g>
<!-- Node4 -->
<g id="node4" class="node"><title>Node4</title>
<g id="a_node4"><a xlink:href="namespacemom__ale__sponge.html#a8f6e6db99f860b048a58e97e58c101a6" target="_top" xlink:title="This subroutine applies damping to the layers thicknesses, temp, salt and a variety of tracers for ev...">
<polygon fill="white" stroke="black" points="550,-147 550,-177 654,-177 654,-147 550,-147"/>
<text text-anchor="start" x="558" y="-165" font-family="Helvetica,sans-Serif" font-size="10.00">mom_ale_sponge::apply</text>
<text text-anchor="middle" x="602" y="-154" font-family="Helvetica,sans-Serif" font-size="10.00">_ale_sponge</text>
</a>
</g>
</g>
<!-- Node3&#45;&gt;Node4 -->
<g id="edge3" class="edge"><title>Node3&#45;&gt;Node4</title>
<path fill="none" stroke="midnightblue" d="M713.273,-214.98C695.93,-205.923 675.028,-195.208 656,-186 649.908,-183.052 643.375,-180.003 637.048,-177.108"/>
<polygon fill="midnightblue" stroke="midnightblue" points="712.025,-218.278 722.507,-219.822 715.275,-212.078 712.025,-218.278"/>
</g>
<!-- Node6 -->
<g id="node6" class="node"><title>Node6</title>
<g id="a_node6"><a xlink:href="namespacemom__state__initialization.html#a71ee3c056ca59c1c3529a4ec22e09fe3" target="_top" xlink:title="Adjust the layer thicknesses by cutting away the top at the depth where the hydrostatic pressure matc...">
<polygon fill="white" stroke="black" points="551.5,-294 551.5,-324 652.5,-324 652.5,-294 551.5,-294"/>
<text text-anchor="start" x="559.5" y="-312" font-family="Helvetica,sans-Serif" font-size="10.00">mom_state_initialization</text>
<text text-anchor="middle" x="602" y="-301" font-family="Helvetica,sans-Serif" font-size="10.00">::cut_off_column_top</text>
</a>
</g>
</g>
<!-- Node3&#45;&gt;Node6 -->
<g id="edge5" class="edge"><title>Node3&#45;&gt;Node6</title>
<path fill="none" stroke="midnightblue" d="M713.206,-254.883C695.85,-263.914 674.955,-274.645 656,-284 649.34,-287.287 642.169,-290.732 635.319,-293.978"/>
<polygon fill="midnightblue" stroke="midnightblue" points="715.202,-257.79 722.449,-250.061 711.964,-251.583 715.202,-257.79"/>
</g>
<!-- Node12 -->
<g id="node12" class="node"><title>Node12</title>
<g id="a_node12"><a xlink:href="namespacemom__diag__remap.html#a4b76283906971bcb94e85c0ed25f4e7b" target="_top" xlink:title="Remap diagnostic field to alternative vertical grid.">
<polygon fill="white" stroke="black" points="551.5,-245 551.5,-275 652.5,-275 652.5,-245 551.5,-245"/>
<text text-anchor="start" x="559.5" y="-263" font-family="Helvetica,sans-Serif" font-size="10.00">mom_diag_remap::diag</text>
<text text-anchor="middle" x="602" y="-252" font-family="Helvetica,sans-Serif" font-size="10.00">_remap_do_remap</text>
</a>
</g>
</g>
<!-- Node3&#45;&gt;Node12 -->
<g id="edge11" class="edge"><title>Node3&#45;&gt;Node12</title>
<path fill="none" stroke="midnightblue" d="M681.609,-246.721C671.904,-248.361 662.094,-250.018 652.848,-251.58"/>
<polygon fill="midnightblue" stroke="midnightblue" points="682.378,-250.141 691.656,-245.024 681.212,-243.239 682.378,-250.141"/>
</g>
<!-- Node13 -->
<g id="node13" class="node"><title>Node13</title>
<g id="a_node13"><a xlink:href="namespacemom__wave__speed.html#a72302e356c47c5055ba0b1a8714c772a" target="_top" xlink:title="Calculates the wave speed of the first baroclinic mode.">
<polygon fill="white" stroke="black" points="548.5,-196 548.5,-226 655.5,-226 655.5,-196 548.5,-196"/>
<text text-anchor="start" x="556.5" y="-214" font-family="Helvetica,sans-Serif" font-size="10.00">mom_wave_speed::wave</text>
<text text-anchor="middle" x="602" y="-203" font-family="Helvetica,sans-Serif" font-size="10.00">_speed</text>
</a>
</g>
</g>
<!-- Node3&#45;&gt;Node13 -->
<g id="edge12" class="edge"><title>Node3&#45;&gt;Node13</title>
<path fill="none" stroke="midnightblue" d="M681.517,-223.732C672.823,-222.323 664.046,-220.899 655.668,-219.541"/>
<polygon fill="midnightblue" stroke="midnightblue" points="681.224,-227.231 691.656,-225.377 682.345,-220.321 681.224,-227.231"/>
</g>
<!-- Node5 -->
<g id="node5" class="node"><title>Node5</title>
<g id="a_node5"><a xlink:href="namespacemom__diabatic__driver.html#a61e57d3902367aa46aa3c2d949ee900f" target="_top" xlink:title="This subroutine imposes the diapycnal mass fluxes and the accompanying diapycnal advection of momentu...">
<polygon fill="white" stroke="black" points="406.5,-144 406.5,-174 497.5,-174 497.5,-144 406.5,-144"/>
<text text-anchor="start" x="414.5" y="-162" font-family="Helvetica,sans-Serif" font-size="10.00">mom_diabatic_driver</text>
<text text-anchor="middle" x="452" y="-151" font-family="Helvetica,sans-Serif" font-size="10.00">::diabatic</text>
</a>
</g>
</g>
<!-- Node4&#45;&gt;Node5 -->
<g id="edge4" class="edge"><title>Node4&#45;&gt;Node5</title>
<path fill="none" stroke="midnightblue" d="M539.602,-160.755C525.607,-160.472 510.994,-160.176 497.843,-159.909"/>
<polygon fill="midnightblue" stroke="midnightblue" points="539.583,-164.256 549.652,-160.959 539.725,-157.257 539.583,-164.256"/>
</g>
<!-- Node7 -->
<g id="node7" class="node"><title>Node7</title>
<g id="a_node7"><a xlink:href="namespacemom__state__initialization.html#a5c77bf2b0ea9d28e28b661a2a42d3f88" target="_top" xlink:title="Run simple unit tests.">
<polygon fill="white" stroke="black" points="401.5,-330 401.5,-360 502.5,-360 502.5,-330 401.5,-330"/>
<text text-anchor="start" x="409.5" y="-348" font-family="Helvetica,sans-Serif" font-size="10.00">mom_state_initialization</text>
<text text-anchor="middle" x="452" y="-337" font-family="Helvetica,sans-Serif" font-size="10.00">::mom_state_init_tests</text>
</a>
</g>
</g>
<!-- Node6&#45;&gt;Node7 -->
<g id="edge6" class="edge"><title>Node6&#45;&gt;Node7</title>
<path fill="none" stroke="midnightblue" d="M541.561,-323.458C528.624,-326.605 515.069,-329.902 502.562,-332.944"/>
<polygon fill="midnightblue" stroke="midnightblue" points="542.417,-326.852 551.306,-321.088 540.762,-320.05 542.417,-326.852"/>
</g>
<!-- Node8 -->
<g id="node8" class="node"><title>Node8</title>
<g id="a_node8"><a xlink:href="namespacemom__state__initialization.html#acc1029776c1bdda2862ed0f95c8dc640" target="_top" xlink:title="Adjust the layer thicknesses by cutting away the top of each model column at the depth where the hydr...">
<polygon fill="white" stroke="black" points="401.5,-281 401.5,-311 502.5,-311 502.5,-281 401.5,-281"/>
<text text-anchor="start" x="409.5" y="-299" font-family="Helvetica,sans-Serif" font-size="10.00">mom_state_initialization</text>
<text text-anchor="middle" x="452" y="-288" font-family="Helvetica,sans-Serif" font-size="10.00">::trim_for_ice</text>
</a>
</g>
</g>
<!-- Node6&#45;&gt;Node8 -->
<g id="edge7" class="edge"><title>Node6&#45;&gt;Node8</title>
<path fill="none" stroke="midnightblue" d="M541.181,-303.746C528.359,-302.619 514.946,-301.441 502.562,-300.353"/>
<polygon fill="midnightblue" stroke="midnightblue" points="541.038,-307.247 551.306,-304.635 541.651,-300.273 541.038,-307.247"/>
</g>
<!-- Node9 -->
<g id="node9" class="node"><title>Node9</title>
<g id="a_node9"><a xlink:href="namespacemom__state__initialization.html#af4e854627c6572332ba3fd895f169321" target="_top" xlink:title=" ">
<polygon fill="white" stroke="black" points="236.5,-292 236.5,-322 337.5,-322 337.5,-292 236.5,-292"/>
<text text-anchor="start" x="244.5" y="-310" font-family="Helvetica,sans-Serif" font-size="10.00">mom_state_initialization</text>
<text text-anchor="middle" x="287" y="-299" font-family="Helvetica,sans-Serif" font-size="10.00">::mom_initialize_state</text>
</a>
</g>
</g>
<!-- Node8&#45;&gt;Node9 -->
<g id="edge8" class="edge"><title>Node8&#45;&gt;Node9</title>
<path fill="none" stroke="midnightblue" d="M391.082,-300.044C373.554,-301.226 354.591,-302.506 337.767,-303.642"/>
<polygon fill="midnightblue" stroke="midnightblue" points="391.467,-303.526 401.209,-299.36 390.996,-296.541 391.467,-303.526"/>
</g>
<!-- Node10 -->
<g id="node10" class="node"><title>Node10</title>
<g id="a_node10"><a xlink:href="namespacemom.html#a0be2869fef30e1e0604facfe1b41555d" target="_top" xlink:title="This subroutine initializes MOM.">
<polygon fill="white" stroke="black" points="92.5,-297.5 92.5,-316.5 181.5,-316.5 181.5,-297.5 92.5,-297.5"/>
<text text-anchor="middle" x="137" y="-304.5" font-family="Helvetica,sans-Serif" font-size="10.00">mom::initialize_mom</text>
</a>
</g>
</g>
<!-- Node9&#45;&gt;Node10 -->
<g id="edge9" class="edge"><title>Node9&#45;&gt;Node10</title>
<path fill="none" stroke="midnightblue" d="M226.199,-307C211.373,-307 195.756,-307 181.853,-307"/>
<polygon fill="midnightblue" stroke="midnightblue" points="226.306,-310.5 236.306,-307 226.306,-303.5 226.306,-310.5"/>
</g>
<!-- Node11 -->
<g id="node11" class="node"><title>Node11</title>
<g id="a_node11"><a xlink:href="MOM__driver_8F90.html#a08fffeb2d8e8acbf9ed4609be6d258c6" target="_top" xlink:title=" ">
<polygon fill="white" stroke="black" points="0,-274.5 0,-293.5 56,-293.5 56,-274.5 0,-274.5"/>
<text text-anchor="middle" x="28" y="-281.5" font-family="Helvetica,sans-Serif" font-size="10.00">mom_main</text>
</a>
</g>
</g>
<!-- Node10&#45;&gt;Node11 -->
<g id="edge10" class="edge"><title>Node10&#45;&gt;Node11</title>
<path fill="none" stroke="midnightblue" d="M82.6016,-295.522C73.4508,-293.555 64.2961,-291.587 56.2082,-289.848"/>
<polygon fill="midnightblue" stroke="midnightblue" points="81.9668,-298.965 92.479,-297.645 83.4379,-292.122 81.9668,-298.965"/>
</g>
<!-- Node14 -->
<g id="node14" class="node"><title>Node14</title>
<g id="a_node14"><a xlink:href="namespacemom__lateral__mixing__coeffs.html#af206bc656869b4fc27d4d7e8a15d438e" target="_top" xlink:title="Calculates and stores the non&#45;dimensional resolution functions.">
<polygon fill="white" stroke="black" points="243,-231.5 243,-272.5 331,-272.5 331,-231.5 243,-231.5"/>
<text text-anchor="start" x="251" y="-260.5" font-family="Helvetica,sans-Serif" font-size="10.00">mom_lateral_mixing</text>
<text text-anchor="start" x="251" y="-249.5" font-family="Helvetica,sans-Serif" font-size="10.00">_coeffs::calc_resoln</text>
<text text-anchor="middle" x="287" y="-238.5" font-family="Helvetica,sans-Serif" font-size="10.00">_function</text>
</a>
</g>
</g>
<!-- Node13&#45;&gt;Node14 -->
<g id="edge13" class="edge"><title>Node13&#45;&gt;Node14</title>
<path fill="none" stroke="midnightblue" d="M538.255,-226.983C529.477,-228.874 520.54,-230.618 512,-232 449.561,-242.101 376.445,-247.427 331.169,-249.976"/>
<polygon fill="midnightblue" stroke="midnightblue" points="539.068,-230.387 548.068,-224.797 537.546,-223.555 539.068,-230.387"/>
</g>
<!-- Node16 -->
<g id="node16" class="node"><title>Node16</title>
<g id="a_node16"><a xlink:href="namespacemom__diagnostics.html#abb6644248c28ab2e952361bfec436063" target="_top" xlink:title=" ">
<polygon fill="white" stroke="black" points="395.5,-193 395.5,-223 508.5,-223 508.5,-193 395.5,-193"/>
<text text-anchor="start" x="403.5" y="-211" font-family="Helvetica,sans-Serif" font-size="10.00">mom_diagnostics::calculate</text>
<text text-anchor="middle" x="452" y="-200" font-family="Helvetica,sans-Serif" font-size="10.00">_diagnostic_fields</text>
</a>
</g>
</g>
<!-- Node13&#45;&gt;Node16 -->
<g id="edge16" class="edge"><title>Node13&#45;&gt;Node16</title>
<path fill="none" stroke="midnightblue" d="M538.285,-209.729C528.451,-209.529 518.345,-209.325 508.684,-209.129"/>
<polygon fill="midnightblue" stroke="midnightblue" points="538.335,-213.23 548.404,-209.934 538.477,-206.232 538.335,-213.23"/>
</g>
<!-- Node15 -->
<g id="node15" class="node"><title>Node15</title>
<g id="a_node15"><a xlink:href="namespacemom.html#a4c8332b095c6d295084089aa6b3b678a" target="_top" xlink:title="This subroutine orchestrates the time stepping of MOM. The adiabatic dynamics are stepped by calls to...">
<polygon fill="white" stroke="black" points="98.5,-251.5 98.5,-270.5 175.5,-270.5 175.5,-251.5 98.5,-251.5"/>
<text text-anchor="middle" x="137" y="-258.5" font-family="Helvetica,sans-Serif" font-size="10.00">mom::step_mom</text>
</a>
</g>
</g>
<!-- Node14&#45;&gt;Node15 -->
<g id="edge14" class="edge"><title>Node14&#45;&gt;Node15</title>
<path fill="none" stroke="midnightblue" d="M232.61,-255.247C213.863,-256.387 193.198,-257.643 175.976,-258.691"/>
<polygon fill="midnightblue" stroke="midnightblue" points="233.025,-258.728 242.794,-254.627 232.6,-251.741 233.025,-258.728"/>
</g>
<!-- Node15&#45;&gt;Node11 -->
<g id="edge15" class="edge"><title>Node15&#45;&gt;Node11</title>
<path fill="none" stroke="midnightblue" d="M88.3445,-271.244C77.3702,-273.603 66.0638,-276.033 56.3024,-278.131"/>
<polygon fill="midnightblue" stroke="midnightblue" points="89.2347,-274.632 98.2758,-269.109 87.7636,-267.789 89.2347,-274.632"/>
</g>
<!-- Node18 -->
<g id="node18" class="node"><title>Node18</title>
<g id="a_node18"><a xlink:href="namespacemom__remapping.html#a8a79c37c89f8b800f79198aceca5f090" target="_top" xlink:title="Runs unit tests on remapping functions. Should only be called from a single/root thread Returns True ...">
<polygon fill="white" stroke="black" points="392,-379 392,-409 512,-409 512,-379 392,-379"/>
<text text-anchor="start" x="400" y="-397" font-family="Helvetica,sans-Serif" font-size="10.00">mom_remapping::remapping</text>
<text text-anchor="middle" x="452" y="-386" font-family="Helvetica,sans-Serif" font-size="10.00">_unit_tests</text>
</a>
</g>
</g>
<!-- Node17&#45;&gt;Node18 -->
<g id="edge18" class="edge"><title>Node17&#45;&gt;Node18</title>
<path fill="none" stroke="midnightblue" d="M681.736,-351.784C630.317,-361.274 560.941,-374.078 512.119,-383.089"/>
<polygon fill="midnightblue" stroke="midnightblue" points="682.57,-355.189 691.768,-349.932 681.299,-348.305 682.57,-355.189"/>
</g>
<!-- Node19 -->
<g id="node19" class="node"><title>Node19</title>
<g id="a_node19"><a xlink:href="namespacemom.html#ae77cfd2e790f1266b31d93c58659d46c" target="_top" xlink:title="Calls unit tests for other modules. These are NOT normally invoked and so we provide the module use s...">
<polygon fill="white" stroke="black" points="250.5,-362.5 250.5,-381.5 323.5,-381.5 323.5,-362.5 250.5,-362.5"/>
<text text-anchor="middle" x="287" y="-369.5" font-family="Helvetica,sans-Serif" font-size="10.00">mom::unit_tests</text>
</a>
</g>
</g>
<!-- Node18&#45;&gt;Node19 -->
<g id="edge19" class="edge"><title>Node18&#45;&gt;Node19</title>
<path fill="none" stroke="midnightblue" d="M381.692,-384.646C361.747,-381.954 340.805,-379.127 323.792,-376.831"/>
<polygon fill="midnightblue" stroke="midnightblue" points="381.314,-388.126 391.692,-385.995 382.25,-381.189 381.314,-388.126"/>
</g>
<!-- Node19&#45;&gt;Node10 -->
<g id="edge20" class="edge"><title>Node19&#45;&gt;Node10</title>
<path fill="none" stroke="midnightblue" d="M254.68,-358.245C226.232,-345.751 184.997,-327.64 159.928,-316.63"/>
<polygon fill="midnightblue" stroke="midnightblue" points="253.599,-361.592 264.162,-362.409 256.414,-355.183 253.599,-361.592"/>
</g>
<!-- Node22 -->
<g id="node22" class="node"><title>Node22</title>
<g id="a_node22"><a xlink:href="namespacemom__regridding.html#acbe376c457e1ea0c4514b948cbf5144b" target="_top" xlink:title=" ">
<polygon fill="white" stroke="black" points="704,-0 704,-30 800,-30 800,-0 704,-0"/>
<text text-anchor="start" x="712" y="-18" font-family="Helvetica,sans-Serif" font-size="10.00">mom_regridding::build</text>
<text text-anchor="middle" x="752" y="-7" font-family="Helvetica,sans-Serif" font-size="10.00">_hycom1_column</text>
</a>
</g>
</g>
<!-- Node21&#45;&gt;Node22 -->
<g id="edge23" class="edge"><title>Node21&#45;&gt;Node22</title>
<path fill="none" stroke="midnightblue" d="M873.223,-65.7329C854.489,-57.3844 832.211,-47.5782 812,-39 805.078,-36.0622 797.671,-32.9917 790.524,-30.0663"/>
<polygon fill="midnightblue" stroke="midnightblue" points="871.831,-68.9439 882.389,-69.8265 874.685,-62.5525 871.831,-68.9439"/>
</g>
<!-- Node25 -->
<g id="node25" class="node"><title>Node25</title>
<g id="a_node25"><a xlink:href="namespacemom__regridding.html#a799aacb5c6e7ab70f8177ca8b4a5330b" target="_top" xlink:title=" ">
<polygon fill="white" stroke="black" points="704,-98 704,-128 800,-128 800,-98 704,-98"/>
<text text-anchor="start" x="712" y="-116" font-family="Helvetica,sans-Serif" font-size="10.00">mom_regridding::build</text>
<text text-anchor="middle" x="752" y="-105" font-family="Helvetica,sans-Serif" font-size="10.00">_rho_column</text>
</a>
</g>
</g>
<!-- Node21&#45;&gt;Node25 -->
<g id="edge26" class="edge"><title>Node21&#45;&gt;Node25</title>
<path fill="none" stroke="midnightblue" d="M848.896,-96.5271C832.476,-99.3476 815.252,-102.306 800.003,-104.926"/>
<polygon fill="midnightblue" stroke="midnightblue" points="849.727,-99.9356 858.991,-94.793 848.542,-93.0366 849.727,-99.9356"/>
</g>
<!-- Node27 -->
<g id="node27" class="node"><title>Node27</title>
<g id="a_node27"><a xlink:href="namespacemom__regridding.html#aacf680ddf88e9c41a340dd426272906d" target="_top" xlink:title="Finds the new interface locations in a column of water that match the prescribed target densities.">
<polygon fill="white" stroke="black" points="706,-49 706,-79 798,-79 798,-49 706,-49"/>
<text text-anchor="start" x="714" y="-67" font-family="Helvetica,sans-Serif" font-size="10.00">mom_regridding::rho</text>
<text text-anchor="middle" x="752" y="-56" font-family="Helvetica,sans-Serif" font-size="10.00">_interfaces_col</text>
</a>
</g>
</g>
<!-- Node21&#45;&gt;Node27 -->
<g id="edge29" class="edge"><title>Node21&#45;&gt;Node27</title>
<path fill="none" stroke="midnightblue" d="M849.035,-76.3726C831.913,-74.1667 813.906,-71.8468 798.171,-69.8196"/>
<polygon fill="midnightblue" stroke="midnightblue" points="848.625,-79.8487 858.991,-77.6552 849.52,-72.906 848.625,-79.8487"/>
</g>
<!-- Node23 -->
<g id="node23" class="node"><title>Node23</title>
<g id="a_node23"><a xlink:href="namespacemom__regridding.html#a3375da62433b875eed537feeba1ae1b3" target="_top" xlink:title="Builds a simple HyCOM&#45;like grid with the deepest location of potential density interpolated from the ...">
<polygon fill="white" stroke="black" points="404,-0 404,-30 500,-30 500,-0 404,-0"/>
<text text-anchor="start" x="412" y="-18" font-family="Helvetica,sans-Serif" font-size="10.00">mom_regridding::build</text>
<text text-anchor="middle" x="452" y="-7" font-family="Helvetica,sans-Serif" font-size="10.00">_grid_hycom1</text>
</a>
</g>
</g>
<!-- Node22&#45;&gt;Node23 -->
<g id="edge24" class="edge"><title>Node22&#45;&gt;Node23</title>
<path fill="none" stroke="midnightblue" d="M693.642,-15C637.5,-15 552.977,-15 500.491,-15"/>
<polygon fill="midnightblue" stroke="midnightblue" points="693.781,-18.5001 703.781,-15 693.781,-11.5001 693.781,-18.5001"/>
</g>
<!-- Node24 -->
<g id="node24" class="node"><title>Node24</title>
<g id="a_node24"><a xlink:href="namespacemom__regridding.html#abf6d4e0d14c8b3b69fa4ffca42122c5f" target="_top" xlink:title=" ">
<polygon fill="white" stroke="black" points="218.5,-54.5 218.5,-73.5 355.5,-73.5 355.5,-54.5 218.5,-54.5"/>
<text text-anchor="middle" x="287" y="-61.5" font-family="Helvetica,sans-Serif" font-size="10.00">mom_regridding::regridding_main</text>
</a>
</g>
</g>
<!-- Node23&#45;&gt;Node24 -->
<g id="edge25" class="edge"><title>Node23&#45;&gt;Node24</title>
<path fill="none" stroke="midnightblue" d="M394.138,-32.0934C369.23,-39.5813 340.932,-48.088 319.823,-54.4337"/>
<polygon fill="midnightblue" stroke="midnightblue" points="395.285,-35.4036 403.854,-29.1728 393.269,-28.6999 395.285,-35.4036"/>
</g>
<!-- Node26 -->
<g id="node26" class="node"><title>Node26</title>
<g id="a_node26"><a xlink:href="namespacemom__regridding.html#a58a19305bbdab26bfa4f336dfac8c4f8" target="_top" xlink:title=" ">
<polygon fill="white" stroke="black" points="554,-98 554,-128 650,-128 650,-98 554,-98"/>
<text text-anchor="start" x="562" y="-116" font-family="Helvetica,sans-Serif" font-size="10.00">mom_regridding::build</text>
<text text-anchor="middle" x="602" y="-105" font-family="Helvetica,sans-Serif" font-size="10.00">_rho_grid</text>
</a>
</g>
</g>
<!-- Node25&#45;&gt;Node26 -->
<g id="edge27" class="edge"><title>Node25&#45;&gt;Node26</title>
<path fill="none" stroke="midnightblue" d="M693.482,-113C679.101,-113 663.846,-113 650.04,-113"/>
<polygon fill="midnightblue" stroke="midnightblue" points="693.765,-116.5 703.765,-113 693.765,-109.5 693.765,-116.5"/>
</g>
<!-- Node26&#45;&gt;Node24 -->
<g id="edge28" class="edge"><title>Node26&#45;&gt;Node24</title>
<path fill="none" stroke="midnightblue" d="M543.815,-107.837C501.672,-103.626 443.048,-96.9166 392,-88 369.548,-84.0783 344.662,-78.3847 324.865,-73.5272"/>
<polygon fill="midnightblue" stroke="midnightblue" points="543.595,-111.332 553.89,-108.828 544.28,-104.366 543.595,-111.332"/>
</g>
<!-- Node28 -->
<g id="node28" class="node"><title>Node28</title>
<g id="a_node28"><a xlink:href="namespacemom__regridding.html#a5927168e530c06163baf3693a804e15f" target="_top" xlink:title=" ">
<polygon fill="white" stroke="black" points="554,-49 554,-79 650,-79 650,-49 554,-49"/>
<text text-anchor="start" x="562" y="-67" font-family="Helvetica,sans-Serif" font-size="10.00">mom_regridding::build</text>
<text text-anchor="middle" x="602" y="-56" font-family="Helvetica,sans-Serif" font-size="10.00">_slight_column</text>
</a>
</g>
</g>
<!-- Node27&#45;&gt;Node28 -->
<g id="edge30" class="edge"><title>Node27&#45;&gt;Node28</title>
<path fill="none" stroke="midnightblue" d="M695.654,-64C680.714,-64 664.689,-64 650.238,-64"/>
<polygon fill="midnightblue" stroke="midnightblue" points="695.791,-67.5001 705.791,-64 695.791,-60.5001 695.791,-67.5001"/>
</g>
<!-- Node29 -->
<g id="node29" class="node"><title>Node29</title>
<g id="a_node29"><a xlink:href="namespacemom__regridding.html#adbdde4ab6606ab76f64f57b7ee5dfdeb" target="_top" xlink:title="Builds a grid that tracks density interfaces for water that is denser than the surface density plus a...">
<polygon fill="white" stroke="black" points="404,-49 404,-79 500,-79 500,-49 404,-49"/>
<text text-anchor="start" x="412" y="-67" font-family="Helvetica,sans-Serif" font-size="10.00">mom_regridding::build</text>
<text text-anchor="middle" x="452" y="-56" font-family="Helvetica,sans-Serif" font-size="10.00">_grid_slight</text>
</a>
</g>
</g>
<!-- Node28&#45;&gt;Node29 -->
<g id="edge31" class="edge"><title>Node28&#45;&gt;Node29</title>
<path fill="none" stroke="midnightblue" d="M543.482,-64C529.101,-64 513.846,-64 500.04,-64"/>
<polygon fill="midnightblue" stroke="midnightblue" points="543.765,-67.5001 553.765,-64 543.765,-60.5001 543.765,-67.5001"/>
</g>
<!-- Node29&#45;&gt;Node24 -->
<g id="edge32" class="edge"><title>Node29&#45;&gt;Node24</title>
<path fill="none" stroke="midnightblue" d="M393.735,-64C381.428,-64 368.31,-64 355.652,-64"/>
<polygon fill="midnightblue" stroke="midnightblue" points="393.854,-67.5001 403.854,-64 393.854,-60.5001 393.854,-67.5001"/>
</g>
</g>
</svg>
