<?xml version="1.0" encoding="UTF-8" standalone="no"?>
<!DOCTYPE svg PUBLIC "-//W3C//DTD SVG 1.1//EN"
 "http://www.w3.org/Graphics/SVG/1.1/DTD/svg11.dtd">
<!-- Generated by graphviz version 2.30.1 (20170916.1124)
 -->
<!-- Title: mom_grid_initialize::ds_di Pages: 1 -->
<svg width="212pt" height="38pt"
 viewBox="0.00 0.00 212.00 38.00" xmlns="http://www.w3.org/2000/svg" xmlns:xlink="http://www.w3.org/1999/xlink">
<g id="graph0" class="graph" transform="scale(1 1) rotate(0) translate(4 34)">
<title>mom_grid_initialize::ds_di</title>
<polygon fill="white" stroke="white" points="-4,5 -4,-34 209,-34 209,5 -4,5"/>
<!-- Node16 -->
<g id="node1" class="node"><title>Node16</title>
<g id="a_node1"><a xlink:title=" ">
<polygon fill="#bfbfbf" stroke="black" points="0,-0 0,-30 84,-30 84,-0 0,-0"/>
<text text-anchor="start" x="8" y="-18" font-family="Helvetica,sans-Serif" font-size="10.00">mom_grid_initialize</text>
<text text-anchor="middle" x="42" y="-7" font-family="Helvetica,sans-Serif" font-size="10.00">::ds_di</text>
</a>
</g>
</g>
<!-- Node17 -->
<g id="node2" class="node"><title>Node17</title>
<g id="a_node2"><a xlink:href="namespacemom__grid__initialize.html#afa76ec84052508b78fde53cd6ed70161" target="_top" xlink:title=" ">
<polygon fill="white" stroke="black" points="120,-0 120,-30 204,-30 204,-0 120,-0"/>
<text text-anchor="start" x="128" y="-18" font-family="Helvetica,sans-Serif" font-size="10.00">mom_grid_initialize</text>
<text text-anchor="middle" x="162" y="-7" font-family="Helvetica,sans-Serif" font-size="10.00">::dx_di</text>
</a>
</g>
</g>
<!-- Node16&#45;&gt;Node17 -->
<g id="edge1" class="edge"><title>Node16&#45;&gt;Node17</title>
<path fill="none" stroke="midnightblue" d="M84.2707,-15C92.492,-15 101.22,-15 109.729,-15"/>
<polygon fill="midnightblue" stroke="midnightblue" points="109.952,-18.5001 119.952,-15 109.952,-11.5001 109.952,-18.5001"/>
</g>
</g>
</svg>
