<?xml version="1.0" encoding="UTF-8" standalone="no"?>
<!DOCTYPE svg PUBLIC "-//W3C//DTD SVG 1.1//EN"
 "http://www.w3.org/Graphics/SVG/1.1/DTD/svg11.dtd">
<!-- Generated by graphviz version 2.30.1 (20170916.1124)
 -->
<!-- Title: mom_restart::query_initialized_name Pages: 1 -->
<svg width="224pt" height="234pt"
 viewBox="0.00 0.00 224.00 234.00" xmlns="http://www.w3.org/2000/svg" xmlns:xlink="http://www.w3.org/1999/xlink">
<g id="graph0" class="graph" transform="scale(1 1) rotate(0) translate(4 230)">
<title>mom_restart::query_initialized_name</title>
<polygon fill="white" stroke="white" points="-4,5 -4,-230 221,-230 221,5 -4,5"/>
<!-- Node59 -->
<g id="node1" class="node"><title>Node59</title>
<g id="a_node1"><a xlink:title=" ">
<polygon fill="#bfbfbf" stroke="black" points="128.5,-98 128.5,-128 215.5,-128 215.5,-98 128.5,-98"/>
<text text-anchor="start" x="136.5" y="-116" font-family="Helvetica,sans-Serif" font-size="10.00">mom_restart::query</text>
<text text-anchor="middle" x="172" y="-105" font-family="Helvetica,sans-Serif" font-size="10.00">_initialized_name</text>
</a>
</g>
</g>
<!-- Node60 -->
<g id="node2" class="node"><title>Node60</title>
<g id="a_node2"><a xlink:href="namespacemom__restart.html#a7abca14dfc4fa1efcec27f8f8f7d6762" target="_top" xlink:title=" ">
<polygon fill="white" stroke="black" points="0.5,-196 0.5,-226 91.5,-226 91.5,-196 0.5,-196"/>
<text text-anchor="start" x="8.5" y="-214" font-family="Helvetica,sans-Serif" font-size="10.00">mom_restart::query</text>
<text text-anchor="middle" x="46" y="-203" font-family="Helvetica,sans-Serif" font-size="10.00">_initialized_0d_name</text>
</a>
</g>
</g>
<!-- Node59&#45;&gt;Node60 -->
<g id="edge1" class="edge"><title>Node59&#45;&gt;Node60</title>
<path fill="none" stroke="midnightblue" d="M149.41,-135.616C134.187,-150.871 112.869,-170.895 92,-186 87.2218,-189.458 81.9163,-192.795 76.673,-195.843"/>
<polygon fill="midnightblue" stroke="midnightblue" points="152.262,-137.708 156.781,-128.124 147.272,-132.798 152.262,-137.708"/>
</g>
<!-- Node61 -->
<g id="node3" class="node"><title>Node61</title>
<g id="a_node3"><a xlink:href="namespacemom__restart.html#a3c999a09696203fd104cf5ea7786ae39" target="_top" xlink:title=" ">
<polygon fill="white" stroke="black" points="0.5,-147 0.5,-177 91.5,-177 91.5,-147 0.5,-147"/>
<text text-anchor="start" x="8.5" y="-165" font-family="Helvetica,sans-Serif" font-size="10.00">mom_restart::query</text>
<text text-anchor="middle" x="46" y="-154" font-family="Helvetica,sans-Serif" font-size="10.00">_initialized_1d_name</text>
</a>
</g>
</g>
<!-- Node59&#45;&gt;Node61 -->
<g id="edge2" class="edge"><title>Node59&#45;&gt;Node61</title>
<path fill="none" stroke="midnightblue" d="M123.354,-131.828C110.761,-136.804 97.3316,-142.111 85.3032,-146.864"/>
<polygon fill="midnightblue" stroke="midnightblue" points="124.77,-135.032 132.784,-128.101 122.198,-128.522 124.77,-135.032"/>
</g>
<!-- Node62 -->
<g id="node4" class="node"><title>Node62</title>
<g id="a_node4"><a xlink:href="namespacemom__restart.html#ac2916c91f2b110463b8b6ffd5330c683" target="_top" xlink:title=" ">
<polygon fill="white" stroke="black" points="0.5,-98 0.5,-128 91.5,-128 91.5,-98 0.5,-98"/>
<text text-anchor="start" x="8.5" y="-116" font-family="Helvetica,sans-Serif" font-size="10.00">mom_restart::query</text>
<text text-anchor="middle" x="46" y="-105" font-family="Helvetica,sans-Serif" font-size="10.00">_initialized_2d_name</text>
</a>
</g>
</g>
<!-- Node59&#45;&gt;Node62 -->
<g id="edge3" class="edge"><title>Node59&#45;&gt;Node62</title>
<path fill="none" stroke="midnightblue" d="M118.194,-113C109.428,-113 100.411,-113 91.8654,-113"/>
<polygon fill="midnightblue" stroke="midnightblue" points="118.326,-116.5 128.326,-113 118.326,-109.5 118.326,-116.5"/>
</g>
<!-- Node63 -->
<g id="node5" class="node"><title>Node63</title>
<g id="a_node5"><a xlink:href="namespacemom__restart.html#a0ff886233ff24e93349a1f1c8e547da4" target="_top" xlink:title=" ">
<polygon fill="white" stroke="black" points="0.5,-49 0.5,-79 91.5,-79 91.5,-49 0.5,-49"/>
<text text-anchor="start" x="8.5" y="-67" font-family="Helvetica,sans-Serif" font-size="10.00">mom_restart::query</text>
<text text-anchor="middle" x="46" y="-56" font-family="Helvetica,sans-Serif" font-size="10.00">_initialized_3d_name</text>
</a>
</g>
</g>
<!-- Node59&#45;&gt;Node63 -->
<g id="edge4" class="edge"><title>Node59&#45;&gt;Node63</title>
<path fill="none" stroke="midnightblue" d="M123.354,-94.1722C110.761,-89.1958 97.3316,-83.8891 85.3032,-79.1359"/>
<polygon fill="midnightblue" stroke="midnightblue" points="122.198,-97.4785 132.784,-97.8986 124.77,-90.9683 122.198,-97.4785"/>
</g>
<!-- Node64 -->
<g id="node6" class="node"><title>Node64</title>
<g id="a_node6"><a xlink:href="namespacemom__restart.html#a5223057ec731f74507fd800511c01ab2" target="_top" xlink:title=" ">
<polygon fill="white" stroke="black" points="0.5,-0 0.5,-30 91.5,-30 91.5,-0 0.5,-0"/>
<text text-anchor="start" x="8.5" y="-18" font-family="Helvetica,sans-Serif" font-size="10.00">mom_restart::query</text>
<text text-anchor="middle" x="46" y="-7" font-family="Helvetica,sans-Serif" font-size="10.00">_initialized_4d_name</text>
</a>
</g>
</g>
<!-- Node59&#45;&gt;Node64 -->
<g id="edge5" class="edge"><title>Node59&#45;&gt;Node64</title>
<path fill="none" stroke="midnightblue" d="M149.41,-90.3841C134.187,-75.1289 112.869,-55.1049 92,-40 87.2218,-36.5415 81.9163,-33.2046 76.673,-30.1565"/>
<polygon fill="midnightblue" stroke="midnightblue" points="147.272,-93.2018 156.781,-97.8756 152.262,-88.2925 147.272,-93.2018"/>
</g>
</g>
</svg>
