<?xml version="1.0" encoding="UTF-8" standalone="no"?>
<!DOCTYPE svg PUBLIC "-//W3C//DTD SVG 1.1//EN"
 "http://www.w3.org/Graphics/SVG/1.1/DTD/svg11.dtd">
<!-- Generated by graphviz version 2.30.1 (20170916.1124)
 -->
<!-- Title: mom_error_checking::totalstuff Pages: 1 -->
<svg width="228pt" height="38pt"
 viewBox="0.00 0.00 228.00 38.00" xmlns="http://www.w3.org/2000/svg" xmlns:xlink="http://www.w3.org/1999/xlink">
<g id="graph0" class="graph" transform="scale(1 1) rotate(0) translate(4 34)">
<title>mom_error_checking::totalstuff</title>
<polygon fill="white" stroke="white" points="-4,5 -4,-34 225,-34 225,5 -4,5"/>
<!-- Node25 -->
<g id="node1" class="node"><title>Node25</title>
<g id="a_node1"><a xlink:title="This function returns the sum over computational domain of all processors of hThick*stuff,...">
<polygon fill="#bfbfbf" stroke="black" points="128,-0 128,-30 220,-30 220,-0 128,-0"/>
<text text-anchor="start" x="136" y="-18" font-family="Helvetica,sans-Serif" font-size="10.00">mom_error_checking</text>
<text text-anchor="middle" x="174" y="-7" font-family="Helvetica,sans-Serif" font-size="10.00">::totalstuff</text>
</a>
</g>
</g>
<!-- Node26 -->
<g id="node2" class="node"><title>Node26</title>
<g id="a_node2"><a xlink:href="namespacemom__error__checking.html#a50ffe1924dd627f0dc7db78f8e38d367" target="_top" xlink:title="This subroutine display the total thickness, temperature and salinity as well as the change since the...">
<polygon fill="white" stroke="black" points="0,-0 0,-30 92,-30 92,-0 0,-0"/>
<text text-anchor="start" x="8" y="-18" font-family="Helvetica,sans-Serif" font-size="10.00">mom_error_checking</text>
<text text-anchor="middle" x="46" y="-7" font-family="Helvetica,sans-Serif" font-size="10.00">::totaltands</text>
</a>
</g>
</g>
<!-- Node25&#45;&gt;Node26 -->
<g id="edge1" class="edge"><title>Node25&#45;&gt;Node26</title>
<path fill="none" stroke="midnightblue" d="M117.647,-15C109.156,-15 100.478,-15 92.2414,-15"/>
<polygon fill="midnightblue" stroke="midnightblue" points="117.867,-18.5001 127.867,-15 117.867,-11.5001 117.867,-18.5001"/>
</g>
</g>
</svg>
