<?xml version="1.0" encoding="UTF-8" standalone="no"?>
<!DOCTYPE svg PUBLIC "-//W3C//DTD SVG 1.1//EN"
 "http://www.w3.org/Graphics/SVG/1.1/DTD/svg11.dtd">
<!-- Generated by graphviz version 2.30.1 (20170916.1124)
 -->
<!-- Title: mom_ale_sponge::initialize_ale_sponge Pages: 1 -->
<svg width="878pt" height="87pt"
 viewBox="0.00 0.00 878.00 87.00" xmlns="http://www.w3.org/2000/svg" xmlns:xlink="http://www.w3.org/1999/xlink">
<g id="graph0" class="graph" transform="scale(1 1) rotate(0) translate(4 83)">
<title>mom_ale_sponge::initialize_ale_sponge</title>
<polygon fill="white" stroke="white" points="-4,5 -4,-83 875,-83 875,5 -4,5"/>
<!-- Node36 -->
<g id="node1" class="node"><title>Node36</title>
<g id="a_node1"><a xlink:title="This subroutine determines the number of points which are within.">
<polygon fill="#bfbfbf" stroke="black" points="0,-22 0,-52 112,-52 112,-22 0,-22"/>
<text text-anchor="start" x="8" y="-40" font-family="Helvetica,sans-Serif" font-size="10.00">mom_ale_sponge::initialize</text>
<text text-anchor="middle" x="56" y="-29" font-family="Helvetica,sans-Serif" font-size="10.00">_ale_sponge</text>
</a>
</g>
</g>
<!-- Node37 -->
<g id="node2" class="node"><title>Node37</title>
<g id="a_node2"><a xlink:href="namespacemom__remapping.html#a6847e0c44ccb54fb72587677f90d95b6" target="_top" xlink:title="Constructor for remapping control structure.">
<polygon fill="white" stroke="black" points="148.5,-44 148.5,-74 257.5,-74 257.5,-44 148.5,-44"/>
<text text-anchor="start" x="156.5" y="-62" font-family="Helvetica,sans-Serif" font-size="10.00">mom_remapping::initialize</text>
<text text-anchor="middle" x="203" y="-51" font-family="Helvetica,sans-Serif" font-size="10.00">_remapping</text>
</a>
</g>
</g>
<!-- Node36&#45;&gt;Node37 -->
<g id="edge1" class="edge"><title>Node36&#45;&gt;Node37</title>
<path fill="none" stroke="midnightblue" d="M112.232,-45.38C120.745,-46.6717 129.596,-48.0146 138.277,-49.3316"/>
<polygon fill="midnightblue" stroke="midnightblue" points="137.946,-52.8215 148.358,-50.8612 138.996,-45.9007 137.946,-52.8215"/>
</g>
<!-- Node41 -->
<g id="node6" class="node"><title>Node41</title>
<g id="a_node6"><a xlink:href="namespacemom__error__handler.html#a460cfb79a06c29fc249952c2a3710d67" target="_top" xlink:title=" ">
<polygon fill="white" stroke="black" points="645.5,-0 645.5,-30 738.5,-30 738.5,-0 645.5,-0"/>
<text text-anchor="start" x="653.5" y="-18" font-family="Helvetica,sans-Serif" font-size="10.00">mom_error_handler::</text>
<text text-anchor="middle" x="692" y="-7" font-family="Helvetica,sans-Serif" font-size="10.00">mom_error</text>
</a>
</g>
</g>
<!-- Node36&#45;&gt;Node41 -->
<g id="edge7" class="edge"><title>Node36&#45;&gt;Node41</title>
<path fill="none" stroke="midnightblue" d="M112.154,-35.0861C231.883,-30.9315 514.495,-21.1248 634.993,-16.9435"/>
<polygon fill="midnightblue" stroke="midnightblue" points="635.235,-20.4373 645.107,-16.5925 634.992,-13.4415 635.235,-20.4373"/>
</g>
<!-- Node38 -->
<g id="node3" class="node"><title>Node38</title>
<g id="a_node3"><a xlink:href="namespacemom__remapping.html#a9e811f89c505a4416ea0eec315769801" target="_top" xlink:title="Set parameters within remapping object.">
<polygon fill="white" stroke="black" points="294,-44 294,-74 414,-74 414,-44 294,-44"/>
<text text-anchor="start" x="302" y="-62" font-family="Helvetica,sans-Serif" font-size="10.00">mom_remapping::remapping</text>
<text text-anchor="middle" x="354" y="-51" font-family="Helvetica,sans-Serif" font-size="10.00">_set_param</text>
</a>
</g>
</g>
<!-- Node37&#45;&gt;Node38 -->
<g id="edge2" class="edge"><title>Node37&#45;&gt;Node38</title>
<path fill="none" stroke="midnightblue" d="M257.792,-59C266.24,-59 275.074,-59 283.81,-59"/>
<polygon fill="midnightblue" stroke="midnightblue" points="283.991,-62.5001 293.991,-59 283.991,-55.5001 283.991,-62.5001"/>
</g>
<!-- Node39 -->
<g id="node4" class="node"><title>Node39</title>
<g id="a_node4"><a xlink:href="namespacemom__remapping.html#a41a89ac62578250500b7a450d5fdfae7" target="_top" xlink:title="Changes the method of reconstruction Use this routine to parse a string parameter specifying the reco...">
<polygon fill="white" stroke="black" points="450,-49.5 450,-68.5 608,-68.5 608,-49.5 450,-49.5"/>
<text text-anchor="middle" x="529" y="-56.5" font-family="Helvetica,sans-Serif" font-size="10.00">mom_remapping::setreconstructiontype</text>
</a>
</g>
</g>
<!-- Node38&#45;&gt;Node39 -->
<g id="edge3" class="edge"><title>Node38&#45;&gt;Node39</title>
<path fill="none" stroke="midnightblue" d="M414.053,-59C422.355,-59 431.033,-59 439.735,-59"/>
<polygon fill="midnightblue" stroke="midnightblue" points="439.94,-62.5001 449.94,-59 439.94,-55.5001 439.94,-62.5001"/>
</g>
<!-- Node40 -->
<g id="node5" class="node"><title>Node40</title>
<g id="a_node5"><a xlink:href="namespacemom__string__functions.html#aca148baf726de2f028b7e7baad3c85d4" target="_top" xlink:title=" ">
<polygon fill="white" stroke="black" points="644.5,-49 644.5,-79 739.5,-79 739.5,-49 644.5,-49"/>
<text text-anchor="start" x="652.5" y="-67" font-family="Helvetica,sans-Serif" font-size="10.00">mom_string_functions</text>
<text text-anchor="middle" x="692" y="-56" font-family="Helvetica,sans-Serif" font-size="10.00">::uppercase</text>
</a>
</g>
</g>
<!-- Node39&#45;&gt;Node40 -->
<g id="edge4" class="edge"><title>Node39&#45;&gt;Node40</title>
<path fill="none" stroke="midnightblue" d="M608.142,-61.4268C616.914,-61.6992 625.723,-61.9728 634.152,-62.2345"/>
<polygon fill="midnightblue" stroke="midnightblue" points="634.114,-65.7349 644.218,-62.5471 634.331,-58.7383 634.114,-65.7349"/>
</g>
<!-- Node39&#45;&gt;Node41 -->
<g id="edge5" class="edge"><title>Node39&#45;&gt;Node41</title>
<path fill="none" stroke="midnightblue" d="M564.935,-49.4527C585.57,-43.8132 612.161,-36.5459 635.599,-30.1407"/>
<polygon fill="midnightblue" stroke="midnightblue" points="636.7,-33.4681 645.424,-27.4556 634.855,-26.7157 636.7,-33.4681"/>
</g>
<!-- Node42 -->
<g id="node7" class="node"><title>Node42</title>
<g id="a_node7"><a xlink:href="namespacemom__error__handler.html#ad5f00a53059c72fe2332d1436c80ca71" target="_top" xlink:title=" ">
<polygon fill="white" stroke="black" points="776.5,-0 776.5,-30 869.5,-30 869.5,-0 776.5,-0"/>
<text text-anchor="start" x="784.5" y="-18" font-family="Helvetica,sans-Serif" font-size="10.00">mom_error_handler::</text>
<text text-anchor="middle" x="823" y="-7" font-family="Helvetica,sans-Serif" font-size="10.00">is_root_pe</text>
</a>
</g>
</g>
<!-- Node41&#45;&gt;Node42 -->
<g id="edge6" class="edge"><title>Node41&#45;&gt;Node42</title>
<path fill="none" stroke="midnightblue" d="M738.844,-15C747.683,-15 757.034,-15 766.151,-15"/>
<polygon fill="midnightblue" stroke="midnightblue" points="766.304,-18.5001 776.304,-15 766.304,-11.5001 766.304,-18.5001"/>
</g>
</g>
</svg>
