<?xml version="1.0" encoding="UTF-8" standalone="no"?>
<!DOCTYPE svg PUBLIC "-//W3C//DTD SVG 1.1//EN"
 "http://www.w3.org/Graphics/SVG/1.1/DTD/svg11.dtd">
<!-- Generated by graphviz version 2.30.1 (20170916.1124)
 -->
<!-- Title: mom_kappa_shear::calculate_kappa_shear Pages: 1 -->
<svg width="252pt" height="38pt"
 viewBox="0.00 0.00 252.00 38.00" xmlns="http://www.w3.org/2000/svg" xmlns:xlink="http://www.w3.org/1999/xlink">
<g id="graph0" class="graph" transform="scale(1 1) rotate(0) translate(4 34)">
<title>mom_kappa_shear::calculate_kappa_shear</title>
<polygon fill="white" stroke="white" points="-4,5 -4,-34 249,-34 249,5 -4,5"/>
<!-- Node6 -->
<g id="node1" class="node"><title>Node6</title>
<g id="a_node1"><a xlink:title=" ">
<polygon fill="#bfbfbf" stroke="black" points="122.5,-0 122.5,-30 243.5,-30 243.5,-0 122.5,-0"/>
<text text-anchor="start" x="130.5" y="-18" font-family="Helvetica,sans-Serif" font-size="10.00">mom_kappa_shear::calculate</text>
<text text-anchor="middle" x="183" y="-7" font-family="Helvetica,sans-Serif" font-size="10.00">_kappa_shear</text>
</a>
</g>
</g>
<!-- Node7 -->
<g id="node2" class="node"><title>Node7</title>
<g id="a_node2"><a xlink:href="namespacemom__set__diffusivity.html#a8b1f646393f0ec717ca690e4f04d96e8" target="_top" xlink:title=" ">
<polygon fill="white" stroke="black" points="0,-0 0,-30 86,-30 86,-0 0,-0"/>
<text text-anchor="start" x="8" y="-18" font-family="Helvetica,sans-Serif" font-size="10.00">mom_set_diffusivity</text>
<text text-anchor="middle" x="43" y="-7" font-family="Helvetica,sans-Serif" font-size="10.00">::set_diffusivity</text>
</a>
</g>
</g>
<!-- Node6&#45;&gt;Node7 -->
<g id="edge1" class="edge"><title>Node6&#45;&gt;Node7</title>
<path fill="none" stroke="midnightblue" d="M112.013,-15C103.252,-15 94.5121,-15 86.3586,-15"/>
<polygon fill="midnightblue" stroke="midnightblue" points="112.274,-18.5001 122.274,-15 112.274,-11.5001 112.274,-18.5001"/>
</g>
</g>
</svg>
