<?xml version="1.0" encoding="UTF-8" standalone="no"?>
<!DOCTYPE svg PUBLIC "-//W3C//DTD SVG 1.1//EN"
 "http://www.w3.org/Graphics/SVG/1.1/DTD/svg11.dtd">
<!-- Generated by graphviz version 2.30.1 (20170916.1124)
 -->
<!-- Title: mom_error_handler::calltree_leave Pages: 1 -->
<svg width="232pt" height="38pt"
 viewBox="0.00 0.00 232.00 38.00" xmlns="http://www.w3.org/2000/svg" xmlns:xlink="http://www.w3.org/1999/xlink">
<g id="graph0" class="graph" transform="scale(1 1) rotate(0) translate(4 34)">
<title>mom_error_handler::calltree_leave</title>
<polygon fill="white" stroke="white" points="-4,5 -4,-34 229,-34 229,5 -4,5"/>
<!-- Node105 -->
<g id="node1" class="node"><title>Node105</title>
<g id="a_node1"><a xlink:title="Writes a message about leaving a subroutine if call tree reporting is active.">
<polygon fill="#bfbfbf" stroke="black" points="0.5,-0 0.5,-30 93.5,-30 93.5,-0 0.5,-0"/>
<text text-anchor="start" x="8.5" y="-18" font-family="Helvetica,sans-Serif" font-size="10.00">mom_error_handler::</text>
<text text-anchor="middle" x="47" y="-7" font-family="Helvetica,sans-Serif" font-size="10.00">calltree_leave</text>
</a>
</g>
</g>
<!-- Node106 -->
<g id="node2" class="node"><title>Node106</title>
<g id="a_node2"><a xlink:href="namespacemom__error__handler.html#ad5f00a53059c72fe2332d1436c80ca71" target="_top" xlink:title=" ">
<polygon fill="white" stroke="black" points="130.5,-0 130.5,-30 223.5,-30 223.5,-0 130.5,-0"/>
<text text-anchor="start" x="138.5" y="-18" font-family="Helvetica,sans-Serif" font-size="10.00">mom_error_handler::</text>
<text text-anchor="middle" x="177" y="-7" font-family="Helvetica,sans-Serif" font-size="10.00">is_root_pe</text>
</a>
</g>
</g>
<!-- Node105&#45;&gt;Node106 -->
<g id="edge1" class="edge"><title>Node105&#45;&gt;Node106</title>
<path fill="none" stroke="midnightblue" d="M93.8494,-15C102.408,-15 111.439,-15 120.258,-15"/>
<polygon fill="midnightblue" stroke="midnightblue" points="120.471,-18.5001 130.471,-15 120.471,-11.5001 120.471,-18.5001"/>
</g>
</g>
</svg>
