<?xml version="1.0" encoding="UTF-8" standalone="no"?>
<!DOCTYPE svg PUBLIC "-//W3C//DTD SVG 1.1//EN"
 "http://www.w3.org/Graphics/SVG/1.1/DTD/svg11.dtd">
<!-- Generated by graphviz version 2.30.1 (20170916.1124)
 -->
<!-- Title: mom_coord_initialization::set_coord_from_gprime Pages: 1 -->
<svg width="376pt" height="87pt"
 viewBox="0.00 0.00 376.00 87.00" xmlns="http://www.w3.org/2000/svg" xmlns:xlink="http://www.w3.org/1999/xlink">
<g id="graph0" class="graph" transform="scale(1 1) rotate(0) translate(4 83)">
<title>mom_coord_initialization::set_coord_from_gprime</title>
<polygon fill="white" stroke="white" points="-4,5 -4,-83 373,-83 373,5 -4,5"/>
<!-- Node32 -->
<g id="node1" class="node"><title>Node32</title>
<g id="a_node1"><a xlink:title=" ">
<polygon fill="#bfbfbf" stroke="black" points="0.5,-24 0.5,-54 107.5,-54 107.5,-24 0.5,-24"/>
<text text-anchor="start" x="8.5" y="-42" font-family="Helvetica,sans-Serif" font-size="10.00">mom_coord_initialization</text>
<text text-anchor="middle" x="54" y="-31" font-family="Helvetica,sans-Serif" font-size="10.00">::set_coord_from_gprime</text>
</a>
</g>
</g>
<!-- Node33 -->
<g id="node2" class="node"><title>Node33</title>
<g id="a_node2"><a xlink:href="namespacemom__error__handler.html#a9cda07a87815f0e5594066162b4345c3" target="_top" xlink:title="Writes a message about entering a subroutine if call tree reporting is active.">
<polygon fill="white" stroke="black" points="144.5,-49 144.5,-79 237.5,-79 237.5,-49 144.5,-49"/>
<text text-anchor="start" x="152.5" y="-67" font-family="Helvetica,sans-Serif" font-size="10.00">mom_error_handler::</text>
<text text-anchor="middle" x="191" y="-56" font-family="Helvetica,sans-Serif" font-size="10.00">calltree_enter</text>
</a>
</g>
</g>
<!-- Node32&#45;&gt;Node33 -->
<g id="edge1" class="edge"><title>Node32&#45;&gt;Node33</title>
<path fill="none" stroke="midnightblue" d="M107.581,-48.7372C116.403,-50.3709 125.582,-52.0708 134.475,-53.7177"/>
<polygon fill="midnightblue" stroke="midnightblue" points="133.89,-57.1686 144.36,-55.5481 135.164,-50.2857 133.89,-57.1686"/>
</g>
<!-- Node35 -->
<g id="node4" class="node"><title>Node35</title>
<g id="a_node4"><a xlink:href="namespacemom__error__handler.html#a88ea67781e2ed9b73ab7eac8ea5e8578" target="_top" xlink:title="Writes a message about leaving a subroutine if call tree reporting is active.">
<polygon fill="white" stroke="black" points="144.5,-0 144.5,-30 237.5,-30 237.5,-0 144.5,-0"/>
<text text-anchor="start" x="152.5" y="-18" font-family="Helvetica,sans-Serif" font-size="10.00">mom_error_handler::</text>
<text text-anchor="middle" x="191" y="-7" font-family="Helvetica,sans-Serif" font-size="10.00">calltree_leave</text>
</a>
</g>
</g>
<!-- Node32&#45;&gt;Node35 -->
<g id="edge3" class="edge"><title>Node32&#45;&gt;Node35</title>
<path fill="none" stroke="midnightblue" d="M107.581,-29.6523C116.403,-28.084 125.582,-26.452 134.475,-24.871"/>
<polygon fill="midnightblue" stroke="midnightblue" points="135.127,-28.3102 144.36,-23.1138 133.902,-21.4182 135.127,-28.3102"/>
</g>
<!-- Node34 -->
<g id="node3" class="node"><title>Node34</title>
<g id="a_node3"><a xlink:href="namespacemom__error__handler.html#ad5f00a53059c72fe2332d1436c80ca71" target="_top" xlink:title=" ">
<polygon fill="white" stroke="black" points="274.5,-24 274.5,-54 367.5,-54 367.5,-24 274.5,-24"/>
<text text-anchor="start" x="282.5" y="-42" font-family="Helvetica,sans-Serif" font-size="10.00">mom_error_handler::</text>
<text text-anchor="middle" x="321" y="-31" font-family="Helvetica,sans-Serif" font-size="10.00">is_root_pe</text>
</a>
</g>
</g>
<!-- Node33&#45;&gt;Node34 -->
<g id="edge2" class="edge"><title>Node33&#45;&gt;Node34</title>
<path fill="none" stroke="midnightblue" d="M237.849,-55.045C246.501,-53.3552 255.636,-51.5712 264.545,-49.8311"/>
<polygon fill="midnightblue" stroke="midnightblue" points="265.327,-53.2445 274.471,-47.8924 263.985,-46.3743 265.327,-53.2445"/>
</g>
<!-- Node35&#45;&gt;Node34 -->
<g id="edge4" class="edge"><title>Node35&#45;&gt;Node34</title>
<path fill="none" stroke="midnightblue" d="M237.849,-23.5968C246.501,-25.219 255.636,-26.9317 264.545,-28.6022"/>
<polygon fill="midnightblue" stroke="midnightblue" points="263.997,-32.0603 274.471,-30.4633 265.287,-25.1802 263.997,-32.0603"/>
</g>
</g>
</svg>
