<?xml version="1.0" encoding="UTF-8" standalone="no"?>
<!DOCTYPE svg PUBLIC "-//W3C//DTD SVG 1.1//EN"
 "http://www.w3.org/Graphics/SVG/1.1/DTD/svg11.dtd">
<!-- Generated by graphviz version 2.30.1 (20170916.1124)
 -->
<!-- Title: user_change_diffusivity::user_change_diff Pages: 1 -->
<svg width="374pt" height="136pt"
 viewBox="0.00 0.00 374.00 136.00" xmlns="http://www.w3.org/2000/svg" xmlns:xlink="http://www.w3.org/1999/xlink">
<g id="graph0" class="graph" transform="scale(1 1) rotate(0) translate(4 132)">
<title>user_change_diffusivity::user_change_diff</title>
<polygon fill="white" stroke="white" points="-4,5 -4,-132 371,-132 371,5 -4,5"/>
<!-- Node4 -->
<g id="node1" class="node"><title>Node4</title>
<g id="a_node1"><a xlink:title="This subroutine provides an interface for a user to use to modify the main code to alter the diffusiv...">
<polygon fill="#bfbfbf" stroke="black" points="0.5,-49 0.5,-79 99.5,-79 99.5,-49 0.5,-49"/>
<text text-anchor="start" x="8.5" y="-67" font-family="Helvetica,sans-Serif" font-size="10.00">user_change_diffusivity</text>
<text text-anchor="middle" x="50" y="-56" font-family="Helvetica,sans-Serif" font-size="10.00">::user_change_diff</text>
</a>
</g>
</g>
<!-- Node5 -->
<g id="node2" class="node"><title>Node5</title>
<g id="a_node2"><a xlink:href="namespacemom__error__handler.html#a460cfb79a06c29fc249952c2a3710d67" target="_top" xlink:title=" ">
<polygon fill="white" stroke="black" points="139.5,-98 139.5,-128 232.5,-128 232.5,-98 139.5,-98"/>
<text text-anchor="start" x="147.5" y="-116" font-family="Helvetica,sans-Serif" font-size="10.00">mom_error_handler::</text>
<text text-anchor="middle" x="186" y="-105" font-family="Helvetica,sans-Serif" font-size="10.00">mom_error</text>
</a>
</g>
</g>
<!-- Node4&#45;&gt;Node5 -->
<g id="edge1" class="edge"><title>Node4&#45;&gt;Node5</title>
<path fill="none" stroke="midnightblue" d="M92.2978,-79.1014C105.544,-83.9451 120.369,-89.3664 134.213,-94.4285"/>
<polygon fill="midnightblue" stroke="midnightblue" points="133.014,-97.7168 143.608,-97.8641 135.418,-91.1426 133.014,-97.7168"/>
</g>
<!-- Node7 -->
<g id="node4" class="node"><title>Node7</title>
<g id="a_node4"><a xlink:href="namespaceuser__change__diffusivity.html#a14ddfad060f517dcda132b2fd279181e" target="_top" xlink:title="This subroutine checks whether the 4 values of range are in ascending order.">
<polygon fill="white" stroke="black" points="136.5,-49 136.5,-79 235.5,-79 235.5,-49 136.5,-49"/>
<text text-anchor="start" x="144.5" y="-67" font-family="Helvetica,sans-Serif" font-size="10.00">user_change_diffusivity</text>
<text text-anchor="middle" x="186" y="-56" font-family="Helvetica,sans-Serif" font-size="10.00">::range_ok</text>
</a>
</g>
</g>
<!-- Node4&#45;&gt;Node7 -->
<g id="edge3" class="edge"><title>Node4&#45;&gt;Node7</title>
<path fill="none" stroke="midnightblue" d="M99.7561,-64C108.254,-64 117.176,-64 125.916,-64"/>
<polygon fill="midnightblue" stroke="midnightblue" points="126.056,-67.5001 136.056,-64 126.056,-60.5001 126.056,-67.5001"/>
</g>
<!-- Node8 -->
<g id="node5" class="node"><title>Node8</title>
<g id="a_node5"><a xlink:href="namespaceuser__change__diffusivity.html#a9b291c89fbc92f517c683b5fa2797e92" target="_top" xlink:title="This subroutine returns a value that goes smoothly from 0 to 1, stays at 1, and then goes smoothly ba...">
<polygon fill="white" stroke="black" points="136.5,-0 136.5,-30 235.5,-30 235.5,-0 136.5,-0"/>
<text text-anchor="start" x="144.5" y="-18" font-family="Helvetica,sans-Serif" font-size="10.00">user_change_diffusivity</text>
<text text-anchor="middle" x="186" y="-7" font-family="Helvetica,sans-Serif" font-size="10.00">::val_weights</text>
</a>
</g>
</g>
<!-- Node4&#45;&gt;Node8 -->
<g id="edge4" class="edge"><title>Node4&#45;&gt;Node8</title>
<path fill="none" stroke="midnightblue" d="M92.2978,-48.8986C105.544,-44.0549 120.369,-38.6336 134.213,-33.5715"/>
<polygon fill="midnightblue" stroke="midnightblue" points="135.418,-36.8574 143.608,-30.1359 133.014,-30.2832 135.418,-36.8574"/>
</g>
<!-- Node6 -->
<g id="node3" class="node"><title>Node6</title>
<g id="a_node3"><a xlink:href="namespacemom__error__handler.html#ad5f00a53059c72fe2332d1436c80ca71" target="_top" xlink:title=" ">
<polygon fill="white" stroke="black" points="272.5,-98 272.5,-128 365.5,-128 365.5,-98 272.5,-98"/>
<text text-anchor="start" x="280.5" y="-116" font-family="Helvetica,sans-Serif" font-size="10.00">mom_error_handler::</text>
<text text-anchor="middle" x="319" y="-105" font-family="Helvetica,sans-Serif" font-size="10.00">is_root_pe</text>
</a>
</g>
</g>
<!-- Node5&#45;&gt;Node6 -->
<g id="edge2" class="edge"><title>Node5&#45;&gt;Node6</title>
<path fill="none" stroke="midnightblue" d="M232.817,-113C242.346,-113 252.487,-113 262.325,-113"/>
<polygon fill="midnightblue" stroke="midnightblue" points="262.43,-116.5 272.43,-113 262.43,-109.5 262.43,-116.5"/>
</g>
</g>
</svg>
