<?xml version="1.0" encoding="UTF-8" standalone="no"?>
<!DOCTYPE svg PUBLIC "-//W3C//DTD SVG 1.1//EN"
 "http://www.w3.org/Graphics/SVG/1.1/DTD/svg11.dtd">
<!-- Generated by graphviz version 2.30.1 (20170916.1124)
 -->
<!-- Title: mom_eos::int_density_dz Pages: 1 -->
<svg width="416pt" height="38pt"
 viewBox="0.00 0.00 416.00 38.00" xmlns="http://www.w3.org/2000/svg" xmlns:xlink="http://www.w3.org/1999/xlink">
<g id="graph0" class="graph" transform="scale(1 1) rotate(0) translate(4 34)">
<title>mom_eos::int_density_dz</title>
<polygon fill="white" stroke="white" points="-4,5 -4,-34 413,-34 413,5 -4,5"/>
<!-- Node144 -->
<g id="node1" class="node"><title>Node144</title>
<g id="a_node1"><a xlink:title="This subroutine calculates analytical and nearly&#45;analytical integrals of pressure anomalies across la...">
<polygon fill="#bfbfbf" stroke="black" points="300.5,-5.5 300.5,-24.5 407.5,-24.5 407.5,-5.5 300.5,-5.5"/>
<text text-anchor="middle" x="354" y="-12.5" font-family="Helvetica,sans-Serif" font-size="10.00">mom_eos::int_density_dz</text>
</a>
</g>
</g>
<!-- Node145 -->
<g id="node2" class="node"><title>Node145</title>
<g id="a_node2"><a xlink:href="namespacemom__diagnostics.html#a0b6f33e7b575b5f685f781030b301876" target="_top" xlink:title=" ">
<polygon fill="white" stroke="black" points="150.5,-0 150.5,-30 263.5,-30 263.5,-0 150.5,-0"/>
<text text-anchor="start" x="158.5" y="-18" font-family="Helvetica,sans-Serif" font-size="10.00">mom_diagnostics::calculate</text>
<text text-anchor="middle" x="207" y="-7" font-family="Helvetica,sans-Serif" font-size="10.00">_vertical_integrals</text>
</a>
</g>
</g>
<!-- Node144&#45;&gt;Node145 -->
<g id="edge1" class="edge"><title>Node144&#45;&gt;Node145</title>
<path fill="none" stroke="midnightblue" d="M290.118,-15C281.393,-15 272.479,-15 263.894,-15"/>
<polygon fill="midnightblue" stroke="midnightblue" points="290.242,-18.5001 300.241,-15 290.241,-11.5001 290.242,-18.5001"/>
</g>
<!-- Node146 -->
<g id="node3" class="node"><title>Node146</title>
<g id="a_node3"><a xlink:href="namespacemom__diagnostics.html#abb6644248c28ab2e952361bfec436063" target="_top" xlink:title=" ">
<polygon fill="white" stroke="black" points="0.5,-0 0.5,-30 113.5,-30 113.5,-0 0.5,-0"/>
<text text-anchor="start" x="8.5" y="-18" font-family="Helvetica,sans-Serif" font-size="10.00">mom_diagnostics::calculate</text>
<text text-anchor="middle" x="57" y="-7" font-family="Helvetica,sans-Serif" font-size="10.00">_diagnostic_fields</text>
</a>
</g>
</g>
<!-- Node145&#45;&gt;Node146 -->
<g id="edge2" class="edge"><title>Node145&#45;&gt;Node146</title>
<path fill="none" stroke="midnightblue" d="M140.232,-15C131.424,-15 122.458,-15 113.842,-15"/>
<polygon fill="midnightblue" stroke="midnightblue" points="140.469,-18.5001 150.469,-15 140.469,-11.5001 140.469,-18.5001"/>
</g>
</g>
</svg>
