<?xml version="1.0" encoding="UTF-8" standalone="no"?>
<!DOCTYPE svg PUBLIC "-//W3C//DTD SVG 1.1//EN"
 "http://www.w3.org/Graphics/SVG/1.1/DTD/svg11.dtd">
<!-- Generated by graphviz version 2.30.1 (20170916.1124)
 -->
<!-- Title: mom_regridding::regridding_set_ppolys Pages: 1 -->
<!--zoomable 136 -->
<svg id="main" version="1.1" xmlns="http://www.w3.org/2000/svg" xmlns:xlink="http://www.w3.org/1999/xlink" xml:space="preserve" onload="init(evt)">
<style type="text/css"><![CDATA[
.edge:hover path { stroke: red; }
.edge:hover polygon { stroke: red; fill: red; }
]]></style>
<script type="text/javascript"><![CDATA[
var edges = document.getElementsByTagName('g');
if (edges && edges.length) {
  for (var i=0;i<edges.length;i++) {
    if (edges[i].id.substr(0,4)=='edge') {
      edges[i].setAttribute('class','edge');
    }
  }
}
]]></script>
        <defs>
                <circle id="rim" cx="0" cy="0" r="7"/>
                <circle id="rim2" cx="0" cy="0" r="3.5"/>
                <g id="zoomPlus">
                        <use xlink:href="#rim" fill="#404040">
                                <set attributeName="fill" to="#808080" begin="zoomplus.mouseover" end="zoomplus.mouseout"/>
                        </use>
                        <path d="M-4,0h8M0,-4v8" fill="none" stroke="white" stroke-width="1.5" pointer-events="none"/>
                </g>
                <g id="zoomMin">
                        <use xlink:href="#rim" fill="#404040">
                                <set attributeName="fill" to="#808080" begin="zoomminus.mouseover" end="zoomminus.mouseout"/>
                        </use>
                        <path d="M-4,0h8" fill="none" stroke="white" stroke-width="1.5" pointer-events="none"/>
                </g>
                <g id="dirArrow">
                        <path fill="none" stroke="white" stroke-width="1.5" d="M0,-3.0v7 M-2.5,-0.5L0,-3.0L2.5,-0.5"/>
                </g>
               <g id="resetDef">
                       <use xlink:href="#rim2" fill="#404040">
                               <set attributeName="fill" to="#808080" begin="reset.mouseover" end="reset.mouseout"/>
                       </use>
               </g>
        </defs>

<script type="text/javascript">
var viewWidth = 694;
var viewHeight = 136;
var sectionId = 'dynsection-49';
</script>
<script xlink:href="svgpan.js"/>
<svg id="graph" class="graph">
<g id="viewport">
<title>mom_regridding::regridding_set_ppolys</title>
<polygon fill="white" stroke="white" points="-4,5 -4,-132 691,-132 691,5 -4,5"/>
<!-- Node463 -->
<g id="node1" class="node"><title>Node463</title>
<g id="a_node1"><a xlink:title="Given the set of target values and cell densities, this routine builds an interpolated profile for th...">
<polygon fill="#bfbfbf" stroke="black" points="570,-49 570,-79 686,-79 686,-49 570,-49"/>
<text text-anchor="start" x="578" y="-67" font-family="Helvetica,sans-Serif" font-size="10.00">mom_regridding::regridding</text>
<text text-anchor="middle" x="628" y="-56" font-family="Helvetica,sans-Serif" font-size="10.00">_set_ppolys</text>
</a>
</g>
</g>
<!-- Node464 -->
<g id="node2" class="node"><title>Node464</title>
<g id="a_node2"><a xlink:href="namespacemom__regridding.html#acbe376c457e1ea0c4514b948cbf5144b" target="_top" xlink:title=" ">
<polygon fill="white" stroke="black" points="438,-98 438,-128 534,-128 534,-98 438,-98"/>
<text text-anchor="start" x="446" y="-116" font-family="Helvetica,sans-Serif" font-size="10.00">mom_regridding::build</text>
<text text-anchor="middle" x="486" y="-105" font-family="Helvetica,sans-Serif" font-size="10.00">_hycom1_column</text>
</a>
</g>
</g>
<!-- Node463&#45;&gt;Node464 -->
<g id="edge1" class="edge"><title>Node463&#45;&gt;Node464</title>
<path fill="none" stroke="midnightblue" d="M574.041,-82.5355C559.583,-87.5959 544.092,-93.0177 530.245,-97.8641"/>
<polygon fill="midnightblue" stroke="midnightblue" points="575.571,-85.7085 583.853,-79.1014 573.258,-79.1015 575.571,-85.7085"/>
</g>
<!-- Node467 -->
<g id="node5" class="node"><title>Node467</title>
<g id="a_node5"><a xlink:href="namespacemom__regridding.html#a799aacb5c6e7ab70f8177ca8b4a5330b" target="_top" xlink:title=" ">
<polygon fill="white" stroke="black" points="438,-49 438,-79 534,-79 534,-49 438,-49"/>
<text text-anchor="start" x="446" y="-67" font-family="Helvetica,sans-Serif" font-size="10.00">mom_regridding::build</text>
<text text-anchor="middle" x="486" y="-56" font-family="Helvetica,sans-Serif" font-size="10.00">_rho_column</text>
</a>
</g>
</g>
<!-- Node463&#45;&gt;Node467 -->
<g id="edge4" class="edge"><title>Node463&#45;&gt;Node467</title>
<path fill="none" stroke="midnightblue" d="M559.627,-64C551.039,-64 542.399,-64 534.224,-64"/>
<polygon fill="midnightblue" stroke="midnightblue" points="559.653,-67.5001 569.653,-64 559.653,-60.5001 559.653,-67.5001"/>
</g>
<!-- Node469 -->
<g id="node7" class="node"><title>Node469</title>
<g id="a_node7"><a xlink:href="namespacemom__regridding.html#aacf680ddf88e9c41a340dd426272906d" target="_top" xlink:title="Finds the new interface locations in a column of water that match the prescribed target densities.">
<polygon fill="white" stroke="black" points="440,-0 440,-30 532,-30 532,-0 440,-0"/>
<text text-anchor="start" x="448" y="-18" font-family="Helvetica,sans-Serif" font-size="10.00">mom_regridding::rho</text>
<text text-anchor="middle" x="486" y="-7" font-family="Helvetica,sans-Serif" font-size="10.00">_interfaces_col</text>
</a>
</g>
</g>
<!-- Node463&#45;&gt;Node469 -->
<g id="edge7" class="edge"><title>Node463&#45;&gt;Node469</title>
<path fill="none" stroke="midnightblue" d="M574.041,-45.4645C559.583,-40.4041 544.092,-34.9823 530.245,-30.1359"/>
<polygon fill="midnightblue" stroke="midnightblue" points="573.258,-48.8985 583.853,-48.8986 575.571,-42.2915 573.258,-48.8985"/>
</g>
<!-- Node465 -->
<g id="node3" class="node"><title>Node465</title>
<g id="a_node3"><a xlink:href="namespacemom__regridding.html#a3375da62433b875eed537feeba1ae1b3" target="_top" xlink:title="Builds a simple HyCOM&#45;like grid with the deepest location of potential density interpolated from the ...">
<polygon fill="white" stroke="black" points="174,-94 174,-124 270,-124 270,-94 174,-94"/>
<text text-anchor="start" x="182" y="-112" font-family="Helvetica,sans-Serif" font-size="10.00">mom_regridding::build</text>
<text text-anchor="middle" x="222" y="-101" font-family="Helvetica,sans-Serif" font-size="10.00">_grid_hycom1</text>
</a>
</g>
</g>
<!-- Node464&#45;&gt;Node465 -->
<g id="edge2" class="edge"><title>Node464&#45;&gt;Node465</title>
<path fill="none" stroke="midnightblue" d="M427.79,-112.127C380.59,-111.406 314.423,-110.396 270.206,-109.721"/>
<polygon fill="midnightblue" stroke="midnightblue" points="427.805,-115.627 437.857,-112.28 427.912,-108.628 427.805,-115.627"/>
</g>
<!-- Node466 -->
<g id="node4" class="node"><title>Node466</title>
<g id="a_node4"><a xlink:href="namespacemom__regridding.html#abf6d4e0d14c8b3b69fa4ffca42122c5f" target="_top" xlink:title=" ">
<polygon fill="white" stroke="black" points="0.5,-54.5 0.5,-73.5 137.5,-73.5 137.5,-54.5 0.5,-54.5"/>
<text text-anchor="middle" x="69" y="-61.5" font-family="Helvetica,sans-Serif" font-size="10.00">mom_regridding::regridding_main</text>
</a>
</g>
</g>
<!-- Node465&#45;&gt;Node466 -->
<g id="edge3" class="edge"><title>Node465&#45;&gt;Node466</title>
<path fill="none" stroke="midnightblue" d="M163.852,-91.969C142.879,-85.7188 119.894,-78.8692 101.921,-73.5128"/>
<polygon fill="midnightblue" stroke="midnightblue" points="163.054,-95.3833 173.637,-94.8852 165.053,-88.6749 163.054,-95.3833"/>
</g>
<!-- Node468 -->
<g id="node6" class="node"><title>Node468</title>
<g id="a_node6"><a xlink:href="namespacemom__regridding.html#a58a19305bbdab26bfa4f336dfac8c4f8" target="_top" xlink:title=" ">
<polygon fill="white" stroke="black" points="306,-49 306,-79 402,-79 402,-49 306,-49"/>
<text text-anchor="start" x="314" y="-67" font-family="Helvetica,sans-Serif" font-size="10.00">mom_regridding::build</text>
<text text-anchor="middle" x="354" y="-56" font-family="Helvetica,sans-Serif" font-size="10.00">_rho_grid</text>
</a>
</g>
</g>
<!-- Node467&#45;&gt;Node468 -->
<g id="edge5" class="edge"><title>Node467&#45;&gt;Node468</title>
<path fill="none" stroke="midnightblue" d="M427.461,-64C418.966,-64 410.297,-64 402.048,-64"/>
<polygon fill="midnightblue" stroke="midnightblue" points="427.699,-67.5001 437.699,-64 427.699,-60.5001 427.699,-67.5001"/>
</g>
<!-- Node468&#45;&gt;Node466 -->
<g id="edge6" class="edge"><title>Node468&#45;&gt;Node466</title>
<path fill="none" stroke="midnightblue" d="M295.905,-64C250.162,-64 185.872,-64 137.567,-64"/>
<polygon fill="midnightblue" stroke="midnightblue" points="295.951,-67.5001 305.951,-64 295.951,-60.5001 295.951,-67.5001"/>
</g>
<!-- Node470 -->
<g id="node8" class="node"><title>Node470</title>
<g id="a_node8"><a xlink:href="namespacemom__regridding.html#a5927168e530c06163baf3693a804e15f" target="_top" xlink:title=" ">
<polygon fill="white" stroke="black" points="306,-0 306,-30 402,-30 402,-0 306,-0"/>
<text text-anchor="start" x="314" y="-18" font-family="Helvetica,sans-Serif" font-size="10.00">mom_regridding::build</text>
<text text-anchor="middle" x="354" y="-7" font-family="Helvetica,sans-Serif" font-size="10.00">_slight_column</text>
</a>
</g>
</g>
<!-- Node469&#45;&gt;Node470 -->
<g id="edge8" class="edge"><title>Node469&#45;&gt;Node470</title>
<path fill="none" stroke="midnightblue" d="M429.72,-15C420.571,-15 411.16,-15 402.233,-15"/>
<polygon fill="midnightblue" stroke="midnightblue" points="429.897,-18.5001 439.897,-15 429.897,-11.5001 429.897,-18.5001"/>
</g>
<!-- Node471 -->
<g id="node9" class="node"><title>Node471</title>
<g id="a_node9"><a xlink:href="namespacemom__regridding.html#adbdde4ab6606ab76f64f57b7ee5dfdeb" target="_top" xlink:title="Builds a grid that tracks density interfaces for water that is denser than the surface density plus a...">
<polygon fill="white" stroke="black" points="174,-3 174,-33 270,-33 270,-3 174,-3"/>
<text text-anchor="start" x="182" y="-21" font-family="Helvetica,sans-Serif" font-size="10.00">mom_regridding::build</text>
<text text-anchor="middle" x="222" y="-10" font-family="Helvetica,sans-Serif" font-size="10.00">_grid_slight</text>
</a>
</g>
</g>
<!-- Node470&#45;&gt;Node471 -->
<g id="edge9" class="edge"><title>Node470&#45;&gt;Node471</title>
<path fill="none" stroke="midnightblue" d="M295.461,-16.3278C286.966,-16.5239 278.297,-16.7239 270.048,-16.9143"/>
<polygon fill="midnightblue" stroke="midnightblue" points="295.783,-19.8214 305.699,-16.0916 295.621,-12.8233 295.783,-19.8214"/>
</g>
<!-- Node471&#45;&gt;Node466 -->
<g id="edge10" class="edge"><title>Node471&#45;&gt;Node466</title>
<path fill="none" stroke="midnightblue" d="M164.065,-35.3446C142.854,-41.8059 119.56,-48.9021 101.459,-54.4164"/>
<polygon fill="midnightblue" stroke="midnightblue" points="165.091,-38.6908 173.637,-32.4285 163.051,-31.9946 165.091,-38.6908"/>
</g>
</g>
</svg>
        <g id="navigator" transform="translate(0 0)" fill="#404254">
                <rect fill="#f2f5e9" fill-opacity="0.5" stroke="#606060" stroke-width=".5" x="0" y="0" width="60" height="60"/>
                <use id="zoomplus" xlink:href="#zoomPlus" x="17" y="9" onmousedown="handleZoom(evt,'in')"/>
                <use id="zoomminus" xlink:href="#zoomMin" x="42" y="9" onmousedown="handleZoom(evt,'out')"/>
                <use id="reset" xlink:href="#resetDef" x="30" y="36" onmousedown="handleReset()"/>
                <g id="arrowUp" xlink:href="#dirArrow" transform="translate(30 24)" onmousedown="handlePan(0,-1)">
                  <use xlink:href="#rim" fill="#404040">
                        <set attributeName="fill" to="#808080" begin="arrowUp.mouseover" end="arrowUp.mouseout"/>
                  </use>
                  <path fill="none" stroke="white" stroke-width="1.5" d="M0,-3.0v7 M-2.5,-0.5L0,-3.0L2.5,-0.5"/>
                </g>
                <g id="arrowRight" xlink:href="#dirArrow" transform="rotate(90) translate(36 -43)" onmousedown="handlePan(1,0)">
                  <use xlink:href="#rim" fill="#404040">
                        <set attributeName="fill" to="#808080" begin="arrowRight.mouseover" end="arrowRight.mouseout"/>
                  </use>
                  <path fill="none" stroke="white" stroke-width="1.5" d="M0,-3.0v7 M-2.5,-0.5L0,-3.0L2.5,-0.5"/>
                </g>
                <g id="arrowDown" xlink:href="#dirArrow" transform="rotate(180) translate(-30 -48)" onmousedown="handlePan(0,1)">
                  <use xlink:href="#rim" fill="#404040">
                        <set attributeName="fill" to="#808080" begin="arrowDown.mouseover" end="arrowDown.mouseout"/>
                  </use>
                  <path fill="none" stroke="white" stroke-width="1.5" d="M0,-3.0v7 M-2.5,-0.5L0,-3.0L2.5,-0.5"/>
                </g>
                <g id="arrowLeft" xlink:href="#dirArrow" transform="rotate(270) translate(-36 17)" onmousedown="handlePan(-1,0)">
                  <use xlink:href="#rim" fill="#404040">
                        <set attributeName="fill" to="#808080" begin="arrowLeft.mouseover" end="arrowLeft.mouseout"/>
                  </use>
                  <path fill="none" stroke="white" stroke-width="1.5" d="M0,-3.0v7 M-2.5,-0.5L0,-3.0L2.5,-0.5"/>
                </g>
        </g>
        <svg viewBox="0 0 15 15" width="100%" height="30px" preserveAspectRatio="xMaxYMin meet">
         <g id="arrow_out" transform="scale(0.3 0.3)">
          <a xlink:href="namespacemom__regridding_a580e775df53e4bb61f118fcab44a3f92_icgraph_org.svg" target="_base">
           <rect id="button" ry="5" rx="5" y="6" x="6" height="38" width="38"
                fill="#f2f5e9" fill-opacity="0.5" stroke="#606060" stroke-width="1.0"/>
           <path id="arrow"
             d="M 11.500037,31.436501 C 11.940474,20.09759 22.043105,11.32322 32.158766,21.979434 L 37.068811,17.246167 C 37.068811,17.246167 37.088388,32 37.088388,32 L 22.160133,31.978069 C 22.160133,31.978069 26.997745,27.140456 26.997745,27.140456 C 18.528582,18.264221 13.291696,25.230495 11.500037,31.436501 z"
             style="fill:#404040;"/>
          </a>
         </g>
        </svg>
</svg>
