<?xml version="1.0" encoding="UTF-8" standalone="no"?>
<!DOCTYPE svg PUBLIC "-//W3C//DTD SVG 1.1//EN"
 "http://www.w3.org/Graphics/SVG/1.1/DTD/svg11.dtd">
<!-- Generated by graphviz version 2.30.1 (20170916.1124)
 -->
<!-- Title: user_shelf_init::user_init_ice_thickness Pages: 1 -->
<svg width="350pt" height="87pt"
 viewBox="0.00 0.00 350.00 87.00" xmlns="http://www.w3.org/2000/svg" xmlns:xlink="http://www.w3.org/1999/xlink">
<g id="graph0" class="graph" transform="scale(1 1) rotate(0) translate(4 83)">
<title>user_shelf_init::user_init_ice_thickness</title>
<polygon fill="white" stroke="white" points="-4,5 -4,-83 347,-83 347,5 -4,5"/>
<!-- Node0 -->
<g id="node1" class="node"><title>Node0</title>
<g id="a_node1"><a xlink:title=" ">
<polygon fill="#bfbfbf" stroke="black" points="0,-24 0,-54 88,-54 88,-24 0,-24"/>
<text text-anchor="start" x="8" y="-42" font-family="Helvetica,sans-Serif" font-size="10.00">user_shelf_init::user</text>
<text text-anchor="middle" x="44" y="-31" font-family="Helvetica,sans-Serif" font-size="10.00">_init_ice_thickness</text>
</a>
</g>
</g>
<!-- Node1 -->
<g id="node2" class="node"><title>Node1</title>
<g id="a_node2"><a xlink:href="namespaceuser__shelf__init.html#a160ee7639522c12c10408f853ff4d897" target="_top" xlink:title=" ">
<polygon fill="white" stroke="black" points="124,-24 124,-54 216,-54 216,-24 124,-24"/>
<text text-anchor="start" x="132" y="-42" font-family="Helvetica,sans-Serif" font-size="10.00">user_shelf_init::user</text>
<text text-anchor="middle" x="170" y="-31" font-family="Helvetica,sans-Serif" font-size="10.00">_initialize_shelf_mass</text>
</a>
</g>
</g>
<!-- Node0&#45;&gt;Node1 -->
<g id="edge1" class="edge"><title>Node0&#45;&gt;Node1</title>
<path fill="none" stroke="midnightblue" d="M88.0212,-39C96.367,-39 105.221,-39 113.892,-39"/>
<polygon fill="midnightblue" stroke="midnightblue" points="113.947,-42.5001 123.947,-39 113.947,-35.5001 113.947,-42.5001"/>
</g>
<!-- Node2 -->
<g id="node3" class="node"><title>Node2</title>
<g id="a_node3"><a xlink:href="namespaceuser__shelf__init.html#a04dc4958214e8b07da385f8be785d706" target="_top" xlink:title=" ">
<polygon fill="white" stroke="black" points="252.5,-49 252.5,-79 341.5,-79 341.5,-49 252.5,-49"/>
<text text-anchor="start" x="260.5" y="-67" font-family="Helvetica,sans-Serif" font-size="10.00">user_shelf_init::write</text>
<text text-anchor="middle" x="297" y="-56" font-family="Helvetica,sans-Serif" font-size="10.00">_user_log</text>
</a>
</g>
</g>
<!-- Node1&#45;&gt;Node2 -->
<g id="edge2" class="edge"><title>Node1&#45;&gt;Node2</title>
<path fill="none" stroke="midnightblue" d="M216.128,-48.0256C224.572,-49.7144 233.476,-51.4952 242.153,-53.2305"/>
<polygon fill="midnightblue" stroke="midnightblue" points="241.701,-56.7094 252.193,-55.2387 243.074,-49.8454 241.701,-56.7094"/>
</g>
<!-- Node3 -->
<g id="node4" class="node"><title>Node3</title>
<g id="a_node4"><a xlink:href="namespaceuser__shelf__init.html#abd99438d24c4a57aa3fbab3b067a7c81" target="_top" xlink:title=" ">
<polygon fill="white" stroke="black" points="252,-0 252,-30 342,-30 342,-0 252,-0"/>
<text text-anchor="start" x="260" y="-18" font-family="Helvetica,sans-Serif" font-size="10.00">user_shelf_init::user</text>
<text text-anchor="middle" x="297" y="-7" font-family="Helvetica,sans-Serif" font-size="10.00">_update_shelf_mass</text>
</a>
</g>
</g>
<!-- Node1&#45;&gt;Node3 -->
<g id="edge3" class="edge"><title>Node1&#45;&gt;Node3</title>
<path fill="none" stroke="midnightblue" d="M216.128,-30.3354C224.472,-28.7335 233.264,-27.0453 241.843,-25.3982"/>
<polygon fill="midnightblue" stroke="midnightblue" points="242.615,-28.8139 251.776,-23.4911 241.295,-21.9395 242.615,-28.8139"/>
</g>
</g>
</svg>
