<?xml version="1.0" encoding="UTF-8" standalone="no"?>
<!DOCTYPE svg PUBLIC "-//W3C//DTD SVG 1.1//EN"
 "http://www.w3.org/Graphics/SVG/1.1/DTD/svg11.dtd">
<!-- Generated by graphviz version 2.30.1 (20170916.1124)
 -->
<!-- Title: mom_entrain_diffusive::f_kb_to_ea_kb Pages: 1 -->
<svg width="634pt" height="60pt"
 viewBox="0.00 0.00 634.00 60.00" xmlns="http://www.w3.org/2000/svg" xmlns:xlink="http://www.w3.org/1999/xlink">
<g id="graph0" class="graph" transform="scale(1 1) rotate(0) translate(4 56)">
<title>mom_entrain_diffusive::f_kb_to_ea_kb</title>
<polygon fill="white" stroke="white" points="-4,5 -4,-56 631,-56 631,5 -4,5"/>
<!-- Node32 -->
<g id="node1" class="node"><title>Node32</title>
<g id="a_node1"><a xlink:title=" ">
<polygon fill="#bfbfbf" stroke="black" points="0.5,-22 0.5,-52 97.5,-52 97.5,-22 0.5,-22"/>
<text text-anchor="start" x="8.5" y="-40" font-family="Helvetica,sans-Serif" font-size="10.00">mom_entrain_diffusive</text>
<text text-anchor="middle" x="49" y="-29" font-family="Helvetica,sans-Serif" font-size="10.00">::f_kb_to_ea_kb</text>
</a>
</g>
</g>
<!-- Node33 -->
<g id="node2" class="node"><title>Node33</title>
<g id="a_node2"><a xlink:href="namespacemom__entrain__diffusive.html#aa2d2f462912ba1e201b1b73e62a905f3" target="_top" xlink:title=" ">
<polygon fill="white" stroke="black" points="268.5,-22 268.5,-52 365.5,-52 365.5,-22 268.5,-22"/>
<text text-anchor="start" x="276.5" y="-40" font-family="Helvetica,sans-Serif" font-size="10.00">mom_entrain_diffusive</text>
<text text-anchor="middle" x="317" y="-29" font-family="Helvetica,sans-Serif" font-size="10.00">::determine_dskb</text>
</a>
</g>
</g>
<!-- Node32&#45;&gt;Node33 -->
<g id="edge1" class="edge"><title>Node32&#45;&gt;Node33</title>
<path fill="none" stroke="midnightblue" d="M97.5297,-38.3289C109.437,-38.6075 122.185,-38.8594 134,-39 177.552,-39.5184 188.448,-39.5184 232,-39 240.492,-38.8989 249.466,-38.7404 258.263,-38.5557"/>
<polygon fill="midnightblue" stroke="midnightblue" points="258.551,-42.0503 268.47,-38.3289 258.395,-35.052 258.551,-42.0503"/>
</g>
<!-- Node36 -->
<g id="node5" class="node"><title>Node36</title>
<g id="a_node5"><a xlink:href="namespacemom__entrain__diffusive.html#ae45dbf976314c3a9e278ebcebedab109" target="_top" xlink:title=" ">
<polygon fill="white" stroke="black" points="134.5,-0 134.5,-30 231.5,-30 231.5,-0 134.5,-0"/>
<text text-anchor="start" x="142.5" y="-18" font-family="Helvetica,sans-Serif" font-size="10.00">mom_entrain_diffusive</text>
<text text-anchor="middle" x="183" y="-7" font-family="Helvetica,sans-Serif" font-size="10.00">::find_maxf_kb</text>
</a>
</g>
</g>
<!-- Node32&#45;&gt;Node36 -->
<g id="edge4" class="edge"><title>Node32&#45;&gt;Node36</title>
<path fill="none" stroke="midnightblue" d="M97.655,-29.0575C106.347,-27.6088 115.5,-26.0833 124.443,-24.5928"/>
<polygon fill="midnightblue" stroke="midnightblue" points="125.126,-28.0273 134.415,-22.9308 123.976,-21.1225 125.126,-28.0273"/>
</g>
<!-- Node34 -->
<g id="node3" class="node"><title>Node34</title>
<g id="a_node3"><a xlink:href="namespacemom__error__handler.html#a460cfb79a06c29fc249952c2a3710d67" target="_top" xlink:title=" ">
<polygon fill="white" stroke="black" points="402.5,-22 402.5,-52 495.5,-52 495.5,-22 402.5,-22"/>
<text text-anchor="start" x="410.5" y="-40" font-family="Helvetica,sans-Serif" font-size="10.00">mom_error_handler::</text>
<text text-anchor="middle" x="449" y="-29" font-family="Helvetica,sans-Serif" font-size="10.00">mom_error</text>
</a>
</g>
</g>
<!-- Node33&#45;&gt;Node34 -->
<g id="edge2" class="edge"><title>Node33&#45;&gt;Node34</title>
<path fill="none" stroke="midnightblue" d="M365.669,-37C374.211,-37 383.183,-37 391.936,-37"/>
<polygon fill="midnightblue" stroke="midnightblue" points="392.07,-40.5001 402.07,-37 392.07,-33.5001 392.07,-40.5001"/>
</g>
<!-- Node35 -->
<g id="node4" class="node"><title>Node35</title>
<g id="a_node4"><a xlink:href="namespacemom__error__handler.html#ad5f00a53059c72fe2332d1436c80ca71" target="_top" xlink:title=" ">
<polygon fill="white" stroke="black" points="532.5,-22 532.5,-52 625.5,-52 625.5,-22 532.5,-22"/>
<text text-anchor="start" x="540.5" y="-40" font-family="Helvetica,sans-Serif" font-size="10.00">mom_error_handler::</text>
<text text-anchor="middle" x="579" y="-29" font-family="Helvetica,sans-Serif" font-size="10.00">is_root_pe</text>
</a>
</g>
</g>
<!-- Node34&#45;&gt;Node35 -->
<g id="edge3" class="edge"><title>Node34&#45;&gt;Node35</title>
<path fill="none" stroke="midnightblue" d="M495.849,-37C504.408,-37 513.439,-37 522.258,-37"/>
<polygon fill="midnightblue" stroke="midnightblue" points="522.471,-40.5001 532.471,-37 522.471,-33.5001 522.471,-40.5001"/>
</g>
<!-- Node36&#45;&gt;Node33 -->
<g id="edge5" class="edge"><title>Node36&#45;&gt;Node33</title>
<path fill="none" stroke="midnightblue" d="M231.655,-22.9425C240.347,-24.3912 249.5,-25.9167 258.443,-27.4072"/>
<polygon fill="midnightblue" stroke="midnightblue" points="257.976,-30.8775 268.415,-29.0692 259.126,-23.9727 257.976,-30.8775"/>
</g>
</g>
</svg>
