<?xml version="1.0" encoding="UTF-8" standalone="no"?>
<!DOCTYPE svg PUBLIC "-//W3C//DTD SVG 1.1//EN"
 "http://www.w3.org/Graphics/SVG/1.1/DTD/svg11.dtd">
<!-- Generated by graphviz version 2.30.1 (20170916.1124)
 -->
<!-- Title: mom_surface_forcing::buoyancy_forcing_allocate Pages: 1 -->
<svg width="504pt" height="136pt"
 viewBox="0.00 0.00 504.00 136.00" xmlns="http://www.w3.org/2000/svg" xmlns:xlink="http://www.w3.org/1999/xlink">
<g id="graph0" class="graph" transform="scale(1 1) rotate(0) translate(4 132)">
<title>mom_surface_forcing::buoyancy_forcing_allocate</title>
<polygon fill="white" stroke="white" points="-4,5 -4,-132 501,-132 501,5 -4,5"/>
<!-- Node6 -->
<g id="node1" class="node"><title>Node6</title>
<g id="a_node1"><a xlink:title=" ">
<polygon fill="#bfbfbf" stroke="black" points="380.5,-49 380.5,-79 495.5,-79 495.5,-49 380.5,-49"/>
<text text-anchor="start" x="388.5" y="-67" font-family="Helvetica,sans-Serif" font-size="10.00">mom_surface_forcing</text>
<text text-anchor="middle" x="438" y="-56" font-family="Helvetica,sans-Serif" font-size="10.00">::buoyancy_forcing_allocate</text>
</a>
</g>
</g>
<!-- Node7 -->
<g id="node2" class="node"><title>Node7</title>
<g id="a_node2"><a xlink:href="namespacemom__surface__forcing.html#acca2bc9bf2a06c2ccfcacfe0686013d4" target="_top" xlink:title=" ">
<polygon fill="white" stroke="black" points="222,-98 222,-128 344,-128 344,-98 222,-98"/>
<text text-anchor="start" x="230" y="-116" font-family="Helvetica,sans-Serif" font-size="10.00">mom_surface_forcing</text>
<text text-anchor="middle" x="283" y="-105" font-family="Helvetica,sans-Serif" font-size="10.00">::buoyancy_forcing_from_files</text>
</a>
</g>
</g>
<!-- Node6&#45;&gt;Node7 -->
<g id="edge1" class="edge"><title>Node6&#45;&gt;Node7</title>
<path fill="none" stroke="midnightblue" d="M379.987,-82.2591C363.85,-87.4273 346.473,-92.9924 330.998,-97.9484"/>
<polygon fill="midnightblue" stroke="midnightblue" points="381.391,-85.4848 389.847,-79.1014 379.255,-78.8183 381.391,-85.4848"/>
</g>
<!-- Node10 -->
<g id="node5" class="node"><title>Node10</title>
<g id="a_node5"><a xlink:href="namespacemom__surface__forcing.html#a04a68cf8f709d78372dda5507a1223b7" target="_top" xlink:title=" ">
<polygon fill="white" stroke="black" points="229.5,-49 229.5,-79 336.5,-79 336.5,-49 229.5,-49"/>
<text text-anchor="start" x="237.5" y="-67" font-family="Helvetica,sans-Serif" font-size="10.00">mom_surface_forcing</text>
<text text-anchor="middle" x="283" y="-56" font-family="Helvetica,sans-Serif" font-size="10.00">::buoyancy_forcing_linear</text>
</a>
</g>
</g>
<!-- Node6&#45;&gt;Node10 -->
<g id="edge4" class="edge"><title>Node6&#45;&gt;Node10</title>
<path fill="none" stroke="midnightblue" d="M370.21,-64C358.926,-64 347.356,-64 336.503,-64"/>
<polygon fill="midnightblue" stroke="midnightblue" points="370.463,-67.5001 380.463,-64 370.463,-60.5001 370.463,-67.5001"/>
</g>
<!-- Node11 -->
<g id="node6" class="node"><title>Node11</title>
<g id="a_node6"><a xlink:href="namespacemom__surface__forcing.html#a34cd389230cf9a9a2a620f5da6530474" target="_top" xlink:title=" ">
<polygon fill="white" stroke="black" points="231,-0 231,-30 335,-30 335,-0 231,-0"/>
<text text-anchor="start" x="239" y="-18" font-family="Helvetica,sans-Serif" font-size="10.00">mom_surface_forcing</text>
<text text-anchor="middle" x="283" y="-7" font-family="Helvetica,sans-Serif" font-size="10.00">::buoyancy_forcing_zero</text>
</a>
</g>
</g>
<!-- Node6&#45;&gt;Node11 -->
<g id="edge6" class="edge"><title>Node6&#45;&gt;Node11</title>
<path fill="none" stroke="midnightblue" d="M379.987,-45.7409C363.85,-40.5727 346.473,-35.0076 330.998,-30.0516"/>
<polygon fill="midnightblue" stroke="midnightblue" points="379.255,-49.1817 389.847,-48.8986 381.391,-42.5152 379.255,-49.1817"/>
</g>
<!-- Node8 -->
<g id="node3" class="node"><title>Node8</title>
<g id="a_node3"><a xlink:href="namespacemom__surface__forcing.html#ad4eeb543c0b616e42ddb7c0a37f03bf0" target="_top" xlink:title=" ">
<polygon fill="white" stroke="black" points="92,-49 92,-79 186,-79 186,-49 92,-49"/>
<text text-anchor="start" x="100" y="-67" font-family="Helvetica,sans-Serif" font-size="10.00">mom_surface_forcing</text>
<text text-anchor="middle" x="139" y="-56" font-family="Helvetica,sans-Serif" font-size="10.00">::set_forcing</text>
</a>
</g>
</g>
<!-- Node7&#45;&gt;Node8 -->
<g id="edge2" class="edge"><title>Node7&#45;&gt;Node8</title>
<path fill="none" stroke="midnightblue" d="M228.708,-94.6104C213.922,-89.5084 198.043,-84.0289 183.863,-79.1359"/>
<polygon fill="midnightblue" stroke="midnightblue" points="227.642,-97.9451 238.237,-97.8986 229.925,-91.328 227.642,-97.9451"/>
</g>
<!-- Node9 -->
<g id="node4" class="node"><title>Node9</title>
<g id="a_node4"><a xlink:href="MOM__driver_8F90.html#a08fffeb2d8e8acbf9ed4609be6d258c6" target="_top" xlink:title=" ">
<polygon fill="white" stroke="black" points="0,-54.5 0,-73.5 56,-73.5 56,-54.5 0,-54.5"/>
<text text-anchor="middle" x="28" y="-61.5" font-family="Helvetica,sans-Serif" font-size="10.00">mom_main</text>
</a>
</g>
</g>
<!-- Node8&#45;&gt;Node9 -->
<g id="edge3" class="edge"><title>Node8&#45;&gt;Node9</title>
<path fill="none" stroke="midnightblue" d="M81.7034,-64C72.7624,-64 63.8859,-64 56.0379,-64"/>
<polygon fill="midnightblue" stroke="midnightblue" points="81.7742,-67.5001 91.7742,-64 81.7742,-60.5001 81.7742,-67.5001"/>
</g>
<!-- Node10&#45;&gt;Node8 -->
<g id="edge5" class="edge"><title>Node10&#45;&gt;Node8</title>
<path fill="none" stroke="midnightblue" d="M219.12,-64C208.111,-64 196.838,-64 186.379,-64"/>
<polygon fill="midnightblue" stroke="midnightblue" points="219.124,-67.5001 229.124,-64 219.124,-60.5001 219.124,-67.5001"/>
</g>
<!-- Node11&#45;&gt;Node8 -->
<g id="edge7" class="edge"><title>Node11&#45;&gt;Node8</title>
<path fill="none" stroke="midnightblue" d="M228.708,-33.3896C213.922,-38.4916 198.043,-43.9711 183.863,-48.8641"/>
<polygon fill="midnightblue" stroke="midnightblue" points="229.925,-36.672 238.237,-30.1014 227.642,-30.0549 229.925,-36.672"/>
</g>
</g>
</svg>
