<?xml version="1.0" encoding="UTF-8" standalone="no"?>
<!DOCTYPE svg PUBLIC "-//W3C//DTD SVG 1.1//EN"
 "http://www.w3.org/Graphics/SVG/1.1/DTD/svg11.dtd">
<!-- Generated by graphviz version 2.30.1 (20170916.1124)
 -->
<!-- Title: mom_bulk_mixed_layer::bulkmixedlayer Pages: 1 -->
<svg width="568pt" height="644pt"
 viewBox="0.00 0.00 568.00 644.00" xmlns="http://www.w3.org/2000/svg" xmlns:xlink="http://www.w3.org/1999/xlink">
<g id="graph0" class="graph" transform="scale(1 1) rotate(0) translate(4 640)">
<title>mom_bulk_mixed_layer::bulkmixedlayer</title>
<polygon fill="white" stroke="white" points="-4,5 -4,-640 565,-640 565,5 -4,5"/>
<!-- Node0 -->
<g id="node1" class="node"><title>Node0</title>
<g id="a_node1"><a xlink:title=" ">
<polygon fill="#bfbfbf" stroke="black" points="0.5,-308 0.5,-338 101.5,-338 101.5,-308 0.5,-308"/>
<text text-anchor="start" x="8.5" y="-326" font-family="Helvetica,sans-Serif" font-size="10.00">mom_bulk_mixed_layer</text>
<text text-anchor="middle" x="51" y="-315" font-family="Helvetica,sans-Serif" font-size="10.00">::bulkmixedlayer</text>
</a>
</g>
</g>
<!-- Node1 -->
<g id="node2" class="node"><title>Node1</title>
<g id="a_node2"><a xlink:href="namespacemom__shortwave__abs.html#a977474b56b68f4db0d6b0dc604755e6c" target="_top" xlink:title="Apply shortwave heating below surface boundary layer.">
<polygon fill="white" stroke="black" points="159,-606 159,-636 257,-636 257,-606 159,-606"/>
<text text-anchor="start" x="167" y="-624" font-family="Helvetica,sans-Serif" font-size="10.00">mom_shortwave_abs::</text>
<text text-anchor="middle" x="208" y="-613" font-family="Helvetica,sans-Serif" font-size="10.00">absorbremainingsw</text>
</a>
</g>
</g>
<!-- Node0&#45;&gt;Node1 -->
<g id="edge1" class="edge"><title>Node0&#45;&gt;Node1</title>
<path fill="none" stroke="midnightblue" d="M52.3002,-338.001C54.0174,-383.283 65.2774,-520.124 138,-596 141.403,-599.55 145.347,-602.598 149.594,-605.214"/>
<polygon fill="midnightblue" stroke="midnightblue" points="148.179,-608.425 158.656,-610.001 151.449,-602.236 148.179,-608.425"/>
</g>
<!-- Node2 -->
<g id="node3" class="node"><title>Node2</title>
<g id="a_node3"><a xlink:href="namespacemom__eos.html#a204529f8434a0322314e6ce2a9762436" target="_top" xlink:title="Calls the appropriate subroutine to calculate density derivatives for 1&#45;D array inputs.">
<polygon fill="white" stroke="black" points="164.5,-137 164.5,-167 251.5,-167 251.5,-137 164.5,-137"/>
<text text-anchor="start" x="172.5" y="-155" font-family="Helvetica,sans-Serif" font-size="10.00">mom_eos::calculate</text>
<text text-anchor="middle" x="208" y="-144" font-family="Helvetica,sans-Serif" font-size="10.00">_density_derivs</text>
</a>
</g>
</g>
<!-- Node0&#45;&gt;Node2 -->
<g id="edge2" class="edge"><title>Node0&#45;&gt;Node2</title>
<path fill="none" stroke="midnightblue" d="M56.8928,-307.72C67.1499,-278.064 93.6912,-212.428 138,-176 143.015,-171.877 148.783,-168.443 154.803,-165.588"/>
<polygon fill="midnightblue" stroke="midnightblue" points="156.53,-168.659 164.397,-161.561 153.821,-162.204 156.53,-168.659"/>
</g>
<!-- Node5 -->
<g id="node6" class="node"><title>Node5</title>
<g id="a_node6"><a xlink:href="namespacemom__bulk__mixed__layer.html#ac898a46c7996492a4cd3ee45ebfd1b2e" target="_top" xlink:title=" ">
<polygon fill="white" stroke="black" points="157.5,-508 157.5,-538 258.5,-538 258.5,-508 157.5,-508"/>
<text text-anchor="start" x="165.5" y="-526" font-family="Helvetica,sans-Serif" font-size="10.00">mom_bulk_mixed_layer</text>
<text text-anchor="middle" x="208" y="-515" font-family="Helvetica,sans-Serif" font-size="10.00">::convective_adjustment</text>
</a>
</g>
</g>
<!-- Node0&#45;&gt;Node5 -->
<g id="edge5" class="edge"><title>Node0&#45;&gt;Node5</title>
<path fill="none" stroke="midnightblue" d="M55.3694,-338.223C63.5741,-371.824 87.7111,-452.921 138,-498 141.149,-500.822 144.641,-503.333 148.334,-505.566"/>
<polygon fill="midnightblue" stroke="midnightblue" points="146.774,-508.7 157.25,-510.286 150.049,-502.514 146.774,-508.7"/>
</g>
<!-- Node6 -->
<g id="node7" class="node"><title>Node6</title>
<g id="a_node7"><a xlink:href="namespacemom__diag__mediator.html#a833421744c815eb432a645bd984a5c86" target="_top" xlink:title="Build/update vertical grids for diagnostic remapping.">
<polygon fill="white" stroke="black" points="153,-459 153,-489 263,-489 263,-459 153,-459"/>
<text text-anchor="start" x="161" y="-477" font-family="Helvetica,sans-Serif" font-size="10.00">mom_diag_mediator::</text>
<text text-anchor="middle" x="208" y="-466" font-family="Helvetica,sans-Serif" font-size="10.00">diag_update_remap_grids</text>
</a>
</g>
</g>
<!-- Node0&#45;&gt;Node6 -->
<g id="edge6" class="edge"><title>Node0&#45;&gt;Node6</title>
<path fill="none" stroke="midnightblue" d="M58.4613,-338.07C70.4221,-364.263 98.4484,-418.32 138,-449 140.312,-450.794 142.765,-452.467 145.315,-454.026"/>
<polygon fill="midnightblue" stroke="midnightblue" points="143.834,-457.205 154.292,-458.903 147.175,-451.054 143.834,-457.205"/>
</g>
<!-- Node7 -->
<g id="node8" class="node"><title>Node7</title>
<g id="a_node8"><a xlink:href="namespacemom__domains.html#ac90ecdd1f8397352dfa996ae7198b0ef" target="_top" xlink:title=" ">
<polygon fill="white" stroke="black" points="143.5,-420.5 143.5,-439.5 272.5,-439.5 272.5,-420.5 143.5,-420.5"/>
<text text-anchor="middle" x="208" y="-427.5" font-family="Helvetica,sans-Serif" font-size="10.00">mom_domains::do_group_pass</text>
</a>
</g>
</g>
<!-- Node0&#45;&gt;Node7 -->
<g id="edge7" class="edge"><title>Node0&#45;&gt;Node7</title>
<path fill="none" stroke="midnightblue" d="M64.1499,-338.229C79.5554,-356.627 107.772,-387.418 138,-406 144.99,-410.297 152.854,-413.955 160.703,-417.023"/>
<polygon fill="midnightblue" stroke="midnightblue" points="159.617,-420.352 170.211,-420.475 162.006,-413.772 159.617,-420.352"/>
</g>
<!-- Node8 -->
<g id="node9" class="node"><title>Node8</title>
<g id="a_node9"><a xlink:href="namespacemom__forcing__type.html#ab67e7c2e99099bcf22d12885f349e1e4" target="_top" xlink:title="This subroutine extracts fluxes from the surface fluxes type. It works on a j&#45;row for optimization pu...">
<polygon fill="white" stroke="black" points="138,-98.5 138,-117.5 278,-117.5 278,-98.5 138,-98.5"/>
<text text-anchor="middle" x="208" y="-105.5" font-family="Helvetica,sans-Serif" font-size="10.00">mom_forcing_type::extractfluxes1d</text>
</a>
</g>
</g>
<!-- Node0&#45;&gt;Node8 -->
<g id="edge8" class="edge"><title>Node0&#45;&gt;Node8</title>
<path fill="none" stroke="midnightblue" d="M54.1505,-307.892C60.1964,-271.14 80.8019,-176.463 138,-127 139.974,-125.293 142.088,-123.739 144.306,-122.323"/>
<polygon fill="midnightblue" stroke="midnightblue" points="146.128,-125.317 153.302,-117.52 142.832,-119.142 146.128,-125.317"/>
</g>
<!-- Node9 -->
<g id="node10" class="node"><title>Node9</title>
<g id="a_node10"><a xlink:href="namespacemom__bulk__mixed__layer.html#a665aff6a1571290883752364eb5aa129" target="_top" xlink:title=" ">
<polygon fill="white" stroke="black" points="157.5,-333 157.5,-363 258.5,-363 258.5,-333 157.5,-333"/>
<text text-anchor="start" x="165.5" y="-351" font-family="Helvetica,sans-Serif" font-size="10.00">mom_bulk_mixed_layer</text>
<text text-anchor="middle" x="208" y="-340" font-family="Helvetica,sans-Serif" font-size="10.00">::find_starting_tke</text>
</a>
</g>
</g>
<!-- Node0&#45;&gt;Node9 -->
<g id="edge10" class="edge"><title>Node0&#45;&gt;Node9</title>
<path fill="none" stroke="midnightblue" d="M101.896,-331.048C116.349,-333.379 132.275,-335.948 147.265,-338.365"/>
<polygon fill="midnightblue" stroke="midnightblue" points="147.033,-341.873 157.463,-340.01 148.147,-334.962 147.033,-341.873"/>
</g>
<!-- Node10 -->
<g id="node11" class="node"><title>Node10</title>
<g id="a_node11"><a xlink:href="namespacemom__bulk__mixed__layer.html#a18320524267554e0417f02af24ede6c3" target="_top" xlink:title=" ">
<polygon fill="white" stroke="black" points="154,-557 154,-587 262,-587 262,-557 154,-557"/>
<text text-anchor="start" x="162" y="-575" font-family="Helvetica,sans-Serif" font-size="10.00">mom_bulk_mixed_layer</text>
<text text-anchor="middle" x="208" y="-564" font-family="Helvetica,sans-Serif" font-size="10.00">::mechanical_entrainment</text>
</a>
</g>
</g>
<!-- Node0&#45;&gt;Node10 -->
<g id="edge11" class="edge"><title>Node0&#45;&gt;Node10</title>
<path fill="none" stroke="midnightblue" d="M53.5158,-338.128C58.2979,-377.952 76.6,-486.754 138,-547 140.132,-549.091 142.451,-551.01 144.906,-552.768"/>
<polygon fill="midnightblue" stroke="midnightblue" points="143.346,-555.917 153.702,-558.156 147.002,-549.948 143.346,-555.917"/>
</g>
<!-- Node12 -->
<g id="node13" class="node"><title>Node12</title>
<g id="a_node13"><a xlink:href="namespacemom__bulk__mixed__layer.html#a071010a461d5ae9440b063aadf4e2f88" target="_top" xlink:title=" ">
<polygon fill="white" stroke="black" points="157.5,-235 157.5,-265 258.5,-265 258.5,-235 157.5,-235"/>
<text text-anchor="start" x="165.5" y="-253" font-family="Helvetica,sans-Serif" font-size="10.00">mom_bulk_mixed_layer</text>
<text text-anchor="middle" x="208" y="-242" font-family="Helvetica,sans-Serif" font-size="10.00">::mixedlayer_convection</text>
</a>
</g>
</g>
<!-- Node0&#45;&gt;Node12 -->
<g id="edge13" class="edge"><title>Node0&#45;&gt;Node12</title>
<path fill="none" stroke="midnightblue" d="M75.8427,-307.84C92.767,-297.474 116.252,-283.877 138,-274 142.006,-272.181 146.193,-270.414 150.438,-268.719"/>
<polygon fill="midnightblue" stroke="midnightblue" points="151.7,-271.983 159.779,-265.129 149.189,-265.449 151.7,-271.983"/>
</g>
<!-- Node13 -->
<g id="node14" class="node"><title>Node13</title>
<g id="a_node14"><a xlink:href="namespacemom__bulk__mixed__layer.html#ad9e6f68b38815279808b9fa52cfc6e65" target="_top" xlink:title=" ">
<polygon fill="white" stroke="black" points="157.5,-284 157.5,-314 258.5,-314 258.5,-284 157.5,-284"/>
<text text-anchor="start" x="165.5" y="-302" font-family="Helvetica,sans-Serif" font-size="10.00">mom_bulk_mixed_layer</text>
<text text-anchor="middle" x="208" y="-291" font-family="Helvetica,sans-Serif" font-size="10.00">::mixedlayer_detrain_1</text>
</a>
</g>
</g>
<!-- Node0&#45;&gt;Node13 -->
<g id="edge14" class="edge"><title>Node0&#45;&gt;Node13</title>
<path fill="none" stroke="midnightblue" d="M101.896,-315.274C116.349,-313.036 132.275,-310.57 147.265,-308.249"/>
<polygon fill="midnightblue" stroke="midnightblue" points="148.116,-311.659 157.463,-306.67 147.045,-304.742 148.116,-311.659"/>
</g>
<!-- Node14 -->
<g id="node15" class="node"><title>Node14</title>
<g id="a_node15"><a xlink:href="namespacemom__bulk__mixed__layer.html#a46fd0f8d6109e0d4f7e4da971f2ab663" target="_top" xlink:title=" ">
<polygon fill="white" stroke="black" points="157.5,-186 157.5,-216 258.5,-216 258.5,-186 157.5,-186"/>
<text text-anchor="start" x="165.5" y="-204" font-family="Helvetica,sans-Serif" font-size="10.00">mom_bulk_mixed_layer</text>
<text text-anchor="middle" x="208" y="-193" font-family="Helvetica,sans-Serif" font-size="10.00">::mixedlayer_detrain_2</text>
</a>
</g>
</g>
<!-- Node0&#45;&gt;Node14 -->
<g id="edge16" class="edge"><title>Node0&#45;&gt;Node14</title>
<path fill="none" stroke="midnightblue" d="M61.5389,-307.878C75.736,-286.527 104.391,-247.631 138,-225 141.13,-222.892 144.464,-220.951 147.913,-219.165"/>
<polygon fill="midnightblue" stroke="midnightblue" points="149.676,-222.204 157.248,-214.793 146.708,-215.864 149.676,-222.204"/>
</g>
<!-- Node3 -->
<g id="node4" class="node"><title>Node3</title>
<g id="a_node4"><a xlink:href="namespacemom__error__handler.html#a460cfb79a06c29fc249952c2a3710d67" target="_top" xlink:title=" ">
<polygon fill="white" stroke="black" points="325.5,-186 325.5,-216 418.5,-216 418.5,-186 325.5,-186"/>
<text text-anchor="start" x="333.5" y="-204" font-family="Helvetica,sans-Serif" font-size="10.00">mom_error_handler::</text>
<text text-anchor="middle" x="372" y="-193" font-family="Helvetica,sans-Serif" font-size="10.00">mom_error</text>
</a>
</g>
</g>
<!-- Node0&#45;&gt;Node3 -->
<g id="edge18" class="edge"><title>Node0&#45;&gt;Node3</title>
<path fill="none" stroke="midnightblue" d="M71.5413,-338.089C88.1767,-349.92 113.249,-365.444 138,-372 198.148,-387.933 224.515,-403.795 278,-372 331.617,-340.126 356.264,-265.321 365.843,-226.061"/>
<polygon fill="midnightblue" stroke="midnightblue" points="369.276,-226.75 368.108,-216.219 362.454,-225.179 369.276,-226.75"/>
</g>
<!-- Node15 -->
<g id="node16" class="node"><title>Node15</title>
<g id="a_node16"><a xlink:href="namespacemom__bulk__mixed__layer.html#a1378659bc97b52e065a7cfe44166504d" target="_top" xlink:title=" ">
<polygon fill="white" stroke="black" points="157.5,-49 157.5,-79 258.5,-79 258.5,-49 157.5,-49"/>
<text text-anchor="start" x="165.5" y="-67" font-family="Helvetica,sans-Serif" font-size="10.00">mom_bulk_mixed_layer</text>
<text text-anchor="middle" x="208" y="-56" font-family="Helvetica,sans-Serif" font-size="10.00">::resort_ml</text>
</a>
</g>
</g>
<!-- Node0&#45;&gt;Node15 -->
<g id="edge19" class="edge"><title>Node0&#45;&gt;Node15</title>
<path fill="none" stroke="midnightblue" d="M53.2369,-307.808C57.3816,-266.742 74.3494,-152.359 138,-89 141.185,-85.8301 144.801,-83.0591 148.67,-80.6373"/>
<polygon fill="midnightblue" stroke="midnightblue" points="150.344,-83.7109 157.474,-75.874 147.013,-77.5543 150.344,-83.7109"/>
</g>
<!-- Node16 -->
<g id="node17" class="node"><title>Node16</title>
<g id="a_node17"><a xlink:href="namespacemom__bulk__mixed__layer.html#ae4325155d260533b923ba910557945f3" target="_top" xlink:title=" ">
<polygon fill="white" stroke="black" points="157.5,-0 157.5,-30 258.5,-30 258.5,-0 157.5,-0"/>
<text text-anchor="start" x="165.5" y="-18" font-family="Helvetica,sans-Serif" font-size="10.00">mom_bulk_mixed_layer</text>
<text text-anchor="middle" x="208" y="-7" font-family="Helvetica,sans-Serif" font-size="10.00">::sort_ml</text>
</a>
</g>
</g>
<!-- Node0&#45;&gt;Node16 -->
<g id="edge20" class="edge"><title>Node0&#45;&gt;Node16</title>
<path fill="none" stroke="midnightblue" d="M52.0449,-307.697C53.0209,-260.846 62.3606,-117.782 138,-39 141.014,-35.8608 144.46,-33.1319 148.167,-30.7598"/>
<polygon fill="midnightblue" stroke="midnightblue" points="150.096,-33.6954 157.213,-25.8471 146.755,-27.544 150.096,-33.6954"/>
</g>
<!-- Node2&#45;&gt;Node3 -->
<g id="edge3" class="edge"><title>Node2&#45;&gt;Node3</title>
<path fill="none" stroke="midnightblue" d="M251.564,-164.874C271.148,-170.798 294.636,-177.902 315.581,-184.237"/>
<polygon fill="midnightblue" stroke="midnightblue" points="314.73,-187.636 325.315,-187.182 316.756,-180.936 314.73,-187.636"/>
</g>
<!-- Node4 -->
<g id="node5" class="node"><title>Node4</title>
<g id="a_node5"><a xlink:href="namespacemom__error__handler.html#ad5f00a53059c72fe2332d1436c80ca71" target="_top" xlink:title=" ">
<polygon fill="white" stroke="black" points="466.5,-186 466.5,-216 559.5,-216 559.5,-186 466.5,-186"/>
<text text-anchor="start" x="474.5" y="-204" font-family="Helvetica,sans-Serif" font-size="10.00">mom_error_handler::</text>
<text text-anchor="middle" x="513" y="-193" font-family="Helvetica,sans-Serif" font-size="10.00">is_root_pe</text>
</a>
</g>
</g>
<!-- Node3&#45;&gt;Node4 -->
<g id="edge4" class="edge"><title>Node3&#45;&gt;Node4</title>
<path fill="none" stroke="midnightblue" d="M418.514,-201C430.514,-201 443.602,-201 456.081,-201"/>
<polygon fill="midnightblue" stroke="midnightblue" points="456.384,-204.5 466.384,-201 456.384,-197.5 456.384,-204.5"/>
</g>
<!-- Node8&#45;&gt;Node3 -->
<g id="edge9" class="edge"><title>Node8&#45;&gt;Node3</title>
<path fill="none" stroke="midnightblue" d="M254.161,-117.607C262.317,-120.127 270.579,-123.227 278,-127 304.476,-140.463 330.583,-162.184 348.364,-178.618"/>
<polygon fill="midnightblue" stroke="midnightblue" points="346.244,-181.43 355.919,-185.749 351.049,-176.34 346.244,-181.43"/>
</g>
<!-- Node11 -->
<g id="node12" class="node"><title>Node11</title>
<g id="a_node12"><a xlink:href="namespacemom__bulk__mixed__layer.html#a98199335f3bf2b2153c35957d753b867" target="_top" xlink:title=" ">
<polygon fill="white" stroke="black" points="314,-562.5 314,-581.5 430,-581.5 430,-562.5 314,-562.5"/>
<text text-anchor="middle" x="372" y="-569.5" font-family="Helvetica,sans-Serif" font-size="10.00">mom_bulk_mixed_layer::ef4</text>
</a>
</g>
</g>
<!-- Node10&#45;&gt;Node11 -->
<g id="edge12" class="edge"><title>Node10&#45;&gt;Node11</title>
<path fill="none" stroke="midnightblue" d="M262.045,-572C275.411,-572 289.934,-572 303.89,-572"/>
<polygon fill="midnightblue" stroke="midnightblue" points="303.928,-575.5 313.928,-572 303.928,-568.5 303.928,-575.5"/>
</g>
<!-- Node13&#45;&gt;Node3 -->
<g id="edge15" class="edge"><title>Node13&#45;&gt;Node3</title>
<path fill="none" stroke="midnightblue" d="M256.65,-283.998C263.974,-281.053 271.315,-277.709 278,-274 303.526,-259.837 329.393,-238.881 347.344,-223.05"/>
<polygon fill="midnightblue" stroke="midnightblue" points="349.896,-225.462 355.005,-216.18 345.223,-220.25 349.896,-225.462"/>
</g>
<!-- Node14&#45;&gt;Node3 -->
<g id="edge17" class="edge"><title>Node14&#45;&gt;Node3</title>
<path fill="none" stroke="midnightblue" d="M258.927,-201C276.729,-201 296.891,-201 315.158,-201"/>
<polygon fill="midnightblue" stroke="midnightblue" points="315.372,-204.5 325.372,-201 315.372,-197.5 315.372,-204.5"/>
</g>
</g>
</svg>
