<?xml version="1.0" encoding="UTF-8" standalone="no"?>
<!DOCTYPE svg PUBLIC "-//W3C//DTD SVG 1.1//EN"
 "http://www.w3.org/Graphics/SVG/1.1/DTD/svg11.dtd">
<!-- Generated by graphviz version 2.30.1 (20170916.1124)
 -->
<!-- Title: mom_state_initialization::initialize_velocity_zero Pages: 1 -->
<svg width="370pt" height="87pt"
 viewBox="0.00 0.00 370.00 87.00" xmlns="http://www.w3.org/2000/svg" xmlns:xlink="http://www.w3.org/1999/xlink">
<g id="graph0" class="graph" transform="scale(1 1) rotate(0) translate(4 83)">
<title>mom_state_initialization::initialize_velocity_zero</title>
<polygon fill="white" stroke="white" points="-4,5 -4,-83 367,-83 367,5 -4,5"/>
<!-- Node131 -->
<g id="node1" class="node"><title>Node131</title>
<g id="a_node1"><a xlink:title=" ">
<polygon fill="#bfbfbf" stroke="black" points="0.5,-24 0.5,-54 101.5,-54 101.5,-24 0.5,-24"/>
<text text-anchor="start" x="8.5" y="-42" font-family="Helvetica,sans-Serif" font-size="10.00">mom_state_initialization</text>
<text text-anchor="middle" x="51" y="-31" font-family="Helvetica,sans-Serif" font-size="10.00">::initialize_velocity_zero</text>
</a>
</g>
</g>
<!-- Node132 -->
<g id="node2" class="node"><title>Node132</title>
<g id="a_node2"><a xlink:href="namespacemom__error__handler.html#a9cda07a87815f0e5594066162b4345c3" target="_top" xlink:title="Writes a message about entering a subroutine if call tree reporting is active.">
<polygon fill="white" stroke="black" points="138.5,-49 138.5,-79 231.5,-79 231.5,-49 138.5,-49"/>
<text text-anchor="start" x="146.5" y="-67" font-family="Helvetica,sans-Serif" font-size="10.00">mom_error_handler::</text>
<text text-anchor="middle" x="185" y="-56" font-family="Helvetica,sans-Serif" font-size="10.00">calltree_enter</text>
</a>
</g>
</g>
<!-- Node131&#45;&gt;Node132 -->
<g id="edge1" class="edge"><title>Node131&#45;&gt;Node132</title>
<path fill="none" stroke="midnightblue" d="M101.527,-48.3802C110.244,-50.0311 119.371,-51.7596 128.244,-53.4402"/>
<polygon fill="midnightblue" stroke="midnightblue" points="127.643,-56.8884 138.119,-55.3105 128.945,-50.0107 127.643,-56.8884"/>
</g>
<!-- Node134 -->
<g id="node4" class="node"><title>Node134</title>
<g id="a_node4"><a xlink:href="namespacemom__error__handler.html#a88ea67781e2ed9b73ab7eac8ea5e8578" target="_top" xlink:title="Writes a message about leaving a subroutine if call tree reporting is active.">
<polygon fill="white" stroke="black" points="138.5,-0 138.5,-30 231.5,-30 231.5,-0 138.5,-0"/>
<text text-anchor="start" x="146.5" y="-18" font-family="Helvetica,sans-Serif" font-size="10.00">mom_error_handler::</text>
<text text-anchor="middle" x="185" y="-7" font-family="Helvetica,sans-Serif" font-size="10.00">calltree_leave</text>
</a>
</g>
</g>
<!-- Node131&#45;&gt;Node134 -->
<g id="edge3" class="edge"><title>Node131&#45;&gt;Node134</title>
<path fill="none" stroke="midnightblue" d="M101.527,-29.995C110.244,-28.4101 119.371,-26.7508 128.244,-25.1374"/>
<polygon fill="midnightblue" stroke="midnightblue" points="128.907,-28.5744 138.119,-23.3419 127.655,-21.6873 128.907,-28.5744"/>
</g>
<!-- Node133 -->
<g id="node3" class="node"><title>Node133</title>
<g id="a_node3"><a xlink:href="namespacemom__error__handler.html#ad5f00a53059c72fe2332d1436c80ca71" target="_top" xlink:title=" ">
<polygon fill="white" stroke="black" points="268.5,-24 268.5,-54 361.5,-54 361.5,-24 268.5,-24"/>
<text text-anchor="start" x="276.5" y="-42" font-family="Helvetica,sans-Serif" font-size="10.00">mom_error_handler::</text>
<text text-anchor="middle" x="315" y="-31" font-family="Helvetica,sans-Serif" font-size="10.00">is_root_pe</text>
</a>
</g>
</g>
<!-- Node132&#45;&gt;Node133 -->
<g id="edge2" class="edge"><title>Node132&#45;&gt;Node133</title>
<path fill="none" stroke="midnightblue" d="M231.849,-55.045C240.501,-53.3552 249.636,-51.5712 258.545,-49.8311"/>
<polygon fill="midnightblue" stroke="midnightblue" points="259.327,-53.2445 268.471,-47.8924 257.985,-46.3743 259.327,-53.2445"/>
</g>
<!-- Node134&#45;&gt;Node133 -->
<g id="edge4" class="edge"><title>Node134&#45;&gt;Node133</title>
<path fill="none" stroke="midnightblue" d="M231.849,-23.5968C240.501,-25.219 249.636,-26.9317 258.545,-28.6022"/>
<polygon fill="midnightblue" stroke="midnightblue" points="257.997,-32.0603 268.471,-30.4633 259.287,-25.1802 257.997,-32.0603"/>
</g>
</g>
</svg>
