<?xml version="1.0" encoding="UTF-8" standalone="no"?>
<!DOCTYPE svg PUBLIC "-//W3C//DTD SVG 1.1//EN"
 "http://www.w3.org/Graphics/SVG/1.1/DTD/svg11.dtd">
<!-- Generated by graphviz version 2.30.1 (20170916.1124)
 -->
<!-- Title: mom_ocmip2_cfc::register_ocmip2_cfc Pages: 1 -->
<!--zoomable 128 -->
<svg id="main" version="1.1" xmlns="http://www.w3.org/2000/svg" xmlns:xlink="http://www.w3.org/1999/xlink" xml:space="preserve" onload="init(evt)">
<style type="text/css"><![CDATA[
.edge:hover path { stroke: red; }
.edge:hover polygon { stroke: red; fill: red; }
]]></style>
<script type="text/javascript"><![CDATA[
var edges = document.getElementsByTagName('g');
if (edges && edges.length) {
  for (var i=0;i<edges.length;i++) {
    if (edges[i].id.substr(0,4)=='edge') {
      edges[i].setAttribute('class','edge');
    }
  }
}
]]></script>
        <defs>
                <circle id="rim" cx="0" cy="0" r="7"/>
                <circle id="rim2" cx="0" cy="0" r="3.5"/>
                <g id="zoomPlus">
                        <use xlink:href="#rim" fill="#404040">
                                <set attributeName="fill" to="#808080" begin="zoomplus.mouseover" end="zoomplus.mouseout"/>
                        </use>
                        <path d="M-4,0h8M0,-4v8" fill="none" stroke="white" stroke-width="1.5" pointer-events="none"/>
                </g>
                <g id="zoomMin">
                        <use xlink:href="#rim" fill="#404040">
                                <set attributeName="fill" to="#808080" begin="zoomminus.mouseover" end="zoomminus.mouseout"/>
                        </use>
                        <path d="M-4,0h8" fill="none" stroke="white" stroke-width="1.5" pointer-events="none"/>
                </g>
                <g id="dirArrow">
                        <path fill="none" stroke="white" stroke-width="1.5" d="M0,-3.0v7 M-2.5,-0.5L0,-3.0L2.5,-0.5"/>
                </g>
               <g id="resetDef">
                       <use xlink:href="#rim2" fill="#404040">
                               <set attributeName="fill" to="#808080" begin="reset.mouseover" end="reset.mouseout"/>
                       </use>
               </g>
        </defs>

<script type="text/javascript">
var viewWidth = 818;
var viewHeight = 128;
var sectionId = 'dynsection-7';
</script>
<script xlink:href="svgpan.js"/>
<svg id="graph" class="graph">
<g id="viewport">
<title>mom_ocmip2_cfc::register_ocmip2_cfc</title>
<polygon fill="white" stroke="white" points="-4,5 -4,-123.631 815,-123.631 815,5 -4,5"/>
<!-- Node45 -->
<g id="node1" class="node"><title>Node45</title>
<g id="a_node1"><a xlink:title=" ">
<polygon fill="#bfbfbf" stroke="black" points="0,-45.6308 0,-75.6308 110,-75.6308 110,-45.6308 0,-45.6308"/>
<text text-anchor="start" x="8" y="-63.6308" font-family="Helvetica,sans-Serif" font-size="10.00">mom_ocmip2_cfc::register</text>
<text text-anchor="middle" x="55" y="-52.6308" font-family="Helvetica,sans-Serif" font-size="10.00">_ocmip2_cfc</text>
</a>
</g>
</g>
<!-- Node46 -->
<g id="node2" class="node"><title>Node46</title>
<g id="a_node2"><a xlink:href="namespaceatmos__ocean__fluxes__mod.html#a413981652ffe0bccccdf5ff5c4c1d526" target="_top" xlink:title=" ">
<polygon fill="white" stroke="black" points="146.5,-89.6308 146.5,-119.631 261.5,-119.631 261.5,-89.6308 146.5,-89.6308"/>
<text text-anchor="start" x="154.5" y="-107.631" font-family="Helvetica,sans-Serif" font-size="10.00">atmos_ocean_fluxes</text>
<text text-anchor="middle" x="204" y="-96.6308" font-family="Helvetica,sans-Serif" font-size="10.00">_mod::aof_set_coupler_flux</text>
</a>
</g>
</g>
<!-- Node45&#45;&gt;Node46 -->
<g id="edge1" class="edge"><title>Node45&#45;&gt;Node46</title>
<path fill="none" stroke="midnightblue" d="M106.178,-75.65C117.991,-79.186 130.701,-82.9903 142.901,-86.642"/>
<polygon fill="midnightblue" stroke="midnightblue" points="141.965,-90.0153 152.549,-89.5299 143.973,-83.3093 141.965,-90.0153"/>
</g>
<!-- Node47 -->
<g id="node3" class="node"><title>Node47</title>
<g id="a_node3"><a xlink:href="namespacemom__error__handler.html#a460cfb79a06c29fc249952c2a3710d67" target="_top" xlink:title=" ">
<polygon fill="white" stroke="black" points="586.5,-26.6308 586.5,-56.6308 679.5,-56.6308 679.5,-26.6308 586.5,-26.6308"/>
<text text-anchor="start" x="594.5" y="-44.6308" font-family="Helvetica,sans-Serif" font-size="10.00">mom_error_handler::</text>
<text text-anchor="middle" x="633" y="-33.6308" font-family="Helvetica,sans-Serif" font-size="10.00">mom_error</text>
</a>
</g>
</g>
<!-- Node45&#45;&gt;Node47 -->
<g id="edge2" class="edge"><title>Node45&#45;&gt;Node47</title>
<path fill="none" stroke="midnightblue" d="M110.189,-58.8433C219.523,-55.2368 465.514,-47.1225 576.187,-43.4718"/>
<polygon fill="midnightblue" stroke="midnightblue" points="576.587,-46.9607 586.466,-43.1328 576.356,-39.9645 576.587,-46.9607"/>
</g>
<!-- Node49 -->
<g id="node5" class="node"><title>Node49</title>
<g id="a_node5"><a xlink:href="namespacemom__io.html#a39c3ccc06bb1a6e446af2ee9010eba16" target="_top" xlink:title="Returns a vardesc type whose elements have been filled with the provided fields. The argument name is...">
<polygon fill="white" stroke="black" points="163,-13.1308 163,-32.1308 245,-32.1308 245,-13.1308 163,-13.1308"/>
<text text-anchor="middle" x="204" y="-20.1308" font-family="Helvetica,sans-Serif" font-size="10.00">mom_io::var_desc</text>
</a>
</g>
</g>
<!-- Node45&#45;&gt;Node49 -->
<g id="edge4" class="edge"><title>Node45&#45;&gt;Node49</title>
<path fill="none" stroke="midnightblue" d="M110.32,-46.589C125.338,-42.7067 141.505,-38.5276 156.064,-34.7638"/>
<polygon fill="midnightblue" stroke="midnightblue" points="157.048,-38.1247 165.854,-32.2332 155.296,-31.3474 157.048,-38.1247"/>
</g>
<!-- Node48 -->
<g id="node4" class="node"><title>Node48</title>
<g id="a_node4"><a xlink:href="namespacemom__error__handler.html#ad5f00a53059c72fe2332d1436c80ca71" target="_top" xlink:title=" ">
<polygon fill="white" stroke="black" points="716.5,-26.6308 716.5,-56.6308 809.5,-56.6308 809.5,-26.6308 716.5,-26.6308"/>
<text text-anchor="start" x="724.5" y="-44.6308" font-family="Helvetica,sans-Serif" font-size="10.00">mom_error_handler::</text>
<text text-anchor="middle" x="763" y="-33.6308" font-family="Helvetica,sans-Serif" font-size="10.00">is_root_pe</text>
</a>
</g>
</g>
<!-- Node47&#45;&gt;Node48 -->
<g id="edge3" class="edge"><title>Node47&#45;&gt;Node48</title>
<path fill="none" stroke="midnightblue" d="M679.849,-41.6308C688.408,-41.6308 697.439,-41.6308 706.258,-41.6308"/>
<polygon fill="midnightblue" stroke="midnightblue" points="706.471,-45.1309 716.471,-41.6308 706.471,-38.1309 706.471,-45.1309"/>
</g>
<!-- Node50 -->
<g id="node6" class="node"><title>Node50</title>
<g id="a_node6"><a xlink:href="namespacemom__io.html#af96b29cb8410d557e8e452b81586223b" target="_top" xlink:title="This routine modifies the named elements of a vardesc type. All arguments are optional,...">
<polygon fill="white" stroke="black" points="298.5,-13.1308 298.5,-32.1308 403.5,-32.1308 403.5,-13.1308 298.5,-13.1308"/>
<text text-anchor="middle" x="351" y="-20.1308" font-family="Helvetica,sans-Serif" font-size="10.00">mom_io::modify_vardesc</text>
</a>
</g>
</g>
<!-- Node49&#45;&gt;Node50 -->
<g id="edge5" class="edge"><title>Node49&#45;&gt;Node50</title>
<path fill="none" stroke="midnightblue" d="M245.006,-22.6308C258.423,-22.6308 273.713,-22.6308 288.393,-22.6308"/>
<polygon fill="midnightblue" stroke="midnightblue" points="288.428,-26.1309 298.428,-22.6308 288.428,-19.1309 288.428,-26.1309"/>
</g>
<!-- Node51 -->
<g id="node7" class="node"><title>Node51</title>
<g id="a_node7"><a xlink:href="namespacemom__io.html#ac4bc408e8b38dbd669842753f26ebf88" target="_top" xlink:title="Copies a string.">
<polygon fill="white" stroke="black" points="440,-13.1308 440,-32.1308 550,-32.1308 550,-13.1308 440,-13.1308"/>
<text text-anchor="middle" x="495" y="-20.1308" font-family="Helvetica,sans-Serif" font-size="10.00">mom_io::safe_string_copy</text>
</a>
</g>
</g>
<!-- Node49&#45;&gt;Node51 -->
<g id="edge8" class="edge"><title>Node49&#45;&gt;Node51</title>
<path fill="none" stroke="midnightblue" d="M242.743,-13.1212C259.541,-9.35623 279.637,-5.48743 298,-3.63079 344.872,1.10828 357.144,1.26125 404,-3.63079 418.315,-5.12531 433.705,-7.92239 447.639,-10.9197"/>
<polygon fill="midnightblue" stroke="midnightblue" points="446.969,-14.3562 457.492,-13.1218 448.496,-7.52479 446.969,-14.3562"/>
</g>
<!-- Node50&#45;&gt;Node51 -->
<g id="edge6" class="edge"><title>Node50&#45;&gt;Node51</title>
<path fill="none" stroke="midnightblue" d="M403.667,-22.6308C412.102,-22.6308 420.932,-22.6308 429.628,-22.6308"/>
<polygon fill="midnightblue" stroke="midnightblue" points="429.743,-26.1309 439.743,-22.6308 429.743,-19.1309 429.743,-26.1309"/>
</g>
<!-- Node51&#45;&gt;Node47 -->
<g id="edge7" class="edge"><title>Node51&#45;&gt;Node47</title>
<path fill="none" stroke="midnightblue" d="M550.142,-30.1947C558.767,-31.3997 567.702,-32.648 576.361,-33.8577"/>
<polygon fill="midnightblue" stroke="midnightblue" points="575.976,-37.3378 586.364,-35.2551 576.944,-30.4051 575.976,-37.3378"/>
</g>
</g>
</svg>
        <g id="navigator" transform="translate(0 0)" fill="#404254">
                <rect fill="#f2f5e9" fill-opacity="0.5" stroke="#606060" stroke-width=".5" x="0" y="0" width="60" height="60"/>
                <use id="zoomplus" xlink:href="#zoomPlus" x="17" y="9" onmousedown="handleZoom(evt,'in')"/>
                <use id="zoomminus" xlink:href="#zoomMin" x="42" y="9" onmousedown="handleZoom(evt,'out')"/>
                <use id="reset" xlink:href="#resetDef" x="30" y="36" onmousedown="handleReset()"/>
                <g id="arrowUp" xlink:href="#dirArrow" transform="translate(30 24)" onmousedown="handlePan(0,-1)">
                  <use xlink:href="#rim" fill="#404040">
                        <set attributeName="fill" to="#808080" begin="arrowUp.mouseover" end="arrowUp.mouseout"/>
                  </use>
                  <path fill="none" stroke="white" stroke-width="1.5" d="M0,-3.0v7 M-2.5,-0.5L0,-3.0L2.5,-0.5"/>
                </g>
                <g id="arrowRight" xlink:href="#dirArrow" transform="rotate(90) translate(36 -43)" onmousedown="handlePan(1,0)">
                  <use xlink:href="#rim" fill="#404040">
                        <set attributeName="fill" to="#808080" begin="arrowRight.mouseover" end="arrowRight.mouseout"/>
                  </use>
                  <path fill="none" stroke="white" stroke-width="1.5" d="M0,-3.0v7 M-2.5,-0.5L0,-3.0L2.5,-0.5"/>
                </g>
                <g id="arrowDown" xlink:href="#dirArrow" transform="rotate(180) translate(-30 -48)" onmousedown="handlePan(0,1)">
                  <use xlink:href="#rim" fill="#404040">
                        <set attributeName="fill" to="#808080" begin="arrowDown.mouseover" end="arrowDown.mouseout"/>
                  </use>
                  <path fill="none" stroke="white" stroke-width="1.5" d="M0,-3.0v7 M-2.5,-0.5L0,-3.0L2.5,-0.5"/>
                </g>
                <g id="arrowLeft" xlink:href="#dirArrow" transform="rotate(270) translate(-36 17)" onmousedown="handlePan(-1,0)">
                  <use xlink:href="#rim" fill="#404040">
                        <set attributeName="fill" to="#808080" begin="arrowLeft.mouseover" end="arrowLeft.mouseout"/>
                  </use>
                  <path fill="none" stroke="white" stroke-width="1.5" d="M0,-3.0v7 M-2.5,-0.5L0,-3.0L2.5,-0.5"/>
                </g>
        </g>
        <svg viewBox="0 0 15 15" width="100%" height="30px" preserveAspectRatio="xMaxYMin meet">
         <g id="arrow_out" transform="scale(0.3 0.3)">
          <a xlink:href="namespacemom__ocmip2__cfc_ac04494ce35222c8583a7ee7589e1cf13_cgraph_org.svg" target="_base">
           <rect id="button" ry="5" rx="5" y="6" x="6" height="38" width="38"
                fill="#f2f5e9" fill-opacity="0.5" stroke="#606060" stroke-width="1.0"/>
           <path id="arrow"
             d="M 11.500037,31.436501 C 11.940474,20.09759 22.043105,11.32322 32.158766,21.979434 L 37.068811,17.246167 C 37.068811,17.246167 37.088388,32 37.088388,32 L 22.160133,31.978069 C 22.160133,31.978069 26.997745,27.140456 26.997745,27.140456 C 18.528582,18.264221 13.291696,25.230495 11.500037,31.436501 z"
             style="fill:#404040;"/>
          </a>
         </g>
        </svg>
</svg>
