<?xml version="1.0" encoding="UTF-8" standalone="no"?>
<!DOCTYPE svg PUBLIC "-//W3C//DTD SVG 1.1//EN"
 "http://www.w3.org/Graphics/SVG/1.1/DTD/svg11.dtd">
<!-- Generated by graphviz version 2.30.1 (20170916.1124)
 -->
<!-- Title: mom_diagnostics::calculate_diagnostic_fields Pages: 1 -->
<svg width="1132pt" height="1328pt"
 viewBox="0.00 0.00 1132.00 1328.00" xmlns="http://www.w3.org/2000/svg" xmlns:xlink="http://www.w3.org/1999/xlink">
<g id="graph0" class="graph" transform="scale(1 1) rotate(0) translate(4 1324)">
<title>mom_diagnostics::calculate_diagnostic_fields</title>
<polygon fill="white" stroke="white" points="-4,5 -4,-1324 1129,-1324 1129,5 -4,5"/>
<!-- Node3 -->
<g id="node1" class="node"><title>Node3</title>
<g id="a_node1"><a xlink:title=" ">
<polygon fill="#bfbfbf" stroke="black" points="0.5,-1094 0.5,-1124 113.5,-1124 113.5,-1094 0.5,-1094"/>
<text text-anchor="start" x="8.5" y="-1112" font-family="Helvetica,sans-Serif" font-size="10.00">mom_diagnostics::calculate</text>
<text text-anchor="middle" x="57" y="-1101" font-family="Helvetica,sans-Serif" font-size="10.00">_diagnostic_fields</text>
</a>
</g>
</g>
<!-- Node4 -->
<g id="node2" class="node"><title>Node4</title>
<g id="a_node2"><a xlink:href="namespacemom__diagnostics.html#ad69737c75e3f4a36546c8437fb39b099" target="_top" xlink:title=" ">
<polygon fill="white" stroke="black" points="150.5,-1290 150.5,-1320 263.5,-1320 263.5,-1290 150.5,-1290"/>
<text text-anchor="start" x="158.5" y="-1308" font-family="Helvetica,sans-Serif" font-size="10.00">mom_diagnostics::calculate</text>
<text text-anchor="middle" x="207" y="-1297" font-family="Helvetica,sans-Serif" font-size="10.00">_derivs</text>
</a>
</g>
</g>
<!-- Node3&#45;&gt;Node4 -->
<g id="edge1" class="edge"><title>Node3&#45;&gt;Node4</title>
<path fill="none" stroke="midnightblue" d="M62.4964,-1124.36C72.8048,-1157.12 101.094,-1234.57 150,-1280 151.648,-1281.53 153.405,-1282.98 155.243,-1284.35"/>
<polygon fill="midnightblue" stroke="midnightblue" points="153.428,-1287.34 163.721,-1289.85 157.24,-1281.47 153.428,-1287.34"/>
</g>
<!-- Node5 -->
<g id="node3" class="node"><title>Node5</title>
<g id="a_node3"><a xlink:href="namespacemom__diagnostics.html#abfa7f679d840df58e06fa831af32c090" target="_top" xlink:title=" ">
<polygon fill="white" stroke="black" points="150.5,-1241 150.5,-1271 263.5,-1271 263.5,-1241 150.5,-1241"/>
<text text-anchor="start" x="158.5" y="-1259" font-family="Helvetica,sans-Serif" font-size="10.00">mom_diagnostics::calculate</text>
<text text-anchor="middle" x="207" y="-1248" font-family="Helvetica,sans-Serif" font-size="10.00">_energy_diagnostics</text>
</a>
</g>
</g>
<!-- Node3&#45;&gt;Node5 -->
<g id="edge2" class="edge"><title>Node3&#45;&gt;Node5</title>
<path fill="none" stroke="midnightblue" d="M65.9888,-1124.08C79.9877,-1149.25 111.187,-1200.11 150,-1231 152.041,-1232.62 154.204,-1234.17 156.447,-1235.63"/>
<polygon fill="midnightblue" stroke="midnightblue" points="155.009,-1238.84 165.409,-1240.86 158.54,-1232.8 155.009,-1238.84"/>
</g>
<!-- Node6 -->
<g id="node4" class="node"><title>Node6</title>
<g id="a_node4"><a xlink:href="namespacemom__diagnostics.html#a0b6f33e7b575b5f685f781030b301876" target="_top" xlink:title=" ">
<polygon fill="white" stroke="black" points="150.5,-1192 150.5,-1222 263.5,-1222 263.5,-1192 150.5,-1192"/>
<text text-anchor="start" x="158.5" y="-1210" font-family="Helvetica,sans-Serif" font-size="10.00">mom_diagnostics::calculate</text>
<text text-anchor="middle" x="207" y="-1199" font-family="Helvetica,sans-Serif" font-size="10.00">_vertical_integrals</text>
</a>
</g>
</g>
<!-- Node3&#45;&gt;Node6 -->
<g id="edge3" class="edge"><title>Node3&#45;&gt;Node6</title>
<path fill="none" stroke="midnightblue" d="M74.3531,-1124.08C92.0572,-1139.88 121.585,-1164.76 150,-1182 153.004,-1183.82 156.164,-1185.59 159.39,-1187.29"/>
<polygon fill="midnightblue" stroke="midnightblue" points="158.07,-1190.54 168.581,-1191.87 161.194,-1184.28 158.07,-1190.54"/>
</g>
<!-- Node11 -->
<g id="node9" class="node"><title>Node11</title>
<g id="a_node9"><a xlink:href="namespacemom__diagnostics.html#ab43b50cd32dfe693c6ce575c279988fb" target="_top" xlink:title=" ">
<polygon fill="white" stroke="black" points="159.5,-1143 159.5,-1173 254.5,-1173 254.5,-1143 159.5,-1143"/>
<text text-anchor="start" x="167.5" y="-1161" font-family="Helvetica,sans-Serif" font-size="10.00">mom_diagnostics::find</text>
<text text-anchor="middle" x="207" y="-1150" font-family="Helvetica,sans-Serif" font-size="10.00">_weights</text>
</a>
</g>
</g>
<!-- Node3&#45;&gt;Node11 -->
<g id="edge8" class="edge"><title>Node3&#45;&gt;Node11</title>
<path fill="none" stroke="midnightblue" d="M103.613,-1124.1C118.594,-1129.06 135.405,-1134.63 151.007,-1139.79"/>
<polygon fill="midnightblue" stroke="midnightblue" points="149.945,-1143.13 160.538,-1142.95 152.145,-1136.48 149.945,-1143.13"/>
</g>
<!-- Node12 -->
<g id="node10" class="node"><title>Node12</title>
<g id="a_node10"><a xlink:href="namespacemom__spatial__means.html#aa49abab62973a263d6f5a1c776f62a11" target="_top" xlink:title=" ">
<polygon fill="white" stroke="black" points="159.5,-1094 159.5,-1124 254.5,-1124 254.5,-1094 159.5,-1094"/>
<text text-anchor="start" x="167.5" y="-1112" font-family="Helvetica,sans-Serif" font-size="10.00">mom_spatial_means::</text>
<text text-anchor="middle" x="207" y="-1101" font-family="Helvetica,sans-Serif" font-size="10.00">global_area_mean</text>
</a>
</g>
</g>
<!-- Node3&#45;&gt;Node12 -->
<g id="edge9" class="edge"><title>Node3&#45;&gt;Node12</title>
<path fill="none" stroke="midnightblue" d="M113.531,-1109C125.204,-1109 137.532,-1109 149.248,-1109"/>
<polygon fill="midnightblue" stroke="midnightblue" points="149.356,-1112.5 159.356,-1109 149.356,-1105.5 149.356,-1112.5"/>
</g>
<!-- Node13 -->
<g id="node11" class="node"><title>Node13</title>
<g id="a_node11"><a xlink:href="namespacemom__spatial__means.html#a01b9674f6e170b03666cb20a351c4096" target="_top" xlink:title=" ">
<polygon fill="white" stroke="black" points="159.5,-1045 159.5,-1075 254.5,-1075 254.5,-1045 159.5,-1045"/>
<text text-anchor="start" x="167.5" y="-1063" font-family="Helvetica,sans-Serif" font-size="10.00">mom_spatial_means::</text>
<text text-anchor="middle" x="207" y="-1052" font-family="Helvetica,sans-Serif" font-size="10.00">global_layer_mean</text>
</a>
</g>
</g>
<!-- Node3&#45;&gt;Node13 -->
<g id="edge10" class="edge"><title>Node3&#45;&gt;Node13</title>
<path fill="none" stroke="midnightblue" d="M103.613,-1093.9C118.594,-1088.94 135.405,-1083.37 151.007,-1078.21"/>
<polygon fill="midnightblue" stroke="midnightblue" points="152.145,-1081.52 160.538,-1075.05 149.945,-1074.87 152.145,-1081.52"/>
</g>
<!-- Node14 -->
<g id="node12" class="node"><title>Node14</title>
<g id="a_node12"><a xlink:href="namespacemom__spatial__means.html#a3bc8ef486b8672d21fc91f2f59d4c301" target="_top" xlink:title=" ">
<polygon fill="white" stroke="black" points="159.5,-996 159.5,-1026 254.5,-1026 254.5,-996 159.5,-996"/>
<text text-anchor="start" x="167.5" y="-1014" font-family="Helvetica,sans-Serif" font-size="10.00">mom_spatial_means::</text>
<text text-anchor="middle" x="207" y="-1003" font-family="Helvetica,sans-Serif" font-size="10.00">global_volume_mean</text>
</a>
</g>
</g>
<!-- Node3&#45;&gt;Node14 -->
<g id="edge11" class="edge"><title>Node3&#45;&gt;Node14</title>
<path fill="none" stroke="midnightblue" d="M73.9416,-1093.91C91.5335,-1077.82 121.187,-1052.32 150,-1035 152.591,-1033.44 155.301,-1031.93 158.072,-1030.48"/>
<polygon fill="midnightblue" stroke="midnightblue" points="159.635,-1033.61 167.055,-1026.05 156.538,-1027.34 159.635,-1033.61"/>
</g>
<!-- Node8 -->
<g id="node6" class="node"><title>Node8</title>
<g id="a_node6"><a xlink:href="namespacemom__error__handler.html#a460cfb79a06c29fc249952c2a3710d67" target="_top" xlink:title=" ">
<polygon fill="white" stroke="black" points="900.5,-794 900.5,-824 993.5,-824 993.5,-794 900.5,-794"/>
<text text-anchor="start" x="908.5" y="-812" font-family="Helvetica,sans-Serif" font-size="10.00">mom_error_handler::</text>
<text text-anchor="middle" x="947" y="-801" font-family="Helvetica,sans-Serif" font-size="10.00">mom_error</text>
</a>
</g>
</g>
<!-- Node3&#45;&gt;Node8 -->
<g id="edge12" class="edge"><title>Node3&#45;&gt;Node8</title>
<path fill="none" stroke="midnightblue" d="M64.3727,-1093.62C76.5173,-1066.5 105.772,-1010.72 150,-986 231.419,-940.497 265.728,-967 359,-967 359,-967 359,-967 658,-967 753.741,-967 783.798,-956.288 864,-904 892.426,-885.467 916.616,-854.321 931.202,-832.769"/>
<polygon fill="midnightblue" stroke="midnightblue" points="934.277,-834.463 936.849,-824.185 928.429,-830.615 934.277,-834.463"/>
</g>
<!-- Node15 -->
<g id="node13" class="node"><title>Node15</title>
<g id="a_node13"><a xlink:href="namespacemom__wave__speed.html#a72302e356c47c5055ba0b1a8714c772a" target="_top" xlink:title="Calculates the wave speed of the first baroclinic mode.">
<polygon fill="white" stroke="black" points="153.5,-870 153.5,-900 260.5,-900 260.5,-870 153.5,-870"/>
<text text-anchor="start" x="161.5" y="-888" font-family="Helvetica,sans-Serif" font-size="10.00">mom_wave_speed::wave</text>
<text text-anchor="middle" x="207" y="-877" font-family="Helvetica,sans-Serif" font-size="10.00">_speed</text>
</a>
</g>
</g>
<!-- Node3&#45;&gt;Node15 -->
<g id="edge13" class="edge"><title>Node3&#45;&gt;Node15</title>
<path fill="none" stroke="midnightblue" d="M65.8824,-1093.9C80.9363,-1065.48 115.373,-1002.45 150,-953 160.938,-937.38 174.506,-920.844 185.547,-907.99"/>
<polygon fill="midnightblue" stroke="midnightblue" points="188.467,-909.966 192.385,-900.122 183.183,-905.374 188.467,-909.966"/>
</g>
<!-- Node7 -->
<g id="node5" class="node"><title>Node7</title>
<g id="a_node5"><a xlink:href="namespacemom__eos.html#a1def0e6b257a12105457a50c92da2487" target="_top" xlink:title="This subroutine calculates analytical and nearly&#45;analytical integrals of pressure anomalies across la...">
<polygon fill="white" stroke="black" points="306.5,-1157.5 306.5,-1176.5 413.5,-1176.5 413.5,-1157.5 306.5,-1157.5"/>
<text text-anchor="middle" x="360" y="-1164.5" font-family="Helvetica,sans-Serif" font-size="10.00">mom_eos::int_density_dz</text>
</a>
</g>
</g>
<!-- Node6&#45;&gt;Node7 -->
<g id="edge4" class="edge"><title>Node6&#45;&gt;Node7</title>
<path fill="none" stroke="midnightblue" d="M263.798,-1192.22C280.062,-1187.91 297.638,-1183.25 313.208,-1179.13"/>
<polygon fill="midnightblue" stroke="midnightblue" points="314.346,-1182.45 323.116,-1176.51 312.554,-1175.68 314.346,-1182.45"/>
</g>
<!-- Node7&#45;&gt;Node8 -->
<g id="edge5" class="edge"><title>Node7&#45;&gt;Node8</title>
<path fill="none" stroke="midnightblue" d="M397.261,-1157.43C500.277,-1129.66 791.896,-1046.84 864,-981 908.244,-940.596 930.929,-871.268 940.414,-834.167"/>
<polygon fill="midnightblue" stroke="midnightblue" points="943.88,-834.726 942.845,-824.182 937.078,-833.07 943.88,-834.726"/>
</g>
<!-- Node10 -->
<g id="node8" class="node"><title>Node10</title>
<g id="a_node8"><a xlink:href="namespacemom__eos.html#a9a8d9a5df8f211fbb4c22dcccc2f7916" target="_top" xlink:title=" ">
<polygon fill="white" stroke="black" points="462,-1152 462,-1182 556,-1182 556,-1152 462,-1152"/>
<text text-anchor="start" x="470" y="-1170" font-family="Helvetica,sans-Serif" font-size="10.00">mom_eos::int_density</text>
<text text-anchor="middle" x="509" y="-1159" font-family="Helvetica,sans-Serif" font-size="10.00">_dz_generic</text>
</a>
</g>
</g>
<!-- Node7&#45;&gt;Node10 -->
<g id="edge7" class="edge"><title>Node7&#45;&gt;Node10</title>
<path fill="none" stroke="midnightblue" d="M413.655,-1167C425.884,-1167 438.952,-1167 451.345,-1167"/>
<polygon fill="midnightblue" stroke="midnightblue" points="451.562,-1170.5 461.562,-1167 451.562,-1163.5 451.562,-1170.5"/>
</g>
<!-- Node9 -->
<g id="node7" class="node"><title>Node9</title>
<g id="a_node7"><a xlink:href="namespacemom__error__handler.html#ad5f00a53059c72fe2332d1436c80ca71" target="_top" xlink:title=" ">
<polygon fill="white" stroke="black" points="1030.5,-794 1030.5,-824 1123.5,-824 1123.5,-794 1030.5,-794"/>
<text text-anchor="start" x="1038.5" y="-812" font-family="Helvetica,sans-Serif" font-size="10.00">mom_error_handler::</text>
<text text-anchor="middle" x="1077" y="-801" font-family="Helvetica,sans-Serif" font-size="10.00">is_root_pe</text>
</a>
</g>
</g>
<!-- Node8&#45;&gt;Node9 -->
<g id="edge6" class="edge"><title>Node8&#45;&gt;Node9</title>
<path fill="none" stroke="midnightblue" d="M993.849,-809C1002.41,-809 1011.44,-809 1020.26,-809"/>
<polygon fill="midnightblue" stroke="midnightblue" points="1020.47,-812.5 1030.47,-809 1020.47,-805.5 1020.47,-812.5"/>
</g>
<!-- Node15&#45;&gt;Node8 -->
<g id="edge14" class="edge"><title>Node15&#45;&gt;Node8</title>
<path fill="none" stroke="midnightblue" d="M259.741,-900.039C272.791,-903.405 286.835,-906.665 300,-909 391.444,-925.217 415.129,-929 508,-929 508,-929 508,-929 658,-929 754.005,-929 777.479,-905.606 864,-864 883.291,-854.723 903.274,-841.41 918.682,-830.206"/>
<polygon fill="midnightblue" stroke="midnightblue" points="920.787,-833.002 926.739,-824.237 916.62,-827.377 920.787,-833.002"/>
</g>
<!-- Node16 -->
<g id="node14" class="node"><title>Node16</title>
<g id="a_node14"><a xlink:href="namespacemom__eos.html#a204529f8434a0322314e6ce2a9762436" target="_top" xlink:title="Calls the appropriate subroutine to calculate density derivatives for 1&#45;D array inputs.">
<polygon fill="white" stroke="black" points="316.5,-870 316.5,-900 403.5,-900 403.5,-870 316.5,-870"/>
<text text-anchor="start" x="324.5" y="-888" font-family="Helvetica,sans-Serif" font-size="10.00">mom_eos::calculate</text>
<text text-anchor="middle" x="360" y="-877" font-family="Helvetica,sans-Serif" font-size="10.00">_density_derivs</text>
</a>
</g>
</g>
<!-- Node15&#45;&gt;Node16 -->
<g id="edge15" class="edge"><title>Node15&#45;&gt;Node16</title>
<path fill="none" stroke="midnightblue" d="M260.812,-885C275.458,-885 291.359,-885 306.014,-885"/>
<polygon fill="midnightblue" stroke="midnightblue" points="306.429,-888.5 316.429,-885 306.429,-881.5 306.429,-888.5"/>
</g>
<!-- Node17 -->
<g id="node15" class="node"><title>Node17</title>
<g id="a_node15"><a xlink:href="namespacemom__wave__speed.html#a57673d33027f1ef38330443123102301" target="_top" xlink:title="Solve a non&#45;symmetric tridiagonal problem with a scalar contribution to the leading diagonal....">
<polygon fill="white" stroke="black" points="304.5,-831.5 304.5,-850.5 415.5,-850.5 415.5,-831.5 304.5,-831.5"/>
<text text-anchor="middle" x="360" y="-838.5" font-family="Helvetica,sans-Serif" font-size="10.00">mom_wave_speed::tdma6</text>
</a>
</g>
</g>
<!-- Node15&#45;&gt;Node17 -->
<g id="edge17" class="edge"><title>Node15&#45;&gt;Node17</title>
<path fill="none" stroke="midnightblue" d="M259.543,-869.981C277.97,-864.612 298.52,-858.623 316.135,-853.49"/>
<polygon fill="midnightblue" stroke="midnightblue" points="317.508,-856.736 326.129,-850.578 315.549,-850.016 317.508,-856.736"/>
</g>
<!-- Node18 -->
<g id="node16" class="node"><title>Node18</title>
<g id="a_node16"><a xlink:href="namespacemom__remapping.html#a6d1533ffa647f3305aba055e2685b095" target="_top" xlink:title="Remaps column of values u0 on grid h0 to grid h1 assuming the top edge is aligned.">
<polygon fill="white" stroke="black" points="300,-748 300,-778 420,-778 420,-748 300,-748"/>
<text text-anchor="start" x="308" y="-766" font-family="Helvetica,sans-Serif" font-size="10.00">mom_remapping::remapping</text>
<text text-anchor="middle" x="360" y="-755" font-family="Helvetica,sans-Serif" font-size="10.00">_core_h</text>
</a>
</g>
</g>
<!-- Node15&#45;&gt;Node18 -->
<g id="edge18" class="edge"><title>Node15&#45;&gt;Node18</title>
<path fill="none" stroke="midnightblue" d="M226.819,-869.795C253.412,-848.309 302.116,-808.959 332.399,-784.492"/>
<polygon fill="midnightblue" stroke="midnightblue" points="334.839,-787.02 340.418,-778.013 330.44,-781.575 334.839,-787.02"/>
</g>
<!-- Node16&#45;&gt;Node8 -->
<g id="edge16" class="edge"><title>Node16&#45;&gt;Node8</title>
<path fill="none" stroke="midnightblue" d="M403.672,-885.068C491.161,-884.361 696.715,-878.346 864,-840 876.876,-837.048 890.447,-832.535 902.762,-827.857"/>
<polygon fill="midnightblue" stroke="midnightblue" points="904.304,-831.012 912.331,-824.098 901.744,-824.497 904.304,-831.012"/>
</g>
<!-- Node19 -->
<g id="node17" class="node"><title>Node19</title>
<g id="a_node17"><a xlink:href="namespacemom__remapping.html#a07d7276310f329f56560a1290bcb8b0a" target="_top" xlink:title="Creates polynomial reconstructions of u0 on the source grid h0.">
<polygon fill="white" stroke="black" points="460,-385 460,-415 558,-415 558,-385 460,-385"/>
<text text-anchor="start" x="468" y="-403" font-family="Helvetica,sans-Serif" font-size="10.00">mom_remapping::build</text>
<text text-anchor="middle" x="509" y="-392" font-family="Helvetica,sans-Serif" font-size="10.00">_reconstructions_1d</text>
</a>
</g>
</g>
<!-- Node18&#45;&gt;Node19 -->
<g id="edge19" class="edge"><title>Node18&#45;&gt;Node19</title>
<path fill="none" stroke="midnightblue" d="M367.129,-747.864C389.917,-691.592 469.886,-494.118 498.074,-424.51"/>
<polygon fill="midnightblue" stroke="midnightblue" points="501.335,-425.783 501.845,-415.2 494.847,-423.155 501.335,-425.783"/>
</g>
<!-- Node38 -->
<g id="node36" class="node"><title>Node38</title>
<g id="a_node36"><a xlink:href="namespacemom__remapping.html#a62666b08a892ba9e9ab5a4731a07b942" target="_top" xlink:title="Checks that edge values and reconstructions satisfy bounds.">
<polygon fill="white" stroke="black" points="458,-216 458,-246 560,-246 560,-216 458,-216"/>
<text text-anchor="start" x="466" y="-234" font-family="Helvetica,sans-Serif" font-size="10.00">mom_remapping::check</text>
<text text-anchor="middle" x="509" y="-223" font-family="Helvetica,sans-Serif" font-size="10.00">_reconstructions_1d</text>
</a>
</g>
</g>
<!-- Node18&#45;&gt;Node38 -->
<g id="edge51" class="edge"><title>Node18&#45;&gt;Node38</title>
<path fill="none" stroke="midnightblue" d="M364.136,-747.682C375.008,-695.213 412.787,-518.067 456,-375 468.8,-332.623 486.954,-284.437 498.078,-255.937"/>
<polygon fill="midnightblue" stroke="midnightblue" points="501.436,-256.962 501.836,-246.374 494.921,-254.402 501.436,-256.962"/>
</g>
<!-- Node39 -->
<g id="node37" class="node"><title>Node39</title>
<g id="a_node37"><a xlink:href="namespacemom__remapping.html#aac27eb299cd36293b458a51b60ac771f" target="_top" xlink:title="Remaps column of n0 values u0 on grid h0 to grid h1 with n1 cells by calculating the n0+n1+1 sub&#45;inte...">
<polygon fill="white" stroke="black" points="456.5,-704 456.5,-734 561.5,-734 561.5,-704 456.5,-704"/>
<text text-anchor="start" x="464.5" y="-722" font-family="Helvetica,sans-Serif" font-size="10.00">mom_remapping::remap</text>
<text text-anchor="middle" x="509" y="-711" font-family="Helvetica,sans-Serif" font-size="10.00">_via_sub_cells</text>
</a>
</g>
</g>
<!-- Node18&#45;&gt;Node39 -->
<g id="edge53" class="edge"><title>Node18&#45;&gt;Node39</title>
<path fill="none" stroke="midnightblue" d="M411.178,-747.981C422.991,-744.445 435.701,-740.641 447.901,-736.989"/>
<polygon fill="midnightblue" stroke="midnightblue" points="448.973,-740.322 457.549,-734.101 446.965,-733.615 448.973,-740.322"/>
</g>
<!-- Node41 -->
<g id="node39" class="node"><title>Node41</title>
<g id="a_node39"><a xlink:href="namespacemom__remapping.html#afe0efe65edb680f96fc5efe3d29a9217" target="_top" xlink:title="Measure totals and bounds on source grid.">
<polygon fill="white" stroke="black" points="600.5,-745 600.5,-775 713.5,-775 713.5,-745 600.5,-745"/>
<text text-anchor="start" x="608.5" y="-763" font-family="Helvetica,sans-Serif" font-size="10.00">mom_remapping::measure</text>
<text text-anchor="middle" x="657" y="-752" font-family="Helvetica,sans-Serif" font-size="10.00">_input_bounds</text>
</a>
</g>
</g>
<!-- Node18&#45;&gt;Node41 -->
<g id="edge59" class="edge"><title>Node18&#45;&gt;Node41</title>
<path fill="none" stroke="midnightblue" d="M420.343,-762.397C469.454,-761.897 539.16,-761.188 590.017,-760.671"/>
<polygon fill="midnightblue" stroke="midnightblue" points="590.283,-764.169 600.247,-760.567 590.212,-757.169 590.283,-764.169"/>
</g>
<!-- Node42 -->
<g id="node40" class="node"><title>Node42</title>
<g id="a_node40"><a xlink:href="namespacemom__remapping.html#a5453aeefe69feaff159b67f3a4bd2366" target="_top" xlink:title="Measure totals and bounds on destination grid.">
<polygon fill="white" stroke="black" points="600.5,-794 600.5,-824 713.5,-824 713.5,-794 600.5,-794"/>
<text text-anchor="start" x="608.5" y="-812" font-family="Helvetica,sans-Serif" font-size="10.00">mom_remapping::measure</text>
<text text-anchor="middle" x="657" y="-801" font-family="Helvetica,sans-Serif" font-size="10.00">_output_bounds</text>
</a>
</g>
</g>
<!-- Node18&#45;&gt;Node42 -->
<g id="edge60" class="edge"><title>Node18&#45;&gt;Node42</title>
<path fill="none" stroke="midnightblue" d="M420.343,-772.253C469.556,-779.927 539.451,-790.826 590.336,-798.761"/>
<polygon fill="midnightblue" stroke="midnightblue" points="589.827,-802.224 600.247,-800.306 590.906,-795.307 589.827,-802.224"/>
</g>
<!-- Node18&#45;&gt;Node8 -->
<g id="edge61" class="edge"><title>Node18&#45;&gt;Node8</title>
<path fill="none" stroke="midnightblue" d="M396.212,-778.102C413.935,-785.346 435.877,-793.778 456,-800 567.285,-834.409 599.675,-839.053 716,-833 775.639,-829.897 843.624,-822.297 890.121,-816.474"/>
<polygon fill="midnightblue" stroke="midnightblue" points="890.809,-819.915 900.289,-815.186 889.929,-812.97 890.809,-819.915"/>
</g>
<!-- Node20 -->
<g id="node18" class="node"><title>Node20</title>
<g id="a_node18"><a xlink:href="namespacepcm__functions.html#a273c33619766b17e1bea2f9bbc1d5e1b" target="_top" xlink:title=" ">
<polygon fill="white" stroke="black" points="613.5,-581 613.5,-611 700.5,-611 700.5,-581 613.5,-581"/>
<text text-anchor="start" x="621.5" y="-599" font-family="Helvetica,sans-Serif" font-size="10.00">pcm_functions::pcm</text>
<text text-anchor="middle" x="657" y="-588" font-family="Helvetica,sans-Serif" font-size="10.00">_reconstruction</text>
</a>
</g>
</g>
<!-- Node19&#45;&gt;Node20 -->
<g id="edge20" class="edge"><title>Node19&#45;&gt;Node20</title>
<path fill="none" stroke="midnightblue" d="M514.064,-415.407C523.465,-448.261 549.686,-525.878 598,-571 600.104,-572.965 602.386,-574.789 604.787,-576.482"/>
<polygon fill="midnightblue" stroke="midnightblue" points="602.978,-579.478 613.329,-581.74 606.648,-573.517 602.978,-579.478"/>
</g>
<!-- Node21 -->
<g id="node19" class="node"><title>Node21</title>
<g id="a_node19"><a xlink:href="namespaceplm__functions.html#abf6acfcb1bef51f0c1f8682de53782c4" target="_top" xlink:title=" ">
<polygon fill="white" stroke="black" points="615.5,-532 615.5,-562 698.5,-562 698.5,-532 615.5,-532"/>
<text text-anchor="start" x="623.5" y="-550" font-family="Helvetica,sans-Serif" font-size="10.00">plm_functions::plm</text>
<text text-anchor="middle" x="657" y="-539" font-family="Helvetica,sans-Serif" font-size="10.00">_reconstruction</text>
</a>
</g>
</g>
<!-- Node19&#45;&gt;Node21 -->
<g id="edge21" class="edge"><title>Node19&#45;&gt;Node21</title>
<path fill="none" stroke="midnightblue" d="M517.433,-415.148C530.516,-440.422 559.917,-491.427 598,-522 600.689,-524.159 603.594,-526.165 606.619,-528.023"/>
<polygon fill="midnightblue" stroke="midnightblue" points="604.944,-531.096 615.389,-532.87 608.33,-524.969 604.944,-531.096"/>
</g>
<!-- Node22 -->
<g id="node20" class="node"><title>Node22</title>
<g id="a_node20"><a xlink:href="namespaceplm__functions.html#a66dd52e70d72fb5830f9c4fb16efb2e8" target="_top" xlink:title=" ">
<polygon fill="white" stroke="black" points="604.5,-483 604.5,-513 709.5,-513 709.5,-483 604.5,-483"/>
<text text-anchor="start" x="612.5" y="-501" font-family="Helvetica,sans-Serif" font-size="10.00">plm_functions::plm</text>
<text text-anchor="middle" x="657" y="-490" font-family="Helvetica,sans-Serif" font-size="10.00">_boundary_extrapolation</text>
</a>
</g>
</g>
<!-- Node19&#45;&gt;Node22 -->
<g id="edge22" class="edge"><title>Node19&#45;&gt;Node22</title>
<path fill="none" stroke="midnightblue" d="M525.48,-415.21C542.279,-431.123 570.411,-456.095 598,-473 601.129,-474.917 604.431,-476.761 607.808,-478.517"/>
<polygon fill="midnightblue" stroke="midnightblue" points="606.333,-481.691 616.852,-482.951 609.414,-475.406 606.333,-481.691"/>
</g>
<!-- Node23 -->
<g id="node21" class="node"><title>Node23</title>
<g id="a_node21"><a xlink:href="namespaceppm__functions.html#a97e2144c7499aacd90858788f1312432" target="_top" xlink:title="Builds quadratic polynomials coefficients from cell mean and edge values.">
<polygon fill="white" stroke="black" points="612.5,-140 612.5,-170 701.5,-170 701.5,-140 612.5,-140"/>
<text text-anchor="start" x="620.5" y="-158" font-family="Helvetica,sans-Serif" font-size="10.00">ppm_functions::ppm</text>
<text text-anchor="middle" x="657" y="-147" font-family="Helvetica,sans-Serif" font-size="10.00">_reconstruction</text>
</a>
</g>
</g>
<!-- Node19&#45;&gt;Node23 -->
<g id="edge23" class="edge"><title>Node19&#45;&gt;Node23</title>
<path fill="none" stroke="midnightblue" d="M515.307,-384.714C531.891,-337.252 582.554,-194.654 598,-179 599.808,-177.167 601.777,-175.469 603.86,-173.895"/>
<polygon fill="midnightblue" stroke="midnightblue" points="605.854,-176.774 612.373,-168.423 602.069,-170.886 605.854,-176.774"/>
</g>
<!-- Node27 -->
<g id="node25" class="node"><title>Node27</title>
<g id="a_node25"><a xlink:href="namespaceppm__functions.html#aaf88d77ece3a30843c730fd2d57c517f" target="_top" xlink:title=" ">
<polygon fill="white" stroke="black" points="604.5,-385 604.5,-415 709.5,-415 709.5,-385 604.5,-385"/>
<text text-anchor="start" x="612.5" y="-403" font-family="Helvetica,sans-Serif" font-size="10.00">ppm_functions::ppm</text>
<text text-anchor="middle" x="657" y="-392" font-family="Helvetica,sans-Serif" font-size="10.00">_boundary_extrapolation</text>
</a>
</g>
</g>
<!-- Node19&#45;&gt;Node27 -->
<g id="edge27" class="edge"><title>Node19&#45;&gt;Node27</title>
<path fill="none" stroke="midnightblue" d="M558.21,-400C569.761,-400 582.251,-400 594.318,-400"/>
<polygon fill="midnightblue" stroke="midnightblue" points="594.325,-403.5 604.325,-400 594.325,-396.5 594.325,-403.5"/>
</g>
<!-- Node28 -->
<g id="node26" class="node"><title>Node28</title>
<g id="a_node26"><a xlink:href="namespaceregrid__edge__values.html#a2c2460b31b6de501eed3cb7db07a4be5" target="_top" xlink:title=" ">
<polygon fill="white" stroke="black" points="603.5,-238 603.5,-268 710.5,-268 710.5,-238 603.5,-238"/>
<text text-anchor="start" x="611.5" y="-256" font-family="Helvetica,sans-Serif" font-size="10.00">regrid_edge_values</text>
<text text-anchor="middle" x="657" y="-245" font-family="Helvetica,sans-Serif" font-size="10.00">::edge_values_implicit_h4</text>
</a>
</g>
</g>
<!-- Node19&#45;&gt;Node28 -->
<g id="edge28" class="edge"><title>Node19&#45;&gt;Node28</title>
<path fill="none" stroke="midnightblue" d="M517.352,-384.664C530.316,-359.089 559.547,-307.531 598,-277 599.6,-275.729 601.277,-274.516 603.011,-273.359"/>
<polygon fill="midnightblue" stroke="midnightblue" points="605.221,-276.119 612.063,-268.029 601.67,-270.087 605.221,-276.119"/>
</g>
<!-- Node32 -->
<g id="node30" class="node"><title>Node32</title>
<g id="a_node30"><a xlink:href="namespaceregrid__edge__slopes.html#a378dcb603968664e58d65e8ed892ec69" target="_top" xlink:title=" ">
<polygon fill="white" stroke="black" points="603.5,-434 603.5,-464 710.5,-464 710.5,-434 603.5,-434"/>
<text text-anchor="start" x="611.5" y="-452" font-family="Helvetica,sans-Serif" font-size="10.00">regrid_edge_slopes</text>
<text text-anchor="middle" x="657" y="-441" font-family="Helvetica,sans-Serif" font-size="10.00">::edge_slopes_implicit_h3</text>
</a>
</g>
</g>
<!-- Node19&#45;&gt;Node32 -->
<g id="edge33" class="edge"><title>Node19&#45;&gt;Node32</title>
<path fill="none" stroke="midnightblue" d="M554.996,-415.101C569.636,-420.015 586.046,-425.522 601.314,-430.647"/>
<polygon fill="midnightblue" stroke="midnightblue" points="600.558,-434.085 611.152,-433.948 602.786,-427.448 600.558,-434.085"/>
</g>
<!-- Node33 -->
<g id="node31" class="node"><title>Node33</title>
<g id="a_node31"><a xlink:href="namespacepqm__functions.html#ada7e1a8d9d70b5b78b5e2dfddb5ffa43" target="_top" xlink:title=" ">
<polygon fill="white" stroke="black" points="612.5,-27 612.5,-57 701.5,-57 701.5,-27 612.5,-27"/>
<text text-anchor="start" x="620.5" y="-45" font-family="Helvetica,sans-Serif" font-size="10.00">pqm_functions::pqm</text>
<text text-anchor="middle" x="657" y="-34" font-family="Helvetica,sans-Serif" font-size="10.00">_reconstruction</text>
</a>
</g>
</g>
<!-- Node19&#45;&gt;Node33 -->
<g id="edge37" class="edge"><title>Node19&#45;&gt;Node33</title>
<path fill="none" stroke="midnightblue" d="M515.787,-384.87C525.748,-358.617 546.549,-302.845 562,-255 579.767,-199.984 573.816,-182.513 598,-130 608.754,-106.648 625.176,-82.42 637.804,-65.3126"/>
<polygon fill="midnightblue" stroke="midnightblue" points="640.798,-67.1538 644.011,-57.058 635.204,-62.9466 640.798,-67.1538"/>
</g>
<!-- Node35 -->
<g id="node33" class="node"><title>Node35</title>
<g id="a_node33"><a xlink:href="namespacepqm__functions.html#ae2c3bd1b82cddbe1bbb0e93e83d93e48" target="_top" xlink:title=" ">
<polygon fill="white" stroke="black" points="598,-189 598,-219 716,-219 716,-189 598,-189"/>
<text text-anchor="start" x="606" y="-207" font-family="Helvetica,sans-Serif" font-size="10.00">pqm_functions::pqm</text>
<text text-anchor="middle" x="657" y="-196" font-family="Helvetica,sans-Serif" font-size="10.00">_boundary_extrapolation_v1</text>
</a>
</g>
</g>
<!-- Node19&#45;&gt;Node35 -->
<g id="edge41" class="edge"><title>Node19&#45;&gt;Node35</title>
<path fill="none" stroke="midnightblue" d="M513.848,-384.947C522.977,-352.088 548.938,-273.26 598,-228 599.267,-226.832 600.598,-225.716 601.981,-224.651"/>
<polygon fill="midnightblue" stroke="midnightblue" points="603.975,-227.529 610.383,-219.092 600.112,-221.691 603.975,-227.529"/>
</g>
<!-- Node36 -->
<g id="node34" class="node"><title>Node36</title>
<g id="a_node34"><a xlink:href="namespaceregrid__edge__values.html#a6c14843c556353d86f2efb4c7c74c9f5" target="_top" xlink:title=" ">
<polygon fill="white" stroke="black" points="603.5,-336 603.5,-366 710.5,-366 710.5,-336 603.5,-336"/>
<text text-anchor="start" x="611.5" y="-354" font-family="Helvetica,sans-Serif" font-size="10.00">regrid_edge_values</text>
<text text-anchor="middle" x="657" y="-343" font-family="Helvetica,sans-Serif" font-size="10.00">::edge_values_implicit_h6</text>
</a>
</g>
</g>
<!-- Node19&#45;&gt;Node36 -->
<g id="edge42" class="edge"><title>Node19&#45;&gt;Node36</title>
<path fill="none" stroke="midnightblue" d="M554.996,-384.899C569.636,-379.985 586.046,-374.478 601.314,-369.353"/>
<polygon fill="midnightblue" stroke="midnightblue" points="602.786,-372.552 611.152,-366.052 600.558,-365.915 602.786,-372.552"/>
</g>
<!-- Node37 -->
<g id="node35" class="node"><title>Node37</title>
<g id="a_node35"><a xlink:href="namespaceregrid__edge__slopes.html#a32fc906bf14cfb859703b4a1a7c46a9c" target="_top" xlink:title=" ">
<polygon fill="white" stroke="black" points="603.5,-287 603.5,-317 710.5,-317 710.5,-287 603.5,-287"/>
<text text-anchor="start" x="611.5" y="-305" font-family="Helvetica,sans-Serif" font-size="10.00">regrid_edge_slopes</text>
<text text-anchor="middle" x="657" y="-294" font-family="Helvetica,sans-Serif" font-size="10.00">::edge_slopes_implicit_h5</text>
</a>
</g>
</g>
<!-- Node19&#45;&gt;Node37 -->
<g id="edge46" class="edge"><title>Node19&#45;&gt;Node37</title>
<path fill="none" stroke="midnightblue" d="M525.086,-384.782C541.773,-368.583 570.019,-342.993 598,-326 600.489,-324.489 603.09,-323.031 605.752,-321.633"/>
<polygon fill="midnightblue" stroke="midnightblue" points="607.531,-324.659 614.97,-317.115 604.45,-318.374 607.531,-324.659"/>
</g>
<!-- Node19&#45;&gt;Node8 -->
<g id="edge50" class="edge"><title>Node19&#45;&gt;Node8</title>
<path fill="none" stroke="midnightblue" d="M511.685,-415.266C516.87,-454.904 536.18,-562.039 598,-620 688.74,-705.076 761.685,-636.266 864,-707 893.732,-727.555 918.177,-761.951 932.425,-785.049"/>
<polygon fill="midnightblue" stroke="midnightblue" points="929.578,-787.108 937.72,-793.887 935.583,-783.51 929.578,-787.108"/>
</g>
<!-- Node24 -->
<g id="node22" class="node"><title>Node24</title>
<g id="a_node22"><a xlink:href="namespaceppm__functions.html#a89920c90b84f0b241c5a6d65fe2870b9" target="_top" xlink:title="Adjusts edge values using the standard PPM limiter (Colella &amp; Woodward, JCP 1984) after first checkin...">
<polygon fill="white" stroke="black" points="763.5,-52 763.5,-82 852.5,-82 852.5,-52 763.5,-52"/>
<text text-anchor="start" x="771.5" y="-70" font-family="Helvetica,sans-Serif" font-size="10.00">ppm_functions::ppm</text>
<text text-anchor="middle" x="808" y="-59" font-family="Helvetica,sans-Serif" font-size="10.00">_limiter_standard</text>
</a>
</g>
</g>
<!-- Node23&#45;&gt;Node24 -->
<g id="edge24" class="edge"><title>Node23&#45;&gt;Node24</title>
<path fill="none" stroke="midnightblue" d="M683.614,-139.872C708.134,-125.391 745.302,-103.439 772.437,-87.4131"/>
<polygon fill="midnightblue" stroke="midnightblue" points="774.391,-90.3239 781.222,-82.2248 770.831,-84.2966 774.391,-90.3239"/>
</g>
<!-- Node25 -->
<g id="node23" class="node"><title>Node25</title>
<g id="a_node23"><a xlink:href="namespaceregrid__edge__values.html#aa204fe78ee22cae62f2b7f1bc76151a9" target="_top" xlink:title=" ">
<polygon fill="white" stroke="black" points="900.5,-0 900.5,-30 993.5,-30 993.5,-0 900.5,-0"/>
<text text-anchor="start" x="908.5" y="-18" font-family="Helvetica,sans-Serif" font-size="10.00">regrid_edge_values</text>
<text text-anchor="middle" x="947" y="-7" font-family="Helvetica,sans-Serif" font-size="10.00">::bound_edge_values</text>
</a>
</g>
</g>
<!-- Node24&#45;&gt;Node25 -->
<g id="edge25" class="edge"><title>Node24&#45;&gt;Node25</title>
<path fill="none" stroke="midnightblue" d="M848.626,-51.9594C863.678,-46.2463 881.007,-39.669 896.835,-33.6611"/>
<polygon fill="midnightblue" stroke="midnightblue" points="898.356,-36.8276 906.463,-30.0068 895.872,-30.2832 898.356,-36.8276"/>
</g>
<!-- Node26 -->
<g id="node24" class="node"><title>Node26</title>
<g id="a_node24"><a xlink:href="namespaceregrid__edge__values.html#acbdacbbf7212e538bb52a9729fc949a7" target="_top" xlink:title=" ">
<polygon fill="white" stroke="black" points="900,-49.5 900,-90.5 994,-90.5 994,-49.5 900,-49.5"/>
<text text-anchor="start" x="908" y="-78.5" font-family="Helvetica,sans-Serif" font-size="10.00">regrid_edge_values</text>
<text text-anchor="start" x="908" y="-67.5" font-family="Helvetica,sans-Serif" font-size="10.00">::check_discontinuous</text>
<text text-anchor="middle" x="947" y="-56.5" font-family="Helvetica,sans-Serif" font-size="10.00">_edge_values</text>
</a>
</g>
</g>
<!-- Node24&#45;&gt;Node26 -->
<g id="edge26" class="edge"><title>Node24&#45;&gt;Node26</title>
<path fill="none" stroke="midnightblue" d="M852.724,-67.9575C864.471,-68.2147 877.34,-68.4965 889.667,-68.7664"/>
<polygon fill="midnightblue" stroke="midnightblue" points="889.783,-72.2697 899.857,-68.9896 889.936,-65.2714 889.783,-72.2697"/>
</g>
<!-- Node29 -->
<g id="node27" class="node"><title>Node29</title>
<g id="a_node27"><a xlink:href="namespaceregrid__solvers.html#a8130a338b59de62b00f68da4204568ad" target="_top" xlink:title=" ">
<polygon fill="white" stroke="black" points="763.5,-287 763.5,-317 852.5,-317 852.5,-287 763.5,-287"/>
<text text-anchor="start" x="771.5" y="-305" font-family="Helvetica,sans-Serif" font-size="10.00">regrid_solvers::solve</text>
<text text-anchor="middle" x="808" y="-294" font-family="Helvetica,sans-Serif" font-size="10.00">_linear_system</text>
</a>
</g>
</g>
<!-- Node28&#45;&gt;Node29 -->
<g id="edge29" class="edge"><title>Node28&#45;&gt;Node29</title>
<path fill="none" stroke="midnightblue" d="M703.921,-268.101C719.57,-273.248 737.202,-279.046 753.4,-284.373"/>
<polygon fill="midnightblue" stroke="midnightblue" points="752.677,-287.82 763.27,-287.619 754.864,-281.17 752.677,-287.82"/>
</g>
<!-- Node30 -->
<g id="node28" class="node"><title>Node30</title>
<g id="a_node28"><a xlink:href="namespacepolynomial__functions.html#aed77465c5ca9937dab06fdb5f94eba39" target="_top" xlink:title=" ">
<polygon fill="white" stroke="black" points="758.5,-385 758.5,-415 857.5,-415 857.5,-385 758.5,-385"/>
<text text-anchor="start" x="766.5" y="-403" font-family="Helvetica,sans-Serif" font-size="10.00">polynomial_functions</text>
<text text-anchor="middle" x="808" y="-392" font-family="Helvetica,sans-Serif" font-size="10.00">::evaluation_polynomial</text>
</a>
</g>
</g>
<!-- Node28&#45;&gt;Node30 -->
<g id="edge31" class="edge"><title>Node28&#45;&gt;Node30</title>
<path fill="none" stroke="midnightblue" d="M704.615,-268.002C708.785,-270.564 712.678,-273.542 716,-277 748.143,-310.465 720.435,-340.989 752,-375 753.338,-376.442 754.775,-377.806 756.289,-379.097"/>
<polygon fill="midnightblue" stroke="midnightblue" points="754.248,-381.94 764.405,-384.956 758.345,-376.265 754.248,-381.94"/>
</g>
<!-- Node31 -->
<g id="node29" class="node"><title>Node31</title>
<g id="a_node29"><a xlink:href="namespaceregrid__solvers.html#a0d5c3cff8f31429b0a2c6d267e8b345d" target="_top" xlink:title=" ">
<polygon fill="white" stroke="black" points="763.5,-336 763.5,-366 852.5,-366 852.5,-336 763.5,-336"/>
<text text-anchor="start" x="771.5" y="-354" font-family="Helvetica,sans-Serif" font-size="10.00">regrid_solvers::solve</text>
<text text-anchor="middle" x="808" y="-343" font-family="Helvetica,sans-Serif" font-size="10.00">_tridiagonal_system</text>
</a>
</g>
</g>
<!-- Node28&#45;&gt;Node31 -->
<g id="edge32" class="edge"><title>Node28&#45;&gt;Node31</title>
<path fill="none" stroke="midnightblue" d="M701.896,-268.082C706.886,-270.675 711.711,-273.639 716,-277 737.269,-293.67 731.019,-308.968 752,-326 754.031,-327.649 756.188,-329.213 758.427,-330.694"/>
<polygon fill="midnightblue" stroke="midnightblue" points="756.992,-333.913 767.38,-335.997 760.56,-327.89 756.992,-333.913"/>
</g>
<!-- Node29&#45;&gt;Node8 -->
<g id="edge30" class="edge"><title>Node29&#45;&gt;Node8</title>
<path fill="none" stroke="midnightblue" d="M852.558,-315.812C856.899,-318.618 860.855,-321.979 864,-326 920.783,-398.6 940.193,-694.457 944.812,-783.516"/>
<polygon fill="midnightblue" stroke="midnightblue" points="941.33,-783.962 945.325,-793.775 948.321,-783.612 941.33,-783.962"/>
</g>
<!-- Node32&#45;&gt;Node29 -->
<g id="edge34" class="edge"><title>Node32&#45;&gt;Node29</title>
<path fill="none" stroke="midnightblue" d="M703.482,-433.877C708.082,-431.09 712.382,-427.822 716,-424 747.897,-390.301 720.178,-359.771 752,-326 753.027,-324.91 754.112,-323.867 755.246,-322.869"/>
<polygon fill="midnightblue" stroke="midnightblue" points="757.352,-325.664 763.324,-316.913 753.198,-320.03 757.352,-325.664"/>
</g>
<!-- Node32&#45;&gt;Node30 -->
<g id="edge35" class="edge"><title>Node32&#45;&gt;Node30</title>
<path fill="none" stroke="midnightblue" d="M703.921,-433.899C719.003,-428.938 735.928,-423.373 751.636,-418.207"/>
<polygon fill="midnightblue" stroke="midnightblue" points="752.825,-421.5 761.231,-415.052 750.638,-414.851 752.825,-421.5"/>
</g>
<!-- Node32&#45;&gt;Node31 -->
<g id="edge36" class="edge"><title>Node32&#45;&gt;Node31</title>
<path fill="none" stroke="midnightblue" d="M700.391,-433.91C705.912,-431.05 711.281,-427.755 716,-424 737.147,-407.175 730.891,-391.872 752,-375 753.556,-373.756 755.187,-372.564 756.873,-371.423"/>
<polygon fill="midnightblue" stroke="midnightblue" points="758.895,-374.291 765.663,-366.14 755.289,-368.291 758.895,-374.291"/>
</g>
<!-- Node34 -->
<g id="node32" class="node"><title>Node34</title>
<g id="a_node32"><a xlink:href="namespacepqm__functions.html#a0ce0d64922453de1312adec7b8746544" target="_top" xlink:title=" ">
<polygon fill="white" stroke="black" points="763.5,-3 763.5,-33 852.5,-33 852.5,-3 763.5,-3"/>
<text text-anchor="start" x="771.5" y="-21" font-family="Helvetica,sans-Serif" font-size="10.00">pqm_functions::pqm</text>
<text text-anchor="middle" x="808" y="-10" font-family="Helvetica,sans-Serif" font-size="10.00">_limiter</text>
</a>
</g>
</g>
<!-- Node33&#45;&gt;Node34 -->
<g id="edge38" class="edge"><title>Node33&#45;&gt;Node34</title>
<path fill="none" stroke="midnightblue" d="M701.899,-34.929C717.965,-32.3412 736.329,-29.3833 753.164,-26.6715"/>
<polygon fill="midnightblue" stroke="midnightblue" points="754.099,-30.0662 763.415,-25.0204 752.985,-23.1553 754.099,-30.0662"/>
</g>
<!-- Node34&#45;&gt;Node25 -->
<g id="edge39" class="edge"><title>Node34&#45;&gt;Node25</title>
<path fill="none" stroke="midnightblue" d="M852.724,-17.0425C864.593,-16.7826 877.608,-16.4976 890.052,-16.2251"/>
<polygon fill="midnightblue" stroke="midnightblue" points="890.411,-19.7182 900.332,-16 890.258,-12.7199 890.411,-19.7182"/>
</g>
<!-- Node34&#45;&gt;Node26 -->
<g id="edge40" class="edge"><title>Node34&#45;&gt;Node26</title>
<path fill="none" stroke="midnightblue" d="M848.626,-33.0406C861.596,-37.9635 876.257,-43.5281 890.191,-48.8172"/>
<polygon fill="midnightblue" stroke="midnightblue" points="889.101,-52.1471 899.693,-52.4235 891.586,-45.6026 889.101,-52.1471"/>
</g>
<!-- Node36&#45;&gt;Node29 -->
<g id="edge43" class="edge"><title>Node36&#45;&gt;Node29</title>
<path fill="none" stroke="midnightblue" d="M703.921,-335.899C719.57,-330.752 737.202,-324.954 753.4,-319.627"/>
<polygon fill="midnightblue" stroke="midnightblue" points="754.864,-322.83 763.27,-316.381 752.677,-316.18 754.864,-322.83"/>
</g>
<!-- Node36&#45;&gt;Node30 -->
<g id="edge44" class="edge"><title>Node36&#45;&gt;Node30</title>
<path fill="none" stroke="midnightblue" d="M703.921,-366.101C719.003,-371.062 735.928,-376.627 751.636,-381.793"/>
<polygon fill="midnightblue" stroke="midnightblue" points="750.638,-385.149 761.231,-384.948 752.825,-378.5 750.638,-385.149"/>
</g>
<!-- Node36&#45;&gt;Node31 -->
<g id="edge45" class="edge"><title>Node36&#45;&gt;Node31</title>
<path fill="none" stroke="midnightblue" d="M710.532,-351C724.286,-351 739.137,-351 752.967,-351"/>
<polygon fill="midnightblue" stroke="midnightblue" points="753.31,-354.5 763.31,-351 753.31,-347.5 753.31,-354.5"/>
</g>
<!-- Node37&#45;&gt;Node29 -->
<g id="edge47" class="edge"><title>Node37&#45;&gt;Node29</title>
<path fill="none" stroke="midnightblue" d="M710.532,-302C724.286,-302 739.137,-302 752.967,-302"/>
<polygon fill="midnightblue" stroke="midnightblue" points="753.31,-305.5 763.31,-302 753.31,-298.5 753.31,-305.5"/>
</g>
<!-- Node37&#45;&gt;Node30 -->
<g id="edge48" class="edge"><title>Node37&#45;&gt;Node30</title>
<path fill="none" stroke="midnightblue" d="M701.896,-317.082C706.886,-319.675 711.711,-322.639 716,-326 737.269,-342.67 731.019,-357.968 752,-375 754.031,-376.649 756.188,-378.213 758.427,-379.694"/>
<polygon fill="midnightblue" stroke="midnightblue" points="756.992,-382.913 767.38,-384.997 760.56,-376.89 756.992,-382.913"/>
</g>
<!-- Node37&#45;&gt;Node31 -->
<g id="edge49" class="edge"><title>Node37&#45;&gt;Node31</title>
<path fill="none" stroke="midnightblue" d="M703.921,-317.101C719.57,-322.248 737.202,-328.046 753.4,-333.373"/>
<polygon fill="midnightblue" stroke="midnightblue" points="752.677,-336.82 763.27,-336.619 754.864,-330.17 752.677,-336.82"/>
</g>
<!-- Node38&#45;&gt;Node8 -->
<g id="edge52" class="edge"><title>Node38&#45;&gt;Node8</title>
<path fill="none" stroke="midnightblue" d="M517.724,-215.732C530.63,-192.146 559.05,-147.724 598,-130 645.735,-108.279 667.514,-110.013 716,-130 801.713,-165.333 821.942,-194.379 864,-277 910.289,-367.933 937.274,-690.837 944.206,-783.793"/>
<polygon fill="midnightblue" stroke="midnightblue" points="940.73,-784.241 944.952,-793.958 947.711,-783.729 940.73,-784.241"/>
</g>
<!-- Node40 -->
<g id="node38" class="node"><title>Node40</title>
<g id="a_node38"><a xlink:href="namespacemom__remapping.html#ac97371127053406c84be732a19eb6f9d" target="_top" xlink:title="Returns the average value of a reconstruction within a single source cell, i0, between the non&#45;dimens...">
<polygon fill="white" stroke="black" points="752.5,-750 752.5,-780 863.5,-780 863.5,-750 752.5,-750"/>
<text text-anchor="start" x="760.5" y="-768" font-family="Helvetica,sans-Serif" font-size="10.00">mom_remapping::average</text>
<text text-anchor="middle" x="808" y="-757" font-family="Helvetica,sans-Serif" font-size="10.00">_value_ppoly</text>
</a>
</g>
</g>
<!-- Node39&#45;&gt;Node40 -->
<g id="edge54" class="edge"><title>Node39&#45;&gt;Node40</title>
<path fill="none" stroke="midnightblue" d="M561.689,-719.578C603.639,-720.867 664.123,-724.593 716,-735 730.043,-737.817 744.934,-742.133 758.514,-746.621"/>
<polygon fill="midnightblue" stroke="midnightblue" points="757.545,-749.988 768.139,-749.9 759.802,-743.362 757.545,-749.988"/>
</g>
<!-- Node39&#45;&gt;Node8 -->
<g id="edge56" class="edge"><title>Node39&#45;&gt;Node8</title>
<path fill="none" stroke="midnightblue" d="M561.644,-711.007C633.089,-702.339 764.516,-695.15 864,-740 888.051,-750.843 910.616,-770.843 925.962,-786.53"/>
<polygon fill="midnightblue" stroke="midnightblue" points="923.467,-788.985 932.891,-793.825 928.542,-784.164 923.467,-788.985"/>
</g>
<!-- Node39&#45;&gt;Node41 -->
<g id="edge57" class="edge"><title>Node39&#45;&gt;Node41</title>
<path fill="none" stroke="midnightblue" d="M561.885,-733.571C571.823,-736.361 582.332,-739.312 592.585,-742.192"/>
<polygon fill="midnightblue" stroke="midnightblue" points="591.735,-745.588 602.309,-744.922 593.627,-738.849 591.735,-745.588"/>
</g>
<!-- Node39&#45;&gt;Node42 -->
<g id="edge58" class="edge"><title>Node39&#45;&gt;Node42</title>
<path fill="none" stroke="midnightblue" d="M528.033,-734.248C545.252,-748.329 572.31,-769.237 598,-784 601.379,-785.942 604.939,-787.827 608.563,-789.633"/>
<polygon fill="midnightblue" stroke="midnightblue" points="607.104,-792.815 617.638,-793.947 610.11,-786.493 607.104,-792.815"/>
</g>
<!-- Node40&#45;&gt;Node8 -->
<g id="edge55" class="edge"><title>Node40&#45;&gt;Node8</title>
<path fill="none" stroke="midnightblue" d="M855.764,-780.019C867.028,-783.637 879.167,-787.535 890.777,-791.264"/>
<polygon fill="midnightblue" stroke="midnightblue" points="889.782,-794.621 900.374,-794.346 891.923,-787.956 889.782,-794.621"/>
</g>
</g>
</svg>
