<?xml version="1.0" encoding="UTF-8" standalone="no"?>
<!DOCTYPE svg PUBLIC "-//W3C//DTD SVG 1.1//EN"
 "http://www.w3.org/Graphics/SVG/1.1/DTD/svg11.dtd">
<!-- Generated by graphviz version 2.30.1 (20170916.1124)
 -->
<!-- Title: mom_regridding::setcoordinateresolution Pages: 1 -->
<svg width="430pt" height="38pt"
 viewBox="0.00 0.00 430.00 38.00" xmlns="http://www.w3.org/2000/svg" xmlns:xlink="http://www.w3.org/1999/xlink">
<g id="graph0" class="graph" transform="scale(1 1) rotate(0) translate(4 34)">
<title>mom_regridding::setcoordinateresolution</title>
<polygon fill="white" stroke="white" points="-4,5 -4,-34 427,-34 427,5 -4,5"/>
<!-- Node527 -->
<g id="node1" class="node"><title>Node527</title>
<g id="a_node1"><a xlink:title=" ">
<polygon fill="#bfbfbf" stroke="black" points="0,-5.5 0,-24.5 162,-24.5 162,-5.5 0,-5.5"/>
<text text-anchor="middle" x="81" y="-12.5" font-family="Helvetica,sans-Serif" font-size="10.00">mom_regridding::setcoordinateresolution</text>
</a>
</g>
</g>
<!-- Node528 -->
<g id="node2" class="node"><title>Node528</title>
<g id="a_node2"><a xlink:href="namespacemom__error__handler.html#a460cfb79a06c29fc249952c2a3710d67" target="_top" xlink:title=" ">
<polygon fill="white" stroke="black" points="198.5,-0 198.5,-30 291.5,-30 291.5,-0 198.5,-0"/>
<text text-anchor="start" x="206.5" y="-18" font-family="Helvetica,sans-Serif" font-size="10.00">mom_error_handler::</text>
<text text-anchor="middle" x="245" y="-7" font-family="Helvetica,sans-Serif" font-size="10.00">mom_error</text>
</a>
</g>
</g>
<!-- Node527&#45;&gt;Node528 -->
<g id="edge1" class="edge"><title>Node527&#45;&gt;Node528</title>
<path fill="none" stroke="midnightblue" d="M162.051,-15C170.892,-15 179.748,-15 188.197,-15"/>
<polygon fill="midnightblue" stroke="midnightblue" points="188.274,-18.5001 198.274,-15 188.274,-11.5001 188.274,-18.5001"/>
</g>
<!-- Node529 -->
<g id="node3" class="node"><title>Node529</title>
<g id="a_node3"><a xlink:href="namespacemom__error__handler.html#ad5f00a53059c72fe2332d1436c80ca71" target="_top" xlink:title=" ">
<polygon fill="white" stroke="black" points="328.5,-0 328.5,-30 421.5,-30 421.5,-0 328.5,-0"/>
<text text-anchor="start" x="336.5" y="-18" font-family="Helvetica,sans-Serif" font-size="10.00">mom_error_handler::</text>
<text text-anchor="middle" x="375" y="-7" font-family="Helvetica,sans-Serif" font-size="10.00">is_root_pe</text>
</a>
</g>
</g>
<!-- Node528&#45;&gt;Node529 -->
<g id="edge2" class="edge"><title>Node528&#45;&gt;Node529</title>
<path fill="none" stroke="midnightblue" d="M291.849,-15C300.408,-15 309.439,-15 318.258,-15"/>
<polygon fill="midnightblue" stroke="midnightblue" points="318.471,-18.5001 328.471,-15 318.471,-11.5001 318.471,-18.5001"/>
</g>
</g>
</svg>
