<?xml version="1.0" encoding="UTF-8" standalone="no"?>
<!DOCTYPE svg PUBLIC "-//W3C//DTD SVG 1.1//EN"
 "http://www.w3.org/Graphics/SVG/1.1/DTD/svg11.dtd">
<!-- Generated by graphviz version 2.30.1 (20170916.1124)
 -->
<!-- Title: mom_coord_initialization::write_vertgrid_file Pages: 1 -->
<svg width="778pt" height="52pt"
 viewBox="0.00 0.00 778.00 52.00" xmlns="http://www.w3.org/2000/svg" xmlns:xlink="http://www.w3.org/1999/xlink">
<g id="graph0" class="graph" transform="scale(1 1) rotate(0) translate(4 48)">
<title>mom_coord_initialization::write_vertgrid_file</title>
<polygon fill="white" stroke="white" points="-4,5 -4,-48 775,-48 775,5 -4,5"/>
<!-- Node80 -->
<g id="node1" class="node"><title>Node80</title>
<g id="a_node1"><a xlink:title=" ">
<polygon fill="#bfbfbf" stroke="black" points="0,-14 0,-44 104,-44 104,-14 0,-14"/>
<text text-anchor="start" x="8" y="-32" font-family="Helvetica,sans-Serif" font-size="10.00">mom_coord_initialization</text>
<text text-anchor="middle" x="52" y="-21" font-family="Helvetica,sans-Serif" font-size="10.00">::write_vertgrid_file</text>
</a>
</g>
</g>
<!-- Node81 -->
<g id="node2" class="node"><title>Node81</title>
<g id="a_node2"><a xlink:href="namespacemom__io.html#a39c3ccc06bb1a6e446af2ee9010eba16" target="_top" xlink:title="Returns a vardesc type whose elements have been filled with the provided fields. The argument name is...">
<polygon fill="white" stroke="black" points="140,-19.5 140,-38.5 222,-38.5 222,-19.5 140,-19.5"/>
<text text-anchor="middle" x="181" y="-26.5" font-family="Helvetica,sans-Serif" font-size="10.00">mom_io::var_desc</text>
</a>
</g>
</g>
<!-- Node80&#45;&gt;Node81 -->
<g id="edge1" class="edge"><title>Node80&#45;&gt;Node81</title>
<path fill="none" stroke="midnightblue" d="M104.29,-29C112.708,-29 121.423,-29 129.814,-29"/>
<polygon fill="midnightblue" stroke="midnightblue" points="129.846,-32.5001 139.846,-29 129.846,-25.5001 129.846,-32.5001"/>
</g>
<!-- Node82 -->
<g id="node3" class="node"><title>Node82</title>
<g id="a_node3"><a xlink:href="namespacemom__io.html#ac4bc408e8b38dbd669842753f26ebf88" target="_top" xlink:title="Copies a string.">
<polygon fill="white" stroke="black" points="400,-19.5 400,-38.5 510,-38.5 510,-19.5 400,-19.5"/>
<text text-anchor="middle" x="455" y="-26.5" font-family="Helvetica,sans-Serif" font-size="10.00">mom_io::safe_string_copy</text>
</a>
</g>
</g>
<!-- Node81&#45;&gt;Node82 -->
<g id="edge2" class="edge"><title>Node81&#45;&gt;Node82</title>
<path fill="none" stroke="midnightblue" d="M222.135,-29C266.19,-29 337.554,-29 389.487,-29"/>
<polygon fill="midnightblue" stroke="midnightblue" points="389.6,-32.5001 399.6,-29 389.6,-25.5001 389.6,-32.5001"/>
</g>
<!-- Node85 -->
<g id="node6" class="node"><title>Node85</title>
<g id="a_node6"><a xlink:href="namespacemom__io.html#af96b29cb8410d557e8e452b81586223b" target="_top" xlink:title="This routine modifies the named elements of a vardesc type. All arguments are optional,...">
<polygon fill="white" stroke="black" points="258.5,-0.5 258.5,-19.5 363.5,-19.5 363.5,-0.5 258.5,-0.5"/>
<text text-anchor="middle" x="311" y="-7.5" font-family="Helvetica,sans-Serif" font-size="10.00">mom_io::modify_vardesc</text>
</a>
</g>
</g>
<!-- Node81&#45;&gt;Node85 -->
<g id="edge5" class="edge"><title>Node81&#45;&gt;Node85</title>
<path fill="none" stroke="midnightblue" d="M222.149,-23.0404C230.459,-21.8069 239.395,-20.4805 248.273,-19.1627"/>
<polygon fill="midnightblue" stroke="midnightblue" points="248.857,-22.6144 258.234,-17.684 247.829,-15.6903 248.857,-22.6144"/>
</g>
<!-- Node83 -->
<g id="node4" class="node"><title>Node83</title>
<g id="a_node4"><a xlink:href="namespacemom__error__handler.html#a460cfb79a06c29fc249952c2a3710d67" target="_top" xlink:title=" ">
<polygon fill="white" stroke="black" points="546.5,-14 546.5,-44 639.5,-44 639.5,-14 546.5,-14"/>
<text text-anchor="start" x="554.5" y="-32" font-family="Helvetica,sans-Serif" font-size="10.00">mom_error_handler::</text>
<text text-anchor="middle" x="593" y="-21" font-family="Helvetica,sans-Serif" font-size="10.00">mom_error</text>
</a>
</g>
</g>
<!-- Node82&#45;&gt;Node83 -->
<g id="edge3" class="edge"><title>Node82&#45;&gt;Node83</title>
<path fill="none" stroke="midnightblue" d="M510.142,-29C518.767,-29 527.702,-29 536.361,-29"/>
<polygon fill="midnightblue" stroke="midnightblue" points="536.364,-32.5001 546.364,-29 536.364,-25.5001 536.364,-32.5001"/>
</g>
<!-- Node84 -->
<g id="node5" class="node"><title>Node84</title>
<g id="a_node5"><a xlink:href="namespacemom__error__handler.html#ad5f00a53059c72fe2332d1436c80ca71" target="_top" xlink:title=" ">
<polygon fill="white" stroke="black" points="676.5,-14 676.5,-44 769.5,-44 769.5,-14 676.5,-14"/>
<text text-anchor="start" x="684.5" y="-32" font-family="Helvetica,sans-Serif" font-size="10.00">mom_error_handler::</text>
<text text-anchor="middle" x="723" y="-21" font-family="Helvetica,sans-Serif" font-size="10.00">is_root_pe</text>
</a>
</g>
</g>
<!-- Node83&#45;&gt;Node84 -->
<g id="edge4" class="edge"><title>Node83&#45;&gt;Node84</title>
<path fill="none" stroke="midnightblue" d="M639.849,-29C648.408,-29 657.439,-29 666.258,-29"/>
<polygon fill="midnightblue" stroke="midnightblue" points="666.471,-32.5001 676.471,-29 666.471,-25.5001 666.471,-32.5001"/>
</g>
<!-- Node85&#45;&gt;Node82 -->
<g id="edge6" class="edge"><title>Node85&#45;&gt;Node82</title>
<path fill="none" stroke="midnightblue" d="M363.667,-16.9132C372.102,-18.0419 380.932,-19.2233 389.628,-20.3868"/>
<polygon fill="midnightblue" stroke="midnightblue" points="389.367,-23.883 399.743,-21.7403 390.295,-16.9449 389.367,-23.883"/>
</g>
</g>
</svg>
