<?xml version="1.0" encoding="UTF-8" standalone="no"?>
<!DOCTYPE svg PUBLIC "-//W3C//DTD SVG 1.1//EN"
 "http://www.w3.org/Graphics/SVG/1.1/DTD/svg11.dtd">
<!-- Generated by graphviz version 2.30.1 (20170916.1124)
 -->
<!-- Title: mom_barotropic::register_barotropic_restarts Pages: 1 -->
<svg width="782pt" height="90pt"
 viewBox="0.00 0.00 782.00 90.00" xmlns="http://www.w3.org/2000/svg" xmlns:xlink="http://www.w3.org/1999/xlink">
<g id="graph0" class="graph" transform="scale(1 1) rotate(0) translate(4 86)">
<title>mom_barotropic::register_barotropic_restarts</title>
<polygon fill="white" stroke="white" points="-4,5 -4,-86 779,-86 779,5 -4,5"/>
<!-- Node78 -->
<g id="node1" class="node"><title>Node78</title>
<g id="a_node1"><a xlink:title=" ">
<polygon fill="#bfbfbf" stroke="black" points="0.5,-52 0.5,-82 107.5,-82 107.5,-52 0.5,-52"/>
<text text-anchor="start" x="8.5" y="-70" font-family="Helvetica,sans-Serif" font-size="10.00">mom_barotropic::register</text>
<text text-anchor="middle" x="54" y="-59" font-family="Helvetica,sans-Serif" font-size="10.00">_barotropic_restarts</text>
</a>
</g>
</g>
<!-- Node79 -->
<g id="node2" class="node"><title>Node79</title>
<g id="a_node2"><a xlink:href="namespacemom__error__handler.html#a460cfb79a06c29fc249952c2a3710d67" target="_top" xlink:title=" ">
<polygon fill="white" stroke="black" points="550.5,-52 550.5,-82 643.5,-82 643.5,-52 550.5,-52"/>
<text text-anchor="start" x="558.5" y="-70" font-family="Helvetica,sans-Serif" font-size="10.00">mom_error_handler::</text>
<text text-anchor="middle" x="597" y="-59" font-family="Helvetica,sans-Serif" font-size="10.00">mom_error</text>
</a>
</g>
</g>
<!-- Node78&#45;&gt;Node79 -->
<g id="edge1" class="edge"><title>Node78&#45;&gt;Node79</title>
<path fill="none" stroke="midnightblue" d="M107.858,-67C210.396,-67 435.419,-67 540.229,-67"/>
<polygon fill="midnightblue" stroke="midnightblue" points="540.291,-70.5001 550.291,-67 540.291,-63.5001 540.291,-70.5001"/>
</g>
<!-- Node81 -->
<g id="node4" class="node"><title>Node81</title>
<g id="a_node4"><a xlink:href="namespacemom__io.html#a39c3ccc06bb1a6e446af2ee9010eba16" target="_top" xlink:title="Returns a vardesc type whose elements have been filled with the provided fields. The argument name is...">
<polygon fill="white" stroke="black" points="144,-38.5 144,-57.5 226,-57.5 226,-38.5 144,-38.5"/>
<text text-anchor="middle" x="185" y="-45.5" font-family="Helvetica,sans-Serif" font-size="10.00">mom_io::var_desc</text>
</a>
</g>
</g>
<!-- Node78&#45;&gt;Node81 -->
<g id="edge3" class="edge"><title>Node78&#45;&gt;Node81</title>
<path fill="none" stroke="midnightblue" d="M107.841,-59.2172C116.35,-57.964 125.138,-56.6696 133.587,-55.4251"/>
<polygon fill="midnightblue" stroke="midnightblue" points="134.301,-58.8579 143.684,-53.938 133.281,-51.9326 134.301,-58.8579"/>
</g>
<!-- Node80 -->
<g id="node3" class="node"><title>Node80</title>
<g id="a_node3"><a xlink:href="namespacemom__error__handler.html#ad5f00a53059c72fe2332d1436c80ca71" target="_top" xlink:title=" ">
<polygon fill="white" stroke="black" points="680.5,-52 680.5,-82 773.5,-82 773.5,-52 680.5,-52"/>
<text text-anchor="start" x="688.5" y="-70" font-family="Helvetica,sans-Serif" font-size="10.00">mom_error_handler::</text>
<text text-anchor="middle" x="727" y="-59" font-family="Helvetica,sans-Serif" font-size="10.00">is_root_pe</text>
</a>
</g>
</g>
<!-- Node79&#45;&gt;Node80 -->
<g id="edge2" class="edge"><title>Node79&#45;&gt;Node80</title>
<path fill="none" stroke="midnightblue" d="M643.849,-67C652.408,-67 661.439,-67 670.258,-67"/>
<polygon fill="midnightblue" stroke="midnightblue" points="670.471,-70.5001 680.471,-67 670.471,-63.5001 670.471,-70.5001"/>
</g>
<!-- Node82 -->
<g id="node5" class="node"><title>Node82</title>
<g id="a_node5"><a xlink:href="namespacemom__io.html#ac4bc408e8b38dbd669842753f26ebf88" target="_top" xlink:title="Copies a string.">
<polygon fill="white" stroke="black" points="404,-38.5 404,-57.5 514,-57.5 514,-38.5 404,-38.5"/>
<text text-anchor="middle" x="459" y="-45.5" font-family="Helvetica,sans-Serif" font-size="10.00">mom_io::safe_string_copy</text>
</a>
</g>
</g>
<!-- Node81&#45;&gt;Node82 -->
<g id="edge4" class="edge"><title>Node81&#45;&gt;Node82</title>
<path fill="none" stroke="midnightblue" d="M226.135,-48C270.19,-48 341.554,-48 393.487,-48"/>
<polygon fill="midnightblue" stroke="midnightblue" points="393.6,-51.5001 403.6,-48 393.6,-44.5001 393.6,-51.5001"/>
</g>
<!-- Node83 -->
<g id="node6" class="node"><title>Node83</title>
<g id="a_node6"><a xlink:href="namespacemom__io.html#af96b29cb8410d557e8e452b81586223b" target="_top" xlink:title="This routine modifies the named elements of a vardesc type. All arguments are optional,...">
<polygon fill="white" stroke="black" points="262.5,-0.5 262.5,-19.5 367.5,-19.5 367.5,-0.5 262.5,-0.5"/>
<text text-anchor="middle" x="315" y="-7.5" font-family="Helvetica,sans-Serif" font-size="10.00">mom_io::modify_vardesc</text>
</a>
</g>
</g>
<!-- Node81&#45;&gt;Node83 -->
<g id="edge6" class="edge"><title>Node81&#45;&gt;Node83</title>
<path fill="none" stroke="midnightblue" d="M218.3,-38.411C234.52,-33.5956 254.375,-27.7012 271.787,-22.532"/>
<polygon fill="midnightblue" stroke="midnightblue" points="273.12,-25.7873 281.711,-19.5859 271.128,-19.0767 273.12,-25.7873"/>
</g>
<!-- Node82&#45;&gt;Node79 -->
<g id="edge5" class="edge"><title>Node82&#45;&gt;Node79</title>
<path fill="none" stroke="midnightblue" d="M514.142,-55.5639C522.767,-56.7689 531.702,-58.0172 540.361,-59.2269"/>
<polygon fill="midnightblue" stroke="midnightblue" points="539.976,-62.707 550.364,-60.6243 540.944,-55.7743 539.976,-62.707"/>
</g>
<!-- Node83&#45;&gt;Node82 -->
<g id="edge7" class="edge"><title>Node83&#45;&gt;Node82</title>
<path fill="none" stroke="midnightblue" d="M351.833,-19.589C370.163,-24.4944 392.678,-30.5196 412.25,-35.7571"/>
<polygon fill="midnightblue" stroke="midnightblue" points="411.614,-39.2099 422.179,-38.4141 413.424,-32.4479 411.614,-39.2099"/>
</g>
</g>
</svg>
