<?xml version="1.0" encoding="UTF-8" standalone="no"?>
<!DOCTYPE svg PUBLIC "-//W3C//DTD SVG 1.1//EN"
 "http://www.w3.org/Graphics/SVG/1.1/DTD/svg11.dtd">
<!-- Generated by graphviz version 2.30.1 (20170916.1124)
 -->
<!-- Title: mom_diag_mediator::register_diag_field Pages: 1 -->
<!--zoomable 547 -->
<svg id="main" version="1.1" xmlns="http://www.w3.org/2000/svg" xmlns:xlink="http://www.w3.org/1999/xlink" xml:space="preserve" onload="init(evt)">
<style type="text/css"><![CDATA[
.edge:hover path { stroke: red; }
.edge:hover polygon { stroke: red; fill: red; }
]]></style>
<script type="text/javascript"><![CDATA[
var edges = document.getElementsByTagName('g');
if (edges && edges.length) {
  for (var i=0;i<edges.length;i++) {
    if (edges[i].id.substr(0,4)=='edge') {
      edges[i].setAttribute('class','edge');
    }
  }
}
]]></script>
        <defs>
                <circle id="rim" cx="0" cy="0" r="7"/>
                <circle id="rim2" cx="0" cy="0" r="3.5"/>
                <g id="zoomPlus">
                        <use xlink:href="#rim" fill="#404040">
                                <set attributeName="fill" to="#808080" begin="zoomplus.mouseover" end="zoomplus.mouseout"/>
                        </use>
                        <path d="M-4,0h8M0,-4v8" fill="none" stroke="white" stroke-width="1.5" pointer-events="none"/>
                </g>
                <g id="zoomMin">
                        <use xlink:href="#rim" fill="#404040">
                                <set attributeName="fill" to="#808080" begin="zoomminus.mouseover" end="zoomminus.mouseout"/>
                        </use>
                        <path d="M-4,0h8" fill="none" stroke="white" stroke-width="1.5" pointer-events="none"/>
                </g>
                <g id="dirArrow">
                        <path fill="none" stroke="white" stroke-width="1.5" d="M0,-3.0v7 M-2.5,-0.5L0,-3.0L2.5,-0.5"/>
                </g>
               <g id="resetDef">
                       <use xlink:href="#rim2" fill="#404040">
                               <set attributeName="fill" to="#808080" begin="reset.mouseover" end="reset.mouseout"/>
                       </use>
               </g>
        </defs>

<script type="text/javascript">
var viewWidth = 500;
var viewHeight = 547;
var sectionId = 'dynsection-37';
</script>
<script xlink:href="svgpan.js"/>
<svg id="graph" class="graph">
<g id="viewport">
<title>mom_diag_mediator::register_diag_field</title>
<polygon fill="white" stroke="white" points="-4,5 -4,-543 497,-543 497,5 -4,5"/>
<!-- Node365 -->
<g id="node1" class="node"><title>Node365</title>
<g id="a_node1"><a xlink:title="Returns the &quot;diag_mediator&quot; handle for a group (native, CMOR, z&#45;coord, ...) of diagnostics derived fr...">
<polygon fill="#bfbfbf" stroke="black" points="396.5,-230 396.5,-260 491.5,-260 491.5,-230 396.5,-230"/>
<text text-anchor="start" x="404.5" y="-248" font-family="Helvetica,sans-Serif" font-size="10.00">mom_diag_mediator::</text>
<text text-anchor="middle" x="444" y="-237" font-family="Helvetica,sans-Serif" font-size="10.00">register_diag_field</text>
</a>
</g>
</g>
<!-- Node366 -->
<g id="node2" class="node"><title>Node366</title>
<g id="a_node2"><a xlink:href="namespacemom__ale.html#a994efb3c62fc5f63da2617f29cbd6be1" target="_top" xlink:title="Initialize diagnostics for the ALE module.">
<polygon fill="white" stroke="black" points="246,-460 246,-490 342,-490 342,-460 246,-460"/>
<text text-anchor="start" x="254" y="-478" font-family="Helvetica,sans-Serif" font-size="10.00">mom_ale::ale_register</text>
<text text-anchor="middle" x="294" y="-467" font-family="Helvetica,sans-Serif" font-size="10.00">_diags</text>
</a>
</g>
</g>
<!-- Node365&#45;&gt;Node366 -->
<g id="edge1" class="edge"><title>Node365&#45;&gt;Node366</title>
<path fill="none" stroke="midnightblue" d="M439.402,-270.228C432.042,-312.874 411.397,-399.497 360,-450 354.912,-455 348.717,-459.023 342.195,-462.254"/>
<polygon fill="midnightblue" stroke="midnightblue" points="442.891,-270.574 441.033,-260.143 435.981,-269.456 442.891,-270.574"/>
</g>
<!-- Node367 -->
<g id="node3" class="node"><title>Node367</title>
<g id="a_node3"><a xlink:href="namespacemom__coriolisadv.html#ad3ce07f23ce7b484a5a9e0c0abe8b1cd" target="_top" xlink:title="Initializes the control structure for coriolisadv_cs.">
<polygon fill="white" stroke="black" points="228.5,-421.5 228.5,-440.5 359.5,-440.5 359.5,-421.5 228.5,-421.5"/>
<text text-anchor="middle" x="294" y="-428.5" font-family="Helvetica,sans-Serif" font-size="10.00">mom_coriolisadv::coriolisadv_init</text>
</a>
</g>
</g>
<!-- Node365&#45;&gt;Node367 -->
<g id="edge2" class="edge"><title>Node365&#45;&gt;Node367</title>
<path fill="none" stroke="midnightblue" d="M437.133,-270.164C427.364,-306.517 404.306,-373.468 360,-411 354.865,-415.35 348.794,-418.754 342.459,-421.419"/>
<polygon fill="midnightblue" stroke="midnightblue" points="440.556,-270.907 439.645,-260.351 433.774,-269.171 440.556,-270.907"/>
</g>
<!-- Node372 -->
<g id="node8" class="node"><title>Node372</title>
<g id="a_node8"><a xlink:href="namespacemom__diapyc__energy__req.html#aa0ce122f4dc6d9a6ec9e17996484bb76" target="_top" xlink:title=" ">
<polygon fill="white" stroke="black" points="240.5,-372 240.5,-402 347.5,-402 347.5,-372 240.5,-372"/>
<text text-anchor="start" x="248.5" y="-390" font-family="Helvetica,sans-Serif" font-size="10.00">mom_diapyc_energy_req</text>
<text text-anchor="middle" x="294" y="-379" font-family="Helvetica,sans-Serif" font-size="10.00">::diapyc_energy_req_init</text>
</a>
</g>
</g>
<!-- Node365&#45;&gt;Node372 -->
<g id="edge7" class="edge"><title>Node365&#45;&gt;Node372</title>
<path fill="none" stroke="midnightblue" d="M431.277,-269.318C417.529,-295.508 392.437,-336.801 360,-362 355.131,-365.783 349.622,-369.051 343.921,-371.859"/>
<polygon fill="midnightblue" stroke="midnightblue" points="434.56,-270.584 435.982,-260.085 428.323,-267.406 434.56,-270.584"/>
</g>
<!-- Node373 -->
<g id="node9" class="node"><title>Node373</title>
<g id="a_node9"><a xlink:href="namespacemom__diffconvection.html#ac36d9d7fd69e4422e7de01242094ff34" target="_top" xlink:title=" ">
<polygon fill="white" stroke="black" points="250.5,-323 250.5,-353 337.5,-353 337.5,-323 250.5,-323"/>
<text text-anchor="start" x="258.5" y="-341" font-family="Helvetica,sans-Serif" font-size="10.00">mom_diffconvection</text>
<text text-anchor="middle" x="294" y="-330" font-family="Helvetica,sans-Serif" font-size="10.00">::diffconvection_init</text>
</a>
</g>
</g>
<!-- Node365&#45;&gt;Node373 -->
<g id="edge8" class="edge"><title>Node365&#45;&gt;Node373</title>
<path fill="none" stroke="midnightblue" d="M419.909,-267.341C404.037,-281.8 381.94,-300.24 360,-313 352.997,-317.073 345.208,-320.726 337.523,-323.9"/>
<polygon fill="midnightblue" stroke="midnightblue" points="422.66,-269.563 427.608,-260.194 417.898,-264.433 422.66,-269.563"/>
</g>
<!-- Node374 -->
<g id="node10" class="node"><title>Node374</title>
<g id="a_node10"><a xlink:href="namespacemom__int__tide__input.html#a29a707637da633ccee155b53557b5f17" target="_top" xlink:title=" ">
<polygon fill="white" stroke="black" points="251,-274 251,-304 337,-304 337,-274 251,-274"/>
<text text-anchor="start" x="259" y="-292" font-family="Helvetica,sans-Serif" font-size="10.00">mom_int_tide_input</text>
<text text-anchor="middle" x="294" y="-281" font-family="Helvetica,sans-Serif" font-size="10.00">::int_tide_input_init</text>
</a>
</g>
</g>
<!-- Node365&#45;&gt;Node374 -->
<g id="edge9" class="edge"><title>Node365&#45;&gt;Node374</title>
<path fill="none" stroke="midnightblue" d="M386.176,-261.894C369.827,-266.754 352.295,-271.966 337.015,-276.509"/>
<polygon fill="midnightblue" stroke="midnightblue" points="387.584,-265.127 396.172,-258.922 385.589,-258.417 387.584,-265.127"/>
</g>
<!-- Node375 -->
<g id="node11" class="node"><title>Node375</title>
<g id="a_node11"><a xlink:href="namespacemom__kpp.html#a9c834424b6e067e280928db3700ec77e" target="_top" xlink:title="Initialize the CVmix KPP module and set up diagnostics Returns True if KPP is to be used,...">
<polygon fill="white" stroke="black" points="252.5,-235.5 252.5,-254.5 335.5,-254.5 335.5,-235.5 252.5,-235.5"/>
<text text-anchor="middle" x="294" y="-242.5" font-family="Helvetica,sans-Serif" font-size="10.00">mom_kpp::kpp_init</text>
</a>
</g>
</g>
<!-- Node365&#45;&gt;Node375 -->
<g id="edge10" class="edge"><title>Node365&#45;&gt;Node375</title>
<path fill="none" stroke="midnightblue" d="M385.903,-245C369.103,-245 351.075,-245 335.539,-245"/>
<polygon fill="midnightblue" stroke="midnightblue" points="386.172,-248.5 396.172,-245 386.172,-241.5 386.172,-248.5"/>
</g>
<!-- Node376 -->
<g id="node12" class="node"><title>Node376</title>
<g id="a_node12"><a xlink:href="namespacemom__neutral__diffusion.html#a87cf821c52ac1111493d4168f0a91d17" target="_top" xlink:title="Diagnostic handles for neutral diffusion tendencies.">
<polygon fill="white" stroke="black" points="237.5,-186 237.5,-216 350.5,-216 350.5,-186 237.5,-186"/>
<text text-anchor="start" x="245.5" y="-204" font-family="Helvetica,sans-Serif" font-size="10.00">mom_neutral_diffusion</text>
<text text-anchor="middle" x="294" y="-193" font-family="Helvetica,sans-Serif" font-size="10.00">::neutral_diffusion_diag_init</text>
</a>
</g>
</g>
<!-- Node365&#45;&gt;Node376 -->
<g id="edge11" class="edge"><title>Node365&#45;&gt;Node376</title>
<path fill="none" stroke="midnightblue" d="M386.544,-228.216C373.084,-224.214 358.802,-219.968 345.623,-216.05"/>
<polygon fill="midnightblue" stroke="midnightblue" points="385.589,-231.583 396.172,-231.078 387.584,-224.873 385.589,-231.583"/>
</g>
<!-- Node379 -->
<g id="node15" class="node"><title>Node379</title>
<g id="a_node15"><a xlink:href="namespacemom__diag__mediator.html#a21267e25d12fa3e5d2540d2a299d2d2c" target="_top" xlink:title="Registers a diagnostic using the information encapsulated in the vardesc type argument and returns an...">
<polygon fill="white" stroke="black" points="246.5,-137 246.5,-167 341.5,-167 341.5,-137 246.5,-137"/>
<text text-anchor="start" x="254.5" y="-155" font-family="Helvetica,sans-Serif" font-size="10.00">mom_diag_mediator::</text>
<text text-anchor="middle" x="294" y="-144" font-family="Helvetica,sans-Serif" font-size="10.00">ocean_register_diag</text>
</a>
</g>
</g>
<!-- Node365&#45;&gt;Node379 -->
<g id="edge14" class="edge"><title>Node365&#45;&gt;Node379</title>
<path fill="none" stroke="midnightblue" d="M419.909,-222.659C404.037,-208.2 381.94,-189.76 360,-177 353.729,-173.353 346.827,-170.042 339.934,-167.11"/>
<polygon fill="midnightblue" stroke="midnightblue" points="417.898,-225.567 427.608,-229.806 422.66,-220.437 417.898,-225.567"/>
</g>
<!-- Node381 -->
<g id="node17" class="node"><title>Node381</title>
<g id="a_node17"><a xlink:href="namespacemom__opacity.html#ab8dbcd70b93f5bd77b2a525cd73f0eb9" target="_top" xlink:title=" ">
<polygon fill="white" stroke="black" points="240.5,-98.5 240.5,-117.5 347.5,-117.5 347.5,-98.5 240.5,-98.5"/>
<text text-anchor="middle" x="294" y="-105.5" font-family="Helvetica,sans-Serif" font-size="10.00">mom_opacity::opacity_init</text>
</a>
</g>
</g>
<!-- Node365&#45;&gt;Node381 -->
<g id="edge16" class="edge"><title>Node365&#45;&gt;Node381</title>
<path fill="none" stroke="midnightblue" d="M431.775,-220.604C418.35,-194.056 393.429,-152.177 360,-128 353.973,-123.641 346.976,-120.216 339.851,-117.53"/>
<polygon fill="midnightblue" stroke="midnightblue" points="428.654,-222.188 436.196,-229.629 434.94,-219.109 428.654,-222.188"/>
</g>
<!-- Node383 -->
<g id="node19" class="node"><title>Node383</title>
<g id="a_node19"><a xlink:href="namespacemom__set__diffusivity.html#ac0a2a098bc7dc3b087a4bae87511b7ca" target="_top" xlink:title=" ">
<polygon fill="white" stroke="black" points="251,-49 251,-79 337,-79 337,-49 251,-49"/>
<text text-anchor="start" x="259" y="-67" font-family="Helvetica,sans-Serif" font-size="10.00">mom_set_diffusivity</text>
<text text-anchor="middle" x="294" y="-56" font-family="Helvetica,sans-Serif" font-size="10.00">::set_diffusivity_init</text>
</a>
</g>
</g>
<!-- Node365&#45;&gt;Node383 -->
<g id="edge18" class="edge"><title>Node365&#45;&gt;Node383</title>
<path fill="none" stroke="midnightblue" d="M435.899,-220.243C424.943,-186.216 400.805,-125.115 360,-89 353.391,-83.1503 345.265,-78.604 337.026,-75.0932"/>
<polygon fill="midnightblue" stroke="midnightblue" points="432.58,-221.358 438.879,-229.876 439.267,-219.288 432.58,-221.358"/>
</g>
<!-- Node384 -->
<g id="node20" class="node"><title>Node384</title>
<g id="a_node20"><a xlink:href="namespacemom__tracer__hor__diff.html#a2fc116afe7913994a8bfc9570efb4b9f" target="_top" xlink:title="Initialize lateral tracer diffusion module.">
<polygon fill="white" stroke="black" points="248,-0 248,-30 340,-30 340,-0 248,-0"/>
<text text-anchor="start" x="256" y="-18" font-family="Helvetica,sans-Serif" font-size="10.00">mom_tracer_hor_diff</text>
<text text-anchor="middle" x="294" y="-7" font-family="Helvetica,sans-Serif" font-size="10.00">::tracer_hor_diff_init</text>
</a>
</g>
</g>
<!-- Node365&#45;&gt;Node384 -->
<g id="edge19" class="edge"><title>Node365&#45;&gt;Node384</title>
<path fill="none" stroke="midnightblue" d="M439.402,-219.772C432.042,-177.126 411.397,-90.5033 360,-40 354.394,-34.4918 347.445,-30.1691 340.195,-26.7849"/>
<polygon fill="midnightblue" stroke="midnightblue" points="435.981,-220.544 441.033,-229.857 442.891,-219.426 435.981,-220.544"/>
</g>
<!-- Node368 -->
<g id="node4" class="node"><title>Node368</title>
<g id="a_node4"><a xlink:href="namespacemom__dynamics__legacy__split.html#aef55fe2e12672940edbd2dc5d7e72fd7" target="_top" xlink:title=" ">
<polygon fill="white" stroke="black" points="92.5,-497.5 92.5,-538.5 191.5,-538.5 191.5,-497.5 92.5,-497.5"/>
<text text-anchor="start" x="100.5" y="-526.5" font-family="Helvetica,sans-Serif" font-size="10.00">mom_dynamics_legacy</text>
<text text-anchor="start" x="100.5" y="-515.5" font-family="Helvetica,sans-Serif" font-size="10.00">_split::initialize_dyn</text>
<text text-anchor="middle" x="142" y="-504.5" font-family="Helvetica,sans-Serif" font-size="10.00">_legacy_split</text>
</a>
</g>
</g>
<!-- Node367&#45;&gt;Node368 -->
<g id="edge3" class="edge"><title>Node367&#45;&gt;Node368</title>
<path fill="none" stroke="midnightblue" d="M241.396,-444.201C236.727,-446.184 232.187,-448.44 228,-451 208.425,-462.969 209.923,-473.676 192,-488 187.948,-491.238 183.521,-494.399 179.037,-497.379"/>
<polygon fill="midnightblue" stroke="midnightblue" points="242.993,-447.338 251.089,-440.504 240.498,-440.798 242.993,-447.338"/>
</g>
<!-- Node369 -->
<g id="node5" class="node"><title>Node369</title>
<g id="a_node5"><a xlink:href="namespacemom__dynamics__split__rk2.html#a3bae09afc9136333ab281704dc9d9415" target="_top" xlink:title="This subroutine initializes all of the variables that are used by this dynamic core,...">
<polygon fill="white" stroke="black" points="97,-437.5 97,-478.5 187,-478.5 187,-437.5 97,-437.5"/>
<text text-anchor="start" x="105" y="-466.5" font-family="Helvetica,sans-Serif" font-size="10.00">mom_dynamics_split</text>
<text text-anchor="start" x="105" y="-455.5" font-family="Helvetica,sans-Serif" font-size="10.00">_rk2::initialize_dyn</text>
<text text-anchor="middle" x="142" y="-444.5" font-family="Helvetica,sans-Serif" font-size="10.00">_split_rk2</text>
</a>
</g>
</g>
<!-- Node367&#45;&gt;Node369 -->
<g id="edge4" class="edge"><title>Node367&#45;&gt;Node369</title>
<path fill="none" stroke="midnightblue" d="M229.869,-442.364C215.612,-444.93 200.768,-447.602 187.469,-449.996"/>
<polygon fill="midnightblue" stroke="midnightblue" points="230.894,-445.735 240.116,-440.519 229.654,-438.846 230.894,-445.735"/>
</g>
<!-- Node370 -->
<g id="node6" class="node"><title>Node370</title>
<g id="a_node6"><a xlink:href="namespacemom__dynamics__unsplit.html#ac557a7a55605cba7a17074f6375107f6" target="_top" xlink:title=" ">
<polygon fill="white" stroke="black" points="92.5,-388 92.5,-418 191.5,-418 191.5,-388 92.5,-388"/>
<text text-anchor="start" x="100.5" y="-406" font-family="Helvetica,sans-Serif" font-size="10.00">mom_dynamics_unsplit</text>
<text text-anchor="middle" x="142" y="-395" font-family="Helvetica,sans-Serif" font-size="10.00">::initialize_dyn_unsplit</text>
</a>
</g>
</g>
<!-- Node367&#45;&gt;Node370 -->
<g id="edge5" class="edge"><title>Node367&#45;&gt;Node370</title>
<path fill="none" stroke="midnightblue" d="M231.744,-419.566C218.406,-417.076 204.467,-414.474 191.693,-412.089"/>
<polygon fill="midnightblue" stroke="midnightblue" points="231.326,-423.048 241.798,-421.442 232.61,-416.167 231.326,-423.048"/>
</g>
<!-- Node371 -->
<g id="node7" class="node"><title>Node371</title>
<g id="a_node7"><a xlink:href="namespacemom__dynamics__unsplit__rk2.html#a7be251effa3bf4a236ea3feda6fc6d91" target="_top" xlink:title=" ">
<polygon fill="white" stroke="black" points="92.5,-327.5 92.5,-368.5 191.5,-368.5 191.5,-327.5 92.5,-327.5"/>
<text text-anchor="start" x="100.5" y="-356.5" font-family="Helvetica,sans-Serif" font-size="10.00">mom_dynamics_unsplit</text>
<text text-anchor="start" x="100.5" y="-345.5" font-family="Helvetica,sans-Serif" font-size="10.00">_rk2::initialize_dyn</text>
<text text-anchor="middle" x="142" y="-334.5" font-family="Helvetica,sans-Serif" font-size="10.00">_unsplit_rk2</text>
</a>
</g>
</g>
<!-- Node367&#45;&gt;Node371 -->
<g id="edge6" class="edge"><title>Node367&#45;&gt;Node371</title>
<path fill="none" stroke="midnightblue" d="M242.58,-417.877C237.526,-415.86 232.577,-413.576 228,-411 209.344,-400.501 209.102,-391.876 192,-379 187.336,-375.488 182.27,-371.976 177.223,-368.645"/>
<polygon fill="midnightblue" stroke="midnightblue" points="241.763,-421.304 252.357,-421.431 244.154,-414.725 241.763,-421.304"/>
</g>
<!-- Node377 -->
<g id="node13" class="node"><title>Node377</title>
<g id="a_node13"><a xlink:href="namespacemom.html#a0be2869fef30e1e0604facfe1b41555d" target="_top" xlink:title="This subroutine initializes MOM.">
<polygon fill="white" stroke="black" points="97.5,-191.5 97.5,-210.5 186.5,-210.5 186.5,-191.5 97.5,-191.5"/>
<text text-anchor="middle" x="142" y="-198.5" font-family="Helvetica,sans-Serif" font-size="10.00">mom::initialize_mom</text>
</a>
</g>
</g>
<!-- Node376&#45;&gt;Node377 -->
<g id="edge12" class="edge"><title>Node376&#45;&gt;Node377</title>
<path fill="none" stroke="midnightblue" d="M226.857,-201C213.263,-201 199.275,-201 186.714,-201"/>
<polygon fill="midnightblue" stroke="midnightblue" points="227.146,-204.5 237.146,-201 227.146,-197.5 227.146,-204.5"/>
</g>
<!-- Node378 -->
<g id="node14" class="node"><title>Node378</title>
<g id="a_node14"><a xlink:href="MOM__driver_8F90.html#a08fffeb2d8e8acbf9ed4609be6d258c6" target="_top" xlink:title=" ">
<polygon fill="white" stroke="black" points="0,-191.5 0,-210.5 56,-210.5 56,-191.5 0,-191.5"/>
<text text-anchor="middle" x="28" y="-198.5" font-family="Helvetica,sans-Serif" font-size="10.00">mom_main</text>
</a>
</g>
</g>
<!-- Node377&#45;&gt;Node378 -->
<g id="edge13" class="edge"><title>Node377&#45;&gt;Node378</title>
<path fill="none" stroke="midnightblue" d="M87.1555,-201C76.4062,-201 65.5509,-201 56.1768,-201"/>
<polygon fill="midnightblue" stroke="midnightblue" points="87.3772,-204.5 97.3772,-201 87.3771,-197.5 87.3772,-204.5"/>
</g>
<!-- Node380 -->
<g id="node16" class="node"><title>Node380</title>
<g id="a_node16"><a xlink:href="namespacemom__diag__to__z.html#a90526b2f59f94c6af2f525a221029772" target="_top" xlink:title=" ">
<polygon fill="white" stroke="black" points="92,-139 92,-169 192,-169 192,-139 92,-139"/>
<text text-anchor="start" x="100" y="-157" font-family="Helvetica,sans-Serif" font-size="10.00">mom_diag_to_z::ocean</text>
<text text-anchor="middle" x="142" y="-146" font-family="Helvetica,sans-Serif" font-size="10.00">_register_diag_with_z</text>
</a>
</g>
</g>
<!-- Node379&#45;&gt;Node380 -->
<g id="edge15" class="edge"><title>Node379&#45;&gt;Node380</title>
<path fill="none" stroke="midnightblue" d="M236.049,-152.759C221.611,-152.952 206.224,-153.157 192.206,-153.344"/>
<polygon fill="midnightblue" stroke="midnightblue" points="236.409,-156.255 246.361,-152.622 236.315,-149.256 236.409,-156.255"/>
</g>
<!-- Node382 -->
<g id="node18" class="node"><title>Node382</title>
<g id="a_node18"><a xlink:href="namespacemom__diabatic__driver.html#afa0b30bd6f0e080bcacbd6dcb15ff990" target="_top" xlink:title="This routine initializes the diabatic driver module.">
<polygon fill="white" stroke="black" points="96.5,-90 96.5,-120 187.5,-120 187.5,-90 96.5,-90"/>
<text text-anchor="start" x="104.5" y="-108" font-family="Helvetica,sans-Serif" font-size="10.00">mom_diabatic_driver</text>
<text text-anchor="middle" x="142" y="-97" font-family="Helvetica,sans-Serif" font-size="10.00">::diabatic_driver_init</text>
</a>
</g>
</g>
<!-- Node381&#45;&gt;Node382 -->
<g id="edge17" class="edge"><title>Node381&#45;&gt;Node382</title>
<path fill="none" stroke="midnightblue" d="M229.971,-106.739C215.856,-106.457 201.162,-106.163 187.956,-105.899"/>
<polygon fill="midnightblue" stroke="midnightblue" points="230.048,-110.242 240.116,-106.942 230.188,-103.243 230.048,-110.242"/>
</g>
</g>
</svg>
        <g id="navigator" transform="translate(0 0)" fill="#404254">
                <rect fill="#f2f5e9" fill-opacity="0.5" stroke="#606060" stroke-width=".5" x="0" y="0" width="60" height="60"/>
                <use id="zoomplus" xlink:href="#zoomPlus" x="17" y="9" onmousedown="handleZoom(evt,'in')"/>
                <use id="zoomminus" xlink:href="#zoomMin" x="42" y="9" onmousedown="handleZoom(evt,'out')"/>
                <use id="reset" xlink:href="#resetDef" x="30" y="36" onmousedown="handleReset()"/>
                <g id="arrowUp" xlink:href="#dirArrow" transform="translate(30 24)" onmousedown="handlePan(0,-1)">
                  <use xlink:href="#rim" fill="#404040">
                        <set attributeName="fill" to="#808080" begin="arrowUp.mouseover" end="arrowUp.mouseout"/>
                  </use>
                  <path fill="none" stroke="white" stroke-width="1.5" d="M0,-3.0v7 M-2.5,-0.5L0,-3.0L2.5,-0.5"/>
                </g>
                <g id="arrowRight" xlink:href="#dirArrow" transform="rotate(90) translate(36 -43)" onmousedown="handlePan(1,0)">
                  <use xlink:href="#rim" fill="#404040">
                        <set attributeName="fill" to="#808080" begin="arrowRight.mouseover" end="arrowRight.mouseout"/>
                  </use>
                  <path fill="none" stroke="white" stroke-width="1.5" d="M0,-3.0v7 M-2.5,-0.5L0,-3.0L2.5,-0.5"/>
                </g>
                <g id="arrowDown" xlink:href="#dirArrow" transform="rotate(180) translate(-30 -48)" onmousedown="handlePan(0,1)">
                  <use xlink:href="#rim" fill="#404040">
                        <set attributeName="fill" to="#808080" begin="arrowDown.mouseover" end="arrowDown.mouseout"/>
                  </use>
                  <path fill="none" stroke="white" stroke-width="1.5" d="M0,-3.0v7 M-2.5,-0.5L0,-3.0L2.5,-0.5"/>
                </g>
                <g id="arrowLeft" xlink:href="#dirArrow" transform="rotate(270) translate(-36 17)" onmousedown="handlePan(-1,0)">
                  <use xlink:href="#rim" fill="#404040">
                        <set attributeName="fill" to="#808080" begin="arrowLeft.mouseover" end="arrowLeft.mouseout"/>
                  </use>
                  <path fill="none" stroke="white" stroke-width="1.5" d="M0,-3.0v7 M-2.5,-0.5L0,-3.0L2.5,-0.5"/>
                </g>
        </g>
        <svg viewBox="0 0 15 15" width="100%" height="30px" preserveAspectRatio="xMaxYMin meet">
         <g id="arrow_out" transform="scale(0.3 0.3)">
          <a xlink:href="namespacemom__diag__mediator_aa791f75f899ae9b7cd4756165a9c2a1b_icgraph_org.svg" target="_base">
           <rect id="button" ry="5" rx="5" y="6" x="6" height="38" width="38"
                fill="#f2f5e9" fill-opacity="0.5" stroke="#606060" stroke-width="1.0"/>
           <path id="arrow"
             d="M 11.500037,31.436501 C 11.940474,20.09759 22.043105,11.32322 32.158766,21.979434 L 37.068811,17.246167 C 37.068811,17.246167 37.088388,32 37.088388,32 L 22.160133,31.978069 C 22.160133,31.978069 26.997745,27.140456 26.997745,27.140456 C 18.528582,18.264221 13.291696,25.230495 11.500037,31.436501 z"
             style="fill:#404040;"/>
          </a>
         </g>
        </svg>
</svg>
