<?xml version="1.0" encoding="UTF-8" standalone="no"?>
<!DOCTYPE svg PUBLIC "-//W3C//DTD SVG 1.1//EN"
 "http://www.w3.org/Graphics/SVG/1.1/DTD/svg11.dtd">
<!-- Generated by graphviz version 2.30.1 (20170916.1124)
 -->
<!-- Title: mom_coms::reproducing_sum_3d Pages: 1 -->
<svg width="526pt" height="306pt"
 viewBox="0.00 0.00 526.00 306.00" xmlns="http://www.w3.org/2000/svg" xmlns:xlink="http://www.w3.org/1999/xlink">
<g id="graph0" class="graph" transform="scale(1 1) rotate(0) translate(4 302)">
<title>mom_coms::reproducing_sum_3d</title>
<polygon fill="white" stroke="white" points="-4,5 -4,-302 523,-302 523,5 -4,5"/>
<!-- Node102 -->
<g id="node1" class="node"><title>Node102</title>
<g id="a_node1"><a xlink:title=" ">
<polygon fill="#bfbfbf" stroke="black" points="0.5,-128 0.5,-158 105.5,-158 105.5,-128 0.5,-128"/>
<text text-anchor="start" x="8.5" y="-146" font-family="Helvetica,sans-Serif" font-size="10.00">mom_coms::reproducing</text>
<text text-anchor="middle" x="53" y="-135" font-family="Helvetica,sans-Serif" font-size="10.00">_sum_3d</text>
</a>
</g>
</g>
<!-- Node103 -->
<g id="node2" class="node"><title>Node103</title>
<g id="a_node2"><a xlink:href="namespacemom__coms.html#a3fe107391eb9d2c199eb09e451f4dbb2" target="_top" xlink:title=" ">
<polygon fill="white" stroke="black" points="142.5,-278.5 142.5,-297.5 257.5,-297.5 257.5,-278.5 142.5,-278.5"/>
<text text-anchor="middle" x="200" y="-285.5" font-family="Helvetica,sans-Serif" font-size="10.00">mom_coms::carry_overflow</text>
</a>
</g>
</g>
<!-- Node102&#45;&gt;Node103 -->
<g id="edge1" class="edge"><title>Node102&#45;&gt;Node103</title>
<path fill="none" stroke="midnightblue" d="M60.6251,-158.174C72.8852,-184.528 101.595,-238.826 142,-269 144.51,-270.874 147.215,-272.57 150.036,-274.104"/>
<polygon fill="midnightblue" stroke="midnightblue" points="148.798,-277.39 159.338,-278.47 151.773,-271.053 148.798,-277.39"/>
</g>
<!-- Node104 -->
<g id="node3" class="node"><title>Node104</title>
<g id="a_node3"><a xlink:href="namespacemom__coms.html#a8228dee8e8e72652d5a58f483f0dc661" target="_top" xlink:title=" ">
<polygon fill="white" stroke="black" points="143,-240.5 143,-259.5 257,-259.5 257,-240.5 143,-240.5"/>
<text text-anchor="middle" x="200" y="-247.5" font-family="Helvetica,sans-Serif" font-size="10.00">mom_coms::increment_ints</text>
</a>
</g>
</g>
<!-- Node102&#45;&gt;Node104 -->
<g id="edge2" class="edge"><title>Node102&#45;&gt;Node104</title>
<path fill="none" stroke="midnightblue" d="M65.8136,-158.294C81.3748,-177.496 110.482,-210.303 142,-230 145.856,-232.41 150.041,-234.577 154.333,-236.515"/>
<polygon fill="midnightblue" stroke="midnightblue" points="153.233,-239.846 163.813,-240.395 155.884,-233.368 153.233,-239.846"/>
</g>
<!-- Node105 -->
<g id="node4" class="node"><title>Node105</title>
<g id="a_node4"><a xlink:href="namespacemom__coms.html#aebe91f9c9bd6de5e9523c1f663e8a04d" target="_top" xlink:title=" ">
<polygon fill="white" stroke="black" points="151,-191 151,-221 249,-221 249,-191 151,-191"/>
<text text-anchor="start" x="159" y="-209" font-family="Helvetica,sans-Serif" font-size="10.00">mom_coms::increment</text>
<text text-anchor="middle" x="200" y="-198" font-family="Helvetica,sans-Serif" font-size="10.00">_ints_faster</text>
</a>
</g>
</g>
<!-- Node102&#45;&gt;Node105 -->
<g id="edge3" class="edge"><title>Node102&#45;&gt;Node105</title>
<path fill="none" stroke="midnightblue" d="M88.7311,-158.09C108.566,-166.708 133.634,-177.6 154.855,-186.82"/>
<polygon fill="midnightblue" stroke="midnightblue" points="153.735,-190.149 164.301,-190.924 156.524,-183.729 153.735,-190.149"/>
</g>
<!-- Node106 -->
<g id="node5" class="node"><title>Node106</title>
<g id="a_node5"><a xlink:href="namespacemom__coms.html#a24ac5b7cc37b1498f23b61eea03fb8c3" target="_top" xlink:title=" ">
<polygon fill="white" stroke="black" points="148,-152.5 148,-171.5 252,-171.5 252,-152.5 148,-152.5"/>
<text text-anchor="middle" x="200" y="-159.5" font-family="Helvetica,sans-Serif" font-size="10.00">mom_coms::ints_to_real</text>
</a>
</g>
</g>
<!-- Node102&#45;&gt;Node106 -->
<g id="edge4" class="edge"><title>Node102&#45;&gt;Node106</title>
<path fill="none" stroke="midnightblue" d="M105.53,-149.752C115.893,-151.11 126.882,-152.55 137.544,-153.947"/>
<polygon fill="midnightblue" stroke="midnightblue" points="137.266,-157.441 147.636,-155.27 138.176,-150.5 137.266,-157.441"/>
</g>
<!-- Node107 -->
<g id="node6" class="node"><title>Node107</title>
<g id="a_node6"><a xlink:href="namespacemom__error__handler.html#a460cfb79a06c29fc249952c2a3710d67" target="_top" xlink:title=" ">
<polygon fill="white" stroke="black" points="294.5,-82 294.5,-112 387.5,-112 387.5,-82 294.5,-82"/>
<text text-anchor="start" x="302.5" y="-100" font-family="Helvetica,sans-Serif" font-size="10.00">mom_error_handler::</text>
<text text-anchor="middle" x="341" y="-89" font-family="Helvetica,sans-Serif" font-size="10.00">mom_error</text>
</a>
</g>
</g>
<!-- Node102&#45;&gt;Node107 -->
<g id="edge5" class="edge"><title>Node102&#45;&gt;Node107</title>
<path fill="none" stroke="midnightblue" d="M105.792,-134.67C156.197,-126.563 232.548,-114.283 284.257,-105.966"/>
<polygon fill="midnightblue" stroke="midnightblue" points="284.938,-109.401 294.255,-104.358 283.826,-102.49 284.938,-109.401"/>
</g>
<!-- Node109 -->
<g id="node8" class="node"><title>Node109</title>
<g id="a_node8"><a xlink:href="namespacemom__error__handler.html#a1c462df7b61f1296407b4af51dfeceab" target="_top" xlink:title=" ">
<polygon fill="white" stroke="black" points="294.5,-33 294.5,-63 387.5,-63 387.5,-33 294.5,-33"/>
<text text-anchor="start" x="302.5" y="-51" font-family="Helvetica,sans-Serif" font-size="10.00">mom_error_handler::</text>
<text text-anchor="middle" x="341" y="-40" font-family="Helvetica,sans-Serif" font-size="10.00">mom_mesg</text>
</a>
</g>
</g>
<!-- Node102&#45;&gt;Node109 -->
<g id="edge7" class="edge"><title>Node102&#45;&gt;Node109</title>
<path fill="none" stroke="midnightblue" d="M66.1646,-127.916C81.6585,-109.921 110.26,-80.5699 142,-67 187.225,-47.6648 243.416,-43.9632 284.372,-44.4842"/>
<polygon fill="midnightblue" stroke="midnightblue" points="284.368,-47.9848 294.441,-44.7007 284.518,-40.9865 284.368,-47.9848"/>
</g>
<!-- Node110 -->
<g id="node9" class="node"><title>Node110</title>
<g id="a_node9"><a xlink:href="namespacemom__coms.html#a0cc261620495abf3313937726883b95e" target="_top" xlink:title=" ">
<polygon fill="white" stroke="black" points="148,-76.5 148,-95.5 252,-95.5 252,-76.5 148,-76.5"/>
<text text-anchor="middle" x="200" y="-83.5" font-family="Helvetica,sans-Serif" font-size="10.00">mom_coms::real_to_ints</text>
</a>
</g>
</g>
<!-- Node102&#45;&gt;Node110 -->
<g id="edge9" class="edge"><title>Node102&#45;&gt;Node110</title>
<path fill="none" stroke="midnightblue" d="M92.4767,-127.875C115.031,-119.008 143.268,-107.909 165.002,-99.3649"/>
<polygon fill="midnightblue" stroke="midnightblue" points="166.46,-102.552 174.486,-95.6365 163.899,-96.0377 166.46,-102.552"/>
</g>
<!-- Node111 -->
<g id="node10" class="node"><title>Node111</title>
<g id="a_node10"><a xlink:href="namespacemom__coms.html#ab8feff19e782af36bb7ccccd5ba9eddc" target="_top" xlink:title=" ">
<polygon fill="white" stroke="black" points="143,-0.5 143,-19.5 257,-19.5 257,-0.5 143,-0.5"/>
<text text-anchor="middle" x="200" y="-7.5" font-family="Helvetica,sans-Serif" font-size="10.00">mom_coms::regularize_ints</text>
</a>
</g>
</g>
<!-- Node102&#45;&gt;Node111 -->
<g id="edge11" class="edge"><title>Node102&#45;&gt;Node111</title>
<path fill="none" stroke="midnightblue" d="M62.7103,-127.993C76.7491,-104.961 106.436,-60.76 142,-34 147.18,-30.1024 153.087,-26.7083 159.09,-23.797"/>
<polygon fill="midnightblue" stroke="midnightblue" points="160.791,-26.8716 168.512,-19.6166 157.952,-20.4731 160.791,-26.8716"/>
</g>
<!-- Node108 -->
<g id="node7" class="node"><title>Node108</title>
<g id="a_node7"><a xlink:href="namespacemom__error__handler.html#ad5f00a53059c72fe2332d1436c80ca71" target="_top" xlink:title=" ">
<polygon fill="white" stroke="black" points="424.5,-57 424.5,-87 517.5,-87 517.5,-57 424.5,-57"/>
<text text-anchor="start" x="432.5" y="-75" font-family="Helvetica,sans-Serif" font-size="10.00">mom_error_handler::</text>
<text text-anchor="middle" x="471" y="-64" font-family="Helvetica,sans-Serif" font-size="10.00">is_root_pe</text>
</a>
</g>
</g>
<!-- Node107&#45;&gt;Node108 -->
<g id="edge6" class="edge"><title>Node107&#45;&gt;Node108</title>
<path fill="none" stroke="midnightblue" d="M387.849,-88.045C396.501,-86.3552 405.636,-84.5712 414.545,-82.8311"/>
<polygon fill="midnightblue" stroke="midnightblue" points="415.327,-86.2445 424.471,-80.8924 413.985,-79.3743 415.327,-86.2445"/>
</g>
<!-- Node109&#45;&gt;Node108 -->
<g id="edge8" class="edge"><title>Node109&#45;&gt;Node108</title>
<path fill="none" stroke="midnightblue" d="M387.849,-56.5968C396.501,-58.219 405.636,-59.9317 414.545,-61.6022"/>
<polygon fill="midnightblue" stroke="midnightblue" points="413.997,-65.0603 424.471,-63.4633 415.287,-58.1802 413.997,-65.0603"/>
</g>
<!-- Node110&#45;&gt;Node107 -->
<g id="edge10" class="edge"><title>Node110&#45;&gt;Node107</title>
<path fill="none" stroke="midnightblue" d="M252.364,-90.0647C262.688,-90.8818 273.586,-91.7442 284.058,-92.5729"/>
<polygon fill="midnightblue" stroke="midnightblue" points="284.104,-96.0875 294.349,-93.3874 284.657,-89.1093 284.104,-96.0875"/>
</g>
</g>
</svg>
