<?xml version="1.0" encoding="UTF-8" standalone="no"?>
<!DOCTYPE svg PUBLIC "-//W3C//DTD SVG 1.1//EN"
 "http://www.w3.org/Graphics/SVG/1.1/DTD/svg11.dtd">
<!-- Generated by graphviz version 2.30.1 (20170916.1124)
 -->
<!-- Title: mom_checksums::chksum_h_2d Pages: 1 -->
<svg width="546pt" height="154pt"
 viewBox="0.00 0.00 546.00 154.00" xmlns="http://www.w3.org/2000/svg" xmlns:xlink="http://www.w3.org/1999/xlink">
<g id="graph0" class="graph" transform="scale(1 1) rotate(0) translate(4 150)">
<title>mom_checksums::chksum_h_2d</title>
<polygon fill="white" stroke="white" points="-4,5 -4,-150 543,-150 543,5 -4,5"/>
<!-- Node51 -->
<g id="node1" class="node"><title>Node51</title>
<g id="a_node1"><a xlink:title="chksum_h_2d performs checksums on a 2d array staggered at tracer points.">
<polygon fill="#bfbfbf" stroke="black" points="0,-60.5 0,-79.5 132,-79.5 132,-60.5 0,-60.5"/>
<text text-anchor="middle" x="66" y="-67.5" font-family="Helvetica,sans-Serif" font-size="10.00">mom_checksums::chksum_h_2d</text>
</a>
</g>
</g>
<!-- Node52 -->
<g id="node2" class="node"><title>Node52</title>
<g id="a_node2"><a xlink:href="namespacemom__checksums.html#a6400a8423305b77e4aed5d1cb4c24520" target="_top" xlink:title=" ">
<polygon fill="white" stroke="black" points="168,-77 168,-107 278,-107 278,-77 168,-77"/>
<text text-anchor="start" x="176" y="-95" font-family="Helvetica,sans-Serif" font-size="10.00">mom_checksums::chksum</text>
<text text-anchor="middle" x="223" y="-84" font-family="Helvetica,sans-Serif" font-size="10.00">_error</text>
</a>
</g>
</g>
<!-- Node51&#45;&gt;Node52 -->
<g id="edge1" class="edge"><title>Node51&#45;&gt;Node52</title>
<path fill="none" stroke="midnightblue" d="M132.285,-79.2662C140.637,-80.4517 149.184,-81.6648 157.523,-82.8484"/>
<polygon fill="midnightblue" stroke="midnightblue" points="157.173,-86.3337 167.566,-84.2738 158.157,-79.4032 157.173,-86.3337"/>
</g>
<!-- Node54 -->
<g id="node4" class="node"><title>Node54</title>
<g id="a_node4"><a xlink:href="namespacemom__error__handler.html#ad5f00a53059c72fe2332d1436c80ca71" target="_top" xlink:title=" ">
<polygon fill="white" stroke="black" points="444.5,-77 444.5,-107 537.5,-107 537.5,-77 444.5,-77"/>
<text text-anchor="start" x="452.5" y="-95" font-family="Helvetica,sans-Serif" font-size="10.00">mom_error_handler::</text>
<text text-anchor="middle" x="491" y="-84" font-family="Helvetica,sans-Serif" font-size="10.00">is_root_pe</text>
</a>
</g>
</g>
<!-- Node51&#45;&gt;Node54 -->
<g id="edge4" class="edge"><title>Node51&#45;&gt;Node54</title>
<path fill="none" stroke="midnightblue" d="M132.157,-63.4159C201.094,-57.8485 312.845,-52.817 408,-67 418.374,-68.5463 429.251,-71.136 439.568,-74.0773"/>
<polygon fill="midnightblue" stroke="midnightblue" points="438.669,-77.4616 449.253,-76.9826 440.68,-70.7568 438.669,-77.4616"/>
</g>
<!-- Node55 -->
<g id="node5" class="node"><title>Node55</title>
<g id="a_node5"><a xlink:href="MOM__checksums_8F90.html#a5a04c2e73a1777726a6d2a533911540e" target="_top" xlink:title=" ">
<polygon fill="white" stroke="black" points="202.5,-0.5 202.5,-19.5 243.5,-19.5 243.5,-0.5 202.5,-0.5"/>
<text text-anchor="middle" x="223" y="-7.5" font-family="Helvetica,sans-Serif" font-size="10.00">subchk</text>
</a>
</g>
</g>
<!-- Node51&#45;&gt;Node55 -->
<g id="edge5" class="edge"><title>Node51&#45;&gt;Node55</title>
<path fill="none" stroke="midnightblue" d="M91.5602,-60.4928C119.05,-49.8517 163.561,-32.6215 192.807,-21.3004"/>
<polygon fill="midnightblue" stroke="midnightblue" points="194.4,-24.4369 202.462,-17.5629 191.873,-17.909 194.4,-24.4369"/>
</g>
<!-- Node58 -->
<g id="node8" class="node"><title>Node58</title>
<g id="a_node8"><a xlink:href="MOM__checksums_8F90.html#a685f6e54ff8cc7aed965d24213f895f1" target="_top" xlink:title=" ">
<polygon fill="white" stroke="black" points="338,-126.5 338,-145.5 384,-145.5 384,-126.5 338,-126.5"/>
<text text-anchor="middle" x="361" y="-133.5" font-family="Helvetica,sans-Serif" font-size="10.00">substats</text>
</a>
</g>
</g>
<!-- Node51&#45;&gt;Node58 -->
<g id="edge8" class="edge"><title>Node51&#45;&gt;Node58</title>
<path fill="none" stroke="midnightblue" d="M83.5262,-79.5579C103.029,-90.3484 136.765,-107.504 168,-116 222.833,-130.915 289.259,-134.846 327.866,-135.801"/>
<polygon fill="midnightblue" stroke="midnightblue" points="327.919,-139.302 337.985,-135.998 328.055,-132.304 327.919,-139.302"/>
</g>
<!-- Node53 -->
<g id="node3" class="node"><title>Node53</title>
<g id="a_node3"><a xlink:href="namespacemom__error__handler.html#a460cfb79a06c29fc249952c2a3710d67" target="_top" xlink:title=" ">
<polygon fill="white" stroke="black" points="314.5,-77 314.5,-107 407.5,-107 407.5,-77 314.5,-77"/>
<text text-anchor="start" x="322.5" y="-95" font-family="Helvetica,sans-Serif" font-size="10.00">mom_error_handler::</text>
<text text-anchor="middle" x="361" y="-84" font-family="Helvetica,sans-Serif" font-size="10.00">mom_error</text>
</a>
</g>
</g>
<!-- Node52&#45;&gt;Node53 -->
<g id="edge2" class="edge"><title>Node52&#45;&gt;Node53</title>
<path fill="none" stroke="midnightblue" d="M278.142,-92C286.767,-92 295.702,-92 304.361,-92"/>
<polygon fill="midnightblue" stroke="midnightblue" points="304.364,-95.5001 314.364,-92 304.364,-88.5001 304.364,-95.5001"/>
</g>
<!-- Node53&#45;&gt;Node54 -->
<g id="edge3" class="edge"><title>Node53&#45;&gt;Node54</title>
<path fill="none" stroke="midnightblue" d="M407.849,-92C416.408,-92 425.439,-92 434.258,-92"/>
<polygon fill="midnightblue" stroke="midnightblue" points="434.471,-95.5001 444.471,-92 434.471,-88.5001 434.471,-95.5001"/>
</g>
<!-- Node56 -->
<g id="node6" class="node"><title>Node56</title>
<g id="a_node6"><a xlink:href="bitcount_8c.html#a1a85442e9619e6567aff105d1e220d79" target="_top" xlink:title=" ">
<polygon fill="white" stroke="black" points="339,-0.5 339,-19.5 383,-19.5 383,-0.5 339,-0.5"/>
<text text-anchor="middle" x="361" y="-7.5" font-family="Helvetica,sans-Serif" font-size="10.00">bitcount</text>
</a>
</g>
</g>
<!-- Node55&#45;&gt;Node56 -->
<g id="edge6" class="edge"><title>Node55&#45;&gt;Node56</title>
<path fill="none" stroke="midnightblue" d="M243.776,-10C266.049,-10 302.546,-10 328.7,-10"/>
<polygon fill="midnightblue" stroke="midnightblue" points="328.857,-13.5001 338.857,-10 328.857,-6.5001 328.857,-13.5001"/>
</g>
<!-- Node57 -->
<g id="node7" class="node"><title>Node57</title>
<g id="a_node7"><a xlink:href="bitcount_8c.html#a477f7151726da4134659eb88f6296c66" target="_top" xlink:title=" ">
<polygon fill="white" stroke="black" points="466.5,-0.5 466.5,-19.5 515.5,-19.5 515.5,-0.5 466.5,-0.5"/>
<text text-anchor="middle" x="491" y="-7.5" font-family="Helvetica,sans-Serif" font-size="10.00">bitcount_</text>
</a>
</g>
</g>
<!-- Node56&#45;&gt;Node57 -->
<g id="edge7" class="edge"><title>Node56&#45;&gt;Node57</title>
<path fill="none" stroke="midnightblue" d="M383.137,-10C402.964,-10 432.95,-10 456.116,-10"/>
<polygon fill="midnightblue" stroke="midnightblue" points="456.22,-13.5001 466.219,-10 456.219,-6.5001 456.22,-13.5001"/>
</g>
<!-- Node58&#45;&gt;Node54 -->
<g id="edge9" class="edge"><title>Node58&#45;&gt;Node54</title>
<path fill="none" stroke="midnightblue" d="M384.004,-128.436C398.552,-123.435 418.282,-116.653 436.777,-110.296"/>
<polygon fill="midnightblue" stroke="midnightblue" points="437.982,-113.582 446.301,-107.021 435.707,-106.962 437.982,-113.582"/>
</g>
</g>
</svg>
