<?xml version="1.0" encoding="UTF-8" standalone="no"?>
<!DOCTYPE svg PUBLIC "-//W3C//DTD SVG 1.1//EN"
 "http://www.w3.org/Graphics/SVG/1.1/DTD/svg11.dtd">
<!-- Generated by graphviz version 2.30.1 (20170916.1124)
 -->
<!-- Title: mom_file_parser::lastnoncommentindex Pages: 1 -->
<svg width="1220pt" height="197pt"
 viewBox="0.00 0.00 1220.00 196.64" xmlns="http://www.w3.org/2000/svg" xmlns:xlink="http://www.w3.org/1999/xlink">
<g id="graph0" class="graph" transform="scale(1 1) rotate(0) translate(4 192.637)">
<title>mom_file_parser::lastnoncommentindex</title>
<polygon fill="white" stroke="white" points="-4,5 -4,-192.637 1217,-192.637 1217,5 -4,5"/>
<!-- Node155 -->
<g id="node1" class="node"><title>Node155</title>
<g id="a_node1"><a xlink:title=" ">
<polygon fill="#bfbfbf" stroke="black" points="1054,-74.1368 1054,-93.1368 1212,-93.1368 1212,-74.1368 1054,-74.1368"/>
<text text-anchor="middle" x="1133" y="-81.1368" font-family="Helvetica,sans-Serif" font-size="10.00">mom_file_parser::lastnoncommentindex</text>
</a>
</g>
</g>
<!-- Node156 -->
<g id="node2" class="node"><title>Node156</title>
<g id="a_node2"><a xlink:href="namespacemom__file__parser.html#ab4b89d9420e174185db1c6aa3feb948b" target="_top" xlink:title=" ">
<polygon fill="white" stroke="black" points="846,-93.1368 846,-112.137 1018,-112.137 1018,-93.1368 846,-93.1368"/>
<text text-anchor="middle" x="932" y="-100.137" font-family="Helvetica,sans-Serif" font-size="10.00">mom_file_parser::lastnoncommentnonblank</text>
</a>
</g>
</g>
<!-- Node155&#45;&gt;Node156 -->
<g id="edge1" class="edge"><title>Node155&#45;&gt;Node156</title>
<path fill="none" stroke="midnightblue" d="M1043.91,-92.0469C1035.33,-92.8663 1026.64,-93.6967 1018.08,-94.5132"/>
<polygon fill="midnightblue" stroke="midnightblue" points="1044.3,-95.5263 1053.92,-91.0916 1043.63,-88.558 1044.3,-95.5263"/>
</g>
<!-- Node168 -->
<g id="node14" class="node"><title>Node168</title>
<g id="a_node14"><a xlink:href="namespacemom__file__parser.html#a476a2649ce161e38088588e07f7df130" target="_top" xlink:title=" ">
<polygon fill="white" stroke="black" points="648.5,-55.1368 648.5,-74.1368 809.5,-74.1368 809.5,-55.1368 648.5,-55.1368"/>
<text text-anchor="middle" x="729" y="-62.1368" font-family="Helvetica,sans-Serif" font-size="10.00">mom_file_parser::openmultilinecomment</text>
</a>
</g>
</g>
<!-- Node155&#45;&gt;Node168 -->
<g id="edge17" class="edge"><title>Node155&#45;&gt;Node168</title>
<path fill="none" stroke="midnightblue" d="M1043.43,-79.4508C973.594,-76.1499 877.059,-71.5873 809.64,-68.4009"/>
<polygon fill="midnightblue" stroke="midnightblue" points="1043.38,-82.9522 1053.54,-79.9283 1043.71,-75.96 1043.38,-82.9522"/>
</g>
<!-- Node157 -->
<g id="node3" class="node"><title>Node157</title>
<g id="a_node3"><a xlink:href="namespacemom__file__parser.html#a7abfd98d7f0831fc0d1f3747a68f1be9" target="_top" xlink:title=" ">
<polygon fill="white" stroke="black" points="500,-87.6368 500,-117.637 612,-117.637 612,-87.6368 500,-87.6368"/>
<text text-anchor="start" x="508" y="-105.637" font-family="Helvetica,sans-Serif" font-size="10.00">mom_file_parser::populate</text>
<text text-anchor="middle" x="556" y="-94.6368" font-family="Helvetica,sans-Serif" font-size="10.00">_param_data</text>
</a>
</g>
</g>
<!-- Node156&#45;&gt;Node157 -->
<g id="edge2" class="edge"><title>Node156&#45;&gt;Node157</title>
<path fill="none" stroke="midnightblue" d="M871.75,-113.827C852.168,-117.02 830.219,-120.059 810,-121.637 738.218,-127.238 719.619,-129.034 648,-121.637 636.281,-120.426 623.845,-118.361 612.056,-116.027"/>
<polygon fill="midnightblue" stroke="midnightblue" points="872.47,-117.255 881.753,-112.15 871.312,-110.351 872.47,-117.255"/>
</g>
<!-- Node167 -->
<g id="node13" class="node"><title>Node167</title>
<g id="a_node13"><a xlink:href="namespacemom__file__parser.html#ae0b982cc161173a401291757a6677373" target="_top" xlink:title=" ">
<polygon fill="white" stroke="black" points="656.5,-93.1368 656.5,-112.137 801.5,-112.137 801.5,-93.1368 656.5,-93.1368"/>
<text text-anchor="middle" x="729" y="-100.137" font-family="Helvetica,sans-Serif" font-size="10.00">mom_file_parser::removecomments</text>
</a>
</g>
</g>
<!-- Node156&#45;&gt;Node167 -->
<g id="edge15" class="edge"><title>Node156&#45;&gt;Node167</title>
<path fill="none" stroke="midnightblue" d="M835.741,-102.637C824.299,-102.637 812.767,-102.637 801.739,-102.637"/>
<polygon fill="midnightblue" stroke="midnightblue" points="835.758,-106.137 845.758,-102.637 835.758,-99.1369 835.758,-106.137"/>
</g>
<!-- Node158 -->
<g id="node4" class="node"><title>Node158</title>
<g id="a_node4"><a xlink:href="namespacemom__file__parser.html#abecae1b9386aafa17aec927af1f8c448" target="_top" xlink:title=" ">
<polygon fill="white" stroke="black" points="364.5,-87.6368 364.5,-117.637 463.5,-117.637 463.5,-87.6368 364.5,-87.6368"/>
<text text-anchor="start" x="372.5" y="-105.637" font-family="Helvetica,sans-Serif" font-size="10.00">mom_file_parser::open</text>
<text text-anchor="middle" x="414" y="-94.6368" font-family="Helvetica,sans-Serif" font-size="10.00">_param_file</text>
</a>
</g>
</g>
<!-- Node157&#45;&gt;Node158 -->
<g id="edge3" class="edge"><title>Node157&#45;&gt;Node158</title>
<path fill="none" stroke="midnightblue" d="M489.5,-102.637C480.773,-102.637 471.953,-102.637 463.585,-102.637"/>
<polygon fill="midnightblue" stroke="midnightblue" points="489.668,-106.137 499.668,-102.637 489.668,-99.1369 489.668,-106.137"/>
</g>
<!-- Node159 -->
<g id="node5" class="node"><title>Node159</title>
<g id="a_node5"><a xlink:href="MOM__sum__driver_8F90.html#a08fffeb2d8e8acbf9ed4609be6d258c6" target="_top" xlink:title=" ">
<polygon fill="white" stroke="black" points="256,-115.137 256,-134.137 312,-134.137 312,-115.137 256,-115.137"/>
<text text-anchor="middle" x="284" y="-122.137" font-family="Helvetica,sans-Serif" font-size="10.00">mom_main</text>
</a>
</g>
</g>
<!-- Node158&#45;&gt;Node159 -->
<g id="edge4" class="edge"><title>Node158&#45;&gt;Node159</title>
<path fill="none" stroke="midnightblue" d="M354.173,-112.748C339.488,-115.272 324.436,-117.859 312.139,-119.972"/>
<polygon fill="midnightblue" stroke="midnightblue" points="354.981,-116.16 364.244,-111.017 353.795,-109.261 354.981,-116.16"/>
</g>
<!-- Node160 -->
<g id="node6" class="node"><title>Node160</title>
<g id="a_node6"><a xlink:href="namespacemom__get__input.html#a299c5b9476662ef1a382e23a8d078143" target="_top" xlink:title=" ">
<polygon fill="white" stroke="black" points="240,-65.6368 240,-95.6368 328,-95.6368 328,-65.6368 240,-65.6368"/>
<text text-anchor="start" x="248" y="-83.6368" font-family="Helvetica,sans-Serif" font-size="10.00">mom_get_input::get</text>
<text text-anchor="middle" x="284" y="-72.6368" font-family="Helvetica,sans-Serif" font-size="10.00">_mom_input</text>
</a>
</g>
</g>
<!-- Node158&#45;&gt;Node160 -->
<g id="edge5" class="edge"><title>Node158&#45;&gt;Node160</title>
<path fill="none" stroke="midnightblue" d="M354.377,-92.5609C345.554,-91.0445 336.594,-89.5044 328.173,-88.0572"/>
<polygon fill="midnightblue" stroke="midnightblue" points="353.795,-96.0122 364.244,-94.2568 354.981,-89.1134 353.795,-96.0122"/>
</g>
<!-- Node161 -->
<g id="node7" class="node"><title>Node161</title>
<g id="a_node7"><a xlink:href="namespacemom__surface__forcing.html#a08ab046cc02cb51f5045c8efa7337f65" target="_top" xlink:title=" ">
<polygon fill="white" stroke="black" points="101,-158.637 101,-188.637 195,-188.637 195,-158.637 101,-158.637"/>
<text text-anchor="start" x="109" y="-176.637" font-family="Helvetica,sans-Serif" font-size="10.00">mom_surface_forcing</text>
<text text-anchor="middle" x="148" y="-165.637" font-family="Helvetica,sans-Serif" font-size="10.00">::surface_forcing_init</text>
</a>
</g>
</g>
<!-- Node160&#45;&gt;Node161 -->
<g id="edge6" class="edge"><title>Node160&#45;&gt;Node161</title>
<path fill="none" stroke="midnightblue" d="M245.398,-101.412C243.529,-102.779 241.717,-104.19 240,-105.637 220.94,-121.697 223.839,-133.549 204,-148.637 199.158,-152.319 193.687,-155.617 188.12,-158.514"/>
<polygon fill="midnightblue" stroke="midnightblue" points="247.51,-104.209 253.851,-95.7211 243.601,-98.403 247.51,-104.209"/>
</g>
<!-- Node163 -->
<g id="node9" class="node"><title>Node163</title>
<g id="a_node9"><a xlink:href="namespaceocean__model__mod.html#a6b00b9a33be391bb23668abbfa4d99c6" target="_top" xlink:title=" ">
<polygon fill="white" stroke="black" points="92.5,-109.637 92.5,-139.637 203.5,-139.637 203.5,-109.637 92.5,-109.637"/>
<text text-anchor="start" x="100.5" y="-127.637" font-family="Helvetica,sans-Serif" font-size="10.00">ocean_model_mod::ocean</text>
<text text-anchor="middle" x="148" y="-116.637" font-family="Helvetica,sans-Serif" font-size="10.00">_model_flux_init</text>
</a>
</g>
</g>
<!-- Node160&#45;&gt;Node163 -->
<g id="edge8" class="edge"><title>Node160&#45;&gt;Node163</title>
<path fill="none" stroke="midnightblue" d="M230.216,-97.969C218.52,-101.809 206.219,-105.848 194.828,-109.589"/>
<polygon fill="midnightblue" stroke="midnightblue" points="231.455,-101.246 239.864,-94.8009 229.271,-94.5953 231.455,-101.246"/>
</g>
<!-- Node164 -->
<g id="node10" class="node"><title>Node164</title>
<g id="a_node10"><a xlink:href="ice__shelf__driver_8F90.html#aec5bef92f0dad343f545cd8d62e378d8" target="_top" xlink:title=" ">
<polygon fill="white" stroke="black" points="0.5,-5.13679 0.5,-24.1368 55.5,-24.1368 55.5,-5.13679 0.5,-5.13679"/>
<text text-anchor="middle" x="28" y="-12.1368" font-family="Helvetica,sans-Serif" font-size="10.00">shelf_main</text>
</a>
</g>
</g>
<!-- Node160&#45;&gt;Node164 -->
<g id="edge9" class="edge"><title>Node160&#45;&gt;Node164</title>
<path fill="none" stroke="midnightblue" d="M264.682,-57.5421C250.193,-41.2607 228.391,-20.789 204,-11.6368 154.213,7.04438 90.7167,-1.21702 55.5197,-8.31516"/>
<polygon fill="midnightblue" stroke="midnightblue" points="262.407,-60.2676 271.567,-65.5922 267.727,-55.7177 262.407,-60.2676"/>
</g>
<!-- Node165 -->
<g id="node11" class="node"><title>Node165</title>
<g id="a_node11"><a xlink:href="namespacemom.html#a0be2869fef30e1e0604facfe1b41555d" target="_top" xlink:title="This subroutine initializes MOM.">
<polygon fill="white" stroke="black" points="103.5,-71.1368 103.5,-90.1368 192.5,-90.1368 192.5,-71.1368 103.5,-71.1368"/>
<text text-anchor="middle" x="148" y="-78.1368" font-family="Helvetica,sans-Serif" font-size="10.00">mom::initialize_mom</text>
</a>
</g>
</g>
<!-- Node160&#45;&gt;Node165 -->
<g id="edge10" class="edge"><title>Node160&#45;&gt;Node165</title>
<path fill="none" stroke="midnightblue" d="M229.693,-80.6368C217.357,-80.6368 204.374,-80.6368 192.515,-80.6368"/>
<polygon fill="midnightblue" stroke="midnightblue" points="229.864,-84.1369 239.864,-80.6368 229.864,-77.1369 229.864,-84.1369"/>
</g>
<!-- Node166 -->
<g id="node12" class="node"><title>Node166</title>
<g id="a_node12"><a xlink:href="namespacemom__ice__shelf.html#ae315e8464ef8a20062e3bccb61886755" target="_top" xlink:title=" ">
<polygon fill="white" stroke="black" points="97.5,-21.6368 97.5,-51.6368 198.5,-51.6368 198.5,-21.6368 97.5,-21.6368"/>
<text text-anchor="start" x="105.5" y="-39.6368" font-family="Helvetica,sans-Serif" font-size="10.00">mom_ice_shelf::initialize</text>
<text text-anchor="middle" x="148" y="-28.6368" font-family="Helvetica,sans-Serif" font-size="10.00">_ice_shelf</text>
</a>
</g>
</g>
<!-- Node160&#45;&gt;Node166 -->
<g id="edge12" class="edge"><title>Node160&#45;&gt;Node166</title>
<path fill="none" stroke="midnightblue" d="M230.216,-63.3046C218.52,-59.4644 206.219,-55.4252 194.828,-51.6849"/>
<polygon fill="midnightblue" stroke="midnightblue" points="229.271,-66.6783 239.864,-66.4727 231.455,-60.0276 229.271,-66.6783"/>
</g>
<!-- Node162 -->
<g id="node8" class="node"><title>Node162</title>
<g id="a_node8"><a xlink:href="MOM__driver_8F90.html#a08fffeb2d8e8acbf9ed4609be6d258c6" target="_top" xlink:title=" ">
<polygon fill="white" stroke="black" points="0,-71.1368 0,-90.1368 56,-90.1368 56,-71.1368 0,-71.1368"/>
<text text-anchor="middle" x="28" y="-78.1368" font-family="Helvetica,sans-Serif" font-size="10.00">mom_main</text>
</a>
</g>
</g>
<!-- Node161&#45;&gt;Node162 -->
<g id="edge7" class="edge"><title>Node161&#45;&gt;Node162</title>
<path fill="none" stroke="midnightblue" d="M99.7931,-153.735C97.0914,-152.122 94.4719,-150.421 92,-148.637 68.5093,-131.685 46.9062,-104.954 36.1496,-90.5758"/>
<polygon fill="midnightblue" stroke="midnightblue" points="98.1726,-156.839 108.622,-158.589 101.545,-150.704 98.1726,-156.839"/>
</g>
<!-- Node165&#45;&gt;Node162 -->
<g id="edge11" class="edge"><title>Node165&#45;&gt;Node162</title>
<path fill="none" stroke="midnightblue" d="M93.2616,-80.6368C80.4778,-80.6368 67.3619,-80.6368 56.3403,-80.6368"/>
<polygon fill="midnightblue" stroke="midnightblue" points="93.3964,-84.1369 103.396,-80.6368 93.3964,-77.1369 93.3964,-84.1369"/>
</g>
<!-- Node166&#45;&gt;Node164 -->
<g id="edge13" class="edge"><title>Node166&#45;&gt;Node164</title>
<path fill="none" stroke="midnightblue" d="M87.2126,-25.49C76.1925,-23.4354 65.2089,-21.3876 55.8002,-19.6334"/>
<polygon fill="midnightblue" stroke="midnightblue" points="86.8273,-28.9784 97.2994,-27.3706 88.1103,-22.097 86.8273,-28.9784"/>
</g>
<!-- Node166&#45;&gt;Node162 -->
<g id="edge14" class="edge"><title>Node166&#45;&gt;Node162</title>
<path fill="none" stroke="midnightblue" d="M97.2448,-55.1896C82.5936,-60.6527 67.1626,-66.4067 54.6872,-71.0585"/>
<polygon fill="midnightblue" stroke="midnightblue" points="98.5742,-58.4294 106.721,-51.656 96.1285,-51.8705 98.5742,-58.4294"/>
</g>
<!-- Node167&#45;&gt;Node157 -->
<g id="edge16" class="edge"><title>Node167&#45;&gt;Node157</title>
<path fill="none" stroke="midnightblue" d="M646.327,-102.637C634.731,-102.637 623.041,-102.637 612.113,-102.637"/>
<polygon fill="midnightblue" stroke="midnightblue" points="646.471,-106.137 656.471,-102.637 646.471,-99.1369 646.471,-106.137"/>
</g>
<!-- Node168&#45;&gt;Node157 -->
<g id="edge18" class="edge"><title>Node168&#45;&gt;Node157</title>
<path fill="none" stroke="midnightblue" d="M674.993,-76.4161C655.027,-80.853 632.283,-85.9072 612.128,-90.3862"/>
<polygon fill="midnightblue" stroke="midnightblue" points="675.847,-79.8118 684.849,-74.2258 674.328,-72.9785 675.847,-79.8118"/>
</g>
</g>
</svg>
