<?xml version="1.0" encoding="UTF-8" standalone="no"?>
<!DOCTYPE svg PUBLIC "-//W3C//DTD SVG 1.1//EN"
 "http://www.w3.org/Graphics/SVG/1.1/DTD/svg11.dtd">
<!-- Generated by graphviz version 2.30.1 (20170916.1124)
 -->
<!-- Title: mom_tracer_registry::register_tracer Pages: 1 -->
<svg width="644pt" height="95pt"
 viewBox="0.00 0.00 644.00 95.46" xmlns="http://www.w3.org/2000/svg" xmlns:xlink="http://www.w3.org/1999/xlink">
<g id="graph0" class="graph" transform="scale(1 1) rotate(0) translate(4 91.4558)">
<title>mom_tracer_registry::register_tracer</title>
<polygon fill="white" stroke="white" points="-4,5 -4,-91.4558 641,-91.4558 641,5 -4,5"/>
<!-- Node33 -->
<g id="node1" class="node"><title>Node33</title>
<g id="a_node1"><a xlink:title="This subroutine registers a tracer to be advected and laterally diffused.">
<polygon fill="#bfbfbf" stroke="black" points="0.5,-44 0.5,-74 91.5,-74 91.5,-44 0.5,-44"/>
<text text-anchor="start" x="8.5" y="-62" font-family="Helvetica,sans-Serif" font-size="10.00">mom_tracer_registry</text>
<text text-anchor="middle" x="46" y="-51" font-family="Helvetica,sans-Serif" font-size="10.00">::register_tracer</text>
</a>
</g>
</g>
<!-- Node34 -->
<g id="node2" class="node"><title>Node34</title>
<g id="a_node2"><a xlink:href="namespacemom__error__handler.html#a460cfb79a06c29fc249952c2a3710d67" target="_top" xlink:title=" ">
<polygon fill="white" stroke="black" points="412.5,-44 412.5,-74 505.5,-74 505.5,-44 412.5,-44"/>
<text text-anchor="start" x="420.5" y="-62" font-family="Helvetica,sans-Serif" font-size="10.00">mom_error_handler::</text>
<text text-anchor="middle" x="459" y="-51" font-family="Helvetica,sans-Serif" font-size="10.00">mom_error</text>
</a>
</g>
</g>
<!-- Node33&#45;&gt;Node34 -->
<g id="edge1" class="edge"><title>Node33&#45;&gt;Node34</title>
<path fill="none" stroke="midnightblue" d="M91.6614,-71.4154C103.389,-74.1402 116.091,-76.6219 128,-78 237.492,-90.6697 266.491,-90.5211 376,-78 384.65,-77.011 393.715,-75.4532 402.533,-73.645"/>
<polygon fill="midnightblue" stroke="midnightblue" points="403.32,-77.0559 412.35,-71.514 401.835,-70.2152 403.32,-77.0559"/>
</g>
<!-- Node36 -->
<g id="node4" class="node"><title>Node36</title>
<g id="a_node4"><a xlink:href="namespacemom__io.html#a23e82d1d89d9bb1c9bdf802ce80d4508" target="_top" xlink:title="This routine queries vardesc.">
<polygon fill="white" stroke="black" points="128,-49.5 128,-68.5 230,-68.5 230,-49.5 128,-49.5"/>
<text text-anchor="middle" x="179" y="-56.5" font-family="Helvetica,sans-Serif" font-size="10.00">mom_io::query_vardesc</text>
</a>
</g>
</g>
<!-- Node33&#45;&gt;Node36 -->
<g id="edge3" class="edge"><title>Node33&#45;&gt;Node36</title>
<path fill="none" stroke="midnightblue" d="M91.7164,-59C100.027,-59 108.836,-59 117.526,-59"/>
<polygon fill="midnightblue" stroke="midnightblue" points="117.636,-62.5001 127.636,-59 117.636,-55.5001 117.636,-62.5001"/>
</g>
<!-- Node38 -->
<g id="node6" class="node"><title>Node38</title>
<g id="a_node6"><a xlink:href="namespacemom__tracer__registry.html#a452937bf1f9d01a47d1a80793e317b33" target="_top" xlink:title="This routine include declares and sets the variable &quot;version&quot;.">
<polygon fill="white" stroke="black" points="275.5,-0 275.5,-30 366.5,-30 366.5,-0 275.5,-0"/>
<text text-anchor="start" x="283.5" y="-18" font-family="Helvetica,sans-Serif" font-size="10.00">mom_tracer_registry</text>
<text text-anchor="middle" x="321" y="-7" font-family="Helvetica,sans-Serif" font-size="10.00">::tracer_registry_init</text>
</a>
</g>
</g>
<!-- Node33&#45;&gt;Node38 -->
<g id="edge6" class="edge"><title>Node33&#45;&gt;Node38</title>
<path fill="none" stroke="midnightblue" d="M91.8177,-47.6362C103.544,-44.8972 116.205,-42.1456 128,-40 173.994,-31.6333 226.679,-24.979 265.211,-20.6458"/>
<polygon fill="midnightblue" stroke="midnightblue" points="265.633,-24.1205 275.187,-19.5401 264.862,-17.1631 265.633,-24.1205"/>
</g>
<!-- Node35 -->
<g id="node3" class="node"><title>Node35</title>
<g id="a_node3"><a xlink:href="namespacemom__error__handler.html#ad5f00a53059c72fe2332d1436c80ca71" target="_top" xlink:title=" ">
<polygon fill="white" stroke="black" points="542.5,-22 542.5,-52 635.5,-52 635.5,-22 542.5,-22"/>
<text text-anchor="start" x="550.5" y="-40" font-family="Helvetica,sans-Serif" font-size="10.00">mom_error_handler::</text>
<text text-anchor="middle" x="589" y="-29" font-family="Helvetica,sans-Serif" font-size="10.00">is_root_pe</text>
</a>
</g>
</g>
<!-- Node34&#45;&gt;Node35 -->
<g id="edge2" class="edge"><title>Node34&#45;&gt;Node35</title>
<path fill="none" stroke="midnightblue" d="M505.849,-51.1196C514.501,-49.6326 523.636,-48.0626 532.545,-46.5313"/>
<polygon fill="midnightblue" stroke="midnightblue" points="533.208,-49.9688 542.471,-44.8253 532.022,-43.0699 533.208,-49.9688"/>
</g>
<!-- Node37 -->
<g id="node5" class="node"><title>Node37</title>
<g id="a_node5"><a xlink:href="namespacemom__io.html#ac4bc408e8b38dbd669842753f26ebf88" target="_top" xlink:title="Copies a string.">
<polygon fill="white" stroke="black" points="266,-49.5 266,-68.5 376,-68.5 376,-49.5 266,-49.5"/>
<text text-anchor="middle" x="321" y="-56.5" font-family="Helvetica,sans-Serif" font-size="10.00">mom_io::safe_string_copy</text>
</a>
</g>
</g>
<!-- Node36&#45;&gt;Node37 -->
<g id="edge4" class="edge"><title>Node36&#45;&gt;Node37</title>
<path fill="none" stroke="midnightblue" d="M230.148,-59C238.494,-59 247.251,-59 255.887,-59"/>
<polygon fill="midnightblue" stroke="midnightblue" points="255.938,-62.5001 265.938,-59 255.938,-55.5001 255.938,-62.5001"/>
</g>
<!-- Node37&#45;&gt;Node34 -->
<g id="edge5" class="edge"><title>Node37&#45;&gt;Node34</title>
<path fill="none" stroke="midnightblue" d="M376.142,-59C384.767,-59 393.702,-59 402.361,-59"/>
<polygon fill="midnightblue" stroke="midnightblue" points="402.364,-62.5001 412.364,-59 402.364,-55.5001 402.364,-62.5001"/>
</g>
<!-- Node38&#45;&gt;Node35 -->
<g id="edge7" class="edge"><title>Node38&#45;&gt;Node35</title>
<path fill="none" stroke="midnightblue" d="M366.522,-18.6823C412.088,-22.4509 483.009,-28.3166 532.274,-32.3911"/>
<polygon fill="midnightblue" stroke="midnightblue" points="532.186,-35.8957 542.441,-33.2319 532.763,-28.9195 532.186,-35.8957"/>
</g>
<!-- Node38&#45;&gt;Node34 -->
<g id="edge8" class="edge"><title>Node38&#45;&gt;Node34</title>
<path fill="none" stroke="midnightblue" d="M366.531,-29.4072C378.146,-33.1647 390.801,-37.259 402.891,-41.1707"/>
<polygon fill="midnightblue" stroke="midnightblue" points="401.844,-44.5106 412.436,-44.2588 403.999,-37.8504 401.844,-44.5106"/>
</g>
</g>
</svg>
