<?xml version="1.0" encoding="UTF-8" standalone="no"?>
<!DOCTYPE svg PUBLIC "-//W3C//DTD SVG 1.1//EN"
 "http://www.w3.org/Graphics/SVG/1.1/DTD/svg11.dtd">
<!-- Generated by graphviz version 2.30.1 (20170916.1124)
 -->
<!-- Title: mom_bulk_mixed_layer::sort_ml Pages: 1 -->
<svg width="376pt" height="38pt"
 viewBox="0.00 0.00 376.00 38.00" xmlns="http://www.w3.org/2000/svg" xmlns:xlink="http://www.w3.org/1999/xlink">
<g id="graph0" class="graph" transform="scale(1 1) rotate(0) translate(4 34)">
<title>mom_bulk_mixed_layer::sort_ml</title>
<polygon fill="white" stroke="white" points="-4,5 -4,-34 373,-34 373,5 -4,5"/>
<!-- Node63 -->
<g id="node1" class="node"><title>Node63</title>
<g id="a_node1"><a xlink:title=" ">
<polygon fill="#bfbfbf" stroke="black" points="266.5,-0 266.5,-30 367.5,-30 367.5,-0 266.5,-0"/>
<text text-anchor="start" x="274.5" y="-18" font-family="Helvetica,sans-Serif" font-size="10.00">mom_bulk_mixed_layer</text>
<text text-anchor="middle" x="317" y="-7" font-family="Helvetica,sans-Serif" font-size="10.00">::sort_ml</text>
</a>
</g>
</g>
<!-- Node64 -->
<g id="node2" class="node"><title>Node64</title>
<g id="a_node2"><a xlink:href="namespacemom__bulk__mixed__layer.html#a9c3a37aae75b52453efad11d8c8abbe6" target="_top" xlink:title=" ">
<polygon fill="white" stroke="black" points="128.5,-0 128.5,-30 229.5,-30 229.5,-0 128.5,-0"/>
<text text-anchor="start" x="136.5" y="-18" font-family="Helvetica,sans-Serif" font-size="10.00">mom_bulk_mixed_layer</text>
<text text-anchor="middle" x="179" y="-7" font-family="Helvetica,sans-Serif" font-size="10.00">::bulkmixedlayer</text>
</a>
</g>
</g>
<!-- Node63&#45;&gt;Node64 -->
<g id="edge1" class="edge"><title>Node63&#45;&gt;Node64</title>
<path fill="none" stroke="midnightblue" d="M256,-15C247.271,-15 238.363,-15 229.863,-15"/>
<polygon fill="midnightblue" stroke="midnightblue" points="256.131,-18.5001 266.131,-15 256.131,-11.5001 256.131,-18.5001"/>
</g>
<!-- Node65 -->
<g id="node3" class="node"><title>Node65</title>
<g id="a_node3"><a xlink:href="namespacemom__diabatic__driver.html#a61e57d3902367aa46aa3c2d949ee900f" target="_top" xlink:title="This subroutine imposes the diapycnal mass fluxes and the accompanying diapycnal advection of momentu...">
<polygon fill="white" stroke="black" points="0.5,-0 0.5,-30 91.5,-30 91.5,-0 0.5,-0"/>
<text text-anchor="start" x="8.5" y="-18" font-family="Helvetica,sans-Serif" font-size="10.00">mom_diabatic_driver</text>
<text text-anchor="middle" x="46" y="-7" font-family="Helvetica,sans-Serif" font-size="10.00">::diabatic</text>
</a>
</g>
</g>
<!-- Node64&#45;&gt;Node65 -->
<g id="edge2" class="edge"><title>Node64&#45;&gt;Node65</title>
<path fill="none" stroke="midnightblue" d="M118.473,-15C109.525,-15 100.428,-15 91.8566,-15"/>
<polygon fill="midnightblue" stroke="midnightblue" points="118.475,-18.5001 128.475,-15 118.474,-11.5001 118.475,-18.5001"/>
</g>
</g>
</svg>
