<?xml version="1.0" encoding="UTF-8" standalone="no"?>
<!DOCTYPE svg PUBLIC "-//W3C//DTD SVG 1.1//EN"
 "http://www.w3.org/Graphics/SVG/1.1/DTD/svg11.dtd">
<!-- Generated by graphviz version 2.30.1 (20170916.1124)
 -->
<!-- Title: mom_legacy_barotropic::legacy_set_dtbt Pages: 1 -->
<svg width="380pt" height="185pt"
 viewBox="0.00 0.00 380.00 185.00" xmlns="http://www.w3.org/2000/svg" xmlns:xlink="http://www.w3.org/1999/xlink">
<g id="graph0" class="graph" transform="scale(1 1) rotate(0) translate(4 181)">
<title>mom_legacy_barotropic::legacy_set_dtbt</title>
<polygon fill="white" stroke="white" points="-4,5 -4,-181 377,-181 377,5 -4,5"/>
<!-- Node72 -->
<g id="node1" class="node"><title>Node72</title>
<g id="a_node1"><a xlink:title=" ">
<polygon fill="#bfbfbf" stroke="black" points="0,-73 0,-103 102,-103 102,-73 0,-73"/>
<text text-anchor="start" x="8" y="-91" font-family="Helvetica,sans-Serif" font-size="10.00">mom_legacy_barotropic</text>
<text text-anchor="middle" x="51" y="-80" font-family="Helvetica,sans-Serif" font-size="10.00">::legacy_set_dtbt</text>
</a>
</g>
</g>
<!-- Node73 -->
<g id="node2" class="node"><title>Node73</title>
<g id="a_node2"><a xlink:href="namespacemom__legacy__barotropic.html#aa06249abf57a70498ab07eee534e5e52" target="_top" xlink:title=" ">
<polygon fill="white" stroke="black" points="138.5,-147 138.5,-177 241.5,-177 241.5,-147 138.5,-147"/>
<text text-anchor="start" x="146.5" y="-165" font-family="Helvetica,sans-Serif" font-size="10.00">mom_legacy_barotropic</text>
<text text-anchor="middle" x="190" y="-154" font-family="Helvetica,sans-Serif" font-size="10.00">::bt_cont_to_face_areas</text>
</a>
</g>
</g>
<!-- Node72&#45;&gt;Node73 -->
<g id="edge1" class="edge"><title>Node72&#45;&gt;Node73</title>
<path fill="none" stroke="midnightblue" d="M77.7347,-103.219C94.7022,-113.114 117.497,-126.147 138,-137 141.334,-138.765 144.809,-140.56 148.311,-142.337"/>
<polygon fill="midnightblue" stroke="midnightblue" points="147.049,-145.62 157.558,-146.968 150.184,-139.361 147.049,-145.62"/>
</g>
<!-- Node74 -->
<g id="node3" class="node"><title>Node74</title>
<g id="a_node3"><a xlink:href="namespacemom__legacy__barotropic.html#ab334a4e8ef23ec6d784b24b6336d22f7" target="_top" xlink:title=" ">
<polygon fill="white" stroke="black" points="139,-98 139,-128 241,-128 241,-98 139,-98"/>
<text text-anchor="start" x="147" y="-116" font-family="Helvetica,sans-Serif" font-size="10.00">mom_legacy_barotropic</text>
<text text-anchor="middle" x="190" y="-105" font-family="Helvetica,sans-Serif" font-size="10.00">::find_face_areas</text>
</a>
</g>
</g>
<!-- Node72&#45;&gt;Node74 -->
<g id="edge2" class="edge"><title>Node72&#45;&gt;Node74</title>
<path fill="none" stroke="midnightblue" d="M102.236,-97.1671C110.892,-98.7466 119.967,-100.403 128.852,-102.024"/>
<polygon fill="midnightblue" stroke="midnightblue" points="128.304,-105.482 138.77,-103.834 129.561,-98.5956 128.304,-105.482"/>
</g>
<!-- Node75 -->
<g id="node4" class="node"><title>Node75</title>
<g id="a_node4"><a xlink:href="namespacemom__error__handler.html#a460cfb79a06c29fc249952c2a3710d67" target="_top" xlink:title=" ">
<polygon fill="white" stroke="black" points="143.5,-49 143.5,-79 236.5,-79 236.5,-49 143.5,-49"/>
<text text-anchor="start" x="151.5" y="-67" font-family="Helvetica,sans-Serif" font-size="10.00">mom_error_handler::</text>
<text text-anchor="middle" x="190" y="-56" font-family="Helvetica,sans-Serif" font-size="10.00">mom_error</text>
</a>
</g>
</g>
<!-- Node72&#45;&gt;Node75 -->
<g id="edge3" class="edge"><title>Node72&#45;&gt;Node75</title>
<path fill="none" stroke="midnightblue" d="M102.236,-79.1996C112.316,-77.4337 122.966,-75.568 133.221,-73.7715"/>
<polygon fill="midnightblue" stroke="midnightblue" points="134.064,-77.1773 143.31,-72.0042 132.856,-70.2823 134.064,-77.1773"/>
</g>
<!-- Node77 -->
<g id="node6" class="node"><title>Node77</title>
<g id="a_node6"><a xlink:href="namespacemom__tidal__forcing.html#a0a1564c68489a35802c626a07f4629d7" target="_top" xlink:title=" ">
<polygon fill="white" stroke="black" points="141.5,-0 141.5,-30 238.5,-30 238.5,-0 141.5,-0"/>
<text text-anchor="start" x="149.5" y="-18" font-family="Helvetica,sans-Serif" font-size="10.00">mom_tidal_forcing::</text>
<text text-anchor="middle" x="190" y="-7" font-family="Helvetica,sans-Serif" font-size="10.00">tidal_forcing_sensitivity</text>
</a>
</g>
</g>
<!-- Node72&#45;&gt;Node77 -->
<g id="edge5" class="edge"><title>Node72&#45;&gt;Node77</title>
<path fill="none" stroke="midnightblue" d="M78.1495,-72.9286C95.0912,-63.2827 117.703,-50.6296 138,-40 141.341,-38.2502 144.823,-36.4652 148.328,-34.6945"/>
<polygon fill="midnightblue" stroke="midnightblue" points="150.197,-37.6732 157.581,-30.0751 147.07,-31.4103 150.197,-37.6732"/>
</g>
<!-- Node76 -->
<g id="node5" class="node"><title>Node76</title>
<g id="a_node5"><a xlink:href="namespacemom__error__handler.html#ad5f00a53059c72fe2332d1436c80ca71" target="_top" xlink:title=" ">
<polygon fill="white" stroke="black" points="278.5,-49 278.5,-79 371.5,-79 371.5,-49 278.5,-49"/>
<text text-anchor="start" x="286.5" y="-67" font-family="Helvetica,sans-Serif" font-size="10.00">mom_error_handler::</text>
<text text-anchor="middle" x="325" y="-56" font-family="Helvetica,sans-Serif" font-size="10.00">is_root_pe</text>
</a>
</g>
</g>
<!-- Node75&#45;&gt;Node76 -->
<g id="edge4" class="edge"><title>Node75&#45;&gt;Node76</title>
<path fill="none" stroke="midnightblue" d="M236.771,-64C246.802,-64 257.533,-64 267.916,-64"/>
<polygon fill="midnightblue" stroke="midnightblue" points="268.145,-67.5001 278.145,-64 268.145,-60.5001 268.145,-67.5001"/>
</g>
</g>
</svg>
