<?xml version="1.0" encoding="UTF-8" standalone="no"?>
<!DOCTYPE svg PUBLIC "-//W3C//DTD SVG 1.1//EN"
 "http://www.w3.org/Graphics/SVG/1.1/DTD/svg11.dtd">
<!-- Generated by graphviz version 2.30.1 (20170916.1124)
 -->
<!-- Title: mom::finish_mom_initialization Pages: 1 -->
<svg width="282pt" height="77pt"
 viewBox="0.00 0.00 282.00 77.00" xmlns="http://www.w3.org/2000/svg" xmlns:xlink="http://www.w3.org/1999/xlink">
<g id="graph0" class="graph" transform="scale(1 1) rotate(0) translate(4 73)">
<title>mom::finish_mom_initialization</title>
<polygon fill="white" stroke="white" points="-4,5 -4,-73 279,-73 279,5 -4,5"/>
<!-- Node12 -->
<g id="node1" class="node"><title>Node12</title>
<g id="a_node1"><a xlink:title="This subroutine finishes initializing MOM and writes out the initial conditions.">
<polygon fill="#bfbfbf" stroke="black" points="150,-27.5 150,-46.5 274,-46.5 274,-27.5 150,-27.5"/>
<text text-anchor="middle" x="212" y="-34.5" font-family="Helvetica,sans-Serif" font-size="10.00">mom::finish_mom_initialization</text>
</a>
</g>
</g>
<!-- Node13 -->
<g id="node2" class="node"><title>Node13</title>
<g id="a_node2"><a xlink:href="MOM__driver_8F90.html#a08fffeb2d8e8acbf9ed4609be6d258c6" target="_top" xlink:title=" ">
<polygon fill="white" stroke="black" points="29,-49.5 29,-68.5 85,-68.5 85,-49.5 29,-49.5"/>
<text text-anchor="middle" x="57" y="-56.5" font-family="Helvetica,sans-Serif" font-size="10.00">mom_main</text>
</a>
</g>
</g>
<!-- Node12&#45;&gt;Node13 -->
<g id="edge1" class="edge"><title>Node12&#45;&gt;Node13</title>
<path fill="none" stroke="midnightblue" d="M139.562,-47.2722C120.141,-50.0646 100.284,-52.9199 85.0258,-55.1139"/>
<polygon fill="midnightblue" stroke="midnightblue" points="140.251,-50.7092 149.651,-45.8215 139.254,-43.7805 140.251,-50.7092"/>
</g>
<!-- Node14 -->
<g id="node3" class="node"><title>Node14</title>
<g id="a_node3"><a xlink:href="namespaceocean__model__mod.html#ac9dc1795fc4799d6682f462857b42d62" target="_top" xlink:title=" ">
<polygon fill="white" stroke="black" points="0,-0 0,-30 114,-30 114,-0 0,-0"/>
<text text-anchor="start" x="8" y="-18" font-family="Helvetica,sans-Serif" font-size="10.00">ocean_model_mod::update</text>
<text text-anchor="middle" x="57" y="-7" font-family="Helvetica,sans-Serif" font-size="10.00">_ocean_model</text>
</a>
</g>
</g>
<!-- Node12&#45;&gt;Node14 -->
<g id="edge2" class="edge"><title>Node12&#45;&gt;Node14</title>
<path fill="none" stroke="midnightblue" d="M139.74,-26.7534C131.242,-25.5315 122.657,-24.2971 114.408,-23.1109"/>
<polygon fill="midnightblue" stroke="midnightblue" points="139.254,-30.2195 149.651,-28.1785 140.251,-23.2908 139.254,-30.2195"/>
</g>
</g>
</svg>
