<?xml version="1.0" encoding="UTF-8" standalone="no"?>
<!DOCTYPE svg PUBLIC "-//W3C//DTD SVG 1.1//EN"
 "http://www.w3.org/Graphics/SVG/1.1/DTD/svg11.dtd">
<!-- Generated by graphviz version 2.30.1 (20170916.1124)
 -->
<!-- Title: mom_pressureforce_afv::pressureforce_afv Pages: 1 -->
<svg width="552pt" height="185pt"
 viewBox="0.00 0.00 552.00 185.00" xmlns="http://www.w3.org/2000/svg" xmlns:xlink="http://www.w3.org/1999/xlink">
<g id="graph0" class="graph" transform="scale(1 1) rotate(0) translate(4 181)">
<title>mom_pressureforce_afv::pressureforce_afv</title>
<polygon fill="white" stroke="white" points="-4,5 -4,-181 549,-181 549,5 -4,5"/>
<!-- Node0 -->
<g id="node1" class="node"><title>Node0</title>
<g id="a_node1"><a xlink:title="Thin interface between the model and the Boussinesq and non&#45;Boussinesq pressure force routines.">
<polygon fill="#bfbfbf" stroke="black" points="0,-73 0,-103 104,-103 104,-73 0,-73"/>
<text text-anchor="start" x="8" y="-91" font-family="Helvetica,sans-Serif" font-size="10.00">mom_pressureforce_afv</text>
<text text-anchor="middle" x="52" y="-80" font-family="Helvetica,sans-Serif" font-size="10.00">::pressureforce_afv</text>
</a>
</g>
</g>
<!-- Node1 -->
<g id="node2" class="node"><title>Node1</title>
<g id="a_node2"><a xlink:href="namespacemom__pressureforce__afv.html#a2b38fa4956dd9305ec682fcc64ae32ea" target="_top" xlink:title="Boussinesq analytically&#45;integrated finite volume form of pressure gradient.">
<polygon fill="white" stroke="black" points="147.5,-49 147.5,-79 258.5,-79 258.5,-49 147.5,-49"/>
<text text-anchor="start" x="155.5" y="-67" font-family="Helvetica,sans-Serif" font-size="10.00">mom_pressureforce_afv</text>
<text text-anchor="middle" x="203" y="-56" font-family="Helvetica,sans-Serif" font-size="10.00">::pressureforce_afv_bouss</text>
</a>
</g>
</g>
<!-- Node0&#45;&gt;Node1 -->
<g id="edge1" class="edge"><title>Node0&#45;&gt;Node1</title>
<path fill="none" stroke="midnightblue" d="M104.277,-79.7406C114.912,-78.0276 126.247,-76.2017 137.291,-74.4229"/>
<polygon fill="midnightblue" stroke="midnightblue" points="138.007,-77.8529 147.323,-72.8071 136.893,-70.9419 138.007,-77.8529"/>
</g>
<!-- Node6 -->
<g id="node7" class="node"><title>Node6</title>
<g id="a_node7"><a xlink:href="namespacemom__pressureforce__afv.html#ac872477c8b86d0997199db68a8969466" target="_top" xlink:title="Non&#45;Boussinesq analytically&#45;integrated finite volume form of pressure gradient.">
<polygon fill="white" stroke="black" points="140.5,-98 140.5,-128 265.5,-128 265.5,-98 140.5,-98"/>
<text text-anchor="start" x="148.5" y="-116" font-family="Helvetica,sans-Serif" font-size="10.00">mom_pressureforce_afv</text>
<text text-anchor="middle" x="203" y="-105" font-family="Helvetica,sans-Serif" font-size="10.00">::pressureforce_afv_nonbouss</text>
</a>
</g>
</g>
<!-- Node0&#45;&gt;Node6 -->
<g id="edge6" class="edge"><title>Node0&#45;&gt;Node6</title>
<path fill="none" stroke="midnightblue" d="M104.277,-96.6036C112.718,-98.0198 121.6,-99.5101 130.427,-100.991"/>
<polygon fill="midnightblue" stroke="midnightblue" points="129.903,-104.452 140.344,-102.655 131.061,-97.5485 129.903,-104.452"/>
</g>
<!-- Node2 -->
<g id="node3" class="node"><title>Node2</title>
<g id="a_node3"><a xlink:href="namespacemom__error__handler.html#a460cfb79a06c29fc249952c2a3710d67" target="_top" xlink:title=" ">
<polygon fill="white" stroke="black" points="311.5,-98 311.5,-128 404.5,-128 404.5,-98 311.5,-98"/>
<text text-anchor="start" x="319.5" y="-116" font-family="Helvetica,sans-Serif" font-size="10.00">mom_error_handler::</text>
<text text-anchor="middle" x="358" y="-105" font-family="Helvetica,sans-Serif" font-size="10.00">mom_error</text>
</a>
</g>
</g>
<!-- Node1&#45;&gt;Node2 -->
<g id="edge2" class="edge"><title>Node1&#45;&gt;Node2</title>
<path fill="none" stroke="midnightblue" d="M251.153,-79.1014C267.154,-84.2258 285.174,-89.9968 301.748,-95.3049"/>
<polygon fill="midnightblue" stroke="midnightblue" points="300.722,-98.6515 311.314,-98.3684 302.858,-91.9851 300.722,-98.6515"/>
</g>
<!-- Node4 -->
<g id="node5" class="node"><title>Node4</title>
<g id="a_node5"><a xlink:href="namespacemom__tidal__forcing.html#ab88c76dce908a227ab2bfa42f4869fe7" target="_top" xlink:title=" ">
<polygon fill="white" stroke="black" points="315,-49 315,-79 401,-79 401,-49 315,-49"/>
<text text-anchor="start" x="323" y="-67" font-family="Helvetica,sans-Serif" font-size="10.00">mom_tidal_forcing::</text>
<text text-anchor="middle" x="358" y="-56" font-family="Helvetica,sans-Serif" font-size="10.00">calc_tidal_forcing</text>
</a>
</g>
</g>
<!-- Node1&#45;&gt;Node4 -->
<g id="edge4" class="edge"><title>Node1&#45;&gt;Node4</title>
<path fill="none" stroke="midnightblue" d="M258.804,-64C273.57,-64 289.511,-64 304.167,-64"/>
<polygon fill="midnightblue" stroke="midnightblue" points="304.576,-67.5001 314.576,-64 304.576,-60.5001 304.576,-67.5001"/>
</g>
<!-- Node5 -->
<g id="node6" class="node"><title>Node5</title>
<g id="a_node6"><a xlink:href="namespacemom__pressureforce__mont.html#a9c2cfd1900c6dfc60b918920372cad6f" target="_top" xlink:title="Determines the partial derivative of the acceleration due to pressure forces with the free surface he...">
<polygon fill="white" stroke="black" points="302.5,-0 302.5,-30 413.5,-30 413.5,-0 302.5,-0"/>
<text text-anchor="start" x="310.5" y="-18" font-family="Helvetica,sans-Serif" font-size="10.00">mom_pressureforce_mont</text>
<text text-anchor="middle" x="358" y="-7" font-family="Helvetica,sans-Serif" font-size="10.00">::set_pbce_bouss</text>
</a>
</g>
</g>
<!-- Node1&#45;&gt;Node5 -->
<g id="edge5" class="edge"><title>Node1&#45;&gt;Node5</title>
<path fill="none" stroke="midnightblue" d="M251.153,-48.8986C266.641,-43.9385 284.02,-38.3726 300.149,-33.2071"/>
<polygon fill="midnightblue" stroke="midnightblue" points="301.546,-36.4349 310.002,-30.0516 299.411,-29.7684 301.546,-36.4349"/>
</g>
<!-- Node3 -->
<g id="node4" class="node"><title>Node3</title>
<g id="a_node4"><a xlink:href="namespacemom__error__handler.html#ad5f00a53059c72fe2332d1436c80ca71" target="_top" xlink:title=" ">
<polygon fill="white" stroke="black" points="450.5,-98 450.5,-128 543.5,-128 543.5,-98 450.5,-98"/>
<text text-anchor="start" x="458.5" y="-116" font-family="Helvetica,sans-Serif" font-size="10.00">mom_error_handler::</text>
<text text-anchor="middle" x="497" y="-105" font-family="Helvetica,sans-Serif" font-size="10.00">is_root_pe</text>
</a>
</g>
</g>
<!-- Node2&#45;&gt;Node3 -->
<g id="edge3" class="edge"><title>Node2&#45;&gt;Node3</title>
<path fill="none" stroke="midnightblue" d="M404.619,-113C415.937,-113 428.197,-113 439.951,-113"/>
<polygon fill="midnightblue" stroke="midnightblue" points="440.113,-116.5 450.113,-113 440.113,-109.5 440.113,-116.5"/>
</g>
<!-- Node6&#45;&gt;Node2 -->
<g id="edge7" class="edge"><title>Node6&#45;&gt;Node2</title>
<path fill="none" stroke="midnightblue" d="M265.79,-113C277.474,-113 289.633,-113 301.122,-113"/>
<polygon fill="midnightblue" stroke="midnightblue" points="301.451,-116.5 311.451,-113 301.451,-109.5 301.451,-116.5"/>
</g>
<!-- Node6&#45;&gt;Node4 -->
<g id="edge8" class="edge"><title>Node6&#45;&gt;Node4</title>
<path fill="none" stroke="midnightblue" d="M251.153,-97.8986C268.182,-92.4451 287.497,-86.2593 304.922,-80.6784"/>
<polygon fill="midnightblue" stroke="midnightblue" points="306.477,-83.8558 314.933,-77.4725 304.342,-77.1894 306.477,-83.8558"/>
</g>
<!-- Node7 -->
<g id="node8" class="node"><title>Node7</title>
<g id="a_node8"><a xlink:href="namespacemom__pressureforce__mont.html#aac4ff359115d0f17df8118cc648dcabd" target="_top" xlink:title="Determines the partial derivative of the acceleration due to pressure forces with the column mass.">
<polygon fill="white" stroke="black" points="302.5,-147 302.5,-177 413.5,-177 413.5,-147 302.5,-147"/>
<text text-anchor="start" x="310.5" y="-165" font-family="Helvetica,sans-Serif" font-size="10.00">mom_pressureforce_mont</text>
<text text-anchor="middle" x="358" y="-154" font-family="Helvetica,sans-Serif" font-size="10.00">::set_pbce_nonbouss</text>
</a>
</g>
</g>
<!-- Node6&#45;&gt;Node7 -->
<g id="edge9" class="edge"><title>Node6&#45;&gt;Node7</title>
<path fill="none" stroke="midnightblue" d="M251.153,-128.101C266.641,-133.062 284.02,-138.627 300.149,-143.793"/>
<polygon fill="midnightblue" stroke="midnightblue" points="299.411,-147.232 310.002,-146.948 301.546,-140.565 299.411,-147.232"/>
</g>
</g>
</svg>
