<?xml version="1.0" encoding="UTF-8" standalone="no"?>
<!DOCTYPE svg PUBLIC "-//W3C//DTD SVG 1.1//EN"
 "http://www.w3.org/Graphics/SVG/1.1/DTD/svg11.dtd">
<!-- Generated by graphviz version 2.30.1 (20170916.1124)
 -->
<!-- Title: mom_diag_remap::diag_remap_end Pages: 1 -->
<svg width="254pt" height="50pt"
 viewBox="0.00 0.00 254.00 50.00" xmlns="http://www.w3.org/2000/svg" xmlns:xlink="http://www.w3.org/1999/xlink">
<g id="graph0" class="graph" transform="scale(1 1) rotate(0) translate(4 46)">
<title>mom_diag_remap::diag_remap_end</title>
<polygon fill="white" stroke="white" points="-4,5 -4,-46 251,-46 251,5 -4,5"/>
<!-- Node46 -->
<g id="node1" class="node"><title>Node46</title>
<g id="a_node1"><a xlink:title="De&#45;init a diagnostic remapping type. Free allocated memory.">
<polygon fill="#bfbfbf" stroke="black" points="144.5,-6 144.5,-36 245.5,-36 245.5,-6 144.5,-6"/>
<text text-anchor="start" x="152.5" y="-24" font-family="Helvetica,sans-Serif" font-size="10.00">mom_diag_remap::diag</text>
<text text-anchor="middle" x="195" y="-13" font-family="Helvetica,sans-Serif" font-size="10.00">_remap_end</text>
</a>
</g>
</g>
<!-- Node47 -->
<g id="node2" class="node"><title>Node47</title>
<g id="a_node2"><a xlink:href="namespacemom__diag__remap.html#a924b98a931082a788dfdabf86d40f295" target="_top" xlink:title="Inform that all diagnostics have been registered. If _set_active() has not been called on the remappi...">
<polygon fill="white" stroke="black" points="0,-0.5 0,-41.5 108,-41.5 108,-0.5 0,-0.5"/>
<text text-anchor="start" x="8" y="-29.5" font-family="Helvetica,sans-Serif" font-size="10.00">mom_diag_remap::diag</text>
<text text-anchor="start" x="8" y="-18.5" font-family="Helvetica,sans-Serif" font-size="10.00">_remap_diag_registration</text>
<text text-anchor="middle" x="54" y="-7.5" font-family="Helvetica,sans-Serif" font-size="10.00">_closed</text>
</a>
</g>
</g>
<!-- Node46&#45;&gt;Node47 -->
<g id="edge1" class="edge"><title>Node46&#45;&gt;Node47</title>
<path fill="none" stroke="midnightblue" d="M134.192,-21C125.55,-21 116.704,-21 108.202,-21"/>
<polygon fill="midnightblue" stroke="midnightblue" points="134.21,-24.5001 144.21,-21 134.21,-17.5001 134.21,-24.5001"/>
</g>
</g>
</svg>
