<?xml version="1.0" encoding="UTF-8" standalone="no"?>
<!DOCTYPE svg PUBLIC "-//W3C//DTD SVG 1.1//EN"
 "http://www.w3.org/Graphics/SVG/1.1/DTD/svg11.dtd">
<!-- Generated by graphviz version 2.30.1 (20170916.1124)
 -->
<!-- Title: mom_spatial_means::global_j_mean Pages: 1 -->
<svg width="368pt" height="136pt"
 viewBox="0.00 0.00 368.00 136.00" xmlns="http://www.w3.org/2000/svg" xmlns:xlink="http://www.w3.org/1999/xlink">
<g id="graph0" class="graph" transform="scale(1 1) rotate(0) translate(4 132)">
<title>mom_spatial_means::global_j_mean</title>
<polygon fill="white" stroke="white" points="-4,5 -4,-132 365,-132 365,5 -4,5"/>
<!-- Node24 -->
<g id="node1" class="node"><title>Node24</title>
<g id="a_node1"><a xlink:title=" ">
<polygon fill="#bfbfbf" stroke="black" points="0.5,-49 0.5,-79 95.5,-79 95.5,-49 0.5,-49"/>
<text text-anchor="start" x="8.5" y="-67" font-family="Helvetica,sans-Serif" font-size="10.00">mom_spatial_means::</text>
<text text-anchor="middle" x="48" y="-56" font-family="Helvetica,sans-Serif" font-size="10.00">global_j_mean</text>
</a>
</g>
</g>
<!-- Node25 -->
<g id="node2" class="node"><title>Node25</title>
<g id="a_node2"><a xlink:href="namespacemom__error__handler.html#a460cfb79a06c29fc249952c2a3710d67" target="_top" xlink:title=" ">
<polygon fill="white" stroke="black" points="134.5,-98 134.5,-128 227.5,-128 227.5,-98 134.5,-98"/>
<text text-anchor="start" x="142.5" y="-116" font-family="Helvetica,sans-Serif" font-size="10.00">mom_error_handler::</text>
<text text-anchor="middle" x="181" y="-105" font-family="Helvetica,sans-Serif" font-size="10.00">mom_error</text>
</a>
</g>
</g>
<!-- Node24&#45;&gt;Node25 -->
<g id="edge1" class="edge"><title>Node24&#45;&gt;Node25</title>
<path fill="none" stroke="midnightblue" d="M89.3732,-79.1014C102.198,-83.8985 116.538,-89.2622 129.959,-94.2823"/>
<polygon fill="midnightblue" stroke="midnightblue" points="128.942,-97.6388 139.535,-97.8641 131.395,-91.0824 128.942,-97.6388"/>
</g>
<!-- Node27 -->
<g id="node4" class="node"><title>Node27</title>
<g id="a_node4"><a xlink:href="namespacemom__coms.html#addf8caf9a58bed7059b5bb6660d73c4e" target="_top" xlink:title=" ">
<polygon fill="white" stroke="black" points="132,-49 132,-79 230,-79 230,-49 132,-49"/>
<text text-anchor="start" x="140" y="-67" font-family="Helvetica,sans-Serif" font-size="10.00">mom_coms::query_efp</text>
<text text-anchor="middle" x="181" y="-56" font-family="Helvetica,sans-Serif" font-size="10.00">_overflow_error</text>
</a>
</g>
</g>
<!-- Node24&#45;&gt;Node27 -->
<g id="edge3" class="edge"><title>Node24&#45;&gt;Node27</title>
<path fill="none" stroke="midnightblue" d="M95.5546,-64C104.012,-64 112.93,-64 121.676,-64"/>
<polygon fill="midnightblue" stroke="midnightblue" points="121.825,-67.5001 131.825,-64 121.825,-60.5001 121.825,-67.5001"/>
</g>
<!-- Node28 -->
<g id="node5" class="node"><title>Node28</title>
<g id="a_node5"><a xlink:href="namespacemom__coms.html#a9a44466e43db89b2525996feedd11b7a" target="_top" xlink:title=" ">
<polygon fill="white" stroke="black" points="133,-0 133,-30 229,-30 229,-0 133,-0"/>
<text text-anchor="start" x="141" y="-18" font-family="Helvetica,sans-Serif" font-size="10.00">mom_coms::reset_efp</text>
<text text-anchor="middle" x="181" y="-7" font-family="Helvetica,sans-Serif" font-size="10.00">_overflow_error</text>
</a>
</g>
</g>
<!-- Node24&#45;&gt;Node28 -->
<g id="edge4" class="edge"><title>Node24&#45;&gt;Node28</title>
<path fill="none" stroke="midnightblue" d="M89.3732,-48.8986C102.198,-44.1015 116.538,-38.7378 129.959,-33.7177"/>
<polygon fill="midnightblue" stroke="midnightblue" points="131.395,-36.9176 139.535,-30.1359 128.942,-30.3612 131.395,-36.9176"/>
</g>
<!-- Node26 -->
<g id="node3" class="node"><title>Node26</title>
<g id="a_node3"><a xlink:href="namespacemom__error__handler.html#ad5f00a53059c72fe2332d1436c80ca71" target="_top" xlink:title=" ">
<polygon fill="white" stroke="black" points="266.5,-98 266.5,-128 359.5,-128 359.5,-98 266.5,-98"/>
<text text-anchor="start" x="274.5" y="-116" font-family="Helvetica,sans-Serif" font-size="10.00">mom_error_handler::</text>
<text text-anchor="middle" x="313" y="-105" font-family="Helvetica,sans-Serif" font-size="10.00">is_root_pe</text>
</a>
</g>
</g>
<!-- Node25&#45;&gt;Node26 -->
<g id="edge2" class="edge"><title>Node25&#45;&gt;Node26</title>
<path fill="none" stroke="midnightblue" d="M227.833,-113C236.959,-113 246.639,-113 256.06,-113"/>
<polygon fill="midnightblue" stroke="midnightblue" points="256.143,-116.5 266.143,-113 256.143,-109.5 256.143,-116.5"/>
</g>
</g>
</svg>
