<?xml version="1.0" encoding="UTF-8" standalone="no"?>
<!DOCTYPE svg PUBLIC "-//W3C//DTD SVG 1.1//EN"
 "http://www.w3.org/Graphics/SVG/1.1/DTD/svg11.dtd">
<!-- Generated by graphviz version 2.30.1 (20170916.1124)
 -->
<!-- Title: mom_continuity_ppm::continuity_ppm Pages: 1 -->
<!--zoomable 507 -->
<svg id="main" version="1.1" xmlns="http://www.w3.org/2000/svg" xmlns:xlink="http://www.w3.org/1999/xlink" xml:space="preserve" onload="init(evt)">
<style type="text/css"><![CDATA[
.edge:hover path { stroke: red; }
.edge:hover polygon { stroke: red; fill: red; }
]]></style>
<script type="text/javascript"><![CDATA[
var edges = document.getElementsByTagName('g');
if (edges && edges.length) {
  for (var i=0;i<edges.length;i++) {
    if (edges[i].id.substr(0,4)=='edge') {
      edges[i].setAttribute('class','edge');
    }
  }
}
]]></script>
        <defs>
                <circle id="rim" cx="0" cy="0" r="7"/>
                <circle id="rim2" cx="0" cy="0" r="3.5"/>
                <g id="zoomPlus">
                        <use xlink:href="#rim" fill="#404040">
                                <set attributeName="fill" to="#808080" begin="zoomplus.mouseover" end="zoomplus.mouseout"/>
                        </use>
                        <path d="M-4,0h8M0,-4v8" fill="none" stroke="white" stroke-width="1.5" pointer-events="none"/>
                </g>
                <g id="zoomMin">
                        <use xlink:href="#rim" fill="#404040">
                                <set attributeName="fill" to="#808080" begin="zoomminus.mouseover" end="zoomminus.mouseout"/>
                        </use>
                        <path d="M-4,0h8" fill="none" stroke="white" stroke-width="1.5" pointer-events="none"/>
                </g>
                <g id="dirArrow">
                        <path fill="none" stroke="white" stroke-width="1.5" d="M0,-3.0v7 M-2.5,-0.5L0,-3.0L2.5,-0.5"/>
                </g>
               <g id="resetDef">
                       <use xlink:href="#rim2" fill="#404040">
                               <set attributeName="fill" to="#808080" begin="reset.mouseover" end="reset.mouseout"/>
                       </use>
               </g>
        </defs>

<script type="text/javascript">
var viewWidth = 636;
var viewHeight = 507;
var sectionId = 'dynsection-0';
</script>
<script xlink:href="svgpan.js"/>
<svg id="graph" class="graph">
<g id="viewport">
<title>mom_continuity_ppm::continuity_ppm</title>
<polygon fill="white" stroke="white" points="-4,5 -4,-503.162 633,-503.162 633,5 -4,5"/>
<!-- Node0 -->
<g id="node1" class="node"><title>Node0</title>
<g id="a_node1"><a xlink:title="Time steps the layer thicknesses, using a monotonically limit, directionally split PPM scheme,...">
<polygon fill="#bfbfbf" stroke="black" points="0,-160.615 0,-190.615 92,-190.615 92,-160.615 0,-160.615"/>
<text text-anchor="start" x="8" y="-178.615" font-family="Helvetica,sans-Serif" font-size="10.00">mom_continuity_ppm</text>
<text text-anchor="middle" x="46" y="-167.615" font-family="Helvetica,sans-Serif" font-size="10.00">::continuity_ppm</text>
</a>
</g>
</g>
<!-- Node1 -->
<g id="node2" class="node"><title>Node1</title>
<g id="a_node2"><a xlink:href="namespacemom__continuity__ppm.html#ae326b8319da257f423f73a32a984b641" target="_top" xlink:title="Calculates the mass or volume fluxes through the meridional faces, and other related quantities.">
<polygon fill="white" stroke="black" points="128,-116.615 128,-146.615 226,-146.615 226,-116.615 128,-116.615"/>
<text text-anchor="start" x="136" y="-134.615" font-family="Helvetica,sans-Serif" font-size="10.00">mom_continuity_ppm</text>
<text text-anchor="middle" x="177" y="-123.615" font-family="Helvetica,sans-Serif" font-size="10.00">::meridional_mass_flux</text>
</a>
</g>
</g>
<!-- Node0&#45;&gt;Node1 -->
<g id="edge1" class="edge"><title>Node0&#45;&gt;Node1</title>
<path fill="none" stroke="midnightblue" d="M91.0337,-160.595C100.99,-157.199 111.672,-153.556 121.986,-150.038"/>
<polygon fill="midnightblue" stroke="midnightblue" points="123.392,-153.256 131.727,-146.715 121.132,-146.631 123.392,-153.256"/>
</g>
<!-- Node3 -->
<g id="node4" class="node"><title>Node3</title>
<g id="a_node4"><a xlink:href="namespacemom__error__handler.html#a460cfb79a06c29fc249952c2a3710d67" target="_top" xlink:title=" ">
<polygon fill="white" stroke="black" points="401.5,-204.615 401.5,-234.615 494.5,-234.615 494.5,-204.615 401.5,-204.615"/>
<text text-anchor="start" x="409.5" y="-222.615" font-family="Helvetica,sans-Serif" font-size="10.00">mom_error_handler::</text>
<text text-anchor="middle" x="448" y="-211.615" font-family="Helvetica,sans-Serif" font-size="10.00">mom_error</text>
</a>
</g>
</g>
<!-- Node0&#45;&gt;Node3 -->
<g id="edge15" class="edge"><title>Node0&#45;&gt;Node3</title>
<path fill="none" stroke="midnightblue" d="M92.232,-175.154C153.749,-175.251 267.017,-178.002 362,-194.615 372.219,-196.402 382.954,-198.983 393.223,-201.815"/>
<polygon fill="midnightblue" stroke="midnightblue" points="392.316,-205.196 402.893,-204.59 394.246,-198.467 392.316,-205.196"/>
</g>
<!-- Node12 -->
<g id="node13" class="node"><title>Node12</title>
<g id="a_node13"><a xlink:href="namespacemom__continuity__ppm.html#aaee3d916bed27d4884d9473218c20fc9" target="_top" xlink:title="Calculates the mass or volume fluxes through the zonal faces, and other related quantities.">
<polygon fill="white" stroke="black" points="131,-346.615 131,-376.615 223,-376.615 223,-346.615 131,-346.615"/>
<text text-anchor="start" x="139" y="-364.615" font-family="Helvetica,sans-Serif" font-size="10.00">mom_continuity_ppm</text>
<text text-anchor="middle" x="177" y="-353.615" font-family="Helvetica,sans-Serif" font-size="10.00">::zonal_mass_flux</text>
</a>
</g>
</g>
<!-- Node0&#45;&gt;Node12 -->
<g id="edge16" class="edge"><title>Node0&#45;&gt;Node12</title>
<path fill="none" stroke="midnightblue" d="M57.5566,-190.836C80.0068,-223.206 132.631,-299.082 159.533,-337.871"/>
<polygon fill="midnightblue" stroke="midnightblue" points="156.903,-340.221 165.478,-346.444 162.655,-336.232 156.903,-340.221"/>
</g>
<!-- Node2 -->
<g id="node3" class="node"><title>Node2</title>
<g id="a_node3"><a xlink:href="namespacemom__continuity__ppm.html#ab3bd46a3a28be2c37952c84c3568ca09" target="_top" xlink:title="Calculates left/right edge values for PPM reconstruction.">
<polygon fill="white" stroke="black" points="262,-204.615 262,-234.615 362,-234.615 362,-204.615 262,-204.615"/>
<text text-anchor="start" x="270" y="-222.615" font-family="Helvetica,sans-Serif" font-size="10.00">mom_continuity_ppm</text>
<text text-anchor="middle" x="312" y="-211.615" font-family="Helvetica,sans-Serif" font-size="10.00">::ppm_reconstruction_y</text>
</a>
</g>
</g>
<!-- Node1&#45;&gt;Node2 -->
<g id="edge2" class="edge"><title>Node1&#45;&gt;Node2</title>
<path fill="none" stroke="midnightblue" d="M200.864,-146.742C222.56,-161.098 255.352,-182.794 279.515,-198.782"/>
<polygon fill="midnightblue" stroke="midnightblue" points="277.719,-201.791 287.99,-204.39 281.581,-195.953 277.719,-201.791"/>
</g>
<!-- Node7 -->
<g id="node8" class="node"><title>Node7</title>
<g id="a_node8"><a xlink:href="namespacemom__continuity__ppm.html#a1036571b2b764e39c6386a47fc978836" target="_top" xlink:title="Evaluates the meridional mass or volume fluxes in a layer.">
<polygon fill="white" stroke="black" points="535,-56.6145 535,-86.6145 627,-86.6145 627,-56.6145 535,-56.6145"/>
<text text-anchor="start" x="543" y="-74.6145" font-family="Helvetica,sans-Serif" font-size="10.00">mom_continuity_ppm</text>
<text text-anchor="middle" x="581" y="-63.6145" font-family="Helvetica,sans-Serif" font-size="10.00">::merid_flux_layer</text>
</a>
</g>
</g>
<!-- Node1&#45;&gt;Node7 -->
<g id="edge7" class="edge"><title>Node1&#45;&gt;Node7</title>
<path fill="none" stroke="midnightblue" d="M183.981,-116.431C194.986,-90.8731 221.13,-40.0497 262,-19.6145 355.327,27.0491 481.471,-21.89 543.067,-51.8914"/>
<polygon fill="midnightblue" stroke="midnightblue" points="541.872,-55.2058 552.384,-56.5263 544.99,-48.9385 541.872,-55.2058"/>
</g>
<!-- Node8 -->
<g id="node9" class="node"><title>Node8</title>
<g id="a_node9"><a xlink:href="namespacemom__continuity__ppm.html#adf02002cf5951d7610b8643d2d401585" target="_top" xlink:title="Return the maximum ratio of a/b or maxrat.">
<polygon fill="white" stroke="black" points="266,-253.615 266,-283.615 358,-283.615 358,-253.615 266,-253.615"/>
<text text-anchor="start" x="274" y="-271.615" font-family="Helvetica,sans-Serif" font-size="10.00">mom_continuity_ppm</text>
<text text-anchor="middle" x="312" y="-260.615" font-family="Helvetica,sans-Serif" font-size="10.00">::ratio_max</text>
</a>
</g>
</g>
<!-- Node1&#45;&gt;Node8 -->
<g id="edge8" class="edge"><title>Node1&#45;&gt;Node8</title>
<path fill="none" stroke="midnightblue" d="M186.294,-146.756C199.667,-170.049 227.967,-214.976 262,-243.615 263.781,-245.113 265.667,-246.553 267.622,-247.932"/>
<polygon fill="midnightblue" stroke="midnightblue" points="266.204,-251.177 276.523,-253.579 269.954,-245.266 266.204,-251.177"/>
</g>
<!-- Node9 -->
<g id="node10" class="node"><title>Node9</title>
<g id="a_node10"><a xlink:href="namespacemom__continuity__ppm.html#a1a09c28286ea6568eb1a25e91d481f60" target="_top" xlink:title="Returns the barotropic velocity adjustment that gives the desired barotropic (layer&#45;summed) transport...">
<polygon fill="white" stroke="black" points="398,-100.615 398,-130.615 498,-130.615 498,-100.615 398,-100.615"/>
<text text-anchor="start" x="406" y="-118.615" font-family="Helvetica,sans-Serif" font-size="10.00">mom_continuity_ppm</text>
<text text-anchor="middle" x="448" y="-107.615" font-family="Helvetica,sans-Serif" font-size="10.00">::meridional_flux_adjust</text>
</a>
</g>
</g>
<!-- Node1&#45;&gt;Node9 -->
<g id="edge9" class="edge"><title>Node1&#45;&gt;Node9</title>
<path fill="none" stroke="midnightblue" d="M226.092,-128.754C271.38,-126.06 339.335,-122.018 387.907,-119.129"/>
<polygon fill="midnightblue" stroke="midnightblue" points="388.187,-122.619 397.962,-118.531 387.772,-115.631 388.187,-122.619"/>
</g>
<!-- Node10 -->
<g id="node11" class="node"><title>Node10</title>
<g id="a_node11"><a xlink:href="namespacemom__continuity__ppm.html#ac0a93898960aef838a55a8ef4f926aa1" target="_top" xlink:title="Sets of a structure that describes the meridional barotropic volume or mass fluxes as a function of b...">
<polygon fill="white" stroke="black" points="266,-78.6145 266,-108.615 358,-108.615 358,-78.6145 266,-78.6145"/>
<text text-anchor="start" x="274" y="-96.6145" font-family="Helvetica,sans-Serif" font-size="10.00">mom_continuity_ppm</text>
<text text-anchor="middle" x="312" y="-85.6145" font-family="Helvetica,sans-Serif" font-size="10.00">::set_merid_bt_cont</text>
</a>
</g>
</g>
<!-- Node1&#45;&gt;Node10 -->
<g id="edge11" class="edge"><title>Node1&#45;&gt;Node10</title>
<path fill="none" stroke="midnightblue" d="M226.016,-117.896C235.726,-115.121 246.007,-112.184 255.938,-109.347"/>
<polygon fill="midnightblue" stroke="midnightblue" points="257.063,-112.665 265.717,-106.553 255.14,-105.934 257.063,-112.665"/>
</g>
<!-- Node11 -->
<g id="node12" class="node"><title>Node11</title>
<g id="a_node12"><a xlink:href="namespacemom__continuity__ppm.html#a57d13af4508737f8a42c2a997614a60e" target="_top" xlink:title="Sets the effective interface thickness at each meridional velocity point.">
<polygon fill="white" stroke="black" points="263,-29.6145 263,-59.6145 361,-59.6145 361,-29.6145 263,-29.6145"/>
<text text-anchor="start" x="271" y="-47.6145" font-family="Helvetica,sans-Serif" font-size="10.00">mom_continuity_ppm</text>
<text text-anchor="middle" x="312" y="-36.6145" font-family="Helvetica,sans-Serif" font-size="10.00">::merid_face_thickness</text>
</a>
</g>
</g>
<!-- Node1&#45;&gt;Node11 -->
<g id="edge14" class="edge"><title>Node1&#45;&gt;Node11</title>
<path fill="none" stroke="midnightblue" d="M195.977,-116.563C212.525,-103.096 238.059,-83.2753 262,-68.6145 264.306,-67.2023 266.707,-65.8067 269.153,-64.4414"/>
<polygon fill="midnightblue" stroke="midnightblue" points="270.946,-67.4519 278.12,-59.6553 267.65,-61.2766 270.946,-67.4519"/>
</g>
<!-- Node2&#45;&gt;Node3 -->
<g id="edge3" class="edge"><title>Node2&#45;&gt;Node3</title>
<path fill="none" stroke="midnightblue" d="M362.136,-219.615C371.571,-219.615 381.515,-219.615 391.144,-219.615"/>
<polygon fill="midnightblue" stroke="midnightblue" points="391.429,-223.115 401.429,-219.615 391.429,-216.115 391.429,-223.115"/>
</g>
<!-- Node5 -->
<g id="node6" class="node"><title>Node5</title>
<g id="a_node6"><a xlink:href="namespacemom__continuity__ppm.html#ab03786fff2550dd61282356608fc1352" target="_top" xlink:title="This subroutine limits the left/right edge values of the PPM reconstruction according to the monotoni...">
<polygon fill="white" stroke="black" points="402,-253.615 402,-283.615 494,-283.615 494,-253.615 402,-253.615"/>
<text text-anchor="start" x="410" y="-271.615" font-family="Helvetica,sans-Serif" font-size="10.00">mom_continuity_ppm</text>
<text text-anchor="middle" x="448" y="-260.615" font-family="Helvetica,sans-Serif" font-size="10.00">::ppm_limit_cw84</text>
</a>
</g>
</g>
<!-- Node2&#45;&gt;Node5 -->
<g id="edge5" class="edge"><title>Node2&#45;&gt;Node5</title>
<path fill="none" stroke="midnightblue" d="M354.298,-234.716C367.544,-239.56 382.369,-244.981 396.213,-250.043"/>
<polygon fill="midnightblue" stroke="midnightblue" points="395.014,-253.331 405.608,-253.479 397.418,-246.757 395.014,-253.331"/>
</g>
<!-- Node6 -->
<g id="node7" class="node"><title>Node6</title>
<g id="a_node7"><a xlink:href="namespacemom__continuity__ppm.html#a870edb0c5b2cb0464899430b6651260c" target="_top" xlink:title="This subroutine limits the left/right edge values of the PPM reconstruction to give a reconstruction ...">
<polygon fill="white" stroke="black" points="402,-302.615 402,-332.615 494,-332.615 494,-302.615 402,-302.615"/>
<text text-anchor="start" x="410" y="-320.615" font-family="Helvetica,sans-Serif" font-size="10.00">mom_continuity_ppm</text>
<text text-anchor="middle" x="448" y="-309.615" font-family="Helvetica,sans-Serif" font-size="10.00">::ppm_limit_pos</text>
</a>
</g>
</g>
<!-- Node2&#45;&gt;Node6 -->
<g id="edge6" class="edge"><title>Node2&#45;&gt;Node6</title>
<path fill="none" stroke="midnightblue" d="M349.049,-234.733C353.626,-237.369 358.076,-240.334 362,-243.615 382.733,-260.947 377.409,-275.113 398,-292.615 399.744,-294.097 401.591,-295.521 403.507,-296.885"/>
<polygon fill="midnightblue" stroke="midnightblue" points="401.926,-300.028 412.236,-302.469 405.698,-294.132 401.926,-300.028"/>
</g>
<!-- Node4 -->
<g id="node5" class="node"><title>Node4</title>
<g id="a_node5"><a xlink:href="namespacemom__error__handler.html#ad5f00a53059c72fe2332d1436c80ca71" target="_top" xlink:title=" ">
<polygon fill="white" stroke="black" points="534.5,-204.615 534.5,-234.615 627.5,-234.615 627.5,-204.615 534.5,-204.615"/>
<text text-anchor="start" x="542.5" y="-222.615" font-family="Helvetica,sans-Serif" font-size="10.00">mom_error_handler::</text>
<text text-anchor="middle" x="581" y="-211.615" font-family="Helvetica,sans-Serif" font-size="10.00">is_root_pe</text>
</a>
</g>
</g>
<!-- Node3&#45;&gt;Node4 -->
<g id="edge4" class="edge"><title>Node3&#45;&gt;Node4</title>
<path fill="none" stroke="midnightblue" d="M494.817,-219.615C504.346,-219.615 514.487,-219.615 524.325,-219.615"/>
<polygon fill="midnightblue" stroke="midnightblue" points="524.43,-223.115 534.43,-219.615 524.43,-216.115 524.43,-223.115"/>
</g>
<!-- Node9&#45;&gt;Node7 -->
<g id="edge10" class="edge"><title>Node9&#45;&gt;Node7</title>
<path fill="none" stroke="midnightblue" d="M493.716,-100.595C503.931,-97.1644 514.898,-93.4808 525.473,-89.9291"/>
<polygon fill="midnightblue" stroke="midnightblue" points="526.675,-93.2174 535.04,-86.7155 524.446,-86.5817 526.675,-93.2174"/>
</g>
<!-- Node10&#45;&gt;Node9 -->
<g id="edge12" class="edge"><title>Node10&#45;&gt;Node9</title>
<path fill="none" stroke="midnightblue" d="M358.366,-101.063C367.721,-102.599 377.705,-104.238 387.475,-105.842"/>
<polygon fill="midnightblue" stroke="midnightblue" points="387.109,-109.328 397.543,-107.495 388.243,-102.421 387.109,-109.328"/>
</g>
<!-- Node10&#45;&gt;Node7 -->
<g id="edge13" class="edge"><title>Node10&#45;&gt;Node7</title>
<path fill="none" stroke="midnightblue" d="M358.293,-89.8825C404.269,-86.0942 475.51,-80.2242 524.77,-76.1653"/>
<polygon fill="midnightblue" stroke="midnightblue" points="525.252,-79.6375 534.931,-75.3281 524.678,-72.6612 525.252,-79.6375"/>
</g>
<!-- Node13 -->
<g id="node14" class="node"><title>Node13</title>
<g id="a_node14"><a xlink:href="namespacemom__continuity__ppm.html#ad3b20d431c759531e827f1d426786884" target="_top" xlink:title="Calculates left/right edge values for PPM reconstruction.">
<polygon fill="white" stroke="black" points="262,-302.615 262,-332.615 362,-332.615 362,-302.615 262,-302.615"/>
<text text-anchor="start" x="270" y="-320.615" font-family="Helvetica,sans-Serif" font-size="10.00">mom_continuity_ppm</text>
<text text-anchor="middle" x="312" y="-309.615" font-family="Helvetica,sans-Serif" font-size="10.00">::ppm_reconstruction_x</text>
</a>
</g>
</g>
<!-- Node12&#45;&gt;Node13 -->
<g id="edge17" class="edge"><title>Node12&#45;&gt;Node13</title>
<path fill="none" stroke="midnightblue" d="M223.028,-346.718C233.636,-343.209 245.061,-339.429 256.051,-335.793"/>
<polygon fill="midnightblue" stroke="midnightblue" points="257.171,-339.109 265.566,-332.645 254.973,-332.463 257.171,-339.109"/>
</g>
<!-- Node14 -->
<g id="node15" class="node"><title>Node14</title>
<g id="a_node15"><a xlink:href="namespacemom__continuity__ppm.html#a3c7a68d00ff8defb2edcc60d0b7ddb7e" target="_top" xlink:title="Evaluates the zonal mass or volume fluxes in a layer.">
<polygon fill="white" stroke="black" points="535,-415.615 535,-445.615 627,-445.615 627,-415.615 535,-415.615"/>
<text text-anchor="start" x="543" y="-433.615" font-family="Helvetica,sans-Serif" font-size="10.00">mom_continuity_ppm</text>
<text text-anchor="middle" x="581" y="-422.615" font-family="Helvetica,sans-Serif" font-size="10.00">::zonal_flux_layer</text>
</a>
</g>
</g>
<!-- Node12&#45;&gt;Node14 -->
<g id="edge21" class="edge"><title>Node12&#45;&gt;Node14</title>
<path fill="none" stroke="midnightblue" d="M183.609,-377.029C194.205,-403.55 219.952,-457.04 262,-478.615 354.375,-526.011 480.338,-479.225 542.353,-450.074"/>
<polygon fill="midnightblue" stroke="midnightblue" points="543.884,-453.221 551.385,-445.739 540.855,-446.911 543.884,-453.221"/>
</g>
<!-- Node12&#45;&gt;Node8 -->
<g id="edge22" class="edge"><title>Node12&#45;&gt;Node8</title>
<path fill="none" stroke="midnightblue" d="M194.17,-346.394C210.471,-331.533 236.762,-308.847 262,-292.615 264.126,-291.247 266.342,-289.904 268.604,-288.595"/>
<polygon fill="midnightblue" stroke="midnightblue" points="270.389,-291.608 277.48,-283.735 267.028,-285.468 270.389,-291.608"/>
</g>
<!-- Node15 -->
<g id="node16" class="node"><title>Node15</title>
<g id="a_node16"><a xlink:href="namespacemom__continuity__ppm.html#a409d8171ed588e0c2b492dbfc963570d" target="_top" xlink:title="Returns the barotropic velocity adjustment that gives the desired barotropic (layer&#45;summed) transport...">
<polygon fill="white" stroke="black" points="402,-371.615 402,-401.615 494,-401.615 494,-371.615 402,-371.615"/>
<text text-anchor="start" x="410" y="-389.615" font-family="Helvetica,sans-Serif" font-size="10.00">mom_continuity_ppm</text>
<text text-anchor="middle" x="448" y="-378.615" font-family="Helvetica,sans-Serif" font-size="10.00">::zonal_flux_adjust</text>
</a>
</g>
</g>
<!-- Node12&#45;&gt;Node15 -->
<g id="edge23" class="edge"><title>Node12&#45;&gt;Node15</title>
<path fill="none" stroke="midnightblue" d="M223.025,-365.799C269.48,-370.116 341.998,-376.856 391.861,-381.49"/>
<polygon fill="midnightblue" stroke="midnightblue" points="391.548,-384.976 401.829,-382.416 392.195,-378.006 391.548,-384.976"/>
</g>
<!-- Node16 -->
<g id="node17" class="node"><title>Node16</title>
<g id="a_node17"><a xlink:href="namespacemom__continuity__ppm.html#aad852a51f55e24f5e276e4fbfe639394" target="_top" xlink:title="Sets a structure that describes the zonal barotropic volume or mass fluxes as a function of barotropi...">
<polygon fill="white" stroke="black" points="266,-390.615 266,-420.615 358,-420.615 358,-390.615 266,-390.615"/>
<text text-anchor="start" x="274" y="-408.615" font-family="Helvetica,sans-Serif" font-size="10.00">mom_continuity_ppm</text>
<text text-anchor="middle" x="312" y="-397.615" font-family="Helvetica,sans-Serif" font-size="10.00">::set_zonal_bt_cont</text>
</a>
</g>
</g>
<!-- Node12&#45;&gt;Node16 -->
<g id="edge25" class="edge"><title>Node12&#45;&gt;Node16</title>
<path fill="none" stroke="midnightblue" d="M223.028,-376.511C233.636,-380.02 245.061,-383.8 256.051,-387.436"/>
<polygon fill="midnightblue" stroke="midnightblue" points="254.973,-390.766 265.566,-390.584 257.171,-384.12 254.973,-390.766"/>
</g>
<!-- Node17 -->
<g id="node18" class="node"><title>Node17</title>
<g id="a_node18"><a xlink:href="namespacemom__continuity__ppm.html#a0d2952b38c8d388f317d904bc5d967b1" target="_top" xlink:title="Sets the effective interface thickness at each zonal velocity point.">
<polygon fill="white" stroke="black" points="264,-439.615 264,-469.615 360,-469.615 360,-439.615 264,-439.615"/>
<text text-anchor="start" x="272" y="-457.615" font-family="Helvetica,sans-Serif" font-size="10.00">mom_continuity_ppm</text>
<text text-anchor="middle" x="312" y="-446.615" font-family="Helvetica,sans-Serif" font-size="10.00">::zonal_face_thickness</text>
</a>
</g>
</g>
<!-- Node12&#45;&gt;Node17 -->
<g id="edge28" class="edge"><title>Node12&#45;&gt;Node17</title>
<path fill="none" stroke="midnightblue" d="M194.576,-376.78C210.97,-391.347 237.14,-413.464 262,-429.615 264.599,-431.303 267.327,-432.965 270.108,-434.581"/>
<polygon fill="midnightblue" stroke="midnightblue" points="268.643,-437.77 279.086,-439.556 272.036,-431.647 268.643,-437.77"/>
</g>
<!-- Node13&#45;&gt;Node3 -->
<g id="edge18" class="edge"><title>Node13&#45;&gt;Node3</title>
<path fill="none" stroke="midnightblue" d="M347.764,-302.469C352.79,-299.559 357.707,-296.264 362,-292.615 382.591,-275.113 377.267,-260.947 398,-243.615 399.349,-242.487 400.76,-241.396 402.217,-240.344"/>
<polygon fill="midnightblue" stroke="midnightblue" points="404.429,-243.083 410.951,-234.733 400.646,-237.193 404.429,-243.083"/>
</g>
<!-- Node13&#45;&gt;Node5 -->
<g id="edge19" class="edge"><title>Node13&#45;&gt;Node5</title>
<path fill="none" stroke="midnightblue" d="M354.298,-302.513C367.544,-297.669 382.369,-292.248 396.213,-287.186"/>
<polygon fill="midnightblue" stroke="midnightblue" points="397.418,-290.472 405.608,-283.75 395.014,-283.898 397.418,-290.472"/>
</g>
<!-- Node13&#45;&gt;Node6 -->
<g id="edge20" class="edge"><title>Node13&#45;&gt;Node6</title>
<path fill="none" stroke="midnightblue" d="M362.136,-317.615C371.782,-317.615 381.961,-317.615 391.79,-317.615"/>
<polygon fill="midnightblue" stroke="midnightblue" points="391.87,-321.115 401.87,-317.615 391.87,-314.115 391.87,-321.115"/>
</g>
<!-- Node15&#45;&gt;Node14 -->
<g id="edge24" class="edge"><title>Node15&#45;&gt;Node14</title>
<path fill="none" stroke="midnightblue" d="M493.716,-401.634C503.931,-405.065 514.898,-408.748 525.473,-412.3"/>
<polygon fill="midnightblue" stroke="midnightblue" points="524.446,-415.647 535.04,-415.514 526.675,-409.012 524.446,-415.647"/>
</g>
<!-- Node16&#45;&gt;Node15 -->
<g id="edge26" class="edge"><title>Node16&#45;&gt;Node15</title>
<path fill="none" stroke="midnightblue" d="M358.366,-399.182C369.062,-397.665 380.583,-396.032 391.664,-394.461"/>
<polygon fill="midnightblue" stroke="midnightblue" points="392.271,-397.91 401.68,-393.04 391.288,-390.979 392.271,-397.91"/>
</g>
<!-- Node16&#45;&gt;Node14 -->
<g id="edge27" class="edge"><title>Node16&#45;&gt;Node14</title>
<path fill="none" stroke="midnightblue" d="M358.293,-409.855C404.269,-414.16 475.51,-420.831 524.77,-425.443"/>
<polygon fill="midnightblue" stroke="midnightblue" points="524.648,-428.947 534.931,-426.395 525.301,-421.978 524.648,-428.947"/>
</g>
</g>
</svg>
        <g id="navigator" transform="translate(0 0)" fill="#404254">
                <rect fill="#f2f5e9" fill-opacity="0.5" stroke="#606060" stroke-width=".5" x="0" y="0" width="60" height="60"/>
                <use id="zoomplus" xlink:href="#zoomPlus" x="17" y="9" onmousedown="handleZoom(evt,'in')"/>
                <use id="zoomminus" xlink:href="#zoomMin" x="42" y="9" onmousedown="handleZoom(evt,'out')"/>
                <use id="reset" xlink:href="#resetDef" x="30" y="36" onmousedown="handleReset()"/>
                <g id="arrowUp" xlink:href="#dirArrow" transform="translate(30 24)" onmousedown="handlePan(0,-1)">
                  <use xlink:href="#rim" fill="#404040">
                        <set attributeName="fill" to="#808080" begin="arrowUp.mouseover" end="arrowUp.mouseout"/>
                  </use>
                  <path fill="none" stroke="white" stroke-width="1.5" d="M0,-3.0v7 M-2.5,-0.5L0,-3.0L2.5,-0.5"/>
                </g>
                <g id="arrowRight" xlink:href="#dirArrow" transform="rotate(90) translate(36 -43)" onmousedown="handlePan(1,0)">
                  <use xlink:href="#rim" fill="#404040">
                        <set attributeName="fill" to="#808080" begin="arrowRight.mouseover" end="arrowRight.mouseout"/>
                  </use>
                  <path fill="none" stroke="white" stroke-width="1.5" d="M0,-3.0v7 M-2.5,-0.5L0,-3.0L2.5,-0.5"/>
                </g>
                <g id="arrowDown" xlink:href="#dirArrow" transform="rotate(180) translate(-30 -48)" onmousedown="handlePan(0,1)">
                  <use xlink:href="#rim" fill="#404040">
                        <set attributeName="fill" to="#808080" begin="arrowDown.mouseover" end="arrowDown.mouseout"/>
                  </use>
                  <path fill="none" stroke="white" stroke-width="1.5" d="M0,-3.0v7 M-2.5,-0.5L0,-3.0L2.5,-0.5"/>
                </g>
                <g id="arrowLeft" xlink:href="#dirArrow" transform="rotate(270) translate(-36 17)" onmousedown="handlePan(-1,0)">
                  <use xlink:href="#rim" fill="#404040">
                        <set attributeName="fill" to="#808080" begin="arrowLeft.mouseover" end="arrowLeft.mouseout"/>
                  </use>
                  <path fill="none" stroke="white" stroke-width="1.5" d="M0,-3.0v7 M-2.5,-0.5L0,-3.0L2.5,-0.5"/>
                </g>
        </g>
        <svg viewBox="0 0 15 15" width="100%" height="30px" preserveAspectRatio="xMaxYMin meet">
         <g id="arrow_out" transform="scale(0.3 0.3)">
          <a xlink:href="namespacemom__continuity__ppm_a59586aae1668f03f3a78d58f5712cc0f_cgraph_org.svg" target="_base">
           <rect id="button" ry="5" rx="5" y="6" x="6" height="38" width="38"
                fill="#f2f5e9" fill-opacity="0.5" stroke="#606060" stroke-width="1.0"/>
           <path id="arrow"
             d="M 11.500037,31.436501 C 11.940474,20.09759 22.043105,11.32322 32.158766,21.979434 L 37.068811,17.246167 C 37.068811,17.246167 37.088388,32 37.088388,32 L 22.160133,31.978069 C 22.160133,31.978069 26.997745,27.140456 26.997745,27.140456 C 18.528582,18.264221 13.291696,25.230495 11.500037,31.436501 z"
             style="fill:#404040;"/>
          </a>
         </g>
        </svg>
</svg>
