<?xml version="1.0" encoding="UTF-8" standalone="no"?>
<!DOCTYPE svg PUBLIC "-//W3C//DTD SVG 1.1//EN"
 "http://www.w3.org/Graphics/SVG/1.1/DTD/svg11.dtd">
<!-- Generated by graphviz version 2.30.1 (20170916.1124)
 -->
<!-- Title: mom_wave_speed::wave_speed Pages: 1 -->
<svg width="472pt" height="99pt"
 viewBox="0.00 0.00 472.00 99.00" xmlns="http://www.w3.org/2000/svg" xmlns:xlink="http://www.w3.org/1999/xlink">
<g id="graph0" class="graph" transform="scale(1 1) rotate(0) translate(4 95)">
<title>mom_wave_speed::wave_speed</title>
<polygon fill="white" stroke="white" points="-4,5 -4,-95 469,-95 469,5 -4,5"/>
<!-- Node43 -->
<g id="node1" class="node"><title>Node43</title>
<g id="a_node1"><a xlink:title="Calculates the wave speed of the first baroclinic mode.">
<polygon fill="#bfbfbf" stroke="black" points="356.5,-27 356.5,-57 463.5,-57 463.5,-27 356.5,-27"/>
<text text-anchor="start" x="364.5" y="-45" font-family="Helvetica,sans-Serif" font-size="10.00">mom_wave_speed::wave</text>
<text text-anchor="middle" x="410" y="-34" font-family="Helvetica,sans-Serif" font-size="10.00">_speed</text>
</a>
</g>
</g>
<!-- Node44 -->
<g id="node2" class="node"><title>Node44</title>
<g id="a_node2"><a xlink:href="namespacemom__lateral__mixing__coeffs.html#af206bc656869b4fc27d4d7e8a15d438e" target="_top" xlink:title="Calculates and stores the non&#45;dimensional resolution functions.">
<polygon fill="white" stroke="black" points="219,-49.5 219,-90.5 307,-90.5 307,-49.5 219,-49.5"/>
<text text-anchor="start" x="227" y="-78.5" font-family="Helvetica,sans-Serif" font-size="10.00">mom_lateral_mixing</text>
<text text-anchor="start" x="227" y="-67.5" font-family="Helvetica,sans-Serif" font-size="10.00">_coeffs::calc_resoln</text>
<text text-anchor="middle" x="263" y="-56.5" font-family="Helvetica,sans-Serif" font-size="10.00">_function</text>
</a>
</g>
</g>
<!-- Node43&#45;&gt;Node44 -->
<g id="edge1" class="edge"><title>Node43&#45;&gt;Node44</title>
<path fill="none" stroke="midnightblue" d="M346.328,-54.1022C333.215,-56.6344 319.664,-59.2511 307.436,-61.6124"/>
<polygon fill="midnightblue" stroke="midnightblue" points="347.087,-57.5205 356.241,-52.1878 345.759,-50.6474 347.087,-57.5205"/>
</g>
<!-- Node47 -->
<g id="node5" class="node"><title>Node47</title>
<g id="a_node5"><a xlink:href="namespacemom__diagnostics.html#abb6644248c28ab2e952361bfec436063" target="_top" xlink:title=" ">
<polygon fill="white" stroke="black" points="206.5,-0 206.5,-30 319.5,-30 319.5,-0 206.5,-0"/>
<text text-anchor="start" x="214.5" y="-18" font-family="Helvetica,sans-Serif" font-size="10.00">mom_diagnostics::calculate</text>
<text text-anchor="middle" x="263" y="-7" font-family="Helvetica,sans-Serif" font-size="10.00">_diagnostic_fields</text>
</a>
</g>
</g>
<!-- Node43&#45;&gt;Node47 -->
<g id="edge4" class="edge"><title>Node43&#45;&gt;Node47</title>
<path fill="none" stroke="midnightblue" d="M346.402,-30.3438C337.587,-28.7024 328.573,-27.0239 319.894,-25.4078"/>
<polygon fill="midnightblue" stroke="midnightblue" points="345.77,-33.7862 356.241,-32.176 347.051,-26.9045 345.77,-33.7862"/>
</g>
<!-- Node45 -->
<g id="node3" class="node"><title>Node45</title>
<g id="a_node3"><a xlink:href="namespacemom.html#a4c8332b095c6d295084089aa6b3b678a" target="_top" xlink:title="This subroutine orchestrates the time stepping of MOM. The adiabatic dynamics are stepped by calls to...">
<polygon fill="white" stroke="black" points="92.5,-60.5 92.5,-79.5 169.5,-79.5 169.5,-60.5 92.5,-60.5"/>
<text text-anchor="middle" x="131" y="-67.5" font-family="Helvetica,sans-Serif" font-size="10.00">mom::step_mom</text>
</a>
</g>
</g>
<!-- Node44&#45;&gt;Node45 -->
<g id="edge2" class="edge"><title>Node44&#45;&gt;Node45</title>
<path fill="none" stroke="midnightblue" d="M208.492,-70C195.53,-70 181.937,-70 169.866,-70"/>
<polygon fill="midnightblue" stroke="midnightblue" points="208.712,-73.5001 218.712,-70 208.712,-66.5001 208.712,-73.5001"/>
</g>
<!-- Node46 -->
<g id="node4" class="node"><title>Node46</title>
<g id="a_node4"><a xlink:href="MOM__driver_8F90.html#a08fffeb2d8e8acbf9ed4609be6d258c6" target="_top" xlink:title=" ">
<polygon fill="white" stroke="black" points="0,-60.5 0,-79.5 56,-79.5 56,-60.5 0,-60.5"/>
<text text-anchor="middle" x="28" y="-67.5" font-family="Helvetica,sans-Serif" font-size="10.00">mom_main</text>
</a>
</g>
</g>
<!-- Node45&#45;&gt;Node46 -->
<g id="edge3" class="edge"><title>Node45&#45;&gt;Node46</title>
<path fill="none" stroke="midnightblue" d="M82.3728,-70C73.3999,-70 64.3057,-70 56.2281,-70"/>
<polygon fill="midnightblue" stroke="midnightblue" points="82.3914,-73.5001 92.3913,-70 82.3913,-66.5001 82.3914,-73.5001"/>
</g>
</g>
</svg>
