<?xml version="1.0" encoding="UTF-8" standalone="no"?>
<!DOCTYPE svg PUBLIC "-//W3C//DTD SVG 1.1//EN"
 "http://www.w3.org/Graphics/SVG/1.1/DTD/svg11.dtd">
<!-- Generated by graphviz version 2.30.1 (20170916.1124)
 -->
<!-- Title: mom_io::query_vardesc Pages: 1 -->
<svg width="516pt" height="38pt"
 viewBox="0.00 0.00 516.00 38.00" xmlns="http://www.w3.org/2000/svg" xmlns:xlink="http://www.w3.org/1999/xlink">
<g id="graph0" class="graph" transform="scale(1 1) rotate(0) translate(4 34)">
<title>mom_io::query_vardesc</title>
<polygon fill="white" stroke="white" points="-4,5 -4,-34 513,-34 513,5 -4,5"/>
<!-- Node57 -->
<g id="node1" class="node"><title>Node57</title>
<g id="a_node1"><a xlink:title="This routine queries vardesc.">
<polygon fill="#bfbfbf" stroke="black" points="0,-5.5 0,-24.5 102,-24.5 102,-5.5 0,-5.5"/>
<text text-anchor="middle" x="51" y="-12.5" font-family="Helvetica,sans-Serif" font-size="10.00">mom_io::query_vardesc</text>
</a>
</g>
</g>
<!-- Node58 -->
<g id="node2" class="node"><title>Node58</title>
<g id="a_node2"><a xlink:href="namespacemom__io.html#ac4bc408e8b38dbd669842753f26ebf88" target="_top" xlink:title="Copies a string.">
<polygon fill="white" stroke="black" points="138,-5.5 138,-24.5 248,-24.5 248,-5.5 138,-5.5"/>
<text text-anchor="middle" x="193" y="-12.5" font-family="Helvetica,sans-Serif" font-size="10.00">mom_io::safe_string_copy</text>
</a>
</g>
</g>
<!-- Node57&#45;&gt;Node58 -->
<g id="edge1" class="edge"><title>Node57&#45;&gt;Node58</title>
<path fill="none" stroke="midnightblue" d="M102.148,-15C110.494,-15 119.251,-15 127.887,-15"/>
<polygon fill="midnightblue" stroke="midnightblue" points="127.938,-18.5001 137.938,-15 127.938,-11.5001 127.938,-18.5001"/>
</g>
<!-- Node59 -->
<g id="node3" class="node"><title>Node59</title>
<g id="a_node3"><a xlink:href="namespacemom__error__handler.html#a460cfb79a06c29fc249952c2a3710d67" target="_top" xlink:title=" ">
<polygon fill="white" stroke="black" points="284.5,-0 284.5,-30 377.5,-30 377.5,-0 284.5,-0"/>
<text text-anchor="start" x="292.5" y="-18" font-family="Helvetica,sans-Serif" font-size="10.00">mom_error_handler::</text>
<text text-anchor="middle" x="331" y="-7" font-family="Helvetica,sans-Serif" font-size="10.00">mom_error</text>
</a>
</g>
</g>
<!-- Node58&#45;&gt;Node59 -->
<g id="edge2" class="edge"><title>Node58&#45;&gt;Node59</title>
<path fill="none" stroke="midnightblue" d="M248.142,-15C256.767,-15 265.702,-15 274.361,-15"/>
<polygon fill="midnightblue" stroke="midnightblue" points="274.364,-18.5001 284.364,-15 274.364,-11.5001 274.364,-18.5001"/>
</g>
<!-- Node60 -->
<g id="node4" class="node"><title>Node60</title>
<g id="a_node4"><a xlink:href="namespacemom__error__handler.html#ad5f00a53059c72fe2332d1436c80ca71" target="_top" xlink:title=" ">
<polygon fill="white" stroke="black" points="414.5,-0 414.5,-30 507.5,-30 507.5,-0 414.5,-0"/>
<text text-anchor="start" x="422.5" y="-18" font-family="Helvetica,sans-Serif" font-size="10.00">mom_error_handler::</text>
<text text-anchor="middle" x="461" y="-7" font-family="Helvetica,sans-Serif" font-size="10.00">is_root_pe</text>
</a>
</g>
</g>
<!-- Node59&#45;&gt;Node60 -->
<g id="edge3" class="edge"><title>Node59&#45;&gt;Node60</title>
<path fill="none" stroke="midnightblue" d="M377.849,-15C386.408,-15 395.439,-15 404.258,-15"/>
<polygon fill="midnightblue" stroke="midnightblue" points="404.471,-18.5001 414.471,-15 404.471,-11.5001 404.471,-18.5001"/>
</g>
</g>
</svg>
