<?xml version="1.0" encoding="UTF-8" standalone="no"?>
<!DOCTYPE svg PUBLIC "-//W3C//DTD SVG 1.1//EN"
 "http://www.w3.org/Graphics/SVG/1.1/DTD/svg11.dtd">
<!-- Generated by graphviz version 2.30.1 (20170916.1124)
 -->
<!-- Title: mom_eos::int_spec_vol_dp_generic Pages: 1 -->
<!--zoomable 185 -->
<svg id="main" version="1.1" xmlns="http://www.w3.org/2000/svg" xmlns:xlink="http://www.w3.org/1999/xlink" xml:space="preserve" onload="init(evt)">
<style type="text/css"><![CDATA[
.edge:hover path { stroke: red; }
.edge:hover polygon { stroke: red; fill: red; }
]]></style>
<script type="text/javascript"><![CDATA[
var edges = document.getElementsByTagName('g');
if (edges && edges.length) {
  for (var i=0;i<edges.length;i++) {
    if (edges[i].id.substr(0,4)=='edge') {
      edges[i].setAttribute('class','edge');
    }
  }
}
]]></script>
        <defs>
                <circle id="rim" cx="0" cy="0" r="7"/>
                <circle id="rim2" cx="0" cy="0" r="3.5"/>
                <g id="zoomPlus">
                        <use xlink:href="#rim" fill="#404040">
                                <set attributeName="fill" to="#808080" begin="zoomplus.mouseover" end="zoomplus.mouseout"/>
                        </use>
                        <path d="M-4,0h8M0,-4v8" fill="none" stroke="white" stroke-width="1.5" pointer-events="none"/>
                </g>
                <g id="zoomMin">
                        <use xlink:href="#rim" fill="#404040">
                                <set attributeName="fill" to="#808080" begin="zoomminus.mouseover" end="zoomminus.mouseout"/>
                        </use>
                        <path d="M-4,0h8" fill="none" stroke="white" stroke-width="1.5" pointer-events="none"/>
                </g>
                <g id="dirArrow">
                        <path fill="none" stroke="white" stroke-width="1.5" d="M0,-3.0v7 M-2.5,-0.5L0,-3.0L2.5,-0.5"/>
                </g>
               <g id="resetDef">
                       <use xlink:href="#rim2" fill="#404040">
                               <set attributeName="fill" to="#808080" begin="reset.mouseover" end="reset.mouseout"/>
                       </use>
               </g>
        </defs>

<script type="text/javascript">
var viewWidth = 764;
var viewHeight = 185;
var sectionId = 'dynsection-31';
</script>
<script xlink:href="svgpan.js"/>
<svg id="graph" class="graph">
<g id="viewport">
<title>mom_eos::int_spec_vol_dp_generic</title>
<polygon fill="white" stroke="white" points="-4,5 -4,-181 761,-181 761,5 -4,5"/>
<!-- Node171 -->
<g id="node1" class="node"><title>Node171</title>
<g id="a_node1"><a xlink:title=" ">
<polygon fill="#bfbfbf" stroke="black" points="656,-73 656,-103 756,-103 756,-73 656,-73"/>
<text text-anchor="start" x="664" y="-91" font-family="Helvetica,sans-Serif" font-size="10.00">mom_eos::int_spec_vol</text>
<text text-anchor="middle" x="706" y="-80" font-family="Helvetica,sans-Serif" font-size="10.00">_dp_generic</text>
</a>
</g>
</g>
<!-- Node172 -->
<g id="node2" class="node"><title>Node172</title>
<g id="a_node2"><a xlink:href="namespacemom__eos.html#a0670589d5ab62b8925545cee7eb33680" target="_top" xlink:title="Calls the appropriate subroutine to alculate analytical and nearly&#45;analytical integrals in pressure a...">
<polygon fill="white" stroke="black" points="524.5,-73 524.5,-103 619.5,-103 619.5,-73 524.5,-73"/>
<text text-anchor="start" x="532.5" y="-91" font-family="Helvetica,sans-Serif" font-size="10.00">mom_eos::int_specific</text>
<text text-anchor="middle" x="572" y="-80" font-family="Helvetica,sans-Serif" font-size="10.00">_vol_dp</text>
</a>
</g>
</g>
<!-- Node171&#45;&gt;Node172 -->
<g id="edge1" class="edge"><title>Node171&#45;&gt;Node172</title>
<path fill="none" stroke="midnightblue" d="M645.681,-88C636.927,-88 628.014,-88 619.567,-88"/>
<polygon fill="midnightblue" stroke="midnightblue" points="645.848,-91.5001 655.848,-88 645.848,-84.5001 645.848,-91.5001"/>
</g>
<!-- Node173 -->
<g id="node3" class="node"><title>Node173</title>
<g id="a_node3"><a xlink:href="namespacemom__interface__heights.html#a914e07fc2e023e8a0f31fd840ad19f13" target="_top" xlink:title=" ">
<polygon fill="white" stroke="black" points="372,-147 372,-177 472,-177 472,-147 372,-147"/>
<text text-anchor="start" x="380" y="-165" font-family="Helvetica,sans-Serif" font-size="10.00">mom_interface_heights</text>
<text text-anchor="middle" x="422" y="-154" font-family="Helvetica,sans-Serif" font-size="10.00">::find_eta_3d</text>
</a>
</g>
</g>
<!-- Node172&#45;&gt;Node173 -->
<g id="edge2" class="edge"><title>Node172&#45;&gt;Node173</title>
<path fill="none" stroke="midnightblue" d="M539.438,-108.309C524.219,-117.664 505.506,-128.539 488,-137 480.815,-140.473 473.015,-143.816 465.394,-146.867"/>
<polygon fill="midnightblue" stroke="midnightblue" points="541.318,-111.262 547.959,-103.007 537.619,-105.318 541.318,-111.262"/>
</g>
<!-- Node174 -->
<g id="node4" class="node"><title>Node174</title>
<g id="a_node4"><a xlink:href="namespacemom__interface__heights.html#afbd50f85cffbd290c630c8241f3fc9df" target="_top" xlink:title=" ">
<polygon fill="white" stroke="black" points="372,-98 372,-128 472,-128 472,-98 372,-98"/>
<text text-anchor="start" x="380" y="-116" font-family="Helvetica,sans-Serif" font-size="10.00">mom_interface_heights</text>
<text text-anchor="middle" x="422" y="-105" font-family="Helvetica,sans-Serif" font-size="10.00">::find_eta_2d</text>
</a>
</g>
</g>
<!-- Node172&#45;&gt;Node174 -->
<g id="edge3" class="edge"><title>Node172&#45;&gt;Node174</title>
<path fill="none" stroke="midnightblue" d="M514.234,-97.5889C500.336,-99.9365 485.579,-102.429 472.076,-104.71"/>
<polygon fill="midnightblue" stroke="midnightblue" points="514.895,-101.027 524.172,-95.9102 513.729,-94.1247 514.895,-101.027"/>
</g>
<!-- Node175 -->
<g id="node5" class="node"><title>Node175</title>
<g id="a_node5"><a xlink:href="namespacemom__pressureforce__mont.html#af536642cd29fc7ad6465c4f277ff0764" target="_top" xlink:title="Non&#45;Boussinesq Montgomery&#45;potential form of pressure gradient.">
<polygon fill="white" stroke="black" points="356,-49 356,-79 488,-79 488,-49 356,-49"/>
<text text-anchor="start" x="364" y="-67" font-family="Helvetica,sans-Serif" font-size="10.00">mom_pressureforce_mont</text>
<text text-anchor="middle" x="422" y="-56" font-family="Helvetica,sans-Serif" font-size="10.00">::pressureforce_mont_nonbouss</text>
</a>
</g>
</g>
<!-- Node172&#45;&gt;Node175 -->
<g id="edge4" class="edge"><title>Node172&#45;&gt;Node175</title>
<path fill="none" stroke="midnightblue" d="M514.038,-78.7629C505.576,-77.3906 496.799,-75.9674 488.184,-74.5704"/>
<polygon fill="midnightblue" stroke="midnightblue" points="513.741,-82.2603 524.172,-80.4062 514.861,-75.3506 513.741,-82.2603"/>
</g>
<!-- Node176 -->
<g id="node6" class="node"><title>Node176</title>
<g id="a_node6"><a xlink:href="namespacemom__state__initialization.html#a32182e3f40271d73bf059c0d94b7da32" target="_top" xlink:title=" ">
<polygon fill="white" stroke="black" points="371.5,-0 371.5,-30 472.5,-30 472.5,-0 371.5,-0"/>
<text text-anchor="start" x="379.5" y="-18" font-family="Helvetica,sans-Serif" font-size="10.00">mom_state_initialization</text>
<text text-anchor="middle" x="422" y="-7" font-family="Helvetica,sans-Serif" font-size="10.00">::convert_thickness</text>
</a>
</g>
</g>
<!-- Node172&#45;&gt;Node176 -->
<g id="edge5" class="edge"><title>Node172&#45;&gt;Node176</title>
<path fill="none" stroke="midnightblue" d="M538.306,-67.4997C523.278,-58.4948 505.04,-48.142 488,-40 480.691,-36.5075 472.755,-33.1307 465.022,-30.0483"/>
<polygon fill="midnightblue" stroke="midnightblue" points="536.843,-70.7061 547.208,-72.9005 540.474,-64.7213 536.843,-70.7061"/>
</g>
<!-- Node177 -->
<g id="node7" class="node"><title>Node177</title>
<g id="a_node7"><a xlink:href="namespacemom__state__initialization.html#af4e854627c6572332ba3fd895f169321" target="_top" xlink:title=" ">
<polygon fill="white" stroke="black" points="218.5,-0 218.5,-30 319.5,-30 319.5,-0 218.5,-0"/>
<text text-anchor="start" x="226.5" y="-18" font-family="Helvetica,sans-Serif" font-size="10.00">mom_state_initialization</text>
<text text-anchor="middle" x="269" y="-7" font-family="Helvetica,sans-Serif" font-size="10.00">::mom_initialize_state</text>
</a>
</g>
</g>
<!-- Node176&#45;&gt;Node177 -->
<g id="edge6" class="edge"><title>Node176&#45;&gt;Node177</title>
<path fill="none" stroke="midnightblue" d="M360.835,-15C347.141,-15 332.745,-15 319.552,-15"/>
<polygon fill="midnightblue" stroke="midnightblue" points="361.139,-18.5001 371.138,-15 361.138,-11.5001 361.139,-18.5001"/>
</g>
<!-- Node178 -->
<g id="node8" class="node"><title>Node178</title>
<g id="a_node8"><a xlink:href="namespacemom.html#a0be2869fef30e1e0604facfe1b41555d" target="_top" xlink:title="This subroutine initializes MOM.">
<polygon fill="white" stroke="black" points="92.5,-5.5 92.5,-24.5 181.5,-24.5 181.5,-5.5 92.5,-5.5"/>
<text text-anchor="middle" x="137" y="-12.5" font-family="Helvetica,sans-Serif" font-size="10.00">mom::initialize_mom</text>
</a>
</g>
</g>
<!-- Node177&#45;&gt;Node178 -->
<g id="edge7" class="edge"><title>Node177&#45;&gt;Node178</title>
<path fill="none" stroke="midnightblue" d="M208.461,-15C199.5,-15 190.4,-15 181.848,-15"/>
<polygon fill="midnightblue" stroke="midnightblue" points="208.482,-18.5001 218.482,-15 208.482,-11.5001 208.482,-18.5001"/>
</g>
<!-- Node179 -->
<g id="node9" class="node"><title>Node179</title>
<g id="a_node9"><a xlink:href="MOM__driver_8F90.html#a08fffeb2d8e8acbf9ed4609be6d258c6" target="_top" xlink:title=" ">
<polygon fill="white" stroke="black" points="0,-5.5 0,-24.5 56,-24.5 56,-5.5 0,-5.5"/>
<text text-anchor="middle" x="28" y="-12.5" font-family="Helvetica,sans-Serif" font-size="10.00">mom_main</text>
</a>
</g>
</g>
<!-- Node178&#45;&gt;Node179 -->
<g id="edge8" class="edge"><title>Node178&#45;&gt;Node179</title>
<path fill="none" stroke="midnightblue" d="M82.3096,-15C73.2562,-15 64.21,-15 56.2082,-15"/>
<polygon fill="midnightblue" stroke="midnightblue" points="82.479,-18.5001 92.479,-15 82.479,-11.5001 82.479,-18.5001"/>
</g>
</g>
</svg>
        <g id="navigator" transform="translate(0 0)" fill="#404254">
                <rect fill="#f2f5e9" fill-opacity="0.5" stroke="#606060" stroke-width=".5" x="0" y="0" width="60" height="60"/>
                <use id="zoomplus" xlink:href="#zoomPlus" x="17" y="9" onmousedown="handleZoom(evt,'in')"/>
                <use id="zoomminus" xlink:href="#zoomMin" x="42" y="9" onmousedown="handleZoom(evt,'out')"/>
                <use id="reset" xlink:href="#resetDef" x="30" y="36" onmousedown="handleReset()"/>
                <g id="arrowUp" xlink:href="#dirArrow" transform="translate(30 24)" onmousedown="handlePan(0,-1)">
                  <use xlink:href="#rim" fill="#404040">
                        <set attributeName="fill" to="#808080" begin="arrowUp.mouseover" end="arrowUp.mouseout"/>
                  </use>
                  <path fill="none" stroke="white" stroke-width="1.5" d="M0,-3.0v7 M-2.5,-0.5L0,-3.0L2.5,-0.5"/>
                </g>
                <g id="arrowRight" xlink:href="#dirArrow" transform="rotate(90) translate(36 -43)" onmousedown="handlePan(1,0)">
                  <use xlink:href="#rim" fill="#404040">
                        <set attributeName="fill" to="#808080" begin="arrowRight.mouseover" end="arrowRight.mouseout"/>
                  </use>
                  <path fill="none" stroke="white" stroke-width="1.5" d="M0,-3.0v7 M-2.5,-0.5L0,-3.0L2.5,-0.5"/>
                </g>
                <g id="arrowDown" xlink:href="#dirArrow" transform="rotate(180) translate(-30 -48)" onmousedown="handlePan(0,1)">
                  <use xlink:href="#rim" fill="#404040">
                        <set attributeName="fill" to="#808080" begin="arrowDown.mouseover" end="arrowDown.mouseout"/>
                  </use>
                  <path fill="none" stroke="white" stroke-width="1.5" d="M0,-3.0v7 M-2.5,-0.5L0,-3.0L2.5,-0.5"/>
                </g>
                <g id="arrowLeft" xlink:href="#dirArrow" transform="rotate(270) translate(-36 17)" onmousedown="handlePan(-1,0)">
                  <use xlink:href="#rim" fill="#404040">
                        <set attributeName="fill" to="#808080" begin="arrowLeft.mouseover" end="arrowLeft.mouseout"/>
                  </use>
                  <path fill="none" stroke="white" stroke-width="1.5" d="M0,-3.0v7 M-2.5,-0.5L0,-3.0L2.5,-0.5"/>
                </g>
        </g>
        <svg viewBox="0 0 15 15" width="100%" height="30px" preserveAspectRatio="xMaxYMin meet">
         <g id="arrow_out" transform="scale(0.3 0.3)">
          <a xlink:href="namespacemom__eos_ad2e95a70c19e0b162785fb213d63ed52_icgraph_org.svg" target="_base">
           <rect id="button" ry="5" rx="5" y="6" x="6" height="38" width="38"
                fill="#f2f5e9" fill-opacity="0.5" stroke="#606060" stroke-width="1.0"/>
           <path id="arrow"
             d="M 11.500037,31.436501 C 11.940474,20.09759 22.043105,11.32322 32.158766,21.979434 L 37.068811,17.246167 C 37.068811,17.246167 37.088388,32 37.088388,32 L 22.160133,31.978069 C 22.160133,31.978069 26.997745,27.140456 26.997745,27.140456 C 18.528582,18.264221 13.291696,25.230495 11.500037,31.436501 z"
             style="fill:#404040;"/>
          </a>
         </g>
        </svg>
</svg>
