<?xml version="1.0" encoding="UTF-8" standalone="no"?>
<!DOCTYPE svg PUBLIC "-//W3C//DTD SVG 1.1//EN"
 "http://www.w3.org/Graphics/SVG/1.1/DTD/svg11.dtd">
<!-- Generated by graphviz version 2.30.1 (20170916.1124)
 -->
<!-- Title: mom_ice_shelf::matrix_diagonal_bilinear Pages: 1 -->
<svg width="574pt" height="185pt"
 viewBox="0.00 0.00 574.00 185.00" xmlns="http://www.w3.org/2000/svg" xmlns:xlink="http://www.w3.org/1999/xlink">
<g id="graph0" class="graph" transform="scale(1 1) rotate(0) translate(4 181)">
<title>mom_ice_shelf::matrix_diagonal_bilinear</title>
<polygon fill="white" stroke="white" points="-4,5 -4,-181 571,-181 571,5 -4,5"/>
<!-- Node367 -->
<g id="node1" class="node"><title>Node367</title>
<g id="a_node1"><a xlink:title=" ">
<polygon fill="#bfbfbf" stroke="black" points="470,-73 470,-103 566,-103 566,-73 470,-73"/>
<text text-anchor="start" x="478" y="-91" font-family="Helvetica,sans-Serif" font-size="10.00">mom_ice_shelf::matrix</text>
<text text-anchor="middle" x="518" y="-80" font-family="Helvetica,sans-Serif" font-size="10.00">_diagonal_bilinear</text>
</a>
</g>
</g>
<!-- Node368 -->
<g id="node2" class="node"><title>Node368</title>
<g id="a_node2"><a xlink:href="namespacemom__ice__shelf.html#a95d21b019a635ad3a8ef060d765362e1" target="_top" xlink:title=" ">
<polygon fill="white" stroke="black" points="350,-73 350,-103 434,-103 434,-73 350,-73"/>
<text text-anchor="start" x="358" y="-91" font-family="Helvetica,sans-Serif" font-size="10.00">mom_ice_shelf::ice</text>
<text text-anchor="middle" x="392" y="-80" font-family="Helvetica,sans-Serif" font-size="10.00">_shelf_solve_inner</text>
</a>
</g>
</g>
<!-- Node367&#45;&gt;Node368 -->
<g id="edge1" class="edge"><title>Node367&#45;&gt;Node368</title>
<path fill="none" stroke="midnightblue" d="M459.696,-88C451.035,-88 442.25,-88 434.024,-88"/>
<polygon fill="midnightblue" stroke="midnightblue" points="459.767,-91.5001 469.767,-88 459.767,-84.5001 459.767,-91.5001"/>
</g>
<!-- Node369 -->
<g id="node3" class="node"><title>Node369</title>
<g id="a_node3"><a xlink:href="namespacemom__ice__shelf.html#a5d64b696412c0bfd8ded2e2eacaa917c" target="_top" xlink:title=" ">
<polygon fill="white" stroke="black" points="230,-73 230,-103 314,-103 314,-73 230,-73"/>
<text text-anchor="start" x="238" y="-91" font-family="Helvetica,sans-Serif" font-size="10.00">mom_ice_shelf::ice</text>
<text text-anchor="middle" x="272" y="-80" font-family="Helvetica,sans-Serif" font-size="10.00">_shelf_solve_outer</text>
</a>
</g>
</g>
<!-- Node368&#45;&gt;Node369 -->
<g id="edge2" class="edge"><title>Node368&#45;&gt;Node369</title>
<path fill="none" stroke="midnightblue" d="M339.499,-88C330.985,-88 322.26,-88 314.048,-88"/>
<polygon fill="midnightblue" stroke="midnightblue" points="339.729,-91.5001 349.729,-88 339.729,-84.5001 339.729,-91.5001"/>
</g>
<!-- Node370 -->
<g id="node4" class="node"><title>Node370</title>
<g id="a_node4"><a xlink:href="namespacemom__ice__shelf.html#ae7611e3515ecf0eae0c5d6d17330fd6f" target="_top" xlink:title=" ">
<polygon fill="white" stroke="black" points="92.5,-147 92.5,-177 193.5,-177 193.5,-147 92.5,-147"/>
<text text-anchor="start" x="100.5" y="-165" font-family="Helvetica,sans-Serif" font-size="10.00">mom_ice_shelf::initialize</text>
<text text-anchor="middle" x="143" y="-154" font-family="Helvetica,sans-Serif" font-size="10.00">_diagnostic_fields</text>
</a>
</g>
</g>
<!-- Node369&#45;&gt;Node370 -->
<g id="edge3" class="edge"><title>Node369&#45;&gt;Node370</title>
<path fill="none" stroke="midnightblue" d="M239.815,-108.876C225.982,-117.866 209.383,-128.29 194,-137 188.088,-140.347 181.671,-143.733 175.467,-146.886"/>
<polygon fill="midnightblue" stroke="midnightblue" points="242.02,-111.616 248.466,-103.207 238.183,-105.761 242.02,-111.616"/>
</g>
<!-- Node371 -->
<g id="node5" class="node"><title>Node371</title>
<g id="a_node5"><a xlink:href="namespacemom__ice__shelf.html#ae315e8464ef8a20062e3bccb61886755" target="_top" xlink:title=" ">
<polygon fill="white" stroke="black" points="92.5,-49 92.5,-79 193.5,-79 193.5,-49 92.5,-49"/>
<text text-anchor="start" x="100.5" y="-67" font-family="Helvetica,sans-Serif" font-size="10.00">mom_ice_shelf::initialize</text>
<text text-anchor="middle" x="143" y="-56" font-family="Helvetica,sans-Serif" font-size="10.00">_ice_shelf</text>
</a>
</g>
</g>
<!-- Node369&#45;&gt;Node371 -->
<g id="edge4" class="edge"><title>Node369&#45;&gt;Node371</title>
<path fill="none" stroke="midnightblue" d="M219.888,-78.3411C211.317,-76.7214 202.433,-75.0425 193.893,-73.4287"/>
<polygon fill="midnightblue" stroke="midnightblue" points="219.291,-81.79 229.767,-80.2079 220.591,-74.9118 219.291,-81.79"/>
</g>
<!-- Node374 -->
<g id="node8" class="node"><title>Node374</title>
<g id="a_node8"><a xlink:href="namespacemom__ice__shelf.html#a3b0e0cc9f36c5197236cc05867b780df" target="_top" xlink:title=" ">
<polygon fill="white" stroke="black" points="97.5,-98 97.5,-128 188.5,-128 188.5,-98 97.5,-98"/>
<text text-anchor="start" x="105.5" y="-116" font-family="Helvetica,sans-Serif" font-size="10.00">mom_ice_shelf::shelf</text>
<text text-anchor="middle" x="143" y="-105" font-family="Helvetica,sans-Serif" font-size="10.00">_calc_flux</text>
</a>
</g>
</g>
<!-- Node369&#45;&gt;Node374 -->
<g id="edge7" class="edge"><title>Node369&#45;&gt;Node374</title>
<path fill="none" stroke="midnightblue" d="M219.648,-98.1087C209.339,-100.138 198.586,-102.255 188.531,-104.234"/>
<polygon fill="midnightblue" stroke="midnightblue" points="220.631,-101.482 229.767,-96.1168 219.279,-94.6142 220.631,-101.482"/>
</g>
<!-- Node375 -->
<g id="node9" class="node"><title>Node375</title>
<g id="a_node9"><a xlink:href="namespacemom__ice__shelf.html#ac084bdc5be4e708e3263488e9574a3c9" target="_top" xlink:title=" ">
<polygon fill="white" stroke="black" points="98.5,-0 98.5,-30 187.5,-30 187.5,-0 98.5,-0"/>
<text text-anchor="start" x="106.5" y="-18" font-family="Helvetica,sans-Serif" font-size="10.00">mom_ice_shelf::solo</text>
<text text-anchor="middle" x="143" y="-7" font-family="Helvetica,sans-Serif" font-size="10.00">_time_step</text>
</a>
</g>
</g>
<!-- Node369&#45;&gt;Node375 -->
<g id="edge9" class="edge"><title>Node369&#45;&gt;Node375</title>
<path fill="none" stroke="midnightblue" d="M239.462,-67.4092C225.682,-58.6561 209.22,-48.5244 194,-40 187.988,-36.6329 181.465,-33.2105 175.176,-30.0225"/>
<polygon fill="midnightblue" stroke="midnightblue" points="237.781,-70.4888 248.09,-72.9314 241.554,-64.5929 237.781,-70.4888"/>
</g>
<!-- Node372 -->
<g id="node6" class="node"><title>Node372</title>
<g id="a_node6"><a xlink:href="MOM__driver_8F90.html#a08fffeb2d8e8acbf9ed4609be6d258c6" target="_top" xlink:title=" ">
<polygon fill="white" stroke="black" points="0,-75.5 0,-94.5 56,-94.5 56,-75.5 0,-75.5"/>
<text text-anchor="middle" x="28" y="-82.5" font-family="Helvetica,sans-Serif" font-size="10.00">mom_main</text>
</a>
</g>
</g>
<!-- Node371&#45;&gt;Node372 -->
<g id="edge5" class="edge"><title>Node371&#45;&gt;Node372</title>
<path fill="none" stroke="midnightblue" d="M82.4627,-75.0645C73.2674,-76.7733 64.1797,-78.4622 56.1775,-79.9493"/>
<polygon fill="midnightblue" stroke="midnightblue" points="83.2444,-78.4792 92.4366,-73.2109 81.9654,-71.597 83.2444,-78.4792"/>
</g>
<!-- Node373 -->
<g id="node7" class="node"><title>Node373</title>
<g id="a_node7"><a xlink:href="ice__shelf__driver_8F90.html#aec5bef92f0dad343f545cd8d62e378d8" target="_top" xlink:title=" ">
<polygon fill="white" stroke="black" points="0.5,-32.5 0.5,-51.5 55.5,-51.5 55.5,-32.5 0.5,-32.5"/>
<text text-anchor="middle" x="28" y="-39.5" font-family="Helvetica,sans-Serif" font-size="10.00">shelf_main</text>
</a>
</g>
</g>
<!-- Node371&#45;&gt;Node373 -->
<g id="edge6" class="edge"><title>Node371&#45;&gt;Node373</title>
<path fill="none" stroke="midnightblue" d="M82.5717,-52.4299C73.1007,-50.586 63.7397,-48.7635 55.5571,-47.1704"/>
<polygon fill="midnightblue" stroke="midnightblue" points="81.952,-55.8749 92.4366,-54.3505 83.2897,-49.0039 81.952,-55.8749"/>
</g>
<!-- Node374&#45;&gt;Node372 -->
<g id="edge8" class="edge"><title>Node374&#45;&gt;Node372</title>
<path fill="none" stroke="midnightblue" d="M87.4169,-99.475C76.5328,-96.778 65.5537,-94.0575 56.0978,-91.7145"/>
<polygon fill="midnightblue" stroke="midnightblue" points="86.7911,-102.926 97.3394,-101.934 88.4748,-96.1312 86.7911,-102.926"/>
</g>
<!-- Node375&#45;&gt;Node373 -->
<g id="edge10" class="edge"><title>Node375&#45;&gt;Node373</title>
<path fill="none" stroke="midnightblue" d="M88.384,-27.8109C76.9883,-30.5338 65.4358,-33.2941 55.5872,-35.6473"/>
<polygon fill="midnightblue" stroke="midnightblue" points="89.3984,-31.1671 98.3112,-25.4389 87.7716,-24.3588 89.3984,-31.1671"/>
</g>
</g>
</svg>
