<?xml version="1.0" encoding="UTF-8" standalone="no"?>
<!DOCTYPE svg PUBLIC "-//W3C//DTD SVG 1.1//EN"
 "http://www.w3.org/Graphics/SVG/1.1/DTD/svg11.dtd">
<!-- Generated by graphviz version 2.30.1 (20170916.1124)
 -->
<!-- Title: mom_set_visc::set_viscous_bbl Pages: 1 -->
<svg width="306pt" height="197pt"
 viewBox="0.00 0.00 306.00 197.00" xmlns="http://www.w3.org/2000/svg" xmlns:xlink="http://www.w3.org/1999/xlink">
<g id="graph0" class="graph" transform="scale(1 1) rotate(0) translate(4 193)">
<title>mom_set_visc::set_viscous_bbl</title>
<polygon fill="white" stroke="white" points="-4,5 -4,-193 303,-193 303,5 -4,5"/>
<!-- Node40 -->
<g id="node1" class="node"><title>Node40</title>
<g id="a_node1"><a xlink:title=" ">
<polygon fill="#bfbfbf" stroke="black" points="170.5,-78.5 170.5,-97.5 297.5,-97.5 297.5,-78.5 170.5,-78.5"/>
<text text-anchor="middle" x="234" y="-85.5" font-family="Helvetica,sans-Serif" font-size="10.00">mom_set_visc::set_viscous_bbl</text>
</a>
</g>
</g>
<!-- Node41 -->
<g id="node2" class="node"><title>Node41</title>
<g id="a_node2"><a xlink:href="namespacemom__dynamics__legacy__split.html#ae34fe0561f87dc05c2fad64bf6d5a1ee" target="_top" xlink:title=" ">
<polygon fill="white" stroke="black" points="17.5,-147.5 17.5,-188.5 116.5,-188.5 116.5,-147.5 17.5,-147.5"/>
<text text-anchor="start" x="25.5" y="-176.5" font-family="Helvetica,sans-Serif" font-size="10.00">mom_dynamics_legacy</text>
<text text-anchor="start" x="25.5" y="-165.5" font-family="Helvetica,sans-Serif" font-size="10.00">_split::step_mom_dyn</text>
<text text-anchor="middle" x="67" y="-154.5" font-family="Helvetica,sans-Serif" font-size="10.00">_legacy_split</text>
</a>
</g>
</g>
<!-- Node40&#45;&gt;Node41 -->
<g id="edge1" class="edge"><title>Node40&#45;&gt;Node41</title>
<path fill="none" stroke="midnightblue" d="M205.004,-102.047C185.219,-111.927 158.048,-125.402 134,-137 126.93,-140.409 119.414,-143.986 112.082,-147.448"/>
<polygon fill="midnightblue" stroke="midnightblue" points="206.699,-105.113 214.078,-97.5093 203.568,-98.8519 206.699,-105.113"/>
</g>
<!-- Node42 -->
<g id="node3" class="node"><title>Node42</title>
<g id="a_node3"><a xlink:href="namespacemom__dynamics__split__rk2.html#a81cce65643a8cf94979d68354a9a1979" target="_top" xlink:title="RK2 splitting for time stepping MOM adiabatic dynamics.">
<polygon fill="white" stroke="black" points="4.5,-98 4.5,-128 129.5,-128 129.5,-98 4.5,-98"/>
<text text-anchor="start" x="12.5" y="-116" font-family="Helvetica,sans-Serif" font-size="10.00">mom_dynamics_split</text>
<text text-anchor="middle" x="67" y="-105" font-family="Helvetica,sans-Serif" font-size="10.00">_rk2::step_mom_dyn_split_rk2</text>
</a>
</g>
</g>
<!-- Node40&#45;&gt;Node42 -->
<g id="edge2" class="edge"><title>Node40&#45;&gt;Node42</title>
<path fill="none" stroke="midnightblue" d="M160.065,-99.0507C149.892,-100.592 139.522,-102.163 129.585,-103.669"/>
<polygon fill="midnightblue" stroke="midnightblue" points="160.787,-102.481 170.15,-97.5227 159.738,-95.5604 160.787,-102.481"/>
</g>
<!-- Node43 -->
<g id="node4" class="node"><title>Node43</title>
<g id="a_node4"><a xlink:href="namespacemom__dynamics__unsplit.html#a53a72861e61f049479fdec46ea11227b" target="_top" xlink:title=" ">
<polygon fill="white" stroke="black" points="15.5,-49 15.5,-79 118.5,-79 118.5,-49 15.5,-49"/>
<text text-anchor="start" x="23.5" y="-67" font-family="Helvetica,sans-Serif" font-size="10.00">mom_dynamics_unsplit</text>
<text text-anchor="middle" x="67" y="-56" font-family="Helvetica,sans-Serif" font-size="10.00">::step_mom_dyn_unsplit</text>
</a>
</g>
</g>
<!-- Node40&#45;&gt;Node43 -->
<g id="edge3" class="edge"><title>Node40&#45;&gt;Node43</title>
<path fill="none" stroke="midnightblue" d="M160.059,-77.3904C146.078,-75.3568 131.726,-73.2692 118.638,-71.3656"/>
<polygon fill="midnightblue" stroke="midnightblue" points="159.75,-80.8822 170.15,-78.8582 160.758,-73.9551 159.75,-80.8822"/>
</g>
<!-- Node44 -->
<g id="node5" class="node"><title>Node44</title>
<g id="a_node5"><a xlink:href="namespacemom__dynamics__unsplit__rk2.html#ae10d75d92c1ec7783df7e5d8965b86a0" target="_top" xlink:title=" ">
<polygon fill="white" stroke="black" points="0,-0 0,-30 134,-30 134,-0 0,-0"/>
<text text-anchor="start" x="8" y="-18" font-family="Helvetica,sans-Serif" font-size="10.00">mom_dynamics_unsplit</text>
<text text-anchor="middle" x="67" y="-7" font-family="Helvetica,sans-Serif" font-size="10.00">_rk2::step_mom_dyn_unsplit_rk2</text>
</a>
</g>
</g>
<!-- Node40&#45;&gt;Node44 -->
<g id="edge4" class="edge"><title>Node40&#45;&gt;Node44</title>
<path fill="none" stroke="midnightblue" d="M205.601,-73.8988C185.896,-63.9587 158.573,-50.5861 134,-40 126.123,-36.6066 117.619,-33.1997 109.42,-30.0405"/>
<polygon fill="midnightblue" stroke="midnightblue" points="204.117,-77.0702 214.618,-78.4755 207.285,-70.8282 204.117,-77.0702"/>
</g>
</g>
</svg>
