<?xml version="1.0" encoding="UTF-8" standalone="no"?>
<!DOCTYPE svg PUBLIC "-//W3C//DTD SVG 1.1//EN"
 "http://www.w3.org/Graphics/SVG/1.1/DTD/svg11.dtd">
<!-- Generated by graphviz version 2.30.1 (20170916.1124)
 -->
<!-- Title: mom_shared_initialization::initialize_topography_from_file Pages: 1 -->
<svg width="520pt" height="87pt"
 viewBox="0.00 0.00 520.00 87.00" xmlns="http://www.w3.org/2000/svg" xmlns:xlink="http://www.w3.org/1999/xlink">
<g id="graph0" class="graph" transform="scale(1 1) rotate(0) translate(4 83)">
<title>mom_shared_initialization::initialize_topography_from_file</title>
<polygon fill="white" stroke="white" points="-4,5 -4,-83 517,-83 517,5 -4,5"/>
<!-- Node17 -->
<g id="node1" class="node"><title>Node17</title>
<g id="a_node1"><a xlink:title="Read gridded depths from file.">
<polygon fill="#bfbfbf" stroke="black" points="0,-19.5 0,-60.5 108,-60.5 108,-19.5 0,-19.5"/>
<text text-anchor="start" x="8" y="-48.5" font-family="Helvetica,sans-Serif" font-size="10.00">mom_shared_initialization</text>
<text text-anchor="start" x="8" y="-37.5" font-family="Helvetica,sans-Serif" font-size="10.00">::initialize_topography</text>
<text text-anchor="middle" x="54" y="-26.5" font-family="Helvetica,sans-Serif" font-size="10.00">_from_file</text>
</a>
</g>
</g>
<!-- Node18 -->
<g id="node2" class="node"><title>Node18</title>
<g id="a_node2"><a xlink:href="namespacemom__shared__initialization.html#a56f496df42b7d22931c9e36cf1c58caa" target="_top" xlink:title="Applies a list of topography overrides read from a netcdf file.">
<polygon fill="white" stroke="black" points="144,-19.5 144,-60.5 252,-60.5 252,-19.5 144,-19.5"/>
<text text-anchor="start" x="152" y="-48.5" font-family="Helvetica,sans-Serif" font-size="10.00">mom_shared_initialization</text>
<text text-anchor="start" x="152" y="-37.5" font-family="Helvetica,sans-Serif" font-size="10.00">::apply_topography_edits</text>
<text text-anchor="middle" x="198" y="-26.5" font-family="Helvetica,sans-Serif" font-size="10.00">_from_file</text>
</a>
</g>
</g>
<!-- Node17&#45;&gt;Node18 -->
<g id="edge1" class="edge"><title>Node17&#45;&gt;Node18</title>
<path fill="none" stroke="midnightblue" d="M108.28,-40C116.56,-40 125.184,-40 133.661,-40"/>
<polygon fill="midnightblue" stroke="midnightblue" points="133.894,-43.5001 143.894,-40 133.894,-36.5001 133.894,-43.5001"/>
</g>
<!-- Node19 -->
<g id="node3" class="node"><title>Node19</title>
<g id="a_node3"><a xlink:href="namespacemom__error__handler.html#a9cda07a87815f0e5594066162b4345c3" target="_top" xlink:title="Writes a message about entering a subroutine if call tree reporting is active.">
<polygon fill="white" stroke="black" points="288.5,-49 288.5,-79 381.5,-79 381.5,-49 288.5,-49"/>
<text text-anchor="start" x="296.5" y="-67" font-family="Helvetica,sans-Serif" font-size="10.00">mom_error_handler::</text>
<text text-anchor="middle" x="335" y="-56" font-family="Helvetica,sans-Serif" font-size="10.00">calltree_enter</text>
</a>
</g>
</g>
<!-- Node17&#45;&gt;Node19 -->
<g id="edge6" class="edge"><title>Node17&#45;&gt;Node19</title>
<path fill="none" stroke="midnightblue" d="M106.516,-60.5101C118.622,-64.4443 131.61,-67.968 144,-70 188.653,-77.3234 239.977,-75.0811 278.017,-71.4189"/>
<polygon fill="midnightblue" stroke="midnightblue" points="278.787,-74.8583 288.377,-70.355 278.072,-67.8949 278.787,-74.8583"/>
</g>
<!-- Node21 -->
<g id="node5" class="node"><title>Node21</title>
<g id="a_node5"><a xlink:href="namespacemom__error__handler.html#a88ea67781e2ed9b73ab7eac8ea5e8578" target="_top" xlink:title="Writes a message about leaving a subroutine if call tree reporting is active.">
<polygon fill="white" stroke="black" points="288.5,-0 288.5,-30 381.5,-30 381.5,-0 288.5,-0"/>
<text text-anchor="start" x="296.5" y="-18" font-family="Helvetica,sans-Serif" font-size="10.00">mom_error_handler::</text>
<text text-anchor="middle" x="335" y="-7" font-family="Helvetica,sans-Serif" font-size="10.00">calltree_leave</text>
</a>
</g>
</g>
<!-- Node17&#45;&gt;Node21 -->
<g id="edge7" class="edge"><title>Node17&#45;&gt;Node21</title>
<path fill="none" stroke="midnightblue" d="M106.516,-19.4899C118.622,-15.5557 131.61,-12.032 144,-10 188.646,-2.67775 239.97,-4.6331 278.012,-8.02858"/>
<polygon fill="midnightblue" stroke="midnightblue" points="278.086,-11.5514 288.373,-9.01795 278.751,-4.58314 278.086,-11.5514"/>
</g>
<!-- Node18&#45;&gt;Node19 -->
<g id="edge2" class="edge"><title>Node18&#45;&gt;Node19</title>
<path fill="none" stroke="midnightblue" d="M252.356,-49.4854C260.937,-51.011 269.838,-52.5934 278.469,-54.1279"/>
<polygon fill="midnightblue" stroke="midnightblue" points="277.984,-57.5964 288.442,-55.9008 279.209,-50.7045 277.984,-57.5964"/>
</g>
<!-- Node18&#45;&gt;Node21 -->
<g id="edge4" class="edge"><title>Node18&#45;&gt;Node21</title>
<path fill="none" stroke="midnightblue" d="M252.356,-30.1193C260.937,-28.5302 269.838,-26.8819 278.469,-25.2835"/>
<polygon fill="midnightblue" stroke="midnightblue" points="279.247,-28.6991 288.442,-23.4366 277.972,-21.8161 279.247,-28.6991"/>
</g>
<!-- Node20 -->
<g id="node4" class="node"><title>Node20</title>
<g id="a_node4"><a xlink:href="namespacemom__error__handler.html#ad5f00a53059c72fe2332d1436c80ca71" target="_top" xlink:title=" ">
<polygon fill="white" stroke="black" points="418.5,-24 418.5,-54 511.5,-54 511.5,-24 418.5,-24"/>
<text text-anchor="start" x="426.5" y="-42" font-family="Helvetica,sans-Serif" font-size="10.00">mom_error_handler::</text>
<text text-anchor="middle" x="465" y="-31" font-family="Helvetica,sans-Serif" font-size="10.00">is_root_pe</text>
</a>
</g>
</g>
<!-- Node19&#45;&gt;Node20 -->
<g id="edge3" class="edge"><title>Node19&#45;&gt;Node20</title>
<path fill="none" stroke="midnightblue" d="M381.849,-55.045C390.501,-53.3552 399.636,-51.5712 408.545,-49.8311"/>
<polygon fill="midnightblue" stroke="midnightblue" points="409.327,-53.2445 418.471,-47.8924 407.985,-46.3743 409.327,-53.2445"/>
</g>
<!-- Node21&#45;&gt;Node20 -->
<g id="edge5" class="edge"><title>Node21&#45;&gt;Node20</title>
<path fill="none" stroke="midnightblue" d="M381.849,-23.5968C390.501,-25.219 399.636,-26.9317 408.545,-28.6022"/>
<polygon fill="midnightblue" stroke="midnightblue" points="407.997,-32.0603 418.471,-30.4633 409.287,-25.1802 407.997,-32.0603"/>
</g>
</g>
</svg>
