<?xml version="1.0" encoding="UTF-8" standalone="no"?>
<!DOCTYPE svg PUBLIC "-//W3C//DTD SVG 1.1//EN"
 "http://www.w3.org/Graphics/SVG/1.1/DTD/svg11.dtd">
<!-- Generated by graphviz version 2.30.1 (20170916.1124)
 -->
<!-- Title: mom_ocmip2_cfc::ocmip2_cfc_column_physics Pages: 1 -->
<svg width="546pt" height="87pt"
 viewBox="0.00 0.00 546.00 87.00" xmlns="http://www.w3.org/2000/svg" xmlns:xlink="http://www.w3.org/1999/xlink">
<g id="graph0" class="graph" transform="scale(1 1) rotate(0) translate(4 83)">
<title>mom_ocmip2_cfc::ocmip2_cfc_column_physics</title>
<polygon fill="white" stroke="white" points="-4,5 -4,-83 543,-83 543,5 -4,5"/>
<!-- Node25 -->
<g id="node1" class="node"><title>Node25</title>
<g id="a_node1"><a xlink:title=" ">
<polygon fill="#bfbfbf" stroke="black" points="0.5,-24 0.5,-54 109.5,-54 109.5,-24 0.5,-24"/>
<text text-anchor="start" x="8.5" y="-42" font-family="Helvetica,sans-Serif" font-size="10.00">mom_ocmip2_cfc::ocmip2</text>
<text text-anchor="middle" x="55" y="-31" font-family="Helvetica,sans-Serif" font-size="10.00">_cfc_column_physics</text>
</a>
</g>
</g>
<!-- Node26 -->
<g id="node2" class="node"><title>Node26</title>
<g id="a_node2"><a xlink:href="namespacemom__tracer__diabatic.html#a1fd213439071bcb31be7de49e7a72039" target="_top" xlink:title=" ">
<polygon fill="white" stroke="black" points="146,-49 146,-79 278,-79 278,-49 146,-49"/>
<text text-anchor="start" x="154" y="-67" font-family="Helvetica,sans-Serif" font-size="10.00">mom_tracer_diabatic</text>
<text text-anchor="middle" x="212" y="-56" font-family="Helvetica,sans-Serif" font-size="10.00">::applytracerboundaryfluxesinout</text>
</a>
</g>
</g>
<!-- Node25&#45;&gt;Node26 -->
<g id="edge1" class="edge"><title>Node25&#45;&gt;Node26</title>
<path fill="none" stroke="midnightblue" d="M109.776,-47.6736C118.226,-49.0364 127.091,-50.4664 135.915,-51.8895"/>
<polygon fill="midnightblue" stroke="midnightblue" points="135.406,-55.3525 145.835,-53.4896 136.52,-48.4418 135.406,-55.3525"/>
</g>
<!-- Node29 -->
<g id="node5" class="node"><title>Node29</title>
<g id="a_node5"><a xlink:href="namespacemom__tracer__diabatic.html#ac5d57973547cc4ed3a89808d3910943e" target="_top" xlink:title="This subroutine solves a tridiagonal equation for the final tracer concentrations after the dual&#45;entr...">
<polygon fill="white" stroke="black" points="166,-0 166,-30 258,-30 258,-0 166,-0"/>
<text text-anchor="start" x="174" y="-18" font-family="Helvetica,sans-Serif" font-size="10.00">mom_tracer_diabatic</text>
<text text-anchor="middle" x="212" y="-7" font-family="Helvetica,sans-Serif" font-size="10.00">::tracer_vertdiff</text>
</a>
</g>
</g>
<!-- Node25&#45;&gt;Node29 -->
<g id="edge4" class="edge"><title>Node25&#45;&gt;Node29</title>
<path fill="none" stroke="midnightblue" d="M109.776,-30.6733C124.624,-28.3743 140.758,-25.8762 155.691,-23.564"/>
<polygon fill="midnightblue" stroke="midnightblue" points="156.46,-26.9866 165.807,-21.9976 155.389,-20.0691 156.46,-26.9866"/>
</g>
<!-- Node27 -->
<g id="node3" class="node"><title>Node27</title>
<g id="a_node3"><a xlink:href="namespacemom__error__handler.html#a460cfb79a06c29fc249952c2a3710d67" target="_top" xlink:title=" ">
<polygon fill="white" stroke="black" points="314.5,-49 314.5,-79 407.5,-79 407.5,-49 314.5,-49"/>
<text text-anchor="start" x="322.5" y="-67" font-family="Helvetica,sans-Serif" font-size="10.00">mom_error_handler::</text>
<text text-anchor="middle" x="361" y="-56" font-family="Helvetica,sans-Serif" font-size="10.00">mom_error</text>
</a>
</g>
</g>
<!-- Node26&#45;&gt;Node27 -->
<g id="edge2" class="edge"><title>Node26&#45;&gt;Node27</title>
<path fill="none" stroke="midnightblue" d="M278.332,-64C286.946,-64 295.711,-64 304.146,-64"/>
<polygon fill="midnightblue" stroke="midnightblue" points="304.239,-67.5001 314.239,-64 304.239,-60.5001 304.239,-67.5001"/>
</g>
<!-- Node28 -->
<g id="node4" class="node"><title>Node28</title>
<g id="a_node4"><a xlink:href="namespacemom__error__handler.html#ad5f00a53059c72fe2332d1436c80ca71" target="_top" xlink:title=" ">
<polygon fill="white" stroke="black" points="444.5,-49 444.5,-79 537.5,-79 537.5,-49 444.5,-49"/>
<text text-anchor="start" x="452.5" y="-67" font-family="Helvetica,sans-Serif" font-size="10.00">mom_error_handler::</text>
<text text-anchor="middle" x="491" y="-56" font-family="Helvetica,sans-Serif" font-size="10.00">is_root_pe</text>
</a>
</g>
</g>
<!-- Node27&#45;&gt;Node28 -->
<g id="edge3" class="edge"><title>Node27&#45;&gt;Node28</title>
<path fill="none" stroke="midnightblue" d="M407.849,-64C416.408,-64 425.439,-64 434.258,-64"/>
<polygon fill="midnightblue" stroke="midnightblue" points="434.471,-67.5001 444.471,-64 434.471,-60.5001 434.471,-67.5001"/>
</g>
</g>
</svg>
