<?xml version="1.0" encoding="UTF-8" standalone="no"?>
<!DOCTYPE svg PUBLIC "-//W3C//DTD SVG 1.1//EN"
 "http://www.w3.org/Graphics/SVG/1.1/DTD/svg11.dtd">
<!-- Generated by graphviz version 2.30.1 (20170916.1124)
 -->
<!-- Title: mom_ice_shelf::ice_shelf_advect Pages: 1 -->
<svg width="312pt" height="87pt"
 viewBox="0.00 0.00 312.00 87.00" xmlns="http://www.w3.org/2000/svg" xmlns:xlink="http://www.w3.org/1999/xlink">
<g id="graph0" class="graph" transform="scale(1 1) rotate(0) translate(4 83)">
<title>mom_ice_shelf::ice_shelf_advect</title>
<polygon fill="white" stroke="white" points="-4,5 -4,-83 309,-83 309,5 -4,5"/>
<!-- Node137 -->
<g id="node1" class="node"><title>Node137</title>
<g id="a_node1"><a xlink:title=" ">
<polygon fill="#bfbfbf" stroke="black" points="220,-24 220,-54 304,-54 304,-24 220,-24"/>
<text text-anchor="start" x="228" y="-42" font-family="Helvetica,sans-Serif" font-size="10.00">mom_ice_shelf::ice</text>
<text text-anchor="middle" x="262" y="-31" font-family="Helvetica,sans-Serif" font-size="10.00">_shelf_advect</text>
</a>
</g>
</g>
<!-- Node138 -->
<g id="node2" class="node"><title>Node138</title>
<g id="a_node2"><a xlink:href="namespacemom__ice__shelf.html#a3b0e0cc9f36c5197236cc05867b780df" target="_top" xlink:title=" ">
<polygon fill="white" stroke="black" points="92.5,-49 92.5,-79 183.5,-79 183.5,-49 92.5,-49"/>
<text text-anchor="start" x="100.5" y="-67" font-family="Helvetica,sans-Serif" font-size="10.00">mom_ice_shelf::shelf</text>
<text text-anchor="middle" x="138" y="-56" font-family="Helvetica,sans-Serif" font-size="10.00">_calc_flux</text>
</a>
</g>
</g>
<!-- Node137&#45;&gt;Node138 -->
<g id="edge1" class="edge"><title>Node137&#45;&gt;Node138</title>
<path fill="none" stroke="midnightblue" d="M209.688,-49.5148C201.02,-51.2909 192.085,-53.122 183.606,-54.8595"/>
<polygon fill="midnightblue" stroke="midnightblue" points="210.603,-52.9002 219.696,-47.4639 209.197,-46.0427 210.603,-52.9002"/>
</g>
<!-- Node140 -->
<g id="node4" class="node"><title>Node140</title>
<g id="a_node4"><a xlink:href="namespacemom__ice__shelf.html#ac084bdc5be4e708e3263488e9574a3c9" target="_top" xlink:title=" ">
<polygon fill="white" stroke="black" points="93.5,-0 93.5,-30 182.5,-30 182.5,-0 93.5,-0"/>
<text text-anchor="start" x="101.5" y="-18" font-family="Helvetica,sans-Serif" font-size="10.00">mom_ice_shelf::solo</text>
<text text-anchor="middle" x="138" y="-7" font-family="Helvetica,sans-Serif" font-size="10.00">_time_step</text>
</a>
</g>
</g>
<!-- Node137&#45;&gt;Node140 -->
<g id="edge3" class="edge"><title>Node137&#45;&gt;Node140</title>
<path fill="none" stroke="midnightblue" d="M209.735,-28.9151C200.765,-27.1506 191.508,-25.3294 182.765,-23.6095"/>
<polygon fill="midnightblue" stroke="midnightblue" points="209.209,-32.3786 219.696,-30.8747 210.56,-25.5102 209.209,-32.3786"/>
</g>
<!-- Node139 -->
<g id="node3" class="node"><title>Node139</title>
<g id="a_node3"><a xlink:href="MOM__driver_8F90.html#a08fffeb2d8e8acbf9ed4609be6d258c6" target="_top" xlink:title=" ">
<polygon fill="white" stroke="black" points="0,-54.5 0,-73.5 56,-73.5 56,-54.5 0,-54.5"/>
<text text-anchor="middle" x="28" y="-61.5" font-family="Helvetica,sans-Serif" font-size="10.00">mom_main</text>
</a>
</g>
</g>
<!-- Node138&#45;&gt;Node139 -->
<g id="edge2" class="edge"><title>Node138&#45;&gt;Node139</title>
<path fill="none" stroke="midnightblue" d="M82.2467,-64C73.1728,-64 64.1274,-64 56.1353,-64"/>
<polygon fill="midnightblue" stroke="midnightblue" points="82.4488,-67.5001 92.4487,-64 82.4487,-60.5001 82.4488,-67.5001"/>
</g>
<!-- Node141 -->
<g id="node5" class="node"><title>Node141</title>
<g id="a_node5"><a xlink:href="ice__shelf__driver_8F90.html#aec5bef92f0dad343f545cd8d62e378d8" target="_top" xlink:title=" ">
<polygon fill="white" stroke="black" points="0.5,-5.5 0.5,-24.5 55.5,-24.5 55.5,-5.5 0.5,-5.5"/>
<text text-anchor="middle" x="28" y="-12.5" font-family="Helvetica,sans-Serif" font-size="10.00">shelf_main</text>
</a>
</g>
</g>
<!-- Node140&#45;&gt;Node141 -->
<g id="edge4" class="edge"><title>Node140&#45;&gt;Node141</title>
<path fill="none" stroke="midnightblue" d="M83.0996,-15C73.5688,-15 64.034,-15 55.6826,-15"/>
<polygon fill="midnightblue" stroke="midnightblue" points="83.3836,-18.5001 93.3836,-15 83.3835,-11.5001 83.3836,-18.5001"/>
</g>
</g>
</svg>
