<?xml version="1.0" encoding="UTF-8" standalone="no"?>
<!DOCTYPE svg PUBLIC "-//W3C//DTD SVG 1.1//EN"
 "http://www.w3.org/Graphics/SVG/1.1/DTD/svg11.dtd">
<!-- Generated by graphviz version 2.30.1 (20170916.1124)
 -->
<!-- Title: mom_bulk_mixed_layer::ef4 Pages: 1 -->
<svg width="534pt" height="38pt"
 viewBox="0.00 0.00 534.00 38.00" xmlns="http://www.w3.org/2000/svg" xmlns:xlink="http://www.w3.org/1999/xlink">
<g id="graph0" class="graph" transform="scale(1 1) rotate(0) translate(4 34)">
<title>mom_bulk_mixed_layer::ef4</title>
<polygon fill="white" stroke="white" points="-4,5 -4,-34 531,-34 531,5 -4,5"/>
<!-- Node29 -->
<g id="node1" class="node"><title>Node29</title>
<g id="a_node1"><a xlink:title=" ">
<polygon fill="#bfbfbf" stroke="black" points="410,-5.5 410,-24.5 526,-24.5 526,-5.5 410,-5.5"/>
<text text-anchor="middle" x="468" y="-12.5" font-family="Helvetica,sans-Serif" font-size="10.00">mom_bulk_mixed_layer::ef4</text>
</a>
</g>
</g>
<!-- Node30 -->
<g id="node2" class="node"><title>Node30</title>
<g id="a_node2"><a xlink:href="namespacemom__bulk__mixed__layer.html#a18320524267554e0417f02af24ede6c3" target="_top" xlink:title=" ">
<polygon fill="white" stroke="black" points="266,-0 266,-30 374,-30 374,-0 266,-0"/>
<text text-anchor="start" x="274" y="-18" font-family="Helvetica,sans-Serif" font-size="10.00">mom_bulk_mixed_layer</text>
<text text-anchor="middle" x="320" y="-7" font-family="Helvetica,sans-Serif" font-size="10.00">::mechanical_entrainment</text>
</a>
</g>
</g>
<!-- Node29&#45;&gt;Node30 -->
<g id="edge1" class="edge"><title>Node29&#45;&gt;Node30</title>
<path fill="none" stroke="midnightblue" d="M399.491,-15C391.043,-15 382.497,-15 374.308,-15"/>
<polygon fill="midnightblue" stroke="midnightblue" points="399.716,-18.5001 409.716,-15 399.716,-11.5001 399.716,-18.5001"/>
</g>
<!-- Node31 -->
<g id="node3" class="node"><title>Node31</title>
<g id="a_node3"><a xlink:href="namespacemom__bulk__mixed__layer.html#a9c3a37aae75b52453efad11d8c8abbe6" target="_top" xlink:title=" ">
<polygon fill="white" stroke="black" points="128.5,-0 128.5,-30 229.5,-30 229.5,-0 128.5,-0"/>
<text text-anchor="start" x="136.5" y="-18" font-family="Helvetica,sans-Serif" font-size="10.00">mom_bulk_mixed_layer</text>
<text text-anchor="middle" x="179" y="-7" font-family="Helvetica,sans-Serif" font-size="10.00">::bulkmixedlayer</text>
</a>
</g>
</g>
<!-- Node30&#45;&gt;Node31 -->
<g id="edge2" class="edge"><title>Node30&#45;&gt;Node31</title>
<path fill="none" stroke="midnightblue" d="M255.585,-15C246.929,-15 238.145,-15 229.777,-15"/>
<polygon fill="midnightblue" stroke="midnightblue" points="255.657,-18.5001 265.657,-15 255.656,-11.5001 255.657,-18.5001"/>
</g>
<!-- Node32 -->
<g id="node4" class="node"><title>Node32</title>
<g id="a_node4"><a xlink:href="namespacemom__diabatic__driver.html#a61e57d3902367aa46aa3c2d949ee900f" target="_top" xlink:title="This subroutine imposes the diapycnal mass fluxes and the accompanying diapycnal advection of momentu...">
<polygon fill="white" stroke="black" points="0.5,-0 0.5,-30 91.5,-30 91.5,-0 0.5,-0"/>
<text text-anchor="start" x="8.5" y="-18" font-family="Helvetica,sans-Serif" font-size="10.00">mom_diabatic_driver</text>
<text text-anchor="middle" x="46" y="-7" font-family="Helvetica,sans-Serif" font-size="10.00">::diabatic</text>
</a>
</g>
</g>
<!-- Node31&#45;&gt;Node32 -->
<g id="edge3" class="edge"><title>Node31&#45;&gt;Node32</title>
<path fill="none" stroke="midnightblue" d="M118.473,-15C109.525,-15 100.428,-15 91.8566,-15"/>
<polygon fill="midnightblue" stroke="midnightblue" points="118.475,-18.5001 128.475,-15 118.474,-11.5001 118.475,-18.5001"/>
</g>
</g>
</svg>
