<?xml version="1.0" encoding="UTF-8" standalone="no"?>
<!DOCTYPE svg PUBLIC "-//W3C//DTD SVG 1.1//EN"
 "http://www.w3.org/Graphics/SVG/1.1/DTD/svg11.dtd">
<!-- Generated by graphviz version 2.30.1 (20170916.1124)
 -->
<!-- Title: mom_set_visc::set_viscous_ml Pages: 1 -->
<svg width="304pt" height="197pt"
 viewBox="0.00 0.00 304.00 197.00" xmlns="http://www.w3.org/2000/svg" xmlns:xlink="http://www.w3.org/1999/xlink">
<g id="graph0" class="graph" transform="scale(1 1) rotate(0) translate(4 193)">
<title>mom_set_visc::set_viscous_ml</title>
<polygon fill="white" stroke="white" points="-4,5 -4,-193 301,-193 301,5 -4,5"/>
<!-- Node51 -->
<g id="node1" class="node"><title>Node51</title>
<g id="a_node1"><a xlink:title=" ">
<polygon fill="#bfbfbf" stroke="black" points="170.5,-78.5 170.5,-97.5 295.5,-97.5 295.5,-78.5 170.5,-78.5"/>
<text text-anchor="middle" x="233" y="-85.5" font-family="Helvetica,sans-Serif" font-size="10.00">mom_set_visc::set_viscous_ml</text>
</a>
</g>
</g>
<!-- Node52 -->
<g id="node2" class="node"><title>Node52</title>
<g id="a_node2"><a xlink:href="namespacemom__dynamics__legacy__split.html#ae34fe0561f87dc05c2fad64bf6d5a1ee" target="_top" xlink:title=" ">
<polygon fill="white" stroke="black" points="17.5,-147.5 17.5,-188.5 116.5,-188.5 116.5,-147.5 17.5,-147.5"/>
<text text-anchor="start" x="25.5" y="-176.5" font-family="Helvetica,sans-Serif" font-size="10.00">mom_dynamics_legacy</text>
<text text-anchor="start" x="25.5" y="-165.5" font-family="Helvetica,sans-Serif" font-size="10.00">_split::step_mom_dyn</text>
<text text-anchor="middle" x="67" y="-154.5" font-family="Helvetica,sans-Serif" font-size="10.00">_legacy_split</text>
</a>
</g>
</g>
<!-- Node51&#45;&gt;Node52 -->
<g id="edge1" class="edge"><title>Node51&#45;&gt;Node52</title>
<path fill="none" stroke="midnightblue" d="M204.302,-102.076C184.724,-111.969 157.83,-125.448 134,-137 126.937,-140.424 119.424,-144.007 112.094,-147.473"/>
<polygon fill="midnightblue" stroke="midnightblue" points="205.939,-105.17 213.28,-97.5308 202.778,-98.9246 205.939,-105.17"/>
</g>
<!-- Node53 -->
<g id="node3" class="node"><title>Node53</title>
<g id="a_node3"><a xlink:href="namespacemom__dynamics__split__rk2.html#a81cce65643a8cf94979d68354a9a1979" target="_top" xlink:title="RK2 splitting for time stepping MOM adiabatic dynamics.">
<polygon fill="white" stroke="black" points="4.5,-98 4.5,-128 129.5,-128 129.5,-98 4.5,-98"/>
<text text-anchor="start" x="12.5" y="-116" font-family="Helvetica,sans-Serif" font-size="10.00">mom_dynamics_split</text>
<text text-anchor="middle" x="67" y="-105" font-family="Helvetica,sans-Serif" font-size="10.00">_rk2::step_mom_dyn_split_rk2</text>
</a>
</g>
</g>
<!-- Node51&#45;&gt;Node53 -->
<g id="edge2" class="edge"><title>Node51&#45;&gt;Node53</title>
<path fill="none" stroke="midnightblue" d="M160.324,-98.9262C150.086,-100.487 139.629,-102.081 129.606,-103.609"/>
<polygon fill="midnightblue" stroke="midnightblue" points="161.108,-102.347 170.466,-97.3802 160.053,-95.4272 161.108,-102.347"/>
</g>
<!-- Node54 -->
<g id="node4" class="node"><title>Node54</title>
<g id="a_node4"><a xlink:href="namespacemom__dynamics__unsplit.html#a53a72861e61f049479fdec46ea11227b" target="_top" xlink:title=" ">
<polygon fill="white" stroke="black" points="15.5,-49 15.5,-79 118.5,-79 118.5,-49 15.5,-49"/>
<text text-anchor="start" x="23.5" y="-67" font-family="Helvetica,sans-Serif" font-size="10.00">mom_dynamics_unsplit</text>
<text text-anchor="middle" x="67" y="-56" font-family="Helvetica,sans-Serif" font-size="10.00">::step_mom_dyn_unsplit</text>
</a>
</g>
</g>
<!-- Node51&#45;&gt;Node54 -->
<g id="edge3" class="edge"><title>Node51&#45;&gt;Node54</title>
<path fill="none" stroke="midnightblue" d="M160.333,-77.5121C146.284,-75.4562 131.824,-73.3401 118.638,-71.4104"/>
<polygon fill="midnightblue" stroke="midnightblue" points="160.064,-81.01 170.466,-78.995 161.078,-74.0838 160.064,-81.01"/>
</g>
<!-- Node55 -->
<g id="node5" class="node"><title>Node55</title>
<g id="a_node5"><a xlink:href="namespacemom__dynamics__unsplit__rk2.html#ae10d75d92c1ec7783df7e5d8965b86a0" target="_top" xlink:title=" ">
<polygon fill="white" stroke="black" points="0,-0 0,-30 134,-30 134,-0 0,-0"/>
<text text-anchor="start" x="8" y="-18" font-family="Helvetica,sans-Serif" font-size="10.00">mom_dynamics_unsplit</text>
<text text-anchor="middle" x="67" y="-7" font-family="Helvetica,sans-Serif" font-size="10.00">_rk2::step_mom_dyn_unsplit_rk2</text>
</a>
</g>
</g>
<!-- Node51&#45;&gt;Node55 -->
<g id="edge4" class="edge"><title>Node51&#45;&gt;Node55</title>
<path fill="none" stroke="midnightblue" d="M204.894,-73.8755C185.395,-63.9245 158.352,-50.5483 134,-40 126.13,-36.5908 117.629,-33.1768 109.431,-30.0156"/>
<polygon fill="midnightblue" stroke="midnightblue" points="203.321,-77.0022 213.816,-78.4581 206.52,-70.7756 203.321,-77.0022"/>
</g>
</g>
</svg>
