<?xml version="1.0" encoding="UTF-8" standalone="no"?>
<!DOCTYPE svg PUBLIC "-//W3C//DTD SVG 1.1//EN"
 "http://www.w3.org/Graphics/SVG/1.1/DTD/svg11.dtd">
<!-- Generated by graphviz version 2.30.1 (20170916.1124)
 -->
<!-- Title: mom_eos_unesco::calculate_density_scalar_unesco Pages: 1 -->
<svg width="280pt" height="38pt"
 viewBox="0.00 0.00 280.00 38.00" xmlns="http://www.w3.org/2000/svg" xmlns:xlink="http://www.w3.org/1999/xlink">
<g id="graph0" class="graph" transform="scale(1 1) rotate(0) translate(4 34)">
<title>mom_eos_unesco::calculate_density_scalar_unesco</title>
<polygon fill="white" stroke="white" points="-4,5 -4,-34 277,-34 277,5 -4,5"/>
<!-- Node11 -->
<g id="node1" class="node"><title>Node11</title>
<g id="a_node1"><a xlink:title=" ">
<polygon fill="#bfbfbf" stroke="black" points="0.5,-0 0.5,-30 117.5,-30 117.5,-0 0.5,-0"/>
<text text-anchor="start" x="8.5" y="-18" font-family="Helvetica,sans-Serif" font-size="10.00">mom_eos_unesco::calculate</text>
<text text-anchor="middle" x="59" y="-7" font-family="Helvetica,sans-Serif" font-size="10.00">_density_scalar_unesco</text>
</a>
</g>
</g>
<!-- Node12 -->
<g id="node2" class="node"><title>Node12</title>
<g id="a_node2"><a xlink:href="namespacemom__eos__unesco.html#a2cc5b64d7214e8cd2701f4e952f6d1c1" target="_top" xlink:title=" ">
<polygon fill="white" stroke="black" points="154.5,-0 154.5,-30 271.5,-30 271.5,-0 154.5,-0"/>
<text text-anchor="start" x="162.5" y="-18" font-family="Helvetica,sans-Serif" font-size="10.00">mom_eos_unesco::calculate</text>
<text text-anchor="middle" x="213" y="-7" font-family="Helvetica,sans-Serif" font-size="10.00">_density_array_unesco</text>
</a>
</g>
</g>
<!-- Node11&#45;&gt;Node12 -->
<g id="edge1" class="edge"><title>Node11&#45;&gt;Node12</title>
<path fill="none" stroke="midnightblue" d="M117.898,-15C126.461,-15 135.349,-15 144.093,-15"/>
<polygon fill="midnightblue" stroke="midnightblue" points="144.263,-18.5001 154.263,-15 144.263,-11.5001 144.263,-18.5001"/>
</g>
</g>
</svg>
