<?xml version="1.0" encoding="UTF-8" standalone="no"?>
<!DOCTYPE svg PUBLIC "-//W3C//DTD SVG 1.1//EN"
 "http://www.w3.org/Graphics/SVG/1.1/DTD/svg11.dtd">
<!-- Generated by graphviz version 2.30.1 (20170916.1124)
 -->
<!-- Title: mom_io::create_file Pages: 1 -->
<svg width="264pt" height="66pt"
 viewBox="0.00 0.00 264.00 66.00" xmlns="http://www.w3.org/2000/svg" xmlns:xlink="http://www.w3.org/1999/xlink">
<g id="graph0" class="graph" transform="scale(1 1) rotate(0) translate(4 62)">
<title>mom_io::create_file</title>
<polygon fill="white" stroke="white" points="-4,5 -4,-62 261,-62 261,5 -4,5"/>
<!-- Node3 -->
<g id="node1" class="node"><title>Node3</title>
<g id="a_node1"><a xlink:title="Routine creates a new NetCDF file. It also sets up structures that describe this file and variables t...">
<polygon fill="#bfbfbf" stroke="black" points="170,-19.5 170,-38.5 256,-38.5 256,-19.5 170,-19.5"/>
<text text-anchor="middle" x="213" y="-26.5" font-family="Helvetica,sans-Serif" font-size="10.00">mom_io::create_file</text>
</a>
</g>
</g>
<!-- Node4 -->
<g id="node2" class="node"><title>Node4</title>
<g id="a_node2"><a xlink:href="namespacemom__ale.html#a8a784e56b0acbcda92f7af471d2c980d" target="_top" xlink:title="Write the vertical coordinate information into a file. This subroutine writes out a file containing a...">
<polygon fill="white" stroke="black" points="0,-38.5 0,-57.5 134,-57.5 134,-38.5 0,-38.5"/>
<text text-anchor="middle" x="67" y="-45.5" font-family="Helvetica,sans-Serif" font-size="10.00">mom_ale::ale_writecoordinatefile</text>
</a>
</g>
</g>
<!-- Node3&#45;&gt;Node4 -->
<g id="edge1" class="edge"><title>Node3&#45;&gt;Node4</title>
<path fill="none" stroke="midnightblue" d="M159.982,-35.8635C151.613,-36.9677 142.853,-38.1235 134.206,-39.2645"/>
<polygon fill="midnightblue" stroke="midnightblue" points="160.506,-39.3248 169.962,-34.5467 159.59,-32.3849 160.506,-39.3248"/>
</g>
<!-- Node5 -->
<g id="node3" class="node"><title>Node5</title>
<g id="a_node3"><a xlink:href="namespacemom__io.html#ac15e7cf282a5b17192ffb7561537cb8c" target="_top" xlink:title="This routine opens an existing NetCDF file for output. If it does not find the file,...">
<polygon fill="white" stroke="black" points="22.5,-0.5 22.5,-19.5 111.5,-19.5 111.5,-0.5 22.5,-0.5"/>
<text text-anchor="middle" x="67" y="-7.5" font-family="Helvetica,sans-Serif" font-size="10.00">mom_io::reopen_file</text>
</a>
</g>
</g>
<!-- Node3&#45;&gt;Node5 -->
<g id="edge2" class="edge"><title>Node3&#45;&gt;Node5</title>
<path fill="none" stroke="midnightblue" d="M159.802,-22.1128C143.984,-20.0256 126.783,-17.7561 111.592,-15.7517"/>
<polygon fill="midnightblue" stroke="midnightblue" points="159.59,-25.6151 169.962,-23.4533 160.506,-18.6752 159.59,-25.6151"/>
</g>
</g>
</svg>
