<?xml version="1.0" encoding="UTF-8" standalone="no"?>
<!DOCTYPE svg PUBLIC "-//W3C//DTD SVG 1.1//EN"
 "http://www.w3.org/Graphics/SVG/1.1/DTD/svg11.dtd">
<!-- Generated by graphviz version 2.30.1 (20170916.1124)
 -->
<!-- Title: mom_neutral_diffusion::fvlsq_slope Pages: 1 -->
<svg width="1008pt" height="174pt"
 viewBox="0.00 0.00 1008.00 174.00" xmlns="http://www.w3.org/2000/svg" xmlns:xlink="http://www.w3.org/1999/xlink">
<g id="graph0" class="graph" transform="scale(1 1) rotate(0) translate(4 170)">
<title>mom_neutral_diffusion::fvlsq_slope</title>
<polygon fill="white" stroke="white" points="-4,5 -4,-170 1005,-170 1005,5 -4,5"/>
<!-- Node41 -->
<g id="node1" class="node"><title>Node41</title>
<g id="a_node1"><a xlink:title="Returns the cell&#45;centered second&#45;order weighted least squares slope using three consecutive cell widt...">
<polygon fill="#bfbfbf" stroke="black" points="902,-40 902,-70 1000,-70 1000,-40 902,-40"/>
<text text-anchor="start" x="910" y="-58" font-family="Helvetica,sans-Serif" font-size="10.00">mom_neutral_diffusion</text>
<text text-anchor="middle" x="951" y="-47" font-family="Helvetica,sans-Serif" font-size="10.00">::fvlsq_slope</text>
</a>
</g>
</g>
<!-- Node42 -->
<g id="node2" class="node"><title>Node42</title>
<g id="a_node2"><a xlink:href="namespacemom__neutral__diffusion.html#ac211ae488cb6e3c6685df85d24ecd0dd" target="_top" xlink:title="Returns PLM slopes for a column where the slopes are the difference in value across each cell....">
<polygon fill="white" stroke="black" points="768,-67 768,-97 866,-97 866,-67 768,-67"/>
<text text-anchor="start" x="776" y="-85" font-family="Helvetica,sans-Serif" font-size="10.00">mom_neutral_diffusion</text>
<text text-anchor="middle" x="817" y="-74" font-family="Helvetica,sans-Serif" font-size="10.00">::plm_diff</text>
</a>
</g>
</g>
<!-- Node41&#45;&gt;Node42 -->
<g id="edge1" class="edge"><title>Node41&#45;&gt;Node42</title>
<path fill="none" stroke="midnightblue" d="M891.988,-66.866C883.382,-68.6265 874.591,-70.4245 866.214,-72.1381"/>
<polygon fill="midnightblue" stroke="midnightblue" points="892.876,-70.257 901.972,-64.824 891.473,-63.399 892.876,-70.257"/>
</g>
<!-- Node52 -->
<g id="node12" class="node"><title>Node52</title>
<g id="a_node12"><a xlink:href="MOM__neutral__diffusion_8F90.html#ae5e9faf2d308b4c5de56d7dcd90bd286" target="_top" xlink:title="Returns true if a test of fvlsq_slope() fails, and conditionally writes results to stream.">
<polygon fill="white" stroke="black" points="646.5,-0.5 646.5,-19.5 719.5,-19.5 719.5,-0.5 646.5,-0.5"/>
<text text-anchor="middle" x="683" y="-7.5" font-family="Helvetica,sans-Serif" font-size="10.00">test_fvlsq_slope</text>
</a>
</g>
</g>
<!-- Node41&#45;&gt;Node52 -->
<g id="edge13" class="edge"><title>Node41&#45;&gt;Node52</title>
<path fill="none" stroke="midnightblue" d="M891.667,-45.1317C839.249,-36.264 763.941,-23.5239 719.885,-16.0707"/>
<polygon fill="midnightblue" stroke="midnightblue" points="891.386,-48.6337 901.829,-46.8508 892.553,-41.7318 891.386,-48.6337"/>
</g>
<!-- Node43 -->
<g id="node3" class="node"><title>Node43</title>
<g id="a_node3"><a xlink:href="namespacemom__neutral__diffusion.html#afbc54a4e2f34af5d72c18dc96e354af7" target="_top" xlink:title="Returns interface scalar, Si, for a column of layer values, S.">
<polygon fill="white" stroke="black" points="634,-72 634,-102 732,-102 732,-72 634,-72"/>
<text text-anchor="start" x="642" y="-90" font-family="Helvetica,sans-Serif" font-size="10.00">mom_neutral_diffusion</text>
<text text-anchor="middle" x="683" y="-79" font-family="Helvetica,sans-Serif" font-size="10.00">::interface_scalar</text>
</a>
</g>
</g>
<!-- Node42&#45;&gt;Node43 -->
<g id="edge2" class="edge"><title>Node42&#45;&gt;Node43</title>
<path fill="none" stroke="midnightblue" d="M757.708,-84.208C749.191,-84.5307 740.5,-84.8598 732.214,-85.1737"/>
<polygon fill="midnightblue" stroke="midnightblue" points="758.111,-87.6954 767.972,-83.8193 757.846,-80.7004 758.111,-87.6954"/>
</g>
<!-- Node44 -->
<g id="node4" class="node"><title>Node44</title>
<g id="a_node4"><a xlink:href="namespacemom__neutral__diffusion.html#a53d5e3f8d7610b60644aaa9f44fd854e" target="_top" xlink:title="Calculate remapping factors for u/v columns used to map adjoining columns to a shared coordinate spac...">
<polygon fill="white" stroke="black" points="500,-124.5 500,-165.5 598,-165.5 598,-124.5 500,-124.5"/>
<text text-anchor="start" x="508" y="-153.5" font-family="Helvetica,sans-Serif" font-size="10.00">mom_neutral_diffusion</text>
<text text-anchor="start" x="508" y="-142.5" font-family="Helvetica,sans-Serif" font-size="10.00">::neutral_diffusion_calc</text>
<text text-anchor="middle" x="549" y="-131.5" font-family="Helvetica,sans-Serif" font-size="10.00">_coeffs</text>
</a>
</g>
</g>
<!-- Node43&#45;&gt;Node44 -->
<g id="edge3" class="edge"><title>Node43&#45;&gt;Node44</title>
<path fill="none" stroke="midnightblue" d="M638.311,-106.197C625.09,-112.006 610.516,-118.41 597.083,-124.312"/>
<polygon fill="midnightblue" stroke="midnightblue" points="639.916,-109.315 647.663,-102.087 637.1,-102.906 639.916,-109.315"/>
</g>
<!-- Node46 -->
<g id="node6" class="node"><title>Node46</title>
<g id="a_node6"><a xlink:href="namespacemom__neutral__diffusion.html#a626e0189b03bbbf36c33cfa52e4f098d" target="_top" xlink:title="Returns a single column of neutral diffusion fluxes of a tracer.">
<polygon fill="white" stroke="black" points="500,-75 500,-105 598,-105 598,-75 500,-75"/>
<text text-anchor="start" x="508" y="-93" font-family="Helvetica,sans-Serif" font-size="10.00">mom_neutral_diffusion</text>
<text text-anchor="middle" x="549" y="-82" font-family="Helvetica,sans-Serif" font-size="10.00">::neutral_surface_flux</text>
</a>
</g>
</g>
<!-- Node43&#45;&gt;Node46 -->
<g id="edge5" class="edge"><title>Node43&#45;&gt;Node46</title>
<path fill="none" stroke="midnightblue" d="M623.708,-88.3248C615.191,-88.5184 606.5,-88.7159 598.214,-88.9042"/>
<polygon fill="midnightblue" stroke="midnightblue" points="624.054,-91.818 633.972,-88.0916 623.895,-84.8198 624.054,-91.818"/>
</g>
<!-- Node48 -->
<g id="node8" class="node"><title>Node48</title>
<g id="a_node8"><a xlink:href="namespacemom__neutral__diffusion.html#ae21f026dc5c73f2304ab6cbc230b9fb0" target="_top" xlink:title="Returns true if unit tests of neutral_diffusion functions fail. Otherwise returns false.">
<polygon fill="white" stroke="black" points="346,-31 346,-61 464,-61 464,-31 346,-31"/>
<text text-anchor="start" x="354" y="-49" font-family="Helvetica,sans-Serif" font-size="10.00">mom_neutral_diffusion</text>
<text text-anchor="middle" x="405" y="-38" font-family="Helvetica,sans-Serif" font-size="10.00">::neutral_diffusion_unit_tests</text>
</a>
</g>
</g>
<!-- Node43&#45;&gt;Node48 -->
<g id="edge12" class="edge"><title>Node43&#45;&gt;Node48</title>
<path fill="none" stroke="midnightblue" d="M624.153,-70.5789C615.438,-68.4751 606.517,-66.5269 598,-65 553.49,-57.0203 502.53,-52.1729 464.302,-49.3734"/>
<polygon fill="midnightblue" stroke="midnightblue" points="623.322,-73.979 633.872,-73.0061 625.018,-67.1875 623.322,-73.979"/>
</g>
<!-- Node45 -->
<g id="node5" class="node"><title>Node45</title>
<g id="a_node5"><a xlink:href="namespacemom__tracer__hor__diff.html#a069e22612062290389c2630c7f90ede2" target="_top" xlink:title="Compute along&#45;coordinate diffusion of all tracers using the diffusivity in CSKhTr,...">
<polygon fill="white" stroke="black" points="218,-105 218,-135 310,-135 310,-105 218,-105"/>
<text text-anchor="start" x="226" y="-123" font-family="Helvetica,sans-Serif" font-size="10.00">mom_tracer_hor_diff</text>
<text text-anchor="middle" x="264" y="-112" font-family="Helvetica,sans-Serif" font-size="10.00">::tracer_hordiff</text>
</a>
</g>
</g>
<!-- Node44&#45;&gt;Node45 -->
<g id="edge4" class="edge"><title>Node44&#45;&gt;Node45</title>
<path fill="none" stroke="midnightblue" d="M489.703,-139.85C436.554,-135.155 359.116,-128.314 310.43,-124.013"/>
<polygon fill="midnightblue" stroke="midnightblue" points="489.724,-143.365 499.993,-140.759 490.34,-136.393 489.724,-143.365"/>
</g>
<!-- Node47 -->
<g id="node7" class="node"><title>Node47</title>
<g id="a_node7"><a xlink:href="namespacemom__neutral__diffusion.html#a0aa7d320b2d623791e7de7d879930a64" target="_top" xlink:title="Update tracer concentration due to neutral diffusion; layer thickness unchanged by this update.">
<polygon fill="white" stroke="black" points="356,-83 356,-113 454,-113 454,-83 356,-83"/>
<text text-anchor="start" x="364" y="-101" font-family="Helvetica,sans-Serif" font-size="10.00">mom_neutral_diffusion</text>
<text text-anchor="middle" x="405" y="-90" font-family="Helvetica,sans-Serif" font-size="10.00">::neutral_diffusion</text>
</a>
</g>
</g>
<!-- Node46&#45;&gt;Node47 -->
<g id="edge6" class="edge"><title>Node46&#45;&gt;Node47</title>
<path fill="none" stroke="midnightblue" d="M489.668,-93.2863C477.814,-93.9541 465.473,-94.6494 454.025,-95.2944"/>
<polygon fill="midnightblue" stroke="midnightblue" points="490.138,-96.7655 499.925,-92.7084 489.744,-89.7766 490.138,-96.7655"/>
</g>
<!-- Node46&#45;&gt;Node48 -->
<g id="edge8" class="edge"><title>Node46&#45;&gt;Node48</title>
<path fill="none" stroke="midnightblue" d="M490.136,-72.0704C478.306,-68.4046 465.971,-64.5826 454.508,-61.0308"/>
<polygon fill="midnightblue" stroke="midnightblue" points="489.337,-75.487 499.925,-75.1036 491.409,-68.8006 489.337,-75.487"/>
</g>
<!-- Node47&#45;&gt;Node45 -->
<g id="edge7" class="edge"><title>Node47&#45;&gt;Node45</title>
<path fill="none" stroke="midnightblue" d="M345.573,-107.247C333.796,-109.111 321.584,-111.044 310.336,-112.824"/>
<polygon fill="midnightblue" stroke="midnightblue" points="346.445,-110.653 355.775,-105.633 345.35,-103.739 346.445,-110.653"/>
</g>
<!-- Node49 -->
<g id="node9" class="node"><title>Node49</title>
<g id="a_node9"><a xlink:href="namespacemom.html#ae77cfd2e790f1266b31d93c58659d46c" target="_top" xlink:title="Calls unit tests for other modules. These are NOT normally invoked and so we provide the module use s...">
<polygon fill="white" stroke="black" points="227.5,-36.5 227.5,-55.5 300.5,-55.5 300.5,-36.5 227.5,-36.5"/>
<text text-anchor="middle" x="264" y="-43.5" font-family="Helvetica,sans-Serif" font-size="10.00">mom::unit_tests</text>
</a>
</g>
</g>
<!-- Node48&#45;&gt;Node49 -->
<g id="edge9" class="edge"><title>Node48&#45;&gt;Node49</title>
<path fill="none" stroke="midnightblue" d="M335.723,-46C323.607,-46 311.442,-46 300.7,-46"/>
<polygon fill="midnightblue" stroke="midnightblue" points="335.857,-49.5001 345.857,-46 335.857,-42.5001 335.857,-49.5001"/>
</g>
<!-- Node50 -->
<g id="node10" class="node"><title>Node50</title>
<g id="a_node10"><a xlink:href="namespacemom.html#a0be2869fef30e1e0604facfe1b41555d" target="_top" xlink:title="This subroutine initializes MOM.">
<polygon fill="white" stroke="black" points="92.5,-36.5 92.5,-55.5 181.5,-55.5 181.5,-36.5 92.5,-36.5"/>
<text text-anchor="middle" x="137" y="-43.5" font-family="Helvetica,sans-Serif" font-size="10.00">mom::initialize_mom</text>
</a>
</g>
</g>
<!-- Node49&#45;&gt;Node50 -->
<g id="edge10" class="edge"><title>Node49&#45;&gt;Node50</title>
<path fill="none" stroke="midnightblue" d="M216.917,-46C205.445,-46 193.18,-46 181.82,-46"/>
<polygon fill="midnightblue" stroke="midnightblue" points="217.18,-49.5001 227.18,-46 217.18,-42.5001 217.18,-49.5001"/>
</g>
<!-- Node51 -->
<g id="node11" class="node"><title>Node51</title>
<g id="a_node11"><a xlink:href="MOM__driver_8F90.html#a08fffeb2d8e8acbf9ed4609be6d258c6" target="_top" xlink:title=" ">
<polygon fill="white" stroke="black" points="0,-36.5 0,-55.5 56,-55.5 56,-36.5 0,-36.5"/>
<text text-anchor="middle" x="28" y="-43.5" font-family="Helvetica,sans-Serif" font-size="10.00">mom_main</text>
</a>
</g>
</g>
<!-- Node50&#45;&gt;Node51 -->
<g id="edge11" class="edge"><title>Node50&#45;&gt;Node51</title>
<path fill="none" stroke="midnightblue" d="M82.3096,-46C73.2562,-46 64.21,-46 56.2082,-46"/>
<polygon fill="midnightblue" stroke="midnightblue" points="82.479,-49.5001 92.479,-46 82.479,-42.5001 82.479,-49.5001"/>
</g>
<!-- Node52&#45;&gt;Node48 -->
<g id="edge14" class="edge"><title>Node52&#45;&gt;Node48</title>
<path fill="none" stroke="midnightblue" d="M636.453,-15.1532C599.613,-19.4063 546.418,-25.7391 500,-32 488.391,-33.5659 475.99,-35.3401 464.131,-37.0866"/>
<polygon fill="midnightblue" stroke="midnightblue" points="636.857,-18.63 646.391,-14.0106 636.057,-11.6758 636.857,-18.63"/>
</g>
</g>
</svg>
