<?xml version="1.0" encoding="UTF-8" standalone="no"?>
<!DOCTYPE svg PUBLIC "-//W3C//DTD SVG 1.1//EN"
 "http://www.w3.org/Graphics/SVG/1.1/DTD/svg11.dtd">
<!-- Generated by graphviz version 2.30.1 (20170916.1124)
 -->
<!-- Title: mom_diag_mediator::set_axes_info Pages: 1 -->
<!--zoomable 77 -->
<svg id="main" version="1.1" xmlns="http://www.w3.org/2000/svg" xmlns:xlink="http://www.w3.org/1999/xlink" xml:space="preserve" onload="init(evt)">
<style type="text/css"><![CDATA[
.edge:hover path { stroke: red; }
.edge:hover polygon { stroke: red; fill: red; }
]]></style>
<script type="text/javascript"><![CDATA[
var edges = document.getElementsByTagName('g');
if (edges && edges.length) {
  for (var i=0;i<edges.length;i++) {
    if (edges[i].id.substr(0,4)=='edge') {
      edges[i].setAttribute('class','edge');
    }
  }
}
]]></script>
        <defs>
                <circle id="rim" cx="0" cy="0" r="7"/>
                <circle id="rim2" cx="0" cy="0" r="3.5"/>
                <g id="zoomPlus">
                        <use xlink:href="#rim" fill="#404040">
                                <set attributeName="fill" to="#808080" begin="zoomplus.mouseover" end="zoomplus.mouseout"/>
                        </use>
                        <path d="M-4,0h8M0,-4v8" fill="none" stroke="white" stroke-width="1.5" pointer-events="none"/>
                </g>
                <g id="zoomMin">
                        <use xlink:href="#rim" fill="#404040">
                                <set attributeName="fill" to="#808080" begin="zoomminus.mouseover" end="zoomminus.mouseout"/>
                        </use>
                        <path d="M-4,0h8" fill="none" stroke="white" stroke-width="1.5" pointer-events="none"/>
                </g>
                <g id="dirArrow">
                        <path fill="none" stroke="white" stroke-width="1.5" d="M0,-3.0v7 M-2.5,-0.5L0,-3.0L2.5,-0.5"/>
                </g>
               <g id="resetDef">
                       <use xlink:href="#rim2" fill="#404040">
                               <set attributeName="fill" to="#808080" begin="reset.mouseover" end="reset.mouseout"/>
                       </use>
               </g>
        </defs>

<script type="text/javascript">
var viewWidth = 506;
var viewHeight = 77;
var sectionId = 'dynsection-44';
</script>
<script xlink:href="svgpan.js"/>
<svg id="graph" class="graph">
<g id="viewport">
<title>mom_diag_mediator::set_axes_info</title>
<polygon fill="white" stroke="white" points="-4,5 -4,-73 503,-73 503,5 -4,5"/>
<!-- Node464 -->
<g id="node1" class="node"><title>Node464</title>
<g id="a_node1"><a xlink:title="Sets up diagnostics axes.">
<polygon fill="#bfbfbf" stroke="black" points="0.5,-22 0.5,-52 95.5,-52 95.5,-22 0.5,-22"/>
<text text-anchor="start" x="8.5" y="-40" font-family="Helvetica,sans-Serif" font-size="10.00">mom_diag_mediator::</text>
<text text-anchor="middle" x="48" y="-29" font-family="Helvetica,sans-Serif" font-size="10.00">set_axes_info</text>
</a>
</g>
</g>
<!-- Node465 -->
<g id="node2" class="node"><title>Node465</title>
<g id="a_node2"><a xlink:href="namespacemom__diag__mediator.html#ab9f767ec24a860cb71cae264560272a8" target="_top" xlink:title="Defines a group of &quot;axes&quot; from list of handles.">
<polygon fill="white" stroke="black" points="132.5,-22 132.5,-52 227.5,-52 227.5,-22 132.5,-22"/>
<text text-anchor="start" x="140.5" y="-40" font-family="Helvetica,sans-Serif" font-size="10.00">mom_diag_mediator::</text>
<text text-anchor="middle" x="180" y="-29" font-family="Helvetica,sans-Serif" font-size="10.00">define_axes_group</text>
</a>
</g>
</g>
<!-- Node464&#45;&gt;Node465 -->
<g id="edge1" class="edge"><title>Node464&#45;&gt;Node465</title>
<path fill="none" stroke="midnightblue" d="M95.5658,-37C104.154,-37 113.21,-37 122.063,-37"/>
<polygon fill="midnightblue" stroke="midnightblue" points="122.322,-40.5001 132.322,-37 122.322,-33.5001 122.322,-40.5001"/>
</g>
<!-- Node466 -->
<g id="node3" class="node"><title>Node466</title>
<g id="a_node3"><a xlink:href="namespacemom__diag__mediator.html#a82d9bb70db16b1113304936c82d40e82" target="_top" xlink:title=" ">
<polygon fill="white" stroke="black" points="264,-49.5 264,-68.5 368,-68.5 368,-49.5 264,-49.5"/>
<text text-anchor="middle" x="316" y="-56.5" font-family="Helvetica,sans-Serif" font-size="10.00">mom_diag_mediator::i2s</text>
</a>
</g>
</g>
<!-- Node465&#45;&gt;Node466 -->
<g id="edge2" class="edge"><title>Node465&#45;&gt;Node466</title>
<path fill="none" stroke="midnightblue" d="M227.867,-44.6945C236.221,-46.0661 245.035,-47.5132 253.72,-48.9391"/>
<polygon fill="midnightblue" stroke="midnightblue" points="253.386,-52.431 263.821,-50.5974 254.52,-45.5235 253.386,-52.431"/>
</g>
<!-- Node467 -->
<g id="node4" class="node"><title>Node467</title>
<g id="a_node4"><a xlink:href="namespacemom__error__handler.html#a460cfb79a06c29fc249952c2a3710d67" target="_top" xlink:title=" ">
<polygon fill="white" stroke="black" points="269.5,-0 269.5,-30 362.5,-30 362.5,-0 269.5,-0"/>
<text text-anchor="start" x="277.5" y="-18" font-family="Helvetica,sans-Serif" font-size="10.00">mom_error_handler::</text>
<text text-anchor="middle" x="316" y="-7" font-family="Helvetica,sans-Serif" font-size="10.00">mom_error</text>
</a>
</g>
</g>
<!-- Node465&#45;&gt;Node467 -->
<g id="edge3" class="edge"><title>Node465&#45;&gt;Node467</title>
<path fill="none" stroke="midnightblue" d="M227.867,-29.3055C238.047,-27.634 248.911,-25.8504 259.392,-24.1296"/>
<polygon fill="midnightblue" stroke="midnightblue" points="259.988,-27.5788 269.289,-22.5048 258.854,-20.6712 259.988,-27.5788"/>
</g>
<!-- Node468 -->
<g id="node5" class="node"><title>Node468</title>
<g id="a_node5"><a xlink:href="namespacemom__error__handler.html#ad5f00a53059c72fe2332d1436c80ca71" target="_top" xlink:title=" ">
<polygon fill="white" stroke="black" points="404.5,-0 404.5,-30 497.5,-30 497.5,-0 404.5,-0"/>
<text text-anchor="start" x="412.5" y="-18" font-family="Helvetica,sans-Serif" font-size="10.00">mom_error_handler::</text>
<text text-anchor="middle" x="451" y="-7" font-family="Helvetica,sans-Serif" font-size="10.00">is_root_pe</text>
</a>
</g>
</g>
<!-- Node467&#45;&gt;Node468 -->
<g id="edge4" class="edge"><title>Node467&#45;&gt;Node468</title>
<path fill="none" stroke="midnightblue" d="M362.771,-15C372.802,-15 383.533,-15 393.916,-15"/>
<polygon fill="midnightblue" stroke="midnightblue" points="394.145,-18.5001 404.145,-15 394.145,-11.5001 394.145,-18.5001"/>
</g>
</g>
</svg>
        <g id="navigator" transform="translate(0 0)" fill="#404254">
                <rect fill="#f2f5e9" fill-opacity="0.5" stroke="#606060" stroke-width=".5" x="0" y="0" width="60" height="60"/>
                <use id="zoomplus" xlink:href="#zoomPlus" x="17" y="9" onmousedown="handleZoom(evt,'in')"/>
                <use id="zoomminus" xlink:href="#zoomMin" x="42" y="9" onmousedown="handleZoom(evt,'out')"/>
                <use id="reset" xlink:href="#resetDef" x="30" y="36" onmousedown="handleReset()"/>
                <g id="arrowUp" xlink:href="#dirArrow" transform="translate(30 24)" onmousedown="handlePan(0,-1)">
                  <use xlink:href="#rim" fill="#404040">
                        <set attributeName="fill" to="#808080" begin="arrowUp.mouseover" end="arrowUp.mouseout"/>
                  </use>
                  <path fill="none" stroke="white" stroke-width="1.5" d="M0,-3.0v7 M-2.5,-0.5L0,-3.0L2.5,-0.5"/>
                </g>
                <g id="arrowRight" xlink:href="#dirArrow" transform="rotate(90) translate(36 -43)" onmousedown="handlePan(1,0)">
                  <use xlink:href="#rim" fill="#404040">
                        <set attributeName="fill" to="#808080" begin="arrowRight.mouseover" end="arrowRight.mouseout"/>
                  </use>
                  <path fill="none" stroke="white" stroke-width="1.5" d="M0,-3.0v7 M-2.5,-0.5L0,-3.0L2.5,-0.5"/>
                </g>
                <g id="arrowDown" xlink:href="#dirArrow" transform="rotate(180) translate(-30 -48)" onmousedown="handlePan(0,1)">
                  <use xlink:href="#rim" fill="#404040">
                        <set attributeName="fill" to="#808080" begin="arrowDown.mouseover" end="arrowDown.mouseout"/>
                  </use>
                  <path fill="none" stroke="white" stroke-width="1.5" d="M0,-3.0v7 M-2.5,-0.5L0,-3.0L2.5,-0.5"/>
                </g>
                <g id="arrowLeft" xlink:href="#dirArrow" transform="rotate(270) translate(-36 17)" onmousedown="handlePan(-1,0)">
                  <use xlink:href="#rim" fill="#404040">
                        <set attributeName="fill" to="#808080" begin="arrowLeft.mouseover" end="arrowLeft.mouseout"/>
                  </use>
                  <path fill="none" stroke="white" stroke-width="1.5" d="M0,-3.0v7 M-2.5,-0.5L0,-3.0L2.5,-0.5"/>
                </g>
        </g>
        <svg viewBox="0 0 15 15" width="100%" height="30px" preserveAspectRatio="xMaxYMin meet">
         <g id="arrow_out" transform="scale(0.3 0.3)">
          <a xlink:href="namespacemom__diag__mediator_a4d8d23e602166167b393e19453ded5bf_cgraph_org.svg" target="_base">
           <rect id="button" ry="5" rx="5" y="6" x="6" height="38" width="38"
                fill="#f2f5e9" fill-opacity="0.5" stroke="#606060" stroke-width="1.0"/>
           <path id="arrow"
             d="M 11.500037,31.436501 C 11.940474,20.09759 22.043105,11.32322 32.158766,21.979434 L 37.068811,17.246167 C 37.068811,17.246167 37.088388,32 37.088388,32 L 22.160133,31.978069 C 22.160133,31.978069 26.997745,27.140456 26.997745,27.140456 C 18.528582,18.264221 13.291696,25.230495 11.500037,31.436501 z"
             style="fill:#404040;"/>
          </a>
         </g>
        </svg>
</svg>
