<?xml version="1.0" encoding="UTF-8" standalone="no"?>
<!DOCTYPE svg PUBLIC "-//W3C//DTD SVG 1.1//EN"
 "http://www.w3.org/Graphics/SVG/1.1/DTD/svg11.dtd">
<!-- Generated by graphviz version 2.30.1 (20170916.1124)
 -->
<!-- Title: mom_remapping::remapping_set_param Pages: 1 -->
<!--zoomable 87 -->
<svg id="main" version="1.1" xmlns="http://www.w3.org/2000/svg" xmlns:xlink="http://www.w3.org/1999/xlink" xml:space="preserve" onload="init(evt)">
<style type="text/css"><![CDATA[
.edge:hover path { stroke: red; }
.edge:hover polygon { stroke: red; fill: red; }
]]></style>
<script type="text/javascript"><![CDATA[
var edges = document.getElementsByTagName('g');
if (edges && edges.length) {
  for (var i=0;i<edges.length;i++) {
    if (edges[i].id.substr(0,4)=='edge') {
      edges[i].setAttribute('class','edge');
    }
  }
}
]]></script>
        <defs>
                <circle id="rim" cx="0" cy="0" r="7"/>
                <circle id="rim2" cx="0" cy="0" r="3.5"/>
                <g id="zoomPlus">
                        <use xlink:href="#rim" fill="#404040">
                                <set attributeName="fill" to="#808080" begin="zoomplus.mouseover" end="zoomplus.mouseout"/>
                        </use>
                        <path d="M-4,0h8M0,-4v8" fill="none" stroke="white" stroke-width="1.5" pointer-events="none"/>
                </g>
                <g id="zoomMin">
                        <use xlink:href="#rim" fill="#404040">
                                <set attributeName="fill" to="#808080" begin="zoomminus.mouseover" end="zoomminus.mouseout"/>
                        </use>
                        <path d="M-4,0h8" fill="none" stroke="white" stroke-width="1.5" pointer-events="none"/>
                </g>
                <g id="dirArrow">
                        <path fill="none" stroke="white" stroke-width="1.5" d="M0,-3.0v7 M-2.5,-0.5L0,-3.0L2.5,-0.5"/>
                </g>
               <g id="resetDef">
                       <use xlink:href="#rim2" fill="#404040">
                               <set attributeName="fill" to="#808080" begin="reset.mouseover" end="reset.mouseout"/>
                       </use>
               </g>
        </defs>

<script type="text/javascript">
var viewWidth = 584;
var viewHeight = 87;
var sectionId = 'dynsection-25';
</script>
<script xlink:href="svgpan.js"/>
<svg id="graph" class="graph">
<g id="viewport">
<title>mom_remapping::remapping_set_param</title>
<polygon fill="white" stroke="white" points="-4,5 -4,-83 581,-83 581,5 -4,5"/>
<!-- Node284 -->
<g id="node1" class="node"><title>Node284</title>
<g id="a_node1"><a xlink:title="Set parameters within remapping object.">
<polygon fill="#bfbfbf" stroke="black" points="0,-24 0,-54 120,-54 120,-24 0,-24"/>
<text text-anchor="start" x="8" y="-42" font-family="Helvetica,sans-Serif" font-size="10.00">mom_remapping::remapping</text>
<text text-anchor="middle" x="60" y="-31" font-family="Helvetica,sans-Serif" font-size="10.00">_set_param</text>
</a>
</g>
</g>
<!-- Node285 -->
<g id="node2" class="node"><title>Node285</title>
<g id="a_node2"><a xlink:href="namespacemom__remapping.html#a41a89ac62578250500b7a450d5fdfae7" target="_top" xlink:title="Changes the method of reconstruction Use this routine to parse a string parameter specifying the reco...">
<polygon fill="white" stroke="black" points="156,-29.5 156,-48.5 314,-48.5 314,-29.5 156,-29.5"/>
<text text-anchor="middle" x="235" y="-36.5" font-family="Helvetica,sans-Serif" font-size="10.00">mom_remapping::setreconstructiontype</text>
</a>
</g>
</g>
<!-- Node284&#45;&gt;Node285 -->
<g id="edge1" class="edge"><title>Node284&#45;&gt;Node285</title>
<path fill="none" stroke="midnightblue" d="M120.053,-39C128.355,-39 137.033,-39 145.735,-39"/>
<polygon fill="midnightblue" stroke="midnightblue" points="145.94,-42.5001 155.94,-39 145.94,-35.5001 145.94,-42.5001"/>
</g>
<!-- Node286 -->
<g id="node3" class="node"><title>Node286</title>
<g id="a_node3"><a xlink:href="namespacemom__string__functions.html#aca148baf726de2f028b7e7baad3c85d4" target="_top" xlink:title=" ">
<polygon fill="white" stroke="black" points="350.5,-49 350.5,-79 445.5,-79 445.5,-49 350.5,-49"/>
<text text-anchor="start" x="358.5" y="-67" font-family="Helvetica,sans-Serif" font-size="10.00">mom_string_functions</text>
<text text-anchor="middle" x="398" y="-56" font-family="Helvetica,sans-Serif" font-size="10.00">::uppercase</text>
</a>
</g>
</g>
<!-- Node285&#45;&gt;Node286 -->
<g id="edge2" class="edge"><title>Node285&#45;&gt;Node286</title>
<path fill="none" stroke="midnightblue" d="M297.326,-48.5227C311.485,-50.7213 326.484,-53.0503 340.429,-55.2157"/>
<polygon fill="midnightblue" stroke="midnightblue" points="339.951,-58.6833 350.37,-56.7593 341.025,-51.7662 339.951,-58.6833"/>
</g>
<!-- Node287 -->
<g id="node4" class="node"><title>Node287</title>
<g id="a_node4"><a xlink:href="namespacemom__error__handler.html#a460cfb79a06c29fc249952c2a3710d67" target="_top" xlink:title=" ">
<polygon fill="white" stroke="black" points="351.5,-0 351.5,-30 444.5,-30 444.5,-0 351.5,-0"/>
<text text-anchor="start" x="359.5" y="-18" font-family="Helvetica,sans-Serif" font-size="10.00">mom_error_handler::</text>
<text text-anchor="middle" x="398" y="-7" font-family="Helvetica,sans-Serif" font-size="10.00">mom_error</text>
</a>
</g>
</g>
<!-- Node285&#45;&gt;Node287 -->
<g id="edge3" class="edge"><title>Node285&#45;&gt;Node287</title>
<path fill="none" stroke="midnightblue" d="M300.094,-29.4456C313.79,-27.4039 328.148,-25.2636 341.49,-23.2749"/>
<polygon fill="midnightblue" stroke="midnightblue" points="342.091,-26.7239 351.466,-21.7877 341.059,-19.8004 342.091,-26.7239"/>
</g>
<!-- Node288 -->
<g id="node5" class="node"><title>Node288</title>
<g id="a_node5"><a xlink:href="namespacemom__error__handler.html#ad5f00a53059c72fe2332d1436c80ca71" target="_top" xlink:title=" ">
<polygon fill="white" stroke="black" points="482.5,-0 482.5,-30 575.5,-30 575.5,-0 482.5,-0"/>
<text text-anchor="start" x="490.5" y="-18" font-family="Helvetica,sans-Serif" font-size="10.00">mom_error_handler::</text>
<text text-anchor="middle" x="529" y="-7" font-family="Helvetica,sans-Serif" font-size="10.00">is_root_pe</text>
</a>
</g>
</g>
<!-- Node287&#45;&gt;Node288 -->
<g id="edge4" class="edge"><title>Node287&#45;&gt;Node288</title>
<path fill="none" stroke="midnightblue" d="M444.844,-15C453.683,-15 463.034,-15 472.151,-15"/>
<polygon fill="midnightblue" stroke="midnightblue" points="472.304,-18.5001 482.304,-15 472.304,-11.5001 472.304,-18.5001"/>
</g>
</g>
</svg>
        <g id="navigator" transform="translate(0 0)" fill="#404254">
                <rect fill="#f2f5e9" fill-opacity="0.5" stroke="#606060" stroke-width=".5" x="0" y="0" width="60" height="60"/>
                <use id="zoomplus" xlink:href="#zoomPlus" x="17" y="9" onmousedown="handleZoom(evt,'in')"/>
                <use id="zoomminus" xlink:href="#zoomMin" x="42" y="9" onmousedown="handleZoom(evt,'out')"/>
                <use id="reset" xlink:href="#resetDef" x="30" y="36" onmousedown="handleReset()"/>
                <g id="arrowUp" xlink:href="#dirArrow" transform="translate(30 24)" onmousedown="handlePan(0,-1)">
                  <use xlink:href="#rim" fill="#404040">
                        <set attributeName="fill" to="#808080" begin="arrowUp.mouseover" end="arrowUp.mouseout"/>
                  </use>
                  <path fill="none" stroke="white" stroke-width="1.5" d="M0,-3.0v7 M-2.5,-0.5L0,-3.0L2.5,-0.5"/>
                </g>
                <g id="arrowRight" xlink:href="#dirArrow" transform="rotate(90) translate(36 -43)" onmousedown="handlePan(1,0)">
                  <use xlink:href="#rim" fill="#404040">
                        <set attributeName="fill" to="#808080" begin="arrowRight.mouseover" end="arrowRight.mouseout"/>
                  </use>
                  <path fill="none" stroke="white" stroke-width="1.5" d="M0,-3.0v7 M-2.5,-0.5L0,-3.0L2.5,-0.5"/>
                </g>
                <g id="arrowDown" xlink:href="#dirArrow" transform="rotate(180) translate(-30 -48)" onmousedown="handlePan(0,1)">
                  <use xlink:href="#rim" fill="#404040">
                        <set attributeName="fill" to="#808080" begin="arrowDown.mouseover" end="arrowDown.mouseout"/>
                  </use>
                  <path fill="none" stroke="white" stroke-width="1.5" d="M0,-3.0v7 M-2.5,-0.5L0,-3.0L2.5,-0.5"/>
                </g>
                <g id="arrowLeft" xlink:href="#dirArrow" transform="rotate(270) translate(-36 17)" onmousedown="handlePan(-1,0)">
                  <use xlink:href="#rim" fill="#404040">
                        <set attributeName="fill" to="#808080" begin="arrowLeft.mouseover" end="arrowLeft.mouseout"/>
                  </use>
                  <path fill="none" stroke="white" stroke-width="1.5" d="M0,-3.0v7 M-2.5,-0.5L0,-3.0L2.5,-0.5"/>
                </g>
        </g>
        <svg viewBox="0 0 15 15" width="100%" height="30px" preserveAspectRatio="xMaxYMin meet">
         <g id="arrow_out" transform="scale(0.3 0.3)">
          <a xlink:href="namespacemom__remapping_a9e811f89c505a4416ea0eec315769801_cgraph_org.svg" target="_base">
           <rect id="button" ry="5" rx="5" y="6" x="6" height="38" width="38"
                fill="#f2f5e9" fill-opacity="0.5" stroke="#606060" stroke-width="1.0"/>
           <path id="arrow"
             d="M 11.500037,31.436501 C 11.940474,20.09759 22.043105,11.32322 32.158766,21.979434 L 37.068811,17.246167 C 37.068811,17.246167 37.088388,32 37.088388,32 L 22.160133,31.978069 C 22.160133,31.978069 26.997745,27.140456 26.997745,27.140456 C 18.528582,18.264221 13.291696,25.230495 11.500037,31.436501 z"
             style="fill:#404040;"/>
          </a>
         </g>
        </svg>
</svg>
