<?xml version="1.0" encoding="UTF-8" standalone="no"?>
<!DOCTYPE svg PUBLIC "-//W3C//DTD SVG 1.1//EN"
 "http://www.w3.org/Graphics/SVG/1.1/DTD/svg11.dtd">
<!-- Generated by graphviz version 2.30.1 (20170916.1124)
 -->
<!-- Title: user_tracer_example::user_register_tracer_example Pages: 1 -->
<svg width="802pt" height="128pt"
 viewBox="0.00 0.00 802.00 127.63" xmlns="http://www.w3.org/2000/svg" xmlns:xlink="http://www.w3.org/1999/xlink">
<g id="graph0" class="graph" transform="scale(1 1) rotate(0) translate(4 123.631)">
<title>user_tracer_example::user_register_tracer_example</title>
<polygon fill="white" stroke="white" points="-4,5 -4,-123.631 799,-123.631 799,5 -4,5"/>
<!-- Node13 -->
<g id="node1" class="node"><title>Node13</title>
<g id="a_node1"><a xlink:title=" ">
<polygon fill="#bfbfbf" stroke="black" points="0,-40.1308 0,-81.1308 94,-81.1308 94,-40.1308 0,-40.1308"/>
<text text-anchor="start" x="8" y="-69.1308" font-family="Helvetica,sans-Serif" font-size="10.00">user_tracer_example</text>
<text text-anchor="start" x="8" y="-58.1308" font-family="Helvetica,sans-Serif" font-size="10.00">::user_register_tracer</text>
<text text-anchor="middle" x="47" y="-47.1308" font-family="Helvetica,sans-Serif" font-size="10.00">_example</text>
</a>
</g>
</g>
<!-- Node14 -->
<g id="node2" class="node"><title>Node14</title>
<g id="a_node2"><a xlink:href="namespaceatmos__ocean__fluxes__mod.html#a413981652ffe0bccccdf5ff5c4c1d526" target="_top" xlink:title=" ">
<polygon fill="white" stroke="black" points="130.5,-89.6308 130.5,-119.631 245.5,-119.631 245.5,-89.6308 130.5,-89.6308"/>
<text text-anchor="start" x="138.5" y="-107.631" font-family="Helvetica,sans-Serif" font-size="10.00">atmos_ocean_fluxes</text>
<text text-anchor="middle" x="188" y="-96.6308" font-family="Helvetica,sans-Serif" font-size="10.00">_mod::aof_set_coupler_flux</text>
</a>
</g>
</g>
<!-- Node13&#45;&gt;Node14 -->
<g id="edge1" class="edge"><title>Node13&#45;&gt;Node14</title>
<path fill="none" stroke="midnightblue" d="M94.285,-75.2822C105.638,-78.8758 117.924,-82.765 129.725,-86.5005"/>
<polygon fill="midnightblue" stroke="midnightblue" points="128.902,-89.9112 139.492,-89.5923 131.015,-83.2376 128.902,-89.9112"/>
</g>
<!-- Node15 -->
<g id="node3" class="node"><title>Node15</title>
<g id="a_node3"><a xlink:href="namespacemom__error__handler.html#a460cfb79a06c29fc249952c2a3710d67" target="_top" xlink:title=" ">
<polygon fill="white" stroke="black" points="570.5,-26.6308 570.5,-56.6308 663.5,-56.6308 663.5,-26.6308 570.5,-26.6308"/>
<text text-anchor="start" x="578.5" y="-44.6308" font-family="Helvetica,sans-Serif" font-size="10.00">mom_error_handler::</text>
<text text-anchor="middle" x="617" y="-33.6308" font-family="Helvetica,sans-Serif" font-size="10.00">mom_error</text>
</a>
</g>
</g>
<!-- Node13&#45;&gt;Node15 -->
<g id="edge2" class="edge"><title>Node13&#45;&gt;Node15</title>
<path fill="none" stroke="midnightblue" d="M94.0007,-59.092C197.469,-55.631 448.221,-47.2431 560.282,-43.4946"/>
<polygon fill="midnightblue" stroke="midnightblue" points="560.485,-46.9899 570.363,-43.1574 560.251,-39.9938 560.485,-46.9899"/>
</g>
<!-- Node17 -->
<g id="node5" class="node"><title>Node17</title>
<g id="a_node5"><a xlink:href="namespacemom__io.html#a39c3ccc06bb1a6e446af2ee9010eba16" target="_top" xlink:title="Returns a vardesc type whose elements have been filled with the provided fields. The argument name is...">
<polygon fill="white" stroke="black" points="147,-13.1308 147,-32.1308 229,-32.1308 229,-13.1308 147,-13.1308"/>
<text text-anchor="middle" x="188" y="-20.1308" font-family="Helvetica,sans-Serif" font-size="10.00">mom_io::var_desc</text>
</a>
</g>
</g>
<!-- Node13&#45;&gt;Node17 -->
<g id="edge4" class="edge"><title>Node13&#45;&gt;Node17</title>
<path fill="none" stroke="midnightblue" d="M94.285,-47.9773C109.704,-43.7622 126.844,-39.0762 142.152,-34.8913"/>
<polygon fill="midnightblue" stroke="midnightblue" points="143.187,-38.2369 151.91,-32.2236 141.341,-31.4846 143.187,-38.2369"/>
</g>
<!-- Node16 -->
<g id="node4" class="node"><title>Node16</title>
<g id="a_node4"><a xlink:href="namespacemom__error__handler.html#ad5f00a53059c72fe2332d1436c80ca71" target="_top" xlink:title=" ">
<polygon fill="white" stroke="black" points="700.5,-26.6308 700.5,-56.6308 793.5,-56.6308 793.5,-26.6308 700.5,-26.6308"/>
<text text-anchor="start" x="708.5" y="-44.6308" font-family="Helvetica,sans-Serif" font-size="10.00">mom_error_handler::</text>
<text text-anchor="middle" x="747" y="-33.6308" font-family="Helvetica,sans-Serif" font-size="10.00">is_root_pe</text>
</a>
</g>
</g>
<!-- Node15&#45;&gt;Node16 -->
<g id="edge3" class="edge"><title>Node15&#45;&gt;Node16</title>
<path fill="none" stroke="midnightblue" d="M663.849,-41.6308C672.408,-41.6308 681.439,-41.6308 690.258,-41.6308"/>
<polygon fill="midnightblue" stroke="midnightblue" points="690.471,-45.1309 700.471,-41.6308 690.471,-38.1309 690.471,-45.1309"/>
</g>
<!-- Node18 -->
<g id="node6" class="node"><title>Node18</title>
<g id="a_node6"><a xlink:href="namespacemom__io.html#af96b29cb8410d557e8e452b81586223b" target="_top" xlink:title="This routine modifies the named elements of a vardesc type. All arguments are optional,...">
<polygon fill="white" stroke="black" points="282.5,-13.1308 282.5,-32.1308 387.5,-32.1308 387.5,-13.1308 282.5,-13.1308"/>
<text text-anchor="middle" x="335" y="-20.1308" font-family="Helvetica,sans-Serif" font-size="10.00">mom_io::modify_vardesc</text>
</a>
</g>
</g>
<!-- Node17&#45;&gt;Node18 -->
<g id="edge5" class="edge"><title>Node17&#45;&gt;Node18</title>
<path fill="none" stroke="midnightblue" d="M229.006,-22.6308C242.423,-22.6308 257.713,-22.6308 272.393,-22.6308"/>
<polygon fill="midnightblue" stroke="midnightblue" points="272.428,-26.1309 282.428,-22.6308 272.428,-19.1309 272.428,-26.1309"/>
</g>
<!-- Node19 -->
<g id="node7" class="node"><title>Node19</title>
<g id="a_node7"><a xlink:href="namespacemom__io.html#ac4bc408e8b38dbd669842753f26ebf88" target="_top" xlink:title="Copies a string.">
<polygon fill="white" stroke="black" points="424,-13.1308 424,-32.1308 534,-32.1308 534,-13.1308 424,-13.1308"/>
<text text-anchor="middle" x="479" y="-20.1308" font-family="Helvetica,sans-Serif" font-size="10.00">mom_io::safe_string_copy</text>
</a>
</g>
</g>
<!-- Node17&#45;&gt;Node19 -->
<g id="edge8" class="edge"><title>Node17&#45;&gt;Node19</title>
<path fill="none" stroke="midnightblue" d="M226.743,-13.1212C243.541,-9.35623 263.637,-5.48743 282,-3.63079 328.872,1.10828 341.144,1.26125 388,-3.63079 402.315,-5.12531 417.705,-7.92239 431.639,-10.9197"/>
<polygon fill="midnightblue" stroke="midnightblue" points="430.969,-14.3562 441.492,-13.1218 432.496,-7.52479 430.969,-14.3562"/>
</g>
<!-- Node18&#45;&gt;Node19 -->
<g id="edge6" class="edge"><title>Node18&#45;&gt;Node19</title>
<path fill="none" stroke="midnightblue" d="M387.667,-22.6308C396.102,-22.6308 404.932,-22.6308 413.628,-22.6308"/>
<polygon fill="midnightblue" stroke="midnightblue" points="413.743,-26.1309 423.743,-22.6308 413.743,-19.1309 413.743,-26.1309"/>
</g>
<!-- Node19&#45;&gt;Node15 -->
<g id="edge7" class="edge"><title>Node19&#45;&gt;Node15</title>
<path fill="none" stroke="midnightblue" d="M534.142,-30.1947C542.767,-31.3997 551.702,-32.648 560.361,-33.8577"/>
<polygon fill="midnightblue" stroke="midnightblue" points="559.976,-37.3378 570.364,-35.2551 560.944,-30.4051 559.976,-37.3378"/>
</g>
</g>
</svg>
