<?xml version="1.0" encoding="UTF-8" standalone="no"?>
<!DOCTYPE svg PUBLIC "-//W3C//DTD SVG 1.1//EN"
 "http://www.w3.org/Graphics/SVG/1.1/DTD/svg11.dtd">
<!-- Generated by graphviz version 2.30.1 (20170916.1124)
 -->
<!-- Title: mom_diag_mediator::diag_mediator_init Pages: 1 -->
<svg width="366pt" height="126pt"
 viewBox="0.00 0.00 366.00 126.00" xmlns="http://www.w3.org/2000/svg" xmlns:xlink="http://www.w3.org/1999/xlink">
<g id="graph0" class="graph" transform="scale(1 1) rotate(0) translate(4 122)">
<title>mom_diag_mediator::diag_mediator_init</title>
<polygon fill="white" stroke="white" points="-4,5 -4,-122 363,-122 363,5 -4,5"/>
<!-- Node135 -->
<g id="node1" class="node"><title>Node135</title>
<g id="a_node1"><a xlink:title="diag_mediator_init initializes the MOM diag_mediator and opens the available diagnostics file,...">
<polygon fill="#bfbfbf" stroke="black" points="0.5,-44 0.5,-74 95.5,-74 95.5,-44 0.5,-44"/>
<text text-anchor="start" x="8.5" y="-62" font-family="Helvetica,sans-Serif" font-size="10.00">mom_diag_mediator::</text>
<text text-anchor="middle" x="48" y="-51" font-family="Helvetica,sans-Serif" font-size="10.00">diag_mediator_init</text>
</a>
</g>
</g>
<!-- Node136 -->
<g id="node2" class="node"><title>Node136</title>
<g id="a_node2"><a xlink:href="namespacemom__diag__mediator.html#a883862f004e30bbc5211f38635511ba0" target="_top" xlink:title="Initializes a diag_type (used after allocating new memory)">
<polygon fill="white" stroke="black" points="132.5,-88 132.5,-118 227.5,-118 227.5,-88 132.5,-88"/>
<text text-anchor="start" x="140.5" y="-106" font-family="Helvetica,sans-Serif" font-size="10.00">mom_diag_mediator::</text>
<text text-anchor="middle" x="180" y="-95" font-family="Helvetica,sans-Serif" font-size="10.00">initialize_diag_type</text>
</a>
</g>
</g>
<!-- Node135&#45;&gt;Node136 -->
<g id="edge1" class="edge"><title>Node135&#45;&gt;Node136</title>
<path fill="none" stroke="midnightblue" d="M93.375,-74.0192C103.512,-77.4501 114.395,-81.1337 124.889,-84.6854"/>
<polygon fill="midnightblue" stroke="midnightblue" points="123.789,-88.0083 134.384,-87.8991 126.034,-81.3778 123.789,-88.0083"/>
</g>
<!-- Node137 -->
<g id="node3" class="node"><title>Node137</title>
<g id="a_node3"><a xlink:href="namespacemom__error__handler.html#ad5f00a53059c72fe2332d1436c80ca71" target="_top" xlink:title=" ">
<polygon fill="white" stroke="black" points="264.5,-22 264.5,-52 357.5,-52 357.5,-22 264.5,-22"/>
<text text-anchor="start" x="272.5" y="-40" font-family="Helvetica,sans-Serif" font-size="10.00">mom_error_handler::</text>
<text text-anchor="middle" x="311" y="-29" font-family="Helvetica,sans-Serif" font-size="10.00">is_root_pe</text>
</a>
</g>
</g>
<!-- Node135&#45;&gt;Node137 -->
<g id="edge2" class="edge"><title>Node135&#45;&gt;Node137</title>
<path fill="none" stroke="midnightblue" d="M95.6616,-55.0668C140.058,-51.3246 206.903,-45.6901 254.12,-41.7102"/>
<polygon fill="midnightblue" stroke="midnightblue" points="254.51,-45.1899 264.18,-40.8622 253.922,-38.2146 254.51,-45.1899"/>
</g>
<!-- Node138 -->
<g id="node4" class="node"><title>Node138</title>
<g id="a_node4"><a xlink:href="namespacemom__error__handler.html#a460cfb79a06c29fc249952c2a3710d67" target="_top" xlink:title=" ">
<polygon fill="white" stroke="black" points="133.5,-0 133.5,-30 226.5,-30 226.5,-0 133.5,-0"/>
<text text-anchor="start" x="141.5" y="-18" font-family="Helvetica,sans-Serif" font-size="10.00">mom_error_handler::</text>
<text text-anchor="middle" x="180" y="-7" font-family="Helvetica,sans-Serif" font-size="10.00">mom_error</text>
</a>
</g>
</g>
<!-- Node135&#45;&gt;Node138 -->
<g id="edge3" class="edge"><title>Node135&#45;&gt;Node138</title>
<path fill="none" stroke="midnightblue" d="M93.375,-43.9808C103.512,-40.5499 114.395,-36.8663 124.889,-33.3146"/>
<polygon fill="midnightblue" stroke="midnightblue" points="126.034,-36.6222 134.384,-30.1009 123.789,-29.9917 126.034,-36.6222"/>
</g>
<!-- Node138&#45;&gt;Node137 -->
<g id="edge4" class="edge"><title>Node138&#45;&gt;Node137</title>
<path fill="none" stroke="midnightblue" d="M226.844,-22.8183C235.778,-24.3421 245.236,-25.9549 254.445,-27.5255"/>
<polygon fill="midnightblue" stroke="midnightblue" points="253.858,-30.9758 264.304,-29.2069 255.035,-24.0754 253.858,-30.9758"/>
</g>
</g>
</svg>
