<?xml version="1.0" encoding="UTF-8" standalone="no"?>
<!DOCTYPE svg PUBLIC "-//W3C//DTD SVG 1.1//EN"
 "http://www.w3.org/Graphics/SVG/1.1/DTD/svg11.dtd">
<!-- Generated by graphviz version 2.30.1 (20170916.1124)
 -->
<!-- Title: mom_coms::increment_ints_faster Pages: 1 -->
<svg width="248pt" height="87pt"
 viewBox="0.00 0.00 248.00 87.00" xmlns="http://www.w3.org/2000/svg" xmlns:xlink="http://www.w3.org/1999/xlink">
<g id="graph0" class="graph" transform="scale(1 1) rotate(0) translate(4 83)">
<title>mom_coms::increment_ints_faster</title>
<polygon fill="white" stroke="white" points="-4,5 -4,-83 245,-83 245,5 -4,5"/>
<!-- Node42 -->
<g id="node1" class="node"><title>Node42</title>
<g id="a_node1"><a xlink:title=" ">
<polygon fill="#bfbfbf" stroke="black" points="142,-24 142,-54 240,-54 240,-24 142,-24"/>
<text text-anchor="start" x="150" y="-42" font-family="Helvetica,sans-Serif" font-size="10.00">mom_coms::increment</text>
<text text-anchor="middle" x="191" y="-31" font-family="Helvetica,sans-Serif" font-size="10.00">_ints_faster</text>
</a>
</g>
</g>
<!-- Node43 -->
<g id="node2" class="node"><title>Node43</title>
<g id="a_node2"><a xlink:href="namespacemom__coms.html#a99e145acc9227dad1bddc6cf211e4daf" target="_top" xlink:title=" ">
<polygon fill="white" stroke="black" points="0.5,-49 0.5,-79 105.5,-79 105.5,-49 0.5,-49"/>
<text text-anchor="start" x="8.5" y="-67" font-family="Helvetica,sans-Serif" font-size="10.00">mom_coms::reproducing</text>
<text text-anchor="middle" x="53" y="-56" font-family="Helvetica,sans-Serif" font-size="10.00">_sum_2d</text>
</a>
</g>
</g>
<!-- Node42&#45;&gt;Node43 -->
<g id="edge1" class="edge"><title>Node42&#45;&gt;Node43</title>
<path fill="none" stroke="midnightblue" d="M131.712,-49.7147C123.12,-51.2942 114.316,-52.9126 105.864,-54.4661"/>
<polygon fill="midnightblue" stroke="midnightblue" points="132.466,-53.1348 141.669,-47.8845 131.201,-46.2502 132.466,-53.1348"/>
</g>
<!-- Node44 -->
<g id="node3" class="node"><title>Node44</title>
<g id="a_node3"><a xlink:href="namespacemom__coms.html#aa21533e0badf43b331b5f7a9730c005f" target="_top" xlink:title=" ">
<polygon fill="white" stroke="black" points="0.5,-0 0.5,-30 105.5,-30 105.5,-0 0.5,-0"/>
<text text-anchor="start" x="8.5" y="-18" font-family="Helvetica,sans-Serif" font-size="10.00">mom_coms::reproducing</text>
<text text-anchor="middle" x="53" y="-7" font-family="Helvetica,sans-Serif" font-size="10.00">_sum_3d</text>
</a>
</g>
</g>
<!-- Node42&#45;&gt;Node44 -->
<g id="edge2" class="edge"><title>Node42&#45;&gt;Node44</title>
<path fill="none" stroke="midnightblue" d="M131.712,-28.7139C123.12,-27.1976 114.316,-25.6439 105.864,-24.1525"/>
<polygon fill="midnightblue" stroke="midnightblue" points="131.212,-32.1797 141.669,-30.4709 132.429,-25.2862 131.212,-32.1797"/>
</g>
</g>
</svg>
