<?xml version="1.0" encoding="UTF-8" standalone="no"?>
<!DOCTYPE svg PUBLIC "-//W3C//DTD SVG 1.1//EN"
 "http://www.w3.org/Graphics/SVG/1.1/DTD/svg11.dtd">
<!-- Generated by graphviz version 2.30.1 (20170916.1124)
 -->
<!-- Title: mom_eos_nemo::calculate_density_array_nemo Pages: 1 -->
<svg width="830pt" height="87pt"
 viewBox="0.00 0.00 830.00 87.00" xmlns="http://www.w3.org/2000/svg" xmlns:xlink="http://www.w3.org/1999/xlink">
<g id="graph0" class="graph" transform="scale(1 1) rotate(0) translate(4 83)">
<title>mom_eos_nemo::calculate_density_array_nemo</title>
<polygon fill="white" stroke="white" points="-4,5 -4,-83 827,-83 827,5 -4,5"/>
<!-- Node8 -->
<g id="node1" class="node"><title>Node8</title>
<g id="a_node1"><a xlink:title=" ">
<polygon fill="#bfbfbf" stroke="black" points="710,-24 710,-54 822,-54 822,-24 710,-24"/>
<text text-anchor="start" x="718" y="-42" font-family="Helvetica,sans-Serif" font-size="10.00">mom_eos_nemo::calculate</text>
<text text-anchor="middle" x="766" y="-31" font-family="Helvetica,sans-Serif" font-size="10.00">_density_array_nemo</text>
</a>
</g>
</g>
<!-- Node9 -->
<g id="node2" class="node"><title>Node9</title>
<g id="a_node2"><a xlink:href="namespacemom__eos__nemo.html#ab9441b5fdd50f09a5bac70012def0ea7" target="_top" xlink:title=" ">
<polygon fill="white" stroke="black" points="562,-49 562,-79 674,-79 674,-49 562,-49"/>
<text text-anchor="start" x="570" y="-67" font-family="Helvetica,sans-Serif" font-size="10.00">mom_eos_nemo::calculate</text>
<text text-anchor="middle" x="618" y="-56" font-family="Helvetica,sans-Serif" font-size="10.00">_compress_nemo</text>
</a>
</g>
</g>
<!-- Node8&#45;&gt;Node9 -->
<g id="edge1" class="edge"><title>Node8&#45;&gt;Node9</title>
<path fill="none" stroke="midnightblue" d="M699.869,-50.1526C691.324,-51.6157 682.634,-53.1037 674.274,-54.5352"/>
<polygon fill="midnightblue" stroke="midnightblue" points="700.538,-53.5891 709.804,-48.4514 699.356,-46.6895 700.538,-53.5891"/>
</g>
<!-- Node14 -->
<g id="node7" class="node"><title>Node14</title>
<g id="a_node7"><a xlink:href="namespacemom__eos__nemo.html#a9390714746020891ba092620dea9511f" target="_top" xlink:title=" ">
<polygon fill="white" stroke="black" points="562,-0 562,-30 674,-30 674,-0 562,-0"/>
<text text-anchor="start" x="570" y="-18" font-family="Helvetica,sans-Serif" font-size="10.00">mom_eos_nemo::calculate</text>
<text text-anchor="middle" x="618" y="-7" font-family="Helvetica,sans-Serif" font-size="10.00">_density_scalar_nemo</text>
</a>
</g>
</g>
<!-- Node8&#45;&gt;Node14 -->
<g id="edge6" class="edge"><title>Node8&#45;&gt;Node14</title>
<path fill="none" stroke="midnightblue" d="M699.869,-28.2935C691.324,-26.8889 682.634,-25.4604 674.274,-24.0862"/>
<polygon fill="midnightblue" stroke="midnightblue" points="699.368,-31.7581 709.804,-29.9266 700.504,-24.8508 699.368,-31.7581"/>
</g>
<!-- Node10 -->
<g id="node3" class="node"><title>Node10</title>
<g id="a_node3"><a xlink:href="namespacemom__eos.html#a14a3add75346358ce7d31d3b841a750d" target="_top" xlink:title="Calls the appropriate subroutine to calculate the density and compressibility for 1&#45;D array inputs.">
<polygon fill="white" stroke="black" points="438.5,-49 438.5,-79 525.5,-79 525.5,-49 438.5,-49"/>
<text text-anchor="start" x="446.5" y="-67" font-family="Helvetica,sans-Serif" font-size="10.00">mom_eos::calculate</text>
<text text-anchor="middle" x="482" y="-56" font-family="Helvetica,sans-Serif" font-size="10.00">_compress</text>
</a>
</g>
</g>
<!-- Node9&#45;&gt;Node10 -->
<g id="edge2" class="edge"><title>Node9&#45;&gt;Node10</title>
<path fill="none" stroke="midnightblue" d="M551.539,-64C542.82,-64 534.066,-64 525.868,-64"/>
<polygon fill="midnightblue" stroke="midnightblue" points="551.723,-67.5001 561.723,-64 551.723,-60.5001 551.723,-67.5001"/>
</g>
<!-- Node11 -->
<g id="node4" class="node"><title>Node11</title>
<g id="a_node4"><a xlink:href="namespacemom__regridding.html#a5927168e530c06163baf3693a804e15f" target="_top" xlink:title=" ">
<polygon fill="white" stroke="black" points="306,-49 306,-79 402,-79 402,-49 306,-49"/>
<text text-anchor="start" x="314" y="-67" font-family="Helvetica,sans-Serif" font-size="10.00">mom_regridding::build</text>
<text text-anchor="middle" x="354" y="-56" font-family="Helvetica,sans-Serif" font-size="10.00">_slight_column</text>
</a>
</g>
</g>
<!-- Node10&#45;&gt;Node11 -->
<g id="edge3" class="edge"><title>Node10&#45;&gt;Node11</title>
<path fill="none" stroke="midnightblue" d="M428.099,-64C419.563,-64 410.772,-64 402.377,-64"/>
<polygon fill="midnightblue" stroke="midnightblue" points="428.342,-67.5001 438.342,-64 428.342,-60.5001 428.342,-67.5001"/>
</g>
<!-- Node12 -->
<g id="node5" class="node"><title>Node12</title>
<g id="a_node5"><a xlink:href="namespacemom__regridding.html#adbdde4ab6606ab76f64f57b7ee5dfdeb" target="_top" xlink:title="Builds a grid that tracks density interfaces for water that is denser than the surface density plus a...">
<polygon fill="white" stroke="black" points="174,-49 174,-79 270,-79 270,-49 174,-49"/>
<text text-anchor="start" x="182" y="-67" font-family="Helvetica,sans-Serif" font-size="10.00">mom_regridding::build</text>
<text text-anchor="middle" x="222" y="-56" font-family="Helvetica,sans-Serif" font-size="10.00">_grid_slight</text>
</a>
</g>
</g>
<!-- Node11&#45;&gt;Node12 -->
<g id="edge4" class="edge"><title>Node11&#45;&gt;Node12</title>
<path fill="none" stroke="midnightblue" d="M295.461,-64C286.966,-64 278.297,-64 270.048,-64"/>
<polygon fill="midnightblue" stroke="midnightblue" points="295.699,-67.5001 305.699,-64 295.699,-60.5001 295.699,-67.5001"/>
</g>
<!-- Node13 -->
<g id="node6" class="node"><title>Node13</title>
<g id="a_node6"><a xlink:href="namespacemom__regridding.html#abf6d4e0d14c8b3b69fa4ffca42122c5f" target="_top" xlink:title=" ">
<polygon fill="white" stroke="black" points="0.5,-54.5 0.5,-73.5 137.5,-73.5 137.5,-54.5 0.5,-54.5"/>
<text text-anchor="middle" x="69" y="-61.5" font-family="Helvetica,sans-Serif" font-size="10.00">mom_regridding::regridding_main</text>
</a>
</g>
</g>
<!-- Node12&#45;&gt;Node13 -->
<g id="edge5" class="edge"><title>Node12&#45;&gt;Node13</title>
<path fill="none" stroke="midnightblue" d="M163.516,-64C155.064,-64 146.291,-64 137.657,-64"/>
<polygon fill="midnightblue" stroke="midnightblue" points="163.637,-67.5001 173.637,-64 163.637,-60.5001 163.637,-67.5001"/>
</g>
</g>
</svg>
