<?xml version="1.0" encoding="UTF-8" standalone="no"?>
<!DOCTYPE svg PUBLIC "-//W3C//DTD SVG 1.1//EN"
 "http://www.w3.org/Graphics/SVG/1.1/DTD/svg11.dtd">
<!-- Generated by graphviz version 2.30.1 (20170916.1124)
 -->
<!-- Title: mom_verticalgrid::get_flux_units Pages: 1 -->
<!--zoomable 536 -->
<svg id="main" version="1.1" xmlns="http://www.w3.org/2000/svg" xmlns:xlink="http://www.w3.org/1999/xlink" xml:space="preserve" onload="init(evt)">
<style type="text/css"><![CDATA[
.edge:hover path { stroke: red; }
.edge:hover polygon { stroke: red; fill: red; }
]]></style>
<script type="text/javascript"><![CDATA[
var edges = document.getElementsByTagName('g');
if (edges && edges.length) {
  for (var i=0;i<edges.length;i++) {
    if (edges[i].id.substr(0,4)=='edge') {
      edges[i].setAttribute('class','edge');
    }
  }
}
]]></script>
        <defs>
                <circle id="rim" cx="0" cy="0" r="7"/>
                <circle id="rim2" cx="0" cy="0" r="3.5"/>
                <g id="zoomPlus">
                        <use xlink:href="#rim" fill="#404040">
                                <set attributeName="fill" to="#808080" begin="zoomplus.mouseover" end="zoomplus.mouseout"/>
                        </use>
                        <path d="M-4,0h8M0,-4v8" fill="none" stroke="white" stroke-width="1.5" pointer-events="none"/>
                </g>
                <g id="zoomMin">
                        <use xlink:href="#rim" fill="#404040">
                                <set attributeName="fill" to="#808080" begin="zoomminus.mouseover" end="zoomminus.mouseout"/>
                        </use>
                        <path d="M-4,0h8" fill="none" stroke="white" stroke-width="1.5" pointer-events="none"/>
                </g>
                <g id="dirArrow">
                        <path fill="none" stroke="white" stroke-width="1.5" d="M0,-3.0v7 M-2.5,-0.5L0,-3.0L2.5,-0.5"/>
                </g>
               <g id="resetDef">
                       <use xlink:href="#rim2" fill="#404040">
                               <set attributeName="fill" to="#808080" begin="reset.mouseover" end="reset.mouseout"/>
                       </use>
               </g>
        </defs>

<script type="text/javascript">
var viewWidth = 456;
var viewHeight = 536;
var sectionId = 'dynsection-0';
</script>
<script xlink:href="svgpan.js"/>
<svg id="graph" class="graph">
<g id="viewport">
<title>mom_verticalgrid::get_flux_units</title>
<polygon fill="white" stroke="white" points="-4,5 -4,-532 453,-532 453,5 -4,5"/>
<!-- Node1 -->
<g id="node1" class="node"><title>Node1</title>
<g id="a_node1"><a xlink:title="Returns the model&#39;s thickness flux units, usually m^3/s or kg/s.">
<polygon fill="#bfbfbf" stroke="black" points="354.5,-248 354.5,-278 447.5,-278 447.5,-248 354.5,-248"/>
<text text-anchor="start" x="362.5" y="-266" font-family="Helvetica,sans-Serif" font-size="10.00">mom_verticalgrid::get</text>
<text text-anchor="middle" x="401" y="-255" font-family="Helvetica,sans-Serif" font-size="10.00">_flux_units</text>
</a>
</g>
</g>
<!-- Node2 -->
<g id="node2" class="node"><title>Node2</title>
<g id="a_node2"><a xlink:href="namespacemom__dynamics__legacy__split.html#aef55fe2e12672940edbd2dc5d7e72fd7" target="_top" xlink:title=" ">
<polygon fill="white" stroke="black" points="218.5,-486.5 218.5,-527.5 317.5,-527.5 317.5,-486.5 218.5,-486.5"/>
<text text-anchor="start" x="226.5" y="-515.5" font-family="Helvetica,sans-Serif" font-size="10.00">mom_dynamics_legacy</text>
<text text-anchor="start" x="226.5" y="-504.5" font-family="Helvetica,sans-Serif" font-size="10.00">_split::initialize_dyn</text>
<text text-anchor="middle" x="268" y="-493.5" font-family="Helvetica,sans-Serif" font-size="10.00">_legacy_split</text>
</a>
</g>
</g>
<!-- Node1&#45;&gt;Node2 -->
<g id="edge1" class="edge"><title>Node1&#45;&gt;Node2</title>
<path fill="none" stroke="midnightblue" d="M395.848,-288.059C387.644,-330.976 365.84,-419.467 318,-477 315.194,-480.375 311.905,-483.475 308.382,-486.297"/>
<polygon fill="midnightblue" stroke="midnightblue" points="399.299,-288.642 397.648,-278.177 392.412,-287.388 399.299,-288.642"/>
</g>
<!-- Node3 -->
<g id="node3" class="node"><title>Node3</title>
<g id="a_node3"><a xlink:href="namespacemom__dynamics__split__rk2.html#a3bae09afc9136333ab281704dc9d9415" target="_top" xlink:title="This subroutine initializes all of the variables that are used by this dynamic core,...">
<polygon fill="white" stroke="black" points="223,-426.5 223,-467.5 313,-467.5 313,-426.5 223,-426.5"/>
<text text-anchor="start" x="231" y="-455.5" font-family="Helvetica,sans-Serif" font-size="10.00">mom_dynamics_split</text>
<text text-anchor="start" x="231" y="-444.5" font-family="Helvetica,sans-Serif" font-size="10.00">_rk2::initialize_dyn</text>
<text text-anchor="middle" x="268" y="-433.5" font-family="Helvetica,sans-Serif" font-size="10.00">_split_rk2</text>
</a>
</g>
</g>
<!-- Node1&#45;&gt;Node3 -->
<g id="edge2" class="edge"><title>Node1&#45;&gt;Node3</title>
<path fill="none" stroke="midnightblue" d="M391.368,-287.632C379.068,-320.033 353.936,-377.376 318,-416 314.572,-419.685 310.613,-423.113 306.463,-426.244"/>
<polygon fill="midnightblue" stroke="midnightblue" points="394.728,-288.637 394.908,-278.044 388.161,-286.212 394.728,-288.637"/>
</g>
<!-- Node4 -->
<g id="node4" class="node"><title>Node4</title>
<g id="a_node4"><a xlink:href="namespacemom__dynamics__unsplit.html#ac557a7a55605cba7a17074f6375107f6" target="_top" xlink:title=" ">
<polygon fill="white" stroke="black" points="218.5,-377 218.5,-407 317.5,-407 317.5,-377 218.5,-377"/>
<text text-anchor="start" x="226.5" y="-395" font-family="Helvetica,sans-Serif" font-size="10.00">mom_dynamics_unsplit</text>
<text text-anchor="middle" x="268" y="-384" font-family="Helvetica,sans-Serif" font-size="10.00">::initialize_dyn_unsplit</text>
</a>
</g>
</g>
<!-- Node1&#45;&gt;Node4 -->
<g id="edge3" class="edge"><title>Node1&#45;&gt;Node4</title>
<path fill="none" stroke="midnightblue" d="M385.551,-286.831C370.795,-309.646 346.113,-343.917 318,-367 313.571,-370.636 308.527,-373.941 303.399,-376.871"/>
<polygon fill="midnightblue" stroke="midnightblue" points="388.678,-288.434 391.067,-278.112 382.763,-284.691 388.678,-288.434"/>
</g>
<!-- Node5 -->
<g id="node5" class="node"><title>Node5</title>
<g id="a_node5"><a xlink:href="namespacemom__dynamics__unsplit__rk2.html#a7be251effa3bf4a236ea3feda6fc6d91" target="_top" xlink:title=" ">
<polygon fill="white" stroke="black" points="218.5,-316.5 218.5,-357.5 317.5,-357.5 317.5,-316.5 218.5,-316.5"/>
<text text-anchor="start" x="226.5" y="-345.5" font-family="Helvetica,sans-Serif" font-size="10.00">mom_dynamics_unsplit</text>
<text text-anchor="start" x="226.5" y="-334.5" font-family="Helvetica,sans-Serif" font-size="10.00">_rk2::initialize_dyn</text>
<text text-anchor="middle" x="268" y="-323.5" font-family="Helvetica,sans-Serif" font-size="10.00">_unsplit_rk2</text>
</a>
</g>
</g>
<!-- Node1&#45;&gt;Node5 -->
<g id="edge4" class="edge"><title>Node1&#45;&gt;Node5</title>
<path fill="none" stroke="midnightblue" d="M364.078,-283.292C345.94,-293.538 323.971,-305.948 305.722,-316.256"/>
<polygon fill="midnightblue" stroke="midnightblue" points="366.189,-286.119 373.174,-278.154 362.746,-280.025 366.189,-286.119"/>
</g>
<!-- Node6 -->
<g id="node6" class="node"><title>Node6</title>
<g id="a_node6"><a xlink:href="namespacemom.html#a353e4f34478972f6c4115a9446e04c09" target="_top" xlink:title="Register the diagnostics.">
<polygon fill="white" stroke="black" points="223.5,-278.5 223.5,-297.5 312.5,-297.5 312.5,-278.5 223.5,-278.5"/>
<text text-anchor="middle" x="268" y="-285.5" font-family="Helvetica,sans-Serif" font-size="10.00">mom::register_diags</text>
</a>
</g>
</g>
<!-- Node1&#45;&gt;Node6 -->
<g id="edge5" class="edge"><title>Node1&#45;&gt;Node6</title>
<path fill="none" stroke="midnightblue" d="M344.248,-273.64C333.739,-275.645 322.888,-277.716 312.809,-279.64"/>
<polygon fill="midnightblue" stroke="midnightblue" points="345.016,-277.056 354.183,-271.744 343.704,-270.18 345.016,-277.056"/>
</g>
<!-- Node9 -->
<g id="node9" class="node"><title>Node9</title>
<g id="a_node9"><a xlink:href="namespacemom__dynamics__legacy__split.html#a6bbc5bdfa5c9906b19339c12dc971551" target="_top" xlink:title=" ">
<polygon fill="white" stroke="black" points="218.5,-218.5 218.5,-259.5 317.5,-259.5 317.5,-218.5 218.5,-218.5"/>
<text text-anchor="start" x="226.5" y="-247.5" font-family="Helvetica,sans-Serif" font-size="10.00">mom_dynamics_legacy</text>
<text text-anchor="start" x="226.5" y="-236.5" font-family="Helvetica,sans-Serif" font-size="10.00">_split::register_restarts</text>
<text text-anchor="middle" x="268" y="-225.5" font-family="Helvetica,sans-Serif" font-size="10.00">_dyn_legacy_split</text>
</a>
</g>
</g>
<!-- Node1&#45;&gt;Node9 -->
<g id="edge8" class="edge"><title>Node1&#45;&gt;Node9</title>
<path fill="none" stroke="midnightblue" d="M344.323,-252.8C335.467,-251.177 326.366,-249.51 317.686,-247.92"/>
<polygon fill="midnightblue" stroke="midnightblue" points="343.716,-256.247 354.183,-254.606 344.977,-249.361 343.716,-256.247"/>
</g>
<!-- Node10 -->
<g id="node10" class="node"><title>Node10</title>
<g id="a_node10"><a xlink:href="namespacemom__dynamics__split__rk2.html#a9f889b82fd5ed29a854da99d3c929366" target="_top" xlink:title="This subroutine sets up any auxiliary restart variables that are specific to the unsplit time steppin...">
<polygon fill="white" stroke="black" points="220.5,-158.5 220.5,-199.5 315.5,-199.5 315.5,-158.5 220.5,-158.5"/>
<text text-anchor="start" x="228.5" y="-187.5" font-family="Helvetica,sans-Serif" font-size="10.00">mom_dynamics_split</text>
<text text-anchor="start" x="228.5" y="-176.5" font-family="Helvetica,sans-Serif" font-size="10.00">_rk2::register_restarts</text>
<text text-anchor="middle" x="268" y="-165.5" font-family="Helvetica,sans-Serif" font-size="10.00">_dyn_split_rk2</text>
</a>
</g>
</g>
<!-- Node1&#45;&gt;Node10 -->
<g id="edge9" class="edge"><title>Node1&#45;&gt;Node10</title>
<path fill="none" stroke="midnightblue" d="M368.955,-242.209C353.685,-232.072 334.96,-219.772 318,-209 313.116,-205.898 307.931,-202.662 302.83,-199.512"/>
<polygon fill="midnightblue" stroke="midnightblue" points="367.243,-245.274 377.507,-247.9 371.121,-239.446 367.243,-245.274"/>
</g>
<!-- Node11 -->
<g id="node11" class="node"><title>Node11</title>
<g id="a_node11"><a xlink:href="namespacemom__dynamics__unsplit.html#a5a650785f745fd9cf42e1e014dd2d89a" target="_top" xlink:title=" ">
<polygon fill="white" stroke="black" points="218.5,-98.5 218.5,-139.5 317.5,-139.5 317.5,-98.5 218.5,-98.5"/>
<text text-anchor="start" x="226.5" y="-127.5" font-family="Helvetica,sans-Serif" font-size="10.00">mom_dynamics_unsplit</text>
<text text-anchor="start" x="226.5" y="-116.5" font-family="Helvetica,sans-Serif" font-size="10.00">::register_restarts_dyn</text>
<text text-anchor="middle" x="268" y="-105.5" font-family="Helvetica,sans-Serif" font-size="10.00">_unsplit</text>
</a>
</g>
</g>
<!-- Node1&#45;&gt;Node11 -->
<g id="edge10" class="edge"><title>Node1&#45;&gt;Node11</title>
<path fill="none" stroke="midnightblue" d="M386.732,-239.169C372.176,-214.514 346.992,-175.917 318,-149 314.418,-145.674 310.412,-142.523 306.276,-139.601"/>
<polygon fill="midnightblue" stroke="midnightblue" points="383.736,-240.981 391.775,-247.882 389.795,-237.474 383.736,-240.981"/>
</g>
<!-- Node12 -->
<g id="node12" class="node"><title>Node12</title>
<g id="a_node12"><a xlink:href="namespacemom__dynamics__unsplit__rk2.html#a6e670b5eaefad5b2f16b3e00c2788dfb" target="_top" xlink:title=" ">
<polygon fill="white" stroke="black" points="218.5,-38.5 218.5,-79.5 317.5,-79.5 317.5,-38.5 218.5,-38.5"/>
<text text-anchor="start" x="226.5" y="-67.5" font-family="Helvetica,sans-Serif" font-size="10.00">mom_dynamics_unsplit</text>
<text text-anchor="start" x="226.5" y="-56.5" font-family="Helvetica,sans-Serif" font-size="10.00">_rk2::register_restarts</text>
<text text-anchor="middle" x="268" y="-45.5" font-family="Helvetica,sans-Serif" font-size="10.00">_dyn_unsplit_rk2</text>
</a>
</g>
</g>
<!-- Node1&#45;&gt;Node12 -->
<g id="edge11" class="edge"><title>Node1&#45;&gt;Node12</title>
<path fill="none" stroke="midnightblue" d="M393.258,-238.06C382.422,-201.756 358.174,-133.809 318,-89 314.937,-85.5836 311.393,-82.4264 307.639,-79.5455"/>
<polygon fill="midnightblue" stroke="midnightblue" points="389.942,-239.196 396.077,-247.834 396.668,-237.256 389.942,-239.196"/>
</g>
<!-- Node13 -->
<g id="node13" class="node"><title>Node13</title>
<g id="a_node13"><a xlink:href="namespacemom.html#aab33a9c6ab1106414d95ecdd17da5a06" target="_top" xlink:title="Set the fields that are needed for bitwise identical restarting the time stepping scheme....">
<polygon fill="white" stroke="black" points="218,-0.5 218,-19.5 318,-19.5 318,-0.5 218,-0.5"/>
<text text-anchor="middle" x="268" y="-7.5" font-family="Helvetica,sans-Serif" font-size="10.00">mom::set_restart_fields</text>
</a>
</g>
</g>
<!-- Node1&#45;&gt;Node13 -->
<g id="edge12" class="edge"><title>Node1&#45;&gt;Node13</title>
<path fill="none" stroke="midnightblue" d="M397.972,-237.648C392.881,-190.428 375.505,-88.4256 318,-29 314.32,-25.1971 309.792,-22.142 304.99,-19.6913"/>
<polygon fill="midnightblue" stroke="midnightblue" points="394.518,-238.286 398.974,-247.898 401.484,-237.605 394.518,-238.286"/>
</g>
<!-- Node7 -->
<g id="node7" class="node"><title>Node7</title>
<g id="a_node7"><a xlink:href="namespacemom.html#a0be2869fef30e1e0604facfe1b41555d" target="_top" xlink:title="This subroutine initializes MOM.">
<polygon fill="white" stroke="black" points="92.5,-139.5 92.5,-158.5 181.5,-158.5 181.5,-139.5 92.5,-139.5"/>
<text text-anchor="middle" x="137" y="-146.5" font-family="Helvetica,sans-Serif" font-size="10.00">mom::initialize_mom</text>
</a>
</g>
</g>
<!-- Node6&#45;&gt;Node7 -->
<g id="edge6" class="edge"><title>Node6&#45;&gt;Node7</title>
<path fill="none" stroke="midnightblue" d="M225.192,-273.929C222.659,-272.433 220.235,-270.794 218,-269 178.556,-237.341 151.55,-180.929 141.912,-158.54"/>
<polygon fill="midnightblue" stroke="midnightblue" points="223.61,-277.052 234.108,-278.48 226.792,-270.817 223.61,-277.052"/>
</g>
<!-- Node8 -->
<g id="node8" class="node"><title>Node8</title>
<g id="a_node8"><a xlink:href="MOM__driver_8F90.html#a08fffeb2d8e8acbf9ed4609be6d258c6" target="_top" xlink:title=" ">
<polygon fill="white" stroke="black" points="0,-139.5 0,-158.5 56,-158.5 56,-139.5 0,-139.5"/>
<text text-anchor="middle" x="28" y="-146.5" font-family="Helvetica,sans-Serif" font-size="10.00">mom_main</text>
</a>
</g>
</g>
<!-- Node7&#45;&gt;Node8 -->
<g id="edge7" class="edge"><title>Node7&#45;&gt;Node8</title>
<path fill="none" stroke="midnightblue" d="M82.3096,-149C73.2562,-149 64.21,-149 56.2082,-149"/>
<polygon fill="midnightblue" stroke="midnightblue" points="82.479,-152.5 92.479,-149 82.479,-145.5 82.479,-152.5"/>
</g>
<!-- Node13&#45;&gt;Node7 -->
<g id="edge13" class="edge"><title>Node13&#45;&gt;Node7</title>
<path fill="none" stroke="midnightblue" d="M225.192,-24.0705C222.659,-25.5668 220.235,-27.2063 218,-29 178.556,-60.6593 151.55,-117.071 141.912,-139.46"/>
<polygon fill="midnightblue" stroke="midnightblue" points="226.792,-27.1834 234.108,-19.5199 223.61,-20.9485 226.792,-27.1834"/>
</g>
</g>
</svg>
        <g id="navigator" transform="translate(0 0)" fill="#404254">
                <rect fill="#f2f5e9" fill-opacity="0.5" stroke="#606060" stroke-width=".5" x="0" y="0" width="60" height="60"/>
                <use id="zoomplus" xlink:href="#zoomPlus" x="17" y="9" onmousedown="handleZoom(evt,'in')"/>
                <use id="zoomminus" xlink:href="#zoomMin" x="42" y="9" onmousedown="handleZoom(evt,'out')"/>
                <use id="reset" xlink:href="#resetDef" x="30" y="36" onmousedown="handleReset()"/>
                <g id="arrowUp" xlink:href="#dirArrow" transform="translate(30 24)" onmousedown="handlePan(0,-1)">
                  <use xlink:href="#rim" fill="#404040">
                        <set attributeName="fill" to="#808080" begin="arrowUp.mouseover" end="arrowUp.mouseout"/>
                  </use>
                  <path fill="none" stroke="white" stroke-width="1.5" d="M0,-3.0v7 M-2.5,-0.5L0,-3.0L2.5,-0.5"/>
                </g>
                <g id="arrowRight" xlink:href="#dirArrow" transform="rotate(90) translate(36 -43)" onmousedown="handlePan(1,0)">
                  <use xlink:href="#rim" fill="#404040">
                        <set attributeName="fill" to="#808080" begin="arrowRight.mouseover" end="arrowRight.mouseout"/>
                  </use>
                  <path fill="none" stroke="white" stroke-width="1.5" d="M0,-3.0v7 M-2.5,-0.5L0,-3.0L2.5,-0.5"/>
                </g>
                <g id="arrowDown" xlink:href="#dirArrow" transform="rotate(180) translate(-30 -48)" onmousedown="handlePan(0,1)">
                  <use xlink:href="#rim" fill="#404040">
                        <set attributeName="fill" to="#808080" begin="arrowDown.mouseover" end="arrowDown.mouseout"/>
                  </use>
                  <path fill="none" stroke="white" stroke-width="1.5" d="M0,-3.0v7 M-2.5,-0.5L0,-3.0L2.5,-0.5"/>
                </g>
                <g id="arrowLeft" xlink:href="#dirArrow" transform="rotate(270) translate(-36 17)" onmousedown="handlePan(-1,0)">
                  <use xlink:href="#rim" fill="#404040">
                        <set attributeName="fill" to="#808080" begin="arrowLeft.mouseover" end="arrowLeft.mouseout"/>
                  </use>
                  <path fill="none" stroke="white" stroke-width="1.5" d="M0,-3.0v7 M-2.5,-0.5L0,-3.0L2.5,-0.5"/>
                </g>
        </g>
        <svg viewBox="0 0 15 15" width="100%" height="30px" preserveAspectRatio="xMaxYMin meet">
         <g id="arrow_out" transform="scale(0.3 0.3)">
          <a xlink:href="namespacemom__verticalgrid_af027c312e660a932b3f430f4c7a9675d_icgraph_org.svg" target="_base">
           <rect id="button" ry="5" rx="5" y="6" x="6" height="38" width="38"
                fill="#f2f5e9" fill-opacity="0.5" stroke="#606060" stroke-width="1.0"/>
           <path id="arrow"
             d="M 11.500037,31.436501 C 11.940474,20.09759 22.043105,11.32322 32.158766,21.979434 L 37.068811,17.246167 C 37.068811,17.246167 37.088388,32 37.088388,32 L 22.160133,31.978069 C 22.160133,31.978069 26.997745,27.140456 26.997745,27.140456 C 18.528582,18.264221 13.291696,25.230495 11.500037,31.436501 z"
             style="fill:#404040;"/>
          </a>
         </g>
        </svg>
</svg>
