<?xml version="1.0" encoding="UTF-8" standalone="no"?>
<!DOCTYPE svg PUBLIC "-//W3C//DTD SVG 1.1//EN"
 "http://www.w3.org/Graphics/SVG/1.1/DTD/svg11.dtd">
<!-- Generated by graphviz version 2.30.1 (20170916.1124)
 -->
<!-- Title: mom_barotropic::barotropic_init Pages: 1 -->
<svg width="546pt" height="256pt"
 viewBox="0.00 0.00 546.00 256.00" xmlns="http://www.w3.org/2000/svg" xmlns:xlink="http://www.w3.org/1999/xlink">
<g id="graph0" class="graph" transform="scale(1 1) rotate(0) translate(4 252)">
<title>mom_barotropic::barotropic_init</title>
<polygon fill="white" stroke="white" points="-4,5 -4,-252 543,-252 543,5 -4,5"/>
<!-- Node13 -->
<g id="node1" class="node"><title>Node13</title>
<g id="a_node1"><a xlink:title=" ">
<polygon fill="#bfbfbf" stroke="black" points="0,-111.5 0,-130.5 130,-130.5 130,-111.5 0,-111.5"/>
<text text-anchor="middle" x="65" y="-118.5" font-family="Helvetica,sans-Serif" font-size="10.00">mom_barotropic::barotropic_init</text>
</a>
</g>
</g>
<!-- Node14 -->
<g id="node2" class="node"><title>Node14</title>
<g id="a_node2"><a xlink:href="namespacemom__variables.html#a26d7f4002ba856a1929f5a3962eb0e99" target="_top" xlink:title=" ">
<polygon fill="white" stroke="black" points="174.5,-169 174.5,-199 265.5,-199 265.5,-169 174.5,-169"/>
<text text-anchor="start" x="182.5" y="-187" font-family="Helvetica,sans-Serif" font-size="10.00">mom_variables::alloc</text>
<text text-anchor="middle" x="220" y="-176" font-family="Helvetica,sans-Serif" font-size="10.00">_bt_cont_type</text>
</a>
</g>
</g>
<!-- Node13&#45;&gt;Node14 -->
<g id="edge1" class="edge"><title>Node13&#45;&gt;Node14</title>
<path fill="none" stroke="midnightblue" d="M89.2374,-130.568C111.372,-139.683 145.317,-153.66 172.937,-165.033"/>
<polygon fill="midnightblue" stroke="midnightblue" points="171.834,-168.364 182.413,-168.935 174.499,-161.891 171.834,-168.364"/>
</g>
<!-- Node17 -->
<g id="node5" class="node"><title>Node17</title>
<g id="a_node5"><a xlink:href="namespacemom__barotropic.html#a67277af6e92e3a6824edbbcc85ff9308" target="_top" xlink:title=" ">
<polygon fill="white" stroke="black" points="170,-130.5 170,-149.5 270,-149.5 270,-130.5 170,-130.5"/>
<text text-anchor="middle" x="220" y="-137.5" font-family="Helvetica,sans-Serif" font-size="10.00">mom_barotropic::btcalc</text>
</a>
</g>
</g>
<!-- Node13&#45;&gt;Node17 -->
<g id="edge4" class="edge"><title>Node13&#45;&gt;Node17</title>
<path fill="none" stroke="midnightblue" d="M130.442,-129.003C140.262,-130.222 150.353,-131.475 160.047,-132.679"/>
<polygon fill="midnightblue" stroke="midnightblue" points="159.622,-136.153 169.977,-133.912 160.484,-129.206 159.622,-136.153"/>
</g>
<!-- Node18 -->
<g id="node6" class="node"><title>Node18</title>
<g id="a_node6"><a xlink:href="namespacemom__barotropic.html#a75ff2563aedd553f2799c1cfc320129e" target="_top" xlink:title=" ">
<polygon fill="white" stroke="black" points="313,-0 313,-30 405,-30 405,-0 313,-0"/>
<text text-anchor="start" x="321" y="-18" font-family="Helvetica,sans-Serif" font-size="10.00">mom_barotropic::find</text>
<text text-anchor="middle" x="359" y="-7" font-family="Helvetica,sans-Serif" font-size="10.00">_face_areas</text>
</a>
</g>
</g>
<!-- Node13&#45;&gt;Node18 -->
<g id="edge6" class="edge"><title>Node13&#45;&gt;Node18</title>
<path fill="none" stroke="midnightblue" d="M75.1713,-111.425C91.6449,-94.8736 128.079,-61.1416 166,-45 209.599,-26.4415 263.149,-19.2166 302.609,-16.4755"/>
<polygon fill="midnightblue" stroke="midnightblue" points="303.068,-19.9539 312.833,-15.8432 302.636,-12.9672 303.068,-19.9539"/>
</g>
<!-- Node15 -->
<g id="node3" class="node"><title>Node15</title>
<g id="a_node3"><a xlink:href="namespacemom__error__handler.html#a460cfb79a06c29fc249952c2a3710d67" target="_top" xlink:title=" ">
<polygon fill="white" stroke="black" points="312.5,-147 312.5,-177 405.5,-177 405.5,-147 312.5,-147"/>
<text text-anchor="start" x="320.5" y="-165" font-family="Helvetica,sans-Serif" font-size="10.00">mom_error_handler::</text>
<text text-anchor="middle" x="359" y="-154" font-family="Helvetica,sans-Serif" font-size="10.00">mom_error</text>
</a>
</g>
</g>
<!-- Node13&#45;&gt;Node15 -->
<g id="edge7" class="edge"><title>Node13&#45;&gt;Node15</title>
<path fill="none" stroke="midnightblue" d="M130.106,-113.612C171.665,-110.622 226.677,-110.067 274,-121 279.073,-122.172 300.173,-132.474 319.954,-142.457"/>
<polygon fill="midnightblue" stroke="midnightblue" points="318.385,-145.586 328.887,-146.987 321.552,-139.343 318.385,-145.586"/>
</g>
<!-- Node19 -->
<g id="node7" class="node"><title>Node19</title>
<g id="a_node7"><a xlink:href="namespacemom__error__handler.html#a1c462df7b61f1296407b4af51dfeceab" target="_top" xlink:title=" ">
<polygon fill="white" stroke="black" points="173.5,-218 173.5,-248 266.5,-248 266.5,-218 173.5,-218"/>
<text text-anchor="start" x="181.5" y="-236" font-family="Helvetica,sans-Serif" font-size="10.00">mom_error_handler::</text>
<text text-anchor="middle" x="220" y="-225" font-family="Helvetica,sans-Serif" font-size="10.00">mom_mesg</text>
</a>
</g>
</g>
<!-- Node13&#45;&gt;Node19 -->
<g id="edge8" class="edge"><title>Node13&#45;&gt;Node19</title>
<path fill="none" stroke="midnightblue" d="M75.2126,-130.6C92.0381,-147.753 129.389,-184.099 166,-208 168.726,-209.78 171.599,-211.505 174.539,-213.162"/>
<polygon fill="midnightblue" stroke="midnightblue" points="173.008,-216.312 183.482,-217.913 176.293,-210.13 173.008,-216.312"/>
</g>
<!-- Node20 -->
<g id="node8" class="node"><title>Node20</title>
<g id="a_node8"><a xlink:href="namespacemom__barotropic.html#a5bbc20372a46408b8e61cbc1fd49e8e0" target="_top" xlink:title=" ">
<polygon fill="white" stroke="black" points="166,-54.5 166,-73.5 274,-73.5 274,-54.5 166,-54.5"/>
<text text-anchor="middle" x="220" y="-61.5" font-family="Helvetica,sans-Serif" font-size="10.00">mom_barotropic::set_dtbt</text>
</a>
</g>
</g>
<!-- Node13&#45;&gt;Node20 -->
<g id="edge10" class="edge"><title>Node13&#45;&gt;Node20</title>
<path fill="none" stroke="midnightblue" d="M91.6088,-111.459C116.873,-102.047 155.69,-87.5862 183.837,-77.1001"/>
<polygon fill="midnightblue" stroke="midnightblue" points="185.159,-80.3426 193.308,-73.5716 182.715,-73.783 185.159,-80.3426"/>
</g>
<!-- Node14&#45;&gt;Node15 -->
<g id="edge2" class="edge"><title>Node14&#45;&gt;Node15</title>
<path fill="none" stroke="midnightblue" d="M265.859,-176.796C277.443,-174.936 290.054,-172.911 302.124,-170.973"/>
<polygon fill="midnightblue" stroke="midnightblue" points="302.783,-174.412 312.101,-169.371 301.673,-167.5 302.783,-174.412"/>
</g>
<!-- Node16 -->
<g id="node4" class="node"><title>Node16</title>
<g id="a_node4"><a xlink:href="namespacemom__error__handler.html#ad5f00a53059c72fe2332d1436c80ca71" target="_top" xlink:title=" ">
<polygon fill="white" stroke="black" points="444.5,-175 444.5,-205 537.5,-205 537.5,-175 444.5,-175"/>
<text text-anchor="start" x="452.5" y="-193" font-family="Helvetica,sans-Serif" font-size="10.00">mom_error_handler::</text>
<text text-anchor="middle" x="491" y="-182" font-family="Helvetica,sans-Serif" font-size="10.00">is_root_pe</text>
</a>
</g>
</g>
<!-- Node15&#45;&gt;Node16 -->
<g id="edge3" class="edge"><title>Node15&#45;&gt;Node16</title>
<path fill="none" stroke="midnightblue" d="M405.833,-171.872C415.056,-173.858 424.845,-175.967 434.361,-178.016"/>
<polygon fill="midnightblue" stroke="midnightblue" points="433.63,-181.439 444.143,-180.123 435.104,-174.596 433.63,-181.439"/>
</g>
<!-- Node17&#45;&gt;Node15 -->
<g id="edge5" class="edge"><title>Node17&#45;&gt;Node15</title>
<path fill="none" stroke="midnightblue" d="M270.073,-147.88C280.546,-149.562 291.68,-151.35 302.379,-153.068"/>
<polygon fill="midnightblue" stroke="midnightblue" points="302.039,-156.558 312.467,-154.688 303.149,-149.647 302.039,-156.558"/>
</g>
<!-- Node19&#45;&gt;Node16 -->
<g id="edge9" class="edge"><title>Node19&#45;&gt;Node16</title>
<path fill="none" stroke="midnightblue" d="M266.632,-225.706C312.91,-218.308 384.593,-206.849 434.217,-198.917"/>
<polygon fill="midnightblue" stroke="midnightblue" points="434.822,-202.365 444.144,-197.33 433.717,-195.453 434.822,-202.365"/>
</g>
<!-- Node20&#45;&gt;Node15 -->
<g id="edge11" class="edge"><title>Node20&#45;&gt;Node15</title>
<path fill="none" stroke="midnightblue" d="M249.223,-73.6047C257.713,-77.2998 266.703,-82.0846 274,-88 294.993,-105.017 289.483,-119.412 310,-137 311.739,-138.491 313.582,-139.924 315.493,-141.297"/>
<polygon fill="midnightblue" stroke="midnightblue" points="313.903,-144.437 324.201,-146.928 317.704,-138.559 313.903,-144.437"/>
</g>
<!-- Node21 -->
<g id="node9" class="node"><title>Node21</title>
<g id="a_node9"><a xlink:href="namespacemom__barotropic.html#a69af48d24759b679d0431f09dc9da503" target="_top" xlink:title=" ">
<polygon fill="white" stroke="black" points="313,-49 313,-79 405,-79 405,-49 313,-49"/>
<text text-anchor="start" x="321" y="-67" font-family="Helvetica,sans-Serif" font-size="10.00">mom_barotropic::bt</text>
<text text-anchor="middle" x="359" y="-56" font-family="Helvetica,sans-Serif" font-size="10.00">_cont_to_face_areas</text>
</a>
</g>
</g>
<!-- Node20&#45;&gt;Node21 -->
<g id="edge12" class="edge"><title>Node20&#45;&gt;Node21</title>
<path fill="none" stroke="midnightblue" d="M274.36,-64C283.74,-64 293.518,-64 302.943,-64"/>
<polygon fill="midnightblue" stroke="midnightblue" points="302.996,-67.5001 312.996,-64 302.996,-60.5001 302.996,-67.5001"/>
</g>
<!-- Node20&#45;&gt;Node18 -->
<g id="edge13" class="edge"><title>Node20&#45;&gt;Node18</title>
<path fill="none" stroke="midnightblue" d="M247.74,-54.436C264.403,-48.4762 286.397,-40.6097 306.356,-33.4713"/>
<polygon fill="midnightblue" stroke="midnightblue" points="307.721,-36.7003 315.958,-30.037 305.363,-30.1092 307.721,-36.7003"/>
</g>
<!-- Node22 -->
<g id="node10" class="node"><title>Node22</title>
<g id="a_node10"><a xlink:href="namespacemom__tidal__forcing.html#a0a1564c68489a35802c626a07f4629d7" target="_top" xlink:title=" ">
<polygon fill="white" stroke="black" points="310.5,-98 310.5,-128 407.5,-128 407.5,-98 310.5,-98"/>
<text text-anchor="start" x="318.5" y="-116" font-family="Helvetica,sans-Serif" font-size="10.00">mom_tidal_forcing::</text>
<text text-anchor="middle" x="359" y="-105" font-family="Helvetica,sans-Serif" font-size="10.00">tidal_forcing_sensitivity</text>
</a>
</g>
</g>
<!-- Node20&#45;&gt;Node22 -->
<g id="edge14" class="edge"><title>Node20&#45;&gt;Node22</title>
<path fill="none" stroke="midnightblue" d="M247.74,-73.564C264.403,-79.5238 286.397,-87.3903 306.356,-94.5287"/>
<polygon fill="midnightblue" stroke="midnightblue" points="305.363,-97.8908 315.958,-97.963 307.721,-91.2997 305.363,-97.8908"/>
</g>
</g>
</svg>
