<?xml version="1.0" encoding="UTF-8" standalone="no"?>
<!DOCTYPE svg PUBLIC "-//W3C//DTD SVG 1.1//EN"
 "http://www.w3.org/Graphics/SVG/1.1/DTD/svg11.dtd">
<!-- Generated by graphviz version 2.30.1 (20170916.1124)
 -->
<!-- Title: mom_tracer_hor_diff::tracer_hordiff Pages: 1 -->
<!--zoomable 422 -->
<svg id="main" version="1.1" xmlns="http://www.w3.org/2000/svg" xmlns:xlink="http://www.w3.org/1999/xlink" xml:space="preserve" onload="init(evt)">
<style type="text/css"><![CDATA[
.edge:hover path { stroke: red; }
.edge:hover polygon { stroke: red; fill: red; }
]]></style>
<script type="text/javascript"><![CDATA[
var edges = document.getElementsByTagName('g');
if (edges && edges.length) {
  for (var i=0;i<edges.length;i++) {
    if (edges[i].id.substr(0,4)=='edge') {
      edges[i].setAttribute('class','edge');
    }
  }
}
]]></script>
        <defs>
                <circle id="rim" cx="0" cy="0" r="7"/>
                <circle id="rim2" cx="0" cy="0" r="3.5"/>
                <g id="zoomPlus">
                        <use xlink:href="#rim" fill="#404040">
                                <set attributeName="fill" to="#808080" begin="zoomplus.mouseover" end="zoomplus.mouseout"/>
                        </use>
                        <path d="M-4,0h8M0,-4v8" fill="none" stroke="white" stroke-width="1.5" pointer-events="none"/>
                </g>
                <g id="zoomMin">
                        <use xlink:href="#rim" fill="#404040">
                                <set attributeName="fill" to="#808080" begin="zoomminus.mouseover" end="zoomminus.mouseout"/>
                        </use>
                        <path d="M-4,0h8" fill="none" stroke="white" stroke-width="1.5" pointer-events="none"/>
                </g>
                <g id="dirArrow">
                        <path fill="none" stroke="white" stroke-width="1.5" d="M0,-3.0v7 M-2.5,-0.5L0,-3.0L2.5,-0.5"/>
                </g>
               <g id="resetDef">
                       <use xlink:href="#rim2" fill="#404040">
                               <set attributeName="fill" to="#808080" begin="reset.mouseover" end="reset.mouseout"/>
                       </use>
               </g>
        </defs>

<script type="text/javascript">
var viewWidth = 786;
var viewHeight = 422;
var sectionId = 'dynsection-3';
</script>
<script xlink:href="svgpan.js"/>
<svg id="graph" class="graph">
<g id="viewport">
<title>mom_tracer_hor_diff::tracer_hordiff</title>
<polygon fill="white" stroke="white" points="-4,5 -4,-418 783,-418 783,5 -4,5"/>
<!-- Node23 -->
<g id="node1" class="node"><title>Node23</title>
<g id="a_node1"><a xlink:title="Compute along&#45;coordinate diffusion of all tracers using the diffusivity in CSKhTr,...">
<polygon fill="#bfbfbf" stroke="black" points="0,-236 0,-266 92,-266 92,-236 0,-236"/>
<text text-anchor="start" x="8" y="-254" font-family="Helvetica,sans-Serif" font-size="10.00">mom_tracer_hor_diff</text>
<text text-anchor="middle" x="46" y="-243" font-family="Helvetica,sans-Serif" font-size="10.00">::tracer_hordiff</text>
</a>
</g>
</g>
<!-- Node24 -->
<g id="node2" class="node"><title>Node24</title>
<g id="a_node2"><a xlink:href="namespacemom__error__handler.html#a9cda07a87815f0e5594066162b4345c3" target="_top" xlink:title="Writes a message about entering a subroutine if call tree reporting is active.">
<polygon fill="white" stroke="black" points="274.5,-384 274.5,-414 367.5,-414 367.5,-384 274.5,-384"/>
<text text-anchor="start" x="282.5" y="-402" font-family="Helvetica,sans-Serif" font-size="10.00">mom_error_handler::</text>
<text text-anchor="middle" x="321" y="-391" font-family="Helvetica,sans-Serif" font-size="10.00">calltree_enter</text>
</a>
</g>
</g>
<!-- Node23&#45;&gt;Node24 -->
<g id="edge1" class="edge"><title>Node23&#45;&gt;Node24</title>
<path fill="none" stroke="midnightblue" d="M54.3862,-266.058C66.4637,-289.023 92.6769,-332.499 128,-355 169.081,-381.168 223.882,-391.838 264.42,-396.155"/>
<polygon fill="midnightblue" stroke="midnightblue" points="264.111,-399.641 274.402,-397.121 264.786,-392.674 264.111,-399.641"/>
</g>
<!-- Node26 -->
<g id="node4" class="node"><title>Node26</title>
<g id="a_node4"><a xlink:href="namespacemom__error__handler.html#a88ea67781e2ed9b73ab7eac8ea5e8578" target="_top" xlink:title="Writes a message about leaving a subroutine if call tree reporting is active.">
<polygon fill="white" stroke="black" points="274.5,-335 274.5,-365 367.5,-365 367.5,-335 274.5,-335"/>
<text text-anchor="start" x="282.5" y="-353" font-family="Helvetica,sans-Serif" font-size="10.00">mom_error_handler::</text>
<text text-anchor="middle" x="321" y="-342" font-family="Helvetica,sans-Serif" font-size="10.00">calltree_leave</text>
</a>
</g>
</g>
<!-- Node23&#45;&gt;Node26 -->
<g id="edge3" class="edge"><title>Node23&#45;&gt;Node26</title>
<path fill="none" stroke="midnightblue" d="M57.5585,-266.303C71.3591,-284.927 97.4077,-315.66 128,-330 170.71,-350.021 224.494,-354.072 264.264,-353.663"/>
<polygon fill="midnightblue" stroke="midnightblue" points="264.387,-357.161 274.315,-353.462 264.247,-350.162 264.387,-357.161"/>
</g>
<!-- Node27 -->
<g id="node5" class="node"><title>Node27</title>
<g id="a_node5"><a xlink:href="namespacemom__error__handler.html#a34a02e601a60f03cb97a72fe25a32853" target="_top" xlink:title="Writes a message about reaching a milestone if call tree reporting is active.">
<polygon fill="white" stroke="black" points="135.5,-291 135.5,-321 228.5,-321 228.5,-291 135.5,-291"/>
<text text-anchor="start" x="143.5" y="-309" font-family="Helvetica,sans-Serif" font-size="10.00">mom_error_handler::</text>
<text text-anchor="middle" x="182" y="-298" font-family="Helvetica,sans-Serif" font-size="10.00">calltree_waypoint</text>
</a>
</g>
</g>
<!-- Node23&#45;&gt;Node27 -->
<g id="edge5" class="edge"><title>Node23&#45;&gt;Node27</title>
<path fill="none" stroke="midnightblue" d="M83.6161,-266.029C99.4216,-272.516 118.089,-280.178 134.83,-287.05"/>
<polygon fill="midnightblue" stroke="midnightblue" points="133.848,-290.43 144.428,-290.989 136.506,-283.954 133.848,-290.43"/>
</g>
<!-- Node28 -->
<g id="node6" class="node"><title>Node28</title>
<g id="a_node6"><a xlink:href="namespacemom__tracer__registry.html#ad350bb834bb3dcfd6e603bb136bd8098" target="_top" xlink:title="This subroutine writes out chksums for thermodynamic state variables.">
<polygon fill="white" stroke="black" points="134,-132 134,-162 230,-162 230,-132 134,-132"/>
<text text-anchor="start" x="142" y="-150" font-family="Helvetica,sans-Serif" font-size="10.00">mom_tracer_registry</text>
<text text-anchor="middle" x="182" y="-139" font-family="Helvetica,sans-Serif" font-size="10.00">::mom_tracer_chksum</text>
</a>
</g>
</g>
<!-- Node23&#45;&gt;Node28 -->
<g id="edge7" class="edge"><title>Node23&#45;&gt;Node28</title>
<path fill="none" stroke="midnightblue" d="M59.7919,-235.777C74.7932,-218.626 101.052,-190.707 128,-172 130.51,-170.258 133.16,-168.58 135.883,-166.976"/>
<polygon fill="midnightblue" stroke="midnightblue" points="137.663,-169.992 144.747,-162.114 134.296,-163.855 137.663,-169.992"/>
</g>
<!-- Node29 -->
<g id="node7" class="node"><title>Node29</title>
<g id="a_node7"><a xlink:href="namespacemom__neutral__diffusion.html#a0aa7d320b2d623791e7de7d879930a64" target="_top" xlink:title="Update tracer concentration due to neutral diffusion; layer thickness unchanged by this update.">
<polygon fill="white" stroke="black" points="133,-181 133,-211 231,-211 231,-181 133,-181"/>
<text text-anchor="start" x="141" y="-199" font-family="Helvetica,sans-Serif" font-size="10.00">mom_neutral_diffusion</text>
<text text-anchor="middle" x="182" y="-188" font-family="Helvetica,sans-Serif" font-size="10.00">::neutral_diffusion</text>
</a>
</g>
</g>
<!-- Node23&#45;&gt;Node29 -->
<g id="edge8" class="edge"><title>Node23&#45;&gt;Node29</title>
<path fill="none" stroke="midnightblue" d="M83.6161,-235.971C99.4216,-229.484 118.089,-221.822 134.83,-214.95"/>
<polygon fill="midnightblue" stroke="midnightblue" points="136.506,-218.046 144.428,-211.011 133.848,-211.57 136.506,-218.046"/>
</g>
<!-- Node38 -->
<g id="node16" class="node"><title>Node38</title>
<g id="a_node16"><a xlink:href="namespacemom__neutral__diffusion.html#a53d5e3f8d7610b60644aaa9f44fd854e" target="_top" xlink:title="Calculate remapping factors for u/v columns used to map adjoining columns to a shared coordinate spac...">
<polygon fill="white" stroke="black" points="133,-230.5 133,-271.5 231,-271.5 231,-230.5 133,-230.5"/>
<text text-anchor="start" x="141" y="-259.5" font-family="Helvetica,sans-Serif" font-size="10.00">mom_neutral_diffusion</text>
<text text-anchor="start" x="141" y="-248.5" font-family="Helvetica,sans-Serif" font-size="10.00">::neutral_diffusion_calc</text>
<text text-anchor="middle" x="182" y="-237.5" font-family="Helvetica,sans-Serif" font-size="10.00">_coeffs</text>
</a>
</g>
</g>
<!-- Node23&#45;&gt;Node38 -->
<g id="edge18" class="edge"><title>Node23&#45;&gt;Node38</title>
<path fill="none" stroke="midnightblue" d="M92.3663,-251C102.161,-251 112.646,-251 122.853,-251"/>
<polygon fill="midnightblue" stroke="midnightblue" points="122.931,-254.5 132.93,-251 122.93,-247.5 122.931,-254.5"/>
</g>
<!-- Node44 -->
<g id="node22" class="node"><title>Node44</title>
<g id="a_node22"><a xlink:href="namespacemom__tracer__hor__diff.html#a3c96ca84172a944f6d8b15e4204228bb" target="_top" xlink:title="This subroutine does epipycnal diffusion of all tracers between the mixed and buffer layers and the i...">
<polygon fill="white" stroke="black" points="128.5,-83 128.5,-113 235.5,-113 235.5,-83 128.5,-83"/>
<text text-anchor="start" x="136.5" y="-101" font-family="Helvetica,sans-Serif" font-size="10.00">mom_tracer_hor_diff</text>
<text text-anchor="middle" x="182" y="-90" font-family="Helvetica,sans-Serif" font-size="10.00">::tracer_epipycnal_ml_diff</text>
</a>
</g>
</g>
<!-- Node23&#45;&gt;Node44 -->
<g id="edge26" class="edge"><title>Node23&#45;&gt;Node44</title>
<path fill="none" stroke="midnightblue" d="M53.2669,-235.633C64.6337,-209.422 90.9507,-155.736 128,-123 129.734,-121.467 131.579,-120.01 133.501,-118.626"/>
<polygon fill="midnightblue" stroke="midnightblue" points="135.751,-121.343 142.316,-113.027 131.999,-115.434 135.751,-121.343"/>
</g>
<!-- Node25 -->
<g id="node3" class="node"><title>Node25</title>
<g id="a_node3"><a xlink:href="namespacemom__error__handler.html#ad5f00a53059c72fe2332d1436c80ca71" target="_top" xlink:title=" ">
<polygon fill="white" stroke="black" points="548.5,-311 548.5,-341 641.5,-341 641.5,-311 548.5,-311"/>
<text text-anchor="start" x="556.5" y="-329" font-family="Helvetica,sans-Serif" font-size="10.00">mom_error_handler::</text>
<text text-anchor="middle" x="595" y="-318" font-family="Helvetica,sans-Serif" font-size="10.00">is_root_pe</text>
</a>
</g>
</g>
<!-- Node24&#45;&gt;Node25 -->
<g id="edge2" class="edge"><title>Node24&#45;&gt;Node25</title>
<path fill="none" stroke="midnightblue" d="M367.773,-388.304C405.956,-379.203 461.722,-365.495 510,-352 519.275,-349.407 529.08,-346.514 538.59,-343.625"/>
<polygon fill="midnightblue" stroke="midnightblue" points="539.826,-346.907 548.36,-340.628 537.773,-340.214 539.826,-346.907"/>
</g>
<!-- Node26&#45;&gt;Node25 -->
<g id="edge4" class="edge"><title>Node26&#45;&gt;Node25</title>
<path fill="none" stroke="midnightblue" d="M367.527,-345.983C414.5,-341.838 487.827,-335.368 538.246,-330.919"/>
<polygon fill="midnightblue" stroke="midnightblue" points="538.671,-334.396 548.325,-330.03 538.056,-327.423 538.671,-334.396"/>
</g>
<!-- Node27&#45;&gt;Node25 -->
<g id="edge6" class="edge"><title>Node27&#45;&gt;Node25</title>
<path fill="none" stroke="midnightblue" d="M228.555,-308.217C304.317,-311.903 455.984,-319.284 538.098,-323.28"/>
<polygon fill="midnightblue" stroke="midnightblue" points="538.083,-326.783 548.241,-323.773 538.423,-319.791 538.083,-326.783"/>
</g>
<!-- Node30 -->
<g id="node8" class="node"><title>Node30</title>
<g id="a_node8"><a xlink:href="namespacemom__neutral__diffusion.html#a626e0189b03bbbf36c33cfa52e4f098d" target="_top" xlink:title="Returns a single column of neutral diffusion fluxes of a tracer.">
<polygon fill="white" stroke="black" points="272,-57 272,-87 370,-87 370,-57 272,-57"/>
<text text-anchor="start" x="280" y="-75" font-family="Helvetica,sans-Serif" font-size="10.00">mom_neutral_diffusion</text>
<text text-anchor="middle" x="321" y="-64" font-family="Helvetica,sans-Serif" font-size="10.00">::neutral_surface_flux</text>
</a>
</g>
</g>
<!-- Node29&#45;&gt;Node30 -->
<g id="edge9" class="edge"><title>Node29&#45;&gt;Node30</title>
<path fill="none" stroke="midnightblue" d="M221.631,-180.913C226.748,-178.039 231.702,-174.739 236,-171 258.041,-151.824 253.085,-138.266 272,-116 278.45,-108.407 286.147,-100.828 293.469,-94.1528"/>
<polygon fill="midnightblue" stroke="midnightblue" points="296.03,-96.5599 301.189,-87.3062 291.385,-91.3226 296.03,-96.5599"/>
</g>
<!-- Node31 -->
<g id="node9" class="node"><title>Node31</title>
<g id="a_node9"><a xlink:href="namespacemom__neutral__diffusion.html#afbc54a4e2f34af5d72c18dc96e354af7" target="_top" xlink:title="Returns interface scalar, Si, for a column of layer values, S.">
<polygon fill="white" stroke="black" points="409,-88 409,-118 507,-118 507,-88 409,-88"/>
<text text-anchor="start" x="417" y="-106" font-family="Helvetica,sans-Serif" font-size="10.00">mom_neutral_diffusion</text>
<text text-anchor="middle" x="458" y="-95" font-family="Helvetica,sans-Serif" font-size="10.00">::interface_scalar</text>
</a>
</g>
</g>
<!-- Node30&#45;&gt;Node31 -->
<g id="edge10" class="edge"><title>Node30&#45;&gt;Node31</title>
<path fill="none" stroke="midnightblue" d="M370.357,-83.1042C379.678,-85.2446 389.53,-87.507 399.118,-89.7086"/>
<polygon fill="midnightblue" stroke="midnightblue" points="398.451,-93.1465 408.981,-91.9734 400.018,-86.324 398.451,-93.1465"/>
</g>
<!-- Node37 -->
<g id="node15" class="node"><title>Node37</title>
<g id="a_node15"><a xlink:href="namespacemom__neutral__diffusion.html#a6931d9a07d09aa5d76d5abd2e47a54df" target="_top" xlink:title="Returns the average of a PPM reconstruction between two fractional positions.">
<polygon fill="white" stroke="black" points="409,-0 409,-30 507,-30 507,-0 409,-0"/>
<text text-anchor="start" x="417" y="-18" font-family="Helvetica,sans-Serif" font-size="10.00">mom_neutral_diffusion</text>
<text text-anchor="middle" x="458" y="-7" font-family="Helvetica,sans-Serif" font-size="10.00">::ppm_ave</text>
</a>
</g>
</g>
<!-- Node30&#45;&gt;Node37 -->
<g id="edge16" class="edge"><title>Node30&#45;&gt;Node37</title>
<path fill="none" stroke="midnightblue" d="M357.823,-56.8747C374.3,-49.9177 394.034,-41.5855 411.545,-34.1921"/>
<polygon fill="midnightblue" stroke="midnightblue" points="413.158,-37.3101 421.01,-30.196 410.436,-30.8614 413.158,-37.3101"/>
</g>
<!-- Node35 -->
<g id="node13" class="node"><title>Node35</title>
<g id="a_node13"><a xlink:href="namespacemom__neutral__diffusion.html#a118ace85483009d5b7a1841e3c745499" target="_top" xlink:title="A true signum function that returns either &#45;abs(a), when x&lt;0; or abs(a) when x&gt;0; or 0 when x=0.">
<polygon fill="white" stroke="black" points="680,-66 680,-96 778,-96 778,-66 680,-66"/>
<text text-anchor="start" x="688" y="-84" font-family="Helvetica,sans-Serif" font-size="10.00">mom_neutral_diffusion</text>
<text text-anchor="middle" x="729" y="-73" font-family="Helvetica,sans-Serif" font-size="10.00">::signum</text>
</a>
</g>
</g>
<!-- Node30&#45;&gt;Node35 -->
<g id="edge17" class="edge"><title>Node30&#45;&gt;Node35</title>
<path fill="none" stroke="midnightblue" d="M370.008,-73.0127C432.931,-74.347 546.731,-76.7848 644,-79 652.191,-79.1865 660.831,-79.3875 669.328,-79.5876"/>
<polygon fill="midnightblue" stroke="midnightblue" points="669.504,-83.0926 679.584,-79.8301 669.669,-76.0945 669.504,-83.0926"/>
</g>
<!-- Node32 -->
<g id="node10" class="node"><title>Node32</title>
<g id="a_node10"><a xlink:href="namespacemom__neutral__diffusion.html#ac211ae488cb6e3c6685df85d24ecd0dd" target="_top" xlink:title="Returns PLM slopes for a column where the slopes are the difference in value across each cell....">
<polygon fill="white" stroke="black" points="546,-137 546,-167 644,-167 644,-137 546,-137"/>
<text text-anchor="start" x="554" y="-155" font-family="Helvetica,sans-Serif" font-size="10.00">mom_neutral_diffusion</text>
<text text-anchor="middle" x="595" y="-144" font-family="Helvetica,sans-Serif" font-size="10.00">::plm_diff</text>
</a>
</g>
</g>
<!-- Node31&#45;&gt;Node32 -->
<g id="edge11" class="edge"><title>Node31&#45;&gt;Node32</title>
<path fill="none" stroke="midnightblue" d="M500.606,-118.101C513.951,-122.945 528.887,-128.366 542.834,-133.428"/>
<polygon fill="midnightblue" stroke="midnightblue" points="541.705,-136.742 552.299,-136.864 544.093,-130.162 541.705,-136.742"/>
</g>
<!-- Node36 -->
<g id="node14" class="node"><title>Node36</title>
<g id="a_node14"><a xlink:href="namespacemom__neutral__diffusion.html#a87d3d020b56a98f3f0c143701f76c86e" target="_top" xlink:title="Returns the PPM quasi&#45;fourth order edge value at k+1/2 following equation 1.6 in Colella &amp; Woodward,...">
<polygon fill="white" stroke="black" points="546,-88 546,-118 644,-118 644,-88 546,-88"/>
<text text-anchor="start" x="554" y="-106" font-family="Helvetica,sans-Serif" font-size="10.00">mom_neutral_diffusion</text>
<text text-anchor="middle" x="595" y="-95" font-family="Helvetica,sans-Serif" font-size="10.00">::ppm_edge</text>
</a>
</g>
</g>
<!-- Node31&#45;&gt;Node36 -->
<g id="edge15" class="edge"><title>Node31&#45;&gt;Node36</title>
<path fill="none" stroke="midnightblue" d="M507.357,-103C516.58,-103 526.323,-103 535.815,-103"/>
<polygon fill="midnightblue" stroke="midnightblue" points="535.981,-106.5 545.981,-103 535.981,-99.5001 535.981,-106.5"/>
</g>
<!-- Node33 -->
<g id="node11" class="node"><title>Node33</title>
<g id="a_node11"><a xlink:href="namespacemom__neutral__diffusion.html#a1c5ac28d7c54581cdd872fe58ef0b204" target="_top" xlink:title="Returns the cell&#45;centered second&#45;order finite volume (unlimited PLM) slope using three consecutive ce...">
<polygon fill="white" stroke="black" points="680,-175 680,-205 778,-205 778,-175 680,-175"/>
<text text-anchor="start" x="688" y="-193" font-family="Helvetica,sans-Serif" font-size="10.00">mom_neutral_diffusion</text>
<text text-anchor="middle" x="729" y="-182" font-family="Helvetica,sans-Serif" font-size="10.00">::fv_diff</text>
</a>
</g>
</g>
<!-- Node32&#45;&gt;Node33 -->
<g id="edge12" class="edge"><title>Node32&#45;&gt;Node33</title>
<path fill="none" stroke="midnightblue" d="M644.028,-165.826C652.491,-168.262 661.38,-170.821 670.078,-173.326"/>
<polygon fill="midnightblue" stroke="midnightblue" points="669.208,-176.717 679.786,-176.12 671.145,-169.99 669.208,-176.717"/>
</g>
<!-- Node34 -->
<g id="node12" class="node"><title>Node34</title>
<g id="a_node12"><a xlink:href="namespacemom__neutral__diffusion.html#a6ed3814088af470ad6fc4a3a80926fd7" target="_top" xlink:title="Returns the cell&#45;centered second&#45;order weighted least squares slope using three consecutive cell widt...">
<polygon fill="white" stroke="black" points="680,-126 680,-156 778,-156 778,-126 680,-126"/>
<text text-anchor="start" x="688" y="-144" font-family="Helvetica,sans-Serif" font-size="10.00">mom_neutral_diffusion</text>
<text text-anchor="middle" x="729" y="-133" font-family="Helvetica,sans-Serif" font-size="10.00">::fvlsq_slope</text>
</a>
</g>
</g>
<!-- Node32&#45;&gt;Node34 -->
<g id="edge13" class="edge"><title>Node32&#45;&gt;Node34</title>
<path fill="none" stroke="midnightblue" d="M644.028,-147.998C652.4,-147.3 661.188,-146.568 669.798,-145.85"/>
<polygon fill="midnightblue" stroke="midnightblue" points="670.111,-149.336 679.786,-145.018 669.53,-142.36 670.111,-149.336"/>
</g>
<!-- Node32&#45;&gt;Node35 -->
<g id="edge14" class="edge"><title>Node32&#45;&gt;Node35</title>
<path fill="none" stroke="midnightblue" d="M625.242,-136.893C631.447,-133.653 637.95,-130.232 644,-127 659.789,-118.566 677.153,-109.091 691.976,-100.942"/>
<polygon fill="midnightblue" stroke="midnightblue" points="693.769,-103.95 700.84,-96.0599 690.392,-97.8183 693.769,-103.95"/>
</g>
<!-- Node39 -->
<g id="node17" class="node"><title>Node39</title>
<g id="a_node17"><a xlink:href="namespacemom__eos.html#a204529f8434a0322314e6ce2a9762436" target="_top" xlink:title="Calls the appropriate subroutine to calculate density derivatives for 1&#45;D array inputs.">
<polygon fill="white" stroke="black" points="277.5,-247 277.5,-277 364.5,-277 364.5,-247 277.5,-247"/>
<text text-anchor="start" x="285.5" y="-265" font-family="Helvetica,sans-Serif" font-size="10.00">mom_eos::calculate</text>
<text text-anchor="middle" x="321" y="-254" font-family="Helvetica,sans-Serif" font-size="10.00">_density_derivs</text>
</a>
</g>
</g>
<!-- Node38&#45;&gt;Node39 -->
<g id="edge19" class="edge"><title>Node38&#45;&gt;Node39</title>
<path fill="none" stroke="midnightblue" d="M231.301,-254.878C242.86,-255.806 255.262,-256.802 267.02,-257.746"/>
<polygon fill="midnightblue" stroke="midnightblue" points="266.902,-261.248 277.15,-258.559 267.462,-254.27 266.902,-261.248"/>
</g>
<!-- Node41 -->
<g id="node19" class="node"><title>Node41</title>
<g id="a_node19"><a xlink:href="namespacemom__neutral__diffusion.html#aacce4f78e738a3c7530ae8940c144fb9" target="_top" xlink:title="Returns positions within left/right columns of combined interfaces.">
<polygon fill="white" stroke="black" points="272,-186.5 272,-227.5 370,-227.5 370,-186.5 272,-186.5"/>
<text text-anchor="start" x="280" y="-215.5" font-family="Helvetica,sans-Serif" font-size="10.00">mom_neutral_diffusion</text>
<text text-anchor="start" x="280" y="-204.5" font-family="Helvetica,sans-Serif" font-size="10.00">::find_neutral_surface</text>
<text text-anchor="middle" x="321" y="-193.5" font-family="Helvetica,sans-Serif" font-size="10.00">_positions</text>
</a>
</g>
</g>
<!-- Node38&#45;&gt;Node41 -->
<g id="edge22" class="edge"><title>Node38&#45;&gt;Node41</title>
<path fill="none" stroke="midnightblue" d="M231.301,-235.487C241.226,-232.3 251.771,-228.913 261.998,-225.629"/>
<polygon fill="midnightblue" stroke="midnightblue" points="263.223,-228.911 271.673,-222.521 261.082,-222.247 263.223,-228.911"/>
</g>
<!-- Node38&#45;&gt;Node31 -->
<g id="edge25" class="edge"><title>Node38&#45;&gt;Node31</title>
<path fill="none" stroke="midnightblue" d="M221.707,-230.495C226.703,-227.242 231.603,-223.715 236,-220 255.039,-203.914 251.818,-191.627 272,-177 310.311,-149.234 360.494,-130.014 398.927,-118.134"/>
<polygon fill="midnightblue" stroke="midnightblue" points="400.364,-121.357 408.932,-115.124 398.348,-114.653 400.364,-121.357"/>
</g>
<!-- Node40 -->
<g id="node18" class="node"><title>Node40</title>
<g id="a_node18"><a xlink:href="namespacemom__error__handler.html#a460cfb79a06c29fc249952c2a3710d67" target="_top" xlink:title=" ">
<polygon fill="white" stroke="black" points="411.5,-247 411.5,-277 504.5,-277 504.5,-247 411.5,-247"/>
<text text-anchor="start" x="419.5" y="-265" font-family="Helvetica,sans-Serif" font-size="10.00">mom_error_handler::</text>
<text text-anchor="middle" x="458" y="-254" font-family="Helvetica,sans-Serif" font-size="10.00">mom_error</text>
</a>
</g>
</g>
<!-- Node39&#45;&gt;Node40 -->
<g id="edge20" class="edge"><title>Node39&#45;&gt;Node40</title>
<path fill="none" stroke="midnightblue" d="M364.715,-262C376.302,-262 389.021,-262 401.213,-262"/>
<polygon fill="midnightblue" stroke="midnightblue" points="401.295,-265.5 411.295,-262 401.295,-258.5 401.295,-265.5"/>
</g>
<!-- Node40&#45;&gt;Node25 -->
<g id="edge21" class="edge"><title>Node40&#45;&gt;Node25</title>
<path fill="none" stroke="midnightblue" d="M490.652,-277.005C509.22,-285.808 532.888,-297.028 552.888,-306.51"/>
<polygon fill="midnightblue" stroke="midnightblue" points="551.544,-309.746 562.079,-310.867 554.542,-303.421 551.544,-309.746"/>
</g>
<!-- Node42 -->
<g id="node20" class="node"><title>Node42</title>
<g id="a_node20"><a xlink:href="namespacemom__neutral__diffusion.html#a6a30ebbb70dd95dade154d1253393952" target="_top" xlink:title="Converts non&#45;dimensional position within a layer to absolute position (for debugging)">
<polygon fill="white" stroke="black" points="409,-198 409,-228 507,-228 507,-198 409,-198"/>
<text text-anchor="start" x="417" y="-216" font-family="Helvetica,sans-Serif" font-size="10.00">mom_neutral_diffusion</text>
<text text-anchor="middle" x="458" y="-205" font-family="Helvetica,sans-Serif" font-size="10.00">::absolute_position</text>
</a>
</g>
</g>
<!-- Node41&#45;&gt;Node42 -->
<g id="edge23" class="edge"><title>Node41&#45;&gt;Node42</title>
<path fill="none" stroke="midnightblue" d="M370.357,-209.149C379.58,-209.559 389.323,-209.992 398.815,-210.414"/>
<polygon fill="midnightblue" stroke="midnightblue" points="398.835,-213.918 408.981,-210.866 399.146,-206.925 398.835,-213.918"/>
</g>
<!-- Node43 -->
<g id="node21" class="node"><title>Node43</title>
<g id="a_node21"><a xlink:href="namespacemom__neutral__diffusion.html#a666836e70bdae7ef4ec271246cf91993" target="_top" xlink:title="Returns the non&#45;dimensional position between Pneg and Ppos where the interpolated density difference ...">
<polygon fill="white" stroke="black" points="406,-137.5 406,-178.5 510,-178.5 510,-137.5 406,-137.5"/>
<text text-anchor="start" x="414" y="-166.5" font-family="Helvetica,sans-Serif" font-size="10.00">mom_neutral_diffusion</text>
<text text-anchor="start" x="414" y="-155.5" font-family="Helvetica,sans-Serif" font-size="10.00">::interpolate_for_nondim</text>
<text text-anchor="middle" x="458" y="-144.5" font-family="Helvetica,sans-Serif" font-size="10.00">_position</text>
</a>
</g>
</g>
<!-- Node41&#45;&gt;Node43 -->
<g id="edge24" class="edge"><title>Node41&#45;&gt;Node43</title>
<path fill="none" stroke="midnightblue" d="M370.357,-189.448C378.712,-186.416 387.494,-183.228 396.13,-180.093"/>
<polygon fill="midnightblue" stroke="midnightblue" points="397.582,-183.29 405.788,-176.588 395.194,-176.71 397.582,-183.29"/>
</g>
</g>
</svg>
        <g id="navigator" transform="translate(0 0)" fill="#404254">
                <rect fill="#f2f5e9" fill-opacity="0.5" stroke="#606060" stroke-width=".5" x="0" y="0" width="60" height="60"/>
                <use id="zoomplus" xlink:href="#zoomPlus" x="17" y="9" onmousedown="handleZoom(evt,'in')"/>
                <use id="zoomminus" xlink:href="#zoomMin" x="42" y="9" onmousedown="handleZoom(evt,'out')"/>
                <use id="reset" xlink:href="#resetDef" x="30" y="36" onmousedown="handleReset()"/>
                <g id="arrowUp" xlink:href="#dirArrow" transform="translate(30 24)" onmousedown="handlePan(0,-1)">
                  <use xlink:href="#rim" fill="#404040">
                        <set attributeName="fill" to="#808080" begin="arrowUp.mouseover" end="arrowUp.mouseout"/>
                  </use>
                  <path fill="none" stroke="white" stroke-width="1.5" d="M0,-3.0v7 M-2.5,-0.5L0,-3.0L2.5,-0.5"/>
                </g>
                <g id="arrowRight" xlink:href="#dirArrow" transform="rotate(90) translate(36 -43)" onmousedown="handlePan(1,0)">
                  <use xlink:href="#rim" fill="#404040">
                        <set attributeName="fill" to="#808080" begin="arrowRight.mouseover" end="arrowRight.mouseout"/>
                  </use>
                  <path fill="none" stroke="white" stroke-width="1.5" d="M0,-3.0v7 M-2.5,-0.5L0,-3.0L2.5,-0.5"/>
                </g>
                <g id="arrowDown" xlink:href="#dirArrow" transform="rotate(180) translate(-30 -48)" onmousedown="handlePan(0,1)">
                  <use xlink:href="#rim" fill="#404040">
                        <set attributeName="fill" to="#808080" begin="arrowDown.mouseover" end="arrowDown.mouseout"/>
                  </use>
                  <path fill="none" stroke="white" stroke-width="1.5" d="M0,-3.0v7 M-2.5,-0.5L0,-3.0L2.5,-0.5"/>
                </g>
                <g id="arrowLeft" xlink:href="#dirArrow" transform="rotate(270) translate(-36 17)" onmousedown="handlePan(-1,0)">
                  <use xlink:href="#rim" fill="#404040">
                        <set attributeName="fill" to="#808080" begin="arrowLeft.mouseover" end="arrowLeft.mouseout"/>
                  </use>
                  <path fill="none" stroke="white" stroke-width="1.5" d="M0,-3.0v7 M-2.5,-0.5L0,-3.0L2.5,-0.5"/>
                </g>
        </g>
        <svg viewBox="0 0 15 15" width="100%" height="30px" preserveAspectRatio="xMaxYMin meet">
         <g id="arrow_out" transform="scale(0.3 0.3)">
          <a xlink:href="namespacemom__tracer__hor__diff_a069e22612062290389c2630c7f90ede2_cgraph_org.svg" target="_base">
           <rect id="button" ry="5" rx="5" y="6" x="6" height="38" width="38"
                fill="#f2f5e9" fill-opacity="0.5" stroke="#606060" stroke-width="1.0"/>
           <path id="arrow"
             d="M 11.500037,31.436501 C 11.940474,20.09759 22.043105,11.32322 32.158766,21.979434 L 37.068811,17.246167 C 37.068811,17.246167 37.088388,32 37.088388,32 L 22.160133,31.978069 C 22.160133,31.978069 26.997745,27.140456 26.997745,27.140456 C 18.528582,18.264221 13.291696,25.230495 11.500037,31.436501 z"
             style="fill:#404040;"/>
          </a>
         </g>
        </svg>
</svg>
