<?xml version="1.0" encoding="UTF-8" standalone="no"?>
<!DOCTYPE svg PUBLIC "-//W3C//DTD SVG 1.1//EN"
 "http://www.w3.org/Graphics/SVG/1.1/DTD/svg11.dtd">
<!-- Generated by graphviz version 2.30.1 (20170916.1124)
 -->
<!-- Title: mom_forcing_type::calculatebuoyancyflux2d Pages: 1 -->
<svg width="828pt" height="126pt"
 viewBox="0.00 0.00 828.00 126.00" xmlns="http://www.w3.org/2000/svg" xmlns:xlink="http://www.w3.org/1999/xlink">
<g id="graph0" class="graph" transform="scale(1 1) rotate(0) translate(4 122)">
<title>mom_forcing_type::calculatebuoyancyflux2d</title>
<polygon fill="white" stroke="white" points="-4,5 -4,-122 825,-122 825,5 -4,5"/>
<!-- Node29 -->
<g id="node1" class="node"><title>Node29</title>
<g id="a_node1"><a xlink:title="Calculates surface buoyancy flux by adding up the heat, FW and salt fluxes, for 2d arrays....">
<polygon fill="#bfbfbf" stroke="black" points="0.5,-49.5 0.5,-68.5 173.5,-68.5 173.5,-49.5 0.5,-49.5"/>
<text text-anchor="middle" x="87" y="-56.5" font-family="Helvetica,sans-Serif" font-size="10.00">mom_forcing_type::calculatebuoyancyflux2d</text>
</a>
</g>
</g>
<!-- Node30 -->
<g id="node2" class="node"><title>Node30</title>
<g id="a_node2"><a xlink:href="namespacemom__forcing__type.html#a2bb917f3d8bcdcf4f5bf49c435992640" target="_top" xlink:title="This routine calculates surface buoyancy flux by adding up the heat, FW &amp; salt fluxes....">
<polygon fill="white" stroke="black" points="210.5,-49.5 210.5,-68.5 383.5,-68.5 383.5,-49.5 210.5,-49.5"/>
<text text-anchor="middle" x="297" y="-56.5" font-family="Helvetica,sans-Serif" font-size="10.00">mom_forcing_type::calculatebuoyancyflux1d</text>
</a>
</g>
</g>
<!-- Node29&#45;&gt;Node30 -->
<g id="edge1" class="edge"><title>Node29&#45;&gt;Node30</title>
<path fill="none" stroke="midnightblue" d="M173.502,-59C182.376,-59 191.435,-59 200.411,-59"/>
<polygon fill="midnightblue" stroke="midnightblue" points="200.494,-62.5001 210.494,-59 200.494,-55.5001 200.494,-62.5001"/>
</g>
<!-- Node31 -->
<g id="node3" class="node"><title>Node31</title>
<g id="a_node3"><a xlink:href="namespacemom__eos.html#a204529f8434a0322314e6ce2a9762436" target="_top" xlink:title="Calls the appropriate subroutine to calculate density derivatives for 1&#45;D array inputs.">
<polygon fill="white" stroke="black" points="446.5,-88 446.5,-118 533.5,-118 533.5,-88 446.5,-88"/>
<text text-anchor="start" x="454.5" y="-106" font-family="Helvetica,sans-Serif" font-size="10.00">mom_eos::calculate</text>
<text text-anchor="middle" x="490" y="-95" font-family="Helvetica,sans-Serif" font-size="10.00">_density_derivs</text>
</a>
</g>
</g>
<!-- Node30&#45;&gt;Node31 -->
<g id="edge2" class="edge"><title>Node30&#45;&gt;Node31</title>
<path fill="none" stroke="midnightblue" d="M339.444,-68.5473C367.833,-75.0872 405.725,-83.8162 436.264,-90.8513"/>
<polygon fill="midnightblue" stroke="midnightblue" points="435.784,-94.3324 446.314,-93.1666 437.355,-87.511 435.784,-94.3324"/>
</g>
<!-- Node34 -->
<g id="node6" class="node"><title>Node34</title>
<g id="a_node6"><a xlink:href="namespacemom__forcing__type.html#ab67e7c2e99099bcf22d12885f349e1e4" target="_top" xlink:title="This subroutine extracts fluxes from the surface fluxes type. It works on a j&#45;row for optimization pu...">
<polygon fill="white" stroke="black" points="420,-49.5 420,-68.5 560,-68.5 560,-49.5 420,-49.5"/>
<text text-anchor="middle" x="490" y="-56.5" font-family="Helvetica,sans-Serif" font-size="10.00">mom_forcing_type::extractfluxes1d</text>
</a>
</g>
</g>
<!-- Node30&#45;&gt;Node34 -->
<g id="edge5" class="edge"><title>Node30&#45;&gt;Node34</title>
<path fill="none" stroke="midnightblue" d="M383.723,-59C392.419,-59 401.224,-59 409.846,-59"/>
<polygon fill="midnightblue" stroke="midnightblue" points="409.866,-62.5001 419.866,-59 409.866,-55.5001 409.866,-62.5001"/>
</g>
<!-- Node35 -->
<g id="node7" class="node"><title>Node35</title>
<g id="a_node7"><a xlink:href="namespacemom__shortwave__abs.html#a8a1184c3f836d0900dfd5fa587cfb879" target="_top" xlink:title=" ">
<polygon fill="white" stroke="black" points="441,-0 441,-30 539,-30 539,-0 441,-0"/>
<text text-anchor="start" x="449" y="-18" font-family="Helvetica,sans-Serif" font-size="10.00">mom_shortwave_abs::</text>
<text text-anchor="middle" x="490" y="-7" font-family="Helvetica,sans-Serif" font-size="10.00">sumswoverbands</text>
</a>
</g>
</g>
<!-- Node30&#45;&gt;Node35 -->
<g id="edge7" class="edge"><title>Node30&#45;&gt;Node35</title>
<path fill="none" stroke="midnightblue" d="M339.444,-49.4527C366.256,-43.2761 401.544,-35.1469 431.109,-28.3362"/>
<polygon fill="midnightblue" stroke="midnightblue" points="431.936,-31.7374 440.895,-26.0818 430.365,-24.916 431.936,-31.7374"/>
</g>
<!-- Node32 -->
<g id="node4" class="node"><title>Node32</title>
<g id="a_node4"><a xlink:href="namespacemom__error__handler.html#a460cfb79a06c29fc249952c2a3710d67" target="_top" xlink:title=" ">
<polygon fill="white" stroke="black" points="596.5,-66 596.5,-96 689.5,-96 689.5,-66 596.5,-66"/>
<text text-anchor="start" x="604.5" y="-84" font-family="Helvetica,sans-Serif" font-size="10.00">mom_error_handler::</text>
<text text-anchor="middle" x="643" y="-73" font-family="Helvetica,sans-Serif" font-size="10.00">mom_error</text>
</a>
</g>
</g>
<!-- Node31&#45;&gt;Node32 -->
<g id="edge3" class="edge"><title>Node31&#45;&gt;Node32</title>
<path fill="none" stroke="midnightblue" d="M533.867,-96.7545C550.193,-94.3758 569.041,-91.6298 586.382,-89.1033"/>
<polygon fill="midnightblue" stroke="midnightblue" points="586.997,-92.5507 596.388,-87.6455 585.988,-85.6239 586.997,-92.5507"/>
</g>
<!-- Node33 -->
<g id="node5" class="node"><title>Node33</title>
<g id="a_node5"><a xlink:href="namespacemom__error__handler.html#ad5f00a53059c72fe2332d1436c80ca71" target="_top" xlink:title=" ">
<polygon fill="white" stroke="black" points="726.5,-66 726.5,-96 819.5,-96 819.5,-66 726.5,-66"/>
<text text-anchor="start" x="734.5" y="-84" font-family="Helvetica,sans-Serif" font-size="10.00">mom_error_handler::</text>
<text text-anchor="middle" x="773" y="-73" font-family="Helvetica,sans-Serif" font-size="10.00">is_root_pe</text>
</a>
</g>
</g>
<!-- Node32&#45;&gt;Node33 -->
<g id="edge4" class="edge"><title>Node32&#45;&gt;Node33</title>
<path fill="none" stroke="midnightblue" d="M689.849,-81C698.408,-81 707.439,-81 716.258,-81"/>
<polygon fill="midnightblue" stroke="midnightblue" points="716.471,-84.5001 726.471,-81 716.471,-77.5001 716.471,-84.5001"/>
</g>
<!-- Node34&#45;&gt;Node32 -->
<g id="edge6" class="edge"><title>Node34&#45;&gt;Node32</title>
<path fill="none" stroke="midnightblue" d="M556.353,-68.5216C566.291,-69.9695 576.468,-71.4523 586.179,-72.8671"/>
<polygon fill="midnightblue" stroke="midnightblue" points="585.699,-76.3341 596.099,-74.3125 586.708,-69.4072 585.699,-76.3341"/>
</g>
</g>
</svg>
