<?xml version="1.0" encoding="UTF-8" standalone="no"?>
<!DOCTYPE svg PUBLIC "-//W3C//DTD SVG 1.1//EN"
 "http://www.w3.org/Graphics/SVG/1.1/DTD/svg11.dtd">
<!-- Generated by graphviz version 2.30.1 (20170916.1124)
 -->
<!-- Title: mom_lateral_mixing_coeffs::calc_slope_functions_using_just_e Pages: 1 -->
<svg width="234pt" height="50pt"
 viewBox="0.00 0.00 234.00 50.00" xmlns="http://www.w3.org/2000/svg" xmlns:xlink="http://www.w3.org/1999/xlink">
<g id="graph0" class="graph" transform="scale(1 1) rotate(0) translate(4 46)">
<title>mom_lateral_mixing_coeffs::calc_slope_functions_using_just_e</title>
<polygon fill="white" stroke="white" points="-4,5 -4,-46 231,-46 231,5 -4,5"/>
<!-- Node48 -->
<g id="node1" class="node"><title>Node48</title>
<g id="a_node1"><a xlink:title="The original calc_slope_function() that calculated slopes using interface positions only,...">
<polygon fill="#bfbfbf" stroke="black" points="124.5,-0.5 124.5,-41.5 225.5,-41.5 225.5,-0.5 124.5,-0.5"/>
<text text-anchor="start" x="132.5" y="-29.5" font-family="Helvetica,sans-Serif" font-size="10.00">mom_lateral_mixing</text>
<text text-anchor="start" x="132.5" y="-18.5" font-family="Helvetica,sans-Serif" font-size="10.00">_coeffs::calc_slope</text>
<text text-anchor="middle" x="175" y="-7.5" font-family="Helvetica,sans-Serif" font-size="10.00">_functions_using_just_e</text>
</a>
</g>
</g>
<!-- Node49 -->
<g id="node2" class="node"><title>Node49</title>
<g id="a_node2"><a xlink:href="namespacemom__lateral__mixing__coeffs.html#a8abf768b636e96aafa9544287624523e" target="_top" xlink:title="Calculates and stores functions of isopycnal slopes, e.g. Sx, Sy, S*N, mostly used in the Visbeck et ...">
<polygon fill="white" stroke="black" points="0,-0.5 0,-41.5 88,-41.5 88,-0.5 0,-0.5"/>
<text text-anchor="start" x="8" y="-29.5" font-family="Helvetica,sans-Serif" font-size="10.00">mom_lateral_mixing</text>
<text text-anchor="start" x="8" y="-18.5" font-family="Helvetica,sans-Serif" font-size="10.00">_coeffs::calc_slope</text>
<text text-anchor="middle" x="44" y="-7.5" font-family="Helvetica,sans-Serif" font-size="10.00">_functions</text>
</a>
</g>
</g>
<!-- Node48&#45;&gt;Node49 -->
<g id="edge1" class="edge"><title>Node48&#45;&gt;Node49</title>
<path fill="none" stroke="midnightblue" d="M114.29,-21C105.517,-21 96.6255,-21 88.2691,-21"/>
<polygon fill="midnightblue" stroke="midnightblue" points="114.494,-24.5001 124.494,-21 114.494,-17.5001 114.494,-24.5001"/>
</g>
</g>
</svg>
