<?xml version="1.0" encoding="UTF-8" standalone="no"?>
<!DOCTYPE svg PUBLIC "-//W3C//DTD SVG 1.1//EN"
 "http://www.w3.org/Graphics/SVG/1.1/DTD/svg11.dtd">
<!-- Generated by graphviz version 2.30.1 (20170916.1124)
 -->
<!-- Title: mom_surface_forcing::buoyancy_forcing_zero Pages: 1 -->
<svg width="264pt" height="38pt"
 viewBox="0.00 0.00 264.00 38.00" xmlns="http://www.w3.org/2000/svg" xmlns:xlink="http://www.w3.org/1999/xlink">
<g id="graph0" class="graph" transform="scale(1 1) rotate(0) translate(4 34)">
<title>mom_surface_forcing::buoyancy_forcing_zero</title>
<polygon fill="white" stroke="white" points="-4,5 -4,-34 261,-34 261,5 -4,5"/>
<!-- Node41 -->
<g id="node1" class="node"><title>Node41</title>
<g id="a_node1"><a xlink:title=" ">
<polygon fill="#bfbfbf" stroke="black" points="0,-0 0,-30 104,-30 104,-0 0,-0"/>
<text text-anchor="start" x="8" y="-18" font-family="Helvetica,sans-Serif" font-size="10.00">mom_surface_forcing</text>
<text text-anchor="middle" x="52" y="-7" font-family="Helvetica,sans-Serif" font-size="10.00">::buoyancy_forcing_zero</text>
</a>
</g>
</g>
<!-- Node42 -->
<g id="node2" class="node"><title>Node42</title>
<g id="a_node2"><a xlink:href="namespacemom__surface__forcing.html#ac7bf83a9b318dd6317a17c1f7df73314" target="_top" xlink:title=" ">
<polygon fill="white" stroke="black" points="140.5,-0 140.5,-30 255.5,-30 255.5,-0 140.5,-0"/>
<text text-anchor="start" x="148.5" y="-18" font-family="Helvetica,sans-Serif" font-size="10.00">mom_surface_forcing</text>
<text text-anchor="middle" x="198" y="-7" font-family="Helvetica,sans-Serif" font-size="10.00">::buoyancy_forcing_allocate</text>
</a>
</g>
</g>
<!-- Node41&#45;&gt;Node42 -->
<g id="edge1" class="edge"><title>Node41&#45;&gt;Node42</title>
<path fill="none" stroke="midnightblue" d="M104.174,-15C112.541,-15 121.319,-15 129.999,-15"/>
<polygon fill="midnightblue" stroke="midnightblue" points="130.113,-18.5001 140.113,-15 130.113,-11.5001 130.113,-18.5001"/>
</g>
</g>
</svg>
