<?xml version="1.0" encoding="UTF-8" standalone="no"?>
<!DOCTYPE svg PUBLIC "-//W3C//DTD SVG 1.1//EN"
 "http://www.w3.org/Graphics/SVG/1.1/DTD/svg11.dtd">
<!-- Generated by graphviz version 2.30.1 (20170916.1124)
 -->
<!-- Title: mom_transcribe_grid::copy_mom_grid_to_dyngrid Pages: 1 -->
<svg width="410pt" height="87pt"
 viewBox="0.00 0.00 410.00 87.00" xmlns="http://www.w3.org/2000/svg" xmlns:xlink="http://www.w3.org/1999/xlink">
<g id="graph0" class="graph" transform="scale(1 1) rotate(0) translate(4 83)">
<title>mom_transcribe_grid::copy_mom_grid_to_dyngrid</title>
<polygon fill="white" stroke="white" points="-4,5 -4,-83 407,-83 407,5 -4,5"/>
<!-- Node10 -->
<g id="node1" class="node"><title>Node10</title>
<g id="a_node1"><a xlink:title="Copies information from an ocean_grid_type into a dynamic (shared) horizontal grid type.">
<polygon fill="#bfbfbf" stroke="black" points="0,-24 0,-54 120,-54 120,-24 0,-24"/>
<text text-anchor="start" x="8" y="-42" font-family="Helvetica,sans-Serif" font-size="10.00">mom_transcribe_grid</text>
<text text-anchor="middle" x="60" y="-31" font-family="Helvetica,sans-Serif" font-size="10.00">::copy_mom_grid_to_dyngrid</text>
</a>
</g>
</g>
<!-- Node11 -->
<g id="node2" class="node"><title>Node11</title>
<g id="a_node2"><a xlink:href="namespacemom__error__handler.html#a460cfb79a06c29fc249952c2a3710d67" target="_top" xlink:title=" ">
<polygon fill="white" stroke="black" points="158.5,-49 158.5,-79 251.5,-79 251.5,-49 158.5,-49"/>
<text text-anchor="start" x="166.5" y="-67" font-family="Helvetica,sans-Serif" font-size="10.00">mom_error_handler::</text>
<text text-anchor="middle" x="205" y="-56" font-family="Helvetica,sans-Serif" font-size="10.00">mom_error</text>
</a>
</g>
</g>
<!-- Node10&#45;&gt;Node11 -->
<g id="edge1" class="edge"><title>Node10&#45;&gt;Node11</title>
<path fill="none" stroke="midnightblue" d="M120.403,-49.3851C129.546,-50.9836 138.962,-52.6297 148.027,-54.2146"/>
<polygon fill="midnightblue" stroke="midnightblue" points="147.627,-57.6977 158.081,-55.9722 148.833,-50.8022 147.627,-57.6977"/>
</g>
<!-- Node13 -->
<g id="node4" class="node"><title>Node13</title>
<g id="a_node4"><a xlink:href="namespacemom__dyn__horgrid.html#aefa448039e24b26fe06f9251848b6aac" target="_top" xlink:title="set_derived_dyn_horgrid calculates metric terms that are derived from other metrics.">
<polygon fill="white" stroke="black" points="156.5,-0 156.5,-30 253.5,-30 253.5,-0 156.5,-0"/>
<text text-anchor="start" x="164.5" y="-18" font-family="Helvetica,sans-Serif" font-size="10.00">mom_dyn_horgrid::set</text>
<text text-anchor="middle" x="205" y="-7" font-family="Helvetica,sans-Serif" font-size="10.00">_derived_dyn_horgrid</text>
</a>
</g>
</g>
<!-- Node10&#45;&gt;Node13 -->
<g id="edge3" class="edge"><title>Node10&#45;&gt;Node13</title>
<path fill="none" stroke="midnightblue" d="M120.403,-29.0303C129.007,-27.5863 137.851,-26.1019 146.419,-24.664"/>
<polygon fill="midnightblue" stroke="midnightblue" points="147.035,-28.1096 156.318,-23.0026 145.876,-21.2061 147.035,-28.1096"/>
</g>
<!-- Node12 -->
<g id="node3" class="node"><title>Node12</title>
<g id="a_node3"><a xlink:href="namespacemom__error__handler.html#ad5f00a53059c72fe2332d1436c80ca71" target="_top" xlink:title=" ">
<polygon fill="white" stroke="black" points="299.5,-49 299.5,-79 392.5,-79 392.5,-49 299.5,-49"/>
<text text-anchor="start" x="307.5" y="-67" font-family="Helvetica,sans-Serif" font-size="10.00">mom_error_handler::</text>
<text text-anchor="middle" x="346" y="-56" font-family="Helvetica,sans-Serif" font-size="10.00">is_root_pe</text>
</a>
</g>
</g>
<!-- Node11&#45;&gt;Node12 -->
<g id="edge2" class="edge"><title>Node11&#45;&gt;Node12</title>
<path fill="none" stroke="midnightblue" d="M251.514,-64C263.514,-64 276.602,-64 289.081,-64"/>
<polygon fill="midnightblue" stroke="midnightblue" points="289.384,-67.5001 299.384,-64 289.384,-60.5001 289.384,-67.5001"/>
</g>
<!-- Node14 -->
<g id="node5" class="node"><title>Node14</title>
<g id="a_node5"><a xlink:href="namespacemom__dyn__horgrid.html#aa6579f50769698067defbc3c676e0191" target="_top" xlink:title="Adcroft_reciprocal(x) = 1/x for |x|&gt;0 or 0 for x=0.">
<polygon fill="white" stroke="black" points="290.5,-0 290.5,-30 401.5,-30 401.5,-0 290.5,-0"/>
<text text-anchor="start" x="298.5" y="-18" font-family="Helvetica,sans-Serif" font-size="10.00">mom_dyn_horgrid::adcroft</text>
<text text-anchor="middle" x="346" y="-7" font-family="Helvetica,sans-Serif" font-size="10.00">_reciprocal</text>
</a>
</g>
</g>
<!-- Node13&#45;&gt;Node14 -->
<g id="edge4" class="edge"><title>Node13&#45;&gt;Node14</title>
<path fill="none" stroke="midnightblue" d="M253.836,-15C262.395,-15 271.44,-15 280.378,-15"/>
<polygon fill="midnightblue" stroke="midnightblue" points="280.391,-18.5001 290.391,-15 280.391,-11.5001 280.391,-18.5001"/>
</g>
</g>
</svg>
