<?xml version="1.0" encoding="UTF-8" standalone="no"?>
<!DOCTYPE svg PUBLIC "-//W3C//DTD SVG 1.1//EN"
 "http://www.w3.org/Graphics/SVG/1.1/DTD/svg11.dtd">
<!-- Generated by graphviz version 2.30.1 (20170916.1124)
 -->
<!-- Title: mom_tracer_advect::advect_x Pages: 1 -->
<svg width="228pt" height="38pt"
 viewBox="0.00 0.00 228.00 38.00" xmlns="http://www.w3.org/2000/svg" xmlns:xlink="http://www.w3.org/1999/xlink">
<g id="graph0" class="graph" transform="scale(1 1) rotate(0) translate(4 34)">
<title>mom_tracer_advect::advect_x</title>
<polygon fill="white" stroke="white" points="-4,5 -4,-34 225,-34 225,5 -4,5"/>
<!-- Node8 -->
<g id="node1" class="node"><title>Node8</title>
<g id="a_node1"><a xlink:title="This subroutine does 1&#45;d flux&#45;form advection in the zonal direction using a monotonic piecewise linea...">
<polygon fill="#bfbfbf" stroke="black" points="128,-0 128,-30 220,-30 220,-0 128,-0"/>
<text text-anchor="start" x="136" y="-18" font-family="Helvetica,sans-Serif" font-size="10.00">mom_tracer_advect::</text>
<text text-anchor="middle" x="174" y="-7" font-family="Helvetica,sans-Serif" font-size="10.00">advect_x</text>
</a>
</g>
</g>
<!-- Node9 -->
<g id="node2" class="node"><title>Node9</title>
<g id="a_node2"><a xlink:href="namespacemom__tracer__advect.html#a4c97e84c1a3c433d0c2e84b57926bc08" target="_top" xlink:title="This routine time steps the tracer concentration using a monotonic, conservative, weakly diffusive sc...">
<polygon fill="white" stroke="black" points="0,-0 0,-30 92,-30 92,-0 0,-0"/>
<text text-anchor="start" x="8" y="-18" font-family="Helvetica,sans-Serif" font-size="10.00">mom_tracer_advect::</text>
<text text-anchor="middle" x="46" y="-7" font-family="Helvetica,sans-Serif" font-size="10.00">advect_tracer</text>
</a>
</g>
</g>
<!-- Node8&#45;&gt;Node9 -->
<g id="edge1" class="edge"><title>Node8&#45;&gt;Node9</title>
<path fill="none" stroke="midnightblue" d="M117.647,-15C109.156,-15 100.478,-15 92.2414,-15"/>
<polygon fill="midnightblue" stroke="midnightblue" points="117.867,-18.5001 127.867,-15 117.867,-11.5001 117.867,-18.5001"/>
</g>
</g>
</svg>
