<?xml version="1.0" encoding="UTF-8" standalone="no"?>
<!DOCTYPE svg PUBLIC "-//W3C//DTD SVG 1.1//EN"
 "http://www.w3.org/Graphics/SVG/1.1/DTD/svg11.dtd">
<!-- Generated by graphviz version 2.30.1 (20170916.1124)
 -->
<!-- Title: mom_dynamics_unsplit_rk2::initialize_dyn_unsplit_rk2 Pages: 1 -->
<svg width="1232pt" height="692pt"
 viewBox="0.00 0.00 1232.00 691.75" xmlns="http://www.w3.org/2000/svg" xmlns:xlink="http://www.w3.org/1999/xlink">
<g id="graph0" class="graph" transform="scale(1 1) rotate(0) translate(4 687.753)">
<title>mom_dynamics_unsplit_rk2::initialize_dyn_unsplit_rk2</title>
<polygon fill="white" stroke="white" points="-4,5 -4,-687.753 1229,-687.753 1229,5 -4,5"/>
<!-- Node2 -->
<g id="node1" class="node"><title>Node2</title>
<g id="a_node1"><a xlink:title=" ">
<polygon fill="#bfbfbf" stroke="black" points="0.5,-200.253 0.5,-241.253 99.5,-241.253 99.5,-200.253 0.5,-200.253"/>
<text text-anchor="start" x="8.5" y="-229.253" font-family="Helvetica,sans-Serif" font-size="10.00">mom_dynamics_unsplit</text>
<text text-anchor="start" x="8.5" y="-218.253" font-family="Helvetica,sans-Serif" font-size="10.00">_rk2::initialize_dyn</text>
<text text-anchor="middle" x="50" y="-207.253" font-family="Helvetica,sans-Serif" font-size="10.00">_unsplit_rk2</text>
</a>
</g>
</g>
<!-- Node3 -->
<g id="node2" class="node"><title>Node3</title>
<g id="a_node2"><a xlink:href="namespacemom__continuity.html#aa08c4a80c95080ec4649e366f5bd3ae8" target="_top" xlink:title="Initializes continuity_cs.">
<polygon fill="white" stroke="black" points="140,-460.253 140,-479.253 264,-479.253 264,-460.253 140,-460.253"/>
<text text-anchor="middle" x="202" y="-467.253" font-family="Helvetica,sans-Serif" font-size="10.00">mom_continuity::continuity_init</text>
</a>
</g>
</g>
<!-- Node2&#45;&gt;Node3 -->
<g id="edge1" class="edge"><title>Node2&#45;&gt;Node3</title>
<path fill="none" stroke="midnightblue" d="M56.5468,-241.47C67.3076,-278.99 93.7423,-359.505 136,-415.753 147.421,-430.955 163.939,-444.606 177.465,-454.379"/>
<polygon fill="midnightblue" stroke="midnightblue" points="175.633,-457.369 185.838,-460.219 179.638,-451.627 175.633,-457.369"/>
</g>
<!-- Node8 -->
<g id="node7" class="node"><title>Node8</title>
<g id="a_node7"><a xlink:href="namespacemom__coriolisadv.html#ad3ce07f23ce7b484a5a9e0c0abe8b1cd" target="_top" xlink:title="Initializes the control structure for coriolisadv_cs.">
<polygon fill="white" stroke="black" points="136.5,-387.253 136.5,-406.253 267.5,-406.253 267.5,-387.253 136.5,-387.253"/>
<text text-anchor="middle" x="202" y="-394.253" font-family="Helvetica,sans-Serif" font-size="10.00">mom_coriolisadv::coriolisadv_init</text>
</a>
</g>
</g>
<!-- Node2&#45;&gt;Node8 -->
<g id="edge7" class="edge"><title>Node2&#45;&gt;Node8</title>
<path fill="none" stroke="midnightblue" d="M68.5005,-241.287C98.2963,-276.247 158.351,-346.711 186.198,-379.385"/>
<polygon fill="midnightblue" stroke="midnightblue" points="183.697,-381.846 192.847,-387.187 189.024,-377.306 183.697,-381.846"/>
</g>
<!-- Node21 -->
<g id="node20" class="node"><title>Node21</title>
<g id="a_node20"><a xlink:href="namespacemom__verticalgrid.html#af027c312e660a932b3f430f4c7a9675d" target="_top" xlink:title="Returns the model&#39;s thickness flux units, usually m^3/s or kg/s.">
<polygon fill="white" stroke="black" points="155.5,-249.753 155.5,-279.753 248.5,-279.753 248.5,-249.753 155.5,-249.753"/>
<text text-anchor="start" x="163.5" y="-267.753" font-family="Helvetica,sans-Serif" font-size="10.00">mom_verticalgrid::get</text>
<text text-anchor="middle" x="202" y="-256.753" font-family="Helvetica,sans-Serif" font-size="10.00">_flux_units</text>
</a>
</g>
</g>
<!-- Node2&#45;&gt;Node21 -->
<g id="edge27" class="edge"><title>Node2&#45;&gt;Node21</title>
<path fill="none" stroke="midnightblue" d="M99.7007,-235.038C114.367,-239.341 130.57,-244.093 145.635,-248.513"/>
<polygon fill="midnightblue" stroke="midnightblue" points="144.763,-251.904 155.343,-251.36 146.733,-245.187 144.763,-251.904"/>
</g>
<!-- Node22 -->
<g id="node21" class="node"><title>Node22</title>
<g id="a_node21"><a xlink:href="namespacemom__hor__visc.html#a15121289da182e9ecb4561f10de335a5" target="_top" xlink:title=" ">
<polygon fill="white" stroke="black" points="436,-123.253 436,-142.253 552,-142.253 552,-123.253 436,-123.253"/>
<text text-anchor="middle" x="494" y="-130.253" font-family="Helvetica,sans-Serif" font-size="10.00">mom_hor_visc::hor_visc_init</text>
</a>
</g>
</g>
<!-- Node2&#45;&gt;Node22 -->
<g id="edge28" class="edge"><title>Node2&#45;&gt;Node22</title>
<path fill="none" stroke="midnightblue" d="M99.9359,-201.098C111.618,-196.912 124.141,-192.832 136,-189.753 235.158,-164.009 352.999,-147.921 425.39,-139.642"/>
<polygon fill="midnightblue" stroke="midnightblue" points="426.188,-143.074 435.733,-138.477 425.404,-136.118 426.188,-143.074"/>
</g>
<!-- Node23 -->
<g id="node22" class="node"><title>Node23</title>
<g id="a_node22"><a xlink:href="namespacemom__pressureforce.html#ab0d856d60f21ad22c3c99f65af8daa92" target="_top" xlink:title="Initialize the pressure force control structure.">
<polygon fill="white" stroke="black" points="721.5,-48.7529 721.5,-78.7529 814.5,-78.7529 814.5,-48.7529 721.5,-48.7529"/>
<text text-anchor="start" x="729.5" y="-66.7529" font-family="Helvetica,sans-Serif" font-size="10.00">mom_pressureforce::</text>
<text text-anchor="middle" x="768" y="-55.7529" font-family="Helvetica,sans-Serif" font-size="10.00">pressureforce_init</text>
</a>
</g>
</g>
<!-- Node2&#45;&gt;Node23 -->
<g id="edge30" class="edge"><title>Node2&#45;&gt;Node23</title>
<path fill="none" stroke="midnightblue" d="M74.5034,-200.246C90.8302,-186.877 113.598,-169.905 136,-158.753 225.366,-114.266 251.173,-93.7529 351,-93.7529 351,-93.7529 351,-93.7529 495,-93.7529 570.205,-93.7529 656.405,-82.2821 711.248,-73.5266"/>
<polygon fill="midnightblue" stroke="midnightblue" points="712.139,-76.9278 721.449,-71.8713 711.018,-70.0182 712.139,-76.9278"/>
</g>
<!-- Node26 -->
<g id="node25" class="node"><title>Node26</title>
<g id="a_node25"><a xlink:href="namespacemom__tidal__forcing.html#aee336a2affeebc78b75845bc6f78a320" target="_top" xlink:title=" ">
<polygon fill="white" stroke="black" points="725,-205.753 725,-235.753 811,-235.753 811,-205.753 725,-205.753"/>
<text text-anchor="start" x="733" y="-223.753" font-family="Helvetica,sans-Serif" font-size="10.00">mom_tidal_forcing::</text>
<text text-anchor="middle" x="768" y="-212.753" font-family="Helvetica,sans-Serif" font-size="10.00">tidal_forcing_init</text>
</a>
</g>
</g>
<!-- Node2&#45;&gt;Node26 -->
<g id="edge36" class="edge"><title>Node2&#45;&gt;Node26</title>
<path fill="none" stroke="midnightblue" d="M99.583,-220.753C158.914,-220.753 262.328,-220.753 351,-220.753 351,-220.753 351,-220.753 495,-220.753 571.304,-220.753 659.65,-220.753 714.435,-220.753"/>
<polygon fill="midnightblue" stroke="midnightblue" points="714.598,-224.253 724.598,-220.753 714.597,-217.253 714.598,-224.253"/>
</g>
<!-- Node28 -->
<g id="node27" class="node"><title>Node28</title>
<g id="a_node27"><a xlink:href="namespacemom__vert__friction.html#a02be81324ab60dcbcf3c1ecf3aa0da17" target="_top" xlink:title="Initialise the vertical friction module.">
<polygon fill="white" stroke="black" points="451.5,-161.753 451.5,-191.753 536.5,-191.753 536.5,-161.753 451.5,-161.753"/>
<text text-anchor="start" x="459.5" y="-179.753" font-family="Helvetica,sans-Serif" font-size="10.00">mom_vert_friction::</text>
<text text-anchor="middle" x="494" y="-168.753" font-family="Helvetica,sans-Serif" font-size="10.00">vertvisc_init</text>
</a>
</g>
</g>
<!-- Node2&#45;&gt;Node28 -->
<g id="edge40" class="edge"><title>Node2&#45;&gt;Node28</title>
<path fill="none" stroke="midnightblue" d="M99.897,-212.018C111.692,-210.099 124.275,-208.209 136,-206.753 244.173,-193.321 371.549,-184.22 441.14,-179.815"/>
<polygon fill="midnightblue" stroke="midnightblue" points="441.628,-183.291 451.39,-179.174 441.191,-176.305 441.628,-183.291"/>
</g>
<!-- Node4 -->
<g id="node3" class="node"><title>Node4</title>
<g id="a_node3"><a xlink:href="namespacemom__error__handler.html#a460cfb79a06c29fc249952c2a3710d67" target="_top" xlink:title=" ">
<polygon fill="white" stroke="black" points="1000.5,-221.753 1000.5,-251.753 1093.5,-251.753 1093.5,-221.753 1000.5,-221.753"/>
<text text-anchor="start" x="1008.5" y="-239.753" font-family="Helvetica,sans-Serif" font-size="10.00">mom_error_handler::</text>
<text text-anchor="middle" x="1047" y="-228.753" font-family="Helvetica,sans-Serif" font-size="10.00">mom_error</text>
</a>
</g>
</g>
<!-- Node3&#45;&gt;Node4 -->
<g id="edge2" class="edge"><title>Node3&#45;&gt;Node4</title>
<path fill="none" stroke="midnightblue" d="M209.258,-479.504C236.973,-521.369 353.466,-683.753 493,-683.753 493,-683.753 493,-683.753 637,-683.753 815.196,-683.753 863.973,-599.226 964,-451.753 1005.88,-390.013 1030.29,-303.941 1040.44,-261.889"/>
<polygon fill="midnightblue" stroke="midnightblue" points="1043.89,-262.488 1042.76,-251.953 1037.08,-260.891 1043.89,-262.488"/>
</g>
<!-- Node6 -->
<g id="node5" class="node"><title>Node6</title>
<g id="a_node5"><a xlink:href="namespacemom__error__handler.html#a1c462df7b61f1296407b4af51dfeceab" target="_top" xlink:title=" ">
<polygon fill="white" stroke="black" points="305.5,-430.753 305.5,-460.753 398.5,-460.753 398.5,-430.753 305.5,-430.753"/>
<text text-anchor="start" x="313.5" y="-448.753" font-family="Helvetica,sans-Serif" font-size="10.00">mom_error_handler::</text>
<text text-anchor="middle" x="352" y="-437.753" font-family="Helvetica,sans-Serif" font-size="10.00">mom_mesg</text>
</a>
</g>
</g>
<!-- Node3&#45;&gt;Node6 -->
<g id="edge4" class="edge"><title>Node3&#45;&gt;Node6</title>
<path fill="none" stroke="midnightblue" d="M261.919,-460.198C272.792,-458.435 284.12,-456.598 294.907,-454.849"/>
<polygon fill="midnightblue" stroke="midnightblue" points="295.74,-458.26 305.051,-453.204 294.62,-451.35 295.74,-458.26"/>
</g>
<!-- Node7 -->
<g id="node6" class="node"><title>Node7</title>
<g id="a_node6"><a xlink:href="namespacemom__string__functions.html#aca148baf726de2f028b7e7baad3c85d4" target="_top" xlink:title=" ">
<polygon fill="white" stroke="black" points="304.5,-479.753 304.5,-509.753 399.5,-509.753 399.5,-479.753 304.5,-479.753"/>
<text text-anchor="start" x="312.5" y="-497.753" font-family="Helvetica,sans-Serif" font-size="10.00">mom_string_functions</text>
<text text-anchor="middle" x="352" y="-486.753" font-family="Helvetica,sans-Serif" font-size="10.00">::uppercase</text>
</a>
</g>
</g>
<!-- Node3&#45;&gt;Node7 -->
<g id="edge6" class="edge"><title>Node3&#45;&gt;Node7</title>
<path fill="none" stroke="midnightblue" d="M259.375,-479.276C270.874,-481.218 282.976,-483.262 294.48,-485.206"/>
<polygon fill="midnightblue" stroke="midnightblue" points="293.962,-488.668 304.405,-486.882 295.128,-481.765 293.962,-488.668"/>
</g>
<!-- Node5 -->
<g id="node4" class="node"><title>Node5</title>
<g id="a_node4"><a xlink:href="namespacemom__error__handler.html#ad5f00a53059c72fe2332d1436c80ca71" target="_top" xlink:title=" ">
<polygon fill="white" stroke="black" points="1130.5,-592.753 1130.5,-622.753 1223.5,-622.753 1223.5,-592.753 1130.5,-592.753"/>
<text text-anchor="start" x="1138.5" y="-610.753" font-family="Helvetica,sans-Serif" font-size="10.00">mom_error_handler::</text>
<text text-anchor="middle" x="1177" y="-599.753" font-family="Helvetica,sans-Serif" font-size="10.00">is_root_pe</text>
</a>
</g>
</g>
<!-- Node4&#45;&gt;Node5 -->
<g id="edge3" class="edge"><title>Node4&#45;&gt;Node5</title>
<path fill="none" stroke="midnightblue" d="M1053.18,-251.756C1072.84,-308.737 1142.99,-512.09 1167.49,-583.082"/>
<polygon fill="midnightblue" stroke="midnightblue" points="1164.19,-584.251 1170.76,-592.563 1170.81,-581.968 1164.19,-584.251"/>
</g>
<!-- Node6&#45;&gt;Node5 -->
<g id="edge5" class="edge"><title>Node6&#45;&gt;Node5</title>
<path fill="none" stroke="midnightblue" d="M384.243,-460.794C389.584,-463.623 395.015,-466.666 400,-469.753 488.35,-524.456 491.162,-571.064 588,-608.753 771.858,-680.31 1013.24,-643.254 1120.5,-620.795"/>
<polygon fill="midnightblue" stroke="midnightblue" points="1121.4,-624.181 1130.45,-618.672 1119.94,-617.335 1121.4,-624.181"/>
</g>
<!-- Node8&#45;&gt;Node4 -->
<g id="edge8" class="edge"><title>Node8&#45;&gt;Node4</title>
<path fill="none" stroke="midnightblue" d="M218.69,-387.164C261.189,-362.135 382.759,-296.753 493,-296.753 493,-296.753 493,-296.753 769,-296.753 848.84,-296.753 938.75,-272.649 993.891,-254.997"/>
<polygon fill="midnightblue" stroke="midnightblue" points="995.01,-258.313 1003.44,-251.893 992.845,-251.656 995.01,-258.313"/>
</g>
<!-- Node8&#45;&gt;Node6 -->
<g id="edge9" class="edge"><title>Node8&#45;&gt;Node6</title>
<path fill="none" stroke="midnightblue" d="M231.887,-406.317C250.052,-412.331 274.081,-420.286 295.797,-427.476"/>
<polygon fill="midnightblue" stroke="midnightblue" points="294.989,-430.895 305.582,-430.716 297.189,-424.25 294.989,-430.895"/>
</g>
<!-- Node9 -->
<g id="node8" class="node"><title>Node9</title>
<g id="a_node8"><a xlink:href="namespacemom__diag__mediator.html#aa791f75f899ae9b7cd4756165a9c2a1b" target="_top" xlink:title="Returns the &quot;diag_mediator&quot; handle for a group (native, CMOR, z&#45;coord, ...) of diagnostics derived fr...">
<polygon fill="white" stroke="black" points="304.5,-381.753 304.5,-411.753 399.5,-411.753 399.5,-381.753 304.5,-381.753"/>
<text text-anchor="start" x="312.5" y="-399.753" font-family="Helvetica,sans-Serif" font-size="10.00">mom_diag_mediator::</text>
<text text-anchor="middle" x="352" y="-388.753" font-family="Helvetica,sans-Serif" font-size="10.00">register_diag_field</text>
</a>
</g>
</g>
<!-- Node8&#45;&gt;Node9 -->
<g id="edge10" class="edge"><title>Node8&#45;&gt;Node9</title>
<path fill="none" stroke="midnightblue" d="M267.915,-396.753C276.639,-396.753 285.534,-396.753 294.106,-396.753"/>
<polygon fill="midnightblue" stroke="midnightblue" points="294.367,-400.253 304.367,-396.753 294.367,-393.253 294.367,-400.253"/>
</g>
<!-- Node8&#45;&gt;Node7 -->
<g id="edge26" class="edge"><title>Node8&#45;&gt;Node7</title>
<path fill="none" stroke="midnightblue" d="M215.062,-406.305C233.632,-420.815 270.583,-448.925 304,-469.753 306.583,-471.363 309.28,-472.973 312.018,-474.555"/>
<polygon fill="midnightblue" stroke="midnightblue" points="310.381,-477.65 320.816,-479.486 313.804,-471.544 310.381,-477.65"/>
</g>
<!-- Node10 -->
<g id="node9" class="node"><title>Node10</title>
<g id="a_node9"><a xlink:href="namespacemom__diag__mediator.html#ae50b35cba800ac5fd8975929fd2b9f4a" target="_top" xlink:title="Returns True if either the native of CMOr version of the diagnostic were registered....">
<polygon fill="white" stroke="black" points="446.5,-436.253 446.5,-477.253 541.5,-477.253 541.5,-436.253 446.5,-436.253"/>
<text text-anchor="start" x="454.5" y="-465.253" font-family="Helvetica,sans-Serif" font-size="10.00">mom_diag_mediator::</text>
<text text-anchor="start" x="454.5" y="-454.253" font-family="Helvetica,sans-Serif" font-size="10.00">register_diag_field</text>
<text text-anchor="middle" x="494" y="-443.253" font-family="Helvetica,sans-Serif" font-size="10.00">_expand_cmor</text>
</a>
</g>
</g>
<!-- Node9&#45;&gt;Node10 -->
<g id="edge11" class="edge"><title>Node9&#45;&gt;Node10</title>
<path fill="none" stroke="midnightblue" d="M388.328,-411.893C403.022,-418.191 420.443,-425.657 436.814,-432.673"/>
<polygon fill="midnightblue" stroke="midnightblue" points="435.733,-436.018 446.303,-436.74 438.49,-429.584 435.733,-436.018"/>
</g>
<!-- Node11 -->
<g id="node10" class="node"><title>Node11</title>
<g id="a_node10"><a xlink:href="namespacemom__diag__mediator.html#a8415b33a337b1fbc7535688eca85ab37" target="_top" xlink:title="Create a diagnostic type and attached to list.">
<polygon fill="white" stroke="black" points="588.5,-414.753 588.5,-444.753 683.5,-444.753 683.5,-414.753 588.5,-414.753"/>
<text text-anchor="start" x="596.5" y="-432.753" font-family="Helvetica,sans-Serif" font-size="10.00">mom_diag_mediator::</text>
<text text-anchor="middle" x="636" y="-421.753" font-family="Helvetica,sans-Serif" font-size="10.00">add_diag_to_list</text>
</a>
</g>
</g>
<!-- Node10&#45;&gt;Node11 -->
<g id="edge12" class="edge"><title>Node10&#45;&gt;Node11</title>
<path fill="none" stroke="midnightblue" d="M541.618,-447.762C553.301,-445.509 565.965,-443.067 578.087,-440.729"/>
<polygon fill="midnightblue" stroke="midnightblue" points="578.952,-444.127 588.108,-438.796 577.626,-437.253 578.952,-444.127"/>
</g>
<!-- Node17 -->
<g id="node16" class="node"><title>Node17</title>
<g id="a_node16"><a xlink:href="namespacemom__diag__mediator.html#ae0f04c145cb120fc2ab6cbfe9f166392" target="_top" xlink:title="Attaches &quot;cell_methods&quot; attribute to a variable based on defaults for axes_grp or optional arguments.">
<polygon fill="white" stroke="black" points="588.5,-333.753 588.5,-363.753 683.5,-363.753 683.5,-333.753 588.5,-333.753"/>
<text text-anchor="start" x="596.5" y="-351.753" font-family="Helvetica,sans-Serif" font-size="10.00">mom_diag_mediator::</text>
<text text-anchor="middle" x="636" y="-340.753" font-family="Helvetica,sans-Serif" font-size="10.00">attach_cell_methods</text>
</a>
</g>
</g>
<!-- Node10&#45;&gt;Node17 -->
<g id="edge20" class="edge"><title>Node10&#45;&gt;Node17</title>
<path fill="none" stroke="midnightblue" d="M521.662,-436.185C546.182,-417.27 582.398,-389.332 607.254,-370.157"/>
<polygon fill="midnightblue" stroke="midnightblue" points="609.435,-372.895 615.215,-364.015 605.16,-367.352 609.435,-372.895"/>
</g>
<!-- Node10&#45;&gt;Node5 -->
<g id="edge22" class="edge"><title>Node10&#45;&gt;Node5</title>
<path fill="none" stroke="midnightblue" d="M504.487,-477.712C518.447,-505.936 547.34,-555.42 588,-579.753 657.095,-621.103 686.477,-607.753 767,-607.753 767,-607.753 767,-607.753 909,-607.753 981.942,-607.753 1066.09,-607.753 1120.11,-607.753"/>
<polygon fill="midnightblue" stroke="midnightblue" points="1120.17,-611.253 1130.17,-607.753 1120.17,-604.253 1120.17,-611.253"/>
</g>
<!-- Node18 -->
<g id="node17" class="node"><title>Node18</title>
<g id="a_node17"><a xlink:href="namespacemom__diag__mediator.html#a65fe8d329cf5dbfd08c98874a7a64407" target="_top" xlink:title="Log a diagnostic to the available diagnostics file.">
<polygon fill="white" stroke="black" points="588.5,-540.753 588.5,-570.753 683.5,-570.753 683.5,-540.753 588.5,-540.753"/>
<text text-anchor="start" x="596.5" y="-558.753" font-family="Helvetica,sans-Serif" font-size="10.00">mom_diag_mediator::</text>
<text text-anchor="middle" x="636" y="-547.753" font-family="Helvetica,sans-Serif" font-size="10.00">log_available_diag</text>
</a>
</g>
</g>
<!-- Node10&#45;&gt;Node18 -->
<g id="edge23" class="edge"><title>Node10&#45;&gt;Node18</title>
<path fill="none" stroke="midnightblue" d="M524.008,-477.266C547.833,-494.113 581.439,-517.878 605.419,-534.835"/>
<polygon fill="midnightblue" stroke="midnightblue" points="603.597,-537.833 613.782,-540.749 607.638,-532.117 603.597,-537.833"/>
</g>
<!-- Node20 -->
<g id="node19" class="node"><title>Node20</title>
<g id="a_node19"><a xlink:href="namespacemom__diag__mediator.html#aca4a32fea8dade9f51e076a56b9bad2b" target="_top" xlink:title="Returns an FMS id from register_diag_field_fms (the diag_manager routine) after expanding axes (axes&#45;...">
<polygon fill="white" stroke="black" points="588.5,-464.253 588.5,-505.253 683.5,-505.253 683.5,-464.253 588.5,-464.253"/>
<text text-anchor="start" x="596.5" y="-493.253" font-family="Helvetica,sans-Serif" font-size="10.00">mom_diag_mediator::</text>
<text text-anchor="start" x="596.5" y="-482.253" font-family="Helvetica,sans-Serif" font-size="10.00">register_diag_field</text>
<text text-anchor="middle" x="636" y="-471.253" font-family="Helvetica,sans-Serif" font-size="10.00">_expand_axes</text>
</a>
</g>
</g>
<!-- Node10&#45;&gt;Node20 -->
<g id="edge25" class="edge"><title>Node10&#45;&gt;Node20</title>
<path fill="none" stroke="midnightblue" d="M541.618,-466.076C553.301,-468.413 565.965,-470.946 578.087,-473.37"/>
<polygon fill="midnightblue" stroke="midnightblue" points="577.616,-476.845 588.108,-475.375 578.989,-469.981 577.616,-476.845"/>
</g>
<!-- Node12 -->
<g id="node11" class="node"><title>Node12</title>
<g id="a_node11"><a xlink:href="namespacemom__diag__mediator.html#a1b0bed2113a0c268eafd1bafbb48bd4f" target="_top" xlink:title=" ">
<polygon fill="white" stroke="black" points="720.5,-450.753 720.5,-480.753 815.5,-480.753 815.5,-450.753 720.5,-450.753"/>
<text text-anchor="start" x="728.5" y="-468.753" font-family="Helvetica,sans-Serif" font-size="10.00">mom_diag_mediator::</text>
<text text-anchor="middle" x="768" y="-457.753" font-family="Helvetica,sans-Serif" font-size="10.00">alloc_diag_with_id</text>
</a>
</g>
</g>
<!-- Node11&#45;&gt;Node12 -->
<g id="edge13" class="edge"><title>Node11&#45;&gt;Node12</title>
<path fill="none" stroke="midnightblue" d="M683.566,-442.648C692.34,-445.078 701.603,-447.643 710.64,-450.145"/>
<polygon fill="midnightblue" stroke="midnightblue" points="709.751,-453.531 720.322,-452.827 711.619,-446.785 709.751,-453.531"/>
</g>
<!-- Node13 -->
<g id="node12" class="node"><title>Node13</title>
<g id="a_node12"><a xlink:href="namespacemom__error__handler.html#a33bcd190d460095104954f2e654f9fe6" target="_top" xlink:title="Issues a FATAL error if the assertion fails, i.e. the first argument is false.">
<polygon fill="white" stroke="black" points="861.5,-363.753 861.5,-393.753 954.5,-393.753 954.5,-363.753 861.5,-363.753"/>
<text text-anchor="start" x="869.5" y="-381.753" font-family="Helvetica,sans-Serif" font-size="10.00">mom_error_handler::</text>
<text text-anchor="middle" x="908" y="-370.753" font-family="Helvetica,sans-Serif" font-size="10.00">assert</text>
</a>
</g>
</g>
<!-- Node11&#45;&gt;Node13 -->
<g id="edge14" class="edge"><title>Node11&#45;&gt;Node13</title>
<path fill="none" stroke="midnightblue" d="M663.386,-414.701C679.268,-406.408 700.188,-396.798 720,-391.753 763.096,-380.777 813.467,-377.815 851.066,-377.438"/>
<polygon fill="midnightblue" stroke="midnightblue" points="851.33,-380.937 861.315,-377.396 851.301,-373.937 851.33,-380.937"/>
</g>
<!-- Node14 -->
<g id="node13" class="node"><title>Node14</title>
<g id="a_node13"><a xlink:href="namespacemom__diag__mediator.html#a3f7442639213320f7429e2288a79fda2" target="_top" xlink:title="Returns a new diagnostic id, it may be necessary to expand the diagnostics array.">
<polygon fill="white" stroke="black" points="720.5,-401.753 720.5,-431.753 815.5,-431.753 815.5,-401.753 720.5,-401.753"/>
<text text-anchor="start" x="728.5" y="-419.753" font-family="Helvetica,sans-Serif" font-size="10.00">mom_diag_mediator::</text>
<text text-anchor="middle" x="768" y="-408.753" font-family="Helvetica,sans-Serif" font-size="10.00">get_new_diag_id</text>
</a>
</g>
</g>
<!-- Node11&#45;&gt;Node14 -->
<g id="edge16" class="edge"><title>Node11&#45;&gt;Node14</title>
<path fill="none" stroke="midnightblue" d="M683.566,-425.096C692.247,-424.228 701.406,-423.312 710.351,-422.418"/>
<polygon fill="midnightblue" stroke="midnightblue" points="710.72,-425.898 720.322,-421.421 710.024,-418.933 710.72,-425.898"/>
</g>
<!-- Node16 -->
<g id="node15" class="node"><title>Node16</title>
<g id="a_node15"><a xlink:href="namespacemom__diag__mediator.html#a085f313357879a914af6450f2ab8ec79" target="_top" xlink:title="Associates the mask pointers within diag with the appropriate mask based on the axes group.">
<polygon fill="white" stroke="black" points="720.5,-499.753 720.5,-529.753 815.5,-529.753 815.5,-499.753 720.5,-499.753"/>
<text text-anchor="start" x="728.5" y="-517.753" font-family="Helvetica,sans-Serif" font-size="10.00">mom_diag_mediator::</text>
<text text-anchor="middle" x="768" y="-506.753" font-family="Helvetica,sans-Serif" font-size="10.00">set_diag_mask</text>
</a>
</g>
</g>
<!-- Node11&#45;&gt;Node16 -->
<g id="edge19" class="edge"><title>Node11&#45;&gt;Node16</title>
<path fill="none" stroke="midnightblue" d="M668.591,-444.965C673.894,-447.963 679.221,-451.268 684,-454.753 702.03,-467.901 701.97,-476.604 720,-489.753 722.091,-491.278 724.287,-492.768 726.539,-494.213"/>
<polygon fill="midnightblue" stroke="midnightblue" points="725.034,-497.392 735.409,-499.54 728.638,-491.391 725.034,-497.392"/>
</g>
<!-- Node13&#45;&gt;Node4 -->
<g id="edge15" class="edge"><title>Node13&#45;&gt;Node4</title>
<path fill="none" stroke="midnightblue" d="M942.248,-363.677C949.822,-359.436 957.535,-354.413 964,-348.753 993.293,-323.108 1018.27,-285.226 1032.71,-260.766"/>
<polygon fill="midnightblue" stroke="midnightblue" points="1035.92,-262.204 1037.89,-251.794 1029.86,-258.704 1035.92,-262.204"/>
</g>
<!-- Node14&#45;&gt;Node13 -->
<g id="edge17" class="edge"><title>Node14&#45;&gt;Node13</title>
<path fill="none" stroke="midnightblue" d="M815.721,-403.888C827.205,-400.725 839.612,-397.309 851.467,-394.044"/>
<polygon fill="midnightblue" stroke="midnightblue" points="852.552,-397.376 861.264,-391.347 850.693,-390.627 852.552,-397.376"/>
</g>
<!-- Node15 -->
<g id="node14" class="node"><title>Node15</title>
<g id="a_node14"><a xlink:href="namespacemom__diag__mediator.html#a883862f004e30bbc5211f38635511ba0" target="_top" xlink:title="Initializes a diag_type (used after allocating new memory)">
<polygon fill="white" stroke="black" points="860.5,-412.753 860.5,-442.753 955.5,-442.753 955.5,-412.753 860.5,-412.753"/>
<text text-anchor="start" x="868.5" y="-430.753" font-family="Helvetica,sans-Serif" font-size="10.00">mom_diag_mediator::</text>
<text text-anchor="middle" x="908" y="-419.753" font-family="Helvetica,sans-Serif" font-size="10.00">initialize_diag_type</text>
</a>
</g>
</g>
<!-- Node14&#45;&gt;Node15 -->
<g id="edge18" class="edge"><title>Node14&#45;&gt;Node15</title>
<path fill="none" stroke="midnightblue" d="M815.721,-420.477C826.736,-421.355 838.6,-422.301 850.012,-423.21"/>
<polygon fill="midnightblue" stroke="midnightblue" points="850.081,-426.727 860.328,-424.033 850.637,-419.749 850.081,-426.727"/>
</g>
<!-- Node17&#45;&gt;Node4 -->
<g id="edge21" class="edge"><title>Node17&#45;&gt;Node4</title>
<path fill="none" stroke="midnightblue" d="M683.759,-352C749.429,-354.681 871.315,-352.692 964,-310.753 989.373,-299.272 1012.35,-277 1027.48,-259.877"/>
<polygon fill="midnightblue" stroke="midnightblue" points="1030.42,-261.829 1034.26,-251.955 1025.1,-257.28 1030.42,-261.829"/>
</g>
<!-- Node19 -->
<g id="node18" class="node"><title>Node19</title>
<g id="a_node18"><a xlink:href="namespacemom__diag__mediator.html#ae002ca447acba252bf7bdc042e75a01e" target="_top" xlink:title=" ">
<polygon fill="white" stroke="black" points="720.5,-548.753 720.5,-578.753 815.5,-578.753 815.5,-548.753 720.5,-548.753"/>
<text text-anchor="start" x="728.5" y="-566.753" font-family="Helvetica,sans-Serif" font-size="10.00">mom_diag_mediator::</text>
<text text-anchor="middle" x="768" y="-555.753" font-family="Helvetica,sans-Serif" font-size="10.00">describe_option</text>
</a>
</g>
</g>
<!-- Node18&#45;&gt;Node19 -->
<g id="edge24" class="edge"><title>Node18&#45;&gt;Node19</title>
<path fill="none" stroke="midnightblue" d="M683.566,-558.618C692.154,-559.147 701.21,-559.704 710.063,-560.249"/>
<polygon fill="midnightblue" stroke="midnightblue" points="710.126,-563.759 720.322,-560.88 710.556,-556.773 710.126,-563.759"/>
</g>
<!-- Node22&#45;&gt;Node4 -->
<g id="edge29" class="edge"><title>Node22&#45;&gt;Node4</title>
<path fill="none" stroke="midnightblue" d="M552.156,-125.27C643.234,-115.792 825.169,-106.98 964,-164.753 989.403,-175.324 1012.37,-197.074 1027.5,-213.917"/>
<polygon fill="midnightblue" stroke="midnightblue" points="1025.07,-216.46 1034.27,-221.72 1030.36,-211.873 1025.07,-216.46"/>
</g>
<!-- Node23&#45;&gt;Node4 -->
<g id="edge31" class="edge"><title>Node23&#45;&gt;Node4</title>
<path fill="none" stroke="midnightblue" d="M789.453,-48.7117C827.245,-22.9173 909.152,23.4581 964,-14.7529 1029.21,-60.183 1042.69,-163.705 1045.39,-211.594"/>
<polygon fill="midnightblue" stroke="midnightblue" points="1041.9,-211.884 1045.84,-221.718 1048.89,-211.572 1041.9,-211.884"/>
</g>
<!-- Node24 -->
<g id="node23" class="node"><title>Node24</title>
<g id="a_node23"><a xlink:href="namespacemom__pressureforce__afv.html#a443f95a60b35b33a872264f6bacf4554" target="_top" xlink:title="Initializes the finite volume pressure gradient control structure.">
<polygon fill="white" stroke="black" points="856,-73.7529 856,-103.753 960,-103.753 960,-73.7529 856,-73.7529"/>
<text text-anchor="start" x="864" y="-91.7529" font-family="Helvetica,sans-Serif" font-size="10.00">mom_pressureforce_afv</text>
<text text-anchor="middle" x="908" y="-80.7529" font-family="Helvetica,sans-Serif" font-size="10.00">::pressureforce_afv_init</text>
</a>
</g>
</g>
<!-- Node23&#45;&gt;Node24 -->
<g id="edge32" class="edge"><title>Node23&#45;&gt;Node24</title>
<path fill="none" stroke="midnightblue" d="M814.569,-72.0081C824.564,-73.8188 835.303,-75.7644 845.799,-77.6657"/>
<polygon fill="midnightblue" stroke="midnightblue" points="845.291,-81.1306 855.755,-79.4693 846.539,-74.2427 845.291,-81.1306"/>
</g>
<!-- Node25 -->
<g id="node24" class="node"><title>Node25</title>
<g id="a_node24"><a xlink:href="namespacemom__pressureforce__mont.html#a560267f015d03452d92aca82f6a46b14" target="_top" xlink:title="Initialize the Montgomery&#45;potential form of PGF control structure.">
<polygon fill="white" stroke="black" points="852.5,-24.7529 852.5,-54.7529 963.5,-54.7529 963.5,-24.7529 852.5,-24.7529"/>
<text text-anchor="start" x="860.5" y="-42.7529" font-family="Helvetica,sans-Serif" font-size="10.00">mom_pressureforce_mont</text>
<text text-anchor="middle" x="908" y="-31.7529" font-family="Helvetica,sans-Serif" font-size="10.00">::pressureforce_mont_init</text>
</a>
</g>
</g>
<!-- Node23&#45;&gt;Node25 -->
<g id="edge34" class="edge"><title>Node23&#45;&gt;Node25</title>
<path fill="none" stroke="midnightblue" d="M814.569,-55.8279C823.448,-54.2837 832.914,-52.6374 842.275,-51.0095"/>
<polygon fill="midnightblue" stroke="midnightblue" points="843.106,-54.4176 852.358,-49.2558 841.906,-47.5211 843.106,-54.4176"/>
</g>
<!-- Node24&#45;&gt;Node4 -->
<g id="edge33" class="edge"><title>Node24&#45;&gt;Node4</title>
<path fill="none" stroke="midnightblue" d="M942.636,-103.876C950.114,-108.088 957.686,-113.086 964,-118.753 994.456,-146.087 1019.55,-186.843 1033.65,-212.595"/>
<polygon fill="midnightblue" stroke="midnightblue" points="1030.7,-214.503 1038.5,-221.671 1036.87,-211.202 1030.7,-214.503"/>
</g>
<!-- Node25&#45;&gt;Node4 -->
<g id="edge35" class="edge"><title>Node25&#45;&gt;Node4</title>
<path fill="none" stroke="midnightblue" d="M952.089,-54.8086C956.405,-57.3793 960.484,-60.3449 964,-63.7529 1007.23,-105.653 1030.33,-174.861 1040.15,-211.763"/>
<polygon fill="midnightblue" stroke="midnightblue" points="1036.82,-212.861 1042.68,-221.689 1043.6,-211.135 1036.82,-212.861"/>
</g>
<!-- Node26&#45;&gt;Node4 -->
<g id="edge37" class="edge"><title>Node26&#45;&gt;Node4</title>
<path fill="none" stroke="midnightblue" d="M811.366,-231.764C824.315,-234.635 838.659,-237.323 852,-238.753 898.422,-243.729 951.449,-242.73 990.319,-240.768"/>
<polygon fill="midnightblue" stroke="midnightblue" points="990.589,-244.258 1000.39,-240.222 990.211,-237.268 990.589,-244.258"/>
</g>
<!-- Node27 -->
<g id="node26" class="node"><title>Node27</title>
<g id="a_node26"><a xlink:href="namespacemom__tidal__forcing.html#aba9bdb9c6510bac9f65e674bd5583f39" target="_top" xlink:title=" ">
<polygon fill="white" stroke="black" points="865,-199.753 865,-229.753 951,-229.753 951,-199.753 865,-199.753"/>
<text text-anchor="start" x="873" y="-217.753" font-family="Helvetica,sans-Serif" font-size="10.00">mom_tidal_forcing::</text>
<text text-anchor="middle" x="908" y="-206.753" font-family="Helvetica,sans-Serif" font-size="10.00">find_in_files</text>
</a>
</g>
</g>
<!-- Node26&#45;&gt;Node27 -->
<g id="edge38" class="edge"><title>Node26&#45;&gt;Node27</title>
<path fill="none" stroke="midnightblue" d="M811.154,-218.92C824.804,-218.327 840.114,-217.661 854.424,-217.039"/>
<polygon fill="midnightblue" stroke="midnightblue" points="854.79,-220.526 864.628,-216.595 854.486,-213.533 854.79,-220.526"/>
</g>
<!-- Node27&#45;&gt;Node4 -->
<g id="edge39" class="edge"><title>Node27&#45;&gt;Node4</title>
<path fill="none" stroke="midnightblue" d="M951.222,-221.533C963.506,-223.506 977.118,-225.691 990.104,-227.777"/>
<polygon fill="midnightblue" stroke="midnightblue" points="989.918,-231.292 1000.35,-229.422 991.028,-224.38 989.918,-231.292"/>
</g>
<!-- Node28&#45;&gt;Node4 -->
<g id="edge41" class="edge"><title>Node28&#45;&gt;Node4</title>
<path fill="none" stroke="midnightblue" d="M536.79,-171.219C619.993,-161.645 811.484,-146.871 964,-189.753 983.147,-195.136 1002.55,-205.958 1017.66,-215.862"/>
<polygon fill="midnightblue" stroke="midnightblue" points="1015.8,-218.824 1026.04,-221.539 1019.73,-213.03 1015.8,-218.824"/>
</g>
</g>
</svg>
