<?xml version="1.0" encoding="UTF-8" standalone="no"?>
<!DOCTYPE svg PUBLIC "-//W3C//DTD SVG 1.1//EN"
 "http://www.w3.org/Graphics/SVG/1.1/DTD/svg11.dtd">
<!-- Generated by graphviz version 2.30.1 (20170916.1124)
 -->
<!-- Title: mom_barotropic::swap Pages: 1 -->
<svg width="372pt" height="55pt"
 viewBox="0.00 0.00 372.00 55.00" xmlns="http://www.w3.org/2000/svg" xmlns:xlink="http://www.w3.org/1999/xlink">
<g id="graph0" class="graph" transform="scale(1 1) rotate(0) translate(4 51)">
<title>mom_barotropic::swap</title>
<polygon fill="white" stroke="white" points="-4,5 -4,-51 369,-51 369,5 -4,5"/>
<!-- Node107 -->
<g id="node1" class="node"><title>Node107</title>
<g id="a_node1"><a xlink:title=" ">
<polygon fill="#bfbfbf" stroke="black" points="266,-27.5 266,-46.5 364,-46.5 364,-27.5 266,-27.5"/>
<text text-anchor="middle" x="315" y="-34.5" font-family="Helvetica,sans-Serif" font-size="10.00">mom_barotropic::swap</text>
</a>
</g>
</g>
<!-- Node108 -->
<g id="node2" class="node"><title>Node108</title>
<g id="a_node2"><a xlink:href="namespacemom__barotropic.html#a98cdf3c559146cc9485fcb9daa4cdbca" target="_top" xlink:title=" ">
<polygon fill="white" stroke="black" points="0.5,-27.5 0.5,-46.5 101.5,-46.5 101.5,-27.5 0.5,-27.5"/>
<text text-anchor="middle" x="51" y="-34.5" font-family="Helvetica,sans-Serif" font-size="10.00">mom_barotropic::btstep</text>
</a>
</g>
</g>
<!-- Node107&#45;&gt;Node108 -->
<g id="edge1" class="edge"><title>Node107&#45;&gt;Node108</title>
<path fill="none" stroke="midnightblue" d="M255.331,-38.5752C246.833,-38.7515 238.192,-38.9025 230,-39 189.114,-39.4867 178.886,-39.4754 138,-39 126.202,-38.8628 113.496,-38.6199 101.566,-38.3495"/>
<polygon fill="midnightblue" stroke="midnightblue" points="255.666,-42.0688 265.587,-38.3495 255.512,-35.0705 255.666,-42.0688"/>
</g>
<!-- Node109 -->
<g id="node3" class="node"><title>Node109</title>
<g id="a_node3"><a xlink:href="namespacemom__barotropic.html#ab2af2b39d88ecc3011a5e906daefc810" target="_top" xlink:title=" ">
<polygon fill="white" stroke="black" points="138.5,-0 138.5,-30 229.5,-30 229.5,-0 138.5,-0"/>
<text text-anchor="start" x="146.5" y="-18" font-family="Helvetica,sans-Serif" font-size="10.00">mom_barotropic::set</text>
<text text-anchor="middle" x="184" y="-7" font-family="Helvetica,sans-Serif" font-size="10.00">_local_bt_cont_types</text>
</a>
</g>
</g>
<!-- Node107&#45;&gt;Node109 -->
<g id="edge2" class="edge"><title>Node107&#45;&gt;Node109</title>
<path fill="none" stroke="midnightblue" d="M256.067,-27.12C247.206,-25.6087 238.177,-24.069 229.66,-22.6164"/>
<polygon fill="midnightblue" stroke="midnightblue" points="255.519,-30.577 265.965,-28.808 256.696,-23.6766 255.519,-30.577"/>
</g>
<!-- Node109&#45;&gt;Node108 -->
<g id="edge3" class="edge"><title>Node109&#45;&gt;Node108</title>
<path fill="none" stroke="midnightblue" d="M128.206,-24.202C119.487,-25.6663 110.508,-27.1742 101.909,-28.6183"/>
<polygon fill="midnightblue" stroke="midnightblue" points="129.001,-27.6176 138.284,-22.5096 127.842,-20.7142 129.001,-27.6176"/>
</g>
</g>
</svg>
