<?xml version="1.0" encoding="UTF-8" standalone="no"?>
<!DOCTYPE svg PUBLIC "-//W3C//DTD SVG 1.1//EN"
 "http://www.w3.org/Graphics/SVG/1.1/DTD/svg11.dtd">
<!-- Generated by graphviz version 2.30.1 (20170916.1124)
 -->
<!-- Title: mom_file_parser::strip_quotes Pages: 1 -->
<svg width="366pt" height="87pt"
 viewBox="0.00 0.00 366.00 87.00" xmlns="http://www.w3.org/2000/svg" xmlns:xlink="http://www.w3.org/1999/xlink">
<g id="graph0" class="graph" transform="scale(1 1) rotate(0) translate(4 83)">
<title>mom_file_parser::strip_quotes</title>
<polygon fill="white" stroke="white" points="-4,5 -4,-83 363,-83 363,5 -4,5"/>
<!-- Node461 -->
<g id="node1" class="node"><title>Node461</title>
<g id="a_node1"><a xlink:title=" ">
<polygon fill="#bfbfbf" stroke="black" points="262,-24 262,-54 358,-54 358,-24 262,-24"/>
<text text-anchor="start" x="270" y="-42" font-family="Helvetica,sans-Serif" font-size="10.00">mom_file_parser::strip</text>
<text text-anchor="middle" x="310" y="-31" font-family="Helvetica,sans-Serif" font-size="10.00">_quotes</text>
</a>
</g>
</g>
<!-- Node462 -->
<g id="node2" class="node"><title>Node462</title>
<g id="a_node2"><a xlink:href="namespacemom__file__parser.html#a14c84db15e417656105f7303ad0ac2a2" target="_top" xlink:title=" ">
<polygon fill="white" stroke="black" points="128,-49 128,-79 226,-79 226,-49 128,-49"/>
<text text-anchor="start" x="136" y="-67" font-family="Helvetica,sans-Serif" font-size="10.00">mom_file_parser::read</text>
<text text-anchor="middle" x="177" y="-56" font-family="Helvetica,sans-Serif" font-size="10.00">_param_char</text>
</a>
</g>
</g>
<!-- Node461&#45;&gt;Node462 -->
<g id="edge1" class="edge"><title>Node461&#45;&gt;Node462</title>
<path fill="none" stroke="midnightblue" d="M251.776,-49.9206C243.211,-51.5551 234.455,-53.2261 226.105,-54.8196"/>
<polygon fill="midnightblue" stroke="midnightblue" points="252.539,-53.3382 261.706,-48.0256 251.227,-46.4623 252.539,-53.3382"/>
</g>
<!-- Node464 -->
<g id="node4" class="node"><title>Node464</title>
<g id="a_node4"><a xlink:href="namespacemom__file__parser.html#a67808253e247b2542d0810e7c7f598f4" target="_top" xlink:title=" ">
<polygon fill="white" stroke="black" points="128,-0 128,-30 226,-30 226,-0 128,-0"/>
<text text-anchor="start" x="136" y="-18" font-family="Helvetica,sans-Serif" font-size="10.00">mom_file_parser::read</text>
<text text-anchor="middle" x="177" y="-7" font-family="Helvetica,sans-Serif" font-size="10.00">_param_char_array</text>
</a>
</g>
</g>
<!-- Node461&#45;&gt;Node464 -->
<g id="edge3" class="edge"><title>Node461&#45;&gt;Node464</title>
<path fill="none" stroke="midnightblue" d="M251.776,-28.5162C243.211,-26.9471 234.455,-25.3429 226.105,-23.8132"/>
<polygon fill="midnightblue" stroke="midnightblue" points="251.239,-31.976 261.706,-30.3354 252.5,-25.0906 251.239,-31.976"/>
</g>
<!-- Node463 -->
<g id="node3" class="node"><title>Node463</title>
<g id="a_node3"><a xlink:href="namespacemom__file__parser.html#a73ba84992b53a7898e3ea651da1847ed" target="_top" xlink:title=" ">
<polygon fill="white" stroke="black" points="0,-49 0,-79 92,-79 92,-49 0,-49"/>
<text text-anchor="start" x="8" y="-67" font-family="Helvetica,sans-Serif" font-size="10.00">mom_file_parser::get</text>
<text text-anchor="middle" x="46" y="-56" font-family="Helvetica,sans-Serif" font-size="10.00">_param_char</text>
</a>
</g>
</g>
<!-- Node462&#45;&gt;Node463 -->
<g id="edge2" class="edge"><title>Node462&#45;&gt;Node463</title>
<path fill="none" stroke="midnightblue" d="M117.905,-64C109.243,-64 100.425,-64 92.084,-64"/>
<polygon fill="midnightblue" stroke="midnightblue" points="117.965,-67.5001 127.965,-64 117.965,-60.5001 117.965,-67.5001"/>
</g>
<!-- Node465 -->
<g id="node5" class="node"><title>Node465</title>
<g id="a_node5"><a xlink:href="namespacemom__file__parser.html#aa3f8a251fb4f7bbae28b136ebc17a8f3" target="_top" xlink:title=" ">
<polygon fill="white" stroke="black" points="0,-0 0,-30 92,-30 92,-0 0,-0"/>
<text text-anchor="start" x="8" y="-18" font-family="Helvetica,sans-Serif" font-size="10.00">mom_file_parser::get</text>
<text text-anchor="middle" x="46" y="-7" font-family="Helvetica,sans-Serif" font-size="10.00">_param_char_array</text>
</a>
</g>
</g>
<!-- Node464&#45;&gt;Node465 -->
<g id="edge4" class="edge"><title>Node464&#45;&gt;Node465</title>
<path fill="none" stroke="midnightblue" d="M117.905,-15C109.243,-15 100.425,-15 92.084,-15"/>
<polygon fill="midnightblue" stroke="midnightblue" points="117.965,-18.5001 127.965,-15 117.965,-11.5001 117.965,-18.5001"/>
</g>
</g>
</svg>
