<?xml version="1.0" encoding="UTF-8" standalone="no"?>
<!DOCTYPE svg PUBLIC "-//W3C//DTD SVG 1.1//EN"
 "http://www.w3.org/Graphics/SVG/1.1/DTD/svg11.dtd">
<!-- Generated by graphviz version 2.30.1 (20170916.1124)
 -->
<!-- Title: mom_forcing_type::deallocate_forcing_type Pages: 1 -->
<svg width="262pt" height="87pt"
 viewBox="0.00 0.00 262.00 87.00" xmlns="http://www.w3.org/2000/svg" xmlns:xlink="http://www.w3.org/1999/xlink">
<g id="graph0" class="graph" transform="scale(1 1) rotate(0) translate(4 83)">
<title>mom_forcing_type::deallocate_forcing_type</title>
<polygon fill="white" stroke="white" points="-4,5 -4,-83 259,-83 259,5 -4,5"/>
<!-- Node39 -->
<g id="node1" class="node"><title>Node39</title>
<g id="a_node1"><a xlink:title="Deallocate the forcing type.">
<polygon fill="#bfbfbf" stroke="black" points="130.5,-24 130.5,-54 253.5,-54 253.5,-24 130.5,-24"/>
<text text-anchor="start" x="138.5" y="-42" font-family="Helvetica,sans-Serif" font-size="10.00">mom_forcing_type::deallocate</text>
<text text-anchor="middle" x="192" y="-31" font-family="Helvetica,sans-Serif" font-size="10.00">_forcing_type</text>
</a>
</g>
</g>
<!-- Node40 -->
<g id="node2" class="node"><title>Node40</title>
<g id="a_node2"><a xlink:href="namespacemom__surface__forcing.html#a645590ad6b9208812337b6ccbed1d01a" target="_top" xlink:title=" ">
<polygon fill="white" stroke="black" points="0,-49 0,-79 94,-79 94,-49 0,-49"/>
<text text-anchor="start" x="8" y="-67" font-family="Helvetica,sans-Serif" font-size="10.00">mom_surface_forcing</text>
<text text-anchor="middle" x="47" y="-56" font-family="Helvetica,sans-Serif" font-size="10.00">::surface_forcing_end</text>
</a>
</g>
</g>
<!-- Node39&#45;&gt;Node40 -->
<g id="edge1" class="edge"><title>Node39&#45;&gt;Node40</title>
<path fill="none" stroke="midnightblue" d="M120.424,-51.3385C111.595,-52.8821 102.747,-54.4289 94.4187,-55.8848"/>
<polygon fill="midnightblue" stroke="midnightblue" points="121.107,-54.7722 130.355,-49.6023 119.902,-47.8768 121.107,-54.7722"/>
</g>
<!-- Node41 -->
<g id="node3" class="node"><title>Node41</title>
<g id="a_node3"><a xlink:href="namespacemom__surface__forcing.html#ad01961191fdfc928f233901e285f4beb" target="_top" xlink:title=" ">
<polygon fill="white" stroke="black" points="0,-0 0,-30 94,-30 94,-0 0,-0"/>
<text text-anchor="start" x="8" y="-18" font-family="Helvetica,sans-Serif" font-size="10.00">mom_surface_forcing</text>
<text text-anchor="middle" x="47" y="-7" font-family="Helvetica,sans-Serif" font-size="10.00">::surface_forcing_init</text>
</a>
</g>
</g>
<!-- Node39&#45;&gt;Node41 -->
<g id="edge2" class="edge"><title>Node39&#45;&gt;Node41</title>
<path fill="none" stroke="midnightblue" d="M120.424,-27.155C111.595,-25.6732 102.747,-24.1883 94.4187,-22.7906"/>
<polygon fill="midnightblue" stroke="midnightblue" points="119.914,-30.6183 130.355,-28.8218 121.072,-23.7149 119.914,-30.6183"/>
</g>
</g>
</svg>
