<?xml version="1.0" encoding="UTF-8" standalone="no"?>
<!DOCTYPE svg PUBLIC "-//W3C//DTD SVG 1.1//EN"
 "http://www.w3.org/Graphics/SVG/1.1/DTD/svg11.dtd">
<!-- Generated by graphviz version 2.30.1 (20170916.1124)
 -->
<!-- Title: mom_dynamics_legacy_split::step_mom_dyn_legacy_split Pages: 1 -->
<svg width="678pt" height="735pt"
 viewBox="0.00 0.00 678.00 735.00" xmlns="http://www.w3.org/2000/svg" xmlns:xlink="http://www.w3.org/1999/xlink">
<g id="graph0" class="graph" transform="scale(1 1) rotate(0) translate(4 731)">
<title>mom_dynamics_legacy_split::step_mom_dyn_legacy_split</title>
<polygon fill="white" stroke="white" points="-4,5 -4,-731 675,-731 675,5 -4,5"/>
<!-- Node47 -->
<g id="node1" class="node"><title>Node47</title>
<g id="a_node1"><a xlink:title=" ">
<polygon fill="#bfbfbf" stroke="black" points="0.5,-261.5 0.5,-302.5 99.5,-302.5 99.5,-261.5 0.5,-261.5"/>
<text text-anchor="start" x="8.5" y="-290.5" font-family="Helvetica,sans-Serif" font-size="10.00">mom_dynamics_legacy</text>
<text text-anchor="start" x="8.5" y="-279.5" font-family="Helvetica,sans-Serif" font-size="10.00">_split::step_mom_dyn</text>
<text text-anchor="middle" x="50" y="-268.5" font-family="Helvetica,sans-Serif" font-size="10.00">_legacy_split</text>
</a>
</g>
</g>
<!-- Node48 -->
<g id="node2" class="node"><title>Node48</title>
<g id="a_node2"><a xlink:href="namespacemom__continuity.html#a483dba08c6a9574d7fe814cadccd870e" target="_top" xlink:title="Time steps the layer thicknesses, using a monotonically limited, directionally split PPM scheme,...">
<polygon fill="white" stroke="black" points="300,-707.5 300,-726.5 410,-726.5 410,-707.5 300,-707.5"/>
<text text-anchor="middle" x="355" y="-714.5" font-family="Helvetica,sans-Serif" font-size="10.00">mom_continuity::continuity</text>
</a>
</g>
</g>
<!-- Node47&#45;&gt;Node48 -->
<g id="edge1" class="edge"><title>Node47&#45;&gt;Node48</title>
<path fill="none" stroke="midnightblue" d="M52.8804,-302.975C59.7146,-374.569 85.5275,-607.753 136,-660 175.585,-700.977 240.686,-713.778 289.46,-717.2"/>
<polygon fill="midnightblue" stroke="midnightblue" points="289.417,-720.703 299.604,-717.794 289.826,-713.715 289.417,-720.703"/>
</g>
<!-- Node51 -->
<g id="node5" class="node"><title>Node51</title>
<g id="a_node5"><a xlink:href="namespacemom__coriolisadv.html#a48e46860dad5118d78c8cd7de964e71f" target="_top" xlink:title="Calculates the Coriolis and momentum advection contributions to the acceleration.">
<polygon fill="white" stroke="black" points="143,-631.5 143,-650.5 257,-650.5 257,-631.5 143,-631.5"/>
<text text-anchor="middle" x="200" y="-638.5" font-family="Helvetica,sans-Serif" font-size="10.00">mom_coriolisadv::coradcalc</text>
</a>
</g>
</g>
<!-- Node47&#45;&gt;Node51 -->
<g id="edge4" class="edge"><title>Node47&#45;&gt;Node51</title>
<path fill="none" stroke="midnightblue" d="M54.5053,-302.703C63.185,-350.551 88.4886,-471.615 136,-562 148.259,-585.321 167.817,-608.469 181.891,-623.62"/>
<polygon fill="midnightblue" stroke="midnightblue" points="179.638,-626.329 189.065,-631.165 184.711,-621.506 179.638,-626.329"/>
</g>
<!-- Node53 -->
<g id="node7" class="node"><title>Node53</title>
<g id="a_node7"><a xlink:href="namespacemom__diag__mediator.html#a833421744c815eb432a645bd984a5c86" target="_top" xlink:title="Build/update vertical grids for diagnostic remapping.">
<polygon fill="white" stroke="black" points="145,-245 145,-275 255,-275 255,-245 145,-245"/>
<text text-anchor="start" x="153" y="-263" font-family="Helvetica,sans-Serif" font-size="10.00">mom_diag_mediator::</text>
<text text-anchor="middle" x="200" y="-252" font-family="Helvetica,sans-Serif" font-size="10.00">diag_update_remap_grids</text>
</a>
</g>
</g>
<!-- Node47&#45;&gt;Node53 -->
<g id="edge7" class="edge"><title>Node47&#45;&gt;Node53</title>
<path fill="none" stroke="midnightblue" d="M99.8709,-274.735C111.007,-273.08 123.004,-271.297 134.675,-269.562"/>
<polygon fill="midnightblue" stroke="midnightblue" points="135.44,-272.987 144.817,-268.054 134.411,-266.063 135.44,-272.987"/>
</g>
<!-- Node54 -->
<g id="node8" class="node"><title>Node54</title>
<g id="a_node8"><a xlink:href="namespacemom__hor__visc.html#a9f553282bddb798335a3c7aa8f49bd76" target="_top" xlink:title=" ">
<polygon fill="white" stroke="black" points="301.5,-582 301.5,-612 408.5,-612 408.5,-582 301.5,-582"/>
<text text-anchor="start" x="309.5" y="-600" font-family="Helvetica,sans-Serif" font-size="10.00">mom_hor_visc::horizontal</text>
<text text-anchor="middle" x="355" y="-589" font-family="Helvetica,sans-Serif" font-size="10.00">_viscosity</text>
</a>
</g>
</g>
<!-- Node47&#45;&gt;Node54 -->
<g id="edge8" class="edge"><title>Node47&#45;&gt;Node54</title>
<path fill="none" stroke="midnightblue" d="M55.3273,-302.799C64.3104,-341.568 88.2458,-425.761 136,-479 179.643,-527.656 248.229,-560.111 296.803,-578.464"/>
<polygon fill="midnightblue" stroke="midnightblue" points="295.644,-581.767 306.238,-581.947 298.069,-575.2 295.644,-581.767"/>
</g>
<!-- Node55 -->
<g id="node9" class="node"><title>Node55</title>
<g id="a_node9"><a xlink:href="namespacemom__legacy__barotropic.html#aaa2063f7d7fbe940bc5bd80117befaed" target="_top" xlink:title=" ">
<polygon fill="white" stroke="black" points="149,-440 149,-470 251,-470 251,-440 149,-440"/>
<text text-anchor="start" x="157" y="-458" font-family="Helvetica,sans-Serif" font-size="10.00">mom_legacy_barotropic</text>
<text text-anchor="middle" x="200" y="-447" font-family="Helvetica,sans-Serif" font-size="10.00">::legacy_set_dtbt</text>
</a>
</g>
</g>
<!-- Node47&#45;&gt;Node55 -->
<g id="edge10" class="edge"><title>Node47&#45;&gt;Node55</title>
<path fill="none" stroke="midnightblue" d="M68.5587,-302.525C96.2291,-334.869 149.821,-397.514 178.959,-431.573"/>
<polygon fill="midnightblue" stroke="midnightblue" points="176.649,-434.257 185.809,-439.581 181.968,-429.707 176.649,-434.257"/>
</g>
<!-- Node59 -->
<g id="node13" class="node"><title>Node59</title>
<g id="a_node13"><a xlink:href="namespacemom__checksum__packages.html#aa747a7aaa0315492d180b4514f5c70e0" target="_top" xlink:title=" ">
<polygon fill="white" stroke="black" points="143.5,-196 143.5,-226 256.5,-226 256.5,-196 143.5,-196"/>
<text text-anchor="start" x="151.5" y="-214" font-family="Helvetica,sans-Serif" font-size="10.00">mom_checksum_packages</text>
<text text-anchor="middle" x="200" y="-203" font-family="Helvetica,sans-Serif" font-size="10.00">::mom_accel_chksum</text>
</a>
</g>
</g>
<!-- Node47&#45;&gt;Node59 -->
<g id="edge15" class="edge"><title>Node47&#45;&gt;Node59</title>
<path fill="none" stroke="midnightblue" d="M86.9164,-261.342C101.887,-253.053 119.581,-243.668 136,-236 140.368,-233.96 144.951,-231.933 149.57,-229.966"/>
<polygon fill="midnightblue" stroke="midnightblue" points="151.148,-233.101 159.039,-226.031 148.462,-226.637 151.148,-233.101"/>
</g>
<!-- Node60 -->
<g id="node14" class="node"><title>Node60</title>
<g id="a_node14"><a xlink:href="namespacemom__pressureforce.html#a9f010455182eeaa61c9f01caff250bf8" target="_top" xlink:title="A thin layer between the model and the Boussinesq and non&#45;Boussinesq pressure force routines.">
<polygon fill="white" stroke="black" points="153.5,-147 153.5,-177 246.5,-177 246.5,-147 153.5,-147"/>
<text text-anchor="start" x="161.5" y="-165" font-family="Helvetica,sans-Serif" font-size="10.00">mom_pressureforce::</text>
<text text-anchor="middle" x="200" y="-154" font-family="Helvetica,sans-Serif" font-size="10.00">pressureforce</text>
</a>
</g>
</g>
<!-- Node47&#45;&gt;Node60 -->
<g id="edge16" class="edge"><title>Node47&#45;&gt;Node60</title>
<path fill="none" stroke="midnightblue" d="M65.0729,-261.28C80.3709,-240.112 106.6,-207.519 136,-187 138.702,-185.114 141.566,-183.342 144.526,-181.681"/>
<polygon fill="midnightblue" stroke="midnightblue" points="146.311,-184.699 153.62,-177.029 143.123,-178.467 146.311,-184.699"/>
</g>
<!-- Node61 -->
<g id="node15" class="node"><title>Node61</title>
<g id="a_node15"><a xlink:href="namespacemom__open__boundary.html#a9f7df34215db2d41027191be30ba90d1" target="_top" xlink:title="Apply radiation conditions to 3D u,v (,h) at open boundaries.">
<polygon fill="white" stroke="black" points="142,-98 142,-128 258,-128 258,-98 142,-98"/>
<text text-anchor="start" x="150" y="-116" font-family="Helvetica,sans-Serif" font-size="10.00">mom_open_boundary::</text>
<text text-anchor="middle" x="200" y="-105" font-family="Helvetica,sans-Serif" font-size="10.00">radiation_open_bdry_conds</text>
</a>
</g>
</g>
<!-- Node47&#45;&gt;Node61 -->
<g id="edge17" class="edge"><title>Node47&#45;&gt;Node61</title>
<path fill="none" stroke="midnightblue" d="M58.1369,-261.469C69.8272,-230.639 95.8512,-172.346 136,-138 137.956,-136.327 140.038,-134.757 142.209,-133.285"/>
<polygon fill="midnightblue" stroke="midnightblue" points="144.151,-136.202 150.956,-128.082 140.572,-130.186 144.151,-136.202"/>
</g>
<!-- Node62 -->
<g id="node16" class="node"><title>Node62</title>
<g id="a_node16"><a xlink:href="namespacemom__set__visc.html#a9e73d0338646bb91d14b78e86f6e3886" target="_top" xlink:title=" ">
<polygon fill="white" stroke="black" points="136.5,-332.5 136.5,-351.5 263.5,-351.5 263.5,-332.5 136.5,-332.5"/>
<text text-anchor="middle" x="200" y="-339.5" font-family="Helvetica,sans-Serif" font-size="10.00">mom_set_visc::set_viscous_bbl</text>
</a>
</g>
</g>
<!-- Node47&#45;&gt;Node62 -->
<g id="edge18" class="edge"><title>Node47&#45;&gt;Node62</title>
<path fill="none" stroke="midnightblue" d="M90.6407,-302.709C104.748,-309.652 120.884,-317.117 136,-323 141.799,-325.257 147.982,-327.414 154.124,-329.411"/>
<polygon fill="midnightblue" stroke="midnightblue" points="153.09,-332.754 163.679,-332.408 155.185,-326.075 153.09,-332.754"/>
</g>
<!-- Node66 -->
<g id="node20" class="node"><title>Node66</title>
<g id="a_node20"><a xlink:href="namespacemom__set__visc.html#afa97c345f1c4caaaf53b039d0b3fc9d8" target="_top" xlink:title=" ">
<polygon fill="white" stroke="black" points="137.5,-294.5 137.5,-313.5 262.5,-313.5 262.5,-294.5 137.5,-294.5"/>
<text text-anchor="middle" x="200" y="-301.5" font-family="Helvetica,sans-Serif" font-size="10.00">mom_set_visc::set_viscous_ml</text>
</a>
</g>
</g>
<!-- Node47&#45;&gt;Node66 -->
<g id="edge24" class="edge"><title>Node47&#45;&gt;Node66</title>
<path fill="none" stroke="midnightblue" d="M99.8709,-289.265C108.651,-290.57 117.967,-291.955 127.236,-293.332"/>
<polygon fill="midnightblue" stroke="midnightblue" points="126.842,-296.812 137.248,-294.821 127.871,-289.888 126.842,-296.812"/>
</g>
<!-- Node67 -->
<g id="node21" class="node"><title>Node67</title>
<g id="a_node21"><a xlink:href="namespacemom__boundary__update.html#a6090ba327f68ee8e217f2773cdd2e8f7" target="_top" xlink:title="Calls appropriate routine to update the open boundary conditions.">
<polygon fill="white" stroke="black" points="149,-49 149,-79 251,-79 251,-49 149,-49"/>
<text text-anchor="start" x="157" y="-67" font-family="Helvetica,sans-Serif" font-size="10.00">mom_boundary_update</text>
<text text-anchor="middle" x="200" y="-56" font-family="Helvetica,sans-Serif" font-size="10.00">::update_obc_data</text>
</a>
</g>
</g>
<!-- Node47&#45;&gt;Node67 -->
<g id="edge29" class="edge"><title>Node47&#45;&gt;Node67</title>
<path fill="none" stroke="midnightblue" d="M54.5717,-261.427C62.3915,-222.352 84.6037,-136.939 136,-88 137.43,-86.638 138.946,-85.3513 140.529,-84.1358"/>
<polygon fill="midnightblue" stroke="midnightblue" points="142.482,-87.041 148.929,-78.634 138.646,-81.1853 142.482,-87.041"/>
</g>
<!-- Node69 -->
<g id="node23" class="node"><title>Node69</title>
<g id="a_node23"><a xlink:href="namespacemom__vert__friction.html#a82bae17e9c3b1a5f1eedb6c1d14c5998" target="_top" xlink:title="Velocity components which exceed a threshold for physically reasonable values are truncated....">
<polygon fill="white" stroke="black" points="157.5,-0 157.5,-30 242.5,-30 242.5,-0 157.5,-0"/>
<text text-anchor="start" x="165.5" y="-18" font-family="Helvetica,sans-Serif" font-size="10.00">mom_vert_friction::</text>
<text text-anchor="middle" x="200" y="-7" font-family="Helvetica,sans-Serif" font-size="10.00">vertvisc_limit_vel</text>
</a>
</g>
</g>
<!-- Node47&#45;&gt;Node69 -->
<g id="edge31" class="edge"><title>Node47&#45;&gt;Node69</title>
<path fill="none" stroke="midnightblue" d="M52.4746,-261.401C56.8498,-215.346 73.6678,-103.07 136,-39 139.581,-35.3193 143.785,-32.1952 148.293,-29.5452"/>
<polygon fill="midnightblue" stroke="midnightblue" points="149.911,-32.649 157.254,-25.0115 146.751,-26.4029 149.911,-32.649"/>
</g>
<!-- Node49 -->
<g id="node3" class="node"><title>Node49</title>
<g id="a_node3"><a xlink:href="namespacemom__error__handler.html#a460cfb79a06c29fc249952c2a3710d67" target="_top" xlink:title=" ">
<polygon fill="white" stroke="black" points="446.5,-440 446.5,-470 539.5,-470 539.5,-440 446.5,-440"/>
<text text-anchor="start" x="454.5" y="-458" font-family="Helvetica,sans-Serif" font-size="10.00">mom_error_handler::</text>
<text text-anchor="middle" x="493" y="-447" font-family="Helvetica,sans-Serif" font-size="10.00">mom_error</text>
</a>
</g>
</g>
<!-- Node48&#45;&gt;Node49 -->
<g id="edge2" class="edge"><title>Node48&#45;&gt;Node49</title>
<path fill="none" stroke="midnightblue" d="M389.048,-707.402C396.73,-703.891 404.314,-699.2 410,-693 466.864,-630.996 484.576,-527.663 489.863,-480.218"/>
<polygon fill="midnightblue" stroke="midnightblue" points="493.353,-480.498 490.886,-470.194 486.389,-479.787 493.353,-480.498"/>
</g>
<!-- Node50 -->
<g id="node4" class="node"><title>Node50</title>
<g id="a_node4"><a xlink:href="namespacemom__error__handler.html#ad5f00a53059c72fe2332d1436c80ca71" target="_top" xlink:title=" ">
<polygon fill="white" stroke="black" points="576.5,-440 576.5,-470 669.5,-470 669.5,-440 576.5,-440"/>
<text text-anchor="start" x="584.5" y="-458" font-family="Helvetica,sans-Serif" font-size="10.00">mom_error_handler::</text>
<text text-anchor="middle" x="623" y="-447" font-family="Helvetica,sans-Serif" font-size="10.00">is_root_pe</text>
</a>
</g>
</g>
<!-- Node49&#45;&gt;Node50 -->
<g id="edge3" class="edge"><title>Node49&#45;&gt;Node50</title>
<path fill="none" stroke="midnightblue" d="M539.849,-455C548.408,-455 557.439,-455 566.258,-455"/>
<polygon fill="midnightblue" stroke="midnightblue" points="566.471,-458.5 576.471,-455 566.471,-451.5 566.471,-458.5"/>
</g>
<!-- Node52 -->
<g id="node6" class="node"><title>Node52</title>
<g id="a_node6"><a xlink:href="namespacemom__coriolisadv.html#a9f9fa1eb1086659158a0dd85bfdea182" target="_top" xlink:title="Calculates the acceleration due to the gradient of kinetic energy.">
<polygon fill="white" stroke="black" points="302.5,-631.5 302.5,-650.5 407.5,-650.5 407.5,-631.5 302.5,-631.5"/>
<text text-anchor="middle" x="355" y="-638.5" font-family="Helvetica,sans-Serif" font-size="10.00">mom_coriolisadv::gradke</text>
</a>
</g>
</g>
<!-- Node51&#45;&gt;Node52 -->
<g id="edge5" class="edge"><title>Node51&#45;&gt;Node52</title>
<path fill="none" stroke="midnightblue" d="M257.103,-641C268.58,-641 280.719,-641 292.378,-641"/>
<polygon fill="midnightblue" stroke="midnightblue" points="292.471,-644.5 302.471,-641 292.471,-637.5 292.471,-644.5"/>
</g>
<!-- Node51&#45;&gt;Node49 -->
<g id="edge6" class="edge"><title>Node51&#45;&gt;Node49</title>
<path fill="none" stroke="midnightblue" d="M220.924,-650.507C260.698,-667.958 351.168,-699.831 410,-660 470.553,-619.003 486.394,-525.268 490.536,-480.161"/>
<polygon fill="midnightblue" stroke="midnightblue" points="494.036,-480.298 491.34,-470.052 487.058,-479.743 494.036,-480.298"/>
</g>
<!-- Node54&#45;&gt;Node49 -->
<g id="edge9" class="edge"><title>Node54&#45;&gt;Node49</title>
<path fill="none" stroke="midnightblue" d="M395.253,-581.862C400.482,-578.996 405.562,-575.712 410,-572 441.212,-545.895 466.094,-505.203 479.942,-479.339"/>
<polygon fill="midnightblue" stroke="midnightblue" points="483.18,-480.699 484.699,-470.213 476.973,-477.463 483.18,-480.699"/>
</g>
<!-- Node55&#45;&gt;Node49 -->
<g id="edge11" class="edge"><title>Node55&#45;&gt;Node49</title>
<path fill="none" stroke="midnightblue" d="M251.025,-455C302.625,-455 382.908,-455 436.45,-455"/>
<polygon fill="midnightblue" stroke="midnightblue" points="436.454,-458.5 446.454,-455 436.454,-451.5 436.454,-458.5"/>
</g>
<!-- Node56 -->
<g id="node10" class="node"><title>Node56</title>
<g id="a_node10"><a xlink:href="namespacemom__legacy__barotropic.html#aa06249abf57a70498ab07eee534e5e52" target="_top" xlink:title=" ">
<polygon fill="white" stroke="black" points="303.5,-396 303.5,-426 406.5,-426 406.5,-396 303.5,-396"/>
<text text-anchor="start" x="311.5" y="-414" font-family="Helvetica,sans-Serif" font-size="10.00">mom_legacy_barotropic</text>
<text text-anchor="middle" x="355" y="-403" font-family="Helvetica,sans-Serif" font-size="10.00">::bt_cont_to_face_areas</text>
</a>
</g>
</g>
<!-- Node55&#45;&gt;Node56 -->
<g id="edge12" class="edge"><title>Node55&#45;&gt;Node56</title>
<path fill="none" stroke="midnightblue" d="M251.098,-440.593C264.693,-436.683 279.557,-432.408 293.654,-428.354"/>
<polygon fill="midnightblue" stroke="midnightblue" points="294.623,-431.718 303.266,-425.59 292.688,-424.99 294.623,-431.718"/>
</g>
<!-- Node57 -->
<g id="node11" class="node"><title>Node57</title>
<g id="a_node11"><a xlink:href="namespacemom__legacy__barotropic.html#ab334a4e8ef23ec6d784b24b6336d22f7" target="_top" xlink:title=" ">
<polygon fill="white" stroke="black" points="304,-533 304,-563 406,-563 406,-533 304,-533"/>
<text text-anchor="start" x="312" y="-551" font-family="Helvetica,sans-Serif" font-size="10.00">mom_legacy_barotropic</text>
<text text-anchor="middle" x="355" y="-540" font-family="Helvetica,sans-Serif" font-size="10.00">::find_face_areas</text>
</a>
</g>
</g>
<!-- Node55&#45;&gt;Node57 -->
<g id="edge13" class="edge"><title>Node55&#45;&gt;Node57</title>
<path fill="none" stroke="midnightblue" d="M220.831,-470.098C240.371,-484.614 271.372,-506.695 300,-523 303.243,-524.847 306.646,-526.671 310.099,-528.44"/>
<polygon fill="midnightblue" stroke="midnightblue" points="308.767,-531.686 319.283,-532.98 311.869,-525.411 308.767,-531.686"/>
</g>
<!-- Node58 -->
<g id="node12" class="node"><title>Node58</title>
<g id="a_node12"><a xlink:href="namespacemom__tidal__forcing.html#a0a1564c68489a35802c626a07f4629d7" target="_top" xlink:title=" ">
<polygon fill="white" stroke="black" points="306.5,-484 306.5,-514 403.5,-514 403.5,-484 306.5,-484"/>
<text text-anchor="start" x="314.5" y="-502" font-family="Helvetica,sans-Serif" font-size="10.00">mom_tidal_forcing::</text>
<text text-anchor="middle" x="355" y="-491" font-family="Helvetica,sans-Serif" font-size="10.00">tidal_forcing_sensitivity</text>
</a>
</g>
</g>
<!-- Node55&#45;&gt;Node58 -->
<g id="edge14" class="edge"><title>Node55&#45;&gt;Node58</title>
<path fill="none" stroke="midnightblue" d="M251.098,-469.407C265.682,-473.601 281.725,-478.215 296.716,-482.526"/>
<polygon fill="midnightblue" stroke="midnightblue" points="295.811,-485.908 306.389,-485.308 297.746,-479.18 295.811,-485.908"/>
</g>
<!-- Node62&#45;&gt;Node49 -->
<g id="edge19" class="edge"><title>Node62&#45;&gt;Node49</title>
<path fill="none" stroke="midnightblue" d="M263.913,-347.603C306.794,-353.291 363.928,-364.619 410,-387 433.091,-398.217 455.248,-417.261 470.697,-432.347"/>
<polygon fill="midnightblue" stroke="midnightblue" points="468.596,-435.198 478.133,-439.813 473.556,-430.258 468.596,-435.198"/>
</g>
<!-- Node63 -->
<g id="node17" class="node"><title>Node63</title>
<g id="a_node17"><a xlink:href="namespacemom__set__visc.html#a992756b5043feccdafd9580774373375" target="_top" xlink:title=" ">
<polygon fill="white" stroke="black" points="300,-269.5 300,-288.5 410,-288.5 410,-269.5 300,-269.5"/>
<text text-anchor="middle" x="355" y="-276.5" font-family="Helvetica,sans-Serif" font-size="10.00">mom_set_visc::set_v_at_u</text>
</a>
</g>
</g>
<!-- Node62&#45;&gt;Node63 -->
<g id="edge20" class="edge"><title>Node62&#45;&gt;Node63</title>
<path fill="none" stroke="midnightblue" d="M239.323,-332.415C247.633,-329.796 256.25,-326.653 264,-323 281.394,-314.801 282.867,-307.732 300,-299 304.668,-296.621 309.688,-294.378 314.72,-292.315"/>
<polygon fill="midnightblue" stroke="midnightblue" points="316.27,-295.467 324.322,-288.58 313.733,-288.943 316.27,-295.467"/>
</g>
<!-- Node64 -->
<g id="node18" class="node"><title>Node64</title>
<g id="a_node18"><a xlink:href="namespacemom__set__visc.html#a08eb74fc6d027dd5ac6701f90e009370" target="_top" xlink:title=" ">
<polygon fill="white" stroke="black" points="300,-231.5 300,-250.5 410,-250.5 410,-231.5 300,-231.5"/>
<text text-anchor="middle" x="355" y="-238.5" font-family="Helvetica,sans-Serif" font-size="10.00">mom_set_visc::set_u_at_v</text>
</a>
</g>
</g>
<!-- Node62&#45;&gt;Node64 -->
<g id="edge21" class="edge"><title>Node62&#45;&gt;Node64</title>
<path fill="none" stroke="midnightblue" d="M247.434,-332.491C253.372,-330.022 259.084,-326.913 264,-323 289.232,-302.916 275.231,-280.651 300,-260 302.037,-258.302 304.236,-256.751 306.542,-255.335"/>
<polygon fill="midnightblue" stroke="midnightblue" points="308.571,-258.226 315.842,-250.52 305.352,-252.01 308.571,-258.226"/>
</g>
<!-- Node65 -->
<g id="node19" class="node"><title>Node65</title>
<g id="a_node19"><a xlink:href="namespacemom__eos.html#a204529f8434a0322314e6ce2a9762436" target="_top" xlink:title="Calls the appropriate subroutine to calculate density derivatives for 1&#45;D array inputs.">
<polygon fill="white" stroke="black" points="311.5,-308 311.5,-338 398.5,-338 398.5,-308 311.5,-308"/>
<text text-anchor="start" x="319.5" y="-326" font-family="Helvetica,sans-Serif" font-size="10.00">mom_eos::calculate</text>
<text text-anchor="middle" x="355" y="-315" font-family="Helvetica,sans-Serif" font-size="10.00">_density_derivs</text>
</a>
</g>
</g>
<!-- Node62&#45;&gt;Node65 -->
<g id="edge22" class="edge"><title>Node62&#45;&gt;Node65</title>
<path fill="none" stroke="midnightblue" d="M263.672,-334.217C276.18,-332.664 289.198,-331.047 301.328,-329.541"/>
<polygon fill="midnightblue" stroke="midnightblue" points="301.785,-333.011 311.278,-328.305 300.923,-326.065 301.785,-333.011"/>
</g>
<!-- Node65&#45;&gt;Node49 -->
<g id="edge23" class="edge"><title>Node65&#45;&gt;Node49</title>
<path fill="none" stroke="midnightblue" d="M387.891,-338.041C395.513,-342.342 403.358,-347.401 410,-353 437.331,-376.039 462.039,-409.283 477.025,-431.488"/>
<polygon fill="midnightblue" stroke="midnightblue" points="474.209,-433.575 482.647,-439.982 480.046,-429.711 474.209,-433.575"/>
</g>
<!-- Node66&#45;&gt;Node49 -->
<g id="edge25" class="edge"><title>Node66&#45;&gt;Node49</title>
<path fill="none" stroke="midnightblue" d="M245.469,-294.49C252.105,-291.808 258.54,-288.38 264,-284 288.855,-264.062 272.385,-237.898 300,-222 342.369,-197.608 370.103,-193.745 410,-222 478.162,-270.272 490.071,-379.962 491.869,-429.673"/>
<polygon fill="midnightblue" stroke="midnightblue" points="488.375,-429.96 492.123,-439.87 495.373,-429.785 488.375,-429.96"/>
</g>
<!-- Node66&#45;&gt;Node65 -->
<g id="edge26" class="edge"><title>Node66&#45;&gt;Node65</title>
<path fill="none" stroke="midnightblue" d="M262.79,-311.673C275.489,-313.25 288.751,-314.897 301.103,-316.431"/>
<polygon fill="midnightblue" stroke="midnightblue" points="300.876,-319.93 311.232,-317.689 301.739,-312.983 300.876,-319.93"/>
</g>
<!-- Node66&#45;&gt;Node63 -->
<g id="edge27" class="edge"><title>Node66&#45;&gt;Node63</title>
<path fill="none" stroke="midnightblue" d="M259.279,-294.477C269.286,-292.842 279.735,-291.135 289.885,-289.476"/>
<polygon fill="midnightblue" stroke="midnightblue" points="290.604,-292.905 299.908,-287.839 289.475,-285.997 290.604,-292.905"/>
</g>
<!-- Node66&#45;&gt;Node64 -->
<g id="edge28" class="edge"><title>Node66&#45;&gt;Node64</title>
<path fill="none" stroke="midnightblue" d="M236.993,-294.487C246.005,-291.589 255.518,-288.073 264,-284 281.334,-275.676 282.796,-268.591 300,-260 304.112,-257.946 308.501,-256.015 312.933,-254.228"/>
<polygon fill="midnightblue" stroke="midnightblue" points="314.502,-257.376 322.61,-250.556 312.019,-250.831 314.502,-257.376"/>
</g>
<!-- Node68 -->
<g id="node22" class="node"><title>Node68</title>
<g id="a_node22"><a xlink:href="namespacetidal__bay__initialization.html#a6626f241b69cf1d39b0cdf9a30f03032" target="_top" xlink:title="This subroutine sets the properties of flow at open boundary conditions.">
<polygon fill="white" stroke="black" points="302.5,-49 302.5,-79 407.5,-79 407.5,-49 302.5,-49"/>
<text text-anchor="start" x="310.5" y="-67" font-family="Helvetica,sans-Serif" font-size="10.00">tidal_bay_initialization</text>
<text text-anchor="middle" x="355" y="-56" font-family="Helvetica,sans-Serif" font-size="10.00">::tidal_bay_set_obc_data</text>
</a>
</g>
</g>
<!-- Node67&#45;&gt;Node68 -->
<g id="edge30" class="edge"><title>Node67&#45;&gt;Node68</title>
<path fill="none" stroke="midnightblue" d="M251.098,-64C264.224,-64 278.531,-64 292.19,-64"/>
<polygon fill="midnightblue" stroke="midnightblue" points="292.478,-67.5001 302.478,-64 292.478,-60.5001 292.478,-67.5001"/>
</g>
</g>
</svg>
