<?xml version="1.0" encoding="UTF-8" standalone="no"?>
<!DOCTYPE svg PUBLIC "-//W3C//DTD SVG 1.1//EN"
 "http://www.w3.org/Graphics/SVG/1.1/DTD/svg11.dtd">
<!-- Generated by graphviz version 2.30.1 (20170916.1124)
 -->
<!-- Title: pseudo_salt_tracer::initialize_pseudo_salt_tracer Pages: 1 -->
<svg width="642pt" height="126pt"
 viewBox="0.00 0.00 642.00 126.00" xmlns="http://www.w3.org/2000/svg" xmlns:xlink="http://www.w3.org/1999/xlink">
<g id="graph0" class="graph" transform="scale(1 1) rotate(0) translate(4 122)">
<title>pseudo_salt_tracer::initialize_pseudo_salt_tracer</title>
<polygon fill="white" stroke="white" points="-4,5 -4,-122 639,-122 639,5 -4,5"/>
<!-- Node0 -->
<g id="node1" class="node"><title>Node0</title>
<g id="a_node1"><a xlink:title=" ">
<polygon fill="#bfbfbf" stroke="black" points="0.5,-38.5 0.5,-79.5 85.5,-79.5 85.5,-38.5 0.5,-38.5"/>
<text text-anchor="start" x="8.5" y="-67.5" font-family="Helvetica,sans-Serif" font-size="10.00">pseudo_salt_tracer</text>
<text text-anchor="start" x="8.5" y="-56.5" font-family="Helvetica,sans-Serif" font-size="10.00">::initialize_pseudo</text>
<text text-anchor="middle" x="43" y="-45.5" font-family="Helvetica,sans-Serif" font-size="10.00">_salt_tracer</text>
</a>
</g>
</g>
<!-- Node1 -->
<g id="node2" class="node"><title>Node1</title>
<g id="a_node2"><a xlink:href="namespacemom__tracer__registry.html#ac008525fee272a225a19998ae437b5bf" target="_top" xlink:title="This subroutine adds diagnostic arrays for a tracer that has previously been registered by a call to ...">
<polygon fill="white" stroke="black" points="267,-88 267,-118 371,-118 371,-88 267,-88"/>
<text text-anchor="start" x="275" y="-106" font-family="Helvetica,sans-Serif" font-size="10.00">mom_tracer_registry</text>
<text text-anchor="middle" x="319" y="-95" font-family="Helvetica,sans-Serif" font-size="10.00">::add_tracer_diagnostics</text>
</a>
</g>
</g>
<!-- Node0&#45;&gt;Node1 -->
<g id="edge1" class="edge"><title>Node0&#45;&gt;Node1</title>
<path fill="none" stroke="midnightblue" d="M85.5084,-70.0249C97.2488,-72.8937 110.077,-75.7945 122,-78 166.898,-86.3047 218.094,-92.732 256.901,-96.9891"/>
<polygon fill="midnightblue" stroke="midnightblue" points="256.677,-100.485 266.995,-98.0781 257.428,-93.5255 256.677,-100.485"/>
</g>
<!-- Node4 -->
<g id="node5" class="node"><title>Node4</title>
<g id="a_node5"><a xlink:href="namespacemom__io.html#a23e82d1d89d9bb1c9bdf802ce80d4508" target="_top" xlink:title="This routine queries vardesc.">
<polygon fill="white" stroke="black" points="124,-49.5 124,-68.5 226,-68.5 226,-49.5 124,-49.5"/>
<text text-anchor="middle" x="175" y="-56.5" font-family="Helvetica,sans-Serif" font-size="10.00">mom_io::query_vardesc</text>
</a>
</g>
</g>
<!-- Node0&#45;&gt;Node4 -->
<g id="edge4" class="edge"><title>Node0&#45;&gt;Node4</title>
<path fill="none" stroke="midnightblue" d="M85.8484,-59C94.6788,-59 104.165,-59 113.525,-59"/>
<polygon fill="midnightblue" stroke="midnightblue" points="113.596,-62.5001 123.596,-59 113.596,-55.5001 113.596,-62.5001"/>
</g>
<!-- Node6 -->
<g id="node7" class="node"><title>Node6</title>
<g id="a_node7"><a xlink:href="namespacemom__diag__to__z.html#a6946a3316715041c5944df17db1aef74" target="_top" xlink:title=" ">
<polygon fill="white" stroke="black" points="122.5,-0 122.5,-30 227.5,-30 227.5,-0 122.5,-0"/>
<text text-anchor="start" x="130.5" y="-18" font-family="Helvetica,sans-Serif" font-size="10.00">mom_diag_to_z::register</text>
<text text-anchor="middle" x="175" y="-7" font-family="Helvetica,sans-Serif" font-size="10.00">_z_tracer</text>
</a>
</g>
</g>
<!-- Node0&#45;&gt;Node6 -->
<g id="edge7" class="edge"><title>Node0&#45;&gt;Node6</title>
<path fill="none" stroke="midnightblue" d="M85.8484,-44.8359C96.6412,-41.183 108.413,-37.1985 119.739,-33.3654"/>
<polygon fill="midnightblue" stroke="midnightblue" points="121.19,-36.5693 129.54,-30.0481 118.946,-29.9388 121.19,-36.5693"/>
</g>
<!-- Node2 -->
<g id="node3" class="node"><title>Node2</title>
<g id="a_node3"><a xlink:href="namespacemom__error__handler.html#a460cfb79a06c29fc249952c2a3710d67" target="_top" xlink:title=" ">
<polygon fill="white" stroke="black" points="410.5,-44 410.5,-74 503.5,-74 503.5,-44 410.5,-44"/>
<text text-anchor="start" x="418.5" y="-62" font-family="Helvetica,sans-Serif" font-size="10.00">mom_error_handler::</text>
<text text-anchor="middle" x="457" y="-51" font-family="Helvetica,sans-Serif" font-size="10.00">mom_error</text>
</a>
</g>
</g>
<!-- Node1&#45;&gt;Node2 -->
<g id="edge2" class="edge"><title>Node1&#45;&gt;Node2</title>
<path fill="none" stroke="midnightblue" d="M366.423,-87.9808C377.374,-84.4378 389.158,-80.6254 400.465,-76.9671"/>
<polygon fill="midnightblue" stroke="midnightblue" points="401.81,-80.2108 410.247,-73.8025 399.655,-73.5507 401.81,-80.2108"/>
</g>
<!-- Node3 -->
<g id="node4" class="node"><title>Node3</title>
<g id="a_node4"><a xlink:href="namespacemom__error__handler.html#ad5f00a53059c72fe2332d1436c80ca71" target="_top" xlink:title=" ">
<polygon fill="white" stroke="black" points="540.5,-44 540.5,-74 633.5,-74 633.5,-44 540.5,-44"/>
<text text-anchor="start" x="548.5" y="-62" font-family="Helvetica,sans-Serif" font-size="10.00">mom_error_handler::</text>
<text text-anchor="middle" x="587" y="-51" font-family="Helvetica,sans-Serif" font-size="10.00">is_root_pe</text>
</a>
</g>
</g>
<!-- Node2&#45;&gt;Node3 -->
<g id="edge3" class="edge"><title>Node2&#45;&gt;Node3</title>
<path fill="none" stroke="midnightblue" d="M503.849,-59C512.408,-59 521.439,-59 530.258,-59"/>
<polygon fill="midnightblue" stroke="midnightblue" points="530.471,-62.5001 540.471,-59 530.471,-55.5001 530.471,-62.5001"/>
</g>
<!-- Node5 -->
<g id="node6" class="node"><title>Node5</title>
<g id="a_node6"><a xlink:href="namespacemom__io.html#ac4bc408e8b38dbd669842753f26ebf88" target="_top" xlink:title="Copies a string.">
<polygon fill="white" stroke="black" points="264,-49.5 264,-68.5 374,-68.5 374,-49.5 264,-49.5"/>
<text text-anchor="middle" x="319" y="-56.5" font-family="Helvetica,sans-Serif" font-size="10.00">mom_io::safe_string_copy</text>
</a>
</g>
</g>
<!-- Node4&#45;&gt;Node5 -->
<g id="edge5" class="edge"><title>Node4&#45;&gt;Node5</title>
<path fill="none" stroke="midnightblue" d="M226.064,-59C234.882,-59 244.174,-59 253.324,-59"/>
<polygon fill="midnightblue" stroke="midnightblue" points="253.562,-62.5001 263.562,-59 253.562,-55.5001 253.562,-62.5001"/>
</g>
<!-- Node5&#45;&gt;Node2 -->
<g id="edge6" class="edge"><title>Node5&#45;&gt;Node2</title>
<path fill="none" stroke="midnightblue" d="M374.142,-59C382.767,-59 391.702,-59 400.361,-59"/>
<polygon fill="midnightblue" stroke="midnightblue" points="400.364,-62.5001 410.364,-59 400.364,-55.5001 400.364,-62.5001"/>
</g>
<!-- Node7 -->
<g id="node8" class="node"><title>Node7</title>
<g id="a_node8"><a xlink:href="namespacemom__diag__to__z.html#adde57f2503f5c182af511fba0f4c83ea" target="_top" xlink:title=" ">
<polygon fill="white" stroke="black" points="266.5,-0 266.5,-30 371.5,-30 371.5,-0 266.5,-0"/>
<text text-anchor="start" x="274.5" y="-18" font-family="Helvetica,sans-Serif" font-size="10.00">mom_diag_to_z::register</text>
<text text-anchor="middle" x="319" y="-7" font-family="Helvetica,sans-Serif" font-size="10.00">_z_tracer_low</text>
</a>
</g>
</g>
<!-- Node6&#45;&gt;Node7 -->
<g id="edge8" class="edge"><title>Node6&#45;&gt;Node7</title>
<path fill="none" stroke="midnightblue" d="M227.667,-15C236.868,-15 246.538,-15 255.992,-15"/>
<polygon fill="midnightblue" stroke="midnightblue" points="256.134,-18.5001 266.134,-15 256.134,-11.5001 256.134,-18.5001"/>
</g>
<!-- Node7&#45;&gt;Node2 -->
<g id="edge9" class="edge"><title>Node7&#45;&gt;Node2</title>
<path fill="none" stroke="midnightblue" d="M366.423,-30.0192C377.374,-33.5622 389.158,-37.3746 400.465,-41.0329"/>
<polygon fill="midnightblue" stroke="midnightblue" points="399.655,-44.4493 410.247,-44.1975 401.81,-37.7892 399.655,-44.4493"/>
</g>
</g>
</svg>
