<?xml version="1.0" encoding="UTF-8" standalone="no"?>
<!DOCTYPE svg PUBLIC "-//W3C//DTD SVG 1.1//EN"
 "http://www.w3.org/Graphics/SVG/1.1/DTD/svg11.dtd">
<!-- Generated by graphviz version 2.30.1 (20170916.1124)
 -->
<!-- Title: mom_io::var_desc Pages: 1 -->
<svg width="618pt" height="1056pt"
 viewBox="0.00 0.00 618.00 1056.00" xmlns="http://www.w3.org/2000/svg" xmlns:xlink="http://www.w3.org/1999/xlink">
<g id="graph0" class="graph" transform="scale(1 1) rotate(0) translate(4 1052)">
<title>mom_io::var_desc</title>
<polygon fill="white" stroke="white" points="-4,5 -4,-1052 615,-1052 615,5 -4,5"/>
<!-- Node165 -->
<g id="node1" class="node"><title>Node165</title>
<g id="a_node1"><a xlink:title="Returns a vardesc type whose elements have been filled with the provided fields. The argument name is...">
<polygon fill="#bfbfbf" stroke="black" points="528,-520.5 528,-539.5 610,-539.5 610,-520.5 528,-520.5"/>
<text text-anchor="middle" x="569" y="-527.5" font-family="Helvetica,sans-Serif" font-size="10.00">mom_io::var_desc</text>
</a>
</g>
</g>
<!-- Node166 -->
<g id="node2" class="node"><title>Node166</title>
<g id="a_node2"><a xlink:href="namespacemom__diabatic__driver.html#afa0b30bd6f0e080bcacbd6dcb15ff990" target="_top" xlink:title="This routine initializes the diabatic driver module.">
<polygon fill="white" stroke="black" points="387.5,-1018 387.5,-1048 478.5,-1048 478.5,-1018 387.5,-1018"/>
<text text-anchor="start" x="395.5" y="-1036" font-family="Helvetica,sans-Serif" font-size="10.00">mom_diabatic_driver</text>
<text text-anchor="middle" x="433" y="-1025" font-family="Helvetica,sans-Serif" font-size="10.00">::diabatic_driver_init</text>
</a>
</g>
</g>
<!-- Node165&#45;&gt;Node166 -->
<g id="edge1" class="edge"><title>Node165&#45;&gt;Node166</title>
<path fill="none" stroke="midnightblue" d="M567.154,-549.795C563.391,-629.798 545.906,-928.501 492,-1003 487.614,-1009.06 481.634,-1013.99 475.174,-1017.97"/>
<polygon fill="midnightblue" stroke="midnightblue" points="570.658,-549.779 567.613,-539.631 563.666,-549.463 570.658,-549.779"/>
</g>
<!-- Node167 -->
<g id="node3" class="node"><title>Node167</title>
<g id="a_node3"><a xlink:href="namespacemom__meke.html#a1900316331157e48f1a6029bac63fbd0" target="_top" xlink:title="Allocates memory and register restart fields for the MOM_MEKE module.">
<polygon fill="white" stroke="black" points="226.5,-887 226.5,-917 329.5,-917 329.5,-887 226.5,-887"/>
<text text-anchor="start" x="234.5" y="-905" font-family="Helvetica,sans-Serif" font-size="10.00">mom_meke::meke_alloc</text>
<text text-anchor="middle" x="278" y="-894" font-family="Helvetica,sans-Serif" font-size="10.00">_register_restart</text>
</a>
</g>
</g>
<!-- Node165&#45;&gt;Node167 -->
<g id="edge2" class="edge"><title>Node165&#45;&gt;Node167</title>
<path fill="none" stroke="midnightblue" d="M567.674,-550.096C565.958,-627.394 555.411,-903.879 492,-957 434.325,-1005.32 339.282,-946.701 298.536,-917.117"/>
<polygon fill="midnightblue" stroke="midnightblue" points="571.179,-549.89 567.875,-539.823 564.18,-549.753 571.179,-549.89"/>
</g>
<!-- Node170 -->
<g id="node6" class="node"><title>Node170</title>
<g id="a_node6"><a xlink:href="namespacemom__mixed__layer__restrat.html#aea597553dfa98cc7c972784f476ad3fc" target="_top" xlink:title="Allocate and regsiter fields in the mixedlayer restratification structure for restarts.">
<polygon fill="white" stroke="black" points="218.5,-739.5 218.5,-780.5 337.5,-780.5 337.5,-739.5 218.5,-739.5"/>
<text text-anchor="start" x="226.5" y="-768.5" font-family="Helvetica,sans-Serif" font-size="10.00">mom_mixed_layer_restrat</text>
<text text-anchor="start" x="226.5" y="-757.5" font-family="Helvetica,sans-Serif" font-size="10.00">::mixedlayer_restrat_register</text>
<text text-anchor="middle" x="278" y="-746.5" font-family="Helvetica,sans-Serif" font-size="10.00">_restarts</text>
</a>
</g>
</g>
<!-- Node165&#45;&gt;Node170 -->
<g id="edge5" class="edge"><title>Node165&#45;&gt;Node170</title>
<path fill="none" stroke="midnightblue" d="M567.442,-549.863C564.905,-623.946 551.83,-882.421 492,-932 451.618,-965.463 419.167,-958.652 374,-932 359.384,-923.375 310.086,-824.226 288.858,-780.501"/>
<polygon fill="midnightblue" stroke="midnightblue" points="570.948,-549.722 567.764,-539.617 563.952,-549.502 570.948,-549.722"/>
</g>
<!-- Node171 -->
<g id="node7" class="node"><title>Node171</title>
<g id="a_node7"><a xlink:href="namespaceadvection__test__tracer.html#a6cc3e00a5d5cb9e31339c784eb966c91" target="_top" xlink:title=" ">
<polygon fill="white" stroke="black" points="386.5,-881.5 386.5,-922.5 479.5,-922.5 479.5,-881.5 386.5,-881.5"/>
<text text-anchor="start" x="394.5" y="-910.5" font-family="Helvetica,sans-Serif" font-size="10.00">advection_test_tracer</text>
<text text-anchor="start" x="394.5" y="-899.5" font-family="Helvetica,sans-Serif" font-size="10.00">::register_advection</text>
<text text-anchor="middle" x="433" y="-888.5" font-family="Helvetica,sans-Serif" font-size="10.00">_test_tracer</text>
</a>
</g>
</g>
<!-- Node165&#45;&gt;Node171 -->
<g id="edge7" class="edge"><title>Node165&#45;&gt;Node171</title>
<path fill="none" stroke="midnightblue" d="M565.77,-549.791C558.143,-614.585 531.369,-819.171 492,-871 488.547,-875.546 484.23,-879.499 479.519,-882.917"/>
<polygon fill="midnightblue" stroke="midnightblue" points="569.266,-550.031 566.936,-539.695 562.312,-549.228 569.266,-550.031"/>
</g>
<!-- Node172 -->
<g id="node8" class="node"><title>Node172</title>
<g id="a_node8"><a xlink:href="namespacemom__barotropic.html#a28fa2e7600a471735c3b827ac08ed94b" target="_top" xlink:title=" ">
<polygon fill="white" stroke="black" points="379.5,-832 379.5,-862 486.5,-862 486.5,-832 379.5,-832"/>
<text text-anchor="start" x="387.5" y="-850" font-family="Helvetica,sans-Serif" font-size="10.00">mom_barotropic::register</text>
<text text-anchor="middle" x="433" y="-839" font-family="Helvetica,sans-Serif" font-size="10.00">_barotropic_restarts</text>
</a>
</g>
</g>
<!-- Node165&#45;&gt;Node172 -->
<g id="edge8" class="edge"><title>Node165&#45;&gt;Node172</title>
<path fill="none" stroke="midnightblue" d="M568.478,-549.75C568.659,-601.036 562.25,-740.14 492,-822 488.715,-825.828 484.738,-829.087 480.424,-831.859"/>
<polygon fill="midnightblue" stroke="midnightblue" points="571.977,-549.637 568.348,-539.683 564.977,-549.727 571.977,-549.637"/>
</g>
<!-- Node174 -->
<g id="node10" class="node"><title>Node174</title>
<g id="a_node10"><a xlink:href="namespaceboundary__impulse__tracer.html#a8c333281de8a3f7a255a0da4187427ad" target="_top" xlink:title="Read in runtime options and add boundary impulse tracer to tracer registry.">
<polygon fill="white" stroke="black" points="374,-771.5 374,-812.5 492,-812.5 492,-771.5 374,-771.5"/>
<text text-anchor="start" x="382" y="-800.5" font-family="Helvetica,sans-Serif" font-size="10.00">boundary_impulse_tracer</text>
<text text-anchor="start" x="382" y="-789.5" font-family="Helvetica,sans-Serif" font-size="10.00">::register_boundary_impulse</text>
<text text-anchor="middle" x="433" y="-778.5" font-family="Helvetica,sans-Serif" font-size="10.00">_tracer</text>
</a>
</g>
</g>
<!-- Node165&#45;&gt;Node174 -->
<g id="edge10" class="edge"><title>Node165&#45;&gt;Node174</title>
<path fill="none" stroke="midnightblue" d="M566.516,-549.699C562.295,-592.996 546.713,-697.699 492,-762 489.061,-765.454 485.625,-768.56 481.918,-771.344"/>
<polygon fill="midnightblue" stroke="midnightblue" points="570.012,-549.902 567.396,-539.636 563.039,-549.293 570.012,-549.902"/>
</g>
<!-- Node175 -->
<g id="node11" class="node"><title>Node175</title>
<g id="a_node11"><a xlink:href="namespacemom__controlled__forcing.html#a8bfffde62f6a555439eba94884a1fc2e" target="_top" xlink:title="This subroutine is used to allocate and register any fields in this module that should be written to ...">
<polygon fill="white" stroke="black" points="382,-711.5 382,-752.5 484,-752.5 484,-711.5 382,-711.5"/>
<text text-anchor="start" x="390" y="-740.5" font-family="Helvetica,sans-Serif" font-size="10.00">mom_controlled_forcing</text>
<text text-anchor="start" x="390" y="-729.5" font-family="Helvetica,sans-Serif" font-size="10.00">::register_ctrl_forcing</text>
<text text-anchor="middle" x="433" y="-718.5" font-family="Helvetica,sans-Serif" font-size="10.00">_restarts</text>
</a>
</g>
</g>
<!-- Node165&#45;&gt;Node175 -->
<g id="edge11" class="edge"><title>Node165&#45;&gt;Node175</title>
<path fill="none" stroke="midnightblue" d="M563.765,-549.499C555.423,-583.884 533.921,-655.918 492,-701 488.424,-704.846 484.26,-708.311 479.835,-711.407"/>
<polygon fill="midnightblue" stroke="midnightblue" points="567.179,-550.271 566.02,-539.74 560.358,-548.695 567.179,-550.271"/>
</g>
<!-- Node176 -->
<g id="node12" class="node"><title>Node176</title>
<g id="a_node12"><a xlink:href="namespacedome__tracer.html#a2a6918ef09b8674c6ad56f80dfc370ff" target="_top" xlink:title=" ">
<polygon fill="white" stroke="black" points="386,-662 386,-692 480,-692 480,-662 386,-662"/>
<text text-anchor="start" x="394" y="-680" font-family="Helvetica,sans-Serif" font-size="10.00">dome_tracer::register</text>
<text text-anchor="middle" x="433" y="-669" font-family="Helvetica,sans-Serif" font-size="10.00">_dome_tracer</text>
</a>
</g>
</g>
<!-- Node165&#45;&gt;Node176 -->
<g id="edge12" class="edge"><title>Node165&#45;&gt;Node176</title>
<path fill="none" stroke="midnightblue" d="M560.574,-548.864C549.351,-575.192 525.738,-622.982 492,-652 487.594,-655.79 482.526,-659.081 477.26,-661.92"/>
<polygon fill="midnightblue" stroke="midnightblue" points="563.814,-550.187 564.383,-539.607 557.341,-547.523 563.814,-550.187"/>
</g>
<!-- Node177 -->
<g id="node13" class="node"><title>Node177</title>
<g id="a_node13"><a xlink:href="namespaceregional__dyes.html#af9da6e5dbe58dedce4ede6f0533fe702" target="_top" xlink:title=" ">
<polygon fill="white" stroke="black" points="384,-613 384,-643 482,-643 482,-613 384,-613"/>
<text text-anchor="start" x="392" y="-631" font-family="Helvetica,sans-Serif" font-size="10.00">regional_dyes::register</text>
<text text-anchor="middle" x="433" y="-620" font-family="Helvetica,sans-Serif" font-size="10.00">_dye_tracer</text>
</a>
</g>
</g>
<!-- Node165&#45;&gt;Node177 -->
<g id="edge13" class="edge"><title>Node165&#45;&gt;Node177</title>
<path fill="none" stroke="midnightblue" d="M553.343,-547.276C539,-563.35 515.882,-587.144 492,-603 486.519,-606.639 480.421,-609.946 474.297,-612.876"/>
<polygon fill="midnightblue" stroke="midnightblue" points="556.057,-549.49 560.002,-539.656 550.786,-544.884 556.057,-549.49"/>
</g>
<!-- Node178 -->
<g id="node14" class="node"><title>Node178</title>
<g id="a_node14"><a xlink:href="namespaceideal__age__example.html#a58d550a02148b87b1d1ce979fcaf6c00" target="_top" xlink:title=" ">
<polygon fill="white" stroke="black" points="379,-564 379,-594 487,-594 487,-564 379,-564"/>
<text text-anchor="start" x="387" y="-582" font-family="Helvetica,sans-Serif" font-size="10.00">ideal_age_example::</text>
<text text-anchor="middle" x="433" y="-571" font-family="Helvetica,sans-Serif" font-size="10.00">register_ideal_age_tracer</text>
</a>
</g>
</g>
<!-- Node165&#45;&gt;Node178 -->
<g id="edge14" class="edge"><title>Node165&#45;&gt;Node178</title>
<path fill="none" stroke="midnightblue" d="M531.991,-543.167C514.456,-549.579 493.289,-557.32 475.121,-563.963"/>
<polygon fill="midnightblue" stroke="midnightblue" points="533.656,-546.286 541.845,-539.564 531.252,-539.711 533.656,-546.286"/>
</g>
<!-- Node179 -->
<g id="node15" class="node"><title>Node179</title>
<g id="a_node15"><a xlink:href="namespaceisomip__tracer.html#a7d66fe5ba12076654324a7e7d8ab2e4f" target="_top" xlink:title="This subroutine is used to register tracer fields.">
<polygon fill="white" stroke="black" points="385,-515 385,-545 481,-545 481,-515 385,-515"/>
<text text-anchor="start" x="393" y="-533" font-family="Helvetica,sans-Serif" font-size="10.00">isomip_tracer::register</text>
<text text-anchor="middle" x="433" y="-522" font-family="Helvetica,sans-Serif" font-size="10.00">_isomip_tracer</text>
</a>
</g>
</g>
<!-- Node165&#45;&gt;Node179 -->
<g id="edge15" class="edge"><title>Node165&#45;&gt;Node179</title>
<path fill="none" stroke="midnightblue" d="M517.566,-530C505.661,-530 493.011,-530 481.252,-530"/>
<polygon fill="midnightblue" stroke="midnightblue" points="517.796,-533.5 527.796,-530 517.796,-526.5 517.796,-533.5"/>
</g>
<!-- Node180 -->
<g id="node16" class="node"><title>Node180</title>
<g id="a_node16"><a xlink:href="namespacemom__legacy__barotropic.html#a432cde1db247cb861f021d250f93960e" target="_top" xlink:title=" ">
<polygon fill="white" stroke="black" points="375,-454.5 375,-495.5 491,-495.5 491,-454.5 375,-454.5"/>
<text text-anchor="start" x="383" y="-483.5" font-family="Helvetica,sans-Serif" font-size="10.00">mom_legacy_barotropic</text>
<text text-anchor="start" x="383" y="-472.5" font-family="Helvetica,sans-Serif" font-size="10.00">::register_legacy_barotropic</text>
<text text-anchor="middle" x="433" y="-461.5" font-family="Helvetica,sans-Serif" font-size="10.00">_restarts</text>
</a>
</g>
</g>
<!-- Node165&#45;&gt;Node180 -->
<g id="edge16" class="edge"><title>Node165&#45;&gt;Node180</title>
<path fill="none" stroke="midnightblue" d="M535.073,-516.485C519.695,-510.173 501.052,-502.521 483.986,-495.517"/>
<polygon fill="midnightblue" stroke="midnightblue" points="534.079,-519.86 544.659,-520.42 536.737,-513.385 534.079,-519.86"/>
</g>
<!-- Node181 -->
<g id="node17" class="node"><title>Node181</title>
<g id="a_node17"><a xlink:href="namespacemom__ocmip2__cfc.html#ac04494ce35222c8583a7ee7589e1cf13" target="_top" xlink:title=" ">
<polygon fill="white" stroke="black" points="378,-405 378,-435 488,-435 488,-405 378,-405"/>
<text text-anchor="start" x="386" y="-423" font-family="Helvetica,sans-Serif" font-size="10.00">mom_ocmip2_cfc::register</text>
<text text-anchor="middle" x="433" y="-412" font-family="Helvetica,sans-Serif" font-size="10.00">_ocmip2_cfc</text>
</a>
</g>
</g>
<!-- Node165&#45;&gt;Node181 -->
<g id="edge17" class="edge"><title>Node165&#45;&gt;Node181</title>
<path fill="none" stroke="midnightblue" d="M555.635,-512.06C541.917,-493.261 518.229,-463.888 492,-445 486.839,-441.284 481.04,-437.968 475.156,-435.062"/>
<polygon fill="midnightblue" stroke="midnightblue" points="552.885,-514.231 561.536,-520.347 558.587,-510.171 552.885,-514.231"/>
</g>
<!-- Node182 -->
<g id="node18" class="node"><title>Node182</title>
<g id="a_node18"><a xlink:href="namespaceoil__tracer.html#ae9bef348e3fea3af157e841a0c9f6aeb" target="_top" xlink:title=" ">
<polygon fill="white" stroke="black" points="392.5,-356 392.5,-386 473.5,-386 473.5,-356 392.5,-356"/>
<text text-anchor="start" x="400.5" y="-374" font-family="Helvetica,sans-Serif" font-size="10.00">oil_tracer::register</text>
<text text-anchor="middle" x="433" y="-363" font-family="Helvetica,sans-Serif" font-size="10.00">_oil_tracer</text>
</a>
</g>
</g>
<!-- Node165&#45;&gt;Node182 -->
<g id="edge18" class="edge"><title>Node165&#45;&gt;Node182</title>
<path fill="none" stroke="midnightblue" d="M561.515,-510.504C551.083,-481.856 528.021,-428.296 492,-396 486.612,-391.169 480.147,-387.167 473.518,-383.888"/>
<polygon fill="midnightblue" stroke="midnightblue" points="558.289,-511.884 564.895,-520.168 564.897,-509.573 558.289,-511.884"/>
</g>
<!-- Node183 -->
<g id="node19" class="node"><title>Node183</title>
<g id="a_node19"><a xlink:href="namespacepseudo__salt__tracer.html#a147eabcabc9a787c01310dd67a5bab08" target="_top" xlink:title=" ">
<polygon fill="white" stroke="black" points="385.5,-295.5 385.5,-336.5 480.5,-336.5 480.5,-295.5 385.5,-295.5"/>
<text text-anchor="start" x="393.5" y="-324.5" font-family="Helvetica,sans-Serif" font-size="10.00">pseudo_salt_tracer</text>
<text text-anchor="start" x="393.5" y="-313.5" font-family="Helvetica,sans-Serif" font-size="10.00">::register_pseudo_salt</text>
<text text-anchor="middle" x="433" y="-302.5" font-family="Helvetica,sans-Serif" font-size="10.00">_tracer</text>
</a>
</g>
</g>
<!-- Node165&#45;&gt;Node183 -->
<g id="edge19" class="edge"><title>Node165&#45;&gt;Node183</title>
<path fill="none" stroke="midnightblue" d="M564.363,-510.18C556.789,-473.823 536.218,-395.741 492,-347 488.471,-343.11 484.338,-339.617 479.931,-336.504"/>
<polygon fill="midnightblue" stroke="midnightblue" points="561.015,-511.291 566.379,-520.427 567.883,-509.94 561.015,-511.291"/>
</g>
<!-- Node184 -->
<g id="node20" class="node"><title>Node184</title>
<g id="a_node20"><a xlink:href="namespacemom__dynamics__legacy__split.html#a6bbc5bdfa5c9906b19339c12dc971551" target="_top" xlink:title=" ">
<polygon fill="white" stroke="black" points="383.5,-235.5 383.5,-276.5 482.5,-276.5 482.5,-235.5 383.5,-235.5"/>
<text text-anchor="start" x="391.5" y="-264.5" font-family="Helvetica,sans-Serif" font-size="10.00">mom_dynamics_legacy</text>
<text text-anchor="start" x="391.5" y="-253.5" font-family="Helvetica,sans-Serif" font-size="10.00">_split::register_restarts</text>
<text text-anchor="middle" x="433" y="-242.5" font-family="Helvetica,sans-Serif" font-size="10.00">_dyn_legacy_split</text>
</a>
</g>
</g>
<!-- Node165&#45;&gt;Node184 -->
<g id="edge20" class="edge"><title>Node165&#45;&gt;Node184</title>
<path fill="none" stroke="midnightblue" d="M566.893,-510.209C563.406,-465.277 549.164,-354.186 492,-286 489.087,-282.525 485.668,-279.403 481.972,-276.61"/>
<polygon fill="midnightblue" stroke="midnightblue" points="563.414,-510.626 567.581,-520.367 570.398,-510.153 563.414,-510.626"/>
</g>
<!-- Node173 -->
<g id="node9" class="node"><title>Node173</title>
<g id="a_node9"><a xlink:href="namespacemom__dynamics__split__rk2.html#a9f889b82fd5ed29a854da99d3c929366" target="_top" xlink:title="This subroutine sets up any auxiliary restart variables that are specific to the unsplit time steppin...">
<polygon fill="white" stroke="black" points="230.5,-506.5 230.5,-547.5 325.5,-547.5 325.5,-506.5 230.5,-506.5"/>
<text text-anchor="start" x="238.5" y="-535.5" font-family="Helvetica,sans-Serif" font-size="10.00">mom_dynamics_split</text>
<text text-anchor="start" x="238.5" y="-524.5" font-family="Helvetica,sans-Serif" font-size="10.00">_rk2::register_restarts</text>
<text text-anchor="middle" x="278" y="-513.5" font-family="Helvetica,sans-Serif" font-size="10.00">_dyn_split_rk2</text>
</a>
</g>
</g>
<!-- Node165&#45;&gt;Node173 -->
<g id="edge21" class="edge"><title>Node165&#45;&gt;Node173</title>
<path fill="none" stroke="midnightblue" d="M566.173,-510.367C560.002,-448.831 537.716,-261.694 492,-226 450.663,-193.725 416.298,-194.995 374,-226 350.41,-243.291 300.092,-441.096 284.035,-506.296"/>
<polygon fill="midnightblue" stroke="midnightblue" points="562.69,-510.715 567.14,-520.33 569.657,-510.039 562.69,-510.715"/>
</g>
<!-- Node185 -->
<g id="node21" class="node"><title>Node185</title>
<g id="a_node21"><a xlink:href="namespacemom__set__diffusivity.html#ac0a2a098bc7dc3b087a4bae87511b7ca" target="_top" xlink:title=" ">
<polygon fill="white" stroke="black" points="390,-148 390,-178 476,-178 476,-148 390,-148"/>
<text text-anchor="start" x="398" y="-166" font-family="Helvetica,sans-Serif" font-size="10.00">mom_set_diffusivity</text>
<text text-anchor="middle" x="433" y="-155" font-family="Helvetica,sans-Serif" font-size="10.00">::set_diffusivity_init</text>
</a>
</g>
</g>
<!-- Node165&#45;&gt;Node185 -->
<g id="edge22" class="edge"><title>Node165&#45;&gt;Node185</title>
<path fill="none" stroke="midnightblue" d="M565.768,-510.419C558.133,-446.316 531.339,-243.936 492,-193 487.357,-186.989 481.172,-182.069 474.569,-178.081"/>
<polygon fill="midnightblue" stroke="midnightblue" points="562.298,-510.881 566.934,-520.407 569.251,-510.069 562.298,-510.881"/>
</g>
<!-- Node186 -->
<g id="node22" class="node"><title>Node186</title>
<g id="a_node22"><a xlink:href="namespacemom__set__visc.html#ae2d9d9f74c1e9aec56257cfad372b0fd" target="_top" xlink:title=" ">
<polygon fill="white" stroke="black" points="228.5,-264 228.5,-294 327.5,-294 327.5,-264 228.5,-264"/>
<text text-anchor="start" x="236.5" y="-282" font-family="Helvetica,sans-Serif" font-size="10.00">mom_set_visc::set_visc</text>
<text text-anchor="middle" x="278" y="-271" font-family="Helvetica,sans-Serif" font-size="10.00">_register_restarts</text>
</a>
</g>
</g>
<!-- Node165&#45;&gt;Node186 -->
<g id="edge23" class="edge"><title>Node165&#45;&gt;Node186</title>
<path fill="none" stroke="midnightblue" d="M567.339,-510.152C564.459,-437.272 550.379,-186.148 492,-138 451.541,-104.631 417.484,-108.682 374,-138 338.621,-161.853 362.666,-192.183 338,-227 327.818,-241.372 312.916,-254.464 300.637,-263.916"/>
<polygon fill="midnightblue" stroke="midnightblue" points="563.846,-510.396 567.711,-520.261 570.841,-510.139 563.846,-510.396"/>
</g>
<!-- Node187 -->
<g id="node23" class="node"><title>Node187</title>
<g id="a_node23"><a xlink:href="namespaceuser__tracer__example.html#a71efc349b3fbeb6f4cb2155de1f8bbe5" target="_top" xlink:title=" ">
<polygon fill="white" stroke="black" points="386,-49.5 386,-90.5 480,-90.5 480,-49.5 386,-49.5"/>
<text text-anchor="start" x="394" y="-78.5" font-family="Helvetica,sans-Serif" font-size="10.00">user_tracer_example</text>
<text text-anchor="start" x="394" y="-67.5" font-family="Helvetica,sans-Serif" font-size="10.00">::user_register_tracer</text>
<text text-anchor="middle" x="433" y="-56.5" font-family="Helvetica,sans-Serif" font-size="10.00">_example</text>
</a>
</g>
</g>
<!-- Node165&#45;&gt;Node187 -->
<g id="edge25" class="edge"><title>Node165&#45;&gt;Node187</title>
<path fill="none" stroke="midnightblue" d="M566.595,-509.961C561.02,-435.083 538.462,-172.565 492,-105 488.202,-99.4763 483.219,-94.6773 477.769,-90.554"/>
<polygon fill="midnightblue" stroke="midnightblue" points="563.131,-510.587 567.345,-520.308 570.113,-510.081 563.131,-510.587"/>
</g>
<!-- Node188 -->
<g id="node24" class="node"><title>Node188</title>
<g id="a_node24"><a xlink:href="namespacemom__coord__initialization.html#a45fb62504679264febbaa0617332ecc1" target="_top" xlink:title=" ">
<polygon fill="white" stroke="black" points="381,-0 381,-30 485,-30 485,-0 381,-0"/>
<text text-anchor="start" x="389" y="-18" font-family="Helvetica,sans-Serif" font-size="10.00">mom_coord_initialization</text>
<text text-anchor="middle" x="433" y="-7" font-family="Helvetica,sans-Serif" font-size="10.00">::write_vertgrid_file</text>
</a>
</g>
</g>
<!-- Node165&#45;&gt;Node188 -->
<g id="edge26" class="edge"><title>Node165&#45;&gt;Node188</title>
<path fill="none" stroke="midnightblue" d="M567.415,-509.922C564.641,-427.434 550.395,-115.42 492,-40 488.979,-36.0985 485.228,-32.7961 481.097,-30.0028"/>
<polygon fill="midnightblue" stroke="midnightblue" points="563.931,-510.487 567.745,-520.371 570.928,-510.266 563.931,-510.487"/>
</g>
<!-- Node168 -->
<g id="node4" class="node"><title>Node168</title>
<g id="a_node4"><a xlink:href="namespacemom.html#a0be2869fef30e1e0604facfe1b41555d" target="_top" xlink:title="This subroutine initializes MOM.">
<polygon fill="white" stroke="black" points="92.5,-589.5 92.5,-608.5 181.5,-608.5 181.5,-589.5 92.5,-589.5"/>
<text text-anchor="middle" x="137" y="-596.5" font-family="Helvetica,sans-Serif" font-size="10.00">mom::initialize_mom</text>
</a>
</g>
</g>
<!-- Node167&#45;&gt;Node168 -->
<g id="edge3" class="edge"><title>Node167&#45;&gt;Node168</title>
<path fill="none" stroke="midnightblue" d="M263.661,-878.168C251.276,-855.704 232.603,-820.959 218,-790 185.792,-721.718 152.592,-636.935 141.701,-608.671"/>
<polygon fill="midnightblue" stroke="midnightblue" points="260.645,-879.947 268.554,-886.997 266.768,-876.554 260.645,-879.947"/>
</g>
<!-- Node169 -->
<g id="node5" class="node"><title>Node169</title>
<g id="a_node5"><a xlink:href="MOM__driver_8F90.html#a08fffeb2d8e8acbf9ed4609be6d258c6" target="_top" xlink:title=" ">
<polygon fill="white" stroke="black" points="0,-589.5 0,-608.5 56,-608.5 56,-589.5 0,-589.5"/>
<text text-anchor="middle" x="28" y="-596.5" font-family="Helvetica,sans-Serif" font-size="10.00">mom_main</text>
</a>
</g>
</g>
<!-- Node168&#45;&gt;Node169 -->
<g id="edge4" class="edge"><title>Node168&#45;&gt;Node169</title>
<path fill="none" stroke="midnightblue" d="M82.3096,-599C73.2562,-599 64.21,-599 56.2082,-599"/>
<polygon fill="midnightblue" stroke="midnightblue" points="82.479,-602.5 92.479,-599 82.479,-595.5 82.479,-602.5"/>
</g>
<!-- Node170&#45;&gt;Node168 -->
<g id="edge6" class="edge"><title>Node170&#45;&gt;Node168</title>
<path fill="none" stroke="midnightblue" d="M252.287,-731.376C220.446,-694.495 166.757,-632.308 146.276,-608.586"/>
<polygon fill="midnightblue" stroke="midnightblue" points="249.928,-734 259.113,-739.282 255.227,-729.425 249.928,-734"/>
</g>
<!-- Node172&#45;&gt;Node173 -->
<g id="edge9" class="edge"><title>Node172&#45;&gt;Node173</title>
<path fill="none" stroke="midnightblue" d="M377.801,-825.738C376.464,-824.556 375.191,-823.311 374,-822 364.342,-811.374 304.718,-613.29 285.187,-547.813"/>
<polygon fill="midnightblue" stroke="midnightblue" points="375.953,-828.724 386.078,-831.844 380.109,-823.091 375.953,-828.724"/>
</g>
<!-- Node186&#45;&gt;Node168 -->
<g id="edge24" class="edge"><title>Node186&#45;&gt;Node168</title>
<path fill="none" stroke="midnightblue" d="M266.345,-303.528C237.875,-369.073 160.916,-546.243 142.163,-589.417"/>
<polygon fill="midnightblue" stroke="midnightblue" points="269.708,-304.572 270.482,-294.005 263.288,-301.783 269.708,-304.572"/>
</g>
<!-- Node189 -->
<g id="node25" class="node"><title>Node189</title>
<g id="a_node25"><a xlink:href="namespacemom__coord__initialization.html#a6e2f4c11bc99476ea9c64a9aceac3b81" target="_top" xlink:title="MOM_initialize_coord sets up time&#45;invariant quantities related to MOM6&#39;s vertical coordinate.">
<polygon fill="white" stroke="black" points="226,-188 226,-218 330,-218 330,-188 226,-188"/>
<text text-anchor="start" x="234" y="-206" font-family="Helvetica,sans-Serif" font-size="10.00">mom_coord_initialization</text>
<text text-anchor="middle" x="278" y="-195" font-family="Helvetica,sans-Serif" font-size="10.00">::mom_initialize_coord</text>
</a>
</g>
</g>
<!-- Node188&#45;&gt;Node189 -->
<g id="edge27" class="edge"><title>Node188&#45;&gt;Node189</title>
<path fill="none" stroke="midnightblue" d="M379.498,-35.6382C377.576,-37.011 375.734,-38.4639 374,-40 325.704,-82.791 295.482,-156.249 284.116,-187.836"/>
<polygon fill="midnightblue" stroke="midnightblue" points="381.707,-38.3852 388.337,-30.1212 378.001,-32.4469 381.707,-38.3852"/>
</g>
<!-- Node189&#45;&gt;Node168 -->
<g id="edge28" class="edge"><title>Node189&#45;&gt;Node168</title>
<path fill="none" stroke="midnightblue" d="M245.347,-224.16C235.241,-232.372 224.899,-242.566 218,-254 147.003,-371.658 138.997,-546.837 138.108,-589.42"/>
<polygon fill="midnightblue" stroke="midnightblue" points="247.543,-226.886 253.332,-218.013 243.273,-221.34 247.543,-226.886"/>
</g>
</g>
</svg>
