<?xml version="1.0" encoding="UTF-8" standalone="no"?>
<!DOCTYPE svg PUBLIC "-//W3C//DTD SVG 1.1//EN"
 "http://www.w3.org/Graphics/SVG/1.1/DTD/svg11.dtd">
<!-- Generated by graphviz version 2.30.1 (20170916.1124)
 -->
<!-- Title: mom_ice_shelf::update_od_ffrac_uncoupled Pages: 1 -->
<svg width="338pt" height="136pt"
 viewBox="0.00 0.00 338.00 136.00" xmlns="http://www.w3.org/2000/svg" xmlns:xlink="http://www.w3.org/1999/xlink">
<g id="graph0" class="graph" transform="scale(1 1) rotate(0) translate(4 132)">
<title>mom_ice_shelf::update_od_ffrac_uncoupled</title>
<polygon fill="white" stroke="white" points="-4,5 -4,-132 335,-132 335,5 -4,5"/>
<!-- Node508 -->
<g id="node1" class="node"><title>Node508</title>
<g id="a_node1"><a xlink:title=" ">
<polygon fill="#bfbfbf" stroke="black" points="230.5,-49 230.5,-79 329.5,-79 329.5,-49 230.5,-49"/>
<text text-anchor="start" x="238.5" y="-67" font-family="Helvetica,sans-Serif" font-size="10.00">mom_ice_shelf::update</text>
<text text-anchor="middle" x="280" y="-56" font-family="Helvetica,sans-Serif" font-size="10.00">_od_ffrac_uncoupled</text>
</a>
</g>
</g>
<!-- Node509 -->
<g id="node2" class="node"><title>Node509</title>
<g id="a_node2"><a xlink:href="namespacemom__ice__shelf.html#ae315e8464ef8a20062e3bccb61886755" target="_top" xlink:title=" ">
<polygon fill="white" stroke="black" points="92.5,-49 92.5,-79 193.5,-79 193.5,-49 92.5,-49"/>
<text text-anchor="start" x="100.5" y="-67" font-family="Helvetica,sans-Serif" font-size="10.00">mom_ice_shelf::initialize</text>
<text text-anchor="middle" x="143" y="-56" font-family="Helvetica,sans-Serif" font-size="10.00">_ice_shelf</text>
</a>
</g>
</g>
<!-- Node508&#45;&gt;Node509 -->
<g id="edge1" class="edge"><title>Node508&#45;&gt;Node509</title>
<path fill="none" stroke="midnightblue" d="M220.029,-64C211.203,-64 202.179,-64 193.574,-64"/>
<polygon fill="midnightblue" stroke="midnightblue" points="220.262,-67.5001 230.262,-64 220.262,-60.5001 220.262,-67.5001"/>
</g>
<!-- Node512 -->
<g id="node5" class="node"><title>Node512</title>
<g id="a_node5"><a xlink:href="namespacemom__ice__shelf.html#a3b0e0cc9f36c5197236cc05867b780df" target="_top" xlink:title=" ">
<polygon fill="white" stroke="black" points="97.5,-98 97.5,-128 188.5,-128 188.5,-98 97.5,-98"/>
<text text-anchor="start" x="105.5" y="-116" font-family="Helvetica,sans-Serif" font-size="10.00">mom_ice_shelf::shelf</text>
<text text-anchor="middle" x="143" y="-105" font-family="Helvetica,sans-Serif" font-size="10.00">_calc_flux</text>
</a>
</g>
</g>
<!-- Node508&#45;&gt;Node512 -->
<g id="edge4" class="edge"><title>Node508&#45;&gt;Node512</title>
<path fill="none" stroke="midnightblue" d="M227.933,-82.5355C213.991,-87.5959 199.053,-93.0177 185.701,-97.8641"/>
<polygon fill="midnightblue" stroke="midnightblue" points="229.188,-85.8033 237.394,-79.1014 226.8,-79.2234 229.188,-85.8033"/>
</g>
<!-- Node513 -->
<g id="node6" class="node"><title>Node513</title>
<g id="a_node6"><a xlink:href="namespacemom__ice__shelf.html#ac084bdc5be4e708e3263488e9574a3c9" target="_top" xlink:title=" ">
<polygon fill="white" stroke="black" points="98.5,-0 98.5,-30 187.5,-30 187.5,-0 98.5,-0"/>
<text text-anchor="start" x="106.5" y="-18" font-family="Helvetica,sans-Serif" font-size="10.00">mom_ice_shelf::solo</text>
<text text-anchor="middle" x="143" y="-7" font-family="Helvetica,sans-Serif" font-size="10.00">_time_step</text>
</a>
</g>
</g>
<!-- Node508&#45;&gt;Node513 -->
<g id="edge6" class="edge"><title>Node508&#45;&gt;Node513</title>
<path fill="none" stroke="midnightblue" d="M227.933,-45.4645C213.991,-40.4041 199.053,-34.9823 185.701,-30.1359"/>
<polygon fill="midnightblue" stroke="midnightblue" points="226.8,-48.7766 237.394,-48.8986 229.188,-42.1967 226.8,-48.7766"/>
</g>
<!-- Node510 -->
<g id="node3" class="node"><title>Node510</title>
<g id="a_node3"><a xlink:href="MOM__driver_8F90.html#a08fffeb2d8e8acbf9ed4609be6d258c6" target="_top" xlink:title=" ">
<polygon fill="white" stroke="black" points="0,-75.5 0,-94.5 56,-94.5 56,-75.5 0,-75.5"/>
<text text-anchor="middle" x="28" y="-82.5" font-family="Helvetica,sans-Serif" font-size="10.00">mom_main</text>
</a>
</g>
</g>
<!-- Node509&#45;&gt;Node510 -->
<g id="edge2" class="edge"><title>Node509&#45;&gt;Node510</title>
<path fill="none" stroke="midnightblue" d="M82.4627,-75.0645C73.2674,-76.7733 64.1797,-78.4622 56.1775,-79.9493"/>
<polygon fill="midnightblue" stroke="midnightblue" points="83.2444,-78.4792 92.4366,-73.2109 81.9654,-71.597 83.2444,-78.4792"/>
</g>
<!-- Node511 -->
<g id="node4" class="node"><title>Node511</title>
<g id="a_node4"><a xlink:href="ice__shelf__driver_8F90.html#aec5bef92f0dad343f545cd8d62e378d8" target="_top" xlink:title=" ">
<polygon fill="white" stroke="black" points="0.5,-32.5 0.5,-51.5 55.5,-51.5 55.5,-32.5 0.5,-32.5"/>
<text text-anchor="middle" x="28" y="-39.5" font-family="Helvetica,sans-Serif" font-size="10.00">shelf_main</text>
</a>
</g>
</g>
<!-- Node509&#45;&gt;Node511 -->
<g id="edge3" class="edge"><title>Node509&#45;&gt;Node511</title>
<path fill="none" stroke="midnightblue" d="M82.5717,-52.4299C73.1007,-50.586 63.7397,-48.7635 55.5571,-47.1704"/>
<polygon fill="midnightblue" stroke="midnightblue" points="81.952,-55.8749 92.4366,-54.3505 83.2897,-49.0039 81.952,-55.8749"/>
</g>
<!-- Node512&#45;&gt;Node510 -->
<g id="edge5" class="edge"><title>Node512&#45;&gt;Node510</title>
<path fill="none" stroke="midnightblue" d="M87.4169,-99.475C76.5328,-96.778 65.5537,-94.0575 56.0978,-91.7145"/>
<polygon fill="midnightblue" stroke="midnightblue" points="86.7911,-102.926 97.3394,-101.934 88.4748,-96.1312 86.7911,-102.926"/>
</g>
<!-- Node513&#45;&gt;Node511 -->
<g id="edge7" class="edge"><title>Node513&#45;&gt;Node511</title>
<path fill="none" stroke="midnightblue" d="M88.384,-27.8109C76.9883,-30.5338 65.4358,-33.2941 55.5872,-35.6473"/>
<polygon fill="midnightblue" stroke="midnightblue" points="89.3984,-31.1671 98.3112,-25.4389 87.7716,-24.3588 89.3984,-31.1671"/>
</g>
</g>
</svg>
