<?xml version="1.0" encoding="UTF-8" standalone="no"?>
<!DOCTYPE svg PUBLIC "-//W3C//DTD SVG 1.1//EN"
 "http://www.w3.org/Graphics/SVG/1.1/DTD/svg11.dtd">
<!-- Generated by graphviz version 2.30.1 (20170916.1124)
 -->
<!-- Title: mom_spatial_means::global_area_integral Pages: 1 -->
<svg width="344pt" height="77pt"
 viewBox="0.00 0.00 344.00 77.00" xmlns="http://www.w3.org/2000/svg" xmlns:xlink="http://www.w3.org/1999/xlink">
<g id="graph0" class="graph" transform="scale(1 1) rotate(0) translate(4 73)">
<title>mom_spatial_means::global_area_integral</title>
<polygon fill="white" stroke="white" points="-4,5 -4,-73 341,-73 341,5 -4,5"/>
<!-- Node4 -->
<g id="node1" class="node"><title>Node4</title>
<g id="a_node1"><a xlink:title=" ">
<polygon fill="#bfbfbf" stroke="black" points="240.5,-17 240.5,-47 335.5,-47 335.5,-17 240.5,-17"/>
<text text-anchor="start" x="248.5" y="-35" font-family="Helvetica,sans-Serif" font-size="10.00">mom_spatial_means::</text>
<text text-anchor="middle" x="288" y="-24" font-family="Helvetica,sans-Serif" font-size="10.00">global_area_integral</text>
</a>
</g>
</g>
<!-- Node5 -->
<g id="node2" class="node"><title>Node5</title>
<g id="a_node2"><a xlink:href="namespacemom__forcing__type.html#aa685fdcd5863af264335aa60b5b4c210" target="_top" xlink:title="Offer buoyancy forcing fields for diagnostics for those fields registered as part of register_forcing...">
<polygon fill="white" stroke="black" points="92.5,-39 92.5,-69 203.5,-69 203.5,-39 92.5,-39"/>
<text text-anchor="start" x="100.5" y="-57" font-family="Helvetica,sans-Serif" font-size="10.00">mom_forcing_type::forcing</text>
<text text-anchor="middle" x="148" y="-46" font-family="Helvetica,sans-Serif" font-size="10.00">_diagnostics</text>
</a>
</g>
</g>
<!-- Node4&#45;&gt;Node5 -->
<g id="edge1" class="edge"><title>Node4&#45;&gt;Node5</title>
<path fill="none" stroke="midnightblue" d="M230.19,-41.0567C221.46,-42.4484 212.461,-43.883 203.777,-45.2675"/>
<polygon fill="midnightblue" stroke="midnightblue" points="230.955,-44.479 240.279,-39.4482 229.853,-37.5662 230.955,-44.479"/>
</g>
<!-- Node7 -->
<g id="node4" class="node"><title>Node7</title>
<g id="a_node4"><a xlink:href="namespacemom.html#a4c8332b095c6d295084089aa6b3b678a" target="_top" xlink:title="This subroutine orchestrates the time stepping of MOM. The adiabatic dynamics are stepped by calls to...">
<polygon fill="white" stroke="black" points="109.5,-0.5 109.5,-19.5 186.5,-19.5 186.5,-0.5 109.5,-0.5"/>
<text text-anchor="middle" x="148" y="-7.5" font-family="Helvetica,sans-Serif" font-size="10.00">mom::step_mom</text>
</a>
</g>
</g>
<!-- Node4&#45;&gt;Node7 -->
<g id="edge3" class="edge"><title>Node4&#45;&gt;Node7</title>
<path fill="none" stroke="midnightblue" d="M230.235,-22.9506C215.5,-20.6014 199.995,-18.1297 186.527,-15.9825"/>
<polygon fill="midnightblue" stroke="midnightblue" points="229.853,-26.4338 240.279,-24.5518 230.955,-19.521 229.853,-26.4338"/>
</g>
<!-- Node6 -->
<g id="node3" class="node"><title>Node6</title>
<g id="a_node3"><a xlink:href="MOM__driver_8F90.html#a08fffeb2d8e8acbf9ed4609be6d258c6" target="_top" xlink:title=" ">
<polygon fill="white" stroke="black" points="0,-22.5 0,-41.5 56,-41.5 56,-22.5 0,-22.5"/>
<text text-anchor="middle" x="28" y="-29.5" font-family="Helvetica,sans-Serif" font-size="10.00">mom_main</text>
</a>
</g>
</g>
<!-- Node5&#45;&gt;Node6 -->
<g id="edge2" class="edge"><title>Node5&#45;&gt;Node6</title>
<path fill="none" stroke="midnightblue" d="M82.4664,-41.9683C73.2547,-40.2509 64.2245,-38.5673 56.2846,-37.087"/>
<polygon fill="midnightblue" stroke="midnightblue" points="82.0182,-45.445 92.4903,-43.8372 83.3012,-38.5636 82.0182,-45.445"/>
</g>
<!-- Node7&#45;&gt;Node6 -->
<g id="edge4" class="edge"><title>Node7&#45;&gt;Node6</title>
<path fill="none" stroke="midnightblue" d="M99.3769,-18.8789C84.6928,-21.6166 69.0314,-24.5365 56.2197,-26.9251"/>
<polygon fill="midnightblue" stroke="midnightblue" points="100.151,-22.295 109.34,-17.0214 98.8675,-15.4136 100.151,-22.295"/>
</g>
</g>
</svg>
