<?xml version="1.0" encoding="UTF-8" standalone="no"?>
<!DOCTYPE svg PUBLIC "-//W3C//DTD SVG 1.1//EN"
 "http://www.w3.org/Graphics/SVG/1.1/DTD/svg11.dtd">
<!-- Generated by graphviz version 2.30.1 (20170916.1124)
 -->
<!-- Title: mom_io::var_desc Pages: 1 -->
<svg width="638pt" height="53pt"
 viewBox="0.00 0.00 638.00 53.00" xmlns="http://www.w3.org/2000/svg" xmlns:xlink="http://www.w3.org/1999/xlink">
<g id="graph0" class="graph" transform="scale(1 1) rotate(0) translate(4 49)">
<title>mom_io::var_desc</title>
<polygon fill="white" stroke="white" points="-4,5 -4,-49 635,-49 635,5 -4,5"/>
<!-- Node160 -->
<g id="node1" class="node"><title>Node160</title>
<g id="a_node1"><a xlink:title="Returns a vardesc type whose elements have been filled with the provided fields. The argument name is...">
<polygon fill="#bfbfbf" stroke="black" points="0,-6.5 0,-25.5 82,-25.5 82,-6.5 0,-6.5"/>
<text text-anchor="middle" x="41" y="-13.5" font-family="Helvetica,sans-Serif" font-size="10.00">mom_io::var_desc</text>
</a>
</g>
</g>
<!-- Node161 -->
<g id="node2" class="node"><title>Node161</title>
<g id="a_node2"><a xlink:href="namespacemom__io.html#af96b29cb8410d557e8e452b81586223b" target="_top" xlink:title="This routine modifies the named elements of a vardesc type. All arguments are optional,...">
<polygon fill="white" stroke="black" points="118.5,-25.5 118.5,-44.5 223.5,-44.5 223.5,-25.5 118.5,-25.5"/>
<text text-anchor="middle" x="171" y="-32.5" font-family="Helvetica,sans-Serif" font-size="10.00">mom_io::modify_vardesc</text>
</a>
</g>
</g>
<!-- Node160&#45;&gt;Node161 -->
<g id="edge1" class="edge"><title>Node160&#45;&gt;Node161</title>
<path fill="none" stroke="midnightblue" d="M82.1488,-21.9596C90.4588,-23.1931 99.3949,-24.5195 108.273,-25.8373"/>
<polygon fill="midnightblue" stroke="midnightblue" points="107.829,-29.3097 118.234,-27.316 108.857,-22.3856 107.829,-29.3097"/>
</g>
<!-- Node162 -->
<g id="node3" class="node"><title>Node162</title>
<g id="a_node3"><a xlink:href="namespacemom__io.html#ac4bc408e8b38dbd669842753f26ebf88" target="_top" xlink:title="Copies a string.">
<polygon fill="white" stroke="black" points="260,-6.5 260,-25.5 370,-25.5 370,-6.5 260,-6.5"/>
<text text-anchor="middle" x="315" y="-13.5" font-family="Helvetica,sans-Serif" font-size="10.00">mom_io::safe_string_copy</text>
</a>
</g>
</g>
<!-- Node160&#45;&gt;Node162 -->
<g id="edge5" class="edge"><title>Node160&#45;&gt;Node162</title>
<path fill="none" stroke="midnightblue" d="M82.1345,-16C126.19,-16 197.554,-16 249.487,-16"/>
<polygon fill="midnightblue" stroke="midnightblue" points="249.6,-19.5001 259.6,-16 249.6,-12.5001 249.6,-19.5001"/>
</g>
<!-- Node161&#45;&gt;Node162 -->
<g id="edge2" class="edge"><title>Node161&#45;&gt;Node162</title>
<path fill="none" stroke="midnightblue" d="M223.667,-28.0868C232.102,-26.9581 240.932,-25.7767 249.628,-24.6132"/>
<polygon fill="midnightblue" stroke="midnightblue" points="250.295,-28.0551 259.743,-23.2597 249.367,-21.117 250.295,-28.0551"/>
</g>
<!-- Node163 -->
<g id="node4" class="node"><title>Node163</title>
<g id="a_node4"><a xlink:href="namespacemom__error__handler.html#a460cfb79a06c29fc249952c2a3710d67" target="_top" xlink:title=" ">
<polygon fill="white" stroke="black" points="406.5,-1 406.5,-31 499.5,-31 499.5,-1 406.5,-1"/>
<text text-anchor="start" x="414.5" y="-19" font-family="Helvetica,sans-Serif" font-size="10.00">mom_error_handler::</text>
<text text-anchor="middle" x="453" y="-8" font-family="Helvetica,sans-Serif" font-size="10.00">mom_error</text>
</a>
</g>
</g>
<!-- Node162&#45;&gt;Node163 -->
<g id="edge3" class="edge"><title>Node162&#45;&gt;Node163</title>
<path fill="none" stroke="midnightblue" d="M370.142,-16C378.767,-16 387.702,-16 396.361,-16"/>
<polygon fill="midnightblue" stroke="midnightblue" points="396.364,-19.5001 406.364,-16 396.364,-12.5001 396.364,-19.5001"/>
</g>
<!-- Node164 -->
<g id="node5" class="node"><title>Node164</title>
<g id="a_node5"><a xlink:href="namespacemom__error__handler.html#ad5f00a53059c72fe2332d1436c80ca71" target="_top" xlink:title=" ">
<polygon fill="white" stroke="black" points="536.5,-1 536.5,-31 629.5,-31 629.5,-1 536.5,-1"/>
<text text-anchor="start" x="544.5" y="-19" font-family="Helvetica,sans-Serif" font-size="10.00">mom_error_handler::</text>
<text text-anchor="middle" x="583" y="-8" font-family="Helvetica,sans-Serif" font-size="10.00">is_root_pe</text>
</a>
</g>
</g>
<!-- Node163&#45;&gt;Node164 -->
<g id="edge4" class="edge"><title>Node163&#45;&gt;Node164</title>
<path fill="none" stroke="midnightblue" d="M499.849,-16C508.408,-16 517.439,-16 526.258,-16"/>
<polygon fill="midnightblue" stroke="midnightblue" points="526.471,-19.5001 536.471,-16 526.471,-12.5001 526.471,-19.5001"/>
</g>
</g>
</svg>
