<?xml version="1.0" encoding="UTF-8" standalone="no"?>
<!DOCTYPE svg PUBLIC "-//W3C//DTD SVG 1.1//EN"
 "http://www.w3.org/Graphics/SVG/1.1/DTD/svg11.dtd">
<!-- Generated by graphviz version 2.30.1 (20170916.1124)
 -->
<!-- Title: mom_wave_speed::wave_speed_init Pages: 1 -->
<svg width="254pt" height="87pt"
 viewBox="0.00 0.00 254.00 87.00" xmlns="http://www.w3.org/2000/svg" xmlns:xlink="http://www.w3.org/1999/xlink">
<g id="graph0" class="graph" transform="scale(1 1) rotate(0) translate(4 83)">
<title>mom_wave_speed::wave_speed_init</title>
<polygon fill="white" stroke="white" points="-4,5 -4,-83 251,-83 251,5 -4,5"/>
<!-- Node56 -->
<g id="node1" class="node"><title>Node56</title>
<g id="a_node1"><a xlink:title="Initialize control structure for MOM_wave_speed.">
<polygon fill="#bfbfbf" stroke="black" points="138.5,-24 138.5,-54 245.5,-54 245.5,-24 138.5,-24"/>
<text text-anchor="start" x="146.5" y="-42" font-family="Helvetica,sans-Serif" font-size="10.00">mom_wave_speed::wave</text>
<text text-anchor="middle" x="192" y="-31" font-family="Helvetica,sans-Serif" font-size="10.00">_speed_init</text>
</a>
</g>
</g>
<!-- Node57 -->
<g id="node2" class="node"><title>Node57</title>
<g id="a_node2"><a xlink:href="namespacemom__diagnostics.html#ab2108574e351f6deb812da3faf437278" target="_top" xlink:title=" ">
<polygon fill="white" stroke="black" points="0.5,-49 0.5,-79 101.5,-79 101.5,-49 0.5,-49"/>
<text text-anchor="start" x="8.5" y="-67" font-family="Helvetica,sans-Serif" font-size="10.00">mom_diagnostics::mom</text>
<text text-anchor="middle" x="51" y="-56" font-family="Helvetica,sans-Serif" font-size="10.00">_diagnostics_init</text>
</a>
</g>
</g>
<!-- Node56&#45;&gt;Node57 -->
<g id="edge1" class="edge"><title>Node56&#45;&gt;Node57</title>
<path fill="none" stroke="midnightblue" d="M128.483,-50.2441C119.568,-51.8475 110.499,-53.4786 101.869,-55.0307"/>
<polygon fill="midnightblue" stroke="midnightblue" points="129.228,-53.6664 138.45,-48.4514 127.988,-46.7769 129.228,-53.6664"/>
</g>
<!-- Node58 -->
<g id="node3" class="node"><title>Node58</title>
<g id="a_node3"><a xlink:href="namespacemom__lateral__mixing__coeffs.html#aeb658054e8d4d723dff397f8ae186e4a" target="_top" xlink:title="Initializes the variables mixing coefficients container.">
<polygon fill="white" stroke="black" points="7,-0 7,-30 95,-30 95,-0 7,-0"/>
<text text-anchor="start" x="15" y="-18" font-family="Helvetica,sans-Serif" font-size="10.00">mom_lateral_mixing</text>
<text text-anchor="middle" x="51" y="-7" font-family="Helvetica,sans-Serif" font-size="10.00">_coeffs::varmix_init</text>
</a>
</g>
</g>
<!-- Node56&#45;&gt;Node58 -->
<g id="edge2" class="edge"><title>Node56&#45;&gt;Node58</title>
<path fill="none" stroke="midnightblue" d="M128.261,-28.1674C117.058,-26.233 105.618,-24.2578 95.1205,-22.4453"/>
<polygon fill="midnightblue" stroke="midnightblue" points="128,-31.6741 138.45,-29.9266 129.191,-24.7761 128,-31.6741"/>
</g>
</g>
</svg>
