<?xml version="1.0" encoding="UTF-8" standalone="no"?>
<!DOCTYPE svg PUBLIC "-//W3C//DTD SVG 1.1//EN"
 "http://www.w3.org/Graphics/SVG/1.1/DTD/svg11.dtd">
<!-- Generated by graphviz version 2.30.1 (20170916.1124)
 -->
<!-- Title: mom_forcing_type::calculatebuoyancyflux1d Pages: 1 -->
<svg width="520pt" height="38pt"
 viewBox="0.00 0.00 520.00 38.00" xmlns="http://www.w3.org/2000/svg" xmlns:xlink="http://www.w3.org/1999/xlink">
<g id="graph0" class="graph" transform="scale(1 1) rotate(0) translate(4 34)">
<title>mom_forcing_type::calculatebuoyancyflux1d</title>
<polygon fill="white" stroke="white" points="-4,5 -4,-34 517,-34 517,5 -4,5"/>
<!-- Node26 -->
<g id="node1" class="node"><title>Node26</title>
<g id="a_node1"><a xlink:title="This routine calculates surface buoyancy flux by adding up the heat, FW &amp; salt fluxes....">
<polygon fill="#bfbfbf" stroke="black" points="338.5,-5.5 338.5,-24.5 511.5,-24.5 511.5,-5.5 338.5,-5.5"/>
<text text-anchor="middle" x="425" y="-12.5" font-family="Helvetica,sans-Serif" font-size="10.00">mom_forcing_type::calculatebuoyancyflux1d</text>
</a>
</g>
</g>
<!-- Node27 -->
<g id="node2" class="node"><title>Node27</title>
<g id="a_node2"><a xlink:href="namespacemom__forcing__type.html#ada776515b52ca3fa34901572cfef5858" target="_top" xlink:title="Calculates surface buoyancy flux by adding up the heat, FW and salt fluxes, for 2d arrays....">
<polygon fill="white" stroke="black" points="128.5,-5.5 128.5,-24.5 301.5,-24.5 301.5,-5.5 128.5,-5.5"/>
<text text-anchor="middle" x="215" y="-12.5" font-family="Helvetica,sans-Serif" font-size="10.00">mom_forcing_type::calculatebuoyancyflux2d</text>
</a>
</g>
</g>
<!-- Node26&#45;&gt;Node27 -->
<g id="edge1" class="edge"><title>Node26&#45;&gt;Node27</title>
<path fill="none" stroke="midnightblue" d="M328.415,-15C319.439,-15 310.38,-15 301.506,-15"/>
<polygon fill="midnightblue" stroke="midnightblue" points="328.498,-18.5001 338.498,-15 328.498,-11.5001 328.498,-18.5001"/>
</g>
<!-- Node28 -->
<g id="node3" class="node"><title>Node28</title>
<g id="a_node3"><a xlink:href="namespacemom__diabatic__driver.html#a61e57d3902367aa46aa3c2d949ee900f" target="_top" xlink:title="This subroutine imposes the diapycnal mass fluxes and the accompanying diapycnal advection of momentu...">
<polygon fill="white" stroke="black" points="0.5,-0 0.5,-30 91.5,-30 91.5,-0 0.5,-0"/>
<text text-anchor="start" x="8.5" y="-18" font-family="Helvetica,sans-Serif" font-size="10.00">mom_diabatic_driver</text>
<text text-anchor="middle" x="46" y="-7" font-family="Helvetica,sans-Serif" font-size="10.00">::diabatic</text>
</a>
</g>
</g>
<!-- Node27&#45;&gt;Node28 -->
<g id="edge2" class="edge"><title>Node27&#45;&gt;Node28</title>
<path fill="none" stroke="midnightblue" d="M118.029,-15C108.845,-15 99.8667,-15 91.5524,-15"/>
<polygon fill="midnightblue" stroke="midnightblue" points="118.054,-18.5001 128.054,-15 118.054,-11.5001 118.054,-18.5001"/>
</g>
</g>
</svg>
