<?xml version="1.0" encoding="UTF-8" standalone="no"?>
<!DOCTYPE svg PUBLIC "-//W3C//DTD SVG 1.1//EN"
 "http://www.w3.org/Graphics/SVG/1.1/DTD/svg11.dtd">
<!-- Generated by graphviz version 2.30.1 (20170916.1124)
 -->
<!-- Title: mom_tracer_initialization_from_z::horiz_interp_and_extrap_tracer Pages: 1 -->
<svg width="258pt" height="136pt"
 viewBox="0.00 0.00 258.00 136.00" xmlns="http://www.w3.org/2000/svg" xmlns:xlink="http://www.w3.org/1999/xlink">
<g id="graph0" class="graph" transform="scale(1 1) rotate(0) translate(4 132)">
<title>mom_tracer_initialization_from_z::horiz_interp_and_extrap_tracer</title>
<polygon fill="white" stroke="white" points="-4,5 -4,-132 255,-132 255,5 -4,5"/>
<!-- Node24 -->
<g id="node1" class="node"><title>Node24</title>
<g id="a_node1"><a xlink:title=" ">
<polygon fill="#bfbfbf" stroke="black" points="0,-43.5 0,-84.5 110,-84.5 110,-43.5 0,-43.5"/>
<text text-anchor="start" x="8" y="-72.5" font-family="Helvetica,sans-Serif" font-size="10.00">mom_tracer_initialization</text>
<text text-anchor="start" x="8" y="-61.5" font-family="Helvetica,sans-Serif" font-size="10.00">_from_z::horiz_interp_and</text>
<text text-anchor="middle" x="55" y="-50.5" font-family="Helvetica,sans-Serif" font-size="10.00">_extrap_tracer</text>
</a>
</g>
</g>
<!-- Node25 -->
<g id="node2" class="node"><title>Node25</title>
<g id="a_node2"><a xlink:href="namespacemom__tracer__initialization__from__z.html#a3e944fc452963865258b02181f817283" target="_top" xlink:title=" ">
<polygon fill="white" stroke="black" points="146,-98 146,-128 250,-128 250,-98 146,-98"/>
<text text-anchor="start" x="154" y="-116" font-family="Helvetica,sans-Serif" font-size="10.00">mom_tracer_initialization</text>
<text text-anchor="middle" x="198" y="-105" font-family="Helvetica,sans-Serif" font-size="10.00">_from_z::fill_miss_2d</text>
</a>
</g>
</g>
<!-- Node24&#45;&gt;Node25 -->
<g id="edge1" class="edge"><title>Node24&#45;&gt;Node25</title>
<path fill="none" stroke="midnightblue" d="M110.111,-82.8045C121.283,-86.6871 133.037,-90.7717 144.163,-94.6383"/>
<polygon fill="midnightblue" stroke="midnightblue" points="143.154,-97.9929 153.749,-97.9696 145.452,-91.3808 143.154,-97.9929"/>
</g>
<!-- Node26 -->
<g id="node3" class="node"><title>Node26</title>
<g id="a_node3"><a xlink:href="namespacemom__tracer__initialization__from__z.html#ac3910d4783aaa36b1e2c21ff4ee08453" target="_top" xlink:title=" ">
<polygon fill="white" stroke="black" points="146,-49 146,-79 250,-79 250,-49 146,-49"/>
<text text-anchor="start" x="154" y="-67" font-family="Helvetica,sans-Serif" font-size="10.00">mom_tracer_initialization</text>
<text text-anchor="middle" x="198" y="-56" font-family="Helvetica,sans-Serif" font-size="10.00">_from_z::meshgrid</text>
</a>
</g>
</g>
<!-- Node24&#45;&gt;Node26 -->
<g id="edge2" class="edge"><title>Node24&#45;&gt;Node26</title>
<path fill="none" stroke="midnightblue" d="M110.111,-64C118.393,-64 126.994,-64 135.423,-64"/>
<polygon fill="midnightblue" stroke="midnightblue" points="135.585,-67.5001 145.585,-64 135.585,-60.5001 135.585,-67.5001"/>
</g>
<!-- Node27 -->
<g id="node4" class="node"><title>Node27</title>
<g id="a_node4"><a xlink:href="namespacemom__tracer__initialization__from__z.html#adcb9907744147d5e873af4b5912044ea" target="_top" xlink:title=" ">
<polygon fill="white" stroke="black" points="146,-0 146,-30 250,-30 250,-0 146,-0"/>
<text text-anchor="start" x="154" y="-18" font-family="Helvetica,sans-Serif" font-size="10.00">mom_tracer_initialization</text>
<text text-anchor="middle" x="198" y="-7" font-family="Helvetica,sans-Serif" font-size="10.00">_from_z::mystats</text>
</a>
</g>
</g>
<!-- Node24&#45;&gt;Node27 -->
<g id="edge3" class="edge"><title>Node24&#45;&gt;Node27</title>
<path fill="none" stroke="midnightblue" d="M110.111,-45.1955C121.283,-41.3129 133.037,-37.2283 144.163,-33.3617"/>
<polygon fill="midnightblue" stroke="midnightblue" points="145.452,-36.6192 153.749,-30.0304 143.154,-30.0071 145.452,-36.6192"/>
</g>
</g>
</svg>
