<?xml version="1.0" encoding="UTF-8" standalone="no"?>
<!DOCTYPE svg PUBLIC "-//W3C//DTD SVG 1.1//EN"
 "http://www.w3.org/Graphics/SVG/1.1/DTD/svg11.dtd">
<!-- Generated by graphviz version 2.30.1 (20170916.1124)
 -->
<!-- Title: regrid_edge_slopes::edge_slopes_implicit_h5 Pages: 1 -->
<svg width="512pt" height="136pt"
 viewBox="0.00 0.00 512.00 136.00" xmlns="http://www.w3.org/2000/svg" xmlns:xlink="http://www.w3.org/1999/xlink">
<g id="graph0" class="graph" transform="scale(1 1) rotate(0) translate(4 132)">
<title>regrid_edge_slopes::edge_slopes_implicit_h5</title>
<polygon fill="white" stroke="white" points="-4,5 -4,-132 509,-132 509,5 -4,5"/>
<!-- Node34 -->
<g id="node1" class="node"><title>Node34</title>
<g id="a_node1"><a xlink:title=" ">
<polygon fill="#bfbfbf" stroke="black" points="0.5,-49 0.5,-79 107.5,-79 107.5,-49 0.5,-49"/>
<text text-anchor="start" x="8.5" y="-67" font-family="Helvetica,sans-Serif" font-size="10.00">regrid_edge_slopes</text>
<text text-anchor="middle" x="54" y="-56" font-family="Helvetica,sans-Serif" font-size="10.00">::edge_slopes_implicit_h5</text>
</a>
</g>
</g>
<!-- Node35 -->
<g id="node2" class="node"><title>Node35</title>
<g id="a_node2"><a xlink:href="namespacepolynomial__functions.html#aed77465c5ca9937dab06fdb5f94eba39" target="_top" xlink:title=" ">
<polygon fill="white" stroke="black" points="144.5,-98 144.5,-128 243.5,-128 243.5,-98 144.5,-98"/>
<text text-anchor="start" x="152.5" y="-116" font-family="Helvetica,sans-Serif" font-size="10.00">polynomial_functions</text>
<text text-anchor="middle" x="194" y="-105" font-family="Helvetica,sans-Serif" font-size="10.00">::evaluation_polynomial</text>
</a>
</g>
</g>
<!-- Node34&#45;&gt;Node35 -->
<g id="edge1" class="edge"><title>Node34&#45;&gt;Node35</title>
<path fill="none" stroke="midnightblue" d="M97.5306,-79.1014C111.172,-83.9451 126.44,-89.3664 140.697,-94.4285"/>
<polygon fill="midnightblue" stroke="midnightblue" points="139.778,-97.8162 150.372,-97.8641 142.12,-91.2197 139.778,-97.8162"/>
</g>
<!-- Node36 -->
<g id="node3" class="node"><title>Node36</title>
<g id="a_node3"><a xlink:href="namespaceregrid__solvers.html#a8130a338b59de62b00f68da4204568ad" target="_top" xlink:title=" ">
<polygon fill="white" stroke="black" points="149.5,-49 149.5,-79 238.5,-79 238.5,-49 149.5,-49"/>
<text text-anchor="start" x="157.5" y="-67" font-family="Helvetica,sans-Serif" font-size="10.00">regrid_solvers::solve</text>
<text text-anchor="middle" x="194" y="-56" font-family="Helvetica,sans-Serif" font-size="10.00">_linear_system</text>
</a>
</g>
</g>
<!-- Node34&#45;&gt;Node36 -->
<g id="edge2" class="edge"><title>Node34&#45;&gt;Node36</title>
<path fill="none" stroke="midnightblue" d="M107.566,-64C117.848,-64 128.648,-64 138.978,-64"/>
<polygon fill="midnightblue" stroke="midnightblue" points="139.114,-67.5001 149.114,-64 139.114,-60.5001 139.114,-67.5001"/>
</g>
<!-- Node39 -->
<g id="node6" class="node"><title>Node39</title>
<g id="a_node6"><a xlink:href="namespaceregrid__solvers.html#a0d5c3cff8f31429b0a2c6d267e8b345d" target="_top" xlink:title=" ">
<polygon fill="white" stroke="black" points="149.5,-0 149.5,-30 238.5,-30 238.5,-0 149.5,-0"/>
<text text-anchor="start" x="157.5" y="-18" font-family="Helvetica,sans-Serif" font-size="10.00">regrid_solvers::solve</text>
<text text-anchor="middle" x="194" y="-7" font-family="Helvetica,sans-Serif" font-size="10.00">_tridiagonal_system</text>
</a>
</g>
</g>
<!-- Node34&#45;&gt;Node39 -->
<g id="edge5" class="edge"><title>Node34&#45;&gt;Node39</title>
<path fill="none" stroke="midnightblue" d="M97.5306,-48.8986C111.172,-44.0549 126.44,-38.6336 140.697,-33.5715"/>
<polygon fill="midnightblue" stroke="midnightblue" points="142.12,-36.7803 150.372,-30.1359 139.778,-30.1838 142.12,-36.7803"/>
</g>
<!-- Node37 -->
<g id="node4" class="node"><title>Node37</title>
<g id="a_node4"><a xlink:href="namespacemom__error__handler.html#a460cfb79a06c29fc249952c2a3710d67" target="_top" xlink:title=" ">
<polygon fill="white" stroke="black" points="280.5,-49 280.5,-79 373.5,-79 373.5,-49 280.5,-49"/>
<text text-anchor="start" x="288.5" y="-67" font-family="Helvetica,sans-Serif" font-size="10.00">mom_error_handler::</text>
<text text-anchor="middle" x="327" y="-56" font-family="Helvetica,sans-Serif" font-size="10.00">mom_error</text>
</a>
</g>
</g>
<!-- Node36&#45;&gt;Node37 -->
<g id="edge3" class="edge"><title>Node36&#45;&gt;Node37</title>
<path fill="none" stroke="midnightblue" d="M238.621,-64C248.774,-64 259.719,-64 270.313,-64"/>
<polygon fill="midnightblue" stroke="midnightblue" points="270.326,-67.5001 280.326,-64 270.326,-60.5001 270.326,-67.5001"/>
</g>
<!-- Node38 -->
<g id="node5" class="node"><title>Node38</title>
<g id="a_node5"><a xlink:href="namespacemom__error__handler.html#ad5f00a53059c72fe2332d1436c80ca71" target="_top" xlink:title=" ">
<polygon fill="white" stroke="black" points="410.5,-49 410.5,-79 503.5,-79 503.5,-49 410.5,-49"/>
<text text-anchor="start" x="418.5" y="-67" font-family="Helvetica,sans-Serif" font-size="10.00">mom_error_handler::</text>
<text text-anchor="middle" x="457" y="-56" font-family="Helvetica,sans-Serif" font-size="10.00">is_root_pe</text>
</a>
</g>
</g>
<!-- Node37&#45;&gt;Node38 -->
<g id="edge4" class="edge"><title>Node37&#45;&gt;Node38</title>
<path fill="none" stroke="midnightblue" d="M373.849,-64C382.408,-64 391.439,-64 400.258,-64"/>
<polygon fill="midnightblue" stroke="midnightblue" points="400.471,-67.5001 410.471,-64 400.471,-60.5001 400.471,-67.5001"/>
</g>
</g>
</svg>
