<?xml version="1.0" encoding="UTF-8" standalone="no"?>
<!DOCTYPE svg PUBLIC "-//W3C//DTD SVG 1.1//EN"
 "http://www.w3.org/Graphics/SVG/1.1/DTD/svg11.dtd">
<!-- Generated by graphviz version 2.30.1 (20170916.1124)
 -->
<!-- Title: mom_remapping::initialize_remapping Pages: 1 -->
<svg width="730pt" height="87pt"
 viewBox="0.00 0.00 730.00 87.00" xmlns="http://www.w3.org/2000/svg" xmlns:xlink="http://www.w3.org/1999/xlink">
<g id="graph0" class="graph" transform="scale(1 1) rotate(0) translate(4 83)">
<title>mom_remapping::initialize_remapping</title>
<polygon fill="white" stroke="white" points="-4,5 -4,-83 727,-83 727,5 -4,5"/>
<!-- Node98 -->
<g id="node1" class="node"><title>Node98</title>
<g id="a_node1"><a xlink:title="Constructor for remapping control structure.">
<polygon fill="#bfbfbf" stroke="black" points="0.5,-24 0.5,-54 109.5,-54 109.5,-24 0.5,-24"/>
<text text-anchor="start" x="8.5" y="-42" font-family="Helvetica,sans-Serif" font-size="10.00">mom_remapping::initialize</text>
<text text-anchor="middle" x="55" y="-31" font-family="Helvetica,sans-Serif" font-size="10.00">_remapping</text>
</a>
</g>
</g>
<!-- Node99 -->
<g id="node2" class="node"><title>Node99</title>
<g id="a_node2"><a xlink:href="namespacemom__remapping.html#a9e811f89c505a4416ea0eec315769801" target="_top" xlink:title="Set parameters within remapping object.">
<polygon fill="white" stroke="black" points="146,-24 146,-54 266,-54 266,-24 146,-24"/>
<text text-anchor="start" x="154" y="-42" font-family="Helvetica,sans-Serif" font-size="10.00">mom_remapping::remapping</text>
<text text-anchor="middle" x="206" y="-31" font-family="Helvetica,sans-Serif" font-size="10.00">_set_param</text>
</a>
</g>
</g>
<!-- Node98&#45;&gt;Node99 -->
<g id="edge1" class="edge"><title>Node98&#45;&gt;Node99</title>
<path fill="none" stroke="midnightblue" d="M109.792,-39C118.24,-39 127.074,-39 135.81,-39"/>
<polygon fill="midnightblue" stroke="midnightblue" points="135.991,-42.5001 145.991,-39 135.991,-35.5001 135.991,-42.5001"/>
</g>
<!-- Node100 -->
<g id="node3" class="node"><title>Node100</title>
<g id="a_node3"><a xlink:href="namespacemom__remapping.html#a41a89ac62578250500b7a450d5fdfae7" target="_top" xlink:title="Changes the method of reconstruction Use this routine to parse a string parameter specifying the reco...">
<polygon fill="white" stroke="black" points="302,-29.5 302,-48.5 460,-48.5 460,-29.5 302,-29.5"/>
<text text-anchor="middle" x="381" y="-36.5" font-family="Helvetica,sans-Serif" font-size="10.00">mom_remapping::setreconstructiontype</text>
</a>
</g>
</g>
<!-- Node99&#45;&gt;Node100 -->
<g id="edge2" class="edge"><title>Node99&#45;&gt;Node100</title>
<path fill="none" stroke="midnightblue" d="M266.053,-39C274.355,-39 283.033,-39 291.735,-39"/>
<polygon fill="midnightblue" stroke="midnightblue" points="291.94,-42.5001 301.94,-39 291.94,-35.5001 291.94,-42.5001"/>
</g>
<!-- Node101 -->
<g id="node4" class="node"><title>Node101</title>
<g id="a_node4"><a xlink:href="namespacemom__string__functions.html#aca148baf726de2f028b7e7baad3c85d4" target="_top" xlink:title=" ">
<polygon fill="white" stroke="black" points="496.5,-49 496.5,-79 591.5,-79 591.5,-49 496.5,-49"/>
<text text-anchor="start" x="504.5" y="-67" font-family="Helvetica,sans-Serif" font-size="10.00">mom_string_functions</text>
<text text-anchor="middle" x="544" y="-56" font-family="Helvetica,sans-Serif" font-size="10.00">::uppercase</text>
</a>
</g>
</g>
<!-- Node100&#45;&gt;Node101 -->
<g id="edge3" class="edge"><title>Node100&#45;&gt;Node101</title>
<path fill="none" stroke="midnightblue" d="M443.326,-48.5227C457.485,-50.7213 472.484,-53.0503 486.429,-55.2157"/>
<polygon fill="midnightblue" stroke="midnightblue" points="485.951,-58.6833 496.37,-56.7593 487.025,-51.7662 485.951,-58.6833"/>
</g>
<!-- Node102 -->
<g id="node5" class="node"><title>Node102</title>
<g id="a_node5"><a xlink:href="namespacemom__error__handler.html#a460cfb79a06c29fc249952c2a3710d67" target="_top" xlink:title=" ">
<polygon fill="white" stroke="black" points="497.5,-0 497.5,-30 590.5,-30 590.5,-0 497.5,-0"/>
<text text-anchor="start" x="505.5" y="-18" font-family="Helvetica,sans-Serif" font-size="10.00">mom_error_handler::</text>
<text text-anchor="middle" x="544" y="-7" font-family="Helvetica,sans-Serif" font-size="10.00">mom_error</text>
</a>
</g>
</g>
<!-- Node100&#45;&gt;Node102 -->
<g id="edge4" class="edge"><title>Node100&#45;&gt;Node102</title>
<path fill="none" stroke="midnightblue" d="M446.094,-29.4456C459.79,-27.4039 474.148,-25.2636 487.49,-23.2749"/>
<polygon fill="midnightblue" stroke="midnightblue" points="488.091,-26.7239 497.466,-21.7877 487.059,-19.8004 488.091,-26.7239"/>
</g>
<!-- Node103 -->
<g id="node6" class="node"><title>Node103</title>
<g id="a_node6"><a xlink:href="namespacemom__error__handler.html#ad5f00a53059c72fe2332d1436c80ca71" target="_top" xlink:title=" ">
<polygon fill="white" stroke="black" points="628.5,-0 628.5,-30 721.5,-30 721.5,-0 628.5,-0"/>
<text text-anchor="start" x="636.5" y="-18" font-family="Helvetica,sans-Serif" font-size="10.00">mom_error_handler::</text>
<text text-anchor="middle" x="675" y="-7" font-family="Helvetica,sans-Serif" font-size="10.00">is_root_pe</text>
</a>
</g>
</g>
<!-- Node102&#45;&gt;Node103 -->
<g id="edge5" class="edge"><title>Node102&#45;&gt;Node103</title>
<path fill="none" stroke="midnightblue" d="M590.844,-15C599.683,-15 609.034,-15 618.151,-15"/>
<polygon fill="midnightblue" stroke="midnightblue" points="618.304,-18.5001 628.304,-15 618.304,-11.5001 618.304,-18.5001"/>
</g>
</g>
</svg>
