<?xml version="1.0" encoding="UTF-8" standalone="no"?>
<!DOCTYPE svg PUBLIC "-//W3C//DTD SVG 1.1//EN"
 "http://www.w3.org/Graphics/SVG/1.1/DTD/svg11.dtd">
<!-- Generated by graphviz version 2.30.1 (20170916.1124)
 -->
<!-- Title: mom_file_parser::get_param_logical Pages: 1 -->
<svg width="590pt" height="154pt"
 viewBox="0.00 0.00 590.00 154.00" xmlns="http://www.w3.org/2000/svg" xmlns:xlink="http://www.w3.org/1999/xlink">
<g id="graph0" class="graph" transform="scale(1 1) rotate(0) translate(4 150)">
<title>mom_file_parser::get_param_logical</title>
<polygon fill="white" stroke="white" points="-4,5 -4,-150 587,-150 587,5 -4,5"/>
<!-- Node92 -->
<g id="node1" class="node"><title>Node92</title>
<g id="a_node1"><a xlink:title=" ">
<polygon fill="#bfbfbf" stroke="black" points="0,-79 0,-109 92,-109 92,-79 0,-79"/>
<text text-anchor="start" x="8" y="-97" font-family="Helvetica,sans-Serif" font-size="10.00">mom_file_parser::get</text>
<text text-anchor="middle" x="46" y="-86" font-family="Helvetica,sans-Serif" font-size="10.00">_param_logical</text>
</a>
</g>
</g>
<!-- Node93 -->
<g id="node2" class="node"><title>Node93</title>
<g id="a_node2"><a xlink:href="namespacemom__file__parser.html#a131d0e59881b36c7365d769c87122071" target="_top" xlink:title=" ">
<polygon fill="white" stroke="black" points="131,-104 131,-134 223,-134 223,-104 131,-104"/>
<text text-anchor="start" x="139" y="-122" font-family="Helvetica,sans-Serif" font-size="10.00">mom_file_parser::log</text>
<text text-anchor="middle" x="177" y="-111" font-family="Helvetica,sans-Serif" font-size="10.00">_param_logical</text>
</a>
</g>
</g>
<!-- Node92&#45;&gt;Node93 -->
<g id="edge1" class="edge"><title>Node92&#45;&gt;Node93</title>
<path fill="none" stroke="midnightblue" d="M92.1179,-102.744C101.393,-104.541 111.257,-106.453 120.841,-108.31"/>
<polygon fill="midnightblue" stroke="midnightblue" points="120.206,-111.752 130.689,-110.219 121.538,-104.88 120.206,-111.752"/>
</g>
<!-- Node94 -->
<g id="node3" class="node"><title>Node94</title>
<g id="a_node3"><a xlink:href="namespacemom__file__parser.html#ae12cfb8a4de90b0454683ba5810c79a2" target="_top" xlink:title=" ">
<polygon fill="white" stroke="black" points="128,-55 128,-85 226,-85 226,-55 128,-55"/>
<text text-anchor="start" x="136" y="-73" font-family="Helvetica,sans-Serif" font-size="10.00">mom_file_parser::read</text>
<text text-anchor="middle" x="177" y="-62" font-family="Helvetica,sans-Serif" font-size="10.00">_param_logical</text>
</a>
</g>
</g>
<!-- Node92&#45;&gt;Node94 -->
<g id="edge2" class="edge"><title>Node92&#45;&gt;Node94</title>
<path fill="none" stroke="midnightblue" d="M92.1179,-85.606C100.369,-84.0709 109.086,-82.449 117.658,-80.8544"/>
<polygon fill="midnightblue" stroke="midnightblue" points="118.424,-84.2719 127.615,-79.0018 117.144,-77.39 118.424,-84.2719"/>
</g>
<!-- Node95 -->
<g id="node4" class="node"><title>Node95</title>
<g id="a_node4"><a xlink:href="namespacemom__file__parser.html#af883df6020543889b25986d6ee9701f7" target="_top" xlink:title=" ">
<polygon fill="white" stroke="black" points="262,-55 262,-85 354,-85 354,-55 262,-55"/>
<text text-anchor="start" x="270" y="-73" font-family="Helvetica,sans-Serif" font-size="10.00">mom_file_parser::get</text>
<text text-anchor="middle" x="308" y="-62" font-family="Helvetica,sans-Serif" font-size="10.00">_variable_line</text>
</a>
</g>
</g>
<!-- Node94&#45;&gt;Node95 -->
<g id="edge3" class="edge"><title>Node94&#45;&gt;Node95</title>
<path fill="none" stroke="midnightblue" d="M226.035,-70C234.387,-70 243.134,-70 251.662,-70"/>
<polygon fill="midnightblue" stroke="midnightblue" points="251.916,-73.5001 261.916,-70 251.916,-66.5001 251.916,-73.5001"/>
</g>
<!-- Node96 -->
<g id="node5" class="node"><title>Node96</title>
<g id="a_node5"><a xlink:href="namespacemom__file__parser.html#a58777b0faf747d59a793b4e238919dc6" target="_top" xlink:title=" ">
<polygon fill="white" stroke="black" points="420,-126.5 420,-145.5 552,-145.5 552,-126.5 420,-126.5"/>
<text text-anchor="middle" x="486" y="-133.5" font-family="Helvetica,sans-Serif" font-size="10.00">mom_file_parser::pushblocklevel</text>
</a>
</g>
</g>
<!-- Node95&#45;&gt;Node96 -->
<g id="edge4" class="edge"><title>Node95&#45;&gt;Node96</title>
<path fill="none" stroke="midnightblue" d="M331.119,-85.0541C346.904,-95.162 368.978,-108.039 390,-116 398.188,-119.101 406.966,-121.767 415.755,-124.046"/>
<polygon fill="midnightblue" stroke="midnightblue" points="415.109,-127.491 425.654,-126.459 416.767,-120.691 415.109,-127.491"/>
</g>
<!-- Node97 -->
<g id="node6" class="node"><title>Node97</title>
<g id="a_node6"><a xlink:href="namespacemom__file__parser.html#a7803aabff129cc7f56d4516bc24613f0" target="_top" xlink:title=" ">
<polygon fill="white" stroke="black" points="439,-77 439,-107 533,-107 533,-77 439,-77"/>
<text text-anchor="start" x="447" y="-95" font-family="Helvetica,sans-Serif" font-size="10.00">mom_file_parser::flag</text>
<text text-anchor="middle" x="486" y="-84" font-family="Helvetica,sans-Serif" font-size="10.00">_line_as_read</text>
</a>
</g>
</g>
<!-- Node95&#45;&gt;Node97 -->
<g id="edge5" class="edge"><title>Node95&#45;&gt;Node97</title>
<path fill="none" stroke="midnightblue" d="M354.324,-75.6655C377.05,-78.5062 404.785,-81.9732 428.848,-84.981"/>
<polygon fill="midnightblue" stroke="midnightblue" points="428.554,-88.4714 438.911,-86.2388 429.422,-81.5254 428.554,-88.4714"/>
</g>
<!-- Node98 -->
<g id="node7" class="node"><title>Node98</title>
<g id="a_node7"><a xlink:href="namespacemom__file__parser.html#a73b11b969d303b1fc0ba5235c812fd05" target="_top" xlink:title=" ">
<polygon fill="white" stroke="black" points="422,-38.5 422,-57.5 550,-57.5 550,-38.5 422,-38.5"/>
<text text-anchor="middle" x="486" y="-45.5" font-family="Helvetica,sans-Serif" font-size="10.00">mom_file_parser::popblocklevel</text>
</a>
</g>
</g>
<!-- Node95&#45;&gt;Node98 -->
<g id="edge6" class="edge"><title>Node95&#45;&gt;Node98</title>
<path fill="none" stroke="midnightblue" d="M354.324,-64.3345C371.844,-62.1445 392.342,-59.5823 411.839,-57.1452"/>
<polygon fill="midnightblue" stroke="midnightblue" points="412.434,-60.5981 421.922,-55.8847 411.565,-53.6522 412.434,-60.5981"/>
</g>
<!-- Node99 -->
<g id="node8" class="node"><title>Node99</title>
<g id="a_node8"><a xlink:href="namespacemom__file__parser.html#a0c9bb1e76b09bc09bae5402e63bd0f99" target="_top" xlink:title=" ">
<polygon fill="white" stroke="black" points="390,-0.5 390,-19.5 582,-19.5 582,-0.5 390,-0.5"/>
<text text-anchor="middle" x="486" y="-7.5" font-family="Helvetica,sans-Serif" font-size="10.00">mom_file_parser::overridewarninghasbeenissued</text>
</a>
</g>
</g>
<!-- Node95&#45;&gt;Node99 -->
<g id="edge7" class="edge"><title>Node95&#45;&gt;Node99</title>
<path fill="none" stroke="midnightblue" d="M334.478,-54.8477C350.051,-46.1656 370.636,-35.6974 390,-29 397.883,-26.2735 406.278,-23.8902 414.689,-21.8197"/>
<polygon fill="midnightblue" stroke="midnightblue" points="415.593,-25.203 424.541,-19.5308 414.009,-18.3846 415.593,-25.203"/>
</g>
</g>
</svg>
