<?xml version="1.0" encoding="UTF-8" standalone="no"?>
<!DOCTYPE svg PUBLIC "-//W3C//DTD SVG 1.1//EN"
 "http://www.w3.org/Graphics/SVG/1.1/DTD/svg11.dtd">
<!-- Generated by graphviz version 2.30.1 (20170916.1124)
 -->
<!-- Title: mom_ice_shelf::ice_shelf_advect_temp_x Pages: 1 -->
<svg width="234pt" height="38pt"
 viewBox="0.00 0.00 234.00 38.00" xmlns="http://www.w3.org/2000/svg" xmlns:xlink="http://www.w3.org/1999/xlink">
<g id="graph0" class="graph" transform="scale(1 1) rotate(0) translate(4 34)">
<title>mom_ice_shelf::ice_shelf_advect_temp_x</title>
<polygon fill="white" stroke="white" points="-4,5 -4,-34 231,-34 231,5 -4,5"/>
<!-- Node142 -->
<g id="node1" class="node"><title>Node142</title>
<g id="a_node1"><a xlink:title=" ">
<polygon fill="#bfbfbf" stroke="black" points="0,-0 0,-30 96,-30 96,-0 0,-0"/>
<text text-anchor="start" x="8" y="-18" font-family="Helvetica,sans-Serif" font-size="10.00">mom_ice_shelf::ice</text>
<text text-anchor="middle" x="48" y="-7" font-family="Helvetica,sans-Serif" font-size="10.00">_shelf_advect_temp_x</text>
</a>
</g>
</g>
<!-- Node143 -->
<g id="node2" class="node"><title>Node143</title>
<g id="a_node2"><a xlink:href="namespacemom__ice__shelf.html#ac30ce29228457ec8a19679f25960ef21" target="_top" xlink:title=" ">
<polygon fill="white" stroke="black" points="132.5,-0 132.5,-30 225.5,-30 225.5,-0 132.5,-0"/>
<text text-anchor="start" x="140.5" y="-18" font-family="Helvetica,sans-Serif" font-size="10.00">mom_ice_shelf::slope</text>
<text text-anchor="middle" x="179" y="-7" font-family="Helvetica,sans-Serif" font-size="10.00">_limiter</text>
</a>
</g>
</g>
<!-- Node142&#45;&gt;Node143 -->
<g id="edge1" class="edge"><title>Node142&#45;&gt;Node143</title>
<path fill="none" stroke="midnightblue" d="M96.3023,-15C104.778,-15 113.682,-15 122.367,-15"/>
<polygon fill="midnightblue" stroke="midnightblue" points="122.423,-18.5001 132.423,-15 122.423,-11.5001 122.423,-18.5001"/>
</g>
</g>
</svg>
