<?xml version="1.0" encoding="UTF-8" standalone="no"?>
<!DOCTYPE svg PUBLIC "-//W3C//DTD SVG 1.1//EN"
 "http://www.w3.org/Graphics/SVG/1.1/DTD/svg11.dtd">
<!-- Generated by graphviz version 2.30.1 (20170916.1124)
 -->
<!-- Title: mom_regridding::set_target_densities_from_gv Pages: 1 -->
<svg width="264pt" height="38pt"
 viewBox="0.00 0.00 264.00 38.00" xmlns="http://www.w3.org/2000/svg" xmlns:xlink="http://www.w3.org/1999/xlink">
<g id="graph0" class="graph" transform="scale(1 1) rotate(0) translate(4 34)">
<title>mom_regridding::set_target_densities_from_gv</title>
<polygon fill="white" stroke="white" points="-4,5 -4,-34 261,-34 261,5 -4,5"/>
<!-- Node525 -->
<g id="node1" class="node"><title>Node525</title>
<g id="a_node1"><a xlink:title="Set target densities based on the old Rlay variable.">
<polygon fill="#bfbfbf" stroke="black" points="144.5,-0 144.5,-30 255.5,-30 255.5,-0 144.5,-0"/>
<text text-anchor="start" x="152.5" y="-18" font-family="Helvetica,sans-Serif" font-size="10.00">mom_regridding::set</text>
<text text-anchor="middle" x="200" y="-7" font-family="Helvetica,sans-Serif" font-size="10.00">_target_densities_from_gv</text>
</a>
</g>
</g>
<!-- Node526 -->
<g id="node2" class="node"><title>Node526</title>
<g id="a_node2"><a xlink:href="namespacemom__regridding.html#af375f9f79f880b10aa85cd11de23519b" target="_top" xlink:title="Initialization and configures a regridding control structure based on customizable run&#45;time parameter...">
<polygon fill="white" stroke="black" points="0.5,-0 0.5,-30 107.5,-30 107.5,-0 0.5,-0"/>
<text text-anchor="start" x="8.5" y="-18" font-family="Helvetica,sans-Serif" font-size="10.00">mom_regridding::initialize</text>
<text text-anchor="middle" x="54" y="-7" font-family="Helvetica,sans-Serif" font-size="10.00">_regridding</text>
</a>
</g>
</g>
<!-- Node525&#45;&gt;Node526 -->
<g id="edge1" class="edge"><title>Node525&#45;&gt;Node526</title>
<path fill="none" stroke="midnightblue" d="M133.963,-15C125.205,-15 116.308,-15 107.798,-15"/>
<polygon fill="midnightblue" stroke="midnightblue" points="134.149,-18.5001 144.149,-15 134.149,-11.5001 134.149,-18.5001"/>
</g>
</g>
</svg>
