<?xml version="1.0" encoding="UTF-8" standalone="no"?>
<!DOCTYPE svg PUBLIC "-//W3C//DTD SVG 1.1//EN"
 "http://www.w3.org/Graphics/SVG/1.1/DTD/svg11.dtd">
<!-- Generated by graphviz version 2.30.1 (20170916.1124)
 -->
<!-- Title: mom_entrain_diffusive::find_maxf_kb Pages: 1 -->
<svg width="374pt" height="60pt"
 viewBox="0.00 0.00 374.00 60.00" xmlns="http://www.w3.org/2000/svg" xmlns:xlink="http://www.w3.org/1999/xlink">
<g id="graph0" class="graph" transform="scale(1 1) rotate(0) translate(4 56)">
<title>mom_entrain_diffusive::find_maxf_kb</title>
<polygon fill="white" stroke="white" points="-4,5 -4,-56 371,-56 371,5 -4,5"/>
<!-- Node46 -->
<g id="node1" class="node"><title>Node46</title>
<g id="a_node1"><a xlink:title=" ">
<polygon fill="#bfbfbf" stroke="black" points="268.5,-22 268.5,-52 365.5,-52 365.5,-22 268.5,-22"/>
<text text-anchor="start" x="276.5" y="-40" font-family="Helvetica,sans-Serif" font-size="10.00">mom_entrain_diffusive</text>
<text text-anchor="middle" x="317" y="-29" font-family="Helvetica,sans-Serif" font-size="10.00">::find_maxf_kb</text>
</a>
</g>
</g>
<!-- Node47 -->
<g id="node2" class="node"><title>Node47</title>
<g id="a_node2"><a xlink:href="namespacemom__entrain__diffusive.html#acf36bae78e6175d37c3de0d61b0ac32f" target="_top" xlink:title=" ">
<polygon fill="white" stroke="black" points="0.5,-22 0.5,-52 97.5,-52 97.5,-22 0.5,-22"/>
<text text-anchor="start" x="8.5" y="-40" font-family="Helvetica,sans-Serif" font-size="10.00">mom_entrain_diffusive</text>
<text text-anchor="middle" x="49" y="-29" font-family="Helvetica,sans-Serif" font-size="10.00">::entrainment_diffusive</text>
</a>
</g>
</g>
<!-- Node46&#45;&gt;Node47 -->
<g id="edge1" class="edge"><title>Node46&#45;&gt;Node47</title>
<path fill="none" stroke="midnightblue" d="M258.263,-38.5557C249.466,-38.7404 240.492,-38.8989 232,-39 188.448,-39.5184 177.552,-39.5184 134,-39 122.185,-38.8594 109.437,-38.6075 97.5297,-38.3289"/>
<polygon fill="midnightblue" stroke="midnightblue" points="258.551,-42.0503 268.47,-38.3289 258.395,-35.052 258.551,-42.0503"/>
</g>
<!-- Node48 -->
<g id="node3" class="node"><title>Node48</title>
<g id="a_node3"><a xlink:href="namespacemom__entrain__diffusive.html#adce1b1ba57f5245f1eda57e7a254d4df" target="_top" xlink:title=" ">
<polygon fill="white" stroke="black" points="134.5,-0 134.5,-30 231.5,-30 231.5,-0 134.5,-0"/>
<text text-anchor="start" x="142.5" y="-18" font-family="Helvetica,sans-Serif" font-size="10.00">mom_entrain_diffusive</text>
<text text-anchor="middle" x="183" y="-7" font-family="Helvetica,sans-Serif" font-size="10.00">::f_kb_to_ea_kb</text>
</a>
</g>
</g>
<!-- Node46&#45;&gt;Node48 -->
<g id="edge2" class="edge"><title>Node46&#45;&gt;Node48</title>
<path fill="none" stroke="midnightblue" d="M258.371,-27.3952C249.427,-25.9045 240.275,-24.3791 231.585,-22.9308"/>
<polygon fill="midnightblue" stroke="midnightblue" points="257.906,-30.8658 268.345,-29.0575 259.056,-23.961 257.906,-30.8658"/>
</g>
<!-- Node48&#45;&gt;Node47 -->
<g id="edge3" class="edge"><title>Node48&#45;&gt;Node47</title>
<path fill="none" stroke="midnightblue" d="M124.371,-24.6048C115.427,-26.0955 106.275,-27.6209 97.5851,-29.0692"/>
<polygon fill="midnightblue" stroke="midnightblue" points="125.056,-28.039 134.345,-22.9425 123.906,-21.1342 125.056,-28.039"/>
</g>
</g>
</svg>
