<?xml version="1.0" encoding="UTF-8" standalone="no"?>
<!DOCTYPE svg PUBLIC "-//W3C//DTD SVG 1.1//EN"
 "http://www.w3.org/Graphics/SVG/1.1/DTD/svg11.dtd">
<!-- Generated by graphviz version 2.30.1 (20170916.1124)
 -->
<!-- Title: mom_diag_mediator::post_data_2d_low Pages: 1 -->
<svg width="494pt" height="61pt"
 viewBox="0.00 0.00 494.00 61.00" xmlns="http://www.w3.org/2000/svg" xmlns:xlink="http://www.w3.org/1999/xlink">
<g id="graph0" class="graph" transform="scale(1 1) rotate(0) translate(4 57)">
<title>mom_diag_mediator::post_data_2d_low</title>
<polygon fill="white" stroke="white" points="-4,5 -4,-57 491,-57 491,5 -4,5"/>
<!-- Node310 -->
<g id="node1" class="node"><title>Node310</title>
<g id="a_node1"><a xlink:title=" ">
<polygon fill="#bfbfbf" stroke="black" points="0.5,-1 0.5,-31 95.5,-31 95.5,-1 0.5,-1"/>
<text text-anchor="start" x="8.5" y="-19" font-family="Helvetica,sans-Serif" font-size="10.00">mom_diag_mediator::</text>
<text text-anchor="middle" x="48" y="-8" font-family="Helvetica,sans-Serif" font-size="10.00">post_data_2d_low</text>
</a>
</g>
</g>
<!-- Node311 -->
<g id="node2" class="node"><title>Node311</title>
<g id="a_node2"><a xlink:href="namespacemom__error__handler.html#a33bcd190d460095104954f2e654f9fe6" target="_top" xlink:title="Issues a FATAL error if the assertion fails, i.e. the first argument is false.">
<polygon fill="white" stroke="black" points="132.5,-23 132.5,-53 225.5,-53 225.5,-23 132.5,-23"/>
<text text-anchor="start" x="140.5" y="-41" font-family="Helvetica,sans-Serif" font-size="10.00">mom_error_handler::</text>
<text text-anchor="middle" x="179" y="-30" font-family="Helvetica,sans-Serif" font-size="10.00">assert</text>
</a>
</g>
</g>
<!-- Node310&#45;&gt;Node311 -->
<g id="edge1" class="edge"><title>Node310&#45;&gt;Node311</title>
<path fill="none" stroke="midnightblue" d="M95.572,-23.9425C104.276,-25.427 113.454,-26.9921 122.398,-28.5175"/>
<polygon fill="midnightblue" stroke="midnightblue" points="121.914,-31.9855 132.361,-30.2165 123.091,-25.0851 121.914,-31.9855"/>
</g>
<!-- Node312 -->
<g id="node3" class="node"><title>Node312</title>
<g id="a_node3"><a xlink:href="namespacemom__error__handler.html#a460cfb79a06c29fc249952c2a3710d67" target="_top" xlink:title=" ">
<polygon fill="white" stroke="black" points="262.5,-1 262.5,-31 355.5,-31 355.5,-1 262.5,-1"/>
<text text-anchor="start" x="270.5" y="-19" font-family="Helvetica,sans-Serif" font-size="10.00">mom_error_handler::</text>
<text text-anchor="middle" x="309" y="-8" font-family="Helvetica,sans-Serif" font-size="10.00">mom_error</text>
</a>
</g>
</g>
<!-- Node310&#45;&gt;Node312 -->
<g id="edge4" class="edge"><title>Node310&#45;&gt;Node312</title>
<path fill="none" stroke="midnightblue" d="M95.5284,-14.6815C107.418,-14.3987 120.181,-14.1424 132,-14 173.775,-13.4968 184.225,-13.4906 226,-14 234.495,-14.1036 243.483,-14.2675 252.274,-14.458"/>
<polygon fill="midnightblue" stroke="midnightblue" points="252.384,-17.9613 262.462,-14.6918 252.545,-10.9632 252.384,-17.9613"/>
</g>
<!-- Node311&#45;&gt;Node312 -->
<g id="edge2" class="edge"><title>Node311&#45;&gt;Node312</title>
<path fill="none" stroke="midnightblue" d="M225.849,-30.1196C234.501,-28.6326 243.636,-27.0626 252.545,-25.5313"/>
<polygon fill="midnightblue" stroke="midnightblue" points="253.208,-28.9688 262.471,-23.8253 252.022,-22.0699 253.208,-28.9688"/>
</g>
<!-- Node313 -->
<g id="node4" class="node"><title>Node313</title>
<g id="a_node4"><a xlink:href="namespacemom__error__handler.html#ad5f00a53059c72fe2332d1436c80ca71" target="_top" xlink:title=" ">
<polygon fill="white" stroke="black" points="392.5,-1 392.5,-31 485.5,-31 485.5,-1 392.5,-1"/>
<text text-anchor="start" x="400.5" y="-19" font-family="Helvetica,sans-Serif" font-size="10.00">mom_error_handler::</text>
<text text-anchor="middle" x="439" y="-8" font-family="Helvetica,sans-Serif" font-size="10.00">is_root_pe</text>
</a>
</g>
</g>
<!-- Node312&#45;&gt;Node313 -->
<g id="edge3" class="edge"><title>Node312&#45;&gt;Node313</title>
<path fill="none" stroke="midnightblue" d="M355.849,-16C364.408,-16 373.439,-16 382.258,-16"/>
<polygon fill="midnightblue" stroke="midnightblue" points="382.471,-19.5001 392.471,-16 382.471,-12.5001 382.471,-19.5001"/>
</g>
</g>
</svg>
