<?xml version="1.0" encoding="UTF-8" standalone="no"?>
<!DOCTYPE svg PUBLIC "-//W3C//DTD SVG 1.1//EN"
 "http://www.w3.org/Graphics/SVG/1.1/DTD/svg11.dtd">
<!-- Generated by graphviz version 2.30.1 (20170916.1124)
 -->
<!-- Title: mom_coriolisadv::coriolisadv_init Pages: 1 -->
<!--zoomable 421 -->
<svg id="main" version="1.1" xmlns="http://www.w3.org/2000/svg" xmlns:xlink="http://www.w3.org/1999/xlink" xml:space="preserve" onload="init(evt)">
<style type="text/css"><![CDATA[
.edge:hover path { stroke: red; }
.edge:hover polygon { stroke: red; fill: red; }
]]></style>
<script type="text/javascript"><![CDATA[
var edges = document.getElementsByTagName('g');
if (edges && edges.length) {
  for (var i=0;i<edges.length;i++) {
    if (edges[i].id.substr(0,4)=='edge') {
      edges[i].setAttribute('class','edge');
    }
  }
}
]]></script>
        <defs>
                <circle id="rim" cx="0" cy="0" r="7"/>
                <circle id="rim2" cx="0" cy="0" r="3.5"/>
                <g id="zoomPlus">
                        <use xlink:href="#rim" fill="#404040">
                                <set attributeName="fill" to="#808080" begin="zoomplus.mouseover" end="zoomplus.mouseout"/>
                        </use>
                        <path d="M-4,0h8M0,-4v8" fill="none" stroke="white" stroke-width="1.5" pointer-events="none"/>
                </g>
                <g id="zoomMin">
                        <use xlink:href="#rim" fill="#404040">
                                <set attributeName="fill" to="#808080" begin="zoomminus.mouseover" end="zoomminus.mouseout"/>
                        </use>
                        <path d="M-4,0h8" fill="none" stroke="white" stroke-width="1.5" pointer-events="none"/>
                </g>
                <g id="dirArrow">
                        <path fill="none" stroke="white" stroke-width="1.5" d="M0,-3.0v7 M-2.5,-0.5L0,-3.0L2.5,-0.5"/>
                </g>
               <g id="resetDef">
                       <use xlink:href="#rim2" fill="#404040">
                               <set attributeName="fill" to="#808080" begin="reset.mouseover" end="reset.mouseout"/>
                       </use>
               </g>
        </defs>

<script type="text/javascript">
var viewWidth = 1060;
var viewHeight = 421;
var sectionId = 'dynsection-2';
</script>
<script xlink:href="svgpan.js"/>
<svg id="graph" class="graph">
<g id="viewport">
<title>mom_coriolisadv::coriolisadv_init</title>
<polygon fill="white" stroke="white" points="-4,5 -4,-416.674 1057,-416.674 1057,5 -4,5"/>
<!-- Node11 -->
<g id="node1" class="node"><title>Node11</title>
<g id="a_node1"><a xlink:title="Initializes the control structure for coriolisadv_cs.">
<polygon fill="#bfbfbf" stroke="black" points="0.5,-233.174 0.5,-252.174 131.5,-252.174 131.5,-233.174 0.5,-233.174"/>
<text text-anchor="middle" x="66" y="-240.174" font-family="Helvetica,sans-Serif" font-size="10.00">mom_coriolisadv::coriolisadv_init</text>
</a>
</g>
</g>
<!-- Node12 -->
<g id="node2" class="node"><title>Node12</title>
<g id="a_node2"><a xlink:href="namespacemom__error__handler.html#a460cfb79a06c29fc249952c2a3710d67" target="_top" xlink:title=" ">
<polygon fill="white" stroke="black" points="828.5,-229.674 828.5,-259.674 921.5,-259.674 921.5,-229.674 828.5,-229.674"/>
<text text-anchor="start" x="836.5" y="-247.674" font-family="Helvetica,sans-Serif" font-size="10.00">mom_error_handler::</text>
<text text-anchor="middle" x="875" y="-236.674" font-family="Helvetica,sans-Serif" font-size="10.00">mom_error</text>
</a>
</g>
</g>
<!-- Node11&#45;&gt;Node12 -->
<g id="edge1" class="edge"><title>Node11&#45;&gt;Node12</title>
<path fill="none" stroke="midnightblue" d="M75.0514,-252.301C106.088,-288.264 222.456,-412.674 347,-412.674 347,-412.674 347,-412.674 613,-412.674 718.993,-412.674 816.185,-313.501 855.531,-267.548"/>
<polygon fill="midnightblue" stroke="midnightblue" points="858.223,-269.785 861.982,-259.879 852.866,-265.279 858.223,-269.785"/>
</g>
<!-- Node14 -->
<g id="node4" class="node"><title>Node14</title>
<g id="a_node4"><a xlink:href="namespacemom__error__handler.html#a1c462df7b61f1296407b4af51dfeceab" target="_top" xlink:title=" ">
<polygon fill="white" stroke="black" points="301.5,-90.6741 301.5,-120.674 394.5,-120.674 394.5,-90.6741 301.5,-90.6741"/>
<text text-anchor="start" x="309.5" y="-108.674" font-family="Helvetica,sans-Serif" font-size="10.00">mom_error_handler::</text>
<text text-anchor="middle" x="348" y="-97.6741" font-family="Helvetica,sans-Serif" font-size="10.00">mom_mesg</text>
</a>
</g>
</g>
<!-- Node11&#45;&gt;Node14 -->
<g id="edge3" class="edge"><title>Node11&#45;&gt;Node14</title>
<path fill="none" stroke="midnightblue" d="M131.508,-239.277C171.909,-234.736 223.753,-224.331 264,-200.674 293.705,-183.214 318.246,-151.336 332.752,-129.354"/>
<polygon fill="midnightblue" stroke="midnightblue" points="335.722,-131.206 338.163,-120.896 329.826,-127.433 335.722,-131.206"/>
</g>
<!-- Node15 -->
<g id="node5" class="node"><title>Node15</title>
<g id="a_node5"><a xlink:href="namespacemom__diag__mediator.html#aa791f75f899ae9b7cd4756165a9c2a1b" target="_top" xlink:title="Returns the &quot;diag_mediator&quot; handle for a group (native, CMOR, z&#45;coord, ...) of diagnostics derived fr...">
<polygon fill="white" stroke="black" points="168.5,-249.674 168.5,-279.674 263.5,-279.674 263.5,-249.674 168.5,-249.674"/>
<text text-anchor="start" x="176.5" y="-267.674" font-family="Helvetica,sans-Serif" font-size="10.00">mom_diag_mediator::</text>
<text text-anchor="middle" x="216" y="-256.674" font-family="Helvetica,sans-Serif" font-size="10.00">register_diag_field</text>
</a>
</g>
</g>
<!-- Node11&#45;&gt;Node15 -->
<g id="edge5" class="edge"><title>Node11&#45;&gt;Node15</title>
<path fill="none" stroke="midnightblue" d="M131.054,-252.196C140.136,-253.546 149.421,-254.926 158.349,-256.253"/>
<polygon fill="midnightblue" stroke="midnightblue" points="157.842,-259.716 168.248,-257.724 158.871,-252.792 157.842,-259.716"/>
</g>
<!-- Node27 -->
<g id="node17" class="node"><title>Node27</title>
<g id="a_node17"><a xlink:href="namespacemom__string__functions.html#aca148baf726de2f028b7e7baad3c85d4" target="_top" xlink:title=" ">
<polygon fill="white" stroke="black" points="168.5,-161.674 168.5,-191.674 263.5,-191.674 263.5,-161.674 168.5,-161.674"/>
<text text-anchor="start" x="176.5" y="-179.674" font-family="Helvetica,sans-Serif" font-size="10.00">mom_string_functions</text>
<text text-anchor="middle" x="216" y="-168.674" font-family="Helvetica,sans-Serif" font-size="10.00">::uppercase</text>
</a>
</g>
</g>
<!-- Node11&#45;&gt;Node27 -->
<g id="edge21" class="edge"><title>Node11&#45;&gt;Node27</title>
<path fill="none" stroke="midnightblue" d="M88.5205,-233.077C110.25,-223.387 144.418,-208.15 171.766,-195.954"/>
<polygon fill="midnightblue" stroke="midnightblue" points="173.416,-199.051 181.123,-191.781 170.565,-192.658 173.416,-199.051"/>
</g>
<!-- Node13 -->
<g id="node3" class="node"><title>Node13</title>
<g id="a_node3"><a xlink:href="namespacemom__error__handler.html#ad5f00a53059c72fe2332d1436c80ca71" target="_top" xlink:title=" ">
<polygon fill="white" stroke="black" points="958.5,-25.6741 958.5,-55.6741 1051.5,-55.6741 1051.5,-25.6741 958.5,-25.6741"/>
<text text-anchor="start" x="966.5" y="-43.6741" font-family="Helvetica,sans-Serif" font-size="10.00">mom_error_handler::</text>
<text text-anchor="middle" x="1005" y="-32.6741" font-family="Helvetica,sans-Serif" font-size="10.00">is_root_pe</text>
</a>
</g>
</g>
<!-- Node12&#45;&gt;Node13 -->
<g id="edge2" class="edge"><title>Node12&#45;&gt;Node13</title>
<path fill="none" stroke="midnightblue" d="M885.412,-229.673C907.465,-194.527 962.616,-106.629 989.207,-64.2511"/>
<polygon fill="midnightblue" stroke="midnightblue" points="992.224,-66.0276 994.574,-55.6967 986.294,-62.3071 992.224,-66.0276"/>
</g>
<!-- Node14&#45;&gt;Node13 -->
<g id="edge4" class="edge"><title>Node14&#45;&gt;Node13</title>
<path fill="none" stroke="midnightblue" d="M359.978,-90.5164C374.284,-72.0422 401.145,-41.4646 432,-26.6741 504.381,8.02231 530.733,-2.6741 611,-2.6741 611,-2.6741 611,-2.6741 745,-2.6741 815.726,-2.6741 896.177,-16.7172 948.391,-27.7295"/>
<polygon fill="midnightblue" stroke="midnightblue" points="947.935,-31.2111 958.447,-29.8865 949.403,-24.3668 947.935,-31.2111"/>
</g>
<!-- Node16 -->
<g id="node6" class="node"><title>Node16</title>
<g id="a_node6"><a xlink:href="namespacemom__diag__mediator.html#ae50b35cba800ac5fd8975929fd2b9f4a" target="_top" xlink:title="Returns True if either the native of CMOr version of the diagnostic were registered....">
<polygon fill="white" stroke="black" points="300.5,-244.174 300.5,-285.174 395.5,-285.174 395.5,-244.174 300.5,-244.174"/>
<text text-anchor="start" x="308.5" y="-273.174" font-family="Helvetica,sans-Serif" font-size="10.00">mom_diag_mediator::</text>
<text text-anchor="start" x="308.5" y="-262.174" font-family="Helvetica,sans-Serif" font-size="10.00">register_diag_field</text>
<text text-anchor="middle" x="348" y="-251.174" font-family="Helvetica,sans-Serif" font-size="10.00">_expand_cmor</text>
</a>
</g>
</g>
<!-- Node15&#45;&gt;Node16 -->
<g id="edge6" class="edge"><title>Node15&#45;&gt;Node16</title>
<path fill="none" stroke="midnightblue" d="M263.566,-264.674C272.154,-264.674 281.21,-264.674 290.063,-264.674"/>
<polygon fill="midnightblue" stroke="midnightblue" points="290.322,-268.174 300.322,-264.674 290.322,-261.174 290.322,-268.174"/>
</g>
<!-- Node17 -->
<g id="node7" class="node"><title>Node17</title>
<g id="a_node7"><a xlink:href="namespacemom__diag__mediator.html#aca4a32fea8dade9f51e076a56b9bad2b" target="_top" xlink:title="Returns an FMS id from register_diag_field_fms (the diag_manager routine) after expanding axes (axes&#45;...">
<polygon fill="white" stroke="black" points="432.5,-343.174 432.5,-384.174 527.5,-384.174 527.5,-343.174 432.5,-343.174"/>
<text text-anchor="start" x="440.5" y="-372.174" font-family="Helvetica,sans-Serif" font-size="10.00">mom_diag_mediator::</text>
<text text-anchor="start" x="440.5" y="-361.174" font-family="Helvetica,sans-Serif" font-size="10.00">register_diag_field</text>
<text text-anchor="middle" x="480" y="-350.174" font-family="Helvetica,sans-Serif" font-size="10.00">_expand_axes</text>
</a>
</g>
</g>
<!-- Node16&#45;&gt;Node17 -->
<g id="edge7" class="edge"><title>Node16&#45;&gt;Node17</title>
<path fill="none" stroke="midnightblue" d="M372.809,-285.284C389.124,-299.131 411.45,-317.541 432,-332.674 434.066,-334.196 436.203,-335.731 438.374,-337.261"/>
<polygon fill="midnightblue" stroke="midnightblue" points="436.621,-340.304 446.84,-343.1 440.595,-334.542 436.621,-340.304"/>
</g>
<!-- Node18 -->
<g id="node8" class="node"><title>Node18</title>
<g id="a_node8"><a xlink:href="namespacemom__diag__mediator.html#ae0f04c145cb120fc2ab6cbfe9f166392" target="_top" xlink:title="Attaches &quot;cell_methods&quot; attribute to a variable based on defaults for axes_grp or optional arguments.">
<polygon fill="white" stroke="black" points="696.5,-254.674 696.5,-284.674 791.5,-284.674 791.5,-254.674 696.5,-254.674"/>
<text text-anchor="start" x="704.5" y="-272.674" font-family="Helvetica,sans-Serif" font-size="10.00">mom_diag_mediator::</text>
<text text-anchor="middle" x="744" y="-261.674" font-family="Helvetica,sans-Serif" font-size="10.00">attach_cell_methods</text>
</a>
</g>
</g>
<!-- Node16&#45;&gt;Node18 -->
<g id="edge8" class="edge"><title>Node16&#45;&gt;Node18</title>
<path fill="none" stroke="midnightblue" d="M395.744,-265.267C468.315,-266.188 607.861,-267.959 686.153,-268.953"/>
<polygon fill="midnightblue" stroke="midnightblue" points="686.273,-272.454 696.317,-269.082 686.362,-265.455 686.273,-272.454"/>
</g>
<!-- Node16&#45;&gt;Node13 -->
<g id="edge10" class="edge"><title>Node16&#45;&gt;Node13</title>
<path fill="none" stroke="midnightblue" d="M360.05,-244.002C391.361,-188.549 486.524,-40.6741 611,-40.6741 611,-40.6741 611,-40.6741 745,-40.6741 814.977,-40.6741 895.589,-40.6741 948.046,-40.6741"/>
<polygon fill="midnightblue" stroke="midnightblue" points="948.15,-44.1742 958.15,-40.6741 948.15,-37.1742 948.15,-44.1742"/>
</g>
<!-- Node19 -->
<g id="node9" class="node"><title>Node19</title>
<g id="a_node9"><a xlink:href="namespacemom__diag__mediator.html#a65fe8d329cf5dbfd08c98874a7a64407" target="_top" xlink:title="Log a diagnostic to the available diagnostics file.">
<polygon fill="white" stroke="black" points="432.5,-293.674 432.5,-323.674 527.5,-323.674 527.5,-293.674 432.5,-293.674"/>
<text text-anchor="start" x="440.5" y="-311.674" font-family="Helvetica,sans-Serif" font-size="10.00">mom_diag_mediator::</text>
<text text-anchor="middle" x="480" y="-300.674" font-family="Helvetica,sans-Serif" font-size="10.00">log_available_diag</text>
</a>
</g>
</g>
<!-- Node16&#45;&gt;Node19 -->
<g id="edge11" class="edge"><title>Node16&#45;&gt;Node19</title>
<path fill="none" stroke="midnightblue" d="M395.566,-280.435C405.073,-283.653 415.155,-287.065 424.9,-290.363"/>
<polygon fill="midnightblue" stroke="midnightblue" points="423.904,-293.721 434.499,-293.612 426.149,-287.091 423.904,-293.721"/>
</g>
<!-- Node21 -->
<g id="node11" class="node"><title>Node21</title>
<g id="a_node11"><a xlink:href="namespacemom__diag__mediator.html#a8415b33a337b1fbc7535688eca85ab37" target="_top" xlink:title="Create a diagnostic type and attached to list.">
<polygon fill="white" stroke="black" points="432.5,-167.674 432.5,-197.674 527.5,-197.674 527.5,-167.674 432.5,-167.674"/>
<text text-anchor="start" x="440.5" y="-185.674" font-family="Helvetica,sans-Serif" font-size="10.00">mom_diag_mediator::</text>
<text text-anchor="middle" x="480" y="-174.674" font-family="Helvetica,sans-Serif" font-size="10.00">add_diag_to_list</text>
</a>
</g>
</g>
<!-- Node16&#45;&gt;Node21 -->
<g id="edge13" class="edge"><title>Node16&#45;&gt;Node21</title>
<path fill="none" stroke="midnightblue" d="M381.804,-243.982C401.503,-231.557 426.48,-215.802 446.181,-203.375"/>
<polygon fill="midnightblue" stroke="midnightblue" points="448.233,-206.219 454.824,-197.923 444.499,-200.298 448.233,-206.219"/>
</g>
<!-- Node18&#45;&gt;Node12 -->
<g id="edge9" class="edge"><title>Node18&#45;&gt;Node12</title>
<path fill="none" stroke="midnightblue" d="M791.572,-260.649C800.276,-258.962 809.454,-257.183 818.398,-255.45"/>
<polygon fill="midnightblue" stroke="midnightblue" points="819.209,-258.858 828.361,-253.519 817.877,-251.986 819.209,-258.858"/>
</g>
<!-- Node20 -->
<g id="node10" class="node"><title>Node20</title>
<g id="a_node10"><a xlink:href="namespacemom__diag__mediator.html#ae002ca447acba252bf7bdc042e75a01e" target="_top" xlink:title=" ">
<polygon fill="white" stroke="black" points="564.5,-293.674 564.5,-323.674 659.5,-323.674 659.5,-293.674 564.5,-293.674"/>
<text text-anchor="start" x="572.5" y="-311.674" font-family="Helvetica,sans-Serif" font-size="10.00">mom_diag_mediator::</text>
<text text-anchor="middle" x="612" y="-300.674" font-family="Helvetica,sans-Serif" font-size="10.00">describe_option</text>
</a>
</g>
</g>
<!-- Node19&#45;&gt;Node20 -->
<g id="edge12" class="edge"><title>Node19&#45;&gt;Node20</title>
<path fill="none" stroke="midnightblue" d="M527.566,-308.674C536.154,-308.674 545.21,-308.674 554.063,-308.674"/>
<polygon fill="midnightblue" stroke="midnightblue" points="554.322,-312.174 564.322,-308.674 554.322,-305.174 554.322,-312.174"/>
</g>
<!-- Node22 -->
<g id="node12" class="node"><title>Node22</title>
<g id="a_node12"><a xlink:href="namespacemom__diag__mediator.html#a3f7442639213320f7429e2288a79fda2" target="_top" xlink:title="Returns a new diagnostic id, it may be necessary to expand the diagnostics array.">
<polygon fill="white" stroke="black" points="564.5,-167.674 564.5,-197.674 659.5,-197.674 659.5,-167.674 564.5,-167.674"/>
<text text-anchor="start" x="572.5" y="-185.674" font-family="Helvetica,sans-Serif" font-size="10.00">mom_diag_mediator::</text>
<text text-anchor="middle" x="612" y="-174.674" font-family="Helvetica,sans-Serif" font-size="10.00">get_new_diag_id</text>
</a>
</g>
</g>
<!-- Node21&#45;&gt;Node22 -->
<g id="edge14" class="edge"><title>Node21&#45;&gt;Node22</title>
<path fill="none" stroke="midnightblue" d="M527.566,-182.674C536.154,-182.674 545.21,-182.674 554.063,-182.674"/>
<polygon fill="midnightblue" stroke="midnightblue" points="554.322,-186.174 564.322,-182.674 554.322,-179.174 554.322,-186.174"/>
</g>
<!-- Node25 -->
<g id="node15" class="node"><title>Node25</title>
<g id="a_node15"><a xlink:href="namespacemom__diag__mediator.html#a1b0bed2113a0c268eafd1bafbb48bd4f" target="_top" xlink:title=" ">
<polygon fill="white" stroke="black" points="564.5,-118.674 564.5,-148.674 659.5,-148.674 659.5,-118.674 564.5,-118.674"/>
<text text-anchor="start" x="572.5" y="-136.674" font-family="Helvetica,sans-Serif" font-size="10.00">mom_diag_mediator::</text>
<text text-anchor="middle" x="612" y="-125.674" font-family="Helvetica,sans-Serif" font-size="10.00">alloc_diag_with_id</text>
</a>
</g>
</g>
<!-- Node21&#45;&gt;Node25 -->
<g id="edge18" class="edge"><title>Node21&#45;&gt;Node25</title>
<path fill="none" stroke="midnightblue" d="M521.065,-167.573C533.792,-162.776 548.022,-157.412 561.341,-152.392"/>
<polygon fill="midnightblue" stroke="midnightblue" points="562.721,-155.612 570.843,-148.81 560.252,-149.062 562.721,-155.612"/>
</g>
<!-- Node23 -->
<g id="node13" class="node"><title>Node23</title>
<g id="a_node13"><a xlink:href="namespacemom__error__handler.html#a33bcd190d460095104954f2e654f9fe6" target="_top" xlink:title="Issues a FATAL error if the assertion fails, i.e. the first argument is false.">
<polygon fill="white" stroke="black" points="697.5,-205.674 697.5,-235.674 790.5,-235.674 790.5,-205.674 697.5,-205.674"/>
<text text-anchor="start" x="705.5" y="-223.674" font-family="Helvetica,sans-Serif" font-size="10.00">mom_error_handler::</text>
<text text-anchor="middle" x="744" y="-212.674" font-family="Helvetica,sans-Serif" font-size="10.00">assert</text>
</a>
</g>
</g>
<!-- Node21&#45;&gt;Node23 -->
<g id="edge19" class="edge"><title>Node21&#45;&gt;Node23</title>
<path fill="none" stroke="midnightblue" d="M526.701,-197.692C538.719,-201.143 551.751,-204.448 564,-206.674 604.893,-214.106 651.748,-217.594 687.261,-219.23"/>
<polygon fill="midnightblue" stroke="midnightblue" points="687.289,-222.734 697.429,-219.663 687.587,-215.741 687.289,-222.734"/>
</g>
<!-- Node26 -->
<g id="node16" class="node"><title>Node26</title>
<g id="a_node16"><a xlink:href="namespacemom__diag__mediator.html#a085f313357879a914af6450f2ab8ec79" target="_top" xlink:title="Associates the mask pointers within diag with the appropriate mask based on the axes group.">
<polygon fill="white" stroke="black" points="564.5,-69.6741 564.5,-99.6741 659.5,-99.6741 659.5,-69.6741 564.5,-69.6741"/>
<text text-anchor="start" x="572.5" y="-87.6741" font-family="Helvetica,sans-Serif" font-size="10.00">mom_diag_mediator::</text>
<text text-anchor="middle" x="612" y="-76.6741" font-family="Helvetica,sans-Serif" font-size="10.00">set_diag_mask</text>
</a>
</g>
</g>
<!-- Node21&#45;&gt;Node26 -->
<g id="edge20" class="edge"><title>Node21&#45;&gt;Node26</title>
<path fill="none" stroke="midnightblue" d="M495.621,-167.508C511.483,-151.586 538.031,-126.445 564,-108.674 565.843,-107.413 567.761,-106.174 569.723,-104.965"/>
<polygon fill="midnightblue" stroke="midnightblue" points="571.612,-107.916 578.513,-99.8775 568.105,-101.858 571.612,-107.916"/>
</g>
<!-- Node22&#45;&gt;Node23 -->
<g id="edge15" class="edge"><title>Node22&#45;&gt;Node23</title>
<path fill="none" stroke="midnightblue" d="M659.566,-196.286C668.65,-198.941 678.258,-201.749 687.596,-204.479"/>
<polygon fill="midnightblue" stroke="midnightblue" points="686.615,-207.839 697.195,-207.285 688.579,-201.12 686.615,-207.839"/>
</g>
<!-- Node24 -->
<g id="node14" class="node"><title>Node24</title>
<g id="a_node14"><a xlink:href="namespacemom__diag__mediator.html#a883862f004e30bbc5211f38635511ba0" target="_top" xlink:title="Initializes a diag_type (used after allocating new memory)">
<polygon fill="white" stroke="black" points="696.5,-156.674 696.5,-186.674 791.5,-186.674 791.5,-156.674 696.5,-156.674"/>
<text text-anchor="start" x="704.5" y="-174.674" font-family="Helvetica,sans-Serif" font-size="10.00">mom_diag_mediator::</text>
<text text-anchor="middle" x="744" y="-163.674" font-family="Helvetica,sans-Serif" font-size="10.00">initialize_diag_type</text>
</a>
</g>
</g>
<!-- Node22&#45;&gt;Node24 -->
<g id="edge17" class="edge"><title>Node22&#45;&gt;Node24</title>
<path fill="none" stroke="midnightblue" d="M659.566,-178.734C668.247,-177.999 677.406,-177.224 686.351,-176.467"/>
<polygon fill="midnightblue" stroke="midnightblue" points="686.653,-179.955 696.322,-175.624 686.063,-172.979 686.653,-179.955"/>
</g>
<!-- Node23&#45;&gt;Node12 -->
<g id="edge16" class="edge"><title>Node23&#45;&gt;Node12</title>
<path fill="none" stroke="midnightblue" d="M790.844,-229.203C799.778,-230.865 809.236,-232.625 818.445,-234.338"/>
<polygon fill="midnightblue" stroke="midnightblue" points="817.832,-237.784 828.304,-236.172 819.113,-230.902 817.832,-237.784"/>
</g>
</g>
</svg>
        <g id="navigator" transform="translate(0 0)" fill="#404254">
                <rect fill="#f2f5e9" fill-opacity="0.5" stroke="#606060" stroke-width=".5" x="0" y="0" width="60" height="60"/>
                <use id="zoomplus" xlink:href="#zoomPlus" x="17" y="9" onmousedown="handleZoom(evt,'in')"/>
                <use id="zoomminus" xlink:href="#zoomMin" x="42" y="9" onmousedown="handleZoom(evt,'out')"/>
                <use id="reset" xlink:href="#resetDef" x="30" y="36" onmousedown="handleReset()"/>
                <g id="arrowUp" xlink:href="#dirArrow" transform="translate(30 24)" onmousedown="handlePan(0,-1)">
                  <use xlink:href="#rim" fill="#404040">
                        <set attributeName="fill" to="#808080" begin="arrowUp.mouseover" end="arrowUp.mouseout"/>
                  </use>
                  <path fill="none" stroke="white" stroke-width="1.5" d="M0,-3.0v7 M-2.5,-0.5L0,-3.0L2.5,-0.5"/>
                </g>
                <g id="arrowRight" xlink:href="#dirArrow" transform="rotate(90) translate(36 -43)" onmousedown="handlePan(1,0)">
                  <use xlink:href="#rim" fill="#404040">
                        <set attributeName="fill" to="#808080" begin="arrowRight.mouseover" end="arrowRight.mouseout"/>
                  </use>
                  <path fill="none" stroke="white" stroke-width="1.5" d="M0,-3.0v7 M-2.5,-0.5L0,-3.0L2.5,-0.5"/>
                </g>
                <g id="arrowDown" xlink:href="#dirArrow" transform="rotate(180) translate(-30 -48)" onmousedown="handlePan(0,1)">
                  <use xlink:href="#rim" fill="#404040">
                        <set attributeName="fill" to="#808080" begin="arrowDown.mouseover" end="arrowDown.mouseout"/>
                  </use>
                  <path fill="none" stroke="white" stroke-width="1.5" d="M0,-3.0v7 M-2.5,-0.5L0,-3.0L2.5,-0.5"/>
                </g>
                <g id="arrowLeft" xlink:href="#dirArrow" transform="rotate(270) translate(-36 17)" onmousedown="handlePan(-1,0)">
                  <use xlink:href="#rim" fill="#404040">
                        <set attributeName="fill" to="#808080" begin="arrowLeft.mouseover" end="arrowLeft.mouseout"/>
                  </use>
                  <path fill="none" stroke="white" stroke-width="1.5" d="M0,-3.0v7 M-2.5,-0.5L0,-3.0L2.5,-0.5"/>
                </g>
        </g>
        <svg viewBox="0 0 15 15" width="100%" height="30px" preserveAspectRatio="xMaxYMin meet">
         <g id="arrow_out" transform="scale(0.3 0.3)">
          <a xlink:href="namespacemom__coriolisadv_ad3ce07f23ce7b484a5a9e0c0abe8b1cd_cgraph_org.svg" target="_base">
           <rect id="button" ry="5" rx="5" y="6" x="6" height="38" width="38"
                fill="#f2f5e9" fill-opacity="0.5" stroke="#606060" stroke-width="1.0"/>
           <path id="arrow"
             d="M 11.500037,31.436501 C 11.940474,20.09759 22.043105,11.32322 32.158766,21.979434 L 37.068811,17.246167 C 37.068811,17.246167 37.088388,32 37.088388,32 L 22.160133,31.978069 C 22.160133,31.978069 26.997745,27.140456 26.997745,27.140456 C 18.528582,18.264221 13.291696,25.230495 11.500037,31.436501 z"
             style="fill:#404040;"/>
          </a>
         </g>
        </svg>
</svg>
