<?xml version="1.0" encoding="UTF-8" standalone="no"?>
<!DOCTYPE svg PUBLIC "-//W3C//DTD SVG 1.1//EN"
 "http://www.w3.org/Graphics/SVG/1.1/DTD/svg11.dtd">
<!-- Generated by graphviz version 2.30.1 (20170916.1124)
 -->
<!-- Title: mom_diag_mediator::add_diag_to_list Pages: 1 -->
<svg width="764pt" height="574pt"
 viewBox="0.00 0.00 764.00 574.00" xmlns="http://www.w3.org/2000/svg" xmlns:xlink="http://www.w3.org/1999/xlink">
<g id="graph0" class="graph" transform="scale(1 1) rotate(0) translate(4 570)">
<title>mom_diag_mediator::add_diag_to_list</title>
<polygon fill="white" stroke="white" points="-4,5 -4,-570 761,-570 761,5 -4,5"/>
<!-- Node8 -->
<g id="node1" class="node"><title>Node8</title>
<g id="a_node1"><a xlink:title="Create a diagnostic type and attached to list.">
<polygon fill="#bfbfbf" stroke="black" points="660.5,-224 660.5,-254 755.5,-254 755.5,-224 660.5,-224"/>
<text text-anchor="start" x="668.5" y="-242" font-family="Helvetica,sans-Serif" font-size="10.00">mom_diag_mediator::</text>
<text text-anchor="middle" x="708" y="-231" font-family="Helvetica,sans-Serif" font-size="10.00">add_diag_to_list</text>
</a>
</g>
</g>
<!-- Node9 -->
<g id="node2" class="node"><title>Node9</title>
<g id="a_node2"><a xlink:href="namespacemom__diag__mediator.html#ae50b35cba800ac5fd8975929fd2b9f4a" target="_top" xlink:title="Returns True if either the native of CMOr version of the diagnostic were registered....">
<polygon fill="white" stroke="black" points="528.5,-218.5 528.5,-259.5 623.5,-259.5 623.5,-218.5 528.5,-218.5"/>
<text text-anchor="start" x="536.5" y="-247.5" font-family="Helvetica,sans-Serif" font-size="10.00">mom_diag_mediator::</text>
<text text-anchor="start" x="536.5" y="-236.5" font-family="Helvetica,sans-Serif" font-size="10.00">register_diag_field</text>
<text text-anchor="middle" x="576" y="-225.5" font-family="Helvetica,sans-Serif" font-size="10.00">_expand_cmor</text>
</a>
</g>
</g>
<!-- Node8&#45;&gt;Node9 -->
<g id="edge1" class="edge"><title>Node8&#45;&gt;Node9</title>
<path fill="none" stroke="midnightblue" d="M650.178,-239C641.327,-239 632.27,-239 623.678,-239"/>
<polygon fill="midnightblue" stroke="midnightblue" points="650.434,-242.5 660.434,-239 650.434,-235.5 650.434,-242.5"/>
</g>
<!-- Node10 -->
<g id="node3" class="node"><title>Node10</title>
<g id="a_node3"><a xlink:href="namespacemom__diag__mediator.html#aa791f75f899ae9b7cd4756165a9c2a1b" target="_top" xlink:title="Returns the &quot;diag_mediator&quot; handle for a group (native, CMOR, z&#45;coord, ...) of diagnostics derived fr...">
<polygon fill="white" stroke="black" points="396.5,-224 396.5,-254 491.5,-254 491.5,-224 396.5,-224"/>
<text text-anchor="start" x="404.5" y="-242" font-family="Helvetica,sans-Serif" font-size="10.00">mom_diag_mediator::</text>
<text text-anchor="middle" x="444" y="-231" font-family="Helvetica,sans-Serif" font-size="10.00">register_diag_field</text>
</a>
</g>
</g>
<!-- Node9&#45;&gt;Node10 -->
<g id="edge2" class="edge"><title>Node9&#45;&gt;Node10</title>
<path fill="none" stroke="midnightblue" d="M518.178,-239C509.327,-239 500.27,-239 491.678,-239"/>
<polygon fill="midnightblue" stroke="midnightblue" points="518.434,-242.5 528.434,-239 518.434,-235.5 518.434,-242.5"/>
</g>
<!-- Node11 -->
<g id="node4" class="node"><title>Node11</title>
<g id="a_node4"><a xlink:href="namespacemom__ale.html#a994efb3c62fc5f63da2617f29cbd6be1" target="_top" xlink:title="Initialize diagnostics for the ALE module.">
<polygon fill="white" stroke="black" points="246,-459 246,-489 342,-489 342,-459 246,-459"/>
<text text-anchor="start" x="254" y="-477" font-family="Helvetica,sans-Serif" font-size="10.00">mom_ale::ale_register</text>
<text text-anchor="middle" x="294" y="-466" font-family="Helvetica,sans-Serif" font-size="10.00">_diags</text>
</a>
</g>
</g>
<!-- Node10&#45;&gt;Node11 -->
<g id="edge3" class="edge"><title>Node10&#45;&gt;Node11</title>
<path fill="none" stroke="midnightblue" d="M439.683,-264.236C432.688,-307.692 412.5,-396.982 360,-449 354.933,-454.021 348.749,-458.055 342.232,-461.291"/>
<polygon fill="midnightblue" stroke="midnightblue" points="443.162,-264.635 441.189,-254.226 436.24,-263.594 443.162,-264.635"/>
</g>
<!-- Node12 -->
<g id="node5" class="node"><title>Node12</title>
<g id="a_node5"><a xlink:href="namespacemom__coriolisadv.html#ad3ce07f23ce7b484a5a9e0c0abe8b1cd" target="_top" xlink:title="Initializes the control structure for coriolisadv_cs.">
<polygon fill="white" stroke="black" points="228.5,-420.5 228.5,-439.5 359.5,-439.5 359.5,-420.5 228.5,-420.5"/>
<text text-anchor="middle" x="294" y="-427.5" font-family="Helvetica,sans-Serif" font-size="10.00">mom_coriolisadv::coriolisadv_init</text>
</a>
</g>
</g>
<!-- Node10&#45;&gt;Node12 -->
<g id="edge4" class="edge"><title>Node10&#45;&gt;Node12</title>
<path fill="none" stroke="midnightblue" d="M437.568,-264.066C428.206,-301.298 405.491,-371.001 360,-410 354.891,-414.38 348.834,-417.801 342.505,-420.473"/>
<polygon fill="midnightblue" stroke="midnightblue" points="441.042,-264.59 439.96,-254.05 434.233,-262.964 441.042,-264.59"/>
</g>
<!-- Node17 -->
<g id="node10" class="node"><title>Node17</title>
<g id="a_node10"><a xlink:href="namespacemom__diag__mediator.html#a21267e25d12fa3e5d2540d2a299d2d2c" target="_top" xlink:title="Registers a diagnostic using the information encapsulated in the vardesc type argument and returns an...">
<polygon fill="white" stroke="black" points="246.5,-371 246.5,-401 341.5,-401 341.5,-371 246.5,-371"/>
<text text-anchor="start" x="254.5" y="-389" font-family="Helvetica,sans-Serif" font-size="10.00">mom_diag_mediator::</text>
<text text-anchor="middle" x="294" y="-378" font-family="Helvetica,sans-Serif" font-size="10.00">ocean_register_diag</text>
</a>
</g>
</g>
<!-- Node10&#45;&gt;Node17 -->
<g id="edge9" class="edge"><title>Node10&#45;&gt;Node17</title>
<path fill="none" stroke="midnightblue" d="M431.927,-263.57C418.495,-290.842 393.434,-334.496 360,-361 354.505,-365.356 348.163,-369.022 341.64,-372.086"/>
<polygon fill="midnightblue" stroke="midnightblue" points="435.19,-264.857 436.343,-254.325 428.874,-261.84 435.19,-264.857"/>
</g>
<!-- Node19 -->
<g id="node12" class="node"><title>Node19</title>
<g id="a_node12"><a xlink:href="namespacemom__diapyc__energy__req.html#aa0ce122f4dc6d9a6ec9e17996484bb76" target="_top" xlink:title=" ">
<polygon fill="white" stroke="black" points="240.5,-322 240.5,-352 347.5,-352 347.5,-322 240.5,-322"/>
<text text-anchor="start" x="248.5" y="-340" font-family="Helvetica,sans-Serif" font-size="10.00">mom_diapyc_energy_req</text>
<text text-anchor="middle" x="294" y="-329" font-family="Helvetica,sans-Serif" font-size="10.00">::diapyc_energy_req_init</text>
</a>
</g>
</g>
<!-- Node10&#45;&gt;Node19 -->
<g id="edge11" class="edge"><title>Node10&#45;&gt;Node19</title>
<path fill="none" stroke="midnightblue" d="M421.793,-261.498C405.956,-277.285 383.138,-297.996 360,-312 353.897,-315.694 347.155,-319.013 340.392,-321.934"/>
<polygon fill="midnightblue" stroke="midnightblue" points="424.46,-263.777 428.978,-254.194 419.47,-258.868 424.46,-263.777"/>
</g>
<!-- Node20 -->
<g id="node13" class="node"><title>Node20</title>
<g id="a_node13"><a xlink:href="namespacemom__diffconvection.html#ac36d9d7fd69e4422e7de01242094ff34" target="_top" xlink:title=" ">
<polygon fill="white" stroke="black" points="250.5,-273 250.5,-303 337.5,-303 337.5,-273 250.5,-273"/>
<text text-anchor="start" x="258.5" y="-291" font-family="Helvetica,sans-Serif" font-size="10.00">mom_diffconvection</text>
<text text-anchor="middle" x="294" y="-280" font-family="Helvetica,sans-Serif" font-size="10.00">::diffconvection_init</text>
</a>
</g>
</g>
<!-- Node10&#45;&gt;Node20 -->
<g id="edge12" class="edge"><title>Node10&#45;&gt;Node20</title>
<path fill="none" stroke="midnightblue" d="M387.813,-257.271C371.24,-262.758 353.318,-268.692 337.684,-273.868"/>
<polygon fill="midnightblue" stroke="midnightblue" points="388.994,-260.567 397.387,-254.101 386.794,-253.922 388.994,-260.567"/>
</g>
<!-- Node21 -->
<g id="node14" class="node"><title>Node21</title>
<g id="a_node14"><a xlink:href="namespacemom__int__tide__input.html#a29a707637da633ccee155b53557b5f17" target="_top" xlink:title=" ">
<polygon fill="white" stroke="black" points="251,-224 251,-254 337,-254 337,-224 251,-224"/>
<text text-anchor="start" x="259" y="-242" font-family="Helvetica,sans-Serif" font-size="10.00">mom_int_tide_input</text>
<text text-anchor="middle" x="294" y="-231" font-family="Helvetica,sans-Serif" font-size="10.00">::int_tide_input_init</text>
</a>
</g>
</g>
<!-- Node10&#45;&gt;Node21 -->
<g id="edge13" class="edge"><title>Node10&#45;&gt;Node21</title>
<path fill="none" stroke="midnightblue" d="M385.713,-239C369.497,-239 352.151,-239 337.015,-239"/>
<polygon fill="midnightblue" stroke="midnightblue" points="386.172,-242.5 396.172,-239 386.172,-235.5 386.172,-242.5"/>
</g>
<!-- Node22 -->
<g id="node15" class="node"><title>Node22</title>
<g id="a_node15"><a xlink:href="namespacemom__kpp.html#a9c834424b6e067e280928db3700ec77e" target="_top" xlink:title="Initialize the CVmix KPP module and set up diagnostics Returns True if KPP is to be used,...">
<polygon fill="white" stroke="black" points="252.5,-185.5 252.5,-204.5 335.5,-204.5 335.5,-185.5 252.5,-185.5"/>
<text text-anchor="middle" x="294" y="-192.5" font-family="Helvetica,sans-Serif" font-size="10.00">mom_kpp::kpp_init</text>
</a>
</g>
</g>
<!-- Node10&#45;&gt;Node22 -->
<g id="edge14" class="edge"><title>Node10&#45;&gt;Node22</title>
<path fill="none" stroke="midnightblue" d="M386.465,-222.192C366.336,-216.208 344.378,-209.68 327.023,-204.52"/>
<polygon fill="midnightblue" stroke="midnightblue" points="385.589,-225.583 396.172,-225.078 387.584,-218.873 385.589,-225.583"/>
</g>
<!-- Node23 -->
<g id="node16" class="node"><title>Node23</title>
<g id="a_node16"><a xlink:href="namespacemom__opacity.html#ab8dbcd70b93f5bd77b2a525cd73f0eb9" target="_top" xlink:title=" ">
<polygon fill="white" stroke="black" points="240.5,-147.5 240.5,-166.5 347.5,-166.5 347.5,-147.5 240.5,-147.5"/>
<text text-anchor="middle" x="294" y="-154.5" font-family="Helvetica,sans-Serif" font-size="10.00">mom_opacity::opacity_init</text>
</a>
</g>
</g>
<!-- Node10&#45;&gt;Node23 -->
<g id="edge15" class="edge"><title>Node10&#45;&gt;Node23</title>
<path fill="none" stroke="midnightblue" d="M419.057,-217.054C403.275,-203.583 381.598,-186.885 360,-176 352.546,-172.243 344.226,-169.109 336.095,-166.541"/>
<polygon fill="midnightblue" stroke="midnightblue" points="416.905,-219.821 426.742,-223.757 421.506,-214.546 416.905,-219.821"/>
</g>
<!-- Node25 -->
<g id="node18" class="node"><title>Node25</title>
<g id="a_node18"><a xlink:href="namespacemom__set__diffusivity.html#ac0a2a098bc7dc3b087a4bae87511b7ca" target="_top" xlink:title=" ">
<polygon fill="white" stroke="black" points="251,-98 251,-128 337,-128 337,-98 251,-98"/>
<text text-anchor="start" x="259" y="-116" font-family="Helvetica,sans-Serif" font-size="10.00">mom_set_diffusivity</text>
<text text-anchor="middle" x="294" y="-105" font-family="Helvetica,sans-Serif" font-size="10.00">::set_diffusivity_init</text>
</a>
</g>
</g>
<!-- Node10&#45;&gt;Node25 -->
<g id="edge17" class="edge"><title>Node10&#45;&gt;Node25</title>
<path fill="none" stroke="midnightblue" d="M428.664,-215.241C413.944,-192.624 389.117,-159.01 360,-138 353.137,-133.048 345.167,-128.935 337.209,-125.572"/>
<polygon fill="midnightblue" stroke="midnightblue" points="425.845,-217.331 434.157,-223.901 431.756,-213.582 425.845,-217.331"/>
</g>
<!-- Node26 -->
<g id="node19" class="node"><title>Node26</title>
<g id="a_node19"><a xlink:href="namespacemom__neutral__diffusion.html#a87cf821c52ac1111493d4168f0a91d17" target="_top" xlink:title="Diagnostic handles for neutral diffusion tendencies.">
<polygon fill="white" stroke="black" points="237.5,-49 237.5,-79 350.5,-79 350.5,-49 237.5,-49"/>
<text text-anchor="start" x="245.5" y="-67" font-family="Helvetica,sans-Serif" font-size="10.00">mom_neutral_diffusion</text>
<text text-anchor="middle" x="294" y="-56" font-family="Helvetica,sans-Serif" font-size="10.00">::neutral_diffusion_diag_init</text>
</a>
</g>
</g>
<!-- Node10&#45;&gt;Node26 -->
<g id="edge18" class="edge"><title>Node10&#45;&gt;Node26</title>
<path fill="none" stroke="midnightblue" d="M435.316,-214.262C423.912,-181.366 399.5,-123.385 360,-89 355.623,-85.1895 350.602,-81.929 345.332,-79.1463"/>
<polygon fill="midnightblue" stroke="midnightblue" points="432.08,-215.621 438.564,-223.999 438.72,-213.406 432.08,-215.621"/>
</g>
<!-- Node29 -->
<g id="node22" class="node"><title>Node29</title>
<g id="a_node22"><a xlink:href="namespacemom__tracer__hor__diff.html#a2fc116afe7913994a8bfc9570efb4b9f" target="_top" xlink:title="Initialize lateral tracer diffusion module.">
<polygon fill="white" stroke="black" points="248,-0 248,-30 340,-30 340,-0 248,-0"/>
<text text-anchor="start" x="256" y="-18" font-family="Helvetica,sans-Serif" font-size="10.00">mom_tracer_hor_diff</text>
<text text-anchor="middle" x="294" y="-7" font-family="Helvetica,sans-Serif" font-size="10.00">::tracer_hor_diff_init</text>
</a>
</g>
</g>
<!-- Node10&#45;&gt;Node29 -->
<g id="edge21" class="edge"><title>Node10&#45;&gt;Node29</title>
<path fill="none" stroke="midnightblue" d="M439.067,-213.888C431.282,-172.261 410.116,-88.7337 360,-40 354.366,-34.5212 347.402,-30.2129 340.148,-26.8339"/>
<polygon fill="midnightblue" stroke="midnightblue" points="435.623,-214.514 440.806,-223.755 442.517,-213.299 435.623,-214.514"/>
</g>
<!-- Node13 -->
<g id="node6" class="node"><title>Node13</title>
<g id="a_node6"><a xlink:href="namespacemom__dynamics__legacy__split.html#aef55fe2e12672940edbd2dc5d7e72fd7" target="_top" xlink:title=" ">
<polygon fill="white" stroke="black" points="92.5,-524.5 92.5,-565.5 191.5,-565.5 191.5,-524.5 92.5,-524.5"/>
<text text-anchor="start" x="100.5" y="-553.5" font-family="Helvetica,sans-Serif" font-size="10.00">mom_dynamics_legacy</text>
<text text-anchor="start" x="100.5" y="-542.5" font-family="Helvetica,sans-Serif" font-size="10.00">_split::initialize_dyn</text>
<text text-anchor="middle" x="142" y="-531.5" font-family="Helvetica,sans-Serif" font-size="10.00">_legacy_split</text>
</a>
</g>
</g>
<!-- Node12&#45;&gt;Node13 -->
<g id="edge5" class="edge"><title>Node12&#45;&gt;Node13</title>
<path fill="none" stroke="midnightblue" d="M237.323,-443.786C234.018,-445.607 230.873,-447.668 228,-450 202.358,-470.81 214.837,-491.145 192,-515 188.827,-518.314 185.212,-521.406 181.417,-524.249"/>
<polygon fill="midnightblue" stroke="midnightblue" points="238.832,-446.944 246.375,-439.504 235.839,-440.617 238.832,-446.944"/>
</g>
<!-- Node14 -->
<g id="node7" class="node"><title>Node14</title>
<g id="a_node7"><a xlink:href="namespacemom__dynamics__split__rk2.html#a3bae09afc9136333ab281704dc9d9415" target="_top" xlink:title="This subroutine initializes all of the variables that are used by this dynamic core,...">
<polygon fill="white" stroke="black" points="97,-464.5 97,-505.5 187,-505.5 187,-464.5 97,-464.5"/>
<text text-anchor="start" x="105" y="-493.5" font-family="Helvetica,sans-Serif" font-size="10.00">mom_dynamics_split</text>
<text text-anchor="start" x="105" y="-482.5" font-family="Helvetica,sans-Serif" font-size="10.00">_rk2::initialize_dyn</text>
<text text-anchor="middle" x="142" y="-471.5" font-family="Helvetica,sans-Serif" font-size="10.00">_split_rk2</text>
</a>
</g>
</g>
<!-- Node12&#45;&gt;Node14 -->
<g id="edge6" class="edge"><title>Node12&#45;&gt;Node14</title>
<path fill="none" stroke="midnightblue" d="M249.897,-442.651C242.552,-444.981 235.029,-447.478 228,-450 214.631,-454.798 200.284,-460.49 187.255,-465.874"/>
<polygon fill="midnightblue" stroke="midnightblue" points="251.229,-445.902 259.738,-439.59 249.15,-439.218 251.229,-445.902"/>
</g>
<!-- Node15 -->
<g id="node8" class="node"><title>Node15</title>
<g id="a_node8"><a xlink:href="namespacemom__dynamics__unsplit.html#ac557a7a55605cba7a17074f6375107f6" target="_top" xlink:title=" ">
<polygon fill="white" stroke="black" points="92.5,-415 92.5,-445 191.5,-445 191.5,-415 92.5,-415"/>
<text text-anchor="start" x="100.5" y="-433" font-family="Helvetica,sans-Serif" font-size="10.00">mom_dynamics_unsplit</text>
<text text-anchor="middle" x="142" y="-422" font-family="Helvetica,sans-Serif" font-size="10.00">::initialize_dyn_unsplit</text>
</a>
</g>
</g>
<!-- Node12&#45;&gt;Node15 -->
<g id="edge7" class="edge"><title>Node12&#45;&gt;Node15</title>
<path fill="none" stroke="midnightblue" d="M218.024,-430C209.092,-430 200.16,-430 191.735,-430"/>
<polygon fill="midnightblue" stroke="midnightblue" points="218.08,-433.5 228.08,-430 218.08,-426.5 218.08,-433.5"/>
</g>
<!-- Node16 -->
<g id="node9" class="node"><title>Node16</title>
<g id="a_node9"><a xlink:href="namespacemom__dynamics__unsplit__rk2.html#a7be251effa3bf4a236ea3feda6fc6d91" target="_top" xlink:title=" ">
<polygon fill="white" stroke="black" points="92.5,-354.5 92.5,-395.5 191.5,-395.5 191.5,-354.5 92.5,-354.5"/>
<text text-anchor="start" x="100.5" y="-383.5" font-family="Helvetica,sans-Serif" font-size="10.00">mom_dynamics_unsplit</text>
<text text-anchor="start" x="100.5" y="-372.5" font-family="Helvetica,sans-Serif" font-size="10.00">_rk2::initialize_dyn</text>
<text text-anchor="middle" x="142" y="-361.5" font-family="Helvetica,sans-Serif" font-size="10.00">_unsplit_rk2</text>
</a>
</g>
</g>
<!-- Node12&#45;&gt;Node16 -->
<g id="edge8" class="edge"><title>Node12&#45;&gt;Node16</title>
<path fill="none" stroke="midnightblue" d="M249.897,-417.349C242.552,-415.019 235.029,-412.522 228,-410 215.833,-405.634 202.856,-400.526 190.799,-395.584"/>
<polygon fill="midnightblue" stroke="midnightblue" points="249.15,-420.782 259.738,-420.41 251.229,-414.098 249.15,-420.782"/>
</g>
<!-- Node18 -->
<g id="node11" class="node"><title>Node18</title>
<g id="a_node11"><a xlink:href="namespacemom__diag__to__z.html#a90526b2f59f94c6af2f525a221029772" target="_top" xlink:title=" ">
<polygon fill="white" stroke="black" points="92,-305 92,-335 192,-335 192,-305 92,-305"/>
<text text-anchor="start" x="100" y="-323" font-family="Helvetica,sans-Serif" font-size="10.00">mom_diag_to_z::ocean</text>
<text text-anchor="middle" x="142" y="-312" font-family="Helvetica,sans-Serif" font-size="10.00">_register_diag_with_z</text>
</a>
</g>
</g>
<!-- Node17&#45;&gt;Node18 -->
<g id="edge10" class="edge"><title>Node17&#45;&gt;Node18</title>
<path fill="none" stroke="midnightblue" d="M242.675,-367.118C237.694,-365.107 232.733,-363.048 228,-361 209.354,-352.933 188.829,-343.062 172.619,-335.027"/>
<polygon fill="midnightblue" stroke="midnightblue" points="241.638,-370.471 252.224,-370.907 244.22,-363.965 241.638,-370.471"/>
</g>
<!-- Node24 -->
<g id="node17" class="node"><title>Node24</title>
<g id="a_node17"><a xlink:href="namespacemom__diabatic__driver.html#afa0b30bd6f0e080bcacbd6dcb15ff990" target="_top" xlink:title="This routine initializes the diabatic driver module.">
<polygon fill="white" stroke="black" points="96.5,-142 96.5,-172 187.5,-172 187.5,-142 96.5,-142"/>
<text text-anchor="start" x="104.5" y="-160" font-family="Helvetica,sans-Serif" font-size="10.00">mom_diabatic_driver</text>
<text text-anchor="middle" x="142" y="-149" font-family="Helvetica,sans-Serif" font-size="10.00">::diabatic_driver_init</text>
</a>
</g>
</g>
<!-- Node23&#45;&gt;Node24 -->
<g id="edge16" class="edge"><title>Node23&#45;&gt;Node24</title>
<path fill="none" stroke="midnightblue" d="M229.971,-157C215.856,-157 201.162,-157 187.956,-157"/>
<polygon fill="midnightblue" stroke="midnightblue" points="230.116,-160.5 240.116,-157 230.116,-153.5 230.116,-160.5"/>
</g>
<!-- Node27 -->
<g id="node20" class="node"><title>Node27</title>
<g id="a_node20"><a xlink:href="namespacemom.html#a0be2869fef30e1e0604facfe1b41555d" target="_top" xlink:title="This subroutine initializes MOM.">
<polygon fill="white" stroke="black" points="97.5,-54.5 97.5,-73.5 186.5,-73.5 186.5,-54.5 97.5,-54.5"/>
<text text-anchor="middle" x="142" y="-61.5" font-family="Helvetica,sans-Serif" font-size="10.00">mom::initialize_mom</text>
</a>
</g>
</g>
<!-- Node26&#45;&gt;Node27 -->
<g id="edge19" class="edge"><title>Node26&#45;&gt;Node27</title>
<path fill="none" stroke="midnightblue" d="M226.857,-64C213.263,-64 199.275,-64 186.714,-64"/>
<polygon fill="midnightblue" stroke="midnightblue" points="227.146,-67.5001 237.146,-64 227.146,-60.5001 227.146,-67.5001"/>
</g>
<!-- Node28 -->
<g id="node21" class="node"><title>Node28</title>
<g id="a_node21"><a xlink:href="MOM__driver_8F90.html#a08fffeb2d8e8acbf9ed4609be6d258c6" target="_top" xlink:title=" ">
<polygon fill="white" stroke="black" points="0,-54.5 0,-73.5 56,-73.5 56,-54.5 0,-54.5"/>
<text text-anchor="middle" x="28" y="-61.5" font-family="Helvetica,sans-Serif" font-size="10.00">mom_main</text>
</a>
</g>
</g>
<!-- Node27&#45;&gt;Node28 -->
<g id="edge20" class="edge"><title>Node27&#45;&gt;Node28</title>
<path fill="none" stroke="midnightblue" d="M87.1555,-64C76.4062,-64 65.5509,-64 56.1768,-64"/>
<polygon fill="midnightblue" stroke="midnightblue" points="87.3772,-67.5001 97.3772,-64 87.3771,-60.5001 87.3772,-67.5001"/>
</g>
</g>
</svg>
