<?xml version="1.0" encoding="UTF-8" standalone="no"?>
<!DOCTYPE svg PUBLIC "-//W3C//DTD SVG 1.1//EN"
 "http://www.w3.org/Graphics/SVG/1.1/DTD/svg11.dtd">
<!-- Generated by graphviz version 2.30.1 (20170916.1124)
 -->
<!-- Title: mom_internal_tides::propagate_y Pages: 1 -->
<svg width="340pt" height="38pt"
 viewBox="0.00 0.00 340.00 38.00" xmlns="http://www.w3.org/2000/svg" xmlns:xlink="http://www.w3.org/1999/xlink">
<g id="graph0" class="graph" transform="scale(1 1) rotate(0) translate(4 34)">
<title>mom_internal_tides::propagate_y</title>
<polygon fill="white" stroke="white" points="-4,5 -4,-34 337,-34 337,5 -4,5"/>
<!-- Node122 -->
<g id="node1" class="node"><title>Node122</title>
<g id="a_node1"><a xlink:title=" ">
<polygon fill="#bfbfbf" stroke="black" points="246,-0 246,-30 332,-30 332,-0 246,-0"/>
<text text-anchor="start" x="254" y="-18" font-family="Helvetica,sans-Serif" font-size="10.00">mom_internal_tides</text>
<text text-anchor="middle" x="289" y="-7" font-family="Helvetica,sans-Serif" font-size="10.00">::propagate_y</text>
</a>
</g>
</g>
<!-- Node123 -->
<g id="node2" class="node"><title>Node123</title>
<g id="a_node2"><a xlink:href="namespacemom__internal__tides.html#a22caa92b67ed4077ce78eac34d15b14d" target="_top" xlink:title=" ">
<polygon fill="white" stroke="black" points="124,-0 124,-30 210,-30 210,-0 124,-0"/>
<text text-anchor="start" x="132" y="-18" font-family="Helvetica,sans-Serif" font-size="10.00">mom_internal_tides</text>
<text text-anchor="middle" x="167" y="-7" font-family="Helvetica,sans-Serif" font-size="10.00">::propagate</text>
</a>
</g>
</g>
<!-- Node122&#45;&gt;Node123 -->
<g id="edge1" class="edge"><title>Node122&#45;&gt;Node123</title>
<path fill="none" stroke="midnightblue" d="M235.553,-15C227.121,-15 218.486,-15 210.33,-15"/>
<polygon fill="midnightblue" stroke="midnightblue" points="235.693,-18.5001 245.692,-15 235.692,-11.5001 235.693,-18.5001"/>
</g>
<!-- Node124 -->
<g id="node3" class="node"><title>Node124</title>
<g id="a_node3"><a xlink:href="namespacemom__internal__tides.html#a6cae26da43d0539e8ac959105cf125c2" target="_top" xlink:title=" ">
<polygon fill="white" stroke="black" points="0,-0 0,-30 88,-30 88,-0 0,-0"/>
<text text-anchor="start" x="8" y="-18" font-family="Helvetica,sans-Serif" font-size="10.00">mom_internal_tides</text>
<text text-anchor="middle" x="44" y="-7" font-family="Helvetica,sans-Serif" font-size="10.00">::propagate_int_tide</text>
</a>
</g>
</g>
<!-- Node123&#45;&gt;Node124 -->
<g id="edge2" class="edge"><title>Node123&#45;&gt;Node124</title>
<path fill="none" stroke="midnightblue" d="M113.556,-15C105.134,-15 96.4988,-15 88.3207,-15"/>
<polygon fill="midnightblue" stroke="midnightblue" points="113.68,-18.5001 123.68,-15 113.68,-11.5001 113.68,-18.5001"/>
</g>
</g>
</svg>
