<?xml version="1.0" encoding="UTF-8" standalone="no"?>
<!DOCTYPE svg PUBLIC "-//W3C//DTD SVG 1.1//EN"
 "http://www.w3.org/Graphics/SVG/1.1/DTD/svg11.dtd">
<!-- Generated by graphviz version 2.30.1 (20170916.1124)
 -->
<!-- Title: mom_document::open_doc_file Pages: 1 -->
<svg width="500pt" height="98pt"
 viewBox="0.00 0.00 500.00 98.00" xmlns="http://www.w3.org/2000/svg" xmlns:xlink="http://www.w3.org/1999/xlink">
<g id="graph0" class="graph" transform="scale(1 1) rotate(0) translate(4 94)">
<title>mom_document::open_doc_file</title>
<polygon fill="white" stroke="white" points="-4,5 -4,-94 497,-94 497,5 -4,5"/>
<!-- Node174 -->
<g id="node1" class="node"><title>Node174</title>
<g id="a_node1"><a xlink:title=" ">
<polygon fill="#bfbfbf" stroke="black" points="0.5,-16 0.5,-46 97.5,-46 97.5,-16 0.5,-16"/>
<text text-anchor="start" x="8.5" y="-34" font-family="Helvetica,sans-Serif" font-size="10.00">mom_document::open</text>
<text text-anchor="middle" x="49" y="-23" font-family="Helvetica,sans-Serif" font-size="10.00">_doc_file</text>
</a>
</g>
</g>
<!-- Node175 -->
<g id="node2" class="node"><title>Node175</title>
<g id="a_node2"><a xlink:href="namespacemom__document.html#a5f2661445a72a7d0f774677e91366db5" target="_top" xlink:title=" ">
<polygon fill="white" stroke="black" points="134.5,-60 134.5,-90 231.5,-90 231.5,-60 134.5,-60"/>
<text text-anchor="start" x="142.5" y="-78" font-family="Helvetica,sans-Serif" font-size="10.00">mom_document::find</text>
<text text-anchor="middle" x="183" y="-67" font-family="Helvetica,sans-Serif" font-size="10.00">_unused_unit_number</text>
</a>
</g>
</g>
<!-- Node174&#45;&gt;Node175 -->
<g id="edge1" class="edge"><title>Node174&#45;&gt;Node175</title>
<path fill="none" stroke="midnightblue" d="M95.0577,-46.0192C105.35,-49.4501 116.401,-53.1337 127.056,-56.6854"/>
<polygon fill="midnightblue" stroke="midnightblue" points="126.104,-60.0571 136.697,-59.8991 128.317,-53.4163 126.104,-60.0571"/>
</g>
<!-- Node177 -->
<g id="node4" class="node"><title>Node177</title>
<g id="a_node4"><a xlink:href="namespacemom__error__handler.html#ad5f00a53059c72fe2332d1436c80ca71" target="_top" xlink:title=" ">
<polygon fill="white" stroke="black" points="398.5,-0 398.5,-30 491.5,-30 491.5,-0 398.5,-0"/>
<text text-anchor="start" x="406.5" y="-18" font-family="Helvetica,sans-Serif" font-size="10.00">mom_error_handler::</text>
<text text-anchor="middle" x="445" y="-7" font-family="Helvetica,sans-Serif" font-size="10.00">is_root_pe</text>
</a>
</g>
</g>
<!-- Node174&#45;&gt;Node177 -->
<g id="edge4" class="edge"><title>Node174&#45;&gt;Node177</title>
<path fill="none" stroke="midnightblue" d="M97.5517,-25.6562C141.662,-20.9843 209.17,-14.5588 268,-12 309.738,-10.1846 320.229,-11.2362 362,-12 370.497,-12.1554 379.487,-12.4013 388.278,-12.687"/>
<polygon fill="midnightblue" stroke="midnightblue" points="388.352,-16.1915 398.466,-13.0378 388.593,-9.19566 388.352,-16.1915"/>
</g>
<!-- Node176 -->
<g id="node3" class="node"><title>Node176</title>
<g id="a_node3"><a xlink:href="namespacemom__error__handler.html#a460cfb79a06c29fc249952c2a3710d67" target="_top" xlink:title=" ">
<polygon fill="white" stroke="black" points="268.5,-22 268.5,-52 361.5,-52 361.5,-22 268.5,-22"/>
<text text-anchor="start" x="276.5" y="-40" font-family="Helvetica,sans-Serif" font-size="10.00">mom_error_handler::</text>
<text text-anchor="middle" x="315" y="-29" font-family="Helvetica,sans-Serif" font-size="10.00">mom_error</text>
</a>
</g>
</g>
<!-- Node174&#45;&gt;Node176 -->
<g id="edge5" class="edge"><title>Node174&#45;&gt;Node176</title>
<path fill="none" stroke="midnightblue" d="M97.5028,-32.0796C142.59,-33.1043 210.367,-34.6447 258.05,-35.7284"/>
<polygon fill="midnightblue" stroke="midnightblue" points="258.127,-39.231 268.204,-35.9592 258.286,-32.2328 258.127,-39.231"/>
</g>
<!-- Node175&#45;&gt;Node176 -->
<g id="edge2" class="edge"><title>Node175&#45;&gt;Node176</title>
<path fill="none" stroke="midnightblue" d="M231.669,-61.066C240.304,-58.542 249.378,-55.8894 258.221,-53.3047"/>
<polygon fill="midnightblue" stroke="midnightblue" points="259.453,-56.5909 268.07,-50.4258 257.489,-49.8721 259.453,-56.5909"/>
</g>
<!-- Node176&#45;&gt;Node177 -->
<g id="edge3" class="edge"><title>Node176&#45;&gt;Node177</title>
<path fill="none" stroke="midnightblue" d="M361.849,-29.1196C370.501,-27.6326 379.636,-26.0626 388.545,-24.5313"/>
<polygon fill="midnightblue" stroke="midnightblue" points="389.208,-27.9688 398.471,-22.8253 388.022,-21.0699 389.208,-27.9688"/>
</g>
</g>
</svg>
