<?xml version="1.0" encoding="UTF-8" standalone="no"?>
<!DOCTYPE svg PUBLIC "-//W3C//DTD SVG 1.1//EN"
 "http://www.w3.org/Graphics/SVG/1.1/DTD/svg11.dtd">
<!-- Generated by graphviz version 2.30.1 (20170916.1124)
 -->
<!-- Title: mom_grid_initialize::initialize_masks Pages: 1 -->
<svg width="352pt" height="136pt"
 viewBox="0.00 0.00 352.00 136.00" xmlns="http://www.w3.org/2000/svg" xmlns:xlink="http://www.w3.org/1999/xlink">
<g id="graph0" class="graph" transform="scale(1 1) rotate(0) translate(4 132)">
<title>mom_grid_initialize::initialize_masks</title>
<polygon fill="white" stroke="white" points="-4,5 -4,-132 349,-132 349,5 -4,5"/>
<!-- Node89 -->
<g id="node1" class="node"><title>Node89</title>
<g id="a_node1"><a xlink:title="initialize_masks initializes the grid masks and any metrics that come with masks already applied.">
<polygon fill="#bfbfbf" stroke="black" points="0,-49 0,-79 84,-79 84,-49 0,-49"/>
<text text-anchor="start" x="8" y="-67" font-family="Helvetica,sans-Serif" font-size="10.00">mom_grid_initialize</text>
<text text-anchor="middle" x="42" y="-56" font-family="Helvetica,sans-Serif" font-size="10.00">::initialize_masks</text>
</a>
</g>
</g>
<!-- Node90 -->
<g id="node2" class="node"><title>Node90</title>
<g id="a_node2"><a xlink:href="namespacemom__grid__initialize.html#ac5445d58b86d259f4c352255849d7fe0" target="_top" xlink:title="This function implements Adcroft&#39;s rule for reciprocals, namely that Adcroft_Inv(x) = 1/x for |x|&gt;0 o...">
<polygon fill="white" stroke="black" points="124.5,-98 124.5,-128 209.5,-128 209.5,-98 124.5,-98"/>
<text text-anchor="start" x="132.5" y="-116" font-family="Helvetica,sans-Serif" font-size="10.00">mom_grid_initialize</text>
<text text-anchor="middle" x="167" y="-105" font-family="Helvetica,sans-Serif" font-size="10.00">::adcroft_reciprocal</text>
</a>
</g>
</g>
<!-- Node89&#45;&gt;Node90 -->
<g id="edge1" class="edge"><title>Node89&#45;&gt;Node90</title>
<path fill="none" stroke="midnightblue" d="M80.9077,-79.1014C92.8324,-83.8519 106.152,-89.1581 118.648,-94.136"/>
<polygon fill="midnightblue" stroke="midnightblue" points="117.42,-97.4146 128.006,-97.8641 120.011,-90.9116 117.42,-97.4146"/>
</g>
<!-- Node91 -->
<g id="node3" class="node"><title>Node91</title>
<g id="a_node3"><a xlink:href="namespacemom__error__handler.html#a9cda07a87815f0e5594066162b4345c3" target="_top" xlink:title="Writes a message about entering a subroutine if call tree reporting is active.">
<polygon fill="white" stroke="black" points="120.5,-49 120.5,-79 213.5,-79 213.5,-49 120.5,-49"/>
<text text-anchor="start" x="128.5" y="-67" font-family="Helvetica,sans-Serif" font-size="10.00">mom_error_handler::</text>
<text text-anchor="middle" x="167" y="-56" font-family="Helvetica,sans-Serif" font-size="10.00">calltree_enter</text>
</a>
</g>
</g>
<!-- Node89&#45;&gt;Node91 -->
<g id="edge2" class="edge"><title>Node89&#45;&gt;Node91</title>
<path fill="none" stroke="midnightblue" d="M84.2994,-64C92.6263,-64 101.509,-64 110.236,-64"/>
<polygon fill="midnightblue" stroke="midnightblue" points="110.367,-67.5001 120.367,-64 110.367,-60.5001 110.367,-67.5001"/>
</g>
<!-- Node93 -->
<g id="node5" class="node"><title>Node93</title>
<g id="a_node5"><a xlink:href="namespacemom__error__handler.html#a88ea67781e2ed9b73ab7eac8ea5e8578" target="_top" xlink:title="Writes a message about leaving a subroutine if call tree reporting is active.">
<polygon fill="white" stroke="black" points="120.5,-0 120.5,-30 213.5,-30 213.5,-0 120.5,-0"/>
<text text-anchor="start" x="128.5" y="-18" font-family="Helvetica,sans-Serif" font-size="10.00">mom_error_handler::</text>
<text text-anchor="middle" x="167" y="-7" font-family="Helvetica,sans-Serif" font-size="10.00">calltree_leave</text>
</a>
</g>
</g>
<!-- Node89&#45;&gt;Node93 -->
<g id="edge4" class="edge"><title>Node89&#45;&gt;Node93</title>
<path fill="none" stroke="midnightblue" d="M80.9077,-48.8986C92.8324,-44.1481 106.152,-38.8419 118.648,-33.864"/>
<polygon fill="midnightblue" stroke="midnightblue" points="120.011,-37.0884 128.006,-30.1359 117.42,-30.5854 120.011,-37.0884"/>
</g>
<!-- Node92 -->
<g id="node4" class="node"><title>Node92</title>
<g id="a_node4"><a xlink:href="namespacemom__error__handler.html#ad5f00a53059c72fe2332d1436c80ca71" target="_top" xlink:title=" ">
<polygon fill="white" stroke="black" points="250.5,-24 250.5,-54 343.5,-54 343.5,-24 250.5,-24"/>
<text text-anchor="start" x="258.5" y="-42" font-family="Helvetica,sans-Serif" font-size="10.00">mom_error_handler::</text>
<text text-anchor="middle" x="297" y="-31" font-family="Helvetica,sans-Serif" font-size="10.00">is_root_pe</text>
</a>
</g>
</g>
<!-- Node91&#45;&gt;Node92 -->
<g id="edge3" class="edge"><title>Node91&#45;&gt;Node92</title>
<path fill="none" stroke="midnightblue" d="M213.849,-55.045C222.501,-53.3552 231.636,-51.5712 240.545,-49.8311"/>
<polygon fill="midnightblue" stroke="midnightblue" points="241.327,-53.2445 250.471,-47.8924 239.985,-46.3743 241.327,-53.2445"/>
</g>
<!-- Node93&#45;&gt;Node92 -->
<g id="edge5" class="edge"><title>Node93&#45;&gt;Node92</title>
<path fill="none" stroke="midnightblue" d="M213.849,-23.5968C222.501,-25.219 231.636,-26.9317 240.545,-28.6022"/>
<polygon fill="midnightblue" stroke="midnightblue" points="239.997,-32.0603 250.471,-30.4633 241.287,-25.1802 239.997,-32.0603"/>
</g>
</g>
</svg>
