<?xml version="1.0" encoding="UTF-8" standalone="no"?>
<!DOCTYPE svg PUBLIC "-//W3C//DTD SVG 1.1//EN"
 "http://www.w3.org/Graphics/SVG/1.1/DTD/svg11.dtd">
<!-- Generated by graphviz version 2.30.1 (20170916.1124)
 -->
<!-- Title: mom_coriolisadv::coradcalc Pages: 1 -->
<svg width="292pt" height="197pt"
 viewBox="0.00 0.00 292.00 197.00" xmlns="http://www.w3.org/2000/svg" xmlns:xlink="http://www.w3.org/1999/xlink">
<g id="graph0" class="graph" transform="scale(1 1) rotate(0) translate(4 193)">
<title>mom_coriolisadv::coradcalc</title>
<polygon fill="white" stroke="white" points="-4,5 -4,-193 289,-193 289,5 -4,5"/>
<!-- Node4 -->
<g id="node1" class="node"><title>Node4</title>
<g id="a_node1"><a xlink:title="Calculates the Coriolis and momentum advection contributions to the acceleration.">
<polygon fill="#bfbfbf" stroke="black" points="170,-78.5 170,-97.5 284,-97.5 284,-78.5 170,-78.5"/>
<text text-anchor="middle" x="227" y="-85.5" font-family="Helvetica,sans-Serif" font-size="10.00">mom_coriolisadv::coradcalc</text>
</a>
</g>
</g>
<!-- Node5 -->
<g id="node2" class="node"><title>Node5</title>
<g id="a_node2"><a xlink:href="namespacemom__dynamics__legacy__split.html#ae34fe0561f87dc05c2fad64bf6d5a1ee" target="_top" xlink:title=" ">
<polygon fill="white" stroke="black" points="17.5,-147.5 17.5,-188.5 116.5,-188.5 116.5,-147.5 17.5,-147.5"/>
<text text-anchor="start" x="25.5" y="-176.5" font-family="Helvetica,sans-Serif" font-size="10.00">mom_dynamics_legacy</text>
<text text-anchor="start" x="25.5" y="-165.5" font-family="Helvetica,sans-Serif" font-size="10.00">_split::step_mom_dyn</text>
<text text-anchor="middle" x="67" y="-154.5" font-family="Helvetica,sans-Serif" font-size="10.00">_legacy_split</text>
</a>
</g>
</g>
<!-- Node4&#45;&gt;Node5 -->
<g id="edge1" class="edge"><title>Node4&#45;&gt;Node5</title>
<path fill="none" stroke="midnightblue" d="M199.594,-102.518C181.302,-112.462 156.322,-125.822 134,-137 127.095,-140.458 119.734,-144.028 112.525,-147.46"/>
<polygon fill="midnightblue" stroke="midnightblue" points="201.398,-105.521 208.5,-97.6585 198.045,-99.3757 201.398,-105.521"/>
</g>
<!-- Node6 -->
<g id="node3" class="node"><title>Node6</title>
<g id="a_node3"><a xlink:href="namespacemom__dynamics__split__rk2.html#a81cce65643a8cf94979d68354a9a1979" target="_top" xlink:title="RK2 splitting for time stepping MOM adiabatic dynamics.">
<polygon fill="white" stroke="black" points="4.5,-98 4.5,-128 129.5,-128 129.5,-98 4.5,-98"/>
<text text-anchor="start" x="12.5" y="-116" font-family="Helvetica,sans-Serif" font-size="10.00">mom_dynamics_split</text>
<text text-anchor="middle" x="67" y="-105" font-family="Helvetica,sans-Serif" font-size="10.00">_rk2::step_mom_dyn_split_rk2</text>
</a>
</g>
</g>
<!-- Node4&#45;&gt;Node6 -->
<g id="edge2" class="edge"><title>Node4&#45;&gt;Node6</title>
<path fill="none" stroke="midnightblue" d="M159.926,-98.4548C149.881,-100.044 139.549,-101.679 129.605,-103.252"/>
<polygon fill="midnightblue" stroke="midnightblue" points="160.52,-101.904 169.85,-96.8845 159.426,-94.9904 160.52,-101.904"/>
</g>
<!-- Node7 -->
<g id="node4" class="node"><title>Node7</title>
<g id="a_node4"><a xlink:href="namespacemom__dynamics__unsplit.html#a53a72861e61f049479fdec46ea11227b" target="_top" xlink:title=" ">
<polygon fill="white" stroke="black" points="15.5,-49 15.5,-79 118.5,-79 118.5,-49 15.5,-49"/>
<text text-anchor="start" x="23.5" y="-67" font-family="Helvetica,sans-Serif" font-size="10.00">mom_dynamics_unsplit</text>
<text text-anchor="middle" x="67" y="-56" font-family="Helvetica,sans-Serif" font-size="10.00">::step_mom_dyn_unsplit</text>
</a>
</g>
</g>
<!-- Node4&#45;&gt;Node7 -->
<g id="edge3" class="edge"><title>Node4&#45;&gt;Node7</title>
<path fill="none" stroke="midnightblue" d="M159.934,-77.9647C146.151,-75.8711 131.828,-73.6954 118.705,-71.7021"/>
<polygon fill="midnightblue" stroke="midnightblue" points="159.438,-81.4294 169.85,-79.4709 160.489,-74.5088 159.438,-81.4294"/>
</g>
<!-- Node8 -->
<g id="node5" class="node"><title>Node8</title>
<g id="a_node5"><a xlink:href="namespacemom__dynamics__unsplit__rk2.html#ae10d75d92c1ec7783df7e5d8965b86a0" target="_top" xlink:title=" ">
<polygon fill="white" stroke="black" points="0,-0 0,-30 134,-30 134,-0 0,-0"/>
<text text-anchor="start" x="8" y="-18" font-family="Helvetica,sans-Serif" font-size="10.00">mom_dynamics_unsplit</text>
<text text-anchor="middle" x="67" y="-7" font-family="Helvetica,sans-Serif" font-size="10.00">_rk2::step_mom_dyn_unsplit_rk2</text>
</a>
</g>
</g>
<!-- Node4&#45;&gt;Node8 -->
<g id="edge4" class="edge"><title>Node4&#45;&gt;Node8</title>
<path fill="none" stroke="midnightblue" d="M200.157,-73.4638C181.939,-63.4783 156.818,-50.2305 134,-40 126.397,-36.5913 118.177,-33.2295 110.203,-30.1303"/>
<polygon fill="midnightblue" stroke="midnightblue" points="198.56,-76.5806 209.006,-78.3549 201.947,-70.4541 198.56,-76.5806"/>
</g>
</g>
</svg>
