<?xml version="1.0" encoding="UTF-8" standalone="no"?>
<!DOCTYPE svg PUBLIC "-//W3C//DTD SVG 1.1//EN"
 "http://www.w3.org/Graphics/SVG/1.1/DTD/svg11.dtd">
<!-- Generated by graphviz version 2.30.1 (20170916.1124)
 -->
<!-- Title: mom_barotropic::uhbt_to_ubt Pages: 1 -->
<svg width="368pt" height="38pt"
 viewBox="0.00 0.00 368.00 38.00" xmlns="http://www.w3.org/2000/svg" xmlns:xlink="http://www.w3.org/1999/xlink">
<g id="graph0" class="graph" transform="scale(1 1) rotate(0) translate(4 34)">
<title>mom_barotropic::uhbt_to_ubt</title>
<polygon fill="white" stroke="white" points="-4,5 -4,-34 365,-34 365,5 -4,5"/>
<!-- Node111 -->
<g id="node1" class="node"><title>Node111</title>
<g id="a_node1"><a xlink:title=" ">
<polygon fill="#bfbfbf" stroke="black" points="264.5,-0 264.5,-30 359.5,-30 359.5,-0 264.5,-0"/>
<text text-anchor="start" x="272.5" y="-18" font-family="Helvetica,sans-Serif" font-size="10.00">mom_barotropic::uhbt</text>
<text text-anchor="middle" x="312" y="-7" font-family="Helvetica,sans-Serif" font-size="10.00">_to_ubt</text>
</a>
</g>
</g>
<!-- Node112 -->
<g id="node2" class="node"><title>Node112</title>
<g id="a_node2"><a xlink:href="namespacemom__barotropic.html#ac261a5f080961d455a9b806d2c0d63f7" target="_top" xlink:title=" ">
<polygon fill="white" stroke="black" points="138,-0 138,-30 228,-30 228,-0 138,-0"/>
<text text-anchor="start" x="146" y="-18" font-family="Helvetica,sans-Serif" font-size="10.00">mom_barotropic::set</text>
<text text-anchor="middle" x="183" y="-7" font-family="Helvetica,sans-Serif" font-size="10.00">_up_bt_obc</text>
</a>
</g>
</g>
<!-- Node111&#45;&gt;Node112 -->
<g id="edge1" class="edge"><title>Node111&#45;&gt;Node112</title>
<path fill="none" stroke="midnightblue" d="M254.234,-15C245.445,-15 236.482,-15 228.029,-15"/>
<polygon fill="midnightblue" stroke="midnightblue" points="254.431,-18.5001 264.431,-15 254.431,-11.5001 254.431,-18.5001"/>
</g>
<!-- Node113 -->
<g id="node3" class="node"><title>Node113</title>
<g id="a_node3"><a xlink:href="namespacemom__barotropic.html#a98cdf3c559146cc9485fcb9daa4cdbca" target="_top" xlink:title=" ">
<polygon fill="white" stroke="black" points="0.5,-5.5 0.5,-24.5 101.5,-24.5 101.5,-5.5 0.5,-5.5"/>
<text text-anchor="middle" x="51" y="-12.5" font-family="Helvetica,sans-Serif" font-size="10.00">mom_barotropic::btstep</text>
</a>
</g>
</g>
<!-- Node112&#45;&gt;Node113 -->
<g id="edge2" class="edge"><title>Node112&#45;&gt;Node113</title>
<path fill="none" stroke="midnightblue" d="M127.968,-15C119.295,-15 110.353,-15 101.785,-15"/>
<polygon fill="midnightblue" stroke="midnightblue" points="127.988,-18.5001 137.988,-15 127.988,-11.5001 127.988,-18.5001"/>
</g>
</g>
</svg>
