<?xml version="1.0" encoding="UTF-8" standalone="no"?>
<!DOCTYPE svg PUBLIC "-//W3C//DTD SVG 1.1//EN"
 "http://www.w3.org/Graphics/SVG/1.1/DTD/svg11.dtd">
<!-- Generated by graphviz version 2.30.1 (20170916.1124)
 -->
<!-- Title: rossby_front_2d_initialization::hml Pages: 1 -->
<svg width="656pt" height="170pt"
 viewBox="0.00 0.00 656.00 170.00" xmlns="http://www.w3.org/2000/svg" xmlns:xlink="http://www.w3.org/1999/xlink">
<g id="graph0" class="graph" transform="scale(1 1) rotate(0) translate(4 166)">
<title>rossby_front_2d_initialization::hml</title>
<polygon fill="white" stroke="white" points="-4,5 -4,-166 653,-166 653,5 -4,5"/>
<!-- Node8 -->
<g id="node1" class="node"><title>Node8</title>
<g id="a_node1"><a xlink:title="Analytic prescription of mixed layer depth in 2d Rossby front test.">
<polygon fill="#bfbfbf" stroke="black" points="512,-71.5 512,-90.5 648,-90.5 648,-71.5 512,-71.5"/>
<text text-anchor="middle" x="580" y="-78.5" font-family="Helvetica,sans-Serif" font-size="10.00">rossby_front_2d_initialization::hml</text>
</a>
</g>
</g>
<!-- Node9 -->
<g id="node2" class="node"><title>Node9</title>
<g id="a_node2"><a xlink:href="namespacerossby__front__2d__initialization.html#a9240b6245b21404456ccfb2b2b25ab7d" target="_top" xlink:title="Initialization of temperature and salinity in the Rossby front test.">
<polygon fill="white" stroke="black" points="356.5,-120.5 356.5,-161.5 475.5,-161.5 475.5,-120.5 356.5,-120.5"/>
<text text-anchor="start" x="364.5" y="-149.5" font-family="Helvetica,sans-Serif" font-size="10.00">rossby_front_2d_initialization</text>
<text text-anchor="start" x="364.5" y="-138.5" font-family="Helvetica,sans-Serif" font-size="10.00">::rossby_front_initialize</text>
<text text-anchor="middle" x="416" y="-127.5" font-family="Helvetica,sans-Serif" font-size="10.00">_temperature_salinity</text>
</a>
</g>
</g>
<!-- Node8&#45;&gt;Node9 -->
<g id="edge1" class="edge"><title>Node8&#45;&gt;Node9</title>
<path fill="none" stroke="midnightblue" d="M543.907,-93.9972C523.034,-101.728 496.089,-111.708 472.4,-120.482"/>
<polygon fill="midnightblue" stroke="midnightblue" points="545.169,-97.2625 553.331,-90.5072 542.738,-90.6983 545.169,-97.2625"/>
</g>
<!-- Node10 -->
<g id="node3" class="node"><title>Node10</title>
<g id="a_node3"><a xlink:href="namespacerossby__front__2d__initialization.html#a349030e2e1c3cd3213ee2a4d7e9d6f19" target="_top" xlink:title="Initialization of thicknesses in 2D Rossby front test.">
<polygon fill="white" stroke="black" points="356.5,-60.5 356.5,-101.5 475.5,-101.5 475.5,-60.5 356.5,-60.5"/>
<text text-anchor="start" x="364.5" y="-89.5" font-family="Helvetica,sans-Serif" font-size="10.00">rossby_front_2d_initialization</text>
<text text-anchor="start" x="364.5" y="-78.5" font-family="Helvetica,sans-Serif" font-size="10.00">::rossby_front_initialize</text>
<text text-anchor="middle" x="416" y="-67.5" font-family="Helvetica,sans-Serif" font-size="10.00">_thickness</text>
</a>
</g>
</g>
<!-- Node8&#45;&gt;Node10 -->
<g id="edge2" class="edge"><title>Node8&#45;&gt;Node10</title>
<path fill="none" stroke="midnightblue" d="M501.509,-81C492.782,-81 484,-81 475.57,-81"/>
<polygon fill="midnightblue" stroke="midnightblue" points="501.705,-84.5001 511.705,-81 501.705,-77.5001 501.705,-84.5001"/>
</g>
<!-- Node11 -->
<g id="node4" class="node"><title>Node11</title>
<g id="a_node4"><a xlink:href="namespacerossby__front__2d__initialization.html#a5496d0e26ba5adaa3b14e420a57a7d2f" target="_top" xlink:title="Initialization of u and v in the Rossby front test.">
<polygon fill="white" stroke="black" points="356.5,-0.5 356.5,-41.5 475.5,-41.5 475.5,-0.5 356.5,-0.5"/>
<text text-anchor="start" x="364.5" y="-29.5" font-family="Helvetica,sans-Serif" font-size="10.00">rossby_front_2d_initialization</text>
<text text-anchor="start" x="364.5" y="-18.5" font-family="Helvetica,sans-Serif" font-size="10.00">::rossby_front_initialize</text>
<text text-anchor="middle" x="416" y="-7.5" font-family="Helvetica,sans-Serif" font-size="10.00">_velocity</text>
</a>
</g>
</g>
<!-- Node8&#45;&gt;Node11 -->
<g id="edge3" class="edge"><title>Node8&#45;&gt;Node11</title>
<path fill="none" stroke="midnightblue" d="M543.907,-68.0028C523.034,-60.272 496.089,-50.2922 472.4,-41.5184"/>
<polygon fill="midnightblue" stroke="midnightblue" points="542.738,-71.3017 553.331,-71.4928 545.169,-64.7375 542.738,-71.3017"/>
</g>
<!-- Node12 -->
<g id="node5" class="node"><title>Node12</title>
<g id="a_node5"><a xlink:href="namespacemom__state__initialization.html#af4e854627c6572332ba3fd895f169321" target="_top" xlink:title=" ">
<polygon fill="white" stroke="black" points="218.5,-6 218.5,-36 319.5,-36 319.5,-6 218.5,-6"/>
<text text-anchor="start" x="226.5" y="-24" font-family="Helvetica,sans-Serif" font-size="10.00">mom_state_initialization</text>
<text text-anchor="middle" x="269" y="-13" font-family="Helvetica,sans-Serif" font-size="10.00">::mom_initialize_state</text>
</a>
</g>
</g>
<!-- Node11&#45;&gt;Node12 -->
<g id="edge4" class="edge"><title>Node11&#45;&gt;Node12</title>
<path fill="none" stroke="midnightblue" d="M346.42,-21C337.488,-21 328.477,-21 319.931,-21"/>
<polygon fill="midnightblue" stroke="midnightblue" points="346.441,-24.5001 356.441,-21 346.441,-17.5001 346.441,-24.5001"/>
</g>
<!-- Node13 -->
<g id="node6" class="node"><title>Node13</title>
<g id="a_node6"><a xlink:href="namespacemom.html#a0be2869fef30e1e0604facfe1b41555d" target="_top" xlink:title="This subroutine initializes MOM.">
<polygon fill="white" stroke="black" points="92.5,-11.5 92.5,-30.5 181.5,-30.5 181.5,-11.5 92.5,-11.5"/>
<text text-anchor="middle" x="137" y="-18.5" font-family="Helvetica,sans-Serif" font-size="10.00">mom::initialize_mom</text>
</a>
</g>
</g>
<!-- Node12&#45;&gt;Node13 -->
<g id="edge5" class="edge"><title>Node12&#45;&gt;Node13</title>
<path fill="none" stroke="midnightblue" d="M208.461,-21C199.5,-21 190.4,-21 181.848,-21"/>
<polygon fill="midnightblue" stroke="midnightblue" points="208.482,-24.5001 218.482,-21 208.482,-17.5001 208.482,-24.5001"/>
</g>
<!-- Node14 -->
<g id="node7" class="node"><title>Node14</title>
<g id="a_node7"><a xlink:href="MOM__driver_8F90.html#a08fffeb2d8e8acbf9ed4609be6d258c6" target="_top" xlink:title=" ">
<polygon fill="white" stroke="black" points="0,-11.5 0,-30.5 56,-30.5 56,-11.5 0,-11.5"/>
<text text-anchor="middle" x="28" y="-18.5" font-family="Helvetica,sans-Serif" font-size="10.00">mom_main</text>
</a>
</g>
</g>
<!-- Node13&#45;&gt;Node14 -->
<g id="edge6" class="edge"><title>Node13&#45;&gt;Node14</title>
<path fill="none" stroke="midnightblue" d="M82.3096,-21C73.2562,-21 64.21,-21 56.2082,-21"/>
<polygon fill="midnightblue" stroke="midnightblue" points="82.479,-24.5001 92.479,-21 82.479,-17.5001 82.479,-24.5001"/>
</g>
</g>
</svg>
