<?xml version="1.0" encoding="UTF-8" standalone="no"?>
<!DOCTYPE svg PUBLIC "-//W3C//DTD SVG 1.1//EN"
 "http://www.w3.org/Graphics/SVG/1.1/DTD/svg11.dtd">
<!-- Generated by graphviz version 2.30.1 (20170916.1124)
 -->
<!-- Title: mom_regridding::build_zstar_grid Pages: 1 -->
<!--zoomable 153 -->
<svg id="main" version="1.1" xmlns="http://www.w3.org/2000/svg" xmlns:xlink="http://www.w3.org/1999/xlink" xml:space="preserve" onload="init(evt)">
<style type="text/css"><![CDATA[
.edge:hover path { stroke: red; }
.edge:hover polygon { stroke: red; fill: red; }
]]></style>
<script type="text/javascript"><![CDATA[
var edges = document.getElementsByTagName('g');
if (edges && edges.length) {
  for (var i=0;i<edges.length;i++) {
    if (edges[i].id.substr(0,4)=='edge') {
      edges[i].setAttribute('class','edge');
    }
  }
}
]]></script>
        <defs>
                <circle id="rim" cx="0" cy="0" r="7"/>
                <circle id="rim2" cx="0" cy="0" r="3.5"/>
                <g id="zoomPlus">
                        <use xlink:href="#rim" fill="#404040">
                                <set attributeName="fill" to="#808080" begin="zoomplus.mouseover" end="zoomplus.mouseout"/>
                        </use>
                        <path d="M-4,0h8M0,-4v8" fill="none" stroke="white" stroke-width="1.5" pointer-events="none"/>
                </g>
                <g id="zoomMin">
                        <use xlink:href="#rim" fill="#404040">
                                <set attributeName="fill" to="#808080" begin="zoomminus.mouseover" end="zoomminus.mouseout"/>
                        </use>
                        <path d="M-4,0h8" fill="none" stroke="white" stroke-width="1.5" pointer-events="none"/>
                </g>
                <g id="dirArrow">
                        <path fill="none" stroke="white" stroke-width="1.5" d="M0,-3.0v7 M-2.5,-0.5L0,-3.0L2.5,-0.5"/>
                </g>
               <g id="resetDef">
                       <use xlink:href="#rim2" fill="#404040">
                               <set attributeName="fill" to="#808080" begin="reset.mouseover" end="reset.mouseout"/>
                       </use>
               </g>
        </defs>

<script type="text/javascript">
var viewWidth = 504;
var viewHeight = 153;
var sectionId = 'dynsection-19';
</script>
<script xlink:href="svgpan.js"/>
<svg id="graph" class="graph">
<g id="viewport">
<title>mom_regridding::build_zstar_grid</title>
<polygon fill="white" stroke="white" points="-4,5 -4,-149.458 501,-149.458 501,5 -4,5"/>
<!-- Node253 -->
<g id="node1" class="node"><title>Node253</title>
<g id="a_node1"><a xlink:title="Builds a z*&#45;ccordinate grid with partial steps (Adcroft and Campin, 2004). z* is defined as z* = (z&#45;e...">
<polygon fill="#bfbfbf" stroke="black" points="0,-41.4581 0,-71.4581 96,-71.4581 96,-41.4581 0,-41.4581"/>
<text text-anchor="start" x="8" y="-59.4581" font-family="Helvetica,sans-Serif" font-size="10.00">mom_regridding::build</text>
<text text-anchor="middle" x="48" y="-48.4581" font-family="Helvetica,sans-Serif" font-size="10.00">_zstar_grid</text>
</a>
</g>
</g>
<!-- Node254 -->
<g id="node2" class="node"><title>Node254</title>
<g id="a_node2"><a xlink:href="namespacemom__regridding.html#ab18f7ea3cfa3c3892cb69086e3a4baef" target="_top" xlink:title="Adjust dz_Interface to ensure non&#45;negative future thicknesses.">
<polygon fill="white" stroke="black" points="133.5,-115.458 133.5,-145.458 234.5,-145.458 234.5,-115.458 133.5,-115.458"/>
<text text-anchor="start" x="141.5" y="-133.458" font-family="Helvetica,sans-Serif" font-size="10.00">mom_regridding::adjust</text>
<text text-anchor="middle" x="184" y="-122.458" font-family="Helvetica,sans-Serif" font-size="10.00">_interface_motion</text>
</a>
</g>
</g>
<!-- Node253&#45;&gt;Node254 -->
<g id="edge1" class="edge"><title>Node253&#45;&gt;Node254</title>
<path fill="none" stroke="midnightblue" d="M73.4105,-71.5442C89.7963,-81.5028 111.969,-94.6568 132,-105.458 135.274,-107.223 138.69,-109.011 142.135,-110.777"/>
<polygon fill="midnightblue" stroke="midnightblue" points="140.742,-113.993 151.247,-115.366 143.891,-107.742 140.742,-113.993"/>
</g>
<!-- Node257 -->
<g id="node5" class="node"><title>Node257</title>
<g id="a_node5"><a xlink:href="namespacemom__regridding.html#a1fe77f09d8e5ea5eae1a0cff087d5464" target="_top" xlink:title="Builds a z* coordinate with a minimum thickness.">
<polygon fill="white" stroke="black" points="136,-66.4581 136,-96.4581 232,-96.4581 232,-66.4581 136,-66.4581"/>
<text text-anchor="start" x="144" y="-84.4581" font-family="Helvetica,sans-Serif" font-size="10.00">mom_regridding::build</text>
<text text-anchor="middle" x="184" y="-73.4581" font-family="Helvetica,sans-Serif" font-size="10.00">_zstar_column</text>
</a>
</g>
</g>
<!-- Node253&#45;&gt;Node257 -->
<g id="edge4" class="edge"><title>Node253&#45;&gt;Node257</title>
<path fill="none" stroke="midnightblue" d="M96.2434,-65.2721C105.75,-67.0458 115.84,-68.9283 125.649,-70.7582"/>
<polygon fill="midnightblue" stroke="midnightblue" points="125.259,-74.2458 135.732,-72.6393 126.543,-67.3646 125.259,-74.2458"/>
</g>
<!-- Node258 -->
<g id="node6" class="node"><title>Node258</title>
<g id="a_node6"><a xlink:href="namespacemom__regridding.html#a9dddf53999f90d1a4edc79179c5b5da4" target="_top" xlink:title="Returns the change in interface position motion after filtering and assuming the top and bottom inter...">
<polygon fill="white" stroke="black" points="132,-17.4581 132,-47.4581 236,-47.4581 236,-17.4581 132,-17.4581"/>
<text text-anchor="start" x="140" y="-35.4581" font-family="Helvetica,sans-Serif" font-size="10.00">mom_regridding::filtered</text>
<text text-anchor="middle" x="184" y="-24.4581" font-family="Helvetica,sans-Serif" font-size="10.00">_grid_motion</text>
</a>
</g>
</g>
<!-- Node253&#45;&gt;Node258 -->
<g id="edge5" class="edge"><title>Node253&#45;&gt;Node258</title>
<path fill="none" stroke="midnightblue" d="M96.2434,-47.9966C104.475,-46.5222 113.144,-44.9695 121.689,-43.4391"/>
<polygon fill="midnightblue" stroke="midnightblue" points="122.403,-46.8671 131.629,-41.6588 121.169,-39.9767 122.403,-46.8671"/>
</g>
<!-- Node255 -->
<g id="node3" class="node"><title>Node255</title>
<g id="a_node3"><a xlink:href="namespacemom__error__handler.html#a460cfb79a06c29fc249952c2a3710d67" target="_top" xlink:title=" ">
<polygon fill="white" stroke="black" points="272.5,-17.4581 272.5,-47.4581 365.5,-47.4581 365.5,-17.4581 272.5,-17.4581"/>
<text text-anchor="start" x="280.5" y="-35.4581" font-family="Helvetica,sans-Serif" font-size="10.00">mom_error_handler::</text>
<text text-anchor="middle" x="319" y="-24.4581" font-family="Helvetica,sans-Serif" font-size="10.00">mom_error</text>
</a>
</g>
</g>
<!-- Node253&#45;&gt;Node255 -->
<g id="edge7" class="edge"><title>Node253&#45;&gt;Node255</title>
<path fill="none" stroke="midnightblue" d="M67.7734,-41.3765C83.7772,-29.5493 107.948,-14.0279 132,-7.45806 176.589,4.72161 190.283,-0.643805 236,-7.45806 246.374,-9.00439 257.251,-11.5941 267.568,-14.5354"/>
<polygon fill="midnightblue" stroke="midnightblue" points="266.669,-17.9197 277.253,-17.4406 268.68,-11.2149 266.669,-17.9197"/>
</g>
<!-- Node254&#45;&gt;Node255 -->
<g id="edge2" class="edge"><title>Node254&#45;&gt;Node255</title>
<path fill="none" stroke="midnightblue" d="M218.921,-115.444C224.773,-112.403 230.68,-109.032 236,-105.458 258.162,-90.5686 280.622,-70.1169 296.418,-54.6481"/>
<polygon fill="midnightblue" stroke="midnightblue" points="298.983,-57.0334 303.607,-47.5008 294.048,-52.0693 298.983,-57.0334"/>
</g>
<!-- Node256 -->
<g id="node4" class="node"><title>Node256</title>
<g id="a_node4"><a xlink:href="namespacemom__error__handler.html#ad5f00a53059c72fe2332d1436c80ca71" target="_top" xlink:title=" ">
<polygon fill="white" stroke="black" points="402.5,-17.4581 402.5,-47.4581 495.5,-47.4581 495.5,-17.4581 402.5,-17.4581"/>
<text text-anchor="start" x="410.5" y="-35.4581" font-family="Helvetica,sans-Serif" font-size="10.00">mom_error_handler::</text>
<text text-anchor="middle" x="449" y="-24.4581" font-family="Helvetica,sans-Serif" font-size="10.00">is_root_pe</text>
</a>
</g>
</g>
<!-- Node255&#45;&gt;Node256 -->
<g id="edge3" class="edge"><title>Node255&#45;&gt;Node256</title>
<path fill="none" stroke="midnightblue" d="M365.849,-32.4581C374.408,-32.4581 383.439,-32.4581 392.258,-32.4581"/>
<polygon fill="midnightblue" stroke="midnightblue" points="392.471,-35.9582 402.471,-32.4581 392.471,-28.9582 392.471,-35.9582"/>
</g>
<!-- Node258&#45;&gt;Node255 -->
<g id="edge6" class="edge"><title>Node258&#45;&gt;Node255</title>
<path fill="none" stroke="midnightblue" d="M236.041,-32.4581C244.478,-32.4581 253.266,-32.4581 261.821,-32.4581"/>
<polygon fill="midnightblue" stroke="midnightblue" points="262.101,-35.9582 272.101,-32.4581 262.101,-28.9582 262.101,-35.9582"/>
</g>
</g>
</svg>
        <g id="navigator" transform="translate(0 0)" fill="#404254">
                <rect fill="#f2f5e9" fill-opacity="0.5" stroke="#606060" stroke-width=".5" x="0" y="0" width="60" height="60"/>
                <use id="zoomplus" xlink:href="#zoomPlus" x="17" y="9" onmousedown="handleZoom(evt,'in')"/>
                <use id="zoomminus" xlink:href="#zoomMin" x="42" y="9" onmousedown="handleZoom(evt,'out')"/>
                <use id="reset" xlink:href="#resetDef" x="30" y="36" onmousedown="handleReset()"/>
                <g id="arrowUp" xlink:href="#dirArrow" transform="translate(30 24)" onmousedown="handlePan(0,-1)">
                  <use xlink:href="#rim" fill="#404040">
                        <set attributeName="fill" to="#808080" begin="arrowUp.mouseover" end="arrowUp.mouseout"/>
                  </use>
                  <path fill="none" stroke="white" stroke-width="1.5" d="M0,-3.0v7 M-2.5,-0.5L0,-3.0L2.5,-0.5"/>
                </g>
                <g id="arrowRight" xlink:href="#dirArrow" transform="rotate(90) translate(36 -43)" onmousedown="handlePan(1,0)">
                  <use xlink:href="#rim" fill="#404040">
                        <set attributeName="fill" to="#808080" begin="arrowRight.mouseover" end="arrowRight.mouseout"/>
                  </use>
                  <path fill="none" stroke="white" stroke-width="1.5" d="M0,-3.0v7 M-2.5,-0.5L0,-3.0L2.5,-0.5"/>
                </g>
                <g id="arrowDown" xlink:href="#dirArrow" transform="rotate(180) translate(-30 -48)" onmousedown="handlePan(0,1)">
                  <use xlink:href="#rim" fill="#404040">
                        <set attributeName="fill" to="#808080" begin="arrowDown.mouseover" end="arrowDown.mouseout"/>
                  </use>
                  <path fill="none" stroke="white" stroke-width="1.5" d="M0,-3.0v7 M-2.5,-0.5L0,-3.0L2.5,-0.5"/>
                </g>
                <g id="arrowLeft" xlink:href="#dirArrow" transform="rotate(270) translate(-36 17)" onmousedown="handlePan(-1,0)">
                  <use xlink:href="#rim" fill="#404040">
                        <set attributeName="fill" to="#808080" begin="arrowLeft.mouseover" end="arrowLeft.mouseout"/>
                  </use>
                  <path fill="none" stroke="white" stroke-width="1.5" d="M0,-3.0v7 M-2.5,-0.5L0,-3.0L2.5,-0.5"/>
                </g>
        </g>
        <svg viewBox="0 0 15 15" width="100%" height="30px" preserveAspectRatio="xMaxYMin meet">
         <g id="arrow_out" transform="scale(0.3 0.3)">
          <a xlink:href="namespacemom__regridding_a55e6873a74355daea004d39c452e0069_cgraph_org.svg" target="_base">
           <rect id="button" ry="5" rx="5" y="6" x="6" height="38" width="38"
                fill="#f2f5e9" fill-opacity="0.5" stroke="#606060" stroke-width="1.0"/>
           <path id="arrow"
             d="M 11.500037,31.436501 C 11.940474,20.09759 22.043105,11.32322 32.158766,21.979434 L 37.068811,17.246167 C 37.068811,17.246167 37.088388,32 37.088388,32 L 22.160133,31.978069 C 22.160133,31.978069 26.997745,27.140456 26.997745,27.140456 C 18.528582,18.264221 13.291696,25.230495 11.500037,31.436501 z"
             style="fill:#404040;"/>
          </a>
         </g>
        </svg>
</svg>
