<?xml version="1.0" encoding="UTF-8" standalone="no"?>
<!DOCTYPE svg PUBLIC "-//W3C//DTD SVG 1.1//EN"
 "http://www.w3.org/Graphics/SVG/1.1/DTD/svg11.dtd">
<!-- Generated by graphviz version 2.30.1 (20170916.1124)
 -->
<!-- Title: mom_set_diffusivity::set_diffusivity_end Pages: 1 -->
<svg width="232pt" height="38pt"
 viewBox="0.00 0.00 232.00 38.00" xmlns="http://www.w3.org/2000/svg" xmlns:xlink="http://www.w3.org/1999/xlink">
<g id="graph0" class="graph" transform="scale(1 1) rotate(0) translate(4 34)">
<title>mom_set_diffusivity::set_diffusivity_end</title>
<polygon fill="white" stroke="white" points="-4,5 -4,-34 229,-34 229,5 -4,5"/>
<!-- Node59 -->
<g id="node1" class="node"><title>Node59</title>
<g id="a_node1"><a xlink:title=" ">
<polygon fill="#bfbfbf" stroke="black" points="0,-0 0,-30 86,-30 86,-0 0,-0"/>
<text text-anchor="start" x="8" y="-18" font-family="Helvetica,sans-Serif" font-size="10.00">mom_set_diffusivity</text>
<text text-anchor="middle" x="43" y="-7" font-family="Helvetica,sans-Serif" font-size="10.00">::set_diffusivity_end</text>
</a>
</g>
</g>
<!-- Node60 -->
<g id="node2" class="node"><title>Node60</title>
<g id="a_node2"><a xlink:href="namespaceuser__change__diffusivity.html#ad92d8d57a14b020dcff685bc1da32507" target="_top" xlink:title="Clean up the module control structure.">
<polygon fill="white" stroke="black" points="122.5,-0 122.5,-30 223.5,-30 223.5,-0 122.5,-0"/>
<text text-anchor="start" x="130.5" y="-18" font-family="Helvetica,sans-Serif" font-size="10.00">user_change_diffusivity</text>
<text text-anchor="middle" x="173" y="-7" font-family="Helvetica,sans-Serif" font-size="10.00">::user_change_diff_end</text>
</a>
</g>
</g>
<!-- Node59&#45;&gt;Node60 -->
<g id="edge1" class="edge"><title>Node59&#45;&gt;Node60</title>
<path fill="none" stroke="midnightblue" d="M86.2667,-15C94.5363,-15 103.355,-15 112.073,-15"/>
<polygon fill="midnightblue" stroke="midnightblue" points="112.221,-18.5001 122.221,-15 112.221,-11.5001 112.221,-18.5001"/>
</g>
</g>
</svg>
