<?xml version="1.0" encoding="UTF-8" standalone="no"?>
<!DOCTYPE svg PUBLIC "-//W3C//DTD SVG 1.1//EN"
 "http://www.w3.org/Graphics/SVG/1.1/DTD/svg11.dtd">
<!-- Generated by graphviz version 2.30.1 (20170916.1124)
 -->
<!-- Title: mom_ice_shelf::shelf_advance_front Pages: 1 -->
<svg width="230pt" height="38pt"
 viewBox="0.00 0.00 230.00 38.00" xmlns="http://www.w3.org/2000/svg" xmlns:xlink="http://www.w3.org/1999/xlink">
<g id="graph0" class="graph" transform="scale(1 1) rotate(0) translate(4 34)">
<title>mom_ice_shelf::shelf_advance_front</title>
<polygon fill="white" stroke="white" points="-4,5 -4,-34 227,-34 227,5 -4,5"/>
<!-- Node409 -->
<g id="node1" class="node"><title>Node409</title>
<g id="a_node1"><a xlink:title=" ">
<polygon fill="#bfbfbf" stroke="black" points="0.5,-0 0.5,-30 91.5,-30 91.5,-0 0.5,-0"/>
<text text-anchor="start" x="8.5" y="-18" font-family="Helvetica,sans-Serif" font-size="10.00">mom_ice_shelf::shelf</text>
<text text-anchor="middle" x="46" y="-7" font-family="Helvetica,sans-Serif" font-size="10.00">_advance_front</text>
</a>
</g>
</g>
<!-- Node410 -->
<g id="node2" class="node"><title>Node410</title>
<g id="a_node2"><a xlink:href="namespacemom__error__handler.html#ad5f00a53059c72fe2332d1436c80ca71" target="_top" xlink:title=" ">
<polygon fill="white" stroke="black" points="128.5,-0 128.5,-30 221.5,-30 221.5,-0 128.5,-0"/>
<text text-anchor="start" x="136.5" y="-18" font-family="Helvetica,sans-Serif" font-size="10.00">mom_error_handler::</text>
<text text-anchor="middle" x="175" y="-7" font-family="Helvetica,sans-Serif" font-size="10.00">is_root_pe</text>
</a>
</g>
</g>
<!-- Node409&#45;&gt;Node410 -->
<g id="edge1" class="edge"><title>Node409&#45;&gt;Node410</title>
<path fill="none" stroke="midnightblue" d="M91.7754,-15C100.296,-15 109.311,-15 118.126,-15"/>
<polygon fill="midnightblue" stroke="midnightblue" points="118.342,-18.5001 128.342,-15 118.342,-11.5001 118.342,-18.5001"/>
</g>
</g>
</svg>
