<?xml version="1.0" encoding="UTF-8" standalone="no"?>
<!DOCTYPE svg PUBLIC "-//W3C//DTD SVG 1.1//EN"
 "http://www.w3.org/Graphics/SVG/1.1/DTD/svg11.dtd">
<!-- Generated by graphviz version 2.30.1 (20170916.1124)
 -->
<!-- Title: mom_grid_initialize::set_grid_metrics_from_mosaic Pages: 1 -->
<svg width="370pt" height="136pt"
 viewBox="0.00 0.00 370.00 136.00" xmlns="http://www.w3.org/2000/svg" xmlns:xlink="http://www.w3.org/1999/xlink">
<g id="graph0" class="graph" transform="scale(1 1) rotate(0) translate(4 132)">
<title>mom_grid_initialize::set_grid_metrics_from_mosaic</title>
<polygon fill="white" stroke="white" points="-4,5 -4,-132 367,-132 367,5 -4,5"/>
<!-- Node157 -->
<g id="node1" class="node"><title>Node157</title>
<g id="a_node1"><a xlink:title="set_grid_metrics_from_mosaic sets the grid metrics from a mosaic file.">
<polygon fill="#bfbfbf" stroke="black" points="0.5,-43.5 0.5,-84.5 101.5,-84.5 101.5,-43.5 0.5,-43.5"/>
<text text-anchor="start" x="8.5" y="-72.5" font-family="Helvetica,sans-Serif" font-size="10.00">mom_grid_initialize</text>
<text text-anchor="start" x="8.5" y="-61.5" font-family="Helvetica,sans-Serif" font-size="10.00">::set_grid_metrics_from</text>
<text text-anchor="middle" x="51" y="-50.5" font-family="Helvetica,sans-Serif" font-size="10.00">_mosaic</text>
</a>
</g>
</g>
<!-- Node158 -->
<g id="node2" class="node"><title>Node158</title>
<g id="a_node2"><a xlink:href="namespacemom__error__handler.html#a9cda07a87815f0e5594066162b4345c3" target="_top" xlink:title="Writes a message about entering a subroutine if call tree reporting is active.">
<polygon fill="white" stroke="black" points="138.5,-98 138.5,-128 231.5,-128 231.5,-98 138.5,-98"/>
<text text-anchor="start" x="146.5" y="-116" font-family="Helvetica,sans-Serif" font-size="10.00">mom_error_handler::</text>
<text text-anchor="middle" x="185" y="-105" font-family="Helvetica,sans-Serif" font-size="10.00">calltree_enter</text>
</a>
</g>
</g>
<!-- Node157&#45;&gt;Node158 -->
<g id="edge1" class="edge"><title>Node157&#45;&gt;Node158</title>
<path fill="none" stroke="midnightblue" d="M101.527,-82.3852C112.057,-86.294 123.185,-90.4246 133.741,-94.3434"/>
<polygon fill="midnightblue" stroke="midnightblue" points="132.65,-97.6714 143.243,-97.8703 135.086,-91.109 132.65,-97.6714"/>
</g>
<!-- Node160 -->
<g id="node4" class="node"><title>Node160</title>
<g id="a_node4"><a xlink:href="namespacemom__error__handler.html#a88ea67781e2ed9b73ab7eac8ea5e8578" target="_top" xlink:title="Writes a message about leaving a subroutine if call tree reporting is active.">
<polygon fill="white" stroke="black" points="138.5,-49 138.5,-79 231.5,-79 231.5,-49 138.5,-49"/>
<text text-anchor="start" x="146.5" y="-67" font-family="Helvetica,sans-Serif" font-size="10.00">mom_error_handler::</text>
<text text-anchor="middle" x="185" y="-56" font-family="Helvetica,sans-Serif" font-size="10.00">calltree_leave</text>
</a>
</g>
</g>
<!-- Node157&#45;&gt;Node160 -->
<g id="edge3" class="edge"><title>Node157&#45;&gt;Node160</title>
<path fill="none" stroke="midnightblue" d="M101.527,-64C110.151,-64 119.175,-64 127.958,-64"/>
<polygon fill="midnightblue" stroke="midnightblue" points="128.119,-67.5001 138.119,-64 128.119,-60.5001 128.119,-67.5001"/>
</g>
<!-- Node161 -->
<g id="node5" class="node"><title>Node161</title>
<g id="a_node5"><a xlink:href="namespacemom__grid__initialize.html#ac78daa312636b0ef9a93694901b5c705" target="_top" xlink:title="extrapolate_metric extrapolates missing metric data into all the halo regions.">
<polygon fill="white" stroke="black" points="141.5,-0 141.5,-30 228.5,-30 228.5,-0 141.5,-0"/>
<text text-anchor="start" x="149.5" y="-18" font-family="Helvetica,sans-Serif" font-size="10.00">mom_grid_initialize</text>
<text text-anchor="middle" x="185" y="-7" font-family="Helvetica,sans-Serif" font-size="10.00">::extrapolate_metric</text>
</a>
</g>
</g>
<!-- Node157&#45;&gt;Node161 -->
<g id="edge5" class="edge"><title>Node157&#45;&gt;Node161</title>
<path fill="none" stroke="midnightblue" d="M101.527,-45.6148C112.057,-41.706 123.185,-37.5754 133.741,-33.6566"/>
<polygon fill="midnightblue" stroke="midnightblue" points="135.086,-36.891 143.243,-30.1297 132.65,-30.3286 135.086,-36.891"/>
</g>
<!-- Node159 -->
<g id="node3" class="node"><title>Node159</title>
<g id="a_node3"><a xlink:href="namespacemom__error__handler.html#ad5f00a53059c72fe2332d1436c80ca71" target="_top" xlink:title=" ">
<polygon fill="white" stroke="black" points="268.5,-73 268.5,-103 361.5,-103 361.5,-73 268.5,-73"/>
<text text-anchor="start" x="276.5" y="-91" font-family="Helvetica,sans-Serif" font-size="10.00">mom_error_handler::</text>
<text text-anchor="middle" x="315" y="-80" font-family="Helvetica,sans-Serif" font-size="10.00">is_root_pe</text>
</a>
</g>
</g>
<!-- Node158&#45;&gt;Node159 -->
<g id="edge2" class="edge"><title>Node158&#45;&gt;Node159</title>
<path fill="none" stroke="midnightblue" d="M231.849,-104.045C240.501,-102.355 249.636,-100.571 258.545,-98.8311"/>
<polygon fill="midnightblue" stroke="midnightblue" points="259.327,-102.245 268.471,-96.8924 257.985,-95.3743 259.327,-102.245"/>
</g>
<!-- Node160&#45;&gt;Node159 -->
<g id="edge4" class="edge"><title>Node160&#45;&gt;Node159</title>
<path fill="none" stroke="midnightblue" d="M231.849,-72.5968C240.501,-74.219 249.636,-75.9317 258.545,-77.6022"/>
<polygon fill="midnightblue" stroke="midnightblue" points="257.997,-81.0603 268.471,-79.4633 259.287,-74.1802 257.997,-81.0603"/>
</g>
</g>
</svg>
