<?xml version="1.0" encoding="UTF-8" standalone="no"?>
<!DOCTYPE svg PUBLIC "-//W3C//DTD SVG 1.1//EN"
 "http://www.w3.org/Graphics/SVG/1.1/DTD/svg11.dtd">
<!-- Generated by graphviz version 2.30.1 (20170916.1124)
 -->
<!-- Title: mom_file_parser::lastnoncommentnonblank Pages: 1 -->
<!--zoomable 197 -->
<svg id="main" version="1.1" xmlns="http://www.w3.org/2000/svg" xmlns:xlink="http://www.w3.org/1999/xlink" xml:space="preserve" onload="init(evt)">
<style type="text/css"><![CDATA[
.edge:hover path { stroke: red; }
.edge:hover polygon { stroke: red; fill: red; }
]]></style>
<script type="text/javascript"><![CDATA[
var edges = document.getElementsByTagName('g');
if (edges && edges.length) {
  for (var i=0;i<edges.length;i++) {
    if (edges[i].id.substr(0,4)=='edge') {
      edges[i].setAttribute('class','edge');
    }
  }
}
]]></script>
        <defs>
                <circle id="rim" cx="0" cy="0" r="7"/>
                <circle id="rim2" cx="0" cy="0" r="3.5"/>
                <g id="zoomPlus">
                        <use xlink:href="#rim" fill="#404040">
                                <set attributeName="fill" to="#808080" begin="zoomplus.mouseover" end="zoomplus.mouseout"/>
                        </use>
                        <path d="M-4,0h8M0,-4v8" fill="none" stroke="white" stroke-width="1.5" pointer-events="none"/>
                </g>
                <g id="zoomMin">
                        <use xlink:href="#rim" fill="#404040">
                                <set attributeName="fill" to="#808080" begin="zoomminus.mouseover" end="zoomminus.mouseout"/>
                        </use>
                        <path d="M-4,0h8" fill="none" stroke="white" stroke-width="1.5" pointer-events="none"/>
                </g>
                <g id="dirArrow">
                        <path fill="none" stroke="white" stroke-width="1.5" d="M0,-3.0v7 M-2.5,-0.5L0,-3.0L2.5,-0.5"/>
                </g>
               <g id="resetDef">
                       <use xlink:href="#rim2" fill="#404040">
                               <set attributeName="fill" to="#808080" begin="reset.mouseover" end="reset.mouseout"/>
                       </use>
               </g>
        </defs>

<script type="text/javascript">
var viewWidth = 1010;
var viewHeight = 197;
var sectionId = 'dynsection-18';
</script>
<script xlink:href="svgpan.js"/>
<svg id="graph" class="graph">
<g id="viewport">
<title>mom_file_parser::lastnoncommentnonblank</title>
<polygon fill="white" stroke="white" points="-4,5 -4,-192.637 1007,-192.637 1007,5 -4,5"/>
<!-- Node171 -->
<g id="node1" class="node"><title>Node171</title>
<g id="a_node1"><a xlink:title=" ">
<polygon fill="#bfbfbf" stroke="black" points="830,-93.1368 830,-112.137 1002,-112.137 1002,-93.1368 830,-93.1368"/>
<text text-anchor="middle" x="916" y="-100.137" font-family="Helvetica,sans-Serif" font-size="10.00">mom_file_parser::lastnoncommentnonblank</text>
</a>
</g>
</g>
<!-- Node172 -->
<g id="node2" class="node"><title>Node172</title>
<g id="a_node2"><a xlink:href="namespacemom__file__parser.html#a7abfd98d7f0831fc0d1f3747a68f1be9" target="_top" xlink:title=" ">
<polygon fill="white" stroke="black" points="500,-87.6368 500,-117.637 612,-117.637 612,-87.6368 500,-87.6368"/>
<text text-anchor="start" x="508" y="-105.637" font-family="Helvetica,sans-Serif" font-size="10.00">mom_file_parser::populate</text>
<text text-anchor="middle" x="556" y="-94.6368" font-family="Helvetica,sans-Serif" font-size="10.00">_param_data</text>
</a>
</g>
</g>
<!-- Node171&#45;&gt;Node172 -->
<g id="edge1" class="edge"><title>Node171&#45;&gt;Node172</title>
<path fill="none" stroke="midnightblue" d="M819.659,-102.637C753.368,-102.637 667.328,-102.637 612.127,-102.637"/>
<polygon fill="midnightblue" stroke="midnightblue" points="819.705,-106.137 829.705,-102.637 819.705,-99.1369 819.705,-106.137"/>
</g>
<!-- Node182 -->
<g id="node12" class="node"><title>Node182</title>
<g id="a_node12"><a xlink:href="namespacemom__file__parser.html#ae0b982cc161173a401291757a6677373" target="_top" xlink:title=" ">
<polygon fill="white" stroke="black" points="648.5,-74.1368 648.5,-93.1368 793.5,-93.1368 793.5,-74.1368 648.5,-74.1368"/>
<text text-anchor="middle" x="721" y="-81.1368" font-family="Helvetica,sans-Serif" font-size="10.00">mom_file_parser::removecomments</text>
</a>
</g>
</g>
<!-- Node171&#45;&gt;Node182 -->
<g id="edge14" class="edge"><title>Node171&#45;&gt;Node182</title>
<path fill="none" stroke="midnightblue" d="M819.607,-93.2458C810.918,-92.3904 802.216,-91.5337 793.785,-90.7037"/>
<polygon fill="midnightblue" stroke="midnightblue" points="819.491,-96.7512 829.786,-94.2478 820.177,-89.7848 819.491,-96.7512"/>
</g>
<!-- Node173 -->
<g id="node3" class="node"><title>Node173</title>
<g id="a_node3"><a xlink:href="namespacemom__file__parser.html#abecae1b9386aafa17aec927af1f8c448" target="_top" xlink:title=" ">
<polygon fill="white" stroke="black" points="364.5,-87.6368 364.5,-117.637 463.5,-117.637 463.5,-87.6368 364.5,-87.6368"/>
<text text-anchor="start" x="372.5" y="-105.637" font-family="Helvetica,sans-Serif" font-size="10.00">mom_file_parser::open</text>
<text text-anchor="middle" x="414" y="-94.6368" font-family="Helvetica,sans-Serif" font-size="10.00">_param_file</text>
</a>
</g>
</g>
<!-- Node172&#45;&gt;Node173 -->
<g id="edge2" class="edge"><title>Node172&#45;&gt;Node173</title>
<path fill="none" stroke="midnightblue" d="M489.5,-102.637C480.773,-102.637 471.953,-102.637 463.585,-102.637"/>
<polygon fill="midnightblue" stroke="midnightblue" points="489.668,-106.137 499.668,-102.637 489.668,-99.1369 489.668,-106.137"/>
</g>
<!-- Node174 -->
<g id="node4" class="node"><title>Node174</title>
<g id="a_node4"><a xlink:href="MOM__sum__driver_8F90.html#a08fffeb2d8e8acbf9ed4609be6d258c6" target="_top" xlink:title=" ">
<polygon fill="white" stroke="black" points="256,-115.137 256,-134.137 312,-134.137 312,-115.137 256,-115.137"/>
<text text-anchor="middle" x="284" y="-122.137" font-family="Helvetica,sans-Serif" font-size="10.00">mom_main</text>
</a>
</g>
</g>
<!-- Node173&#45;&gt;Node174 -->
<g id="edge3" class="edge"><title>Node173&#45;&gt;Node174</title>
<path fill="none" stroke="midnightblue" d="M354.173,-112.748C339.488,-115.272 324.436,-117.859 312.139,-119.972"/>
<polygon fill="midnightblue" stroke="midnightblue" points="354.981,-116.16 364.244,-111.017 353.795,-109.261 354.981,-116.16"/>
</g>
<!-- Node175 -->
<g id="node5" class="node"><title>Node175</title>
<g id="a_node5"><a xlink:href="namespacemom__get__input.html#a299c5b9476662ef1a382e23a8d078143" target="_top" xlink:title=" ">
<polygon fill="white" stroke="black" points="240,-65.6368 240,-95.6368 328,-95.6368 328,-65.6368 240,-65.6368"/>
<text text-anchor="start" x="248" y="-83.6368" font-family="Helvetica,sans-Serif" font-size="10.00">mom_get_input::get</text>
<text text-anchor="middle" x="284" y="-72.6368" font-family="Helvetica,sans-Serif" font-size="10.00">_mom_input</text>
</a>
</g>
</g>
<!-- Node173&#45;&gt;Node175 -->
<g id="edge4" class="edge"><title>Node173&#45;&gt;Node175</title>
<path fill="none" stroke="midnightblue" d="M354.377,-92.5609C345.554,-91.0445 336.594,-89.5044 328.173,-88.0572"/>
<polygon fill="midnightblue" stroke="midnightblue" points="353.795,-96.0122 364.244,-94.2568 354.981,-89.1134 353.795,-96.0122"/>
</g>
<!-- Node176 -->
<g id="node6" class="node"><title>Node176</title>
<g id="a_node6"><a xlink:href="namespacemom__surface__forcing.html#a08ab046cc02cb51f5045c8efa7337f65" target="_top" xlink:title=" ">
<polygon fill="white" stroke="black" points="101,-158.637 101,-188.637 195,-188.637 195,-158.637 101,-158.637"/>
<text text-anchor="start" x="109" y="-176.637" font-family="Helvetica,sans-Serif" font-size="10.00">mom_surface_forcing</text>
<text text-anchor="middle" x="148" y="-165.637" font-family="Helvetica,sans-Serif" font-size="10.00">::surface_forcing_init</text>
</a>
</g>
</g>
<!-- Node175&#45;&gt;Node176 -->
<g id="edge5" class="edge"><title>Node175&#45;&gt;Node176</title>
<path fill="none" stroke="midnightblue" d="M245.398,-101.412C243.529,-102.779 241.717,-104.19 240,-105.637 220.94,-121.697 223.839,-133.549 204,-148.637 199.158,-152.319 193.687,-155.617 188.12,-158.514"/>
<polygon fill="midnightblue" stroke="midnightblue" points="247.51,-104.209 253.851,-95.7211 243.601,-98.403 247.51,-104.209"/>
</g>
<!-- Node178 -->
<g id="node8" class="node"><title>Node178</title>
<g id="a_node8"><a xlink:href="namespaceocean__model__mod.html#a6b00b9a33be391bb23668abbfa4d99c6" target="_top" xlink:title=" ">
<polygon fill="white" stroke="black" points="92.5,-109.637 92.5,-139.637 203.5,-139.637 203.5,-109.637 92.5,-109.637"/>
<text text-anchor="start" x="100.5" y="-127.637" font-family="Helvetica,sans-Serif" font-size="10.00">ocean_model_mod::ocean</text>
<text text-anchor="middle" x="148" y="-116.637" font-family="Helvetica,sans-Serif" font-size="10.00">_model_flux_init</text>
</a>
</g>
</g>
<!-- Node175&#45;&gt;Node178 -->
<g id="edge7" class="edge"><title>Node175&#45;&gt;Node178</title>
<path fill="none" stroke="midnightblue" d="M230.216,-97.969C218.52,-101.809 206.219,-105.848 194.828,-109.589"/>
<polygon fill="midnightblue" stroke="midnightblue" points="231.455,-101.246 239.864,-94.8009 229.271,-94.5953 231.455,-101.246"/>
</g>
<!-- Node179 -->
<g id="node9" class="node"><title>Node179</title>
<g id="a_node9"><a xlink:href="ice__shelf__driver_8F90.html#aec5bef92f0dad343f545cd8d62e378d8" target="_top" xlink:title=" ">
<polygon fill="white" stroke="black" points="0.5,-5.13679 0.5,-24.1368 55.5,-24.1368 55.5,-5.13679 0.5,-5.13679"/>
<text text-anchor="middle" x="28" y="-12.1368" font-family="Helvetica,sans-Serif" font-size="10.00">shelf_main</text>
</a>
</g>
</g>
<!-- Node175&#45;&gt;Node179 -->
<g id="edge8" class="edge"><title>Node175&#45;&gt;Node179</title>
<path fill="none" stroke="midnightblue" d="M264.682,-57.5421C250.193,-41.2607 228.391,-20.789 204,-11.6368 154.213,7.04438 90.7167,-1.21702 55.5197,-8.31516"/>
<polygon fill="midnightblue" stroke="midnightblue" points="262.407,-60.2676 271.567,-65.5922 267.727,-55.7177 262.407,-60.2676"/>
</g>
<!-- Node180 -->
<g id="node10" class="node"><title>Node180</title>
<g id="a_node10"><a xlink:href="namespacemom.html#a0be2869fef30e1e0604facfe1b41555d" target="_top" xlink:title="This subroutine initializes MOM.">
<polygon fill="white" stroke="black" points="103.5,-71.1368 103.5,-90.1368 192.5,-90.1368 192.5,-71.1368 103.5,-71.1368"/>
<text text-anchor="middle" x="148" y="-78.1368" font-family="Helvetica,sans-Serif" font-size="10.00">mom::initialize_mom</text>
</a>
</g>
</g>
<!-- Node175&#45;&gt;Node180 -->
<g id="edge9" class="edge"><title>Node175&#45;&gt;Node180</title>
<path fill="none" stroke="midnightblue" d="M229.693,-80.6368C217.357,-80.6368 204.374,-80.6368 192.515,-80.6368"/>
<polygon fill="midnightblue" stroke="midnightblue" points="229.864,-84.1369 239.864,-80.6368 229.864,-77.1369 229.864,-84.1369"/>
</g>
<!-- Node181 -->
<g id="node11" class="node"><title>Node181</title>
<g id="a_node11"><a xlink:href="namespacemom__ice__shelf.html#ae315e8464ef8a20062e3bccb61886755" target="_top" xlink:title=" ">
<polygon fill="white" stroke="black" points="97.5,-21.6368 97.5,-51.6368 198.5,-51.6368 198.5,-21.6368 97.5,-21.6368"/>
<text text-anchor="start" x="105.5" y="-39.6368" font-family="Helvetica,sans-Serif" font-size="10.00">mom_ice_shelf::initialize</text>
<text text-anchor="middle" x="148" y="-28.6368" font-family="Helvetica,sans-Serif" font-size="10.00">_ice_shelf</text>
</a>
</g>
</g>
<!-- Node175&#45;&gt;Node181 -->
<g id="edge11" class="edge"><title>Node175&#45;&gt;Node181</title>
<path fill="none" stroke="midnightblue" d="M230.216,-63.3046C218.52,-59.4644 206.219,-55.4252 194.828,-51.6849"/>
<polygon fill="midnightblue" stroke="midnightblue" points="229.271,-66.6783 239.864,-66.4727 231.455,-60.0276 229.271,-66.6783"/>
</g>
<!-- Node177 -->
<g id="node7" class="node"><title>Node177</title>
<g id="a_node7"><a xlink:href="MOM__driver_8F90.html#a08fffeb2d8e8acbf9ed4609be6d258c6" target="_top" xlink:title=" ">
<polygon fill="white" stroke="black" points="0,-71.1368 0,-90.1368 56,-90.1368 56,-71.1368 0,-71.1368"/>
<text text-anchor="middle" x="28" y="-78.1368" font-family="Helvetica,sans-Serif" font-size="10.00">mom_main</text>
</a>
</g>
</g>
<!-- Node176&#45;&gt;Node177 -->
<g id="edge6" class="edge"><title>Node176&#45;&gt;Node177</title>
<path fill="none" stroke="midnightblue" d="M99.7931,-153.735C97.0914,-152.122 94.4719,-150.421 92,-148.637 68.5093,-131.685 46.9062,-104.954 36.1496,-90.5758"/>
<polygon fill="midnightblue" stroke="midnightblue" points="98.1726,-156.839 108.622,-158.589 101.545,-150.704 98.1726,-156.839"/>
</g>
<!-- Node180&#45;&gt;Node177 -->
<g id="edge10" class="edge"><title>Node180&#45;&gt;Node177</title>
<path fill="none" stroke="midnightblue" d="M93.2616,-80.6368C80.4778,-80.6368 67.3619,-80.6368 56.3403,-80.6368"/>
<polygon fill="midnightblue" stroke="midnightblue" points="93.3964,-84.1369 103.396,-80.6368 93.3964,-77.1369 93.3964,-84.1369"/>
</g>
<!-- Node181&#45;&gt;Node179 -->
<g id="edge12" class="edge"><title>Node181&#45;&gt;Node179</title>
<path fill="none" stroke="midnightblue" d="M87.2126,-25.49C76.1925,-23.4354 65.2089,-21.3876 55.8002,-19.6334"/>
<polygon fill="midnightblue" stroke="midnightblue" points="86.8273,-28.9784 97.2994,-27.3706 88.1103,-22.097 86.8273,-28.9784"/>
</g>
<!-- Node181&#45;&gt;Node177 -->
<g id="edge13" class="edge"><title>Node181&#45;&gt;Node177</title>
<path fill="none" stroke="midnightblue" d="M97.2448,-55.1896C82.5936,-60.6527 67.1626,-66.4067 54.6872,-71.0585"/>
<polygon fill="midnightblue" stroke="midnightblue" points="98.5742,-58.4294 106.721,-51.656 96.1285,-51.8705 98.5742,-58.4294"/>
</g>
<!-- Node182&#45;&gt;Node172 -->
<g id="edge15" class="edge"><title>Node182&#45;&gt;Node172</title>
<path fill="none" stroke="midnightblue" d="M637.915,-93.205C629.281,-94.2115 620.655,-95.2169 612.426,-96.1761"/>
<polygon fill="midnightblue" stroke="midnightblue" points="638.504,-96.6601 648.031,-92.0258 637.693,-89.7072 638.504,-96.6601"/>
</g>
</g>
</svg>
        <g id="navigator" transform="translate(0 0)" fill="#404254">
                <rect fill="#f2f5e9" fill-opacity="0.5" stroke="#606060" stroke-width=".5" x="0" y="0" width="60" height="60"/>
                <use id="zoomplus" xlink:href="#zoomPlus" x="17" y="9" onmousedown="handleZoom(evt,'in')"/>
                <use id="zoomminus" xlink:href="#zoomMin" x="42" y="9" onmousedown="handleZoom(evt,'out')"/>
                <use id="reset" xlink:href="#resetDef" x="30" y="36" onmousedown="handleReset()"/>
                <g id="arrowUp" xlink:href="#dirArrow" transform="translate(30 24)" onmousedown="handlePan(0,-1)">
                  <use xlink:href="#rim" fill="#404040">
                        <set attributeName="fill" to="#808080" begin="arrowUp.mouseover" end="arrowUp.mouseout"/>
                  </use>
                  <path fill="none" stroke="white" stroke-width="1.5" d="M0,-3.0v7 M-2.5,-0.5L0,-3.0L2.5,-0.5"/>
                </g>
                <g id="arrowRight" xlink:href="#dirArrow" transform="rotate(90) translate(36 -43)" onmousedown="handlePan(1,0)">
                  <use xlink:href="#rim" fill="#404040">
                        <set attributeName="fill" to="#808080" begin="arrowRight.mouseover" end="arrowRight.mouseout"/>
                  </use>
                  <path fill="none" stroke="white" stroke-width="1.5" d="M0,-3.0v7 M-2.5,-0.5L0,-3.0L2.5,-0.5"/>
                </g>
                <g id="arrowDown" xlink:href="#dirArrow" transform="rotate(180) translate(-30 -48)" onmousedown="handlePan(0,1)">
                  <use xlink:href="#rim" fill="#404040">
                        <set attributeName="fill" to="#808080" begin="arrowDown.mouseover" end="arrowDown.mouseout"/>
                  </use>
                  <path fill="none" stroke="white" stroke-width="1.5" d="M0,-3.0v7 M-2.5,-0.5L0,-3.0L2.5,-0.5"/>
                </g>
                <g id="arrowLeft" xlink:href="#dirArrow" transform="rotate(270) translate(-36 17)" onmousedown="handlePan(-1,0)">
                  <use xlink:href="#rim" fill="#404040">
                        <set attributeName="fill" to="#808080" begin="arrowLeft.mouseover" end="arrowLeft.mouseout"/>
                  </use>
                  <path fill="none" stroke="white" stroke-width="1.5" d="M0,-3.0v7 M-2.5,-0.5L0,-3.0L2.5,-0.5"/>
                </g>
        </g>
        <svg viewBox="0 0 15 15" width="100%" height="30px" preserveAspectRatio="xMaxYMin meet">
         <g id="arrow_out" transform="scale(0.3 0.3)">
          <a xlink:href="namespacemom__file__parser_ab4b89d9420e174185db1c6aa3feb948b_icgraph_org.svg" target="_base">
           <rect id="button" ry="5" rx="5" y="6" x="6" height="38" width="38"
                fill="#f2f5e9" fill-opacity="0.5" stroke="#606060" stroke-width="1.0"/>
           <path id="arrow"
             d="M 11.500037,31.436501 C 11.940474,20.09759 22.043105,11.32322 32.158766,21.979434 L 37.068811,17.246167 C 37.068811,17.246167 37.088388,32 37.088388,32 L 22.160133,31.978069 C 22.160133,31.978069 26.997745,27.140456 26.997745,27.140456 C 18.528582,18.264221 13.291696,25.230495 11.500037,31.436501 z"
             style="fill:#404040;"/>
          </a>
         </g>
        </svg>
</svg>
