<?xml version="1.0" encoding="UTF-8" standalone="no"?>
<!DOCTYPE svg PUBLIC "-//W3C//DTD SVG 1.1//EN"
 "http://www.w3.org/Graphics/SVG/1.1/DTD/svg11.dtd">
<!-- Generated by graphviz version 2.30.1 (20170916.1124)
 -->
<!-- Title: mom_entrain_diffusive::find_maxf_kb Pages: 1 -->
<svg width="500pt" height="38pt"
 viewBox="0.00 0.00 500.00 38.00" xmlns="http://www.w3.org/2000/svg" xmlns:xlink="http://www.w3.org/1999/xlink">
<g id="graph0" class="graph" transform="scale(1 1) rotate(0) translate(4 34)">
<title>mom_entrain_diffusive::find_maxf_kb</title>
<polygon fill="white" stroke="white" points="-4,5 -4,-34 497,-34 497,5 -4,5"/>
<!-- Node42 -->
<g id="node1" class="node"><title>Node42</title>
<g id="a_node1"><a xlink:title=" ">
<polygon fill="#bfbfbf" stroke="black" points="0.5,-0 0.5,-30 97.5,-30 97.5,-0 0.5,-0"/>
<text text-anchor="start" x="8.5" y="-18" font-family="Helvetica,sans-Serif" font-size="10.00">mom_entrain_diffusive</text>
<text text-anchor="middle" x="49" y="-7" font-family="Helvetica,sans-Serif" font-size="10.00">::find_maxf_kb</text>
</a>
</g>
</g>
<!-- Node43 -->
<g id="node2" class="node"><title>Node43</title>
<g id="a_node2"><a xlink:href="namespacemom__entrain__diffusive.html#aa2d2f462912ba1e201b1b73e62a905f3" target="_top" xlink:title=" ">
<polygon fill="white" stroke="black" points="134.5,-0 134.5,-30 231.5,-30 231.5,-0 134.5,-0"/>
<text text-anchor="start" x="142.5" y="-18" font-family="Helvetica,sans-Serif" font-size="10.00">mom_entrain_diffusive</text>
<text text-anchor="middle" x="183" y="-7" font-family="Helvetica,sans-Serif" font-size="10.00">::determine_dskb</text>
</a>
</g>
</g>
<!-- Node42&#45;&gt;Node43 -->
<g id="edge1" class="edge"><title>Node42&#45;&gt;Node43</title>
<path fill="none" stroke="midnightblue" d="M97.655,-15C106.254,-15 115.303,-15 124.155,-15"/>
<polygon fill="midnightblue" stroke="midnightblue" points="124.415,-18.5001 134.415,-15 124.415,-11.5001 124.415,-18.5001"/>
</g>
<!-- Node44 -->
<g id="node3" class="node"><title>Node44</title>
<g id="a_node3"><a xlink:href="namespacemom__error__handler.html#a460cfb79a06c29fc249952c2a3710d67" target="_top" xlink:title=" ">
<polygon fill="white" stroke="black" points="268.5,-0 268.5,-30 361.5,-30 361.5,-0 268.5,-0"/>
<text text-anchor="start" x="276.5" y="-18" font-family="Helvetica,sans-Serif" font-size="10.00">mom_error_handler::</text>
<text text-anchor="middle" x="315" y="-7" font-family="Helvetica,sans-Serif" font-size="10.00">mom_error</text>
</a>
</g>
</g>
<!-- Node43&#45;&gt;Node44 -->
<g id="edge2" class="edge"><title>Node43&#45;&gt;Node44</title>
<path fill="none" stroke="midnightblue" d="M231.669,-15C240.211,-15 249.183,-15 257.936,-15"/>
<polygon fill="midnightblue" stroke="midnightblue" points="258.07,-18.5001 268.07,-15 258.07,-11.5001 258.07,-18.5001"/>
</g>
<!-- Node45 -->
<g id="node4" class="node"><title>Node45</title>
<g id="a_node4"><a xlink:href="namespacemom__error__handler.html#ad5f00a53059c72fe2332d1436c80ca71" target="_top" xlink:title=" ">
<polygon fill="white" stroke="black" points="398.5,-0 398.5,-30 491.5,-30 491.5,-0 398.5,-0"/>
<text text-anchor="start" x="406.5" y="-18" font-family="Helvetica,sans-Serif" font-size="10.00">mom_error_handler::</text>
<text text-anchor="middle" x="445" y="-7" font-family="Helvetica,sans-Serif" font-size="10.00">is_root_pe</text>
</a>
</g>
</g>
<!-- Node44&#45;&gt;Node45 -->
<g id="edge3" class="edge"><title>Node44&#45;&gt;Node45</title>
<path fill="none" stroke="midnightblue" d="M361.849,-15C370.408,-15 379.439,-15 388.258,-15"/>
<polygon fill="midnightblue" stroke="midnightblue" points="388.471,-18.5001 398.471,-15 388.471,-11.5001 388.471,-18.5001"/>
</g>
</g>
</svg>
