<?xml version="1.0" encoding="UTF-8" standalone="no"?>
<!DOCTYPE svg PUBLIC "-//W3C//DTD SVG 1.1//EN"
 "http://www.w3.org/Graphics/SVG/1.1/DTD/svg11.dtd">
<!-- Generated by graphviz version 2.30.1 (20170916.1124)
 -->
<!-- Title: mom_dyn_horgrid::set_derived_dyn_horgrid Pages: 1 -->
<svg width="254pt" height="38pt"
 viewBox="0.00 0.00 254.00 38.00" xmlns="http://www.w3.org/2000/svg" xmlns:xlink="http://www.w3.org/1999/xlink">
<g id="graph0" class="graph" transform="scale(1 1) rotate(0) translate(4 34)">
<title>mom_dyn_horgrid::set_derived_dyn_horgrid</title>
<polygon fill="white" stroke="white" points="-4,5 -4,-34 251,-34 251,5 -4,5"/>
<!-- Node27 -->
<g id="node1" class="node"><title>Node27</title>
<g id="a_node1"><a xlink:title="set_derived_dyn_horgrid calculates metric terms that are derived from other metrics.">
<polygon fill="#bfbfbf" stroke="black" points="0.5,-0 0.5,-30 97.5,-30 97.5,-0 0.5,-0"/>
<text text-anchor="start" x="8.5" y="-18" font-family="Helvetica,sans-Serif" font-size="10.00">mom_dyn_horgrid::set</text>
<text text-anchor="middle" x="49" y="-7" font-family="Helvetica,sans-Serif" font-size="10.00">_derived_dyn_horgrid</text>
</a>
</g>
</g>
<!-- Node28 -->
<g id="node2" class="node"><title>Node28</title>
<g id="a_node2"><a xlink:href="namespacemom__dyn__horgrid.html#aa6579f50769698067defbc3c676e0191" target="_top" xlink:title="Adcroft_reciprocal(x) = 1/x for |x|&gt;0 or 0 for x=0.">
<polygon fill="white" stroke="black" points="134.5,-0 134.5,-30 245.5,-30 245.5,-0 134.5,-0"/>
<text text-anchor="start" x="142.5" y="-18" font-family="Helvetica,sans-Serif" font-size="10.00">mom_dyn_horgrid::adcroft</text>
<text text-anchor="middle" x="190" y="-7" font-family="Helvetica,sans-Serif" font-size="10.00">_reciprocal</text>
</a>
</g>
</g>
<!-- Node27&#45;&gt;Node28 -->
<g id="edge1" class="edge"><title>Node27&#45;&gt;Node28</title>
<path fill="none" stroke="midnightblue" d="M97.8359,-15C106.395,-15 115.44,-15 124.378,-15"/>
<polygon fill="midnightblue" stroke="midnightblue" points="124.391,-18.5001 134.391,-15 124.391,-11.5001 124.391,-18.5001"/>
</g>
</g>
</svg>
