<?xml version="1.0" encoding="UTF-8" standalone="no"?>
<!DOCTYPE svg PUBLIC "-//W3C//DTD SVG 1.1//EN"
 "http://www.w3.org/Graphics/SVG/1.1/DTD/svg11.dtd">
<!-- Generated by graphviz version 2.30.1 (20170916.1124)
 -->
<!-- Title: mom_tracer_flow_control::tracer_flow_control_end Pages: 1 -->
<svg width="284pt" height="410pt"
 viewBox="0.00 0.00 284.00 410.00" xmlns="http://www.w3.org/2000/svg" xmlns:xlink="http://www.w3.org/1999/xlink">
<g id="graph0" class="graph" transform="scale(1 1) rotate(0) translate(4 406)">
<title>mom_tracer_flow_control::tracer_flow_control_end</title>
<polygon fill="white" stroke="white" points="-4,5 -4,-406 281,-406 281,5 -4,5"/>
<!-- Node49 -->
<g id="node1" class="node"><title>Node49</title>
<g id="a_node1"><a xlink:title=" ">
<polygon fill="#bfbfbf" stroke="black" points="0.5,-186 0.5,-216 107.5,-216 107.5,-186 0.5,-186"/>
<text text-anchor="start" x="8.5" y="-204" font-family="Helvetica,sans-Serif" font-size="10.00">mom_tracer_flow_control</text>
<text text-anchor="middle" x="54" y="-193" font-family="Helvetica,sans-Serif" font-size="10.00">::tracer_flow_control_end</text>
</a>
</g>
</g>
<!-- Node50 -->
<g id="node2" class="node"><title>Node50</title>
<g id="a_node2"><a xlink:href="namespaceadvection__test__tracer.html#aba7ee03a503e5f5518cc364c223ba693" target="_top" xlink:title=" ">
<polygon fill="white" stroke="black" points="152,-372 152,-402 268,-402 268,-372 152,-372"/>
<text text-anchor="start" x="160" y="-390" font-family="Helvetica,sans-Serif" font-size="10.00">advection_test_tracer</text>
<text text-anchor="middle" x="210" y="-379" font-family="Helvetica,sans-Serif" font-size="10.00">::advection_test_tracer_end</text>
</a>
</g>
</g>
<!-- Node49&#45;&gt;Node50 -->
<g id="edge1" class="edge"><title>Node49&#45;&gt;Node50</title>
<path fill="none" stroke="midnightblue" d="M59.4424,-216.129C69.426,-247.613 96.553,-320.679 144,-362 145.915,-363.667 147.953,-365.23 150.081,-366.692"/>
<polygon fill="midnightblue" stroke="midnightblue" points="148.293,-369.701 158.666,-371.855 151.9,-363.702 148.293,-369.701"/>
</g>
<!-- Node51 -->
<g id="node3" class="node"><title>Node51</title>
<g id="a_node3"><a xlink:href="namespacedome__tracer.html#a6604ab13177c5fb4a0dd8b43a17b4649" target="_top" xlink:title=" ">
<polygon fill="white" stroke="black" points="144.5,-333.5 144.5,-352.5 275.5,-352.5 275.5,-333.5 144.5,-333.5"/>
<text text-anchor="middle" x="210" y="-340.5" font-family="Helvetica,sans-Serif" font-size="10.00">dome_tracer::dome_tracer_end</text>
</a>
</g>
</g>
<!-- Node49&#45;&gt;Node51 -->
<g id="edge2" class="edge"><title>Node49&#45;&gt;Node51</title>
<path fill="none" stroke="midnightblue" d="M62.0085,-216.193C74.6831,-242.001 103.871,-294.381 144,-323 147.406,-325.429 151.115,-327.57 154.978,-329.454"/>
<polygon fill="midnightblue" stroke="midnightblue" points="153.628,-332.683 164.198,-333.402 156.383,-326.248 153.628,-332.683"/>
</g>
<!-- Node52 -->
<g id="node4" class="node"><title>Node52</title>
<g id="a_node4"><a xlink:href="namespaceideal__age__example.html#aa60b31c0f0a31db75ba3522f52c8d648" target="_top" xlink:title=" ">
<polygon fill="white" stroke="black" points="158,-284 158,-314 262,-314 262,-284 158,-284"/>
<text text-anchor="start" x="166" y="-302" font-family="Helvetica,sans-Serif" font-size="10.00">ideal_age_example::</text>
<text text-anchor="middle" x="210" y="-291" font-family="Helvetica,sans-Serif" font-size="10.00">ideal_age_example_end</text>
</a>
</g>
</g>
<!-- Node49&#45;&gt;Node52 -->
<g id="edge3" class="edge"><title>Node49&#45;&gt;Node52</title>
<path fill="none" stroke="midnightblue" d="M70.2466,-216.12C87.1149,-232.192 115.674,-257.515 144,-274 147.429,-275.996 151.047,-277.89 154.748,-279.677"/>
<polygon fill="midnightblue" stroke="midnightblue" points="153.51,-282.958 164.064,-283.893 156.396,-276.581 153.51,-282.958"/>
</g>
<!-- Node53 -->
<g id="node5" class="node"><title>Node53</title>
<g id="a_node5"><a xlink:href="namespaceisomip__tracer.html#a104a1c0d2098aa48a52684bd1509bbc4" target="_top" xlink:title=" ">
<polygon fill="white" stroke="black" points="164,-235 164,-265 256,-265 256,-235 164,-235"/>
<text text-anchor="start" x="172" y="-253" font-family="Helvetica,sans-Serif" font-size="10.00">isomip_tracer::isomip</text>
<text text-anchor="middle" x="210" y="-242" font-family="Helvetica,sans-Serif" font-size="10.00">_tracer_end</text>
</a>
</g>
</g>
<!-- Node49&#45;&gt;Node53 -->
<g id="edge4" class="edge"><title>Node49&#45;&gt;Node53</title>
<path fill="none" stroke="midnightblue" d="M102.462,-216.101C118.789,-221.296 137.204,-227.156 154.075,-232.524"/>
<polygon fill="midnightblue" stroke="midnightblue" points="153.212,-235.922 163.802,-235.619 155.334,-229.252 153.212,-235.922"/>
</g>
<!-- Node54 -->
<g id="node6" class="node"><title>Node54</title>
<g id="a_node6"><a xlink:href="namespacemom__ocmip2__cfc.html#a225d2a7eacb485040fcac7f9b6766ee1" target="_top" xlink:title=" ">
<polygon fill="white" stroke="black" points="155.5,-186 155.5,-216 264.5,-216 264.5,-186 155.5,-186"/>
<text text-anchor="start" x="163.5" y="-204" font-family="Helvetica,sans-Serif" font-size="10.00">mom_ocmip2_cfc::ocmip2</text>
<text text-anchor="middle" x="210" y="-193" font-family="Helvetica,sans-Serif" font-size="10.00">_cfc_end</text>
</a>
</g>
</g>
<!-- Node49&#45;&gt;Node54 -->
<g id="edge5" class="edge"><title>Node49&#45;&gt;Node54</title>
<path fill="none" stroke="midnightblue" d="M107.567,-201C119.616,-201 132.556,-201 145.026,-201"/>
<polygon fill="midnightblue" stroke="midnightblue" points="145.36,-204.5 155.36,-201 145.36,-197.5 145.36,-204.5"/>
</g>
<!-- Node55 -->
<g id="node7" class="node"><title>Node55</title>
<g id="a_node7"><a xlink:href="namespaceoil__tracer.html#a428f70692e0f8a537b73e24ada1e5357" target="_top" xlink:title=" ">
<polygon fill="white" stroke="black" points="157.5,-147.5 157.5,-166.5 262.5,-166.5 262.5,-147.5 157.5,-147.5"/>
<text text-anchor="middle" x="210" y="-154.5" font-family="Helvetica,sans-Serif" font-size="10.00">oil_tracer::oil_tracer_end</text>
</a>
</g>
</g>
<!-- Node49&#45;&gt;Node55 -->
<g id="edge6" class="edge"><title>Node49&#45;&gt;Node55</title>
<path fill="none" stroke="midnightblue" d="M107.567,-185.981C126.535,-180.561 147.71,-174.511 165.786,-169.347"/>
<polygon fill="midnightblue" stroke="midnightblue" points="166.822,-172.691 175.476,-166.578 164.899,-165.96 166.822,-172.691"/>
</g>
<!-- Node56 -->
<g id="node8" class="node"><title>Node56</title>
<g id="a_node8"><a xlink:href="namespacepseudo__salt__tracer.html#a97689343fce90aaa0a60f836b7dea9ad" target="_top" xlink:title=" ">
<polygon fill="white" stroke="black" points="156.5,-98 156.5,-128 263.5,-128 263.5,-98 156.5,-98"/>
<text text-anchor="start" x="164.5" y="-116" font-family="Helvetica,sans-Serif" font-size="10.00">pseudo_salt_tracer</text>
<text text-anchor="middle" x="210" y="-105" font-family="Helvetica,sans-Serif" font-size="10.00">::pseudo_salt_tracer_end</text>
</a>
</g>
</g>
<!-- Node49&#45;&gt;Node56 -->
<g id="edge7" class="edge"><title>Node49&#45;&gt;Node56</title>
<path fill="none" stroke="midnightblue" d="M73.5492,-185.787C90.9617,-172.024 118.132,-151.85 144,-138 147.882,-135.921 151.975,-133.928 156.141,-132.038"/>
<polygon fill="midnightblue" stroke="midnightblue" points="157.53,-135.251 165.322,-128.072 154.754,-128.825 157.53,-135.251"/>
</g>
<!-- Node57 -->
<g id="node9" class="node"><title>Node57</title>
<g id="a_node9"><a xlink:href="namespaceregional__dyes.html#a6cd17eb6c648ec6c2a7a43de383846be" target="_top" xlink:title=" ">
<polygon fill="white" stroke="black" points="160.5,-49 160.5,-79 259.5,-79 259.5,-49 160.5,-49"/>
<text text-anchor="start" x="168.5" y="-67" font-family="Helvetica,sans-Serif" font-size="10.00">regional_dyes::regional</text>
<text text-anchor="middle" x="210" y="-56" font-family="Helvetica,sans-Serif" font-size="10.00">_dyes_end</text>
</a>
</g>
</g>
<!-- Node49&#45;&gt;Node57 -->
<g id="edge8" class="edge"><title>Node49&#45;&gt;Node57</title>
<path fill="none" stroke="midnightblue" d="M63.4183,-185.823C77.3012,-162.071 107.162,-116.043 144,-89 146.502,-87.1632 149.156,-85.4434 151.906,-83.8356"/>
<polygon fill="midnightblue" stroke="midnightblue" points="153.73,-86.8308 160.949,-79.0757 150.47,-80.6365 153.73,-86.8308"/>
</g>
<!-- Node58 -->
<g id="node10" class="node"><title>Node58</title>
<g id="a_node10"><a xlink:href="namespaceuser__tracer__example.html#a800285abb2c731b52159ebcc476b9174" target="_top" xlink:title=" ">
<polygon fill="white" stroke="black" points="152.5,-0 152.5,-30 267.5,-30 267.5,-0 152.5,-0"/>
<text text-anchor="start" x="160.5" y="-18" font-family="Helvetica,sans-Serif" font-size="10.00">user_tracer_example</text>
<text text-anchor="middle" x="210" y="-7" font-family="Helvetica,sans-Serif" font-size="10.00">::user_tracer_example_end</text>
</a>
</g>
</g>
<!-- Node49&#45;&gt;Node58 -->
<g id="edge9" class="edge"><title>Node49&#45;&gt;Node58</title>
<path fill="none" stroke="midnightblue" d="M59.4424,-185.871C69.426,-154.387 96.553,-81.3207 144,-40 145.915,-38.3325 147.953,-36.7704 150.081,-35.3075"/>
<polygon fill="midnightblue" stroke="midnightblue" points="151.9,-38.2976 158.666,-30.1445 148.293,-32.2988 151.9,-38.2976"/>
</g>
</g>
</svg>
