<?xml version="1.0" encoding="UTF-8" standalone="no"?>
<!DOCTYPE svg PUBLIC "-//W3C//DTD SVG 1.1//EN"
 "http://www.w3.org/Graphics/SVG/1.1/DTD/svg11.dtd">
<!-- Generated by graphviz version 2.30.1 (20170916.1124)
 -->
<!-- Title: mom_continuity_ppm::ppm_reconstruction_x Pages: 1 -->
<svg width="368pt" height="136pt"
 viewBox="0.00 0.00 368.00 136.00" xmlns="http://www.w3.org/2000/svg" xmlns:xlink="http://www.w3.org/1999/xlink">
<g id="graph0" class="graph" transform="scale(1 1) rotate(0) translate(4 132)">
<title>mom_continuity_ppm::ppm_reconstruction_x</title>
<polygon fill="white" stroke="white" points="-4,5 -4,-132 365,-132 365,5 -4,5"/>
<!-- Node69 -->
<g id="node1" class="node"><title>Node69</title>
<g id="a_node1"><a xlink:title="Calculates left/right edge values for PPM reconstruction.">
<polygon fill="#bfbfbf" stroke="black" points="0,-49 0,-79 100,-79 100,-49 0,-49"/>
<text text-anchor="start" x="8" y="-67" font-family="Helvetica,sans-Serif" font-size="10.00">mom_continuity_ppm</text>
<text text-anchor="middle" x="50" y="-56" font-family="Helvetica,sans-Serif" font-size="10.00">::ppm_reconstruction_x</text>
</a>
</g>
</g>
<!-- Node70 -->
<g id="node2" class="node"><title>Node70</title>
<g id="a_node2"><a xlink:href="namespacemom__error__handler.html#a460cfb79a06c29fc249952c2a3710d67" target="_top" xlink:title=" ">
<polygon fill="white" stroke="black" points="136.5,-98 136.5,-128 229.5,-128 229.5,-98 136.5,-98"/>
<text text-anchor="start" x="144.5" y="-116" font-family="Helvetica,sans-Serif" font-size="10.00">mom_error_handler::</text>
<text text-anchor="middle" x="183" y="-105" font-family="Helvetica,sans-Serif" font-size="10.00">mom_error</text>
</a>
</g>
</g>
<!-- Node69&#45;&gt;Node70 -->
<g id="edge1" class="edge"><title>Node69&#45;&gt;Node70</title>
<path fill="none" stroke="midnightblue" d="M91.3732,-79.1014C104.198,-83.8985 118.538,-89.2622 131.959,-94.2823"/>
<polygon fill="midnightblue" stroke="midnightblue" points="130.942,-97.6388 141.535,-97.8641 133.395,-91.0824 130.942,-97.6388"/>
</g>
<!-- Node72 -->
<g id="node4" class="node"><title>Node72</title>
<g id="a_node4"><a xlink:href="namespacemom__continuity__ppm.html#ab03786fff2550dd61282356608fc1352" target="_top" xlink:title="This subroutine limits the left/right edge values of the PPM reconstruction according to the monotoni...">
<polygon fill="white" stroke="black" points="137,-49 137,-79 229,-79 229,-49 137,-49"/>
<text text-anchor="start" x="145" y="-67" font-family="Helvetica,sans-Serif" font-size="10.00">mom_continuity_ppm</text>
<text text-anchor="middle" x="183" y="-56" font-family="Helvetica,sans-Serif" font-size="10.00">::ppm_limit_cw84</text>
</a>
</g>
</g>
<!-- Node69&#45;&gt;Node72 -->
<g id="edge3" class="edge"><title>Node69&#45;&gt;Node72</title>
<path fill="none" stroke="midnightblue" d="M100.152,-64C108.814,-64 117.884,-64 126.701,-64"/>
<polygon fill="midnightblue" stroke="midnightblue" points="126.896,-67.5001 136.896,-64 126.896,-60.5001 126.896,-67.5001"/>
</g>
<!-- Node73 -->
<g id="node5" class="node"><title>Node73</title>
<g id="a_node5"><a xlink:href="namespacemom__continuity__ppm.html#a870edb0c5b2cb0464899430b6651260c" target="_top" xlink:title="This subroutine limits the left/right edge values of the PPM reconstruction to give a reconstruction ...">
<polygon fill="white" stroke="black" points="137,-0 137,-30 229,-30 229,-0 137,-0"/>
<text text-anchor="start" x="145" y="-18" font-family="Helvetica,sans-Serif" font-size="10.00">mom_continuity_ppm</text>
<text text-anchor="middle" x="183" y="-7" font-family="Helvetica,sans-Serif" font-size="10.00">::ppm_limit_pos</text>
</a>
</g>
</g>
<!-- Node69&#45;&gt;Node73 -->
<g id="edge4" class="edge"><title>Node69&#45;&gt;Node73</title>
<path fill="none" stroke="midnightblue" d="M91.3732,-48.8986C104.198,-44.1015 118.538,-38.7378 131.959,-33.7177"/>
<polygon fill="midnightblue" stroke="midnightblue" points="133.395,-36.9176 141.535,-30.1359 130.942,-30.3612 133.395,-36.9176"/>
</g>
<!-- Node71 -->
<g id="node3" class="node"><title>Node71</title>
<g id="a_node3"><a xlink:href="namespacemom__error__handler.html#ad5f00a53059c72fe2332d1436c80ca71" target="_top" xlink:title=" ">
<polygon fill="white" stroke="black" points="266.5,-98 266.5,-128 359.5,-128 359.5,-98 266.5,-98"/>
<text text-anchor="start" x="274.5" y="-116" font-family="Helvetica,sans-Serif" font-size="10.00">mom_error_handler::</text>
<text text-anchor="middle" x="313" y="-105" font-family="Helvetica,sans-Serif" font-size="10.00">is_root_pe</text>
</a>
</g>
</g>
<!-- Node70&#45;&gt;Node71 -->
<g id="edge2" class="edge"><title>Node70&#45;&gt;Node71</title>
<path fill="none" stroke="midnightblue" d="M229.849,-113C238.408,-113 247.439,-113 256.258,-113"/>
<polygon fill="midnightblue" stroke="midnightblue" points="256.471,-116.5 266.471,-113 256.471,-109.5 256.471,-116.5"/>
</g>
</g>
</svg>
