<?xml version="1.0" encoding="UTF-8" standalone="no"?>
<!DOCTYPE svg PUBLIC "-//W3C//DTD SVG 1.1//EN"
 "http://www.w3.org/Graphics/SVG/1.1/DTD/svg11.dtd">
<!-- Generated by graphviz version 2.30.1 (20170916.1124)
 -->
<!-- Title: mom_vert_friction::vertvisc Pages: 1 -->
<svg width="354pt" height="87pt"
 viewBox="0.00 0.00 354.00 87.00" xmlns="http://www.w3.org/2000/svg" xmlns:xlink="http://www.w3.org/1999/xlink">
<g id="graph0" class="graph" transform="scale(1 1) rotate(0) translate(4 83)">
<title>mom_vert_friction::vertvisc</title>
<polygon fill="white" stroke="white" points="-4,5 -4,-83 351,-83 351,5 -4,5"/>
<!-- Node9 -->
<g id="node1" class="node"><title>Node9</title>
<g id="a_node1"><a xlink:title="Perform a fully implicit vertical diffusion of momentum. Stress top and bottom boundary conditions ar...">
<polygon fill="#bfbfbf" stroke="black" points="0.5,-24 0.5,-54 85.5,-54 85.5,-24 0.5,-24"/>
<text text-anchor="start" x="8.5" y="-42" font-family="Helvetica,sans-Serif" font-size="10.00">mom_vert_friction::</text>
<text text-anchor="middle" x="43" y="-31" font-family="Helvetica,sans-Serif" font-size="10.00">vertvisc</text>
</a>
</g>
</g>
<!-- Node10 -->
<g id="node2" class="node"><title>Node10</title>
<g id="a_node2"><a xlink:href="namespacemom__error__handler.html#a460cfb79a06c29fc249952c2a3710d67" target="_top" xlink:title=" ">
<polygon fill="white" stroke="black" points="122.5,-49 122.5,-79 215.5,-79 215.5,-49 122.5,-49"/>
<text text-anchor="start" x="130.5" y="-67" font-family="Helvetica,sans-Serif" font-size="10.00">mom_error_handler::</text>
<text text-anchor="middle" x="169" y="-56" font-family="Helvetica,sans-Serif" font-size="10.00">mom_error</text>
</a>
</g>
</g>
<!-- Node9&#45;&gt;Node10 -->
<g id="edge1" class="edge"><title>Node9&#45;&gt;Node10</title>
<path fill="none" stroke="midnightblue" d="M85.6352,-47.3942C94.2232,-49.1257 103.398,-50.9754 112.391,-52.7885"/>
<polygon fill="midnightblue" stroke="midnightblue" points="111.932,-56.2664 122.427,-54.8118 113.316,-49.4044 111.932,-56.2664"/>
</g>
<!-- Node12 -->
<g id="node4" class="node"><title>Node12</title>
<g id="a_node4"><a xlink:href="namespacemom__vert__friction.html#a82bae17e9c3b1a5f1eedb6c1d14c5998" target="_top" xlink:title="Velocity components which exceed a threshold for physically reasonable values are truncated....">
<polygon fill="white" stroke="black" points="126.5,-0 126.5,-30 211.5,-30 211.5,-0 126.5,-0"/>
<text text-anchor="start" x="134.5" y="-18" font-family="Helvetica,sans-Serif" font-size="10.00">mom_vert_friction::</text>
<text text-anchor="middle" x="169" y="-7" font-family="Helvetica,sans-Serif" font-size="10.00">vertvisc_limit_vel</text>
</a>
</g>
</g>
<!-- Node9&#45;&gt;Node12 -->
<g id="edge3" class="edge"><title>Node9&#45;&gt;Node12</title>
<path fill="none" stroke="midnightblue" d="M85.6352,-30.9416C95.4501,-29.0419 106.031,-26.994 116.232,-25.0196"/>
<polygon fill="midnightblue" stroke="midnightblue" points="117.111,-28.4145 126.264,-23.078 115.781,-21.5421 117.111,-28.4145"/>
</g>
<!-- Node11 -->
<g id="node3" class="node"><title>Node11</title>
<g id="a_node3"><a xlink:href="namespacemom__error__handler.html#ad5f00a53059c72fe2332d1436c80ca71" target="_top" xlink:title=" ">
<polygon fill="white" stroke="black" points="252.5,-49 252.5,-79 345.5,-79 345.5,-49 252.5,-49"/>
<text text-anchor="start" x="260.5" y="-67" font-family="Helvetica,sans-Serif" font-size="10.00">mom_error_handler::</text>
<text text-anchor="middle" x="299" y="-56" font-family="Helvetica,sans-Serif" font-size="10.00">is_root_pe</text>
</a>
</g>
</g>
<!-- Node10&#45;&gt;Node11 -->
<g id="edge2" class="edge"><title>Node10&#45;&gt;Node11</title>
<path fill="none" stroke="midnightblue" d="M215.849,-64C224.408,-64 233.439,-64 242.258,-64"/>
<polygon fill="midnightblue" stroke="midnightblue" points="242.471,-67.5001 252.471,-64 242.471,-60.5001 242.471,-67.5001"/>
</g>
</g>
</svg>
