<?xml version="1.0" encoding="UTF-8" standalone="no"?>
<!DOCTYPE svg PUBLIC "-//W3C//DTD SVG 1.1//EN"
 "http://www.w3.org/Graphics/SVG/1.1/DTD/svg11.dtd">
<!-- Generated by graphviz version 2.30.1 (20170916.1124)
 -->
<!-- Title: mom_pressureforce_mont::set_pbce_bouss Pages: 1 -->
<svg width="416pt" height="87pt"
 viewBox="0.00 0.00 416.00 87.00" xmlns="http://www.w3.org/2000/svg" xmlns:xlink="http://www.w3.org/1999/xlink">
<g id="graph0" class="graph" transform="scale(1 1) rotate(0) translate(4 83)">
<title>mom_pressureforce_mont::set_pbce_bouss</title>
<polygon fill="white" stroke="white" points="-4,5 -4,-83 413,-83 413,5 -4,5"/>
<!-- Node30 -->
<g id="node1" class="node"><title>Node30</title>
<g id="a_node1"><a xlink:title="Determines the partial derivative of the acceleration due to pressure forces with the free surface he...">
<polygon fill="#bfbfbf" stroke="black" points="296.5,-24 296.5,-54 407.5,-54 407.5,-24 296.5,-24"/>
<text text-anchor="start" x="304.5" y="-42" font-family="Helvetica,sans-Serif" font-size="10.00">mom_pressureforce_mont</text>
<text text-anchor="middle" x="352" y="-31" font-family="Helvetica,sans-Serif" font-size="10.00">::set_pbce_bouss</text>
</a>
</g>
</g>
<!-- Node31 -->
<g id="node2" class="node"><title>Node31</title>
<g id="a_node2"><a xlink:href="namespacemom__pressureforce__afv.html#a2b38fa4956dd9305ec682fcc64ae32ea" target="_top" xlink:title="Boussinesq analytically&#45;integrated finite volume form of pressure gradient.">
<polygon fill="white" stroke="black" points="144.5,-49 144.5,-79 255.5,-79 255.5,-49 144.5,-49"/>
<text text-anchor="start" x="152.5" y="-67" font-family="Helvetica,sans-Serif" font-size="10.00">mom_pressureforce_afv</text>
<text text-anchor="middle" x="200" y="-56" font-family="Helvetica,sans-Serif" font-size="10.00">::pressureforce_afv_bouss</text>
</a>
</g>
</g>
<!-- Node30&#45;&gt;Node31 -->
<g id="edge1" class="edge"><title>Node30&#45;&gt;Node31</title>
<path fill="none" stroke="midnightblue" d="M286.288,-49.7854C276.037,-51.4938 265.525,-53.2458 255.537,-54.9105"/>
<polygon fill="midnightblue" stroke="midnightblue" points="287.134,-53.1927 296.422,-48.0963 285.983,-46.288 287.134,-53.1927"/>
</g>
<!-- Node33 -->
<g id="node4" class="node"><title>Node33</title>
<g id="a_node4"><a xlink:href="namespacemom__pressureforce__mont.html#a15f395ec4b0c1bbc6f87af689f0de944" target="_top" xlink:title="Boussinesq Montgomery&#45;potential form of pressure gradient.">
<polygon fill="white" stroke="black" points="140.5,-0 140.5,-30 259.5,-30 259.5,-0 140.5,-0"/>
<text text-anchor="start" x="148.5" y="-18" font-family="Helvetica,sans-Serif" font-size="10.00">mom_pressureforce_mont</text>
<text text-anchor="middle" x="200" y="-7" font-family="Helvetica,sans-Serif" font-size="10.00">::pressureforce_mont_bouss</text>
</a>
</g>
</g>
<!-- Node30&#45;&gt;Node33 -->
<g id="edge3" class="edge"><title>Node30&#45;&gt;Node33</title>
<path fill="none" stroke="midnightblue" d="M286.455,-28.6728C277.526,-27.2442 268.396,-25.7834 259.584,-24.3734"/>
<polygon fill="midnightblue" stroke="midnightblue" points="285.995,-32.1436 296.422,-30.2676 287.101,-25.2315 285.995,-32.1436"/>
</g>
<!-- Node32 -->
<g id="node3" class="node"><title>Node32</title>
<g id="a_node3"><a xlink:href="namespacemom__pressureforce__afv.html#aa3fa5f17809b17fc1c065fb5ba6a11dc" target="_top" xlink:title="Thin interface between the model and the Boussinesq and non&#45;Boussinesq pressure force routines.">
<polygon fill="white" stroke="black" points="0,-49 0,-79 104,-79 104,-49 0,-49"/>
<text text-anchor="start" x="8" y="-67" font-family="Helvetica,sans-Serif" font-size="10.00">mom_pressureforce_afv</text>
<text text-anchor="middle" x="52" y="-56" font-family="Helvetica,sans-Serif" font-size="10.00">::pressureforce_afv</text>
</a>
</g>
</g>
<!-- Node31&#45;&gt;Node32 -->
<g id="edge2" class="edge"><title>Node31&#45;&gt;Node32</title>
<path fill="none" stroke="midnightblue" d="M133.946,-64C123.988,-64 113.83,-64 104.226,-64"/>
<polygon fill="midnightblue" stroke="midnightblue" points="134.22,-67.5001 144.22,-64 134.22,-60.5001 134.22,-67.5001"/>
</g>
</g>
</svg>
