<?xml version="1.0" encoding="UTF-8" standalone="no"?>
<!DOCTYPE svg PUBLIC "-//W3C//DTD SVG 1.1//EN"
 "http://www.w3.org/Graphics/SVG/1.1/DTD/svg11.dtd">
<!-- Generated by graphviz version 2.30.1 (20170916.1124)
 -->
<!-- Title: mom_diffconvection::diffconvection_init Pages: 1 -->
<svg width="1112pt" height="439pt"
 viewBox="0.00 0.00 1112.00 439.00" xmlns="http://www.w3.org/2000/svg" xmlns:xlink="http://www.w3.org/1999/xlink">
<g id="graph0" class="graph" transform="scale(1 1) rotate(0) translate(4 435)">
<title>mom_diffconvection::diffconvection_init</title>
<polygon fill="white" stroke="white" points="-4,5 -4,-435 1109,-435 1109,5 -4,5"/>
<!-- Node6 -->
<g id="node1" class="node"><title>Node6</title>
<g id="a_node1"><a xlink:title=" ">
<polygon fill="#bfbfbf" stroke="black" points="0.5,-349 0.5,-379 87.5,-379 87.5,-349 0.5,-349"/>
<text text-anchor="start" x="8.5" y="-367" font-family="Helvetica,sans-Serif" font-size="10.00">mom_diffconvection</text>
<text text-anchor="middle" x="44" y="-356" font-family="Helvetica,sans-Serif" font-size="10.00">::diffconvection_init</text>
</a>
</g>
</g>
<!-- Node7 -->
<g id="node2" class="node"><title>Node7</title>
<g id="a_node2"><a xlink:href="namespacemom__file__parser.html#a0d01b9a66f5ac12b657c00f1295351bb" target="_top" xlink:title=" ">
<polygon fill="white" stroke="black" points="124.5,-411.5 124.5,-430.5 279.5,-430.5 279.5,-411.5 124.5,-411.5"/>
<text text-anchor="middle" x="202" y="-418.5" font-family="Helvetica,sans-Serif" font-size="10.00">mom_file_parser::closeparameterblock</text>
</a>
</g>
</g>
<!-- Node6&#45;&gt;Node7 -->
<g id="edge1" class="edge"><title>Node6&#45;&gt;Node7</title>
<path fill="none" stroke="midnightblue" d="M79.3334,-379.164C93.1046,-385.03 109.194,-391.613 124,-397 134.992,-400.999 147.008,-404.943 158.211,-408.443"/>
<polygon fill="midnightblue" stroke="midnightblue" points="157.212,-411.798 167.799,-411.394 159.272,-405.107 157.212,-411.798"/>
</g>
<!-- Node9 -->
<g id="node4" class="node"><title>Node9</title>
<g id="a_node4"><a xlink:href="namespacemom__error__handler.html#a460cfb79a06c29fc249952c2a3710d67" target="_top" xlink:title=" ">
<polygon fill="white" stroke="black" points="880.5,-157 880.5,-187 973.5,-187 973.5,-157 880.5,-157"/>
<text text-anchor="start" x="888.5" y="-175" font-family="Helvetica,sans-Serif" font-size="10.00">mom_error_handler::</text>
<text text-anchor="middle" x="927" y="-164" font-family="Helvetica,sans-Serif" font-size="10.00">mom_error</text>
</a>
</g>
</g>
<!-- Node6&#45;&gt;Node9 -->
<g id="edge3" class="edge"><title>Node6&#45;&gt;Node9</title>
<path fill="none" stroke="midnightblue" d="M87.6533,-367.96C151.415,-373.528 275.394,-383 381,-383 381,-383 381,-383 665,-383 694.371,-383 777.822,-360.934 844,-303 878.132,-273.12 902.945,-225.571 915.862,-196.723"/>
<polygon fill="midnightblue" stroke="midnightblue" points="919.156,-197.925 919.93,-187.358 912.736,-195.136 919.156,-197.925"/>
</g>
<!-- Node11 -->
<g id="node6" class="node"><title>Node11</title>
<g id="a_node6"><a xlink:href="namespacemom__file__parser.html#a363628fcd8540de780ebeacf24012229" target="_top" xlink:title=" ">
<polygon fill="white" stroke="black" points="124.5,-335.5 124.5,-354.5 279.5,-354.5 279.5,-335.5 124.5,-335.5"/>
<text text-anchor="middle" x="202" y="-342.5" font-family="Helvetica,sans-Serif" font-size="10.00">mom_file_parser::openparameterblock</text>
</a>
</g>
</g>
<!-- Node6&#45;&gt;Node11 -->
<g id="edge5" class="edge"><title>Node6&#45;&gt;Node11</title>
<path fill="none" stroke="midnightblue" d="M87.6277,-358.808C95.9751,-357.791 105.008,-356.691 114.207,-355.571"/>
<polygon fill="midnightblue" stroke="midnightblue" points="114.725,-359.034 124.228,-354.35 113.878,-352.085 114.725,-359.034"/>
</g>
<!-- Node13 -->
<g id="node8" class="node"><title>Node13</title>
<g id="a_node8"><a xlink:href="namespacemom__diag__mediator.html#aa791f75f899ae9b7cd4756165a9c2a1b" target="_top" xlink:title="Returns the &quot;diag_mediator&quot; handle for a group (native, CMOR, z&#45;coord, ...) of diagnostics derived fr...">
<polygon fill="white" stroke="black" points="154.5,-196 154.5,-226 249.5,-226 249.5,-196 154.5,-196"/>
<text text-anchor="start" x="162.5" y="-214" font-family="Helvetica,sans-Serif" font-size="10.00">mom_diag_mediator::</text>
<text text-anchor="middle" x="202" y="-203" font-family="Helvetica,sans-Serif" font-size="10.00">register_diag_field</text>
</a>
</g>
</g>
<!-- Node6&#45;&gt;Node13 -->
<g id="edge7" class="edge"><title>Node6&#45;&gt;Node13</title>
<path fill="none" stroke="midnightblue" d="M60.5282,-348.77C88.211,-321.62 146.191,-264.755 178.332,-233.232"/>
<polygon fill="midnightblue" stroke="midnightblue" points="180.846,-235.669 185.535,-226.168 175.944,-230.671 180.846,-235.669"/>
</g>
<!-- Node8 -->
<g id="node3" class="node"><title>Node8</title>
<g id="a_node3"><a xlink:href="namespacemom__file__parser.html#a73b11b969d303b1fc0ba5235c812fd05" target="_top" xlink:title=" ">
<polygon fill="white" stroke="black" points="318,-411.5 318,-430.5 446,-430.5 446,-411.5 318,-411.5"/>
<text text-anchor="middle" x="382" y="-418.5" font-family="Helvetica,sans-Serif" font-size="10.00">mom_file_parser::popblocklevel</text>
</a>
</g>
</g>
<!-- Node7&#45;&gt;Node8 -->
<g id="edge2" class="edge"><title>Node7&#45;&gt;Node8</title>
<path fill="none" stroke="midnightblue" d="M279.521,-421C288.932,-421 298.533,-421 307.891,-421"/>
<polygon fill="midnightblue" stroke="midnightblue" points="307.931,-424.5 317.931,-421 307.931,-417.5 307.931,-424.5"/>
</g>
<!-- Node10 -->
<g id="node5" class="node"><title>Node10</title>
<g id="a_node5"><a xlink:href="namespacemom__error__handler.html#ad5f00a53059c72fe2332d1436c80ca71" target="_top" xlink:title=" ">
<polygon fill="white" stroke="black" points="1010.5,-131 1010.5,-161 1103.5,-161 1103.5,-131 1010.5,-131"/>
<text text-anchor="start" x="1018.5" y="-149" font-family="Helvetica,sans-Serif" font-size="10.00">mom_error_handler::</text>
<text text-anchor="middle" x="1057" y="-138" font-family="Helvetica,sans-Serif" font-size="10.00">is_root_pe</text>
</a>
</g>
</g>
<!-- Node9&#45;&gt;Node10 -->
<g id="edge4" class="edge"><title>Node9&#45;&gt;Node10</title>
<path fill="none" stroke="midnightblue" d="M973.849,-162.687C982.501,-160.929 991.636,-159.074 1000.55,-157.264"/>
<polygon fill="midnightblue" stroke="midnightblue" points="1001.37,-160.669 1010.47,-155.248 999.974,-153.809 1001.37,-160.669"/>
</g>
<!-- Node12 -->
<g id="node7" class="node"><title>Node12</title>
<g id="a_node7"><a xlink:href="namespacemom__file__parser.html#a58777b0faf747d59a793b4e238919dc6" target="_top" xlink:title=" ">
<polygon fill="white" stroke="black" points="316,-335.5 316,-354.5 448,-354.5 448,-335.5 316,-335.5"/>
<text text-anchor="middle" x="382" y="-342.5" font-family="Helvetica,sans-Serif" font-size="10.00">mom_file_parser::pushblocklevel</text>
</a>
</g>
</g>
<!-- Node11&#45;&gt;Node12 -->
<g id="edge6" class="edge"><title>Node11&#45;&gt;Node12</title>
<path fill="none" stroke="midnightblue" d="M279.521,-345C288.19,-345 297.02,-345 305.673,-345"/>
<polygon fill="midnightblue" stroke="midnightblue" points="305.73,-348.5 315.73,-345 305.73,-341.5 305.73,-348.5"/>
</g>
<!-- Node14 -->
<g id="node9" class="node"><title>Node14</title>
<g id="a_node9"><a xlink:href="namespacemom__diag__mediator.html#ae50b35cba800ac5fd8975929fd2b9f4a" target="_top" xlink:title="Returns True if either the native of CMOr version of the diagnostic were registered....">
<polygon fill="white" stroke="black" points="334.5,-118.5 334.5,-159.5 429.5,-159.5 429.5,-118.5 334.5,-118.5"/>
<text text-anchor="start" x="342.5" y="-147.5" font-family="Helvetica,sans-Serif" font-size="10.00">mom_diag_mediator::</text>
<text text-anchor="start" x="342.5" y="-136.5" font-family="Helvetica,sans-Serif" font-size="10.00">register_diag_field</text>
<text text-anchor="middle" x="382" y="-125.5" font-family="Helvetica,sans-Serif" font-size="10.00">_expand_cmor</text>
</a>
</g>
</g>
<!-- Node13&#45;&gt;Node14 -->
<g id="edge8" class="edge"><title>Node13&#45;&gt;Node14</title>
<path fill="none" stroke="midnightblue" d="M240.315,-195.906C264.754,-186.021 297.151,-172.917 324.695,-161.775"/>
<polygon fill="midnightblue" stroke="midnightblue" points="326.257,-164.919 334.214,-157.925 323.632,-158.43 326.257,-164.919"/>
</g>
<!-- Node15 -->
<g id="node10" class="node"><title>Node15</title>
<g id="a_node10"><a xlink:href="namespacemom__diag__mediator.html#a8415b33a337b1fbc7535688eca85ab37" target="_top" xlink:title="Create a diagnostic type and attached to list.">
<polygon fill="white" stroke="black" points="484.5,-236 484.5,-266 579.5,-266 579.5,-236 484.5,-236"/>
<text text-anchor="start" x="492.5" y="-254" font-family="Helvetica,sans-Serif" font-size="10.00">mom_diag_mediator::</text>
<text text-anchor="middle" x="532" y="-243" font-family="Helvetica,sans-Serif" font-size="10.00">add_diag_to_list</text>
</a>
</g>
</g>
<!-- Node14&#45;&gt;Node15 -->
<g id="edge9" class="edge"><title>Node14&#45;&gt;Node15</title>
<path fill="none" stroke="midnightblue" d="M410.145,-159.543C436.501,-179.487 476.326,-209.625 502.976,-229.792"/>
<polygon fill="midnightblue" stroke="midnightblue" points="501.045,-232.721 511.131,-235.964 505.269,-227.139 501.045,-232.721"/>
</g>
<!-- Node21 -->
<g id="node16" class="node"><title>Node21</title>
<g id="a_node16"><a xlink:href="namespacemom__diag__mediator.html#ae0f04c145cb120fc2ab6cbfe9f166392" target="_top" xlink:title="Attaches &quot;cell_methods&quot; attribute to a variable based on defaults for axes_grp or optional arguments.">
<polygon fill="white" stroke="black" points="748.5,-157 748.5,-187 843.5,-187 843.5,-157 748.5,-157"/>
<text text-anchor="start" x="756.5" y="-175" font-family="Helvetica,sans-Serif" font-size="10.00">mom_diag_mediator::</text>
<text text-anchor="middle" x="796" y="-164" font-family="Helvetica,sans-Serif" font-size="10.00">attach_cell_methods</text>
</a>
</g>
</g>
<!-- Node14&#45;&gt;Node21 -->
<g id="edge17" class="edge"><title>Node14&#45;&gt;Node21</title>
<path fill="none" stroke="midnightblue" d="M429.861,-142.753C506.01,-148.853 656.342,-160.894 738.361,-167.463"/>
<polygon fill="midnightblue" stroke="midnightblue" points="738.252,-170.966 748.499,-168.275 738.81,-163.988 738.252,-170.966"/>
</g>
<!-- Node14&#45;&gt;Node10 -->
<g id="edge19" class="edge"><title>Node14&#45;&gt;Node10</title>
<path fill="none" stroke="midnightblue" d="M429.505,-133.908C485.008,-128.28 580.658,-120 663,-120 663,-120 663,-120 797,-120 867.329,-120 947.865,-129.608 1000.21,-137.143"/>
<polygon fill="midnightblue" stroke="midnightblue" points="999.888,-140.633 1010.29,-138.619 1000.9,-133.707 999.888,-140.633"/>
</g>
<!-- Node22 -->
<g id="node17" class="node"><title>Node22</title>
<g id="a_node17"><a xlink:href="namespacemom__diag__mediator.html#a65fe8d329cf5dbfd08c98874a7a64407" target="_top" xlink:title="Log a diagnostic to the available diagnostics file.">
<polygon fill="white" stroke="black" points="484.5,-61 484.5,-91 579.5,-91 579.5,-61 484.5,-61"/>
<text text-anchor="start" x="492.5" y="-79" font-family="Helvetica,sans-Serif" font-size="10.00">mom_diag_mediator::</text>
<text text-anchor="middle" x="532" y="-68" font-family="Helvetica,sans-Serif" font-size="10.00">log_available_diag</text>
</a>
</g>
</g>
<!-- Node14&#45;&gt;Node22 -->
<g id="edge20" class="edge"><title>Node14&#45;&gt;Node22</title>
<path fill="none" stroke="midnightblue" d="M429.828,-119.066C447.835,-111.402 468.334,-102.676 486.149,-95.0918"/>
<polygon fill="midnightblue" stroke="midnightblue" points="487.908,-98.1471 495.738,-91.01 485.166,-91.7064 487.908,-98.1471"/>
</g>
<!-- Node24 -->
<g id="node19" class="node"><title>Node24</title>
<g id="a_node19"><a xlink:href="namespacemom__diag__mediator.html#aca4a32fea8dade9f51e076a56b9bad2b" target="_top" xlink:title="Returns an FMS id from register_diag_field_fms (the diag_manager routine) after expanding axes (axes&#45;...">
<polygon fill="white" stroke="black" points="484.5,-0.5 484.5,-41.5 579.5,-41.5 579.5,-0.5 484.5,-0.5"/>
<text text-anchor="start" x="492.5" y="-29.5" font-family="Helvetica,sans-Serif" font-size="10.00">mom_diag_mediator::</text>
<text text-anchor="start" x="492.5" y="-18.5" font-family="Helvetica,sans-Serif" font-size="10.00">register_diag_field</text>
<text text-anchor="middle" x="532" y="-7.5" font-family="Helvetica,sans-Serif" font-size="10.00">_expand_axes</text>
</a>
</g>
</g>
<!-- Node14&#45;&gt;Node24 -->
<g id="edge22" class="edge"><title>Node14&#45;&gt;Node24</title>
<path fill="none" stroke="midnightblue" d="M404.668,-118.441C424.599,-99.9446 455.324,-72.4581 484,-51 485.599,-49.8038 487.245,-48.6056 488.92,-47.4135"/>
<polygon fill="midnightblue" stroke="midnightblue" points="491.203,-50.0915 497.46,-41.5414 487.237,-44.3235 491.203,-50.0915"/>
</g>
<!-- Node16 -->
<g id="node11" class="node"><title>Node16</title>
<g id="a_node11"><a xlink:href="namespacemom__diag__mediator.html#a1b0bed2113a0c268eafd1bafbb48bd4f" target="_top" xlink:title=" ">
<polygon fill="white" stroke="black" points="616.5,-324 616.5,-354 711.5,-354 711.5,-324 616.5,-324"/>
<text text-anchor="start" x="624.5" y="-342" font-family="Helvetica,sans-Serif" font-size="10.00">mom_diag_mediator::</text>
<text text-anchor="middle" x="664" y="-331" font-family="Helvetica,sans-Serif" font-size="10.00">alloc_diag_with_id</text>
</a>
</g>
</g>
<!-- Node15&#45;&gt;Node16 -->
<g id="edge10" class="edge"><title>Node15&#45;&gt;Node16</title>
<path fill="none" stroke="midnightblue" d="M553.983,-266.026C570.664,-277.882 594.659,-294.742 616,-309 620.628,-312.092 625.548,-315.309 630.396,-318.438"/>
<polygon fill="midnightblue" stroke="midnightblue" points="628.657,-321.48 638.965,-323.93 632.434,-315.587 628.657,-321.48"/>
</g>
<!-- Node17 -->
<g id="node12" class="node"><title>Node17</title>
<g id="a_node12"><a xlink:href="namespacemom__error__handler.html#a33bcd190d460095104954f2e654f9fe6" target="_top" xlink:title="Issues a FATAL error if the assertion fails, i.e. the first argument is false.">
<polygon fill="white" stroke="black" points="749.5,-264 749.5,-294 842.5,-294 842.5,-264 749.5,-264"/>
<text text-anchor="start" x="757.5" y="-282" font-family="Helvetica,sans-Serif" font-size="10.00">mom_error_handler::</text>
<text text-anchor="middle" x="796" y="-271" font-family="Helvetica,sans-Serif" font-size="10.00">assert</text>
</a>
</g>
</g>
<!-- Node15&#45;&gt;Node17 -->
<g id="edge11" class="edge"><title>Node15&#45;&gt;Node17</title>
<path fill="none" stroke="midnightblue" d="M577.323,-266.112C589.698,-269.699 603.249,-273.048 616,-275 656.97,-281.272 703.821,-282.096 739.313,-281.445"/>
<polygon fill="midnightblue" stroke="midnightblue" points="739.557,-284.94 749.475,-281.213 739.398,-277.942 739.557,-284.94"/>
</g>
<!-- Node18 -->
<g id="node13" class="node"><title>Node18</title>
<g id="a_node13"><a xlink:href="namespacemom__diag__mediator.html#a3f7442639213320f7429e2288a79fda2" target="_top" xlink:title="Returns a new diagnostic id, it may be necessary to expand the diagnostics array.">
<polygon fill="white" stroke="black" points="616.5,-236 616.5,-266 711.5,-266 711.5,-236 616.5,-236"/>
<text text-anchor="start" x="624.5" y="-254" font-family="Helvetica,sans-Serif" font-size="10.00">mom_diag_mediator::</text>
<text text-anchor="middle" x="664" y="-243" font-family="Helvetica,sans-Serif" font-size="10.00">get_new_diag_id</text>
</a>
</g>
</g>
<!-- Node15&#45;&gt;Node18 -->
<g id="edge13" class="edge"><title>Node15&#45;&gt;Node18</title>
<path fill="none" stroke="midnightblue" d="M579.566,-251C588.154,-251 597.21,-251 606.063,-251"/>
<polygon fill="midnightblue" stroke="midnightblue" points="606.322,-254.5 616.322,-251 606.322,-247.5 606.322,-254.5"/>
</g>
<!-- Node20 -->
<g id="node15" class="node"><title>Node20</title>
<g id="a_node15"><a xlink:href="namespacemom__diag__mediator.html#a085f313357879a914af6450f2ab8ec79" target="_top" xlink:title="Associates the mask pointers within diag with the appropriate mask based on the axes group.">
<polygon fill="white" stroke="black" points="616.5,-187 616.5,-217 711.5,-217 711.5,-187 616.5,-187"/>
<text text-anchor="start" x="624.5" y="-205" font-family="Helvetica,sans-Serif" font-size="10.00">mom_diag_mediator::</text>
<text text-anchor="middle" x="664" y="-194" font-family="Helvetica,sans-Serif" font-size="10.00">set_diag_mask</text>
</a>
</g>
</g>
<!-- Node15&#45;&gt;Node20 -->
<g id="edge16" class="edge"><title>Node15&#45;&gt;Node20</title>
<path fill="none" stroke="midnightblue" d="M573.065,-235.899C585.792,-231.101 600.022,-225.738 613.341,-220.718"/>
<polygon fill="midnightblue" stroke="midnightblue" points="614.721,-223.938 622.843,-217.136 612.252,-217.388 614.721,-223.938"/>
</g>
<!-- Node17&#45;&gt;Node9 -->
<g id="edge12" class="edge"><title>Node17&#45;&gt;Node9</title>
<path fill="none" stroke="midnightblue" d="M828.633,-263.844C833.931,-260.841 839.245,-257.519 844,-254 867.577,-236.551 890.876,-212.405 906.577,-194.836"/>
<polygon fill="midnightblue" stroke="midnightblue" points="909.253,-197.094 913.231,-187.274 903.997,-192.47 909.253,-197.094"/>
</g>
<!-- Node18&#45;&gt;Node17 -->
<g id="edge14" class="edge"><title>Node18&#45;&gt;Node17</title>
<path fill="none" stroke="midnightblue" d="M711.566,-261.03C720.554,-262.966 730.056,-265.012 739.301,-267.003"/>
<polygon fill="midnightblue" stroke="midnightblue" points="738.683,-270.45 749.195,-269.134 740.157,-263.607 738.683,-270.45"/>
</g>
<!-- Node19 -->
<g id="node14" class="node"><title>Node19</title>
<g id="a_node14"><a xlink:href="namespacemom__diag__mediator.html#a883862f004e30bbc5211f38635511ba0" target="_top" xlink:title="Initializes a diag_type (used after allocating new memory)">
<polygon fill="white" stroke="black" points="748.5,-215 748.5,-245 843.5,-245 843.5,-215 748.5,-215"/>
<text text-anchor="start" x="756.5" y="-233" font-family="Helvetica,sans-Serif" font-size="10.00">mom_diag_mediator::</text>
<text text-anchor="middle" x="796" y="-222" font-family="Helvetica,sans-Serif" font-size="10.00">initialize_diag_type</text>
</a>
</g>
</g>
<!-- Node18&#45;&gt;Node19 -->
<g id="edge15" class="edge"><title>Node18&#45;&gt;Node19</title>
<path fill="none" stroke="midnightblue" d="M711.566,-243.478C720.247,-242.075 729.406,-240.596 738.351,-239.151"/>
<polygon fill="midnightblue" stroke="midnightblue" points="739.009,-242.59 748.322,-237.54 737.892,-235.68 739.009,-242.59"/>
</g>
<!-- Node21&#45;&gt;Node9 -->
<g id="edge18" class="edge"><title>Node21&#45;&gt;Node9</title>
<path fill="none" stroke="midnightblue" d="M843.572,-172C852.183,-172 861.256,-172 870.11,-172"/>
<polygon fill="midnightblue" stroke="midnightblue" points="870.361,-175.5 880.361,-172 870.361,-168.5 870.361,-175.5"/>
</g>
<!-- Node23 -->
<g id="node18" class="node"><title>Node23</title>
<g id="a_node18"><a xlink:href="namespacemom__diag__mediator.html#ae002ca447acba252bf7bdc042e75a01e" target="_top" xlink:title=" ">
<polygon fill="white" stroke="black" points="616.5,-61 616.5,-91 711.5,-91 711.5,-61 616.5,-61"/>
<text text-anchor="start" x="624.5" y="-79" font-family="Helvetica,sans-Serif" font-size="10.00">mom_diag_mediator::</text>
<text text-anchor="middle" x="664" y="-68" font-family="Helvetica,sans-Serif" font-size="10.00">describe_option</text>
</a>
</g>
</g>
<!-- Node22&#45;&gt;Node23 -->
<g id="edge21" class="edge"><title>Node22&#45;&gt;Node23</title>
<path fill="none" stroke="midnightblue" d="M579.566,-76C588.154,-76 597.21,-76 606.063,-76"/>
<polygon fill="midnightblue" stroke="midnightblue" points="606.322,-79.5001 616.322,-76 606.322,-72.5001 606.322,-79.5001"/>
</g>
</g>
</svg>
