<?xml version="1.0" encoding="UTF-8" standalone="no"?>
<!DOCTYPE svg PUBLIC "-//W3C//DTD SVG 1.1//EN"
 "http://www.w3.org/Graphics/SVG/1.1/DTD/svg11.dtd">
<!-- Generated by graphviz version 2.30.1 (20170916.1124)
 -->
<!-- Title: mom_ice_shelf_initialize::initialize_ice_thickness Pages: 1 -->
<svg width="508pt" height="221pt"
 viewBox="0.00 0.00 508.00 221.00" xmlns="http://www.w3.org/2000/svg" xmlns:xlink="http://www.w3.org/1999/xlink">
<g id="graph0" class="graph" transform="scale(1 1) rotate(0) translate(4 217)">
<title>mom_ice_shelf_initialize::initialize_ice_thickness</title>
<polygon fill="white" stroke="white" points="-4,5 -4,-217 505,-217 505,5 -4,5"/>
<!-- Node0 -->
<g id="node1" class="node"><title>Node0</title>
<g id="a_node1"><a xlink:title=" ">
<polygon fill="#bfbfbf" stroke="black" points="0.5,-92 0.5,-122 101.5,-122 101.5,-92 0.5,-92"/>
<text text-anchor="start" x="8.5" y="-110" font-family="Helvetica,sans-Serif" font-size="10.00">mom_ice_shelf_initialize</text>
<text text-anchor="middle" x="51" y="-99" font-family="Helvetica,sans-Serif" font-size="10.00">::initialize_ice_thickness</text>
</a>
</g>
</g>
<!-- Node1 -->
<g id="node2" class="node"><title>Node1</title>
<g id="a_node2"><a xlink:href="namespacemom__ice__shelf__initialize.html#a39c0a7ed253214d2c312bba2f366ef68" target="_top" xlink:title=" ">
<polygon fill="white" stroke="black" points="138.5,-171.5 138.5,-212.5 239.5,-212.5 239.5,-171.5 138.5,-171.5"/>
<text text-anchor="start" x="146.5" y="-200.5" font-family="Helvetica,sans-Serif" font-size="10.00">mom_ice_shelf_initialize</text>
<text text-anchor="start" x="146.5" y="-189.5" font-family="Helvetica,sans-Serif" font-size="10.00">::initialize_ice_thickness</text>
<text text-anchor="middle" x="189" y="-178.5" font-family="Helvetica,sans-Serif" font-size="10.00">_channel</text>
</a>
</g>
</g>
<!-- Node0&#45;&gt;Node1 -->
<g id="edge1" class="edge"><title>Node0&#45;&gt;Node1</title>
<path fill="none" stroke="midnightblue" d="M75.2466,-122.121C92.4866,-133.273 116.607,-148.745 138,-162 140.184,-163.353 142.426,-164.732 144.693,-166.12"/>
<polygon fill="midnightblue" stroke="midnightblue" points="143.131,-169.266 153.494,-171.472 146.768,-163.285 143.131,-169.266"/>
</g>
<!-- Node4 -->
<g id="node5" class="node"><title>Node4</title>
<g id="a_node5"><a xlink:href="namespacemom__ice__shelf__initialize.html#aeecfae4afdadf83fcaf1cc582bdaeed7" target="_top" xlink:title=" ">
<polygon fill="white" stroke="black" points="138.5,-111.5 138.5,-152.5 239.5,-152.5 239.5,-111.5 138.5,-111.5"/>
<text text-anchor="start" x="146.5" y="-140.5" font-family="Helvetica,sans-Serif" font-size="10.00">mom_ice_shelf_initialize</text>
<text text-anchor="start" x="146.5" y="-129.5" font-family="Helvetica,sans-Serif" font-size="10.00">::initialize_ice_thickness</text>
<text text-anchor="middle" x="189" y="-118.5" font-family="Helvetica,sans-Serif" font-size="10.00">_from_file</text>
</a>
</g>
</g>
<!-- Node0&#45;&gt;Node4 -->
<g id="edge4" class="edge"><title>Node0&#45;&gt;Node4</title>
<path fill="none" stroke="midnightblue" d="M101.869,-116.167C110.462,-117.747 119.471,-119.403 128.291,-121.024"/>
<polygon fill="midnightblue" stroke="midnightblue" points="127.669,-124.468 138.137,-122.834 128.934,-117.584 127.669,-124.468"/>
</g>
<!-- Node5 -->
<g id="node6" class="node"><title>Node5</title>
<g id="a_node6"><a xlink:href="namespacemom__error__handler.html#a460cfb79a06c29fc249952c2a3710d67" target="_top" xlink:title=" ">
<polygon fill="white" stroke="black" points="276.5,-85 276.5,-115 369.5,-115 369.5,-85 276.5,-85"/>
<text text-anchor="start" x="284.5" y="-103" font-family="Helvetica,sans-Serif" font-size="10.00">mom_error_handler::</text>
<text text-anchor="middle" x="323" y="-92" font-family="Helvetica,sans-Serif" font-size="10.00">mom_error</text>
</a>
</g>
</g>
<!-- Node0&#45;&gt;Node5 -->
<g id="edge8" class="edge"><title>Node0&#45;&gt;Node5</title>
<path fill="none" stroke="midnightblue" d="M101.551,-103.719C113.482,-103.039 126.192,-102.407 138,-102 180.862,-100.522 229.37,-100.044 265.815,-99.9238"/>
<polygon fill="midnightblue" stroke="midnightblue" points="266.247,-103.423 276.239,-99.8981 266.23,-96.4229 266.247,-103.423"/>
</g>
<!-- Node6 -->
<g id="node7" class="node"><title>Node6</title>
<g id="a_node7"><a xlink:href="namespaceuser__shelf__init.html#a489d62c2d76eef329b9e5b17c63ccc66" target="_top" xlink:title=" ">
<polygon fill="white" stroke="black" points="145,-24 145,-54 233,-54 233,-24 145,-24"/>
<text text-anchor="start" x="153" y="-42" font-family="Helvetica,sans-Serif" font-size="10.00">user_shelf_init::user</text>
<text text-anchor="middle" x="189" y="-31" font-family="Helvetica,sans-Serif" font-size="10.00">_init_ice_thickness</text>
</a>
</g>
</g>
<!-- Node0&#45;&gt;Node6 -->
<g id="edge9" class="edge"><title>Node0&#45;&gt;Node6</title>
<path fill="none" stroke="midnightblue" d="M82.1828,-91.9086C101.815,-82.0924 127.614,-69.1931 148.822,-58.5888"/>
<polygon fill="midnightblue" stroke="midnightblue" points="150.523,-61.6519 157.902,-54.0492 147.392,-55.3909 150.523,-61.6519"/>
</g>
<!-- Node2 -->
<g id="node3" class="node"><title>Node2</title>
<g id="a_node3"><a xlink:href="namespacemom__error__handler.html#a1c462df7b61f1296407b4af51dfeceab" target="_top" xlink:title=" ">
<polygon fill="white" stroke="black" points="276.5,-134 276.5,-164 369.5,-164 369.5,-134 276.5,-134"/>
<text text-anchor="start" x="284.5" y="-152" font-family="Helvetica,sans-Serif" font-size="10.00">mom_error_handler::</text>
<text text-anchor="middle" x="323" y="-141" font-family="Helvetica,sans-Serif" font-size="10.00">mom_mesg</text>
</a>
</g>
</g>
<!-- Node1&#45;&gt;Node2 -->
<g id="edge2" class="edge"><title>Node1&#45;&gt;Node2</title>
<path fill="none" stroke="midnightblue" d="M239.527,-175.866C248.338,-172.996 257.567,-169.989 266.53,-167.07"/>
<polygon fill="midnightblue" stroke="midnightblue" points="267.695,-170.371 276.119,-163.946 265.527,-163.716 267.695,-170.371"/>
</g>
<!-- Node3 -->
<g id="node4" class="node"><title>Node3</title>
<g id="a_node4"><a xlink:href="namespacemom__error__handler.html#ad5f00a53059c72fe2332d1436c80ca71" target="_top" xlink:title=" ">
<polygon fill="white" stroke="black" points="406.5,-116 406.5,-146 499.5,-146 499.5,-116 406.5,-116"/>
<text text-anchor="start" x="414.5" y="-134" font-family="Helvetica,sans-Serif" font-size="10.00">mom_error_handler::</text>
<text text-anchor="middle" x="453" y="-123" font-family="Helvetica,sans-Serif" font-size="10.00">is_root_pe</text>
</a>
</g>
</g>
<!-- Node2&#45;&gt;Node3 -->
<g id="edge3" class="edge"><title>Node2&#45;&gt;Node3</title>
<path fill="none" stroke="midnightblue" d="M369.849,-142.552C378.501,-141.336 387.636,-140.051 396.545,-138.798"/>
<polygon fill="midnightblue" stroke="midnightblue" points="397.056,-142.261 406.471,-137.403 396.081,-135.329 397.056,-142.261"/>
</g>
<!-- Node4&#45;&gt;Node2 -->
<g id="edge5" class="edge"><title>Node4&#45;&gt;Node2</title>
<path fill="none" stroke="midnightblue" d="M239.527,-138.379C248.151,-139.489 257.175,-140.651 265.958,-141.782"/>
<polygon fill="midnightblue" stroke="midnightblue" points="265.754,-145.285 276.119,-143.091 266.648,-138.342 265.754,-145.285"/>
</g>
<!-- Node4&#45;&gt;Node5 -->
<g id="edge6" class="edge"><title>Node4&#45;&gt;Node5</title>
<path fill="none" stroke="midnightblue" d="M239.527,-119.993C248.244,-117.88 257.371,-115.668 266.244,-113.517"/>
<polygon fill="midnightblue" stroke="midnightblue" points="267.226,-116.88 276.119,-111.123 265.576,-110.077 267.226,-116.88"/>
</g>
<!-- Node5&#45;&gt;Node3 -->
<g id="edge7" class="edge"><title>Node5&#45;&gt;Node3</title>
<path fill="none" stroke="midnightblue" d="M369.849,-111.104C378.501,-113.2 387.636,-115.412 396.545,-117.569"/>
<polygon fill="midnightblue" stroke="midnightblue" points="395.928,-121.021 406.471,-119.973 397.576,-114.218 395.928,-121.021"/>
</g>
<!-- Node7 -->
<g id="node8" class="node"><title>Node7</title>
<g id="a_node8"><a xlink:href="namespaceuser__shelf__init.html#a160ee7639522c12c10408f853ff4d897" target="_top" xlink:title=" ">
<polygon fill="white" stroke="black" points="277,-24 277,-54 369,-54 369,-24 277,-24"/>
<text text-anchor="start" x="285" y="-42" font-family="Helvetica,sans-Serif" font-size="10.00">user_shelf_init::user</text>
<text text-anchor="middle" x="323" y="-31" font-family="Helvetica,sans-Serif" font-size="10.00">_initialize_shelf_mass</text>
</a>
</g>
</g>
<!-- Node6&#45;&gt;Node7 -->
<g id="edge10" class="edge"><title>Node6&#45;&gt;Node7</title>
<path fill="none" stroke="midnightblue" d="M233.222,-39C243.929,-39 255.548,-39 266.743,-39"/>
<polygon fill="midnightblue" stroke="midnightblue" points="266.867,-42.5001 276.867,-39 266.867,-35.5001 266.867,-42.5001"/>
</g>
<!-- Node8 -->
<g id="node9" class="node"><title>Node8</title>
<g id="a_node9"><a xlink:href="namespaceuser__shelf__init.html#a04dc4958214e8b07da385f8be785d706" target="_top" xlink:title=" ">
<polygon fill="white" stroke="black" points="408.5,-49 408.5,-79 497.5,-79 497.5,-49 408.5,-49"/>
<text text-anchor="start" x="416.5" y="-67" font-family="Helvetica,sans-Serif" font-size="10.00">user_shelf_init::write</text>
<text text-anchor="middle" x="453" y="-56" font-family="Helvetica,sans-Serif" font-size="10.00">_user_log</text>
</a>
</g>
</g>
<!-- Node7&#45;&gt;Node8 -->
<g id="edge11" class="edge"><title>Node7&#45;&gt;Node8</title>
<path fill="none" stroke="midnightblue" d="M369.128,-47.8141C378.53,-49.6504 388.529,-51.6032 398.208,-53.4937"/>
<polygon fill="midnightblue" stroke="midnightblue" points="397.654,-56.9517 408.14,-55.4336 398.996,-50.0815 397.654,-56.9517"/>
</g>
<!-- Node9 -->
<g id="node10" class="node"><title>Node9</title>
<g id="a_node10"><a xlink:href="namespaceuser__shelf__init.html#abd99438d24c4a57aa3fbab3b067a7c81" target="_top" xlink:title=" ">
<polygon fill="white" stroke="black" points="408,-0 408,-30 498,-30 498,-0 408,-0"/>
<text text-anchor="start" x="416" y="-18" font-family="Helvetica,sans-Serif" font-size="10.00">user_shelf_init::user</text>
<text text-anchor="middle" x="453" y="-7" font-family="Helvetica,sans-Serif" font-size="10.00">_update_shelf_mass</text>
</a>
</g>
</g>
<!-- Node7&#45;&gt;Node9 -->
<g id="edge12" class="edge"><title>Node7&#45;&gt;Node9</title>
<path fill="none" stroke="midnightblue" d="M369.128,-30.5385C378.423,-28.7957 388.301,-26.9435 397.877,-25.148"/>
<polygon fill="midnightblue" stroke="midnightblue" points="398.526,-28.5874 407.71,-23.3043 397.236,-21.7073 398.526,-28.5874"/>
</g>
</g>
</svg>
