<?xml version="1.0" encoding="UTF-8" standalone="no"?>
<!DOCTYPE svg PUBLIC "-//W3C//DTD SVG 1.1//EN"
 "http://www.w3.org/Graphics/SVG/1.1/DTD/svg11.dtd">
<!-- Generated by graphviz version 2.30.1 (20170916.1124)
 -->
<!-- Title: mom_sum_output::write_energy Pages: 1 -->
<!--zoomable 530 -->
<svg id="main" version="1.1" xmlns="http://www.w3.org/2000/svg" xmlns:xlink="http://www.w3.org/1999/xlink" xml:space="preserve" onload="init(evt)">
<style type="text/css"><![CDATA[
.edge:hover path { stroke: red; }
.edge:hover polygon { stroke: red; fill: red; }
]]></style>
<script type="text/javascript"><![CDATA[
var edges = document.getElementsByTagName('g');
if (edges && edges.length) {
  for (var i=0;i<edges.length;i++) {
    if (edges[i].id.substr(0,4)=='edge') {
      edges[i].setAttribute('class','edge');
    }
  }
}
]]></script>
        <defs>
                <circle id="rim" cx="0" cy="0" r="7"/>
                <circle id="rim2" cx="0" cy="0" r="3.5"/>
                <g id="zoomPlus">
                        <use xlink:href="#rim" fill="#404040">
                                <set attributeName="fill" to="#808080" begin="zoomplus.mouseover" end="zoomplus.mouseout"/>
                        </use>
                        <path d="M-4,0h8M0,-4v8" fill="none" stroke="white" stroke-width="1.5" pointer-events="none"/>
                </g>
                <g id="zoomMin">
                        <use xlink:href="#rim" fill="#404040">
                                <set attributeName="fill" to="#808080" begin="zoomminus.mouseover" end="zoomminus.mouseout"/>
                        </use>
                        <path d="M-4,0h8" fill="none" stroke="white" stroke-width="1.5" pointer-events="none"/>
                </g>
                <g id="dirArrow">
                        <path fill="none" stroke="white" stroke-width="1.5" d="M0,-3.0v7 M-2.5,-0.5L0,-3.0L2.5,-0.5"/>
                </g>
               <g id="resetDef">
                       <use xlink:href="#rim2" fill="#404040">
                               <set attributeName="fill" to="#808080" begin="reset.mouseover" end="reset.mouseout"/>
                       </use>
               </g>
        </defs>

<script type="text/javascript">
var viewWidth = 956;
var viewHeight = 530;
var sectionId = 'dynsection-11';
</script>
<script xlink:href="svgpan.js"/>
<svg id="graph" class="graph">
<g id="viewport">
<title>mom_sum_output::write_energy</title>
<polygon fill="white" stroke="white" points="-4,5 -4,-526 953,-526 953,5 -4,5"/>
<!-- Node49 -->
<g id="node1" class="node"><title>Node49</title>
<g id="a_node1"><a xlink:title=" ">
<polygon fill="#bfbfbf" stroke="black" points="0.5,-80 0.5,-110 103.5,-110 103.5,-80 0.5,-80"/>
<text text-anchor="start" x="8.5" y="-98" font-family="Helvetica,sans-Serif" font-size="10.00">mom_sum_output::write</text>
<text text-anchor="middle" x="52" y="-87" font-family="Helvetica,sans-Serif" font-size="10.00">_energy</text>
</a>
</g>
</g>
<!-- Node50 -->
<g id="node2" class="node"><title>Node50</title>
<g id="a_node2"><a xlink:href="namespacemom__tracer__flow__control.html#afd8526344e928c8c9505c921bf37447f" target="_top" xlink:title=" ">
<polygon fill="white" stroke="black" points="140.5,-306 140.5,-336 247.5,-336 247.5,-306 140.5,-306"/>
<text text-anchor="start" x="148.5" y="-324" font-family="Helvetica,sans-Serif" font-size="10.00">mom_tracer_flow_control</text>
<text text-anchor="middle" x="194" y="-313" font-family="Helvetica,sans-Serif" font-size="10.00">::call_tracer_stocks</text>
</a>
</g>
</g>
<!-- Node49&#45;&gt;Node50 -->
<g id="edge1" class="edge"><title>Node49&#45;&gt;Node50</title>
<path fill="none" stroke="midnightblue" d="M62.4032,-110.179C86.3133,-148.777 149.572,-250.895 178.361,-297.369"/>
<polygon fill="midnightblue" stroke="midnightblue" points="175.396,-299.229 183.638,-305.887 181.347,-295.542 175.396,-299.229"/>
</g>
<!-- Node62 -->
<g id="node14" class="node"><title>Node62</title>
<g id="a_node14"><a xlink:href="namespacemom__coms.html#a4aaf51b372bcaf7b46939145577eff92" target="_top" xlink:title=" ">
<polygon fill="white" stroke="black" points="142.5,-85.5 142.5,-104.5 245.5,-104.5 245.5,-85.5 142.5,-85.5"/>
<text text-anchor="middle" x="194" y="-92.5" font-family="Helvetica,sans-Serif" font-size="10.00">mom_coms::efp_to_real</text>
</a>
</g>
</g>
<!-- Node49&#45;&gt;Node62 -->
<g id="edge20" class="edge"><title>Node49&#45;&gt;Node62</title>
<path fill="none" stroke="midnightblue" d="M103.543,-95C112.746,-95 122.436,-95 131.906,-95"/>
<polygon fill="midnightblue" stroke="midnightblue" points="132.061,-98.5001 142.061,-95 132.061,-91.5001 132.061,-98.5001"/>
</g>
<!-- Node52 -->
<g id="node4" class="node"><title>Node52</title>
<g id="a_node4"><a xlink:href="namespacemom__error__handler.html#ad5f00a53059c72fe2332d1436c80ca71" target="_top" xlink:title=" ">
<polygon fill="white" stroke="black" points="854.5,-58 854.5,-88 947.5,-88 947.5,-58 854.5,-58"/>
<text text-anchor="start" x="862.5" y="-76" font-family="Helvetica,sans-Serif" font-size="10.00">mom_error_handler::</text>
<text text-anchor="middle" x="901" y="-65" font-family="Helvetica,sans-Serif" font-size="10.00">is_root_pe</text>
</a>
</g>
</g>
<!-- Node49&#45;&gt;Node52 -->
<g id="edge23" class="edge"><title>Node49&#45;&gt;Node52</title>
<path fill="none" stroke="midnightblue" d="M73.7963,-79.9026C90.8193,-68.2189 115.933,-52.4804 140,-43 224.593,-9.67715 249.08,-0 340,-0 340,-0 340,-0 634,-0 715.429,-0 806.041,-32.207 857.711,-53.8358"/>
<polygon fill="midnightblue" stroke="midnightblue" points="856.631,-57.1799 867.203,-57.8744 859.372,-50.7386 856.631,-57.1799"/>
</g>
<!-- Node51 -->
<g id="node3" class="node"><title>Node51</title>
<g id="a_node3"><a xlink:href="namespacemom__error__handler.html#a460cfb79a06c29fc249952c2a3710d67" target="_top" xlink:title=" ">
<polygon fill="white" stroke="black" points="724.5,-131 724.5,-161 817.5,-161 817.5,-131 724.5,-131"/>
<text text-anchor="start" x="732.5" y="-149" font-family="Helvetica,sans-Serif" font-size="10.00">mom_error_handler::</text>
<text text-anchor="middle" x="771" y="-138" font-family="Helvetica,sans-Serif" font-size="10.00">mom_error</text>
</a>
</g>
</g>
<!-- Node49&#45;&gt;Node51 -->
<g id="edge24" class="edge"><title>Node49&#45;&gt;Node51</title>
<path fill="none" stroke="midnightblue" d="M99.6653,-79.8747C155.994,-62.9882 253.895,-38 340,-38 340,-38 340,-38 489,-38 580.303,-38 604.977,-51.008 688,-89 708.219,-98.2524 728.76,-112.54 744.225,-124.496"/>
<polygon fill="midnightblue" stroke="midnightblue" points="742.246,-127.393 752.261,-130.851 746.589,-121.902 742.246,-127.393"/>
</g>
<!-- Node65 -->
<g id="node17" class="node"><title>Node65</title>
<g id="a_node17"><a xlink:href="namespacemom__coms.html#ac8f1b5be23b128cd8bb956ebda917edb" target="_top" xlink:title=" ">
<polygon fill="white" stroke="black" points="436.5,-130.5 436.5,-149.5 539.5,-149.5 539.5,-130.5 436.5,-130.5"/>
<text text-anchor="middle" x="488" y="-137.5" font-family="Helvetica,sans-Serif" font-size="10.00">mom_coms::real_to_efp</text>
</a>
</g>
</g>
<!-- Node49&#45;&gt;Node65 -->
<g id="edge25" class="edge"><title>Node49&#45;&gt;Node65</title>
<path fill="none" stroke="midnightblue" d="M103.923,-106.87C115.73,-109.414 128.274,-111.95 140,-114 203.59,-125.119 219.667,-127.659 284,-133 331.685,-136.959 385.851,-138.687 426.231,-139.438"/>
<polygon fill="midnightblue" stroke="midnightblue" points="426.391,-142.941 436.449,-139.613 426.51,-135.942 426.391,-142.941"/>
</g>
<!-- Node50&#45;&gt;Node51 -->
<g id="edge2" class="edge"><title>Node50&#45;&gt;Node51</title>
<path fill="none" stroke="midnightblue" d="M208.454,-305.91C224.599,-288.858 253.35,-261.702 284,-248 389.934,-200.644 427.669,-227.82 542,-208 607.1,-196.715 624.711,-198.974 688,-180 701.411,-175.98 715.629,-170.531 728.394,-165.174"/>
<polygon fill="midnightblue" stroke="midnightblue" points="730.026,-168.283 737.834,-161.121 727.264,-161.85 730.026,-168.283"/>
</g>
<!-- Node53 -->
<g id="node5" class="node"><title>Node53</title>
<g id="a_node5"><a xlink:href="namespacemom__tracer__flow__control.html#ad43ea30fa52fcb930db39037f5d7e6b9" target="_top" xlink:title=" ">
<polygon fill="white" stroke="black" points="434.5,-169 434.5,-199 541.5,-199 541.5,-169 434.5,-169"/>
<text text-anchor="start" x="442.5" y="-187" font-family="Helvetica,sans-Serif" font-size="10.00">mom_tracer_flow_control</text>
<text text-anchor="middle" x="488" y="-176" font-family="Helvetica,sans-Serif" font-size="10.00">::store_stocks</text>
</a>
</g>
</g>
<!-- Node50&#45;&gt;Node53 -->
<g id="edge4" class="edge"><title>Node50&#45;&gt;Node53</title>
<path fill="none" stroke="midnightblue" d="M202.747,-305.926C215.904,-282.023 245.028,-235.894 284,-214 326.611,-190.062 381.85,-183.165 423.945,-181.919"/>
<polygon fill="midnightblue" stroke="midnightblue" points="424.146,-185.416 434.075,-181.72 424.008,-178.417 424.146,-185.416"/>
</g>
<!-- Node54 -->
<g id="node6" class="node"><title>Node54</title>
<g id="a_node6"><a xlink:href="namespaceideal__age__example.html#a2300d82e30802a3127f4a63277d37776" target="_top" xlink:title=" ">
<polygon fill="white" stroke="black" points="296,-492 296,-522 386,-522 386,-492 296,-492"/>
<text text-anchor="start" x="304" y="-510" font-family="Helvetica,sans-Serif" font-size="10.00">ideal_age_example::</text>
<text text-anchor="middle" x="341" y="-499" font-family="Helvetica,sans-Serif" font-size="10.00">ideal_age_stock</text>
</a>
</g>
</g>
<!-- Node50&#45;&gt;Node54 -->
<g id="edge6" class="edge"><title>Node50&#45;&gt;Node54</title>
<path fill="none" stroke="midnightblue" d="M199.777,-336.409C210.217,-367.778 237.893,-439.659 284,-482 285.688,-483.551 287.489,-485.017 289.371,-486.403"/>
<polygon fill="midnightblue" stroke="midnightblue" points="287.741,-489.516 298.047,-491.971 291.522,-483.624 287.741,-489.516"/>
</g>
<!-- Node57 -->
<g id="node9" class="node"><title>Node57</title>
<g id="a_node9"><a xlink:href="namespaceregional__dyes.html#a0641ff9c663bcfacdd597a79f63d15e0" target="_top" xlink:title=" ">
<polygon fill="white" stroke="black" points="299.5,-443 299.5,-473 382.5,-473 382.5,-443 299.5,-443"/>
<text text-anchor="start" x="307.5" y="-461" font-family="Helvetica,sans-Serif" font-size="10.00">regional_dyes::dye</text>
<text text-anchor="middle" x="341" y="-450" font-family="Helvetica,sans-Serif" font-size="10.00">_stock</text>
</a>
</g>
</g>
<!-- Node50&#45;&gt;Node57 -->
<g id="edge10" class="edge"><title>Node50&#45;&gt;Node57</title>
<path fill="none" stroke="midnightblue" d="M203.822,-336.333C218.037,-359.883 248.084,-405.148 284,-433 286.098,-434.627 288.319,-436.174 290.619,-437.642"/>
<polygon fill="midnightblue" stroke="midnightblue" points="289.372,-440.962 299.786,-442.908 292.858,-434.892 289.372,-440.962"/>
</g>
<!-- Node58 -->
<g id="node10" class="node"><title>Node58</title>
<g id="a_node10"><a xlink:href="namespaceoil__tracer.html#ac8964b16549dba8fc850e4af15af8029" target="_top" xlink:title=" ">
<polygon fill="white" stroke="black" points="299,-404.5 299,-423.5 383,-423.5 383,-404.5 299,-404.5"/>
<text text-anchor="middle" x="341" y="-411.5" font-family="Helvetica,sans-Serif" font-size="10.00">oil_tracer::oil_stock</text>
</a>
</g>
</g>
<!-- Node50&#45;&gt;Node58 -->
<g id="edge12" class="edge"><title>Node50&#45;&gt;Node58</title>
<path fill="none" stroke="midnightblue" d="M210.17,-336.253C226.973,-352.439 255.477,-377.858 284,-394 288.268,-396.415 292.88,-398.623 297.561,-400.616"/>
<polygon fill="midnightblue" stroke="midnightblue" points="296.593,-403.997 307.18,-404.407 299.16,-397.484 296.593,-403.997"/>
</g>
<!-- Node59 -->
<g id="node11" class="node"><title>Node59</title>
<g id="a_node11"><a xlink:href="namespacemom__ocmip2__cfc.html#ac3c9967ff09b37934eb5ef51535e7ee3" target="_top" xlink:title=" ">
<polygon fill="white" stroke="black" points="286.5,-355 286.5,-385 395.5,-385 395.5,-355 286.5,-355"/>
<text text-anchor="start" x="294.5" y="-373" font-family="Helvetica,sans-Serif" font-size="10.00">mom_ocmip2_cfc::ocmip2</text>
<text text-anchor="middle" x="341" y="-362" font-family="Helvetica,sans-Serif" font-size="10.00">_cfc_stock</text>
</a>
</g>
</g>
<!-- Node50&#45;&gt;Node59 -->
<g id="edge14" class="edge"><title>Node50&#45;&gt;Node59</title>
<path fill="none" stroke="midnightblue" d="M239.688,-336.101C254.159,-340.992 270.372,-346.471 285.475,-351.574"/>
<polygon fill="midnightblue" stroke="midnightblue" points="284.616,-354.978 295.21,-354.864 286.857,-348.347 284.616,-354.978"/>
</g>
<!-- Node60 -->
<g id="node12" class="node"><title>Node60</title>
<g id="a_node12"><a xlink:href="namespaceadvection__test__tracer.html#a1e3884b030df6c5107380b4ddd2fbce2" target="_top" xlink:title=" ">
<polygon fill="white" stroke="black" points="293.5,-306 293.5,-336 388.5,-336 388.5,-306 293.5,-306"/>
<text text-anchor="start" x="301.5" y="-324" font-family="Helvetica,sans-Serif" font-size="10.00">advection_test_tracer</text>
<text text-anchor="middle" x="341" y="-313" font-family="Helvetica,sans-Serif" font-size="10.00">::advection_test_stock</text>
</a>
</g>
</g>
<!-- Node50&#45;&gt;Node60 -->
<g id="edge16" class="edge"><title>Node50&#45;&gt;Node60</title>
<path fill="none" stroke="midnightblue" d="M247.759,-321C259.282,-321 271.526,-321 283.2,-321"/>
<polygon fill="midnightblue" stroke="midnightblue" points="283.279,-324.5 293.279,-321 283.279,-317.5 283.279,-324.5"/>
</g>
<!-- Node61 -->
<g id="node13" class="node"><title>Node61</title>
<g id="a_node13"><a xlink:href="namespacepseudo__salt__tracer.html#a282f3c84b7e7ccdaa6d9344342705a6e" target="_top" xlink:title=" ">
<polygon fill="white" stroke="black" points="298,-257 298,-287 384,-287 384,-257 298,-257"/>
<text text-anchor="start" x="306" y="-275" font-family="Helvetica,sans-Serif" font-size="10.00">pseudo_salt_tracer</text>
<text text-anchor="middle" x="341" y="-264" font-family="Helvetica,sans-Serif" font-size="10.00">::pseudo_salt_stock</text>
</a>
</g>
</g>
<!-- Node50&#45;&gt;Node61 -->
<g id="edge18" class="edge"><title>Node50&#45;&gt;Node61</title>
<path fill="none" stroke="midnightblue" d="M239.688,-305.899C254.986,-300.729 272.231,-294.901 288.053,-289.555"/>
<polygon fill="midnightblue" stroke="midnightblue" points="289.337,-292.815 297.69,-286.298 287.096,-286.184 289.337,-292.815"/>
</g>
<!-- Node51&#45;&gt;Node52 -->
<g id="edge3" class="edge"><title>Node51&#45;&gt;Node52</title>
<path fill="none" stroke="midnightblue" d="M798.522,-130.874C817.658,-119.961 843.696,-105.111 864.606,-93.1859"/>
<polygon fill="midnightblue" stroke="midnightblue" points="866.56,-96.1007 873.512,-88.1063 863.092,-90.0201 866.56,-96.1007"/>
</g>
<!-- Node53&#45;&gt;Node51 -->
<g id="edge5" class="edge"><title>Node53&#45;&gt;Node51</title>
<path fill="none" stroke="midnightblue" d="M541.822,-177.323C581.943,-172.198 638.474,-164.859 688,-158 696.594,-156.81 705.69,-155.514 714.574,-154.229"/>
<polygon fill="midnightblue" stroke="midnightblue" points="715.084,-157.692 724.476,-152.789 714.076,-150.765 715.084,-157.692"/>
</g>
<!-- Node55 -->
<g id="node7" class="node"><title>Node55</title>
<g id="a_node7"><a xlink:href="namespacemom__io.html#a23e82d1d89d9bb1c9bdf802ce80d4508" target="_top" xlink:title="This routine queries vardesc.">
<polygon fill="white" stroke="black" points="437,-360.5 437,-379.5 539,-379.5 539,-360.5 437,-360.5"/>
<text text-anchor="middle" x="488" y="-367.5" font-family="Helvetica,sans-Serif" font-size="10.00">mom_io::query_vardesc</text>
</a>
</g>
</g>
<!-- Node54&#45;&gt;Node55 -->
<g id="edge7" class="edge"><title>Node54&#45;&gt;Node55</title>
<path fill="none" stroke="midnightblue" d="M382.214,-491.908C387.768,-489.021 393.204,-485.719 398,-482 432.479,-455.262 461.549,-412.477 476.397,-388.261"/>
<polygon fill="midnightblue" stroke="midnightblue" points="479.4,-390.058 481.537,-379.68 473.395,-386.46 479.4,-390.058"/>
</g>
<!-- Node56 -->
<g id="node8" class="node"><title>Node56</title>
<g id="a_node8"><a xlink:href="namespacemom__io.html#ac4bc408e8b38dbd669842753f26ebf88" target="_top" xlink:title="Copies a string.">
<polygon fill="white" stroke="black" points="578,-308.5 578,-327.5 688,-327.5 688,-308.5 578,-308.5"/>
<text text-anchor="middle" x="633" y="-315.5" font-family="Helvetica,sans-Serif" font-size="10.00">mom_io::safe_string_copy</text>
</a>
</g>
</g>
<!-- Node55&#45;&gt;Node56 -->
<g id="edge8" class="edge"><title>Node55&#45;&gt;Node56</title>
<path fill="none" stroke="midnightblue" d="M515.228,-360.462C537.864,-352.231 570.784,-340.26 595.904,-331.126"/>
<polygon fill="midnightblue" stroke="midnightblue" points="597.252,-334.36 605.454,-327.653 594.86,-327.781 597.252,-334.36"/>
</g>
<!-- Node56&#45;&gt;Node51 -->
<g id="edge9" class="edge"><title>Node56&#45;&gt;Node51</title>
<path fill="none" stroke="midnightblue" d="M641.702,-308.26C662.754,-281.634 721.697,-207.089 751.803,-169.013"/>
<polygon fill="midnightblue" stroke="midnightblue" points="754.654,-171.052 758.11,-161.037 749.163,-166.71 754.654,-171.052"/>
</g>
<!-- Node57&#45;&gt;Node55 -->
<g id="edge11" class="edge"><title>Node57&#45;&gt;Node55</title>
<path fill="none" stroke="midnightblue" d="M378.663,-442.877C385.215,-439.826 391.895,-436.479 398,-433 422.791,-418.873 449.242,-399.542 466.804,-386.032"/>
<polygon fill="midnightblue" stroke="midnightblue" points="469.381,-388.461 475.122,-379.556 465.081,-382.938 469.381,-388.461"/>
</g>
<!-- Node58&#45;&gt;Node55 -->
<g id="edge13" class="edge"><title>Node58&#45;&gt;Node55</title>
<path fill="none" stroke="midnightblue" d="M373.463,-404.453C394.649,-398.024 422.806,-389.479 445.78,-382.508"/>
<polygon fill="midnightblue" stroke="midnightblue" points="447.046,-385.782 455.599,-379.529 445.013,-379.083 447.046,-385.782"/>
</g>
<!-- Node59&#45;&gt;Node55 -->
<g id="edge15" class="edge"><title>Node59&#45;&gt;Node55</title>
<path fill="none" stroke="midnightblue" d="M395.581,-370C405.625,-370 416.189,-370 426.428,-370"/>
<polygon fill="midnightblue" stroke="midnightblue" points="426.526,-373.5 436.526,-370 426.526,-366.5 426.526,-373.5"/>
</g>
<!-- Node60&#45;&gt;Node55 -->
<g id="edge17" class="edge"><title>Node60&#45;&gt;Node55</title>
<path fill="none" stroke="midnightblue" d="M386.688,-336.101C406.67,-342.854 429.975,-350.73 449.09,-357.189"/>
<polygon fill="midnightblue" stroke="midnightblue" points="448.07,-360.539 458.665,-360.425 450.311,-353.907 448.07,-360.539"/>
</g>
<!-- Node61&#45;&gt;Node55 -->
<g id="edge19" class="edge"><title>Node61&#45;&gt;Node55</title>
<path fill="none" stroke="midnightblue" d="M379.468,-287.05C385.805,-290.065 392.203,-293.419 398,-297 424.737,-313.519 452.211,-337.291 469.427,-353.171"/>
<polygon fill="midnightblue" stroke="midnightblue" points="467.314,-355.987 477.006,-360.267 472.098,-350.877 467.314,-355.987"/>
</g>
<!-- Node63 -->
<g id="node15" class="node"><title>Node63</title>
<g id="a_node15"><a xlink:href="namespacemom__coms.html#a24ac5b7cc37b1498f23b61eea03fb8c3" target="_top" xlink:title=" ">
<polygon fill="white" stroke="black" points="289,-66.5 289,-85.5 393,-85.5 393,-66.5 289,-66.5"/>
<text text-anchor="middle" x="341" y="-73.5" font-family="Helvetica,sans-Serif" font-size="10.00">mom_coms::ints_to_real</text>
</a>
</g>
</g>
<!-- Node62&#45;&gt;Node63 -->
<g id="edge21" class="edge"><title>Node62&#45;&gt;Node63</title>
<path fill="none" stroke="midnightblue" d="M245.714,-88.3547C256.344,-86.9619 267.662,-85.4788 278.632,-84.0413"/>
<polygon fill="midnightblue" stroke="midnightblue" points="279.118,-87.5076 288.579,-82.738 278.209,-80.567 279.118,-87.5076"/>
</g>
<!-- Node64 -->
<g id="node16" class="node"><title>Node64</title>
<g id="a_node16"><a xlink:href="namespacemom__coms.html#ab8feff19e782af36bb7ccccd5ba9eddc" target="_top" xlink:title=" ">
<polygon fill="white" stroke="black" points="284,-104.5 284,-123.5 398,-123.5 398,-104.5 284,-104.5"/>
<text text-anchor="middle" x="341" y="-111.5" font-family="Helvetica,sans-Serif" font-size="10.00">mom_coms::regularize_ints</text>
</a>
</g>
</g>
<!-- Node62&#45;&gt;Node64 -->
<g id="edge22" class="edge"><title>Node62&#45;&gt;Node64</title>
<path fill="none" stroke="midnightblue" d="M245.714,-101.645C254.77,-102.832 264.326,-104.084 273.741,-105.318"/>
<polygon fill="midnightblue" stroke="midnightblue" points="273.501,-108.816 283.871,-106.645 274.411,-101.876 273.501,-108.816"/>
</g>
<!-- Node65&#45;&gt;Node51 -->
<g id="edge26" class="edge"><title>Node65&#45;&gt;Node51</title>
<path fill="none" stroke="midnightblue" d="M539.562,-141.08C588.788,-142.131 663.426,-143.724 714.325,-144.811"/>
<polygon fill="midnightblue" stroke="midnightblue" points="714.418,-148.314 724.491,-145.028 714.568,-141.315 714.418,-148.314"/>
</g>
<!-- Node66 -->
<g id="node18" class="node"><title>Node66</title>
<g id="a_node18"><a xlink:href="namespacemom__coms.html#a0cc261620495abf3313937726883b95e" target="_top" xlink:title=" ">
<polygon fill="white" stroke="black" points="581,-98.5 581,-117.5 685,-117.5 685,-98.5 581,-98.5"/>
<text text-anchor="middle" x="633" y="-105.5" font-family="Helvetica,sans-Serif" font-size="10.00">mom_coms::real_to_ints</text>
</a>
</g>
</g>
<!-- Node65&#45;&gt;Node66 -->
<g id="edge27" class="edge"><title>Node65&#45;&gt;Node66</title>
<path fill="none" stroke="midnightblue" d="M531.518,-130.486C546.51,-127.131 563.55,-123.317 579.283,-119.797"/>
<polygon fill="midnightblue" stroke="midnightblue" points="580.405,-123.132 589.399,-117.533 578.876,-116.301 580.405,-123.132"/>
</g>
<!-- Node66&#45;&gt;Node51 -->
<g id="edge28" class="edge"><title>Node66&#45;&gt;Node51</title>
<path fill="none" stroke="midnightblue" d="M668.319,-117.589C682.261,-121.485 698.731,-126.087 714.31,-130.44"/>
<polygon fill="midnightblue" stroke="midnightblue" points="713.81,-133.934 724.383,-133.254 715.694,-127.192 713.81,-133.934"/>
</g>
</g>
</svg>
        <g id="navigator" transform="translate(0 0)" fill="#404254">
                <rect fill="#f2f5e9" fill-opacity="0.5" stroke="#606060" stroke-width=".5" x="0" y="0" width="60" height="60"/>
                <use id="zoomplus" xlink:href="#zoomPlus" x="17" y="9" onmousedown="handleZoom(evt,'in')"/>
                <use id="zoomminus" xlink:href="#zoomMin" x="42" y="9" onmousedown="handleZoom(evt,'out')"/>
                <use id="reset" xlink:href="#resetDef" x="30" y="36" onmousedown="handleReset()"/>
                <g id="arrowUp" xlink:href="#dirArrow" transform="translate(30 24)" onmousedown="handlePan(0,-1)">
                  <use xlink:href="#rim" fill="#404040">
                        <set attributeName="fill" to="#808080" begin="arrowUp.mouseover" end="arrowUp.mouseout"/>
                  </use>
                  <path fill="none" stroke="white" stroke-width="1.5" d="M0,-3.0v7 M-2.5,-0.5L0,-3.0L2.5,-0.5"/>
                </g>
                <g id="arrowRight" xlink:href="#dirArrow" transform="rotate(90) translate(36 -43)" onmousedown="handlePan(1,0)">
                  <use xlink:href="#rim" fill="#404040">
                        <set attributeName="fill" to="#808080" begin="arrowRight.mouseover" end="arrowRight.mouseout"/>
                  </use>
                  <path fill="none" stroke="white" stroke-width="1.5" d="M0,-3.0v7 M-2.5,-0.5L0,-3.0L2.5,-0.5"/>
                </g>
                <g id="arrowDown" xlink:href="#dirArrow" transform="rotate(180) translate(-30 -48)" onmousedown="handlePan(0,1)">
                  <use xlink:href="#rim" fill="#404040">
                        <set attributeName="fill" to="#808080" begin="arrowDown.mouseover" end="arrowDown.mouseout"/>
                  </use>
                  <path fill="none" stroke="white" stroke-width="1.5" d="M0,-3.0v7 M-2.5,-0.5L0,-3.0L2.5,-0.5"/>
                </g>
                <g id="arrowLeft" xlink:href="#dirArrow" transform="rotate(270) translate(-36 17)" onmousedown="handlePan(-1,0)">
                  <use xlink:href="#rim" fill="#404040">
                        <set attributeName="fill" to="#808080" begin="arrowLeft.mouseover" end="arrowLeft.mouseout"/>
                  </use>
                  <path fill="none" stroke="white" stroke-width="1.5" d="M0,-3.0v7 M-2.5,-0.5L0,-3.0L2.5,-0.5"/>
                </g>
        </g>
        <svg viewBox="0 0 15 15" width="100%" height="30px" preserveAspectRatio="xMaxYMin meet">
         <g id="arrow_out" transform="scale(0.3 0.3)">
          <a xlink:href="namespacemom__sum__output_aef94e597f85f3ee439b2ddc2b46a043a_cgraph_org.svg" target="_base">
           <rect id="button" ry="5" rx="5" y="6" x="6" height="38" width="38"
                fill="#f2f5e9" fill-opacity="0.5" stroke="#606060" stroke-width="1.0"/>
           <path id="arrow"
             d="M 11.500037,31.436501 C 11.940474,20.09759 22.043105,11.32322 32.158766,21.979434 L 37.068811,17.246167 C 37.068811,17.246167 37.088388,32 37.088388,32 L 22.160133,31.978069 C 22.160133,31.978069 26.997745,27.140456 26.997745,27.140456 C 18.528582,18.264221 13.291696,25.230495 11.500037,31.436501 z"
             style="fill:#404040;"/>
          </a>
         </g>
        </svg>
</svg>
