<?xml version="1.0" encoding="UTF-8" standalone="no"?>
<!DOCTYPE svg PUBLIC "-//W3C//DTD SVG 1.1//EN"
 "http://www.w3.org/Graphics/SVG/1.1/DTD/svg11.dtd">
<!-- Generated by graphviz version 2.30.1 (20170916.1124)
 -->
<!-- Title: mom_eos::evaluate_shape_bilinear Pages: 1 -->
<svg width="420pt" height="87pt"
 viewBox="0.00 0.00 420.00 87.00" xmlns="http://www.w3.org/2000/svg" xmlns:xlink="http://www.w3.org/1999/xlink">
<g id="graph0" class="graph" transform="scale(1 1) rotate(0) translate(4 83)">
<title>mom_eos::evaluate_shape_bilinear</title>
<polygon fill="white" stroke="white" points="-4,5 -4,-83 417,-83 417,5 -4,5"/>
<!-- Node119 -->
<g id="node1" class="node"><title>Node119</title>
<g id="a_node1"><a xlink:title=" ">
<polygon fill="#bfbfbf" stroke="black" points="298.5,-24 298.5,-54 411.5,-54 411.5,-24 298.5,-24"/>
<text text-anchor="start" x="306.5" y="-42" font-family="Helvetica,sans-Serif" font-size="10.00">mom_eos::evaluate_shape</text>
<text text-anchor="middle" x="355" y="-31" font-family="Helvetica,sans-Serif" font-size="10.00">_bilinear</text>
</a>
</g>
</g>
<!-- Node120 -->
<g id="node2" class="node"><title>Node120</title>
<g id="a_node2"><a xlink:href="namespacemom__eos.html#ace0d2cee7ffdada464ea5b38cbb93b07" target="_top" xlink:title=" ">
<polygon fill="white" stroke="black" points="144,-49 144,-79 262,-79 262,-49 144,-49"/>
<text text-anchor="start" x="152" y="-67" font-family="Helvetica,sans-Serif" font-size="10.00">mom_eos::compute_integral</text>
<text text-anchor="middle" x="203" y="-56" font-family="Helvetica,sans-Serif" font-size="10.00">_bilinear</text>
</a>
</g>
</g>
<!-- Node119&#45;&gt;Node120 -->
<g id="edge1" class="edge"><title>Node119&#45;&gt;Node120</title>
<path fill="none" stroke="midnightblue" d="M288.105,-49.9825C279.464,-51.4227 270.659,-52.8902 262.158,-54.307"/>
<polygon fill="midnightblue" stroke="midnightblue" points="288.857,-53.4055 298.146,-48.3091 287.706,-46.5008 288.857,-53.4055"/>
</g>
<!-- Node122 -->
<g id="node4" class="node"><title>Node122</title>
<g id="a_node4"><a xlink:href="namespacemom__eos.html#ab9ad774110cfa4cb44666592ddcf689c" target="_top" xlink:title=" ">
<polygon fill="white" stroke="black" points="144,-0 144,-30 262,-30 262,-0 144,-0"/>
<text text-anchor="start" x="152" y="-18" font-family="Helvetica,sans-Serif" font-size="10.00">mom_eos::compute_integral</text>
<text text-anchor="middle" x="203" y="-7" font-family="Helvetica,sans-Serif" font-size="10.00">_quadratic</text>
</a>
</g>
</g>
<!-- Node119&#45;&gt;Node122 -->
<g id="edge3" class="edge"><title>Node119&#45;&gt;Node122</title>
<path fill="none" stroke="midnightblue" d="M288.105,-28.4568C279.464,-27.0742 270.659,-25.6654 262.158,-24.3053"/>
<polygon fill="midnightblue" stroke="midnightblue" points="287.718,-31.9393 298.146,-30.0633 288.824,-25.0273 287.718,-31.9393"/>
</g>
<!-- Node121 -->
<g id="node3" class="node"><title>Node121</title>
<g id="a_node3"><a xlink:href="namespacemom__eos.html#aa2cc9a8923cc32bc150579b09cc16753" target="_top" xlink:title=" ">
<polygon fill="white" stroke="black" points="0,-49 0,-79 108,-79 108,-49 0,-49"/>
<text text-anchor="start" x="8" y="-67" font-family="Helvetica,sans-Serif" font-size="10.00">mom_eos::int_density</text>
<text text-anchor="middle" x="54" y="-56" font-family="Helvetica,sans-Serif" font-size="10.00">_dz_generic_plm_analytic</text>
</a>
</g>
</g>
<!-- Node120&#45;&gt;Node121 -->
<g id="edge2" class="edge"><title>Node120&#45;&gt;Node121</title>
<path fill="none" stroke="midnightblue" d="M133.635,-64C125.155,-64 116.584,-64 108.376,-64"/>
<polygon fill="midnightblue" stroke="midnightblue" points="133.902,-67.5001 143.902,-64 133.902,-60.5001 133.902,-67.5001"/>
</g>
<!-- Node123 -->
<g id="node5" class="node"><title>Node123</title>
<g id="a_node5"><a xlink:href="namespacemom__eos.html#a594df0f0a5756c77a5c7e5a5c2e36a20" target="_top" xlink:title=" ">
<polygon fill="white" stroke="black" points="7,-0 7,-30 101,-30 101,-0 7,-0"/>
<text text-anchor="start" x="15" y="-18" font-family="Helvetica,sans-Serif" font-size="10.00">mom_eos::int_density</text>
<text text-anchor="middle" x="54" y="-7" font-family="Helvetica,sans-Serif" font-size="10.00">_dz_generic_ppm</text>
</a>
</g>
</g>
<!-- Node122&#45;&gt;Node123 -->
<g id="edge4" class="edge"><title>Node122&#45;&gt;Node123</title>
<path fill="none" stroke="midnightblue" d="M133.868,-15C122.862,-15 111.695,-15 101.36,-15"/>
<polygon fill="midnightblue" stroke="midnightblue" points="133.902,-18.5001 143.902,-15 133.902,-11.5001 133.902,-18.5001"/>
</g>
</g>
</svg>
