<?xml version="1.0" encoding="UTF-8" standalone="no"?>
<!DOCTYPE svg PUBLIC "-//W3C//DTD SVG 1.1//EN"
 "http://www.w3.org/Graphics/SVG/1.1/DTD/svg11.dtd">
<!-- Generated by graphviz version 2.30.1 (20170916.1124)
 -->
<!-- Title: ocean_model_mod::ocean_model_init Pages: 1 -->
<!--zoomable 427 -->
<svg id="main" version="1.1" xmlns="http://www.w3.org/2000/svg" xmlns:xlink="http://www.w3.org/1999/xlink" xml:space="preserve" onload="init(evt)">
<style type="text/css"><![CDATA[
.edge:hover path { stroke: red; }
.edge:hover polygon { stroke: red; fill: red; }
]]></style>
<script type="text/javascript"><![CDATA[
var edges = document.getElementsByTagName('g');
if (edges && edges.length) {
  for (var i=0;i<edges.length;i++) {
    if (edges[i].id.substr(0,4)=='edge') {
      edges[i].setAttribute('class','edge');
    }
  }
}
]]></script>
        <defs>
                <circle id="rim" cx="0" cy="0" r="7"/>
                <circle id="rim2" cx="0" cy="0" r="3.5"/>
                <g id="zoomPlus">
                        <use xlink:href="#rim" fill="#404040">
                                <set attributeName="fill" to="#808080" begin="zoomplus.mouseover" end="zoomplus.mouseout"/>
                        </use>
                        <path d="M-4,0h8M0,-4v8" fill="none" stroke="white" stroke-width="1.5" pointer-events="none"/>
                </g>
                <g id="zoomMin">
                        <use xlink:href="#rim" fill="#404040">
                                <set attributeName="fill" to="#808080" begin="zoomminus.mouseover" end="zoomminus.mouseout"/>
                        </use>
                        <path d="M-4,0h8" fill="none" stroke="white" stroke-width="1.5" pointer-events="none"/>
                </g>
                <g id="dirArrow">
                        <path fill="none" stroke="white" stroke-width="1.5" d="M0,-3.0v7 M-2.5,-0.5L0,-3.0L2.5,-0.5"/>
                </g>
               <g id="resetDef">
                       <use xlink:href="#rim2" fill="#404040">
                               <set attributeName="fill" to="#808080" begin="reset.mouseover" end="reset.mouseout"/>
                       </use>
               </g>
        </defs>

<script type="text/javascript">
var viewWidth = 824;
var viewHeight = 427;
var sectionId = 'dynsection-6';
</script>
<script xlink:href="svgpan.js"/>
<svg id="graph" class="graph">
<g id="viewport">
<title>ocean_model_mod::ocean_model_init</title>
<polygon fill="white" stroke="white" points="-4,5 -4,-423 821,-423 821,5 -4,5"/>
<!-- Node44 -->
<g id="node1" class="node"><title>Node44</title>
<g id="a_node1"><a xlink:title=" ">
<polygon fill="#bfbfbf" stroke="black" points="0.5,-235 0.5,-265 111.5,-265 111.5,-235 0.5,-235"/>
<text text-anchor="start" x="8.5" y="-253" font-family="Helvetica,sans-Serif" font-size="10.00">ocean_model_mod::ocean</text>
<text text-anchor="middle" x="56" y="-242" font-family="Helvetica,sans-Serif" font-size="10.00">_model_init</text>
</a>
</g>
</g>
<!-- Node45 -->
<g id="node2" class="node"><title>Node45</title>
<g id="a_node2"><a xlink:href="namespacemom__forcing__type.html#a4258a1dc8dc6733eb8269d771efe837d" target="_top" xlink:title="Conditionally allocate fields within the forcing type.">
<polygon fill="white" stroke="black" points="149,-389 149,-419 263,-419 263,-389 149,-389"/>
<text text-anchor="start" x="157" y="-407" font-family="Helvetica,sans-Serif" font-size="10.00">mom_forcing_type::allocate</text>
<text text-anchor="middle" x="206" y="-396" font-family="Helvetica,sans-Serif" font-size="10.00">_forcing_type</text>
</a>
</g>
</g>
<!-- Node44&#45;&gt;Node45 -->
<g id="edge1" class="edge"><title>Node44&#45;&gt;Node45</title>
<path fill="none" stroke="midnightblue" d="M65.0236,-265.066C79.0495,-290.267 110.167,-341.41 148,-374 152.13,-377.558 156.755,-380.849 161.535,-383.845"/>
<polygon fill="midnightblue" stroke="midnightblue" points="159.833,-386.904 170.235,-388.915 163.357,-380.856 159.833,-386.904"/>
</g>
<!-- Node47 -->
<g id="node4" class="node"><title>Node47</title>
<g id="a_node4"><a xlink:href="namespacemom__error__handler.html#a9cda07a87815f0e5594066162b4345c3" target="_top" xlink:title="Writes a message about entering a subroutine if call tree reporting is active.">
<polygon fill="white" stroke="black" points="589.5,-343 589.5,-373 682.5,-373 682.5,-343 589.5,-343"/>
<text text-anchor="start" x="597.5" y="-361" font-family="Helvetica,sans-Serif" font-size="10.00">mom_error_handler::</text>
<text text-anchor="middle" x="636" y="-350" font-family="Helvetica,sans-Serif" font-size="10.00">calltree_enter</text>
</a>
</g>
</g>
<!-- Node44&#45;&gt;Node47 -->
<g id="edge3" class="edge"><title>Node44&#45;&gt;Node47</title>
<path fill="none" stroke="midnightblue" d="M75.3039,-265.189C92.8672,-278.975 120.683,-298.807 148,-310 294.623,-370.08 486.093,-368.095 579.239,-362.591"/>
<polygon fill="midnightblue" stroke="midnightblue" points="579.531,-366.079 589.292,-361.96 579.093,-359.093 579.531,-366.079"/>
</g>
<!-- Node49 -->
<g id="node6" class="node"><title>Node49</title>
<g id="a_node6"><a xlink:href="namespacemom__error__handler.html#a88ea67781e2ed9b73ab7eac8ea5e8578" target="_top" xlink:title="Writes a message about leaving a subroutine if call tree reporting is active.">
<polygon fill="white" stroke="black" points="306.5,-301 306.5,-331 399.5,-331 399.5,-301 306.5,-301"/>
<text text-anchor="start" x="314.5" y="-319" font-family="Helvetica,sans-Serif" font-size="10.00">mom_error_handler::</text>
<text text-anchor="middle" x="353" y="-308" font-family="Helvetica,sans-Serif" font-size="10.00">calltree_leave</text>
</a>
</g>
</g>
<!-- Node44&#45;&gt;Node49 -->
<g id="edge5" class="edge"><title>Node44&#45;&gt;Node49</title>
<path fill="none" stroke="midnightblue" d="M89.6603,-265.043C106.724,-272.355 128.14,-280.688 148,-286 197.255,-299.175 254.849,-306.976 296.257,-311.305"/>
<polygon fill="midnightblue" stroke="midnightblue" points="296.119,-314.808 306.42,-312.331 296.823,-307.844 296.119,-314.808"/>
</g>
<!-- Node50 -->
<g id="node7" class="node"><title>Node50</title>
<g id="a_node7"><a xlink:href="namespacemom__file__parser.html#a5b47aa31f8cffc5bf495f8d3f2e9c001" target="_top" xlink:title=" ">
<polygon fill="white" stroke="black" points="586.5,-242 586.5,-272 685.5,-272 685.5,-242 586.5,-242"/>
<text text-anchor="start" x="594.5" y="-260" font-family="Helvetica,sans-Serif" font-size="10.00">mom_file_parser::close</text>
<text text-anchor="middle" x="636" y="-249" font-family="Helvetica,sans-Serif" font-size="10.00">_param_file</text>
</a>
</g>
</g>
<!-- Node44&#45;&gt;Node50 -->
<g id="edge7" class="edge"><title>Node44&#45;&gt;Node50</title>
<path fill="none" stroke="midnightblue" d="M111.856,-251.309C123.771,-251.565 136.308,-251.811 148,-252 302.466,-254.49 484.511,-255.973 576.088,-256.618"/>
<polygon fill="midnightblue" stroke="midnightblue" points="576.242,-260.119 586.266,-256.688 576.29,-253.119 576.242,-260.119"/>
</g>
<!-- Node51 -->
<g id="node8" class="node"><title>Node51</title>
<g id="a_node8"><a xlink:href="namespacemom__diag__mediator.html#ab6b7493efa5caee06547dafdba29361b" target="_top" xlink:title=" ">
<polygon fill="white" stroke="black" points="158.5,-152.5 158.5,-193.5 253.5,-193.5 253.5,-152.5 158.5,-152.5"/>
<text text-anchor="start" x="166.5" y="-181.5" font-family="Helvetica,sans-Serif" font-size="10.00">mom_diag_mediator::</text>
<text text-anchor="start" x="166.5" y="-170.5" font-family="Helvetica,sans-Serif" font-size="10.00">diag_mediator_close</text>
<text text-anchor="middle" x="206" y="-159.5" font-family="Helvetica,sans-Serif" font-size="10.00">_registration</text>
</a>
</g>
</g>
<!-- Node44&#45;&gt;Node51 -->
<g id="edge9" class="edge"><title>Node44&#45;&gt;Node51</title>
<path fill="none" stroke="midnightblue" d="M85.8872,-234.971C105.939,-224.539 133.136,-210.389 156.48,-198.244"/>
<polygon fill="midnightblue" stroke="midnightblue" points="158.291,-201.247 165.547,-193.526 155.06,-195.037 158.291,-201.247"/>
</g>
<!-- Node52 -->
<g id="node9" class="node"><title>Node52</title>
<g id="a_node9"><a xlink:href="namespaceocean__model__mod.html#a69436704f765fcf78d898c60e0ea511a" target="_top" xlink:title=" ">
<polygon fill="white" stroke="black" points="148,-103 148,-133 264,-133 264,-103 148,-103"/>
<text text-anchor="start" x="156" y="-121" font-family="Helvetica,sans-Serif" font-size="10.00">ocean_model_mod::initialize</text>
<text text-anchor="middle" x="206" y="-110" font-family="Helvetica,sans-Serif" font-size="10.00">_ocean_public_type</text>
</a>
</g>
</g>
<!-- Node44&#45;&gt;Node52 -->
<g id="edge10" class="edge"><title>Node44&#45;&gt;Node52</title>
<path fill="none" stroke="midnightblue" d="M66.4894,-234.988C81.4201,-212.398 112.392,-169.494 148,-143 150.436,-141.188 153.023,-139.472 155.7,-137.854"/>
<polygon fill="midnightblue" stroke="midnightblue" points="157.407,-140.91 164.475,-133.018 154.028,-134.779 157.407,-140.91"/>
</g>
<!-- Node53 -->
<g id="node10" class="node"><title>Node53</title>
<g id="a_node10"><a xlink:href="namespacemom__sum__output.html#ab1d2eb6c53a3cdd079ff60f82691fccb" target="_top" xlink:title=" ">
<polygon fill="white" stroke="black" points="154,-213 154,-243 258,-243 258,-213 154,-213"/>
<text text-anchor="start" x="162" y="-231" font-family="Helvetica,sans-Serif" font-size="10.00">mom_sum_output::mom</text>
<text text-anchor="middle" x="206" y="-220" font-family="Helvetica,sans-Serif" font-size="10.00">_sum_output_init</text>
</a>
</g>
</g>
<!-- Node44&#45;&gt;Node53 -->
<g id="edge11" class="edge"><title>Node44&#45;&gt;Node53</title>
<path fill="none" stroke="midnightblue" d="M111.689,-241.871C122.173,-240.312 133.212,-238.671 143.882,-237.085"/>
<polygon fill="midnightblue" stroke="midnightblue" points="144.593,-240.518 153.97,-235.586 143.564,-233.594 144.593,-240.518"/>
</g>
<!-- Node59 -->
<g id="node16" class="node"><title>Node59</title>
<g id="a_node16"><a xlink:href="namespacemom__string__functions.html#aca148baf726de2f028b7e7baad3c85d4" target="_top" xlink:title=" ">
<polygon fill="white" stroke="black" points="158.5,-54 158.5,-84 253.5,-84 253.5,-54 158.5,-54"/>
<text text-anchor="start" x="166.5" y="-72" font-family="Helvetica,sans-Serif" font-size="10.00">mom_string_functions</text>
<text text-anchor="middle" x="206" y="-61" font-family="Helvetica,sans-Serif" font-size="10.00">::uppercase</text>
</a>
</g>
</g>
<!-- Node44&#45;&gt;Node59 -->
<g id="edge23" class="edge"><title>Node44&#45;&gt;Node59</title>
<path fill="none" stroke="midnightblue" d="M62.2638,-234.579C73.4495,-203.902 102.359,-134.683 148,-94 149.737,-92.4519 151.585,-90.9873 153.513,-89.6032"/>
<polygon fill="midnightblue" stroke="midnightblue" points="155.77,-92.3187 162.383,-84.0404 152.051,-86.3884 155.77,-92.3187"/>
</g>
<!-- Node46 -->
<g id="node3" class="node"><title>Node46</title>
<g id="a_node3"><a xlink:href="MOM__forcing__type_8F90.html#aede7c3d8c91ec3e8a8a3b68824a5e9e8" target="_top" xlink:title="Allocates and zeroes&#45;out array.">
<polygon fill="white" stroke="black" points="331.5,-394.5 331.5,-413.5 374.5,-413.5 374.5,-394.5 331.5,-394.5"/>
<text text-anchor="middle" x="353" y="-401.5" font-family="Helvetica,sans-Serif" font-size="10.00">myalloc</text>
</a>
</g>
</g>
<!-- Node45&#45;&gt;Node46 -->
<g id="edge2" class="edge"><title>Node45&#45;&gt;Node46</title>
<path fill="none" stroke="midnightblue" d="M263.061,-404C282.673,-404 303.979,-404 320.82,-404"/>
<polygon fill="midnightblue" stroke="midnightblue" points="321.179,-407.5 331.179,-404 321.179,-400.5 321.179,-407.5"/>
</g>
<!-- Node48 -->
<g id="node5" class="node"><title>Node48</title>
<g id="a_node5"><a xlink:href="namespacemom__error__handler.html#ad5f00a53059c72fe2332d1436c80ca71" target="_top" xlink:title=" ">
<polygon fill="white" stroke="black" points="722.5,-211 722.5,-241 815.5,-241 815.5,-211 722.5,-211"/>
<text text-anchor="start" x="730.5" y="-229" font-family="Helvetica,sans-Serif" font-size="10.00">mom_error_handler::</text>
<text text-anchor="middle" x="769" y="-218" font-family="Helvetica,sans-Serif" font-size="10.00">is_root_pe</text>
</a>
</g>
</g>
<!-- Node47&#45;&gt;Node48 -->
<g id="edge4" class="edge"><title>Node47&#45;&gt;Node48</title>
<path fill="none" stroke="midnightblue" d="M662.447,-342.855C670.349,-337.64 678.854,-331.471 686,-325 711.59,-301.827 736.194,-270.512 751.66,-249.356"/>
<polygon fill="midnightblue" stroke="midnightblue" points="754.504,-251.396 757.511,-241.237 748.825,-247.303 754.504,-251.396"/>
</g>
<!-- Node49&#45;&gt;Node48 -->
<g id="edge6" class="edge"><title>Node49&#45;&gt;Node48</title>
<path fill="none" stroke="midnightblue" d="M399.569,-318.006C465.013,-319.39 588.471,-316.372 686,-281 706.803,-273.455 727.477,-259.534 742.862,-247.585"/>
<polygon fill="midnightblue" stroke="midnightblue" points="745.214,-250.186 750.833,-241.203 740.839,-244.721 745.214,-250.186"/>
</g>
<!-- Node50&#45;&gt;Node48 -->
<g id="edge8" class="edge"><title>Node50&#45;&gt;Node48</title>
<path fill="none" stroke="midnightblue" d="M685.78,-245.457C694.448,-243.406 703.534,-241.255 712.375,-239.163"/>
<polygon fill="midnightblue" stroke="midnightblue" points="713.292,-242.543 722.217,-236.834 711.68,-235.731 713.292,-242.543"/>
</g>
<!-- Node54 -->
<g id="node11" class="node"><title>Node54</title>
<g id="a_node11"><a xlink:href="namespacemom__sum__output.html#a6be0bb6885b7df65618f4039d493f5c7" target="_top" xlink:title=" ">
<polygon fill="white" stroke="black" points="300,-112 300,-142 406,-142 406,-112 300,-112"/>
<text text-anchor="start" x="308" y="-130" font-family="Helvetica,sans-Serif" font-size="10.00">mom_sum_output::depth</text>
<text text-anchor="middle" x="353" y="-119" font-family="Helvetica,sans-Serif" font-size="10.00">_list_setup</text>
</a>
</g>
</g>
<!-- Node53&#45;&gt;Node54 -->
<g id="edge12" class="edge"><title>Node53&#45;&gt;Node54</title>
<path fill="none" stroke="midnightblue" d="M245.526,-212.991C251.867,-209.991 258.242,-206.633 264,-203 288.429,-187.587 313.041,-165.661 330,-149.318"/>
<polygon fill="midnightblue" stroke="midnightblue" points="332.528,-151.742 337.225,-142.245 327.631,-146.739 332.528,-151.742"/>
</g>
<!-- Node56 -->
<g id="node13" class="node"><title>Node56</title>
<g id="a_node13"><a xlink:href="namespacemom__error__handler.html#a460cfb79a06c29fc249952c2a3710d67" target="_top" xlink:title=" ">
<polygon fill="white" stroke="black" points="589.5,-181 589.5,-211 682.5,-211 682.5,-181 589.5,-181"/>
<text text-anchor="start" x="597.5" y="-199" font-family="Helvetica,sans-Serif" font-size="10.00">mom_error_handler::</text>
<text text-anchor="middle" x="636" y="-188" font-family="Helvetica,sans-Serif" font-size="10.00">mom_error</text>
</a>
</g>
</g>
<!-- Node53&#45;&gt;Node56 -->
<g id="edge22" class="edge"><title>Node53&#45;&gt;Node56</title>
<path fill="none" stroke="midnightblue" d="M258.202,-224.172C339.035,-218.128 495.603,-206.422 579.205,-200.172"/>
<polygon fill="midnightblue" stroke="midnightblue" points="579.563,-203.655 589.275,-199.419 579.041,-196.674 579.563,-203.655"/>
</g>
<!-- Node55 -->
<g id="node12" class="node"><title>Node55</title>
<g id="a_node12"><a xlink:href="namespacemom__sum__output.html#a1db5001777c2171a7f3f16122b4bacd1" target="_top" xlink:title="create_depth_list makes an ordered list of depths, along with the cross sectional areas at each depth...">
<polygon fill="white" stroke="black" points="442,-0 442,-30 550,-30 550,-0 442,-0"/>
<text text-anchor="start" x="450" y="-18" font-family="Helvetica,sans-Serif" font-size="10.00">mom_sum_output::create</text>
<text text-anchor="middle" x="496" y="-7" font-family="Helvetica,sans-Serif" font-size="10.00">_depth_list</text>
</a>
</g>
</g>
<!-- Node54&#45;&gt;Node55 -->
<g id="edge13" class="edge"><title>Node54&#45;&gt;Node55</title>
<path fill="none" stroke="midnightblue" d="M368.016,-111.946C384.649,-94.5747 413.706,-65.7422 442,-45 446.698,-41.5559 451.829,-38.2048 456.988,-35.0661"/>
<polygon fill="midnightblue" stroke="midnightblue" points="458.767,-38.0801 465.627,-30.0056 455.229,-32.0401 458.767,-38.0801"/>
</g>
<!-- Node54&#45;&gt;Node48 -->
<g id="edge14" class="edge"><title>Node54&#45;&gt;Node48</title>
<path fill="none" stroke="midnightblue" d="M374.446,-111.977C391.53,-100.413 417.043,-85.364 442,-79 488.512,-67.1398 502.716,-70.7417 550,-79 613.29,-90.0537 633.337,-91.1978 686,-128 714.608,-147.992 739.023,-180.423 753.594,-202.455"/>
<polygon fill="midnightblue" stroke="midnightblue" points="750.683,-204.399 759.041,-210.909 756.567,-200.607 750.683,-204.399"/>
</g>
<!-- Node54&#45;&gt;Node56 -->
<g id="edge15" class="edge"><title>Node54&#45;&gt;Node56</title>
<path fill="none" stroke="midnightblue" d="M375.294,-142.111C392.454,-153.46 417.653,-168.317 442,-176 486.824,-190.144 540.121,-194.812 579.339,-196.131"/>
<polygon fill="midnightblue" stroke="midnightblue" points="579.407,-199.634 589.499,-196.408 579.599,-192.636 579.407,-199.634"/>
</g>
<!-- Node57 -->
<g id="node14" class="node"><title>Node57</title>
<g id="a_node14"><a xlink:href="namespacemom__sum__output.html#a451f9101467634477df735d1699b538c" target="_top" xlink:title=" ">
<polygon fill="white" stroke="black" points="445,-137 445,-167 547,-167 547,-137 445,-137"/>
<text text-anchor="start" x="453" y="-155" font-family="Helvetica,sans-Serif" font-size="10.00">mom_sum_output::read</text>
<text text-anchor="middle" x="496" y="-144" font-family="Helvetica,sans-Serif" font-size="10.00">_depth_list</text>
</a>
</g>
</g>
<!-- Node54&#45;&gt;Node57 -->
<g id="edge17" class="edge"><title>Node54&#45;&gt;Node57</title>
<path fill="none" stroke="midnightblue" d="M406.103,-136.238C415.535,-137.91 425.439,-139.667 435.074,-141.375"/>
<polygon fill="midnightblue" stroke="midnightblue" points="434.529,-144.833 444.986,-143.132 435.751,-137.94 434.529,-144.833"/>
</g>
<!-- Node58 -->
<g id="node15" class="node"><title>Node58</title>
<g id="a_node15"><a xlink:href="namespacemom__sum__output.html#a0dc24305437100a7d073a489ff531ec1" target="_top" xlink:title=" ">
<polygon fill="white" stroke="black" points="444.5,-88 444.5,-118 547.5,-118 547.5,-88 444.5,-88"/>
<text text-anchor="start" x="452.5" y="-106" font-family="Helvetica,sans-Serif" font-size="10.00">mom_sum_output::write</text>
<text text-anchor="middle" x="496" y="-95" font-family="Helvetica,sans-Serif" font-size="10.00">_depth_list</text>
</a>
</g>
</g>
<!-- Node54&#45;&gt;Node58 -->
<g id="edge19" class="edge"><title>Node54&#45;&gt;Node58</title>
<path fill="none" stroke="midnightblue" d="M406.103,-118.131C415.205,-116.582 424.747,-114.958 434.063,-113.372"/>
<polygon fill="midnightblue" stroke="midnightblue" points="434.78,-116.801 444.051,-111.672 433.605,-109.9 434.78,-116.801"/>
</g>
<!-- Node56&#45;&gt;Node48 -->
<g id="edge16" class="edge"><title>Node56&#45;&gt;Node48</title>
<path fill="none" stroke="midnightblue" d="M682.817,-206.493C692.446,-208.698 702.7,-211.046 712.636,-213.321"/>
<polygon fill="midnightblue" stroke="midnightblue" points="711.901,-216.743 722.43,-215.564 713.463,-209.92 711.901,-216.743"/>
</g>
<!-- Node57&#45;&gt;Node56 -->
<g id="edge18" class="edge"><title>Node57&#45;&gt;Node56</title>
<path fill="none" stroke="midnightblue" d="M544.106,-167.019C555.452,-170.637 567.679,-174.535 579.374,-178.264"/>
<polygon fill="midnightblue" stroke="midnightblue" points="578.45,-181.643 589.041,-181.346 580.576,-174.974 578.45,-181.643"/>
</g>
<!-- Node58&#45;&gt;Node48 -->
<g id="edge20" class="edge"><title>Node58&#45;&gt;Node48</title>
<path fill="none" stroke="midnightblue" d="M547.669,-117.954C586.507,-130.253 640.912,-149.312 686,-172 704.584,-181.351 724.085,-194.06 739.406,-204.799"/>
<polygon fill="midnightblue" stroke="midnightblue" points="737.73,-207.902 747.905,-210.854 741.792,-202.201 737.73,-207.902"/>
</g>
<!-- Node58&#45;&gt;Node56 -->
<g id="edge21" class="edge"><title>Node58&#45;&gt;Node56</title>
<path fill="none" stroke="midnightblue" d="M532.115,-118.138C538.211,-121.166 544.389,-124.5 550,-128 571.909,-141.667 594.646,-160.117 611.085,-174.351"/>
<polygon fill="midnightblue" stroke="midnightblue" points="608.793,-176.996 618.618,-180.96 613.41,-171.734 608.793,-176.996"/>
</g>
</g>
</svg>
        <g id="navigator" transform="translate(0 0)" fill="#404254">
                <rect fill="#f2f5e9" fill-opacity="0.5" stroke="#606060" stroke-width=".5" x="0" y="0" width="60" height="60"/>
                <use id="zoomplus" xlink:href="#zoomPlus" x="17" y="9" onmousedown="handleZoom(evt,'in')"/>
                <use id="zoomminus" xlink:href="#zoomMin" x="42" y="9" onmousedown="handleZoom(evt,'out')"/>
                <use id="reset" xlink:href="#resetDef" x="30" y="36" onmousedown="handleReset()"/>
                <g id="arrowUp" xlink:href="#dirArrow" transform="translate(30 24)" onmousedown="handlePan(0,-1)">
                  <use xlink:href="#rim" fill="#404040">
                        <set attributeName="fill" to="#808080" begin="arrowUp.mouseover" end="arrowUp.mouseout"/>
                  </use>
                  <path fill="none" stroke="white" stroke-width="1.5" d="M0,-3.0v7 M-2.5,-0.5L0,-3.0L2.5,-0.5"/>
                </g>
                <g id="arrowRight" xlink:href="#dirArrow" transform="rotate(90) translate(36 -43)" onmousedown="handlePan(1,0)">
                  <use xlink:href="#rim" fill="#404040">
                        <set attributeName="fill" to="#808080" begin="arrowRight.mouseover" end="arrowRight.mouseout"/>
                  </use>
                  <path fill="none" stroke="white" stroke-width="1.5" d="M0,-3.0v7 M-2.5,-0.5L0,-3.0L2.5,-0.5"/>
                </g>
                <g id="arrowDown" xlink:href="#dirArrow" transform="rotate(180) translate(-30 -48)" onmousedown="handlePan(0,1)">
                  <use xlink:href="#rim" fill="#404040">
                        <set attributeName="fill" to="#808080" begin="arrowDown.mouseover" end="arrowDown.mouseout"/>
                  </use>
                  <path fill="none" stroke="white" stroke-width="1.5" d="M0,-3.0v7 M-2.5,-0.5L0,-3.0L2.5,-0.5"/>
                </g>
                <g id="arrowLeft" xlink:href="#dirArrow" transform="rotate(270) translate(-36 17)" onmousedown="handlePan(-1,0)">
                  <use xlink:href="#rim" fill="#404040">
                        <set attributeName="fill" to="#808080" begin="arrowLeft.mouseover" end="arrowLeft.mouseout"/>
                  </use>
                  <path fill="none" stroke="white" stroke-width="1.5" d="M0,-3.0v7 M-2.5,-0.5L0,-3.0L2.5,-0.5"/>
                </g>
        </g>
        <svg viewBox="0 0 15 15" width="100%" height="30px" preserveAspectRatio="xMaxYMin meet">
         <g id="arrow_out" transform="scale(0.3 0.3)">
          <a xlink:href="namespaceocean__model__mod_aced9c77abd80a4a509c7cc317af707a7_cgraph_org.svg" target="_base">
           <rect id="button" ry="5" rx="5" y="6" x="6" height="38" width="38"
                fill="#f2f5e9" fill-opacity="0.5" stroke="#606060" stroke-width="1.0"/>
           <path id="arrow"
             d="M 11.500037,31.436501 C 11.940474,20.09759 22.043105,11.32322 32.158766,21.979434 L 37.068811,17.246167 C 37.068811,17.246167 37.088388,32 37.088388,32 L 22.160133,31.978069 C 22.160133,31.978069 26.997745,27.140456 26.997745,27.140456 C 18.528582,18.264221 13.291696,25.230495 11.500037,31.436501 z"
             style="fill:#404040;"/>
          </a>
         </g>
        </svg>
</svg>
