<?xml version="1.0" encoding="UTF-8" standalone="no"?>
<!DOCTYPE svg PUBLIC "-//W3C//DTD SVG 1.1//EN"
 "http://www.w3.org/Graphics/SVG/1.1/DTD/svg11.dtd">
<!-- Generated by graphviz version 2.30.1 (20170916.1124)
 -->
<!-- Title: mom_ocmip2_co2calc_mod::ta_iter_1 Pages: 1 -->
<svg width="392pt" height="38pt"
 viewBox="0.00 0.00 392.00 38.00" xmlns="http://www.w3.org/2000/svg" xmlns:xlink="http://www.w3.org/1999/xlink">
<g id="graph0" class="graph" transform="scale(1 1) rotate(0) translate(4 34)">
<title>mom_ocmip2_co2calc_mod::ta_iter_1</title>
<polygon fill="white" stroke="white" points="-4,5 -4,-34 389,-34 389,5 -4,5"/>
<!-- Node9 -->
<g id="node1" class="node"><title>Node9</title>
<g id="a_node1"><a xlink:title=" ">
<polygon fill="#bfbfbf" stroke="black" points="288.5,-0 288.5,-30 383.5,-30 383.5,-0 288.5,-0"/>
<text text-anchor="start" x="296.5" y="-18" font-family="Helvetica,sans-Serif" font-size="10.00">mom_ocmip2_co2calc</text>
<text text-anchor="middle" x="336" y="-7" font-family="Helvetica,sans-Serif" font-size="10.00">_mod::ta_iter_1</text>
</a>
</g>
</g>
<!-- Node10 -->
<g id="node2" class="node"><title>Node10</title>
<g id="a_node2"><a xlink:href="namespacemom__ocmip2__co2calc__mod.html#af2f24440252eb01429ba0b951f3d3369" target="_top" xlink:title=" ">
<polygon fill="white" stroke="black" points="156.5,-0 156.5,-30 251.5,-30 251.5,-0 156.5,-0"/>
<text text-anchor="start" x="164.5" y="-18" font-family="Helvetica,sans-Serif" font-size="10.00">mom_ocmip2_co2calc</text>
<text text-anchor="middle" x="204" y="-7" font-family="Helvetica,sans-Serif" font-size="10.00">_mod::drtsafe</text>
</a>
</g>
</g>
<!-- Node9&#45;&gt;Node10 -->
<g id="edge1" class="edge"><title>Node9&#45;&gt;Node10</title>
<path fill="none" stroke="midnightblue" d="M278.178,-15C269.327,-15 260.27,-15 251.678,-15"/>
<polygon fill="midnightblue" stroke="midnightblue" points="278.434,-18.5001 288.434,-15 278.434,-11.5001 278.434,-18.5001"/>
</g>
<!-- Node11 -->
<g id="node3" class="node"><title>Node11</title>
<g id="a_node3"><a xlink:href="namespacemom__ocmip2__co2calc__mod.html#a33244d2860fc6ef59fd35d3008f260a4" target="_top" xlink:title=" ">
<polygon fill="white" stroke="black" points="0,-0 0,-30 120,-30 120,-0 0,-0"/>
<text text-anchor="start" x="8" y="-18" font-family="Helvetica,sans-Serif" font-size="10.00">mom_ocmip2_co2calc</text>
<text text-anchor="middle" x="60" y="-7" font-family="Helvetica,sans-Serif" font-size="10.00">_mod::mom_ocmip2_co2calc</text>
</a>
</g>
</g>
<!-- Node10&#45;&gt;Node11 -->
<g id="edge2" class="edge"><title>Node10&#45;&gt;Node11</title>
<path fill="none" stroke="midnightblue" d="M145.958,-15C137.495,-15 128.756,-15 120.249,-15"/>
<polygon fill="midnightblue" stroke="midnightblue" points="146.11,-18.5001 156.11,-15 146.11,-11.5001 146.11,-18.5001"/>
</g>
</g>
</svg>
