<?xml version="1.0" encoding="UTF-8" standalone="no"?>
<!DOCTYPE svg PUBLIC "-//W3C//DTD SVG 1.1//EN"
 "http://www.w3.org/Graphics/SVG/1.1/DTD/svg11.dtd">
<!-- Generated by graphviz version 2.30.1 (20170916.1124)
 -->
<!-- Title: mom_barotropic::find_vhbt Pages: 1 -->
<svg width="392pt" height="55pt"
 viewBox="0.00 0.00 392.00 55.00" xmlns="http://www.w3.org/2000/svg" xmlns:xlink="http://www.w3.org/1999/xlink">
<g id="graph0" class="graph" transform="scale(1 1) rotate(0) translate(4 51)">
<title>mom_barotropic::find_vhbt</title>
<polygon fill="white" stroke="white" points="-4,5 -4,-51 389,-51 389,5 -4,5"/>
<!-- Node75 -->
<g id="node1" class="node"><title>Node75</title>
<g id="a_node1"><a xlink:title=" ">
<polygon fill="#bfbfbf" stroke="black" points="272,-0.5 272,-19.5 384,-19.5 384,-0.5 272,-0.5"/>
<text text-anchor="middle" x="328" y="-7.5" font-family="Helvetica,sans-Serif" font-size="10.00">mom_barotropic::find_vhbt</text>
</a>
</g>
</g>
<!-- Node76 -->
<g id="node2" class="node"><title>Node76</title>
<g id="a_node2"><a xlink:href="namespacemom__barotropic.html#a1f34ad960c893916f0703db07badc57c" target="_top" xlink:title=" ">
<polygon fill="white" stroke="black" points="138,-17 138,-47 236,-47 236,-17 138,-17"/>
<text text-anchor="start" x="146" y="-35" font-family="Helvetica,sans-Serif" font-size="10.00">mom_barotropic::apply</text>
<text text-anchor="middle" x="187" y="-24" font-family="Helvetica,sans-Serif" font-size="10.00">_velocity_obcs</text>
</a>
</g>
</g>
<!-- Node75&#45;&gt;Node76 -->
<g id="edge1" class="edge"><title>Node75&#45;&gt;Node76</title>
<path fill="none" stroke="midnightblue" d="M261.726,-20.3312C253.2,-21.6805 244.59,-23.0434 236.41,-24.338"/>
<polygon fill="midnightblue" stroke="midnightblue" points="262.334,-23.7785 271.664,-18.7582 261.24,-16.8646 262.334,-23.7785"/>
</g>
<!-- Node77 -->
<g id="node3" class="node"><title>Node77</title>
<g id="a_node3"><a xlink:href="namespacemom__barotropic.html#a98cdf3c559146cc9485fcb9daa4cdbca" target="_top" xlink:title=" ">
<polygon fill="white" stroke="black" points="0.5,-0.5 0.5,-19.5 101.5,-19.5 101.5,-0.5 0.5,-0.5"/>
<text text-anchor="middle" x="51" y="-7.5" font-family="Helvetica,sans-Serif" font-size="10.00">mom_barotropic::btstep</text>
</a>
</g>
</g>
<!-- Node75&#45;&gt;Node77 -->
<g id="edge3" class="edge"><title>Node75&#45;&gt;Node77</title>
<path fill="none" stroke="midnightblue" d="M261.623,-8.39035C253.006,-8.22887 244.291,-8.0911 236,-8 192.447,-7.52145 181.553,-7.49364 138,-8 126.202,-8.13716 113.496,-8.38013 101.566,-8.65054"/>
<polygon fill="midnightblue" stroke="midnightblue" points="261.595,-11.8904 271.662,-8.58943 261.733,-4.89176 261.595,-11.8904"/>
</g>
<!-- Node76&#45;&gt;Node77 -->
<g id="edge2" class="edge"><title>Node76&#45;&gt;Node77</title>
<path fill="none" stroke="midnightblue" d="M127.596,-22.4112C118.948,-20.9914 110.106,-19.5398 101.659,-18.1529"/>
<polygon fill="midnightblue" stroke="midnightblue" points="127.188,-25.8911 137.623,-24.0575 128.322,-18.9835 127.188,-25.8911"/>
</g>
</g>
</svg>
