<?xml version="1.0" encoding="UTF-8" standalone="no"?>
<!DOCTYPE svg PUBLIC "-//W3C//DTD SVG 1.1//EN"
 "http://www.w3.org/Graphics/SVG/1.1/DTD/svg11.dtd">
<!-- Generated by graphviz version 2.30.1 (20170916.1124)
 -->
<!-- Title: mom_file_parser::get_param_char Pages: 1 -->
<svg width="594pt" height="154pt"
 viewBox="0.00 0.00 594.00 154.00" xmlns="http://www.w3.org/2000/svg" xmlns:xlink="http://www.w3.org/1999/xlink">
<g id="graph0" class="graph" transform="scale(1 1) rotate(0) translate(4 150)">
<title>mom_file_parser::get_param_char</title>
<polygon fill="white" stroke="white" points="-4,5 -4,-150 591,-150 591,5 -4,5"/>
<!-- Node50 -->
<g id="node1" class="node"><title>Node50</title>
<g id="a_node1"><a xlink:title=" ">
<polygon fill="#bfbfbf" stroke="black" points="0,-54 0,-84 92,-84 92,-54 0,-54"/>
<text text-anchor="start" x="8" y="-72" font-family="Helvetica,sans-Serif" font-size="10.00">mom_file_parser::get</text>
<text text-anchor="middle" x="46" y="-61" font-family="Helvetica,sans-Serif" font-size="10.00">_param_char</text>
</a>
</g>
</g>
<!-- Node51 -->
<g id="node2" class="node"><title>Node51</title>
<g id="a_node2"><a xlink:href="namespacemom__file__parser.html#abb9d9f9de778af6d9dd187b66fbbb6cb" target="_top" xlink:title=" ">
<polygon fill="white" stroke="black" points="131,-79 131,-109 223,-109 223,-79 131,-79"/>
<text text-anchor="start" x="139" y="-97" font-family="Helvetica,sans-Serif" font-size="10.00">mom_file_parser::log</text>
<text text-anchor="middle" x="177" y="-86" font-family="Helvetica,sans-Serif" font-size="10.00">_param_char</text>
</a>
</g>
</g>
<!-- Node50&#45;&gt;Node51 -->
<g id="edge1" class="edge"><title>Node50&#45;&gt;Node51</title>
<path fill="none" stroke="midnightblue" d="M92.1179,-77.7438C101.393,-79.5413 111.257,-81.453 120.841,-83.3102"/>
<polygon fill="midnightblue" stroke="midnightblue" points="120.206,-86.7523 130.689,-85.2189 121.538,-79.8802 120.206,-86.7523"/>
</g>
<!-- Node52 -->
<g id="node3" class="node"><title>Node52</title>
<g id="a_node3"><a xlink:href="namespacemom__file__parser.html#a14c84db15e417656105f7303ad0ac2a2" target="_top" xlink:title=" ">
<polygon fill="white" stroke="black" points="128,-30 128,-60 226,-60 226,-30 128,-30"/>
<text text-anchor="start" x="136" y="-48" font-family="Helvetica,sans-Serif" font-size="10.00">mom_file_parser::read</text>
<text text-anchor="middle" x="177" y="-37" font-family="Helvetica,sans-Serif" font-size="10.00">_param_char</text>
</a>
</g>
</g>
<!-- Node50&#45;&gt;Node52 -->
<g id="edge2" class="edge"><title>Node50&#45;&gt;Node52</title>
<path fill="none" stroke="midnightblue" d="M92.1179,-60.606C100.369,-59.0709 109.086,-57.449 117.658,-55.8544"/>
<polygon fill="midnightblue" stroke="midnightblue" points="118.424,-59.2719 127.615,-54.0018 117.144,-52.39 118.424,-59.2719"/>
</g>
<!-- Node53 -->
<g id="node4" class="node"><title>Node53</title>
<g id="a_node4"><a xlink:href="namespacemom__file__parser.html#af883df6020543889b25986d6ee9701f7" target="_top" xlink:title=" ">
<polygon fill="white" stroke="black" points="264,-55 264,-85 356,-85 356,-55 264,-55"/>
<text text-anchor="start" x="272" y="-73" font-family="Helvetica,sans-Serif" font-size="10.00">mom_file_parser::get</text>
<text text-anchor="middle" x="310" y="-62" font-family="Helvetica,sans-Serif" font-size="10.00">_variable_line</text>
</a>
</g>
</g>
<!-- Node52&#45;&gt;Node53 -->
<g id="edge3" class="edge"><title>Node52&#45;&gt;Node53</title>
<path fill="none" stroke="midnightblue" d="M226.036,-54.1671C235.045,-55.8864 244.529,-57.6965 253.737,-59.4537"/>
<polygon fill="midnightblue" stroke="midnightblue" points="253.106,-62.8963 263.585,-61.3329 254.418,-56.0203 253.106,-62.8963"/>
</g>
<!-- Node58 -->
<g id="node9" class="node"><title>Node58</title>
<g id="a_node9"><a xlink:href="namespacemom__file__parser.html#a416b4a2a5b52f526ad1815f3e5a4739e" target="_top" xlink:title=" ">
<polygon fill="white" stroke="black" points="262,-6 262,-36 358,-36 358,-6 262,-6"/>
<text text-anchor="start" x="270" y="-24" font-family="Helvetica,sans-Serif" font-size="10.00">mom_file_parser::strip</text>
<text text-anchor="middle" x="310" y="-13" font-family="Helvetica,sans-Serif" font-size="10.00">_quotes</text>
</a>
</g>
</g>
<!-- Node52&#45;&gt;Node58 -->
<g id="edge8" class="edge"><title>Node52&#45;&gt;Node58</title>
<path fill="none" stroke="midnightblue" d="M226.036,-36.1996C234.433,-34.6611 243.244,-33.0469 251.859,-31.4687"/>
<polygon fill="midnightblue" stroke="midnightblue" points="252.639,-34.884 261.845,-29.6391 251.378,-27.9986 252.639,-34.884"/>
</g>
<!-- Node54 -->
<g id="node5" class="node"><title>Node54</title>
<g id="a_node5"><a xlink:href="namespacemom__file__parser.html#a58777b0faf747d59a793b4e238919dc6" target="_top" xlink:title=" ">
<polygon fill="white" stroke="black" points="424,-126.5 424,-145.5 556,-145.5 556,-126.5 424,-126.5"/>
<text text-anchor="middle" x="490" y="-133.5" font-family="Helvetica,sans-Serif" font-size="10.00">mom_file_parser::pushblocklevel</text>
</a>
</g>
</g>
<!-- Node53&#45;&gt;Node54 -->
<g id="edge4" class="edge"><title>Node53&#45;&gt;Node54</title>
<path fill="none" stroke="midnightblue" d="M333.717,-85.0306C349.917,-95.1277 372.542,-108.002 394,-116 402.409,-119.134 411.429,-121.83 420.443,-124.134"/>
<polygon fill="midnightblue" stroke="midnightblue" points="419.65,-127.543 430.191,-126.482 421.289,-120.737 419.65,-127.543"/>
</g>
<!-- Node55 -->
<g id="node6" class="node"><title>Node55</title>
<g id="a_node6"><a xlink:href="namespacemom__file__parser.html#a7803aabff129cc7f56d4516bc24613f0" target="_top" xlink:title=" ">
<polygon fill="white" stroke="black" points="443,-77 443,-107 537,-107 537,-77 443,-77"/>
<text text-anchor="start" x="451" y="-95" font-family="Helvetica,sans-Serif" font-size="10.00">mom_file_parser::flag</text>
<text text-anchor="middle" x="490" y="-84" font-family="Helvetica,sans-Serif" font-size="10.00">_line_as_read</text>
</a>
</g>
</g>
<!-- Node53&#45;&gt;Node55 -->
<g id="edge5" class="edge"><title>Node53&#45;&gt;Node55</title>
<path fill="none" stroke="midnightblue" d="M356.377,-75.6085C379.643,-78.484 408.193,-82.0127 432.837,-85.0585"/>
<polygon fill="midnightblue" stroke="midnightblue" points="432.422,-88.5338 442.776,-86.2869 433.281,-81.5867 432.422,-88.5338"/>
</g>
<!-- Node56 -->
<g id="node7" class="node"><title>Node56</title>
<g id="a_node7"><a xlink:href="namespacemom__file__parser.html#a73b11b969d303b1fc0ba5235c812fd05" target="_top" xlink:title=" ">
<polygon fill="white" stroke="black" points="426,-38.5 426,-57.5 554,-57.5 554,-38.5 426,-38.5"/>
<text text-anchor="middle" x="490" y="-45.5" font-family="Helvetica,sans-Serif" font-size="10.00">mom_file_parser::popblocklevel</text>
</a>
</g>
</g>
<!-- Node53&#45;&gt;Node56 -->
<g id="edge6" class="edge"><title>Node53&#45;&gt;Node56</title>
<path fill="none" stroke="midnightblue" d="M356.377,-64.3915C374.441,-62.159 395.69,-59.5327 415.822,-57.0444"/>
<polygon fill="midnightblue" stroke="midnightblue" points="416.415,-60.4979 425.91,-55.7976 415.556,-53.5508 416.415,-60.4979"/>
</g>
<!-- Node57 -->
<g id="node8" class="node"><title>Node57</title>
<g id="a_node8"><a xlink:href="namespacemom__file__parser.html#a0c9bb1e76b09bc09bae5402e63bd0f99" target="_top" xlink:title=" ">
<polygon fill="white" stroke="black" points="394,-0.5 394,-19.5 586,-19.5 586,-0.5 394,-0.5"/>
<text text-anchor="middle" x="490" y="-7.5" font-family="Helvetica,sans-Serif" font-size="10.00">mom_file_parser::overridewarninghasbeenissued</text>
</a>
</g>
</g>
<!-- Node53&#45;&gt;Node57 -->
<g id="edge7" class="edge"><title>Node53&#45;&gt;Node57</title>
<path fill="none" stroke="midnightblue" d="M339.706,-54.8228C359.184,-44.7183 383.274,-32.6513 394,-29 402.011,-26.273 410.543,-23.884 419.081,-21.8055"/>
<polygon fill="midnightblue" stroke="midnightblue" points="420.115,-25.1591 429.076,-19.5065 418.546,-18.3372 420.115,-25.1591"/>
</g>
</g>
</svg>
