<?xml version="1.0" encoding="UTF-8" standalone="no"?>
<!DOCTYPE svg PUBLIC "-//W3C//DTD SVG 1.1//EN"
 "http://www.w3.org/Graphics/SVG/1.1/DTD/svg11.dtd">
<!-- Generated by graphviz version 2.30.1 (20170916.1124)
 -->
<!-- Title: mom_continuity::continuity Pages: 1 -->
<svg width="494pt" height="377pt"
 viewBox="0.00 0.00 494.00 377.00" xmlns="http://www.w3.org/2000/svg" xmlns:xlink="http://www.w3.org/1999/xlink">
<g id="graph0" class="graph" transform="scale(1 1) rotate(0) translate(4 373)">
<title>mom_continuity::continuity</title>
<polygon fill="white" stroke="white" points="-4,5 -4,-373 491,-373 491,5 -4,5"/>
<!-- Node3 -->
<g id="node1" class="node"><title>Node3</title>
<g id="a_node1"><a xlink:title="Time steps the layer thicknesses, using a monotonically limited, directionally split PPM scheme,...">
<polygon fill="#bfbfbf" stroke="black" points="376,-158.5 376,-177.5 486,-177.5 486,-158.5 376,-158.5"/>
<text text-anchor="middle" x="431" y="-165.5" font-family="Helvetica,sans-Serif" font-size="10.00">mom_continuity::continuity</text>
</a>
</g>
</g>
<!-- Node4 -->
<g id="node2" class="node"><title>Node4</title>
<g id="a_node2"><a xlink:href="namespacemom__dynamics__legacy__split.html#a20fb02b2587addc8afe400a0efd322fc" target="_top" xlink:title=" ">
<polygon fill="white" stroke="black" points="223.5,-327.5 223.5,-368.5 322.5,-368.5 322.5,-327.5 223.5,-327.5"/>
<text text-anchor="start" x="231.5" y="-356.5" font-family="Helvetica,sans-Serif" font-size="10.00">mom_dynamics_legacy</text>
<text text-anchor="start" x="231.5" y="-345.5" font-family="Helvetica,sans-Serif" font-size="10.00">_split::adjustments</text>
<text text-anchor="middle" x="273" y="-334.5" font-family="Helvetica,sans-Serif" font-size="10.00">_dyn_legacy_split</text>
</a>
</g>
</g>
<!-- Node3&#45;&gt;Node4 -->
<g id="edge1" class="edge"><title>Node3&#45;&gt;Node4</title>
<path fill="none" stroke="midnightblue" d="M422.78,-187.497C410.306,-218.805 381.961,-280.562 340,-318 334.835,-322.609 328.842,-326.622 322.617,-330.083"/>
<polygon fill="midnightblue" stroke="midnightblue" points="426.193,-188.372 426.526,-177.783 419.662,-185.854 426.193,-188.372"/>
</g>
<!-- Node7 -->
<g id="node5" class="node"><title>Node7</title>
<g id="a_node5"><a xlink:href="namespacemom__dynamics__legacy__split.html#aef55fe2e12672940edbd2dc5d7e72fd7" target="_top" xlink:title=" ">
<polygon fill="white" stroke="black" points="223.5,-267.5 223.5,-308.5 322.5,-308.5 322.5,-267.5 223.5,-267.5"/>
<text text-anchor="start" x="231.5" y="-296.5" font-family="Helvetica,sans-Serif" font-size="10.00">mom_dynamics_legacy</text>
<text text-anchor="start" x="231.5" y="-285.5" font-family="Helvetica,sans-Serif" font-size="10.00">_split::initialize_dyn</text>
<text text-anchor="middle" x="273" y="-274.5" font-family="Helvetica,sans-Serif" font-size="10.00">_legacy_split</text>
</a>
</g>
</g>
<!-- Node3&#45;&gt;Node7 -->
<g id="edge4" class="edge"><title>Node3&#45;&gt;Node7</title>
<path fill="none" stroke="midnightblue" d="M416.002,-185.36C399.476,-204.99 370.376,-236.949 340,-258 334.621,-261.728 328.703,-265.179 322.689,-268.312"/>
<polygon fill="midnightblue" stroke="midnightblue" points="418.801,-187.468 422.476,-177.531 413.406,-183.008 418.801,-187.468"/>
</g>
<!-- Node8 -->
<g id="node6" class="node"><title>Node8</title>
<g id="a_node6"><a xlink:href="namespacemom__dynamics__split__rk2.html#a3bae09afc9136333ab281704dc9d9415" target="_top" xlink:title="This subroutine initializes all of the variables that are used by this dynamic core,...">
<polygon fill="white" stroke="black" points="228,-207.5 228,-248.5 318,-248.5 318,-207.5 228,-207.5"/>
<text text-anchor="start" x="236" y="-236.5" font-family="Helvetica,sans-Serif" font-size="10.00">mom_dynamics_split</text>
<text text-anchor="start" x="236" y="-225.5" font-family="Helvetica,sans-Serif" font-size="10.00">_rk2::initialize_dyn</text>
<text text-anchor="middle" x="273" y="-214.5" font-family="Helvetica,sans-Serif" font-size="10.00">_split_rk2</text>
</a>
</g>
</g>
<!-- Node3&#45;&gt;Node8 -->
<g id="edge5" class="edge"><title>Node3&#45;&gt;Node8</title>
<path fill="none" stroke="midnightblue" d="M395.677,-181.201C372.859,-189.977 342.683,-201.583 318.091,-211.042"/>
<polygon fill="midnightblue" stroke="midnightblue" points="397.204,-184.364 405.281,-177.507 394.691,-177.83 397.204,-184.364"/>
</g>
<!-- Node9 -->
<g id="node7" class="node"><title>Node9</title>
<g id="a_node7"><a xlink:href="namespacemom__dynamics__legacy__split.html#ae34fe0561f87dc05c2fad64bf6d5a1ee" target="_top" xlink:title=" ">
<polygon fill="white" stroke="black" points="223.5,-147.5 223.5,-188.5 322.5,-188.5 322.5,-147.5 223.5,-147.5"/>
<text text-anchor="start" x="231.5" y="-176.5" font-family="Helvetica,sans-Serif" font-size="10.00">mom_dynamics_legacy</text>
<text text-anchor="start" x="231.5" y="-165.5" font-family="Helvetica,sans-Serif" font-size="10.00">_split::step_mom_dyn</text>
<text text-anchor="middle" x="273" y="-154.5" font-family="Helvetica,sans-Serif" font-size="10.00">_legacy_split</text>
</a>
</g>
</g>
<!-- Node3&#45;&gt;Node9 -->
<g id="edge6" class="edge"><title>Node3&#45;&gt;Node9</title>
<path fill="none" stroke="midnightblue" d="M365.548,-168C351.171,-168 336.159,-168 322.55,-168"/>
<polygon fill="midnightblue" stroke="midnightblue" points="365.877,-171.5 375.877,-168 365.877,-164.5 365.877,-171.5"/>
</g>
<!-- Node10 -->
<g id="node8" class="node"><title>Node10</title>
<g id="a_node8"><a xlink:href="namespacemom__dynamics__split__rk2.html#a81cce65643a8cf94979d68354a9a1979" target="_top" xlink:title="RK2 splitting for time stepping MOM adiabatic dynamics.">
<polygon fill="white" stroke="black" points="210.5,-98 210.5,-128 335.5,-128 335.5,-98 210.5,-98"/>
<text text-anchor="start" x="218.5" y="-116" font-family="Helvetica,sans-Serif" font-size="10.00">mom_dynamics_split</text>
<text text-anchor="middle" x="273" y="-105" font-family="Helvetica,sans-Serif" font-size="10.00">_rk2::step_mom_dyn_split_rk2</text>
</a>
</g>
</g>
<!-- Node3&#45;&gt;Node10 -->
<g id="edge7" class="edge"><title>Node3&#45;&gt;Node10</title>
<path fill="none" stroke="midnightblue" d="M393.129,-155.001C370.215,-146.922 340.666,-136.504 316.731,-128.065"/>
<polygon fill="midnightblue" stroke="midnightblue" points="392.232,-158.395 402.827,-158.42 394.56,-151.794 392.232,-158.395"/>
</g>
<!-- Node11 -->
<g id="node9" class="node"><title>Node11</title>
<g id="a_node9"><a xlink:href="namespacemom__dynamics__unsplit.html#a53a72861e61f049479fdec46ea11227b" target="_top" xlink:title=" ">
<polygon fill="white" stroke="black" points="221.5,-49 221.5,-79 324.5,-79 324.5,-49 221.5,-49"/>
<text text-anchor="start" x="229.5" y="-67" font-family="Helvetica,sans-Serif" font-size="10.00">mom_dynamics_unsplit</text>
<text text-anchor="middle" x="273" y="-56" font-family="Helvetica,sans-Serif" font-size="10.00">::step_mom_dyn_unsplit</text>
</a>
</g>
</g>
<!-- Node3&#45;&gt;Node11 -->
<g id="edge8" class="edge"><title>Node3&#45;&gt;Node11</title>
<path fill="none" stroke="midnightblue" d="M414.235,-150.94C397.297,-133.434 368.896,-106.37 340,-89 333.804,-85.2755 326.959,-81.9399 320.092,-79.0117"/>
<polygon fill="midnightblue" stroke="midnightblue" points="411.747,-153.402 421.172,-158.242 416.822,-148.581 411.747,-153.402"/>
</g>
<!-- Node12 -->
<g id="node10" class="node"><title>Node12</title>
<g id="a_node10"><a xlink:href="namespacemom__dynamics__unsplit__rk2.html#ae10d75d92c1ec7783df7e5d8965b86a0" target="_top" xlink:title=" ">
<polygon fill="white" stroke="black" points="206,-0 206,-30 340,-30 340,-0 206,-0"/>
<text text-anchor="start" x="214" y="-18" font-family="Helvetica,sans-Serif" font-size="10.00">mom_dynamics_unsplit</text>
<text text-anchor="middle" x="273" y="-7" font-family="Helvetica,sans-Serif" font-size="10.00">_rk2::step_mom_dyn_unsplit_rk2</text>
</a>
</g>
</g>
<!-- Node3&#45;&gt;Node12 -->
<g id="edge9" class="edge"><title>Node3&#45;&gt;Node12</title>
<path fill="none" stroke="midnightblue" d="M421.128,-148.784C407.431,-121.085 378.629,-69.9821 340,-40 335.064,-36.1685 329.474,-32.8714 323.689,-30.0479"/>
<polygon fill="midnightblue" stroke="midnightblue" points="418.145,-150.658 425.626,-158.16 424.456,-147.63 418.145,-150.658"/>
</g>
<!-- Node5 -->
<g id="node3" class="node"><title>Node5</title>
<g id="a_node3"><a xlink:href="namespacemom.html#a4c8332b095c6d295084089aa6b3b678a" target="_top" xlink:title="This subroutine orchestrates the time stepping of MOM. The adiabatic dynamics are stepped by calls to...">
<polygon fill="white" stroke="black" points="92.5,-338.5 92.5,-357.5 169.5,-357.5 169.5,-338.5 92.5,-338.5"/>
<text text-anchor="middle" x="131" y="-345.5" font-family="Helvetica,sans-Serif" font-size="10.00">mom::step_mom</text>
</a>
</g>
</g>
<!-- Node4&#45;&gt;Node5 -->
<g id="edge2" class="edge"><title>Node4&#45;&gt;Node5</title>
<path fill="none" stroke="midnightblue" d="M213.389,-348C198.683,-348 183.287,-348 169.893,-348"/>
<polygon fill="midnightblue" stroke="midnightblue" points="213.428,-351.5 223.428,-348 213.428,-344.5 213.428,-351.5"/>
</g>
<!-- Node6 -->
<g id="node4" class="node"><title>Node6</title>
<g id="a_node4"><a xlink:href="MOM__driver_8F90.html#a08fffeb2d8e8acbf9ed4609be6d258c6" target="_top" xlink:title=" ">
<polygon fill="white" stroke="black" points="0,-338.5 0,-357.5 56,-357.5 56,-338.5 0,-338.5"/>
<text text-anchor="middle" x="28" y="-345.5" font-family="Helvetica,sans-Serif" font-size="10.00">mom_main</text>
</a>
</g>
</g>
<!-- Node5&#45;&gt;Node6 -->
<g id="edge3" class="edge"><title>Node5&#45;&gt;Node6</title>
<path fill="none" stroke="midnightblue" d="M82.3728,-348C73.3999,-348 64.3057,-348 56.2281,-348"/>
<polygon fill="midnightblue" stroke="midnightblue" points="82.3914,-351.5 92.3913,-348 82.3913,-344.5 82.3914,-351.5"/>
</g>
</g>
</svg>
