<?xml version="1.0" encoding="UTF-8" standalone="no"?>
<!DOCTYPE svg PUBLIC "-//W3C//DTD SVG 1.1//EN"
 "http://www.w3.org/Graphics/SVG/1.1/DTD/svg11.dtd">
<!-- Generated by graphviz version 2.30.1 (20170916.1124)
 -->
<!-- Title: user_initialization::user_initialize_thickness Pages: 1 -->
<svg width="374pt" height="87pt"
 viewBox="0.00 0.00 374.00 87.00" xmlns="http://www.w3.org/2000/svg" xmlns:xlink="http://www.w3.org/1999/xlink">
<g id="graph0" class="graph" transform="scale(1 1) rotate(0) translate(4 83)">
<title>user_initialization::user_initialize_thickness</title>
<polygon fill="white" stroke="white" points="-4,5 -4,-83 371,-83 371,5 -4,5"/>
<!-- Node18 -->
<g id="node1" class="node"><title>Node18</title>
<g id="a_node1"><a xlink:title="initialize thicknesses.">
<polygon fill="#bfbfbf" stroke="black" points="0.5,-24 0.5,-54 105.5,-54 105.5,-24 0.5,-24"/>
<text text-anchor="start" x="8.5" y="-42" font-family="Helvetica,sans-Serif" font-size="10.00">user_initialization</text>
<text text-anchor="middle" x="53" y="-31" font-family="Helvetica,sans-Serif" font-size="10.00">::user_initialize_thickness</text>
</a>
</g>
</g>
<!-- Node19 -->
<g id="node2" class="node"><title>Node19</title>
<g id="a_node2"><a xlink:href="namespacemom__error__handler.html#a460cfb79a06c29fc249952c2a3710d67" target="_top" xlink:title=" ">
<polygon fill="white" stroke="black" points="142.5,-49 142.5,-79 235.5,-79 235.5,-49 142.5,-49"/>
<text text-anchor="start" x="150.5" y="-67" font-family="Helvetica,sans-Serif" font-size="10.00">mom_error_handler::</text>
<text text-anchor="middle" x="189" y="-56" font-family="Helvetica,sans-Serif" font-size="10.00">mom_error</text>
</a>
</g>
</g>
<!-- Node18&#45;&gt;Node19 -->
<g id="edge1" class="edge"><title>Node18&#45;&gt;Node19</title>
<path fill="none" stroke="midnightblue" d="M105.808,-48.6657C114.583,-50.3029 123.726,-52.0086 132.59,-53.6622"/>
<polygon fill="midnightblue" stroke="midnightblue" points="131.971,-57.1072 142.444,-55.5007 133.255,-50.226 131.971,-57.1072"/>
</g>
<!-- Node21 -->
<g id="node4" class="node"><title>Node21</title>
<g id="a_node4"><a xlink:href="namespaceuser__initialization.html#aebfc0db710e83bae83f08e1a774256dd" target="_top" xlink:title="Write output about the parameter values being used.">
<polygon fill="white" stroke="black" points="150.5,-0 150.5,-30 227.5,-30 227.5,-0 150.5,-0"/>
<text text-anchor="start" x="158.5" y="-18" font-family="Helvetica,sans-Serif" font-size="10.00">user_initialization</text>
<text text-anchor="middle" x="189" y="-7" font-family="Helvetica,sans-Serif" font-size="10.00">::write_user_log</text>
</a>
</g>
</g>
<!-- Node18&#45;&gt;Node21 -->
<g id="edge3" class="edge"><title>Node18&#45;&gt;Node21</title>
<path fill="none" stroke="midnightblue" d="M105.808,-29.721C117.198,-27.681 129.206,-25.5302 140.42,-23.5217"/>
<polygon fill="midnightblue" stroke="midnightblue" points="141.229,-26.9327 150.455,-21.7245 139.995,-20.0424 141.229,-26.9327"/>
</g>
<!-- Node20 -->
<g id="node3" class="node"><title>Node20</title>
<g id="a_node3"><a xlink:href="namespacemom__error__handler.html#ad5f00a53059c72fe2332d1436c80ca71" target="_top" xlink:title=" ">
<polygon fill="white" stroke="black" points="272.5,-49 272.5,-79 365.5,-79 365.5,-49 272.5,-49"/>
<text text-anchor="start" x="280.5" y="-67" font-family="Helvetica,sans-Serif" font-size="10.00">mom_error_handler::</text>
<text text-anchor="middle" x="319" y="-56" font-family="Helvetica,sans-Serif" font-size="10.00">is_root_pe</text>
</a>
</g>
</g>
<!-- Node19&#45;&gt;Node20 -->
<g id="edge2" class="edge"><title>Node19&#45;&gt;Node20</title>
<path fill="none" stroke="midnightblue" d="M235.849,-64C244.408,-64 253.439,-64 262.258,-64"/>
<polygon fill="midnightblue" stroke="midnightblue" points="262.471,-67.5001 272.471,-64 262.471,-60.5001 262.471,-67.5001"/>
</g>
</g>
</svg>
