<?xml version="1.0" encoding="UTF-8" standalone="no"?>
<!DOCTYPE svg PUBLIC "-//W3C//DTD SVG 1.1//EN"
 "http://www.w3.org/Graphics/SVG/1.1/DTD/svg11.dtd">
<!-- Generated by graphviz version 2.30.1 (20170916.1124)
 -->
<!-- Title: mom_wave_speed::wave_speed_init Pages: 1 -->
<svg width="874pt" height="128pt"
 viewBox="0.00 0.00 874.00 128.00" xmlns="http://www.w3.org/2000/svg" xmlns:xlink="http://www.w3.org/1999/xlink">
<g id="graph0" class="graph" transform="scale(1 1) rotate(0) translate(4 124)">
<title>mom_wave_speed::wave_speed_init</title>
<polygon fill="white" stroke="white" points="-4,5 -4,-124 871,-124 871,5 -4,5"/>
<!-- Node48 -->
<g id="node1" class="node"><title>Node48</title>
<g id="a_node1"><a xlink:title="Initialize control structure for MOM_wave_speed.">
<polygon fill="#bfbfbf" stroke="black" points="0.5,-44 0.5,-74 107.5,-74 107.5,-44 0.5,-44"/>
<text text-anchor="start" x="8.5" y="-62" font-family="Helvetica,sans-Serif" font-size="10.00">mom_wave_speed::wave</text>
<text text-anchor="middle" x="54" y="-51" font-family="Helvetica,sans-Serif" font-size="10.00">_speed_init</text>
</a>
</g>
</g>
<!-- Node49 -->
<g id="node2" class="node"><title>Node49</title>
<g id="a_node2"><a xlink:href="namespacemom__remapping.html#a6847e0c44ccb54fb72587677f90d95b6" target="_top" xlink:title="Constructor for remapping control structure.">
<polygon fill="white" stroke="black" points="144.5,-88 144.5,-118 253.5,-118 253.5,-88 144.5,-88"/>
<text text-anchor="start" x="152.5" y="-106" font-family="Helvetica,sans-Serif" font-size="10.00">mom_remapping::initialize</text>
<text text-anchor="middle" x="199" y="-95" font-family="Helvetica,sans-Serif" font-size="10.00">_remapping</text>
</a>
</g>
</g>
<!-- Node48&#45;&gt;Node49 -->
<g id="edge1" class="edge"><title>Node48&#45;&gt;Node49</title>
<path fill="none" stroke="midnightblue" d="M103.813,-74.0192C115.191,-77.5202 127.424,-81.2842 139.184,-84.9027"/>
<polygon fill="midnightblue" stroke="midnightblue" points="138.335,-88.3034 148.922,-87.8991 140.393,-81.6129 138.335,-88.3034"/>
</g>
<!-- Node52 -->
<g id="node5" class="node"><title>Node52</title>
<g id="a_node5"><a xlink:href="namespacemom__error__handler.html#a460cfb79a06c29fc249952c2a3710d67" target="_top" xlink:title=" ">
<polygon fill="white" stroke="black" points="641.5,-41 641.5,-71 734.5,-71 734.5,-41 641.5,-41"/>
<text text-anchor="start" x="649.5" y="-59" font-family="Helvetica,sans-Serif" font-size="10.00">mom_error_handler::</text>
<text text-anchor="middle" x="688" y="-48" font-family="Helvetica,sans-Serif" font-size="10.00">mom_error</text>
</a>
</g>
</g>
<!-- Node48&#45;&gt;Node52 -->
<g id="edge7" class="edge"><title>Node48&#45;&gt;Node52</title>
<path fill="none" stroke="midnightblue" d="M107.527,-58.7507C225.388,-58.1912 510.04,-56.84 631.054,-56.2656"/>
<polygon fill="midnightblue" stroke="midnightblue" points="631.227,-59.7649 641.21,-56.2174 631.194,-52.765 631.227,-59.7649"/>
</g>
<!-- Node55 -->
<g id="node8" class="node"><title>Node55</title>
<g id="a_node8"><a xlink:href="namespacemom__wave__speed.html#a035c9e3306d6b21809e240a5b24a2db0" target="_top" xlink:title="Sets internal parameters for MOM_wave_speed.">
<polygon fill="white" stroke="black" points="296.5,-0 296.5,-30 403.5,-30 403.5,-0 296.5,-0"/>
<text text-anchor="start" x="304.5" y="-18" font-family="Helvetica,sans-Serif" font-size="10.00">mom_wave_speed::wave</text>
<text text-anchor="middle" x="350" y="-7" font-family="Helvetica,sans-Serif" font-size="10.00">_speed_set_param</text>
</a>
</g>
</g>
<!-- Node48&#45;&gt;Node55 -->
<g id="edge8" class="edge"><title>Node48&#45;&gt;Node55</title>
<path fill="none" stroke="midnightblue" d="M107.694,-50.6154C119.629,-48.743 132.247,-46.7843 144,-45 191.7,-37.7583 245.693,-29.8693 286.29,-23.9995"/>
<polygon fill="midnightblue" stroke="midnightblue" points="286.914,-27.4458 296.311,-22.5523 285.913,-20.5177 286.914,-27.4458"/>
</g>
<!-- Node50 -->
<g id="node3" class="node"><title>Node50</title>
<g id="a_node3"><a xlink:href="namespacemom__remapping.html#a9e811f89c505a4416ea0eec315769801" target="_top" xlink:title="Set parameters within remapping object.">
<polygon fill="white" stroke="black" points="290,-88 290,-118 410,-118 410,-88 290,-88"/>
<text text-anchor="start" x="298" y="-106" font-family="Helvetica,sans-Serif" font-size="10.00">mom_remapping::remapping</text>
<text text-anchor="middle" x="350" y="-95" font-family="Helvetica,sans-Serif" font-size="10.00">_set_param</text>
</a>
</g>
</g>
<!-- Node49&#45;&gt;Node50 -->
<g id="edge2" class="edge"><title>Node49&#45;&gt;Node50</title>
<path fill="none" stroke="midnightblue" d="M253.792,-103C262.24,-103 271.074,-103 279.81,-103"/>
<polygon fill="midnightblue" stroke="midnightblue" points="279.991,-106.5 289.991,-103 279.991,-99.5001 279.991,-106.5"/>
</g>
<!-- Node51 -->
<g id="node4" class="node"><title>Node51</title>
<g id="a_node4"><a xlink:href="namespacemom__remapping.html#a41a89ac62578250500b7a450d5fdfae7" target="_top" xlink:title="Changes the method of reconstruction Use this routine to parse a string parameter specifying the reco...">
<polygon fill="white" stroke="black" points="446,-93.5 446,-112.5 604,-112.5 604,-93.5 446,-93.5"/>
<text text-anchor="middle" x="525" y="-100.5" font-family="Helvetica,sans-Serif" font-size="10.00">mom_remapping::setreconstructiontype</text>
</a>
</g>
</g>
<!-- Node50&#45;&gt;Node51 -->
<g id="edge3" class="edge"><title>Node50&#45;&gt;Node51</title>
<path fill="none" stroke="midnightblue" d="M410.053,-103C418.355,-103 427.033,-103 435.735,-103"/>
<polygon fill="midnightblue" stroke="midnightblue" points="435.94,-106.5 445.94,-103 435.94,-99.5001 435.94,-106.5"/>
</g>
<!-- Node51&#45;&gt;Node52 -->
<g id="edge4" class="edge"><title>Node51&#45;&gt;Node52</title>
<path fill="none" stroke="midnightblue" d="M558.581,-93.4888C579.497,-87.3829 607.199,-79.2959 631.519,-72.1964"/>
<polygon fill="midnightblue" stroke="midnightblue" points="632.733,-75.488 641.352,-69.3259 630.771,-68.7685 632.733,-75.488"/>
</g>
<!-- Node54 -->
<g id="node7" class="node"><title>Node54</title>
<g id="a_node7"><a xlink:href="namespacemom__string__functions.html#aca148baf726de2f028b7e7baad3c85d4" target="_top" xlink:title=" ">
<polygon fill="white" stroke="black" points="640.5,-90 640.5,-120 735.5,-120 735.5,-90 640.5,-90"/>
<text text-anchor="start" x="648.5" y="-108" font-family="Helvetica,sans-Serif" font-size="10.00">mom_string_functions</text>
<text text-anchor="middle" x="688" y="-97" font-family="Helvetica,sans-Serif" font-size="10.00">::uppercase</text>
</a>
</g>
</g>
<!-- Node51&#45;&gt;Node54 -->
<g id="edge6" class="edge"><title>Node51&#45;&gt;Node54</title>
<path fill="none" stroke="midnightblue" d="M604.142,-103.971C612.914,-104.08 621.723,-104.189 630.152,-104.294"/>
<polygon fill="midnightblue" stroke="midnightblue" points="630.175,-107.794 640.218,-104.419 630.262,-100.795 630.175,-107.794"/>
</g>
<!-- Node53 -->
<g id="node6" class="node"><title>Node53</title>
<g id="a_node6"><a xlink:href="namespacemom__error__handler.html#ad5f00a53059c72fe2332d1436c80ca71" target="_top" xlink:title=" ">
<polygon fill="white" stroke="black" points="772.5,-41 772.5,-71 865.5,-71 865.5,-41 772.5,-41"/>
<text text-anchor="start" x="780.5" y="-59" font-family="Helvetica,sans-Serif" font-size="10.00">mom_error_handler::</text>
<text text-anchor="middle" x="819" y="-48" font-family="Helvetica,sans-Serif" font-size="10.00">is_root_pe</text>
</a>
</g>
</g>
<!-- Node52&#45;&gt;Node53 -->
<g id="edge5" class="edge"><title>Node52&#45;&gt;Node53</title>
<path fill="none" stroke="midnightblue" d="M734.844,-56C743.683,-56 753.034,-56 762.151,-56"/>
<polygon fill="midnightblue" stroke="midnightblue" points="762.304,-59.5001 772.304,-56 762.304,-52.5001 762.304,-59.5001"/>
</g>
<!-- Node55&#45;&gt;Node52 -->
<g id="edge9" class="edge"><title>Node55&#45;&gt;Node52</title>
<path fill="none" stroke="midnightblue" d="M403.844,-21.052C455.045,-26.9666 534.878,-36.3219 604,-45 612.802,-46.1051 622.125,-47.3085 631.22,-48.5005"/>
<polygon fill="midnightblue" stroke="midnightblue" points="630.979,-51.999 641.351,-49.8356 631.894,-45.059 630.979,-51.999"/>
</g>
</g>
</svg>
