<?xml version="1.0" encoding="UTF-8" standalone="no"?>
<!DOCTYPE svg PUBLIC "-//W3C//DTD SVG 1.1//EN"
 "http://www.w3.org/Graphics/SVG/1.1/DTD/svg11.dtd">
<!-- Generated by graphviz version 2.30.1 (20170916.1124)
 -->
<!-- Title: mom_shared_initialization::set_rotation_planetary Pages: 1 -->
<svg width="260pt" height="38pt"
 viewBox="0.00 0.00 260.00 38.00" xmlns="http://www.w3.org/2000/svg" xmlns:xlink="http://www.w3.org/1999/xlink">
<g id="graph0" class="graph" transform="scale(1 1) rotate(0) translate(4 34)">
<title>mom_shared_initialization::set_rotation_planetary</title>
<polygon fill="white" stroke="white" points="-4,5 -4,-34 257,-34 257,5 -4,5"/>
<!-- Node72 -->
<g id="node1" class="node"><title>Node72</title>
<g id="a_node1"><a xlink:title=" ">
<polygon fill="#bfbfbf" stroke="black" points="144,-0 144,-30 252,-30 252,-0 144,-0"/>
<text text-anchor="start" x="152" y="-18" font-family="Helvetica,sans-Serif" font-size="10.00">mom_shared_initialization</text>
<text text-anchor="middle" x="198" y="-7" font-family="Helvetica,sans-Serif" font-size="10.00">::set_rotation_planetary</text>
</a>
</g>
</g>
<!-- Node73 -->
<g id="node2" class="node"><title>Node73</title>
<g id="a_node2"><a xlink:href="namespacemom__shared__initialization.html#af31ffb2db6b543b353e0775842d94809" target="_top" xlink:title="MOM_initialize_rotation makes the appropriate call to set up the Coriolis parameter.">
<polygon fill="white" stroke="black" points="0,-0 0,-30 108,-30 108,-0 0,-0"/>
<text text-anchor="start" x="8" y="-18" font-family="Helvetica,sans-Serif" font-size="10.00">mom_shared_initialization</text>
<text text-anchor="middle" x="54" y="-7" font-family="Helvetica,sans-Serif" font-size="10.00">::mom_initialize_rotation</text>
</a>
</g>
</g>
<!-- Node72&#45;&gt;Node73 -->
<g id="edge1" class="edge"><title>Node72&#45;&gt;Node73</title>
<path fill="none" stroke="midnightblue" d="M133.483,-15C125.004,-15 116.382,-15 108.106,-15"/>
<polygon fill="midnightblue" stroke="midnightblue" points="133.72,-18.5001 143.72,-15 133.72,-11.5001 133.72,-18.5001"/>
</g>
</g>
</svg>
