<?xml version="1.0" encoding="UTF-8" standalone="no"?>
<!DOCTYPE svg PUBLIC "-//W3C//DTD SVG 1.1//EN"
 "http://www.w3.org/Graphics/SVG/1.1/DTD/svg11.dtd">
<!-- Generated by graphviz version 2.30.1 (20170916.1124)
 -->
<!-- Title: mom_diag_to_z::ocean_register_diag_with_z Pages: 1 -->
<!--zoomable 494 -->
<svg id="main" version="1.1" xmlns="http://www.w3.org/2000/svg" xmlns:xlink="http://www.w3.org/1999/xlink" xml:space="preserve" onload="init(evt)">
<style type="text/css"><![CDATA[
.edge:hover path { stroke: red; }
.edge:hover polygon { stroke: red; fill: red; }
]]></style>
<script type="text/javascript"><![CDATA[
var edges = document.getElementsByTagName('g');
if (edges && edges.length) {
  for (var i=0;i<edges.length;i++) {
    if (edges[i].id.substr(0,4)=='edge') {
      edges[i].setAttribute('class','edge');
    }
  }
}
]]></script>
        <defs>
                <circle id="rim" cx="0" cy="0" r="7"/>
                <circle id="rim2" cx="0" cy="0" r="3.5"/>
                <g id="zoomPlus">
                        <use xlink:href="#rim" fill="#404040">
                                <set attributeName="fill" to="#808080" begin="zoomplus.mouseover" end="zoomplus.mouseout"/>
                        </use>
                        <path d="M-4,0h8M0,-4v8" fill="none" stroke="white" stroke-width="1.5" pointer-events="none"/>
                </g>
                <g id="zoomMin">
                        <use xlink:href="#rim" fill="#404040">
                                <set attributeName="fill" to="#808080" begin="zoomminus.mouseover" end="zoomminus.mouseout"/>
                        </use>
                        <path d="M-4,0h8" fill="none" stroke="white" stroke-width="1.5" pointer-events="none"/>
                </g>
                <g id="dirArrow">
                        <path fill="none" stroke="white" stroke-width="1.5" d="M0,-3.0v7 M-2.5,-0.5L0,-3.0L2.5,-0.5"/>
                </g>
               <g id="resetDef">
                       <use xlink:href="#rim2" fill="#404040">
                               <set attributeName="fill" to="#808080" begin="reset.mouseover" end="reset.mouseout"/>
                       </use>
               </g>
        </defs>

<script type="text/javascript">
var viewWidth = 1194;
var viewHeight = 494;
var sectionId = 'dynsection-10';
</script>
<script xlink:href="svgpan.js"/>
<svg id="graph" class="graph">
<g id="viewport">
<title>mom_diag_to_z::ocean_register_diag_with_z</title>
<polygon fill="white" stroke="white" points="-4,5 -4,-490.213 1191,-490.213 1191,5 -4,5"/>
<!-- Node48 -->
<g id="node1" class="node"><title>Node48</title>
<g id="a_node1"><a xlink:title=" ">
<polygon fill="#bfbfbf" stroke="black" points="0,-380 0,-410 100,-410 100,-380 0,-380"/>
<text text-anchor="start" x="8" y="-398" font-family="Helvetica,sans-Serif" font-size="10.00">mom_diag_to_z::ocean</text>
<text text-anchor="middle" x="50" y="-387" font-family="Helvetica,sans-Serif" font-size="10.00">_register_diag_with_z</text>
</a>
</g>
</g>
<!-- Node49 -->
<g id="node2" class="node"><title>Node49</title>
<g id="a_node2"><a xlink:href="namespacemom__io.html#af96b29cb8410d557e8e452b81586223b" target="_top" xlink:title="This routine modifies the named elements of a vardesc type. All arguments are optional,...">
<polygon fill="white" stroke="black" points="278.5,-349.5 278.5,-368.5 383.5,-368.5 383.5,-349.5 278.5,-349.5"/>
<text text-anchor="middle" x="331" y="-356.5" font-family="Helvetica,sans-Serif" font-size="10.00">mom_io::modify_vardesc</text>
</a>
</g>
</g>
<!-- Node48&#45;&gt;Node49 -->
<g id="edge1" class="edge"><title>Node48&#45;&gt;Node49</title>
<path fill="none" stroke="midnightblue" d="M100.237,-388.647C147.07,-382.604 217.69,-373.492 268.267,-366.966"/>
<polygon fill="midnightblue" stroke="midnightblue" points="268.951,-370.406 278.421,-365.655 268.055,-363.464 268.951,-370.406"/>
</g>
<!-- Node51 -->
<g id="node4" class="node"><title>Node51</title>
<g id="a_node4"><a xlink:href="namespacemom__error__handler.html#a460cfb79a06c29fc249952c2a3710d67" target="_top" xlink:title=" ">
<polygon fill="white" stroke="black" points="962.5,-306 962.5,-336 1055.5,-336 1055.5,-306 962.5,-306"/>
<text text-anchor="start" x="970.5" y="-324" font-family="Helvetica,sans-Serif" font-size="10.00">mom_error_handler::</text>
<text text-anchor="middle" x="1009" y="-313" font-family="Helvetica,sans-Serif" font-size="10.00">mom_error</text>
</a>
</g>
</g>
<!-- Node48&#45;&gt;Node51 -->
<g id="edge5" class="edge"><title>Node48&#45;&gt;Node51</title>
<path fill="none" stroke="midnightblue" d="M64.6472,-410.188C80.1749,-426.349 107.145,-451.181 136,-463 216.212,-495.853 243.321,-483 330,-483 330,-483 330,-483 747,-483 831.946,-483 856.298,-464.554 926,-416 953.688,-396.713 977.886,-365.992 992.684,-344.731"/>
<polygon fill="midnightblue" stroke="midnightblue" points="995.714,-346.5 998.433,-336.26 989.922,-342.569 995.714,-346.5"/>
</g>
<!-- Node53 -->
<g id="node6" class="node"><title>Node53</title>
<g id="a_node6"><a xlink:href="namespacemom__diag__mediator.html#a21267e25d12fa3e5d2540d2a299d2d2c" target="_top" xlink:title="Registers a diagnostic using the information encapsulated in the vardesc type argument and returns an...">
<polygon fill="white" stroke="black" points="141.5,-298 141.5,-328 236.5,-328 236.5,-298 141.5,-298"/>
<text text-anchor="start" x="149.5" y="-316" font-family="Helvetica,sans-Serif" font-size="10.00">mom_diag_mediator::</text>
<text text-anchor="middle" x="189" y="-305" font-family="Helvetica,sans-Serif" font-size="10.00">ocean_register_diag</text>
</a>
</g>
</g>
<!-- Node48&#45;&gt;Node53 -->
<g id="edge6" class="edge"><title>Node48&#45;&gt;Node53</title>
<path fill="none" stroke="midnightblue" d="M75.4483,-379.814C92.3801,-369.353 115.477,-355.195 136,-343 141.41,-339.786 147.16,-336.419 152.789,-333.15"/>
<polygon fill="midnightblue" stroke="midnightblue" points="154.565,-336.166 161.469,-328.131 151.061,-330.107 154.565,-336.166"/>
</g>
<!-- Node54 -->
<g id="node7" class="node"><title>Node54</title>
<g id="a_node7"><a xlink:href="namespacemom__io.html#a23e82d1d89d9bb1c9bdf802ce80d4508" target="_top" xlink:title="This routine queries vardesc.">
<polygon fill="white" stroke="black" points="280,-387.5 280,-406.5 382,-406.5 382,-387.5 280,-387.5"/>
<text text-anchor="middle" x="331" y="-394.5" font-family="Helvetica,sans-Serif" font-size="10.00">mom_io::query_vardesc</text>
</a>
</g>
</g>
<!-- Node48&#45;&gt;Node54 -->
<g id="edge26" class="edge"><title>Node48&#45;&gt;Node54</title>
<path fill="none" stroke="midnightblue" d="M100.237,-395.353C147.51,-395.692 219.016,-396.204 269.684,-396.568"/>
<polygon fill="midnightblue" stroke="midnightblue" points="269.82,-400.069 279.845,-396.64 269.87,-393.069 269.82,-400.069"/>
</g>
<!-- Node67 -->
<g id="node20" class="node"><title>Node67</title>
<g id="a_node20"><a xlink:href="namespacemom__diag__to__z.html#a4dda95a2d7577d6d347e94ec54638bb5" target="_top" xlink:title=" ">
<polygon fill="white" stroke="black" points="136.5,-424 136.5,-454 241.5,-454 241.5,-424 136.5,-424"/>
<text text-anchor="start" x="144.5" y="-442" font-family="Helvetica,sans-Serif" font-size="10.00">mom_diag_to_z::register</text>
<text text-anchor="middle" x="189" y="-431" font-family="Helvetica,sans-Serif" font-size="10.00">_z_diag</text>
</a>
</g>
</g>
<!-- Node48&#45;&gt;Node67 -->
<g id="edge27" class="edge"><title>Node48&#45;&gt;Node67</title>
<path fill="none" stroke="midnightblue" d="M97.7645,-410.019C108.556,-413.485 120.151,-417.209 131.313,-420.794"/>
<polygon fill="midnightblue" stroke="midnightblue" points="130.39,-424.174 140.981,-423.899 132.53,-417.509 130.39,-424.174"/>
</g>
<!-- Node50 -->
<g id="node3" class="node"><title>Node50</title>
<g id="a_node3"><a xlink:href="namespacemom__io.html#ac4bc408e8b38dbd669842753f26ebf88" target="_top" xlink:title="Copies a string.">
<polygon fill="white" stroke="black" points="420,-349.5 420,-368.5 530,-368.5 530,-349.5 420,-349.5"/>
<text text-anchor="middle" x="475" y="-356.5" font-family="Helvetica,sans-Serif" font-size="10.00">mom_io::safe_string_copy</text>
</a>
</g>
</g>
<!-- Node49&#45;&gt;Node50 -->
<g id="edge2" class="edge"><title>Node49&#45;&gt;Node50</title>
<path fill="none" stroke="midnightblue" d="M383.667,-359C392.102,-359 400.932,-359 409.628,-359"/>
<polygon fill="midnightblue" stroke="midnightblue" points="409.743,-362.5 419.743,-359 409.743,-355.5 409.743,-362.5"/>
</g>
<!-- Node50&#45;&gt;Node51 -->
<g id="edge3" class="edge"><title>Node50&#45;&gt;Node51</title>
<path fill="none" stroke="midnightblue" d="M530.196,-358.134C614.901,-356.324 783.712,-350.887 926,-335 934.459,-334.056 943.37,-332.804 952.075,-331.437"/>
<polygon fill="midnightblue" stroke="midnightblue" points="952.856,-334.855 962.161,-329.79 951.728,-327.947 952.856,-334.855"/>
</g>
<!-- Node52 -->
<g id="node5" class="node"><title>Node52</title>
<g id="a_node5"><a xlink:href="namespacemom__error__handler.html#ad5f00a53059c72fe2332d1436c80ca71" target="_top" xlink:title=" ">
<polygon fill="white" stroke="black" points="1092.5,-175 1092.5,-205 1185.5,-205 1185.5,-175 1092.5,-175"/>
<text text-anchor="start" x="1100.5" y="-193" font-family="Helvetica,sans-Serif" font-size="10.00">mom_error_handler::</text>
<text text-anchor="middle" x="1139" y="-182" font-family="Helvetica,sans-Serif" font-size="10.00">is_root_pe</text>
</a>
</g>
</g>
<!-- Node51&#45;&gt;Node52 -->
<g id="edge4" class="edge"><title>Node51&#45;&gt;Node52</title>
<path fill="none" stroke="midnightblue" d="M1024.68,-305.973C1047.04,-283.096 1089.75,-239.376 1115.88,-212.64"/>
<polygon fill="midnightblue" stroke="midnightblue" points="1118.61,-214.854 1123.09,-205.256 1113.6,-209.962 1118.61,-214.854"/>
</g>
<!-- Node53&#45;&gt;Node51 -->
<g id="edge7" class="edge"><title>Node53&#45;&gt;Node51</title>
<path fill="none" stroke="midnightblue" d="M236.725,-315.123C292.998,-317.493 390.394,-321 474,-321 474,-321 474,-321 747,-321 817.73,-321 899.242,-321 952.091,-321"/>
<polygon fill="midnightblue" stroke="midnightblue" points="952.267,-324.5 962.267,-321 952.267,-317.5 952.267,-324.5"/>
</g>
<!-- Node53&#45;&gt;Node54 -->
<g id="edge8" class="edge"><title>Node53&#45;&gt;Node54</title>
<path fill="none" stroke="midnightblue" d="M207.194,-328.036C224.242,-342.361 251.567,-363.791 278,-378 281.762,-380.022 285.785,-381.915 289.864,-383.662"/>
<polygon fill="midnightblue" stroke="midnightblue" points="288.806,-387.008 299.391,-387.467 291.403,-380.508 288.806,-387.008"/>
</g>
<!-- Node55 -->
<g id="node8" class="node"><title>Node55</title>
<g id="a_node8"><a xlink:href="namespacemom__diag__mediator.html#aa791f75f899ae9b7cd4756165a9c2a1b" target="_top" xlink:title="Returns the &quot;diag_mediator&quot; handle for a group (native, CMOR, z&#45;coord, ...) of diagnostics derived fr...">
<polygon fill="white" stroke="black" points="283.5,-172 283.5,-202 378.5,-202 378.5,-172 283.5,-172"/>
<text text-anchor="start" x="291.5" y="-190" font-family="Helvetica,sans-Serif" font-size="10.00">mom_diag_mediator::</text>
<text text-anchor="middle" x="331" y="-179" font-family="Helvetica,sans-Serif" font-size="10.00">register_diag_field</text>
</a>
</g>
</g>
<!-- Node53&#45;&gt;Node55 -->
<g id="edge10" class="edge"><title>Node53&#45;&gt;Node55</title>
<path fill="none" stroke="midnightblue" d="M206.887,-297.801C231.483,-275.665 277.303,-234.427 305.576,-208.982"/>
<polygon fill="midnightblue" stroke="midnightblue" points="307.961,-211.544 313.053,-202.252 303.278,-206.341 307.961,-211.544"/>
</g>
<!-- Node54&#45;&gt;Node50 -->
<g id="edge9" class="edge"><title>Node54&#45;&gt;Node50</title>
<path fill="none" stroke="midnightblue" d="M367.833,-387.411C386.163,-382.506 408.678,-376.48 428.25,-371.243"/>
<polygon fill="midnightblue" stroke="midnightblue" points="429.424,-374.552 438.179,-368.586 427.614,-367.79 429.424,-374.552"/>
</g>
<!-- Node56 -->
<g id="node9" class="node"><title>Node56</title>
<g id="a_node9"><a xlink:href="namespacemom__diag__mediator.html#ae50b35cba800ac5fd8975929fd2b9f4a" target="_top" xlink:title="Returns True if either the native of CMOr version of the diagnostic were registered....">
<polygon fill="white" stroke="black" points="427.5,-100.5 427.5,-141.5 522.5,-141.5 522.5,-100.5 427.5,-100.5"/>
<text text-anchor="start" x="435.5" y="-129.5" font-family="Helvetica,sans-Serif" font-size="10.00">mom_diag_mediator::</text>
<text text-anchor="start" x="435.5" y="-118.5" font-family="Helvetica,sans-Serif" font-size="10.00">register_diag_field</text>
<text text-anchor="middle" x="475" y="-107.5" font-family="Helvetica,sans-Serif" font-size="10.00">_expand_cmor</text>
</a>
</g>
</g>
<!-- Node55&#45;&gt;Node56 -->
<g id="edge11" class="edge"><title>Node55&#45;&gt;Node56</title>
<path fill="none" stroke="midnightblue" d="M364.578,-171.858C381.184,-164.14 401.804,-154.556 420.652,-145.796"/>
<polygon fill="midnightblue" stroke="midnightblue" points="422.143,-148.962 429.736,-141.573 419.193,-142.614 422.143,-148.962"/>
</g>
<!-- Node57 -->
<g id="node10" class="node"><title>Node57</title>
<g id="a_node10"><a xlink:href="namespacemom__diag__mediator.html#a8415b33a337b1fbc7535688eca85ab37" target="_top" xlink:title="Create a diagnostic type and attached to list.">
<polygon fill="white" stroke="black" points="566.5,-186 566.5,-216 661.5,-216 661.5,-186 566.5,-186"/>
<text text-anchor="start" x="574.5" y="-204" font-family="Helvetica,sans-Serif" font-size="10.00">mom_diag_mediator::</text>
<text text-anchor="middle" x="614" y="-193" font-family="Helvetica,sans-Serif" font-size="10.00">add_diag_to_list</text>
</a>
</g>
</g>
<!-- Node56&#45;&gt;Node57 -->
<g id="edge12" class="edge"><title>Node56&#45;&gt;Node57</title>
<path fill="none" stroke="midnightblue" d="M508.634,-141.59C525.599,-152.128 546.757,-165.016 566,-176 568.98,-177.701 572.084,-179.434 575.213,-181.155"/>
<polygon fill="midnightblue" stroke="midnightblue" points="573.56,-184.24 584.019,-185.933 576.898,-178.087 573.56,-184.24"/>
</g>
<!-- Node63 -->
<g id="node16" class="node"><title>Node63</title>
<g id="a_node16"><a xlink:href="namespacemom__diag__mediator.html#ae0f04c145cb120fc2ab6cbfe9f166392" target="_top" xlink:title="Attaches &quot;cell_methods&quot; attribute to a variable based on defaults for axes_grp or optional arguments.">
<polygon fill="white" stroke="black" points="830.5,-126 830.5,-156 925.5,-156 925.5,-126 830.5,-126"/>
<text text-anchor="start" x="838.5" y="-144" font-family="Helvetica,sans-Serif" font-size="10.00">mom_diag_mediator::</text>
<text text-anchor="middle" x="878" y="-133" font-family="Helvetica,sans-Serif" font-size="10.00">attach_cell_methods</text>
</a>
</g>
</g>
<!-- Node56&#45;&gt;Node63 -->
<g id="edge20" class="edge"><title>Node56&#45;&gt;Node63</title>
<path fill="none" stroke="midnightblue" d="M522.691,-117.912C536.618,-117.125 551.921,-116.391 566,-116 608.65,-114.816 619.405,-113.532 662,-116 715.832,-119.119 776.867,-126.597 820.116,-132.566"/>
<polygon fill="midnightblue" stroke="midnightblue" points="819.774,-136.052 830.162,-133.97 820.743,-129.12 819.774,-136.052"/>
</g>
<!-- Node56&#45;&gt;Node52 -->
<g id="edge22" class="edge"><title>Node56&#45;&gt;Node52</title>
<path fill="none" stroke="midnightblue" d="M522.866,-103.399C575.955,-85.0692 665.443,-59 745,-59 745,-59 745,-59 879,-59 974.624,-59 1070.8,-130.985 1114.16,-168.232"/>
<polygon fill="midnightblue" stroke="midnightblue" points="1112.04,-171.027 1121.88,-174.973 1116.65,-165.756 1112.04,-171.027"/>
</g>
<!-- Node64 -->
<g id="node17" class="node"><title>Node64</title>
<g id="a_node17"><a xlink:href="namespacemom__diag__mediator.html#a65fe8d329cf5dbfd08c98874a7a64407" target="_top" xlink:title="Log a diagnostic to the available diagnostics file.">
<polygon fill="white" stroke="black" points="566.5,-0 566.5,-30 661.5,-30 661.5,-0 566.5,-0"/>
<text text-anchor="start" x="574.5" y="-18" font-family="Helvetica,sans-Serif" font-size="10.00">mom_diag_mediator::</text>
<text text-anchor="middle" x="614" y="-7" font-family="Helvetica,sans-Serif" font-size="10.00">log_available_diag</text>
</a>
</g>
</g>
<!-- Node56&#45;&gt;Node64 -->
<g id="edge23" class="edge"><title>Node56&#45;&gt;Node64</title>
<path fill="none" stroke="midnightblue" d="M498.62,-100.442C516.419,-84.6291 542.121,-62.5823 566,-45 570.18,-41.9221 574.671,-38.8173 579.16,-35.832"/>
<polygon fill="midnightblue" stroke="midnightblue" points="581.229,-38.6614 587.706,-30.2767 577.414,-32.7925 581.229,-38.6614"/>
</g>
<!-- Node66 -->
<g id="node19" class="node"><title>Node66</title>
<g id="a_node19"><a xlink:href="namespacemom__diag__mediator.html#aca4a32fea8dade9f51e076a56b9bad2b" target="_top" xlink:title="Returns an FMS id from register_diag_field_fms (the diag_manager routine) after expanding axes (axes&#45;...">
<polygon fill="white" stroke="black" points="566.5,-125.5 566.5,-166.5 661.5,-166.5 661.5,-125.5 566.5,-125.5"/>
<text text-anchor="start" x="574.5" y="-154.5" font-family="Helvetica,sans-Serif" font-size="10.00">mom_diag_mediator::</text>
<text text-anchor="start" x="574.5" y="-143.5" font-family="Helvetica,sans-Serif" font-size="10.00">register_diag_field</text>
<text text-anchor="middle" x="614" y="-132.5" font-family="Helvetica,sans-Serif" font-size="10.00">_expand_axes</text>
</a>
</g>
</g>
<!-- Node56&#45;&gt;Node66 -->
<g id="edge25" class="edge"><title>Node56&#45;&gt;Node66</title>
<path fill="none" stroke="midnightblue" d="M522.764,-129.534C533.566,-131.505 545.171,-133.623 556.344,-135.661"/>
<polygon fill="midnightblue" stroke="midnightblue" points="555.98,-139.153 566.446,-137.505 557.237,-132.266 555.98,-139.153"/>
</g>
<!-- Node58 -->
<g id="node11" class="node"><title>Node58</title>
<g id="a_node11"><a xlink:href="namespacemom__diag__mediator.html#a1b0bed2113a0c268eafd1bafbb48bd4f" target="_top" xlink:title=" ">
<polygon fill="white" stroke="black" points="698.5,-213 698.5,-243 793.5,-243 793.5,-213 698.5,-213"/>
<text text-anchor="start" x="706.5" y="-231" font-family="Helvetica,sans-Serif" font-size="10.00">mom_diag_mediator::</text>
<text text-anchor="middle" x="746" y="-220" font-family="Helvetica,sans-Serif" font-size="10.00">alloc_diag_with_id</text>
</a>
</g>
</g>
<!-- Node57&#45;&gt;Node58 -->
<g id="edge13" class="edge"><title>Node57&#45;&gt;Node58</title>
<path fill="none" stroke="midnightblue" d="M661.566,-210.671C670.247,-212.474 679.406,-214.377 688.351,-216.235"/>
<polygon fill="midnightblue" stroke="midnightblue" points="687.82,-219.699 698.322,-218.305 689.243,-212.845 687.82,-219.699"/>
</g>
<!-- Node59 -->
<g id="node12" class="node"><title>Node59</title>
<g id="a_node12"><a xlink:href="namespacemom__error__handler.html#a33bcd190d460095104954f2e654f9fe6" target="_top" xlink:title="Issues a FATAL error if the assertion fails, i.e. the first argument is false.">
<polygon fill="white" stroke="black" points="831.5,-213 831.5,-243 924.5,-243 924.5,-213 831.5,-213"/>
<text text-anchor="start" x="839.5" y="-231" font-family="Helvetica,sans-Serif" font-size="10.00">mom_error_handler::</text>
<text text-anchor="middle" x="878" y="-220" font-family="Helvetica,sans-Serif" font-size="10.00">assert</text>
</a>
</g>
</g>
<!-- Node57&#45;&gt;Node59 -->
<g id="edge14" class="edge"><title>Node57&#45;&gt;Node59</title>
<path fill="none" stroke="midnightblue" d="M643.981,-185.933C649.975,-182.72 656.221,-179.299 662,-176 678.285,-166.704 679.95,-159.079 698,-154 739.072,-142.444 754.13,-138.807 794,-154 820.51,-164.102 843.935,-186.99 859.081,-204.657"/>
<polygon fill="midnightblue" stroke="midnightblue" points="856.763,-207.347 865.828,-212.831 862.161,-202.891 856.763,-207.347"/>
</g>
<!-- Node60 -->
<g id="node13" class="node"><title>Node60</title>
<g id="a_node13"><a xlink:href="namespacemom__diag__mediator.html#a3f7442639213320f7429e2288a79fda2" target="_top" xlink:title="Returns a new diagnostic id, it may be necessary to expand the diagnostics array.">
<polygon fill="white" stroke="black" points="698.5,-262 698.5,-292 793.5,-292 793.5,-262 698.5,-262"/>
<text text-anchor="start" x="706.5" y="-280" font-family="Helvetica,sans-Serif" font-size="10.00">mom_diag_mediator::</text>
<text text-anchor="middle" x="746" y="-269" font-family="Helvetica,sans-Serif" font-size="10.00">get_new_diag_id</text>
</a>
</g>
</g>
<!-- Node57&#45;&gt;Node60 -->
<g id="edge16" class="edge"><title>Node57&#45;&gt;Node60</title>
<path fill="none" stroke="midnightblue" d="M638.736,-216.127C655.208,-226.491 677.745,-240.405 698,-252 700.978,-253.705 704.08,-255.441 707.209,-257.163"/>
<polygon fill="midnightblue" stroke="midnightblue" points="705.554,-260.247 716.012,-261.944 708.895,-254.096 705.554,-260.247"/>
</g>
<!-- Node62 -->
<g id="node15" class="node"><title>Node62</title>
<g id="a_node15"><a xlink:href="namespacemom__diag__mediator.html#a085f313357879a914af6450f2ab8ec79" target="_top" xlink:title="Associates the mask pointers within diag with the appropriate mask based on the axes group.">
<polygon fill="white" stroke="black" points="698.5,-164 698.5,-194 793.5,-194 793.5,-164 698.5,-164"/>
<text text-anchor="start" x="706.5" y="-182" font-family="Helvetica,sans-Serif" font-size="10.00">mom_diag_mediator::</text>
<text text-anchor="middle" x="746" y="-171" font-family="Helvetica,sans-Serif" font-size="10.00">set_diag_mask</text>
</a>
</g>
</g>
<!-- Node57&#45;&gt;Node62 -->
<g id="edge19" class="edge"><title>Node57&#45;&gt;Node62</title>
<path fill="none" stroke="midnightblue" d="M661.566,-193.12C670.247,-191.651 679.406,-190.1 688.351,-188.587"/>
<polygon fill="midnightblue" stroke="midnightblue" points="689.047,-192.019 698.322,-186.899 687.879,-185.117 689.047,-192.019"/>
</g>
<!-- Node59&#45;&gt;Node51 -->
<g id="edge15" class="edge"><title>Node59&#45;&gt;Node51</title>
<path fill="none" stroke="midnightblue" d="M910.91,-243.048C916.069,-245.832 921.267,-248.859 926,-252 946.991,-265.928 968.716,-284.425 984.527,-298.761"/>
<polygon fill="midnightblue" stroke="midnightblue" points="982.489,-301.642 992.22,-305.833 987.226,-296.489 982.489,-301.642"/>
</g>
<!-- Node60&#45;&gt;Node59 -->
<g id="edge17" class="edge"><title>Node60&#45;&gt;Node59</title>
<path fill="none" stroke="midnightblue" d="M787.065,-261.899C799.792,-257.101 814.022,-251.738 827.341,-246.718"/>
<polygon fill="midnightblue" stroke="midnightblue" points="828.721,-249.938 836.843,-243.136 826.252,-243.388 828.721,-249.938"/>
</g>
<!-- Node61 -->
<g id="node14" class="node"><title>Node61</title>
<g id="a_node14"><a xlink:href="namespacemom__diag__mediator.html#a883862f004e30bbc5211f38635511ba0" target="_top" xlink:title="Initializes a diag_type (used after allocating new memory)">
<polygon fill="white" stroke="black" points="830.5,-262 830.5,-292 925.5,-292 925.5,-262 830.5,-262"/>
<text text-anchor="start" x="838.5" y="-280" font-family="Helvetica,sans-Serif" font-size="10.00">mom_diag_mediator::</text>
<text text-anchor="middle" x="878" y="-269" font-family="Helvetica,sans-Serif" font-size="10.00">initialize_diag_type</text>
</a>
</g>
</g>
<!-- Node60&#45;&gt;Node61 -->
<g id="edge18" class="edge"><title>Node60&#45;&gt;Node61</title>
<path fill="none" stroke="midnightblue" d="M793.566,-277C802.154,-277 811.21,-277 820.063,-277"/>
<polygon fill="midnightblue" stroke="midnightblue" points="820.322,-280.5 830.322,-277 820.322,-273.5 820.322,-280.5"/>
</g>
<!-- Node63&#45;&gt;Node51 -->
<g id="edge21" class="edge"><title>Node63&#45;&gt;Node51</title>
<path fill="none" stroke="midnightblue" d="M890.766,-156.156C900.382,-168.629 914.255,-186.823 926,-203 949.523,-235.4 975.781,-273.555 992.099,-297.513"/>
<polygon fill="midnightblue" stroke="midnightblue" points="989.324,-299.656 997.84,-305.959 995.113,-295.721 989.324,-299.656"/>
</g>
<!-- Node65 -->
<g id="node18" class="node"><title>Node65</title>
<g id="a_node18"><a xlink:href="namespacemom__diag__mediator.html#ae002ca447acba252bf7bdc042e75a01e" target="_top" xlink:title=" ">
<polygon fill="white" stroke="black" points="698.5,-0 698.5,-30 793.5,-30 793.5,-0 698.5,-0"/>
<text text-anchor="start" x="706.5" y="-18" font-family="Helvetica,sans-Serif" font-size="10.00">mom_diag_mediator::</text>
<text text-anchor="middle" x="746" y="-7" font-family="Helvetica,sans-Serif" font-size="10.00">describe_option</text>
</a>
</g>
</g>
<!-- Node64&#45;&gt;Node65 -->
<g id="edge24" class="edge"><title>Node64&#45;&gt;Node65</title>
<path fill="none" stroke="midnightblue" d="M661.566,-15C670.154,-15 679.21,-15 688.063,-15"/>
<polygon fill="midnightblue" stroke="midnightblue" points="688.322,-18.5001 698.322,-15 688.322,-11.5001 688.322,-18.5001"/>
</g>
<!-- Node67&#45;&gt;Node54 -->
<g id="edge28" class="edge"><title>Node67&#45;&gt;Node54</title>
<path fill="none" stroke="midnightblue" d="M240.148,-423.956C255.981,-419.206 273.291,-414.013 288.454,-409.464"/>
<polygon fill="midnightblue" stroke="midnightblue" points="289.499,-412.804 298.072,-406.578 287.488,-406.1 289.499,-412.804"/>
</g>
<!-- Node67&#45;&gt;Node51 -->
<g id="edge29" class="edge"><title>Node67&#45;&gt;Node51</title>
<path fill="none" stroke="midnightblue" d="M241.564,-438.709C298.469,-438.414 392.769,-438 474,-438 474,-438 474,-438 747,-438 839.601,-438 935.787,-375.916 981.199,-342.198"/>
<polygon fill="midnightblue" stroke="midnightblue" points="983.46,-344.876 989.331,-336.056 979.242,-339.29 983.46,-344.876"/>
</g>
</g>
</svg>
        <g id="navigator" transform="translate(0 0)" fill="#404254">
                <rect fill="#f2f5e9" fill-opacity="0.5" stroke="#606060" stroke-width=".5" x="0" y="0" width="60" height="60"/>
                <use id="zoomplus" xlink:href="#zoomPlus" x="17" y="9" onmousedown="handleZoom(evt,'in')"/>
                <use id="zoomminus" xlink:href="#zoomMin" x="42" y="9" onmousedown="handleZoom(evt,'out')"/>
                <use id="reset" xlink:href="#resetDef" x="30" y="36" onmousedown="handleReset()"/>
                <g id="arrowUp" xlink:href="#dirArrow" transform="translate(30 24)" onmousedown="handlePan(0,-1)">
                  <use xlink:href="#rim" fill="#404040">
                        <set attributeName="fill" to="#808080" begin="arrowUp.mouseover" end="arrowUp.mouseout"/>
                  </use>
                  <path fill="none" stroke="white" stroke-width="1.5" d="M0,-3.0v7 M-2.5,-0.5L0,-3.0L2.5,-0.5"/>
                </g>
                <g id="arrowRight" xlink:href="#dirArrow" transform="rotate(90) translate(36 -43)" onmousedown="handlePan(1,0)">
                  <use xlink:href="#rim" fill="#404040">
                        <set attributeName="fill" to="#808080" begin="arrowRight.mouseover" end="arrowRight.mouseout"/>
                  </use>
                  <path fill="none" stroke="white" stroke-width="1.5" d="M0,-3.0v7 M-2.5,-0.5L0,-3.0L2.5,-0.5"/>
                </g>
                <g id="arrowDown" xlink:href="#dirArrow" transform="rotate(180) translate(-30 -48)" onmousedown="handlePan(0,1)">
                  <use xlink:href="#rim" fill="#404040">
                        <set attributeName="fill" to="#808080" begin="arrowDown.mouseover" end="arrowDown.mouseout"/>
                  </use>
                  <path fill="none" stroke="white" stroke-width="1.5" d="M0,-3.0v7 M-2.5,-0.5L0,-3.0L2.5,-0.5"/>
                </g>
                <g id="arrowLeft" xlink:href="#dirArrow" transform="rotate(270) translate(-36 17)" onmousedown="handlePan(-1,0)">
                  <use xlink:href="#rim" fill="#404040">
                        <set attributeName="fill" to="#808080" begin="arrowLeft.mouseover" end="arrowLeft.mouseout"/>
                  </use>
                  <path fill="none" stroke="white" stroke-width="1.5" d="M0,-3.0v7 M-2.5,-0.5L0,-3.0L2.5,-0.5"/>
                </g>
        </g>
        <svg viewBox="0 0 15 15" width="100%" height="30px" preserveAspectRatio="xMaxYMin meet">
         <g id="arrow_out" transform="scale(0.3 0.3)">
          <a xlink:href="namespacemom__diag__to__z_a90526b2f59f94c6af2f525a221029772_cgraph_org.svg" target="_base">
           <rect id="button" ry="5" rx="5" y="6" x="6" height="38" width="38"
                fill="#f2f5e9" fill-opacity="0.5" stroke="#606060" stroke-width="1.0"/>
           <path id="arrow"
             d="M 11.500037,31.436501 C 11.940474,20.09759 22.043105,11.32322 32.158766,21.979434 L 37.068811,17.246167 C 37.068811,17.246167 37.088388,32 37.088388,32 L 22.160133,31.978069 C 22.160133,31.978069 26.997745,27.140456 26.997745,27.140456 C 18.528582,18.264221 13.291696,25.230495 11.500037,31.436501 z"
             style="fill:#404040;"/>
          </a>
         </g>
        </svg>
</svg>
