<?xml version="1.0" encoding="UTF-8" standalone="no"?>
<!DOCTYPE svg PUBLIC "-//W3C//DTD SVG 1.1//EN"
 "http://www.w3.org/Graphics/SVG/1.1/DTD/svg11.dtd">
<!-- Generated by graphviz version 2.30.1 (20170916.1124)
 -->
<!-- Title: mom_diag_to_z::register_z_tracer Pages: 1 -->
<svg width="260pt" height="526pt"
 viewBox="0.00 0.00 260.00 526.00" xmlns="http://www.w3.org/2000/svg" xmlns:xlink="http://www.w3.org/1999/xlink">
<g id="graph0" class="graph" transform="scale(1 1) rotate(0) translate(4 522)">
<title>mom_diag_to_z::register_z_tracer</title>
<polygon fill="white" stroke="white" points="-4,5 -4,-522 257,-522 257,5 -4,5"/>
<!-- Node80 -->
<g id="node1" class="node"><title>Node80</title>
<g id="a_node1"><a xlink:title=" ">
<polygon fill="#bfbfbf" stroke="black" points="146.5,-235 146.5,-265 251.5,-265 251.5,-235 146.5,-235"/>
<text text-anchor="start" x="154.5" y="-253" font-family="Helvetica,sans-Serif" font-size="10.00">mom_diag_to_z::register</text>
<text text-anchor="middle" x="199" y="-242" font-family="Helvetica,sans-Serif" font-size="10.00">_z_tracer</text>
</a>
</g>
</g>
<!-- Node81 -->
<g id="node2" class="node"><title>Node81</title>
<g id="a_node2"><a xlink:href="namespaceadvection__test__tracer.html#adad96933565e1ee601662052ad3f6943" target="_top" xlink:title=" ">
<polygon fill="white" stroke="black" points="8.5,-476.5 8.5,-517.5 101.5,-517.5 101.5,-476.5 8.5,-476.5"/>
<text text-anchor="start" x="16.5" y="-505.5" font-family="Helvetica,sans-Serif" font-size="10.00">advection_test_tracer</text>
<text text-anchor="start" x="16.5" y="-494.5" font-family="Helvetica,sans-Serif" font-size="10.00">::initialize_advection</text>
<text text-anchor="middle" x="55" y="-483.5" font-family="Helvetica,sans-Serif" font-size="10.00">_test_tracer</text>
</a>
</g>
</g>
<!-- Node80&#45;&gt;Node81 -->
<g id="edge1" class="edge"><title>Node80&#45;&gt;Node81</title>
<path fill="none" stroke="midnightblue" d="M193.468,-275.319C184.5,-319.063 160.794,-409.608 110,-467 106.944,-470.453 103.391,-473.593 99.5938,-476.427"/>
<polygon fill="midnightblue" stroke="midnightblue" points="196.952,-275.74 195.438,-265.254 190.082,-274.396 196.952,-275.74"/>
</g>
<!-- Node82 -->
<g id="node3" class="node"><title>Node82</title>
<g id="a_node3"><a xlink:href="namespaceboundary__impulse__tracer.html#a3e9d605e0a7bed7bb6028cb916ded161" target="_top" xlink:title="Initialize tracer from restart or set to 1 at surface to initialize.">
<polygon fill="white" stroke="black" points="1.5,-416.5 1.5,-457.5 108.5,-457.5 108.5,-416.5 1.5,-416.5"/>
<text text-anchor="start" x="9.5" y="-445.5" font-family="Helvetica,sans-Serif" font-size="10.00">boundary_impulse_tracer</text>
<text text-anchor="start" x="9.5" y="-434.5" font-family="Helvetica,sans-Serif" font-size="10.00">::initialize_boundary</text>
<text text-anchor="middle" x="55" y="-423.5" font-family="Helvetica,sans-Serif" font-size="10.00">_impulse_tracer</text>
</a>
</g>
</g>
<!-- Node80&#45;&gt;Node82 -->
<g id="edge2" class="edge"><title>Node80&#45;&gt;Node82</title>
<path fill="none" stroke="midnightblue" d="M189.045,-274.396C175.91,-307.505 148.71,-366.998 110,-406 106.269,-409.76 101.987,-413.216 97.5033,-416.347"/>
<polygon fill="midnightblue" stroke="midnightblue" points="192.329,-275.61 192.667,-265.02 185.799,-273.087 192.329,-275.61"/>
</g>
<!-- Node83 -->
<g id="node4" class="node"><title>Node83</title>
<g id="a_node4"><a xlink:href="namespacedome__tracer.html#acbbc86d4dbc4997c0cd55aa498d2c668" target="_top" xlink:title=" ">
<polygon fill="white" stroke="black" points="8,-367 8,-397 102,-397 102,-367 8,-367"/>
<text text-anchor="start" x="16" y="-385" font-family="Helvetica,sans-Serif" font-size="10.00">dome_tracer::initialize</text>
<text text-anchor="middle" x="55" y="-374" font-family="Helvetica,sans-Serif" font-size="10.00">_dome_tracer</text>
</a>
</g>
</g>
<!-- Node80&#45;&gt;Node83 -->
<g id="edge3" class="edge"><title>Node80&#45;&gt;Node83</title>
<path fill="none" stroke="midnightblue" d="M183.148,-273.707C167.376,-297.329 140.542,-333.392 110,-357 105.178,-360.728 99.7097,-364.065 94.15,-366.994"/>
<polygon fill="midnightblue" stroke="midnightblue" points="186.092,-275.6 188.635,-265.315 180.233,-271.769 186.092,-275.6"/>
</g>
<!-- Node84 -->
<g id="node5" class="node"><title>Node84</title>
<g id="a_node5"><a xlink:href="namespaceregional__dyes.html#aeef37afe2f348fc7d94fe977d74d6d0b" target="_top" xlink:title=" ">
<polygon fill="white" stroke="black" points="6,-318 6,-348 104,-348 104,-318 6,-318"/>
<text text-anchor="start" x="14" y="-336" font-family="Helvetica,sans-Serif" font-size="10.00">regional_dyes::initialize</text>
<text text-anchor="middle" x="55" y="-325" font-family="Helvetica,sans-Serif" font-size="10.00">_dye_tracer</text>
</a>
</g>
</g>
<!-- Node80&#45;&gt;Node84 -->
<g id="edge4" class="edge"><title>Node80&#45;&gt;Node84</title>
<path fill="none" stroke="midnightblue" d="M168.563,-270.993C151.785,-282.549 130.147,-296.779 110,-308 103.863,-311.418 97.1757,-314.784 90.6641,-317.885"/>
<polygon fill="midnightblue" stroke="midnightblue" points="170.649,-273.806 176.861,-265.223 166.652,-268.058 170.649,-273.806"/>
</g>
<!-- Node85 -->
<g id="node6" class="node"><title>Node85</title>
<g id="a_node6"><a xlink:href="namespaceideal__age__example.html#abec4db7c44f7a6d5c891a6d8a17a99b3" target="_top" xlink:title=" ">
<polygon fill="white" stroke="black" points="10,-257.5 10,-298.5 100,-298.5 100,-257.5 10,-257.5"/>
<text text-anchor="start" x="18" y="-286.5" font-family="Helvetica,sans-Serif" font-size="10.00">ideal_age_example::</text>
<text text-anchor="start" x="18" y="-275.5" font-family="Helvetica,sans-Serif" font-size="10.00">initialize_ideal_age</text>
<text text-anchor="middle" x="55" y="-264.5" font-family="Helvetica,sans-Serif" font-size="10.00">_tracer</text>
</a>
</g>
</g>
<!-- Node80&#45;&gt;Node85 -->
<g id="edge5" class="edge"><title>Node80&#45;&gt;Node85</title>
<path fill="none" stroke="midnightblue" d="M136.296,-262.167C124.208,-264.551 111.754,-267.006 100.368,-269.251"/>
<polygon fill="midnightblue" stroke="midnightblue" points="137.199,-265.556 146.333,-260.188 135.845,-258.689 137.199,-265.556"/>
</g>
<!-- Node86 -->
<g id="node7" class="node"><title>Node86</title>
<g id="a_node7"><a xlink:href="namespaceisomip__tracer.html#a6083b2b081277f46013d9a22b32b7741" target="_top" xlink:title="Initializes the NTR tracer fields in tr(:,:,:,:)">
<polygon fill="white" stroke="black" points="7,-208 7,-238 103,-238 103,-208 7,-208"/>
<text text-anchor="start" x="15" y="-226" font-family="Helvetica,sans-Serif" font-size="10.00">isomip_tracer::initialize</text>
<text text-anchor="middle" x="55" y="-215" font-family="Helvetica,sans-Serif" font-size="10.00">_isomip_tracer</text>
</a>
</g>
</g>
<!-- Node80&#45;&gt;Node86 -->
<g id="edge6" class="edge"><title>Node80&#45;&gt;Node86</title>
<path fill="none" stroke="midnightblue" d="M136.258,-238.26C125.159,-236.15 113.753,-233.981 103.15,-231.965"/>
<polygon fill="midnightblue" stroke="midnightblue" points="135.855,-241.746 146.333,-240.176 137.163,-234.87 135.855,-241.746"/>
</g>
<!-- Node87 -->
<g id="node8" class="node"><title>Node87</title>
<g id="a_node8"><a xlink:href="namespacemom__ocmip2__cfc.html#a0c916b2f0835bd79002803f246d2ef49" target="_top" xlink:title=" ">
<polygon fill="white" stroke="black" points="0,-159 0,-189 110,-189 110,-159 0,-159"/>
<text text-anchor="start" x="8" y="-177" font-family="Helvetica,sans-Serif" font-size="10.00">mom_ocmip2_cfc::initialize</text>
<text text-anchor="middle" x="55" y="-166" font-family="Helvetica,sans-Serif" font-size="10.00">_ocmip2_cfc</text>
</a>
</g>
</g>
<!-- Node80&#45;&gt;Node87 -->
<g id="edge7" class="edge"><title>Node80&#45;&gt;Node87</title>
<path fill="none" stroke="midnightblue" d="M164.672,-229.719C148.383,-220.056 128.375,-208.552 110,-199 103.584,-195.664 96.6387,-192.284 89.934,-189.132"/>
<polygon fill="midnightblue" stroke="midnightblue" points="162.924,-232.752 173.305,-234.873 166.513,-226.742 162.924,-232.752"/>
</g>
<!-- Node88 -->
<g id="node9" class="node"><title>Node88</title>
<g id="a_node9"><a xlink:href="namespaceoil__tracer.html#a2bb5dd516d506706c1e67e1206e389b5" target="_top" xlink:title=" ">
<polygon fill="white" stroke="black" points="14.5,-110 14.5,-140 95.5,-140 95.5,-110 14.5,-110"/>
<text text-anchor="start" x="22.5" y="-128" font-family="Helvetica,sans-Serif" font-size="10.00">oil_tracer::initialize</text>
<text text-anchor="middle" x="55" y="-117" font-family="Helvetica,sans-Serif" font-size="10.00">_oil_tracer</text>
</a>
</g>
</g>
<!-- Node80&#45;&gt;Node88 -->
<g id="edge8" class="edge"><title>Node80&#45;&gt;Node88</title>
<path fill="none" stroke="midnightblue" d="M181.793,-226.507C165.647,-204.471 139.119,-171.742 110,-150 105.033,-146.291 99.4283,-142.948 93.7572,-140.002"/>
<polygon fill="midnightblue" stroke="midnightblue" points="178.979,-228.587 187.656,-234.666 184.663,-224.503 178.979,-228.587"/>
</g>
<!-- Node89 -->
<g id="node10" class="node"><title>Node89</title>
<g id="a_node10"><a xlink:href="namespacepseudo__salt__tracer.html#adaef10fff7bd433eab35152075b3f166" target="_top" xlink:title=" ">
<polygon fill="white" stroke="black" points="12.5,-49.5 12.5,-90.5 97.5,-90.5 97.5,-49.5 12.5,-49.5"/>
<text text-anchor="start" x="20.5" y="-78.5" font-family="Helvetica,sans-Serif" font-size="10.00">pseudo_salt_tracer</text>
<text text-anchor="start" x="20.5" y="-67.5" font-family="Helvetica,sans-Serif" font-size="10.00">::initialize_pseudo</text>
<text text-anchor="middle" x="55" y="-56.5" font-family="Helvetica,sans-Serif" font-size="10.00">_salt_tracer</text>
</a>
</g>
</g>
<!-- Node80&#45;&gt;Node89 -->
<g id="edge9" class="edge"><title>Node80&#45;&gt;Node89</title>
<path fill="none" stroke="midnightblue" d="M188.181,-225.322C174.527,-193.465 147.224,-137.767 110,-101 106.155,-97.2018 101.751,-93.7046 97.1549,-90.5359"/>
<polygon fill="midnightblue" stroke="midnightblue" points="185.045,-226.895 192.13,-234.773 191.504,-224.197 185.045,-226.895"/>
</g>
<!-- Node90 -->
<g id="node11" class="node"><title>Node90</title>
<g id="a_node11"><a xlink:href="namespaceuser__tracer__example.html#a16d417b6068f44605caf3573bf5f4de9" target="_top" xlink:title=" ">
<polygon fill="white" stroke="black" points="8,-0 8,-30 102,-30 102,-0 8,-0"/>
<text text-anchor="start" x="16" y="-18" font-family="Helvetica,sans-Serif" font-size="10.00">user_tracer_example</text>
<text text-anchor="middle" x="55" y="-7" font-family="Helvetica,sans-Serif" font-size="10.00">::user_initialize_tracer</text>
</a>
</g>
</g>
<!-- Node80&#45;&gt;Node90 -->
<g id="edge10" class="edge"><title>Node80&#45;&gt;Node90</title>
<path fill="none" stroke="midnightblue" d="M193.661,-225.105C184.988,-182.171 161.718,-93.6556 110,-40 106.344,-36.2066 102.001,-32.9324 97.3903,-30.1211"/>
<polygon fill="midnightblue" stroke="midnightblue" points="190.236,-225.83 195.56,-234.99 197.11,-224.509 190.236,-225.83"/>
</g>
</g>
</svg>
