<?xml version="1.0" encoding="UTF-8" standalone="no"?>
<!DOCTYPE svg PUBLIC "-//W3C//DTD SVG 1.1//EN"
 "http://www.w3.org/Graphics/SVG/1.1/DTD/svg11.dtd">
<!-- Generated by graphviz version 2.30.1 (20170916.1124)
 -->
<!-- Title: p3m_functions::build_cubic_interpolant Pages: 1 -->
<svg width="1088pt" height="137pt"
 viewBox="0.00 0.00 1088.00 137.00" xmlns="http://www.w3.org/2000/svg" xmlns:xlink="http://www.w3.org/1999/xlink">
<g id="graph0" class="graph" transform="scale(1 1) rotate(0) translate(4 133)">
<title>p3m_functions::build_cubic_interpolant</title>
<polygon fill="white" stroke="white" points="-4,5 -4,-133 1085,-133 1085,5 -4,5"/>
<!-- Node1 -->
<g id="node1" class="node"><title>Node1</title>
<g id="a_node1"><a xlink:title=" ">
<polygon fill="#bfbfbf" stroke="black" points="990.5,-49 990.5,-79 1079.5,-79 1079.5,-49 990.5,-49"/>
<text text-anchor="start" x="998.5" y="-67" font-family="Helvetica,sans-Serif" font-size="10.00">p3m_functions::build</text>
<text text-anchor="middle" x="1035" y="-56" font-family="Helvetica,sans-Serif" font-size="10.00">_cubic_interpolant</text>
</a>
</g>
</g>
<!-- Node2 -->
<g id="node2" class="node"><title>Node2</title>
<g id="a_node2"><a xlink:href="namespacep3m__functions.html#a1c48a9ed2f3ee6a192f99cbded1298ce" target="_top" xlink:title=" ">
<polygon fill="white" stroke="black" points="722.5,-74 722.5,-104 827.5,-104 827.5,-74 722.5,-74"/>
<text text-anchor="start" x="730.5" y="-92" font-family="Helvetica,sans-Serif" font-size="10.00">p3m_functions::p3m</text>
<text text-anchor="middle" x="775" y="-81" font-family="Helvetica,sans-Serif" font-size="10.00">_boundary_extrapolation</text>
</a>
</g>
</g>
<!-- Node1&#45;&gt;Node2 -->
<g id="edge1" class="edge"><title>Node1&#45;&gt;Node2</title>
<path fill="none" stroke="midnightblue" d="M980.104,-69.2225C935.228,-73.5709 871.747,-79.7222 827.539,-84.0059"/>
<polygon fill="midnightblue" stroke="midnightblue" points="980.618,-72.6892 990.234,-68.2409 979.943,-65.7218 980.618,-72.6892"/>
</g>
<!-- Node12 -->
<g id="node12" class="node"><title>Node12</title>
<g id="a_node12"><a xlink:href="namespacep3m__functions.html#a377fa3f7b5caf101d47fa0d4c9b84f64" target="_top" xlink:title=" ">
<polygon fill="white" stroke="black" points="864.5,-27 864.5,-57 953.5,-57 953.5,-27 864.5,-27"/>
<text text-anchor="start" x="872.5" y="-45" font-family="Helvetica,sans-Serif" font-size="10.00">p3m_functions::p3m</text>
<text text-anchor="middle" x="909" y="-34" font-family="Helvetica,sans-Serif" font-size="10.00">_limiter</text>
</a>
</g>
</g>
<!-- Node1&#45;&gt;Node12 -->
<g id="edge13" class="edge"><title>Node1&#45;&gt;Node12</title>
<path fill="none" stroke="midnightblue" d="M980.379,-54.4866C971.484,-52.9084 962.354,-51.2887 953.741,-49.7605"/>
<polygon fill="midnightblue" stroke="midnightblue" points="979.825,-57.9428 990.282,-56.2436 981.047,-51.0504 979.825,-57.9428"/>
</g>
<!-- Node3 -->
<g id="node3" class="node"><title>Node3</title>
<g id="a_node3"><a xlink:href="namespacemom__regridding.html#a580e775df53e4bb61f118fcab44a3f92" target="_top" xlink:title="Given the set of target values and cell densities, this routine builds an interpolated profile for th...">
<polygon fill="white" stroke="black" points="570,-49 570,-79 686,-79 686,-49 570,-49"/>
<text text-anchor="start" x="578" y="-67" font-family="Helvetica,sans-Serif" font-size="10.00">mom_regridding::regridding</text>
<text text-anchor="middle" x="628" y="-56" font-family="Helvetica,sans-Serif" font-size="10.00">_set_ppolys</text>
</a>
</g>
</g>
<!-- Node2&#45;&gt;Node3 -->
<g id="edge2" class="edge"><title>Node2&#45;&gt;Node3</title>
<path fill="none" stroke="midnightblue" d="M712.421,-78.3829C703.751,-76.888 694.867,-75.3564 686.282,-73.8762"/>
<polygon fill="midnightblue" stroke="midnightblue" points="712.021,-81.8655 722.47,-80.1155 713.21,-74.9673 712.021,-81.8655"/>
</g>
<!-- Node4 -->
<g id="node4" class="node"><title>Node4</title>
<g id="a_node4"><a xlink:href="namespacemom__regridding.html#acbe376c457e1ea0c4514b948cbf5144b" target="_top" xlink:title=" ">
<polygon fill="white" stroke="black" points="438,-98 438,-128 534,-128 534,-98 438,-98"/>
<text text-anchor="start" x="446" y="-116" font-family="Helvetica,sans-Serif" font-size="10.00">mom_regridding::build</text>
<text text-anchor="middle" x="486" y="-105" font-family="Helvetica,sans-Serif" font-size="10.00">_hycom1_column</text>
</a>
</g>
</g>
<!-- Node3&#45;&gt;Node4 -->
<g id="edge3" class="edge"><title>Node3&#45;&gt;Node4</title>
<path fill="none" stroke="midnightblue" d="M574.041,-82.5355C559.583,-87.5959 544.092,-93.0177 530.245,-97.8641"/>
<polygon fill="midnightblue" stroke="midnightblue" points="575.571,-85.7085 583.853,-79.1014 573.258,-79.1015 575.571,-85.7085"/>
</g>
<!-- Node7 -->
<g id="node7" class="node"><title>Node7</title>
<g id="a_node7"><a xlink:href="namespacemom__regridding.html#a799aacb5c6e7ab70f8177ca8b4a5330b" target="_top" xlink:title=" ">
<polygon fill="white" stroke="black" points="438,-49 438,-79 534,-79 534,-49 438,-49"/>
<text text-anchor="start" x="446" y="-67" font-family="Helvetica,sans-Serif" font-size="10.00">mom_regridding::build</text>
<text text-anchor="middle" x="486" y="-56" font-family="Helvetica,sans-Serif" font-size="10.00">_rho_column</text>
</a>
</g>
</g>
<!-- Node3&#45;&gt;Node7 -->
<g id="edge6" class="edge"><title>Node3&#45;&gt;Node7</title>
<path fill="none" stroke="midnightblue" d="M559.627,-64C551.039,-64 542.399,-64 534.224,-64"/>
<polygon fill="midnightblue" stroke="midnightblue" points="559.653,-67.5001 569.653,-64 559.653,-60.5001 559.653,-67.5001"/>
</g>
<!-- Node9 -->
<g id="node9" class="node"><title>Node9</title>
<g id="a_node9"><a xlink:href="namespacemom__regridding.html#aacf680ddf88e9c41a340dd426272906d" target="_top" xlink:title="Finds the new interface locations in a column of water that match the prescribed target densities.">
<polygon fill="white" stroke="black" points="440,-0 440,-30 532,-30 532,-0 440,-0"/>
<text text-anchor="start" x="448" y="-18" font-family="Helvetica,sans-Serif" font-size="10.00">mom_regridding::rho</text>
<text text-anchor="middle" x="486" y="-7" font-family="Helvetica,sans-Serif" font-size="10.00">_interfaces_col</text>
</a>
</g>
</g>
<!-- Node3&#45;&gt;Node9 -->
<g id="edge9" class="edge"><title>Node3&#45;&gt;Node9</title>
<path fill="none" stroke="midnightblue" d="M574.041,-45.4645C559.583,-40.4041 544.092,-34.9823 530.245,-30.1359"/>
<polygon fill="midnightblue" stroke="midnightblue" points="573.258,-48.8985 583.853,-48.8986 575.571,-42.2915 573.258,-48.8985"/>
</g>
<!-- Node5 -->
<g id="node5" class="node"><title>Node5</title>
<g id="a_node5"><a xlink:href="namespacemom__regridding.html#a3375da62433b875eed537feeba1ae1b3" target="_top" xlink:title="Builds a simple HyCOM&#45;like grid with the deepest location of potential density interpolated from the ...">
<polygon fill="white" stroke="black" points="174,-94 174,-124 270,-124 270,-94 174,-94"/>
<text text-anchor="start" x="182" y="-112" font-family="Helvetica,sans-Serif" font-size="10.00">mom_regridding::build</text>
<text text-anchor="middle" x="222" y="-101" font-family="Helvetica,sans-Serif" font-size="10.00">_grid_hycom1</text>
</a>
</g>
</g>
<!-- Node4&#45;&gt;Node5 -->
<g id="edge4" class="edge"><title>Node4&#45;&gt;Node5</title>
<path fill="none" stroke="midnightblue" d="M427.79,-112.127C380.59,-111.406 314.423,-110.396 270.206,-109.721"/>
<polygon fill="midnightblue" stroke="midnightblue" points="427.805,-115.627 437.857,-112.28 427.912,-108.628 427.805,-115.627"/>
</g>
<!-- Node6 -->
<g id="node6" class="node"><title>Node6</title>
<g id="a_node6"><a xlink:href="namespacemom__regridding.html#abf6d4e0d14c8b3b69fa4ffca42122c5f" target="_top" xlink:title=" ">
<polygon fill="white" stroke="black" points="0.5,-54.5 0.5,-73.5 137.5,-73.5 137.5,-54.5 0.5,-54.5"/>
<text text-anchor="middle" x="69" y="-61.5" font-family="Helvetica,sans-Serif" font-size="10.00">mom_regridding::regridding_main</text>
</a>
</g>
</g>
<!-- Node5&#45;&gt;Node6 -->
<g id="edge5" class="edge"><title>Node5&#45;&gt;Node6</title>
<path fill="none" stroke="midnightblue" d="M163.852,-91.969C142.879,-85.7188 119.894,-78.8692 101.921,-73.5128"/>
<polygon fill="midnightblue" stroke="midnightblue" points="163.054,-95.3833 173.637,-94.8852 165.053,-88.6749 163.054,-95.3833"/>
</g>
<!-- Node8 -->
<g id="node8" class="node"><title>Node8</title>
<g id="a_node8"><a xlink:href="namespacemom__regridding.html#a58a19305bbdab26bfa4f336dfac8c4f8" target="_top" xlink:title=" ">
<polygon fill="white" stroke="black" points="306,-49 306,-79 402,-79 402,-49 306,-49"/>
<text text-anchor="start" x="314" y="-67" font-family="Helvetica,sans-Serif" font-size="10.00">mom_regridding::build</text>
<text text-anchor="middle" x="354" y="-56" font-family="Helvetica,sans-Serif" font-size="10.00">_rho_grid</text>
</a>
</g>
</g>
<!-- Node7&#45;&gt;Node8 -->
<g id="edge7" class="edge"><title>Node7&#45;&gt;Node8</title>
<path fill="none" stroke="midnightblue" d="M427.461,-64C418.966,-64 410.297,-64 402.048,-64"/>
<polygon fill="midnightblue" stroke="midnightblue" points="427.699,-67.5001 437.699,-64 427.699,-60.5001 427.699,-67.5001"/>
</g>
<!-- Node8&#45;&gt;Node6 -->
<g id="edge8" class="edge"><title>Node8&#45;&gt;Node6</title>
<path fill="none" stroke="midnightblue" d="M295.905,-64C250.162,-64 185.872,-64 137.567,-64"/>
<polygon fill="midnightblue" stroke="midnightblue" points="295.951,-67.5001 305.951,-64 295.951,-60.5001 295.951,-67.5001"/>
</g>
<!-- Node10 -->
<g id="node10" class="node"><title>Node10</title>
<g id="a_node10"><a xlink:href="namespacemom__regridding.html#a5927168e530c06163baf3693a804e15f" target="_top" xlink:title=" ">
<polygon fill="white" stroke="black" points="306,-0 306,-30 402,-30 402,-0 306,-0"/>
<text text-anchor="start" x="314" y="-18" font-family="Helvetica,sans-Serif" font-size="10.00">mom_regridding::build</text>
<text text-anchor="middle" x="354" y="-7" font-family="Helvetica,sans-Serif" font-size="10.00">_slight_column</text>
</a>
</g>
</g>
<!-- Node9&#45;&gt;Node10 -->
<g id="edge10" class="edge"><title>Node9&#45;&gt;Node10</title>
<path fill="none" stroke="midnightblue" d="M429.72,-15C420.571,-15 411.16,-15 402.233,-15"/>
<polygon fill="midnightblue" stroke="midnightblue" points="429.897,-18.5001 439.897,-15 429.897,-11.5001 429.897,-18.5001"/>
</g>
<!-- Node11 -->
<g id="node11" class="node"><title>Node11</title>
<g id="a_node11"><a xlink:href="namespacemom__regridding.html#adbdde4ab6606ab76f64f57b7ee5dfdeb" target="_top" xlink:title="Builds a grid that tracks density interfaces for water that is denser than the surface density plus a...">
<polygon fill="white" stroke="black" points="174,-3 174,-33 270,-33 270,-3 174,-3"/>
<text text-anchor="start" x="182" y="-21" font-family="Helvetica,sans-Serif" font-size="10.00">mom_regridding::build</text>
<text text-anchor="middle" x="222" y="-10" font-family="Helvetica,sans-Serif" font-size="10.00">_grid_slight</text>
</a>
</g>
</g>
<!-- Node10&#45;&gt;Node11 -->
<g id="edge11" class="edge"><title>Node10&#45;&gt;Node11</title>
<path fill="none" stroke="midnightblue" d="M295.461,-16.3278C286.966,-16.5239 278.297,-16.7239 270.048,-16.9143"/>
<polygon fill="midnightblue" stroke="midnightblue" points="295.783,-19.8214 305.699,-16.0916 295.621,-12.8233 295.783,-19.8214"/>
</g>
<!-- Node11&#45;&gt;Node6 -->
<g id="edge12" class="edge"><title>Node11&#45;&gt;Node6</title>
<path fill="none" stroke="midnightblue" d="M164.065,-35.3446C142.854,-41.8059 119.56,-48.9021 101.459,-54.4164"/>
<polygon fill="midnightblue" stroke="midnightblue" points="165.091,-38.6908 173.637,-32.4285 163.051,-31.9946 165.091,-38.6908"/>
</g>
<!-- Node13 -->
<g id="node13" class="node"><title>Node13</title>
<g id="a_node13"><a xlink:href="namespacep3m__functions.html#a1769b4b4ced88bbd9f28e348a7bdeabc" target="_top" xlink:title=" ">
<polygon fill="white" stroke="black" points="730.5,-25 730.5,-55 819.5,-55 819.5,-25 730.5,-25"/>
<text text-anchor="start" x="738.5" y="-43" font-family="Helvetica,sans-Serif" font-size="10.00">p3m_functions::p3m</text>
<text text-anchor="middle" x="775" y="-32" font-family="Helvetica,sans-Serif" font-size="10.00">_interpolation</text>
</a>
</g>
</g>
<!-- Node12&#45;&gt;Node13 -->
<g id="edge14" class="edge"><title>Node12&#45;&gt;Node13</title>
<path fill="none" stroke="midnightblue" d="M854.401,-41.1879C842.81,-41.0123 830.691,-40.8286 819.542,-40.6597"/>
<polygon fill="midnightblue" stroke="midnightblue" points="854.361,-44.6876 864.412,-41.3396 854.467,-37.6884 854.361,-44.6876"/>
</g>
<!-- Node13&#45;&gt;Node3 -->
<g id="edge15" class="edge"><title>Node13&#45;&gt;Node3</title>
<path fill="none" stroke="midnightblue" d="M720.452,-48.8632C709.281,-50.7121 697.465,-52.6678 686.17,-54.5374"/>
<polygon fill="midnightblue" stroke="midnightblue" points="721.201,-52.2868 730.495,-47.2008 720.058,-45.3808 721.201,-52.2868"/>
</g>
</g>
</svg>
