<?xml version="1.0" encoding="UTF-8" standalone="no"?>
<!DOCTYPE svg PUBLIC "-//W3C//DTD SVG 1.1//EN"
 "http://www.w3.org/Graphics/SVG/1.1/DTD/svg11.dtd">
<!-- Generated by graphviz version 2.30.1 (20170916.1124)
 -->
<!-- Title: mom_regridding::initialize_regridding Pages: 1 -->
<!--zoomable 575 -->
<svg id="main" version="1.1" xmlns="http://www.w3.org/2000/svg" xmlns:xlink="http://www.w3.org/1999/xlink" xml:space="preserve" onload="init(evt)">
<style type="text/css"><![CDATA[
.edge:hover path { stroke: red; }
.edge:hover polygon { stroke: red; fill: red; }
]]></style>
<script type="text/javascript"><![CDATA[
var edges = document.getElementsByTagName('g');
if (edges && edges.length) {
  for (var i=0;i<edges.length;i++) {
    if (edges[i].id.substr(0,4)=='edge') {
      edges[i].setAttribute('class','edge');
    }
  }
}
]]></script>
        <defs>
                <circle id="rim" cx="0" cy="0" r="7"/>
                <circle id="rim2" cx="0" cy="0" r="3.5"/>
                <g id="zoomPlus">
                        <use xlink:href="#rim" fill="#404040">
                                <set attributeName="fill" to="#808080" begin="zoomplus.mouseover" end="zoomplus.mouseout"/>
                        </use>
                        <path d="M-4,0h8M0,-4v8" fill="none" stroke="white" stroke-width="1.5" pointer-events="none"/>
                </g>
                <g id="zoomMin">
                        <use xlink:href="#rim" fill="#404040">
                                <set attributeName="fill" to="#808080" begin="zoomminus.mouseover" end="zoomminus.mouseout"/>
                        </use>
                        <path d="M-4,0h8" fill="none" stroke="white" stroke-width="1.5" pointer-events="none"/>
                </g>
                <g id="dirArrow">
                        <path fill="none" stroke="white" stroke-width="1.5" d="M0,-3.0v7 M-2.5,-0.5L0,-3.0L2.5,-0.5"/>
                </g>
               <g id="resetDef">
                       <use xlink:href="#rim2" fill="#404040">
                               <set attributeName="fill" to="#808080" begin="reset.mouseover" end="reset.mouseout"/>
                       </use>
               </g>
        </defs>

<script type="text/javascript">
var viewWidth = 724;
var viewHeight = 575;
var sectionId = 'dynsection-41';
</script>
<script xlink:href="svgpan.js"/>
<svg id="graph" class="graph">
<g id="viewport">
<title>mom_regridding::initialize_regridding</title>
<polygon fill="white" stroke="white" points="-4,5 -4,-571 721,-571 721,5 -4,5"/>
<!-- Node334 -->
<g id="node1" class="node"><title>Node334</title>
<g id="a_node1"><a xlink:title="Initialization and configures a regridding control structure based on customizable run&#45;time parameter...">
<polygon fill="#bfbfbf" stroke="black" points="0.5,-269 0.5,-299 107.5,-299 107.5,-269 0.5,-269"/>
<text text-anchor="start" x="8.5" y="-287" font-family="Helvetica,sans-Serif" font-size="10.00">mom_regridding::initialize</text>
<text text-anchor="middle" x="54" y="-276" font-family="Helvetica,sans-Serif" font-size="10.00">_regridding</text>
</a>
</g>
</g>
<!-- Node335 -->
<g id="node2" class="node"><title>Node335</title>
<g id="a_node2"><a xlink:href="namespacemom__regridding.html#ad4abdb8447ed3f4f769b822a468728b1" target="_top" xlink:title="Do some basic checks on the vertical grid definition file, variable.">
<polygon fill="white" stroke="black" points="150,-537 150,-567 250,-567 250,-537 150,-537"/>
<text text-anchor="start" x="158" y="-555" font-family="Helvetica,sans-Serif" font-size="10.00">mom_regridding::check</text>
<text text-anchor="middle" x="200" y="-544" font-family="Helvetica,sans-Serif" font-size="10.00">_grid_def</text>
</a>
</g>
</g>
<!-- Node334&#45;&gt;Node335 -->
<g id="edge1" class="edge"><title>Node334&#45;&gt;Node335</title>
<path fill="none" stroke="midnightblue" d="M56.9563,-299.24C62.9006,-339.986 84.1559,-453.027 144,-522 146.967,-525.42 150.423,-528.52 154.131,-531.316"/>
<polygon fill="midnightblue" stroke="midnightblue" points="152.3,-534.302 162.558,-536.952 156.192,-528.483 152.3,-534.302"/>
</g>
<!-- Node336 -->
<g id="node3" class="node"><title>Node336</title>
<g id="a_node3"><a xlink:href="namespacemom__regridding.html#a2becd8126867cdce125b31e07d13065e" target="_top" xlink:title="Parses a string and generates a dz(:) profile that goes like k**power.">
<polygon fill="white" stroke="black" points="329,-234 329,-264 417,-264 417,-234 329,-234"/>
<text text-anchor="start" x="337" y="-252" font-family="Helvetica,sans-Serif" font-size="10.00">mom_regridding::dz</text>
<text text-anchor="middle" x="373" y="-241" font-family="Helvetica,sans-Serif" font-size="10.00">_function1</text>
</a>
</g>
</g>
<!-- Node334&#45;&gt;Node336 -->
<g id="edge2" class="edge"><title>Node334&#45;&gt;Node336</title>
<path fill="none" stroke="midnightblue" d="M107.523,-279.2C148.105,-275.388 205.655,-269.759 256,-264 276.53,-261.652 299.068,-258.8 318.773,-256.217"/>
<polygon fill="midnightblue" stroke="midnightblue" points="319.338,-259.672 328.794,-254.894 318.422,-252.733 319.338,-259.672"/>
</g>
<!-- Node339 -->
<g id="node6" class="node"><title>Node339</title>
<g id="a_node6"><a xlink:href="namespacemom__string__functions.html#aae12046c1401f23bd7e038655e30654e" target="_top" xlink:title="Returns the integer corresponding to the nth word in the argument.">
<polygon fill="white" stroke="black" points="152.5,-449 152.5,-479 247.5,-479 247.5,-449 152.5,-449"/>
<text text-anchor="start" x="160.5" y="-467" font-family="Helvetica,sans-Serif" font-size="10.00">mom_string_functions</text>
<text text-anchor="middle" x="200" y="-456" font-family="Helvetica,sans-Serif" font-size="10.00">::extract_integer</text>
</a>
</g>
</g>
<!-- Node334&#45;&gt;Node339 -->
<g id="edge5" class="edge"><title>Node334&#45;&gt;Node339</title>
<path fill="none" stroke="midnightblue" d="M60.1271,-299.272C71.0291,-329.663 99.2384,-398.285 144,-439 145.702,-440.548 147.516,-442.015 149.411,-443.402"/>
<polygon fill="midnightblue" stroke="midnightblue" points="147.826,-446.543 158.135,-448.987 151.6,-440.648 147.826,-446.543"/>
</g>
<!-- Node341 -->
<g id="node8" class="node"><title>Node341</title>
<g id="a_node8"><a xlink:href="namespacemom__string__functions.html#a2f700337c5cf4e70a48bd0663570484e" target="_top" xlink:title="Returns the real corresponding to the nth word in the argument.">
<polygon fill="white" stroke="black" points="152.5,-400 152.5,-430 247.5,-430 247.5,-400 152.5,-400"/>
<text text-anchor="start" x="160.5" y="-418" font-family="Helvetica,sans-Serif" font-size="10.00">mom_string_functions</text>
<text text-anchor="middle" x="200" y="-407" font-family="Helvetica,sans-Serif" font-size="10.00">::extract_real</text>
</a>
</g>
</g>
<!-- Node334&#45;&gt;Node341 -->
<g id="edge7" class="edge"><title>Node334&#45;&gt;Node341</title>
<path fill="none" stroke="midnightblue" d="M64.522,-299.19C79.2141,-321.599 109.363,-363.696 144,-390 146.271,-391.725 148.68,-393.365 151.172,-394.919"/>
<polygon fill="midnightblue" stroke="midnightblue" points="149.461,-397.973 159.885,-399.871 152.92,-391.887 149.461,-397.973"/>
</g>
<!-- Node342 -->
<g id="node9" class="node"><title>Node342</title>
<g id="a_node9"><a xlink:href="namespacemom__string__functions.html#a7bfdab6bba33230cc94ed625e95022c9" target="_top" xlink:title="Returns the string corresponding to the nth word in the argument or &quot;&quot; if the string is not long enou...">
<polygon fill="white" stroke="black" points="152.5,-351 152.5,-381 247.5,-381 247.5,-351 152.5,-351"/>
<text text-anchor="start" x="160.5" y="-369" font-family="Helvetica,sans-Serif" font-size="10.00">mom_string_functions</text>
<text text-anchor="middle" x="200" y="-358" font-family="Helvetica,sans-Serif" font-size="10.00">::extractword</text>
</a>
</g>
</g>
<!-- Node334&#45;&gt;Node342 -->
<g id="edge9" class="edge"><title>Node334&#45;&gt;Node342</title>
<path fill="none" stroke="midnightblue" d="M80.5894,-299.219C98.3137,-309.695 122.496,-323.857 144,-336 149.718,-339.229 155.798,-342.604 161.752,-345.875"/>
<polygon fill="midnightblue" stroke="midnightblue" points="160.479,-349.169 170.932,-350.897 163.838,-343.027 160.479,-349.169"/>
</g>
<!-- Node337 -->
<g id="node4" class="node"><title>Node337</title>
<g id="a_node4"><a xlink:href="namespacemom__error__handler.html#a460cfb79a06c29fc249952c2a3710d67" target="_top" xlink:title=" ">
<polygon fill="white" stroke="black" points="491.5,-181 491.5,-211 584.5,-211 584.5,-181 491.5,-181"/>
<text text-anchor="start" x="499.5" y="-199" font-family="Helvetica,sans-Serif" font-size="10.00">mom_error_handler::</text>
<text text-anchor="middle" x="538" y="-188" font-family="Helvetica,sans-Serif" font-size="10.00">mom_error</text>
</a>
</g>
</g>
<!-- Node334&#45;&gt;Node337 -->
<g id="edge11" class="edge"><title>Node334&#45;&gt;Node337</title>
<path fill="none" stroke="midnightblue" d="M68.6863,-268.882C84.8305,-252.231 113.373,-226.315 144,-215 257.906,-172.917 403.124,-180.118 481.24,-188.449"/>
<polygon fill="midnightblue" stroke="midnightblue" points="481.022,-191.946 491.348,-189.573 481.796,-184.989 481.022,-191.946"/>
</g>
<!-- Node343 -->
<g id="node10" class="node"><title>Node343</title>
<g id="a_node10"><a xlink:href="namespacemom__regridding.html#aac547ec199090852d539c7aefc44dfa7" target="_top" xlink:title="Set maximum interface depths based on a vector of input values.">
<polygon fill="white" stroke="black" points="328,-113 328,-143 418,-143 418,-113 328,-113"/>
<text text-anchor="start" x="336" y="-131" font-family="Helvetica,sans-Serif" font-size="10.00">mom_regridding::set</text>
<text text-anchor="middle" x="373" y="-120" font-family="Helvetica,sans-Serif" font-size="10.00">_regrid_max_depths</text>
</a>
</g>
</g>
<!-- Node334&#45;&gt;Node343 -->
<g id="edge12" class="edge"><title>Node334&#45;&gt;Node343</title>
<path fill="none" stroke="midnightblue" d="M56.1552,-268.829C60.0922,-229.126 76.7721,-122.189 144,-78 185.597,-50.6586 207.249,-67.9407 256,-78 284.189,-83.8166 313.965,-96.8118 336.291,-108.096"/>
<polygon fill="midnightblue" stroke="midnightblue" points="334.887,-111.31 345.376,-112.801 338.106,-105.094 334.887,-111.31"/>
</g>
<!-- Node344 -->
<g id="node11" class="node"><title>Node344</title>
<g id="a_node11"><a xlink:href="namespacemom__regridding.html#ae91ca3f1376b3c72940268b5d9f87bb4" target="_top" xlink:title="Set maximum layer thicknesses based on a vector of input values.">
<polygon fill="white" stroke="black" points="151,-225 151,-255 249,-255 249,-225 151,-225"/>
<text text-anchor="start" x="159" y="-243" font-family="Helvetica,sans-Serif" font-size="10.00">mom_regridding::set</text>
<text text-anchor="middle" x="200" y="-232" font-family="Helvetica,sans-Serif" font-size="10.00">_regrid_max_thickness</text>
</a>
</g>
</g>
<!-- Node334&#45;&gt;Node344 -->
<g id="edge14" class="edge"><title>Node334&#45;&gt;Node344</title>
<path fill="none" stroke="midnightblue" d="M104.154,-268.981C115.983,-265.366 128.73,-261.471 140.924,-257.746"/>
<polygon fill="midnightblue" stroke="midnightblue" points="142.015,-261.072 150.555,-254.802 139.969,-254.378 142.015,-261.072"/>
</g>
<!-- Node345 -->
<g id="node12" class="node"><title>Node345</title>
<g id="a_node12"><a xlink:href="namespacemom__regridding.html#a86255799ed0417334397e0f6be8ba9fb" target="_top" xlink:title="Can be used to set any of the parameters for MOM_regridding.">
<polygon fill="white" stroke="black" points="155,-0 155,-30 245,-30 245,-0 155,-0"/>
<text text-anchor="start" x="163" y="-18" font-family="Helvetica,sans-Serif" font-size="10.00">mom_regridding::set</text>
<text text-anchor="middle" x="200" y="-7" font-family="Helvetica,sans-Serif" font-size="10.00">_regrid_params</text>
</a>
</g>
</g>
<!-- Node334&#45;&gt;Node345 -->
<g id="edge15" class="edge"><title>Node334&#45;&gt;Node345</title>
<path fill="none" stroke="midnightblue" d="M56.8948,-268.992C62.7324,-228.329 83.8378,-114.436 144,-45 146.965,-41.5783 150.419,-38.4762 154.126,-35.6802"/>
<polygon fill="midnightblue" stroke="midnightblue" points="156.187,-38.5126 162.552,-30.043 152.295,-32.6947 156.187,-38.5126"/>
</g>
<!-- Node348 -->
<g id="node15" class="node"><title>Node348</title>
<g id="a_node15"><a xlink:href="namespacemom__regridding.html#ae7eade38ab8e2adb0797a7191ddebb18" target="_top" xlink:title="Set target densities based on vector of interface values.">
<polygon fill="white" stroke="black" points="155,-137 155,-167 245,-167 245,-137 155,-137"/>
<text text-anchor="start" x="163" y="-155" font-family="Helvetica,sans-Serif" font-size="10.00">mom_regridding::set</text>
<text text-anchor="middle" x="200" y="-144" font-family="Helvetica,sans-Serif" font-size="10.00">_target_densities</text>
</a>
</g>
</g>
<!-- Node334&#45;&gt;Node348 -->
<g id="edge20" class="edge"><title>Node334&#45;&gt;Node348</title>
<path fill="none" stroke="midnightblue" d="M65.6661,-268.656C81.0919,-247.27 111.376,-208.185 144,-182 148.347,-178.511 153.158,-175.216 158.073,-172.178"/>
<polygon fill="midnightblue" stroke="midnightblue" points="160.078,-175.061 166.954,-167 156.552,-169.014 160.078,-175.061"/>
</g>
<!-- Node349 -->
<g id="node16" class="node"><title>Node349</title>
<g id="a_node16"><a xlink:href="namespacemom__regridding.html#a8d0d0a1095ab370feb260753e1c25ffa" target="_top" xlink:title="Set target densities based on the old Rlay variable.">
<polygon fill="white" stroke="black" points="144.5,-88 144.5,-118 255.5,-118 255.5,-88 144.5,-88"/>
<text text-anchor="start" x="152.5" y="-106" font-family="Helvetica,sans-Serif" font-size="10.00">mom_regridding::set</text>
<text text-anchor="middle" x="200" y="-95" font-family="Helvetica,sans-Serif" font-size="10.00">_target_densities_from_gv</text>
</a>
</g>
</g>
<!-- Node334&#45;&gt;Node349 -->
<g id="edge21" class="edge"><title>Node334&#45;&gt;Node349</title>
<path fill="none" stroke="midnightblue" d="M59.8559,-268.943C70.442,-238.297 98.3727,-168.102 144,-127 145.277,-125.849 146.618,-124.748 148.01,-123.693"/>
<polygon fill="midnightblue" stroke="midnightblue" points="149.999,-126.573 156.434,-118.157 146.155,-120.724 149.999,-126.573"/>
</g>
<!-- Node350 -->
<g id="node17" class="node"><title>Node350</title>
<g id="a_node17"><a xlink:href="namespacemom__regridding.html#a4f0b5a0e798c4cf8e70a63ed3bc62c6f" target="_top" xlink:title=" ">
<polygon fill="white" stroke="black" points="292,-473.5 292,-492.5 454,-492.5 454,-473.5 292,-473.5"/>
<text text-anchor="middle" x="373" y="-480.5" font-family="Helvetica,sans-Serif" font-size="10.00">mom_regridding::setcoordinateresolution</text>
</a>
</g>
</g>
<!-- Node334&#45;&gt;Node350 -->
<g id="edge22" class="edge"><title>Node334&#45;&gt;Node350</title>
<path fill="none" stroke="midnightblue" d="M56.2081,-299.029C60.2745,-338.361 77.2437,-444.291 144,-488 202.138,-526.066 287.73,-509.585 335.802,-495.46"/>
<polygon fill="midnightblue" stroke="midnightblue" points="336.929,-498.775 345.467,-492.502 334.88,-492.081 336.929,-498.775"/>
</g>
<!-- Node351 -->
<g id="node18" class="node"><title>Node351</title>
<g id="a_node18"><a xlink:href="namespacemom__regridding.html#a8b3b0c1555006f196d9bb1baededd9e6" target="_top" xlink:title=" ">
<polygon fill="white" stroke="black" points="302.5,-302.5 302.5,-321.5 443.5,-321.5 443.5,-302.5 302.5,-302.5"/>
<text text-anchor="middle" x="373" y="-309.5" font-family="Helvetica,sans-Serif" font-size="10.00">mom_regridding::uniformresolution</text>
</a>
</g>
</g>
<!-- Node334&#45;&gt;Node351 -->
<g id="edge24" class="edge"><title>Node334&#45;&gt;Node351</title>
<path fill="none" stroke="midnightblue" d="M107.598,-293.119C119.538,-294.953 132.183,-296.711 144,-298 193.102,-303.357 248.393,-306.816 292.229,-308.955"/>
<polygon fill="midnightblue" stroke="midnightblue" points="292.101,-312.452 302.256,-309.431 292.433,-305.46 292.101,-312.452"/>
</g>
<!-- Node336&#45;&gt;Node337 -->
<g id="edge3" class="edge"><title>Node336&#45;&gt;Node337</title>
<path fill="none" stroke="midnightblue" d="M417.253,-234.936C436.957,-228.529 460.518,-220.868 481.508,-214.043"/>
<polygon fill="midnightblue" stroke="midnightblue" points="482.834,-217.293 491.262,-210.872 480.67,-210.636 482.834,-217.293"/>
</g>
<!-- Node338 -->
<g id="node5" class="node"><title>Node338</title>
<g id="a_node5"><a xlink:href="namespacemom__error__handler.html#ad5f00a53059c72fe2332d1436c80ca71" target="_top" xlink:title=" ">
<polygon fill="white" stroke="black" points="622.5,-181 622.5,-211 715.5,-211 715.5,-181 622.5,-181"/>
<text text-anchor="start" x="630.5" y="-199" font-family="Helvetica,sans-Serif" font-size="10.00">mom_error_handler::</text>
<text text-anchor="middle" x="669" y="-188" font-family="Helvetica,sans-Serif" font-size="10.00">is_root_pe</text>
</a>
</g>
</g>
<!-- Node337&#45;&gt;Node338 -->
<g id="edge4" class="edge"><title>Node337&#45;&gt;Node338</title>
<path fill="none" stroke="midnightblue" d="M584.844,-196C593.683,-196 603.034,-196 612.151,-196"/>
<polygon fill="midnightblue" stroke="midnightblue" points="612.304,-199.5 622.304,-196 612.304,-192.5 612.304,-199.5"/>
</g>
<!-- Node340 -->
<g id="node7" class="node"><title>Node340</title>
<g id="a_node7"><a xlink:href="namespacemom__string__functions.html#aad76dee92b69dab4488da049fe11cdb8" target="_top" xlink:title="Returns the string corresponding to the nth word in the argument or &quot;&quot; if the string is not long enou...">
<polygon fill="white" stroke="black" points="325.5,-400 325.5,-430 420.5,-430 420.5,-400 325.5,-400"/>
<text text-anchor="start" x="333.5" y="-418" font-family="Helvetica,sans-Serif" font-size="10.00">mom_string_functions</text>
<text text-anchor="middle" x="373" y="-407" font-family="Helvetica,sans-Serif" font-size="10.00">::extract_word</text>
</a>
</g>
</g>
<!-- Node339&#45;&gt;Node340 -->
<g id="edge6" class="edge"><title>Node339&#45;&gt;Node340</title>
<path fill="none" stroke="midnightblue" d="M247.727,-450.611C268.65,-444.615 293.505,-437.493 315.467,-431.199"/>
<polygon fill="midnightblue" stroke="midnightblue" points="316.681,-434.493 325.33,-428.373 314.753,-427.763 316.681,-434.493"/>
</g>
<!-- Node341&#45;&gt;Node340 -->
<g id="edge8" class="edge"><title>Node341&#45;&gt;Node340</title>
<path fill="none" stroke="midnightblue" d="M247.727,-415C268.556,-415 293.281,-415 315.17,-415"/>
<polygon fill="midnightblue" stroke="midnightblue" points="315.33,-418.5 325.33,-415 315.33,-411.5 315.33,-418.5"/>
</g>
<!-- Node342&#45;&gt;Node340 -->
<g id="edge10" class="edge"><title>Node342&#45;&gt;Node340</title>
<path fill="none" stroke="midnightblue" d="M247.727,-379.389C268.65,-385.385 293.505,-392.507 315.467,-398.801"/>
<polygon fill="midnightblue" stroke="midnightblue" points="314.753,-402.237 325.33,-401.627 316.681,-395.507 314.753,-402.237"/>
</g>
<!-- Node343&#45;&gt;Node337 -->
<g id="edge13" class="edge"><title>Node343&#45;&gt;Node337</title>
<path fill="none" stroke="midnightblue" d="M410.175,-143.091C434.127,-153.084 465.737,-166.271 491.407,-176.98"/>
<polygon fill="midnightblue" stroke="midnightblue" points="490.349,-180.331 500.926,-180.951 493.045,-173.87 490.349,-180.331"/>
</g>
<!-- Node345&#45;&gt;Node337 -->
<g id="edge16" class="edge"><title>Node345&#45;&gt;Node337</title>
<path fill="none" stroke="midnightblue" d="M245.246,-30.0751C316.566,-54.4182 449.479,-99.9831 454,-103 481.879,-121.604 506.404,-151.736 521.429,-172.638"/>
<polygon fill="midnightblue" stroke="midnightblue" points="518.663,-174.791 527.269,-180.971 524.396,-170.773 518.663,-174.791"/>
</g>
<!-- Node346 -->
<g id="node13" class="node"><title>Node346</title>
<g id="a_node13"><a xlink:href="namespacemom__regridding.html#a6d580fc0f39c34d7ee31b473fef6ae3d" target="_top" xlink:title="Numeric value of interpolation_scheme corresponding to scheme name.">
<polygon fill="white" stroke="black" points="311.5,-7 311.5,-37 434.5,-37 434.5,-7 311.5,-7"/>
<text text-anchor="start" x="319.5" y="-25" font-family="Helvetica,sans-Serif" font-size="10.00">mom_regridding::interpolation</text>
<text text-anchor="middle" x="373" y="-14" font-family="Helvetica,sans-Serif" font-size="10.00">_scheme</text>
</a>
</g>
</g>
<!-- Node345&#45;&gt;Node346 -->
<g id="edge17" class="edge"><title>Node345&#45;&gt;Node346</title>
<path fill="none" stroke="midnightblue" d="M245.037,-16.8027C262.149,-17.5032 282.184,-18.3233 301.217,-19.1024"/>
<polygon fill="midnightblue" stroke="midnightblue" points="301.223,-22.6056 311.358,-19.5176 301.51,-15.6114 301.223,-22.6056"/>
</g>
<!-- Node347 -->
<g id="node14" class="node"><title>Node347</title>
<g id="a_node14"><a xlink:href="namespacemom__string__functions.html#aca148baf726de2f028b7e7baad3c85d4" target="_top" xlink:title=" ">
<polygon fill="white" stroke="black" points="490.5,-7 490.5,-37 585.5,-37 585.5,-7 490.5,-7"/>
<text text-anchor="start" x="498.5" y="-25" font-family="Helvetica,sans-Serif" font-size="10.00">mom_string_functions</text>
<text text-anchor="middle" x="538" y="-14" font-family="Helvetica,sans-Serif" font-size="10.00">::uppercase</text>
</a>
</g>
</g>
<!-- Node346&#45;&gt;Node347 -->
<g id="edge18" class="edge"><title>Node346&#45;&gt;Node347</title>
<path fill="none" stroke="midnightblue" d="M434.695,-22C449.481,-22 465.245,-22 479.859,-22"/>
<polygon fill="midnightblue" stroke="midnightblue" points="480.267,-25.5001 490.267,-22 480.267,-18.5001 480.267,-25.5001"/>
</g>
<!-- Node346&#45;&gt;Node337 -->
<g id="edge19" class="edge"><title>Node346&#45;&gt;Node337</title>
<path fill="none" stroke="midnightblue" d="M420.023,-37.0366C431.963,-42.3873 444.205,-49.3036 454,-58 489.876,-89.8535 514.949,-141.01 527.582,-171.279"/>
<polygon fill="midnightblue" stroke="midnightblue" points="524.393,-172.727 531.388,-180.685 530.882,-170.102 524.393,-172.727"/>
</g>
<!-- Node350&#45;&gt;Node337 -->
<g id="edge23" class="edge"><title>Node350&#45;&gt;Node337</title>
<path fill="none" stroke="midnightblue" d="M402.268,-473.469C419.379,-466.39 440.442,-455.144 454,-439 509.191,-373.281 528.311,-268.992 534.401,-221.302"/>
<polygon fill="midnightblue" stroke="midnightblue" points="537.893,-221.576 535.597,-211.233 530.942,-220.75 537.893,-221.576"/>
</g>
<!-- Node351&#45;&gt;Node337 -->
<g id="edge25" class="edge"><title>Node351&#45;&gt;Node337</title>
<path fill="none" stroke="midnightblue" d="M398.111,-302.463C414.538,-295.444 436.411,-285.053 454,-273 477.13,-257.15 500.256,-235.054 516.199,-218.595"/>
<polygon fill="midnightblue" stroke="midnightblue" points="519.053,-220.674 523.417,-211.02 513.985,-215.845 519.053,-220.674"/>
</g>
</g>
</svg>
        <g id="navigator" transform="translate(0 0)" fill="#404254">
                <rect fill="#f2f5e9" fill-opacity="0.5" stroke="#606060" stroke-width=".5" x="0" y="0" width="60" height="60"/>
                <use id="zoomplus" xlink:href="#zoomPlus" x="17" y="9" onmousedown="handleZoom(evt,'in')"/>
                <use id="zoomminus" xlink:href="#zoomMin" x="42" y="9" onmousedown="handleZoom(evt,'out')"/>
                <use id="reset" xlink:href="#resetDef" x="30" y="36" onmousedown="handleReset()"/>
                <g id="arrowUp" xlink:href="#dirArrow" transform="translate(30 24)" onmousedown="handlePan(0,-1)">
                  <use xlink:href="#rim" fill="#404040">
                        <set attributeName="fill" to="#808080" begin="arrowUp.mouseover" end="arrowUp.mouseout"/>
                  </use>
                  <path fill="none" stroke="white" stroke-width="1.5" d="M0,-3.0v7 M-2.5,-0.5L0,-3.0L2.5,-0.5"/>
                </g>
                <g id="arrowRight" xlink:href="#dirArrow" transform="rotate(90) translate(36 -43)" onmousedown="handlePan(1,0)">
                  <use xlink:href="#rim" fill="#404040">
                        <set attributeName="fill" to="#808080" begin="arrowRight.mouseover" end="arrowRight.mouseout"/>
                  </use>
                  <path fill="none" stroke="white" stroke-width="1.5" d="M0,-3.0v7 M-2.5,-0.5L0,-3.0L2.5,-0.5"/>
                </g>
                <g id="arrowDown" xlink:href="#dirArrow" transform="rotate(180) translate(-30 -48)" onmousedown="handlePan(0,1)">
                  <use xlink:href="#rim" fill="#404040">
                        <set attributeName="fill" to="#808080" begin="arrowDown.mouseover" end="arrowDown.mouseout"/>
                  </use>
                  <path fill="none" stroke="white" stroke-width="1.5" d="M0,-3.0v7 M-2.5,-0.5L0,-3.0L2.5,-0.5"/>
                </g>
                <g id="arrowLeft" xlink:href="#dirArrow" transform="rotate(270) translate(-36 17)" onmousedown="handlePan(-1,0)">
                  <use xlink:href="#rim" fill="#404040">
                        <set attributeName="fill" to="#808080" begin="arrowLeft.mouseover" end="arrowLeft.mouseout"/>
                  </use>
                  <path fill="none" stroke="white" stroke-width="1.5" d="M0,-3.0v7 M-2.5,-0.5L0,-3.0L2.5,-0.5"/>
                </g>
        </g>
        <svg viewBox="0 0 15 15" width="100%" height="30px" preserveAspectRatio="xMaxYMin meet">
         <g id="arrow_out" transform="scale(0.3 0.3)">
          <a xlink:href="namespacemom__regridding_af375f9f79f880b10aa85cd11de23519b_cgraph_org.svg" target="_base">
           <rect id="button" ry="5" rx="5" y="6" x="6" height="38" width="38"
                fill="#f2f5e9" fill-opacity="0.5" stroke="#606060" stroke-width="1.0"/>
           <path id="arrow"
             d="M 11.500037,31.436501 C 11.940474,20.09759 22.043105,11.32322 32.158766,21.979434 L 37.068811,17.246167 C 37.068811,17.246167 37.088388,32 37.088388,32 L 22.160133,31.978069 C 22.160133,31.978069 26.997745,27.140456 26.997745,27.140456 C 18.528582,18.264221 13.291696,25.230495 11.500037,31.436501 z"
             style="fill:#404040;"/>
          </a>
         </g>
        </svg>
</svg>
