<?xml version="1.0" encoding="UTF-8" standalone="no"?>
<!DOCTYPE svg PUBLIC "-//W3C//DTD SVG 1.1//EN"
 "http://www.w3.org/Graphics/SVG/1.1/DTD/svg11.dtd">
<!-- Generated by graphviz version 2.30.1 (20170916.1124)
 -->
<!-- Title: mom_tracer_registry::add_tracer_obc_values Pages: 1 -->
<svg width="604pt" height="136pt"
 viewBox="0.00 0.00 604.00 136.00" xmlns="http://www.w3.org/2000/svg" xmlns:xlink="http://www.w3.org/1999/xlink">
<g id="graph0" class="graph" transform="scale(1 1) rotate(0) translate(4 132)">
<title>mom_tracer_registry::add_tracer_obc_values</title>
<polygon fill="white" stroke="white" points="-4,5 -4,-132 601,-132 601,5 -4,5"/>
<!-- Node17 -->
<g id="node1" class="node"><title>Node17</title>
<g id="a_node1"><a xlink:title="This subroutine adds open boundary condition concentrations for a tracer that has previously been reg...">
<polygon fill="#bfbfbf" stroke="black" points="492,-49 492,-79 596,-79 596,-49 492,-49"/>
<text text-anchor="start" x="500" y="-67" font-family="Helvetica,sans-Serif" font-size="10.00">mom_tracer_registry</text>
<text text-anchor="middle" x="544" y="-56" font-family="Helvetica,sans-Serif" font-size="10.00">::add_tracer_obc_values</text>
</a>
</g>
</g>
<!-- Node18 -->
<g id="node2" class="node"><title>Node18</title>
<g id="a_node2"><a xlink:href="namespacedome__tracer.html#acbbc86d4dbc4997c0cd55aa498d2c668" target="_top" xlink:title=" ">
<polygon fill="white" stroke="black" points="359,-98 359,-128 453,-128 453,-98 359,-98"/>
<text text-anchor="start" x="367" y="-116" font-family="Helvetica,sans-Serif" font-size="10.00">dome_tracer::initialize</text>
<text text-anchor="middle" x="406" y="-105" font-family="Helvetica,sans-Serif" font-size="10.00">_dome_tracer</text>
</a>
</g>
</g>
<!-- Node17&#45;&gt;Node18 -->
<g id="edge1" class="edge"><title>Node17&#45;&gt;Node18</title>
<path fill="none" stroke="midnightblue" d="M491.555,-82.5355C477.509,-87.5959 462.461,-93.0177 449.01,-97.8641"/>
<polygon fill="midnightblue" stroke="midnightblue" points="492.864,-85.7839 501.086,-79.1014 490.491,-79.1984 492.864,-85.7839"/>
</g>
<!-- Node19 -->
<g id="node3" class="node"><title>Node19</title>
<g id="a_node3"><a xlink:href="namespacemom__open__boundary.html#a9c346694db6b5d7f355703167d22f5c1" target="_top" xlink:title="Sets the initial definitions of the characteristic open boundary conditions.">
<polygon fill="white" stroke="black" points="356,-49 356,-79 456,-79 456,-49 356,-49"/>
<text text-anchor="start" x="364" y="-67" font-family="Helvetica,sans-Serif" font-size="10.00">mom_open_boundary::</text>
<text text-anchor="middle" x="406" y="-56" font-family="Helvetica,sans-Serif" font-size="10.00">set_flather_data</text>
</a>
</g>
</g>
<!-- Node17&#45;&gt;Node19 -->
<g id="edge2" class="edge"><title>Node17&#45;&gt;Node19</title>
<path fill="none" stroke="midnightblue" d="M481.913,-64C473.257,-64 464.45,-64 456.06,-64"/>
<polygon fill="midnightblue" stroke="midnightblue" points="481.972,-67.5001 491.972,-64 481.972,-60.5001 481.972,-67.5001"/>
</g>
<!-- Node23 -->
<g id="node7" class="node"><title>Node23</title>
<g id="a_node7"><a xlink:href="namespaceuser__tracer__example.html#a16d417b6068f44605caf3573bf5f4de9" target="_top" xlink:title=" ">
<polygon fill="white" stroke="black" points="359,-0 359,-30 453,-30 453,-0 359,-0"/>
<text text-anchor="start" x="367" y="-18" font-family="Helvetica,sans-Serif" font-size="10.00">user_tracer_example</text>
<text text-anchor="middle" x="406" y="-7" font-family="Helvetica,sans-Serif" font-size="10.00">::user_initialize_tracer</text>
</a>
</g>
</g>
<!-- Node17&#45;&gt;Node23 -->
<g id="edge6" class="edge"><title>Node17&#45;&gt;Node23</title>
<path fill="none" stroke="midnightblue" d="M491.555,-45.4645C477.509,-40.4041 462.461,-34.9823 449.01,-30.1359"/>
<polygon fill="midnightblue" stroke="midnightblue" points="490.491,-48.8016 501.086,-48.8986 492.864,-42.2161 490.491,-48.8016"/>
</g>
<!-- Node20 -->
<g id="node4" class="node"><title>Node20</title>
<g id="a_node4"><a xlink:href="namespacemom__state__initialization.html#af4e854627c6572332ba3fd895f169321" target="_top" xlink:title=" ">
<polygon fill="white" stroke="black" points="218.5,-49 218.5,-79 319.5,-79 319.5,-49 218.5,-49"/>
<text text-anchor="start" x="226.5" y="-67" font-family="Helvetica,sans-Serif" font-size="10.00">mom_state_initialization</text>
<text text-anchor="middle" x="269" y="-56" font-family="Helvetica,sans-Serif" font-size="10.00">::mom_initialize_state</text>
</a>
</g>
</g>
<!-- Node19&#45;&gt;Node20 -->
<g id="edge3" class="edge"><title>Node19&#45;&gt;Node20</title>
<path fill="none" stroke="midnightblue" d="M345.801,-64C337.112,-64 328.237,-64 319.763,-64"/>
<polygon fill="midnightblue" stroke="midnightblue" points="345.88,-67.5001 355.88,-64 345.88,-60.5001 345.88,-67.5001"/>
</g>
<!-- Node21 -->
<g id="node5" class="node"><title>Node21</title>
<g id="a_node5"><a xlink:href="namespacemom.html#a0be2869fef30e1e0604facfe1b41555d" target="_top" xlink:title="This subroutine initializes MOM.">
<polygon fill="white" stroke="black" points="92.5,-54.5 92.5,-73.5 181.5,-73.5 181.5,-54.5 92.5,-54.5"/>
<text text-anchor="middle" x="137" y="-61.5" font-family="Helvetica,sans-Serif" font-size="10.00">mom::initialize_mom</text>
</a>
</g>
</g>
<!-- Node20&#45;&gt;Node21 -->
<g id="edge4" class="edge"><title>Node20&#45;&gt;Node21</title>
<path fill="none" stroke="midnightblue" d="M208.461,-64C199.5,-64 190.4,-64 181.848,-64"/>
<polygon fill="midnightblue" stroke="midnightblue" points="208.482,-67.5001 218.482,-64 208.482,-60.5001 208.482,-67.5001"/>
</g>
<!-- Node22 -->
<g id="node6" class="node"><title>Node22</title>
<g id="a_node6"><a xlink:href="MOM__driver_8F90.html#a08fffeb2d8e8acbf9ed4609be6d258c6" target="_top" xlink:title=" ">
<polygon fill="white" stroke="black" points="0,-54.5 0,-73.5 56,-73.5 56,-54.5 0,-54.5"/>
<text text-anchor="middle" x="28" y="-61.5" font-family="Helvetica,sans-Serif" font-size="10.00">mom_main</text>
</a>
</g>
</g>
<!-- Node21&#45;&gt;Node22 -->
<g id="edge5" class="edge"><title>Node21&#45;&gt;Node22</title>
<path fill="none" stroke="midnightblue" d="M82.3096,-64C73.2562,-64 64.21,-64 56.2082,-64"/>
<polygon fill="midnightblue" stroke="midnightblue" points="82.479,-67.5001 92.479,-64 82.479,-60.5001 82.479,-67.5001"/>
</g>
</g>
</svg>
