<?xml version="1.0" encoding="UTF-8" standalone="no"?>
<!DOCTYPE svg PUBLIC "-//W3C//DTD SVG 1.1//EN"
 "http://www.w3.org/Graphics/SVG/1.1/DTD/svg11.dtd">
<!-- Generated by graphviz version 2.30.1 (20170916.1124)
 -->
<!-- Title: mom_eos::calculate_density_array Pages: 1 -->
<svg width="374pt" height="82pt"
 viewBox="0.00 0.00 374.00 82.00" xmlns="http://www.w3.org/2000/svg" xmlns:xlink="http://www.w3.org/1999/xlink">
<g id="graph0" class="graph" transform="scale(1 1) rotate(0) translate(4 78)">
<title>mom_eos::calculate_density_array</title>
<polygon fill="white" stroke="white" points="-4,5 -4,-78 371,-78 371,5 -4,5"/>
<!-- Node15 -->
<g id="node1" class="node"><title>Node15</title>
<g id="a_node1"><a xlink:title="Calls the appropriate subroutine to calculate the density of sea water for 1&#45;D array inputs.">
<polygon fill="#bfbfbf" stroke="black" points="278.5,-22 278.5,-52 365.5,-52 365.5,-22 278.5,-22"/>
<text text-anchor="start" x="286.5" y="-40" font-family="Helvetica,sans-Serif" font-size="10.00">mom_eos::calculate</text>
<text text-anchor="middle" x="322" y="-29" font-family="Helvetica,sans-Serif" font-size="10.00">_density_array</text>
</a>
</g>
</g>
<!-- Node16 -->
<g id="node2" class="node"><title>Node16</title>
<g id="a_node2"><a xlink:href="namespacemom__eos.html#a82d46c07f4f9c7ad5930fa2508c3e280" target="_top" xlink:title="Returns change in anomalous pressure change from top to non&#45;dimensional position pos between z_t and ...">
<polygon fill="white" stroke="black" points="130,-49.5 130,-68.5 242,-68.5 242,-49.5 130,-49.5"/>
<text text-anchor="middle" x="186" y="-56.5" font-family="Helvetica,sans-Serif" font-size="10.00">mom_eos::frac_dp_at_pos</text>
</a>
</g>
</g>
<!-- Node15&#45;&gt;Node16 -->
<g id="edge1" class="edge"><title>Node15&#45;&gt;Node16</title>
<path fill="none" stroke="midnightblue" d="M268.315,-45.6498C259.705,-47.0633 250.765,-48.5311 242.1,-49.9538"/>
<polygon fill="midnightblue" stroke="midnightblue" points="268.932,-49.0954 278.233,-44.0214 267.798,-42.1878 268.932,-49.0954"/>
</g>
<!-- Node18 -->
<g id="node4" class="node"><title>Node18</title>
<g id="a_node4"><a xlink:href="namespacemom__eos.html#a635b77946d77cad1ae90344832724a18" target="_top" xlink:title=" ">
<polygon fill="white" stroke="black" points="139,-0 139,-30 233,-30 233,-0 139,-0"/>
<text text-anchor="start" x="147" y="-18" font-family="Helvetica,sans-Serif" font-size="10.00">mom_eos::int_density</text>
<text text-anchor="middle" x="186" y="-7" font-family="Helvetica,sans-Serif" font-size="10.00">_dz_generic_plm</text>
</a>
</g>
</g>
<!-- Node15&#45;&gt;Node18 -->
<g id="edge3" class="edge"><title>Node15&#45;&gt;Node18</title>
<path fill="none" stroke="midnightblue" d="M268.217,-28.3342C256.603,-26.4273 244.39,-24.4223 233.065,-22.563"/>
<polygon fill="midnightblue" stroke="midnightblue" points="267.798,-31.8122 278.233,-29.9786 268.932,-24.9046 267.798,-31.8122"/>
</g>
<!-- Node17 -->
<g id="node3" class="node"><title>Node17</title>
<g id="a_node3"><a xlink:href="namespacemom__eos.html#a98a25c2517647778ccc6d46bbccc15e9" target="_top" xlink:title="Find the depth at which the reconstructed pressure matches P_tgt.">
<polygon fill="white" stroke="black" points="0,-44 0,-74 94,-74 94,-44 0,-44"/>
<text text-anchor="start" x="8" y="-62" font-family="Helvetica,sans-Serif" font-size="10.00">mom_eos::find_depth</text>
<text text-anchor="middle" x="47" y="-51" font-family="Helvetica,sans-Serif" font-size="10.00">_of_pressure_in_cell</text>
</a>
</g>
</g>
<!-- Node16&#45;&gt;Node17 -->
<g id="edge2" class="edge"><title>Node16&#45;&gt;Node17</title>
<path fill="none" stroke="midnightblue" d="M119.397,-59C110.921,-59 102.386,-59 94.3118,-59"/>
<polygon fill="midnightblue" stroke="midnightblue" points="119.672,-62.5001 129.672,-59 119.672,-55.5001 119.672,-62.5001"/>
</g>
</g>
</svg>
