<?xml version="1.0" encoding="UTF-8" standalone="no"?>
<!DOCTYPE svg PUBLIC "-//W3C//DTD SVG 1.1//EN"
 "http://www.w3.org/Graphics/SVG/1.1/DTD/svg11.dtd">
<!-- Generated by graphviz version 2.30.1 (20170916.1124)
 -->
<!-- Title: mom_get_input::get_mom_input Pages: 1 -->
<!--zoomable 382 -->
<svg id="main" version="1.1" xmlns="http://www.w3.org/2000/svg" xmlns:xlink="http://www.w3.org/1999/xlink" xml:space="preserve" onload="init(evt)">
<style type="text/css"><![CDATA[
.edge:hover path { stroke: red; }
.edge:hover polygon { stroke: red; fill: red; }
]]></style>
<script type="text/javascript"><![CDATA[
var edges = document.getElementsByTagName('g');
if (edges && edges.length) {
  for (var i=0;i<edges.length;i++) {
    if (edges[i].id.substr(0,4)=='edge') {
      edges[i].setAttribute('class','edge');
    }
  }
}
]]></script>
        <defs>
                <circle id="rim" cx="0" cy="0" r="7"/>
                <circle id="rim2" cx="0" cy="0" r="3.5"/>
                <g id="zoomPlus">
                        <use xlink:href="#rim" fill="#404040">
                                <set attributeName="fill" to="#808080" begin="zoomplus.mouseover" end="zoomplus.mouseout"/>
                        </use>
                        <path d="M-4,0h8M0,-4v8" fill="none" stroke="white" stroke-width="1.5" pointer-events="none"/>
                </g>
                <g id="zoomMin">
                        <use xlink:href="#rim" fill="#404040">
                                <set attributeName="fill" to="#808080" begin="zoomminus.mouseover" end="zoomminus.mouseout"/>
                        </use>
                        <path d="M-4,0h8" fill="none" stroke="white" stroke-width="1.5" pointer-events="none"/>
                </g>
                <g id="dirArrow">
                        <path fill="none" stroke="white" stroke-width="1.5" d="M0,-3.0v7 M-2.5,-0.5L0,-3.0L2.5,-0.5"/>
                </g>
               <g id="resetDef">
                       <use xlink:href="#rim2" fill="#404040">
                               <set attributeName="fill" to="#808080" begin="reset.mouseover" end="reset.mouseout"/>
                       </use>
               </g>
        </defs>

<script type="text/javascript">
var viewWidth = 980;
var viewHeight = 382;
var sectionId = 'dynsection-0';
</script>
<script xlink:href="svgpan.js"/>
<svg id="graph" class="graph">
<g id="viewport">
<title>mom_get_input::get_mom_input</title>
<polygon fill="white" stroke="white" points="-4,5 -4,-378.066 977,-378.066 977,5 -4,5"/>
<!-- Node0 -->
<g id="node1" class="node"><title>Node0</title>
<g id="a_node1"><a xlink:title=" ">
<polygon fill="#bfbfbf" stroke="black" points="0,-23.0655 0,-53.0655 88,-53.0655 88,-23.0655 0,-23.0655"/>
<text text-anchor="start" x="8" y="-41.0655" font-family="Helvetica,sans-Serif" font-size="10.00">mom_get_input::get</text>
<text text-anchor="middle" x="44" y="-30.0655" font-family="Helvetica,sans-Serif" font-size="10.00">_mom_input</text>
</a>
</g>
</g>
<!-- Node1 -->
<g id="node2" class="node"><title>Node1</title>
<g id="a_node2"><a xlink:href="namespacemom__error__handler.html#a460cfb79a06c29fc249952c2a3710d67" target="_top" xlink:title=" ">
<polygon fill="white" stroke="black" points="645.5,-83.0655 645.5,-113.066 738.5,-113.066 738.5,-83.0655 645.5,-83.0655"/>
<text text-anchor="start" x="653.5" y="-101.066" font-family="Helvetica,sans-Serif" font-size="10.00">mom_error_handler::</text>
<text text-anchor="middle" x="692" y="-90.0655" font-family="Helvetica,sans-Serif" font-size="10.00">mom_error</text>
</a>
</g>
</g>
<!-- Node0&#45;&gt;Node1 -->
<g id="edge1" class="edge"><title>Node0&#45;&gt;Node1</title>
<path fill="none" stroke="midnightblue" d="M88.2539,-41.446C178.081,-48.5567 391.361,-65.9085 570,-84.0655 591.328,-86.2333 614.738,-88.8795 635.237,-91.2854"/>
<polygon fill="midnightblue" stroke="midnightblue" points="635.012,-94.7831 645.354,-92.4807 635.833,-87.8314 635.012,-94.7831"/>
</g>
<!-- Node3 -->
<g id="node4" class="node"><title>Node3</title>
<g id="a_node4"><a xlink:href="namespacemom__file__parser.html#abecae1b9386aafa17aec927af1f8c448" target="_top" xlink:title=" ">
<polygon fill="white" stroke="black" points="124.5,-1.06554 124.5,-31.0655 223.5,-31.0655 223.5,-1.06554 124.5,-1.06554"/>
<text text-anchor="start" x="132.5" y="-19.0655" font-family="Helvetica,sans-Serif" font-size="10.00">mom_file_parser::open</text>
<text text-anchor="middle" x="174" y="-8.06554" font-family="Helvetica,sans-Serif" font-size="10.00">_param_file</text>
</a>
</g>
</g>
<!-- Node0&#45;&gt;Node3 -->
<g id="edge3" class="edge"><title>Node0&#45;&gt;Node3</title>
<path fill="none" stroke="midnightblue" d="M88.335,-30.6173C96.7662,-29.1682 105.733,-27.627 114.559,-26.1101"/>
<polygon fill="midnightblue" stroke="midnightblue" points="115.164,-29.5576 124.426,-24.4142 113.978,-22.6587 115.164,-29.5576"/>
</g>
<!-- Node2 -->
<g id="node3" class="node"><title>Node2</title>
<g id="a_node3"><a xlink:href="namespacemom__error__handler.html#ad5f00a53059c72fe2332d1436c80ca71" target="_top" xlink:title=" ">
<polygon fill="white" stroke="black" points="846.5,-83.0655 846.5,-113.066 939.5,-113.066 939.5,-83.0655 846.5,-83.0655"/>
<text text-anchor="start" x="854.5" y="-101.066" font-family="Helvetica,sans-Serif" font-size="10.00">mom_error_handler::</text>
<text text-anchor="middle" x="893" y="-90.0655" font-family="Helvetica,sans-Serif" font-size="10.00">is_root_pe</text>
</a>
</g>
</g>
<!-- Node1&#45;&gt;Node2 -->
<g id="edge2" class="edge"><title>Node1&#45;&gt;Node2</title>
<path fill="none" stroke="midnightblue" d="M738.655,-98.0655C767.624,-98.0655 805.309,-98.0655 836.07,-98.0655"/>
<polygon fill="midnightblue" stroke="midnightblue" points="836.214,-101.566 846.214,-98.0655 836.214,-94.5656 836.214,-101.566"/>
</g>
<!-- Node3&#45;&gt;Node2 -->
<g id="edge4" class="edge"><title>Node3&#45;&gt;Node2</title>
<path fill="none" stroke="midnightblue" d="M223.847,-7.29764C235.644,-5.53985 248.24,-3.9596 260,-3.06554 309.635,0.708106 322.403,1.17871 372,-3.06554 543.153,-17.7121 742.019,-61.7284 836.573,-84.3356"/>
<polygon fill="midnightblue" stroke="midnightblue" points="835.945,-87.7845 846.486,-86.7191 837.582,-80.9784 835.945,-87.7845"/>
</g>
<!-- Node4 -->
<g id="node5" class="node"><title>Node4</title>
<g id="a_node5"><a xlink:href="MOM__memory_8h.html#ae22791a326f7ecd05017238a41eea3a8" target="_top" xlink:title=" ">
<polygon fill="white" stroke="black" points="294,-12.5655 294,-31.5655 338,-31.5655 338,-12.5655 294,-12.5655"/>
<text text-anchor="middle" x="316" y="-19.5655" font-family="Helvetica,sans-Serif" font-size="10.00">number</text>
</a>
</g>
</g>
<!-- Node3&#45;&gt;Node4 -->
<g id="edge5" class="edge"><title>Node3&#45;&gt;Node4</title>
<path fill="none" stroke="midnightblue" d="M223.572,-18.1472C243.454,-18.9993 265.889,-19.9608 283.559,-20.718"/>
<polygon fill="midnightblue" stroke="midnightblue" points="283.739,-24.2289 293.88,-21.1604 284.039,-17.2353 283.739,-24.2289"/>
</g>
<!-- Node5 -->
<g id="node6" class="node"><title>Node5</title>
<g id="a_node6"><a xlink:href="namespacemom__file__parser.html#a7abfd98d7f0831fc0d1f3747a68f1be9" target="_top" xlink:title=" ">
<polygon fill="white" stroke="black" points="260,-197.066 260,-227.066 372,-227.066 372,-197.066 260,-197.066"/>
<text text-anchor="start" x="268" y="-215.066" font-family="Helvetica,sans-Serif" font-size="10.00">mom_file_parser::populate</text>
<text text-anchor="middle" x="316" y="-204.066" font-family="Helvetica,sans-Serif" font-size="10.00">_param_data</text>
</a>
</g>
</g>
<!-- Node3&#45;&gt;Node5 -->
<g id="edge6" class="edge"><title>Node3&#45;&gt;Node5</title>
<path fill="none" stroke="midnightblue" d="M185.753,-31.1199C210.031,-65.1095 269.236,-147.997 298.32,-188.714"/>
<polygon fill="midnightblue" stroke="midnightblue" points="295.55,-190.857 304.21,-196.96 301.246,-186.788 295.55,-190.857"/>
</g>
<!-- Node6 -->
<g id="node7" class="node"><title>Node6</title>
<g id="a_node7"><a xlink:href="namespacemom__file__parser.html#a99c426fd23fc4df0c4d05e33039e0a66" target="_top" xlink:title=" ">
<polygon fill="white" stroke="black" points="408.5,-164.566 408.5,-183.566 569.5,-183.566 569.5,-164.566 408.5,-164.566"/>
<text text-anchor="middle" x="489" y="-171.566" font-family="Helvetica,sans-Serif" font-size="10.00">mom_file_parser::closemultilinecomment</text>
</a>
</g>
</g>
<!-- Node5&#45;&gt;Node6 -->
<g id="edge7" class="edge"><title>Node5&#45;&gt;Node6</title>
<path fill="none" stroke="midnightblue" d="M372.047,-199.833C392.259,-195.341 415.084,-190.269 435.103,-185.82"/>
<polygon fill="midnightblue" stroke="midnightblue" points="435.981,-189.211 444.984,-183.625 434.463,-182.377 435.981,-189.211"/>
</g>
<!-- Node5&#45;&gt;Node2 -->
<g id="edge8" class="edge"><title>Node5&#45;&gt;Node2</title>
<path fill="none" stroke="midnightblue" d="M372.056,-225.456C383.845,-227.79 396.281,-229.855 408,-231.066 479.619,-238.462 499.376,-245.077 570,-231.066 679.588,-209.324 798.674,-149.713 856.496,-118.202"/>
<polygon fill="midnightblue" stroke="midnightblue" points="858.495,-121.097 865.571,-113.212 855.122,-114.963 858.495,-121.097"/>
</g>
<!-- Node7 -->
<g id="node8" class="node"><title>Node7</title>
<g id="a_node8"><a xlink:href="namespacemom__file__parser.html#ab4b89d9420e174185db1c6aa3feb948b" target="_top" xlink:title=" ">
<polygon fill="white" stroke="black" points="606,-316.566 606,-335.566 778,-335.566 778,-316.566 606,-316.566"/>
<text text-anchor="middle" x="692" y="-323.566" font-family="Helvetica,sans-Serif" font-size="10.00">mom_file_parser::lastnoncommentnonblank</text>
</a>
</g>
</g>
<!-- Node5&#45;&gt;Node7 -->
<g id="edge9" class="edge"><title>Node5&#45;&gt;Node7</title>
<path fill="none" stroke="midnightblue" d="M329.678,-227.38C345.799,-245.681 375.476,-275.635 408,-290.066 466.937,-316.214 539.116,-325.078 595.828,-327.474"/>
<polygon fill="midnightblue" stroke="midnightblue" points="595.749,-330.973 605.87,-327.838 596.003,-323.978 595.749,-330.973"/>
</g>
<!-- Node5&#45;&gt;Node1 -->
<g id="edge11" class="edge"><title>Node5&#45;&gt;Node1</title>
<path fill="none" stroke="midnightblue" d="M326.211,-196.886C340.564,-174.806 370.546,-134.56 408,-117.066 480.813,-83.0557 575.804,-84.6869 635.103,-90.3385"/>
<polygon fill="midnightblue" stroke="midnightblue" points="635.081,-93.8545 645.386,-91.3931 635.795,-86.891 635.081,-93.8545"/>
</g>
<!-- Node9 -->
<g id="node10" class="node"><title>Node9</title>
<g id="a_node10"><a xlink:href="namespacemom__file__parser.html#a476a2649ce161e38088588e07f7df130" target="_top" xlink:title=" ">
<polygon fill="white" stroke="black" points="611.5,-278.566 611.5,-297.566 772.5,-297.566 772.5,-278.566 611.5,-278.566"/>
<text text-anchor="middle" x="692" y="-285.566" font-family="Helvetica,sans-Serif" font-size="10.00">mom_file_parser::openmultilinecomment</text>
</a>
</g>
</g>
<!-- Node5&#45;&gt;Node9 -->
<g id="edge12" class="edge"><title>Node5&#45;&gt;Node9</title>
<path fill="none" stroke="midnightblue" d="M337.481,-227.255C355.177,-239.493 381.94,-255.951 408,-264.066 470.732,-283.6 544.831,-289.301 601.469,-290.277"/>
<polygon fill="midnightblue" stroke="midnightblue" points="601.432,-293.777 611.476,-290.404 601.521,-286.777 601.432,-293.777"/>
</g>
<!-- Node10 -->
<g id="node11" class="node"><title>Node10</title>
<g id="a_node11"><a xlink:href="namespacemom__file__parser.html#ae0b982cc161173a401291757a6677373" target="_top" xlink:title=" ">
<polygon fill="white" stroke="black" points="416.5,-354.566 416.5,-373.566 561.5,-373.566 561.5,-354.566 416.5,-354.566"/>
<text text-anchor="middle" x="489" y="-361.566" font-family="Helvetica,sans-Serif" font-size="10.00">mom_file_parser::removecomments</text>
</a>
</g>
</g>
<!-- Node5&#45;&gt;Node10 -->
<g id="edge14" class="edge"><title>Node5&#45;&gt;Node10</title>
<path fill="none" stroke="midnightblue" d="M323.632,-227.182C336.166,-253.991 365.901,-309.876 408,-340.066 414.076,-344.423 420.95,-347.998 428.054,-350.93"/>
<polygon fill="midnightblue" stroke="midnightblue" points="427.237,-354.36 437.83,-354.543 429.663,-347.794 427.237,-354.36"/>
</g>
<!-- Node11 -->
<g id="node12" class="node"><title>Node11</title>
<g id="a_node12"><a xlink:href="namespacemom__file__parser.html#a9813087789e0924f363d7f67768c7f42" target="_top" xlink:title=" ">
<polygon fill="white" stroke="black" points="428,-202.566 428,-221.566 550,-221.566 550,-202.566 428,-202.566"/>
<text text-anchor="middle" x="489" y="-209.566" font-family="Helvetica,sans-Serif" font-size="10.00">mom_file_parser::replacetabs</text>
</a>
</g>
</g>
<!-- Node5&#45;&gt;Node11 -->
<g id="edge16" class="edge"><title>Node5&#45;&gt;Node11</title>
<path fill="none" stroke="midnightblue" d="M372.047,-212.066C386.484,-212.066 402.255,-212.066 417.384,-212.066"/>
<polygon fill="midnightblue" stroke="midnightblue" points="417.731,-215.566 427.731,-212.066 417.731,-208.566 417.731,-215.566"/>
</g>
<!-- Node12 -->
<g id="node13" class="node"><title>Node12</title>
<g id="a_node13"><a xlink:href="namespacemom__file__parser.html#a3ad322925f44e8cb48c4e652634f6f93" target="_top" xlink:title=" ">
<polygon fill="white" stroke="black" points="416,-126.566 416,-145.566 562,-145.566 562,-126.566 416,-126.566"/>
<text text-anchor="middle" x="489" y="-133.566" font-family="Helvetica,sans-Serif" font-size="10.00">mom_file_parser::simplifywhitespace</text>
</a>
</g>
</g>
<!-- Node5&#45;&gt;Node12 -->
<g id="edge17" class="edge"><title>Node5&#45;&gt;Node12</title>
<path fill="none" stroke="midnightblue" d="M336.911,-196.904C354.681,-184.049 381.861,-166.006 408,-155.066 414.105,-152.51 420.622,-150.258 427.202,-148.282"/>
<polygon fill="midnightblue" stroke="midnightblue" points="428.161,-151.648 436.847,-145.581 426.274,-144.907 428.161,-151.648"/>
</g>
<!-- Node8 -->
<g id="node9" class="node"><title>Node8</title>
<g id="a_node9"><a xlink:href="namespacemom__file__parser.html#a000fd0a0681f9e73481ef2663154df78" target="_top" xlink:title=" ">
<polygon fill="white" stroke="black" points="814,-297.566 814,-316.566 972,-316.566 972,-297.566 814,-297.566"/>
<text text-anchor="middle" x="893" y="-304.566" font-family="Helvetica,sans-Serif" font-size="10.00">mom_file_parser::lastnoncommentindex</text>
</a>
</g>
</g>
<!-- Node7&#45;&gt;Node8 -->
<g id="edge10" class="edge"><title>Node7&#45;&gt;Node8</title>
<path fill="none" stroke="midnightblue" d="M778.26,-317.925C786.66,-317.123 795.198,-316.308 803.628,-315.503"/>
<polygon fill="midnightblue" stroke="midnightblue" points="804.219,-318.963 813.841,-314.528 803.553,-311.994 804.219,-318.963"/>
</g>
<!-- Node9&#45;&gt;Node8 -->
<g id="edge13" class="edge"><title>Node9&#45;&gt;Node8</title>
<path fill="none" stroke="midnightblue" d="M772.508,-295.657C782.845,-296.644 793.483,-297.659 803.949,-298.659"/>
<polygon fill="midnightblue" stroke="midnightblue" points="803.628,-302.144 813.916,-299.61 804.293,-295.176 803.628,-302.144"/>
</g>
<!-- Node10&#45;&gt;Node7 -->
<g id="edge15" class="edge"><title>Node10&#45;&gt;Node7</title>
<path fill="none" stroke="midnightblue" d="M540.461,-354.526C567.82,-349.353 601.82,-342.925 630.582,-337.488"/>
<polygon fill="midnightblue" stroke="midnightblue" points="631.342,-340.906 640.518,-335.609 630.042,-334.028 631.342,-340.906"/>
</g>
<!-- Node12&#45;&gt;Node1 -->
<g id="edge18" class="edge"><title>Node12&#45;&gt;Node1</title>
<path fill="none" stroke="midnightblue" d="M540.461,-126.526C569.276,-121.078 605.459,-114.238 635.129,-108.628"/>
<polygon fill="midnightblue" stroke="midnightblue" points="636.154,-111.997 645.33,-106.7 634.853,-105.118 636.154,-111.997"/>
</g>
</g>
</svg>
        <g id="navigator" transform="translate(0 0)" fill="#404254">
                <rect fill="#f2f5e9" fill-opacity="0.5" stroke="#606060" stroke-width=".5" x="0" y="0" width="60" height="60"/>
                <use id="zoomplus" xlink:href="#zoomPlus" x="17" y="9" onmousedown="handleZoom(evt,'in')"/>
                <use id="zoomminus" xlink:href="#zoomMin" x="42" y="9" onmousedown="handleZoom(evt,'out')"/>
                <use id="reset" xlink:href="#resetDef" x="30" y="36" onmousedown="handleReset()"/>
                <g id="arrowUp" xlink:href="#dirArrow" transform="translate(30 24)" onmousedown="handlePan(0,-1)">
                  <use xlink:href="#rim" fill="#404040">
                        <set attributeName="fill" to="#808080" begin="arrowUp.mouseover" end="arrowUp.mouseout"/>
                  </use>
                  <path fill="none" stroke="white" stroke-width="1.5" d="M0,-3.0v7 M-2.5,-0.5L0,-3.0L2.5,-0.5"/>
                </g>
                <g id="arrowRight" xlink:href="#dirArrow" transform="rotate(90) translate(36 -43)" onmousedown="handlePan(1,0)">
                  <use xlink:href="#rim" fill="#404040">
                        <set attributeName="fill" to="#808080" begin="arrowRight.mouseover" end="arrowRight.mouseout"/>
                  </use>
                  <path fill="none" stroke="white" stroke-width="1.5" d="M0,-3.0v7 M-2.5,-0.5L0,-3.0L2.5,-0.5"/>
                </g>
                <g id="arrowDown" xlink:href="#dirArrow" transform="rotate(180) translate(-30 -48)" onmousedown="handlePan(0,1)">
                  <use xlink:href="#rim" fill="#404040">
                        <set attributeName="fill" to="#808080" begin="arrowDown.mouseover" end="arrowDown.mouseout"/>
                  </use>
                  <path fill="none" stroke="white" stroke-width="1.5" d="M0,-3.0v7 M-2.5,-0.5L0,-3.0L2.5,-0.5"/>
                </g>
                <g id="arrowLeft" xlink:href="#dirArrow" transform="rotate(270) translate(-36 17)" onmousedown="handlePan(-1,0)">
                  <use xlink:href="#rim" fill="#404040">
                        <set attributeName="fill" to="#808080" begin="arrowLeft.mouseover" end="arrowLeft.mouseout"/>
                  </use>
                  <path fill="none" stroke="white" stroke-width="1.5" d="M0,-3.0v7 M-2.5,-0.5L0,-3.0L2.5,-0.5"/>
                </g>
        </g>
        <svg viewBox="0 0 15 15" width="100%" height="30px" preserveAspectRatio="xMaxYMin meet">
         <g id="arrow_out" transform="scale(0.3 0.3)">
          <a xlink:href="namespacemom__get__input_a299c5b9476662ef1a382e23a8d078143_cgraph_org.svg" target="_base">
           <rect id="button" ry="5" rx="5" y="6" x="6" height="38" width="38"
                fill="#f2f5e9" fill-opacity="0.5" stroke="#606060" stroke-width="1.0"/>
           <path id="arrow"
             d="M 11.500037,31.436501 C 11.940474,20.09759 22.043105,11.32322 32.158766,21.979434 L 37.068811,17.246167 C 37.068811,17.246167 37.088388,32 37.088388,32 L 22.160133,31.978069 C 22.160133,31.978069 26.997745,27.140456 26.997745,27.140456 C 18.528582,18.264221 13.291696,25.230495 11.500037,31.436501 z"
             style="fill:#404040;"/>
          </a>
         </g>
        </svg>
</svg>
