<?xml version="1.0" encoding="UTF-8" standalone="no"?>
<!DOCTYPE svg PUBLIC "-//W3C//DTD SVG 1.1//EN"
 "http://www.w3.org/Graphics/SVG/1.1/DTD/svg11.dtd">
<!-- Generated by graphviz version 2.30.1 (20170916.1124)
 -->
<!-- Title: mom_offline_transport::transport_by_files Pages: 1 -->
<svg width="370pt" height="136pt"
 viewBox="0.00 0.00 370.00 136.00" xmlns="http://www.w3.org/2000/svg" xmlns:xlink="http://www.w3.org/1999/xlink">
<g id="graph0" class="graph" transform="scale(1 1) rotate(0) translate(4 132)">
<title>mom_offline_transport::transport_by_files</title>
<polygon fill="white" stroke="white" points="-4,5 -4,-132 367,-132 367,5 -4,5"/>
<!-- Node31 -->
<g id="node1" class="node"><title>Node31</title>
<g id="a_node1"><a xlink:title="Controls the reading in 3d mass fluxes, diffusive fluxes, and other fields stored in a previous integ...">
<polygon fill="#bfbfbf" stroke="black" points="0.5,-49 0.5,-79 97.5,-79 97.5,-49 0.5,-49"/>
<text text-anchor="start" x="8.5" y="-67" font-family="Helvetica,sans-Serif" font-size="10.00">mom_offline_transport</text>
<text text-anchor="middle" x="49" y="-56" font-family="Helvetica,sans-Serif" font-size="10.00">::transport_by_files</text>
</a>
</g>
</g>
<!-- Node32 -->
<g id="node2" class="node"><title>Node32</title>
<g id="a_node2"><a xlink:href="namespacemom__error__handler.html#a9cda07a87815f0e5594066162b4345c3" target="_top" xlink:title="Writes a message about entering a subroutine if call tree reporting is active.">
<polygon fill="white" stroke="black" points="136.5,-98 136.5,-128 229.5,-128 229.5,-98 136.5,-98"/>
<text text-anchor="start" x="144.5" y="-116" font-family="Helvetica,sans-Serif" font-size="10.00">mom_error_handler::</text>
<text text-anchor="middle" x="183" y="-105" font-family="Helvetica,sans-Serif" font-size="10.00">calltree_enter</text>
</a>
</g>
</g>
<!-- Node31&#45;&gt;Node32 -->
<g id="edge1" class="edge"><title>Node31&#45;&gt;Node32</title>
<path fill="none" stroke="midnightblue" d="M90.6814,-79.1014C103.604,-83.8985 118.053,-89.2622 131.577,-94.2823"/>
<polygon fill="midnightblue" stroke="midnightblue" points="130.633,-97.6652 141.226,-97.8641 133.069,-91.1027 130.633,-97.6652"/>
</g>
<!-- Node34 -->
<g id="node4" class="node"><title>Node34</title>
<g id="a_node4"><a xlink:href="namespacemom__error__handler.html#a88ea67781e2ed9b73ab7eac8ea5e8578" target="_top" xlink:title="Writes a message about leaving a subroutine if call tree reporting is active.">
<polygon fill="white" stroke="black" points="136.5,-49 136.5,-79 229.5,-79 229.5,-49 136.5,-49"/>
<text text-anchor="start" x="144.5" y="-67" font-family="Helvetica,sans-Serif" font-size="10.00">mom_error_handler::</text>
<text text-anchor="middle" x="183" y="-56" font-family="Helvetica,sans-Serif" font-size="10.00">calltree_leave</text>
</a>
</g>
</g>
<!-- Node31&#45;&gt;Node34 -->
<g id="edge3" class="edge"><title>Node31&#45;&gt;Node34</title>
<path fill="none" stroke="midnightblue" d="M97.655,-64C106.874,-64 116.613,-64 126.068,-64"/>
<polygon fill="midnightblue" stroke="midnightblue" points="126.18,-67.5001 136.18,-64 126.18,-60.5001 126.18,-67.5001"/>
</g>
<!-- Node35 -->
<g id="node5" class="node"><title>Node35</title>
<g id="a_node5"><a xlink:href="namespacemom__offline__transport.html#a277e868a412054fa0cf723b15e32b8a2" target="_top" xlink:title="Calculates the next timelevel to read from the input fields. This allows the &#39;looping&#39; of the fields.">
<polygon fill="white" stroke="black" points="134.5,-0 134.5,-30 231.5,-30 231.5,-0 134.5,-0"/>
<text text-anchor="start" x="142.5" y="-18" font-family="Helvetica,sans-Serif" font-size="10.00">mom_offline_transport</text>
<text text-anchor="middle" x="183" y="-7" font-family="Helvetica,sans-Serif" font-size="10.00">::next_modulo_time</text>
</a>
</g>
</g>
<!-- Node31&#45;&gt;Node35 -->
<g id="edge5" class="edge"><title>Node31&#45;&gt;Node35</title>
<path fill="none" stroke="midnightblue" d="M90.6814,-48.8986C103.604,-44.1015 118.053,-38.7378 131.577,-33.7177"/>
<polygon fill="midnightblue" stroke="midnightblue" points="133.069,-36.8973 141.226,-30.1359 130.633,-30.3348 133.069,-36.8973"/>
</g>
<!-- Node33 -->
<g id="node3" class="node"><title>Node33</title>
<g id="a_node3"><a xlink:href="namespacemom__error__handler.html#ad5f00a53059c72fe2332d1436c80ca71" target="_top" xlink:title=" ">
<polygon fill="white" stroke="black" points="268.5,-73 268.5,-103 361.5,-103 361.5,-73 268.5,-73"/>
<text text-anchor="start" x="276.5" y="-91" font-family="Helvetica,sans-Serif" font-size="10.00">mom_error_handler::</text>
<text text-anchor="middle" x="315" y="-80" font-family="Helvetica,sans-Serif" font-size="10.00">is_root_pe</text>
</a>
</g>
</g>
<!-- Node32&#45;&gt;Node33 -->
<g id="edge2" class="edge"><title>Node32&#45;&gt;Node33</title>
<path fill="none" stroke="midnightblue" d="M229.833,-104.186C238.959,-102.431 248.639,-100.569 258.06,-98.7577"/>
<polygon fill="midnightblue" stroke="midnightblue" points="258.984,-102.144 268.143,-96.8187 257.662,-95.2703 258.984,-102.144"/>
</g>
<!-- Node34&#45;&gt;Node33 -->
<g id="edge4" class="edge"><title>Node34&#45;&gt;Node33</title>
<path fill="none" stroke="midnightblue" d="M229.833,-72.4615C238.959,-74.1463 248.639,-75.9334 258.06,-77.6726"/>
<polygon fill="midnightblue" stroke="midnightblue" points="257.673,-81.1603 268.143,-79.534 258.944,-74.2766 257.673,-81.1603"/>
</g>
</g>
</svg>
