<?xml version="1.0" encoding="UTF-8" standalone="no"?>
<!DOCTYPE svg PUBLIC "-//W3C//DTD SVG 1.1//EN"
 "http://www.w3.org/Graphics/SVG/1.1/DTD/svg11.dtd">
<!-- Generated by graphviz version 2.30.1 (20170916.1124)
 -->
<!-- Title: mom_continuity_ppm::ratio_max Pages: 1 -->
<svg width="362pt" height="87pt"
 viewBox="0.00 0.00 362.00 87.00" xmlns="http://www.w3.org/2000/svg" xmlns:xlink="http://www.w3.org/1999/xlink">
<g id="graph0" class="graph" transform="scale(1 1) rotate(0) translate(4 83)">
<title>mom_continuity_ppm::ratio_max</title>
<polygon fill="white" stroke="white" points="-4,5 -4,-83 359,-83 359,5 -4,5"/>
<!-- Node86 -->
<g id="node1" class="node"><title>Node86</title>
<g id="a_node1"><a xlink:title="Return the maximum ratio of a/b or maxrat.">
<polygon fill="#bfbfbf" stroke="black" points="262,-24 262,-54 354,-54 354,-24 262,-24"/>
<text text-anchor="start" x="270" y="-42" font-family="Helvetica,sans-Serif" font-size="10.00">mom_continuity_ppm</text>
<text text-anchor="middle" x="308" y="-31" font-family="Helvetica,sans-Serif" font-size="10.00">::ratio_max</text>
</a>
</g>
</g>
<!-- Node87 -->
<g id="node2" class="node"><title>Node87</title>
<g id="a_node2"><a xlink:href="namespacemom__continuity__ppm.html#ae326b8319da257f423f73a32a984b641" target="_top" xlink:title="Calculates the mass or volume fluxes through the meridional faces, and other related quantities.">
<polygon fill="white" stroke="black" points="128,-49 128,-79 226,-79 226,-49 128,-49"/>
<text text-anchor="start" x="136" y="-67" font-family="Helvetica,sans-Serif" font-size="10.00">mom_continuity_ppm</text>
<text text-anchor="middle" x="177" y="-56" font-family="Helvetica,sans-Serif" font-size="10.00">::meridional_mass_flux</text>
</a>
</g>
</g>
<!-- Node86&#45;&gt;Node87 -->
<g id="edge1" class="edge"><title>Node86&#45;&gt;Node87</title>
<path fill="none" stroke="midnightblue" d="M252.019,-49.6553C243.496,-51.3069 234.747,-53.0024 226.385,-54.6231"/>
<polygon fill="midnightblue" stroke="midnightblue" points="252.731,-53.0825 261.882,-47.7438 251.399,-46.2104 252.731,-53.0825"/>
</g>
<!-- Node89 -->
<g id="node4" class="node"><title>Node89</title>
<g id="a_node4"><a xlink:href="namespacemom__continuity__ppm.html#aaee3d916bed27d4884d9473218c20fc9" target="_top" xlink:title="Calculates the mass or volume fluxes through the zonal faces, and other related quantities.">
<polygon fill="white" stroke="black" points="131,-0 131,-30 223,-30 223,-0 131,-0"/>
<text text-anchor="start" x="139" y="-18" font-family="Helvetica,sans-Serif" font-size="10.00">mom_continuity_ppm</text>
<text text-anchor="middle" x="177" y="-7" font-family="Helvetica,sans-Serif" font-size="10.00">::zonal_mass_flux</text>
</a>
</g>
</g>
<!-- Node86&#45;&gt;Node89 -->
<g id="edge3" class="edge"><title>Node86&#45;&gt;Node89</title>
<path fill="none" stroke="midnightblue" d="M252.04,-28.7748C242.46,-26.9926 232.594,-25.157 223.311,-23.4299"/>
<polygon fill="midnightblue" stroke="midnightblue" points="251.411,-32.2178 261.882,-30.606 252.691,-25.3358 251.411,-32.2178"/>
</g>
<!-- Node88 -->
<g id="node3" class="node"><title>Node88</title>
<g id="a_node3"><a xlink:href="namespacemom__continuity__ppm.html#a59586aae1668f03f3a78d58f5712cc0f" target="_top" xlink:title="Time steps the layer thicknesses, using a monotonically limit, directionally split PPM scheme,...">
<polygon fill="white" stroke="black" points="0,-24 0,-54 92,-54 92,-24 0,-24"/>
<text text-anchor="start" x="8" y="-42" font-family="Helvetica,sans-Serif" font-size="10.00">mom_continuity_ppm</text>
<text text-anchor="middle" x="46" y="-31" font-family="Helvetica,sans-Serif" font-size="10.00">::continuity_ppm</text>
</a>
</g>
</g>
<!-- Node87&#45;&gt;Node88 -->
<g id="edge2" class="edge"><title>Node87&#45;&gt;Node88</title>
<path fill="none" stroke="midnightblue" d="M117.905,-52.7414C109.243,-51.0626 100.425,-49.3536 92.084,-47.7372"/>
<polygon fill="midnightblue" stroke="midnightblue" points="117.482,-56.2243 127.965,-54.6909 118.814,-49.3522 117.482,-56.2243"/>
</g>
<!-- Node89&#45;&gt;Node88 -->
<g id="edge4" class="edge"><title>Node89&#45;&gt;Node88</title>
<path fill="none" stroke="midnightblue" d="M121.04,-25.2252C111.46,-27.0074 101.594,-28.843 92.3105,-30.5701"/>
<polygon fill="midnightblue" stroke="midnightblue" points="121.691,-28.6642 130.882,-23.394 120.411,-21.7822 121.691,-28.6642"/>
</g>
</g>
</svg>
