<?xml version="1.0" encoding="UTF-8" standalone="no"?>
<!DOCTYPE svg PUBLIC "-//W3C//DTD SVG 1.1//EN"
 "http://www.w3.org/Graphics/SVG/1.1/DTD/svg11.dtd">
<!-- Generated by graphviz version 2.30.1 (20170916.1124)
 -->
<!-- Title: mom_tracer_z_init::tracer_z_init Pages: 1 -->
<svg width="372pt" height="148pt"
 viewBox="0.00 0.00 372.00 148.00" xmlns="http://www.w3.org/2000/svg" xmlns:xlink="http://www.w3.org/1999/xlink">
<g id="graph0" class="graph" transform="scale(1 1) rotate(0) translate(4 144)">
<title>mom_tracer_z_init::tracer_z_init</title>
<polygon fill="white" stroke="white" points="-4,5 -4,-144 369,-144 369,5 -4,5"/>
<!-- Node17 -->
<g id="node1" class="node"><title>Node17</title>
<g id="a_node1"><a xlink:title=" ">
<polygon fill="#bfbfbf" stroke="black" points="276.5,-55 276.5,-85 363.5,-85 363.5,-55 276.5,-55"/>
<text text-anchor="start" x="284.5" y="-73" font-family="Helvetica,sans-Serif" font-size="10.00">mom_tracer_z_init::</text>
<text text-anchor="middle" x="320" y="-62" font-family="Helvetica,sans-Serif" font-size="10.00">tracer_z_init</text>
</a>
</g>
</g>
<!-- Node18 -->
<g id="node2" class="node"><title>Node18</title>
<g id="a_node2"><a xlink:href="namespacemom__ocmip2__cfc.html#a403331f12c4b16682f42f284bf57f330" target="_top" xlink:title=" ">
<polygon fill="white" stroke="black" points="146.5,-110 146.5,-140 239.5,-140 239.5,-110 146.5,-110"/>
<text text-anchor="start" x="154.5" y="-128" font-family="Helvetica,sans-Serif" font-size="10.00">mom_ocmip2_cfc::init</text>
<text text-anchor="middle" x="193" y="-117" font-family="Helvetica,sans-Serif" font-size="10.00">_tracer_cfc</text>
</a>
</g>
</g>
<!-- Node17&#45;&gt;Node18 -->
<g id="edge1" class="edge"><title>Node17&#45;&gt;Node18</title>
<path fill="none" stroke="midnightblue" d="M275.449,-89.1624C259.942,-95.9854 242.717,-103.565 228.116,-109.989"/>
<polygon fill="midnightblue" stroke="midnightblue" points="277.1,-92.26 284.843,-85.029 274.28,-85.8528 277.1,-92.26"/>
</g>
<!-- Node20 -->
<g id="node4" class="node"><title>Node20</title>
<g id="a_node4"><a xlink:href="namespaceideal__age__example.html#abec4db7c44f7a6d5c891a6d8a17a99b3" target="_top" xlink:title=" ">
<polygon fill="white" stroke="black" points="148,-49.5 148,-90.5 238,-90.5 238,-49.5 148,-49.5"/>
<text text-anchor="start" x="156" y="-78.5" font-family="Helvetica,sans-Serif" font-size="10.00">ideal_age_example::</text>
<text text-anchor="start" x="156" y="-67.5" font-family="Helvetica,sans-Serif" font-size="10.00">initialize_ideal_age</text>
<text text-anchor="middle" x="193" y="-56.5" font-family="Helvetica,sans-Serif" font-size="10.00">_tracer</text>
</a>
</g>
</g>
<!-- Node17&#45;&gt;Node20 -->
<g id="edge3" class="edge"><title>Node17&#45;&gt;Node20</title>
<path fill="none" stroke="midnightblue" d="M266.324,-70C256.954,-70 247.282,-70 238.179,-70"/>
<polygon fill="midnightblue" stroke="midnightblue" points="266.332,-73.5001 276.332,-70 266.332,-66.5001 266.332,-73.5001"/>
</g>
<!-- Node21 -->
<g id="node5" class="node"><title>Node21</title>
<g id="a_node5"><a xlink:href="namespaceoil__tracer.html#a2bb5dd516d506706c1e67e1206e389b5" target="_top" xlink:title=" ">
<polygon fill="white" stroke="black" points="152.5,-0 152.5,-30 233.5,-30 233.5,-0 152.5,-0"/>
<text text-anchor="start" x="160.5" y="-18" font-family="Helvetica,sans-Serif" font-size="10.00">oil_tracer::initialize</text>
<text text-anchor="middle" x="193" y="-7" font-family="Helvetica,sans-Serif" font-size="10.00">_oil_tracer</text>
</a>
</g>
</g>
<!-- Node17&#45;&gt;Node21 -->
<g id="edge4" class="edge"><title>Node17&#45;&gt;Node21</title>
<path fill="none" stroke="midnightblue" d="M275.449,-50.8376C259.942,-44.0146 242.717,-36.4354 228.116,-30.0108"/>
<polygon fill="midnightblue" stroke="midnightblue" points="274.28,-54.1472 284.843,-54.971 277.1,-47.74 274.28,-54.1472"/>
</g>
<!-- Node19 -->
<g id="node3" class="node"><title>Node19</title>
<g id="a_node3"><a xlink:href="namespacemom__ocmip2__cfc.html#a0c916b2f0835bd79002803f246d2ef49" target="_top" xlink:title=" ">
<polygon fill="white" stroke="black" points="0,-110 0,-140 110,-140 110,-110 0,-110"/>
<text text-anchor="start" x="8" y="-128" font-family="Helvetica,sans-Serif" font-size="10.00">mom_ocmip2_cfc::initialize</text>
<text text-anchor="middle" x="55" y="-117" font-family="Helvetica,sans-Serif" font-size="10.00">_ocmip2_cfc</text>
</a>
</g>
</g>
<!-- Node18&#45;&gt;Node19 -->
<g id="edge2" class="edge"><title>Node18&#45;&gt;Node19</title>
<path fill="none" stroke="midnightblue" d="M136.092,-125C127.557,-125 118.758,-125 110.259,-125"/>
<polygon fill="midnightblue" stroke="midnightblue" points="136.336,-128.5 146.336,-125 136.336,-121.5 136.336,-128.5"/>
</g>
</g>
</svg>
