<?xml version="1.0" encoding="UTF-8" standalone="no"?>
<!DOCTYPE svg PUBLIC "-//W3C//DTD SVG 1.1//EN"
 "http://www.w3.org/Graphics/SVG/1.1/DTD/svg11.dtd">
<!-- Generated by graphviz version 2.30.1 (20170916.1124)
 -->
<!-- Title: mom_kappa_shear::calculate_kappa_shear Pages: 1 -->
<svg width="548pt" height="136pt"
 viewBox="0.00 0.00 548.00 136.00" xmlns="http://www.w3.org/2000/svg" xmlns:xlink="http://www.w3.org/1999/xlink">
<g id="graph0" class="graph" transform="scale(1 1) rotate(0) translate(4 132)">
<title>mom_kappa_shear::calculate_kappa_shear</title>
<polygon fill="white" stroke="white" points="-4,5 -4,-132 545,-132 545,5 -4,5"/>
<!-- Node0 -->
<g id="node1" class="node"><title>Node0</title>
<g id="a_node1"><a xlink:title=" ">
<polygon fill="#bfbfbf" stroke="black" points="0.5,-49 0.5,-79 121.5,-79 121.5,-49 0.5,-49"/>
<text text-anchor="start" x="8.5" y="-67" font-family="Helvetica,sans-Serif" font-size="10.00">mom_kappa_shear::calculate</text>
<text text-anchor="middle" x="61" y="-56" font-family="Helvetica,sans-Serif" font-size="10.00">_kappa_shear</text>
</a>
</g>
</g>
<!-- Node1 -->
<g id="node2" class="node"><title>Node1</title>
<g id="a_node2"><a xlink:href="namespacemom__eos.html#a204529f8434a0322314e6ce2a9762436" target="_top" xlink:title="Calls the appropriate subroutine to calculate density derivatives for 1&#45;D array inputs.">
<polygon fill="white" stroke="black" points="175.5,-98 175.5,-128 262.5,-128 262.5,-98 175.5,-98"/>
<text text-anchor="start" x="183.5" y="-116" font-family="Helvetica,sans-Serif" font-size="10.00">mom_eos::calculate</text>
<text text-anchor="middle" x="219" y="-105" font-family="Helvetica,sans-Serif" font-size="10.00">_density_derivs</text>
</a>
</g>
</g>
<!-- Node0&#45;&gt;Node1 -->
<g id="edge1" class="edge"><title>Node0&#45;&gt;Node1</title>
<path fill="none" stroke="midnightblue" d="M110.078,-79.1014C127.678,-84.6296 147.674,-90.9103 165.63,-96.5505"/>
<polygon fill="midnightblue" stroke="midnightblue" points="164.779,-99.9517 175.368,-99.6093 166.877,-93.2734 164.779,-99.9517"/>
</g>
<!-- Node4 -->
<g id="node5" class="node"><title>Node4</title>
<g id="a_node5"><a xlink:href="namespacemom__kappa__shear.html#a4d43a516e89feda04c134210558a7d0a" target="_top" xlink:title=" ">
<polygon fill="white" stroke="black" points="158.5,-49 158.5,-79 279.5,-79 279.5,-49 158.5,-49"/>
<text text-anchor="start" x="166.5" y="-67" font-family="Helvetica,sans-Serif" font-size="10.00">mom_kappa_shear::calculate</text>
<text text-anchor="middle" x="219" y="-56" font-family="Helvetica,sans-Serif" font-size="10.00">_projected_state</text>
</a>
</g>
</g>
<!-- Node0&#45;&gt;Node4 -->
<g id="edge4" class="edge"><title>Node0&#45;&gt;Node4</title>
<path fill="none" stroke="midnightblue" d="M121.868,-64C130.452,-64 139.346,-64 148.103,-64"/>
<polygon fill="midnightblue" stroke="midnightblue" points="148.293,-67.5001 158.293,-64 148.293,-60.5001 148.293,-67.5001"/>
</g>
<!-- Node5 -->
<g id="node6" class="node"><title>Node5</title>
<g id="a_node6"><a xlink:href="namespacemom__kappa__shear.html#a69c584e62c72ad2b84a2338b6de82083" target="_top" xlink:title=" ">
<polygon fill="white" stroke="black" points="167.5,-0 167.5,-30 270.5,-30 270.5,-0 167.5,-0"/>
<text text-anchor="start" x="175.5" y="-18" font-family="Helvetica,sans-Serif" font-size="10.00">mom_kappa_shear::find</text>
<text text-anchor="middle" x="219" y="-7" font-family="Helvetica,sans-Serif" font-size="10.00">_kappa_tke</text>
</a>
</g>
</g>
<!-- Node0&#45;&gt;Node5 -->
<g id="edge5" class="edge"><title>Node0&#45;&gt;Node5</title>
<path fill="none" stroke="midnightblue" d="M110.078,-48.8986C126.018,-43.8917 143.924,-38.2676 160.5,-33.061"/>
<polygon fill="midnightblue" stroke="midnightblue" points="161.589,-36.3875 170.081,-30.0516 159.491,-29.7092 161.589,-36.3875"/>
</g>
<!-- Node2 -->
<g id="node3" class="node"><title>Node2</title>
<g id="a_node3"><a xlink:href="namespacemom__error__handler.html#a460cfb79a06c29fc249952c2a3710d67" target="_top" xlink:title=" ">
<polygon fill="white" stroke="black" points="316.5,-98 316.5,-128 409.5,-128 409.5,-98 316.5,-98"/>
<text text-anchor="start" x="324.5" y="-116" font-family="Helvetica,sans-Serif" font-size="10.00">mom_error_handler::</text>
<text text-anchor="middle" x="363" y="-105" font-family="Helvetica,sans-Serif" font-size="10.00">mom_error</text>
</a>
</g>
</g>
<!-- Node1&#45;&gt;Node2 -->
<g id="edge2" class="edge"><title>Node1&#45;&gt;Node2</title>
<path fill="none" stroke="midnightblue" d="M262.605,-113C276.278,-113 291.634,-113 306.111,-113"/>
<polygon fill="midnightblue" stroke="midnightblue" points="306.46,-116.5 316.46,-113 306.46,-109.5 306.46,-116.5"/>
</g>
<!-- Node3 -->
<g id="node4" class="node"><title>Node3</title>
<g id="a_node4"><a xlink:href="namespacemom__error__handler.html#ad5f00a53059c72fe2332d1436c80ca71" target="_top" xlink:title=" ">
<polygon fill="white" stroke="black" points="446.5,-98 446.5,-128 539.5,-128 539.5,-98 446.5,-98"/>
<text text-anchor="start" x="454.5" y="-116" font-family="Helvetica,sans-Serif" font-size="10.00">mom_error_handler::</text>
<text text-anchor="middle" x="493" y="-105" font-family="Helvetica,sans-Serif" font-size="10.00">is_root_pe</text>
</a>
</g>
</g>
<!-- Node2&#45;&gt;Node3 -->
<g id="edge3" class="edge"><title>Node2&#45;&gt;Node3</title>
<path fill="none" stroke="midnightblue" d="M409.849,-113C418.408,-113 427.439,-113 436.258,-113"/>
<polygon fill="midnightblue" stroke="midnightblue" points="436.471,-116.5 446.471,-113 436.471,-109.5 436.471,-116.5"/>
</g>
</g>
</svg>
