<?xml version="1.0" encoding="UTF-8" standalone="no"?>
<!DOCTYPE svg PUBLIC "-//W3C//DTD SVG 1.1//EN"
 "http://www.w3.org/Graphics/SVG/1.1/DTD/svg11.dtd">
<!-- Generated by graphviz version 2.30.1 (20170916.1124)
 -->
<!-- Title: mom_io::query_vardesc Pages: 1 -->
<svg width="640pt" height="1411pt"
 viewBox="0.00 0.00 640.00 1411.00" xmlns="http://www.w3.org/2000/svg" xmlns:xlink="http://www.w3.org/1999/xlink">
<g id="graph0" class="graph" transform="scale(1 1) rotate(0) translate(4 1407)">
<title>mom_io::query_vardesc</title>
<polygon fill="white" stroke="white" points="-4,5 -4,-1407 637,-1407 637,5 -4,5"/>
<!-- Node61 -->
<g id="node1" class="node"><title>Node61</title>
<g id="a_node1"><a xlink:title="This routine queries vardesc.">
<polygon fill="#bfbfbf" stroke="black" points="530,-672.5 530,-691.5 632,-691.5 632,-672.5 530,-672.5"/>
<text text-anchor="middle" x="581" y="-679.5" font-family="Helvetica,sans-Serif" font-size="10.00">mom_io::query_vardesc</text>
</a>
</g>
</g>
<!-- Node62 -->
<g id="node2" class="node"><title>Node62</title>
<g id="a_node2"><a xlink:href="namespaceadvection__test__tracer.html#a1e3884b030df6c5107380b4ddd2fbce2" target="_top" xlink:title=" ">
<polygon fill="white" stroke="black" points="387.5,-1373 387.5,-1403 482.5,-1403 482.5,-1373 387.5,-1373"/>
<text text-anchor="start" x="395.5" y="-1391" font-family="Helvetica,sans-Serif" font-size="10.00">advection_test_tracer</text>
<text text-anchor="middle" x="435" y="-1380" font-family="Helvetica,sans-Serif" font-size="10.00">::advection_test_stock</text>
</a>
</g>
</g>
<!-- Node61&#45;&gt;Node62 -->
<g id="edge1" class="edge"><title>Node61&#45;&gt;Node62</title>
<path fill="none" stroke="midnightblue" d="M580.069,-702.06C580.036,-803.011 575.29,-1254.89 494,-1363 490.903,-1367.12 486.988,-1370.57 482.66,-1373.45"/>
<polygon fill="midnightblue" stroke="midnightblue" points="583.568,-701.757 580.055,-691.762 576.568,-701.767 583.568,-701.757"/>
</g>
<!-- Node66 -->
<g id="node6" class="node"><title>Node66</title>
<g id="a_node6"><a xlink:href="namespaceboundary__impulse__tracer.html#a9c170481eec5074f1a3b2b5e09a142fc" target="_top" xlink:title="Calculate total inventory of tracer.">
<polygon fill="white" stroke="black" points="380.5,-1324 380.5,-1354 489.5,-1354 489.5,-1324 380.5,-1324"/>
<text text-anchor="start" x="388.5" y="-1342" font-family="Helvetica,sans-Serif" font-size="10.00">boundary_impulse_tracer</text>
<text text-anchor="middle" x="435" y="-1331" font-family="Helvetica,sans-Serif" font-size="10.00">::boundary_impulse_stock</text>
</a>
</g>
</g>
<!-- Node61&#45;&gt;Node66 -->
<g id="edge5" class="edge"><title>Node61&#45;&gt;Node66</title>
<path fill="none" stroke="midnightblue" d="M579.856,-701.516C578.786,-796.982 569.781,-1214.22 494,-1314 491.082,-1317.84 487.454,-1321.1 483.445,-1323.87"/>
<polygon fill="midnightblue" stroke="midnightblue" points="583.356,-701.544 579.951,-691.511 576.356,-701.478 583.356,-701.544"/>
</g>
<!-- Node67 -->
<g id="node7" class="node"><title>Node67</title>
<g id="a_node7"><a xlink:href="namespaceregional__dyes.html#a0641ff9c663bcfacdd597a79f63d15e0" target="_top" xlink:title=" ">
<polygon fill="white" stroke="black" points="393.5,-1275 393.5,-1305 476.5,-1305 476.5,-1275 393.5,-1275"/>
<text text-anchor="start" x="401.5" y="-1293" font-family="Helvetica,sans-Serif" font-size="10.00">regional_dyes::dye</text>
<text text-anchor="middle" x="435" y="-1282" font-family="Helvetica,sans-Serif" font-size="10.00">_stock</text>
</a>
</g>
</g>
<!-- Node61&#45;&gt;Node67 -->
<g id="edge6" class="edge"><title>Node61&#45;&gt;Node67</title>
<path fill="none" stroke="midnightblue" d="M579.604,-701.705C577.403,-792.942 564.09,-1173.78 494,-1265 489.457,-1270.91 483.235,-1275.45 476.547,-1278.92"/>
<polygon fill="midnightblue" stroke="midnightblue" points="583.104,-701.709 579.829,-691.633 576.106,-701.552 583.104,-701.709"/>
</g>
<!-- Node68 -->
<g id="node8" class="node"><title>Node68</title>
<g id="a_node8"><a xlink:href="namespaceideal__age__example.html#a2300d82e30802a3127f4a63277d37776" target="_top" xlink:title=" ">
<polygon fill="white" stroke="black" points="390,-1226 390,-1256 480,-1256 480,-1226 390,-1226"/>
<text text-anchor="start" x="398" y="-1244" font-family="Helvetica,sans-Serif" font-size="10.00">ideal_age_example::</text>
<text text-anchor="middle" x="435" y="-1233" font-family="Helvetica,sans-Serif" font-size="10.00">ideal_age_stock</text>
</a>
</g>
</g>
<!-- Node61&#45;&gt;Node68 -->
<g id="edge8" class="edge"><title>Node61&#45;&gt;Node68</title>
<path fill="none" stroke="midnightblue" d="M579.31,-701.67C575.918,-788.062 558.474,-1133.23 494,-1216 490.294,-1220.76 485.503,-1224.63 480.265,-1227.77"/>
<polygon fill="midnightblue" stroke="midnightblue" points="582.809,-701.769 579.685,-691.646 575.814,-701.508 582.809,-701.769"/>
</g>
<!-- Node69 -->
<g id="node9" class="node"><title>Node69</title>
<g id="a_node9"><a xlink:href="namespaceadvection__test__tracer.html#adad96933565e1ee601662052ad3f6943" target="_top" xlink:title=" ">
<polygon fill="white" stroke="black" points="388.5,-1165.5 388.5,-1206.5 481.5,-1206.5 481.5,-1165.5 388.5,-1165.5"/>
<text text-anchor="start" x="396.5" y="-1194.5" font-family="Helvetica,sans-Serif" font-size="10.00">advection_test_tracer</text>
<text text-anchor="start" x="396.5" y="-1183.5" font-family="Helvetica,sans-Serif" font-size="10.00">::initialize_advection</text>
<text text-anchor="middle" x="435" y="-1172.5" font-family="Helvetica,sans-Serif" font-size="10.00">_test_tracer</text>
</a>
</g>
</g>
<!-- Node61&#45;&gt;Node69 -->
<g id="edge10" class="edge"><title>Node61&#45;&gt;Node69</title>
<path fill="none" stroke="midnightblue" d="M578.707,-701.853C573.139,-782.088 548.96,-1081.64 494,-1156 490.631,-1160.56 486.365,-1164.48 481.682,-1167.84"/>
<polygon fill="midnightblue" stroke="midnightblue" points="582.213,-701.873 579.395,-691.66 575.229,-701.401 582.213,-701.873"/>
</g>
<!-- Node70 -->
<g id="node10" class="node"><title>Node70</title>
<g id="a_node10"><a xlink:href="namespaceboundary__impulse__tracer.html#a3e9d605e0a7bed7bb6028cb916ded161" target="_top" xlink:title="Initialize tracer from restart or set to 1 at surface to initialize.">
<polygon fill="white" stroke="black" points="381.5,-1105.5 381.5,-1146.5 488.5,-1146.5 488.5,-1105.5 381.5,-1105.5"/>
<text text-anchor="start" x="389.5" y="-1134.5" font-family="Helvetica,sans-Serif" font-size="10.00">boundary_impulse_tracer</text>
<text text-anchor="start" x="389.5" y="-1123.5" font-family="Helvetica,sans-Serif" font-size="10.00">::initialize_boundary</text>
<text text-anchor="middle" x="435" y="-1112.5" font-family="Helvetica,sans-Serif" font-size="10.00">_impulse_tracer</text>
</a>
</g>
</g>
<!-- Node61&#45;&gt;Node70 -->
<g id="edge11" class="edge"><title>Node61&#45;&gt;Node70</title>
<path fill="none" stroke="midnightblue" d="M578.073,-702.048C570.651,-775.789 541.913,-1031 494,-1095 491.058,-1098.93 487.468,-1102.41 483.53,-1105.49"/>
<polygon fill="midnightblue" stroke="midnightblue" points="581.583,-702.124 579.081,-691.828 574.616,-701.437 581.583,-702.124"/>
</g>
<!-- Node71 -->
<g id="node11" class="node"><title>Node71</title>
<g id="a_node11"><a xlink:href="namespacedome__tracer.html#acbbc86d4dbc4997c0cd55aa498d2c668" target="_top" xlink:title=" ">
<polygon fill="white" stroke="black" points="388,-1056 388,-1086 482,-1086 482,-1056 388,-1056"/>
<text text-anchor="start" x="396" y="-1074" font-family="Helvetica,sans-Serif" font-size="10.00">dome_tracer::initialize</text>
<text text-anchor="middle" x="435" y="-1063" font-family="Helvetica,sans-Serif" font-size="10.00">_dome_tracer</text>
</a>
</g>
</g>
<!-- Node61&#45;&gt;Node71 -->
<g id="edge12" class="edge"><title>Node61&#45;&gt;Node71</title>
<path fill="none" stroke="midnightblue" d="M577.659,-701.944C569.309,-770.064 539.067,-992.267 494,-1046 490.688,-1049.95 486.637,-1053.29 482.231,-1056.11"/>
<polygon fill="midnightblue" stroke="midnightblue" points="581.168,-702.077 578.886,-691.731 574.218,-701.242 581.168,-702.077"/>
</g>
<!-- Node72 -->
<g id="node12" class="node"><title>Node72</title>
<g id="a_node12"><a xlink:href="namespaceregional__dyes.html#aeef37afe2f348fc7d94fe977d74d6d0b" target="_top" xlink:title=" ">
<polygon fill="white" stroke="black" points="386,-1007 386,-1037 484,-1037 484,-1007 386,-1007"/>
<text text-anchor="start" x="394" y="-1025" font-family="Helvetica,sans-Serif" font-size="10.00">regional_dyes::initialize</text>
<text text-anchor="middle" x="435" y="-1014" font-family="Helvetica,sans-Serif" font-size="10.00">_dye_tracer</text>
</a>
</g>
</g>
<!-- Node61&#45;&gt;Node72 -->
<g id="edge13" class="edge"><title>Node61&#45;&gt;Node72</title>
<path fill="none" stroke="midnightblue" d="M580.217,-701.871C579.749,-756.025 571.231,-908.082 494,-997 490.621,-1000.89 486.527,-1004.2 482.096,-1007"/>
<polygon fill="midnightblue" stroke="midnightblue" points="583.717,-701.595 580.214,-691.596 576.717,-701.597 583.717,-701.595"/>
</g>
<!-- Node73 -->
<g id="node13" class="node"><title>Node73</title>
<g id="a_node13"><a xlink:href="namespaceideal__age__example.html#abec4db7c44f7a6d5c891a6d8a17a99b3" target="_top" xlink:title=" ">
<polygon fill="white" stroke="black" points="390,-946.5 390,-987.5 480,-987.5 480,-946.5 390,-946.5"/>
<text text-anchor="start" x="398" y="-975.5" font-family="Helvetica,sans-Serif" font-size="10.00">ideal_age_example::</text>
<text text-anchor="start" x="398" y="-964.5" font-family="Helvetica,sans-Serif" font-size="10.00">initialize_ideal_age</text>
<text text-anchor="middle" x="435" y="-953.5" font-family="Helvetica,sans-Serif" font-size="10.00">_tracer</text>
</a>
</g>
</g>
<!-- Node61&#45;&gt;Node73 -->
<g id="edge14" class="edge"><title>Node61&#45;&gt;Node73</title>
<path fill="none" stroke="midnightblue" d="M578.244,-701.637C573.182,-747.718 554.782,-864.305 494,-936 490.087,-940.616 485.308,-944.649 480.19,-948.143"/>
<polygon fill="midnightblue" stroke="midnightblue" points="581.744,-701.81 579.262,-691.51 574.779,-701.11 581.744,-701.81"/>
</g>
<!-- Node74 -->
<g id="node14" class="node"><title>Node74</title>
<g id="a_node14"><a xlink:href="namespaceisomip__tracer.html#a6083b2b081277f46013d9a22b32b7741" target="_top" xlink:title="Initializes the NTR tracer fields in tr(:,:,:,:)">
<polygon fill="white" stroke="black" points="387,-897 387,-927 483,-927 483,-897 387,-897"/>
<text text-anchor="start" x="395" y="-915" font-family="Helvetica,sans-Serif" font-size="10.00">isomip_tracer::initialize</text>
<text text-anchor="middle" x="435" y="-904" font-family="Helvetica,sans-Serif" font-size="10.00">_isomip_tracer</text>
</a>
</g>
</g>
<!-- Node61&#45;&gt;Node74 -->
<g id="edge15" class="edge"><title>Node61&#45;&gt;Node74</title>
<path fill="none" stroke="midnightblue" d="M576.826,-701.583C569.386,-741.54 547.257,-833.221 494,-887 490.219,-890.818 485.761,-894.09 481.023,-896.885"/>
<polygon fill="midnightblue" stroke="midnightblue" points="580.305,-702.007 578.582,-691.553 573.409,-700.8 580.305,-702.007"/>
</g>
<!-- Node75 -->
<g id="node15" class="node"><title>Node75</title>
<g id="a_node15"><a xlink:href="namespacemom__ocmip2__cfc.html#a0c916b2f0835bd79002803f246d2ef49" target="_top" xlink:title=" ">
<polygon fill="white" stroke="black" points="380,-848 380,-878 490,-878 490,-848 380,-848"/>
<text text-anchor="start" x="388" y="-866" font-family="Helvetica,sans-Serif" font-size="10.00">mom_ocmip2_cfc::initialize</text>
<text text-anchor="middle" x="435" y="-855" font-family="Helvetica,sans-Serif" font-size="10.00">_ocmip2_cfc</text>
</a>
</g>
</g>
<!-- Node61&#45;&gt;Node75 -->
<g id="edge16" class="edge"><title>Node61&#45;&gt;Node75</title>
<path fill="none" stroke="midnightblue" d="M573.936,-701.484C562.939,-733.897 536.796,-799.16 494,-838 489.778,-841.832 484.878,-845.139 479.749,-847.975"/>
<polygon fill="midnightblue" stroke="midnightblue" points="577.309,-702.43 577.087,-691.837 570.655,-700.256 577.309,-702.43"/>
</g>
<!-- Node76 -->
<g id="node16" class="node"><title>Node76</title>
<g id="a_node16"><a xlink:href="namespaceoil__tracer.html#a2bb5dd516d506706c1e67e1206e389b5" target="_top" xlink:title=" ">
<polygon fill="white" stroke="black" points="394.5,-799 394.5,-829 475.5,-829 475.5,-799 394.5,-799"/>
<text text-anchor="start" x="402.5" y="-817" font-family="Helvetica,sans-Serif" font-size="10.00">oil_tracer::initialize</text>
<text text-anchor="middle" x="435" y="-806" font-family="Helvetica,sans-Serif" font-size="10.00">_oil_tracer</text>
</a>
</g>
</g>
<!-- Node61&#45;&gt;Node76 -->
<g id="edge17" class="edge"><title>Node61&#45;&gt;Node76</title>
<path fill="none" stroke="midnightblue" d="M569.346,-700.164C554.88,-723.472 527.008,-763.888 494,-789 488.415,-793.249 481.997,-796.936 475.513,-800.077"/>
<polygon fill="midnightblue" stroke="midnightblue" points="572.353,-701.955 574.54,-691.588 566.366,-698.328 572.353,-701.955"/>
</g>
<!-- Node77 -->
<g id="node17" class="node"><title>Node77</title>
<g id="a_node17"><a xlink:href="namespacepseudo__salt__tracer.html#adaef10fff7bd433eab35152075b3f166" target="_top" xlink:title=" ">
<polygon fill="white" stroke="black" points="392.5,-738.5 392.5,-779.5 477.5,-779.5 477.5,-738.5 392.5,-738.5"/>
<text text-anchor="start" x="400.5" y="-767.5" font-family="Helvetica,sans-Serif" font-size="10.00">pseudo_salt_tracer</text>
<text text-anchor="start" x="400.5" y="-756.5" font-family="Helvetica,sans-Serif" font-size="10.00">::initialize_pseudo</text>
<text text-anchor="middle" x="435" y="-745.5" font-family="Helvetica,sans-Serif" font-size="10.00">_salt_tracer</text>
</a>
</g>
</g>
<!-- Node61&#45;&gt;Node77 -->
<g id="edge18" class="edge"><title>Node61&#45;&gt;Node77</title>
<path fill="none" stroke="midnightblue" d="M553.201,-696.33C531.066,-708.166 499.361,-725.119 474.507,-738.409"/>
<polygon fill="midnightblue" stroke="midnightblue" points="554.885,-699.398 562.053,-691.596 551.585,-693.225 554.885,-699.398"/>
</g>
<!-- Node78 -->
<g id="node18" class="node"><title>Node78</title>
<g id="a_node18"><a xlink:href="namespacemom__diag__mediator.html#a21267e25d12fa3e5d2540d2a299d2d2c" target="_top" xlink:title="Registers a diagnostic using the information encapsulated in the vardesc type argument and returns an...">
<polygon fill="white" stroke="black" points="387.5,-552 387.5,-582 482.5,-582 482.5,-552 387.5,-552"/>
<text text-anchor="start" x="395.5" y="-570" font-family="Helvetica,sans-Serif" font-size="10.00">mom_diag_mediator::</text>
<text text-anchor="middle" x="435" y="-559" font-family="Helvetica,sans-Serif" font-size="10.00">ocean_register_diag</text>
</a>
</g>
</g>
<!-- Node61&#45;&gt;Node78 -->
<g id="edge19" class="edge"><title>Node61&#45;&gt;Node78</title>
<path fill="none" stroke="midnightblue" d="M566.649,-664.223C551.037,-644.434 523.544,-612.541 494,-592 488.688,-588.307 482.744,-584.988 476.741,-582.068"/>
<polygon fill="midnightblue" stroke="midnightblue" points="564.067,-666.606 572.95,-672.379 569.606,-662.326 564.067,-666.606"/>
</g>
<!-- Node79 -->
<g id="node19" class="node"><title>Node79</title>
<g id="a_node19"><a xlink:href="namespacemom__diag__to__z.html#a90526b2f59f94c6af2f525a221029772" target="_top" xlink:title=" ">
<polygon fill="white" stroke="black" points="236,-508 236,-538 336,-538 336,-508 236,-508"/>
<text text-anchor="start" x="244" y="-526" font-family="Helvetica,sans-Serif" font-size="10.00">mom_diag_to_z::ocean</text>
<text text-anchor="middle" x="286" y="-515" font-family="Helvetica,sans-Serif" font-size="10.00">_register_diag_with_z</text>
</a>
</g>
</g>
<!-- Node61&#45;&gt;Node79 -->
<g id="edge21" class="edge"><title>Node61&#45;&gt;Node79</title>
<path fill="none" stroke="midnightblue" d="M574.289,-662.791C563.925,-631.666 538.832,-570.891 494,-543 446.483,-513.438 380.621,-512.342 336.049,-516.079"/>
<polygon fill="midnightblue" stroke="midnightblue" points="570.995,-663.983 577.349,-672.461 577.669,-661.871 570.995,-663.983"/>
</g>
<!-- Node80 -->
<g id="node20" class="node"><title>Node80</title>
<g id="a_node20"><a xlink:href="namespacemom__ocmip2__cfc.html#ac3c9967ff09b37934eb5ef51535e7ee3" target="_top" xlink:title=" ">
<polygon fill="white" stroke="black" points="380.5,-689 380.5,-719 489.5,-719 489.5,-689 380.5,-689"/>
<text text-anchor="start" x="388.5" y="-707" font-family="Helvetica,sans-Serif" font-size="10.00">mom_ocmip2_cfc::ocmip2</text>
<text text-anchor="middle" x="435" y="-696" font-family="Helvetica,sans-Serif" font-size="10.00">_cfc_stock</text>
</a>
</g>
</g>
<!-- Node61&#45;&gt;Node80 -->
<g id="edge22" class="edge"><title>Node61&#45;&gt;Node80</title>
<path fill="none" stroke="midnightblue" d="M519.739,-691.206C509.709,-692.739 499.366,-694.319 489.518,-695.824"/>
<polygon fill="midnightblue" stroke="midnightblue" points="520.279,-694.665 529.636,-689.695 519.222,-687.745 520.279,-694.665"/>
</g>
<!-- Node81 -->
<g id="node21" class="node"><title>Node81</title>
<g id="a_node21"><a xlink:href="namespaceoil__tracer.html#ac8964b16549dba8fc850e4af15af8029" target="_top" xlink:title=" ">
<polygon fill="white" stroke="black" points="393,-650.5 393,-669.5 477,-669.5 477,-650.5 393,-650.5"/>
<text text-anchor="middle" x="435" y="-657.5" font-family="Helvetica,sans-Serif" font-size="10.00">oil_tracer::oil_stock</text>
</a>
</g>
</g>
<!-- Node61&#45;&gt;Node81 -->
<g id="edge24" class="edge"><title>Node61&#45;&gt;Node81</title>
<path fill="none" stroke="midnightblue" d="M519.387,-672.74C505.117,-670.56 490.235,-668.286 477.06,-666.273"/>
<polygon fill="midnightblue" stroke="midnightblue" points="519.222,-676.255 529.636,-674.305 520.279,-669.335 519.222,-676.255"/>
</g>
<!-- Node82 -->
<g id="node22" class="node"><title>Node82</title>
<g id="a_node22"><a xlink:href="namespacepseudo__salt__tracer.html#a282f3c84b7e7ccdaa6d9344342705a6e" target="_top" xlink:title=" ">
<polygon fill="white" stroke="black" points="392,-601 392,-631 478,-631 478,-601 392,-601"/>
<text text-anchor="start" x="400" y="-619" font-family="Helvetica,sans-Serif" font-size="10.00">pseudo_salt_tracer</text>
<text text-anchor="middle" x="435" y="-608" font-family="Helvetica,sans-Serif" font-size="10.00">::pseudo_salt_stock</text>
</a>
</g>
</g>
<!-- Node61&#45;&gt;Node82 -->
<g id="edge26" class="edge"><title>Node61&#45;&gt;Node82</title>
<path fill="none" stroke="midnightblue" d="M551.093,-667.883C534.466,-659.847 513.139,-649.683 494,-641 486.811,-637.738 479.077,-634.334 471.675,-631.125"/>
<polygon fill="midnightblue" stroke="midnightblue" points="549.763,-671.128 560.288,-672.341 552.817,-664.829 549.763,-671.128"/>
</g>
<!-- Node83 -->
<g id="node23" class="node"><title>Node83</title>
<g id="a_node23"><a xlink:href="namespaceboundary__impulse__tracer.html#a8c333281de8a3f7a255a0da4187427ad" target="_top" xlink:title="Read in runtime options and add boundary impulse tracer to tracer registry.">
<polygon fill="white" stroke="black" points="376,-453.5 376,-494.5 494,-494.5 494,-453.5 376,-453.5"/>
<text text-anchor="start" x="384" y="-482.5" font-family="Helvetica,sans-Serif" font-size="10.00">boundary_impulse_tracer</text>
<text text-anchor="start" x="384" y="-471.5" font-family="Helvetica,sans-Serif" font-size="10.00">::register_boundary_impulse</text>
<text text-anchor="middle" x="435" y="-460.5" font-family="Helvetica,sans-Serif" font-size="10.00">_tracer</text>
</a>
</g>
</g>
<!-- Node61&#45;&gt;Node83 -->
<g id="edge28" class="edge"><title>Node61&#45;&gt;Node83</title>
<path fill="none" stroke="midnightblue" d="M574.324,-662.501C563.499,-628.072 537.071,-555.738 494,-509 489.059,-503.638 483.109,-498.82 476.929,-494.598"/>
<polygon fill="midnightblue" stroke="midnightblue" points="571.035,-663.717 577.291,-672.267 577.733,-661.682 571.035,-663.717"/>
</g>
<!-- Node84 -->
<g id="node24" class="node"><title>Node84</title>
<g id="a_node24"><a xlink:href="namespaceregional__dyes.html#af9da6e5dbe58dedce4ede6f0533fe702" target="_top" xlink:title=" ">
<polygon fill="white" stroke="black" points="386,-404 386,-434 484,-434 484,-404 386,-404"/>
<text text-anchor="start" x="394" y="-422" font-family="Helvetica,sans-Serif" font-size="10.00">regional_dyes::register</text>
<text text-anchor="middle" x="435" y="-411" font-family="Helvetica,sans-Serif" font-size="10.00">_dye_tracer</text>
</a>
</g>
</g>
<!-- Node61&#45;&gt;Node84 -->
<g id="edge29" class="edge"><title>Node61&#45;&gt;Node84</title>
<path fill="none" stroke="midnightblue" d="M578.144,-662.363C572.943,-617.846 554.397,-508.149 494,-444 490.392,-440.168 486.098,-436.894 481.502,-434.104"/>
<polygon fill="midnightblue" stroke="midnightblue" points="574.677,-662.862 579.218,-672.434 581.638,-662.119 574.677,-662.862"/>
</g>
<!-- Node85 -->
<g id="node25" class="node"><title>Node85</title>
<g id="a_node25"><a xlink:href="namespaceideal__age__example.html#a58d550a02148b87b1d1ce979fcaf6c00" target="_top" xlink:title=" ">
<polygon fill="white" stroke="black" points="381,-355 381,-385 489,-385 489,-355 381,-355"/>
<text text-anchor="start" x="389" y="-373" font-family="Helvetica,sans-Serif" font-size="10.00">ideal_age_example::</text>
<text text-anchor="middle" x="435" y="-362" font-family="Helvetica,sans-Serif" font-size="10.00">register_ideal_age_tracer</text>
</a>
</g>
</g>
<!-- Node61&#45;&gt;Node85 -->
<g id="edge30" class="edge"><title>Node61&#45;&gt;Node85</title>
<path fill="none" stroke="midnightblue" d="M579.579,-662.216C577.46,-611.425 565.079,-474.829 494,-395 490.573,-391.151 486.449,-387.873 482,-385.085"/>
<polygon fill="midnightblue" stroke="midnightblue" points="576.088,-662.574 579.91,-672.456 583.085,-662.348 576.088,-662.574"/>
</g>
<!-- Node86 -->
<g id="node26" class="node"><title>Node86</title>
<g id="a_node26"><a xlink:href="namespaceoil__tracer.html#ae9bef348e3fea3af157e841a0c9f6aeb" target="_top" xlink:title=" ">
<polygon fill="white" stroke="black" points="394.5,-306 394.5,-336 475.5,-336 475.5,-306 394.5,-306"/>
<text text-anchor="start" x="402.5" y="-324" font-family="Helvetica,sans-Serif" font-size="10.00">oil_tracer::register</text>
<text text-anchor="middle" x="435" y="-313" font-family="Helvetica,sans-Serif" font-size="10.00">_oil_tracer</text>
</a>
</g>
</g>
<!-- Node61&#45;&gt;Node86 -->
<g id="edge31" class="edge"><title>Node61&#45;&gt;Node86</title>
<path fill="none" stroke="midnightblue" d="M580.63,-662.312C581.373,-605.958 575.984,-441.924 494,-346 489.084,-340.249 482.605,-335.781 475.762,-332.324"/>
<polygon fill="midnightblue" stroke="midnightblue" points="577.13,-662.295 580.412,-672.369 584.128,-662.447 577.13,-662.295"/>
</g>
<!-- Node87 -->
<g id="node27" class="node"><title>Node87</title>
<g id="a_node27"><a xlink:href="namespacepseudo__salt__tracer.html#a147eabcabc9a787c01310dd67a5bab08" target="_top" xlink:title=" ">
<polygon fill="white" stroke="black" points="387.5,-245.5 387.5,-286.5 482.5,-286.5 482.5,-245.5 387.5,-245.5"/>
<text text-anchor="start" x="395.5" y="-274.5" font-family="Helvetica,sans-Serif" font-size="10.00">pseudo_salt_tracer</text>
<text text-anchor="start" x="395.5" y="-263.5" font-family="Helvetica,sans-Serif" font-size="10.00">::register_pseudo_salt</text>
<text text-anchor="middle" x="435" y="-252.5" font-family="Helvetica,sans-Serif" font-size="10.00">_tracer</text>
</a>
</g>
</g>
<!-- Node61&#45;&gt;Node87 -->
<g id="edge32" class="edge"><title>Node61&#45;&gt;Node87</title>
<path fill="none" stroke="midnightblue" d="M577.796,-662.421C569.604,-592.52 539.045,-356.271 494,-297 490.822,-292.818 486.914,-289.139 482.64,-285.916"/>
<polygon fill="midnightblue" stroke="midnightblue" points="574.334,-662.955 578.955,-672.489 581.288,-662.154 574.334,-662.955"/>
</g>
<!-- Node88 -->
<g id="node28" class="node"><title>Node88</title>
<g id="a_node28"><a xlink:href="namespacemom__tracer__registry.html#a6a753792521378d63e3dd5ca73f3574a" target="_top" xlink:title="This subroutine registers a tracer to be advected and laterally diffused.">
<polygon fill="white" stroke="black" points="389.5,-196 389.5,-226 480.5,-226 480.5,-196 389.5,-196"/>
<text text-anchor="start" x="397.5" y="-214" font-family="Helvetica,sans-Serif" font-size="10.00">mom_tracer_registry</text>
<text text-anchor="middle" x="435" y="-203" font-family="Helvetica,sans-Serif" font-size="10.00">::register_tracer</text>
</a>
</g>
</g>
<!-- Node61&#45;&gt;Node88 -->
<g id="edge33" class="edge"><title>Node61&#45;&gt;Node88</title>
<path fill="none" stroke="midnightblue" d="M578.616,-662.239C572.843,-584.897 548.4,-303.664 494,-236 490.359,-231.471 485.739,-227.745 480.702,-224.685"/>
<polygon fill="midnightblue" stroke="midnightblue" points="575.145,-662.761 579.359,-672.482 582.126,-662.255 575.145,-662.761"/>
</g>
<!-- Node89 -->
<g id="node29" class="node"><title>Node89</title>
<g id="a_node29"><a xlink:href="namespacemom__diag__to__z.html#a4dda95a2d7577d6d347e94ec54638bb5" target="_top" xlink:title=" ">
<polygon fill="white" stroke="black" points="382.5,-147 382.5,-177 487.5,-177 487.5,-147 382.5,-147"/>
<text text-anchor="start" x="390.5" y="-165" font-family="Helvetica,sans-Serif" font-size="10.00">mom_diag_to_z::register</text>
<text text-anchor="middle" x="435" y="-154" font-family="Helvetica,sans-Serif" font-size="10.00">_z_diag</text>
</a>
</g>
</g>
<!-- Node61&#45;&gt;Node89 -->
<g id="edge34" class="edge"><title>Node61&#45;&gt;Node89</title>
<path fill="none" stroke="midnightblue" d="M579.029,-662.21C574.612,-579.597 553.981,-263.033 494,-187 490.944,-183.126 487.17,-179.842 483.025,-177.059"/>
<polygon fill="midnightblue" stroke="midnightblue" points="575.537,-662.458 579.547,-672.265 582.527,-662.098 575.537,-662.458"/>
</g>
<!-- Node90 -->
<g id="node30" class="node"><title>Node90</title>
<g id="a_node30"><a xlink:href="namespacemom__diag__to__z.html#a12bc76d5b29b6b3292a802946b7dd6fc" target="_top" xlink:title=" ">
<polygon fill="white" stroke="black" points="382.5,-98 382.5,-128 487.5,-128 487.5,-98 382.5,-98"/>
<text text-anchor="start" x="390.5" y="-116" font-family="Helvetica,sans-Serif" font-size="10.00">mom_diag_to_z::register</text>
<text text-anchor="middle" x="435" y="-105" font-family="Helvetica,sans-Serif" font-size="10.00">_zint_diag</text>
</a>
</g>
</g>
<!-- Node61&#45;&gt;Node90 -->
<g id="edge36" class="edge"><title>Node61&#45;&gt;Node90</title>
<path fill="none" stroke="midnightblue" d="M579.361,-661.964C576.186,-573.966 559.529,-222.38 494,-138 490.974,-134.103 487.219,-130.803 483.086,-128.012"/>
<polygon fill="midnightblue" stroke="midnightblue" points="575.871,-662.301 579.711,-672.175 582.866,-662.061 575.871,-662.301"/>
</g>
<!-- Node93 -->
<g id="node33" class="node"><title>Node93</title>
<g id="a_node33"><a xlink:href="namespaceuser__tracer__example.html#a16d417b6068f44605caf3573bf5f4de9" target="_top" xlink:title=" ">
<polygon fill="white" stroke="black" points="388,-49 388,-79 482,-79 482,-49 388,-49"/>
<text text-anchor="start" x="396" y="-67" font-family="Helvetica,sans-Serif" font-size="10.00">user_tracer_example</text>
<text text-anchor="middle" x="435" y="-56" font-family="Helvetica,sans-Serif" font-size="10.00">::user_initialize_tracer</text>
</a>
</g>
</g>
<!-- Node61&#45;&gt;Node93 -->
<g id="edge39" class="edge"><title>Node61&#45;&gt;Node93</title>
<path fill="none" stroke="midnightblue" d="M579.651,-661.959C577.661,-569.168 565.154,-181.84 494,-89 490.732,-84.7355 486.59,-81.1877 482.028,-78.2383"/>
<polygon fill="midnightblue" stroke="midnightblue" points="576.156,-662.274 579.852,-672.203 583.155,-662.136 576.156,-662.274"/>
</g>
<!-- Node94 -->
<g id="node34" class="node"><title>Node94</title>
<g id="a_node34"><a xlink:href="namespaceuser__tracer__example.html#a040e2b8e8c5a41ccb6398e66d820c4be" target="_top" xlink:title=" ">
<polygon fill="white" stroke="black" points="389,-0 389,-30 481,-30 481,-0 389,-0"/>
<text text-anchor="start" x="397" y="-18" font-family="Helvetica,sans-Serif" font-size="10.00">user_tracer_example</text>
<text text-anchor="middle" x="435" y="-7" font-family="Helvetica,sans-Serif" font-size="10.00">::user_tracer_stock</text>
</a>
</g>
</g>
<!-- Node61&#45;&gt;Node94 -->
<g id="edge40" class="edge"><title>Node61&#45;&gt;Node94</title>
<path fill="none" stroke="midnightblue" d="M579.899,-662.178C579.035,-565.21 570.853,-141.411 494,-40 490.556,-35.4557 486.118,-31.726 481.232,-28.6675"/>
<polygon fill="midnightblue" stroke="midnightblue" points="576.4,-662.365 579.972,-672.339 583.4,-662.314 576.4,-662.365"/>
</g>
<!-- Node63 -->
<g id="node3" class="node"><title>Node63</title>
<g id="a_node3"><a xlink:href="namespacemom__tracer__flow__control.html#afd8526344e928c8c9505c921bf37447f" target="_top" xlink:title=" ">
<polygon fill="white" stroke="black" points="232.5,-957 232.5,-987 339.5,-987 339.5,-957 232.5,-957"/>
<text text-anchor="start" x="240.5" y="-975" font-family="Helvetica,sans-Serif" font-size="10.00">mom_tracer_flow_control</text>
<text text-anchor="middle" x="286" y="-964" font-family="Helvetica,sans-Serif" font-size="10.00">::call_tracer_stocks</text>
</a>
</g>
</g>
<!-- Node62&#45;&gt;Node63 -->
<g id="edge2" class="edge"><title>Node62&#45;&gt;Node63</title>
<path fill="none" stroke="midnightblue" d="M379.565,-1366.79C378.302,-1365.6 377.109,-1364.33 376,-1363 326.472,-1303.46 295.807,-1052.05 288.629,-987.275"/>
<polygon fill="midnightblue" stroke="midnightblue" points="377.421,-1369.56 387.456,-1372.96 381.731,-1364.05 377.421,-1369.56"/>
</g>
<!-- Node64 -->
<g id="node4" class="node"><title>Node64</title>
<g id="a_node4"><a xlink:href="namespacemom__sum__output.html#aef94e597f85f3ee439b2ddc2b46a043a" target="_top" xlink:title=" ">
<polygon fill="white" stroke="black" points="92.5,-957 92.5,-987 195.5,-987 195.5,-957 92.5,-957"/>
<text text-anchor="start" x="100.5" y="-975" font-family="Helvetica,sans-Serif" font-size="10.00">mom_sum_output::write</text>
<text text-anchor="middle" x="144" y="-964" font-family="Helvetica,sans-Serif" font-size="10.00">_energy</text>
</a>
</g>
</g>
<!-- Node63&#45;&gt;Node64 -->
<g id="edge3" class="edge"><title>Node63&#45;&gt;Node64</title>
<path fill="none" stroke="midnightblue" d="M222.407,-972C213.403,-972 204.233,-972 195.503,-972"/>
<polygon fill="midnightblue" stroke="midnightblue" points="222.471,-975.5 232.471,-972 222.471,-968.5 222.471,-975.5"/>
</g>
<!-- Node65 -->
<g id="node5" class="node"><title>Node65</title>
<g id="a_node5"><a xlink:href="MOM__driver_8F90.html#a08fffeb2d8e8acbf9ed4609be6d258c6" target="_top" xlink:title=" ">
<polygon fill="white" stroke="black" points="0,-962.5 0,-981.5 56,-981.5 56,-962.5 0,-962.5"/>
<text text-anchor="middle" x="28" y="-969.5" font-family="Helvetica,sans-Serif" font-size="10.00">mom_main</text>
</a>
</g>
</g>
<!-- Node64&#45;&gt;Node65 -->
<g id="edge4" class="edge"><title>Node64&#45;&gt;Node65</title>
<path fill="none" stroke="midnightblue" d="M82.0478,-972C72.9439,-972 63.975,-972 56.0763,-972"/>
<polygon fill="midnightblue" stroke="midnightblue" points="82.3341,-975.5 92.3341,-972 82.334,-968.5 82.3341,-975.5"/>
</g>
<!-- Node67&#45;&gt;Node63 -->
<g id="edge7" class="edge"><title>Node67&#45;&gt;Node63</title>
<path fill="none" stroke="midnightblue" d="M384.546,-1272.58C381.421,-1270.34 378.523,-1267.82 376,-1265 300.717,-1180.77 289.092,-1034.49 287.315,-987.209"/>
<polygon fill="midnightblue" stroke="midnightblue" points="382.891,-1275.67 393.25,-1277.89 386.537,-1269.69 382.891,-1275.67"/>
</g>
<!-- Node68&#45;&gt;Node63 -->
<g id="edge9" class="edge"><title>Node68&#45;&gt;Node63</title>
<path fill="none" stroke="midnightblue" d="M381.241,-1220.82C379.38,-1219.32 377.621,-1217.72 376,-1216 311.45,-1147.65 293.009,-1028.78 288.388,-987.024"/>
<polygon fill="midnightblue" stroke="midnightblue" points="379.717,-1224.02 389.956,-1226.74 383.651,-1218.23 379.717,-1224.02"/>
</g>
<!-- Node78&#45;&gt;Node79 -->
<g id="edge20" class="edge"><title>Node78&#45;&gt;Node79</title>
<path fill="none" stroke="midnightblue" d="M377.72,-550.154C364.061,-546.066 349.561,-541.726 336.256,-537.743"/>
<polygon fill="midnightblue" stroke="midnightblue" points="376.905,-553.564 387.488,-553.078 378.912,-546.858 376.905,-553.564"/>
</g>
<!-- Node80&#45;&gt;Node63 -->
<g id="edge23" class="edge"><title>Node80&#45;&gt;Node63</title>
<path fill="none" stroke="midnightblue" d="M380.336,-724.928C378.808,-726.21 377.356,-727.566 376,-729 311.793,-796.9 293.168,-914.88 288.442,-956.736"/>
<polygon fill="midnightblue" stroke="midnightblue" points="382.388,-727.764 388.514,-719.119 378.335,-722.057 382.388,-727.764"/>
</g>
<!-- Node81&#45;&gt;Node63 -->
<g id="edge25" class="edge"><title>Node81&#45;&gt;Node63</title>
<path fill="none" stroke="midnightblue" d="M383.792,-673.594C380.963,-675.461 378.329,-677.585 376,-680 297.638,-761.253 288.063,-909.44 287.057,-956.93"/>
<polygon fill="midnightblue" stroke="midnightblue" points="385.636,-676.576 392.752,-668.727 382.294,-670.425 385.636,-676.576"/>
</g>
<!-- Node82&#45;&gt;Node63 -->
<g id="edge27" class="edge"><title>Node82&#45;&gt;Node63</title>
<path fill="none" stroke="midnightblue" d="M383.367,-634.133C380.678,-636.19 378.188,-638.471 376,-641 292.291,-737.752 286.412,-905.458 286.676,-956.694"/>
<polygon fill="midnightblue" stroke="midnightblue" points="385.42,-636.974 391.928,-628.613 381.626,-631.091 385.42,-636.974"/>
</g>
<!-- Node89&#45;&gt;Node79 -->
<g id="edge35" class="edge"><title>Node89&#45;&gt;Node79</title>
<path fill="none" stroke="midnightblue" d="M379.626,-183.257C378.345,-184.44 377.132,-185.687 376,-187 291.097,-285.503 286.069,-456.264 286.603,-507.828"/>
<polygon fill="midnightblue" stroke="midnightblue" points="381.782,-186.015 387.593,-177.156 377.526,-180.457 381.782,-186.015"/>
</g>
<!-- Node91 -->
<g id="node31" class="node"><title>Node91</title>
<g id="a_node31"><a xlink:href="namespacemom__diabatic__driver.html#afa0b30bd6f0e080bcacbd6dcb15ff990" target="_top" xlink:title="This routine initializes the diabatic driver module.">
<polygon fill="white" stroke="black" points="240.5,-123 240.5,-153 331.5,-153 331.5,-123 240.5,-123"/>
<text text-anchor="start" x="248.5" y="-141" font-family="Helvetica,sans-Serif" font-size="10.00">mom_diabatic_driver</text>
<text text-anchor="middle" x="286" y="-130" font-family="Helvetica,sans-Serif" font-size="10.00">::diabatic_driver_init</text>
</a>
</g>
</g>
<!-- Node90&#45;&gt;Node91 -->
<g id="edge37" class="edge"><title>Node90&#45;&gt;Node91</title>
<path fill="none" stroke="midnightblue" d="M371.932,-123.556C358.362,-125.864 344.259,-128.262 331.535,-130.426"/>
<polygon fill="midnightblue" stroke="midnightblue" points="372.902,-126.941 382.173,-121.814 371.728,-120.04 372.902,-126.941"/>
</g>
<!-- Node92 -->
<g id="node32" class="node"><title>Node92</title>
<g id="a_node32"><a xlink:href="namespacemom__set__diffusivity.html#ac0a2a098bc7dc3b087a4bae87511b7ca" target="_top" xlink:title=" ">
<polygon fill="white" stroke="black" points="243,-74 243,-104 329,-104 329,-74 243,-74"/>
<text text-anchor="start" x="251" y="-92" font-family="Helvetica,sans-Serif" font-size="10.00">mom_set_diffusivity</text>
<text text-anchor="middle" x="286" y="-81" font-family="Helvetica,sans-Serif" font-size="10.00">::set_diffusivity_init</text>
</a>
</g>
</g>
<!-- Node90&#45;&gt;Node92 -->
<g id="edge38" class="edge"><title>Node90&#45;&gt;Node92</title>
<path fill="none" stroke="midnightblue" d="M372.251,-102.919C357.732,-100.548 342.586,-98.0752 329.157,-95.8827"/>
<polygon fill="midnightblue" stroke="midnightblue" points="371.74,-106.381 382.173,-104.538 372.868,-99.4728 371.74,-106.381"/>
</g>
</g>
</svg>
