<?xml version="1.0" encoding="UTF-8" standalone="no"?>
<!DOCTYPE svg PUBLIC "-//W3C//DTD SVG 1.1//EN"
 "http://www.w3.org/Graphics/SVG/1.1/DTD/svg11.dtd">
<!-- Generated by graphviz version 2.30.1 (20170916.1124)
 -->
<!-- Title: ocean_model_mod::convert_state_to_ocean_type Pages: 1 -->
<svg width="236pt" height="66pt"
 viewBox="0.00 0.00 236.00 66.00" xmlns="http://www.w3.org/2000/svg" xmlns:xlink="http://www.w3.org/1999/xlink">
<g id="graph0" class="graph" transform="scale(1 1) rotate(0) translate(4 62)">
<title>ocean_model_mod::convert_state_to_ocean_type</title>
<polygon fill="white" stroke="white" points="-4,5 -4,-62 233,-62 233,5 -4,5"/>
<!-- Node3 -->
<g id="node1" class="node"><title>Node3</title>
<g id="a_node1"><a xlink:title=" ">
<polygon fill="#bfbfbf" stroke="black" points="0,-14 0,-44 116,-44 116,-14 0,-14"/>
<text text-anchor="start" x="8" y="-32" font-family="Helvetica,sans-Serif" font-size="10.00">ocean_model_mod::convert</text>
<text text-anchor="middle" x="58" y="-21" font-family="Helvetica,sans-Serif" font-size="10.00">_state_to_ocean_type</text>
</a>
</g>
</g>
<!-- Node4 -->
<g id="node2" class="node"><title>Node4</title>
<g id="a_node2"><a xlink:href="gsw__pt__from__ct_8f90.html#a39fd494fdb16e10c262c380b5778abc5" target="_top" xlink:title=" ">
<polygon fill="white" stroke="black" points="153,-38.5 153,-57.5 227,-57.5 227,-38.5 153,-38.5"/>
<text text-anchor="middle" x="190" y="-45.5" font-family="Helvetica,sans-Serif" font-size="10.00">gsw_pt_from_ct</text>
</a>
</g>
</g>
<!-- Node3&#45;&gt;Node4 -->
<g id="edge1" class="edge"><title>Node3&#45;&gt;Node4</title>
<path fill="none" stroke="midnightblue" d="M116.02,-37.3337C125.042,-38.6523 134.273,-40.0014 143.002,-41.2772"/>
<polygon fill="midnightblue" stroke="midnightblue" points="142.575,-44.752 152.977,-42.735 143.588,-37.8256 142.575,-44.752"/>
</g>
<!-- Node5 -->
<g id="node3" class="node"><title>Node5</title>
<g id="a_node3"><a xlink:href="gsw__sp__from__sr_8f90.html#aa7b9e331b76a3f6dc1bd4ca41b78283a" target="_top" xlink:title=" ">
<polygon fill="white" stroke="black" points="152,-0.5 152,-19.5 228,-19.5 228,-0.5 152,-0.5"/>
<text text-anchor="middle" x="190" y="-7.5" font-family="Helvetica,sans-Serif" font-size="10.00">gsw_sp_from_sr</text>
</a>
</g>
</g>
<!-- Node3&#45;&gt;Node5 -->
<g id="edge2" class="edge"><title>Node3&#45;&gt;Node5</title>
<path fill="none" stroke="midnightblue" d="M116.02,-20.6663C124.653,-19.4045 133.477,-18.1149 141.87,-16.8882"/>
<polygon fill="midnightblue" stroke="midnightblue" points="142.463,-20.3388 151.852,-15.4293 141.451,-13.4124 142.463,-20.3388"/>
</g>
</g>
</svg>
