<?xml version="1.0" encoding="UTF-8" standalone="no"?>
<!DOCTYPE svg PUBLIC "-//W3C//DTD SVG 1.1//EN"
 "http://www.w3.org/Graphics/SVG/1.1/DTD/svg11.dtd">
<!-- Generated by graphviz version 2.30.1 (20170916.1124)
 -->
<!-- Title: mom_remapping::setreconstructiontype Pages: 1 -->
<svg width="428pt" height="87pt"
 viewBox="0.00 0.00 428.00 87.00" xmlns="http://www.w3.org/2000/svg" xmlns:xlink="http://www.w3.org/1999/xlink">
<g id="graph0" class="graph" transform="scale(1 1) rotate(0) translate(4 83)">
<title>mom_remapping::setreconstructiontype</title>
<polygon fill="white" stroke="white" points="-4,5 -4,-83 425,-83 425,5 -4,5"/>
<!-- Node344 -->
<g id="node1" class="node"><title>Node344</title>
<g id="a_node1"><a xlink:title="Changes the method of reconstruction Use this routine to parse a string parameter specifying the reco...">
<polygon fill="#bfbfbf" stroke="black" points="0,-29.5 0,-48.5 158,-48.5 158,-29.5 0,-29.5"/>
<text text-anchor="middle" x="79" y="-36.5" font-family="Helvetica,sans-Serif" font-size="10.00">mom_remapping::setreconstructiontype</text>
</a>
</g>
</g>
<!-- Node345 -->
<g id="node2" class="node"><title>Node345</title>
<g id="a_node2"><a xlink:href="namespacemom__error__handler.html#a460cfb79a06c29fc249952c2a3710d67" target="_top" xlink:title=" ">
<polygon fill="white" stroke="black" points="195.5,-49 195.5,-79 288.5,-79 288.5,-49 195.5,-49"/>
<text text-anchor="start" x="203.5" y="-67" font-family="Helvetica,sans-Serif" font-size="10.00">mom_error_handler::</text>
<text text-anchor="middle" x="242" y="-56" font-family="Helvetica,sans-Serif" font-size="10.00">mom_error</text>
</a>
</g>
</g>
<!-- Node344&#45;&gt;Node345 -->
<g id="edge1" class="edge"><title>Node344&#45;&gt;Node345</title>
<path fill="none" stroke="midnightblue" d="M141.326,-48.5227C155.771,-50.7657 171.09,-53.1444 185.273,-55.3467"/>
<polygon fill="midnightblue" stroke="midnightblue" points="184.951,-58.8387 195.37,-56.9146 186.026,-51.9216 184.951,-58.8387"/>
</g>
<!-- Node347 -->
<g id="node4" class="node"><title>Node347</title>
<g id="a_node4"><a xlink:href="namespacemom__string__functions.html#aca148baf726de2f028b7e7baad3c85d4" target="_top" xlink:title=" ">
<polygon fill="white" stroke="black" points="194.5,-0 194.5,-30 289.5,-30 289.5,-0 194.5,-0"/>
<text text-anchor="start" x="202.5" y="-18" font-family="Helvetica,sans-Serif" font-size="10.00">mom_string_functions</text>
<text text-anchor="middle" x="242" y="-7" font-family="Helvetica,sans-Serif" font-size="10.00">::uppercase</text>
</a>
</g>
</g>
<!-- Node344&#45;&gt;Node347 -->
<g id="edge3" class="edge"><title>Node344&#45;&gt;Node347</title>
<path fill="none" stroke="midnightblue" d="M144.094,-29.4456C157.379,-27.4652 171.287,-25.392 184.286,-23.4543"/>
<polygon fill="midnightblue" stroke="midnightblue" points="185.112,-26.87 194.486,-21.9337 184.079,-19.9465 185.112,-26.87"/>
</g>
<!-- Node346 -->
<g id="node3" class="node"><title>Node346</title>
<g id="a_node3"><a xlink:href="namespacemom__error__handler.html#ad5f00a53059c72fe2332d1436c80ca71" target="_top" xlink:title=" ">
<polygon fill="white" stroke="black" points="326.5,-49 326.5,-79 419.5,-79 419.5,-49 326.5,-49"/>
<text text-anchor="start" x="334.5" y="-67" font-family="Helvetica,sans-Serif" font-size="10.00">mom_error_handler::</text>
<text text-anchor="middle" x="373" y="-56" font-family="Helvetica,sans-Serif" font-size="10.00">is_root_pe</text>
</a>
</g>
</g>
<!-- Node345&#45;&gt;Node346 -->
<g id="edge2" class="edge"><title>Node345&#45;&gt;Node346</title>
<path fill="none" stroke="midnightblue" d="M288.844,-64C297.683,-64 307.034,-64 316.151,-64"/>
<polygon fill="midnightblue" stroke="midnightblue" points="316.304,-67.5001 326.304,-64 316.304,-60.5001 316.304,-67.5001"/>
</g>
</g>
</svg>
