<?xml version="1.0" encoding="UTF-8" standalone="no"?>
<!DOCTYPE svg PUBLIC "-//W3C//DTD SVG 1.1//EN"
 "http://www.w3.org/Graphics/SVG/1.1/DTD/svg11.dtd">
<!-- Generated by graphviz version 2.30.1 (20170916.1124)
 -->
<!-- Title: mom_ale::pressure_gradient_ppm Pages: 1 -->
<!--zoomable 218 -->
<svg id="main" version="1.1" xmlns="http://www.w3.org/2000/svg" xmlns:xlink="http://www.w3.org/1999/xlink" xml:space="preserve" onload="init(evt)">
<style type="text/css"><![CDATA[
.edge:hover path { stroke: red; }
.edge:hover polygon { stroke: red; fill: red; }
]]></style>
<script type="text/javascript"><![CDATA[
var edges = document.getElementsByTagName('g');
if (edges && edges.length) {
  for (var i=0;i<edges.length;i++) {
    if (edges[i].id.substr(0,4)=='edge') {
      edges[i].setAttribute('class','edge');
    }
  }
}
]]></script>
        <defs>
                <circle id="rim" cx="0" cy="0" r="7"/>
                <circle id="rim2" cx="0" cy="0" r="3.5"/>
                <g id="zoomPlus">
                        <use xlink:href="#rim" fill="#404040">
                                <set attributeName="fill" to="#808080" begin="zoomplus.mouseover" end="zoomplus.mouseout"/>
                        </use>
                        <path d="M-4,0h8M0,-4v8" fill="none" stroke="white" stroke-width="1.5" pointer-events="none"/>
                </g>
                <g id="zoomMin">
                        <use xlink:href="#rim" fill="#404040">
                                <set attributeName="fill" to="#808080" begin="zoomminus.mouseover" end="zoomminus.mouseout"/>
                        </use>
                        <path d="M-4,0h8" fill="none" stroke="white" stroke-width="1.5" pointer-events="none"/>
                </g>
                <g id="dirArrow">
                        <path fill="none" stroke="white" stroke-width="1.5" d="M0,-3.0v7 M-2.5,-0.5L0,-3.0L2.5,-0.5"/>
                </g>
               <g id="resetDef">
                       <use xlink:href="#rim2" fill="#404040">
                               <set attributeName="fill" to="#808080" begin="reset.mouseover" end="reset.mouseout"/>
                       </use>
               </g>
        </defs>

<script type="text/javascript">
var viewWidth = 688;
var viewHeight = 218;
var sectionId = 'dynsection-16';
</script>
<script xlink:href="svgpan.js"/>
<svg id="graph" class="graph">
<g id="viewport">
<title>mom_ale::pressure_gradient_ppm</title>
<polygon fill="white" stroke="white" points="-4,5 -4,-214 685,-214 685,5 -4,5"/>
<!-- Node103 -->
<g id="node1" class="node"><title>Node103</title>
<g id="a_node1"><a xlink:title="Use ppm reconstruction for pressure gradient (determine edge values) By using a PPM (limited piecewis...">
<polygon fill="#bfbfbf" stroke="black" points="0,-87.5 0,-106.5 140,-106.5 140,-87.5 0,-87.5"/>
<text text-anchor="middle" x="70" y="-94.5" font-family="Helvetica,sans-Serif" font-size="10.00">mom_ale::pressure_gradient_ppm</text>
</a>
</g>
</g>
<!-- Node104 -->
<g id="node2" class="node"><title>Node104</title>
<g id="a_node2"><a xlink:href="namespaceregrid__edge__values.html#a2c2460b31b6de501eed3cb7db07a4be5" target="_top" xlink:title=" ">
<polygon fill="white" stroke="black" points="176.5,-131 176.5,-161 283.5,-161 283.5,-131 176.5,-131"/>
<text text-anchor="start" x="184.5" y="-149" font-family="Helvetica,sans-Serif" font-size="10.00">regrid_edge_values</text>
<text text-anchor="middle" x="230" y="-138" font-family="Helvetica,sans-Serif" font-size="10.00">::edge_values_implicit_h4</text>
</a>
</g>
</g>
<!-- Node103&#45;&gt;Node104 -->
<g id="edge1" class="edge"><title>Node103&#45;&gt;Node104</title>
<path fill="none" stroke="midnightblue" d="M101.839,-106.564C121.406,-112.632 147.346,-120.677 170.693,-127.917"/>
<polygon fill="midnightblue" stroke="midnightblue" points="169.925,-131.344 180.513,-130.963 171.999,-124.658 169.925,-131.344"/>
</g>
<!-- Node110 -->
<g id="node8" class="node"><title>Node110</title>
<g id="a_node8"><a xlink:href="namespaceppm__functions.html#aaf88d77ece3a30843c730fd2d57c517f" target="_top" xlink:title=" ">
<polygon fill="white" stroke="black" points="177.5,-82 177.5,-112 282.5,-112 282.5,-82 177.5,-82"/>
<text text-anchor="start" x="185.5" y="-100" font-family="Helvetica,sans-Serif" font-size="10.00">ppm_functions::ppm</text>
<text text-anchor="middle" x="230" y="-89" font-family="Helvetica,sans-Serif" font-size="10.00">_boundary_extrapolation</text>
</a>
</g>
</g>
<!-- Node103&#45;&gt;Node110 -->
<g id="edge7" class="edge"><title>Node103&#45;&gt;Node110</title>
<path fill="none" stroke="midnightblue" d="M140.301,-97C149.24,-97 158.348,-97 167.156,-97"/>
<polygon fill="midnightblue" stroke="midnightblue" points="167.332,-100.5 177.332,-97 167.331,-93.5001 167.332,-100.5"/>
</g>
<!-- Node111 -->
<g id="node9" class="node"><title>Node111</title>
<g id="a_node9"><a xlink:href="namespaceppm__functions.html#a97e2144c7499aacd90858788f1312432" target="_top" xlink:title="Builds quadratic polynomials coefficients from cell mean and edge values.">
<polygon fill="white" stroke="black" points="185.5,-33 185.5,-63 274.5,-63 274.5,-33 185.5,-33"/>
<text text-anchor="start" x="193.5" y="-51" font-family="Helvetica,sans-Serif" font-size="10.00">ppm_functions::ppm</text>
<text text-anchor="middle" x="230" y="-40" font-family="Helvetica,sans-Serif" font-size="10.00">_reconstruction</text>
</a>
</g>
</g>
<!-- Node103&#45;&gt;Node111 -->
<g id="edge8" class="edge"><title>Node103&#45;&gt;Node111</title>
<path fill="none" stroke="midnightblue" d="M101.839,-87.436C122.849,-80.9203 151.208,-72.1255 175.813,-64.4947"/>
<polygon fill="midnightblue" stroke="midnightblue" points="176.873,-67.8306 185.387,-61.5255 174.799,-61.1447 176.873,-67.8306"/>
</g>
<!-- Node105 -->
<g id="node3" class="node"><title>Node105</title>
<g id="a_node3"><a xlink:href="namespaceregrid__solvers.html#a8130a338b59de62b00f68da4204568ad" target="_top" xlink:title=" ">
<polygon fill="white" stroke="black" points="325.5,-180 325.5,-210 414.5,-210 414.5,-180 325.5,-180"/>
<text text-anchor="start" x="333.5" y="-198" font-family="Helvetica,sans-Serif" font-size="10.00">regrid_solvers::solve</text>
<text text-anchor="middle" x="370" y="-187" font-family="Helvetica,sans-Serif" font-size="10.00">_linear_system</text>
</a>
</g>
</g>
<!-- Node104&#45;&gt;Node105 -->
<g id="edge2" class="edge"><title>Node104&#45;&gt;Node105</title>
<path fill="none" stroke="midnightblue" d="M273.531,-161.101C287.172,-165.945 302.44,-171.366 316.697,-176.428"/>
<polygon fill="midnightblue" stroke="midnightblue" points="315.778,-179.816 326.372,-179.864 318.12,-173.22 315.778,-179.816"/>
</g>
<!-- Node108 -->
<g id="node6" class="node"><title>Node108</title>
<g id="a_node6"><a xlink:href="namespacepolynomial__functions.html#aed77465c5ca9937dab06fdb5f94eba39" target="_top" xlink:title=" ">
<polygon fill="white" stroke="black" points="320.5,-131 320.5,-161 419.5,-161 419.5,-131 320.5,-131"/>
<text text-anchor="start" x="328.5" y="-149" font-family="Helvetica,sans-Serif" font-size="10.00">polynomial_functions</text>
<text text-anchor="middle" x="370" y="-138" font-family="Helvetica,sans-Serif" font-size="10.00">::evaluation_polynomial</text>
</a>
</g>
</g>
<!-- Node104&#45;&gt;Node108 -->
<g id="edge5" class="edge"><title>Node104&#45;&gt;Node108</title>
<path fill="none" stroke="midnightblue" d="M283.566,-146C292.216,-146 301.231,-146 310.025,-146"/>
<polygon fill="midnightblue" stroke="midnightblue" points="310.211,-149.5 320.211,-146 310.211,-142.5 310.211,-149.5"/>
</g>
<!-- Node109 -->
<g id="node7" class="node"><title>Node109</title>
<g id="a_node7"><a xlink:href="namespaceregrid__solvers.html#a0d5c3cff8f31429b0a2c6d267e8b345d" target="_top" xlink:title=" ">
<polygon fill="white" stroke="black" points="325.5,-82 325.5,-112 414.5,-112 414.5,-82 325.5,-82"/>
<text text-anchor="start" x="333.5" y="-100" font-family="Helvetica,sans-Serif" font-size="10.00">regrid_solvers::solve</text>
<text text-anchor="middle" x="370" y="-89" font-family="Helvetica,sans-Serif" font-size="10.00">_tridiagonal_system</text>
</a>
</g>
</g>
<!-- Node104&#45;&gt;Node109 -->
<g id="edge6" class="edge"><title>Node104&#45;&gt;Node109</title>
<path fill="none" stroke="midnightblue" d="M273.531,-130.899C287.172,-126.055 302.44,-120.634 316.697,-115.572"/>
<polygon fill="midnightblue" stroke="midnightblue" points="318.12,-118.78 326.372,-112.136 315.778,-112.184 318.12,-118.78"/>
</g>
<!-- Node106 -->
<g id="node4" class="node"><title>Node106</title>
<g id="a_node4"><a xlink:href="namespacemom__error__handler.html#a460cfb79a06c29fc249952c2a3710d67" target="_top" xlink:title=" ">
<polygon fill="white" stroke="black" points="456.5,-180 456.5,-210 549.5,-210 549.5,-180 456.5,-180"/>
<text text-anchor="start" x="464.5" y="-198" font-family="Helvetica,sans-Serif" font-size="10.00">mom_error_handler::</text>
<text text-anchor="middle" x="503" y="-187" font-family="Helvetica,sans-Serif" font-size="10.00">mom_error</text>
</a>
</g>
</g>
<!-- Node105&#45;&gt;Node106 -->
<g id="edge3" class="edge"><title>Node105&#45;&gt;Node106</title>
<path fill="none" stroke="midnightblue" d="M414.621,-195C424.774,-195 435.719,-195 446.313,-195"/>
<polygon fill="midnightblue" stroke="midnightblue" points="446.326,-198.5 456.326,-195 446.326,-191.5 446.326,-198.5"/>
</g>
<!-- Node107 -->
<g id="node5" class="node"><title>Node107</title>
<g id="a_node5"><a xlink:href="namespacemom__error__handler.html#ad5f00a53059c72fe2332d1436c80ca71" target="_top" xlink:title=" ">
<polygon fill="white" stroke="black" points="586.5,-180 586.5,-210 679.5,-210 679.5,-180 586.5,-180"/>
<text text-anchor="start" x="594.5" y="-198" font-family="Helvetica,sans-Serif" font-size="10.00">mom_error_handler::</text>
<text text-anchor="middle" x="633" y="-187" font-family="Helvetica,sans-Serif" font-size="10.00">is_root_pe</text>
</a>
</g>
</g>
<!-- Node106&#45;&gt;Node107 -->
<g id="edge4" class="edge"><title>Node106&#45;&gt;Node107</title>
<path fill="none" stroke="midnightblue" d="M549.849,-195C558.408,-195 567.439,-195 576.258,-195"/>
<polygon fill="midnightblue" stroke="midnightblue" points="576.471,-198.5 586.471,-195 576.471,-191.5 576.471,-198.5"/>
</g>
<!-- Node112 -->
<g id="node10" class="node"><title>Node112</title>
<g id="a_node10"><a xlink:href="namespaceppm__functions.html#a89920c90b84f0b241c5a6d65fe2870b9" target="_top" xlink:title="Adjusts edge values using the standard PPM limiter (Colella &amp; Woodward, JCP 1984) after first checkin...">
<polygon fill="white" stroke="black" points="325.5,-33 325.5,-63 414.5,-63 414.5,-33 325.5,-33"/>
<text text-anchor="start" x="333.5" y="-51" font-family="Helvetica,sans-Serif" font-size="10.00">ppm_functions::ppm</text>
<text text-anchor="middle" x="370" y="-40" font-family="Helvetica,sans-Serif" font-size="10.00">_limiter_standard</text>
</a>
</g>
</g>
<!-- Node111&#45;&gt;Node112 -->
<g id="edge9" class="edge"><title>Node111&#45;&gt;Node112</title>
<path fill="none" stroke="midnightblue" d="M274.664,-48C287.501,-48 301.696,-48 315.093,-48"/>
<polygon fill="midnightblue" stroke="midnightblue" points="315.146,-51.5001 325.146,-48 315.146,-44.5001 315.146,-51.5001"/>
</g>
<!-- Node113 -->
<g id="node11" class="node"><title>Node113</title>
<g id="a_node11"><a xlink:href="namespaceregrid__edge__values.html#aa204fe78ee22cae62f2b7f1bc76151a9" target="_top" xlink:title=" ">
<polygon fill="white" stroke="black" points="456.5,-61 456.5,-91 549.5,-91 549.5,-61 456.5,-61"/>
<text text-anchor="start" x="464.5" y="-79" font-family="Helvetica,sans-Serif" font-size="10.00">regrid_edge_values</text>
<text text-anchor="middle" x="503" y="-68" font-family="Helvetica,sans-Serif" font-size="10.00">::bound_edge_values</text>
</a>
</g>
</g>
<!-- Node112&#45;&gt;Node113 -->
<g id="edge10" class="edge"><title>Node112&#45;&gt;Node113</title>
<path fill="none" stroke="midnightblue" d="M414.621,-57.3236C424.774,-59.4936 435.719,-61.833 446.313,-64.0975"/>
<polygon fill="midnightblue" stroke="midnightblue" points="445.816,-67.5701 456.326,-66.2377 447.279,-60.7247 445.816,-67.5701"/>
</g>
<!-- Node114 -->
<g id="node12" class="node"><title>Node114</title>
<g id="a_node12"><a xlink:href="namespaceregrid__edge__values.html#acbdacbbf7212e538bb52a9729fc949a7" target="_top" xlink:title=" ">
<polygon fill="white" stroke="black" points="456,-0.5 456,-41.5 550,-41.5 550,-0.5 456,-0.5"/>
<text text-anchor="start" x="464" y="-29.5" font-family="Helvetica,sans-Serif" font-size="10.00">regrid_edge_values</text>
<text text-anchor="start" x="464" y="-18.5" font-family="Helvetica,sans-Serif" font-size="10.00">::check_discontinuous</text>
<text text-anchor="middle" x="503" y="-7.5" font-family="Helvetica,sans-Serif" font-size="10.00">_edge_values</text>
</a>
</g>
</g>
<!-- Node112&#45;&gt;Node114 -->
<g id="edge11" class="edge"><title>Node112&#45;&gt;Node114</title>
<path fill="none" stroke="midnightblue" d="M414.621,-39.0094C424.661,-36.9401 435.476,-34.7111 445.96,-32.5502"/>
<polygon fill="midnightblue" stroke="midnightblue" points="446.787,-35.9534 455.875,-30.5067 445.374,-29.0975 446.787,-35.9534"/>
</g>
</g>
</svg>
        <g id="navigator" transform="translate(0 0)" fill="#404254">
                <rect fill="#f2f5e9" fill-opacity="0.5" stroke="#606060" stroke-width=".5" x="0" y="0" width="60" height="60"/>
                <use id="zoomplus" xlink:href="#zoomPlus" x="17" y="9" onmousedown="handleZoom(evt,'in')"/>
                <use id="zoomminus" xlink:href="#zoomMin" x="42" y="9" onmousedown="handleZoom(evt,'out')"/>
                <use id="reset" xlink:href="#resetDef" x="30" y="36" onmousedown="handleReset()"/>
                <g id="arrowUp" xlink:href="#dirArrow" transform="translate(30 24)" onmousedown="handlePan(0,-1)">
                  <use xlink:href="#rim" fill="#404040">
                        <set attributeName="fill" to="#808080" begin="arrowUp.mouseover" end="arrowUp.mouseout"/>
                  </use>
                  <path fill="none" stroke="white" stroke-width="1.5" d="M0,-3.0v7 M-2.5,-0.5L0,-3.0L2.5,-0.5"/>
                </g>
                <g id="arrowRight" xlink:href="#dirArrow" transform="rotate(90) translate(36 -43)" onmousedown="handlePan(1,0)">
                  <use xlink:href="#rim" fill="#404040">
                        <set attributeName="fill" to="#808080" begin="arrowRight.mouseover" end="arrowRight.mouseout"/>
                  </use>
                  <path fill="none" stroke="white" stroke-width="1.5" d="M0,-3.0v7 M-2.5,-0.5L0,-3.0L2.5,-0.5"/>
                </g>
                <g id="arrowDown" xlink:href="#dirArrow" transform="rotate(180) translate(-30 -48)" onmousedown="handlePan(0,1)">
                  <use xlink:href="#rim" fill="#404040">
                        <set attributeName="fill" to="#808080" begin="arrowDown.mouseover" end="arrowDown.mouseout"/>
                  </use>
                  <path fill="none" stroke="white" stroke-width="1.5" d="M0,-3.0v7 M-2.5,-0.5L0,-3.0L2.5,-0.5"/>
                </g>
                <g id="arrowLeft" xlink:href="#dirArrow" transform="rotate(270) translate(-36 17)" onmousedown="handlePan(-1,0)">
                  <use xlink:href="#rim" fill="#404040">
                        <set attributeName="fill" to="#808080" begin="arrowLeft.mouseover" end="arrowLeft.mouseout"/>
                  </use>
                  <path fill="none" stroke="white" stroke-width="1.5" d="M0,-3.0v7 M-2.5,-0.5L0,-3.0L2.5,-0.5"/>
                </g>
        </g>
        <svg viewBox="0 0 15 15" width="100%" height="30px" preserveAspectRatio="xMaxYMin meet">
         <g id="arrow_out" transform="scale(0.3 0.3)">
          <a xlink:href="namespacemom__ale_aea1b73dedf1ae5f3db9fa0a6aa6ebaa0_cgraph_org.svg" target="_base">
           <rect id="button" ry="5" rx="5" y="6" x="6" height="38" width="38"
                fill="#f2f5e9" fill-opacity="0.5" stroke="#606060" stroke-width="1.0"/>
           <path id="arrow"
             d="M 11.500037,31.436501 C 11.940474,20.09759 22.043105,11.32322 32.158766,21.979434 L 37.068811,17.246167 C 37.068811,17.246167 37.088388,32 37.088388,32 L 22.160133,31.978069 C 22.160133,31.978069 26.997745,27.140456 26.997745,27.140456 C 18.528582,18.264221 13.291696,25.230495 11.500037,31.436501 z"
             style="fill:#404040;"/>
          </a>
         </g>
        </svg>
</svg>
