<?xml version="1.0" encoding="UTF-8" standalone="no"?>
<!DOCTYPE svg PUBLIC "-//W3C//DTD SVG 1.1//EN"
 "http://www.w3.org/Graphics/SVG/1.1/DTD/svg11.dtd">
<!-- Generated by graphviz version 2.30.1 (20170916.1124)
 -->
<!-- Title: mom_ice_shelf::solo_time_step Pages: 1 -->
<!--zoomable 1108 -->
<svg id="main" version="1.1" xmlns="http://www.w3.org/2000/svg" xmlns:xlink="http://www.w3.org/1999/xlink" xml:space="preserve" onload="init(evt)">
<style type="text/css"><![CDATA[
.edge:hover path { stroke: red; }
.edge:hover polygon { stroke: red; fill: red; }
]]></style>
<script type="text/javascript"><![CDATA[
var edges = document.getElementsByTagName('g');
if (edges && edges.length) {
  for (var i=0;i<edges.length;i++) {
    if (edges[i].id.substr(0,4)=='edge') {
      edges[i].setAttribute('class','edge');
    }
  }
}
]]></script>
        <defs>
                <circle id="rim" cx="0" cy="0" r="7"/>
                <circle id="rim2" cx="0" cy="0" r="3.5"/>
                <g id="zoomPlus">
                        <use xlink:href="#rim" fill="#404040">
                                <set attributeName="fill" to="#808080" begin="zoomplus.mouseover" end="zoomplus.mouseout"/>
                        </use>
                        <path d="M-4,0h8M0,-4v8" fill="none" stroke="white" stroke-width="1.5" pointer-events="none"/>
                </g>
                <g id="zoomMin">
                        <use xlink:href="#rim" fill="#404040">
                                <set attributeName="fill" to="#808080" begin="zoomminus.mouseover" end="zoomminus.mouseout"/>
                        </use>
                        <path d="M-4,0h8" fill="none" stroke="white" stroke-width="1.5" pointer-events="none"/>
                </g>
                <g id="dirArrow">
                        <path fill="none" stroke="white" stroke-width="1.5" d="M0,-3.0v7 M-2.5,-0.5L0,-3.0L2.5,-0.5"/>
                </g>
               <g id="resetDef">
                       <use xlink:href="#rim2" fill="#404040">
                               <set attributeName="fill" to="#808080" begin="reset.mouseover" end="reset.mouseout"/>
                       </use>
               </g>
        </defs>

<script type="text/javascript">
var viewWidth = 838;
var viewHeight = 1108;
var sectionId = 'dynsection-52';
</script>
<script xlink:href="svgpan.js"/>
<svg id="graph" class="graph">
<g id="viewport">
<title>mom_ice_shelf::solo_time_step</title>
<polygon fill="white" stroke="white" points="-4,5 -4,-1104 835,-1104 835,5 -4,5"/>
<!-- Node466 -->
<g id="node1" class="node"><title>Node466</title>
<g id="a_node1"><a xlink:title=" ">
<polygon fill="#bfbfbf" stroke="black" points="0.5,-705 0.5,-735 89.5,-735 89.5,-705 0.5,-705"/>
<text text-anchor="start" x="8.5" y="-723" font-family="Helvetica,sans-Serif" font-size="10.00">mom_ice_shelf::solo</text>
<text text-anchor="middle" x="45" y="-712" font-family="Helvetica,sans-Serif" font-size="10.00">_time_step</text>
</a>
</g>
</g>
<!-- Node467 -->
<g id="node2" class="node"><title>Node467</title>
<g id="a_node2"><a xlink:href="namespacemom__diag__mediator.html#a1761df399ba39742e34ab989469da0f2" target="_top" xlink:title=" ">
<polygon fill="white" stroke="black" points="128.5,-972 128.5,-1002 223.5,-1002 223.5,-972 128.5,-972"/>
<text text-anchor="start" x="136.5" y="-990" font-family="Helvetica,sans-Serif" font-size="10.00">mom_diag_mediator::</text>
<text text-anchor="middle" x="176" y="-979" font-family="Helvetica,sans-Serif" font-size="10.00">disable_averaging</text>
</a>
</g>
</g>
<!-- Node466&#45;&gt;Node467 -->
<g id="edge1" class="edge"><title>Node466&#45;&gt;Node467</title>
<path fill="none" stroke="midnightblue" d="M47.0881,-735.263C50.7859,-776.606 66.209,-892.317 126,-962 127.011,-963.178 128.09,-964.307 129.226,-965.388"/>
<polygon fill="midnightblue" stroke="midnightblue" points="127.39,-968.398 137.404,-971.855 131.731,-962.907 127.39,-968.398"/>
</g>
<!-- Node468 -->
<g id="node3" class="node"><title>Node468</title>
<g id="a_node3"><a xlink:href="namespacemom__diag__mediator.html#a91244f765f2964dfb11f8787f65042f1" target="_top" xlink:title=" ">
<polygon fill="white" stroke="black" points="128.5,-923 128.5,-953 223.5,-953 223.5,-923 128.5,-923"/>
<text text-anchor="start" x="136.5" y="-941" font-family="Helvetica,sans-Serif" font-size="10.00">mom_diag_mediator::</text>
<text text-anchor="middle" x="176" y="-930" font-family="Helvetica,sans-Serif" font-size="10.00">enable_averaging</text>
</a>
</g>
</g>
<!-- Node466&#45;&gt;Node468 -->
<g id="edge2" class="edge"><title>Node466&#45;&gt;Node468</title>
<path fill="none" stroke="midnightblue" d="M48.5891,-735.219C55.3164,-770.574 76.3963,-859.323 126,-913 127.203,-914.302 128.489,-915.547 129.841,-916.735"/>
<polygon fill="midnightblue" stroke="midnightblue" points="128.051,-919.767 138.159,-922.942 132.237,-914.157 128.051,-919.767"/>
</g>
<!-- Node469 -->
<g id="node4" class="node"><title>Node469</title>
<g id="a_node4"><a xlink:href="namespacemom__ice__shelf.html#a6a07543d5e828b759f18def33ca4feda" target="_top" xlink:title=" ">
<polygon fill="white" stroke="black" points="134,-874 134,-904 218,-904 218,-874 134,-874"/>
<text text-anchor="start" x="142" y="-892" font-family="Helvetica,sans-Serif" font-size="10.00">mom_ice_shelf::ice</text>
<text text-anchor="middle" x="176" y="-881" font-family="Helvetica,sans-Serif" font-size="10.00">_shelf_advect</text>
</a>
</g>
</g>
<!-- Node466&#45;&gt;Node469 -->
<g id="edge3" class="edge"><title>Node466&#45;&gt;Node469</title>
<path fill="none" stroke="midnightblue" d="M57.2655,-735.335C72.6372,-756.198 101.12,-794.636 126,-827 135.959,-839.954 147.256,-854.273 156.491,-865.884"/>
<polygon fill="midnightblue" stroke="midnightblue" points="153.833,-868.164 162.803,-873.802 159.307,-863.801 153.833,-868.164"/>
</g>
<!-- Node478 -->
<g id="node13" class="node"><title>Node478</title>
<g id="a_node13"><a xlink:href="namespacemom__ice__shelf.html#a5d64b696412c0bfd8ded2e2eacaa917c" target="_top" xlink:title=" ">
<polygon fill="white" stroke="black" points="134,-361 134,-391 218,-391 218,-361 134,-361"/>
<text text-anchor="start" x="142" y="-379" font-family="Helvetica,sans-Serif" font-size="10.00">mom_ice_shelf::ice</text>
<text text-anchor="middle" x="176" y="-368" font-family="Helvetica,sans-Serif" font-size="10.00">_shelf_solve_outer</text>
</a>
</g>
</g>
<!-- Node466&#45;&gt;Node478 -->
<g id="edge13" class="edge"><title>Node466&#45;&gt;Node478</title>
<path fill="none" stroke="midnightblue" d="M51.7094,-704.775C71.982,-650.715 140.627,-467.661 165.718,-400.753"/>
<polygon fill="midnightblue" stroke="midnightblue" points="169.122,-401.642 169.357,-391.049 162.568,-399.184 169.122,-401.642"/>
</g>
<!-- Node496 -->
<g id="node31" class="node"><title>Node496</title>
<g id="a_node31"><a xlink:href="namespacemom__ice__shelf.html#a356c2cd3e4862890302bd58357d55299" target="_top" xlink:title=" ">
<polygon fill="white" stroke="black" points="134,-727 134,-757 218,-757 218,-727 134,-727"/>
<text text-anchor="start" x="142" y="-745" font-family="Helvetica,sans-Serif" font-size="10.00">mom_ice_shelf::ice</text>
<text text-anchor="middle" x="176" y="-734" font-family="Helvetica,sans-Serif" font-size="10.00">_shelf_temp</text>
</a>
</g>
</g>
<!-- Node466&#45;&gt;Node496 -->
<g id="edge40" class="edge"><title>Node466&#45;&gt;Node496</title>
<path fill="none" stroke="midnightblue" d="M89.6735,-727.448C100.642,-729.319 112.511,-731.343 123.81,-733.27"/>
<polygon fill="midnightblue" stroke="midnightblue" points="123.538,-736.774 133.984,-735.005 124.715,-729.874 123.538,-736.774"/>
</g>
<!-- Node476 -->
<g id="node11" class="node"><title>Node476</title>
<g id="a_node11"><a xlink:href="namespacemom__error__handler.html#ad5f00a53059c72fe2332d1436c80ca71" target="_top" xlink:title=" ">
<polygon fill="white" stroke="black" points="422.5,-664 422.5,-694 515.5,-694 515.5,-664 422.5,-664"/>
<text text-anchor="start" x="430.5" y="-682" font-family="Helvetica,sans-Serif" font-size="10.00">mom_error_handler::</text>
<text text-anchor="middle" x="469" y="-671" font-family="Helvetica,sans-Serif" font-size="10.00">is_root_pe</text>
</a>
</g>
</g>
<!-- Node466&#45;&gt;Node476 -->
<g id="edge45" class="edge"><title>Node466&#45;&gt;Node476</title>
<path fill="none" stroke="midnightblue" d="M89.572,-715.767C166.772,-708.266 327.43,-692.657 412.453,-684.397"/>
<polygon fill="midnightblue" stroke="midnightblue" points="412.821,-687.878 422.436,-683.427 412.144,-680.91 412.821,-687.878"/>
</g>
<!-- Node499 -->
<g id="node34" class="node"><title>Node499</title>
<g id="a_node34"><a xlink:href="namespacemom__error__handler.html#a460cfb79a06c29fc249952c2a3710d67" target="_top" xlink:title=" ">
<polygon fill="white" stroke="black" points="129.5,-639 129.5,-669 222.5,-669 222.5,-639 129.5,-639"/>
<text text-anchor="start" x="137.5" y="-657" font-family="Helvetica,sans-Serif" font-size="10.00">mom_error_handler::</text>
<text text-anchor="middle" x="176" y="-646" font-family="Helvetica,sans-Serif" font-size="10.00">mom_error</text>
</a>
</g>
</g>
<!-- Node466&#45;&gt;Node499 -->
<g id="edge46" class="edge"><title>Node466&#45;&gt;Node499</title>
<path fill="none" stroke="midnightblue" d="M75.5952,-704.858C93.7039,-695.593 117.065,-683.641 136.591,-673.651"/>
<polygon fill="midnightblue" stroke="midnightblue" points="138.234,-676.742 145.543,-669.071 135.046,-670.51 138.234,-676.742"/>
</g>
<!-- Node486 -->
<g id="node21" class="node"><title>Node486</title>
<g id="a_node21"><a xlink:href="namespacemom__ice__shelf.html#a55464f46b7f452abe25f8dde166cee51" target="_top" xlink:title=" ">
<polygon fill="white" stroke="black" points="412,-166.5 412,-185.5 526,-185.5 526,-166.5 412,-166.5"/>
<text text-anchor="middle" x="469" y="-173.5" font-family="Helvetica,sans-Serif" font-size="10.00">mom_ice_shelf::savearray2</text>
</a>
</g>
</g>
<!-- Node466&#45;&gt;Node486 -->
<g id="edge48" class="edge"><title>Node466&#45;&gt;Node486</title>
<path fill="none" stroke="midnightblue" d="M47.5865,-704.752C53.288,-653.373 75.1592,-482.444 126,-351 169.532,-238.452 157.462,-176.283 262,-116 305.892,-90.6893 327.434,-101.563 376,-116 404.588,-124.498 432.585,-145.009 450.042,-159.681"/>
<polygon fill="midnightblue" stroke="midnightblue" points="447.872,-162.432 457.721,-166.337 452.457,-157.143 447.872,-162.432"/>
</g>
<!-- Node500 -->
<g id="node35" class="node"><title>Node500</title>
<g id="a_node35"><a xlink:href="namespacemom__ice__shelf.html#a1a323e884141c533e729dc44c6bbf91d" target="_top" xlink:title=" ">
<polygon fill="white" stroke="black" points="126.5,-0 126.5,-30 225.5,-30 225.5,-0 126.5,-0"/>
<text text-anchor="start" x="134.5" y="-18" font-family="Helvetica,sans-Serif" font-size="10.00">mom_ice_shelf::update</text>
<text text-anchor="middle" x="176" y="-7" font-family="Helvetica,sans-Serif" font-size="10.00">_od_ffrac_uncoupled</text>
</a>
</g>
</g>
<!-- Node466&#45;&gt;Node500 -->
<g id="edge49" class="edge"><title>Node466&#45;&gt;Node500</title>
<path fill="none" stroke="midnightblue" d="M46.038,-704.941C46.5164,-616.029 52.5633,-159.648 126,-45 127.883,-42.0602 130.167,-39.3635 132.707,-36.8984"/>
<polygon fill="midnightblue" stroke="midnightblue" points="135.407,-39.2141 140.952,-30.1862 130.987,-33.7857 135.407,-39.2141"/>
</g>
<!-- Node477 -->
<g id="node12" class="node"><title>Node477</title>
<g id="a_node12"><a xlink:href="namespacemom__ice__shelf.html#ae71447bb7b63b4313070abc27e0a7208" target="_top" xlink:title=" ">
<polygon fill="white" stroke="black" points="269.5,-825 269.5,-855 368.5,-855 368.5,-825 269.5,-825"/>
<text text-anchor="start" x="277.5" y="-843" font-family="Helvetica,sans-Serif" font-size="10.00">mom_ice_shelf::update</text>
<text text-anchor="middle" x="319" y="-832" font-family="Helvetica,sans-Serif" font-size="10.00">_velocity_masks</text>
</a>
</g>
</g>
<!-- Node466&#45;&gt;Node477 -->
<g id="edge50" class="edge"><title>Node466&#45;&gt;Node477</title>
<path fill="none" stroke="midnightblue" d="M69.986,-735.09C85.6105,-744.591 106.621,-756.762 126,-766 171.334,-787.612 224.78,-807.804 263.757,-821.618"/>
<polygon fill="midnightblue" stroke="midnightblue" points="262.745,-824.972 273.34,-824.989 265.069,-818.369 262.745,-824.972"/>
</g>
<!-- Node470 -->
<g id="node5" class="node"><title>Node470</title>
<g id="a_node5"><a xlink:href="namespacemom__ice__shelf.html#ae577f1cfafb12ba9b009523fcf43cda7" target="_top" xlink:title=" ">
<polygon fill="white" stroke="black" points="273,-1070 273,-1100 365,-1100 365,-1070 273,-1070"/>
<text text-anchor="start" x="281" y="-1088" font-family="Helvetica,sans-Serif" font-size="10.00">mom_ice_shelf::calve</text>
<text text-anchor="middle" x="319" y="-1077" font-family="Helvetica,sans-Serif" font-size="10.00">_to_mask</text>
</a>
</g>
</g>
<!-- Node469&#45;&gt;Node470 -->
<g id="edge4" class="edge"><title>Node469&#45;&gt;Node470</title>
<path fill="none" stroke="midnightblue" d="M216.307,-904.102C219.935,-906.656 223.268,-909.606 226,-913 268.178,-965.397 218.897,-1008.36 262,-1060 263.002,-1061.2 264.074,-1062.35 265.203,-1063.44"/>
<polygon fill="midnightblue" stroke="midnightblue" points="263.365,-1066.45 273.382,-1069.9 267.705,-1060.95 263.365,-1066.45"/>
</g>
<!-- Node471 -->
<g id="node6" class="node"><title>Node471</title>
<g id="a_node6"><a xlink:href="namespacemom__ice__shelf.html#a8bd6d78f530289dc90ffbdb0b80e7883" target="_top" xlink:title=" ">
<polygon fill="white" stroke="black" points="264,-1021 264,-1051 374,-1051 374,-1021 264,-1021"/>
<text text-anchor="start" x="272" y="-1039" font-family="Helvetica,sans-Serif" font-size="10.00">mom_ice_shelf::ice</text>
<text text-anchor="middle" x="319" y="-1028" font-family="Helvetica,sans-Serif" font-size="10.00">_shelf_advect_thickness_x</text>
</a>
</g>
</g>
<!-- Node469&#45;&gt;Node471 -->
<g id="edge5" class="edge"><title>Node469&#45;&gt;Node471</title>
<path fill="none" stroke="midnightblue" d="M215.448,-904.097C219.33,-906.669 222.955,-909.623 226,-913 257.071,-947.463 230.321,-977.095 262,-1011 263.224,-1012.31 264.53,-1013.56 265.901,-1014.74"/>
<polygon fill="midnightblue" stroke="midnightblue" points="264.206,-1017.84 274.356,-1020.87 268.316,-1012.17 264.206,-1017.84"/>
</g>
<!-- Node473 -->
<g id="node8" class="node"><title>Node473</title>
<g id="a_node8"><a xlink:href="namespacemom__ice__shelf.html#a0663fa04e4a2df8b6676a0c5364ac8ee" target="_top" xlink:title=" ">
<polygon fill="white" stroke="black" points="264,-972 264,-1002 374,-1002 374,-972 264,-972"/>
<text text-anchor="start" x="272" y="-990" font-family="Helvetica,sans-Serif" font-size="10.00">mom_ice_shelf::ice</text>
<text text-anchor="middle" x="319" y="-979" font-family="Helvetica,sans-Serif" font-size="10.00">_shelf_advect_thickness_y</text>
</a>
</g>
</g>
<!-- Node469&#45;&gt;Node473 -->
<g id="edge7" class="edge"><title>Node469&#45;&gt;Node473</title>
<path fill="none" stroke="midnightblue" d="M213.049,-904.119C217.626,-906.755 222.076,-909.719 226,-913 246.733,-930.333 240.962,-945.039 262,-962 264.031,-963.637 266.186,-965.19 268.422,-966.66"/>
<polygon fill="midnightblue" stroke="midnightblue" points="266.971,-969.867 277.366,-971.918 270.519,-963.832 266.971,-969.867"/>
</g>
<!-- Node474 -->
<g id="node9" class="node"><title>Node474</title>
<g id="a_node9"><a xlink:href="namespacemom__ice__shelf.html#a850dc882bb94f5b3eacdfdbf25cb19b8" target="_top" xlink:title=" ">
<polygon fill="white" stroke="black" points="262,-923 262,-953 376,-953 376,-923 262,-923"/>
<text text-anchor="start" x="270" y="-941" font-family="Helvetica,sans-Serif" font-size="10.00">mom_ice_shelf::ice</text>
<text text-anchor="middle" x="319" y="-930" font-family="Helvetica,sans-Serif" font-size="10.00">_shelf_min_thickness_calve</text>
</a>
</g>
</g>
<!-- Node469&#45;&gt;Node474 -->
<g id="edge9" class="edge"><title>Node469&#45;&gt;Node474</title>
<path fill="none" stroke="midnightblue" d="M218.162,-903.305C232.837,-908.404 249.575,-914.221 265.098,-919.616"/>
<polygon fill="midnightblue" stroke="midnightblue" points="263.982,-922.933 274.576,-922.91 266.279,-916.321 263.982,-922.933"/>
</g>
<!-- Node475 -->
<g id="node10" class="node"><title>Node475</title>
<g id="a_node10"><a xlink:href="namespacemom__ice__shelf.html#aafa24b7ba297a29d9897576939282815" target="_top" xlink:title=" ">
<polygon fill="white" stroke="black" points="273.5,-874 273.5,-904 364.5,-904 364.5,-874 273.5,-874"/>
<text text-anchor="start" x="281.5" y="-892" font-family="Helvetica,sans-Serif" font-size="10.00">mom_ice_shelf::shelf</text>
<text text-anchor="middle" x="319" y="-881" font-family="Helvetica,sans-Serif" font-size="10.00">_advance_front</text>
</a>
</g>
</g>
<!-- Node469&#45;&gt;Node475 -->
<g id="edge10" class="edge"><title>Node469&#45;&gt;Node475</title>
<path fill="none" stroke="midnightblue" d="M218.162,-889C232.163,-889 248.044,-889 262.954,-889"/>
<polygon fill="midnightblue" stroke="midnightblue" points="263.087,-892.5 273.087,-889 263.087,-885.5 263.087,-892.5"/>
</g>
<!-- Node469&#45;&gt;Node477 -->
<g id="edge12" class="edge"><title>Node469&#45;&gt;Node477</title>
<path fill="none" stroke="midnightblue" d="M218.162,-874.695C232.837,-869.596 249.575,-863.779 265.098,-858.384"/>
<polygon fill="midnightblue" stroke="midnightblue" points="266.279,-861.679 274.576,-855.09 263.982,-855.067 266.279,-861.679"/>
</g>
<!-- Node472 -->
<g id="node7" class="node"><title>Node472</title>
<g id="a_node7"><a xlink:href="namespacemom__ice__shelf.html#ac30ce29228457ec8a19679f25960ef21" target="_top" xlink:title=" ">
<polygon fill="white" stroke="black" points="422.5,-874 422.5,-904 515.5,-904 515.5,-874 422.5,-874"/>
<text text-anchor="start" x="430.5" y="-892" font-family="Helvetica,sans-Serif" font-size="10.00">mom_ice_shelf::slope</text>
<text text-anchor="middle" x="469" y="-881" font-family="Helvetica,sans-Serif" font-size="10.00">_limiter</text>
</a>
</g>
</g>
<!-- Node471&#45;&gt;Node472 -->
<g id="edge6" class="edge"><title>Node471&#45;&gt;Node472</title>
<path fill="none" stroke="midnightblue" d="M360.591,-1020.86C366.031,-1018 371.335,-1014.71 376,-1011 410.719,-983.364 439.346,-939.755 455.019,-912.846"/>
<polygon fill="midnightblue" stroke="midnightblue" points="458.105,-914.5 460.011,-904.078 452.022,-911.037 458.105,-914.5"/>
</g>
<!-- Node473&#45;&gt;Node472 -->
<g id="edge8" class="edge"><title>Node473&#45;&gt;Node472</title>
<path fill="none" stroke="midnightblue" d="M357.419,-971.871C363.761,-968.864 370.174,-965.534 376,-962 400.641,-947.051 426.119,-926.354 443.998,-910.815"/>
<polygon fill="midnightblue" stroke="midnightblue" points="446.456,-913.314 451.647,-904.077 441.829,-908.061 446.456,-913.314"/>
</g>
<!-- Node475&#45;&gt;Node476 -->
<g id="edge11" class="edge"><title>Node475&#45;&gt;Node476</title>
<path fill="none" stroke="midnightblue" d="M362.396,-873.977C367.322,-871.14 372.005,-867.833 376,-864 423.56,-818.379 450.24,-742.953 461.514,-704.001"/>
<polygon fill="midnightblue" stroke="midnightblue" points="464.978,-704.61 464.29,-694.037 458.235,-702.731 464.978,-704.61"/>
</g>
<!-- Node479 -->
<g id="node14" class="node"><title>Node479</title>
<g id="a_node14"><a xlink:href="namespacemom__ice__shelf.html#a5d534895698ad80a68be9a1b992c4d0b" target="_top" xlink:title=" ">
<polygon fill="white" stroke="black" points="413,-401 413,-431 525,-431 525,-401 413,-401"/>
<text text-anchor="start" x="421" y="-419" font-family="Helvetica,sans-Serif" font-size="10.00">mom_ice_shelf::apply</text>
<text text-anchor="middle" x="469" y="-408" font-family="Helvetica,sans-Serif" font-size="10.00">_boundary_values_bilinear</text>
</a>
</g>
</g>
<!-- Node478&#45;&gt;Node479 -->
<g id="edge14" class="edge"><title>Node478&#45;&gt;Node479</title>
<path fill="none" stroke="midnightblue" d="M218.076,-381.646C266.183,-388.259 346.48,-399.296 403.053,-407.073"/>
<polygon fill="midnightblue" stroke="midnightblue" points="402.591,-410.542 412.975,-408.436 403.544,-403.607 402.591,-410.542"/>
</g>
<!-- Node483 -->
<g id="node18" class="node"><title>Node483</title>
<g id="a_node18"><a xlink:href="namespacemom__ice__shelf.html#a6d1174213d77aef09d2eaae2fd138edd" target="_top" xlink:title=" ">
<polygon fill="white" stroke="black" points="412.5,-205 412.5,-235 525.5,-235 525.5,-205 412.5,-205"/>
<text text-anchor="start" x="420.5" y="-223" font-family="Helvetica,sans-Serif" font-size="10.00">mom_ice_shelf::apply</text>
<text text-anchor="middle" x="469" y="-212" font-family="Helvetica,sans-Serif" font-size="10.00">_boundary_values_triangle</text>
</a>
</g>
</g>
<!-- Node478&#45;&gt;Node483 -->
<g id="edge18" class="edge"><title>Node478&#45;&gt;Node483</title>
<path fill="none" stroke="midnightblue" d="M187.995,-360.948C202.791,-341.697 230.872,-308.521 262,-289 274.849,-280.942 352.871,-255.772 409.098,-238.173"/>
<polygon fill="midnightblue" stroke="midnightblue" points="410.469,-241.412 418.971,-235.091 408.383,-234.73 410.469,-241.412"/>
</g>
<!-- Node480 -->
<g id="node15" class="node"><title>Node480</title>
<g id="a_node15"><a xlink:href="namespacemom__ice__shelf.html#a9f77faf4c64078c8bce0546bb024f34e" target="_top" xlink:title=" ">
<polygon fill="white" stroke="black" points="571,-327 571,-357 671,-357 671,-327 571,-327"/>
<text text-anchor="start" x="579" y="-345" font-family="Helvetica,sans-Serif" font-size="10.00">mom_ice_shelf::bilinear</text>
<text text-anchor="middle" x="621" y="-334" font-family="Helvetica,sans-Serif" font-size="10.00">_shape_functions</text>
</a>
</g>
</g>
<!-- Node478&#45;&gt;Node480 -->
<g id="edge19" class="edge"><title>Node478&#45;&gt;Node480</title>
<path fill="none" stroke="midnightblue" d="M176.447,-360.836C175.691,-314.623 180.496,-175.104 262,-116 358.126,-46.2935 443.97,-71.1499 526,-157 576.354,-209.699 515.459,-260.904 562,-317 563.107,-318.334 564.299,-319.599 565.56,-320.798"/>
<polygon fill="midnightblue" stroke="midnightblue" points="563.414,-323.563 573.447,-326.968 567.727,-318.05 563.414,-323.563"/>
</g>
<!-- Node484 -->
<g id="node19" class="node"><title>Node484</title>
<g id="a_node19"><a xlink:href="namespacemom__ice__shelf.html#a4714299e786f7e62fa2c82916dac2316" target="_top" xlink:title=" ">
<polygon fill="white" stroke="black" points="264,-126 264,-156 374,-156 374,-126 264,-126"/>
<text text-anchor="start" x="272" y="-144" font-family="Helvetica,sans-Serif" font-size="10.00">mom_ice_shelf::bilinear</text>
<text text-anchor="middle" x="319" y="-133" font-family="Helvetica,sans-Serif" font-size="10.00">_shape_functions_subgrid</text>
</a>
</g>
</g>
<!-- Node478&#45;&gt;Node484 -->
<g id="edge20" class="edge"><title>Node478&#45;&gt;Node484</title>
<path fill="none" stroke="midnightblue" d="M179.079,-360.827C185.036,-322.872 205.522,-222.731 262,-165 262.936,-164.043 263.917,-163.122 264.935,-162.236"/>
<polygon fill="midnightblue" stroke="midnightblue" points="267.339,-164.815 273.366,-156.102 263.221,-159.154 267.339,-164.815"/>
</g>
<!-- Node485 -->
<g id="node20" class="node"><title>Node485</title>
<g id="a_node20"><a xlink:href="namespacemom__ice__shelf.html#a9ccd473e87beaec693c8d90e7d68ed8f" target="_top" xlink:title=" ">
<polygon fill="white" stroke="black" points="273.5,-175 273.5,-205 364.5,-205 364.5,-175 273.5,-175"/>
<text text-anchor="start" x="281.5" y="-193" font-family="Helvetica,sans-Serif" font-size="10.00">mom_ice_shelf::calc</text>
<text text-anchor="middle" x="319" y="-182" font-family="Helvetica,sans-Serif" font-size="10.00">_shelf_driving_stress</text>
</a>
</g>
</g>
<!-- Node478&#45;&gt;Node485 -->
<g id="edge21" class="edge"><title>Node478&#45;&gt;Node485</title>
<path fill="none" stroke="midnightblue" d="M181.909,-360.867C192.343,-330.709 219.322,-262.377 262,-220 265.485,-216.539 269.453,-213.375 273.629,-210.508"/>
<polygon fill="midnightblue" stroke="midnightblue" points="275.767,-213.3 282.406,-205.043 272.067,-207.357 275.767,-213.3"/>
</g>
<!-- Node487 -->
<g id="node22" class="node"><title>Node487</title>
<g id="a_node22"><a xlink:href="namespacemom__ice__shelf.html#ac7bf50703bb671dbde1016061a04e3c9" target="_top" xlink:title=" ">
<polygon fill="white" stroke="black" points="275,-563 275,-593 363,-593 363,-563 275,-563"/>
<text text-anchor="start" x="283" y="-581" font-family="Helvetica,sans-Serif" font-size="10.00">mom_ice_shelf::calc</text>
<text text-anchor="middle" x="319" y="-570" font-family="Helvetica,sans-Serif" font-size="10.00">_shelf_visc_bilinear</text>
</a>
</g>
</g>
<!-- Node478&#45;&gt;Node487 -->
<g id="edge23" class="edge"><title>Node478&#45;&gt;Node487</title>
<path fill="none" stroke="midnightblue" d="M180.469,-391.131C188.859,-424.578 213.247,-505.585 262,-553 263.46,-554.42 265.014,-555.767 266.64,-557.044"/>
<polygon fill="midnightblue" stroke="midnightblue" points="265.023,-560.175 275.271,-562.864 268.937,-554.371 265.023,-560.175"/>
</g>
<!-- Node488 -->
<g id="node23" class="node"><title>Node488</title>
<g id="a_node23"><a xlink:href="namespacemom__ice__shelf.html#a69286817781f164a0af096b050e3ccc4" target="_top" xlink:title=" ">
<polygon fill="white" stroke="black" points="272.5,-514 272.5,-544 365.5,-544 365.5,-514 272.5,-514"/>
<text text-anchor="start" x="280.5" y="-532" font-family="Helvetica,sans-Serif" font-size="10.00">mom_ice_shelf::calc</text>
<text text-anchor="middle" x="319" y="-521" font-family="Helvetica,sans-Serif" font-size="10.00">_shelf_visc_triangular</text>
</a>
</g>
</g>
<!-- Node478&#45;&gt;Node488 -->
<g id="edge24" class="edge"><title>Node478&#45;&gt;Node488</title>
<path fill="none" stroke="midnightblue" d="M183.51,-391.021C195.524,-417.186 223.512,-471.434 262,-504 263.956,-505.655 266.039,-507.219 268.207,-508.696"/>
<polygon fill="midnightblue" stroke="midnightblue" points="266.543,-511.78 276.911,-513.961 270.167,-505.791 266.543,-511.78"/>
</g>
<!-- Node489 -->
<g id="node24" class="node"><title>Node489</title>
<g id="a_node24"><a xlink:href="namespacemom__ice__shelf.html#a08bef308dd58f20b81330c5706f71e1f" target="_top" xlink:title=" ">
<polygon fill="white" stroke="black" points="415,-450 415,-480 523,-480 523,-450 415,-450"/>
<text text-anchor="start" x="423" y="-468" font-family="Helvetica,sans-Serif" font-size="10.00">mom_ice_shelf::cg_action</text>
<text text-anchor="middle" x="469" y="-457" font-family="Helvetica,sans-Serif" font-size="10.00">_bilinear</text>
</a>
</g>
</g>
<!-- Node478&#45;&gt;Node489 -->
<g id="edge25" class="edge"><title>Node478&#45;&gt;Node489</title>
<path fill="none" stroke="midnightblue" d="M211.803,-391.014C227.054,-397.308 245.257,-404.439 262,-410 309.382,-425.739 364.02,-440.161 405.115,-450.284"/>
<polygon fill="midnightblue" stroke="midnightblue" points="404.447,-453.724 414.992,-452.699 406.109,-446.924 404.447,-453.724"/>
</g>
<!-- Node490 -->
<g id="node25" class="node"><title>Node490</title>
<g id="a_node25"><a xlink:href="namespacemom__ice__shelf.html#a0ad3713e3c3ee71d987d6cd82c45181e" target="_top" xlink:title=" ">
<polygon fill="white" stroke="black" points="415,-254 415,-284 523,-284 523,-254 415,-254"/>
<text text-anchor="start" x="423" y="-272" font-family="Helvetica,sans-Serif" font-size="10.00">mom_ice_shelf::cg_action</text>
<text text-anchor="middle" x="469" y="-261" font-family="Helvetica,sans-Serif" font-size="10.00">_triangular</text>
</a>
</g>
</g>
<!-- Node478&#45;&gt;Node490 -->
<g id="edge27" class="edge"><title>Node478&#45;&gt;Node490</title>
<path fill="none" stroke="midnightblue" d="M200.835,-360.946C217.493,-350.898 240.515,-337.939 262,-329 308.547,-309.635 363.454,-293.975 404.872,-283.516"/>
<polygon fill="midnightblue" stroke="midnightblue" points="405.972,-286.849 414.829,-281.036 404.28,-280.057 405.972,-286.849"/>
</g>
<!-- Node491 -->
<g id="node26" class="node"><title>Node491</title>
<g id="a_node26"><a xlink:href="namespacemom__ice__shelf.html#a95d21b019a635ad3a8ef060d765362e1" target="_top" xlink:title=" ">
<polygon fill="white" stroke="black" points="277,-339 277,-369 361,-369 361,-339 277,-339"/>
<text text-anchor="start" x="285" y="-357" font-family="Helvetica,sans-Serif" font-size="10.00">mom_ice_shelf::ice</text>
<text text-anchor="middle" x="319" y="-346" font-family="Helvetica,sans-Serif" font-size="10.00">_shelf_solve_inner</text>
</a>
</g>
</g>
<!-- Node478&#45;&gt;Node491 -->
<g id="edge28" class="edge"><title>Node478&#45;&gt;Node491</title>
<path fill="none" stroke="midnightblue" d="M218.162,-369.578C233.232,-367.226 250.478,-364.535 266.349,-362.059"/>
<polygon fill="midnightblue" stroke="midnightblue" points="267.202,-365.468 276.543,-360.469 266.123,-358.552 267.202,-365.468"/>
</g>
<!-- Node495 -->
<g id="node30" class="node"><title>Node495</title>
<g id="a_node30"><a xlink:href="namespacemom__ice__shelf.html#a8fc399c376152f2d639b506ff8a7ee24" target="_top" xlink:title=" ">
<polygon fill="white" stroke="black" points="263,-465 263,-495 375,-495 375,-465 263,-465"/>
<text text-anchor="start" x="271" y="-483" font-family="Helvetica,sans-Serif" font-size="10.00">mom_ice_shelf::interpolate</text>
<text text-anchor="middle" x="319" y="-472" font-family="Helvetica,sans-Serif" font-size="10.00">_h_to_b</text>
</a>
</g>
</g>
<!-- Node478&#45;&gt;Node495 -->
<g id="edge37" class="edge"><title>Node478&#45;&gt;Node495</title>
<path fill="none" stroke="midnightblue" d="M192.111,-391.031C208.469,-406.838 235.752,-431.885 262,-450 266.943,-453.411 272.317,-456.729 277.715,-459.838"/>
<polygon fill="midnightblue" stroke="midnightblue" points="276.308,-463.06 286.75,-464.853 279.705,-456.94 276.308,-463.06"/>
</g>
<!-- Node478&#45;&gt;Node476 -->
<g id="edge38" class="edge"><title>Node478&#45;&gt;Node476</title>
<path fill="none" stroke="midnightblue" d="M178.432,-391.223C182.998,-431.302 200.728,-540.853 262,-602 283.689,-623.645 359.163,-648.418 412.45,-663.887"/>
<polygon fill="midnightblue" stroke="midnightblue" points="411.546,-667.269 422.123,-666.664 413.478,-660.54 411.546,-667.269"/>
</g>
<!-- Node478&#45;&gt;Node486 -->
<g id="edge39" class="edge"><title>Node478&#45;&gt;Node486</title>
<path fill="none" stroke="midnightblue" d="M182.913,-360.876C194.173,-334.057 221.263,-278.155 262,-248 304.496,-216.543 327.053,-233.991 376,-214 392.749,-207.16 395.382,-202.151 412,-195 416.827,-192.923 421.963,-190.917 427.091,-189.036"/>
<polygon fill="midnightblue" stroke="midnightblue" points="428.594,-192.217 436.859,-185.589 426.264,-185.616 428.594,-192.217"/>
</g>
<!-- Node479&#45;&gt;Node480 -->
<g id="edge15" class="edge"><title>Node479&#45;&gt;Node480</title>
<path fill="none" stroke="midnightblue" d="M504.506,-400.99C511.649,-397.773 519.098,-394.336 526,-391 545.014,-381.811 565.869,-371.014 583.094,-361.898"/>
<polygon fill="midnightblue" stroke="midnightblue" points="585.069,-364.812 592.255,-357.027 581.782,-358.631 585.069,-364.812"/>
</g>
<!-- Node482 -->
<g id="node17" class="node"><title>Node482</title>
<g id="a_node17"><a xlink:href="namespacemom__ice__shelf.html#a925d19b978b5368c3b0d5cae3b542bfe" target="_top" xlink:title=" ">
<polygon fill="white" stroke="black" points="567,-425 567,-455 675,-455 675,-425 567,-425"/>
<text text-anchor="start" x="575" y="-443" font-family="Helvetica,sans-Serif" font-size="10.00">mom_ice_shelf::cg_action</text>
<text text-anchor="middle" x="621" y="-432" font-family="Helvetica,sans-Serif" font-size="10.00">_subgrid_basal_bilinear</text>
</a>
</g>
</g>
<!-- Node479&#45;&gt;Node482 -->
<g id="edge17" class="edge"><title>Node479&#45;&gt;Node482</title>
<path fill="none" stroke="midnightblue" d="M525.003,-424.8C535.268,-426.443 546.071,-428.171 556.566,-429.851"/>
<polygon fill="midnightblue" stroke="midnightblue" points="556.078,-433.317 566.505,-431.441 557.184,-426.405 556.078,-433.317"/>
</g>
<!-- Node481 -->
<g id="node16" class="node"><title>Node481</title>
<g id="a_node16"><a xlink:href="namespacemom__ice__shelf.html#a43bcb4adfaabc54cd57ad8d96b71c224" target="_top" xlink:title=" ">
<polygon fill="white" stroke="black" points="716.5,-332.5 716.5,-351.5 829.5,-351.5 829.5,-332.5 716.5,-332.5"/>
<text text-anchor="middle" x="773" y="-339.5" font-family="Helvetica,sans-Serif" font-size="10.00">mom_ice_shelf::quad_area</text>
</a>
</g>
</g>
<!-- Node480&#45;&gt;Node481 -->
<g id="edge16" class="edge"><title>Node480&#45;&gt;Node481</title>
<path fill="none" stroke="midnightblue" d="M671.116,-342C682.284,-342 694.325,-342 706.065,-342"/>
<polygon fill="midnightblue" stroke="midnightblue" points="706.275,-345.5 716.275,-342 706.275,-338.5 706.275,-345.5"/>
</g>
<!-- Node485&#45;&gt;Node486 -->
<g id="edge22" class="edge"><title>Node485&#45;&gt;Node486</title>
<path fill="none" stroke="midnightblue" d="M364.807,-185.762C376.488,-184.657 389.324,-183.442 401.857,-182.257"/>
<polygon fill="midnightblue" stroke="midnightblue" points="402.189,-185.741 411.815,-181.315 401.53,-178.772 402.189,-185.741"/>
</g>
<!-- Node489&#45;&gt;Node482 -->
<g id="edge26" class="edge"><title>Node489&#45;&gt;Node482</title>
<path fill="none" stroke="midnightblue" d="M523.307,-456.116C534.138,-454.31 545.63,-452.395 556.766,-450.539"/>
<polygon fill="midnightblue" stroke="midnightblue" points="557.576,-453.952 566.865,-448.856 556.426,-447.048 557.576,-453.952"/>
</g>
<!-- Node491&#45;&gt;Node479 -->
<g id="edge29" class="edge"><title>Node491&#45;&gt;Node479</title>
<path fill="none" stroke="midnightblue" d="M355.827,-369.008C375.947,-377.437 401.253,-388.038 422.734,-397.037"/>
<polygon fill="midnightblue" stroke="midnightblue" points="421.415,-400.279 431.99,-400.915 424.119,-393.823 421.415,-400.279"/>
</g>
<!-- Node491&#45;&gt;Node483 -->
<g id="edge30" class="edge"><title>Node491&#45;&gt;Node483</title>
<path fill="none" stroke="midnightblue" d="M332.767,-338.548C357.46,-308.687 409.566,-245.811 412,-244 413.827,-242.641 415.743,-241.34 417.72,-240.098"/>
<polygon fill="midnightblue" stroke="midnightblue" points="419.708,-242.995 426.692,-235.028 416.264,-236.901 419.708,-242.995"/>
</g>
<!-- Node491&#45;&gt;Node489 -->
<g id="edge31" class="edge"><title>Node491&#45;&gt;Node489</title>
<path fill="none" stroke="midnightblue" d="M333.389,-369.311C350.263,-387.902 380.846,-419.33 412,-440 414.75,-441.825 417.656,-443.574 420.638,-445.24"/>
<polygon fill="midnightblue" stroke="midnightblue" points="419.253,-448.465 429.74,-449.976 422.485,-442.255 419.253,-448.465"/>
</g>
<!-- Node491&#45;&gt;Node490 -->
<g id="edge32" class="edge"><title>Node491&#45;&gt;Node490</title>
<path fill="none" stroke="midnightblue" d="M350.94,-338.982C359.293,-334.513 368.179,-329.366 376,-324 393.41,-312.054 394.087,-304.178 412,-293 414.44,-291.478 416.993,-290.008 419.608,-288.597"/>
<polygon fill="midnightblue" stroke="midnightblue" points="421.307,-291.66 428.661,-284.034 418.156,-285.409 421.307,-291.66"/>
</g>
<!-- Node492 -->
<g id="node27" class="node"><title>Node492</title>
<g id="a_node27"><a xlink:href="namespacemom__ice__shelf.html#a0fa0e5e0225816e5e5e87994371f11f1" target="_top" xlink:title=" ">
<polygon fill="white" stroke="black" points="421,-303 421,-333 517,-333 517,-303 421,-303"/>
<text text-anchor="start" x="429" y="-321" font-family="Helvetica,sans-Serif" font-size="10.00">mom_ice_shelf::matrix</text>
<text text-anchor="middle" x="469" y="-310" font-family="Helvetica,sans-Serif" font-size="10.00">_diagonal_bilinear</text>
</a>
</g>
</g>
<!-- Node491&#45;&gt;Node492 -->
<g id="edge33" class="edge"><title>Node491&#45;&gt;Node492</title>
<path fill="none" stroke="midnightblue" d="M361.226,-343.972C376.596,-340.233 394.331,-335.92 410.876,-331.895"/>
<polygon fill="midnightblue" stroke="midnightblue" points="412.103,-335.199 420.992,-329.434 410.448,-328.397 412.103,-335.199"/>
</g>
<!-- Node494 -->
<g id="node29" class="node"><title>Node494</title>
<g id="a_node29"><a xlink:href="namespacemom__ice__shelf.html#abc77d7c18a2919c9308c39aa26f916bf" target="_top" xlink:title=" ">
<polygon fill="white" stroke="black" points="421,-352 421,-382 517,-382 517,-352 421,-352"/>
<text text-anchor="start" x="429" y="-370" font-family="Helvetica,sans-Serif" font-size="10.00">mom_ice_shelf::matrix</text>
<text text-anchor="middle" x="469" y="-359" font-family="Helvetica,sans-Serif" font-size="10.00">_diagonal_triangle</text>
</a>
</g>
</g>
<!-- Node491&#45;&gt;Node494 -->
<g id="edge36" class="edge"><title>Node491&#45;&gt;Node494</title>
<path fill="none" stroke="midnightblue" d="M361.226,-357.621C376.596,-358.971 394.331,-360.529 410.876,-361.982"/>
<polygon fill="midnightblue" stroke="midnightblue" points="410.724,-365.482 420.992,-362.871 411.337,-358.509 410.724,-365.482"/>
</g>
<!-- Node492&#45;&gt;Node480 -->
<g id="edge34" class="edge"><title>Node492&#45;&gt;Node480</title>
<path fill="none" stroke="midnightblue" d="M517.049,-325.528C530.941,-327.751 546.326,-330.212 560.876,-332.54"/>
<polygon fill="midnightblue" stroke="midnightblue" points="560.359,-336.002 570.786,-334.126 561.465,-329.09 560.359,-336.002"/>
</g>
<!-- Node493 -->
<g id="node28" class="node"><title>Node493</title>
<g id="a_node28"><a xlink:href="namespacemom__ice__shelf.html#af109d5577049ff4ded3b07d5ab25a771" target="_top" xlink:title=" ">
<polygon fill="white" stroke="black" points="562.5,-278 562.5,-308 679.5,-308 679.5,-278 562.5,-278"/>
<text text-anchor="start" x="570.5" y="-296" font-family="Helvetica,sans-Serif" font-size="10.00">mom_ice_shelf::cg_diagonal</text>
<text text-anchor="middle" x="621" y="-285" font-family="Helvetica,sans-Serif" font-size="10.00">_subgrid_basal_bilinear</text>
</a>
</g>
</g>
<!-- Node492&#45;&gt;Node493 -->
<g id="edge35" class="edge"><title>Node492&#45;&gt;Node493</title>
<path fill="none" stroke="midnightblue" d="M517.049,-310.158C528.259,-308.29 540.441,-306.26 552.371,-304.271"/>
<polygon fill="midnightblue" stroke="midnightblue" points="553.018,-307.712 562.307,-302.616 551.868,-300.807 553.018,-307.712"/>
</g>
<!-- Node497 -->
<g id="node32" class="node"><title>Node497</title>
<g id="a_node32"><a xlink:href="namespacemom__ice__shelf.html#a0ffb4a930ade24b82233f6da5b525ca9" target="_top" xlink:title=" ">
<polygon fill="white" stroke="black" points="271,-727 271,-757 367,-757 367,-727 271,-727"/>
<text text-anchor="start" x="279" y="-745" font-family="Helvetica,sans-Serif" font-size="10.00">mom_ice_shelf::ice</text>
<text text-anchor="middle" x="319" y="-734" font-family="Helvetica,sans-Serif" font-size="10.00">_shelf_advect_temp_x</text>
</a>
</g>
</g>
<!-- Node496&#45;&gt;Node497 -->
<g id="edge41" class="edge"><title>Node496&#45;&gt;Node497</title>
<path fill="none" stroke="midnightblue" d="M218.162,-742C231.44,-742 246.408,-742 260.636,-742"/>
<polygon fill="midnightblue" stroke="midnightblue" points="260.831,-745.5 270.831,-742 260.831,-738.5 260.831,-745.5"/>
</g>
<!-- Node498 -->
<g id="node33" class="node"><title>Node498</title>
<g id="a_node33"><a xlink:href="namespacemom__ice__shelf.html#a15c9ad8686b798642fc092a3f4ee2e07" target="_top" xlink:title=" ">
<polygon fill="white" stroke="black" points="271,-776 271,-806 367,-806 367,-776 271,-776"/>
<text text-anchor="start" x="279" y="-794" font-family="Helvetica,sans-Serif" font-size="10.00">mom_ice_shelf::ice</text>
<text text-anchor="middle" x="319" y="-783" font-family="Helvetica,sans-Serif" font-size="10.00">_shelf_advect_temp_y</text>
</a>
</g>
</g>
<!-- Node496&#45;&gt;Node498 -->
<g id="edge43" class="edge"><title>Node496&#45;&gt;Node498</title>
<path fill="none" stroke="midnightblue" d="M218.162,-756.305C232.837,-761.404 249.575,-767.221 265.098,-772.616"/>
<polygon fill="midnightblue" stroke="midnightblue" points="263.982,-775.933 274.576,-775.91 266.279,-769.321 263.982,-775.933"/>
</g>
<!-- Node497&#45;&gt;Node472 -->
<g id="edge42" class="edge"><title>Node497&#45;&gt;Node472</title>
<path fill="none" stroke="midnightblue" d="M362.063,-757.104C366.988,-759.704 371.761,-762.664 376,-766 411.054,-793.587 439.579,-837.638 455.14,-864.859"/>
<polygon fill="midnightblue" stroke="midnightblue" points="452.162,-866.706 460.093,-873.731 458.274,-863.294 452.162,-866.706"/>
</g>
<!-- Node498&#45;&gt;Node472 -->
<g id="edge44" class="edge"><title>Node498&#45;&gt;Node472</title>
<path fill="none" stroke="midnightblue" d="M358.945,-806.052C364.793,-808.778 370.651,-811.785 376,-815 400.987,-830.016 426.605,-851.187 444.441,-867.039"/>
<polygon fill="midnightblue" stroke="midnightblue" points="442.288,-869.81 452.058,-873.907 446.975,-864.611 442.288,-869.81"/>
</g>
<!-- Node499&#45;&gt;Node476 -->
<g id="edge47" class="edge"><title>Node499&#45;&gt;Node476</title>
<path fill="none" stroke="midnightblue" d="M222.789,-657.934C274.064,-662.339 357.172,-669.479 412.204,-674.207"/>
<polygon fill="midnightblue" stroke="midnightblue" points="412.215,-677.72 422.478,-675.089 412.814,-670.746 412.215,-677.72"/>
</g>
</g>
</svg>
        <g id="navigator" transform="translate(0 0)" fill="#404254">
                <rect fill="#f2f5e9" fill-opacity="0.5" stroke="#606060" stroke-width=".5" x="0" y="0" width="60" height="60"/>
                <use id="zoomplus" xlink:href="#zoomPlus" x="17" y="9" onmousedown="handleZoom(evt,'in')"/>
                <use id="zoomminus" xlink:href="#zoomMin" x="42" y="9" onmousedown="handleZoom(evt,'out')"/>
                <use id="reset" xlink:href="#resetDef" x="30" y="36" onmousedown="handleReset()"/>
                <g id="arrowUp" xlink:href="#dirArrow" transform="translate(30 24)" onmousedown="handlePan(0,-1)">
                  <use xlink:href="#rim" fill="#404040">
                        <set attributeName="fill" to="#808080" begin="arrowUp.mouseover" end="arrowUp.mouseout"/>
                  </use>
                  <path fill="none" stroke="white" stroke-width="1.5" d="M0,-3.0v7 M-2.5,-0.5L0,-3.0L2.5,-0.5"/>
                </g>
                <g id="arrowRight" xlink:href="#dirArrow" transform="rotate(90) translate(36 -43)" onmousedown="handlePan(1,0)">
                  <use xlink:href="#rim" fill="#404040">
                        <set attributeName="fill" to="#808080" begin="arrowRight.mouseover" end="arrowRight.mouseout"/>
                  </use>
                  <path fill="none" stroke="white" stroke-width="1.5" d="M0,-3.0v7 M-2.5,-0.5L0,-3.0L2.5,-0.5"/>
                </g>
                <g id="arrowDown" xlink:href="#dirArrow" transform="rotate(180) translate(-30 -48)" onmousedown="handlePan(0,1)">
                  <use xlink:href="#rim" fill="#404040">
                        <set attributeName="fill" to="#808080" begin="arrowDown.mouseover" end="arrowDown.mouseout"/>
                  </use>
                  <path fill="none" stroke="white" stroke-width="1.5" d="M0,-3.0v7 M-2.5,-0.5L0,-3.0L2.5,-0.5"/>
                </g>
                <g id="arrowLeft" xlink:href="#dirArrow" transform="rotate(270) translate(-36 17)" onmousedown="handlePan(-1,0)">
                  <use xlink:href="#rim" fill="#404040">
                        <set attributeName="fill" to="#808080" begin="arrowLeft.mouseover" end="arrowLeft.mouseout"/>
                  </use>
                  <path fill="none" stroke="white" stroke-width="1.5" d="M0,-3.0v7 M-2.5,-0.5L0,-3.0L2.5,-0.5"/>
                </g>
        </g>
        <svg viewBox="0 0 15 15" width="100%" height="30px" preserveAspectRatio="xMaxYMin meet">
         <g id="arrow_out" transform="scale(0.3 0.3)">
          <a xlink:href="namespacemom__ice__shelf_ac084bdc5be4e708e3263488e9574a3c9_cgraph_org.svg" target="_base">
           <rect id="button" ry="5" rx="5" y="6" x="6" height="38" width="38"
                fill="#f2f5e9" fill-opacity="0.5" stroke="#606060" stroke-width="1.0"/>
           <path id="arrow"
             d="M 11.500037,31.436501 C 11.940474,20.09759 22.043105,11.32322 32.158766,21.979434 L 37.068811,17.246167 C 37.068811,17.246167 37.088388,32 37.088388,32 L 22.160133,31.978069 C 22.160133,31.978069 26.997745,27.140456 26.997745,27.140456 C 18.528582,18.264221 13.291696,25.230495 11.500037,31.436501 z"
             style="fill:#404040;"/>
          </a>
         </g>
        </svg>
</svg>
