<?xml version="1.0" encoding="UTF-8" standalone="no"?>
<!DOCTYPE svg PUBLIC "-//W3C//DTD SVG 1.1//EN"
 "http://www.w3.org/Graphics/SVG/1.1/DTD/svg11.dtd">
<!-- Generated by graphviz version 2.30.1 (20170916.1124)
 -->
<!-- Title: mom_file_parser::simplifywhitespace Pages: 1 -->
<svg width="414pt" height="38pt"
 viewBox="0.00 0.00 414.00 38.00" xmlns="http://www.w3.org/2000/svg" xmlns:xlink="http://www.w3.org/1999/xlink">
<g id="graph0" class="graph" transform="scale(1 1) rotate(0) translate(4 34)">
<title>mom_file_parser::simplifywhitespace</title>
<polygon fill="white" stroke="white" points="-4,5 -4,-34 411,-34 411,5 -4,5"/>
<!-- Node446 -->
<g id="node1" class="node"><title>Node446</title>
<g id="a_node1"><a xlink:title=" ">
<polygon fill="#bfbfbf" stroke="black" points="0,-5.5 0,-24.5 146,-24.5 146,-5.5 0,-5.5"/>
<text text-anchor="middle" x="73" y="-12.5" font-family="Helvetica,sans-Serif" font-size="10.00">mom_file_parser::simplifywhitespace</text>
</a>
</g>
</g>
<!-- Node447 -->
<g id="node2" class="node"><title>Node447</title>
<g id="a_node2"><a xlink:href="namespacemom__error__handler.html#a460cfb79a06c29fc249952c2a3710d67" target="_top" xlink:title=" ">
<polygon fill="white" stroke="black" points="182.5,-0 182.5,-30 275.5,-30 275.5,-0 182.5,-0"/>
<text text-anchor="start" x="190.5" y="-18" font-family="Helvetica,sans-Serif" font-size="10.00">mom_error_handler::</text>
<text text-anchor="middle" x="229" y="-7" font-family="Helvetica,sans-Serif" font-size="10.00">mom_error</text>
</a>
</g>
</g>
<!-- Node446&#45;&gt;Node447 -->
<g id="edge1" class="edge"><title>Node446&#45;&gt;Node447</title>
<path fill="none" stroke="midnightblue" d="M146.04,-15C154.833,-15 163.713,-15 172.218,-15"/>
<polygon fill="midnightblue" stroke="midnightblue" points="172.376,-18.5001 182.376,-15 172.376,-11.5001 172.376,-18.5001"/>
</g>
<!-- Node448 -->
<g id="node3" class="node"><title>Node448</title>
<g id="a_node3"><a xlink:href="namespacemom__error__handler.html#ad5f00a53059c72fe2332d1436c80ca71" target="_top" xlink:title=" ">
<polygon fill="white" stroke="black" points="312.5,-0 312.5,-30 405.5,-30 405.5,-0 312.5,-0"/>
<text text-anchor="start" x="320.5" y="-18" font-family="Helvetica,sans-Serif" font-size="10.00">mom_error_handler::</text>
<text text-anchor="middle" x="359" y="-7" font-family="Helvetica,sans-Serif" font-size="10.00">is_root_pe</text>
</a>
</g>
</g>
<!-- Node447&#45;&gt;Node448 -->
<g id="edge2" class="edge"><title>Node447&#45;&gt;Node448</title>
<path fill="none" stroke="midnightblue" d="M275.849,-15C284.408,-15 293.439,-15 302.258,-15"/>
<polygon fill="midnightblue" stroke="midnightblue" points="302.471,-18.5001 312.471,-15 302.471,-11.5001 302.471,-18.5001"/>
</g>
</g>
</svg>
