<?xml version="1.0" encoding="UTF-8" standalone="no"?>
<!DOCTYPE svg PUBLIC "-//W3C//DTD SVG 1.1//EN"
 "http://www.w3.org/Graphics/SVG/1.1/DTD/svg11.dtd">
<!-- Generated by graphviz version 2.30.1 (20170916.1124)
 -->
<!-- Title: mom_state_initialization::initialize_thickness_from_file Pages: 1 -->
<svg width="382pt" height="136pt"
 viewBox="0.00 0.00 382.00 136.00" xmlns="http://www.w3.org/2000/svg" xmlns:xlink="http://www.w3.org/1999/xlink">
<g id="graph0" class="graph" transform="scale(1 1) rotate(0) translate(4 132)">
<title>mom_state_initialization::initialize_thickness_from_file</title>
<polygon fill="white" stroke="white" points="-4,5 -4,-132 379,-132 379,5 -4,5"/>
<!-- Node90 -->
<g id="node1" class="node"><title>Node90</title>
<g id="a_node1"><a xlink:title=" ">
<polygon fill="#bfbfbf" stroke="black" points="0.5,-43.5 0.5,-84.5 101.5,-84.5 101.5,-43.5 0.5,-43.5"/>
<text text-anchor="start" x="8.5" y="-72.5" font-family="Helvetica,sans-Serif" font-size="10.00">mom_state_initialization</text>
<text text-anchor="start" x="8.5" y="-61.5" font-family="Helvetica,sans-Serif" font-size="10.00">::initialize_thickness</text>
<text text-anchor="middle" x="51" y="-50.5" font-family="Helvetica,sans-Serif" font-size="10.00">_from_file</text>
</a>
</g>
</g>
<!-- Node91 -->
<g id="node2" class="node"><title>Node91</title>
<g id="a_node2"><a xlink:href="namespacemom__state__initialization.html#a7252819826e260c3937db9cf983dcf82" target="_top" xlink:title="Adjust interface heights to fit the bathymetry and diagnose layer thickness. If the bottom most inter...">
<polygon fill="white" stroke="black" points="138,-98 138,-128 244,-128 244,-98 138,-98"/>
<text text-anchor="start" x="146" y="-116" font-family="Helvetica,sans-Serif" font-size="10.00">mom_state_initialization</text>
<text text-anchor="middle" x="191" y="-105" font-family="Helvetica,sans-Serif" font-size="10.00">::adjustetatofitbathymetry</text>
</a>
</g>
</g>
<!-- Node90&#45;&gt;Node91 -->
<g id="edge1" class="edge"><title>Node90&#45;&gt;Node91</title>
<path fill="none" stroke="midnightblue" d="M101.821,-81.6901C113.522,-85.8449 126.023,-90.2835 137.824,-94.4738"/>
<polygon fill="midnightblue" stroke="midnightblue" points="136.945,-97.8758 147.54,-97.9236 139.288,-91.2793 136.945,-97.8758"/>
</g>
<!-- Node92 -->
<g id="node3" class="node"><title>Node92</title>
<g id="a_node3"><a xlink:href="namespacemom__error__handler.html#a9cda07a87815f0e5594066162b4345c3" target="_top" xlink:title="Writes a message about entering a subroutine if call tree reporting is active.">
<polygon fill="white" stroke="black" points="144.5,-49 144.5,-79 237.5,-79 237.5,-49 144.5,-49"/>
<text text-anchor="start" x="152.5" y="-67" font-family="Helvetica,sans-Serif" font-size="10.00">mom_error_handler::</text>
<text text-anchor="middle" x="191" y="-56" font-family="Helvetica,sans-Serif" font-size="10.00">calltree_enter</text>
</a>
</g>
</g>
<!-- Node90&#45;&gt;Node92 -->
<g id="edge2" class="edge"><title>Node90&#45;&gt;Node92</title>
<path fill="none" stroke="midnightblue" d="M101.821,-64C112.352,-64 123.531,-64 134.264,-64"/>
<polygon fill="midnightblue" stroke="midnightblue" points="134.383,-67.5001 144.383,-64 134.383,-60.5001 134.383,-67.5001"/>
</g>
<!-- Node94 -->
<g id="node5" class="node"><title>Node94</title>
<g id="a_node5"><a xlink:href="namespacemom__error__handler.html#a88ea67781e2ed9b73ab7eac8ea5e8578" target="_top" xlink:title="Writes a message about leaving a subroutine if call tree reporting is active.">
<polygon fill="white" stroke="black" points="144.5,-0 144.5,-30 237.5,-30 237.5,-0 144.5,-0"/>
<text text-anchor="start" x="152.5" y="-18" font-family="Helvetica,sans-Serif" font-size="10.00">mom_error_handler::</text>
<text text-anchor="middle" x="191" y="-7" font-family="Helvetica,sans-Serif" font-size="10.00">calltree_leave</text>
</a>
</g>
</g>
<!-- Node90&#45;&gt;Node94 -->
<g id="edge4" class="edge"><title>Node90&#45;&gt;Node94</title>
<path fill="none" stroke="midnightblue" d="M101.821,-46.3099C113.522,-42.1551 126.023,-37.7165 137.824,-33.5262"/>
<polygon fill="midnightblue" stroke="midnightblue" points="139.288,-36.7207 147.54,-30.0764 136.945,-30.1242 139.288,-36.7207"/>
</g>
<!-- Node93 -->
<g id="node4" class="node"><title>Node93</title>
<g id="a_node4"><a xlink:href="namespacemom__error__handler.html#ad5f00a53059c72fe2332d1436c80ca71" target="_top" xlink:title=" ">
<polygon fill="white" stroke="black" points="280.5,-24 280.5,-54 373.5,-54 373.5,-24 280.5,-24"/>
<text text-anchor="start" x="288.5" y="-42" font-family="Helvetica,sans-Serif" font-size="10.00">mom_error_handler::</text>
<text text-anchor="middle" x="327" y="-31" font-family="Helvetica,sans-Serif" font-size="10.00">is_root_pe</text>
</a>
</g>
</g>
<!-- Node92&#45;&gt;Node93 -->
<g id="edge3" class="edge"><title>Node92&#45;&gt;Node93</title>
<path fill="none" stroke="midnightblue" d="M237.74,-55.4663C248.305,-53.4953 259.657,-51.3775 270.584,-49.3388"/>
<polygon fill="midnightblue" stroke="midnightblue" points="271.277,-52.7699 280.466,-47.4952 269.993,-45.8887 271.277,-52.7699"/>
</g>
<!-- Node94&#45;&gt;Node93 -->
<g id="edge5" class="edge"><title>Node94&#45;&gt;Node93</title>
<path fill="none" stroke="midnightblue" d="M237.74,-23.1923C248.305,-25.0845 259.657,-27.1176 270.584,-29.0748"/>
<polygon fill="midnightblue" stroke="midnightblue" points="270.005,-32.5267 280.466,-30.8446 271.239,-25.6364 270.005,-32.5267"/>
</g>
</g>
</svg>
