<?xml version="1.0" encoding="UTF-8" standalone="no"?>
<!DOCTYPE svg PUBLIC "-//W3C//DTD SVG 1.1//EN"
 "http://www.w3.org/Graphics/SVG/1.1/DTD/svg11.dtd">
<!-- Generated by graphviz version 2.30.1 (20170916.1124)
 -->
<!-- Title: mom_set_visc::set_viscous_bbl Pages: 1 -->
<svg width="542pt" height="153pt"
 viewBox="0.00 0.00 542.00 153.00" xmlns="http://www.w3.org/2000/svg" xmlns:xlink="http://www.w3.org/1999/xlink">
<g id="graph0" class="graph" transform="scale(1 1) rotate(0) translate(4 149)">
<title>mom_set_visc::set_viscous_bbl</title>
<polygon fill="white" stroke="white" points="-4,5 -4,-149 539,-149 539,5 -4,5"/>
<!-- Node34 -->
<g id="node1" class="node"><title>Node34</title>
<g id="a_node1"><a xlink:title=" ">
<polygon fill="#bfbfbf" stroke="black" points="0.5,-57.5 0.5,-76.5 127.5,-76.5 127.5,-57.5 0.5,-57.5"/>
<text text-anchor="middle" x="64" y="-64.5" font-family="Helvetica,sans-Serif" font-size="10.00">mom_set_visc::set_viscous_bbl</text>
</a>
</g>
</g>
<!-- Node35 -->
<g id="node2" class="node"><title>Node35</title>
<g id="a_node2"><a xlink:href="namespacemom__eos.html#a204529f8434a0322314e6ce2a9762436" target="_top" xlink:title="Calls the appropriate subroutine to calculate density derivatives for 1&#45;D array inputs.">
<polygon fill="white" stroke="black" points="175.5,-115 175.5,-145 262.5,-145 262.5,-115 175.5,-115"/>
<text text-anchor="start" x="183.5" y="-133" font-family="Helvetica,sans-Serif" font-size="10.00">mom_eos::calculate</text>
<text text-anchor="middle" x="219" y="-122" font-family="Helvetica,sans-Serif" font-size="10.00">_density_derivs</text>
</a>
</g>
</g>
<!-- Node34&#45;&gt;Node35 -->
<g id="edge1" class="edge"><title>Node34&#45;&gt;Node35</title>
<path fill="none" stroke="midnightblue" d="M88.2374,-76.5683C110.372,-85.6826 144.317,-99.66 171.937,-111.033"/>
<polygon fill="midnightblue" stroke="midnightblue" points="170.834,-114.364 181.413,-114.935 173.499,-107.891 170.834,-114.364"/>
</g>
<!-- Node36 -->
<g id="node3" class="node"><title>Node36</title>
<g id="a_node3"><a xlink:href="namespacemom__error__handler.html#a460cfb79a06c29fc249952c2a3710d67" target="_top" xlink:title=" ">
<polygon fill="white" stroke="black" points="310.5,-93 310.5,-123 403.5,-123 403.5,-93 310.5,-93"/>
<text text-anchor="start" x="318.5" y="-111" font-family="Helvetica,sans-Serif" font-size="10.00">mom_error_handler::</text>
<text text-anchor="middle" x="357" y="-100" font-family="Helvetica,sans-Serif" font-size="10.00">mom_error</text>
</a>
</g>
</g>
<!-- Node34&#45;&gt;Node36 -->
<g id="edge4" class="edge"><title>Node34&#45;&gt;Node36</title>
<path fill="none" stroke="midnightblue" d="M127.784,-75.8459C179.104,-83.0765 250.982,-93.2036 300.282,-100.15"/>
<polygon fill="midnightblue" stroke="midnightblue" points="300.054,-103.652 310.444,-101.582 301.031,-96.7205 300.054,-103.652"/>
</g>
<!-- Node38 -->
<g id="node5" class="node"><title>Node38</title>
<g id="a_node5"><a xlink:href="namespacemom__set__visc.html#a08eb74fc6d027dd5ac6701f90e009370" target="_top" xlink:title=" ">
<polygon fill="white" stroke="black" points="164,-38.5 164,-57.5 274,-57.5 274,-38.5 164,-38.5"/>
<text text-anchor="middle" x="219" y="-45.5" font-family="Helvetica,sans-Serif" font-size="10.00">mom_set_visc::set_u_at_v</text>
</a>
</g>
</g>
<!-- Node34&#45;&gt;Node38 -->
<g id="edge5" class="edge"><title>Node34&#45;&gt;Node38</title>
<path fill="none" stroke="midnightblue" d="M127.672,-59.2172C136.332,-58.1417 145.237,-57.0359 153.922,-55.9574"/>
<polygon fill="midnightblue" stroke="midnightblue" points="154.497,-59.413 163.989,-54.7073 153.634,-52.4664 154.497,-59.413"/>
</g>
<!-- Node39 -->
<g id="node6" class="node"><title>Node39</title>
<g id="a_node6"><a xlink:href="namespacemom__set__visc.html#a992756b5043feccdafd9580774373375" target="_top" xlink:title=" ">
<polygon fill="white" stroke="black" points="164,-0.5 164,-19.5 274,-19.5 274,-0.5 164,-0.5"/>
<text text-anchor="middle" x="219" y="-7.5" font-family="Helvetica,sans-Serif" font-size="10.00">mom_set_visc::set_v_at_u</text>
</a>
</g>
</g>
<!-- Node34&#45;&gt;Node39 -->
<g id="edge6" class="edge"><title>Node34&#45;&gt;Node39</title>
<path fill="none" stroke="midnightblue" d="M89.3388,-57.4383C109.335,-49.6358 138.427,-38.4046 164,-29 169.497,-26.9782 175.326,-24.8803 181.041,-22.8485"/>
<polygon fill="midnightblue" stroke="midnightblue" points="182.212,-26.1471 190.475,-19.5166 179.88,-19.5467 182.212,-26.1471"/>
</g>
<!-- Node35&#45;&gt;Node36 -->
<g id="edge2" class="edge"><title>Node35&#45;&gt;Node36</title>
<path fill="none" stroke="midnightblue" d="M262.658,-123.099C274.583,-121.17 287.721,-119.045 300.281,-117.013"/>
<polygon fill="midnightblue" stroke="midnightblue" points="300.882,-120.462 310.195,-115.41 299.764,-113.552 300.882,-120.462"/>
</g>
<!-- Node37 -->
<g id="node4" class="node"><title>Node37</title>
<g id="a_node4"><a xlink:href="namespacemom__error__handler.html#ad5f00a53059c72fe2332d1436c80ca71" target="_top" xlink:title=" ">
<polygon fill="white" stroke="black" points="440.5,-93 440.5,-123 533.5,-123 533.5,-93 440.5,-93"/>
<text text-anchor="start" x="448.5" y="-111" font-family="Helvetica,sans-Serif" font-size="10.00">mom_error_handler::</text>
<text text-anchor="middle" x="487" y="-100" font-family="Helvetica,sans-Serif" font-size="10.00">is_root_pe</text>
</a>
</g>
</g>
<!-- Node36&#45;&gt;Node37 -->
<g id="edge3" class="edge"><title>Node36&#45;&gt;Node37</title>
<path fill="none" stroke="midnightblue" d="M403.849,-108C412.408,-108 421.439,-108 430.258,-108"/>
<polygon fill="midnightblue" stroke="midnightblue" points="430.471,-111.5 440.471,-108 430.471,-104.5 430.471,-111.5"/>
</g>
</g>
</svg>
