<?xml version="1.0" encoding="UTF-8" standalone="no"?>
<!DOCTYPE svg PUBLIC "-//W3C//DTD SVG 1.1//EN"
 "http://www.w3.org/Graphics/SVG/1.1/DTD/svg11.dtd">
<!-- Generated by graphviz version 2.30.1 (20170916.1124)
 -->
<!-- Title: user_change_diffusivity::range_ok Pages: 1 -->
<svg width="244pt" height="87pt"
 viewBox="0.00 0.00 244.00 87.00" xmlns="http://www.w3.org/2000/svg" xmlns:xlink="http://www.w3.org/1999/xlink">
<g id="graph0" class="graph" transform="scale(1 1) rotate(0) translate(4 83)">
<title>user_change_diffusivity::range_ok</title>
<polygon fill="white" stroke="white" points="-4,5 -4,-83 241,-83 241,5 -4,5"/>
<!-- Node1 -->
<g id="node1" class="node"><title>Node1</title>
<g id="a_node1"><a xlink:title="This subroutine checks whether the 4 values of range are in ascending order.">
<polygon fill="#bfbfbf" stroke="black" points="136.5,-24 136.5,-54 235.5,-54 235.5,-24 136.5,-24"/>
<text text-anchor="start" x="144.5" y="-42" font-family="Helvetica,sans-Serif" font-size="10.00">user_change_diffusivity</text>
<text text-anchor="middle" x="186" y="-31" font-family="Helvetica,sans-Serif" font-size="10.00">::range_ok</text>
</a>
</g>
</g>
<!-- Node2 -->
<g id="node2" class="node"><title>Node2</title>
<g id="a_node2"><a xlink:href="namespaceuser__change__diffusivity.html#a7d5cd29c189d0f490791b2a01941168b" target="_top" xlink:title="This subroutine provides an interface for a user to use to modify the main code to alter the diffusiv...">
<polygon fill="white" stroke="black" points="0.5,-49 0.5,-79 99.5,-79 99.5,-49 0.5,-49"/>
<text text-anchor="start" x="8.5" y="-67" font-family="Helvetica,sans-Serif" font-size="10.00">user_change_diffusivity</text>
<text text-anchor="middle" x="50" y="-56" font-family="Helvetica,sans-Serif" font-size="10.00">::user_change_diff</text>
</a>
</g>
</g>
<!-- Node1&#45;&gt;Node2 -->
<g id="edge1" class="edge"><title>Node1&#45;&gt;Node2</title>
<path fill="none" stroke="midnightblue" d="M126.394,-49.9339C117.566,-51.5809 108.541,-53.2647 99.9444,-54.8686"/>
<polygon fill="midnightblue" stroke="midnightblue" points="127.055,-53.371 136.244,-48.0963 125.772,-46.4898 127.055,-53.371"/>
</g>
<!-- Node3 -->
<g id="node3" class="node"><title>Node3</title>
<g id="a_node3"><a xlink:href="namespaceuser__change__diffusivity.html#a200e86b577a450d45571633e90091866" target="_top" xlink:title="Set up the module control structure.">
<polygon fill="white" stroke="black" points="0.5,-0 0.5,-30 99.5,-30 99.5,-0 0.5,-0"/>
<text text-anchor="start" x="8.5" y="-18" font-family="Helvetica,sans-Serif" font-size="10.00">user_change_diffusivity</text>
<text text-anchor="middle" x="50" y="-7" font-family="Helvetica,sans-Serif" font-size="10.00">::user_change_diff_init</text>
</a>
</g>
</g>
<!-- Node1&#45;&gt;Node3 -->
<g id="edge2" class="edge"><title>Node1&#45;&gt;Node3</title>
<path fill="none" stroke="midnightblue" d="M126.394,-28.5035C117.566,-26.9224 108.541,-25.3059 99.9444,-23.7662"/>
<polygon fill="midnightblue" stroke="midnightblue" points="125.783,-31.9497 136.244,-30.2676 127.018,-25.0593 125.783,-31.9497"/>
</g>
</g>
</svg>
