<?xml version="1.0" encoding="UTF-8" standalone="no"?>
<!DOCTYPE svg PUBLIC "-//W3C//DTD SVG 1.1//EN"
 "http://www.w3.org/Graphics/SVG/1.1/DTD/svg11.dtd">
<!-- Generated by graphviz version 2.30.1 (20170916.1124)
 -->
<!-- Title: mom_file_parser::openparameterblock Pages: 1 -->
<svg width="848pt" height="132pt"
 viewBox="0.00 0.00 848.00 132.00" xmlns="http://www.w3.org/2000/svg" xmlns:xlink="http://www.w3.org/1999/xlink">
<g id="graph0" class="graph" transform="scale(1 1) rotate(0) translate(4 128)">
<title>mom_file_parser::openparameterblock</title>
<polygon fill="white" stroke="white" points="-4,5 -4,-128 845,-128 845,5 -4,5"/>
<!-- Node245 -->
<g id="node1" class="node"><title>Node245</title>
<g id="a_node1"><a xlink:title=" ">
<polygon fill="#bfbfbf" stroke="black" points="684.5,-44.5 684.5,-63.5 839.5,-63.5 839.5,-44.5 684.5,-44.5"/>
<text text-anchor="middle" x="762" y="-51.5" font-family="Helvetica,sans-Serif" font-size="10.00">mom_file_parser::openparameterblock</text>
</a>
</g>
</g>
<!-- Node246 -->
<g id="node2" class="node"><title>Node246</title>
<g id="a_node2"><a xlink:href="namespacebaroclinic__zone__initialization.html#a72863008aadad2118278f5e0978fd99b" target="_top" xlink:title="Reads the parameters unique to this module.">
<polygon fill="white" stroke="black" points="532,-88 532,-118 648,-118 648,-88 532,-88"/>
<text text-anchor="start" x="540" y="-106" font-family="Helvetica,sans-Serif" font-size="10.00">baroclinic_zone_initialization</text>
<text text-anchor="middle" x="590" y="-95" font-family="Helvetica,sans-Serif" font-size="10.00">::bcz_params</text>
</a>
</g>
</g>
<!-- Node245&#45;&gt;Node246 -->
<g id="edge1" class="edge"><title>Node245&#45;&gt;Node246</title>
<path fill="none" stroke="midnightblue" d="M718.099,-66.3657C695.337,-72.9265 667.187,-81.0403 643.169,-87.963"/>
<polygon fill="midnightblue" stroke="midnightblue" points="719.179,-69.6968 727.819,-63.564 717.241,-62.9706 719.179,-69.6968"/>
</g>
<!-- Node251 -->
<g id="node7" class="node"><title>Node251</title>
<g id="a_node7"><a xlink:href="namespacemom__diffconvection.html#ac36d9d7fd69e4422e7de01242094ff34" target="_top" xlink:title=" ">
<polygon fill="white" stroke="black" points="546.5,-39 546.5,-69 633.5,-69 633.5,-39 546.5,-39"/>
<text text-anchor="start" x="554.5" y="-57" font-family="Helvetica,sans-Serif" font-size="10.00">mom_diffconvection</text>
<text text-anchor="middle" x="590" y="-46" font-family="Helvetica,sans-Serif" font-size="10.00">::diffconvection_init</text>
</a>
</g>
</g>
<!-- Node245&#45;&gt;Node251 -->
<g id="edge6" class="edge"><title>Node245&#45;&gt;Node251</title>
<path fill="none" stroke="midnightblue" d="M674.197,-54C660.096,-54 646.062,-54 633.646,-54"/>
<polygon fill="midnightblue" stroke="midnightblue" points="674.454,-57.5001 684.454,-54 674.454,-50.5001 674.454,-57.5001"/>
</g>
<!-- Node252 -->
<g id="node8" class="node"><title>Node252</title>
<g id="a_node8"><a xlink:href="namespacemom__kpp.html#a9c834424b6e067e280928db3700ec77e" target="_top" xlink:title="Initialize the CVmix KPP module and set up diagnostics Returns True if KPP is to be used,...">
<polygon fill="white" stroke="black" points="548.5,-0.5 548.5,-19.5 631.5,-19.5 631.5,-0.5 548.5,-0.5"/>
<text text-anchor="middle" x="590" y="-7.5" font-family="Helvetica,sans-Serif" font-size="10.00">mom_kpp::kpp_init</text>
</a>
</g>
</g>
<!-- Node245&#45;&gt;Node252 -->
<g id="edge7" class="edge"><title>Node245&#45;&gt;Node252</title>
<path fill="none" stroke="midnightblue" d="M714.398,-41.9383C687.133,-34.8815 653.195,-26.0976 627.815,-19.5287"/>
<polygon fill="midnightblue" stroke="midnightblue" points="713.555,-45.3353 724.113,-44.4527 715.309,-38.5586 713.555,-45.3353"/>
</g>
<!-- Node247 -->
<g id="node3" class="node"><title>Node247</title>
<g id="a_node3"><a xlink:href="namespacebaroclinic__zone__initialization.html#a2f99c7b0ea7981ef7b2c342fbc8c00c1" target="_top" xlink:title="Initialization of temperature and salinity with the baroclinic zone initial conditions.">
<polygon fill="white" stroke="black" points="356.5,-82.5 356.5,-123.5 495.5,-123.5 495.5,-82.5 356.5,-82.5"/>
<text text-anchor="start" x="364.5" y="-111.5" font-family="Helvetica,sans-Serif" font-size="10.00">baroclinic_zone_initialization</text>
<text text-anchor="start" x="364.5" y="-100.5" font-family="Helvetica,sans-Serif" font-size="10.00">::baroclinic_zone_init_temperature</text>
<text text-anchor="middle" x="426" y="-89.5" font-family="Helvetica,sans-Serif" font-size="10.00">_salinity</text>
</a>
</g>
</g>
<!-- Node246&#45;&gt;Node247 -->
<g id="edge2" class="edge"><title>Node246&#45;&gt;Node247</title>
<path fill="none" stroke="midnightblue" d="M521.82,-103C513.139,-103 504.241,-103 495.538,-103"/>
<polygon fill="midnightblue" stroke="midnightblue" points="521.885,-106.5 531.885,-103 521.885,-99.5001 521.885,-106.5"/>
</g>
<!-- Node248 -->
<g id="node4" class="node"><title>Node248</title>
<g id="a_node4"><a xlink:href="namespacemom__state__initialization.html#af4e854627c6572332ba3fd895f169321" target="_top" xlink:title=" ">
<polygon fill="white" stroke="black" points="218.5,-88 218.5,-118 319.5,-118 319.5,-88 218.5,-88"/>
<text text-anchor="start" x="226.5" y="-106" font-family="Helvetica,sans-Serif" font-size="10.00">mom_state_initialization</text>
<text text-anchor="middle" x="269" y="-95" font-family="Helvetica,sans-Serif" font-size="10.00">::mom_initialize_state</text>
</a>
</g>
</g>
<!-- Node247&#45;&gt;Node248 -->
<g id="edge3" class="edge"><title>Node247&#45;&gt;Node248</title>
<path fill="none" stroke="midnightblue" d="M345.991,-103C337.014,-103 328.064,-103 319.622,-103"/>
<polygon fill="midnightblue" stroke="midnightblue" points="346.112,-106.5 356.112,-103 346.112,-99.5001 346.112,-106.5"/>
</g>
<!-- Node249 -->
<g id="node5" class="node"><title>Node249</title>
<g id="a_node5"><a xlink:href="namespacemom.html#a0be2869fef30e1e0604facfe1b41555d" target="_top" xlink:title="This subroutine initializes MOM.">
<polygon fill="white" stroke="black" points="92.5,-93.5 92.5,-112.5 181.5,-112.5 181.5,-93.5 92.5,-93.5"/>
<text text-anchor="middle" x="137" y="-100.5" font-family="Helvetica,sans-Serif" font-size="10.00">mom::initialize_mom</text>
</a>
</g>
</g>
<!-- Node248&#45;&gt;Node249 -->
<g id="edge4" class="edge"><title>Node248&#45;&gt;Node249</title>
<path fill="none" stroke="midnightblue" d="M208.461,-103C199.5,-103 190.4,-103 181.848,-103"/>
<polygon fill="midnightblue" stroke="midnightblue" points="208.482,-106.5 218.482,-103 208.482,-99.5001 208.482,-106.5"/>
</g>
<!-- Node250 -->
<g id="node6" class="node"><title>Node250</title>
<g id="a_node6"><a xlink:href="MOM__driver_8F90.html#a08fffeb2d8e8acbf9ed4609be6d258c6" target="_top" xlink:title=" ">
<polygon fill="white" stroke="black" points="0,-93.5 0,-112.5 56,-112.5 56,-93.5 0,-93.5"/>
<text text-anchor="middle" x="28" y="-100.5" font-family="Helvetica,sans-Serif" font-size="10.00">mom_main</text>
</a>
</g>
</g>
<!-- Node249&#45;&gt;Node250 -->
<g id="edge5" class="edge"><title>Node249&#45;&gt;Node250</title>
<path fill="none" stroke="midnightblue" d="M82.3096,-103C73.2562,-103 64.21,-103 56.2082,-103"/>
<polygon fill="midnightblue" stroke="midnightblue" points="82.479,-106.5 92.479,-103 82.479,-99.5001 82.479,-106.5"/>
</g>
</g>
</svg>
