<?xml version="1.0" encoding="UTF-8" standalone="no"?>
<!DOCTYPE svg PUBLIC "-//W3C//DTD SVG 1.1//EN"
 "http://www.w3.org/Graphics/SVG/1.1/DTD/svg11.dtd">
<!-- Generated by graphviz version 2.30.1 (20170916.1124)
 -->
<!-- Title: mom_neutral_diffusion::signum Pages: 1 -->
<svg width="1008pt" height="137pt"
 viewBox="0.00 0.00 1008.00 137.00" xmlns="http://www.w3.org/2000/svg" xmlns:xlink="http://www.w3.org/1999/xlink">
<g id="graph0" class="graph" transform="scale(1 1) rotate(0) translate(4 133)">
<title>mom_neutral_diffusion::signum</title>
<polygon fill="white" stroke="white" points="-4,5 -4,-133 1005,-133 1005,5 -4,5"/>
<!-- Node200 -->
<g id="node1" class="node"><title>Node200</title>
<g id="a_node1"><a xlink:title="A true signum function that returns either &#45;abs(a), when x&lt;0; or abs(a) when x&gt;0; or 0 when x=0.">
<polygon fill="#bfbfbf" stroke="black" points="902,-72 902,-102 1000,-102 1000,-72 902,-72"/>
<text text-anchor="start" x="910" y="-90" font-family="Helvetica,sans-Serif" font-size="10.00">mom_neutral_diffusion</text>
<text text-anchor="middle" x="951" y="-79" font-family="Helvetica,sans-Serif" font-size="10.00">::signum</text>
</a>
</g>
</g>
<!-- Node201 -->
<g id="node2" class="node"><title>Node201</title>
<g id="a_node2"><a xlink:href="namespacemom__neutral__diffusion.html#a626e0189b03bbbf36c33cfa52e4f098d" target="_top" xlink:title="Returns a single column of neutral diffusion fluxes of a tracer.">
<polygon fill="white" stroke="black" points="500,-98 500,-128 598,-128 598,-98 500,-98"/>
<text text-anchor="start" x="508" y="-116" font-family="Helvetica,sans-Serif" font-size="10.00">mom_neutral_diffusion</text>
<text text-anchor="middle" x="549" y="-105" font-family="Helvetica,sans-Serif" font-size="10.00">::neutral_surface_flux</text>
</a>
</g>
</g>
<!-- Node200&#45;&gt;Node201 -->
<g id="edge1" class="edge"><title>Node200&#45;&gt;Node201</title>
<path fill="none" stroke="midnightblue" d="M891.435,-90.8067C812.03,-95.9681 671.702,-105.089 598.109,-109.873"/>
<polygon fill="midnightblue" stroke="midnightblue" points="891.999,-94.2776 901.751,-90.1362 891.545,-87.2923 891.999,-94.2776"/>
</g>
<!-- Node208 -->
<g id="node9" class="node"><title>Node208</title>
<g id="a_node9"><a xlink:href="namespacemom__neutral__diffusion.html#ac211ae488cb6e3c6685df85d24ecd0dd" target="_top" xlink:title="Returns PLM slopes for a column where the slopes are the difference in value across each cell....">
<polygon fill="white" stroke="black" points="768,-49 768,-79 866,-79 866,-49 768,-49"/>
<text text-anchor="start" x="776" y="-67" font-family="Helvetica,sans-Serif" font-size="10.00">mom_neutral_diffusion</text>
<text text-anchor="middle" x="817" y="-56" font-family="Helvetica,sans-Serif" font-size="10.00">::plm_diff</text>
</a>
</g>
</g>
<!-- Node200&#45;&gt;Node208 -->
<g id="edge8" class="edge"><title>Node200&#45;&gt;Node208</title>
<path fill="none" stroke="midnightblue" d="M891.988,-76.8919C883.382,-75.3923 874.591,-73.8606 866.214,-72.4009"/>
<polygon fill="midnightblue" stroke="midnightblue" points="891.519,-80.3628 901.972,-78.6314 892.721,-73.4667 891.519,-80.3628"/>
</g>
<!-- Node202 -->
<g id="node3" class="node"><title>Node202</title>
<g id="a_node3"><a xlink:href="namespacemom__neutral__diffusion.html#a0aa7d320b2d623791e7de7d879930a64" target="_top" xlink:title="Update tracer concentration due to neutral diffusion; layer thickness unchanged by this update.">
<polygon fill="white" stroke="black" points="356,-95 356,-125 454,-125 454,-95 356,-95"/>
<text text-anchor="start" x="364" y="-113" font-family="Helvetica,sans-Serif" font-size="10.00">mom_neutral_diffusion</text>
<text text-anchor="middle" x="405" y="-102" font-family="Helvetica,sans-Serif" font-size="10.00">::neutral_diffusion</text>
</a>
</g>
</g>
<!-- Node201&#45;&gt;Node202 -->
<g id="edge2" class="edge"><title>Node201&#45;&gt;Node202</title>
<path fill="none" stroke="midnightblue" d="M489.668,-111.768C477.814,-111.517 465.473,-111.256 454.025,-111.015"/>
<polygon fill="midnightblue" stroke="midnightblue" points="489.854,-115.272 499.925,-111.984 490.001,-108.274 489.854,-115.272"/>
</g>
<!-- Node204 -->
<g id="node5" class="node"><title>Node204</title>
<g id="a_node5"><a xlink:href="namespacemom__neutral__diffusion.html#ae21f026dc5c73f2304ab6cbc230b9fb0" target="_top" xlink:title="Returns true if unit tests of neutral_diffusion functions fail. Otherwise returns false.">
<polygon fill="white" stroke="black" points="346,-0 346,-30 464,-30 464,-0 346,-0"/>
<text text-anchor="start" x="354" y="-18" font-family="Helvetica,sans-Serif" font-size="10.00">mom_neutral_diffusion</text>
<text text-anchor="middle" x="405" y="-7" font-family="Helvetica,sans-Serif" font-size="10.00">::neutral_diffusion_unit_tests</text>
</a>
</g>
</g>
<!-- Node201&#45;&gt;Node204 -->
<g id="edge4" class="edge"><title>Node201&#45;&gt;Node204</title>
<path fill="none" stroke="midnightblue" d="M508.113,-92.9403C505.334,-91.3253 502.605,-89.6707 500,-88 471.997,-70.0414 442.037,-45.7982 423.658,-30.2782"/>
<polygon fill="midnightblue" stroke="midnightblue" points="506.625,-96.1179 517.063,-97.935 510.036,-90.0054 506.625,-96.1179"/>
</g>
<!-- Node203 -->
<g id="node4" class="node"><title>Node203</title>
<g id="a_node4"><a xlink:href="namespacemom__tracer__hor__diff.html#a069e22612062290389c2630c7f90ede2" target="_top" xlink:title="Compute along&#45;coordinate diffusion of all tracers using the diffusivity in CSKhTr,...">
<polygon fill="white" stroke="black" points="218,-46 218,-76 310,-76 310,-46 218,-46"/>
<text text-anchor="start" x="226" y="-64" font-family="Helvetica,sans-Serif" font-size="10.00">mom_tracer_hor_diff</text>
<text text-anchor="middle" x="264" y="-53" font-family="Helvetica,sans-Serif" font-size="10.00">::tracer_hordiff</text>
</a>
</g>
</g>
<!-- Node202&#45;&gt;Node203 -->
<g id="edge3" class="edge"><title>Node202&#45;&gt;Node203</title>
<path fill="none" stroke="midnightblue" d="M351.42,-91.4645C337.065,-86.4041 321.685,-80.9823 307.937,-76.1359"/>
<polygon fill="midnightblue" stroke="midnightblue" points="350.566,-94.8747 361.161,-94.8986 352.894,-88.2729 350.566,-94.8747"/>
</g>
<!-- Node205 -->
<g id="node6" class="node"><title>Node205</title>
<g id="a_node6"><a xlink:href="namespacemom.html#ae77cfd2e790f1266b31d93c58659d46c" target="_top" xlink:title="Calls unit tests for other modules. These are NOT normally invoked and so we provide the module use s...">
<polygon fill="white" stroke="black" points="227.5,-5.5 227.5,-24.5 300.5,-24.5 300.5,-5.5 227.5,-5.5"/>
<text text-anchor="middle" x="264" y="-12.5" font-family="Helvetica,sans-Serif" font-size="10.00">mom::unit_tests</text>
</a>
</g>
</g>
<!-- Node204&#45;&gt;Node205 -->
<g id="edge5" class="edge"><title>Node204&#45;&gt;Node205</title>
<path fill="none" stroke="midnightblue" d="M335.723,-15C323.607,-15 311.442,-15 300.7,-15"/>
<polygon fill="midnightblue" stroke="midnightblue" points="335.857,-18.5001 345.857,-15 335.857,-11.5001 335.857,-18.5001"/>
</g>
<!-- Node206 -->
<g id="node7" class="node"><title>Node206</title>
<g id="a_node7"><a xlink:href="namespacemom.html#a0be2869fef30e1e0604facfe1b41555d" target="_top" xlink:title="This subroutine initializes MOM.">
<polygon fill="white" stroke="black" points="92.5,-5.5 92.5,-24.5 181.5,-24.5 181.5,-5.5 92.5,-5.5"/>
<text text-anchor="middle" x="137" y="-12.5" font-family="Helvetica,sans-Serif" font-size="10.00">mom::initialize_mom</text>
</a>
</g>
</g>
<!-- Node205&#45;&gt;Node206 -->
<g id="edge6" class="edge"><title>Node205&#45;&gt;Node206</title>
<path fill="none" stroke="midnightblue" d="M216.917,-15C205.445,-15 193.18,-15 181.82,-15"/>
<polygon fill="midnightblue" stroke="midnightblue" points="217.18,-18.5001 227.18,-15 217.18,-11.5001 217.18,-18.5001"/>
</g>
<!-- Node207 -->
<g id="node8" class="node"><title>Node207</title>
<g id="a_node8"><a xlink:href="MOM__driver_8F90.html#a08fffeb2d8e8acbf9ed4609be6d258c6" target="_top" xlink:title=" ">
<polygon fill="white" stroke="black" points="0,-5.5 0,-24.5 56,-24.5 56,-5.5 0,-5.5"/>
<text text-anchor="middle" x="28" y="-12.5" font-family="Helvetica,sans-Serif" font-size="10.00">mom_main</text>
</a>
</g>
</g>
<!-- Node206&#45;&gt;Node207 -->
<g id="edge7" class="edge"><title>Node206&#45;&gt;Node207</title>
<path fill="none" stroke="midnightblue" d="M82.3096,-15C73.2562,-15 64.21,-15 56.2082,-15"/>
<polygon fill="midnightblue" stroke="midnightblue" points="82.479,-18.5001 92.479,-15 82.479,-11.5001 82.479,-18.5001"/>
</g>
<!-- Node209 -->
<g id="node10" class="node"><title>Node209</title>
<g id="a_node10"><a xlink:href="namespacemom__neutral__diffusion.html#afbc54a4e2f34af5d72c18dc96e354af7" target="_top" xlink:title="Returns interface scalar, Si, for a column of layer values, S.">
<polygon fill="white" stroke="black" points="634,-44 634,-74 732,-74 732,-44 634,-44"/>
<text text-anchor="start" x="642" y="-62" font-family="Helvetica,sans-Serif" font-size="10.00">mom_neutral_diffusion</text>
<text text-anchor="middle" x="683" y="-51" font-family="Helvetica,sans-Serif" font-size="10.00">::interface_scalar</text>
</a>
</g>
</g>
<!-- Node208&#45;&gt;Node209 -->
<g id="edge9" class="edge"><title>Node208&#45;&gt;Node209</title>
<path fill="none" stroke="midnightblue" d="M757.708,-61.792C749.191,-61.4693 740.5,-61.1402 732.214,-60.8263"/>
<polygon fill="midnightblue" stroke="midnightblue" points="757.846,-65.2996 767.972,-62.1807 758.111,-58.3046 757.846,-65.2996"/>
</g>
<!-- Node210 -->
<g id="node11" class="node"><title>Node210</title>
<g id="a_node11"><a xlink:href="namespacemom__neutral__diffusion.html#a53d5e3f8d7610b60644aaa9f44fd854e" target="_top" xlink:title="Calculate remapping factors for u/v columns used to map adjoining columns to a shared coordinate spac...">
<polygon fill="white" stroke="black" points="500,-37.5 500,-78.5 598,-78.5 598,-37.5 500,-37.5"/>
<text text-anchor="start" x="508" y="-66.5" font-family="Helvetica,sans-Serif" font-size="10.00">mom_neutral_diffusion</text>
<text text-anchor="start" x="508" y="-55.5" font-family="Helvetica,sans-Serif" font-size="10.00">::neutral_diffusion_calc</text>
<text text-anchor="middle" x="549" y="-44.5" font-family="Helvetica,sans-Serif" font-size="10.00">_coeffs</text>
</a>
</g>
</g>
<!-- Node209&#45;&gt;Node210 -->
<g id="edge10" class="edge"><title>Node209&#45;&gt;Node210</title>
<path fill="none" stroke="midnightblue" d="M623.708,-58.5584C615.191,-58.4939 606.5,-58.428 598.214,-58.3653"/>
<polygon fill="midnightblue" stroke="midnightblue" points="623.945,-62.0602 633.972,-58.6361 623.998,-55.0604 623.945,-62.0602"/>
</g>
<!-- Node209&#45;&gt;Node204 -->
<g id="edge12" class="edge"><title>Node209&#45;&gt;Node204</title>
<path fill="none" stroke="midnightblue" d="M638.434,-40.2384C625.629,-35.4629 611.446,-30.874 598,-28 553.73,-18.5376 502.534,-15.45 464.147,-14.6399"/>
<polygon fill="midnightblue" stroke="midnightblue" points="637.332,-43.565 647.922,-43.9014 639.853,-37.0348 637.332,-43.565"/>
</g>
<!-- Node209&#45;&gt;Node201 -->
<g id="edge13" class="edge"><title>Node209&#45;&gt;Node201</title>
<path fill="none" stroke="midnightblue" d="M635.579,-77.9905C619.671,-84.4983 602.094,-91.6887 587.03,-97.8514"/>
<polygon fill="midnightblue" stroke="midnightblue" points="637.3,-81.0678 645.231,-74.042 634.65,-74.589 637.3,-81.0678"/>
</g>
<!-- Node210&#45;&gt;Node203 -->
<g id="edge11" class="edge"><title>Node210&#45;&gt;Node203</title>
<path fill="none" stroke="midnightblue" d="M489.703,-58.618C436.554,-59.1814 359.116,-60.0023 310.43,-60.5184"/>
<polygon fill="midnightblue" stroke="midnightblue" points="490.031,-62.1148 499.993,-58.5089 489.956,-55.1152 490.031,-62.1148"/>
</g>
</g>
</svg>
