<?xml version="1.0" encoding="UTF-8" standalone="no"?>
<!DOCTYPE svg PUBLIC "-//W3C//DTD SVG 1.1//EN"
 "http://www.w3.org/Graphics/SVG/1.1/DTD/svg11.dtd">
<!-- Generated by graphviz version 2.30.1 (20170916.1124)
 -->
<!-- Title: ocean_model_mod::ocean_model_end Pages: 1 -->
<svg width="932pt" height="185pt"
 viewBox="0.00 0.00 932.00 185.00" xmlns="http://www.w3.org/2000/svg" xmlns:xlink="http://www.w3.org/1999/xlink">
<g id="graph0" class="graph" transform="scale(1 1) rotate(0) translate(4 181)">
<title>ocean_model_mod::ocean_model_end</title>
<polygon fill="white" stroke="white" points="-4,5 -4,-181 929,-181 929,5 -4,5"/>
<!-- Node16 -->
<g id="node1" class="node"><title>Node16</title>
<g id="a_node1"><a xlink:title=" ">
<polygon fill="#bfbfbf" stroke="black" points="0.5,-98 0.5,-128 111.5,-128 111.5,-98 0.5,-98"/>
<text text-anchor="start" x="8.5" y="-116" font-family="Helvetica,sans-Serif" font-size="10.00">ocean_model_mod::ocean</text>
<text text-anchor="middle" x="56" y="-105" font-family="Helvetica,sans-Serif" font-size="10.00">_model_end</text>
</a>
</g>
</g>
<!-- Node17 -->
<g id="node2" class="node"><title>Node17</title>
<g id="a_node2"><a xlink:href="namespacemom__diag__mediator.html#a780f8870b442c730208d66d1ff0b4ac0" target="_top" xlink:title=" ">
<polygon fill="white" stroke="black" points="156.5,-147 156.5,-177 251.5,-177 251.5,-147 156.5,-147"/>
<text text-anchor="start" x="164.5" y="-165" font-family="Helvetica,sans-Serif" font-size="10.00">mom_diag_mediator::</text>
<text text-anchor="middle" x="204" y="-154" font-family="Helvetica,sans-Serif" font-size="10.00">diag_mediator_end</text>
</a>
</g>
</g>
<!-- Node16&#45;&gt;Node17 -->
<g id="edge1" class="edge"><title>Node16&#45;&gt;Node17</title>
<path fill="none" stroke="midnightblue" d="M101.996,-128.101C116.636,-133.015 133.046,-138.522 148.314,-143.647"/>
<polygon fill="midnightblue" stroke="midnightblue" points="147.558,-147.085 158.152,-146.948 149.786,-140.448 147.558,-147.085"/>
</g>
<!-- Node18 -->
<g id="node3" class="node"><title>Node18</title>
<g id="a_node3"><a xlink:href="namespacemom__ice__shelf.html#a6d0412c7264e0480d5144d26995dd8d3" target="_top" xlink:title=" ">
<polygon fill="white" stroke="black" points="162,-98 162,-128 246,-128 246,-98 162,-98"/>
<text text-anchor="start" x="170" y="-116" font-family="Helvetica,sans-Serif" font-size="10.00">mom_ice_shelf::ice</text>
<text text-anchor="middle" x="204" y="-105" font-family="Helvetica,sans-Serif" font-size="10.00">_shelf_end</text>
</a>
</g>
</g>
<!-- Node16&#45;&gt;Node18 -->
<g id="edge2" class="edge"><title>Node16&#45;&gt;Node18</title>
<path fill="none" stroke="midnightblue" d="M111.78,-113C124.805,-113 138.656,-113 151.527,-113"/>
<polygon fill="midnightblue" stroke="midnightblue" points="151.605,-116.5 161.605,-113 151.605,-109.5 151.605,-116.5"/>
</g>
<!-- Node19 -->
<g id="node4" class="node"><title>Node19</title>
<g id="a_node4"><a xlink:href="namespaceocean__model__mod.html#ad969c968b1133584b9dcf48d78f51c01" target="_top" xlink:title=" ">
<polygon fill="white" stroke="black" points="148.5,-49 148.5,-79 259.5,-79 259.5,-49 148.5,-49"/>
<text text-anchor="start" x="156.5" y="-67" font-family="Helvetica,sans-Serif" font-size="10.00">ocean_model_mod::ocean</text>
<text text-anchor="middle" x="204" y="-56" font-family="Helvetica,sans-Serif" font-size="10.00">_model_save_restart</text>
</a>
</g>
</g>
<!-- Node16&#45;&gt;Node19 -->
<g id="edge3" class="edge"><title>Node16&#45;&gt;Node19</title>
<path fill="none" stroke="midnightblue" d="M101.996,-97.8986C116.636,-92.9853 133.046,-87.4776 148.314,-82.3534"/>
<polygon fill="midnightblue" stroke="midnightblue" points="149.786,-85.5515 158.152,-79.0516 147.558,-78.9153 149.786,-85.5515"/>
</g>
<!-- Node20 -->
<g id="node5" class="node"><title>Node20</title>
<g id="a_node5"><a xlink:href="namespacemom__restart.html#ab88b83af8a7dc731b70bc534325ba2b4" target="_top" xlink:title=" ">
<polygon fill="white" stroke="black" points="426.5,-76.5 426.5,-95.5 537.5,-95.5 537.5,-76.5 426.5,-76.5"/>
<text text-anchor="middle" x="482" y="-83.5" font-family="Helvetica,sans-Serif" font-size="10.00">mom_restart::save_restart</text>
</a>
</g>
</g>
<!-- Node19&#45;&gt;Node20 -->
<g id="edge4" class="edge"><title>Node19&#45;&gt;Node20</title>
<path fill="none" stroke="midnightblue" d="M252.712,-79.0534C266.532,-82.7377 281.741,-86.1513 296,-88 335.573,-93.1308 380.307,-92.8106 415.873,-91.1218"/>
<polygon fill="midnightblue" stroke="midnightblue" points="416.319,-94.6033 426.123,-90.5856 415.954,-87.6128 416.319,-94.6033"/>
</g>
<!-- Node24 -->
<g id="node9" class="node"><title>Node24</title>
<g id="a_node9"><a xlink:href="namespacemom__surface__forcing.html#a5abda015d8809b80c6b6862ba1f2059e" target="_top" xlink:title=" ">
<polygon fill="white" stroke="black" points="296,-49 296,-79 390,-79 390,-49 296,-49"/>
<text text-anchor="start" x="304" y="-67" font-family="Helvetica,sans-Serif" font-size="10.00">mom_surface_forcing</text>
<text text-anchor="middle" x="343" y="-56" font-family="Helvetica,sans-Serif" font-size="10.00">::forcing_save_restart</text>
</a>
</g>
</g>
<!-- Node19&#45;&gt;Node24 -->
<g id="edge9" class="edge"><title>Node19&#45;&gt;Node24</title>
<path fill="none" stroke="midnightblue" d="M259.54,-64C268.028,-64 276.814,-64 285.348,-64"/>
<polygon fill="midnightblue" stroke="midnightblue" points="285.594,-67.5001 295.594,-64 285.594,-60.5001 285.594,-67.5001"/>
</g>
<!-- Node25 -->
<g id="node10" class="node"><title>Node25</title>
<g id="a_node10"><a xlink:href="namespacemom__ice__shelf.html#a40ae01bbe3155191647f2150903dda69" target="_top" xlink:title=" ">
<polygon fill="white" stroke="black" points="300,-0 300,-30 386,-30 386,-0 300,-0"/>
<text text-anchor="start" x="308" y="-18" font-family="Helvetica,sans-Serif" font-size="10.00">mom_ice_shelf::ice</text>
<text text-anchor="middle" x="343" y="-7" font-family="Helvetica,sans-Serif" font-size="10.00">_shelf_save_restart</text>
</a>
</g>
</g>
<!-- Node19&#45;&gt;Node25 -->
<g id="edge11" class="edge"><title>Node19&#45;&gt;Node25</title>
<path fill="none" stroke="midnightblue" d="M247.222,-48.8986C260.765,-44.0549 275.922,-38.6336 290.076,-33.5715"/>
<polygon fill="midnightblue" stroke="midnightblue" points="291.444,-36.7993 299.681,-30.1359 289.087,-30.2082 291.444,-36.7993"/>
</g>
<!-- Node21 -->
<g id="node6" class="node"><title>Node21</title>
<g id="a_node6"><a xlink:href="namespacemom__error__handler.html#a460cfb79a06c29fc249952c2a3710d67" target="_top" xlink:title=" ">
<polygon fill="white" stroke="black" points="700.5,-71 700.5,-101 793.5,-101 793.5,-71 700.5,-71"/>
<text text-anchor="start" x="708.5" y="-89" font-family="Helvetica,sans-Serif" font-size="10.00">mom_error_handler::</text>
<text text-anchor="middle" x="747" y="-78" font-family="Helvetica,sans-Serif" font-size="10.00">mom_error</text>
</a>
</g>
</g>
<!-- Node20&#45;&gt;Node21 -->
<g id="edge5" class="edge"><title>Node20&#45;&gt;Node21</title>
<path fill="none" stroke="midnightblue" d="M537.855,-87.4005C549.77,-87.6502 562.307,-87.8715 574,-88 613.998,-88.4395 624.003,-88.4877 664,-88 672.495,-87.8964 681.483,-87.7325 690.274,-87.542"/>
<polygon fill="midnightblue" stroke="midnightblue" points="690.545,-91.0368 700.462,-87.3082 690.384,-84.0387 690.545,-91.0368"/>
</g>
<!-- Node23 -->
<g id="node8" class="node"><title>Node23</title>
<g id="a_node8"><a xlink:href="namespacemom__restart.html#a4b143fb18dab7c0825e426fbf9532623" target="_top" xlink:title=" ">
<polygon fill="white" stroke="black" points="574,-49 574,-79 664,-79 664,-49 574,-49"/>
<text text-anchor="start" x="582" y="-67" font-family="Helvetica,sans-Serif" font-size="10.00">mom_restart::restart</text>
<text text-anchor="middle" x="619" y="-56" font-family="Helvetica,sans-Serif" font-size="10.00">_error</text>
</a>
</g>
</g>
<!-- Node20&#45;&gt;Node23 -->
<g id="edge7" class="edge"><title>Node20&#45;&gt;Node23</title>
<path fill="none" stroke="midnightblue" d="M537.521,-77.1152C546.146,-75.7095 555.066,-74.2559 563.687,-72.8509"/>
<polygon fill="midnightblue" stroke="midnightblue" points="564.328,-76.2927 573.635,-71.2298 563.202,-69.3839 564.328,-76.2927"/>
</g>
<!-- Node22 -->
<g id="node7" class="node"><title>Node22</title>
<g id="a_node7"><a xlink:href="namespacemom__error__handler.html#ad5f00a53059c72fe2332d1436c80ca71" target="_top" xlink:title=" ">
<polygon fill="white" stroke="black" points="830.5,-71 830.5,-101 923.5,-101 923.5,-71 830.5,-71"/>
<text text-anchor="start" x="838.5" y="-89" font-family="Helvetica,sans-Serif" font-size="10.00">mom_error_handler::</text>
<text text-anchor="middle" x="877" y="-78" font-family="Helvetica,sans-Serif" font-size="10.00">is_root_pe</text>
</a>
</g>
</g>
<!-- Node21&#45;&gt;Node22 -->
<g id="edge6" class="edge"><title>Node21&#45;&gt;Node22</title>
<path fill="none" stroke="midnightblue" d="M793.849,-86C802.408,-86 811.439,-86 820.258,-86"/>
<polygon fill="midnightblue" stroke="midnightblue" points="820.471,-89.5001 830.471,-86 820.471,-82.5001 820.471,-89.5001"/>
</g>
<!-- Node23&#45;&gt;Node21 -->
<g id="edge8" class="edge"><title>Node23&#45;&gt;Node21</title>
<path fill="none" stroke="midnightblue" d="M664.069,-71.6945C672.628,-73.189 681.701,-74.7732 690.571,-76.3219"/>
<polygon fill="midnightblue" stroke="midnightblue" points="690.008,-79.7765 700.461,-78.0487 691.212,-72.8808 690.008,-79.7765"/>
</g>
<!-- Node24&#45;&gt;Node20 -->
<g id="edge10" class="edge"><title>Node24&#45;&gt;Node20</title>
<path fill="none" stroke="midnightblue" d="M390,-71.3869C398.472,-72.7473 407.46,-74.1907 416.361,-75.6201"/>
<polygon fill="midnightblue" stroke="midnightblue" points="415.913,-79.0929 426.342,-77.2228 417.023,-72.1814 415.913,-79.0929"/>
</g>
</g>
</svg>
