<?xml version="1.0" encoding="UTF-8" standalone="no"?>
<!DOCTYPE svg PUBLIC "-//W3C//DTD SVG 1.1//EN"
 "http://www.w3.org/Graphics/SVG/1.1/DTD/svg11.dtd">
<!-- Generated by graphviz version 2.30.1 (20170916.1124)
 -->
<!-- Title: mom_ice_shelf::cg_action_bilinear Pages: 1 -->
<svg width="260pt" height="38pt"
 viewBox="0.00 0.00 260.00 38.00" xmlns="http://www.w3.org/2000/svg" xmlns:xlink="http://www.w3.org/1999/xlink">
<g id="graph0" class="graph" transform="scale(1 1) rotate(0) translate(4 34)">
<title>mom_ice_shelf::cg_action_bilinear</title>
<polygon fill="white" stroke="white" points="-4,5 -4,-34 257,-34 257,5 -4,5"/>
<!-- Node84 -->
<g id="node1" class="node"><title>Node84</title>
<g id="a_node1"><a xlink:title=" ">
<polygon fill="#bfbfbf" stroke="black" points="0,-0 0,-30 108,-30 108,-0 0,-0"/>
<text text-anchor="start" x="8" y="-18" font-family="Helvetica,sans-Serif" font-size="10.00">mom_ice_shelf::cg_action</text>
<text text-anchor="middle" x="54" y="-7" font-family="Helvetica,sans-Serif" font-size="10.00">_bilinear</text>
</a>
</g>
</g>
<!-- Node85 -->
<g id="node2" class="node"><title>Node85</title>
<g id="a_node2"><a xlink:href="namespacemom__ice__shelf.html#a925d19b978b5368c3b0d5cae3b542bfe" target="_top" xlink:title=" ">
<polygon fill="white" stroke="black" points="144,-0 144,-30 252,-30 252,-0 144,-0"/>
<text text-anchor="start" x="152" y="-18" font-family="Helvetica,sans-Serif" font-size="10.00">mom_ice_shelf::cg_action</text>
<text text-anchor="middle" x="198" y="-7" font-family="Helvetica,sans-Serif" font-size="10.00">_subgrid_basal_bilinear</text>
</a>
</g>
</g>
<!-- Node84&#45;&gt;Node85 -->
<g id="edge1" class="edge"><title>Node84&#45;&gt;Node85</title>
<path fill="none" stroke="midnightblue" d="M108.28,-15C116.56,-15 125.184,-15 133.661,-15"/>
<polygon fill="midnightblue" stroke="midnightblue" points="133.894,-18.5001 143.894,-15 133.894,-11.5001 133.894,-18.5001"/>
</g>
</g>
</svg>
