<?xml version="1.0" encoding="UTF-8" standalone="no"?>
<!DOCTYPE svg PUBLIC "-//W3C//DTD SVG 1.1//EN"
 "http://www.w3.org/Graphics/SVG/1.1/DTD/svg11.dtd">
<!-- Generated by graphviz version 2.30.1 (20170916.1124)
 -->
<!-- Title: mom_checksums::chksum_error Pages: 1 -->
<svg width="286pt" height="294pt"
 viewBox="0.00 0.00 286.00 294.00" xmlns="http://www.w3.org/2000/svg" xmlns:xlink="http://www.w3.org/1999/xlink">
<g id="graph0" class="graph" transform="scale(1 1) rotate(0) translate(4 290)">
<title>mom_checksums::chksum_error</title>
<polygon fill="white" stroke="white" points="-4,5 -4,-290 283,-290 283,5 -4,5"/>
<!-- Node42 -->
<g id="node1" class="node"><title>Node42</title>
<g id="a_node1"><a xlink:title=" ">
<polygon fill="#bfbfbf" stroke="black" points="168,-128 168,-158 278,-158 278,-128 168,-128"/>
<text text-anchor="start" x="176" y="-146" font-family="Helvetica,sans-Serif" font-size="10.00">mom_checksums::chksum</text>
<text text-anchor="middle" x="223" y="-135" font-family="Helvetica,sans-Serif" font-size="10.00">_error</text>
</a>
</g>
</g>
<!-- Node43 -->
<g id="node2" class="node"><title>Node43</title>
<g id="a_node2"><a xlink:href="namespacemom__checksums.html#a63f469d838dbb54dda59616f68a33cec" target="_top" xlink:title="chksum_B_2d performs checksums on a 2d array staggered at corner points.">
<polygon fill="white" stroke="black" points="0,-266.5 0,-285.5 132,-285.5 132,-266.5 0,-266.5"/>
<text text-anchor="middle" x="66" y="-273.5" font-family="Helvetica,sans-Serif" font-size="10.00">mom_checksums::chksum_b_2d</text>
</a>
</g>
</g>
<!-- Node42&#45;&gt;Node43 -->
<g id="edge1" class="edge"><title>Node42&#45;&gt;Node43</title>
<path fill="none" stroke="midnightblue" d="M209.224,-166.845C194.128,-192.777 166.63,-233.64 132,-257 126.249,-260.879 119.697,-263.979 113.018,-266.454"/>
<polygon fill="midnightblue" stroke="midnightblue" points="212.335,-168.453 214.214,-158.026 206.243,-165.005 212.335,-168.453"/>
</g>
<!-- Node44 -->
<g id="node3" class="node"><title>Node44</title>
<g id="a_node3"><a xlink:href="namespacemom__checksums.html#a63c25285f7134dd6b53483c4985d299c" target="_top" xlink:title="chksum_B_3d performs checksums on a 3d array staggered at corner points.">
<polygon fill="white" stroke="black" points="0,-228.5 0,-247.5 132,-247.5 132,-228.5 0,-228.5"/>
<text text-anchor="middle" x="66" y="-235.5" font-family="Helvetica,sans-Serif" font-size="10.00">mom_checksums::chksum_b_3d</text>
</a>
</g>
</g>
<!-- Node42&#45;&gt;Node44 -->
<g id="edge2" class="edge"><title>Node42&#45;&gt;Node44</title>
<path fill="none" stroke="midnightblue" d="M200.89,-165.322C183.769,-182.238 158.249,-204.904 132,-219 124.957,-222.782 117.069,-225.896 109.282,-228.429"/>
<polygon fill="midnightblue" stroke="midnightblue" points="203.586,-167.573 208.137,-158.005 198.613,-162.646 203.586,-167.573"/>
</g>
<!-- Node45 -->
<g id="node4" class="node"><title>Node45</title>
<g id="a_node4"><a xlink:href="namespacemom__checksums.html#a639927d039b3be2d24c370c48d3f02a3" target="_top" xlink:title="chksum_h_2d performs checksums on a 2d array staggered at tracer points.">
<polygon fill="white" stroke="black" points="0,-190.5 0,-209.5 132,-209.5 132,-190.5 0,-190.5"/>
<text text-anchor="middle" x="66" y="-197.5" font-family="Helvetica,sans-Serif" font-size="10.00">mom_checksums::chksum_h_2d</text>
</a>
</g>
</g>
<!-- Node42&#45;&gt;Node45 -->
<g id="edge3" class="edge"><title>Node42&#45;&gt;Node45</title>
<path fill="none" stroke="midnightblue" d="M179.563,-162.103C164.669,-168.49 147.729,-175.402 132,-181 122.474,-184.39 112.013,-187.647 102.32,-190.477"/>
<polygon fill="midnightblue" stroke="midnightblue" points="181.24,-165.191 189.021,-158.001 178.454,-158.769 181.24,-165.191"/>
</g>
<!-- Node46 -->
<g id="node5" class="node"><title>Node46</title>
<g id="a_node5"><a xlink:href="namespacemom__checksums.html#adb8f16de2eff70b3f4424ed60d29c797" target="_top" xlink:title="chksum_h_3d performs checksums on a 3d array staggered at tracer points.">
<polygon fill="white" stroke="black" points="0,-152.5 0,-171.5 132,-171.5 132,-152.5 0,-152.5"/>
<text text-anchor="middle" x="66" y="-159.5" font-family="Helvetica,sans-Serif" font-size="10.00">mom_checksums::chksum_h_3d</text>
</a>
</g>
</g>
<!-- Node42&#45;&gt;Node46 -->
<g id="edge4" class="edge"><title>Node42&#45;&gt;Node46</title>
<path fill="none" stroke="midnightblue" d="M157.634,-150.89C149.198,-151.924 140.55,-152.984 132.102,-154.02"/>
<polygon fill="midnightblue" stroke="midnightblue" points="158.289,-154.336 167.789,-149.645 157.437,-147.388 158.289,-154.336"/>
</g>
<!-- Node47 -->
<g id="node6" class="node"><title>Node47</title>
<g id="a_node6"><a xlink:href="namespacemom__checksums.html#acab3f86710e3dd1eb3cb96427b14586f" target="_top" xlink:title="chksum_u_2d performs checksums on a 2d array staggered at C&#45;grid u points.">
<polygon fill="white" stroke="black" points="0,-114.5 0,-133.5 132,-133.5 132,-114.5 0,-114.5"/>
<text text-anchor="middle" x="66" y="-121.5" font-family="Helvetica,sans-Serif" font-size="10.00">mom_checksums::chksum_u_2d</text>
</a>
</g>
</g>
<!-- Node42&#45;&gt;Node47 -->
<g id="edge5" class="edge"><title>Node42&#45;&gt;Node47</title>
<path fill="none" stroke="midnightblue" d="M157.634,-135.11C149.198,-134.076 140.55,-133.016 132.102,-131.98"/>
<polygon fill="midnightblue" stroke="midnightblue" points="157.437,-138.612 167.789,-136.355 158.289,-131.664 157.437,-138.612"/>
</g>
<!-- Node48 -->
<g id="node7" class="node"><title>Node48</title>
<g id="a_node7"><a xlink:href="namespacemom__checksums.html#a7575c4a70d43a779a3183a6839692e7a" target="_top" xlink:title="chksum_u_3d performs checksums on a 3d array staggered at C&#45;grid u points.">
<polygon fill="white" stroke="black" points="0,-76.5 0,-95.5 132,-95.5 132,-76.5 0,-76.5"/>
<text text-anchor="middle" x="66" y="-83.5" font-family="Helvetica,sans-Serif" font-size="10.00">mom_checksums::chksum_u_3d</text>
</a>
</g>
</g>
<!-- Node42&#45;&gt;Node48 -->
<g id="edge6" class="edge"><title>Node42&#45;&gt;Node48</title>
<path fill="none" stroke="midnightblue" d="M179.563,-123.897C164.669,-117.51 147.729,-110.598 132,-105 122.474,-101.61 112.013,-98.3528 102.32,-95.5226"/>
<polygon fill="midnightblue" stroke="midnightblue" points="178.454,-127.231 189.021,-127.999 181.24,-120.809 178.454,-127.231"/>
</g>
<!-- Node49 -->
<g id="node8" class="node"><title>Node49</title>
<g id="a_node8"><a xlink:href="namespacemom__checksums.html#adf00fae09b5585f11fbe9d7a5f32a472" target="_top" xlink:title="chksum_v_2d performs checksums on a 2d array staggered at C&#45;grid v points.">
<polygon fill="white" stroke="black" points="0.5,-38.5 0.5,-57.5 131.5,-57.5 131.5,-38.5 0.5,-38.5"/>
<text text-anchor="middle" x="66" y="-45.5" font-family="Helvetica,sans-Serif" font-size="10.00">mom_checksums::chksum_v_2d</text>
</a>
</g>
</g>
<!-- Node42&#45;&gt;Node49 -->
<g id="edge7" class="edge"><title>Node42&#45;&gt;Node49</title>
<path fill="none" stroke="midnightblue" d="M200.89,-120.678C183.769,-103.762 158.249,-81.0961 132,-67 124.957,-63.2176 117.069,-60.104 109.282,-57.5708"/>
<polygon fill="midnightblue" stroke="midnightblue" points="198.613,-123.354 208.137,-127.995 203.586,-118.427 198.613,-123.354"/>
</g>
<!-- Node50 -->
<g id="node9" class="node"><title>Node50</title>
<g id="a_node9"><a xlink:href="namespacemom__checksums.html#a69a33182089ef67ba50e177c39b94c4c" target="_top" xlink:title="chksum_v_3d performs checksums on a 3d array staggered at C&#45;grid v points.">
<polygon fill="white" stroke="black" points="0.5,-0.5 0.5,-19.5 131.5,-19.5 131.5,-0.5 0.5,-0.5"/>
<text text-anchor="middle" x="66" y="-7.5" font-family="Helvetica,sans-Serif" font-size="10.00">mom_checksums::chksum_v_3d</text>
</a>
</g>
</g>
<!-- Node42&#45;&gt;Node50 -->
<g id="edge8" class="edge"><title>Node42&#45;&gt;Node50</title>
<path fill="none" stroke="midnightblue" d="M209.224,-119.155C194.128,-93.223 166.63,-52.3598 132,-29 126.249,-25.1209 119.697,-22.0206 113.018,-19.5462"/>
<polygon fill="midnightblue" stroke="midnightblue" points="206.243,-120.995 214.214,-127.974 212.335,-117.547 206.243,-120.995"/>
</g>
</g>
</svg>
