<?xml version="1.0" encoding="UTF-8" standalone="no"?>
<!DOCTYPE svg PUBLIC "-//W3C//DTD SVG 1.1//EN"
 "http://www.w3.org/Graphics/SVG/1.1/DTD/svg11.dtd">
<!-- Generated by graphviz version 2.30.1 (20170916.1124)
 -->
<!-- Title: src/user/Phillips_initialization.F90 Pages: 1 -->
<svg width="183pt" height="84pt"
 viewBox="0.00 0.00 183.00 84.00" xmlns="http://www.w3.org/2000/svg" xmlns:xlink="http://www.w3.org/1999/xlink">
<g id="graph0" class="graph" transform="scale(1 1) rotate(0) translate(4 80)">
<title>src/user/Phillips_initialization.F90</title>
<polygon fill="white" stroke="white" points="-4,5 -4,-80 180,-80 180,5 -4,5"/>
<!-- Node0 -->
<g id="node1" class="node"><title>Node0</title>
<g id="a_node1"><a xlink:title=" ">
<polygon fill="#bfbfbf" stroke="black" points="20,-56.5 20,-75.5 152,-75.5 152,-56.5 20,-56.5"/>
<text text-anchor="middle" x="86" y="-63.5" font-family="Helvetica,sans-Serif" font-size="10.00">src/user/Phillips_initialization.F90</text>
</a>
</g>
</g>
<!-- Node1 -->
<g id="node2" class="node"><title>Node1</title>
<g id="a_node2"><a xlink:title=" ">
<polygon fill="white" stroke="#bfbfbf" points="-0.5,-0.5 -0.5,-19.5 76.5,-19.5 76.5,-0.5 -0.5,-0.5"/>
<text text-anchor="middle" x="38" y="-7.5" font-family="Helvetica,sans-Serif" font-size="10.00">MOM_memory.h</text>
</a>
</g>
</g>
<!-- Node0&#45;&gt;Node1 -->
<g id="edge1" class="edge"><title>Node0&#45;&gt;Node1</title>
<path fill="none" stroke="midnightblue" d="M78.0738,-56.083C71.1539,-48.2982 60.9346,-36.8015 52.548,-27.3665"/>
<polygon fill="midnightblue" stroke="midnightblue" points="55.0383,-24.8999 45.7787,-19.7511 49.8065,-29.5505 55.0383,-24.8999"/>
</g>
<!-- Node2 -->
<g id="node3" class="node"><title>Node2</title>
<g id="a_node3"><a xlink:href="version__variable_8h.html" target="_top" xlink:title=" ">
<polygon fill="white" stroke="black" points="94.5,-0.5 94.5,-19.5 175.5,-19.5 175.5,-0.5 94.5,-0.5"/>
<text text-anchor="middle" x="135" y="-7.5" font-family="Helvetica,sans-Serif" font-size="10.00">version_variable.h</text>
</a>
</g>
</g>
<!-- Node0&#45;&gt;Node2 -->
<g id="edge2" class="edge"><title>Node0&#45;&gt;Node2</title>
<path fill="none" stroke="midnightblue" d="M94.0914,-56.083C101.155,-48.2982 111.588,-36.8015 120.149,-27.3665"/>
<polygon fill="midnightblue" stroke="midnightblue" points="122.931,-29.5087 127.059,-19.7511 117.747,-24.8047 122.931,-29.5087"/>
</g>
</g>
</svg>
