<?xml version="1.0" encoding="UTF-8" standalone="no"?>
<!DOCTYPE svg PUBLIC "-//W3C//DTD SVG 1.1//EN"
 "http://www.w3.org/Graphics/SVG/1.1/DTD/svg11.dtd">
<!-- Generated by graphviz version 2.30.1 (20170916.1124)
 -->
<!-- Title: mom_geothermal::geothermal_cs Pages: 1 -->
<svg width="273pt" height="118pt"
 viewBox="0.00 0.00 273.00 118.00" xmlns="http://www.w3.org/2000/svg" xmlns:xlink="http://www.w3.org/1999/xlink">
<g id="graph0" class="graph" transform="scale(1 1) rotate(0) translate(4 114)">
<title>mom_geothermal::geothermal_cs</title>
<polygon fill="white" stroke="white" points="-4,5 -4,-114 270,-114 270,5 -4,5"/>
<!-- Node1 -->
<g id="node1" class="node"><title>Node1</title>
<g id="a_node1"><a xlink:title=" ">
<polygon fill="#bfbfbf" stroke="black" points="67.5,-0.5 67.5,-19.5 204.5,-19.5 204.5,-0.5 67.5,-0.5"/>
<text text-anchor="middle" x="136" y="-7.5" font-family="Helvetica,sans-Serif" font-size="10.00">mom_geothermal::geothermal_cs</text>
</a>
</g>
</g>
<!-- Node2 -->
<g id="node2" class="node"><title>Node2</title>
<g id="a_node2"><a xlink:title=" ">
<polygon fill="white" stroke="#bfbfbf" points="0,-90.5 0,-109.5 38,-109.5 38,-90.5 0,-90.5"/>
<text text-anchor="middle" x="19" y="-97.5" font-family="Helvetica,sans-Serif" font-size="10.00">logical</text>
</a>
</g>
</g>
<!-- Node2&#45;&gt;Node1 -->
<g id="edge1" class="edge"><title>Node2&#45;&gt;Node1</title>
<path fill="none" stroke="#9a32cd" stroke-dasharray="5,2" d="M20.2057,-80.0525C22.0598,-66.5685 26.6647,-48.966 38,-38 46.8152,-29.4719 58.067,-23.5843 69.7827,-19.5321"/>
<polygon fill="#9a32cd" stroke="#9a32cd" points="16.7059,-79.8791 19.2079,-90.1743 23.6721,-80.5659 16.7059,-79.8791"/>
<text text-anchor="middle" x="71.5" y="-52.5" font-family="Helvetica,sans-Serif" font-size="10.00"> apply_geothermal</text>
</g>
<!-- Node3 -->
<g id="node3" class="node"><title>Node3</title>
<g id="a_node3"><a xlink:title=" ">
<polygon fill="white" stroke="#bfbfbf" points="70.5,-90.5 70.5,-109.5 121.5,-109.5 121.5,-90.5 70.5,-90.5"/>
<text text-anchor="middle" x="96" y="-97.5" font-family="Helvetica,sans-Serif" font-size="10.00">time_type</text>
</a>
</g>
</g>
<!-- Node3&#45;&gt;Node1 -->
<g id="edge2" class="edge"><title>Node3&#45;&gt;Node1</title>
<path fill="none" stroke="#9a32cd" stroke-dasharray="5,2" d="M103.868,-80.8147C109.175,-68.651 116.389,-52.312 123,-38 125.792,-31.9545 129.042,-25.2045 131.594,-19.9659"/>
<polygon fill="#9a32cd" stroke="#9a32cd" points="100.533,-79.7068 99.7581,-90.2733 106.953,-82.4963 100.533,-79.7068"/>
<text text-anchor="middle" x="132" y="-52.5" font-family="Helvetica,sans-Serif" font-size="10.00"> time</text>
</g>
<!-- Node4 -->
<g id="node4" class="node"><title>Node4</title>
<g id="a_node4"><a xlink:title=" ">
<polygon fill="white" stroke="#bfbfbf" points="139.5,-90.5 139.5,-109.5 186.5,-109.5 186.5,-90.5 139.5,-90.5"/>
<text text-anchor="middle" x="163" y="-97.5" font-family="Helvetica,sans-Serif" font-size="10.00">diag_ctrl</text>
</a>
</g>
</g>
<!-- Node4&#45;&gt;Node1 -->
<g id="edge3" class="edge"><title>Node4&#45;&gt;Node1</title>
<path fill="none" stroke="#9a32cd" stroke-dasharray="5,2" d="M157.325,-80.5044C151.596,-61.8323 142.996,-33.8011 138.677,-19.7241"/>
<polygon fill="#9a32cd" stroke="#9a32cd" points="154.033,-81.707 160.312,-90.2405 160.725,-79.6537 154.033,-81.707"/>
<text text-anchor="middle" x="164" y="-52.5" font-family="Helvetica,sans-Serif" font-size="10.00"> diag</text>
</g>
<!-- Node5 -->
<g id="node5" class="node"><title>Node5</title>
<g id="a_node5"><a xlink:title=" ">
<polygon fill="white" stroke="#bfbfbf" points="205,-90.5 205,-109.5 235,-109.5 235,-90.5 205,-90.5"/>
<text text-anchor="middle" x="220" y="-97.5" font-family="Helvetica,sans-Serif" font-size="10.00">real</text>
</a>
</g>
</g>
<!-- Node5&#45;&gt;Node1 -->
<g id="edge4" class="edge"><title>Node5&#45;&gt;Node1</title>
<path fill="none" stroke="#9a32cd" stroke-dasharray="5,2" d="M210.113,-81.4915C202.238,-68.5226 190.348,-50.932 177,-38 169.532,-30.7649 159.87,-24.2937 151.802,-19.5016"/>
<polygon fill="#9a32cd" stroke="#9a32cd" points="207.232,-83.4985 215.31,-90.3543 213.27,-79.9576 207.232,-83.4985"/>
<text text-anchor="middle" x="234.5" y="-63.5" font-family="Helvetica,sans-Serif" font-size="10.00"> drcv_dt_inplace</text>
<text text-anchor="middle" x="234.5" y="-52.5" font-family="Helvetica,sans-Serif" font-size="10.00">geo_heat</text>
<text text-anchor="middle" x="234.5" y="-41.5" font-family="Helvetica,sans-Serif" font-size="10.00">geothermal_thick</text>
</g>
</g>
</svg>
