<?xml version="1.0" encoding="UTF-8" standalone="no"?>
<!DOCTYPE svg PUBLIC "-//W3C//DTD SVG 1.1//EN"
 "http://www.w3.org/Graphics/SVG/1.1/DTD/svg11.dtd">
<!-- Generated by graphviz version 2.30.1 (20170916.1124)
 -->
<!-- Title: mom_shortwave_abs::optics_type Pages: 1 -->
<svg width="153pt" height="140pt"
 viewBox="0.00 0.00 153.00 140.00" xmlns="http://www.w3.org/2000/svg" xmlns:xlink="http://www.w3.org/1999/xlink">
<g id="graph0" class="graph" transform="scale(1 1) rotate(0) translate(4 136)">
<title>mom_shortwave_abs::optics_type</title>
<polygon fill="white" stroke="white" points="-4,5 -4,-136 150,-136 150,5 -4,5"/>
<!-- Node1 -->
<g id="node1" class="node"><title>Node1</title>
<g id="a_node1"><a xlink:title=" ">
<polygon fill="#bfbfbf" stroke="black" points="19,-1 19,-31 117,-31 117,-1 19,-1"/>
<text text-anchor="start" x="27" y="-19" font-family="Helvetica,sans-Serif" font-size="10.00">mom_shortwave_abs::</text>
<text text-anchor="middle" x="68" y="-8" font-family="Helvetica,sans-Serif" font-size="10.00">optics_type</text>
</a>
</g>
</g>
<!-- Node2 -->
<g id="node2" class="node"><title>Node2</title>
<g id="a_node2"><a xlink:title=" ">
<polygon fill="white" stroke="#bfbfbf" points="0,-112.5 0,-131.5 30,-131.5 30,-112.5 0,-112.5"/>
<text text-anchor="middle" x="15" y="-119.5" font-family="Helvetica,sans-Serif" font-size="10.00">real</text>
</a>
</g>
</g>
<!-- Node2&#45;&gt;Node1 -->
<g id="edge1" class="edge"><title>Node2&#45;&gt;Node1</title>
<path fill="none" stroke="#9a32cd" stroke-dasharray="5,2" d="M10.6417,-102.323C8.15792,-87.2304 7.08492,-65.9493 16,-50 20.3822,-42.1601 27.4872,-35.9122 35.0564,-31.0556"/>
<polygon fill="#9a32cd" stroke="#9a32cd" points="7.27772,-103.349 12.674,-112.467 14.1413,-101.974 7.27772,-103.349"/>
<text text-anchor="middle" x="57.5" y="-86" font-family="Helvetica,sans-Serif" font-size="10.00"> sw_pen_band</text>
<text text-anchor="middle" x="57.5" y="-75" font-family="Helvetica,sans-Serif" font-size="10.00">opacity_band</text>
<text text-anchor="middle" x="57.5" y="-64" font-family="Helvetica,sans-Serif" font-size="10.00">min_wavelength_band</text>
<text text-anchor="middle" x="57.5" y="-53" font-family="Helvetica,sans-Serif" font-size="10.00">max_wavelength_band</text>
</g>
<!-- Node3 -->
<g id="node3" class="node"><title>Node3</title>
<g id="a_node3"><a xlink:title=" ">
<polygon fill="white" stroke="#bfbfbf" points="100.5,-112.5 100.5,-131.5 141.5,-131.5 141.5,-112.5 100.5,-112.5"/>
<text text-anchor="middle" x="121" y="-119.5" font-family="Helvetica,sans-Serif" font-size="10.00">integer</text>
</a>
</g>
</g>
<!-- Node3&#45;&gt;Node1 -->
<g id="edge2" class="edge"><title>Node3&#45;&gt;Node1</title>
<path fill="none" stroke="#9a32cd" stroke-dasharray="5,2" d="M117.598,-102.148C114.353,-87.2632 108.522,-66.3511 99,-50 95.0444,-43.2072 89.4489,-36.6859 84.0982,-31.2604"/>
<polygon fill="#9a32cd" stroke="#9a32cd" points="114.21,-103.055 119.594,-112.18 121.075,-101.689 114.21,-103.055"/>
<text text-anchor="middle" x="130.5" y="-69.5" font-family="Helvetica,sans-Serif" font-size="10.00"> nbands</text>
</g>
</g>
</svg>
