<?xml version="1.0" encoding="UTF-8" standalone="no"?>
<!DOCTYPE svg PUBLIC "-//W3C//DTD SVG 1.1//EN"
 "http://www.w3.org/Graphics/SVG/1.1/DTD/svg11.dtd">
<!-- Generated by graphviz version 2.30.1 (20170916.1124)
 -->
<!-- Title: mom_variables::thermo_var_ptrs Pages: 1 -->
<svg width="186pt" height="196pt"
 viewBox="0.00 0.00 186.00 196.00" xmlns="http://www.w3.org/2000/svg" xmlns:xlink="http://www.w3.org/1999/xlink">
<g id="graph0" class="graph" transform="scale(1 1) rotate(0) translate(4 192)">
<title>mom_variables::thermo_var_ptrs</title>
<polygon fill="white" stroke="white" points="-4,5 -4,-192 183,-192 183,5 -4,5"/>
<!-- Node1 -->
<g id="node1" class="node"><title>Node1</title>
<g id="a_node1"><a xlink:title=" ">
<polygon fill="#bfbfbf" stroke="black" points="39.5,-1 39.5,-31 140.5,-31 140.5,-1 39.5,-1"/>
<text text-anchor="start" x="47.5" y="-19" font-family="Helvetica,sans-Serif" font-size="10.00">mom_variables::thermo</text>
<text text-anchor="middle" x="90" y="-8" font-family="Helvetica,sans-Serif" font-size="10.00">_var_ptrs</text>
</a>
</g>
</g>
<!-- Node2 -->
<g id="node2" class="node"><title>Node2</title>
<g id="a_node2"><a xlink:title=" ">
<polygon fill="white" stroke="#bfbfbf" points="-0.5,-168.5 -0.5,-187.5 98.5,-187.5 98.5,-168.5 -0.5,-168.5"/>
<text text-anchor="middle" x="49" y="-175.5" font-family="Helvetica,sans-Serif" font-size="10.00">type(eos_type), pointer</text>
</a>
</g>
</g>
<!-- Node2&#45;&gt;Node1 -->
<g id="edge1" class="edge"><title>Node2&#45;&gt;Node1</title>
<path fill="none" stroke="#9a32cd" stroke-dasharray="5,2" d="M47.2576,-158.045C45.6713,-132.414 45.5456,-85.7932 61,-50 64.0233,-42.9978 69.1097,-36.4306 74.1861,-31.0271"/>
<polygon fill="#9a32cd" stroke="#9a32cd" points="43.7842,-158.528 48.0385,-168.231 50.7637,-157.993 43.7842,-158.528"/>
<text text-anchor="middle" x="85.5" y="-97.5" font-family="Helvetica,sans-Serif" font-size="10.00"> eqn_of_state</text>
</g>
<!-- Node3 -->
<g id="node3" class="node"><title>Node3</title>
<g id="a_node3"><a xlink:title=" ">
<polygon fill="white" stroke="#bfbfbf" points="117,-168.5 117,-187.5 147,-187.5 147,-168.5 117,-168.5"/>
<text text-anchor="middle" x="132" y="-175.5" font-family="Helvetica,sans-Serif" font-size="10.00">real</text>
</a>
</g>
</g>
<!-- Node3&#45;&gt;Node1 -->
<g id="edge2" class="edge"><title>Node3&#45;&gt;Node1</title>
<path fill="none" stroke="#9a32cd" stroke-dasharray="5,2" d="M130.944,-158.367C129.03,-133.1 123.81,-86.8921 110,-50 107.557,-43.475 103.799,-36.8053 100.196,-31.1853"/>
<polygon fill="#9a32cd" stroke="#9a32cd" points="127.455,-158.648 131.609,-168.394 134.439,-158.184 127.455,-158.648"/>
<text text-anchor="middle" x="154.5" y="-141.5" font-family="Helvetica,sans-Serif" font-size="10.00"> hml</text>
<text text-anchor="middle" x="154.5" y="-130.5" font-family="Helvetica,sans-Serif" font-size="10.00">salt_deficit</text>
<text text-anchor="middle" x="154.5" y="-119.5" font-family="Helvetica,sans-Serif" font-size="10.00">frazil</text>
<text text-anchor="middle" x="154.5" y="-108.5" font-family="Helvetica,sans-Serif" font-size="10.00">internal_heat</text>
<text text-anchor="middle" x="154.5" y="-97.5" font-family="Helvetica,sans-Serif" font-size="10.00">p_ref</text>
<text text-anchor="middle" x="154.5" y="-86.5" font-family="Helvetica,sans-Serif" font-size="10.00">s</text>
<text text-anchor="middle" x="154.5" y="-75.5" font-family="Helvetica,sans-Serif" font-size="10.00">c_p</text>
<text text-anchor="middle" x="154.5" y="-64.5" font-family="Helvetica,sans-Serif" font-size="10.00">t</text>
<text text-anchor="middle" x="154.5" y="-53.5" font-family="Helvetica,sans-Serif" font-size="10.00">tempxpme</text>
</g>
</g>
</svg>
