<?xml version="1.0" encoding="UTF-8" standalone="no"?>
<!DOCTYPE svg PUBLIC "-//W3C//DTD SVG 1.1//EN"
 "http://www.w3.org/Graphics/SVG/1.1/DTD/svg11.dtd">
<!-- Generated by graphviz version 2.30.1 (20170916.1124)
 -->
<!-- Title: mom_forcing_type::forcing_diags Pages: 1 -->
<svg width="140pt" height="240pt"
 viewBox="0.00 0.00 140.00 240.00" xmlns="http://www.w3.org/2000/svg" xmlns:xlink="http://www.w3.org/1999/xlink">
<g id="graph0" class="graph" transform="scale(1 1) rotate(0) translate(4 236)">
<title>mom_forcing_type::forcing_diags</title>
<polygon fill="white" stroke="white" points="-4,5 -4,-236 137,-236 137,5 -4,5"/>
<!-- Node1 -->
<g id="node1" class="node"><title>Node1</title>
<g id="a_node1"><a xlink:title="Structure that defines the id handles for the forcing type.">
<polygon fill="#bfbfbf" stroke="black" points="-0.5,-1 -0.5,-31 110.5,-31 110.5,-1 -0.5,-1"/>
<text text-anchor="start" x="7.5" y="-19" font-family="Helvetica,sans-Serif" font-size="10.00">mom_forcing_type::forcing</text>
<text text-anchor="middle" x="55" y="-8" font-family="Helvetica,sans-Serif" font-size="10.00">_diags</text>
</a>
</g>
</g>
<!-- Node2 -->
<g id="node2" class="node"><title>Node2</title>
<g id="a_node2"><a xlink:title=" ">
<polygon fill="white" stroke="#bfbfbf" points="34.5,-212.5 34.5,-231.5 75.5,-231.5 75.5,-212.5 34.5,-212.5"/>
<text text-anchor="middle" x="55" y="-219.5" font-family="Helvetica,sans-Serif" font-size="10.00">integer</text>
</a>
</g>
</g>
<!-- Node2&#45;&gt;Node1 -->
<g id="edge1" class="edge"><title>Node2&#45;&gt;Node1</title>
<path fill="none" stroke="#9a32cd" stroke-dasharray="5,2" d="M55,-202.458C55,-162.123 55,-67.1517 55,-31.1615"/>
<polygon fill="#9a32cd" stroke="#9a32cd" points="51.5001,-202.494 55,-212.494 58.5001,-202.494 51.5001,-202.494"/>
<text text-anchor="middle" x="93.5" y="-185.5" font-family="Helvetica,sans-Serif" font-size="10.00"> id_total_saltfluxin</text>
<text text-anchor="middle" x="93.5" y="-174.5" font-family="Helvetica,sans-Serif" font-size="10.00">id_lat_ga</text>
<text text-anchor="start" x="55" y="-163.5" font-family="Helvetica,sans-Serif" font-size="10.00">id_total_heat_content</text>
<text text-anchor="middle" x="93.5" y="-152.5" font-family="Helvetica,sans-Serif" font-size="10.00">_massout</text>
<text text-anchor="middle" x="93.5" y="-141.5" font-family="Helvetica,sans-Serif" font-size="10.00">id_hfrainds</text>
<text text-anchor="start" x="55" y="-130.5" font-family="Helvetica,sans-Serif" font-size="10.00">id_heat_content</text>
<text text-anchor="middle" x="93.5" y="-119.5" font-family="Helvetica,sans-Serif" font-size="10.00">_frunoff</text>
<text text-anchor="middle" x="93.5" y="-108.5" font-family="Helvetica,sans-Serif" font-size="10.00">id_ustar_berg</text>
<text text-anchor="middle" x="93.5" y="-97.5" font-family="Helvetica,sans-Serif" font-size="10.00">id_lwlatsens</text>
<text text-anchor="middle" x="93.5" y="-86.5" font-family="Helvetica,sans-Serif" font-size="10.00">id_lprec_ga</text>
<text text-anchor="middle" x="93.5" y="-75.5" font-family="Helvetica,sans-Serif" font-size="10.00">id_total_precip</text>
<text text-anchor="middle" x="93.5" y="-64.5" font-family="Helvetica,sans-Serif" font-size="10.00">id_frunoff</text>
<text text-anchor="middle" x="93.5" y="-53.5" font-family="Helvetica,sans-Serif" font-size="10.00">...</text>
</g>
</g>
</svg>
