<?xml version="1.0" encoding="UTF-8" standalone="no"?>
<!DOCTYPE svg PUBLIC "-//W3C//DTD SVG 1.1//EN"
 "http://www.w3.org/Graphics/SVG/1.1/DTD/svg11.dtd">
<!-- Generated by graphviz version 2.30.1 (20170916.1124)
 -->
<!-- Title: mom_surface_forcing::surface_forcing_cs Pages: 1 -->
<svg width="360pt" height="1246pt"
 viewBox="0.00 0.00 360.00 1246.45" xmlns="http://www.w3.org/2000/svg" xmlns:xlink="http://www.w3.org/1999/xlink">
<g id="graph0" class="graph" transform="scale(1 1) rotate(0) translate(4 1242.45)">
<title>mom_surface_forcing::surface_forcing_cs</title>
<polygon fill="white" stroke="white" points="-4,5 -4,-1242.45 357,-1242.45 357,5 -4,5"/>
<!-- Node1 -->
<g id="node1" class="node"><title>Node1</title>
<g id="a_node1"><a xlink:title=" ">
<polygon fill="#bfbfbf" stroke="black" points="258,-538.446 258,-568.446 352,-568.446 352,-538.446 258,-538.446"/>
<text text-anchor="start" x="266" y="-556.446" font-family="Helvetica,sans-Serif" font-size="10.00">mom_surface_forcing</text>
<text text-anchor="middle" x="305" y="-545.446" font-family="Helvetica,sans-Serif" font-size="10.00">::surface_forcing_cs</text>
</a>
</g>
</g>
<!-- Node2 -->
<g id="node2" class="node"><title>Node2</title>
<g id="a_node2"><a xlink:title=" ">
<polygon fill="white" stroke="#bfbfbf" points="10,-1205.45 10,-1235.45 104,-1235.45 104,-1205.45 10,-1205.45"/>
<text text-anchor="start" x="18" y="-1223.45" font-family="Helvetica,sans-Serif" font-size="10.00">type(scm_cvmix_tests</text>
<text text-anchor="middle" x="57" y="-1212.45" font-family="Helvetica,sans-Serif" font-size="10.00">_cs), pointer</text>
</a>
</g>
</g>
<!-- Node2&#45;&gt;Node1 -->
<g id="edge1" class="edge"><title>Node2&#45;&gt;Node1</title>
<path fill="none" stroke="#9a32cd" stroke-dasharray="5,2" d="M114.422,-1227.92C155.229,-1229.9 208.522,-1224.81 240,-1191.45 284.215,-1144.59 300.799,-660.75 303.569,-568.57"/>
<polygon fill="#9a32cd" stroke="#9a32cd" points="114.54,-1224.42 104.338,-1227.28 114.095,-1231.41 114.54,-1224.42"/>
<text text-anchor="middle" x="186" y="-1230.45" font-family="Helvetica,sans-Serif" font-size="10.00"> scm_cvmix_tests_csp</text>
</g>
<!-- Node3 -->
<g id="node3" class="node"><title>Node3</title>
<g id="a_node3"><a xlink:title=" ">
<polygon fill="white" stroke="#bfbfbf" points="25,-1166.95 25,-1185.95 89,-1185.95 89,-1166.95 25,-1166.95"/>
<text text-anchor="middle" x="57" y="-1173.95" font-family="Helvetica,sans-Serif" font-size="10.00">forcing_diags</text>
</a>
</g>
</g>
<!-- Node3&#45;&gt;Node1 -->
<g id="edge2" class="edge"><title>Node3&#45;&gt;Node1</title>
<path fill="none" stroke="#9a32cd" stroke-dasharray="5,2" d="M99.3675,-1177.19C146.96,-1177.09 221.004,-1173.71 240,-1154.45 282.497,-1111.34 300.381,-657.652 303.495,-568.574"/>
<polygon fill="#9a32cd" stroke="#9a32cd" points="99.3601,-1173.69 89.3507,-1177.16 99.3413,-1180.69 99.3601,-1173.69"/>
<text text-anchor="middle" x="186" y="-1179.45" font-family="Helvetica,sans-Serif" font-size="10.00"> handles</text>
</g>
<!-- Node4 -->
<g id="node4" class="node"><title>Node4</title>
<g id="a_node4"><a xlink:title=" ">
<polygon fill="white" stroke="#bfbfbf" points="38,-988.946 38,-1007.95 76,-1007.95 76,-988.946 38,-988.946"/>
<text text-anchor="middle" x="57" y="-995.946" font-family="Helvetica,sans-Serif" font-size="10.00">logical</text>
</a>
</g>
</g>
<!-- Node4&#45;&gt;Node1 -->
<g id="edge3" class="edge"><title>Node4&#45;&gt;Node1</title>
<path fill="none" stroke="#9a32cd" stroke-dasharray="5,2" d="M86.2153,-994.361C135.98,-987.035 234.64,-971.916 240,-966.446 296.876,-908.403 303.219,-635.732 303.916,-568.471"/>
<polygon fill="#9a32cd" stroke="#9a32cd" points="85.4941,-990.929 76.1066,-995.841 86.5082,-997.855 85.4941,-990.929"/>
<text text-anchor="middle" x="186" y="-1143.45" font-family="Helvetica,sans-Serif" font-size="10.00"> first_call_set_forcing</text>
<text text-anchor="start" x="142" y="-1132.45" font-family="Helvetica,sans-Serif" font-size="10.00">adjust_net_srestore</text>
<text text-anchor="middle" x="186" y="-1121.45" font-family="Helvetica,sans-Serif" font-size="10.00">_by_scaling</text>
<text text-anchor="middle" x="186" y="-1110.45" font-family="Helvetica,sans-Serif" font-size="10.00">rigid_sea_ice</text>
<text text-anchor="middle" x="186" y="-1099.45" font-family="Helvetica,sans-Serif" font-size="10.00">variable_winds</text>
<text text-anchor="middle" x="186" y="-1088.45" font-family="Helvetica,sans-Serif" font-size="10.00">bulkmixedlayer</text>
<text text-anchor="start" x="142" y="-1077.45" font-family="Helvetica,sans-Serif" font-size="10.00">adjust_net_fresh</text>
<text text-anchor="middle" x="186" y="-1066.45" font-family="Helvetica,sans-Serif" font-size="10.00">_water_to_zero</text>
<text text-anchor="middle" x="186" y="-1055.45" font-family="Helvetica,sans-Serif" font-size="10.00">restorebuoy</text>
<text text-anchor="start" x="142" y="-1044.45" font-family="Helvetica,sans-Serif" font-size="10.00">mask_srestore_marginal</text>
<text text-anchor="middle" x="186" y="-1033.45" font-family="Helvetica,sans-Serif" font-size="10.00">_seas</text>
<text text-anchor="middle" x="186" y="-1022.45" font-family="Helvetica,sans-Serif" font-size="10.00">use_limited_p_ssh</text>
<text text-anchor="start" x="142" y="-1011.45" font-family="Helvetica,sans-Serif" font-size="10.00">mask_srestore_under</text>
<text text-anchor="middle" x="186" y="-1000.45" font-family="Helvetica,sans-Serif" font-size="10.00">_ice</text>
<text text-anchor="middle" x="186" y="-989.446" font-family="Helvetica,sans-Serif" font-size="10.00">...</text>
</g>
<!-- Node5 -->
<g id="node5" class="node"><title>Node5</title>
<g id="a_node5"><a xlink:title=" ">
<polygon fill="white" stroke="#bfbfbf" points="2,-939.446 2,-969.446 112,-969.446 112,-939.446 2,-939.446"/>
<text text-anchor="start" x="10" y="-957.446" font-family="Helvetica,sans-Serif" font-size="10.00">type(user_surface_forcing</text>
<text text-anchor="middle" x="57" y="-946.446" font-family="Helvetica,sans-Serif" font-size="10.00">_cs), pointer</text>
</a>
</g>
</g>
<!-- Node5&#45;&gt;Node1 -->
<g id="edge4" class="edge"><title>Node5&#45;&gt;Node1</title>
<path fill="none" stroke="#9a32cd" stroke-dasharray="5,2" d="M122.504,-952.328C167.972,-949.432 223.572,-942.592 240,-926.446 292.013,-875.323 301.945,-632.365 303.666,-568.731"/>
<polygon fill="#9a32cd" stroke="#9a32cd" points="122.162,-948.842 112.383,-952.919 122.57,-955.83 122.162,-948.842"/>
<text text-anchor="middle" x="186" y="-954.446" font-family="Helvetica,sans-Serif" font-size="10.00"> user_forcing_csp</text>
</g>
<!-- Node6 -->
<g id="node6" class="node"><title>Node6</title>
<g id="a_node6"><a xlink:title=" ">
<polygon fill="white" stroke="#bfbfbf" points="5.5,-890.446 5.5,-920.446 108.5,-920.446 108.5,-890.446 5.5,-890.446"/>
<text text-anchor="start" x="13.5" y="-908.446" font-family="Helvetica,sans-Serif" font-size="10.00">type(tracer_flow_control</text>
<text text-anchor="middle" x="57" y="-897.446" font-family="Helvetica,sans-Serif" font-size="10.00">_cs), pointer</text>
</a>
</g>
</g>
<!-- Node6&#45;&gt;Node1 -->
<g id="edge5" class="edge"><title>Node6&#45;&gt;Node1</title>
<path fill="none" stroke="#9a32cd" stroke-dasharray="5,2" d="M118.994,-910.966C164.74,-913.698 222.376,-913.683 240,-898.446 290.921,-854.42 301.62,-629.294 303.594,-568.56"/>
<polygon fill="#9a32cd" stroke="#9a32cd" points="119.047,-907.463 108.841,-910.305 118.592,-914.448 119.047,-907.463"/>
<text text-anchor="middle" x="186" y="-914.446" font-family="Helvetica,sans-Serif" font-size="10.00"> tracer_flow_csp</text>
</g>
<!-- Node7 -->
<g id="node7" class="node"><title>Node7</title>
<g id="a_node7"><a xlink:title=" ">
<polygon fill="white" stroke="#bfbfbf" points="14.5,-771.946 14.5,-790.946 99.5,-790.946 99.5,-771.946 14.5,-771.946"/>
<text text-anchor="middle" x="57" y="-778.946" font-family="Helvetica,sans-Serif" font-size="10.00">character(len=200)</text>
</a>
</g>
</g>
<!-- Node7&#45;&gt;Node1 -->
<g id="edge6" class="edge"><title>Node7&#45;&gt;Node1</title>
<path fill="none" stroke="#9a32cd" stroke-dasharray="5,2" d="M109.65,-779.151C156.435,-776.039 220.879,-768.842 240,-752.446 296.339,-704.135 303.508,-606.021 304.112,-568.501"/>
<polygon fill="#9a32cd" stroke="#9a32cd" points="109.425,-775.658 99.6614,-779.772 109.859,-782.644 109.425,-775.658"/>
<text text-anchor="middle" x="186" y="-889.446" font-family="Helvetica,sans-Serif" font-size="10.00"> freshdischarge_file</text>
<text text-anchor="middle" x="186" y="-878.446" font-family="Helvetica,sans-Serif" font-size="10.00">shortwaveup_file</text>
<text text-anchor="middle" x="186" y="-867.446" font-family="Helvetica,sans-Serif" font-size="10.00">runoff_file</text>
<text text-anchor="middle" x="186" y="-856.446" font-family="Helvetica,sans-Serif" font-size="10.00">latentheat_file</text>
<text text-anchor="middle" x="186" y="-845.446" font-family="Helvetica,sans-Serif" font-size="10.00">shortwave_file</text>
<text text-anchor="middle" x="186" y="-834.446" font-family="Helvetica,sans-Serif" font-size="10.00">salinityrestore_file</text>
<text text-anchor="middle" x="186" y="-823.446" font-family="Helvetica,sans-Serif" font-size="10.00">evaporation_file</text>
<text text-anchor="middle" x="186" y="-812.446" font-family="Helvetica,sans-Serif" font-size="10.00">temp_restore_file</text>
<text text-anchor="middle" x="186" y="-801.446" font-family="Helvetica,sans-Serif" font-size="10.00">snow_file</text>
<text text-anchor="middle" x="186" y="-790.446" font-family="Helvetica,sans-Serif" font-size="10.00">sensibleheat_file</text>
<text text-anchor="middle" x="186" y="-779.446" font-family="Helvetica,sans-Serif" font-size="10.00">...</text>
</g>
<!-- Node8 -->
<g id="node8" class="node"><title>Node8</title>
<g id="a_node8"><a xlink:title=" ">
<polygon fill="white" stroke="#bfbfbf" points="4.5,-722.446 4.5,-752.446 109.5,-752.446 109.5,-722.446 4.5,-722.446"/>
<text text-anchor="start" x="12.5" y="-740.446" font-family="Helvetica,sans-Serif" font-size="10.00">type(bfb_surface_forcing</text>
<text text-anchor="middle" x="57" y="-729.446" font-family="Helvetica,sans-Serif" font-size="10.00">_cs), pointer</text>
</a>
</g>
</g>
<!-- Node8&#45;&gt;Node1 -->
<g id="edge7" class="edge"><title>Node8&#45;&gt;Node1</title>
<path fill="none" stroke="#9a32cd" stroke-dasharray="5,2" d="M119.745,-738.481C164.972,-738.005 221.548,-734.443 240,-720.446 289.474,-682.915 300.707,-602.097 303.255,-568.535"/>
<polygon fill="#9a32cd" stroke="#9a32cd" points="119.678,-734.982 109.699,-738.54 119.719,-741.982 119.678,-734.982"/>
<text text-anchor="middle" x="186" y="-740.446" font-family="Helvetica,sans-Serif" font-size="10.00"> bfb_forcing_csp</text>
</g>
<!-- Node9 -->
<g id="node9" class="node"><title>Node9</title>
<g id="a_node9"><a xlink:title=" ">
<polygon fill="white" stroke="#bfbfbf" points="17,-590.946 17,-609.946 97,-609.946 97,-590.946 17,-590.946"/>
<text text-anchor="middle" x="57" y="-597.946" font-family="Helvetica,sans-Serif" font-size="10.00">character(len=80)</text>
</a>
</g>
</g>
<!-- Node9&#45;&gt;Node1 -->
<g id="edge8" class="edge"><title>Node9&#45;&gt;Node1</title>
<path fill="none" stroke="#9a32cd" stroke-dasharray="5,2" d="M107.122,-591.06C150.996,-582.678 214.791,-570.49 257.762,-562.28"/>
<polygon fill="#9a32cd" stroke="#9a32cd" points="106.417,-587.632 97.2514,-592.946 107.731,-594.507 106.417,-587.632"/>
<text text-anchor="middle" x="186" y="-709.446" font-family="Helvetica,sans-Serif" font-size="10.00"> snow_var</text>
<text text-anchor="middle" x="186" y="-698.446" font-family="Helvetica,sans-Serif" font-size="10.00">lw_var</text>
<text text-anchor="middle" x="186" y="-687.446" font-family="Helvetica,sans-Serif" font-size="10.00">rain_var</text>
<text text-anchor="middle" x="186" y="-676.446" font-family="Helvetica,sans-Serif" font-size="10.00">sens_var</text>
<text text-anchor="middle" x="186" y="-665.446" font-family="Helvetica,sans-Serif" font-size="10.00">latent_var</text>
<text text-anchor="middle" x="186" y="-654.446" font-family="Helvetica,sans-Serif" font-size="10.00">ustar_var</text>
<text text-anchor="start" x="166" y="-643.446" font-family="Helvetica,sans-Serif" font-size="10.00">sst_restore</text>
<text text-anchor="middle" x="186" y="-632.446" font-family="Helvetica,sans-Serif" font-size="10.00">_var</text>
<text text-anchor="middle" x="186" y="-621.446" font-family="Helvetica,sans-Serif" font-size="10.00">frunoff_var</text>
<text text-anchor="middle" x="186" y="-610.446" font-family="Helvetica,sans-Serif" font-size="10.00">sw_var</text>
<text text-anchor="middle" x="186" y="-599.446" font-family="Helvetica,sans-Serif" font-size="10.00">lrunoff_var</text>
<text text-anchor="middle" x="186" y="-588.446" font-family="Helvetica,sans-Serif" font-size="10.00">...</text>
</g>
<!-- Node10 -->
<g id="node10" class="node"><title>Node10</title>
<g id="a_node10"><a xlink:title=" ">
<polygon fill="white" stroke="#bfbfbf" points="9.5,-541.446 9.5,-571.446 104.5,-571.446 104.5,-541.446 9.5,-541.446"/>
<text text-anchor="start" x="17.5" y="-559.446" font-family="Helvetica,sans-Serif" font-size="10.00">type(mom_restart_cs)</text>
<text text-anchor="middle" x="57" y="-548.446" font-family="Helvetica,sans-Serif" font-size="10.00">, pointer</text>
</a>
</g>
</g>
<!-- Node10&#45;&gt;Node1 -->
<g id="edge9" class="edge"><title>Node10&#45;&gt;Node1</title>
<path fill="none" stroke="#9a32cd" stroke-dasharray="5,2" d="M114.912,-554.785C120.684,-554.654 126.458,-554.537 132,-554.446 174.547,-553.747 223.021,-553.516 257.641,-553.449"/>
<polygon fill="#9a32cd" stroke="#9a32cd" points="114.489,-551.295 104.577,-555.036 114.659,-558.292 114.489,-551.295"/>
<text text-anchor="middle" x="186" y="-557.446" font-family="Helvetica,sans-Serif" font-size="10.00"> restart_csp</text>
</g>
<!-- Node11 -->
<g id="node11" class="node"><title>Node11</title>
<g id="a_node11"><a xlink:title=" ">
<polygon fill="white" stroke="#bfbfbf" points="17,-502.946 17,-521.946 97,-521.946 97,-502.946 17,-502.946"/>
<text text-anchor="middle" x="57" y="-509.946" font-family="Helvetica,sans-Serif" font-size="10.00">character(len=30)</text>
</a>
</g>
</g>
<!-- Node11&#45;&gt;Node1 -->
<g id="edge10" class="edge"><title>Node11&#45;&gt;Node1</title>
<path fill="none" stroke="#9a32cd" stroke-dasharray="5,2" d="M107.223,-512.999C144.186,-514.32 195.821,-518.099 240,-528.446 250.221,-530.839 260.977,-534.541 270.693,-538.369"/>
<polygon fill="#9a32cd" stroke="#9a32cd" points="107.309,-509.5 97.2054,-512.688 107.092,-516.497 107.309,-509.5"/>
<text text-anchor="middle" x="186" y="-542.446" font-family="Helvetica,sans-Serif" font-size="10.00"> temp_restore_var_name</text>
<text text-anchor="middle" x="186" y="-531.446" font-family="Helvetica,sans-Serif" font-size="10.00">salt_restore_var_name</text>
</g>
<!-- Node12 -->
<g id="node12" class="node"><title>Node12</title>
<g id="a_node12"><a xlink:title=" ">
<polygon fill="white" stroke="#bfbfbf" points="33.5,-464.946 33.5,-483.946 80.5,-483.946 80.5,-464.946 33.5,-464.946"/>
<text text-anchor="middle" x="57" y="-471.946" font-family="Helvetica,sans-Serif" font-size="10.00">diag_ctrl</text>
</a>
</g>
</g>
<!-- Node12&#45;&gt;Node1 -->
<g id="edge11" class="edge"><title>Node12&#45;&gt;Node1</title>
<path fill="none" stroke="#9a32cd" stroke-dasharray="5,2" d="M91.0432,-473.558C128.704,-473.75 191.334,-477.789 240,-499.446 260.189,-508.429 278.966,-525.782 290.89,-538.398"/>
<polygon fill="#9a32cd" stroke="#9a32cd" points="90.6435,-470.059 80.6579,-473.6 90.6721,-477.059 90.6435,-470.059"/>
<text text-anchor="middle" x="186" y="-502.446" font-family="Helvetica,sans-Serif" font-size="10.00"> diag</text>
</g>
<!-- Node13 -->
<g id="node13" class="node"><title>Node13</title>
<g id="a_node13"><a xlink:title=" ">
<polygon fill="white" stroke="#bfbfbf" points="19,-426.946 19,-445.946 95,-445.946 95,-426.946 19,-426.946"/>
<text text-anchor="middle" x="57" y="-433.946" font-family="Helvetica,sans-Serif" font-size="10.00">character(len=8)</text>
</a>
</g>
</g>
<!-- Node13&#45;&gt;Node1 -->
<g id="edge12" class="edge"><title>Node13&#45;&gt;Node1</title>
<path fill="none" stroke="#9a32cd" stroke-dasharray="5,2" d="M105.092,-432.531C144.03,-431.547 199.335,-435.537 240,-460.446 269.917,-478.771 289.287,-516.938 298.233,-538.239"/>
<polygon fill="#9a32cd" stroke="#9a32cd" points="104.93,-429.035 95.067,-432.903 105.19,-436.03 104.93,-429.035"/>
<text text-anchor="middle" x="186" y="-463.446" font-family="Helvetica,sans-Serif" font-size="10.00"> wind_stagger</text>
</g>
<!-- Node14 -->
<g id="node14" class="node"><title>Node14</title>
<g id="a_node14"><a xlink:title=" ">
<polygon fill="white" stroke="#bfbfbf" points="7.5,-377.446 7.5,-407.446 106.5,-407.446 106.5,-377.446 7.5,-377.446"/>
<text text-anchor="start" x="15.5" y="-395.446" font-family="Helvetica,sans-Serif" font-size="10.00">type(scm_idealized</text>
<text text-anchor="middle" x="57" y="-384.446" font-family="Helvetica,sans-Serif" font-size="10.00">_hurricane_cs), pointer</text>
</a>
</g>
</g>
<!-- Node14&#45;&gt;Node1 -->
<g id="edge13" class="edge"><title>Node14&#45;&gt;Node1</title>
<path fill="none" stroke="#9a32cd" stroke-dasharray="5,2" d="M116.786,-387.261C155.309,-386.903 204.853,-392.549 240,-418.446 280.302,-448.14 296.212,-509.791 301.602,-538.337"/>
<polygon fill="#9a32cd" stroke="#9a32cd" points="116.658,-383.763 106.74,-387.49 116.818,-390.761 116.658,-383.763"/>
<text text-anchor="middle" x="186" y="-421.446" font-family="Helvetica,sans-Serif" font-size="10.00"> scm_idealized_hurricane_csp</text>
</g>
<!-- Node15 -->
<g id="node15" class="node"><title>Node15</title>
<g id="a_node15"><a xlink:title=" ">
<polygon fill="white" stroke="#bfbfbf" points="0.5,-328.446 0.5,-358.446 113.5,-358.446 113.5,-328.446 0.5,-328.446"/>
<text text-anchor="start" x="8.5" y="-346.446" font-family="Helvetica,sans-Serif" font-size="10.00">type(meso_surface_forcing</text>
<text text-anchor="middle" x="57" y="-335.446" font-family="Helvetica,sans-Serif" font-size="10.00">_cs), pointer</text>
</a>
</g>
</g>
<!-- Node15&#45;&gt;Node1 -->
<g id="edge14" class="edge"><title>Node15&#45;&gt;Node1</title>
<path fill="none" stroke="#9a32cd" stroke-dasharray="5,2" d="M124.234,-338.701C162.097,-339.501 208.222,-346.881 240,-373.446 291.275,-416.308 301.483,-503.213 303.505,-538.273"/>
<polygon fill="#9a32cd" stroke="#9a32cd" points="123.813,-335.199 113.792,-338.64 123.772,-342.199 123.813,-335.199"/>
<text text-anchor="middle" x="186" y="-376.446" font-family="Helvetica,sans-Serif" font-size="10.00"> meso_forcing_csp</text>
</g>
<!-- Node16 -->
<g id="node16" class="node"><title>Node16</title>
<g id="a_node16"><a xlink:title=" ">
<polygon fill="white" stroke="#bfbfbf" points="5,-279.446 5,-309.446 109,-309.446 109,-279.446 5,-279.446"/>
<text text-anchor="start" x="13" y="-297.446" font-family="Helvetica,sans-Serif" font-size="10.00">type(user_revise_forcing</text>
<text text-anchor="middle" x="57" y="-286.446" font-family="Helvetica,sans-Serif" font-size="10.00">_cs), pointer</text>
</a>
</g>
</g>
<!-- Node16&#45;&gt;Node1 -->
<g id="edge15" class="edge"><title>Node16&#45;&gt;Node1</title>
<path fill="none" stroke="#9a32cd" stroke-dasharray="5,2" d="M119.457,-297.594C165.15,-301.186 222.486,-308.747 240,-324.446 272.66,-353.722 295.197,-492.183 301.913,-538.392"/>
<polygon fill="#9a32cd" stroke="#9a32cd" points="119.542,-294.091 109.312,-296.845 119.027,-301.072 119.542,-294.091"/>
<text text-anchor="middle" x="186" y="-327.446" font-family="Helvetica,sans-Serif" font-size="10.00"> urf_cs</text>
</g>
<!-- Node17 -->
<g id="node17" class="node"><title>Node17</title>
<g id="a_node17"><a xlink:title=" ">
<polygon fill="white" stroke="#bfbfbf" points="42,-152.946 42,-171.946 72,-171.946 72,-152.946 42,-152.946"/>
<text text-anchor="middle" x="57" y="-159.946" font-family="Helvetica,sans-Serif" font-size="10.00">real</text>
</a>
</g>
</g>
<!-- Node17&#45;&gt;Node1 -->
<g id="edge16" class="edge"><title>Node17&#45;&gt;Node1</title>
<path fill="none" stroke="#9a32cd" stroke-dasharray="5,2" d="M82.2845,-158.885C126.328,-153.009 216.963,-143.772 240,-163.446 298.176,-213.129 303.562,-472.188 303.984,-538.151"/>
<polygon fill="#9a32cd" stroke="#9a32cd" points="81.5858,-155.448 72.1603,-160.287 82.5459,-162.382 81.5858,-155.448"/>
<text text-anchor="middle" x="186" y="-287.446" font-family="Helvetica,sans-Serif" font-size="10.00"> wind_scale</text>
<text text-anchor="middle" x="186" y="-276.446" font-family="Helvetica,sans-Serif" font-size="10.00">gyres_taux_const</text>
<text text-anchor="middle" x="186" y="-265.446" font-family="Helvetica,sans-Serif" font-size="10.00">flux_const</text>
<text text-anchor="middle" x="186" y="-254.446" font-family="Helvetica,sans-Serif" font-size="10.00">kv_sea_ice</text>
<text text-anchor="middle" x="186" y="-243.446" font-family="Helvetica,sans-Serif" font-size="10.00">latent_heat_fusion</text>
<text text-anchor="middle" x="186" y="-232.446" font-family="Helvetica,sans-Serif" font-size="10.00">gyres_taux_n_pis</text>
<text text-anchor="middle" x="186" y="-221.446" font-family="Helvetica,sans-Serif" font-size="10.00">gyres_taux_sin_amp</text>
<text text-anchor="middle" x="186" y="-210.446" font-family="Helvetica,sans-Serif" font-size="10.00">dens_restore</text>
<text text-anchor="middle" x="186" y="-199.446" font-family="Helvetica,sans-Serif" font-size="10.00">tau_y0</text>
<text text-anchor="start" x="149" y="-188.446" font-family="Helvetica,sans-Serif" font-size="10.00">gyres_taux_cos</text>
<text text-anchor="middle" x="186" y="-177.446" font-family="Helvetica,sans-Serif" font-size="10.00">_amp</text>
<text text-anchor="middle" x="186" y="-166.446" font-family="Helvetica,sans-Serif" font-size="10.00">...</text>
</g>
<!-- Node18 -->
<g id="node18" class="node"><title>Node18</title>
<g id="a_node18"><a xlink:title=" ">
<polygon fill="white" stroke="#bfbfbf" points="36.5,-8.94553 36.5,-27.9455 77.5,-27.9455 77.5,-8.94553 36.5,-8.94553"/>
<text text-anchor="middle" x="57" y="-15.9455" font-family="Helvetica,sans-Serif" font-size="10.00">integer</text>
</a>
</g>
</g>
<!-- Node18&#45;&gt;Node1 -->
<g id="edge17" class="edge"><title>Node18&#45;&gt;Node1</title>
<path fill="none" stroke="#9a32cd" stroke-dasharray="5,2" d="M87.2192,-9.68073C127.26,0.339157 198.886,10.8227 240,-27.4455 278.551,-63.3279 299.344,-455.912 303.301,-538.324"/>
<polygon fill="#9a32cd" stroke="#9a32cd" points="86.2894,-6.30626 77.5218,-12.2544 88.085,-13.072 86.2894,-6.30626"/>
<text text-anchor="middle" x="186" y="-140.446" font-family="Helvetica,sans-Serif" font-size="10.00"> sss_last_lev</text>
<text text-anchor="middle" x="186" y="-129.446" font-family="Helvetica,sans-Serif" font-size="10.00">wind_nlev</text>
<text text-anchor="middle" x="186" y="-118.446" font-family="Helvetica,sans-Serif" font-size="10.00">sw_last_lev</text>
<text text-anchor="middle" x="186" y="-107.446" font-family="Helvetica,sans-Serif" font-size="10.00">id_trestore</text>
<text text-anchor="middle" x="186" y="-96.4455" font-family="Helvetica,sans-Serif" font-size="10.00">lw_nlev</text>
<text text-anchor="middle" x="186" y="-85.4455" font-family="Helvetica,sans-Serif" font-size="10.00">id_srestore</text>
<text text-anchor="middle" x="186" y="-74.4455" font-family="Helvetica,sans-Serif" font-size="10.00">sst_nlev</text>
<text text-anchor="middle" x="186" y="-63.4455" font-family="Helvetica,sans-Serif" font-size="10.00">wind_stagger</text>
<text text-anchor="middle" x="186" y="-52.4455" font-family="Helvetica,sans-Serif" font-size="10.00">precip_last_lev</text>
<text text-anchor="middle" x="186" y="-41.4455" font-family="Helvetica,sans-Serif" font-size="10.00">sss_nlev</text>
<text text-anchor="middle" x="186" y="-30.4455" font-family="Helvetica,sans-Serif" font-size="10.00">...</text>
</g>
</g>
</svg>
