<?xml version="1.0" encoding="UTF-8" standalone="no"?>
<!DOCTYPE svg PUBLIC "-//W3C//DTD SVG 1.1//EN"
 "http://www.w3.org/Graphics/SVG/1.1/DTD/svg11.dtd">
<!-- Generated by graphviz version 2.30.1 (20170916.1124)
 -->
<!-- Title: mom_grid_initialize::gps Pages: 1 -->
<svg width="228pt" height="172pt"
 viewBox="0.00 0.00 228.00 172.00" xmlns="http://www.w3.org/2000/svg" xmlns:xlink="http://www.w3.org/1999/xlink">
<g id="graph0" class="graph" transform="scale(1 1) rotate(0) translate(4 168)">
<title>mom_grid_initialize::gps</title>
<polygon fill="white" stroke="white" points="-4,5 -4,-168 225,-168 225,5 -4,5"/>
<!-- Node1 -->
<g id="node1" class="node"><title>Node1</title>
<g id="a_node1"><a xlink:title=" ">
<polygon fill="#bfbfbf" stroke="black" points="58.5,-0.5 58.5,-19.5 159.5,-19.5 159.5,-0.5 58.5,-0.5"/>
<text text-anchor="middle" x="109" y="-7.5" font-family="Helvetica,sans-Serif" font-size="10.00">mom_grid_initialize::gps</text>
</a>
</g>
</g>
<!-- Node2 -->
<g id="node2" class="node"><title>Node2</title>
<g id="a_node2"><a xlink:title=" ">
<polygon fill="white" stroke="#bfbfbf" points="0,-144.5 0,-163.5 38,-163.5 38,-144.5 0,-144.5"/>
<text text-anchor="middle" x="19" y="-151.5" font-family="Helvetica,sans-Serif" font-size="10.00">logical</text>
</a>
</g>
</g>
<!-- Node2&#45;&gt;Node1 -->
<g id="edge1" class="edge"><title>Node2&#45;&gt;Node1</title>
<path fill="none" stroke="#9a32cd" stroke-dasharray="5,2" d="M16.7768,-134.084C14.9316,-109.209 15.548,-65.4502 38,-38 45.0134,-29.4253 55.0685,-23.5708 65.4142,-19.5745"/>
<polygon fill="#9a32cd" stroke="#9a32cd" points="13.3219,-134.723 17.7617,-144.342 20.2898,-134.054 13.3219,-134.723"/>
<text text-anchor="middle" x="71.5" y="-85" font-family="Helvetica,sans-Serif" font-size="10.00"> isotropic</text>
<text text-anchor="middle" x="71.5" y="-74" font-family="Helvetica,sans-Serif" font-size="10.00">equator_reference</text>
</g>
<!-- Node3 -->
<g id="node3" class="node"><title>Node3</title>
<g id="a_node3"><a xlink:title=" ">
<polygon fill="white" stroke="#bfbfbf" points="88.5,-144.5 88.5,-163.5 129.5,-163.5 129.5,-144.5 88.5,-144.5"/>
<text text-anchor="middle" x="109" y="-151.5" font-family="Helvetica,sans-Serif" font-size="10.00">integer</text>
</a>
</g>
</g>
<!-- Node3&#45;&gt;Node1 -->
<g id="edge2" class="edge"><title>Node3&#45;&gt;Node1</title>
<path fill="none" stroke="#9a32cd" stroke-dasharray="5,2" d="M109,-134.107C109,-102.929 109,-41.926 109,-19.5184"/>
<polygon fill="#9a32cd" stroke="#9a32cd" points="105.5,-134.117 109,-144.117 112.5,-134.117 105.5,-134.117"/>
<text text-anchor="middle" x="124" y="-85" font-family="Helvetica,sans-Serif" font-size="10.00"> niglobal</text>
<text text-anchor="middle" x="124" y="-74" font-family="Helvetica,sans-Serif" font-size="10.00">njglobal</text>
</g>
<!-- Node4 -->
<g id="node4" class="node"><title>Node4</title>
<g id="a_node4"><a xlink:title=" ">
<polygon fill="white" stroke="#bfbfbf" points="148,-144.5 148,-163.5 178,-163.5 178,-144.5 148,-144.5"/>
<text text-anchor="middle" x="163" y="-151.5" font-family="Helvetica,sans-Serif" font-size="10.00">real</text>
</a>
</g>
</g>
<!-- Node4&#45;&gt;Node1 -->
<g id="edge3" class="edge"><title>Node4&#45;&gt;Node1</title>
<path fill="none" stroke="#9a32cd" stroke-dasharray="5,2" d="M163.16,-134.034C162.553,-110.07 158.735,-68.3043 141,-38 136.668,-30.5972 129.53,-24.2823 123.094,-19.6253"/>
<polygon fill="#9a32cd" stroke="#9a32cd" points="159.662,-134.27 163.248,-144.239 166.662,-134.21 159.662,-134.27"/>
<text text-anchor="middle" x="191" y="-118" font-family="Helvetica,sans-Serif" font-size="10.00"> west_lon</text>
<text text-anchor="middle" x="191" y="-107" font-family="Helvetica,sans-Serif" font-size="10.00">lat_eq_enhance</text>
<text text-anchor="middle" x="191" y="-96" font-family="Helvetica,sans-Serif" font-size="10.00">len_lon</text>
<text text-anchor="middle" x="191" y="-85" font-family="Helvetica,sans-Serif" font-size="10.00">south_lat</text>
<text text-anchor="middle" x="191" y="-74" font-family="Helvetica,sans-Serif" font-size="10.00">len_lat</text>
<text text-anchor="middle" x="191" y="-63" font-family="Helvetica,sans-Serif" font-size="10.00">rad_earth</text>
<text text-anchor="start" x="162" y="-52" font-family="Helvetica,sans-Serif" font-size="10.00">lat_enhance</text>
<text text-anchor="middle" x="191" y="-41" font-family="Helvetica,sans-Serif" font-size="10.00">_factor</text>
</g>
</g>
</svg>
