<?xml version="1.0" encoding="UTF-8" standalone="no"?>
<!DOCTYPE svg PUBLIC "-//W3C//DTD SVG 1.1//EN"
 "http://www.w3.org/Graphics/SVG/1.1/DTD/svg11.dtd">
<!-- Generated by graphviz version 2.30.1 (20170916.1124)
 -->
<!-- Title: mom_dyn_horgrid::dyn_horgrid_type Pages: 1 -->
<svg width="488pt" height="230pt"
 viewBox="0.00 0.00 488.00 230.00" xmlns="http://www.w3.org/2000/svg" xmlns:xlink="http://www.w3.org/1999/xlink">
<g id="graph0" class="graph" transform="scale(1 1) rotate(0) translate(4 226)">
<title>mom_dyn_horgrid::dyn_horgrid_type</title>
<polygon fill="white" stroke="white" points="-4,5 -4,-226 485,-226 485,5 -4,5"/>
<!-- Node1 -->
<g id="node1" class="node"><title>Node1</title>
<g id="a_node1"><a xlink:title=" ">
<polygon fill="#bfbfbf" stroke="black" points="184.5,-1 184.5,-31 283.5,-31 283.5,-1 184.5,-1"/>
<text text-anchor="start" x="192.5" y="-19" font-family="Helvetica,sans-Serif" font-size="10.00">mom_dyn_horgrid::dyn</text>
<text text-anchor="middle" x="234" y="-8" font-family="Helvetica,sans-Serif" font-size="10.00">_horgrid_type</text>
</a>
</g>
</g>
<!-- Node2 -->
<g id="node2" class="node"><title>Node2</title>
<g id="a_node2"><a xlink:title=" ">
<polygon fill="white" stroke="#bfbfbf" points="0,-196.5 0,-215.5 38,-215.5 38,-196.5 0,-196.5"/>
<text text-anchor="middle" x="19" y="-203.5" font-family="Helvetica,sans-Serif" font-size="10.00">logical</text>
</a>
</g>
</g>
<!-- Node2&#45;&gt;Node1 -->
<g id="edge1" class="edge"><title>Node2&#45;&gt;Node1</title>
<path fill="none" stroke="#9a32cd" stroke-dasharray="5,2" d="M14.2007,-186.261C7.1431,-153.88 -1.7275,-87.3467 33,-50 52.9871,-28.5055 131.568,-21.0111 184.35,-18.3983"/>
<polygon fill="#9a32cd" stroke="#9a32cd" points="10.8402,-187.259 16.547,-196.186 17.6525,-185.649 10.8402,-187.259"/>
<text text-anchor="middle" x="72" y="-119.5" font-family="Helvetica,sans-Serif" font-size="10.00"> nonblocking_updates</text>
<text text-anchor="middle" x="72" y="-108.5" font-family="Helvetica,sans-Serif" font-size="10.00">bathymetry_at_vel</text>
<text text-anchor="middle" x="72" y="-97.5" font-family="Helvetica,sans-Serif" font-size="10.00">symmetric</text>
</g>
<!-- Node3 -->
<g id="node3" class="node"><title>Node3</title>
<g id="a_node3"><a xlink:title=" ">
<polygon fill="white" stroke="#bfbfbf" points="70.5,-196.5 70.5,-215.5 141.5,-215.5 141.5,-196.5 70.5,-196.5"/>
<text text-anchor="middle" x="106" y="-203.5" font-family="Helvetica,sans-Serif" font-size="10.00">hor_index_type</text>
</a>
</g>
</g>
<!-- Node3&#45;&gt;Node1 -->
<g id="edge2" class="edge"><title>Node3&#45;&gt;Node1</title>
<path fill="none" stroke="#9a32cd" stroke-dasharray="5,2" d="M110.407,-186.201C118.598,-154.73 138.81,-90.824 176,-50 182.944,-42.3778 192.07,-36.0669 201.021,-31.0767"/>
<polygon fill="#9a32cd" stroke="#9a32cd" points="106.931,-185.677 107.923,-196.225 113.725,-187.36 106.931,-185.677"/>
<text text-anchor="middle" x="180.5" y="-108.5" font-family="Helvetica,sans-Serif" font-size="10.00"> hi</text>
</g>
<!-- Node4 -->
<g id="node4" class="node"><title>Node4</title>
<g id="a_node4"><a xlink:title=" ">
<polygon fill="white" stroke="#bfbfbf" points="160,-196.5 160,-215.5 240,-215.5 240,-196.5 160,-196.5"/>
<text text-anchor="middle" x="200" y="-203.5" font-family="Helvetica,sans-Serif" font-size="10.00">character(len=40)</text>
</a>
</g>
</g>
<!-- Node4&#45;&gt;Node1 -->
<g id="edge3" class="edge"><title>Node4&#45;&gt;Node1</title>
<path fill="none" stroke="#9a32cd" stroke-dasharray="5,2" d="M195.789,-186.603C189.856,-156.636 181.767,-96.0132 201,-50 204,-42.8235 209.39,-36.3888 214.957,-31.1487"/>
<polygon fill="#9a32cd" stroke="#9a32cd" points="192.389,-187.441 197.895,-196.492 199.235,-185.982 192.389,-187.441"/>
<text text-anchor="middle" x="224" y="-114" font-family="Helvetica,sans-Serif" font-size="10.00"> y_axis_units</text>
<text text-anchor="middle" x="224" y="-103" font-family="Helvetica,sans-Serif" font-size="10.00">x_axis_units</text>
</g>
<!-- Node5 -->
<g id="node5" class="node"><title>Node5</title>
<g id="a_node5"><a xlink:title=" ">
<polygon fill="white" stroke="#bfbfbf" points="258,-196.5 258,-215.5 288,-215.5 288,-196.5 258,-196.5"/>
<text text-anchor="middle" x="273" y="-203.5" font-family="Helvetica,sans-Serif" font-size="10.00">real</text>
</a>
</g>
</g>
<!-- Node5&#45;&gt;Node1 -->
<g id="edge4" class="edge"><title>Node5&#45;&gt;Node1</title>
<path fill="none" stroke="#9a32cd" stroke-dasharray="5,2" d="M271.154,-186.415C267.953,-157.045 260.4,-98.2783 247,-50 245.254,-43.7106 242.726,-36.9718 240.361,-31.2341"/>
<polygon fill="#9a32cd" stroke="#9a32cd" points="267.683,-186.88 272.201,-196.464 274.645,-186.154 267.683,-186.88"/>
<text text-anchor="middle" x="291.5" y="-163.5" font-family="Helvetica,sans-Serif" font-size="10.00"> max_depth</text>
<text text-anchor="middle" x="291.5" y="-152.5" font-family="Helvetica,sans-Serif" font-size="10.00">west_lon</text>
<text text-anchor="middle" x="291.5" y="-141.5" font-family="Helvetica,sans-Serif" font-size="10.00">dblock_u</text>
<text text-anchor="middle" x="291.5" y="-130.5" font-family="Helvetica,sans-Serif" font-size="10.00">iareabu</text>
<text text-anchor="middle" x="291.5" y="-119.5" font-family="Helvetica,sans-Serif" font-size="10.00">areat</text>
<text text-anchor="middle" x="291.5" y="-108.5" font-family="Helvetica,sans-Serif" font-size="10.00">dblock_v</text>
<text text-anchor="middle" x="291.5" y="-97.5" font-family="Helvetica,sans-Serif" font-size="10.00">len_lon</text>
<text text-anchor="middle" x="291.5" y="-86.5" font-family="Helvetica,sans-Serif" font-size="10.00">geoloncu</text>
<text text-anchor="middle" x="291.5" y="-75.5" font-family="Helvetica,sans-Serif" font-size="10.00">cos_rot</text>
<text text-anchor="middle" x="291.5" y="-64.5" font-family="Helvetica,sans-Serif" font-size="10.00">sin_rot</text>
<text text-anchor="middle" x="291.5" y="-53.5" font-family="Helvetica,sans-Serif" font-size="10.00">...</text>
</g>
<!-- Node6 -->
<g id="node6" class="node"><title>Node6</title>
<g id="a_node6"><a xlink:title=" ">
<polygon fill="white" stroke="#bfbfbf" points="314.5,-196.5 314.5,-215.5 355.5,-215.5 355.5,-196.5 314.5,-196.5"/>
<text text-anchor="middle" x="335" y="-203.5" font-family="Helvetica,sans-Serif" font-size="10.00">integer</text>
</a>
</g>
</g>
<!-- Node6&#45;&gt;Node1 -->
<g id="edge5" class="edge"><title>Node6&#45;&gt;Node1</title>
<path fill="none" stroke="#9a32cd" stroke-dasharray="5,2" d="M337.839,-186.069C341.494,-154.404 344.089,-90.2192 313,-50 305.546,-40.3568 294.762,-33.5054 283.546,-28.6468"/>
<polygon fill="#9a32cd" stroke="#9a32cd" points="334.346,-185.786 336.505,-196.159 341.286,-186.704 334.346,-185.786"/>
<text text-anchor="middle" x="357.5" y="-163.5" font-family="Helvetica,sans-Serif" font-size="10.00"> iec</text>
<text text-anchor="middle" x="357.5" y="-152.5" font-family="Helvetica,sans-Serif" font-size="10.00">ied</text>
<text text-anchor="middle" x="357.5" y="-141.5" font-family="Helvetica,sans-Serif" font-size="10.00">jec</text>
<text text-anchor="middle" x="357.5" y="-130.5" font-family="Helvetica,sans-Serif" font-size="10.00">jed</text>
<text text-anchor="middle" x="357.5" y="-119.5" font-family="Helvetica,sans-Serif" font-size="10.00">jsgb</text>
<text text-anchor="middle" x="357.5" y="-108.5" font-family="Helvetica,sans-Serif" font-size="10.00">isc</text>
<text text-anchor="middle" x="357.5" y="-97.5" font-family="Helvetica,sans-Serif" font-size="10.00">jdg_offset</text>
<text text-anchor="middle" x="357.5" y="-86.5" font-family="Helvetica,sans-Serif" font-size="10.00">isgb</text>
<text text-anchor="middle" x="357.5" y="-75.5" font-family="Helvetica,sans-Serif" font-size="10.00">ieg</text>
<text text-anchor="middle" x="357.5" y="-64.5" font-family="Helvetica,sans-Serif" font-size="10.00">isd</text>
<text text-anchor="middle" x="357.5" y="-53.5" font-family="Helvetica,sans-Serif" font-size="10.00">...</text>
</g>
<!-- Node7 -->
<g id="node7" class="node"><title>Node7</title>
<g id="a_node7"><a xlink:title=" ">
<polygon fill="white" stroke="#bfbfbf" points="374,-191 374,-221 480,-221 480,-191 374,-191"/>
<text text-anchor="start" x="382" y="-209" font-family="Helvetica,sans-Serif" font-size="10.00">type(mom_domain_type)</text>
<text text-anchor="middle" x="427" y="-198" font-family="Helvetica,sans-Serif" font-size="10.00">, pointer</text>
</a>
</g>
</g>
<!-- Node7&#45;&gt;Node1 -->
<g id="edge6" class="edge"><title>Node7&#45;&gt;Node1</title>
<path fill="none" stroke="#9a32cd" stroke-dasharray="5,2" d="M426.614,-180.474C424.689,-146.16 415.925,-84.2014 379,-50 365.173,-37.193 319.956,-28.2605 283.649,-22.9488"/>
<polygon fill="#9a32cd" stroke="#9a32cd" points="423.122,-180.724 427.026,-190.573 430.116,-180.439 423.122,-180.724"/>
<text text-anchor="middle" x="448" y="-114" font-family="Helvetica,sans-Serif" font-size="10.00"> domain</text>
<text text-anchor="middle" x="448" y="-103" font-family="Helvetica,sans-Serif" font-size="10.00">domain_aux</text>
</g>
</g>
</svg>
