<?xml version="1.0" encoding="UTF-8" standalone="no"?>
<!DOCTYPE svg PUBLIC "-//W3C//DTD SVG 1.1//EN"
 "http://www.w3.org/Graphics/SVG/1.1/DTD/svg11.dtd">
<!-- Generated by graphviz version 2.30.1 (20170916.1124)
 -->
<!-- Title: mom_file_parser::parameter_block Pages: 1 -->
<svg width="126pt" height="108pt"
 viewBox="0.00 0.00 126.00 108.00" xmlns="http://www.w3.org/2000/svg" xmlns:xlink="http://www.w3.org/1999/xlink">
<g id="graph0" class="graph" transform="scale(1 1) rotate(0) translate(4 104)">
<title>mom_file_parser::parameter_block</title>
<polygon fill="white" stroke="white" points="-4,5 -4,-104 123,-104 123,5 -4,5"/>
<!-- Node1 -->
<g id="node1" class="node"><title>Node1</title>
<g id="a_node1"><a xlink:title=" ">
<polygon fill="#bfbfbf" stroke="black" points="-0.5,-1 -0.5,-31 118.5,-31 118.5,-1 -0.5,-1"/>
<text text-anchor="start" x="7.5" y="-19" font-family="Helvetica,sans-Serif" font-size="10.00">mom_file_parser::parameter</text>
<text text-anchor="middle" x="59" y="-8" font-family="Helvetica,sans-Serif" font-size="10.00">_block</text>
</a>
</g>
</g>
<!-- Node2 -->
<g id="node2" class="node"><title>Node2</title>
<g id="a_node2"><a xlink:title=" ">
<polygon fill="white" stroke="#bfbfbf" points="16.5,-80.5 16.5,-99.5 101.5,-99.5 101.5,-80.5 16.5,-80.5"/>
<text text-anchor="middle" x="59" y="-87.5" font-family="Helvetica,sans-Serif" font-size="10.00">character(len=240)</text>
</a>
</g>
</g>
<!-- Node2&#45;&gt;Node1 -->
<g id="edge1" class="edge"><title>Node2&#45;&gt;Node1</title>
<path fill="none" stroke="#9a32cd" stroke-dasharray="5,2" d="M59,-70.0846C59,-57.9148 59,-42.3538 59,-31.2316"/>
<polygon fill="#9a32cd" stroke="#9a32cd" points="55.5001,-70.4579 59,-80.4579 62.5001,-70.4579 55.5001,-70.4579"/>
<text text-anchor="middle" x="70.5" y="-53.5" font-family="Helvetica,sans-Serif" font-size="10.00"> name</text>
</g>
</g>
</svg>
