<?xml version="1.0" encoding="UTF-8" standalone="no"?>
<!DOCTYPE svg PUBLIC "-//W3C//DTD SVG 1.1//EN"
 "http://www.w3.org/Graphics/SVG/1.1/DTD/svg11.dtd">
<!-- Generated by graphviz version 2.30.1 (20170916.1124)
 -->
<!-- Title: mom_tracer_registry::tracer_type Pages: 1 -->
<svg width="236pt" height="218pt"
 viewBox="0.00 0.00 236.00 218.00" xmlns="http://www.w3.org/2000/svg" xmlns:xlink="http://www.w3.org/1999/xlink">
<g id="graph0" class="graph" transform="scale(1 1) rotate(0) translate(4 214)">
<title>mom_tracer_registry::tracer_type</title>
<polygon fill="white" stroke="white" points="-4,5 -4,-214 233,-214 233,5 -4,5"/>
<!-- Node1 -->
<g id="node1" class="node"><title>Node1</title>
<g id="a_node1"><a xlink:title="The tracer type.">
<polygon fill="#bfbfbf" stroke="black" points="56.5,-1 56.5,-31 147.5,-31 147.5,-1 56.5,-1"/>
<text text-anchor="start" x="64.5" y="-19" font-family="Helvetica,sans-Serif" font-size="10.00">mom_tracer_registry</text>
<text text-anchor="middle" x="102" y="-8" font-family="Helvetica,sans-Serif" font-size="10.00">::tracer_type</text>
</a>
</g>
</g>
<!-- Node2 -->
<g id="node2" class="node"><title>Node2</title>
<g id="a_node2"><a xlink:title=" ">
<polygon fill="white" stroke="#bfbfbf" points="0,-190.5 0,-209.5 44,-209.5 44,-190.5 0,-190.5"/>
<text text-anchor="middle" x="22" y="-197.5" font-family="Helvetica,sans-Serif" font-size="10.00">vardesc</text>
</a>
</g>
</g>
<!-- Node2&#45;&gt;Node1 -->
<g id="edge1" class="edge"><title>Node2&#45;&gt;Node1</title>
<path fill="none" stroke="#9a32cd" stroke-dasharray="5,2" d="M29.7829,-180.917C41.8903,-152.841 66.0266,-97.0928 87,-50 89.7652,-43.7912 92.8669,-36.9478 95.5291,-31.1102"/>
<polygon fill="#9a32cd" stroke="#9a32cd" points="26.5058,-179.678 25.7632,-190.246 32.9345,-182.447 26.5058,-179.678"/>
<text text-anchor="middle" x="92.5" y="-108.5" font-family="Helvetica,sans-Serif" font-size="10.00"> vd</text>
</g>
<!-- Node3 -->
<g id="node3" class="node"><title>Node3</title>
<g id="a_node3"><a xlink:title=" ">
<polygon fill="white" stroke="#bfbfbf" points="62,-190.5 62,-209.5 142,-209.5 142,-190.5 62,-190.5"/>
<text text-anchor="middle" x="102" y="-197.5" font-family="Helvetica,sans-Serif" font-size="10.00">character(len=32)</text>
</a>
</g>
</g>
<!-- Node3&#45;&gt;Node1 -->
<g id="edge2" class="edge"><title>Node3&#45;&gt;Node1</title>
<path fill="none" stroke="#9a32cd" stroke-dasharray="5,2" d="M102,-179.933C102,-143.242 102,-63.578 102,-31.1558"/>
<polygon fill="#9a32cd" stroke="#9a32cd" points="98.5001,-180.222 102,-190.222 105.5,-180.222 98.5001,-180.222"/>
<text text-anchor="middle" x="113.5" y="-108.5" font-family="Helvetica,sans-Serif" font-size="10.00"> name</text>
</g>
<!-- Node4 -->
<g id="node4" class="node"><title>Node4</title>
<g id="a_node4"><a xlink:title=" ">
<polygon fill="white" stroke="#bfbfbf" points="160,-190.5 160,-209.5 190,-209.5 190,-190.5 160,-190.5"/>
<text text-anchor="middle" x="175" y="-197.5" font-family="Helvetica,sans-Serif" font-size="10.00">real</text>
</a>
</g>
</g>
<!-- Node4&#45;&gt;Node1 -->
<g id="edge3" class="edge"><title>Node4&#45;&gt;Node1</title>
<path fill="none" stroke="#9a32cd" stroke-dasharray="5,2" d="M171.686,-180.509C165.96,-151.427 152.509,-93.8022 129,-50 125.429,-43.3472 120.418,-36.757 115.68,-31.2357"/>
<polygon fill="#9a32cd" stroke="#9a32cd" points="168.274,-181.303 173.564,-190.483 175.153,-180.008 168.274,-181.303"/>
<text text-anchor="middle" x="198.5" y="-163.5" font-family="Helvetica,sans-Serif" font-size="10.00"> advection_xy</text>
<text text-anchor="middle" x="198.5" y="-152.5" font-family="Helvetica,sans-Serif" font-size="10.00">obc_inflow_conc</text>
<text text-anchor="middle" x="198.5" y="-141.5" font-family="Helvetica,sans-Serif" font-size="10.00">df2d_x</text>
<text text-anchor="middle" x="198.5" y="-130.5" font-family="Helvetica,sans-Serif" font-size="10.00">df2d_y</text>
<text text-anchor="middle" x="198.5" y="-119.5" font-family="Helvetica,sans-Serif" font-size="10.00">df_x</text>
<text text-anchor="middle" x="198.5" y="-108.5" font-family="Helvetica,sans-Serif" font-size="10.00">ad2d_x</text>
<text text-anchor="middle" x="198.5" y="-97.5" font-family="Helvetica,sans-Serif" font-size="10.00">df_y</text>
<text text-anchor="middle" x="198.5" y="-86.5" font-family="Helvetica,sans-Serif" font-size="10.00">ad2d_y</text>
<text text-anchor="middle" x="198.5" y="-75.5" font-family="Helvetica,sans-Serif" font-size="10.00">ad_x</text>
<text text-anchor="middle" x="198.5" y="-64.5" font-family="Helvetica,sans-Serif" font-size="10.00">ad_y</text>
<text text-anchor="middle" x="198.5" y="-53.5" font-family="Helvetica,sans-Serif" font-size="10.00">...</text>
</g>
</g>
</svg>
