<?xml version="1.0" encoding="UTF-8" standalone="no"?>
<!DOCTYPE svg PUBLIC "-//W3C//DTD SVG 1.1//EN"
 "http://www.w3.org/Graphics/SVG/1.1/DTD/svg11.dtd">
<!-- Generated by graphviz version 2.30.1 (20170916.1124)
 -->
<!-- Title: mom_diag_mediator::diag_ctrl Pages: 1 -->
<svg width="672pt" height="655pt"
 viewBox="0.00 0.00 672.00 655.00" xmlns="http://www.w3.org/2000/svg" xmlns:xlink="http://www.w3.org/1999/xlink">
<g id="graph0" class="graph" transform="scale(1 1) rotate(0) translate(4 651)">
<title>mom_diag_mediator::diag_ctrl</title>
<polygon fill="white" stroke="white" points="-4,5 -4,-651 669,-651 669,5 -4,5"/>
<!-- Node1 -->
<g id="node1" class="node"><title>Node1</title>
<g id="a_node1"><a xlink:title="The following data type a list of diagnostic fields an their variants, as well as variables that cont...">
<polygon fill="#bfbfbf" stroke="black" points="194.5,-404 194.5,-434 289.5,-434 289.5,-404 194.5,-404"/>
<text text-anchor="start" x="202.5" y="-422" font-family="Helvetica,sans-Serif" font-size="10.00">mom_diag_mediator::</text>
<text text-anchor="middle" x="242" y="-411" font-family="Helvetica,sans-Serif" font-size="10.00">diag_ctrl</text>
</a>
</g>
</g>
<!-- Node5 -->
<g id="node5" class="node"><title>Node5</title>
<g id="a_node5"><a xlink:href="structmom__diag__mediator_1_1axes__grp.html" target="_top" xlink:title="A group of 1D axes that comprise a 1D/2D/3D mesh.">
<polygon fill="white" stroke="black" points="396.5,-304 396.5,-334 491.5,-334 491.5,-304 396.5,-304"/>
<text text-anchor="start" x="404.5" y="-322" font-family="Helvetica,sans-Serif" font-size="10.00">mom_diag_mediator::</text>
<text text-anchor="middle" x="444" y="-311" font-family="Helvetica,sans-Serif" font-size="10.00">axes_grp</text>
</a>
</g>
</g>
<!-- Node1&#45;&gt;Node5 -->
<g id="edge8" class="edge"><title>Node1&#45;&gt;Node5</title>
<path fill="none" stroke="#9a32cd" stroke-dasharray="5,2" d="M270.333,-439.983C299.834,-459.891 346.777,-483.304 378,-458 408.001,-433.687 378.772,-407.56 396,-373 403.319,-358.317 415.586,-344.419 425.753,-334.4"/>
<polygon fill="#9a32cd" stroke="#9a32cd" points="272.337,-437.113 262.139,-434.24 268.319,-442.845 272.337,-437.113"/>
<text text-anchor="middle" x="343" y="-473" font-family="Helvetica,sans-Serif" font-size="10.00"> diag_cs</text>
</g>
<!-- Node2 -->
<g id="node2" class="node"><title>Node2</title>
<g id="a_node2"><a xlink:title=" ">
<polygon fill="white" stroke="#bfbfbf" points="31,-521.5 31,-540.5 69,-540.5 69,-521.5 31,-521.5"/>
<text text-anchor="middle" x="50" y="-528.5" font-family="Helvetica,sans-Serif" font-size="10.00">logical</text>
</a>
</g>
</g>
<!-- Node2&#45;&gt;Node1 -->
<g id="edge1" class="edge"><title>Node2&#45;&gt;Node1</title>
<path fill="none" stroke="#9a32cd" stroke-dasharray="5,2" d="M78.81,-520.195C110.232,-507.777 159.189,-487.732 176,-477 195.249,-464.711 214.405,-446.74 226.88,-434.066"/>
<polygon fill="#9a32cd" stroke="#9a32cd" points="77.314,-517.023 69.2871,-523.938 79.8744,-523.538 77.314,-517.023"/>
<text text-anchor="middle" x="147" y="-507" font-family="Helvetica,sans-Serif" font-size="10.00"> ave_enabled</text>
</g>
<!-- Node3 -->
<g id="node3" class="node"><title>Node3</title>
<g id="a_node3"><a xlink:href="structmom__diag__mediator_1_1diag__type.html" target="_top" xlink:title="This type is used to represent a diagnostic at the diag_mediator level. There can be both &#39;primary&#39; a...">
<polygon fill="white" stroke="black" points="568.5,-350 568.5,-380 663.5,-380 663.5,-350 568.5,-350"/>
<text text-anchor="start" x="576.5" y="-368" font-family="Helvetica,sans-Serif" font-size="10.00">mom_diag_mediator::</text>
<text text-anchor="middle" x="616" y="-357" font-family="Helvetica,sans-Serif" font-size="10.00">diag_type</text>
</a>
</g>
</g>
<!-- Node2&#45;&gt;Node3 -->
<g id="edge3" class="edge"><title>Node2&#45;&gt;Node3</title>
<path fill="none" stroke="#9a32cd" stroke-dasharray="5,2" d="M67.381,-547.689C92.1631,-571.612 141.853,-614.576 194,-631 234.696,-643.818 249.192,-643.457 290,-631 439.583,-585.338 566.667,-429.447 603.94,-380.105"/>
<polygon fill="#9a32cd" stroke="#9a32cd" points="69.8174,-545.176 60.2385,-540.649 64.9034,-550.162 69.8174,-545.176"/>
<text text-anchor="middle" x="343" y="-639" font-family="Helvetica,sans-Serif" font-size="10.00"> v_extensive</text>
<text text-anchor="middle" x="343" y="-628" font-family="Helvetica,sans-Serif" font-size="10.00">in_use</text>
</g>
<!-- Node2&#45;&gt;Node5 -->
<g id="edge7" class="edge"><title>Node2&#45;&gt;Node5</title>
<path fill="none" stroke="#9a32cd" stroke-dasharray="5,2" d="M79.3349,-531.193C150.92,-531.055 336.31,-526.597 378,-485 413.69,-449.39 374.627,-418.662 396,-373 402.955,-358.141 415.233,-344.249 425.496,-334.276"/>
<polygon fill="#9a32cd" stroke="#9a32cd" points="79.2481,-527.693 69.2451,-531.185 79.2422,-534.693 79.2481,-527.693"/>
<text text-anchor="middle" x="242" y="-619" font-family="Helvetica,sans-Serif" font-size="10.00"> needs_remapping</text>
<text text-anchor="middle" x="242" y="-608" font-family="Helvetica,sans-Serif" font-size="10.00">is_q_point</text>
<text text-anchor="middle" x="242" y="-597" font-family="Helvetica,sans-Serif" font-size="10.00">is_interface</text>
<text text-anchor="middle" x="242" y="-586" font-family="Helvetica,sans-Serif" font-size="10.00">is_u_point</text>
<text text-anchor="middle" x="242" y="-575" font-family="Helvetica,sans-Serif" font-size="10.00">is_v_point</text>
<text text-anchor="middle" x="242" y="-564" font-family="Helvetica,sans-Serif" font-size="10.00">is_layer</text>
<text text-anchor="middle" x="242" y="-553" font-family="Helvetica,sans-Serif" font-size="10.00">is_native</text>
<text text-anchor="middle" x="242" y="-542" font-family="Helvetica,sans-Serif" font-size="10.00">needs_interpolating</text>
<text text-anchor="middle" x="242" y="-531" font-family="Helvetica,sans-Serif" font-size="10.00">is_h_point</text>
</g>
<!-- Node3&#45;&gt;Node1 -->
<g id="edge2" class="edge"><title>Node3&#45;&gt;Node1</title>
<path fill="none" stroke="#9a32cd" stroke-dasharray="5,2" d="M585.482,-385.759C542.322,-414.71 458.368,-465.813 378,-485 347.739,-492.224 336.697,-497.015 308,-485 283.523,-474.752 263.596,-450.296 252.522,-434.205"/>
<polygon fill="#9a32cd" stroke="#9a32cd" points="587.498,-388.621 593.806,-380.109 583.567,-382.829 587.498,-388.621"/>
<text text-anchor="middle" x="444" y="-483" font-family="Helvetica,sans-Serif" font-size="10.00"> diags</text>
</g>
<!-- Node3&#45;&gt;Node3 -->
<g id="edge4" class="edge"><title>Node3&#45;&gt;Node3</title>
<path fill="none" stroke="#9a32cd" stroke-dasharray="5,2" d="M600.947,-390.598C603.004,-394.97 608.021,-398 616,-398 629.438,-398 634.477,-389.406 631.117,-380.275"/>
<polygon fill="#9a32cd" stroke="#9a32cd" points="604.445,-390.253 600.883,-380.275 597.445,-390.297 604.445,-390.253"/>
<text text-anchor="middle" x="616" y="-401" font-family="Helvetica,sans-Serif" font-size="10.00"> next</text>
</g>
<!-- Node4 -->
<g id="node4" class="node"><title>Node4</title>
<g id="a_node4"><a xlink:title=" ">
<polygon fill="white" stroke="#bfbfbf" points="411.5,-382.5 411.5,-401.5 476.5,-401.5 476.5,-382.5 411.5,-382.5"/>
<text text-anchor="middle" x="444" y="-389.5" font-family="Helvetica,sans-Serif" font-size="10.00">character(32)</text>
</a>
</g>
</g>
<!-- Node4&#45;&gt;Node3 -->
<g id="edge5" class="edge"><title>Node4&#45;&gt;Node3</title>
<path fill="none" stroke="#9a32cd" stroke-dasharray="5,2" d="M486.706,-385.376C511.373,-381.458 542.675,-376.487 568.185,-372.435"/>
<polygon fill="#9a32cd" stroke="#9a32cd" points="485.904,-381.959 476.577,-386.985 487.003,-388.873 485.904,-381.959"/>
<text text-anchor="middle" x="530" y="-384" font-family="Helvetica,sans-Serif" font-size="10.00"> debug_str</text>
</g>
<!-- Node5&#45;&gt;Node3 -->
<g id="edge6" class="edge"><title>Node5&#45;&gt;Node3</title>
<path fill="none" stroke="#9a32cd" stroke-dasharray="5,2" d="M501.621,-334.321C523.248,-340.173 547.644,-346.774 568.25,-352.35"/>
<polygon fill="#9a32cd" stroke="#9a32cd" points="502.47,-330.925 491.903,-331.691 500.642,-337.682 502.47,-330.925"/>
<text text-anchor="middle" x="530" y="-350" font-family="Helvetica,sans-Serif" font-size="10.00"> axes</text>
</g>
<!-- Node5&#45;&gt;Node5 -->
<g id="edge10" class="edge"><title>Node5&#45;&gt;Node5</title>
<path fill="none" stroke="#9a32cd" stroke-dasharray="5,2" d="M428.947,-344.598C431.004,-348.97 436.021,-352 444,-352 457.438,-352 462.477,-343.406 459.117,-334.275"/>
<polygon fill="#9a32cd" stroke="#9a32cd" points="432.445,-344.253 428.883,-334.275 425.445,-344.297 432.445,-344.253"/>
<text text-anchor="middle" x="444" y="-355" font-family="Helvetica,sans-Serif" font-size="10.00"> xyave_axes</text>
</g>
<!-- Node5&#45;&gt;Node1 -->
<g id="edge18" class="edge"><title>Node5&#45;&gt;Node1</title>
<path fill="none" stroke="#9a32cd" stroke-dasharray="5,2" d="M386.239,-314.961C360.861,-315.567 331.451,-319.776 308,-333 279.308,-349.179 259.345,-383.761 249.67,-403.794"/>
<polygon fill="#9a32cd" stroke="#9a32cd" points="386.494,-318.459 396.473,-314.901 386.453,-311.46 386.494,-318.459"/>
<text text-anchor="middle" x="343" y="-446" font-family="Helvetica,sans-Serif" font-size="10.00"> remap_axescvi</text>
<text text-anchor="middle" x="343" y="-435" font-family="Helvetica,sans-Serif" font-size="10.00">remap_axesbi</text>
<text text-anchor="middle" x="343" y="-424" font-family="Helvetica,sans-Serif" font-size="10.00">axeszi</text>
<text text-anchor="middle" x="343" y="-413" font-family="Helvetica,sans-Serif" font-size="10.00">axescui</text>
<text text-anchor="middle" x="343" y="-402" font-family="Helvetica,sans-Serif" font-size="10.00">axest1</text>
<text text-anchor="middle" x="343" y="-391" font-family="Helvetica,sans-Serif" font-size="10.00">remap_axesti</text>
<text text-anchor="middle" x="343" y="-380" font-family="Helvetica,sans-Serif" font-size="10.00">remap_axescvl</text>
<text text-anchor="middle" x="343" y="-369" font-family="Helvetica,sans-Serif" font-size="10.00">remap_axesbl</text>
<text text-anchor="middle" x="343" y="-358" font-family="Helvetica,sans-Serif" font-size="10.00">axesb1</text>
<text text-anchor="middle" x="343" y="-347" font-family="Helvetica,sans-Serif" font-size="10.00">axeszl</text>
<text text-anchor="middle" x="343" y="-336" font-family="Helvetica,sans-Serif" font-size="10.00">...</text>
</g>
<!-- Node6 -->
<g id="node6" class="node"><title>Node6</title>
<g id="a_node6"><a xlink:title=" ">
<polygon fill="white" stroke="#bfbfbf" points="204,-236.5 204,-255.5 280,-255.5 280,-236.5 204,-236.5"/>
<text text-anchor="middle" x="242" y="-243.5" font-family="Helvetica,sans-Serif" font-size="10.00">character(len=9)</text>
</a>
</g>
</g>
<!-- Node6&#45;&gt;Node5 -->
<g id="edge9" class="edge"><title>Node6&#45;&gt;Node5</title>
<path fill="none" stroke="#9a32cd" stroke-dasharray="5,2" d="M290.328,-245.315C317.08,-246.528 350.558,-250.804 378,-263 398.962,-272.316 418.226,-290.689 430.249,-303.851"/>
<polygon fill="#9a32cd" stroke="#9a32cd" points="290.168,-241.808 280.06,-244.982 289.941,-248.804 290.168,-241.808"/>
<text text-anchor="middle" x="343" y="-288" font-family="Helvetica,sans-Serif" font-size="10.00"> v_cell_method</text>
<text text-anchor="middle" x="343" y="-277" font-family="Helvetica,sans-Serif" font-size="10.00">y_cell_method</text>
<text text-anchor="middle" x="343" y="-266" font-family="Helvetica,sans-Serif" font-size="10.00">x_cell_method</text>
</g>
<!-- Node7 -->
<g id="node7" class="node"><title>Node7</title>
<g id="a_node7"><a xlink:title=" ">
<polygon fill="white" stroke="#bfbfbf" points="29.5,-0.5 29.5,-19.5 70.5,-19.5 70.5,-0.5 29.5,-0.5"/>
<text text-anchor="middle" x="50" y="-7.5" font-family="Helvetica,sans-Serif" font-size="10.00">integer</text>
</a>
</g>
</g>
<!-- Node7&#45;&gt;Node5 -->
<g id="edge11" class="edge"><title>Node7&#45;&gt;Node5</title>
<path fill="none" stroke="#9a32cd" stroke-dasharray="5,2" d="M81.0765,-11.4459C107.021,-13.5278 145.08,-18.6072 176,-31 276.691,-71.3578 308.894,-84.3826 378,-168 413.091,-210.46 432.216,-274.723 439.504,-303.781"/>
<polygon fill="#9a32cd" stroke="#9a32cd" points="80.975,-7.93034 70.7553,-10.7246 80.4869,-14.9133 80.975,-7.93034"/>
<text text-anchor="start" x="207" y="-153" font-family="Helvetica,sans-Serif" font-size="10.00"> vertical_coordinate</text>
<text text-anchor="middle" x="242" y="-142" font-family="Helvetica,sans-Serif" font-size="10.00">_number</text>
<text text-anchor="middle" x="242" y="-131" font-family="Helvetica,sans-Serif" font-size="10.00">handles</text>
<text text-anchor="middle" x="242" y="-120" font-family="Helvetica,sans-Serif" font-size="10.00">id_volume</text>
<text text-anchor="middle" x="242" y="-109" font-family="Helvetica,sans-Serif" font-size="10.00">nz</text>
<text text-anchor="middle" x="242" y="-98" font-family="Helvetica,sans-Serif" font-size="10.00">rank</text>
<text text-anchor="middle" x="242" y="-87" font-family="Helvetica,sans-Serif" font-size="10.00">id_area</text>
</g>
<!-- Node7&#45;&gt;Node3 -->
<g id="edge14" class="edge"><title>Node7&#45;&gt;Node3</title>
<path fill="none" stroke="#9a32cd" stroke-dasharray="5,2" d="M80.7972,-7.69334C142.594,-4.48961 286.554,-5.40552 378,-73 489.572,-155.471 579.217,-302.224 606.461,-349.716"/>
<polygon fill="#9a32cd" stroke="#9a32cd" points="80.3582,-4.21318 70.5839,-8.30142 80.7743,-11.2008 80.3582,-4.21318"/>
<text text-anchor="middle" x="343" y="-87" font-family="Helvetica,sans-Serif" font-size="10.00"> fms_xyave_diag_id</text>
<text text-anchor="middle" x="343" y="-76" font-family="Helvetica,sans-Serif" font-size="10.00">fms_diag_id</text>
</g>
<!-- Node7&#45;&gt;Node1 -->
<g id="edge21" class="edge"><title>Node7&#45;&gt;Node1</title>
<path fill="none" stroke="#9a32cd" stroke-dasharray="5,2" d="M80.4922,-18.1211C110.124,-27.9726 154.403,-47.6814 176,-82 204.368,-127.078 180.247,-269.545 194,-321 202.283,-351.99 220.291,-385.037 231.456,-403.744"/>
<polygon fill="#9a32cd" stroke="#9a32cd" points="81.2727,-14.6977 70.6834,-15.0398 79.1748,-21.3759 81.2727,-14.6977"/>
<text text-anchor="middle" x="147" y="-206" font-family="Helvetica,sans-Serif" font-size="10.00"> ied</text>
<text text-anchor="middle" x="147" y="-195" font-family="Helvetica,sans-Serif" font-size="10.00">jed</text>
<text text-anchor="middle" x="147" y="-184" font-family="Helvetica,sans-Serif" font-size="10.00">doc_unit</text>
<text text-anchor="middle" x="147" y="-173" font-family="Helvetica,sans-Serif" font-size="10.00">isd</text>
<text text-anchor="middle" x="147" y="-162" font-family="Helvetica,sans-Serif" font-size="10.00">jsd</text>
<text text-anchor="middle" x="147" y="-151" font-family="Helvetica,sans-Serif" font-size="10.00">js</text>
<text text-anchor="middle" x="147" y="-140" font-family="Helvetica,sans-Serif" font-size="10.00">is</text>
<text text-anchor="middle" x="147" y="-129" font-family="Helvetica,sans-Serif" font-size="10.00">je</text>
<text text-anchor="middle" x="147" y="-118" font-family="Helvetica,sans-Serif" font-size="10.00">ie</text>
<text text-anchor="start" x="129" y="-107" font-family="Helvetica,sans-Serif" font-size="10.00">num_diag</text>
<text text-anchor="middle" x="147" y="-96" font-family="Helvetica,sans-Serif" font-size="10.00">_coords</text>
<text text-anchor="middle" x="147" y="-85" font-family="Helvetica,sans-Serif" font-size="10.00">...</text>
</g>
<!-- Node8 -->
<g id="node8" class="node"><title>Node8</title>
<g id="a_node8"><a xlink:title=" ">
<polygon fill="white" stroke="#bfbfbf" points="202,-292.5 202,-311.5 282,-311.5 282,-292.5 202,-292.5"/>
<text text-anchor="middle" x="242" y="-299.5" font-family="Helvetica,sans-Serif" font-size="10.00">character(len=15)</text>
</a>
</g>
</g>
<!-- Node8&#45;&gt;Node5 -->
<g id="edge12" class="edge"><title>Node8&#45;&gt;Node5</title>
<path fill="none" stroke="#9a32cd" stroke-dasharray="5,2" d="M292.371,-299.61C318.009,-299.064 349.792,-299.473 378,-303 383.997,-303.75 390.239,-304.855 396.38,-306.141"/>
<polygon fill="#9a32cd" stroke="#9a32cd" points="292.052,-296.117 282.149,-299.884 292.239,-303.114 292.052,-296.117"/>
<text text-anchor="middle" x="343" y="-306" font-family="Helvetica,sans-Serif" font-size="10.00"> id</text>
</g>
<!-- Node9 -->
<g id="node9" class="node"><title>Node9</title>
<g id="a_node9"><a xlink:title=" ">
<polygon fill="white" stroke="#bfbfbf" points="35,-196.5 35,-215.5 65,-215.5 65,-196.5 35,-196.5"/>
<text text-anchor="middle" x="50" y="-203.5" font-family="Helvetica,sans-Serif" font-size="10.00">real</text>
</a>
</g>
</g>
<!-- Node9&#45;&gt;Node3 -->
<g id="edge13" class="edge"><title>Node9&#45;&gt;Node3</title>
<path fill="none" stroke="#9a32cd" stroke-dasharray="5,2" d="M75.3317,-201.767C130.606,-193.115 269.266,-176.875 378,-210 471.825,-238.583 563.346,-316.749 599.174,-349.859"/>
<polygon fill="#9a32cd" stroke="#9a32cd" points="74.4391,-198.366 65.1319,-203.429 75.5646,-205.275 74.4391,-198.366"/>
<text text-anchor="middle" x="343" y="-235" font-family="Helvetica,sans-Serif" font-size="10.00"> mask3d</text>
<text text-anchor="middle" x="343" y="-224" font-family="Helvetica,sans-Serif" font-size="10.00">mask2d</text>
<text text-anchor="middle" x="343" y="-213" font-family="Helvetica,sans-Serif" font-size="10.00">conversion_factor</text>
</g>
<!-- Node9&#45;&gt;Node1 -->
<g id="edge20" class="edge"><title>Node9&#45;&gt;Node1</title>
<path fill="none" stroke="#9a32cd" stroke-dasharray="5,2" d="M75.5988,-208.097C103.898,-211.844 149.82,-222.24 176,-251 197.624,-274.755 183.002,-290.818 194,-321 205.047,-351.317 222.307,-384.858 232.55,-403.789"/>
<polygon fill="#9a32cd" stroke="#9a32cd" points="75.6799,-204.584 65.348,-206.929 74.8875,-211.539 75.6799,-204.584"/>
<text text-anchor="middle" x="147" y="-364" font-family="Helvetica,sans-Serif" font-size="10.00"> mask3dbl</text>
<text text-anchor="middle" x="147" y="-353" font-family="Helvetica,sans-Serif" font-size="10.00">h</text>
<text text-anchor="middle" x="147" y="-342" font-family="Helvetica,sans-Serif" font-size="10.00">mask3dtl</text>
<text text-anchor="middle" x="147" y="-331" font-family="Helvetica,sans-Serif" font-size="10.00">time_int</text>
<text text-anchor="middle" x="147" y="-320" font-family="Helvetica,sans-Serif" font-size="10.00">mask3dcvi</text>
<text text-anchor="middle" x="147" y="-309" font-family="Helvetica,sans-Serif" font-size="10.00">mask3dcui</text>
<text text-anchor="middle" x="147" y="-298" font-family="Helvetica,sans-Serif" font-size="10.00">mask2dt</text>
<text text-anchor="middle" x="147" y="-287" font-family="Helvetica,sans-Serif" font-size="10.00">mask3dcvl</text>
<text text-anchor="middle" x="147" y="-276" font-family="Helvetica,sans-Serif" font-size="10.00">mask3dcul</text>
<text text-anchor="middle" x="147" y="-265" font-family="Helvetica,sans-Serif" font-size="10.00">h_old</text>
<text text-anchor="middle" x="147" y="-254" font-family="Helvetica,sans-Serif" font-size="10.00">...</text>
</g>
<!-- Node10 -->
<g id="node10" class="node"><title>Node10</title>
<g id="a_node10"><a xlink:title=" ">
<polygon fill="white" stroke="#bfbfbf" points="24.5,-428.5 24.5,-447.5 75.5,-447.5 75.5,-428.5 24.5,-428.5"/>
<text text-anchor="middle" x="50" y="-435.5" font-family="Helvetica,sans-Serif" font-size="10.00">time_type</text>
</a>
</g>
</g>
<!-- Node10&#45;&gt;Node1 -->
<g id="edge15" class="edge"><title>Node10&#45;&gt;Node1</title>
<path fill="none" stroke="#9a32cd" stroke-dasharray="5,2" d="M85.9857,-434.501C116.428,-431.457 160.794,-427.021 194.27,-423.673"/>
<polygon fill="#9a32cd" stroke="#9a32cd" points="85.4413,-431.038 75.8392,-435.516 86.1378,-438.004 85.4413,-431.038"/>
<text text-anchor="middle" x="147" y="-434" font-family="Helvetica,sans-Serif" font-size="10.00"> time_end</text>
</g>
<!-- Node11 -->
<g id="node11" class="node"><title>Node11</title>
<g id="a_node11"><a xlink:title=" ">
<polygon fill="white" stroke="#bfbfbf" points="0.5,-390.5 0.5,-409.5 99.5,-409.5 99.5,-390.5 0.5,-390.5"/>
<text text-anchor="middle" x="50" y="-397.5" font-family="Helvetica,sans-Serif" font-size="10.00">type(eos_type), pointer</text>
</a>
</g>
</g>
<!-- Node11&#45;&gt;Node1 -->
<g id="edge16" class="edge"><title>Node11&#45;&gt;Node1</title>
<path fill="none" stroke="#9a32cd" stroke-dasharray="5,2" d="M109.742,-404.746C130.671,-406.549 154.403,-408.721 176,-411 181.88,-411.62 188.053,-412.319 194.157,-413.038"/>
<polygon fill="#9a32cd" stroke="#9a32cd" points="109.976,-401.254 99.715,-403.892 109.382,-408.228 109.976,-401.254"/>
<text text-anchor="middle" x="147" y="-414" font-family="Helvetica,sans-Serif" font-size="10.00"> eqn_of_state</text>
</g>
<!-- Node12 -->
<g id="node12" class="node"><title>Node12</title>
<g id="a_node12"><a xlink:title=" ">
<polygon fill="white" stroke="#bfbfbf" points="13,-352.5 13,-371.5 87,-371.5 87,-352.5 13,-352.5"/>
<text text-anchor="middle" x="50" y="-359.5" font-family="Helvetica,sans-Serif" font-size="10.00">diag_remap_ctrl</text>
</a>
</g>
</g>
<!-- Node12&#45;&gt;Node1 -->
<g id="edge17" class="edge"><title>Node12&#45;&gt;Node1</title>
<path fill="none" stroke="#9a32cd" stroke-dasharray="5,2" d="M96.8876,-370.593C120.761,-375.578 150.258,-382.545 176,-391 186.973,-394.604 198.652,-399.337 209.038,-403.883"/>
<polygon fill="#9a32cd" stroke="#9a32cd" points="97.5259,-367.152 87.0278,-368.58 96.1254,-374.01 97.5259,-367.152"/>
<text text-anchor="middle" x="147" y="-394" font-family="Helvetica,sans-Serif" font-size="10.00"> diag_remap_cs</text>
</g>
<!-- Node13 -->
<g id="node13" class="node"><title>Node13</title>
<g id="a_node13"><a xlink:title=" ">
<polygon fill="white" stroke="#bfbfbf" points="12,-466.5 12,-485.5 88,-485.5 88,-466.5 12,-466.5"/>
<text text-anchor="middle" x="50" y="-473.5" font-family="Helvetica,sans-Serif" font-size="10.00">ocean_grid_type</text>
</a>
</g>
</g>
<!-- Node13&#45;&gt;Node1 -->
<g id="edge19" class="edge"><title>Node13&#45;&gt;Node1</title>
<path fill="none" stroke="#9a32cd" stroke-dasharray="5,2" d="M97.8638,-466.596C121.536,-461.383 150.56,-454.279 176,-446 186.458,-442.597 197.596,-438.249 207.644,-434.042"/>
<polygon fill="#9a32cd" stroke="#9a32cd" points="97.1067,-463.179 88.0719,-468.713 98.5857,-470.021 97.1067,-463.179"/>
<text text-anchor="middle" x="147" y="-465" font-family="Helvetica,sans-Serif" font-size="10.00"> g</text>
</g>
</g>
</svg>
