<?xml version="1.0" encoding="UTF-8" standalone="no"?>
<!DOCTYPE svg PUBLIC "-//W3C//DTD SVG 1.1//EN"
 "http://www.w3.org/Graphics/SVG/1.1/DTD/svg11.dtd">
<!-- Generated by graphviz version 2.30.1 (20170916.1124)
 -->
<!-- Title: mom_variables::accel_diag_ptrs Pages: 1 -->
<svg width="100pt" height="218pt"
 viewBox="0.00 0.00 100.00 218.00" xmlns="http://www.w3.org/2000/svg" xmlns:xlink="http://www.w3.org/1999/xlink">
<g id="graph0" class="graph" transform="scale(1 1) rotate(0) translate(4 214)">
<title>mom_variables::accel_diag_ptrs</title>
<polygon fill="white" stroke="white" points="-4,5 -4,-214 97,-214 97,5 -4,5"/>
<!-- Node1 -->
<g id="node1" class="node"><title>Node1</title>
<g id="a_node1"><a xlink:title=" ">
<polygon fill="#bfbfbf" stroke="black" points="-0.5,-1 -0.5,-31 92.5,-31 92.5,-1 -0.5,-1"/>
<text text-anchor="start" x="7.5" y="-19" font-family="Helvetica,sans-Serif" font-size="10.00">mom_variables::accel</text>
<text text-anchor="middle" x="46" y="-8" font-family="Helvetica,sans-Serif" font-size="10.00">_diag_ptrs</text>
</a>
</g>
</g>
<!-- Node2 -->
<g id="node2" class="node"><title>Node2</title>
<g id="a_node2"><a xlink:title=" ">
<polygon fill="white" stroke="#bfbfbf" points="31,-190.5 31,-209.5 61,-209.5 61,-190.5 31,-190.5"/>
<text text-anchor="middle" x="46" y="-197.5" font-family="Helvetica,sans-Serif" font-size="10.00">real</text>
</a>
</g>
</g>
<!-- Node2&#45;&gt;Node1 -->
<g id="edge1" class="edge"><title>Node2&#45;&gt;Node1</title>
<path fill="none" stroke="#9a32cd" stroke-dasharray="5,2" d="M46,-179.933C46,-143.242 46,-63.578 46,-31.1558"/>
<polygon fill="#9a32cd" stroke="#9a32cd" points="42.5001,-180.222 46,-190.222 49.5001,-180.222 42.5001,-180.222"/>
<text text-anchor="middle" x="63.5" y="-163.5" font-family="Helvetica,sans-Serif" font-size="10.00"> rv_x_u</text>
<text text-anchor="middle" x="63.5" y="-152.5" font-family="Helvetica,sans-Serif" font-size="10.00">dv_dt_dia</text>
<text text-anchor="middle" x="63.5" y="-141.5" font-family="Helvetica,sans-Serif" font-size="10.00">cau</text>
<text text-anchor="middle" x="63.5" y="-130.5" font-family="Helvetica,sans-Serif" font-size="10.00">rv_x_v</text>
<text text-anchor="middle" x="63.5" y="-119.5" font-family="Helvetica,sans-Serif" font-size="10.00">cav</text>
<text text-anchor="middle" x="63.5" y="-108.5" font-family="Helvetica,sans-Serif" font-size="10.00">du_other</text>
<text text-anchor="middle" x="63.5" y="-97.5" font-family="Helvetica,sans-Serif" font-size="10.00">dv_other</text>
<text text-anchor="middle" x="63.5" y="-86.5" font-family="Helvetica,sans-Serif" font-size="10.00">pfu</text>
<text text-anchor="middle" x="63.5" y="-75.5" font-family="Helvetica,sans-Serif" font-size="10.00">pfv</text>
<text text-anchor="middle" x="63.5" y="-64.5" font-family="Helvetica,sans-Serif" font-size="10.00">diffu</text>
<text text-anchor="middle" x="63.5" y="-53.5" font-family="Helvetica,sans-Serif" font-size="10.00">...</text>
</g>
</g>
</svg>
