<?xml version="1.0" encoding="UTF-8" standalone="no"?>
<!DOCTYPE svg PUBLIC "-//W3C//DTD SVG 1.1//EN"
 "http://www.w3.org/Graphics/SVG/1.1/DTD/svg11.dtd">
<!-- Generated by graphviz version 2.30.1 (20170916.1124)
 -->
<!-- Title: mom_legacy_barotropic::memory_size_type Pages: 1 -->
<svg width="110pt" height="140pt"
 viewBox="0.00 0.00 110.00 140.00" xmlns="http://www.w3.org/2000/svg" xmlns:xlink="http://www.w3.org/1999/xlink">
<g id="graph0" class="graph" transform="scale(1 1) rotate(0) translate(4 136)">
<title>mom_legacy_barotropic::memory_size_type</title>
<polygon fill="white" stroke="white" points="-4,5 -4,-136 107,-136 107,5 -4,5"/>
<!-- Node1 -->
<g id="node1" class="node"><title>Node1</title>
<g id="a_node1"><a xlink:title=" ">
<polygon fill="#bfbfbf" stroke="black" points="0,-1 0,-31 102,-31 102,-1 0,-1"/>
<text text-anchor="start" x="8" y="-19" font-family="Helvetica,sans-Serif" font-size="10.00">mom_legacy_barotropic</text>
<text text-anchor="middle" x="51" y="-8" font-family="Helvetica,sans-Serif" font-size="10.00">::memory_size_type</text>
</a>
</g>
</g>
<!-- Node2 -->
<g id="node2" class="node"><title>Node2</title>
<g id="a_node2"><a xlink:title=" ">
<polygon fill="white" stroke="#bfbfbf" points="30.5,-112.5 30.5,-131.5 71.5,-131.5 71.5,-112.5 30.5,-112.5"/>
<text text-anchor="middle" x="51" y="-119.5" font-family="Helvetica,sans-Serif" font-size="10.00">integer</text>
</a>
</g>
</g>
<!-- Node2&#45;&gt;Node1 -->
<g id="edge1" class="edge"><title>Node2&#45;&gt;Node1</title>
<path fill="none" stroke="#9a32cd" stroke-dasharray="5,2" d="M51,-102.268C51,-81.8397 51,-49.6031 51,-31.1748"/>
<polygon fill="#9a32cd" stroke="#9a32cd" points="47.5001,-102.489 51,-112.489 54.5001,-102.489 47.5001,-102.489"/>
<text text-anchor="middle" x="60.5" y="-86" font-family="Helvetica,sans-Serif" font-size="10.00"> jsdw</text>
<text text-anchor="middle" x="60.5" y="-75" font-family="Helvetica,sans-Serif" font-size="10.00">isdw</text>
<text text-anchor="middle" x="60.5" y="-64" font-family="Helvetica,sans-Serif" font-size="10.00">jedw</text>
<text text-anchor="middle" x="60.5" y="-53" font-family="Helvetica,sans-Serif" font-size="10.00">iedw</text>
</g>
</g>
</svg>
