<?xml version="1.0" encoding="UTF-8" standalone="no"?>
<!DOCTYPE svg PUBLIC "-//W3C//DTD SVG 1.1//EN"
 "http://www.w3.org/Graphics/SVG/1.1/DTD/svg11.dtd">
<!-- Generated by graphviz version 2.30.1 (20170916.1124)
 -->
<!-- Title: mom_barotropic::bt_obc_type Pages: 1 -->
<svg width="128pt" height="218pt"
 viewBox="0.00 0.00 128.00 218.00" xmlns="http://www.w3.org/2000/svg" xmlns:xlink="http://www.w3.org/1999/xlink">
<g id="graph0" class="graph" transform="scale(1 1) rotate(0) translate(4 214)">
<title>mom_barotropic::bt_obc_type</title>
<polygon fill="white" stroke="white" points="-4,5 -4,-214 125,-214 125,5 -4,5"/>
<!-- Node1 -->
<g id="node1" class="node"><title>Node1</title>
<g id="a_node1"><a xlink:title=" ">
<polygon fill="#bfbfbf" stroke="black" points="5,-1 5,-31 91,-31 91,-1 5,-1"/>
<text text-anchor="start" x="13" y="-19" font-family="Helvetica,sans-Serif" font-size="10.00">mom_barotropic::bt</text>
<text text-anchor="middle" x="48" y="-8" font-family="Helvetica,sans-Serif" font-size="10.00">_obc_type</text>
</a>
</g>
</g>
<!-- Node2 -->
<g id="node2" class="node"><title>Node2</title>
<g id="a_node2"><a xlink:title=" ">
<polygon fill="white" stroke="#bfbfbf" points="-0.5,-190.5 -0.5,-209.5 40.5,-209.5 40.5,-190.5 -0.5,-190.5"/>
<text text-anchor="middle" x="20" y="-197.5" font-family="Helvetica,sans-Serif" font-size="10.00">integer</text>
</a>
</g>
</g>
<!-- Node2&#45;&gt;Node1 -->
<g id="edge1" class="edge"><title>Node2&#45;&gt;Node1</title>
<path fill="none" stroke="#9a32cd" stroke-dasharray="5,2" d="M16.2578,-180.303C11.3093,-151.375 4.95818,-94.4678 21,-50 23.512,-43.0368 28.1813,-36.4782 32.9393,-31.0706"/>
<polygon fill="#9a32cd" stroke="#9a32cd" points="12.8372,-181.053 18.0987,-190.249 19.7203,-179.779 12.8372,-181.053"/>
<text text-anchor="middle" x="38" y="-147" font-family="Helvetica,sans-Serif" font-size="10.00"> js_u_obc</text>
<text text-anchor="middle" x="38" y="-136" font-family="Helvetica,sans-Serif" font-size="10.00">js_v_obc</text>
<text text-anchor="middle" x="38" y="-125" font-family="Helvetica,sans-Serif" font-size="10.00">is_u_obc</text>
<text text-anchor="middle" x="38" y="-114" font-family="Helvetica,sans-Serif" font-size="10.00">is_v_obc</text>
<text text-anchor="middle" x="38" y="-103" font-family="Helvetica,sans-Serif" font-size="10.00">je_u_obc</text>
<text text-anchor="middle" x="38" y="-92" font-family="Helvetica,sans-Serif" font-size="10.00">je_v_obc</text>
<text text-anchor="middle" x="38" y="-81" font-family="Helvetica,sans-Serif" font-size="10.00">ie_u_obc</text>
<text text-anchor="middle" x="38" y="-70" font-family="Helvetica,sans-Serif" font-size="10.00">ie_v_obc</text>
</g>
<!-- Node3 -->
<g id="node3" class="node"><title>Node3</title>
<g id="a_node3"><a xlink:title=" ">
<polygon fill="white" stroke="#bfbfbf" points="62,-190.5 62,-209.5 92,-209.5 92,-190.5 62,-190.5"/>
<text text-anchor="middle" x="77" y="-197.5" font-family="Helvetica,sans-Serif" font-size="10.00">real</text>
</a>
</g>
</g>
<!-- Node3&#45;&gt;Node1 -->
<g id="edge2" class="edge"><title>Node3&#45;&gt;Node1</title>
<path fill="none" stroke="#9a32cd" stroke-dasharray="5,2" d="M74.6004,-180.147C70.9072,-151.812 63.3737,-96.5967 55,-50 53.8813,-43.7746 52.4606,-36.9285 51.1919,-31.0935"/>
<polygon fill="#9a32cd" stroke="#9a32cd" points="71.151,-180.765 75.9004,-190.236 78.0936,-179.871 71.151,-180.765"/>
<text text-anchor="middle" x="97" y="-163.5" font-family="Helvetica,sans-Serif" font-size="10.00"> eta_outer_u</text>
<text text-anchor="middle" x="97" y="-152.5" font-family="Helvetica,sans-Serif" font-size="10.00">vbt_outer</text>
<text text-anchor="middle" x="97" y="-141.5" font-family="Helvetica,sans-Serif" font-size="10.00">eta_outer_v</text>
<text text-anchor="middle" x="97" y="-130.5" font-family="Helvetica,sans-Serif" font-size="10.00">vhbt</text>
<text text-anchor="middle" x="97" y="-119.5" font-family="Helvetica,sans-Serif" font-size="10.00">uhbt</text>
<text text-anchor="middle" x="97" y="-108.5" font-family="Helvetica,sans-Serif" font-size="10.00">h_u</text>
<text text-anchor="middle" x="97" y="-97.5" font-family="Helvetica,sans-Serif" font-size="10.00">h_v</text>
<text text-anchor="middle" x="97" y="-86.5" font-family="Helvetica,sans-Serif" font-size="10.00">cg_u</text>
<text text-anchor="middle" x="97" y="-75.5" font-family="Helvetica,sans-Serif" font-size="10.00">cg_v</text>
<text text-anchor="middle" x="97" y="-64.5" font-family="Helvetica,sans-Serif" font-size="10.00">ubt_outer</text>
<text text-anchor="middle" x="97" y="-53.5" font-family="Helvetica,sans-Serif" font-size="10.00">...</text>
</g>
</g>
</svg>
