<?xml version="1.0" encoding="UTF-8" standalone="no"?>
<!DOCTYPE svg PUBLIC "-//W3C//DTD SVG 1.1//EN"
 "http://www.w3.org/Graphics/SVG/1.1/DTD/svg11.dtd">
<!-- Generated by graphviz version 2.30.1 (20170916.1124)
 -->
<!-- Title: mom_controlled_forcing::ctrl_forcing_cs Pages: 1 -->
<svg width="278pt" height="218pt"
 viewBox="0.00 0.00 278.00 218.00" xmlns="http://www.w3.org/2000/svg" xmlns:xlink="http://www.w3.org/1999/xlink">
<g id="graph0" class="graph" transform="scale(1 1) rotate(0) translate(4 214)">
<title>mom_controlled_forcing::ctrl_forcing_cs</title>
<polygon fill="white" stroke="white" points="-4,5 -4,-214 275,-214 275,5 -4,5"/>
<!-- Node1 -->
<g id="node1" class="node"><title>Node1</title>
<g id="a_node1"><a xlink:title=" ">
<polygon fill="#bfbfbf" stroke="black" points="77,-1 77,-31 179,-31 179,-1 77,-1"/>
<text text-anchor="start" x="85" y="-19" font-family="Helvetica,sans-Serif" font-size="10.00">mom_controlled_forcing</text>
<text text-anchor="middle" x="128" y="-8" font-family="Helvetica,sans-Serif" font-size="10.00">::ctrl_forcing_cs</text>
</a>
</g>
</g>
<!-- Node2 -->
<g id="node2" class="node"><title>Node2</title>
<g id="a_node2"><a xlink:title=" ">
<polygon fill="white" stroke="#bfbfbf" points="0,-190.5 0,-209.5 38,-209.5 38,-190.5 0,-190.5"/>
<text text-anchor="middle" x="19" y="-197.5" font-family="Helvetica,sans-Serif" font-size="10.00">logical</text>
</a>
</g>
</g>
<!-- Node2&#45;&gt;Node1 -->
<g id="edge1" class="edge"><title>Node2&#45;&gt;Node1</title>
<path fill="none" stroke="#9a32cd" stroke-dasharray="5,2" d="M15.0612,-180.299C9.73942,-149.577 4.05979,-88.0443 34,-50 44.4825,-36.6801 60.7146,-28.7223 76.7581,-23.9732"/>
<polygon fill="#9a32cd" stroke="#9a32cd" points="11.6874,-181.29 17.0083,-190.452 18.5621,-179.972 11.6874,-181.29"/>
<text text-anchor="middle" x="65" y="-114" font-family="Helvetica,sans-Serif" font-size="10.00"> do_integrated</text>
<text text-anchor="middle" x="65" y="-103" font-family="Helvetica,sans-Serif" font-size="10.00">use_temperature</text>
</g>
<!-- Node3 -->
<g id="node3" class="node"><title>Node3</title>
<g id="a_node3"><a xlink:title=" ">
<polygon fill="white" stroke="#bfbfbf" points="76.5,-190.5 76.5,-209.5 123.5,-209.5 123.5,-190.5 76.5,-190.5"/>
<text text-anchor="middle" x="100" y="-197.5" font-family="Helvetica,sans-Serif" font-size="10.00">diag_ctrl</text>
</a>
</g>
</g>
<!-- Node3&#45;&gt;Node1 -->
<g id="edge2" class="edge"><title>Node3&#45;&gt;Node1</title>
<path fill="none" stroke="#9a32cd" stroke-dasharray="5,2" d="M99.6215,-180.274C99.4905,-151.694 101,-95.692 113,-50 114.694,-43.548 117.557,-36.7812 120.331,-31.0666"/>
<polygon fill="#9a32cd" stroke="#9a32cd" points="96.1235,-180.471 99.7459,-190.427 103.123,-180.385 96.1235,-180.471"/>
<text text-anchor="middle" x="122" y="-108.5" font-family="Helvetica,sans-Serif" font-size="10.00"> diag</text>
</g>
<!-- Node4 -->
<g id="node4" class="node"><title>Node4</title>
<g id="a_node4"><a xlink:title=" ">
<polygon fill="white" stroke="#bfbfbf" points="142,-190.5 142,-209.5 172,-209.5 172,-190.5 142,-190.5"/>
<text text-anchor="middle" x="157" y="-197.5" font-family="Helvetica,sans-Serif" font-size="10.00">real</text>
</a>
</g>
</g>
<!-- Node4&#45;&gt;Node1 -->
<g id="edge3" class="edge"><title>Node4&#45;&gt;Node1</title>
<path fill="none" stroke="#9a32cd" stroke-dasharray="5,2" d="M153.962,-179.933C148.115,-143.242 135.422,-63.578 130.256,-31.1558"/>
<polygon fill="#9a32cd" stroke="#9a32cd" points="150.571,-180.897 155.601,-190.222 157.484,-179.796 150.571,-180.897"/>
<text text-anchor="middle" x="179" y="-163.5" font-family="Helvetica,sans-Serif" font-size="10.00"> len2</text>
<text text-anchor="middle" x="179" y="-152.5" font-family="Helvetica,sans-Serif" font-size="10.00">lam_heat</text>
<text text-anchor="middle" x="179" y="-141.5" font-family="Helvetica,sans-Serif" font-size="10.00">heat_0</text>
<text text-anchor="middle" x="179" y="-130.5" font-family="Helvetica,sans-Serif" font-size="10.00">avg_sss</text>
<text text-anchor="middle" x="179" y="-119.5" font-family="Helvetica,sans-Serif" font-size="10.00">heat_cyc_rate</text>
<text text-anchor="middle" x="179" y="-108.5" font-family="Helvetica,sans-Serif" font-size="10.00">heat_int_rate</text>
<text text-anchor="middle" x="179" y="-97.5" font-family="Helvetica,sans-Serif" font-size="10.00">heat_cyc</text>
<text text-anchor="middle" x="179" y="-86.5" font-family="Helvetica,sans-Serif" font-size="10.00">precip_0</text>
<text text-anchor="middle" x="179" y="-75.5" font-family="Helvetica,sans-Serif" font-size="10.00">lam_cyc_prec</text>
<text text-anchor="middle" x="179" y="-64.5" font-family="Helvetica,sans-Serif" font-size="10.00">avg_sst_anom</text>
<text text-anchor="middle" x="179" y="-53.5" font-family="Helvetica,sans-Serif" font-size="10.00">...</text>
</g>
<!-- Node5 -->
<g id="node5" class="node"><title>Node5</title>
<g id="a_node5"><a xlink:title=" ">
<polygon fill="white" stroke="#bfbfbf" points="207.5,-190.5 207.5,-209.5 248.5,-209.5 248.5,-190.5 207.5,-190.5"/>
<text text-anchor="middle" x="228" y="-197.5" font-family="Helvetica,sans-Serif" font-size="10.00">integer</text>
</a>
</g>
</g>
<!-- Node5&#45;&gt;Node1 -->
<g id="edge4" class="edge"><title>Node5&#45;&gt;Node1</title>
<path fill="none" stroke="#9a32cd" stroke-dasharray="5,2" d="M230.677,-179.964C233.905,-149.247 235.657,-88.325 206,-50 199.161,-41.1622 189.508,-34.6634 179.315,-29.8937"/>
<polygon fill="#9a32cd" stroke="#9a32cd" points="227.171,-179.796 229.43,-190.148 234.119,-180.647 227.171,-179.796"/>
<text text-anchor="middle" x="251" y="-114" font-family="Helvetica,sans-Serif" font-size="10.00"> id_heat_0</text>
<text text-anchor="middle" x="251" y="-103" font-family="Helvetica,sans-Serif" font-size="10.00">num_cycle</text>
</g>
</g>
</svg>
