<?xml version="1.0" encoding="UTF-8" standalone="no"?>
<!DOCTYPE svg PUBLIC "-//W3C//DTD SVG 1.1//EN"
 "http://www.w3.org/Graphics/SVG/1.1/DTD/svg11.dtd">
<!-- Generated by graphviz version 2.30.1 (20170916.1124)
 -->
<!-- Title: oil_tracer::oil_tracer_cs Pages: 1 -->
<svg width="372pt" height="622pt"
 viewBox="0.00 0.00 372.00 622.47" xmlns="http://www.w3.org/2000/svg" xmlns:xlink="http://www.w3.org/1999/xlink">
<g id="graph0" class="graph" transform="scale(1 1) rotate(0) translate(4 618.475)">
<title>oil_tracer::oil_tracer_cs</title>
<polygon fill="white" stroke="white" points="-4,5 -4,-618.475 369,-618.475 369,5 -4,5"/>
<!-- Node1 -->
<g id="node1" class="node"><title>Node1</title>
<g id="a_node1"><a xlink:title=" ">
<polygon fill="#bfbfbf" stroke="black" points="264.5,-401.975 264.5,-420.975 363.5,-420.975 363.5,-401.975 264.5,-401.975"/>
<text text-anchor="middle" x="314" y="-408.975" font-family="Helvetica,sans-Serif" font-size="10.00">oil_tracer::oil_tracer_cs</text>
</a>
</g>
</g>
<!-- Node2 -->
<g id="node2" class="node"><title>Node2</title>
<g id="a_node2"><a xlink:title=" ">
<polygon fill="white" stroke="#bfbfbf" points="103,-570.975 103,-589.975 141,-589.975 141,-570.975 103,-570.975"/>
<text text-anchor="middle" x="122" y="-577.975" font-family="Helvetica,sans-Serif" font-size="10.00">logical</text>
</a>
</g>
</g>
<!-- Node2&#45;&gt;Node1 -->
<g id="edge1" class="edge"><title>Node2&#45;&gt;Node1</title>
<path fill="none" stroke="#9a32cd" stroke-dasharray="5,2" d="M151.387,-578.579C178.452,-575.415 218.982,-566.976 246,-544.475 286.727,-510.556 305.191,-445.674 310.931,-421.169"/>
<polygon fill="#9a32cd" stroke="#9a32cd" points="150.984,-575.102 141.383,-579.581 151.682,-582.067 150.984,-575.102"/>
<text text-anchor="middle" x="217" y="-606.475" font-family="Helvetica,sans-Serif" font-size="10.00"> oil_may_reinit</text>
<text text-anchor="middle" x="217" y="-595.475" font-family="Helvetica,sans-Serif" font-size="10.00">z_ic_file</text>
<text text-anchor="middle" x="217" y="-584.475" font-family="Helvetica,sans-Serif" font-size="10.00">coupled_tracers</text>
<text text-anchor="middle" x="217" y="-573.475" font-family="Helvetica,sans-Serif" font-size="10.00">mask_tracers</text>
</g>
<!-- Node3 -->
<g id="node3" class="node"><title>Node3</title>
<g id="a_node3"><a xlink:title=" ">
<polygon fill="white" stroke="#bfbfbf" points="96.5,-532.975 96.5,-551.975 147.5,-551.975 147.5,-532.975 96.5,-532.975"/>
<text text-anchor="middle" x="122" y="-539.975" font-family="Helvetica,sans-Serif" font-size="10.00">time_type</text>
</a>
</g>
</g>
<!-- Node3&#45;&gt;Node1 -->
<g id="edge2" class="edge"><title>Node3&#45;&gt;Node1</title>
<path fill="none" stroke="#9a32cd" stroke-dasharray="5,2" d="M157.573,-537.521C183.791,-532.42 219.682,-522.431 246,-503.475 277.104,-481.072 299.543,-439.79 308.587,-421.108"/>
<polygon fill="#9a32cd" stroke="#9a32cd" points="156.908,-534.084 147.688,-539.304 158.151,-540.973 156.908,-534.084"/>
<text text-anchor="middle" x="217" y="-532.475" font-family="Helvetica,sans-Serif" font-size="10.00"> time</text>
</g>
<!-- Node4 -->
<g id="node4" class="node"><title>Node4</title>
<g id="a_node4"><a xlink:title=" ">
<polygon fill="white" stroke="#bfbfbf" points="78,-494.975 78,-513.975 166,-513.975 166,-494.975 78,-494.975"/>
<text text-anchor="middle" x="122" y="-501.975" font-family="Helvetica,sans-Serif" font-size="10.00">tracer_registry_type</text>
</a>
</g>
</g>
<!-- Node4&#45;&gt;Node1 -->
<g id="edge3" class="edge"><title>Node4&#45;&gt;Node1</title>
<path fill="none" stroke="#9a32cd" stroke-dasharray="5,2" d="M175.933,-493.552C198.365,-487.674 224.282,-479.176 246,-467.475 269.222,-454.963 291.829,-433.589 303.929,-421.18"/>
<polygon fill="#9a32cd" stroke="#9a32cd" points="175.074,-490.159 166.229,-495.991 176.78,-496.948 175.074,-490.159"/>
<text text-anchor="middle" x="217" y="-491.475" font-family="Helvetica,sans-Serif" font-size="10.00"> tr_reg</text>
</g>
<!-- Node5 -->
<g id="node5" class="node"><title>Node5</title>
<g id="a_node5"><a xlink:title=" ">
<polygon fill="white" stroke="#bfbfbf" points="79.5,-456.975 79.5,-475.975 164.5,-475.975 164.5,-456.975 79.5,-456.975"/>
<text text-anchor="middle" x="122" y="-463.975" font-family="Helvetica,sans-Serif" font-size="10.00">character(len=200)</text>
</a>
</g>
</g>
<!-- Node5&#45;&gt;Node1 -->
<g id="edge4" class="edge"><title>Node5&#45;&gt;Node1</title>
<path fill="none" stroke="#9a32cd" stroke-dasharray="5,2" d="M174.613,-456.638C196.8,-451.919 222.892,-445.711 246,-438.475 261.678,-433.566 278.855,-426.611 291.891,-420.989"/>
<polygon fill="#9a32cd" stroke="#9a32cd" points="173.794,-453.233 164.718,-458.7 175.222,-460.086 173.794,-453.233"/>
<text text-anchor="middle" x="217" y="-455.475" font-family="Helvetica,sans-Serif" font-size="10.00"> ic_file</text>
</g>
<!-- Node6 -->
<g id="node6" class="node"><title>Node6</title>
<g id="a_node6"><a xlink:title=" ">
<polygon fill="white" stroke="#bfbfbf" points="100,-418.975 100,-437.975 144,-437.975 144,-418.975 100,-418.975"/>
<text text-anchor="middle" x="122" y="-425.975" font-family="Helvetica,sans-Serif" font-size="10.00">vardesc</text>
</a>
</g>
</g>
<!-- Node6&#45;&gt;Node1 -->
<g id="edge5" class="edge"><title>Node6&#45;&gt;Node1</title>
<path fill="none" stroke="#9a32cd" stroke-dasharray="5,2" d="M154.309,-425.674C184.174,-423.001 229.609,-418.936 264.221,-415.839"/>
<polygon fill="#9a32cd" stroke="#9a32cd" points="153.708,-422.213 144.059,-426.591 154.331,-429.185 153.708,-422.213"/>
<text text-anchor="middle" x="217" y="-426.475" font-family="Helvetica,sans-Serif" font-size="10.00"> tr_desc</text>
</g>
<!-- Node7 -->
<g id="node7" class="node"><title>Node7</title>
<g id="a_node7"><a xlink:title=" ">
<polygon fill="white" stroke="#bfbfbf" points="74.5,-369.475 74.5,-399.475 169.5,-399.475 169.5,-369.475 74.5,-369.475"/>
<text text-anchor="start" x="82.5" y="-387.475" font-family="Helvetica,sans-Serif" font-size="10.00">type(mom_restart_cs)</text>
<text text-anchor="middle" x="122" y="-376.475" font-family="Helvetica,sans-Serif" font-size="10.00">, pointer</text>
</a>
</g>
</g>
<!-- Node7&#45;&gt;Node1 -->
<g id="edge6" class="edge"><title>Node7&#45;&gt;Node1</title>
<path fill="none" stroke="#9a32cd" stroke-dasharray="5,2" d="M179.996,-392.574C206.845,-396.39 238.542,-400.894 264.257,-404.548"/>
<polygon fill="#9a32cd" stroke="#9a32cd" points="180.359,-389.091 169.966,-391.149 179.374,-396.021 180.359,-389.091"/>
<text text-anchor="middle" x="217" y="-404.475" font-family="Helvetica,sans-Serif" font-size="10.00"> restart_csp</text>
</g>
<!-- Node8 -->
<g id="node8" class="node"><title>Node8</title>
<g id="a_node8"><a xlink:href="structoil__tracer_1_1p3d.html" target="_top" xlink:title=" ">
<polygon fill="white" stroke="black" points="88,-330.975 88,-349.975 156,-349.975 156,-330.975 88,-330.975"/>
<text text-anchor="middle" x="122" y="-337.975" font-family="Helvetica,sans-Serif" font-size="10.00">oil_tracer::p3d</text>
</a>
</g>
</g>
<!-- Node8&#45;&gt;Node1 -->
<g id="edge7" class="edge"><title>Node8&#45;&gt;Node1</title>
<path fill="none" stroke="#9a32cd" stroke-dasharray="5,2" d="M166.067,-335.284C190.477,-334.096 221.032,-335.638 246,-346.475 273.354,-358.348 295.999,-386.732 306.573,-401.76"/>
<polygon fill="#9a32cd" stroke="#9a32cd" points="165.767,-331.796 156.017,-335.941 166.224,-338.781 165.767,-331.796"/>
<text text-anchor="middle" x="217" y="-382.475" font-family="Helvetica,sans-Serif" font-size="10.00"> tr_adx</text>
<text text-anchor="middle" x="217" y="-371.475" font-family="Helvetica,sans-Serif" font-size="10.00">tr_dfx</text>
<text text-anchor="middle" x="217" y="-360.475" font-family="Helvetica,sans-Serif" font-size="10.00">tr_ady</text>
<text text-anchor="middle" x="217" y="-349.475" font-family="Helvetica,sans-Serif" font-size="10.00">tr_dfy</text>
</g>
<!-- Node9 -->
<g id="node9" class="node"><title>Node9</title>
<g id="a_node9"><a xlink:title=" ">
<polygon fill="white" stroke="#bfbfbf" points="0,-226.975 0,-245.975 30,-245.975 30,-226.975 0,-226.975"/>
<text text-anchor="middle" x="15" y="-233.975" font-family="Helvetica,sans-Serif" font-size="10.00">real</text>
</a>
</g>
</g>
<!-- Node9&#45;&gt;Node8 -->
<g id="edge8" class="edge"><title>Node9&#45;&gt;Node8</title>
<path fill="none" stroke="#9a32cd" stroke-dasharray="5,2" d="M25.9799,-254.995C36.1871,-272.582 53.4344,-298.877 74,-316.475 80.6828,-322.193 88.9628,-326.998 96.7024,-330.77"/>
<polygon fill="#9a32cd" stroke="#9a32cd" points="29.0061,-253.236 21.0571,-246.232 22.9031,-256.664 29.0061,-253.236"/>
<text text-anchor="middle" x="52" y="-300.475" font-family="Helvetica,sans-Serif" font-size="10.00"> p</text>
</g>
<!-- Node9&#45;&gt;Node1 -->
<g id="edge10" class="edge"><title>Node9&#45;&gt;Node1</title>
<path fill="none" stroke="#9a32cd" stroke-dasharray="5,2" d="M35.2329,-220.74C45.9454,-212.999 59.9316,-204.486 74,-200.475 115.031,-188.776 132.305,-180.486 170,-200.475 255.228,-245.671 299,-366.901 310.117,-401.895"/>
<polygon fill="#9a32cd" stroke="#9a32cd" points="32.9154,-218.105 27.0746,-226.944 37.1529,-223.677 32.9154,-218.105"/>
<text text-anchor="middle" x="122" y="-313.475" font-family="Helvetica,sans-Serif" font-size="10.00"> oil_decay_rate</text>
<text text-anchor="middle" x="122" y="-302.475" font-family="Helvetica,sans-Serif" font-size="10.00">oil_source_longitude</text>
<text text-anchor="middle" x="122" y="-291.475" font-family="Helvetica,sans-Serif" font-size="10.00">oil_decay_days</text>
<text text-anchor="middle" x="122" y="-280.475" font-family="Helvetica,sans-Serif" font-size="10.00">oil_source_rate</text>
<text text-anchor="middle" x="122" y="-269.475" font-family="Helvetica,sans-Serif" font-size="10.00">land_val</text>
<text text-anchor="middle" x="122" y="-258.475" font-family="Helvetica,sans-Serif" font-size="10.00">oil_end_year</text>
<text text-anchor="middle" x="122" y="-247.475" font-family="Helvetica,sans-Serif" font-size="10.00">ic_val</text>
<text text-anchor="middle" x="122" y="-236.475" font-family="Helvetica,sans-Serif" font-size="10.00">oil_start_year</text>
<text text-anchor="middle" x="122" y="-225.475" font-family="Helvetica,sans-Serif" font-size="10.00">oil_source_latitude</text>
<text text-anchor="middle" x="122" y="-214.475" font-family="Helvetica,sans-Serif" font-size="10.00">young_val</text>
<text text-anchor="middle" x="122" y="-203.475" font-family="Helvetica,sans-Serif" font-size="10.00">...</text>
</g>
<!-- Node10 -->
<g id="node10" class="node"><title>Node10</title>
<g id="a_node10"><a xlink:title=" ">
<polygon fill="white" stroke="#bfbfbf" points="98.5,-135.975 98.5,-154.975 145.5,-154.975 145.5,-135.975 98.5,-135.975"/>
<text text-anchor="middle" x="122" y="-142.975" font-family="Helvetica,sans-Serif" font-size="10.00">diag_ctrl</text>
</a>
</g>
</g>
<!-- Node10&#45;&gt;Node1 -->
<g id="edge9" class="edge"><title>Node10&#45;&gt;Node1</title>
<path fill="none" stroke="#9a32cd" stroke-dasharray="5,2" d="M155.893,-142.086C183.347,-141.147 221.772,-144.509 246,-166.475 282.425,-199.5 306.231,-360.896 311.763,-401.957"/>
<polygon fill="#9a32cd" stroke="#9a32cd" points="155.391,-138.608 145.599,-142.654 155.777,-145.597 155.391,-138.608"/>
<text text-anchor="middle" x="217" y="-169.475" font-family="Helvetica,sans-Serif" font-size="10.00"> diag</text>
</g>
<!-- Node11 -->
<g id="node11" class="node"><title>Node11</title>
<g id="a_node11"><a xlink:title=" ">
<polygon fill="white" stroke="#bfbfbf" points="101.5,-1.9749 101.5,-20.9749 142.5,-20.9749 142.5,-1.9749 101.5,-1.9749"/>
<text text-anchor="middle" x="122" y="-8.9749" font-family="Helvetica,sans-Serif" font-size="10.00">integer</text>
</a>
</g>
</g>
<!-- Node11&#45;&gt;Node1 -->
<g id="edge11" class="edge"><title>Node11&#45;&gt;Node1</title>
<path fill="none" stroke="#9a32cd" stroke-dasharray="5,2" d="M152.751,-3.76053C180.4,1.46783 220.971,3.89634 246,-18.4749 305.345,-71.5188 312.136,-346.475 312.903,-401.778"/>
<polygon fill="#9a32cd" stroke="#9a32cd" points="151.906,-0.361808 142.847,-5.85556 153.355,-7.21028 151.906,-0.361808"/>
<text text-anchor="middle" x="217" y="-131.475" font-family="Helvetica,sans-Serif" font-size="10.00"> id_tracer</text>
<text text-anchor="middle" x="217" y="-120.475" font-family="Helvetica,sans-Serif" font-size="10.00">id_tr_dfx</text>
<text text-anchor="middle" x="217" y="-109.475" font-family="Helvetica,sans-Serif" font-size="10.00">ntr</text>
<text text-anchor="middle" x="217" y="-98.4749" font-family="Helvetica,sans-Serif" font-size="10.00">id_tr_dfy</text>
<text text-anchor="middle" x="217" y="-87.4749" font-family="Helvetica,sans-Serif" font-size="10.00">oil_source_i</text>
<text text-anchor="middle" x="217" y="-76.4749" font-family="Helvetica,sans-Serif" font-size="10.00">oil_source_j</text>
<text text-anchor="middle" x="217" y="-65.4749" font-family="Helvetica,sans-Serif" font-size="10.00">oil_source_k</text>
<text text-anchor="middle" x="217" y="-54.4749" font-family="Helvetica,sans-Serif" font-size="10.00">id_tr_adx</text>
<text text-anchor="middle" x="217" y="-43.4749" font-family="Helvetica,sans-Serif" font-size="10.00">ind_tr</text>
<text text-anchor="middle" x="217" y="-32.4749" font-family="Helvetica,sans-Serif" font-size="10.00">id_tr_ady</text>
<text text-anchor="middle" x="217" y="-21.4749" font-family="Helvetica,sans-Serif" font-size="10.00">...</text>
</g>
</g>
</svg>
