<?xml version="1.0" encoding="UTF-8" standalone="no"?>
<!DOCTYPE svg PUBLIC "-//W3C//DTD SVG 1.1//EN"
 "http://www.w3.org/Graphics/SVG/1.1/DTD/svg11.dtd">
<!-- Generated by graphviz version 2.30.1 (20170916.1124)
 -->
<!-- Title: mom_bulk_mixed_layer::bulkmixedlayer_cs Pages: 1 -->
<!--zoomable 262 -->
<svg id="main" version="1.1" xmlns="http://www.w3.org/2000/svg" xmlns:xlink="http://www.w3.org/1999/xlink" xml:space="preserve" onload="init(evt)">
<style type="text/css"><![CDATA[
.edge:hover path { stroke: red; }
.edge:hover polygon { stroke: red; fill: red; }
]]></style>
<script type="text/javascript"><![CDATA[
var edges = document.getElementsByTagName('g');
if (edges && edges.length) {
  for (var i=0;i<edges.length;i++) {
    if (edges[i].id.substr(0,4)=='edge') {
      edges[i].setAttribute('class','edge');
    }
  }
}
]]></script>
        <defs>
                <circle id="rim" cx="0" cy="0" r="7"/>
                <circle id="rim2" cx="0" cy="0" r="3.5"/>
                <g id="zoomPlus">
                        <use xlink:href="#rim" fill="#404040">
                                <set attributeName="fill" to="#808080" begin="zoomplus.mouseover" end="zoomplus.mouseout"/>
                        </use>
                        <path d="M-4,0h8M0,-4v8" fill="none" stroke="white" stroke-width="1.5" pointer-events="none"/>
                </g>
                <g id="zoomMin">
                        <use xlink:href="#rim" fill="#404040">
                                <set attributeName="fill" to="#808080" begin="zoomminus.mouseover" end="zoomminus.mouseout"/>
                        </use>
                        <path d="M-4,0h8" fill="none" stroke="white" stroke-width="1.5" pointer-events="none"/>
                </g>
                <g id="dirArrow">
                        <path fill="none" stroke="white" stroke-width="1.5" d="M0,-3.0v7 M-2.5,-0.5L0,-3.0L2.5,-0.5"/>
                </g>
               <g id="resetDef">
                       <use xlink:href="#rim2" fill="#404040">
                               <set attributeName="fill" to="#808080" begin="reset.mouseover" end="reset.mouseout"/>
                       </use>
               </g>
        </defs>

<script type="text/javascript">
var viewWidth = 507;
var viewHeight = 262;
var sectionId = 'dynsection-0';
</script>
<script xlink:href="svgpan.js"/>
<svg id="graph" class="graph">
<g id="viewport">
<title>mom_bulk_mixed_layer::bulkmixedlayer_cs</title>
<polygon fill="white" stroke="white" points="-4,5 -4,-258 504.296,-258 504.296,5 -4,5"/>
<!-- Node1 -->
<g id="node1" class="node"><title>Node1</title>
<g id="a_node1"><a xlink:title=" ">
<polygon fill="#bfbfbf" stroke="black" points="169.796,-1 169.796,-31 270.796,-31 270.796,-1 169.796,-1"/>
<text text-anchor="start" x="177.796" y="-19" font-family="Helvetica,sans-Serif" font-size="10.00">mom_bulk_mixed_layer</text>
<text text-anchor="middle" x="220.296" y="-8" font-family="Helvetica,sans-Serif" font-size="10.00">::bulkmixedlayer_cs</text>
</a>
</g>
</g>
<!-- Node2 -->
<g id="node2" class="node"><title>Node2</title>
<g id="a_node2"><a xlink:title=" ">
<polygon fill="white" stroke="#bfbfbf" points="7.29631,-234.5 7.29631,-253.5 45.2963,-253.5 45.2963,-234.5 7.29631,-234.5"/>
<text text-anchor="middle" x="26.2963" y="-241.5" font-family="Helvetica,sans-Serif" font-size="10.00">logical</text>
</a>
</g>
</g>
<!-- Node2&#45;&gt;Node1 -->
<g id="edge1" class="edge"><title>Node2&#45;&gt;Node1</title>
<path fill="none" stroke="#9a32cd" stroke-dasharray="5,2" d="M19.151,-224.77C5.73293,-187.164 -18.2428,-100.3 24.2963,-50 42.568,-28.3948 117.868,-20.9281 169.629,-18.3517"/>
<polygon fill="#9a32cd" stroke="#9a32cd" points="15.9641,-226.241 22.7419,-234.384 22.5217,-223.792 15.9641,-226.241"/>
<text text-anchor="middle" x="57.7963" y="-207.5" font-family="Helvetica,sans-Serif" font-size="10.00"> absorb_all_sw</text>
<text text-anchor="middle" x="57.7963" y="-196.5" font-family="Helvetica,sans-Serif" font-size="10.00">correct_absorption</text>
<text text-anchor="middle" x="57.7963" y="-185.5" font-family="Helvetica,sans-Serif" font-size="10.00">do_rivermix</text>
<text text-anchor="start" x="24.2963" y="-174.5" font-family="Helvetica,sans-Serif" font-size="10.00">salt_reject_below</text>
<text text-anchor="middle" x="57.7963" y="-163.5" font-family="Helvetica,sans-Serif" font-size="10.00">_ml</text>
<text text-anchor="middle" x="57.7963" y="-152.5" font-family="Helvetica,sans-Serif" font-size="10.00">resolve_ekman</text>
<text text-anchor="middle" x="57.7963" y="-141.5" font-family="Helvetica,sans-Serif" font-size="10.00">ml_resort</text>
<text text-anchor="start" x="24.2963" y="-130.5" font-family="Helvetica,sans-Serif" font-size="10.00">allow_clocks_in</text>
<text text-anchor="middle" x="57.7963" y="-119.5" font-family="Helvetica,sans-Serif" font-size="10.00">_omp_loops</text>
<text text-anchor="start" x="24.2963" y="-108.5" font-family="Helvetica,sans-Serif" font-size="10.00">use_river_heat</text>
<text text-anchor="middle" x="57.7963" y="-97.5" font-family="Helvetica,sans-Serif" font-size="10.00">_content</text>
<text text-anchor="middle" x="57.7963" y="-86.5" font-family="Helvetica,sans-Serif" font-size="10.00">limit_det</text>
<text text-anchor="start" x="24.2963" y="-75.5" font-family="Helvetica,sans-Serif" font-size="10.00">use_calving_heat</text>
<text text-anchor="middle" x="57.7963" y="-64.5" font-family="Helvetica,sans-Serif" font-size="10.00">_content</text>
<text text-anchor="middle" x="57.7963" y="-53.5" font-family="Helvetica,sans-Serif" font-size="10.00">...</text>
</g>
<!-- Node3 -->
<g id="node3" class="node"><title>Node3</title>
<g id="a_node3"><a xlink:title=" ">
<polygon fill="white" stroke="#bfbfbf" points="63.7963,-234.5 63.7963,-253.5 114.796,-253.5 114.796,-234.5 63.7963,-234.5"/>
<text text-anchor="middle" x="89.2963" y="-241.5" font-family="Helvetica,sans-Serif" font-size="10.00">time_type</text>
</a>
</g>
</g>
<!-- Node3&#45;&gt;Node1 -->
<g id="edge2" class="edge"><title>Node3&#45;&gt;Node1</title>
<path fill="none" stroke="#9a32cd" stroke-dasharray="5,2" d="M92.7568,-224.295C101.677,-176.163 124.859,-51.6674 126.296,-50 137.361,-37.1601 153.73,-29.3147 169.72,-24.5216"/>
<polygon fill="#9a32cd" stroke="#9a32cd" points="89.2842,-223.825 90.9049,-234.295 96.1672,-225.1 89.2842,-223.825"/>
<text text-anchor="middle" x="135.296" y="-130.5" font-family="Helvetica,sans-Serif" font-size="10.00"> time</text>
</g>
<!-- Node4 -->
<g id="node4" class="node"><title>Node4</title>
<g id="a_node4"><a xlink:title=" ">
<polygon fill="white" stroke="#bfbfbf" points="133.296,-234.5 133.296,-253.5 211.296,-253.5 211.296,-234.5 133.296,-234.5"/>
<text text-anchor="middle" x="172.296" y="-241.5" font-family="Helvetica,sans-Serif" font-size="10.00">group_pass_type</text>
</a>
</g>
</g>
<!-- Node4&#45;&gt;Node1 -->
<g id="edge3" class="edge"><title>Node4&#45;&gt;Node1</title>
<path fill="none" stroke="#9a32cd" stroke-dasharray="5,2" d="M165.613,-224.447C153.78,-188.201 133.258,-106.585 165.296,-50 169.74,-42.151 176.878,-35.9652 184.561,-31.176"/>
<polygon fill="#9a32cd" stroke="#9a32cd" points="162.388,-225.834 168.938,-234.162 169.011,-223.567 162.388,-225.834"/>
<text text-anchor="middle" x="210.296" y="-130.5" font-family="Helvetica,sans-Serif" font-size="10.00"> pass_h_sum_hmbl_prev</text>
</g>
<!-- Node5 -->
<g id="node5" class="node"><title>Node5</title>
<g id="a_node5"><a xlink:title=" ">
<polygon fill="white" stroke="#bfbfbf" points="249.796,-234.5 249.796,-253.5 296.796,-253.5 296.796,-234.5 249.796,-234.5"/>
<text text-anchor="middle" x="273.296" y="-241.5" font-family="Helvetica,sans-Serif" font-size="10.00">diag_ctrl</text>
</a>
</g>
</g>
<!-- Node5&#45;&gt;Node1 -->
<g id="edge4" class="edge"><title>Node5&#45;&gt;Node1</title>
<path fill="none" stroke="#9a32cd" stroke-dasharray="5,2" d="M275.731,-224.35C279.539,-188.511 283.79,-108.403 255.296,-50 251.781,-42.7945 245.98,-36.3524 240.103,-31.1146"/>
<polygon fill="#9a32cd" stroke="#9a32cd" points="272.247,-224.005 274.552,-234.346 279.199,-224.825 272.247,-224.005"/>
<text text-anchor="middle" x="288.296" y="-130.5" font-family="Helvetica,sans-Serif" font-size="10.00"> diag</text>
</g>
<!-- Node6 -->
<g id="node6" class="node"><title>Node6</title>
<g id="a_node6"><a xlink:title=" ">
<polygon fill="white" stroke="#bfbfbf" points="315.296,-234.5 315.296,-253.5 345.296,-253.5 345.296,-234.5 315.296,-234.5"/>
<text text-anchor="middle" x="330.296" y="-241.5" font-family="Helvetica,sans-Serif" font-size="10.00">real</text>
</a>
</g>
</g>
<!-- Node6&#45;&gt;Node1 -->
<g id="edge5" class="edge"><title>Node6&#45;&gt;Node1</title>
<path fill="none" stroke="#9a32cd" stroke-dasharray="5,2" d="M327.949,-223.947C322.045,-176.585 306.667,-56.8272 301.296,-50 293.598,-40.2135 282.521,-33.3106 271.019,-28.4482"/>
<polygon fill="#9a32cd" stroke="#9a32cd" points="324.502,-224.589 329.205,-234.082 331.448,-223.728 324.502,-224.589"/>
<text text-anchor="middle" x="359.296" y="-185.5" font-family="Helvetica,sans-Serif" font-size="10.00"> diag_tke_mixing</text>
<text text-anchor="middle" x="359.296" y="-174.5" font-family="Helvetica,sans-Serif" font-size="10.00">diag_pe_detrain2</text>
<text text-anchor="middle" x="359.296" y="-163.5" font-family="Helvetica,sans-Serif" font-size="10.00">diag_tke_conv</text>
<text text-anchor="middle" x="359.296" y="-152.5" font-family="Helvetica,sans-Serif" font-size="10.00">diag_tke_conv_s2</text>
<text text-anchor="middle" x="359.296" y="-141.5" font-family="Helvetica,sans-Serif" font-size="10.00">ml_depth</text>
<text text-anchor="middle" x="359.296" y="-130.5" font-family="Helvetica,sans-Serif" font-size="10.00">bl_extrap_lim</text>
<text text-anchor="middle" x="359.296" y="-119.5" font-family="Helvetica,sans-Serif" font-size="10.00">dt_ds_wt</text>
<text text-anchor="middle" x="359.296" y="-108.5" font-family="Helvetica,sans-Serif" font-size="10.00">h_limit_fluxes</text>
<text text-anchor="middle" x="359.296" y="-97.5" font-family="Helvetica,sans-Serif" font-size="10.00">bulk_ri_ml</text>
<text text-anchor="middle" x="359.296" y="-86.5" font-family="Helvetica,sans-Serif" font-size="10.00">tke_decay</text>
<text text-anchor="middle" x="359.296" y="-75.5" font-family="Helvetica,sans-Serif" font-size="10.00">...</text>
</g>
<!-- Node7 -->
<g id="node7" class="node"><title>Node7</title>
<g id="a_node7"><a xlink:title=" ">
<polygon fill="white" stroke="#bfbfbf" points="392.796,-234.5 392.796,-253.5 433.796,-253.5 433.796,-234.5 392.796,-234.5"/>
<text text-anchor="middle" x="413.296" y="-241.5" font-family="Helvetica,sans-Serif" font-size="10.00">integer</text>
</a>
</g>
</g>
<!-- Node7&#45;&gt;Node1 -->
<g id="edge6" class="edge"><title>Node7&#45;&gt;Node1</title>
<path fill="none" stroke="#9a32cd" stroke-dasharray="5,2" d="M417.666,-224.011C425.268,-185.648 436.141,-98.4446 391.296,-50 375.276,-32.6933 315.281,-24.225 270.855,-20.2499"/>
<polygon fill="#9a32cd" stroke="#9a32cd" points="414.145,-223.741 415.477,-234.252 420.99,-225.204 414.145,-223.741"/>
<text text-anchor="start" x="424.296" y="-191" font-family="Helvetica,sans-Serif" font-size="10.00"> ml_presort_nz_conv</text>
<text text-anchor="middle" x="461.796" y="-180" font-family="Helvetica,sans-Serif" font-size="10.00">_adj</text>
<text text-anchor="middle" x="461.796" y="-169" font-family="Helvetica,sans-Serif" font-size="10.00">id_tke_conv_s2</text>
<text text-anchor="middle" x="461.796" y="-158" font-family="Helvetica,sans-Serif" font-size="10.00">id_tke_conv_decay</text>
<text text-anchor="middle" x="461.796" y="-147" font-family="Helvetica,sans-Serif" font-size="10.00">id_tke_ribulk</text>
<text text-anchor="middle" x="461.796" y="-136" font-family="Helvetica,sans-Serif" font-size="10.00">id_pe_detrain2</text>
<text text-anchor="middle" x="461.796" y="-125" font-family="Helvetica,sans-Serif" font-size="10.00">id_tke_wind</text>
<text text-anchor="middle" x="461.796" y="-114" font-family="Helvetica,sans-Serif" font-size="10.00">id_tke_mech_decay</text>
<text text-anchor="middle" x="461.796" y="-103" font-family="Helvetica,sans-Serif" font-size="10.00">id_tke_conv</text>
<text text-anchor="middle" x="461.796" y="-92" font-family="Helvetica,sans-Serif" font-size="10.00">nkbl</text>
<text text-anchor="middle" x="461.796" y="-81" font-family="Helvetica,sans-Serif" font-size="10.00">id_tke_pen_sw</text>
<text text-anchor="middle" x="461.796" y="-70" font-family="Helvetica,sans-Serif" font-size="10.00">...</text>
</g>
</g>
</svg>
        <g id="navigator" transform="translate(0 0)" fill="#404254">
                <rect fill="#f2f5e9" fill-opacity="0.5" stroke="#606060" stroke-width=".5" x="0" y="0" width="60" height="60"/>
                <use id="zoomplus" xlink:href="#zoomPlus" x="17" y="9" onmousedown="handleZoom(evt,'in')"/>
                <use id="zoomminus" xlink:href="#zoomMin" x="42" y="9" onmousedown="handleZoom(evt,'out')"/>
                <use id="reset" xlink:href="#resetDef" x="30" y="36" onmousedown="handleReset()"/>
                <g id="arrowUp" xlink:href="#dirArrow" transform="translate(30 24)" onmousedown="handlePan(0,-1)">
                  <use xlink:href="#rim" fill="#404040">
                        <set attributeName="fill" to="#808080" begin="arrowUp.mouseover" end="arrowUp.mouseout"/>
                  </use>
                  <path fill="none" stroke="white" stroke-width="1.5" d="M0,-3.0v7 M-2.5,-0.5L0,-3.0L2.5,-0.5"/>
                </g>
                <g id="arrowRight" xlink:href="#dirArrow" transform="rotate(90) translate(36 -43)" onmousedown="handlePan(1,0)">
                  <use xlink:href="#rim" fill="#404040">
                        <set attributeName="fill" to="#808080" begin="arrowRight.mouseover" end="arrowRight.mouseout"/>
                  </use>
                  <path fill="none" stroke="white" stroke-width="1.5" d="M0,-3.0v7 M-2.5,-0.5L0,-3.0L2.5,-0.5"/>
                </g>
                <g id="arrowDown" xlink:href="#dirArrow" transform="rotate(180) translate(-30 -48)" onmousedown="handlePan(0,1)">
                  <use xlink:href="#rim" fill="#404040">
                        <set attributeName="fill" to="#808080" begin="arrowDown.mouseover" end="arrowDown.mouseout"/>
                  </use>
                  <path fill="none" stroke="white" stroke-width="1.5" d="M0,-3.0v7 M-2.5,-0.5L0,-3.0L2.5,-0.5"/>
                </g>
                <g id="arrowLeft" xlink:href="#dirArrow" transform="rotate(270) translate(-36 17)" onmousedown="handlePan(-1,0)">
                  <use xlink:href="#rim" fill="#404040">
                        <set attributeName="fill" to="#808080" begin="arrowLeft.mouseover" end="arrowLeft.mouseout"/>
                  </use>
                  <path fill="none" stroke="white" stroke-width="1.5" d="M0,-3.0v7 M-2.5,-0.5L0,-3.0L2.5,-0.5"/>
                </g>
        </g>
        <svg viewBox="0 0 15 15" width="100%" height="30px" preserveAspectRatio="xMaxYMin meet">
         <g id="arrow_out" transform="scale(0.3 0.3)">
          <a xlink:href="structmom__bulk__mixed__layer_1_1bulkmixedlayer__cs__coll__graph_org.svg" target="_base">
           <rect id="button" ry="5" rx="5" y="6" x="6" height="38" width="38"
                fill="#f2f5e9" fill-opacity="0.5" stroke="#606060" stroke-width="1.0"/>
           <path id="arrow"
             d="M 11.500037,31.436501 C 11.940474,20.09759 22.043105,11.32322 32.158766,21.979434 L 37.068811,17.246167 C 37.068811,17.246167 37.088388,32 37.088388,32 L 22.160133,31.978069 C 22.160133,31.978069 26.997745,27.140456 26.997745,27.140456 C 18.528582,18.264221 13.291696,25.230495 11.500037,31.436501 z"
             style="fill:#404040;"/>
          </a>
         </g>
        </svg>
</svg>
