<?xml version="1.0" encoding="UTF-8" standalone="no"?>
<!DOCTYPE svg PUBLIC "-//W3C//DTD SVG 1.1//EN"
 "http://www.w3.org/Graphics/SVG/1.1/DTD/svg11.dtd">
<!-- Generated by graphviz version 2.30.1 (20170916.1124)
 -->
<!-- Title: mom_tidal_forcing::tidal_forcing_cs Pages: 1 -->
<svg width="326pt" height="218pt"
 viewBox="0.00 0.00 326.00 218.00" xmlns="http://www.w3.org/2000/svg" xmlns:xlink="http://www.w3.org/1999/xlink">
<g id="graph0" class="graph" transform="scale(1 1) rotate(0) translate(4 214)">
<title>mom_tidal_forcing::tidal_forcing_cs</title>
<polygon fill="white" stroke="white" points="-4,5 -4,-214 323,-214 323,5 -4,5"/>
<!-- Node1 -->
<g id="node1" class="node"><title>Node1</title>
<g id="a_node1"><a xlink:title=" ">
<polygon fill="#bfbfbf" stroke="black" points="119,-1 119,-31 205,-31 205,-1 119,-1"/>
<text text-anchor="start" x="127" y="-19" font-family="Helvetica,sans-Serif" font-size="10.00">mom_tidal_forcing::</text>
<text text-anchor="middle" x="162" y="-8" font-family="Helvetica,sans-Serif" font-size="10.00">tidal_forcing_cs</text>
</a>
</g>
</g>
<!-- Node2 -->
<g id="node2" class="node"><title>Node2</title>
<g id="a_node2"><a xlink:title=" ">
<polygon fill="white" stroke="#bfbfbf" points="0,-190.5 0,-209.5 80,-209.5 80,-190.5 0,-190.5"/>
<text text-anchor="middle" x="40" y="-197.5" font-family="Helvetica,sans-Serif" font-size="10.00">character(len=16)</text>
</a>
</g>
</g>
<!-- Node2&#45;&gt;Node1 -->
<g id="edge1" class="edge"><title>Node2&#45;&gt;Node1</title>
<path fill="none" stroke="#9a32cd" stroke-dasharray="5,2" d="M35.9727,-180.576C30.3972,-149.804 24.1986,-87.6264 55,-50 70.4539,-31.1218 96.471,-22.8222 118.98,-19.2662"/>
<polygon fill="#9a32cd" stroke="#9a32cd" points="32.5412,-181.266 37.929,-190.389 39.4061,-179.897 32.5412,-181.266"/>
<text text-anchor="middle" x="78" y="-108.5" font-family="Helvetica,sans-Serif" font-size="10.00"> const_name</text>
</g>
<!-- Node3 -->
<g id="node3" class="node"><title>Node3</title>
<g id="a_node3"><a xlink:title=" ">
<polygon fill="white" stroke="#bfbfbf" points="98,-190.5 98,-209.5 136,-209.5 136,-190.5 98,-190.5"/>
<text text-anchor="middle" x="117" y="-197.5" font-family="Helvetica,sans-Serif" font-size="10.00">logical</text>
</a>
</g>
</g>
<!-- Node3&#45;&gt;Node1 -->
<g id="edge2" class="edge"><title>Node3&#45;&gt;Node1</title>
<path fill="none" stroke="#9a32cd" stroke-dasharray="5,2" d="M112.155,-180.567C105.472,-151.158 96.5197,-92.6026 118,-50 121.783,-42.497 128.164,-36.2529 134.911,-31.2888"/>
<polygon fill="#9a32cd" stroke="#9a32cd" points="108.764,-181.433 114.537,-190.317 115.564,-179.772 108.764,-181.433"/>
<text text-anchor="middle" x="151.5" y="-119.5" font-family="Helvetica,sans-Serif" font-size="10.00"> tidal_sal_from_file</text>
<text text-anchor="middle" x="151.5" y="-108.5" font-family="Helvetica,sans-Serif" font-size="10.00">use_prev_tides</text>
<text text-anchor="middle" x="151.5" y="-97.5" font-family="Helvetica,sans-Serif" font-size="10.00">use_sal_scalar</text>
</g>
<!-- Node4 -->
<g id="node4" class="node"><title>Node4</title>
<g id="a_node4"><a xlink:title=" ">
<polygon fill="white" stroke="#bfbfbf" points="186.5,-190.5 186.5,-209.5 227.5,-209.5 227.5,-190.5 186.5,-190.5"/>
<text text-anchor="middle" x="207" y="-197.5" font-family="Helvetica,sans-Serif" font-size="10.00">integer</text>
</a>
</g>
</g>
<!-- Node4&#45;&gt;Node1 -->
<g id="edge3" class="edge"><title>Node4&#45;&gt;Node1</title>
<path fill="none" stroke="#9a32cd" stroke-dasharray="5,2" d="M206.946,-179.905C206.262,-150.843 202.541,-94.2208 185,-50 182.374,-43.3788 178.189,-36.7951 174.104,-31.2701"/>
<polygon fill="#9a32cd" stroke="#9a32cd" points="203.451,-180.291 207.084,-190.243 210.45,-180.197 203.451,-180.291"/>
<text text-anchor="middle" x="218" y="-114" font-family="Helvetica,sans-Serif" font-size="10.00"> struct</text>
<text text-anchor="middle" x="218" y="-103" font-family="Helvetica,sans-Serif" font-size="10.00">nc</text>
</g>
<!-- Node5 -->
<g id="node5" class="node"><title>Node5</title>
<g id="a_node5"><a xlink:title=" ">
<polygon fill="white" stroke="#bfbfbf" points="246,-190.5 246,-209.5 276,-209.5 276,-190.5 246,-190.5"/>
<text text-anchor="middle" x="261" y="-197.5" font-family="Helvetica,sans-Serif" font-size="10.00">real</text>
</a>
</g>
</g>
<!-- Node5&#45;&gt;Node1 -->
<g id="edge4" class="edge"><title>Node5&#45;&gt;Node1</title>
<path fill="none" stroke="#9a32cd" stroke-dasharray="5,2" d="M262.621,-180.007C264.203,-149.351 262.935,-88.513 233,-50 225.909,-40.8777 215.7,-34.1752 205.225,-29.2911"/>
<polygon fill="#9a32cd" stroke="#9a32cd" points="259.116,-179.955 261.929,-190.169 266.1,-180.43 259.116,-179.955"/>
<text text-anchor="middle" x="290.5" y="-163.5" font-family="Helvetica,sans-Serif" font-size="10.00"> sinphase_prev</text>
<text text-anchor="middle" x="290.5" y="-152.5" font-family="Helvetica,sans-Serif" font-size="10.00">cos_struct</text>
<text text-anchor="middle" x="290.5" y="-141.5" font-family="Helvetica,sans-Serif" font-size="10.00">sin_struct</text>
<text text-anchor="middle" x="290.5" y="-130.5" font-family="Helvetica,sans-Serif" font-size="10.00">cosphasesal</text>
<text text-anchor="middle" x="290.5" y="-119.5" font-family="Helvetica,sans-Serif" font-size="10.00">freq</text>
<text text-anchor="middle" x="290.5" y="-108.5" font-family="Helvetica,sans-Serif" font-size="10.00">phase0</text>
<text text-anchor="middle" x="290.5" y="-97.5" font-family="Helvetica,sans-Serif" font-size="10.00">ampsal</text>
<text text-anchor="middle" x="290.5" y="-86.5" font-family="Helvetica,sans-Serif" font-size="10.00">cosphase_prev</text>
<text text-anchor="middle" x="290.5" y="-75.5" font-family="Helvetica,sans-Serif" font-size="10.00">amp_prev</text>
<text text-anchor="middle" x="290.5" y="-64.5" font-family="Helvetica,sans-Serif" font-size="10.00">sinphasesal</text>
<text text-anchor="middle" x="290.5" y="-53.5" font-family="Helvetica,sans-Serif" font-size="10.00">...</text>
</g>
</g>
</svg>
