<?xml version="1.0" encoding="UTF-8" standalone="no"?>
<!DOCTYPE svg PUBLIC "-//W3C//DTD SVG 1.1//EN"
 "http://www.w3.org/Graphics/SVG/1.1/DTD/svg11.dtd">
<!-- Generated by graphviz version 2.30.1 (20170916.1124)
 -->
<!-- Title: mom_legacy_barotropic::bt_obc_type Pages: 1 -->
<svg width="131pt" height="218pt"
 viewBox="0.00 0.00 131.00 218.00" xmlns="http://www.w3.org/2000/svg" xmlns:xlink="http://www.w3.org/1999/xlink">
<g id="graph0" class="graph" transform="scale(1 1) rotate(0) translate(4 214)">
<title>mom_legacy_barotropic::bt_obc_type</title>
<polygon fill="white" stroke="white" points="-4,5 -4,-214 128,-214 128,5 -4,5"/>
<!-- Node1 -->
<g id="node1" class="node"><title>Node1</title>
<g id="a_node1"><a xlink:title=" ">
<polygon fill="#bfbfbf" stroke="black" points="0,-1 0,-31 102,-31 102,-1 0,-1"/>
<text text-anchor="start" x="8" y="-19" font-family="Helvetica,sans-Serif" font-size="10.00">mom_legacy_barotropic</text>
<text text-anchor="middle" x="51" y="-8" font-family="Helvetica,sans-Serif" font-size="10.00">::bt_obc_type</text>
</a>
</g>
</g>
<!-- Node2 -->
<g id="node2" class="node"><title>Node2</title>
<g id="a_node2"><a xlink:title=" ">
<polygon fill="white" stroke="#bfbfbf" points="2.5,-190.5 2.5,-209.5 43.5,-209.5 43.5,-190.5 2.5,-190.5"/>
<text text-anchor="middle" x="23" y="-197.5" font-family="Helvetica,sans-Serif" font-size="10.00">integer</text>
</a>
</g>
</g>
<!-- Node2&#45;&gt;Node1 -->
<g id="edge1" class="edge"><title>Node2&#45;&gt;Node1</title>
<path fill="none" stroke="#9a32cd" stroke-dasharray="5,2" d="M19.2578,-180.303C14.3093,-151.375 7.95818,-94.4678 24,-50 26.512,-43.0368 31.1813,-36.4782 35.9393,-31.0706"/>
<polygon fill="#9a32cd" stroke="#9a32cd" points="15.8372,-181.053 21.0987,-190.249 22.7203,-179.779 15.8372,-181.053"/>
<text text-anchor="middle" x="41" y="-147" font-family="Helvetica,sans-Serif" font-size="10.00"> js_u_obc</text>
<text text-anchor="middle" x="41" y="-136" font-family="Helvetica,sans-Serif" font-size="10.00">js_v_obc</text>
<text text-anchor="middle" x="41" y="-125" font-family="Helvetica,sans-Serif" font-size="10.00">is_u_obc</text>
<text text-anchor="middle" x="41" y="-114" font-family="Helvetica,sans-Serif" font-size="10.00">is_v_obc</text>
<text text-anchor="middle" x="41" y="-103" font-family="Helvetica,sans-Serif" font-size="10.00">je_u_obc</text>
<text text-anchor="middle" x="41" y="-92" font-family="Helvetica,sans-Serif" font-size="10.00">je_v_obc</text>
<text text-anchor="middle" x="41" y="-81" font-family="Helvetica,sans-Serif" font-size="10.00">ie_u_obc</text>
<text text-anchor="middle" x="41" y="-70" font-family="Helvetica,sans-Serif" font-size="10.00">ie_v_obc</text>
</g>
<!-- Node3 -->
<g id="node3" class="node"><title>Node3</title>
<g id="a_node3"><a xlink:title=" ">
<polygon fill="white" stroke="#bfbfbf" points="65,-190.5 65,-209.5 95,-209.5 95,-190.5 65,-190.5"/>
<text text-anchor="middle" x="80" y="-197.5" font-family="Helvetica,sans-Serif" font-size="10.00">real</text>
</a>
</g>
</g>
<!-- Node3&#45;&gt;Node1 -->
<g id="edge2" class="edge"><title>Node3&#45;&gt;Node1</title>
<path fill="none" stroke="#9a32cd" stroke-dasharray="5,2" d="M77.6004,-180.147C73.9072,-151.812 66.3737,-96.5967 58,-50 56.8813,-43.7746 55.4606,-36.9285 54.1919,-31.0935"/>
<polygon fill="#9a32cd" stroke="#9a32cd" points="74.151,-180.765 78.9004,-190.236 81.0936,-179.871 74.151,-180.765"/>
<text text-anchor="middle" x="100" y="-163.5" font-family="Helvetica,sans-Serif" font-size="10.00"> eta_outer_u</text>
<text text-anchor="middle" x="100" y="-152.5" font-family="Helvetica,sans-Serif" font-size="10.00">vbt_outer</text>
<text text-anchor="middle" x="100" y="-141.5" font-family="Helvetica,sans-Serif" font-size="10.00">eta_outer_v</text>
<text text-anchor="middle" x="100" y="-130.5" font-family="Helvetica,sans-Serif" font-size="10.00">vhbt</text>
<text text-anchor="middle" x="100" y="-119.5" font-family="Helvetica,sans-Serif" font-size="10.00">uhbt</text>
<text text-anchor="middle" x="100" y="-108.5" font-family="Helvetica,sans-Serif" font-size="10.00">h_u</text>
<text text-anchor="middle" x="100" y="-97.5" font-family="Helvetica,sans-Serif" font-size="10.00">h_v</text>
<text text-anchor="middle" x="100" y="-86.5" font-family="Helvetica,sans-Serif" font-size="10.00">cg_u</text>
<text text-anchor="middle" x="100" y="-75.5" font-family="Helvetica,sans-Serif" font-size="10.00">cg_v</text>
<text text-anchor="middle" x="100" y="-64.5" font-family="Helvetica,sans-Serif" font-size="10.00">ubt_outer</text>
<text text-anchor="middle" x="100" y="-53.5" font-family="Helvetica,sans-Serif" font-size="10.00">...</text>
</g>
</g>
</svg>
