<?xml version="1.0" encoding="UTF-8" standalone="no"?>
<!DOCTYPE svg PUBLIC "-//W3C//DTD SVG 1.1//EN"
 "http://www.w3.org/Graphics/SVG/1.1/DTD/svg11.dtd">
<!-- Generated by graphviz version 2.30.1 (20170916.1124)
 -->
<!-- Title: ocean_model_mod::ocean_public_type Pages: 1 -->
<svg width="461pt" height="266pt"
 viewBox="0.00 0.00 461.00 266.00" xmlns="http://www.w3.org/2000/svg" xmlns:xlink="http://www.w3.org/1999/xlink">
<g id="graph0" class="graph" transform="scale(1 1) rotate(0) translate(4 262)">
<title>ocean_model_mod::ocean_public_type</title>
<polygon fill="white" stroke="white" points="-4,5 -4,-262 458,-262 458,5 -4,5"/>
<!-- Node1 -->
<g id="node1" class="node"><title>Node1</title>
<g id="a_node1"><a xlink:title=" ">
<polygon fill="#bfbfbf" stroke="black" points="168.5,-1 168.5,-31 279.5,-31 279.5,-1 168.5,-1"/>
<text text-anchor="start" x="176.5" y="-19" font-family="Helvetica,sans-Serif" font-size="10.00">ocean_model_mod::ocean</text>
<text text-anchor="middle" x="224" y="-8" font-family="Helvetica,sans-Serif" font-size="10.00">_public_type</text>
</a>
</g>
</g>
<!-- Node2 -->
<g id="node2" class="node"><title>Node2</title>
<g id="a_node2"><a xlink:title=" ">
<polygon fill="white" stroke="#bfbfbf" points="0,-158.5 0,-177.5 38,-177.5 38,-158.5 0,-158.5"/>
<text text-anchor="middle" x="19" y="-165.5" font-family="Helvetica,sans-Serif" font-size="10.00">logical</text>
</a>
</g>
</g>
<!-- Node2&#45;&gt;Node1 -->
<g id="edge1" class="edge"><title>Node2&#45;&gt;Node1</title>
<path fill="none" stroke="#9a32cd" stroke-dasharray="5,2" d="M20.2017,-148.284C22.9295,-122.178 31.8476,-75.2073 61,-50 76.9434,-36.2141 127.718,-27.4193 168.409,-22.4066"/>
<polygon fill="#9a32cd" stroke="#9a32cd" points="16.7044,-148.106 19.3519,-158.365 23.6796,-148.694 16.7044,-148.106"/>
<text text-anchor="middle" x="84" y="-92" font-family="Helvetica,sans-Serif" font-size="10.00"> maskmap</text>
<text text-anchor="middle" x="84" y="-81" font-family="Helvetica,sans-Serif" font-size="10.00">is_ocean_pe</text>
</g>
<!-- Node3 -->
<g id="node3" class="node"><title>Node3</title>
<g id="a_node3"><a xlink:href="structcoupler__types__mod_1_1coupler__2d__bc__type.html" target="_top" xlink:title=" ">
<polygon fill="white" stroke="black" points="56.5,-153 56.5,-183 147.5,-183 147.5,-153 56.5,-153"/>
<text text-anchor="start" x="64.5" y="-171" font-family="Helvetica,sans-Serif" font-size="10.00">coupler_types_mod::</text>
<text text-anchor="middle" x="102" y="-160" font-family="Helvetica,sans-Serif" font-size="10.00">coupler_2d_bc_type</text>
</a>
</g>
</g>
<!-- Node3&#45;&gt;Node1 -->
<g id="edge2" class="edge"><title>Node3&#45;&gt;Node1</title>
<path fill="none" stroke="#9a32cd" stroke-dasharray="5,2" d="M106.122,-142.76C111.69,-116.805 123.955,-75.8732 149,-50 156.717,-42.0274 166.695,-35.8496 176.838,-31.113"/>
<polygon fill="#9a32cd" stroke="#9a32cd" points="102.628,-142.391 104.128,-152.879 109.496,-143.744 102.628,-142.391"/>
<text text-anchor="middle" x="159.5" y="-86.5" font-family="Helvetica,sans-Serif" font-size="10.00"> fields</text>
</g>
<!-- Node4 -->
<g id="node4" class="node"><title>Node4</title>
<g id="a_node4"><a xlink:title=" ">
<polygon fill="white" stroke="#bfbfbf" points="130.5,-238.5 130.5,-257.5 171.5,-257.5 171.5,-238.5 130.5,-238.5"/>
<text text-anchor="middle" x="151" y="-245.5" font-family="Helvetica,sans-Serif" font-size="10.00">integer</text>
</a>
</g>
</g>
<!-- Node4&#45;&gt;Node3 -->
<g id="edge3" class="edge"><title>Node4&#45;&gt;Node3</title>
<path fill="none" stroke="#9a32cd" stroke-dasharray="5,2" d="M140.131,-229.698C131.354,-215.726 119.153,-196.305 110.937,-183.227"/>
<polygon fill="#9a32cd" stroke="#9a32cd" points="137.286,-231.749 145.569,-238.355 143.213,-228.025 137.286,-231.749"/>
<text text-anchor="middle" x="151.5" y="-211.5" font-family="Helvetica,sans-Serif" font-size="10.00"> num_bcs</text>
</g>
<!-- Node4&#45;&gt;Node1 -->
<g id="edge7" class="edge"><title>Node4&#45;&gt;Node1</title>
<path fill="none" stroke="#9a32cd" stroke-dasharray="5,2" d="M164.219,-230.124C166.363,-226.883 168.4,-223.428 170,-220 178.192,-202.443 209.992,-74.1605 220.562,-31.0712"/>
<polygon fill="#9a32cd" stroke="#9a32cd" points="161.196,-228.332 158.173,-238.486 166.868,-232.433 161.196,-228.332"/>
<text text-anchor="middle" x="209.5" y="-182" font-family="Helvetica,sans-Serif" font-size="10.00"> axes</text>
<text text-anchor="middle" x="209.5" y="-171" font-family="Helvetica,sans-Serif" font-size="10.00">pelist</text>
<text text-anchor="middle" x="209.5" y="-160" font-family="Helvetica,sans-Serif" font-size="10.00">avg_kount</text>
<text text-anchor="middle" x="209.5" y="-149" font-family="Helvetica,sans-Serif" font-size="10.00">stagger</text>
</g>
<!-- Node5 -->
<g id="node5" class="node"><title>Node5</title>
<g id="a_node5"><a xlink:title=" ">
<polygon fill="white" stroke="#bfbfbf" points="239,-158.5 239,-177.5 291,-177.5 291,-158.5 239,-158.5"/>
<text text-anchor="middle" x="265" y="-165.5" font-family="Helvetica,sans-Serif" font-size="10.00">domain2d</text>
</a>
</g>
</g>
<!-- Node5&#45;&gt;Node1 -->
<g id="edge4" class="edge"><title>Node5&#45;&gt;Node1</title>
<path fill="none" stroke="#9a32cd" stroke-dasharray="5,2" d="M259.884,-148.285C251.566,-117.851 235.291,-58.3092 227.863,-31.1327"/>
<polygon fill="#9a32cd" stroke="#9a32cd" points="256.545,-149.343 262.558,-158.066 263.298,-147.497 256.545,-149.343"/>
<text text-anchor="middle" x="269.5" y="-86.5" font-family="Helvetica,sans-Serif" font-size="10.00"> domain</text>
</g>
<!-- Node6 -->
<g id="node6" class="node"><title>Node6</title>
<g id="a_node6"><a xlink:title=" ">
<polygon fill="white" stroke="#bfbfbf" points="309,-158.5 309,-177.5 389,-177.5 389,-158.5 309,-158.5"/>
<text text-anchor="middle" x="349" y="-165.5" font-family="Helvetica,sans-Serif" font-size="10.00">character(len=32)</text>
</a>
</g>
</g>
<!-- Node6&#45;&gt;Node1 -->
<g id="edge5" class="edge"><title>Node6&#45;&gt;Node1</title>
<path fill="none" stroke="#9a32cd" stroke-dasharray="5,2" d="M343.343,-148.552C334.861,-123.501 316.708,-78.5784 288,-50 280.292,-42.3269 270.432,-36.0578 260.772,-31.1246"/>
<polygon fill="#9a32cd" stroke="#9a32cd" points="340.072,-149.811 346.477,-158.25 346.733,-147.659 340.072,-149.811"/>
<text text-anchor="middle" x="364.5" y="-86.5" font-family="Helvetica,sans-Serif" font-size="10.00"> instance_name</text>
</g>
<!-- Node7 -->
<g id="node7" class="node"><title>Node7</title>
<g id="a_node7"><a xlink:title=" ">
<polygon fill="white" stroke="#bfbfbf" points="410,-158.5 410,-177.5 440,-177.5 440,-158.5 410,-158.5"/>
<text text-anchor="middle" x="425" y="-165.5" font-family="Helvetica,sans-Serif" font-size="10.00">real</text>
</a>
</g>
</g>
<!-- Node7&#45;&gt;Node1 -->
<g id="edge6" class="edge"><title>Node7&#45;&gt;Node1</title>
<path fill="none" stroke="#9a32cd" stroke-dasharray="5,2" d="M426.269,-148.434C426.943,-122.509 423.978,-75.754 397,-50 380.413,-34.1651 323.869,-25.5571 279.887,-21.1434"/>
<polygon fill="#9a32cd" stroke="#9a32cd" points="422.772,-148.286 425.796,-158.44 429.764,-148.616 422.772,-148.286"/>
<text text-anchor="middle" x="439" y="-119.5" font-family="Helvetica,sans-Serif" font-size="10.00"> v_surf</text>
<text text-anchor="middle" x="439" y="-108.5" font-family="Helvetica,sans-Serif" font-size="10.00">u_surf</text>
<text text-anchor="middle" x="439" y="-97.5" font-family="Helvetica,sans-Serif" font-size="10.00">t_surf</text>
<text text-anchor="middle" x="439" y="-86.5" font-family="Helvetica,sans-Serif" font-size="10.00">s_surf</text>
<text text-anchor="middle" x="439" y="-75.5" font-family="Helvetica,sans-Serif" font-size="10.00">frazil</text>
<text text-anchor="middle" x="439" y="-64.5" font-family="Helvetica,sans-Serif" font-size="10.00">area</text>
<text text-anchor="middle" x="439" y="-53.5" font-family="Helvetica,sans-Serif" font-size="10.00">sea_lev</text>
</g>
</g>
</svg>
