<?xml version="1.0" encoding="UTF-8" standalone="no"?>
<!DOCTYPE svg PUBLIC "-//W3C//DTD SVG 1.1//EN"
 "http://www.w3.org/Graphics/SVG/1.1/DTD/svg11.dtd">
<!-- Generated by graphviz version 2.30.1 (20170916.1124)
 -->
<!-- Title: mom_cvmix_shear::cvmix_shear_cs Pages: 1 -->
<svg width="198pt" height="152pt"
 viewBox="0.00 0.00 198.00 152.00" xmlns="http://www.w3.org/2000/svg" xmlns:xlink="http://www.w3.org/1999/xlink">
<g id="graph0" class="graph" transform="scale(1 1) rotate(0) translate(4 148)">
<title>mom_cvmix_shear::cvmix_shear_cs</title>
<polygon fill="white" stroke="white" points="-4,5 -4,-148 195,-148 195,5 -4,5"/>
<!-- Node1 -->
<g id="node1" class="node"><title>Node1</title>
<g id="a_node1"><a xlink:title="Control structure including parameters for CVMix interior shear schemes.">
<polygon fill="#bfbfbf" stroke="black" points="35.5,-1 35.5,-31 142.5,-31 142.5,-1 35.5,-1"/>
<text text-anchor="start" x="43.5" y="-19" font-family="Helvetica,sans-Serif" font-size="10.00">mom_cvmix_shear::cvmix</text>
<text text-anchor="middle" x="89" y="-8" font-family="Helvetica,sans-Serif" font-size="10.00">_shear_cs</text>
</a>
</g>
</g>
<!-- Node2 -->
<g id="node2" class="node"><title>Node2</title>
<g id="a_node2"><a xlink:title=" ">
<polygon fill="white" stroke="#bfbfbf" points="0,-124.5 0,-143.5 38,-143.5 38,-124.5 0,-124.5"/>
<text text-anchor="middle" x="19" y="-131.5" font-family="Helvetica,sans-Serif" font-size="10.00">logical</text>
</a>
</g>
</g>
<!-- Node2&#45;&gt;Node1 -->
<g id="edge1" class="edge"><title>Node2&#45;&gt;Node1</title>
<path fill="none" stroke="#9a32cd" stroke-dasharray="5,2" d="M21.4433,-114.472C24.5295,-96.617 31.2045,-69.5117 45,-50 50.1818,-42.6711 57.4906,-36.2751 64.6657,-31.115"/>
<polygon fill="#9a32cd" stroke="#9a32cd" points="17.9662,-114.058 19.9242,-124.47 24.8867,-115.109 17.9662,-114.058"/>
<text text-anchor="middle" x="65" y="-81" font-family="Helvetica,sans-Serif" font-size="10.00"> use_pp81</text>
<text text-anchor="middle" x="65" y="-70" font-family="Helvetica,sans-Serif" font-size="10.00">use_lmd94</text>
</g>
<!-- Node3 -->
<g id="node3" class="node"><title>Node3</title>
<g id="a_node3"><a xlink:title=" ">
<polygon fill="white" stroke="#bfbfbf" points="56.5,-124.5 56.5,-143.5 121.5,-143.5 121.5,-124.5 56.5,-124.5"/>
<text text-anchor="middle" x="89" y="-131.5" font-family="Helvetica,sans-Serif" font-size="10.00">character(10)</text>
</a>
</g>
</g>
<!-- Node3&#45;&gt;Node1 -->
<g id="edge2" class="edge"><title>Node3&#45;&gt;Node1</title>
<path fill="none" stroke="#9a32cd" stroke-dasharray="5,2" d="M89,-113.986C89,-90.7214 89,-51.8729 89,-31.1061"/>
<polygon fill="#9a32cd" stroke="#9a32cd" points="85.5001,-114.281 89,-124.281 92.5001,-114.281 85.5001,-114.281"/>
<text text-anchor="middle" x="112.5" y="-75.5" font-family="Helvetica,sans-Serif" font-size="10.00"> mix_scheme</text>
</g>
<!-- Node4 -->
<g id="node4" class="node"><title>Node4</title>
<g id="a_node4"><a xlink:title=" ">
<polygon fill="white" stroke="#bfbfbf" points="144,-124.5 144,-143.5 174,-143.5 174,-124.5 144,-124.5"/>
<text text-anchor="middle" x="159" y="-131.5" font-family="Helvetica,sans-Serif" font-size="10.00">real</text>
</a>
</g>
</g>
<!-- Node4&#45;&gt;Node1 -->
<g id="edge3" class="edge"><title>Node4&#45;&gt;Node1</title>
<path fill="none" stroke="#9a32cd" stroke-dasharray="5,2" d="M157.77,-114.373C155.783,-96.4436 150.588,-69.2846 137,-50 131.699,-42.4772 124.102,-36.1328 116.511,-31.0797"/>
<polygon fill="#9a32cd" stroke="#9a32cd" points="154.291,-114.763 158.654,-124.418 161.264,-114.15 154.291,-114.763"/>
<text text-anchor="middle" x="173.5" y="-97.5" font-family="Helvetica,sans-Serif" font-size="10.00"> kpp_exp</text>
<text text-anchor="middle" x="173.5" y="-86.5" font-family="Helvetica,sans-Serif" font-size="10.00">s2</text>
<text text-anchor="middle" x="173.5" y="-75.5" font-family="Helvetica,sans-Serif" font-size="10.00">n2</text>
<text text-anchor="middle" x="173.5" y="-64.5" font-family="Helvetica,sans-Serif" font-size="10.00">ri_zero</text>
<text text-anchor="middle" x="173.5" y="-53.5" font-family="Helvetica,sans-Serif" font-size="10.00">nu_zero</text>
</g>
</g>
</svg>
