<?xml version="1.0" encoding="UTF-8" standalone="no"?>
<!DOCTYPE svg PUBLIC "-//W3C//DTD SVG 1.1//EN"
 "http://www.w3.org/Graphics/SVG/1.1/DTD/svg11.dtd">
<!-- Generated by graphviz version 2.30.1 (20170916.1124)
 -->
<!-- Title: mom_dynamics_legacy_split::mom_dyn_legacy_split_cs Pages: 1 -->
<svg width="318pt" height="1017pt"
 viewBox="0.00 0.00 318.00 1017.27" xmlns="http://www.w3.org/2000/svg" xmlns:xlink="http://www.w3.org/1999/xlink">
<g id="graph0" class="graph" transform="scale(1 1) rotate(0) translate(4 1013.27)">
<title>mom_dynamics_legacy_split::mom_dyn_legacy_split_cs</title>
<polygon fill="white" stroke="white" points="-4,5 -4,-1013.27 315,-1013.27 315,5 -4,5"/>
<!-- Node1 -->
<g id="node1" class="node"><title>Node1</title>
<g id="a_node1"><a xlink:title=" ">
<polygon fill="#bfbfbf" stroke="black" points="208.5,-547.774 208.5,-588.774 309.5,-588.774 309.5,-547.774 208.5,-547.774"/>
<text text-anchor="start" x="216.5" y="-576.774" font-family="Helvetica,sans-Serif" font-size="10.00">mom_dynamics_legacy</text>
<text text-anchor="start" x="216.5" y="-565.774" font-family="Helvetica,sans-Serif" font-size="10.00">_split::mom_dyn_legacy</text>
<text text-anchor="middle" x="259" y="-554.774" font-family="Helvetica,sans-Serif" font-size="10.00">_split_cs</text>
</a>
</g>
</g>
<!-- Node2 -->
<g id="node2" class="node"><title>Node2</title>
<g id="a_node2"><a xlink:title=" ">
<polygon fill="white" stroke="#bfbfbf" points="4.5,-984.774 4.5,-1003.77 93.5,-1003.77 93.5,-984.774 4.5,-984.774"/>
<text text-anchor="middle" x="49" y="-991.774" font-family="Helvetica,sans-Serif" font-size="10.00">type(ale_cs), pointer</text>
</a>
</g>
</g>
<!-- Node2&#45;&gt;Node1 -->
<g id="edge1" class="edge"><title>Node2&#45;&gt;Node1</title>
<path fill="none" stroke="#9a32cd" stroke-dasharray="5,2" d="M103.644,-999.027C132.994,-998.569 167.797,-992.526 190,-970.274 244.433,-915.721 255.464,-663.126 257.545,-588.862"/>
<polygon fill="#9a32cd" stroke="#9a32cd" points="103.538,-995.526 93.5195,-998.974 103.501,-1002.53 103.538,-995.526"/>
<text text-anchor="middle" x="153" y="-1001.27" font-family="Helvetica,sans-Serif" font-size="10.00"> ale_csp</text>
</g>
<!-- Node3 -->
<g id="node3" class="node"><title>Node3</title>
<g id="a_node3"><a xlink:title=" ">
<polygon fill="white" stroke="#bfbfbf" points="30,-875.774 30,-894.774 68,-894.774 68,-875.774 30,-875.774"/>
<text text-anchor="middle" x="49" y="-882.774" font-family="Helvetica,sans-Serif" font-size="10.00">logical</text>
</a>
</g>
</g>
<!-- Node3&#45;&gt;Node1 -->
<g id="edge2" class="edge"><title>Node3&#45;&gt;Node1</title>
<path fill="none" stroke="#9a32cd" stroke-dasharray="5,2" d="M78.5533,-883.161C114.775,-879.89 174.416,-872.342 190,-857.274 229.001,-819.565 249.84,-648.471 256.015,-588.843"/>
<polygon fill="#9a32cd" stroke="#9a32cd" points="77.808,-879.711 68.1387,-884.042 78.3982,-886.686 77.808,-879.711"/>
<text text-anchor="middle" x="153" y="-958.274" font-family="Helvetica,sans-Serif" font-size="10.00"> flux_bt_coupling</text>
<text text-anchor="middle" x="153" y="-947.274" font-family="Helvetica,sans-Serif" font-size="10.00">calc_dtbt</text>
<text text-anchor="middle" x="153" y="-936.274" font-family="Helvetica,sans-Serif" font-size="10.00">bt_use_layer_fluxes</text>
<text text-anchor="middle" x="153" y="-925.274" font-family="Helvetica,sans-Serif" font-size="10.00">readjust_velocity</text>
<text text-anchor="middle" x="153" y="-914.274" font-family="Helvetica,sans-Serif" font-size="10.00">readjust_bt_trans</text>
<text text-anchor="middle" x="153" y="-903.274" font-family="Helvetica,sans-Serif" font-size="10.00">split_bottom_stress</text>
<text text-anchor="middle" x="153" y="-892.274" font-family="Helvetica,sans-Serif" font-size="10.00">debug</text>
<text text-anchor="middle" x="153" y="-881.274" font-family="Helvetica,sans-Serif" font-size="10.00">module_is_initialized</text>
</g>
<!-- Node4 -->
<g id="node4" class="node"><title>Node4</title>
<g id="a_node4"><a xlink:title=" ">
<polygon fill="white" stroke="#bfbfbf" points="11.5,-837.774 11.5,-856.774 86.5,-856.774 86.5,-837.774 11.5,-837.774"/>
<text text-anchor="middle" x="49" y="-844.774" font-family="Helvetica,sans-Serif" font-size="10.00">ocean_obc_type</text>
</a>
</g>
</g>
<!-- Node4&#45;&gt;Node1 -->
<g id="edge3" class="edge"><title>Node4&#45;&gt;Node1</title>
<path fill="none" stroke="#9a32cd" stroke-dasharray="5,2" d="M96.7422,-845.638C127.125,-842.118 165.502,-832.664 190,-808.274 251.38,-747.164 258.358,-635.054 258.473,-588.93"/>
<polygon fill="#9a32cd" stroke="#9a32cd" points="96.3865,-842.156 86.7767,-846.617 97.071,-849.122 96.3865,-842.156"/>
<text text-anchor="middle" x="153" y="-845.274" font-family="Helvetica,sans-Serif" font-size="10.00"> obc</text>
</g>
<!-- Node5 -->
<g id="node5" class="node"><title>Node5</title>
<g id="a_node5"><a xlink:title=" ">
<polygon fill="white" stroke="#bfbfbf" points="0,-788.274 0,-818.274 98,-818.274 98,-788.274 0,-788.274"/>
<text text-anchor="start" x="8" y="-806.274" font-family="Helvetica,sans-Serif" font-size="10.00">type(legacy_barotropic</text>
<text text-anchor="middle" x="49" y="-795.274" font-family="Helvetica,sans-Serif" font-size="10.00">_cs), pointer</text>
</a>
</g>
</g>
<!-- Node5&#45;&gt;Node1 -->
<g id="edge4" class="edge"><title>Node5&#45;&gt;Node1</title>
<path fill="none" stroke="#9a32cd" stroke-dasharray="5,2" d="M108.066,-796.21C135.966,-790.083 168.029,-778.64 190,-757.274 237.999,-710.596 252.25,-627.622 256.375,-589.053"/>
<polygon fill="#9a32cd" stroke="#9a32cd" points="107.115,-792.831 98.0022,-798.236 108.496,-799.694 107.115,-792.831"/>
<text text-anchor="middle" x="153" y="-796.274" font-family="Helvetica,sans-Serif" font-size="10.00"> barotropic_csp</text>
</g>
<!-- Node6 -->
<g id="node6" class="node"><title>Node6</title>
<g id="a_node6"><a xlink:title=" ">
<polygon fill="white" stroke="#bfbfbf" points="9,-739.274 9,-769.274 89,-769.274 89,-739.274 9,-739.274"/>
<text text-anchor="start" x="17" y="-757.274" font-family="Helvetica,sans-Serif" font-size="10.00">type(set_visc_cs),</text>
<text text-anchor="middle" x="49" y="-746.274" font-family="Helvetica,sans-Serif" font-size="10.00"> pointer</text>
</a>
</g>
</g>
<!-- Node6&#45;&gt;Node1 -->
<g id="edge5" class="edge"><title>Node6&#45;&gt;Node1</title>
<path fill="none" stroke="#9a32cd" stroke-dasharray="5,2" d="M99.1551,-747.922C128.419,-741.94 164.665,-730.408 190,-708.274 226.832,-676.097 245.574,-619.435 253.394,-588.997"/>
<polygon fill="#9a32cd" stroke="#9a32cd" points="98.3024,-744.521 89.1248,-749.815 99.6004,-751.4 98.3024,-744.521"/>
<text text-anchor="middle" x="153" y="-745.274" font-family="Helvetica,sans-Serif" font-size="10.00"> set_visc_csp</text>
</g>
<!-- Node7 -->
<g id="node7" class="node"><title>Node7</title>
<g id="a_node7"><a xlink:title=" ">
<polygon fill="white" stroke="#bfbfbf" points="10,-690.274 10,-720.274 88,-720.274 88,-690.274 10,-690.274"/>
<text text-anchor="start" x="18" y="-708.274" font-family="Helvetica,sans-Serif" font-size="10.00">type(vertvisc_cs),</text>
<text text-anchor="middle" x="49" y="-697.274" font-family="Helvetica,sans-Serif" font-size="10.00"> pointer</text>
</a>
</g>
</g>
<!-- Node7&#45;&gt;Node1 -->
<g id="edge6" class="edge"><title>Node7&#45;&gt;Node1</title>
<path fill="none" stroke="#9a32cd" stroke-dasharray="5,2" d="M98.075,-697.523C126.782,-691.113 162.821,-679.786 190,-660.274 216.138,-641.51 236.426,-609.652 247.8,-588.787"/>
<polygon fill="#9a32cd" stroke="#9a32cd" points="97.3182,-694.105 88.2536,-699.59 98.7601,-700.955 97.3182,-694.105"/>
<text text-anchor="middle" x="153" y="-696.274" font-family="Helvetica,sans-Serif" font-size="10.00"> vertvisc_csp</text>
</g>
<!-- Node8 -->
<g id="node8" class="node"><title>Node8</title>
<g id="a_node8"><a xlink:title=" ">
<polygon fill="white" stroke="#bfbfbf" points="14.5,-651.774 14.5,-670.774 83.5,-670.774 83.5,-651.774 14.5,-651.774"/>
<text text-anchor="middle" x="49" y="-658.774" font-family="Helvetica,sans-Serif" font-size="10.00">cont_diag_ptrs</text>
</a>
</g>
</g>
<!-- Node8&#45;&gt;Node1 -->
<g id="edge7" class="edge"><title>Node8&#45;&gt;Node1</title>
<path fill="none" stroke="#9a32cd" stroke-dasharray="5,2" d="M93.698,-651.391C122.037,-644.062 159.265,-632.673 190,-617.274 205.352,-609.583 220.998,-598.571 233.407,-588.934"/>
<polygon fill="#9a32cd" stroke="#9a32cd" points="92.5332,-648.075 83.6882,-653.908 94.2398,-654.864 92.5332,-648.075"/>
<text text-anchor="middle" x="153" y="-648.274" font-family="Helvetica,sans-Serif" font-size="10.00"> cdp</text>
</g>
<!-- Node9 -->
<g id="node9" class="node"><title>Node9</title>
<g id="a_node9"><a xlink:title=" ">
<polygon fill="white" stroke="#bfbfbf" points="8.5,-602.274 8.5,-632.274 89.5,-632.274 89.5,-602.274 8.5,-602.274"/>
<text text-anchor="start" x="16.5" y="-620.274" font-family="Helvetica,sans-Serif" font-size="10.00">type(hor_visc_cs),</text>
<text text-anchor="middle" x="49" y="-609.274" font-family="Helvetica,sans-Serif" font-size="10.00"> pointer</text>
</a>
</g>
</g>
<!-- Node9&#45;&gt;Node1 -->
<g id="edge8" class="edge"><title>Node9&#45;&gt;Node1</title>
<path fill="none" stroke="#9a32cd" stroke-dasharray="5,2" d="M99.4639,-605.621C132.327,-597.88 175.32,-587.751 208.243,-579.996"/>
<polygon fill="#9a32cd" stroke="#9a32cd" points="98.5438,-602.242 89.6128,-607.942 100.149,-609.056 98.5438,-602.242"/>
<text text-anchor="middle" x="153" y="-605.274" font-family="Helvetica,sans-Serif" font-size="10.00"> hor_visc_csp</text>
</g>
<!-- Node10 -->
<g id="node10" class="node"><title>Node10</title>
<g id="a_node10"><a xlink:title=" ">
<polygon fill="white" stroke="#bfbfbf" points="7.5,-553.274 7.5,-583.274 90.5,-583.274 90.5,-553.274 7.5,-553.274"/>
<text text-anchor="start" x="15.5" y="-571.274" font-family="Helvetica,sans-Serif" font-size="10.00">type(continuity_cs)</text>
<text text-anchor="middle" x="49" y="-560.274" font-family="Helvetica,sans-Serif" font-size="10.00">, pointer</text>
</a>
</g>
</g>
<!-- Node10&#45;&gt;Node1 -->
<g id="edge9" class="edge"><title>Node10&#45;&gt;Node1</title>
<path fill="none" stroke="#9a32cd" stroke-dasharray="5,2" d="M100.856,-568.274C133.563,-568.274 175.859,-568.274 208.331,-568.274"/>
<polygon fill="#9a32cd" stroke="#9a32cd" points="100.598,-564.774 90.5983,-568.274 100.598,-571.774 100.598,-564.774"/>
<text text-anchor="middle" x="153" y="-571.274" font-family="Helvetica,sans-Serif" font-size="10.00"> continuity_csp</text>
</g>
<!-- Node11 -->
<g id="node11" class="node"><title>Node11</title>
<g id="a_node11"><a xlink:title=" ">
<polygon fill="white" stroke="#bfbfbf" points="6,-504.274 6,-534.274 92,-534.274 92,-504.274 6,-504.274"/>
<text text-anchor="start" x="14" y="-522.274" font-family="Helvetica,sans-Serif" font-size="10.00">type(bt_cont_type),</text>
<text text-anchor="middle" x="49" y="-511.274" font-family="Helvetica,sans-Serif" font-size="10.00"> pointer</text>
</a>
</g>
</g>
<!-- Node11&#45;&gt;Node1 -->
<g id="edge10" class="edge"><title>Node11&#45;&gt;Node1</title>
<path fill="none" stroke="#9a32cd" stroke-dasharray="5,2" d="M101.877,-531.495C134.423,-539.162 176.154,-548.993 208.282,-556.562"/>
<polygon fill="#9a32cd" stroke="#9a32cd" points="102.628,-528.076 92.0919,-529.19 101.023,-534.89 102.628,-528.076"/>
<text text-anchor="middle" x="153" y="-554.274" font-family="Helvetica,sans-Serif" font-size="10.00"> bt_cont</text>
</g>
<!-- Node12 -->
<g id="node12" class="node"><title>Node12</title>
<g id="a_node12"><a xlink:title=" ">
<polygon fill="white" stroke="#bfbfbf" points="6,-455.274 6,-485.274 92,-485.274 92,-455.274 6,-455.274"/>
<text text-anchor="start" x="14" y="-473.274" font-family="Helvetica,sans-Serif" font-size="10.00">type(coriolisadv_cs)</text>
<text text-anchor="middle" x="49" y="-462.274" font-family="Helvetica,sans-Serif" font-size="10.00">, pointer</text>
</a>
</g>
</g>
<!-- Node12&#45;&gt;Node1 -->
<g id="edge11" class="edge"><title>Node12&#45;&gt;Node1</title>
<path fill="none" stroke="#9a32cd" stroke-dasharray="5,2" d="M101.938,-485.102C128.94,-493.727 162.051,-505.764 190,-520.274 204.749,-527.931 219.969,-538.395 232.261,-547.599"/>
<polygon fill="#9a32cd" stroke="#9a32cd" points="102.875,-481.729 92.2865,-482.081 100.784,-488.409 102.875,-481.729"/>
<text text-anchor="middle" x="153" y="-523.274" font-family="Helvetica,sans-Serif" font-size="10.00"> coriolisadv_csp</text>
</g>
<!-- Node13 -->
<g id="node13" class="node"><title>Node13</title>
<g id="a_node13"><a xlink:title=" ">
<polygon fill="white" stroke="#bfbfbf" points="25.5,-416.774 25.5,-435.774 72.5,-435.774 72.5,-416.774 25.5,-416.774"/>
<text text-anchor="middle" x="49" y="-423.774" font-family="Helvetica,sans-Serif" font-size="10.00">diag_ctrl</text>
</a>
</g>
</g>
<!-- Node13&#45;&gt;Node1 -->
<g id="edge12" class="edge"><title>Node13&#45;&gt;Node1</title>
<path fill="none" stroke="#9a32cd" stroke-dasharray="5,2" d="M82.5442,-432.203C112.703,-438.94 157.654,-452.258 190,-476.274 215.674,-495.336 235.951,-526.81 247.464,-547.544"/>
<polygon fill="#9a32cd" stroke="#9a32cd" points="83.0465,-428.731 72.5387,-430.087 81.5984,-435.58 83.0465,-428.731"/>
<text text-anchor="middle" x="153" y="-479.274" font-family="Helvetica,sans-Serif" font-size="10.00"> diag</text>
</g>
<!-- Node14 -->
<g id="node14" class="node"><title>Node14</title>
<g id="a_node14"><a xlink:title=" ">
<polygon fill="white" stroke="#bfbfbf" points="10.5,-367.274 10.5,-397.274 87.5,-397.274 87.5,-367.274 10.5,-367.274"/>
<text text-anchor="start" x="18.5" y="-385.274" font-family="Helvetica,sans-Serif" font-size="10.00">type(tidal_forcing</text>
<text text-anchor="middle" x="49" y="-374.274" font-family="Helvetica,sans-Serif" font-size="10.00">_cs), pointer</text>
</a>
</g>
</g>
<!-- Node14&#45;&gt;Node1 -->
<g id="edge13" class="edge"><title>Node14&#45;&gt;Node1</title>
<path fill="none" stroke="#9a32cd" stroke-dasharray="5,2" d="M97.677,-387.924C127.195,-393.582 164.247,-404.858 190,-427.274 227.207,-459.659 245.836,-516.998 253.528,-547.628"/>
<polygon fill="#9a32cd" stroke="#9a32cd" points="98.0365,-384.434 87.5813,-386.148 96.8236,-391.328 98.0365,-384.434"/>
<text text-anchor="middle" x="153" y="-430.274" font-family="Helvetica,sans-Serif" font-size="10.00"> tides_csp</text>
</g>
<!-- Node15 -->
<g id="node15" class="node"><title>Node15</title>
<g id="a_node15"><a xlink:title=" ">
<polygon fill="white" stroke="#bfbfbf" points="7,-318.274 7,-348.274 91,-348.274 91,-318.274 7,-318.274"/>
<text text-anchor="start" x="15" y="-336.274" font-family="Helvetica,sans-Serif" font-size="10.00">type(pressureforce</text>
<text text-anchor="middle" x="49" y="-325.274" font-family="Helvetica,sans-Serif" font-size="10.00">_cs), pointer</text>
</a>
</g>
</g>
<!-- Node15&#45;&gt;Node1 -->
<g id="edge14" class="edge"><title>Node15&#45;&gt;Node1</title>
<path fill="none" stroke="#9a32cd" stroke-dasharray="5,2" d="M101.226,-338.509C130.582,-343.999 166.205,-355.244 190,-378.274 238.462,-425.177 252.491,-508.975 256.469,-547.66"/>
<polygon fill="#9a32cd" stroke="#9a32cd" points="101.578,-335.019 91.1336,-336.798 100.408,-341.921 101.578,-335.019"/>
<text text-anchor="middle" x="153" y="-381.274" font-family="Helvetica,sans-Serif" font-size="10.00"> pressureforce_csp</text>
</g>
<!-- Node16 -->
<g id="node16" class="node"><title>Node16</title>
<g id="a_node16"><a xlink:title=" ">
<polygon fill="white" stroke="#bfbfbf" points="28.5,-209.774 28.5,-228.774 69.5,-228.774 69.5,-209.774 28.5,-209.774"/>
<text text-anchor="middle" x="49" y="-216.774" font-family="Helvetica,sans-Serif" font-size="10.00">integer</text>
</a>
</g>
</g>
<!-- Node16&#45;&gt;Node1 -->
<g id="edge15" class="edge"><title>Node16&#45;&gt;Node1</title>
<path fill="none" stroke="#9a32cd" stroke-dasharray="5,2" d="M79.6082,-208.777C110.728,-199.816 159.338,-191.982 190,-217.274 241.474,-259.733 254.451,-478.448 257.287,-547.416"/>
<polygon fill="#9a32cd" stroke="#9a32cd" points="78.2983,-205.518 69.7761,-211.813 80.3636,-212.206 78.2983,-205.518"/>
<text text-anchor="middle" x="153" y="-330.274" font-family="Helvetica,sans-Serif" font-size="10.00"> id_vh</text>
<text text-anchor="middle" x="153" y="-319.274" font-family="Helvetica,sans-Serif" font-size="10.00">id_cau</text>
<text text-anchor="middle" x="153" y="-308.274" font-family="Helvetica,sans-Serif" font-size="10.00">id_uh</text>
<text text-anchor="middle" x="153" y="-297.274" font-family="Helvetica,sans-Serif" font-size="10.00">id_du_adj</text>
<text text-anchor="middle" x="153" y="-286.274" font-family="Helvetica,sans-Serif" font-size="10.00">id_cav</text>
<text text-anchor="middle" x="153" y="-275.274" font-family="Helvetica,sans-Serif" font-size="10.00">id_dv_adj</text>
<text text-anchor="middle" x="153" y="-264.274" font-family="Helvetica,sans-Serif" font-size="10.00">id_uav</text>
<text text-anchor="middle" x="153" y="-253.274" font-family="Helvetica,sans-Serif" font-size="10.00">id_dv_adj2</text>
<text text-anchor="middle" x="153" y="-242.274" font-family="Helvetica,sans-Serif" font-size="10.00">id_vav</text>
<text text-anchor="middle" x="153" y="-231.274" font-family="Helvetica,sans-Serif" font-size="10.00">id_du_adj2</text>
<text text-anchor="middle" x="153" y="-220.274" font-family="Helvetica,sans-Serif" font-size="10.00">...</text>
</g>
<!-- Node17 -->
<g id="node17" class="node"><title>Node17</title>
<g id="a_node17"><a xlink:title=" ">
<polygon fill="white" stroke="#bfbfbf" points="34,-43.774 34,-62.774 64,-62.774 64,-43.774 34,-43.774"/>
<text text-anchor="middle" x="49" y="-50.774" font-family="Helvetica,sans-Serif" font-size="10.00">real</text>
</a>
</g>
</g>
<!-- Node17&#45;&gt;Node1 -->
<g id="edge16" class="edge"><title>Node17&#45;&gt;Node1</title>
<path fill="none" stroke="#9a32cd" stroke-dasharray="5,2" d="M73.9438,-44.7404C104.769,-35.4485 158.144,-25.3476 190,-53.274 227.977,-86.5664 251.557,-455.894 256.858,-547.706"/>
<polygon fill="#9a32cd" stroke="#9a32cd" points="72.8661,-41.4104 64.4183,-47.8045 75.0097,-48.0741 72.8661,-41.4104"/>
<text text-anchor="middle" x="153" y="-188.274" font-family="Helvetica,sans-Serif" font-size="10.00"> cau</text>
<text text-anchor="middle" x="153" y="-177.274" font-family="Helvetica,sans-Serif" font-size="10.00">cav</text>
<text text-anchor="middle" x="153" y="-166.274" font-family="Helvetica,sans-Serif" font-size="10.00">begw</text>
<text text-anchor="middle" x="153" y="-155.274" font-family="Helvetica,sans-Serif" font-size="10.00">be</text>
<text text-anchor="middle" x="153" y="-144.274" font-family="Helvetica,sans-Serif" font-size="10.00">eta_pf</text>
<text text-anchor="start" x="137" y="-133.274" font-family="Helvetica,sans-Serif" font-size="10.00">allocable</text>
<text text-anchor="middle" x="153" y="-122.274" font-family="Helvetica,sans-Serif" font-size="10.00">_</text>
<text text-anchor="middle" x="153" y="-111.274" font-family="Helvetica,sans-Serif" font-size="10.00">vhbt</text>
<text text-anchor="start" x="137" y="-100.274" font-family="Helvetica,sans-Serif" font-size="10.00">visc_rem</text>
<text text-anchor="middle" x="153" y="-89.274" font-family="Helvetica,sans-Serif" font-size="10.00">_u</text>
<text text-anchor="middle" x="153" y="-78.274" font-family="Helvetica,sans-Serif" font-size="10.00">pbce</text>
<text text-anchor="middle" x="153" y="-67.274" font-family="Helvetica,sans-Serif" font-size="10.00">uhbt</text>
<text text-anchor="middle" x="153" y="-56.274" font-family="Helvetica,sans-Serif" font-size="10.00">...</text>
</g>
<!-- Node18 -->
<g id="node18" class="node"><title>Node18</title>
<g id="a_node18"><a xlink:title=" ">
<polygon fill="white" stroke="#bfbfbf" points="13,-5.77401 13,-24.774 85,-24.774 85,-5.77401 13,-5.77401"/>
<text text-anchor="middle" x="49" y="-12.774" font-family="Helvetica,sans-Serif" font-size="10.00">accel_diag_ptrs</text>
</a>
</g>
</g>
<!-- Node18&#45;&gt;Node1 -->
<g id="edge17" class="edge"><title>Node18&#45;&gt;Node1</title>
<path fill="none" stroke="#9a32cd" stroke-dasharray="5,2" d="M92.2745,-3.6951C123.247,2.01031 164.218,3.33932 190,-20.274 229.767,-56.6962 252.16,-452.412 257,-547.715"/>
<polygon fill="#9a32cd" stroke="#9a32cd" points="91.2809,-0.32609 82.1905,-5.76805 92.6904,-7.18272 91.2809,-0.32609"/>
<text text-anchor="middle" x="153" y="-23.274" font-family="Helvetica,sans-Serif" font-size="10.00"> adp</text>
</g>
</g>
</svg>
