<?xml version="1.0" encoding="UTF-8" standalone="no"?>
<!DOCTYPE svg PUBLIC "-//W3C//DTD SVG 1.1//EN"
 "http://www.w3.org/Graphics/SVG/1.1/DTD/svg11.dtd">
<!-- Generated by graphviz version 2.30.1 (20170916.1124)
 -->
<!-- Title: mom_sum_output::sum_output_cs Pages: 1 -->
<!--zoomable 608 -->
<svg id="main" version="1.1" xmlns="http://www.w3.org/2000/svg" xmlns:xlink="http://www.w3.org/1999/xlink" xml:space="preserve" onload="init(evt)">
<style type="text/css"><![CDATA[
.edge:hover path { stroke: red; }
.edge:hover polygon { stroke: red; fill: red; }
]]></style>
<script type="text/javascript"><![CDATA[
var edges = document.getElementsByTagName('g');
if (edges && edges.length) {
  for (var i=0;i<edges.length;i++) {
    if (edges[i].id.substr(0,4)=='edge') {
      edges[i].setAttribute('class','edge');
    }
  }
}
]]></script>
        <defs>
                <circle id="rim" cx="0" cy="0" r="7"/>
                <circle id="rim2" cx="0" cy="0" r="3.5"/>
                <g id="zoomPlus">
                        <use xlink:href="#rim" fill="#404040">
                                <set attributeName="fill" to="#808080" begin="zoomplus.mouseover" end="zoomplus.mouseout"/>
                        </use>
                        <path d="M-4,0h8M0,-4v8" fill="none" stroke="white" stroke-width="1.5" pointer-events="none"/>
                </g>
                <g id="zoomMin">
                        <use xlink:href="#rim" fill="#404040">
                                <set attributeName="fill" to="#808080" begin="zoomminus.mouseover" end="zoomminus.mouseout"/>
                        </use>
                        <path d="M-4,0h8" fill="none" stroke="white" stroke-width="1.5" pointer-events="none"/>
                </g>
                <g id="dirArrow">
                        <path fill="none" stroke="white" stroke-width="1.5" d="M0,-3.0v7 M-2.5,-0.5L0,-3.0L2.5,-0.5"/>
                </g>
               <g id="resetDef">
                       <use xlink:href="#rim2" fill="#404040">
                               <set attributeName="fill" to="#808080" begin="reset.mouseover" end="reset.mouseout"/>
                       </use>
               </g>
        </defs>

<script type="text/javascript">
var viewWidth = 448;
var viewHeight = 608;
var sectionId = 'dynsection-0';
</script>
<script xlink:href="svgpan.js"/>
<svg id="graph" class="graph">
<g id="viewport">
<title>mom_sum_output::sum_output_cs</title>
<polygon fill="white" stroke="white" points="-4,5 -4,-603.953 445,-603.953 445,5 -4,5"/>
<!-- Node1 -->
<g id="node1" class="node"><title>Node1</title>
<g id="a_node1"><a xlink:title=" ">
<polygon fill="#bfbfbf" stroke="black" points="338.5,-322.953 338.5,-352.953 439.5,-352.953 439.5,-322.953 338.5,-322.953"/>
<text text-anchor="start" x="346.5" y="-340.953" font-family="Helvetica,sans-Serif" font-size="10.00">mom_sum_output::sum</text>
<text text-anchor="middle" x="389" y="-329.953" font-family="Helvetica,sans-Serif" font-size="10.00">_output_cs</text>
</a>
</g>
</g>
<!-- Node2 -->
<g id="node2" class="node"><title>Node2</title>
<g id="a_node2"><a xlink:title=" ">
<polygon fill="white" stroke="#bfbfbf" points="143,-521.453 143,-540.453 181,-540.453 181,-521.453 143,-521.453"/>
<text text-anchor="middle" x="162" y="-528.453" font-family="Helvetica,sans-Serif" font-size="10.00">logical</text>
</a>
</g>
</g>
<!-- Node2&#45;&gt;Node1 -->
<g id="edge1" class="edge"><title>Node2&#45;&gt;Node1</title>
<path fill="none" stroke="#9a32cd" stroke-dasharray="5,2" d="M191.483,-534.477C225.714,-537.099 283.14,-536.153 320,-506.953 369.58,-467.675 383.195,-386.619 386.779,-353.037"/>
<polygon fill="#9a32cd" stroke="#9a32cd" points="191.518,-530.965 181.239,-533.531 190.875,-537.936 191.518,-530.965"/>
<text text-anchor="middle" x="280" y="-591.953" font-family="Helvetica,sans-Serif" font-size="10.00"> use_repro_sum</text>
<text text-anchor="middle" x="280" y="-580.953" font-family="Helvetica,sans-Serif" font-size="10.00">use_temperature</text>
<text text-anchor="middle" x="280" y="-569.953" font-family="Helvetica,sans-Serif" font-size="10.00">do_ape_calc</text>
<text text-anchor="middle" x="280" y="-558.953" font-family="Helvetica,sans-Serif" font-size="10.00">read_depth_list</text>
<text text-anchor="middle" x="280" y="-547.953" font-family="Helvetica,sans-Serif" font-size="10.00">write_stocks</text>
<text text-anchor="middle" x="280" y="-536.953" font-family="Helvetica,sans-Serif" font-size="10.00">date_stamped_output</text>
</g>
<!-- Node3 -->
<g id="node3" class="node"><title>Node3</title>
<g id="a_node3"><a xlink:title=" ">
<polygon fill="white" stroke="#bfbfbf" points="128,-433.453 128,-452.453 196,-452.453 196,-433.453 128,-433.453"/>
<text text-anchor="middle" x="162" y="-440.453" font-family="Helvetica,sans-Serif" font-size="10.00">type(efp_type)</text>
</a>
</g>
</g>
<!-- Node3&#45;&gt;Node1 -->
<g id="edge2" class="edge"><title>Node3&#45;&gt;Node1</title>
<path fill="none" stroke="#9a32cd" stroke-dasharray="5,2" d="M206.256,-441.631C239.274,-438.974 284.908,-431.641 320,-411.953 345.564,-397.61 366.86,-370.223 378.481,-353.089"/>
<polygon fill="#9a32cd" stroke="#9a32cd" points="205.744,-438.158 196.009,-442.338 206.226,-445.141 205.744,-438.158"/>
<text text-anchor="middle" x="280" y="-494.953" font-family="Helvetica,sans-Serif" font-size="10.00"> net_heat_in_efp</text>
<text text-anchor="middle" x="280" y="-483.953" font-family="Helvetica,sans-Serif" font-size="10.00">heat_prev_efp</text>
<text text-anchor="middle" x="280" y="-472.953" font-family="Helvetica,sans-Serif" font-size="10.00">salt_prev_efp</text>
<text text-anchor="middle" x="280" y="-461.953" font-family="Helvetica,sans-Serif" font-size="10.00">net_salt_in_efp</text>
<text text-anchor="middle" x="280" y="-450.953" font-family="Helvetica,sans-Serif" font-size="10.00">mass_prev_efp</text>
<text text-anchor="middle" x="280" y="-439.953" font-family="Helvetica,sans-Serif" font-size="10.00">fresh_water_in_efp</text>
</g>
<!-- Node4 -->
<g id="node4" class="node"><title>Node4</title>
<g id="a_node4"><a xlink:title=" ">
<polygon fill="white" stroke="#bfbfbf" points="139,-395.453 139,-414.453 185,-414.453 185,-395.453 139,-395.453"/>
<text text-anchor="middle" x="162" y="-402.453" font-family="Helvetica,sans-Serif" font-size="10.00">fieldtype</text>
</a>
</g>
</g>
<!-- Node4&#45;&gt;Node1 -->
<g id="edge3" class="edge"><title>Node4&#45;&gt;Node1</title>
<path fill="none" stroke="#9a32cd" stroke-dasharray="5,2" d="M195.466,-402.8C227.843,-399.867 278.584,-393.119 320,-377.953 336.72,-371.83 353.994,-361.611 366.948,-353.035"/>
<polygon fill="#9a32cd" stroke="#9a32cd" points="194.904,-399.335 185.23,-403.655 195.487,-406.31 194.904,-399.335"/>
<text text-anchor="middle" x="280" y="-399.953" font-family="Helvetica,sans-Serif" font-size="10.00"> fields</text>
</g>
<!-- Node5 -->
<g id="node5" class="node"><title>Node5</title>
<g id="a_node5"><a xlink:title=" ">
<polygon fill="white" stroke="#bfbfbf" points="136.5,-351.453 136.5,-370.453 187.5,-370.453 187.5,-351.453 136.5,-351.453"/>
<text text-anchor="middle" x="162" y="-358.453" font-family="Helvetica,sans-Serif" font-size="10.00">time_type</text>
</a>
</g>
</g>
<!-- Node5&#45;&gt;Node1 -->
<g id="edge4" class="edge"><title>Node5&#45;&gt;Node1</title>
<path fill="none" stroke="#9a32cd" stroke-dasharray="5,2" d="M197.46,-357.43C235.019,-353.591 295.452,-347.413 338.174,-343.046"/>
<polygon fill="#9a32cd" stroke="#9a32cd" points="197.099,-353.949 187.507,-358.448 197.811,-360.912 197.099,-353.949"/>
<text text-anchor="middle" x="280" y="-365.953" font-family="Helvetica,sans-Serif" font-size="10.00"> start_time</text>
<text text-anchor="middle" x="280" y="-354.953" font-family="Helvetica,sans-Serif" font-size="10.00">huge_time</text>
</g>
<!-- Node6 -->
<g id="node6" class="node"><title>Node6</title>
<g id="a_node6"><a xlink:title=" ">
<polygon fill="white" stroke="#bfbfbf" points="119.5,-310.453 119.5,-329.453 204.5,-329.453 204.5,-310.453 119.5,-310.453"/>
<text text-anchor="middle" x="162" y="-317.453" font-family="Helvetica,sans-Serif" font-size="10.00">character(len=200)</text>
</a>
</g>
</g>
<!-- Node6&#45;&gt;Node1 -->
<g id="edge5" class="edge"><title>Node6&#45;&gt;Node1</title>
<path fill="none" stroke="#9a32cd" stroke-dasharray="5,2" d="M214.638,-314.614C245.402,-312.513 285.125,-311.69 320,-316.953 328.552,-318.243 337.512,-320.398 346.016,-322.848"/>
<polygon fill="#9a32cd" stroke="#9a32cd" points="214.278,-311.131 204.568,-315.369 214.802,-318.112 214.278,-311.131"/>
<text text-anchor="middle" x="280" y="-330.953" font-family="Helvetica,sans-Serif" font-size="10.00"> energyfile</text>
<text text-anchor="middle" x="280" y="-319.953" font-family="Helvetica,sans-Serif" font-size="10.00">depth_list_file</text>
</g>
<!-- Node7 -->
<g id="node7" class="node"><title>Node7</title>
<g id="a_node7"><a xlink:href="structmom__sum__output_1_1depth__list.html" target="_top" xlink:title=" ">
<polygon fill="white" stroke="black" points="102.5,-272.453 102.5,-291.453 221.5,-291.453 221.5,-272.453 102.5,-272.453"/>
<text text-anchor="middle" x="162" y="-279.453" font-family="Helvetica,sans-Serif" font-size="10.00">mom_sum_output::depth_list</text>
</a>
</g>
</g>
<!-- Node7&#45;&gt;Node1 -->
<g id="edge6" class="edge"><title>Node7&#45;&gt;Node1</title>
<path fill="none" stroke="#9a32cd" stroke-dasharray="5,2" d="M231.737,-282.586C259.685,-284.47 291.942,-288.759 320,-297.953 337.181,-303.582 354.723,-314.041 367.686,-322.852"/>
<polygon fill="#9a32cd" stroke="#9a32cd" points="231.838,-279.086 221.65,-281.996 231.429,-286.074 231.838,-279.086"/>
<text text-anchor="middle" x="280" y="-300.953" font-family="Helvetica,sans-Serif" font-size="10.00"> dl</text>
</g>
<!-- Node8 -->
<g id="node8" class="node"><title>Node8</title>
<g id="a_node8"><a xlink:title=" ">
<polygon fill="white" stroke="#bfbfbf" points="0,-160.453 0,-179.453 30,-179.453 30,-160.453 0,-160.453"/>
<text text-anchor="middle" x="15" y="-167.453" font-family="Helvetica,sans-Serif" font-size="10.00">real</text>
</a>
</g>
</g>
<!-- Node8&#45;&gt;Node7 -->
<g id="edge7" class="edge"><title>Node8&#45;&gt;Node7</title>
<path fill="none" stroke="#9a32cd" stroke-dasharray="5,2" d="M29.6043,-187.731C45.2651,-207.184 72.6312,-238.22 102,-257.953 110.72,-263.812 121.093,-268.627 130.691,-272.367"/>
<polygon fill="#9a32cd" stroke="#9a32cd" points="32.2063,-185.378 23.2674,-179.691 26.7085,-189.711 32.2063,-185.378"/>
<text text-anchor="middle" x="66" y="-267.953" font-family="Helvetica,sans-Serif" font-size="10.00"> area</text>
<text text-anchor="middle" x="66" y="-256.953" font-family="Helvetica,sans-Serif" font-size="10.00">depth</text>
<text text-anchor="middle" x="66" y="-245.953" font-family="Helvetica,sans-Serif" font-size="10.00">vol_below</text>
</g>
<!-- Node8&#45;&gt;Node1 -->
<g id="edge8" class="edge"><title>Node8&#45;&gt;Node1</title>
<path fill="none" stroke="#9a32cd" stroke-dasharray="5,2" d="M39.0742,-156.761C78.4761,-136.109 160.437,-101.409 222,-130.953 308.177,-172.309 363.713,-282.619 381.662,-322.932"/>
<polygon fill="#9a32cd" stroke="#9a32cd" points="37.1436,-153.826 30.012,-161.661 40.4732,-159.984 37.1436,-153.826"/>
<text text-anchor="middle" x="162" y="-254.953" font-family="Helvetica,sans-Serif" font-size="10.00"> salt_prev</text>
<text text-anchor="middle" x="162" y="-243.953" font-family="Helvetica,sans-Serif" font-size="10.00">mass_prev</text>
<text text-anchor="middle" x="162" y="-232.953" font-family="Helvetica,sans-Serif" font-size="10.00">net_salt_input</text>
<text text-anchor="middle" x="162" y="-221.953" font-family="Helvetica,sans-Serif" font-size="10.00">net_heat_input</text>
<text text-anchor="middle" x="162" y="-210.953" font-family="Helvetica,sans-Serif" font-size="10.00">max_energy</text>
<text text-anchor="middle" x="162" y="-199.953" font-family="Helvetica,sans-Serif" font-size="10.00">heat_prev</text>
<text text-anchor="middle" x="162" y="-188.953" font-family="Helvetica,sans-Serif" font-size="10.00">timeunit</text>
<text text-anchor="start" x="135" y="-177.953" font-family="Helvetica,sans-Serif" font-size="10.00">fresh_water</text>
<text text-anchor="middle" x="162" y="-166.953" font-family="Helvetica,sans-Serif" font-size="10.00">_input</text>
<text text-anchor="middle" x="162" y="-155.953" font-family="Helvetica,sans-Serif" font-size="10.00">d_list_min_inc</text>
<text text-anchor="middle" x="162" y="-144.953" font-family="Helvetica,sans-Serif" font-size="10.00">dt</text>
<text text-anchor="middle" x="162" y="-133.953" font-family="Helvetica,sans-Serif" font-size="10.00">...</text>
</g>
<!-- Node9 -->
<g id="node9" class="node"><title>Node9</title>
<g id="a_node9"><a xlink:title=" ">
<polygon fill="white" stroke="#bfbfbf" points="141.5,-9.45275 141.5,-28.4527 182.5,-28.4527 182.5,-9.45275 141.5,-9.45275"/>
<text text-anchor="middle" x="162" y="-16.4527" font-family="Helvetica,sans-Serif" font-size="10.00">integer</text>
</a>
</g>
</g>
<!-- Node9&#45;&gt;Node1 -->
<g id="edge9" class="edge"><title>Node9&#45;&gt;Node1</title>
<path fill="none" stroke="#9a32cd" stroke-dasharray="5,2" d="M192.686,-9.14705C227.286,0.24792 284.272,9.13169 320,-19.9527 368.052,-59.0698 383.694,-264.892 387.178,-322.788"/>
<polygon fill="#9a32cd" stroke="#9a32cd" points="191.344,-5.89167 182.714,-12.0377 193.294,-12.6149 191.344,-5.89167"/>
<text text-anchor="middle" x="280" y="-99.9527" font-family="Helvetica,sans-Serif" font-size="10.00"> prev_n</text>
<text text-anchor="middle" x="280" y="-88.9527" font-family="Helvetica,sans-Serif" font-size="10.00">list_size</text>
<text text-anchor="middle" x="280" y="-77.9527" font-family="Helvetica,sans-Serif" font-size="10.00">previous_calls</text>
<text text-anchor="middle" x="280" y="-66.9527" font-family="Helvetica,sans-Serif" font-size="10.00">maxtrunc</text>
<text text-anchor="middle" x="280" y="-55.9527" font-family="Helvetica,sans-Serif" font-size="10.00">fileenergy_ascii</text>
<text text-anchor="middle" x="280" y="-44.9527" font-family="Helvetica,sans-Serif" font-size="10.00">fileenergy_nc</text>
<text text-anchor="middle" x="280" y="-33.9527" font-family="Helvetica,sans-Serif" font-size="10.00">lh</text>
<text text-anchor="middle" x="280" y="-22.9527" font-family="Helvetica,sans-Serif" font-size="10.00">ntrunc</text>
</g>
</g>
</svg>
        <g id="navigator" transform="translate(0 0)" fill="#404254">
                <rect fill="#f2f5e9" fill-opacity="0.5" stroke="#606060" stroke-width=".5" x="0" y="0" width="60" height="60"/>
                <use id="zoomplus" xlink:href="#zoomPlus" x="17" y="9" onmousedown="handleZoom(evt,'in')"/>
                <use id="zoomminus" xlink:href="#zoomMin" x="42" y="9" onmousedown="handleZoom(evt,'out')"/>
                <use id="reset" xlink:href="#resetDef" x="30" y="36" onmousedown="handleReset()"/>
                <g id="arrowUp" xlink:href="#dirArrow" transform="translate(30 24)" onmousedown="handlePan(0,-1)">
                  <use xlink:href="#rim" fill="#404040">
                        <set attributeName="fill" to="#808080" begin="arrowUp.mouseover" end="arrowUp.mouseout"/>
                  </use>
                  <path fill="none" stroke="white" stroke-width="1.5" d="M0,-3.0v7 M-2.5,-0.5L0,-3.0L2.5,-0.5"/>
                </g>
                <g id="arrowRight" xlink:href="#dirArrow" transform="rotate(90) translate(36 -43)" onmousedown="handlePan(1,0)">
                  <use xlink:href="#rim" fill="#404040">
                        <set attributeName="fill" to="#808080" begin="arrowRight.mouseover" end="arrowRight.mouseout"/>
                  </use>
                  <path fill="none" stroke="white" stroke-width="1.5" d="M0,-3.0v7 M-2.5,-0.5L0,-3.0L2.5,-0.5"/>
                </g>
                <g id="arrowDown" xlink:href="#dirArrow" transform="rotate(180) translate(-30 -48)" onmousedown="handlePan(0,1)">
                  <use xlink:href="#rim" fill="#404040">
                        <set attributeName="fill" to="#808080" begin="arrowDown.mouseover" end="arrowDown.mouseout"/>
                  </use>
                  <path fill="none" stroke="white" stroke-width="1.5" d="M0,-3.0v7 M-2.5,-0.5L0,-3.0L2.5,-0.5"/>
                </g>
                <g id="arrowLeft" xlink:href="#dirArrow" transform="rotate(270) translate(-36 17)" onmousedown="handlePan(-1,0)">
                  <use xlink:href="#rim" fill="#404040">
                        <set attributeName="fill" to="#808080" begin="arrowLeft.mouseover" end="arrowLeft.mouseout"/>
                  </use>
                  <path fill="none" stroke="white" stroke-width="1.5" d="M0,-3.0v7 M-2.5,-0.5L0,-3.0L2.5,-0.5"/>
                </g>
        </g>
        <svg viewBox="0 0 15 15" width="100%" height="30px" preserveAspectRatio="xMaxYMin meet">
         <g id="arrow_out" transform="scale(0.3 0.3)">
          <a xlink:href="structmom__sum__output_1_1sum__output__cs__coll__graph_org.svg" target="_base">
           <rect id="button" ry="5" rx="5" y="6" x="6" height="38" width="38"
                fill="#f2f5e9" fill-opacity="0.5" stroke="#606060" stroke-width="1.0"/>
           <path id="arrow"
             d="M 11.500037,31.436501 C 11.940474,20.09759 22.043105,11.32322 32.158766,21.979434 L 37.068811,17.246167 C 37.068811,17.246167 37.088388,32 37.088388,32 L 22.160133,31.978069 C 22.160133,31.978069 26.997745,27.140456 26.997745,27.140456 C 18.528582,18.264221 13.291696,25.230495 11.500037,31.436501 z"
             style="fill:#404040;"/>
          </a>
         </g>
        </svg>
</svg>
