<?xml version="1.0" encoding="UTF-8" standalone="no"?>
<!DOCTYPE svg PUBLIC "-//W3C//DTD SVG 1.1//EN"
 "http://www.w3.org/Graphics/SVG/1.1/DTD/svg11.dtd">
<!-- Generated by graphviz version 2.30.1 (20170916.1124)
 -->
<!-- Title: mom_grid::ocean_grid_type Pages: 1 -->
<svg width="488pt" height="218pt"
 viewBox="0.00 0.00 488.00 218.00" xmlns="http://www.w3.org/2000/svg" xmlns:xlink="http://www.w3.org/1999/xlink">
<g id="graph0" class="graph" transform="scale(1 1) rotate(0) translate(4 214)">
<title>mom_grid::ocean_grid_type</title>
<polygon fill="white" stroke="white" points="-4,5 -4,-214 485,-214 485,5 -4,5"/>
<!-- Node1 -->
<g id="node1" class="node"><title>Node1</title>
<g id="a_node1"><a xlink:title="Ocean grid type. See mom_grid for details.">
<polygon fill="#bfbfbf" stroke="black" points="176,-0.5 176,-19.5 292,-19.5 292,-0.5 176,-0.5"/>
<text text-anchor="middle" x="234" y="-7.5" font-family="Helvetica,sans-Serif" font-size="10.00">mom_grid::ocean_grid_type</text>
</a>
</g>
</g>
<!-- Node2 -->
<g id="node2" class="node"><title>Node2</title>
<g id="a_node2"><a xlink:title=" ">
<polygon fill="white" stroke="#bfbfbf" points="0,-184.5 0,-203.5 38,-203.5 38,-184.5 0,-184.5"/>
<text text-anchor="middle" x="19" y="-191.5" font-family="Helvetica,sans-Serif" font-size="10.00">logical</text>
</a>
</g>
</g>
<!-- Node2&#45;&gt;Node1 -->
<g id="edge1" class="edge"><title>Node2&#45;&gt;Node1</title>
<path fill="none" stroke="#9a32cd" stroke-dasharray="5,2" d="M13.6536,-174.206C5.68581,-141.741 -4.89513,-75.0817 30,-38 49.3722,-17.4139 122.748,-11.9616 175.958,-10.7992"/>
<polygon fill="#9a32cd" stroke="#9a32cd" points="10.345,-175.385 16.2841,-184.158 17.1126,-173.596 10.345,-175.385"/>
<text text-anchor="middle" x="69" y="-107.5" font-family="Helvetica,sans-Serif" font-size="10.00"> nonblocking_updates</text>
<text text-anchor="middle" x="69" y="-96.5" font-family="Helvetica,sans-Serif" font-size="10.00">bathymetry_at_vel</text>
<text text-anchor="middle" x="69" y="-85.5" font-family="Helvetica,sans-Serif" font-size="10.00">symmetric</text>
</g>
<!-- Node3 -->
<g id="node3" class="node"><title>Node3</title>
<g id="a_node3"><a xlink:title=" ">
<polygon fill="white" stroke="#bfbfbf" points="70.5,-184.5 70.5,-203.5 141.5,-203.5 141.5,-184.5 70.5,-184.5"/>
<text text-anchor="middle" x="106" y="-191.5" font-family="Helvetica,sans-Serif" font-size="10.00">hor_index_type</text>
</a>
</g>
</g>
<!-- Node3&#45;&gt;Node1 -->
<g id="edge2" class="edge"><title>Node3&#45;&gt;Node1</title>
<path fill="none" stroke="#9a32cd" stroke-dasharray="5,2" d="M108.219,-174.101C112.953,-141.967 126.917,-76.4378 165,-38 173.42,-29.5016 184.828,-23.6145 195.943,-19.5631"/>
<polygon fill="#9a32cd" stroke="#9a32cd" points="104.709,-173.943 106.865,-184.316 111.648,-174.863 104.709,-173.943"/>
<text text-anchor="middle" x="174.5" y="-102" font-family="Helvetica,sans-Serif" font-size="10.00"> hi</text>
<text text-anchor="middle" x="174.5" y="-91" font-family="Helvetica,sans-Serif" font-size="10.00">block</text>
</g>
<!-- Node4 -->
<g id="node4" class="node"><title>Node4</title>
<g id="a_node4"><a xlink:title=" ">
<polygon fill="white" stroke="#bfbfbf" points="160,-184.5 160,-203.5 240,-203.5 240,-184.5 160,-184.5"/>
<text text-anchor="middle" x="200" y="-191.5" font-family="Helvetica,sans-Serif" font-size="10.00">character(len=40)</text>
</a>
</g>
</g>
<!-- Node4&#45;&gt;Node1 -->
<g id="edge3" class="edge"><title>Node4&#45;&gt;Node1</title>
<path fill="none" stroke="#9a32cd" stroke-dasharray="5,2" d="M195.27,-174.37C188.604,-144.076 179.498,-82.998 201,-38 204.638,-30.3858 211.58,-24.1988 218.162,-19.6779"/>
<polygon fill="#9a32cd" stroke="#9a32cd" points="191.929,-175.45 197.637,-184.376 198.741,-173.839 191.929,-175.45"/>
<text text-anchor="middle" x="224" y="-102" font-family="Helvetica,sans-Serif" font-size="10.00"> y_axis_units</text>
<text text-anchor="middle" x="224" y="-91" font-family="Helvetica,sans-Serif" font-size="10.00">x_axis_units</text>
</g>
<!-- Node5 -->
<g id="node5" class="node"><title>Node5</title>
<g id="a_node5"><a xlink:title=" ">
<polygon fill="white" stroke="#bfbfbf" points="258,-184.5 258,-203.5 288,-203.5 288,-184.5 258,-184.5"/>
<text text-anchor="middle" x="273" y="-191.5" font-family="Helvetica,sans-Serif" font-size="10.00">real</text>
</a>
</g>
</g>
<!-- Node5&#45;&gt;Node1 -->
<g id="edge4" class="edge"><title>Node5&#45;&gt;Node1</title>
<path fill="none" stroke="#9a32cd" stroke-dasharray="5,2" d="M270.573,-174.57C265.812,-139.235 255.01,-63.2265 247,-38 244.985,-31.653 241.735,-24.903 238.988,-19.7398"/>
<polygon fill="#9a32cd" stroke="#9a32cd" points="267.106,-175.047 271.896,-184.497 274.045,-174.123 267.106,-175.047"/>
<text text-anchor="middle" x="290.5" y="-151.5" font-family="Helvetica,sans-Serif" font-size="10.00"> max_depth</text>
<text text-anchor="middle" x="290.5" y="-140.5" font-family="Helvetica,sans-Serif" font-size="10.00">west_lon</text>
<text text-anchor="middle" x="290.5" y="-129.5" font-family="Helvetica,sans-Serif" font-size="10.00">dblock_u</text>
<text text-anchor="middle" x="290.5" y="-118.5" font-family="Helvetica,sans-Serif" font-size="10.00">iareabu</text>
<text text-anchor="middle" x="290.5" y="-107.5" font-family="Helvetica,sans-Serif" font-size="10.00">areat</text>
<text text-anchor="middle" x="290.5" y="-96.5" font-family="Helvetica,sans-Serif" font-size="10.00">dblock_v</text>
<text text-anchor="middle" x="290.5" y="-85.5" font-family="Helvetica,sans-Serif" font-size="10.00">len_lon</text>
<text text-anchor="middle" x="290.5" y="-74.5" font-family="Helvetica,sans-Serif" font-size="10.00">geoloncu</text>
<text text-anchor="middle" x="290.5" y="-63.5" font-family="Helvetica,sans-Serif" font-size="10.00">cos_rot</text>
<text text-anchor="middle" x="290.5" y="-52.5" font-family="Helvetica,sans-Serif" font-size="10.00">sin_rot</text>
<text text-anchor="middle" x="290.5" y="-41.5" font-family="Helvetica,sans-Serif" font-size="10.00">...</text>
</g>
<!-- Node6 -->
<g id="node6" class="node"><title>Node6</title>
<g id="a_node6"><a xlink:title=" ">
<polygon fill="white" stroke="#bfbfbf" points="314.5,-184.5 314.5,-203.5 355.5,-203.5 355.5,-184.5 314.5,-184.5"/>
<text text-anchor="middle" x="335" y="-191.5" font-family="Helvetica,sans-Serif" font-size="10.00">integer</text>
</a>
</g>
</g>
<!-- Node6&#45;&gt;Node1 -->
<g id="edge5" class="edge"><title>Node6&#45;&gt;Node1</title>
<path fill="none" stroke="#9a32cd" stroke-dasharray="5,2" d="M338.068,-174.294C342.172,-142.453 345.56,-77.3521 313,-38 305.885,-29.4012 295.903,-23.5325 285.423,-19.5294"/>
<polygon fill="#9a32cd" stroke="#9a32cd" points="334.572,-174.01 336.589,-184.412 341.499,-175.023 334.572,-174.01"/>
<text text-anchor="middle" x="358.5" y="-151.5" font-family="Helvetica,sans-Serif" font-size="10.00"> nblocks</text>
<text text-anchor="middle" x="358.5" y="-140.5" font-family="Helvetica,sans-Serif" font-size="10.00">iec</text>
<text text-anchor="middle" x="358.5" y="-129.5" font-family="Helvetica,sans-Serif" font-size="10.00">ied</text>
<text text-anchor="middle" x="358.5" y="-118.5" font-family="Helvetica,sans-Serif" font-size="10.00">jec</text>
<text text-anchor="middle" x="358.5" y="-107.5" font-family="Helvetica,sans-Serif" font-size="10.00">jed</text>
<text text-anchor="middle" x="358.5" y="-96.5" font-family="Helvetica,sans-Serif" font-size="10.00">jsgb</text>
<text text-anchor="middle" x="358.5" y="-85.5" font-family="Helvetica,sans-Serif" font-size="10.00">isc</text>
<text text-anchor="middle" x="358.5" y="-74.5" font-family="Helvetica,sans-Serif" font-size="10.00">jdg_offset</text>
<text text-anchor="middle" x="358.5" y="-63.5" font-family="Helvetica,sans-Serif" font-size="10.00">isgb</text>
<text text-anchor="middle" x="358.5" y="-52.5" font-family="Helvetica,sans-Serif" font-size="10.00">ieg</text>
<text text-anchor="middle" x="358.5" y="-41.5" font-family="Helvetica,sans-Serif" font-size="10.00">...</text>
</g>
<!-- Node7 -->
<g id="node7" class="node"><title>Node7</title>
<g id="a_node7"><a xlink:title=" ">
<polygon fill="white" stroke="#bfbfbf" points="374,-179 374,-209 480,-209 480,-179 374,-179"/>
<text text-anchor="start" x="382" y="-197" font-family="Helvetica,sans-Serif" font-size="10.00">type(mom_domain_type)</text>
<text text-anchor="middle" x="427" y="-186" font-family="Helvetica,sans-Serif" font-size="10.00">, pointer</text>
</a>
</g>
</g>
<!-- Node7&#45;&gt;Node1 -->
<g id="edge6" class="edge"><title>Node7&#45;&gt;Node1</title>
<path fill="none" stroke="#9a32cd" stroke-dasharray="5,2" d="M426.998,-168.8C425.6,-134.36 417.639,-71.6584 380,-38 367.03,-26.4017 327.138,-19.5275 292.325,-15.6204"/>
<polygon fill="#9a32cd" stroke="#9a32cd" points="423.502,-169.007 427.251,-178.917 430.5,-168.832 423.502,-169.007"/>
<text text-anchor="middle" x="448" y="-102" font-family="Helvetica,sans-Serif" font-size="10.00"> domain</text>
<text text-anchor="middle" x="448" y="-91" font-family="Helvetica,sans-Serif" font-size="10.00">domain_aux</text>
</g>
</g>
</svg>
