<?xml version="1.0" encoding="UTF-8" standalone="no"?>
<!DOCTYPE svg PUBLIC "-//W3C//DTD SVG 1.1//EN"
 "http://www.w3.org/Graphics/SVG/1.1/DTD/svg11.dtd">
<!-- Generated by graphviz version 2.30.1 (20170916.1124)
 -->
<!-- Title: mom_neutral_diffusion::neutral_diffusion_cs Pages: 1 -->
<svg width="218pt" height="294pt"
 viewBox="0.00 0.00 218.00 294.00" xmlns="http://www.w3.org/2000/svg" xmlns:xlink="http://www.w3.org/1999/xlink">
<g id="graph0" class="graph" transform="scale(1 1) rotate(0) translate(4 290)">
<title>mom_neutral_diffusion::neutral_diffusion_cs</title>
<polygon fill="white" stroke="white" points="-4,5 -4,-290 215,-290 215,5 -4,5"/>
<!-- Node1 -->
<g id="node1" class="node"><title>Node1</title>
<g id="a_node1"><a xlink:title=" ">
<polygon fill="#bfbfbf" stroke="black" points="31,-1 31,-31 129,-31 129,-1 31,-1"/>
<text text-anchor="start" x="39" y="-19" font-family="Helvetica,sans-Serif" font-size="10.00">mom_neutral_diffusion</text>
<text text-anchor="middle" x="80" y="-8" font-family="Helvetica,sans-Serif" font-size="10.00">::neutral_diffusion_cs</text>
</a>
</g>
</g>
<!-- Node2 -->
<g id="node2" class="node"><title>Node2</title>
<g id="a_node2"><a xlink:title=" ">
<polygon fill="white" stroke="#bfbfbf" points="-0.5,-266.5 -0.5,-285.5 46.5,-285.5 46.5,-266.5 -0.5,-266.5"/>
<text text-anchor="middle" x="23" y="-273.5" font-family="Helvetica,sans-Serif" font-size="10.00">diag_ctrl</text>
</a>
</g>
</g>
<!-- Node2&#45;&gt;Node1 -->
<g id="edge1" class="edge"><title>Node2&#45;&gt;Node1</title>
<path fill="none" stroke="#9a32cd" stroke-dasharray="5,2" d="M23.218,-256.268C24.2495,-216.769 29.7422,-122.605 58,-50 60.5973,-43.3266 64.7151,-36.629 68.6894,-31.0283"/>
<polygon fill="#9a32cd" stroke="#9a32cd" points="19.7145,-256.426 23.0231,-266.491 26.7132,-256.56 19.7145,-256.426"/>
<text text-anchor="middle" x="67" y="-146.5" font-family="Helvetica,sans-Serif" font-size="10.00"> diag</text>
</g>
<!-- Node3 -->
<g id="node3" class="node"><title>Node3</title>
<g id="a_node3"><a xlink:title=" ">
<polygon fill="white" stroke="#bfbfbf" points="65,-266.5 65,-285.5 95,-285.5 95,-266.5 65,-266.5"/>
<text text-anchor="middle" x="80" y="-273.5" font-family="Helvetica,sans-Serif" font-size="10.00">real</text>
</a>
</g>
</g>
<!-- Node3&#45;&gt;Node1 -->
<g id="edge2" class="edge"><title>Node3&#45;&gt;Node1</title>
<path fill="none" stroke="#9a32cd" stroke-dasharray="5,2" d="M80,-256.269C80,-207.067 80,-74.9475 80,-31.2503"/>
<polygon fill="#9a32cd" stroke="#9a32cd" points="76.5001,-256.416 80,-266.416 83.5001,-256.416 76.5001,-256.416"/>
<text text-anchor="middle" x="89.5" y="-179.5" font-family="Helvetica,sans-Serif" font-size="10.00"> vpol</text>
<text text-anchor="middle" x="89.5" y="-168.5" font-family="Helvetica,sans-Serif" font-size="10.00">upol</text>
<text text-anchor="middle" x="89.5" y="-157.5" font-family="Helvetica,sans-Serif" font-size="10.00">uheff</text>
<text text-anchor="middle" x="89.5" y="-146.5" font-family="Helvetica,sans-Serif" font-size="10.00">vheff</text>
<text text-anchor="middle" x="89.5" y="-135.5" font-family="Helvetica,sans-Serif" font-size="10.00">c_p</text>
<text text-anchor="middle" x="89.5" y="-124.5" font-family="Helvetica,sans-Serif" font-size="10.00">vpor</text>
<text text-anchor="middle" x="89.5" y="-113.5" font-family="Helvetica,sans-Serif" font-size="10.00">upor</text>
</g>
<!-- Node4 -->
<g id="node4" class="node"><title>Node4</title>
<g id="a_node4"><a xlink:title=" ">
<polygon fill="white" stroke="#bfbfbf" points="113.5,-266.5 113.5,-285.5 154.5,-285.5 154.5,-266.5 113.5,-266.5"/>
<text text-anchor="middle" x="134" y="-273.5" font-family="Helvetica,sans-Serif" font-size="10.00">integer</text>
</a>
</g>
</g>
<!-- Node4&#45;&gt;Node1 -->
<g id="edge3" class="edge"><title>Node4&#45;&gt;Node1</title>
<path fill="none" stroke="#9a32cd" stroke-dasharray="5,2" d="M134.328,-256.232C134.401,-216.663 131.305,-122.374 103,-50 100.406,-43.3662 96.2273,-36.7799 92.1391,-31.2564"/>
<polygon fill="#9a32cd" stroke="#9a32cd" points="130.826,-256.441 134.231,-266.474 137.825,-256.507 130.826,-256.441"/>
<text text-anchor="middle" x="172" y="-240" font-family="Helvetica,sans-Serif" font-size="10.00"> nkp1x2</text>
<text text-anchor="middle" x="172" y="-229" font-family="Helvetica,sans-Serif" font-size="10.00">nkp1</text>
<text text-anchor="middle" x="172" y="-218" font-family="Helvetica,sans-Serif" font-size="10.00">vkol</text>
<text text-anchor="start" x="134" y="-207" font-family="Helvetica,sans-Serif" font-size="10.00">id_neutral</text>
<text text-anchor="start" x="134" y="-196" font-family="Helvetica,sans-Serif" font-size="10.00">_diff_tracer</text>
<text text-anchor="middle" x="172" y="-185" font-family="Helvetica,sans-Serif" font-size="10.00">_cont_tend</text>
<text text-anchor="middle" x="172" y="-174" font-family="Helvetica,sans-Serif" font-size="10.00">ukol</text>
<text text-anchor="start" x="134" y="-163" font-family="Helvetica,sans-Serif" font-size="10.00">id_neutral</text>
<text text-anchor="start" x="134" y="-152" font-family="Helvetica,sans-Serif" font-size="10.00">_diff_tracer</text>
<text text-anchor="middle" x="172" y="-141" font-family="Helvetica,sans-Serif" font-size="10.00">_cont_tend_2d</text>
<text text-anchor="start" x="134" y="-130" font-family="Helvetica,sans-Serif" font-size="10.00">id_neutral_diff</text>
<text text-anchor="middle" x="172" y="-119" font-family="Helvetica,sans-Serif" font-size="10.00">_tracer_conc_tend</text>
<text text-anchor="start" x="134" y="-108" font-family="Helvetica,sans-Serif" font-size="10.00">id_neutral_diff</text>
<text text-anchor="middle" x="172" y="-97" font-family="Helvetica,sans-Serif" font-size="10.00">_tracer_trans_x_2d</text>
<text text-anchor="start" x="134" y="-86" font-family="Helvetica,sans-Serif" font-size="10.00">id_neutral_diff_tracer</text>
<text text-anchor="middle" x="172" y="-75" font-family="Helvetica,sans-Serif" font-size="10.00">_trans_y_2d</text>
<text text-anchor="middle" x="172" y="-64" font-family="Helvetica,sans-Serif" font-size="10.00">vkor</text>
<text text-anchor="middle" x="172" y="-53" font-family="Helvetica,sans-Serif" font-size="10.00">...</text>
</g>
</g>
</svg>
