<?xml version="1.0" encoding="UTF-8" standalone="no"?>
<!DOCTYPE svg PUBLIC "-//W3C//DTD SVG 1.1//EN"
 "http://www.w3.org/Graphics/SVG/1.1/DTD/svg11.dtd">
<!-- Generated by graphviz version 2.30.1 (20170916.1124)
 -->
<!-- Title: mom_dynamics_unsplit::mom_dyn_unsplit_cs Pages: 1 -->
<!--zoomable 738 -->
<svg id="main" version="1.1" xmlns="http://www.w3.org/2000/svg" xmlns:xlink="http://www.w3.org/1999/xlink" xml:space="preserve" onload="init(evt)">
<style type="text/css"><![CDATA[
.edge:hover path { stroke: red; }
.edge:hover polygon { stroke: red; fill: red; }
]]></style>
<script type="text/javascript"><![CDATA[
var edges = document.getElementsByTagName('g');
if (edges && edges.length) {
  for (var i=0;i<edges.length;i++) {
    if (edges[i].id.substr(0,4)=='edge') {
      edges[i].setAttribute('class','edge');
    }
  }
}
]]></script>
        <defs>
                <circle id="rim" cx="0" cy="0" r="7"/>
                <circle id="rim2" cx="0" cy="0" r="3.5"/>
                <g id="zoomPlus">
                        <use xlink:href="#rim" fill="#404040">
                                <set attributeName="fill" to="#808080" begin="zoomplus.mouseover" end="zoomplus.mouseout"/>
                        </use>
                        <path d="M-4,0h8M0,-4v8" fill="none" stroke="white" stroke-width="1.5" pointer-events="none"/>
                </g>
                <g id="zoomMin">
                        <use xlink:href="#rim" fill="#404040">
                                <set attributeName="fill" to="#808080" begin="zoomminus.mouseover" end="zoomminus.mouseout"/>
                        </use>
                        <path d="M-4,0h8" fill="none" stroke="white" stroke-width="1.5" pointer-events="none"/>
                </g>
                <g id="dirArrow">
                        <path fill="none" stroke="white" stroke-width="1.5" d="M0,-3.0v7 M-2.5,-0.5L0,-3.0L2.5,-0.5"/>
                </g>
               <g id="resetDef">
                       <use xlink:href="#rim2" fill="#404040">
                               <set attributeName="fill" to="#808080" begin="reset.mouseover" end="reset.mouseout"/>
                       </use>
               </g>
        </defs>

<script type="text/javascript">
var viewWidth = 308;
var viewHeight = 738;
var sectionId = 'dynsection-0';
</script>
<script xlink:href="svgpan.js"/>
<svg id="graph" class="graph">
<g id="viewport">
<title>mom_dynamics_unsplit::mom_dyn_unsplit_cs</title>
<polygon fill="white" stroke="white" points="-4,5 -4,-733.742 305,-733.742 305,5 -4,5"/>
<!-- Node1 -->
<g id="node1" class="node"><title>Node1</title>
<g id="a_node1"><a xlink:title=" ">
<polygon fill="#bfbfbf" stroke="black" points="200.5,-390.742 200.5,-420.742 299.5,-420.742 299.5,-390.742 200.5,-390.742"/>
<text text-anchor="start" x="208.5" y="-408.742" font-family="Helvetica,sans-Serif" font-size="10.00">mom_dynamics_unsplit</text>
<text text-anchor="middle" x="250" y="-397.742" font-family="Helvetica,sans-Serif" font-size="10.00">::mom_dyn_unsplit_cs</text>
</a>
</g>
</g>
<!-- Node2 -->
<g id="node2" class="node"><title>Node2</title>
<g id="a_node2"><a xlink:title=" ">
<polygon fill="white" stroke="#bfbfbf" points="0.5,-707.242 0.5,-726.242 89.5,-726.242 89.5,-707.242 0.5,-707.242"/>
<text text-anchor="middle" x="45" y="-714.242" font-family="Helvetica,sans-Serif" font-size="10.00">type(ale_cs), pointer</text>
</a>
</g>
</g>
<!-- Node2&#45;&gt;Node1 -->
<g id="edge1" class="edge"><title>Node2&#45;&gt;Node1</title>
<path fill="none" stroke="#9a32cd" stroke-dasharray="5,2" d="M99.8334,-720.043C127.739,-718.81 160.406,-712.317 182,-691.742 222.059,-653.574 242.346,-474.616 247.598,-420.975"/>
<polygon fill="#9a32cd" stroke="#9a32cd" points="99.7132,-716.544 89.797,-720.275 99.8754,-723.542 99.7132,-716.544"/>
<text text-anchor="middle" x="145" y="-721.742" font-family="Helvetica,sans-Serif" font-size="10.00"> ale_csp</text>
</g>
<!-- Node3 -->
<g id="node3" class="node"><title>Node3</title>
<g id="a_node3"><a xlink:title=" ">
<polygon fill="white" stroke="#bfbfbf" points="26,-664.242 26,-683.242 64,-683.242 64,-664.242 26,-664.242"/>
<text text-anchor="middle" x="45" y="-671.242" font-family="Helvetica,sans-Serif" font-size="10.00">logical</text>
</a>
</g>
</g>
<!-- Node3&#45;&gt;Node1 -->
<g id="edge2" class="edge"><title>Node3&#45;&gt;Node1</title>
<path fill="none" stroke="#9a32cd" stroke-dasharray="5,2" d="M74.2082,-671.147C109.361,-667.349 166.686,-659.117 182,-644.742 247.509,-583.25 250.753,-463.386 249.702,-421.022"/>
<polygon fill="#9a32cd" stroke="#9a32cd" points="73.6724,-667.683 64.0816,-672.185 74.3865,-674.647 73.6724,-667.683"/>
<text text-anchor="middle" x="145" y="-679.742" font-family="Helvetica,sans-Serif" font-size="10.00"> debug</text>
<text text-anchor="middle" x="145" y="-668.742" font-family="Helvetica,sans-Serif" font-size="10.00">module_is_initialized</text>
</g>
<!-- Node4 -->
<g id="node4" class="node"><title>Node4</title>
<g id="a_node4"><a xlink:title=" ">
<polygon fill="white" stroke="#bfbfbf" points="7.5,-626.242 7.5,-645.242 82.5,-645.242 82.5,-626.242 7.5,-626.242"/>
<text text-anchor="middle" x="45" y="-633.242" font-family="Helvetica,sans-Serif" font-size="10.00">ocean_obc_type</text>
</a>
</g>
</g>
<!-- Node4&#45;&gt;Node1 -->
<g id="edge3" class="edge"><title>Node4&#45;&gt;Node1</title>
<path fill="none" stroke="#9a32cd" stroke-dasharray="5,2" d="M92.4961,-633.449C121.57,-629.67 157.936,-620.33 182,-597.742 234.126,-548.815 245.709,-457.157 248.274,-420.983"/>
<polygon fill="#9a32cd" stroke="#9a32cd" points="92.0954,-629.971 82.5486,-634.566 92.8768,-636.928 92.0954,-629.971"/>
<text text-anchor="middle" x="145" y="-632.742" font-family="Helvetica,sans-Serif" font-size="10.00"> obc</text>
</g>
<!-- Node5 -->
<g id="node5" class="node"><title>Node5</title>
<g id="a_node5"><a xlink:title=" ">
<polygon fill="white" stroke="#bfbfbf" points="5,-576.742 5,-606.742 85,-606.742 85,-576.742 5,-576.742"/>
<text text-anchor="start" x="13" y="-594.742" font-family="Helvetica,sans-Serif" font-size="10.00">type(set_visc_cs),</text>
<text text-anchor="middle" x="45" y="-583.742" font-family="Helvetica,sans-Serif" font-size="10.00"> pointer</text>
</a>
</g>
</g>
<!-- Node5&#45;&gt;Node1 -->
<g id="edge4" class="edge"><title>Node5&#45;&gt;Node1</title>
<path fill="none" stroke="#9a32cd" stroke-dasharray="5,2" d="M95.3556,-585.204C123.531,-579.263 157.926,-568.001 182,-546.742 221.208,-512.119 239.379,-449.56 245.948,-420.867"/>
<polygon fill="#9a32cd" stroke="#9a32cd" points="94.4356,-581.818 85.287,-587.161 95.7711,-588.689 94.4356,-581.818"/>
<text text-anchor="middle" x="145" y="-585.742" font-family="Helvetica,sans-Serif" font-size="10.00"> set_visc_csp</text>
</g>
<!-- Node6 -->
<g id="node6" class="node"><title>Node6</title>
<g id="a_node6"><a xlink:title=" ">
<polygon fill="white" stroke="#bfbfbf" points="6,-527.742 6,-557.742 84,-557.742 84,-527.742 6,-527.742"/>
<text text-anchor="start" x="14" y="-545.742" font-family="Helvetica,sans-Serif" font-size="10.00">type(vertvisc_cs),</text>
<text text-anchor="middle" x="45" y="-534.742" font-family="Helvetica,sans-Serif" font-size="10.00"> pointer</text>
</a>
</g>
</g>
<!-- Node6&#45;&gt;Node1 -->
<g id="edge5" class="edge"><title>Node6&#45;&gt;Node1</title>
<path fill="none" stroke="#9a32cd" stroke-dasharray="5,2" d="M93.9789,-534.491C121.679,-527.958 156.057,-516.676 182,-497.742 210.09,-477.242 231.225,-441.445 241.69,-421.074"/>
<polygon fill="#9a32cd" stroke="#9a32cd" points="93.1047,-531.1 84.1036,-536.688 94.6251,-537.933 93.1047,-531.1"/>
<text text-anchor="middle" x="145" y="-534.742" font-family="Helvetica,sans-Serif" font-size="10.00"> vertvisc_csp</text>
</g>
<!-- Node7 -->
<g id="node7" class="node"><title>Node7</title>
<g id="a_node7"><a xlink:title=" ">
<polygon fill="white" stroke="#bfbfbf" points="10.5,-489.242 10.5,-508.242 79.5,-508.242 79.5,-489.242 10.5,-489.242"/>
<text text-anchor="middle" x="45" y="-496.242" font-family="Helvetica,sans-Serif" font-size="10.00">cont_diag_ptrs</text>
</a>
</g>
</g>
<!-- Node7&#45;&gt;Node1 -->
<g id="edge6" class="edge"><title>Node7&#45;&gt;Node1</title>
<path fill="none" stroke="#9a32cd" stroke-dasharray="5,2" d="M89.2946,-488.526C116.729,-481.145 152.475,-469.821 182,-454.742 200.096,-445.501 218.583,-431.575 231.541,-420.928"/>
<polygon fill="#9a32cd" stroke="#9a32cd" points="88.3778,-485.148 79.5904,-491.066 90.1508,-491.92 88.3778,-485.148"/>
<text text-anchor="middle" x="145" y="-485.742" font-family="Helvetica,sans-Serif" font-size="10.00"> cdp</text>
</g>
<!-- Node8 -->
<g id="node8" class="node"><title>Node8</title>
<g id="a_node8"><a xlink:title=" ">
<polygon fill="white" stroke="#bfbfbf" points="4.5,-439.742 4.5,-469.742 85.5,-469.742 85.5,-439.742 4.5,-439.742"/>
<text text-anchor="start" x="12.5" y="-457.742" font-family="Helvetica,sans-Serif" font-size="10.00">type(hor_visc_cs),</text>
<text text-anchor="middle" x="45" y="-446.742" font-family="Helvetica,sans-Serif" font-size="10.00"> pointer</text>
</a>
</g>
</g>
<!-- Node8&#45;&gt;Node1 -->
<g id="edge7" class="edge"><title>Node8&#45;&gt;Node1</title>
<path fill="none" stroke="#9a32cd" stroke-dasharray="5,2" d="M95.597,-442.771C127.399,-435.094 168.501,-425.173 200.154,-417.533"/>
<polygon fill="#9a32cd" stroke="#9a32cd" points="94.5219,-439.43 85.6223,-445.178 96.1644,-446.234 94.5219,-439.43"/>
<text text-anchor="middle" x="145" y="-442.742" font-family="Helvetica,sans-Serif" font-size="10.00"> hor_visc_csp</text>
</g>
<!-- Node9 -->
<g id="node9" class="node"><title>Node9</title>
<g id="a_node9"><a xlink:title=" ">
<polygon fill="white" stroke="#bfbfbf" points="3.5,-390.742 3.5,-420.742 86.5,-420.742 86.5,-390.742 3.5,-390.742"/>
<text text-anchor="start" x="11.5" y="-408.742" font-family="Helvetica,sans-Serif" font-size="10.00">type(continuity_cs)</text>
<text text-anchor="middle" x="45" y="-397.742" font-family="Helvetica,sans-Serif" font-size="10.00">, pointer</text>
</a>
</g>
</g>
<!-- Node9&#45;&gt;Node1 -->
<g id="edge8" class="edge"><title>Node9&#45;&gt;Node1</title>
<path fill="none" stroke="#9a32cd" stroke-dasharray="5,2" d="M96.9582,-405.742C128.596,-405.742 169.03,-405.742 200.246,-405.742"/>
<polygon fill="#9a32cd" stroke="#9a32cd" points="96.5922,-402.242 86.5922,-405.742 96.5922,-409.242 96.5922,-402.242"/>
<text text-anchor="middle" x="145" y="-408.742" font-family="Helvetica,sans-Serif" font-size="10.00"> continuity_csp</text>
</g>
<!-- Node10 -->
<g id="node10" class="node"><title>Node10</title>
<g id="a_node10"><a xlink:title=" ">
<polygon fill="white" stroke="#bfbfbf" points="2,-341.742 2,-371.742 88,-371.742 88,-341.742 2,-341.742"/>
<text text-anchor="start" x="10" y="-359.742" font-family="Helvetica,sans-Serif" font-size="10.00">type(coriolisadv_cs)</text>
<text text-anchor="middle" x="45" y="-348.742" font-family="Helvetica,sans-Serif" font-size="10.00">, pointer</text>
</a>
</g>
</g>
<!-- Node10&#45;&gt;Node1 -->
<g id="edge9" class="edge"><title>Node10&#45;&gt;Node1</title>
<path fill="none" stroke="#9a32cd" stroke-dasharray="5,2" d="M97.9623,-369.285C129.435,-376.882 169.327,-386.511 200.209,-393.965"/>
<polygon fill="#9a32cd" stroke="#9a32cd" points="98.6038,-365.839 88.0617,-366.895 96.9613,-372.644 98.6038,-365.839"/>
<text text-anchor="middle" x="145" y="-391.742" font-family="Helvetica,sans-Serif" font-size="10.00"> coriolisadv_csp</text>
</g>
<!-- Node11 -->
<g id="node11" class="node"><title>Node11</title>
<g id="a_node11"><a xlink:title=" ">
<polygon fill="white" stroke="#bfbfbf" points="21.5,-303.242 21.5,-322.242 68.5,-322.242 68.5,-303.242 21.5,-303.242"/>
<text text-anchor="middle" x="45" y="-310.242" font-family="Helvetica,sans-Serif" font-size="10.00">diag_ctrl</text>
</a>
</g>
</g>
<!-- Node11&#45;&gt;Node1 -->
<g id="edge10" class="edge"><title>Node11&#45;&gt;Node1</title>
<path fill="none" stroke="#9a32cd" stroke-dasharray="5,2" d="M78.7488,-320.589C107.004,-328.05 148.438,-340.669 182,-357.742 199.855,-366.826 218.219,-380.33 231.195,-390.702"/>
<polygon fill="#9a32cd" stroke="#9a32cd" points="79.531,-317.177 68.9743,-318.075 77.7872,-323.956 79.531,-317.177"/>
<text text-anchor="middle" x="145" y="-360.742" font-family="Helvetica,sans-Serif" font-size="10.00"> diag</text>
</g>
<!-- Node12 -->
<g id="node12" class="node"><title>Node12</title>
<g id="a_node12"><a xlink:title=" ">
<polygon fill="white" stroke="#bfbfbf" points="6.5,-253.742 6.5,-283.742 83.5,-283.742 83.5,-253.742 6.5,-253.742"/>
<text text-anchor="start" x="14.5" y="-271.742" font-family="Helvetica,sans-Serif" font-size="10.00">type(tidal_forcing</text>
<text text-anchor="middle" x="45" y="-260.742" font-family="Helvetica,sans-Serif" font-size="10.00">_cs), pointer</text>
</a>
</g>
</g>
<!-- Node12&#45;&gt;Node1 -->
<g id="edge11" class="edge"><title>Node12&#45;&gt;Node1</title>
<path fill="none" stroke="#9a32cd" stroke-dasharray="5,2" d="M93.6602,-277.373C121.398,-284.133 155.923,-295.683 182,-314.742 209.877,-335.117 231.091,-370.488 241.628,-390.606"/>
<polygon fill="#9a32cd" stroke="#9a32cd" points="94.3068,-273.93 83.7761,-275.094 92.7341,-280.751 94.3068,-273.93"/>
<text text-anchor="middle" x="145" y="-317.742" font-family="Helvetica,sans-Serif" font-size="10.00"> tides_csp</text>
</g>
<!-- Node13 -->
<g id="node13" class="node"><title>Node13</title>
<g id="a_node13"><a xlink:title=" ">
<polygon fill="white" stroke="#bfbfbf" points="3,-204.742 3,-234.742 87,-234.742 87,-204.742 3,-204.742"/>
<text text-anchor="start" x="11" y="-222.742" font-family="Helvetica,sans-Serif" font-size="10.00">type(pressureforce</text>
<text text-anchor="middle" x="45" y="-211.742" font-family="Helvetica,sans-Serif" font-size="10.00">_cs), pointer</text>
</a>
</g>
</g>
<!-- Node13&#45;&gt;Node1 -->
<g id="edge12" class="edge"><title>Node13&#45;&gt;Node1</title>
<path fill="none" stroke="#9a32cd" stroke-dasharray="5,2" d="M97.0927,-227.533C124.924,-234.018 158.398,-245.74 182,-266.742 220.424,-300.935 238.9,-362.026 245.736,-390.435"/>
<polygon fill="#9a32cd" stroke="#9a32cd" points="97.6373,-224.07 87.123,-225.373 96.1552,-230.911 97.6373,-224.07"/>
<text text-anchor="middle" x="145" y="-269.742" font-family="Helvetica,sans-Serif" font-size="10.00"> pressureforce_csp</text>
</g>
<!-- Node14 -->
<g id="node14" class="node"><title>Node14</title>
<g id="a_node14"><a xlink:title=" ">
<polygon fill="white" stroke="#bfbfbf" points="24.5,-151.242 24.5,-170.242 65.5,-170.242 65.5,-151.242 24.5,-151.242"/>
<text text-anchor="middle" x="45" y="-158.242" font-family="Helvetica,sans-Serif" font-size="10.00">integer</text>
</a>
</g>
</g>
<!-- Node14&#45;&gt;Node1 -->
<g id="edge13" class="edge"><title>Node14&#45;&gt;Node1</title>
<path fill="none" stroke="#9a32cd" stroke-dasharray="5,2" d="M75.8229,-151.487C105.826,-144.159 151.851,-138.581 182,-161.742 219.274,-190.378 241.05,-341.644 247.191,-390.507"/>
<polygon fill="#9a32cd" stroke="#9a32cd" points="74.7009,-148.164 65.9308,-154.108 76.4937,-154.93 74.7009,-148.164"/>
<text text-anchor="middle" x="145" y="-219.742" font-family="Helvetica,sans-Serif" font-size="10.00"> id_vh</text>
<text text-anchor="middle" x="145" y="-208.742" font-family="Helvetica,sans-Serif" font-size="10.00">id_cau</text>
<text text-anchor="middle" x="145" y="-197.742" font-family="Helvetica,sans-Serif" font-size="10.00">id_uh</text>
<text text-anchor="middle" x="145" y="-186.742" font-family="Helvetica,sans-Serif" font-size="10.00">id_cav</text>
<text text-anchor="middle" x="145" y="-175.742" font-family="Helvetica,sans-Serif" font-size="10.00">id_pfu</text>
<text text-anchor="middle" x="145" y="-164.742" font-family="Helvetica,sans-Serif" font-size="10.00">id_pfv</text>
</g>
<!-- Node15 -->
<g id="node15" class="node"><title>Node15</title>
<g id="a_node15"><a xlink:title=" ">
<polygon fill="white" stroke="#bfbfbf" points="30,-40.2424 30,-59.2424 60,-59.2424 60,-40.2424 30,-40.2424"/>
<text text-anchor="middle" x="45" y="-47.2424" font-family="Helvetica,sans-Serif" font-size="10.00">real</text>
</a>
</g>
</g>
<!-- Node15&#45;&gt;Node1 -->
<g id="edge14" class="edge"><title>Node15&#45;&gt;Node1</title>
<path fill="none" stroke="#9a32cd" stroke-dasharray="5,2" d="M69.9967,-42.3225C99.9384,-34.6919 150.969,-27.2822 182,-53.7424 234.425,-98.4444 246.288,-329.309 248.534,-390.722"/>
<polygon fill="#9a32cd" stroke="#9a32cd" points="69.0662,-38.9484 60.3528,-44.9756 70.923,-45.6977 69.0662,-38.9484"/>
<text text-anchor="middle" x="145" y="-133.742" font-family="Helvetica,sans-Serif" font-size="10.00"> cau</text>
<text text-anchor="middle" x="145" y="-122.742" font-family="Helvetica,sans-Serif" font-size="10.00">cav</text>
<text text-anchor="middle" x="145" y="-111.742" font-family="Helvetica,sans-Serif" font-size="10.00">pfu</text>
<text text-anchor="middle" x="145" y="-100.742" font-family="Helvetica,sans-Serif" font-size="10.00">pfv</text>
<text text-anchor="middle" x="145" y="-89.7424" font-family="Helvetica,sans-Serif" font-size="10.00">diffu</text>
<text text-anchor="middle" x="145" y="-78.7424" font-family="Helvetica,sans-Serif" font-size="10.00">diffv</text>
<text text-anchor="middle" x="145" y="-67.7424" font-family="Helvetica,sans-Serif" font-size="10.00">taux_bot</text>
<text text-anchor="middle" x="145" y="-56.7424" font-family="Helvetica,sans-Serif" font-size="10.00">tauy_bot</text>
</g>
<!-- Node16 -->
<g id="node16" class="node"><title>Node16</title>
<g id="a_node16"><a xlink:title=" ">
<polygon fill="white" stroke="#bfbfbf" points="9,-2.24237 9,-21.2424 81,-21.2424 81,-2.24237 9,-2.24237"/>
<text text-anchor="middle" x="45" y="-9.24237" font-family="Helvetica,sans-Serif" font-size="10.00">accel_diag_ptrs</text>
</a>
</g>
</g>
<!-- Node16&#45;&gt;Node1 -->
<g id="edge15" class="edge"><title>Node16&#45;&gt;Node1</title>
<path fill="none" stroke="#9a32cd" stroke-dasharray="5,2" d="M91.3006,-1.70768C120.713,1.98287 157.917,0.909774 182,-20.7424 238.255,-71.3179 247.343,-325.921 248.751,-390.721"/>
<polygon fill="#9a32cd" stroke="#9a32cd" points="90.6403,1.73293 81.2565,-3.18582 91.6596,-5.19247 90.6403,1.73293"/>
<text text-anchor="middle" x="145" y="-23.7424" font-family="Helvetica,sans-Serif" font-size="10.00"> adp</text>
</g>
</g>
</svg>
        <g id="navigator" transform="translate(0 0)" fill="#404254">
                <rect fill="#f2f5e9" fill-opacity="0.5" stroke="#606060" stroke-width=".5" x="0" y="0" width="60" height="60"/>
                <use id="zoomplus" xlink:href="#zoomPlus" x="17" y="9" onmousedown="handleZoom(evt,'in')"/>
                <use id="zoomminus" xlink:href="#zoomMin" x="42" y="9" onmousedown="handleZoom(evt,'out')"/>
                <use id="reset" xlink:href="#resetDef" x="30" y="36" onmousedown="handleReset()"/>
                <g id="arrowUp" xlink:href="#dirArrow" transform="translate(30 24)" onmousedown="handlePan(0,-1)">
                  <use xlink:href="#rim" fill="#404040">
                        <set attributeName="fill" to="#808080" begin="arrowUp.mouseover" end="arrowUp.mouseout"/>
                  </use>
                  <path fill="none" stroke="white" stroke-width="1.5" d="M0,-3.0v7 M-2.5,-0.5L0,-3.0L2.5,-0.5"/>
                </g>
                <g id="arrowRight" xlink:href="#dirArrow" transform="rotate(90) translate(36 -43)" onmousedown="handlePan(1,0)">
                  <use xlink:href="#rim" fill="#404040">
                        <set attributeName="fill" to="#808080" begin="arrowRight.mouseover" end="arrowRight.mouseout"/>
                  </use>
                  <path fill="none" stroke="white" stroke-width="1.5" d="M0,-3.0v7 M-2.5,-0.5L0,-3.0L2.5,-0.5"/>
                </g>
                <g id="arrowDown" xlink:href="#dirArrow" transform="rotate(180) translate(-30 -48)" onmousedown="handlePan(0,1)">
                  <use xlink:href="#rim" fill="#404040">
                        <set attributeName="fill" to="#808080" begin="arrowDown.mouseover" end="arrowDown.mouseout"/>
                  </use>
                  <path fill="none" stroke="white" stroke-width="1.5" d="M0,-3.0v7 M-2.5,-0.5L0,-3.0L2.5,-0.5"/>
                </g>
                <g id="arrowLeft" xlink:href="#dirArrow" transform="rotate(270) translate(-36 17)" onmousedown="handlePan(-1,0)">
                  <use xlink:href="#rim" fill="#404040">
                        <set attributeName="fill" to="#808080" begin="arrowLeft.mouseover" end="arrowLeft.mouseout"/>
                  </use>
                  <path fill="none" stroke="white" stroke-width="1.5" d="M0,-3.0v7 M-2.5,-0.5L0,-3.0L2.5,-0.5"/>
                </g>
        </g>
        <svg viewBox="0 0 15 15" width="100%" height="30px" preserveAspectRatio="xMaxYMin meet">
         <g id="arrow_out" transform="scale(0.3 0.3)">
          <a xlink:href="structmom__dynamics__unsplit_1_1mom__dyn__unsplit__cs__coll__graph_org.svg" target="_base">
           <rect id="button" ry="5" rx="5" y="6" x="6" height="38" width="38"
                fill="#f2f5e9" fill-opacity="0.5" stroke="#606060" stroke-width="1.0"/>
           <path id="arrow"
             d="M 11.500037,31.436501 C 11.940474,20.09759 22.043105,11.32322 32.158766,21.979434 L 37.068811,17.246167 C 37.068811,17.246167 37.088388,32 37.088388,32 L 22.160133,31.978069 C 22.160133,31.978069 26.997745,27.140456 26.997745,27.140456 C 18.528582,18.264221 13.291696,25.230495 11.500037,31.436501 z"
             style="fill:#404040;"/>
          </a>
         </g>
        </svg>
</svg>
