<?xml version="1.0" encoding="UTF-8" standalone="no"?>
<!DOCTYPE svg PUBLIC "-//W3C//DTD SVG 1.1//EN"
 "http://www.w3.org/Graphics/SVG/1.1/DTD/svg11.dtd">
<!-- Generated by graphviz version 2.30.1 (20170916.1124)
 -->
<!-- Title: mom_wave_structure::wave_structure_cs Pages: 1 -->
<svg width="222pt" height="206pt"
 viewBox="0.00 0.00 222.00 206.00" xmlns="http://www.w3.org/2000/svg" xmlns:xlink="http://www.w3.org/1999/xlink">
<g id="graph0" class="graph" transform="scale(1 1) rotate(0) translate(4 202)">
<title>mom_wave_structure::wave_structure_cs</title>
<polygon fill="white" stroke="white" points="-4,5 -4,-202 219,-202 219,5 -4,5"/>
<!-- Node1 -->
<g id="node1" class="node"><title>Node1</title>
<g id="a_node1"><a xlink:title=" ">
<polygon fill="#bfbfbf" stroke="black" points="38,-1 38,-31 132,-31 132,-1 38,-1"/>
<text text-anchor="start" x="46" y="-19" font-family="Helvetica,sans-Serif" font-size="10.00">mom_wave_structure</text>
<text text-anchor="middle" x="85" y="-8" font-family="Helvetica,sans-Serif" font-size="10.00">::wave_structure_cs</text>
</a>
</g>
</g>
<!-- Node2 -->
<g id="node2" class="node"><title>Node2</title>
<g id="a_node2"><a xlink:title=" ">
<polygon fill="white" stroke="#bfbfbf" points="-0.5,-178.5 -0.5,-197.5 46.5,-197.5 46.5,-178.5 -0.5,-178.5"/>
<text text-anchor="middle" x="23" y="-185.5" font-family="Helvetica,sans-Serif" font-size="10.00">diag_ctrl</text>
</a>
</g>
</g>
<!-- Node2&#45;&gt;Node1 -->
<g id="edge1" class="edge"><title>Node2&#45;&gt;Node1</title>
<path fill="none" stroke="#9a32cd" stroke-dasharray="5,2" d="M26.5603,-168.354C32.1245,-141.378 44.2285,-90.2865 63,-50 66.0245,-43.509 70.2224,-36.8457 74.1412,-31.2213"/>
<polygon fill="#9a32cd" stroke="#9a32cd" points="23.0929,-167.846 24.5757,-178.337 29.9585,-169.211 23.0929,-167.846"/>
<text text-anchor="middle" x="72" y="-102.5" font-family="Helvetica,sans-Serif" font-size="10.00"> diag</text>
</g>
<!-- Node3 -->
<g id="node3" class="node"><title>Node3</title>
<g id="a_node3"><a xlink:title=" ">
<polygon fill="white" stroke="#bfbfbf" points="64.5,-178.5 64.5,-197.5 105.5,-197.5 105.5,-178.5 64.5,-178.5"/>
<text text-anchor="middle" x="85" y="-185.5" font-family="Helvetica,sans-Serif" font-size="10.00">integer</text>
</a>
</g>
</g>
<!-- Node3&#45;&gt;Node1 -->
<g id="edge2" class="edge"><title>Node3&#45;&gt;Node1</title>
<path fill="none" stroke="#9a32cd" stroke-dasharray="5,2" d="M85,-168.261C85,-133.922 85,-61.6401 85,-31.0984"/>
<polygon fill="#9a32cd" stroke="#9a32cd" points="81.5001,-168.336 85,-178.336 88.5001,-168.336 81.5001,-168.336"/>
<text text-anchor="middle" x="110" y="-102.5" font-family="Helvetica,sans-Serif" font-size="10.00"> num_intfaces</text>
</g>
<!-- Node4 -->
<g id="node4" class="node"><title>Node4</title>
<g id="a_node4"><a xlink:title=" ">
<polygon fill="white" stroke="#bfbfbf" points="143,-178.5 143,-197.5 173,-197.5 173,-178.5 143,-178.5"/>
<text text-anchor="middle" x="158" y="-185.5" font-family="Helvetica,sans-Serif" font-size="10.00">real</text>
</a>
</g>
</g>
<!-- Node4&#45;&gt;Node1 -->
<g id="edge3" class="edge"><title>Node4&#45;&gt;Node1</title>
<path fill="none" stroke="#9a32cd" stroke-dasharray="5,2" d="M159.553,-168.451C160.964,-140.436 159.94,-86.7108 136,-50 130.988,-42.3146 123.493,-36.0416 115.781,-31.1086"/>
<polygon fill="#9a32cd" stroke="#9a32cd" points="156.059,-168.244 158.884,-178.455 163.043,-168.71 156.059,-168.244"/>
<text text-anchor="middle" x="186.5" y="-152" font-family="Helvetica,sans-Serif" font-size="10.00"> u_strct</text>
<text text-anchor="middle" x="186.5" y="-141" font-family="Helvetica,sans-Serif" font-size="10.00">w_strct</text>
<text text-anchor="middle" x="186.5" y="-130" font-family="Helvetica,sans-Serif" font-size="10.00">z_depths</text>
<text text-anchor="middle" x="186.5" y="-119" font-family="Helvetica,sans-Serif" font-size="10.00">n2</text>
<text text-anchor="start" x="159" y="-108" font-family="Helvetica,sans-Serif" font-size="10.00">int_tide_source</text>
<text text-anchor="middle" x="186.5" y="-97" font-family="Helvetica,sans-Serif" font-size="10.00">_x</text>
<text text-anchor="start" x="159" y="-86" font-family="Helvetica,sans-Serif" font-size="10.00">int_tide_source</text>
<text text-anchor="middle" x="186.5" y="-75" font-family="Helvetica,sans-Serif" font-size="10.00">_y</text>
<text text-anchor="middle" x="186.5" y="-64" font-family="Helvetica,sans-Serif" font-size="10.00">uavg_profile</text>
<text text-anchor="middle" x="186.5" y="-53" font-family="Helvetica,sans-Serif" font-size="10.00">w_profile</text>
</g>
</g>
</svg>
