<?xml version="1.0" encoding="UTF-8" standalone="no"?>
<!DOCTYPE svg PUBLIC "-//W3C//DTD SVG 1.1//EN"
 "http://www.w3.org/Graphics/SVG/1.1/DTD/svg11.dtd">
<!-- Generated by graphviz version 2.30.1 (20170916.1124)
 -->
<!-- Title: mom_ice_shelf::ice_shelf_cs Pages: 1 -->
<!--zoomable 756 -->
<svg id="main" version="1.1" xmlns="http://www.w3.org/2000/svg" xmlns:xlink="http://www.w3.org/1999/xlink" xml:space="preserve" onload="init(evt)">
<style type="text/css"><![CDATA[
.edge:hover path { stroke: red; }
.edge:hover polygon { stroke: red; fill: red; }
]]></style>
<script type="text/javascript"><![CDATA[
var edges = document.getElementsByTagName('g');
if (edges && edges.length) {
  for (var i=0;i<edges.length;i++) {
    if (edges[i].id.substr(0,4)=='edge') {
      edges[i].setAttribute('class','edge');
    }
  }
}
]]></script>
        <defs>
                <circle id="rim" cx="0" cy="0" r="7"/>
                <circle id="rim2" cx="0" cy="0" r="3.5"/>
                <g id="zoomPlus">
                        <use xlink:href="#rim" fill="#404040">
                                <set attributeName="fill" to="#808080" begin="zoomplus.mouseover" end="zoomplus.mouseout"/>
                        </use>
                        <path d="M-4,0h8M0,-4v8" fill="none" stroke="white" stroke-width="1.5" pointer-events="none"/>
                </g>
                <g id="zoomMin">
                        <use xlink:href="#rim" fill="#404040">
                                <set attributeName="fill" to="#808080" begin="zoomminus.mouseover" end="zoomminus.mouseout"/>
                        </use>
                        <path d="M-4,0h8" fill="none" stroke="white" stroke-width="1.5" pointer-events="none"/>
                </g>
                <g id="dirArrow">
                        <path fill="none" stroke="white" stroke-width="1.5" d="M0,-3.0v7 M-2.5,-0.5L0,-3.0L2.5,-0.5"/>
                </g>
               <g id="resetDef">
                       <use xlink:href="#rim2" fill="#404040">
                               <set attributeName="fill" to="#808080" begin="reset.mouseover" end="reset.mouseout"/>
                       </use>
               </g>
        </defs>

<script type="text/javascript">
var viewWidth = 324;
var viewHeight = 756;
var sectionId = 'dynsection-0';
</script>
<script xlink:href="svgpan.js"/>
<svg id="graph" class="graph">
<g id="viewport">
<title>mom_ice_shelf::ice_shelf_cs</title>
<polygon fill="white" stroke="white" points="-4,5 -4,-752.496 321,-752.496 321,5 -4,5"/>
<!-- Node1 -->
<g id="node1" class="node"><title>Node1</title>
<g id="a_node1"><a xlink:title=" ">
<polygon fill="#bfbfbf" stroke="black" points="232,-421.496 232,-451.496 316,-451.496 316,-421.496 232,-421.496"/>
<text text-anchor="start" x="240" y="-439.496" font-family="Helvetica,sans-Serif" font-size="10.00">mom_ice_shelf::ice</text>
<text text-anchor="middle" x="274" y="-428.496" font-family="Helvetica,sans-Serif" font-size="10.00">_shelf_cs</text>
</a>
</g>
</g>
<!-- Node2 -->
<g id="node2" class="node"><title>Node2</title>
<g id="a_node2"><a xlink:title=" ">
<polygon fill="white" stroke="#bfbfbf" points="31,-612.996 31,-631.996 69,-631.996 69,-612.996 31,-612.996"/>
<text text-anchor="middle" x="50" y="-619.996" font-family="Helvetica,sans-Serif" font-size="10.00">logical</text>
</a>
</g>
</g>
<!-- Node2&#45;&gt;Node1 -->
<g id="edge1" class="edge"><title>Node2&#45;&gt;Node1</title>
<path fill="none" stroke="#9a32cd" stroke-dasharray="5,2" d="M79.4175,-626.443C114.942,-629.729 175.722,-629.695 214,-598.496 259.939,-561.052 270.11,-484.62 272.361,-451.909"/>
<polygon fill="#9a32cd" stroke="#9a32cd" points="79.574,-622.94 69.2564,-625.347 78.8236,-629.899 79.574,-622.94"/>
<text text-anchor="middle" x="166" y="-740.496" font-family="Helvetica,sans-Serif" font-size="10.00"> override_shelf_movement</text>
<text text-anchor="middle" x="166" y="-729.496" font-family="Helvetica,sans-Serif" font-size="10.00">use_reproducing_sums</text>
<text text-anchor="middle" x="166" y="-718.496" font-family="Helvetica,sans-Serif" font-size="10.00">solo_ice_sheet</text>
<text text-anchor="middle" x="166" y="-707.496" font-family="Helvetica,sans-Serif" font-size="10.00">moving_shelf_front</text>
<text text-anchor="middle" x="166" y="-696.496" font-family="Helvetica,sans-Serif" font-size="10.00">find_salt_root</text>
<text text-anchor="middle" x="166" y="-685.496" font-family="Helvetica,sans-Serif" font-size="10.00">calve_to_mask</text>
<text text-anchor="middle" x="166" y="-674.496" font-family="Helvetica,sans-Serif" font-size="10.00">gl_couple</text>
<text text-anchor="middle" x="166" y="-663.496" font-family="Helvetica,sans-Serif" font-size="10.00">shelf_mass_is_dynamic</text>
<text text-anchor="middle" x="166" y="-652.496" font-family="Helvetica,sans-Serif" font-size="10.00">threeeq</text>
<text text-anchor="middle" x="166" y="-641.496" font-family="Helvetica,sans-Serif" font-size="10.00">const_gamma</text>
<text text-anchor="middle" x="166" y="-630.496" font-family="Helvetica,sans-Serif" font-size="10.00">...</text>
</g>
<!-- Node3 -->
<g id="node3" class="node"><title>Node3</title>
<g id="a_node3"><a xlink:title=" ">
<polygon fill="white" stroke="#bfbfbf" points="24.5,-574.996 24.5,-593.996 75.5,-593.996 75.5,-574.996 24.5,-574.996"/>
<text text-anchor="middle" x="50" y="-581.996" font-family="Helvetica,sans-Serif" font-size="10.00">time_type</text>
</a>
</g>
</g>
<!-- Node3&#45;&gt;Node1 -->
<g id="edge2" class="edge"><title>Node3&#45;&gt;Node1</title>
<path fill="none" stroke="#9a32cd" stroke-dasharray="5,2" d="M86.1648,-585.834C121.815,-585.402 176.873,-579.618 214,-551.496 247.449,-526.159 263.513,-476.476 269.742,-451.534"/>
<polygon fill="#9a32cd" stroke="#9a32cd" points="85.7718,-582.333 75.7654,-585.814 85.7589,-589.333 85.7718,-582.333"/>
<text text-anchor="middle" x="166" y="-586.496" font-family="Helvetica,sans-Serif" font-size="10.00"> time</text>
</g>
<!-- Node4 -->
<g id="node4" class="node"><title>Node4</title>
<g id="a_node4"><a xlink:title=" ">
<polygon fill="white" stroke="#bfbfbf" points="0.5,-536.996 0.5,-555.996 99.5,-555.996 99.5,-536.996 0.5,-536.996"/>
<text text-anchor="middle" x="50" y="-543.996" font-family="Helvetica,sans-Serif" font-size="10.00">type(eos_type), pointer</text>
</a>
</g>
</g>
<!-- Node4&#45;&gt;Node1 -->
<g id="edge3" class="edge"><title>Node4&#45;&gt;Node1</title>
<path fill="none" stroke="#9a32cd" stroke-dasharray="5,2" d="M109.413,-539.102C142.029,-532.992 182.344,-522.013 214,-502.496 235.063,-489.51 252.968,-466.753 263.357,-451.652"/>
<polygon fill="#9a32cd" stroke="#9a32cd" points="108.794,-535.657 99.5565,-540.846 110.013,-542.55 108.794,-535.657"/>
<text text-anchor="middle" x="166" y="-539.496" font-family="Helvetica,sans-Serif" font-size="10.00"> eqn_of_state</text>
</g>
<!-- Node5 -->
<g id="node5" class="node"><title>Node5</title>
<g id="a_node5"><a xlink:title=" ">
<polygon fill="white" stroke="#bfbfbf" points="2.5,-487.496 2.5,-517.496 97.5,-517.496 97.5,-487.496 2.5,-487.496"/>
<text text-anchor="start" x="10.5" y="-505.496" font-family="Helvetica,sans-Serif" font-size="10.00">type(mom_restart_cs)</text>
<text text-anchor="middle" x="50" y="-494.496" font-family="Helvetica,sans-Serif" font-size="10.00">, pointer</text>
</a>
</g>
</g>
<!-- Node5&#45;&gt;Node1 -->
<g id="edge4" class="edge"><title>Node5&#45;&gt;Node1</title>
<path fill="none" stroke="#9a32cd" stroke-dasharray="5,2" d="M107.613,-491.153C139.29,-484.174 179.275,-474.307 214,-462.496 223.114,-459.396 232.762,-455.445 241.558,-451.564"/>
<polygon fill="#9a32cd" stroke="#9a32cd" points="106.668,-487.776 97.6373,-493.316 108.152,-494.617 106.668,-487.776"/>
<text text-anchor="middle" x="166" y="-490.496" font-family="Helvetica,sans-Serif" font-size="10.00"> restart_csp</text>
</g>
<!-- Node6 -->
<g id="node6" class="node"><title>Node6</title>
<g id="a_node6"><a xlink:title=" ">
<polygon fill="white" stroke="#bfbfbf" points="7,-438.496 7,-468.496 93,-468.496 93,-438.496 7,-438.496"/>
<text text-anchor="start" x="15" y="-456.496" font-family="Helvetica,sans-Serif" font-size="10.00">type(user_ice_shelf</text>
<text text-anchor="middle" x="50" y="-445.496" font-family="Helvetica,sans-Serif" font-size="10.00">_cs), pointer</text>
</a>
</g>
</g>
<!-- Node6&#45;&gt;Node1 -->
<g id="edge5" class="edge"><title>Node6&#45;&gt;Node1</title>
<path fill="none" stroke="#9a32cd" stroke-dasharray="5,2" d="M103.199,-449.499C142.493,-446.49 195.608,-442.422 231.905,-439.643"/>
<polygon fill="#9a32cd" stroke="#9a32cd" points="102.721,-446.025 93.0175,-450.278 103.256,-453.004 102.721,-446.025"/>
<text text-anchor="middle" x="166" y="-450.496" font-family="Helvetica,sans-Serif" font-size="10.00"> user_cs</text>
</g>
<!-- Node7 -->
<g id="node7" class="node"><title>Node7</title>
<g id="a_node7"><a xlink:title=" ">
<polygon fill="white" stroke="#bfbfbf" points="26.5,-399.996 26.5,-418.996 73.5,-418.996 73.5,-399.996 26.5,-399.996"/>
<text text-anchor="middle" x="50" y="-406.996" font-family="Helvetica,sans-Serif" font-size="10.00">diag_ctrl</text>
</a>
</g>
</g>
<!-- Node7&#45;&gt;Node1 -->
<g id="edge6" class="edge"><title>Node7&#45;&gt;Node1</title>
<path fill="none" stroke="#9a32cd" stroke-dasharray="5,2" d="M83.748,-411.873C116.732,-414.464 169.037,-419.11 214,-425.496 219.777,-426.316 225.85,-427.304 231.813,-428.347"/>
<polygon fill="#9a32cd" stroke="#9a32cd" points="83.9904,-408.382 73.7515,-411.105 83.4537,-415.361 83.9904,-408.382"/>
<text text-anchor="middle" x="166" y="-428.496" font-family="Helvetica,sans-Serif" font-size="10.00"> diag</text>
</g>
<!-- Node8 -->
<g id="node8" class="node"><title>Node8</title>
<g id="a_node8"><a xlink:title=" ">
<polygon fill="white" stroke="#bfbfbf" points="7.5,-361.996 7.5,-380.996 92.5,-380.996 92.5,-361.996 7.5,-361.996"/>
<text text-anchor="middle" x="50" y="-368.996" font-family="Helvetica,sans-Serif" font-size="10.00">character(len=128)</text>
</a>
</g>
</g>
<!-- Node8&#45;&gt;Node1 -->
<g id="edge7" class="edge"><title>Node8&#45;&gt;Node1</title>
<path fill="none" stroke="#9a32cd" stroke-dasharray="5,2" d="M102.952,-375.225C135.665,-378.825 178.303,-385.85 214,-399.496 228.004,-404.849 242.284,-413.697 253.287,-421.399"/>
<polygon fill="#9a32cd" stroke="#9a32cd" points="103.007,-371.712 92.7015,-374.172 102.292,-378.676 103.007,-371.712"/>
<text text-anchor="middle" x="166" y="-402.496" font-family="Helvetica,sans-Serif" font-size="10.00"> restart_output_dir</text>
</g>
<!-- Node9 -->
<g id="node9" class="node"><title>Node9</title>
<g id="a_node9"><a xlink:title=" ">
<polygon fill="white" stroke="#bfbfbf" points="29.5,-231.996 29.5,-250.996 70.5,-250.996 70.5,-231.996 29.5,-231.996"/>
<text text-anchor="middle" x="50" y="-238.996" font-family="Helvetica,sans-Serif" font-size="10.00">integer</text>
</a>
</g>
</g>
<!-- Node9&#45;&gt;Node1 -->
<g id="edge8" class="edge"><title>Node9&#45;&gt;Node1</title>
<path fill="none" stroke="#9a32cd" stroke-dasharray="5,2" d="M80.7342,-234.37C116.344,-227.704 175.942,-222.718 214,-252.496 267.501,-294.357 273.278,-385.122 273.357,-421.231"/>
<polygon fill="#9a32cd" stroke="#9a32cd" points="79.6023,-231.029 70.5033,-236.457 81.0011,-237.888 79.6023,-231.029"/>
<text text-anchor="middle" x="166" y="-365.496" font-family="Helvetica,sans-Serif" font-size="10.00"> id_od_av</text>
<text text-anchor="middle" x="166" y="-354.496" font-family="Helvetica,sans-Serif" font-size="10.00">id_bathym</text>
<text text-anchor="middle" x="166" y="-343.496" font-family="Helvetica,sans-Serif" font-size="10.00">id_exch_vel_s</text>
<text text-anchor="middle" x="166" y="-332.496" font-family="Helvetica,sans-Serif" font-size="10.00">id_melt</text>
<text text-anchor="middle" x="166" y="-321.496" font-family="Helvetica,sans-Serif" font-size="10.00">id_exch_vel_t</text>
<text text-anchor="middle" x="166" y="-310.496" font-family="Helvetica,sans-Serif" font-size="10.00">cg_max_iterations</text>
<text text-anchor="middle" x="166" y="-299.496" font-family="Helvetica,sans-Serif" font-size="10.00">id_sbdry</text>
<text text-anchor="middle" x="166" y="-288.496" font-family="Helvetica,sans-Serif" font-size="10.00">id_tfl_shelf</text>
<text text-anchor="middle" x="166" y="-277.496" font-family="Helvetica,sans-Serif" font-size="10.00">id_t_shelf</text>
<text text-anchor="middle" x="166" y="-266.496" font-family="Helvetica,sans-Serif" font-size="10.00">id_col_thick</text>
<text text-anchor="middle" x="166" y="-255.496" font-family="Helvetica,sans-Serif" font-size="10.00">...</text>
</g>
<!-- Node10 -->
<g id="node10" class="node"><title>Node10</title>
<g id="a_node10"><a xlink:title=" ">
<polygon fill="white" stroke="#bfbfbf" points="35,-54.9959 35,-73.9959 65,-73.9959 65,-54.9959 35,-54.9959"/>
<text text-anchor="middle" x="50" y="-61.9959" font-family="Helvetica,sans-Serif" font-size="10.00">real</text>
</a>
</g>
</g>
<!-- Node10&#45;&gt;Node1 -->
<g id="edge9" class="edge"><title>Node10&#45;&gt;Node1</title>
<path fill="none" stroke="#9a32cd" stroke-dasharray="5,2" d="M75.2915,-57.0757C110.543,-47.9611 175.824,-37.5557 214,-71.4959 267.25,-118.837 272.513,-358.556 272.972,-421.396"/>
<polygon fill="#9a32cd" stroke="#9a32cd" points="74.0868,-53.7773 65.3789,-59.8124 75.9497,-60.5249 74.0868,-53.7773"/>
<text text-anchor="middle" x="166" y="-217.496" font-family="Helvetica,sans-Serif" font-size="10.00"> input_thickness</text>
<text text-anchor="middle" x="166" y="-206.496" font-family="Helvetica,sans-Serif" font-size="10.00">gamma_t</text>
<text text-anchor="middle" x="166" y="-195.496" font-family="Helvetica,sans-Serif" font-size="10.00">cdrag</text>
<text text-anchor="start" x="136" y="-184.496" font-family="Helvetica,sans-Serif" font-size="10.00">taub_beta_eff</text>
<text text-anchor="middle" x="166" y="-173.496" font-family="Helvetica,sans-Serif" font-size="10.00">_upper_tri</text>
<text text-anchor="middle" x="166" y="-162.496" font-family="Helvetica,sans-Serif" font-size="10.00">v_face_mask</text>
<text text-anchor="middle" x="166" y="-151.496" font-family="Helvetica,sans-Serif" font-size="10.00">h_shelf</text>
<text text-anchor="middle" x="166" y="-140.496" font-family="Helvetica,sans-Serif" font-size="10.00">salt_flux</text>
<text text-anchor="middle" x="166" y="-129.496" font-family="Helvetica,sans-Serif" font-size="10.00">gamma_t_3eq</text>
<text text-anchor="start" x="136" y="-118.496" font-family="Helvetica,sans-Serif" font-size="10.00">ice_visc_lower</text>
<text text-anchor="middle" x="166" y="-107.496" font-family="Helvetica,sans-Serif" font-size="10.00">_tri</text>
<text text-anchor="start" x="136" y="-96.4959" font-family="Helvetica,sans-Serif" font-size="10.00">u_flux_boundary</text>
<text text-anchor="middle" x="166" y="-85.4959" font-family="Helvetica,sans-Serif" font-size="10.00">_values</text>
<text text-anchor="middle" x="166" y="-74.4959" font-family="Helvetica,sans-Serif" font-size="10.00">...</text>
</g>
<!-- Node11 -->
<g id="node11" class="node"><title>Node11</title>
<g id="a_node11"><a xlink:title=" ">
<polygon fill="white" stroke="#bfbfbf" points="12,-9.99589 12,-28.9959 88,-28.9959 88,-9.99589 12,-9.99589"/>
<text text-anchor="middle" x="50" y="-16.9959" font-family="Helvetica,sans-Serif" font-size="10.00">ocean_grid_type</text>
</a>
</g>
</g>
<!-- Node11&#45;&gt;Node1 -->
<g id="edge10" class="edge"><title>Node11&#45;&gt;Node1</title>
<path fill="none" stroke="#9a32cd" stroke-dasharray="5,2" d="M89.8669,-7.40415C126.478,1.34488 180.561,7.05883 214,-22.4959 274.927,-76.3458 274.404,-352.927 273.321,-421.231"/>
<polygon fill="#9a32cd" stroke="#9a32cd" points="88.8525,-4.05094 80.0355,-9.92552 90.5915,-10.8315 88.8525,-4.05094"/>
<text text-anchor="middle" x="166" y="-36.4959" font-family="Helvetica,sans-Serif" font-size="10.00"> ocn_grid</text>
<text text-anchor="middle" x="166" y="-25.4959" font-family="Helvetica,sans-Serif" font-size="10.00">grid</text>
</g>
</g>
</svg>
        <g id="navigator" transform="translate(0 0)" fill="#404254">
                <rect fill="#f2f5e9" fill-opacity="0.5" stroke="#606060" stroke-width=".5" x="0" y="0" width="60" height="60"/>
                <use id="zoomplus" xlink:href="#zoomPlus" x="17" y="9" onmousedown="handleZoom(evt,'in')"/>
                <use id="zoomminus" xlink:href="#zoomMin" x="42" y="9" onmousedown="handleZoom(evt,'out')"/>
                <use id="reset" xlink:href="#resetDef" x="30" y="36" onmousedown="handleReset()"/>
                <g id="arrowUp" xlink:href="#dirArrow" transform="translate(30 24)" onmousedown="handlePan(0,-1)">
                  <use xlink:href="#rim" fill="#404040">
                        <set attributeName="fill" to="#808080" begin="arrowUp.mouseover" end="arrowUp.mouseout"/>
                  </use>
                  <path fill="none" stroke="white" stroke-width="1.5" d="M0,-3.0v7 M-2.5,-0.5L0,-3.0L2.5,-0.5"/>
                </g>
                <g id="arrowRight" xlink:href="#dirArrow" transform="rotate(90) translate(36 -43)" onmousedown="handlePan(1,0)">
                  <use xlink:href="#rim" fill="#404040">
                        <set attributeName="fill" to="#808080" begin="arrowRight.mouseover" end="arrowRight.mouseout"/>
                  </use>
                  <path fill="none" stroke="white" stroke-width="1.5" d="M0,-3.0v7 M-2.5,-0.5L0,-3.0L2.5,-0.5"/>
                </g>
                <g id="arrowDown" xlink:href="#dirArrow" transform="rotate(180) translate(-30 -48)" onmousedown="handlePan(0,1)">
                  <use xlink:href="#rim" fill="#404040">
                        <set attributeName="fill" to="#808080" begin="arrowDown.mouseover" end="arrowDown.mouseout"/>
                  </use>
                  <path fill="none" stroke="white" stroke-width="1.5" d="M0,-3.0v7 M-2.5,-0.5L0,-3.0L2.5,-0.5"/>
                </g>
                <g id="arrowLeft" xlink:href="#dirArrow" transform="rotate(270) translate(-36 17)" onmousedown="handlePan(-1,0)">
                  <use xlink:href="#rim" fill="#404040">
                        <set attributeName="fill" to="#808080" begin="arrowLeft.mouseover" end="arrowLeft.mouseout"/>
                  </use>
                  <path fill="none" stroke="white" stroke-width="1.5" d="M0,-3.0v7 M-2.5,-0.5L0,-3.0L2.5,-0.5"/>
                </g>
        </g>
        <svg viewBox="0 0 15 15" width="100%" height="30px" preserveAspectRatio="xMaxYMin meet">
         <g id="arrow_out" transform="scale(0.3 0.3)">
          <a xlink:href="structmom__ice__shelf_1_1ice__shelf__cs__coll__graph_org.svg" target="_base">
           <rect id="button" ry="5" rx="5" y="6" x="6" height="38" width="38"
                fill="#f2f5e9" fill-opacity="0.5" stroke="#606060" stroke-width="1.0"/>
           <path id="arrow"
             d="M 11.500037,31.436501 C 11.940474,20.09759 22.043105,11.32322 32.158766,21.979434 L 37.068811,17.246167 C 37.068811,17.246167 37.088388,32 37.088388,32 L 22.160133,31.978069 C 22.160133,31.978069 26.997745,27.140456 26.997745,27.140456 C 18.528582,18.264221 13.291696,25.230495 11.500037,31.436501 z"
             style="fill:#404040;"/>
          </a>
         </g>
        </svg>
</svg>
