<?xml version="1.0" encoding="UTF-8" standalone="no"?>
<!DOCTYPE svg PUBLIC "-//W3C//DTD SVG 1.1//EN"
 "http://www.w3.org/Graphics/SVG/1.1/DTD/svg11.dtd">
<!-- Generated by graphviz version 2.30.1 (20170916.1124)
 -->
<!-- Title: mom_opacity::opacity_cs Pages: 1 -->
<svg width="324pt" height="366pt"
 viewBox="0.00 0.00 324.00 366.00" xmlns="http://www.w3.org/2000/svg" xmlns:xlink="http://www.w3.org/1999/xlink">
<g id="graph0" class="graph" transform="scale(1 1) rotate(0) translate(4 362)">
<title>mom_opacity::opacity_cs</title>
<polygon fill="white" stroke="white" points="-4,5 -4,-362 321,-362 321,5 -4,5"/>
<!-- Node1 -->
<g id="node1" class="node"><title>Node1</title>
<g id="a_node1"><a xlink:title=" ">
<polygon fill="#bfbfbf" stroke="black" points="210.5,-212.5 210.5,-231.5 315.5,-231.5 315.5,-212.5 210.5,-212.5"/>
<text text-anchor="middle" x="263" y="-219.5" font-family="Helvetica,sans-Serif" font-size="10.00">mom_opacity::opacity_cs</text>
</a>
</g>
</g>
<!-- Node2 -->
<g id="node2" class="node"><title>Node2</title>
<g id="a_node2"><a xlink:title=" ">
<polygon fill="white" stroke="#bfbfbf" points="33,-338.5 33,-357.5 71,-357.5 71,-338.5 33,-338.5"/>
<text text-anchor="middle" x="52" y="-345.5" font-family="Helvetica,sans-Serif" font-size="10.00">logical</text>
</a>
</g>
</g>
<!-- Node2&#45;&gt;Node1 -->
<g id="edge1" class="edge"><title>Node2&#45;&gt;Node1</title>
<path fill="none" stroke="#9a32cd" stroke-dasharray="5,2" d="M81.0438,-343.266C110.572,-337.289 157.478,-324.904 192,-302 221.065,-282.717 245.368,-248.302 256.098,-231.608"/>
<polygon fill="#9a32cd" stroke="#9a32cd" points="80.1709,-339.869 71.0063,-345.185 81.4858,-346.745 80.1709,-339.869"/>
<text text-anchor="middle" x="157" y="-346" font-family="Helvetica,sans-Serif" font-size="10.00"> chl_from_file</text>
<text text-anchor="middle" x="157" y="-335" font-family="Helvetica,sans-Serif" font-size="10.00">var_pen_sw</text>
</g>
<!-- Node3 -->
<g id="node3" class="node"><title>Node3</title>
<g id="a_node3"><a xlink:title=" ">
<polygon fill="white" stroke="#bfbfbf" points="0.5,-289 0.5,-319 103.5,-319 103.5,-289 0.5,-289"/>
<text text-anchor="start" x="8.5" y="-307" font-family="Helvetica,sans-Serif" font-size="10.00">type(tracer_flow_control</text>
<text text-anchor="middle" x="52" y="-296" font-family="Helvetica,sans-Serif" font-size="10.00">_cs), pointer</text>
</a>
</g>
</g>
<!-- Node3&#45;&gt;Node1 -->
<g id="edge2" class="edge"><title>Node3&#45;&gt;Node1</title>
<path fill="none" stroke="#9a32cd" stroke-dasharray="5,2" d="M113.648,-290.217C138.45,-283.645 167.107,-274.829 192,-264 212.664,-255.011 234.662,-240.986 248.366,-231.649"/>
<polygon fill="#9a32cd" stroke="#9a32cd" points="112.442,-286.914 103.636,-292.805 114.194,-293.691 112.442,-286.914"/>
<text text-anchor="middle" x="157" y="-290" font-family="Helvetica,sans-Serif" font-size="10.00"> tracer_flow_csp</text>
</g>
<!-- Node4 -->
<g id="node4" class="node"><title>Node4</title>
<g id="a_node4"><a xlink:title=" ">
<polygon fill="white" stroke="#bfbfbf" points="26.5,-250.5 26.5,-269.5 77.5,-269.5 77.5,-250.5 26.5,-250.5"/>
<text text-anchor="middle" x="52" y="-257.5" font-family="Helvetica,sans-Serif" font-size="10.00">time_type</text>
</a>
</g>
</g>
<!-- Node4&#45;&gt;Node1 -->
<g id="edge3" class="edge"><title>Node4&#45;&gt;Node1</title>
<path fill="none" stroke="#9a32cd" stroke-dasharray="5,2" d="M87.8142,-254.705C115.978,-250.31 156.627,-243.713 192,-237 200.792,-235.332 210.175,-233.415 219.122,-231.522"/>
<polygon fill="#9a32cd" stroke="#9a32cd" points="87.0146,-251.287 77.6686,-256.278 88.0867,-258.205 87.0146,-251.287"/>
<text text-anchor="middle" x="157" y="-252" font-family="Helvetica,sans-Serif" font-size="10.00"> time</text>
</g>
<!-- Node5 -->
<g id="node5" class="node"><title>Node5</title>
<g id="a_node5"><a xlink:title=" ">
<polygon fill="white" stroke="#bfbfbf" points="28.5,-212.5 28.5,-231.5 75.5,-231.5 75.5,-212.5 28.5,-212.5"/>
<text text-anchor="middle" x="52" y="-219.5" font-family="Helvetica,sans-Serif" font-size="10.00">diag_ctrl</text>
</a>
</g>
</g>
<!-- Node5&#45;&gt;Node1 -->
<g id="edge4" class="edge"><title>Node5&#45;&gt;Node1</title>
<path fill="none" stroke="#9a32cd" stroke-dasharray="5,2" d="M85.8961,-222C119.256,-222 171.369,-222 210.263,-222"/>
<polygon fill="#9a32cd" stroke="#9a32cd" points="85.7646,-218.5 75.7645,-222 85.7645,-225.5 85.7646,-218.5"/>
<text text-anchor="middle" x="157" y="-225" font-family="Helvetica,sans-Serif" font-size="10.00"> diag</text>
</g>
<!-- Node6 -->
<g id="node6" class="node"><title>Node6</title>
<g id="a_node6"><a xlink:title=" ">
<polygon fill="white" stroke="#bfbfbf" points="9.5,-174.5 9.5,-193.5 94.5,-193.5 94.5,-174.5 9.5,-174.5"/>
<text text-anchor="middle" x="52" y="-181.5" font-family="Helvetica,sans-Serif" font-size="10.00">character(len=128)</text>
</a>
</g>
</g>
<!-- Node6&#45;&gt;Node1 -->
<g id="edge5" class="edge"><title>Node6&#45;&gt;Node1</title>
<path fill="none" stroke="#9a32cd" stroke-dasharray="5,2" d="M104.84,-191.983C131.022,-196.166 163.254,-201.545 192,-207 200.792,-208.668 210.175,-210.585 219.122,-212.478"/>
<polygon fill="#9a32cd" stroke="#9a32cd" points="105.18,-188.493 94.755,-190.383 104.083,-195.407 105.18,-188.493"/>
<text text-anchor="middle" x="157" y="-210" font-family="Helvetica,sans-Serif" font-size="10.00"> chl_file</text>
</g>
<!-- Node7 -->
<g id="node7" class="node"><title>Node7</title>
<g id="a_node7"><a xlink:title=" ">
<polygon fill="white" stroke="#bfbfbf" points="37,-89.5 37,-108.5 67,-108.5 67,-89.5 37,-89.5"/>
<text text-anchor="middle" x="52" y="-96.5" font-family="Helvetica,sans-Serif" font-size="10.00">real</text>
</a>
</g>
</g>
<!-- Node7&#45;&gt;Node1 -->
<g id="edge6" class="edge"><title>Node7&#45;&gt;Node1</title>
<path fill="none" stroke="#9a32cd" stroke-dasharray="5,2" d="M77.4509,-98.5005C106.863,-99.0156 156.681,-103.545 192,-126 226.117,-147.691 249.025,-192.441 257.889,-212.226"/>
<polygon fill="#9a32cd" stroke="#9a32cd" points="77.2607,-95 67.2505,-98.4706 77.2401,-102 77.2607,-95"/>
<text text-anchor="middle" x="157" y="-184" font-family="Helvetica,sans-Serif" font-size="10.00"> pen_sw_scale</text>
<text text-anchor="middle" x="157" y="-173" font-family="Helvetica,sans-Serif" font-size="10.00">pen_sw_scale_2nd</text>
<text text-anchor="middle" x="157" y="-162" font-family="Helvetica,sans-Serif" font-size="10.00">sw_1st_exp_ratio</text>
<text text-anchor="middle" x="157" y="-151" font-family="Helvetica,sans-Serif" font-size="10.00">blue_frac</text>
<text text-anchor="middle" x="157" y="-140" font-family="Helvetica,sans-Serif" font-size="10.00">pen_sw_frac</text>
<text text-anchor="middle" x="157" y="-129" font-family="Helvetica,sans-Serif" font-size="10.00">opacity_land_value</text>
</g>
<!-- Node8 -->
<g id="node8" class="node"><title>Node8</title>
<g id="a_node8"><a xlink:title=" ">
<polygon fill="white" stroke="#bfbfbf" points="31.5,-0.5 31.5,-19.5 72.5,-19.5 72.5,-0.5 31.5,-0.5"/>
<text text-anchor="middle" x="52" y="-7.5" font-family="Helvetica,sans-Serif" font-size="10.00">integer</text>
</a>
</g>
</g>
<!-- Node8&#45;&gt;Node1 -->
<g id="edge7" class="edge"><title>Node8&#45;&gt;Node1</title>
<path fill="none" stroke="#9a32cd" stroke-dasharray="5,2" d="M82.6413,-6.8466C113.422,-5.24129 161.288,-7.65061 192,-33 249.749,-80.6661 259.864,-180.712 261.629,-212.257"/>
<polygon fill="#9a32cd" stroke="#9a32cd" points="82.2553,-3.3649 72.5225,-7.55082 82.7414,-10.348 82.2553,-3.3649"/>
<text text-anchor="middle" x="157" y="-91" font-family="Helvetica,sans-Serif" font-size="10.00"> id_opacity</text>
<text text-anchor="middle" x="157" y="-80" font-family="Helvetica,sans-Serif" font-size="10.00">sbc_chl</text>
<text text-anchor="middle" x="157" y="-69" font-family="Helvetica,sans-Serif" font-size="10.00">id_chl</text>
<text text-anchor="middle" x="157" y="-58" font-family="Helvetica,sans-Serif" font-size="10.00">id_sw_vis_pen</text>
<text text-anchor="middle" x="157" y="-47" font-family="Helvetica,sans-Serif" font-size="10.00">opacity_scheme</text>
<text text-anchor="middle" x="157" y="-36" font-family="Helvetica,sans-Serif" font-size="10.00">id_sw_pen</text>
</g>
</g>
</svg>
