<?xml version="1.0" encoding="UTF-8" standalone="no"?>
<!DOCTYPE svg PUBLIC "-//W3C//DTD SVG 1.1//EN"
 "http://www.w3.org/Graphics/SVG/1.1/DTD/svg11.dtd">
<!-- Generated by graphviz version 2.30.1 (20170916.1124)
 -->
<!-- Title: boundary_impulse_tracer::boundary_impulse_tracer_cs Pages: 1 -->
<!--zoomable 476 -->
<svg id="main" version="1.1" xmlns="http://www.w3.org/2000/svg" xmlns:xlink="http://www.w3.org/1999/xlink" xml:space="preserve" onload="init(evt)">
<style type="text/css"><![CDATA[
.edge:hover path { stroke: red; }
.edge:hover polygon { stroke: red; fill: red; }
]]></style>
<script type="text/javascript"><![CDATA[
var edges = document.getElementsByTagName('g');
if (edges && edges.length) {
  for (var i=0;i<edges.length;i++) {
    if (edges[i].id.substr(0,4)=='edge') {
      edges[i].setAttribute('class','edge');
    }
  }
}
]]></script>
        <defs>
                <circle id="rim" cx="0" cy="0" r="7"/>
                <circle id="rim2" cx="0" cy="0" r="3.5"/>
                <g id="zoomPlus">
                        <use xlink:href="#rim" fill="#404040">
                                <set attributeName="fill" to="#808080" begin="zoomplus.mouseover" end="zoomplus.mouseout"/>
                        </use>
                        <path d="M-4,0h8M0,-4v8" fill="none" stroke="white" stroke-width="1.5" pointer-events="none"/>
                </g>
                <g id="zoomMin">
                        <use xlink:href="#rim" fill="#404040">
                                <set attributeName="fill" to="#808080" begin="zoomminus.mouseover" end="zoomminus.mouseout"/>
                        </use>
                        <path d="M-4,0h8" fill="none" stroke="white" stroke-width="1.5" pointer-events="none"/>
                </g>
                <g id="dirArrow">
                        <path fill="none" stroke="white" stroke-width="1.5" d="M0,-3.0v7 M-2.5,-0.5L0,-3.0L2.5,-0.5"/>
                </g>
               <g id="resetDef">
                       <use xlink:href="#rim2" fill="#404040">
                               <set attributeName="fill" to="#808080" begin="reset.mouseover" end="reset.mouseout"/>
                       </use>
               </g>
        </defs>

<script type="text/javascript">
var viewWidth = 436;
var viewHeight = 476;
var sectionId = 'dynsection-0';
</script>
<script xlink:href="svgpan.js"/>
<svg id="graph" class="graph">
<g id="viewport">
<title>boundary_impulse_tracer::boundary_impulse_tracer_cs</title>
<polygon fill="white" stroke="white" points="-4,5 -4,-472.461 433,-472.461 433,5 -4,5"/>
<!-- Node1 -->
<g id="node1" class="node"><title>Node1</title>
<g id="a_node1"><a xlink:title=" ">
<polygon fill="#bfbfbf" stroke="black" points="304,-277.461 304,-307.461 428,-307.461 428,-277.461 304,-277.461"/>
<text text-anchor="start" x="312" y="-295.461" font-family="Helvetica,sans-Serif" font-size="10.00">boundary_impulse_tracer</text>
<text text-anchor="middle" x="366" y="-284.461" font-family="Helvetica,sans-Serif" font-size="10.00">::boundary_impulse_tracer_cs</text>
</a>
</g>
</g>
<!-- Node2 -->
<g id="node2" class="node"><title>Node2</title>
<g id="a_node2"><a xlink:title=" ">
<polygon fill="white" stroke="#bfbfbf" points="118,-435.961 118,-454.961 156,-454.961 156,-435.961 118,-435.961"/>
<text text-anchor="middle" x="137" y="-442.961" font-family="Helvetica,sans-Serif" font-size="10.00">logical</text>
</a>
</g>
</g>
<!-- Node2&#45;&gt;Node1 -->
<g id="edge1" class="edge"><title>Node2&#45;&gt;Node1</title>
<path fill="none" stroke="#9a32cd" stroke-dasharray="5,2" d="M166.424,-444.3C198.176,-441.738 249.854,-433.668 286,-408.461 323.374,-382.399 348.3,-332.516 359.022,-307.52"/>
<polygon fill="#9a32cd" stroke="#9a32cd" points="165.825,-440.832 156.082,-444.995 166.294,-447.816 165.825,-440.832"/>
<text text-anchor="middle" x="252" y="-460.461" font-family="Helvetica,sans-Serif" font-size="10.00"> coupled_tracers</text>
<text text-anchor="middle" x="252" y="-449.461" font-family="Helvetica,sans-Serif" font-size="10.00">tracers_may_reinit</text>
<text text-anchor="middle" x="252" y="-438.461" font-family="Helvetica,sans-Serif" font-size="10.00">mask_tracers</text>
</g>
<!-- Node3 -->
<g id="node3" class="node"><title>Node3</title>
<g id="a_node3"><a xlink:title=" ">
<polygon fill="white" stroke="#bfbfbf" points="111.5,-397.961 111.5,-416.961 162.5,-416.961 162.5,-397.961 111.5,-397.961"/>
<text text-anchor="middle" x="137" y="-404.961" font-family="Helvetica,sans-Serif" font-size="10.00">time_type</text>
</a>
</g>
</g>
<!-- Node3&#45;&gt;Node1 -->
<g id="edge2" class="edge"><title>Node3&#45;&gt;Node1</title>
<path fill="none" stroke="#9a32cd" stroke-dasharray="5,2" d="M172.751,-403.709C204.012,-399.171 250.366,-389.485 286,-369.461 314.218,-353.605 339.608,-325.127 353.606,-307.602"/>
<polygon fill="#9a32cd" stroke="#9a32cd" points="172.207,-400.251 162.766,-405.059 173.144,-407.188 172.207,-400.251"/>
<text text-anchor="middle" x="252" y="-396.461" font-family="Helvetica,sans-Serif" font-size="10.00"> time</text>
</g>
<!-- Node4 -->
<g id="node4" class="node"><title>Node4</title>
<g id="a_node4"><a xlink:title=" ">
<polygon fill="white" stroke="#bfbfbf" points="93,-359.961 93,-378.961 181,-378.961 181,-359.961 93,-359.961"/>
<text text-anchor="middle" x="137" y="-366.961" font-family="Helvetica,sans-Serif" font-size="10.00">tracer_registry_type</text>
</a>
</g>
</g>
<!-- Node4&#45;&gt;Node1 -->
<g id="edge3" class="edge"><title>Node4&#45;&gt;Node1</title>
<path fill="none" stroke="#9a32cd" stroke-dasharray="5,2" d="M191.053,-359.783C219.675,-353.762 255.323,-344.961 286,-333.461 304.665,-326.464 324.579,-316.108 339.744,-307.555"/>
<polygon fill="#9a32cd" stroke="#9a32cd" points="190.333,-356.357 181.241,-361.796 191.741,-363.214 190.333,-356.357"/>
<text text-anchor="middle" x="252" y="-357.461" font-family="Helvetica,sans-Serif" font-size="10.00"> tr_reg</text>
</g>
<!-- Node5 -->
<g id="node5" class="node"><title>Node5</title>
<g id="a_node5"><a xlink:title=" ">
<polygon fill="white" stroke="#bfbfbf" points="115,-321.961 115,-340.961 159,-340.961 159,-321.961 115,-321.961"/>
<text text-anchor="middle" x="137" y="-328.961" font-family="Helvetica,sans-Serif" font-size="10.00">vardesc</text>
</a>
</g>
</g>
<!-- Node5&#45;&gt;Node1 -->
<g id="edge4" class="edge"><title>Node5&#45;&gt;Node1</title>
<path fill="none" stroke="#9a32cd" stroke-dasharray="5,2" d="M169.339,-326.243C199.304,-321.235 245.752,-313.427 286,-306.461 291.764,-305.464 297.764,-304.416 303.766,-303.363"/>
<polygon fill="#9a32cd" stroke="#9a32cd" points="168.374,-322.855 159.087,-327.954 169.526,-329.76 168.374,-322.855"/>
<text text-anchor="middle" x="252" y="-321.461" font-family="Helvetica,sans-Serif" font-size="10.00"> tr_desc</text>
</g>
<!-- Node6 -->
<g id="node6" class="node"><title>Node6</title>
<g id="a_node6"><a xlink:title=" ">
<polygon fill="white" stroke="#bfbfbf" points="89.5,-272.461 89.5,-302.461 184.5,-302.461 184.5,-272.461 89.5,-272.461"/>
<text text-anchor="start" x="97.5" y="-290.461" font-family="Helvetica,sans-Serif" font-size="10.00">type(mom_restart_cs)</text>
<text text-anchor="middle" x="137" y="-279.461" font-family="Helvetica,sans-Serif" font-size="10.00">, pointer</text>
</a>
</g>
</g>
<!-- Node6&#45;&gt;Node1 -->
<g id="edge5" class="edge"><title>Node6&#45;&gt;Node1</title>
<path fill="none" stroke="#9a32cd" stroke-dasharray="5,2" d="M195.178,-288.721C228.255,-289.449 269.882,-290.366 303.644,-291.11"/>
<polygon fill="#9a32cd" stroke="#9a32cd" points="194.834,-285.212 184.759,-288.491 194.68,-292.211 194.834,-285.212"/>
<text text-anchor="middle" x="252" y="-294.461" font-family="Helvetica,sans-Serif" font-size="10.00"> restart_csp</text>
</g>
<!-- Node7 -->
<g id="node7" class="node"><title>Node7</title>
<g id="a_node7"><a xlink:href="structboundary__impulse__tracer_1_1p3d.html" target="_top" xlink:title=" ">
<polygon fill="white" stroke="black" points="74.5,-233.961 74.5,-252.961 199.5,-252.961 199.5,-233.961 74.5,-233.961"/>
<text text-anchor="middle" x="137" y="-240.961" font-family="Helvetica,sans-Serif" font-size="10.00">boundary_impulse_tracer::p3d</text>
</a>
</g>
</g>
<!-- Node7&#45;&gt;Node1 -->
<g id="edge6" class="edge"><title>Node7&#45;&gt;Node1</title>
<path fill="none" stroke="#9a32cd" stroke-dasharray="5,2" d="M209.607,-233.994C234.25,-232.954 261.737,-234.31 286,-241.461 309.645,-248.43 332.882,-264.922 347.965,-277.278"/>
<polygon fill="#9a32cd" stroke="#9a32cd" points="209.388,-230.5 199.598,-234.551 209.778,-237.49 209.388,-230.5"/>
<text text-anchor="middle" x="252" y="-277.461" font-family="Helvetica,sans-Serif" font-size="10.00"> tr_adx</text>
<text text-anchor="middle" x="252" y="-266.461" font-family="Helvetica,sans-Serif" font-size="10.00">tr_dfx</text>
<text text-anchor="middle" x="252" y="-255.461" font-family="Helvetica,sans-Serif" font-size="10.00">tr_ady</text>
<text text-anchor="middle" x="252" y="-244.461" font-family="Helvetica,sans-Serif" font-size="10.00">tr_dfy</text>
</g>
<!-- Node8 -->
<g id="node8" class="node"><title>Node8</title>
<g id="a_node8"><a xlink:title=" ">
<polygon fill="white" stroke="#bfbfbf" points="0,-179.961 0,-198.961 30,-198.961 30,-179.961 0,-179.961"/>
<text text-anchor="middle" x="15" y="-186.961" font-family="Helvetica,sans-Serif" font-size="10.00">real</text>
</a>
</g>
</g>
<!-- Node8&#45;&gt;Node7 -->
<g id="edge7" class="edge"><title>Node8&#45;&gt;Node7</title>
<path fill="none" stroke="#9a32cd" stroke-dasharray="5,2" d="M39.0541,-202.113C49.581,-207.701 62.2881,-214.184 74,-219.461 85.4704,-224.63 98.413,-229.748 109.495,-233.921"/>
<polygon fill="#9a32cd" stroke="#9a32cd" points="40.5559,-198.947 30.0907,-197.294 37.2409,-205.112 40.5559,-198.947"/>
<text text-anchor="middle" x="52" y="-213.461" font-family="Helvetica,sans-Serif" font-size="10.00"> p</text>
</g>
<!-- Node8&#45;&gt;Node1 -->
<g id="edge9" class="edge"><title>Node8&#45;&gt;Node1</title>
<path fill="none" stroke="#9a32cd" stroke-dasharray="5,2" d="M39.9423,-179.202C50.2232,-175.326 62.4972,-171.389 74,-169.461 129.23,-160.206 146.643,-152.459 200,-169.461 265.362,-190.288 325.494,-249.062 351.474,-277.148"/>
<polygon fill="#9a32cd" stroke="#9a32cd" points="38.4303,-176.037 30.428,-182.98 41.0138,-182.542 38.4303,-176.037"/>
<text text-anchor="middle" x="137" y="-216.461" font-family="Helvetica,sans-Serif" font-size="10.00"> kw_eff</text>
<text text-anchor="middle" x="137" y="-205.461" font-family="Helvetica,sans-Serif" font-size="10.00">land_val</text>
<text text-anchor="middle" x="137" y="-194.461" font-family="Helvetica,sans-Serif" font-size="10.00">tr</text>
<text text-anchor="start" x="105" y="-183.461" font-family="Helvetica,sans-Serif" font-size="10.00">remaining_source</text>
<text text-anchor="middle" x="137" y="-172.461" font-family="Helvetica,sans-Serif" font-size="10.00">_time</text>
</g>
<!-- Node9 -->
<g id="node9" class="node"><title>Node9</title>
<g id="a_node9"><a xlink:title=" ">
<polygon fill="white" stroke="#bfbfbf" points="113.5,-104.961 113.5,-123.961 160.5,-123.961 160.5,-104.961 113.5,-104.961"/>
<text text-anchor="middle" x="137" y="-111.961" font-family="Helvetica,sans-Serif" font-size="10.00">diag_ctrl</text>
</a>
</g>
</g>
<!-- Node9&#45;&gt;Node1 -->
<g id="edge8" class="edge"><title>Node9&#45;&gt;Node1</title>
<path fill="none" stroke="#9a32cd" stroke-dasharray="5,2" d="M170.919,-110.87C203.217,-109.107 252.384,-111.321 286,-135.461 335.074,-170.701 355.495,-245.348 362.229,-277.363"/>
<polygon fill="#9a32cd" stroke="#9a32cd" points="170.388,-107.399 160.659,-111.595 170.881,-114.382 170.388,-107.399"/>
<text text-anchor="middle" x="252" y="-138.461" font-family="Helvetica,sans-Serif" font-size="10.00"> diag</text>
</g>
<!-- Node10 -->
<g id="node10" class="node"><title>Node10</title>
<g id="a_node10"><a xlink:title=" ">
<polygon fill="white" stroke="#bfbfbf" points="116.5,-3.96119 116.5,-22.9612 157.5,-22.9612 157.5,-3.96119 116.5,-3.96119"/>
<text text-anchor="middle" x="137" y="-10.9612" font-family="Helvetica,sans-Serif" font-size="10.00">integer</text>
</a>
</g>
</g>
<!-- Node10&#45;&gt;Node1 -->
<g id="edge10" class="edge"><title>Node10&#45;&gt;Node1</title>
<path fill="none" stroke="#9a32cd" stroke-dasharray="5,2" d="M167.564,-5.64881C200.174,1.07035 252.463,5.98303 286,-20.4612 327.799,-53.4204 355.401,-225.17 362.923,-277.387"/>
<polygon fill="#9a32cd" stroke="#9a32cd" points="166.708,-2.25364 157.716,-7.85637 168.24,-9.08412 166.708,-2.25364"/>
<text text-anchor="middle" x="252" y="-100.461" font-family="Helvetica,sans-Serif" font-size="10.00"> id_tracer</text>
<text text-anchor="middle" x="252" y="-89.4612" font-family="Helvetica,sans-Serif" font-size="10.00">id_tr_dfx</text>
<text text-anchor="middle" x="252" y="-78.4612" font-family="Helvetica,sans-Serif" font-size="10.00">ntr</text>
<text text-anchor="middle" x="252" y="-67.4612" font-family="Helvetica,sans-Serif" font-size="10.00">id_tr_dfy</text>
<text text-anchor="middle" x="252" y="-56.4612" font-family="Helvetica,sans-Serif" font-size="10.00">nkml</text>
<text text-anchor="middle" x="252" y="-45.4612" font-family="Helvetica,sans-Serif" font-size="10.00">id_tr_adx</text>
<text text-anchor="middle" x="252" y="-34.4612" font-family="Helvetica,sans-Serif" font-size="10.00">ind_tr</text>
<text text-anchor="middle" x="252" y="-23.4612" font-family="Helvetica,sans-Serif" font-size="10.00">id_tr_ady</text>
</g>
</g>
</svg>
        <g id="navigator" transform="translate(0 0)" fill="#404254">
                <rect fill="#f2f5e9" fill-opacity="0.5" stroke="#606060" stroke-width=".5" x="0" y="0" width="60" height="60"/>
                <use id="zoomplus" xlink:href="#zoomPlus" x="17" y="9" onmousedown="handleZoom(evt,'in')"/>
                <use id="zoomminus" xlink:href="#zoomMin" x="42" y="9" onmousedown="handleZoom(evt,'out')"/>
                <use id="reset" xlink:href="#resetDef" x="30" y="36" onmousedown="handleReset()"/>
                <g id="arrowUp" xlink:href="#dirArrow" transform="translate(30 24)" onmousedown="handlePan(0,-1)">
                  <use xlink:href="#rim" fill="#404040">
                        <set attributeName="fill" to="#808080" begin="arrowUp.mouseover" end="arrowUp.mouseout"/>
                  </use>
                  <path fill="none" stroke="white" stroke-width="1.5" d="M0,-3.0v7 M-2.5,-0.5L0,-3.0L2.5,-0.5"/>
                </g>
                <g id="arrowRight" xlink:href="#dirArrow" transform="rotate(90) translate(36 -43)" onmousedown="handlePan(1,0)">
                  <use xlink:href="#rim" fill="#404040">
                        <set attributeName="fill" to="#808080" begin="arrowRight.mouseover" end="arrowRight.mouseout"/>
                  </use>
                  <path fill="none" stroke="white" stroke-width="1.5" d="M0,-3.0v7 M-2.5,-0.5L0,-3.0L2.5,-0.5"/>
                </g>
                <g id="arrowDown" xlink:href="#dirArrow" transform="rotate(180) translate(-30 -48)" onmousedown="handlePan(0,1)">
                  <use xlink:href="#rim" fill="#404040">
                        <set attributeName="fill" to="#808080" begin="arrowDown.mouseover" end="arrowDown.mouseout"/>
                  </use>
                  <path fill="none" stroke="white" stroke-width="1.5" d="M0,-3.0v7 M-2.5,-0.5L0,-3.0L2.5,-0.5"/>
                </g>
                <g id="arrowLeft" xlink:href="#dirArrow" transform="rotate(270) translate(-36 17)" onmousedown="handlePan(-1,0)">
                  <use xlink:href="#rim" fill="#404040">
                        <set attributeName="fill" to="#808080" begin="arrowLeft.mouseover" end="arrowLeft.mouseout"/>
                  </use>
                  <path fill="none" stroke="white" stroke-width="1.5" d="M0,-3.0v7 M-2.5,-0.5L0,-3.0L2.5,-0.5"/>
                </g>
        </g>
        <svg viewBox="0 0 15 15" width="100%" height="30px" preserveAspectRatio="xMaxYMin meet">
         <g id="arrow_out" transform="scale(0.3 0.3)">
          <a xlink:href="structboundary__impulse__tracer_1_1boundary__impulse__tracer__cs__coll__graph_org.svg" target="_base">
           <rect id="button" ry="5" rx="5" y="6" x="6" height="38" width="38"
                fill="#f2f5e9" fill-opacity="0.5" stroke="#606060" stroke-width="1.0"/>
           <path id="arrow"
             d="M 11.500037,31.436501 C 11.940474,20.09759 22.043105,11.32322 32.158766,21.979434 L 37.068811,17.246167 C 37.068811,17.246167 37.088388,32 37.088388,32 L 22.160133,31.978069 C 22.160133,31.978069 26.997745,27.140456 26.997745,27.140456 C 18.528582,18.264221 13.291696,25.230495 11.500037,31.436501 z"
             style="fill:#404040;"/>
          </a>
         </g>
        </svg>
</svg>
