<?xml version="1.0" encoding="UTF-8" standalone="no"?>
<!DOCTYPE svg PUBLIC "-//W3C//DTD SVG 1.1//EN"
 "http://www.w3.org/Graphics/SVG/1.1/DTD/svg11.dtd">
<!-- Generated by graphviz version 2.30.1 (20170916.1124)
 -->
<!-- Title: user_shelf_init::user_ice_shelf_cs Pages: 1 -->
<svg width="118pt" height="174pt"
 viewBox="0.00 0.00 118.00 174.00" xmlns="http://www.w3.org/2000/svg" xmlns:xlink="http://www.w3.org/1999/xlink">
<g id="graph0" class="graph" transform="scale(1 1) rotate(0) translate(4 170)">
<title>user_shelf_init::user_ice_shelf_cs</title>
<polygon fill="white" stroke="white" points="-4,5 -4,-170 115,-170 115,5 -4,5"/>
<!-- Node1 -->
<g id="node1" class="node"><title>Node1</title>
<g id="a_node1"><a xlink:title=" ">
<polygon fill="#bfbfbf" stroke="black" points="0,-1 0,-31 88,-31 88,-1 0,-1"/>
<text text-anchor="start" x="8" y="-19" font-family="Helvetica,sans-Serif" font-size="10.00">user_shelf_init::user</text>
<text text-anchor="middle" x="44" y="-8" font-family="Helvetica,sans-Serif" font-size="10.00">_ice_shelf_cs</text>
</a>
</g>
</g>
<!-- Node2 -->
<g id="node2" class="node"><title>Node2</title>
<g id="a_node2"><a xlink:title=" ">
<polygon fill="white" stroke="#bfbfbf" points="29,-146.5 29,-165.5 59,-165.5 59,-146.5 29,-146.5"/>
<text text-anchor="middle" x="44" y="-153.5" font-family="Helvetica,sans-Serif" font-size="10.00">real</text>
</a>
</g>
</g>
<!-- Node2&#45;&gt;Node1 -->
<g id="edge1" class="edge"><title>Node2&#45;&gt;Node1</title>
<path fill="none" stroke="#9a32cd" stroke-dasharray="5,2" d="M44,-136.321C44,-108.361 44,-56.239 44,-31.1762"/>
<polygon fill="#9a32cd" stroke="#9a32cd" points="40.5001,-136.367 44,-146.367 47.5001,-136.368 40.5001,-136.367"/>
<text text-anchor="middle" x="77" y="-119.5" font-family="Helvetica,sans-Serif" font-size="10.00"> shelf_slope_scale</text>
<text text-anchor="middle" x="77" y="-108.5" font-family="Helvetica,sans-Serif" font-size="10.00">pos_shelf_edge_0</text>
<text text-anchor="middle" x="77" y="-97.5" font-family="Helvetica,sans-Serif" font-size="10.00">flat_shelf_width</text>
<text text-anchor="middle" x="77" y="-86.5" font-family="Helvetica,sans-Serif" font-size="10.00">min_draft</text>
<text text-anchor="middle" x="77" y="-75.5" font-family="Helvetica,sans-Serif" font-size="10.00">shelf_speed</text>
<text text-anchor="middle" x="77" y="-64.5" font-family="Helvetica,sans-Serif" font-size="10.00">max_draft</text>
<text text-anchor="middle" x="77" y="-53.5" font-family="Helvetica,sans-Serif" font-size="10.00">rho_ocean</text>
</g>
</g>
</svg>
