<?xml version="1.0" encoding="UTF-8" standalone="no"?>
<!DOCTYPE svg PUBLIC "-//W3C//DTD SVG 1.1//EN"
 "http://www.w3.org/Graphics/SVG/1.1/DTD/svg11.dtd">
<!-- Generated by graphviz version 2.30.1 (20170916.1124)
 -->
<!-- Title: mom_int_tide_input::int_tide_input_cs Pages: 1 -->
<svg width="357pt" height="130pt"
 viewBox="0.00 0.00 357.00 130.00" xmlns="http://www.w3.org/2000/svg" xmlns:xlink="http://www.w3.org/1999/xlink">
<g id="graph0" class="graph" transform="scale(1 1) rotate(0) translate(4 126)">
<title>mom_int_tide_input::int_tide_input_cs</title>
<polygon fill="white" stroke="white" points="-4,5 -4,-126 354,-126 354,5 -4,5"/>
<!-- Node1 -->
<g id="node1" class="node"><title>Node1</title>
<g id="a_node1"><a xlink:title=" ">
<polygon fill="#bfbfbf" stroke="black" points="140,-1 140,-31 226,-31 226,-1 140,-1"/>
<text text-anchor="start" x="148" y="-19" font-family="Helvetica,sans-Serif" font-size="10.00">mom_int_tide_input</text>
<text text-anchor="middle" x="183" y="-8" font-family="Helvetica,sans-Serif" font-size="10.00">::int_tide_input_cs</text>
</a>
</g>
</g>
<!-- Node2 -->
<g id="node2" class="node"><title>Node2</title>
<g id="a_node2"><a xlink:title=" ">
<polygon fill="white" stroke="#bfbfbf" points="0,-102.5 0,-121.5 38,-121.5 38,-102.5 0,-102.5"/>
<text text-anchor="middle" x="19" y="-109.5" font-family="Helvetica,sans-Serif" font-size="10.00">logical</text>
</a>
</g>
</g>
<!-- Node2&#45;&gt;Node1 -->
<g id="edge1" class="edge"><title>Node2&#45;&gt;Node1</title>
<path fill="none" stroke="#9a32cd" stroke-dasharray="5,2" d="M34.8051,-95.2455C49.0316,-81.7647 71.0229,-62.5955 93,-50 107.439,-41.7247 124.33,-34.8791 139.555,-29.6089"/>
<polygon fill="#9a32cd" stroke="#9a32cd" points="32.1327,-92.9613 27.3848,-102.433 37.0028,-97.9894 32.1327,-92.9613"/>
<text text-anchor="middle" x="105.5" y="-64.5" font-family="Helvetica,sans-Serif" font-size="10.00"> debug</text>
</g>
<!-- Node3 -->
<g id="node3" class="node"><title>Node3</title>
<g id="a_node3"><a xlink:title=" ">
<polygon fill="white" stroke="#bfbfbf" points="56.5,-102.5 56.5,-121.5 141.5,-121.5 141.5,-102.5 56.5,-102.5"/>
<text text-anchor="middle" x="99" y="-109.5" font-family="Helvetica,sans-Serif" font-size="10.00">character(len=200)</text>
</a>
</g>
</g>
<!-- Node3&#45;&gt;Node1 -->
<g id="edge2" class="edge"><title>Node3&#45;&gt;Node1</title>
<path fill="none" stroke="#9a32cd" stroke-dasharray="5,2" d="M112.542,-93.9899C122.601,-81.5593 136.805,-64.4255 150,-50 155.797,-43.6628 162.451,-36.9158 168.258,-31.1849"/>
<polygon fill="#9a32cd" stroke="#9a32cd" points="109.558,-92.1159 106.025,-102.104 115.016,-96.4996 109.558,-92.1159"/>
<text text-anchor="middle" x="164.5" y="-64.5" font-family="Helvetica,sans-Serif" font-size="10.00"> inputdir</text>
</g>
<!-- Node4 -->
<g id="node4" class="node"><title>Node4</title>
<g id="a_node4"><a xlink:title=" ">
<polygon fill="white" stroke="#bfbfbf" points="159.5,-102.5 159.5,-121.5 206.5,-121.5 206.5,-102.5 159.5,-102.5"/>
<text text-anchor="middle" x="183" y="-109.5" font-family="Helvetica,sans-Serif" font-size="10.00">diag_ctrl</text>
</a>
</g>
</g>
<!-- Node4&#45;&gt;Node1 -->
<g id="edge3" class="edge"><title>Node4&#45;&gt;Node1</title>
<path fill="none" stroke="#9a32cd" stroke-dasharray="5,2" d="M183,-92.1742C183,-74.1467 183,-47.3541 183,-31.0982"/>
<polygon fill="#9a32cd" stroke="#9a32cd" points="179.5,-92.3252 183,-102.325 186.5,-92.3252 179.5,-92.3252"/>
<text text-anchor="middle" x="192" y="-64.5" font-family="Helvetica,sans-Serif" font-size="10.00"> diag</text>
</g>
<!-- Node5 -->
<g id="node5" class="node"><title>Node5</title>
<g id="a_node5"><a xlink:title=" ">
<polygon fill="white" stroke="#bfbfbf" points="224.5,-102.5 224.5,-121.5 265.5,-121.5 265.5,-102.5 224.5,-102.5"/>
<text text-anchor="middle" x="245" y="-109.5" font-family="Helvetica,sans-Serif" font-size="10.00">integer</text>
</a>
</g>
</g>
<!-- Node5&#45;&gt;Node1 -->
<g id="edge4" class="edge"><title>Node5&#45;&gt;Node1</title>
<path fill="none" stroke="#9a32cd" stroke-dasharray="5,2" d="M233.634,-93.5903C225.647,-81.3754 214.7,-64.6705 205,-50 200.899,-43.7969 196.342,-36.9543 192.445,-31.1159"/>
<polygon fill="#9a32cd" stroke="#9a32cd" points="230.924,-95.8419 239.324,-102.299 236.784,-92.0131 230.924,-95.8419"/>
<text text-anchor="middle" x="248" y="-75.5" font-family="Helvetica,sans-Serif" font-size="10.00"> id_nb</text>
<text text-anchor="middle" x="248" y="-64.5" font-family="Helvetica,sans-Serif" font-size="10.00">id_tke_itidal</text>
<text text-anchor="middle" x="248" y="-53.5" font-family="Helvetica,sans-Serif" font-size="10.00">id_n2_bot</text>
</g>
<!-- Node6 -->
<g id="node6" class="node"><title>Node6</title>
<g id="a_node6"><a xlink:title=" ">
<polygon fill="white" stroke="#bfbfbf" points="289,-102.5 289,-121.5 319,-121.5 319,-102.5 289,-102.5"/>
<text text-anchor="middle" x="304" y="-109.5" font-family="Helvetica,sans-Serif" font-size="10.00">real</text>
</a>
</g>
</g>
<!-- Node6&#45;&gt;Node1 -->
<g id="edge5" class="edge"><title>Node6&#45;&gt;Node1</title>
<path fill="none" stroke="#9a32cd" stroke-dasharray="5,2" d="M298.698,-92.6006C293.957,-79.1412 285.758,-61.3261 273,-50 259.932,-38.3987 242.444,-30.7626 226.359,-25.7906"/>
<polygon fill="#9a32cd" stroke="#9a32cd" points="295.404,-93.7918 301.78,-102.254 302.073,-91.6631 295.404,-93.7918"/>
<text text-anchor="middle" x="322.5" y="-70" font-family="Helvetica,sans-Serif" font-size="10.00"> tke_itidal_coef</text>
<text text-anchor="middle" x="322.5" y="-59" font-family="Helvetica,sans-Serif" font-size="10.00">tke_itide_max</text>
</g>
</g>
</svg>
