<?xml version="1.0" encoding="UTF-8" standalone="no"?>
<!DOCTYPE svg PUBLIC "-//W3C//DTD SVG 1.1//EN"
 "http://www.w3.org/Graphics/SVG/1.1/DTD/svg11.dtd">
<!-- Generated by graphviz version 2.30.1 (20170916.1124)
 -->
<!-- Title: mom_diapyc_energy_req::diapyc_energy_req_cs Pages: 1 -->
<svg width="283pt" height="218pt"
 viewBox="0.00 0.00 283.00 218.00" xmlns="http://www.w3.org/2000/svg" xmlns:xlink="http://www.w3.org/1999/xlink">
<g id="graph0" class="graph" transform="scale(1 1) rotate(0) translate(4 214)">
<title>mom_diapyc_energy_req::diapyc_energy_req_cs</title>
<polygon fill="white" stroke="white" points="-4,5 -4,-214 280,-214 280,5 -4,5"/>
<!-- Node1 -->
<g id="node1" class="node"><title>Node1</title>
<g id="a_node1"><a xlink:title=" ">
<polygon fill="#bfbfbf" stroke="black" points="85.5,-1 85.5,-31 192.5,-31 192.5,-1 85.5,-1"/>
<text text-anchor="start" x="93.5" y="-19" font-family="Helvetica,sans-Serif" font-size="10.00">mom_diapyc_energy_req</text>
<text text-anchor="middle" x="139" y="-8" font-family="Helvetica,sans-Serif" font-size="10.00">::diapyc_energy_req_cs</text>
</a>
</g>
</g>
<!-- Node2 -->
<g id="node2" class="node"><title>Node2</title>
<g id="a_node2"><a xlink:title=" ">
<polygon fill="white" stroke="#bfbfbf" points="0,-190.5 0,-209.5 38,-209.5 38,-190.5 0,-190.5"/>
<text text-anchor="middle" x="19" y="-197.5" font-family="Helvetica,sans-Serif" font-size="10.00">logical</text>
</a>
</g>
</g>
<!-- Node2&#45;&gt;Node1 -->
<g id="edge1" class="edge"><title>Node2&#45;&gt;Node1</title>
<path fill="none" stroke="#9a32cd" stroke-dasharray="5,2" d="M14.045,-180.649C6.9563,-149.984 -2.13973,-87.9591 28,-50 41.7517,-32.6807 64.1796,-24.1523 85.2886,-20.0578"/>
<polygon fill="#9a32cd" stroke="#9a32cd" points="10.6681,-181.572 16.4894,-190.425 17.4591,-179.874 10.6681,-181.572"/>
<text text-anchor="middle" x="64" y="-114" font-family="Helvetica,sans-Serif" font-size="10.00"> use_test_kh_profile</text>
<text text-anchor="middle" x="64" y="-103" font-family="Helvetica,sans-Serif" font-size="10.00">initialized</text>
</g>
<!-- Node3 -->
<g id="node3" class="node"><title>Node3</title>
<g id="a_node3"><a xlink:title=" ">
<polygon fill="white" stroke="#bfbfbf" points="79.5,-190.5 79.5,-209.5 126.5,-209.5 126.5,-190.5 79.5,-190.5"/>
<text text-anchor="middle" x="103" y="-197.5" font-family="Helvetica,sans-Serif" font-size="10.00">diag_ctrl</text>
</a>
</g>
</g>
<!-- Node3&#45;&gt;Node1 -->
<g id="edge2" class="edge"><title>Node3&#45;&gt;Node1</title>
<path fill="none" stroke="#9a32cd" stroke-dasharray="5,2" d="M103.316,-180.178C104.258,-151.471 107.922,-95.307 122,-50 123.989,-43.5994 127.167,-36.953 130.241,-31.3168"/>
<polygon fill="#9a32cd" stroke="#9a32cd" points="99.8118,-180.295 103.061,-190.379 106.81,-180.469 99.8118,-180.295"/>
<text text-anchor="middle" x="131" y="-108.5" font-family="Helvetica,sans-Serif" font-size="10.00"> diag</text>
</g>
<!-- Node4 -->
<g id="node4" class="node"><title>Node4</title>
<g id="a_node4"><a xlink:title=" ">
<polygon fill="white" stroke="#bfbfbf" points="144.5,-190.5 144.5,-209.5 185.5,-209.5 185.5,-190.5 144.5,-190.5"/>
<text text-anchor="middle" x="165" y="-197.5" font-family="Helvetica,sans-Serif" font-size="10.00">integer</text>
</a>
</g>
</g>
<!-- Node4&#45;&gt;Node1 -->
<g id="edge3" class="edge"><title>Node4&#45;&gt;Node1</title>
<path fill="none" stroke="#9a32cd" stroke-dasharray="5,2" d="M162.276,-179.933C157.035,-143.242 145.654,-63.578 141.022,-31.1558"/>
<polygon fill="#9a32cd" stroke="#9a32cd" points="158.867,-180.817 163.746,-190.222 165.796,-179.827 158.867,-180.817"/>
<text text-anchor="middle" x="175" y="-163.5" font-family="Helvetica,sans-Serif" font-size="10.00"> id_tf</text>
<text text-anchor="middle" x="175" y="-152.5" font-family="Helvetica,sans-Serif" font-size="10.00">id_sf</text>
<text text-anchor="middle" x="175" y="-141.5" font-family="Helvetica,sans-Serif" font-size="10.00">id_chcb</text>
<text text-anchor="middle" x="175" y="-130.5" font-family="Helvetica,sans-Serif" font-size="10.00">id_erb</text>
<text text-anchor="middle" x="175" y="-119.5" font-family="Helvetica,sans-Serif" font-size="10.00">id_chcc</text>
<text text-anchor="middle" x="175" y="-108.5" font-family="Helvetica,sans-Serif" font-size="10.00">id_erc</text>
<text text-anchor="middle" x="175" y="-97.5" font-family="Helvetica,sans-Serif" font-size="10.00">id_ert</text>
<text text-anchor="middle" x="175" y="-86.5" font-family="Helvetica,sans-Serif" font-size="10.00">id_h</text>
<text text-anchor="middle" x="175" y="-75.5" font-family="Helvetica,sans-Serif" font-size="10.00">id_n2_f</text>
<text text-anchor="middle" x="175" y="-64.5" font-family="Helvetica,sans-Serif" font-size="10.00">id_chct</text>
<text text-anchor="middle" x="175" y="-53.5" font-family="Helvetica,sans-Serif" font-size="10.00">...</text>
</g>
<!-- Node5 -->
<g id="node5" class="node"><title>Node5</title>
<g id="a_node5"><a xlink:title=" ">
<polygon fill="white" stroke="#bfbfbf" points="204,-190.5 204,-209.5 234,-209.5 234,-190.5 204,-190.5"/>
<text text-anchor="middle" x="219" y="-197.5" font-family="Helvetica,sans-Serif" font-size="10.00">real</text>
</a>
</g>
</g>
<!-- Node5&#45;&gt;Node1 -->
<g id="edge4" class="edge"><title>Node5&#45;&gt;Node1</title>
<path fill="none" stroke="#9a32cd" stroke-dasharray="5,2" d="M220.427,-180.001C221.73,-149.771 220.257,-90.0555 193,-50 187.746,-42.2791 180.028,-36.0473 172.061,-31.1669"/>
<polygon fill="#9a32cd" stroke="#9a32cd" points="216.91,-180.176 219.815,-190.365 223.898,-180.589 216.91,-180.176"/>
<text text-anchor="middle" x="247.5" y="-114" font-family="Helvetica,sans-Serif" font-size="10.00"> colht_scaling</text>
<text text-anchor="middle" x="247.5" y="-103" font-family="Helvetica,sans-Serif" font-size="10.00">test_kh_scaling</text>
</g>
</g>
</svg>
