<?xml version="1.0" encoding="UTF-8" standalone="no"?>
<!DOCTYPE svg PUBLIC "-//W3C//DTD SVG 1.1//EN"
 "http://www.w3.org/Graphics/SVG/1.1/DTD/svg11.dtd">
<!-- Generated by graphviz version 2.30.1 (20170916.1124)
 -->
<!-- Title: mom_forcing_type::forcing Pages: 1 -->
<svg width="332pt" height="286pt"
 viewBox="0.00 0.00 332.00 286.00" xmlns="http://www.w3.org/2000/svg" xmlns:xlink="http://www.w3.org/1999/xlink">
<g id="graph0" class="graph" transform="scale(1 1) rotate(0) translate(4 282)">
<title>mom_forcing_type::forcing</title>
<polygon fill="white" stroke="white" points="-4,5 -4,-282 329,-282 329,5 -4,5"/>
<!-- Node1 -->
<g id="node1" class="node"><title>Node1</title>
<g id="a_node1"><a xlink:title="Structure that contains pointers to the boundary forcing used to drive the liquid ocean simulated by ...">
<polygon fill="#bfbfbf" stroke="black" points="104.5,-0.5 104.5,-19.5 215.5,-19.5 215.5,-0.5 104.5,-0.5"/>
<text text-anchor="middle" x="160" y="-7.5" font-family="Helvetica,sans-Serif" font-size="10.00">mom_forcing_type::forcing</text>
</a>
</g>
</g>
<!-- Node2 -->
<g id="node2" class="node"><title>Node2</title>
<g id="a_node2"><a xlink:title=" ">
<polygon fill="white" stroke="#bfbfbf" points="0,-184.5 0,-203.5 38,-203.5 38,-184.5 0,-184.5"/>
<text text-anchor="middle" x="19" y="-191.5" font-family="Helvetica,sans-Serif" font-size="10.00">logical</text>
</a>
</g>
</g>
<!-- Node2&#45;&gt;Node1 -->
<g id="edge1" class="edge"><title>Node2&#45;&gt;Node1</title>
<path fill="none" stroke="#9a32cd" stroke-dasharray="5,2" d="M17.7359,-173.821C16.7031,-141.267 19.601,-75.1225 56,-38 68.7335,-25.0134 86.8532,-18.0024 104.409,-14.2992"/>
<polygon fill="#9a32cd" stroke="#9a32cd" points="14.2579,-174.361 18.2394,-184.179 21.2496,-174.021 14.2579,-174.361"/>
<text text-anchor="middle" x="78.5" y="-96.5" font-family="Helvetica,sans-Serif" font-size="10.00"> fluxes_used</text>
</g>
<!-- Node3 -->
<g id="node3" class="node"><title>Node3</title>
<g id="a_node3"><a xlink:href="structcoupler__types__mod_1_1coupler__2d__bc__type.html" target="_top" xlink:title=" ">
<polygon fill="white" stroke="black" points="56.5,-179 56.5,-209 147.5,-209 147.5,-179 56.5,-179"/>
<text text-anchor="start" x="64.5" y="-197" font-family="Helvetica,sans-Serif" font-size="10.00">coupler_types_mod::</text>
<text text-anchor="middle" x="102" y="-186" font-family="Helvetica,sans-Serif" font-size="10.00">coupler_2d_bc_type</text>
</a>
</g>
</g>
<!-- Node3&#45;&gt;Node1 -->
<g id="edge2" class="edge"><title>Node3&#45;&gt;Node1</title>
<path fill="none" stroke="#9a32cd" stroke-dasharray="5,2" d="M103.839,-168.928C107.032,-137.388 115.472,-81.0373 137,-38 140.416,-31.1712 145.919,-24.6231 150.686,-19.6859"/>
<polygon fill="#9a32cd" stroke="#9a32cd" points="100.344,-168.709 102.915,-178.987 107.315,-169.349 100.344,-168.709"/>
<text text-anchor="middle" x="153.5" y="-96.5" font-family="Helvetica,sans-Serif" font-size="10.00"> tr_fluxes</text>
</g>
<!-- Node4 -->
<g id="node4" class="node"><title>Node4</title>
<g id="a_node4"><a xlink:title=" ">
<polygon fill="white" stroke="#bfbfbf" points="130.5,-258.5 130.5,-277.5 171.5,-277.5 171.5,-258.5 130.5,-258.5"/>
<text text-anchor="middle" x="151" y="-265.5" font-family="Helvetica,sans-Serif" font-size="10.00">integer</text>
</a>
</g>
</g>
<!-- Node4&#45;&gt;Node3 -->
<g id="edge3" class="edge"><title>Node4&#45;&gt;Node3</title>
<path fill="none" stroke="#9a32cd" stroke-dasharray="5,2" d="M139.389,-249.938C130.945,-237.531 119.645,-220.927 111.685,-209.232"/>
<polygon fill="#9a32cd" stroke="#9a32cd" points="136.667,-252.16 145.187,-258.458 142.454,-248.222 136.667,-252.16"/>
<text text-anchor="middle" x="150.5" y="-231.5" font-family="Helvetica,sans-Serif" font-size="10.00"> num_bcs</text>
</g>
<!-- Node4&#45;&gt;Node1 -->
<g id="edge4" class="edge"><title>Node4&#45;&gt;Node1</title>
<path fill="none" stroke="#9a32cd" stroke-dasharray="5,2" d="M165.169,-250.111C167.155,-246.927 168.894,-243.494 170,-240 197.097,-154.409 185.839,-126.37 170,-38 168.871,-31.7021 166.371,-24.9521 164.153,-19.7765"/>
<polygon fill="#9a32cd" stroke="#9a32cd" points="162.285,-248.126 159.234,-258.272 167.946,-252.243 162.285,-248.126"/>
<text text-anchor="middle" x="203.5" y="-197" font-family="Helvetica,sans-Serif" font-size="10.00"> max_msg</text>
<text text-anchor="middle" x="203.5" y="-186" font-family="Helvetica,sans-Serif" font-size="10.00">num_msg</text>
</g>
<!-- Node5 -->
<g id="node5" class="node"><title>Node5</title>
<g id="a_node5"><a xlink:title=" ">
<polygon fill="white" stroke="#bfbfbf" points="239,-184.5 239,-203.5 269,-203.5 269,-184.5 239,-184.5"/>
<text text-anchor="middle" x="254" y="-191.5" font-family="Helvetica,sans-Serif" font-size="10.00">real</text>
</a>
</g>
</g>
<!-- Node5&#45;&gt;Node1 -->
<g id="edge5" class="edge"><title>Node5&#45;&gt;Node1</title>
<path fill="none" stroke="#9a32cd" stroke-dasharray="5,2" d="M250.971,-174.18C245.206,-143.137 230.238,-80.4187 198,-38 192.32,-30.5258 183.985,-24.2813 176.567,-19.6869"/>
<polygon fill="#9a32cd" stroke="#9a32cd" points="247.59,-175.164 252.747,-184.418 254.487,-173.967 247.59,-175.164"/>
<text text-anchor="middle" x="286" y="-151.5" font-family="Helvetica,sans-Serif" font-size="10.00"> p_surf_ssh</text>
<text text-anchor="middle" x="286" y="-140.5" font-family="Helvetica,sans-Serif" font-size="10.00">salt_flux</text>
<text text-anchor="middle" x="286" y="-129.5" font-family="Helvetica,sans-Serif" font-size="10.00">heat_content_cond</text>
<text text-anchor="middle" x="286" y="-118.5" font-family="Helvetica,sans-Serif" font-size="10.00">fprec</text>
<text text-anchor="middle" x="286" y="-107.5" font-family="Helvetica,sans-Serif" font-size="10.00">latent_evap_diag</text>
<text text-anchor="middle" x="286" y="-96.5" font-family="Helvetica,sans-Serif" font-size="10.00">dt_buoy_accum</text>
<text text-anchor="middle" x="286" y="-85.5" font-family="Helvetica,sans-Serif" font-size="10.00">heat_content_massin</text>
<text text-anchor="middle" x="286" y="-74.5" font-family="Helvetica,sans-Serif" font-size="10.00">netmassout</text>
<text text-anchor="middle" x="286" y="-63.5" font-family="Helvetica,sans-Serif" font-size="10.00">lrunoff</text>
<text text-anchor="middle" x="286" y="-52.5" font-family="Helvetica,sans-Serif" font-size="10.00">sw_vis_dif</text>
<text text-anchor="middle" x="286" y="-41.5" font-family="Helvetica,sans-Serif" font-size="10.00">...</text>
</g>
</g>
</svg>
