<?xml version="1.0" encoding="UTF-8" standalone="no"?>
<!DOCTYPE svg PUBLIC "-//W3C//DTD SVG 1.1//EN"
 "http://www.w3.org/Graphics/SVG/1.1/DTD/svg11.dtd">
<!-- Generated by graphviz version 2.30.1 (20170916.1124)
 -->
<!-- Title: mom_dynamics_unsplit_rk2::mom_dyn_unsplit_rk2_cs Pages: 1 -->
<!--zoomable 771 -->
<svg id="main" version="1.1" xmlns="http://www.w3.org/2000/svg" xmlns:xlink="http://www.w3.org/1999/xlink" xml:space="preserve" onload="init(evt)">
<style type="text/css"><![CDATA[
.edge:hover path { stroke: red; }
.edge:hover polygon { stroke: red; fill: red; }
]]></style>
<script type="text/javascript"><![CDATA[
var edges = document.getElementsByTagName('g');
if (edges && edges.length) {
  for (var i=0;i<edges.length;i++) {
    if (edges[i].id.substr(0,4)=='edge') {
      edges[i].setAttribute('class','edge');
    }
  }
}
]]></script>
        <defs>
                <circle id="rim" cx="0" cy="0" r="7"/>
                <circle id="rim2" cx="0" cy="0" r="3.5"/>
                <g id="zoomPlus">
                        <use xlink:href="#rim" fill="#404040">
                                <set attributeName="fill" to="#808080" begin="zoomplus.mouseover" end="zoomplus.mouseout"/>
                        </use>
                        <path d="M-4,0h8M0,-4v8" fill="none" stroke="white" stroke-width="1.5" pointer-events="none"/>
                </g>
                <g id="zoomMin">
                        <use xlink:href="#rim" fill="#404040">
                                <set attributeName="fill" to="#808080" begin="zoomminus.mouseover" end="zoomminus.mouseout"/>
                        </use>
                        <path d="M-4,0h8" fill="none" stroke="white" stroke-width="1.5" pointer-events="none"/>
                </g>
                <g id="dirArrow">
                        <path fill="none" stroke="white" stroke-width="1.5" d="M0,-3.0v7 M-2.5,-0.5L0,-3.0L2.5,-0.5"/>
                </g>
               <g id="resetDef">
                       <use xlink:href="#rim2" fill="#404040">
                               <set attributeName="fill" to="#808080" begin="reset.mouseover" end="reset.mouseout"/>
                       </use>
               </g>
        </defs>

<script type="text/javascript">
var viewWidth = 308;
var viewHeight = 771;
var sectionId = 'dynsection-0';
</script>
<script xlink:href="svgpan.js"/>
<svg id="graph" class="graph">
<g id="viewport">
<title>mom_dynamics_unsplit_rk2::mom_dyn_unsplit_rk2_cs</title>
<polygon fill="white" stroke="white" points="-4,5 -4,-766.885 305,-766.885 305,5 -4,5"/>
<!-- Node1 -->
<g id="node1" class="node"><title>Node1</title>
<g id="a_node1"><a xlink:title=" ">
<polygon fill="#bfbfbf" stroke="black" points="200.5,-418.385 200.5,-459.385 299.5,-459.385 299.5,-418.385 200.5,-418.385"/>
<text text-anchor="start" x="208.5" y="-447.385" font-family="Helvetica,sans-Serif" font-size="10.00">mom_dynamics_unsplit</text>
<text text-anchor="start" x="208.5" y="-436.385" font-family="Helvetica,sans-Serif" font-size="10.00">_rk2::mom_dyn_unsplit</text>
<text text-anchor="middle" x="250" y="-425.385" font-family="Helvetica,sans-Serif" font-size="10.00">_rk2_cs</text>
</a>
</g>
</g>
<!-- Node2 -->
<g id="node2" class="node"><title>Node2</title>
<g id="a_node2"><a xlink:title=" ">
<polygon fill="white" stroke="#bfbfbf" points="0.5,-740.385 0.5,-759.385 89.5,-759.385 89.5,-740.385 0.5,-740.385"/>
<text text-anchor="middle" x="45" y="-747.385" font-family="Helvetica,sans-Serif" font-size="10.00">type(ale_cs), pointer</text>
</a>
</g>
</g>
<!-- Node2&#45;&gt;Node1 -->
<g id="edge1" class="edge"><title>Node2&#45;&gt;Node1</title>
<path fill="none" stroke="#9a32cd" stroke-dasharray="5,2" d="M99.8334,-753.185C127.739,-751.952 160.406,-745.46 182,-724.885 220.767,-687.948 241.017,-519.158 247.043,-459.692"/>
<polygon fill="#9a32cd" stroke="#9a32cd" points="99.7132,-749.687 89.797,-753.418 99.8754,-756.685 99.7132,-749.687"/>
<text text-anchor="middle" x="145" y="-754.885" font-family="Helvetica,sans-Serif" font-size="10.00"> ale_csp</text>
</g>
<!-- Node3 -->
<g id="node3" class="node"><title>Node3</title>
<g id="a_node3"><a xlink:title=" ">
<polygon fill="white" stroke="#bfbfbf" points="26,-697.385 26,-716.385 64,-716.385 64,-697.385 26,-697.385"/>
<text text-anchor="middle" x="45" y="-704.385" font-family="Helvetica,sans-Serif" font-size="10.00">logical</text>
</a>
</g>
</g>
<!-- Node3&#45;&gt;Node1 -->
<g id="edge2" class="edge"><title>Node3&#45;&gt;Node1</title>
<path fill="none" stroke="#9a32cd" stroke-dasharray="5,2" d="M74.2082,-704.29C109.361,-700.491 166.686,-692.26 182,-677.885 244.838,-618.9 250.385,-506.205 249.805,-459.724"/>
<polygon fill="#9a32cd" stroke="#9a32cd" points="73.6724,-700.826 64.0816,-705.328 74.3865,-707.79 73.6724,-700.826"/>
<text text-anchor="middle" x="145" y="-712.885" font-family="Helvetica,sans-Serif" font-size="10.00"> debug</text>
<text text-anchor="middle" x="145" y="-701.885" font-family="Helvetica,sans-Serif" font-size="10.00">module_is_initialized</text>
</g>
<!-- Node4 -->
<g id="node4" class="node"><title>Node4</title>
<g id="a_node4"><a xlink:title=" ">
<polygon fill="white" stroke="#bfbfbf" points="7.5,-659.385 7.5,-678.385 82.5,-678.385 82.5,-659.385 7.5,-659.385"/>
<text text-anchor="middle" x="45" y="-666.385" font-family="Helvetica,sans-Serif" font-size="10.00">ocean_obc_type</text>
</a>
</g>
</g>
<!-- Node4&#45;&gt;Node1 -->
<g id="edge3" class="edge"><title>Node4&#45;&gt;Node1</title>
<path fill="none" stroke="#9a32cd" stroke-dasharray="5,2" d="M92.4961,-666.591C121.57,-662.813 157.936,-653.473 182,-630.885 231.681,-584.253 244.533,-498.805 247.85,-459.573"/>
<polygon fill="#9a32cd" stroke="#9a32cd" points="92.0954,-663.114 82.5486,-667.709 92.8768,-670.071 92.0954,-663.114"/>
<text text-anchor="middle" x="145" y="-665.885" font-family="Helvetica,sans-Serif" font-size="10.00"> obc</text>
</g>
<!-- Node5 -->
<g id="node5" class="node"><title>Node5</title>
<g id="a_node5"><a xlink:title=" ">
<polygon fill="white" stroke="#bfbfbf" points="5,-609.885 5,-639.885 85,-639.885 85,-609.885 5,-609.885"/>
<text text-anchor="start" x="13" y="-627.885" font-family="Helvetica,sans-Serif" font-size="10.00">type(set_visc_cs),</text>
<text text-anchor="middle" x="45" y="-616.885" font-family="Helvetica,sans-Serif" font-size="10.00"> pointer</text>
</a>
</g>
</g>
<!-- Node5&#45;&gt;Node1 -->
<g id="edge4" class="edge"><title>Node5&#45;&gt;Node1</title>
<path fill="none" stroke="#9a32cd" stroke-dasharray="5,2" d="M95.3556,-618.347C123.531,-612.406 157.926,-601.144 182,-579.885 218.872,-547.325 237.139,-490.059 244.648,-459.486"/>
<polygon fill="#9a32cd" stroke="#9a32cd" points="94.4356,-614.961 85.287,-620.304 95.7711,-621.832 94.4356,-614.961"/>
<text text-anchor="middle" x="145" y="-618.885" font-family="Helvetica,sans-Serif" font-size="10.00"> set_visc_csp</text>
</g>
<!-- Node6 -->
<g id="node6" class="node"><title>Node6</title>
<g id="a_node6"><a xlink:title=" ">
<polygon fill="white" stroke="#bfbfbf" points="6,-560.885 6,-590.885 84,-590.885 84,-560.885 6,-560.885"/>
<text text-anchor="start" x="14" y="-578.885" font-family="Helvetica,sans-Serif" font-size="10.00">type(vertvisc_cs),</text>
<text text-anchor="middle" x="45" y="-567.885" font-family="Helvetica,sans-Serif" font-size="10.00"> pointer</text>
</a>
</g>
</g>
<!-- Node6&#45;&gt;Node1 -->
<g id="edge5" class="edge"><title>Node6&#45;&gt;Node1</title>
<path fill="none" stroke="#9a32cd" stroke-dasharray="5,2" d="M93.9789,-567.634C121.679,-561.101 156.057,-549.819 182,-530.885 207.696,-512.132 227.572,-480.579 238.784,-459.743"/>
<polygon fill="#9a32cd" stroke="#9a32cd" points="93.1047,-564.243 84.1036,-569.831 94.6251,-571.076 93.1047,-564.243"/>
<text text-anchor="middle" x="145" y="-567.885" font-family="Helvetica,sans-Serif" font-size="10.00"> vertvisc_csp</text>
</g>
<!-- Node7 -->
<g id="node7" class="node"><title>Node7</title>
<g id="a_node7"><a xlink:title=" ">
<polygon fill="white" stroke="#bfbfbf" points="10.5,-522.385 10.5,-541.385 79.5,-541.385 79.5,-522.385 10.5,-522.385"/>
<text text-anchor="middle" x="45" y="-529.385" font-family="Helvetica,sans-Serif" font-size="10.00">cont_diag_ptrs</text>
</a>
</g>
</g>
<!-- Node7&#45;&gt;Node1 -->
<g id="edge6" class="edge"><title>Node7&#45;&gt;Node1</title>
<path fill="none" stroke="#9a32cd" stroke-dasharray="5,2" d="M89.2946,-521.669C116.729,-514.287 152.475,-502.964 182,-487.885 197.144,-480.151 212.562,-469.136 224.784,-459.508"/>
<polygon fill="#9a32cd" stroke="#9a32cd" points="88.3778,-518.291 79.5904,-524.209 90.1508,-525.062 88.3778,-518.291"/>
<text text-anchor="middle" x="145" y="-518.885" font-family="Helvetica,sans-Serif" font-size="10.00"> cdp</text>
</g>
<!-- Node8 -->
<g id="node8" class="node"><title>Node8</title>
<g id="a_node8"><a xlink:title=" ">
<polygon fill="white" stroke="#bfbfbf" points="4.5,-472.885 4.5,-502.885 85.5,-502.885 85.5,-472.885 4.5,-472.885"/>
<text text-anchor="start" x="12.5" y="-490.885" font-family="Helvetica,sans-Serif" font-size="10.00">type(hor_visc_cs),</text>
<text text-anchor="middle" x="45" y="-479.885" font-family="Helvetica,sans-Serif" font-size="10.00"> pointer</text>
</a>
</g>
</g>
<!-- Node8&#45;&gt;Node1 -->
<g id="edge7" class="edge"><title>Node8&#45;&gt;Node1</title>
<path fill="none" stroke="#9a32cd" stroke-dasharray="5,2" d="M95.597,-475.914C127.399,-468.237 168.501,-458.316 200.154,-450.676"/>
<polygon fill="#9a32cd" stroke="#9a32cd" points="94.5219,-472.572 85.6223,-478.321 96.1644,-479.377 94.5219,-472.572"/>
<text text-anchor="middle" x="145" y="-475.885" font-family="Helvetica,sans-Serif" font-size="10.00"> hor_visc_csp</text>
</g>
<!-- Node9 -->
<g id="node9" class="node"><title>Node9</title>
<g id="a_node9"><a xlink:title=" ">
<polygon fill="white" stroke="#bfbfbf" points="3.5,-423.885 3.5,-453.885 86.5,-453.885 86.5,-423.885 3.5,-423.885"/>
<text text-anchor="start" x="11.5" y="-441.885" font-family="Helvetica,sans-Serif" font-size="10.00">type(continuity_cs)</text>
<text text-anchor="middle" x="45" y="-430.885" font-family="Helvetica,sans-Serif" font-size="10.00">, pointer</text>
</a>
</g>
</g>
<!-- Node9&#45;&gt;Node1 -->
<g id="edge8" class="edge"><title>Node9&#45;&gt;Node1</title>
<path fill="none" stroke="#9a32cd" stroke-dasharray="5,2" d="M96.9582,-438.885C128.596,-438.885 169.03,-438.885 200.246,-438.885"/>
<polygon fill="#9a32cd" stroke="#9a32cd" points="96.5922,-435.385 86.5922,-438.885 96.5922,-442.385 96.5922,-435.385"/>
<text text-anchor="middle" x="145" y="-441.885" font-family="Helvetica,sans-Serif" font-size="10.00"> continuity_csp</text>
</g>
<!-- Node10 -->
<g id="node10" class="node"><title>Node10</title>
<g id="a_node10"><a xlink:title=" ">
<polygon fill="white" stroke="#bfbfbf" points="2,-374.885 2,-404.885 88,-404.885 88,-374.885 2,-374.885"/>
<text text-anchor="start" x="10" y="-392.885" font-family="Helvetica,sans-Serif" font-size="10.00">type(coriolisadv_cs)</text>
<text text-anchor="middle" x="45" y="-381.885" font-family="Helvetica,sans-Serif" font-size="10.00">, pointer</text>
</a>
</g>
</g>
<!-- Node10&#45;&gt;Node1 -->
<g id="edge9" class="edge"><title>Node10&#45;&gt;Node1</title>
<path fill="none" stroke="#9a32cd" stroke-dasharray="5,2" d="M97.9623,-402.428C129.435,-410.025 169.327,-419.654 200.209,-427.108"/>
<polygon fill="#9a32cd" stroke="#9a32cd" points="98.6038,-398.982 88.0617,-400.038 96.9613,-405.787 98.6038,-398.982"/>
<text text-anchor="middle" x="145" y="-424.885" font-family="Helvetica,sans-Serif" font-size="10.00"> coriolisadv_csp</text>
</g>
<!-- Node11 -->
<g id="node11" class="node"><title>Node11</title>
<g id="a_node11"><a xlink:title=" ">
<polygon fill="white" stroke="#bfbfbf" points="21.5,-336.385 21.5,-355.385 68.5,-355.385 68.5,-336.385 21.5,-336.385"/>
<text text-anchor="middle" x="45" y="-343.385" font-family="Helvetica,sans-Serif" font-size="10.00">diag_ctrl</text>
</a>
</g>
</g>
<!-- Node11&#45;&gt;Node1 -->
<g id="edge10" class="edge"><title>Node11&#45;&gt;Node1</title>
<path fill="none" stroke="#9a32cd" stroke-dasharray="5,2" d="M78.7488,-353.732C107.004,-361.193 148.438,-373.812 182,-390.885 196.794,-398.411 211.938,-408.972 224.076,-418.273"/>
<polygon fill="#9a32cd" stroke="#9a32cd" points="79.531,-350.32 68.9743,-351.218 77.7872,-357.099 79.531,-350.32"/>
<text text-anchor="middle" x="145" y="-393.885" font-family="Helvetica,sans-Serif" font-size="10.00"> diag</text>
</g>
<!-- Node12 -->
<g id="node12" class="node"><title>Node12</title>
<g id="a_node12"><a xlink:title=" ">
<polygon fill="white" stroke="#bfbfbf" points="6.5,-286.885 6.5,-316.885 83.5,-316.885 83.5,-286.885 6.5,-286.885"/>
<text text-anchor="start" x="14.5" y="-304.885" font-family="Helvetica,sans-Serif" font-size="10.00">type(tidal_forcing</text>
<text text-anchor="middle" x="45" y="-293.885" font-family="Helvetica,sans-Serif" font-size="10.00">_cs), pointer</text>
</a>
</g>
</g>
<!-- Node12&#45;&gt;Node1 -->
<g id="edge11" class="edge"><title>Node12&#45;&gt;Node1</title>
<path fill="none" stroke="#9a32cd" stroke-dasharray="5,2" d="M93.6602,-310.515C121.398,-317.276 155.923,-328.826 182,-347.885 207.501,-366.523 227.427,-397.711 238.703,-418.291"/>
<polygon fill="#9a32cd" stroke="#9a32cd" points="94.3068,-307.073 83.7761,-308.237 92.7341,-313.894 94.3068,-307.073"/>
<text text-anchor="middle" x="145" y="-350.885" font-family="Helvetica,sans-Serif" font-size="10.00"> tides_csp</text>
</g>
<!-- Node13 -->
<g id="node13" class="node"><title>Node13</title>
<g id="a_node13"><a xlink:title=" ">
<polygon fill="white" stroke="#bfbfbf" points="3,-237.885 3,-267.885 87,-267.885 87,-237.885 3,-237.885"/>
<text text-anchor="start" x="11" y="-255.885" font-family="Helvetica,sans-Serif" font-size="10.00">type(pressureforce</text>
<text text-anchor="middle" x="45" y="-244.885" font-family="Helvetica,sans-Serif" font-size="10.00">_cs), pointer</text>
</a>
</g>
</g>
<!-- Node13&#45;&gt;Node1 -->
<g id="edge12" class="edge"><title>Node13&#45;&gt;Node1</title>
<path fill="none" stroke="#9a32cd" stroke-dasharray="5,2" d="M97.0927,-260.676C124.924,-267.161 158.398,-278.883 182,-299.885 218.223,-332.119 236.717,-388.257 244.445,-418.384"/>
<polygon fill="#9a32cd" stroke="#9a32cd" points="97.6373,-257.213 87.123,-258.516 96.1552,-264.054 97.6373,-257.213"/>
<text text-anchor="middle" x="145" y="-302.885" font-family="Helvetica,sans-Serif" font-size="10.00"> pressureforce_csp</text>
</g>
<!-- Node14 -->
<g id="node14" class="node"><title>Node14</title>
<g id="a_node14"><a xlink:title=" ">
<polygon fill="white" stroke="#bfbfbf" points="24.5,-184.385 24.5,-203.385 65.5,-203.385 65.5,-184.385 24.5,-184.385"/>
<text text-anchor="middle" x="45" y="-191.385" font-family="Helvetica,sans-Serif" font-size="10.00">integer</text>
</a>
</g>
</g>
<!-- Node14&#45;&gt;Node1 -->
<g id="edge13" class="edge"><title>Node14&#45;&gt;Node1</title>
<path fill="none" stroke="#9a32cd" stroke-dasharray="5,2" d="M75.8229,-184.63C105.826,-177.302 151.851,-171.723 182,-194.885 217.968,-222.518 239.504,-364.334 246.488,-418.145"/>
<polygon fill="#9a32cd" stroke="#9a32cd" points="74.7009,-181.307 65.9308,-187.251 76.4937,-188.073 74.7009,-181.307"/>
<text text-anchor="middle" x="145" y="-252.885" font-family="Helvetica,sans-Serif" font-size="10.00"> id_vh</text>
<text text-anchor="middle" x="145" y="-241.885" font-family="Helvetica,sans-Serif" font-size="10.00">id_cau</text>
<text text-anchor="middle" x="145" y="-230.885" font-family="Helvetica,sans-Serif" font-size="10.00">id_uh</text>
<text text-anchor="middle" x="145" y="-219.885" font-family="Helvetica,sans-Serif" font-size="10.00">id_cav</text>
<text text-anchor="middle" x="145" y="-208.885" font-family="Helvetica,sans-Serif" font-size="10.00">id_pfu</text>
<text text-anchor="middle" x="145" y="-197.885" font-family="Helvetica,sans-Serif" font-size="10.00">id_pfv</text>
</g>
<!-- Node15 -->
<g id="node15" class="node"><title>Node15</title>
<g id="a_node15"><a xlink:title=" ">
<polygon fill="white" stroke="#bfbfbf" points="30,-40.3852 30,-59.3852 60,-59.3852 60,-40.3852 30,-40.3852"/>
<text text-anchor="middle" x="45" y="-47.3852" font-family="Helvetica,sans-Serif" font-size="10.00">real</text>
</a>
</g>
</g>
<!-- Node15&#45;&gt;Node1 -->
<g id="edge14" class="edge"><title>Node15&#45;&gt;Node1</title>
<path fill="none" stroke="#9a32cd" stroke-dasharray="5,2" d="M70.0634,-42.3877C100.075,-34.6757 151.179,-27.1809 182,-53.8852 237.634,-102.088 247.092,-345.203 248.682,-418.158"/>
<polygon fill="#9a32cd" stroke="#9a32cd" points="69.0963,-39.0237 60.3954,-45.0689 70.9671,-45.7691 69.0963,-39.0237"/>
<text text-anchor="middle" x="145" y="-166.885" font-family="Helvetica,sans-Serif" font-size="10.00"> cau</text>
<text text-anchor="middle" x="145" y="-155.885" font-family="Helvetica,sans-Serif" font-size="10.00">cav</text>
<text text-anchor="middle" x="145" y="-144.885" font-family="Helvetica,sans-Serif" font-size="10.00">begw</text>
<text text-anchor="middle" x="145" y="-133.885" font-family="Helvetica,sans-Serif" font-size="10.00">be</text>
<text text-anchor="middle" x="145" y="-122.885" font-family="Helvetica,sans-Serif" font-size="10.00">pfu</text>
<text text-anchor="middle" x="145" y="-111.885" font-family="Helvetica,sans-Serif" font-size="10.00">pfv</text>
<text text-anchor="middle" x="145" y="-100.885" font-family="Helvetica,sans-Serif" font-size="10.00">diffu</text>
<text text-anchor="middle" x="145" y="-89.8852" font-family="Helvetica,sans-Serif" font-size="10.00">diffv</text>
<text text-anchor="middle" x="145" y="-78.8852" font-family="Helvetica,sans-Serif" font-size="10.00">taux_bot</text>
<text text-anchor="middle" x="145" y="-67.8852" font-family="Helvetica,sans-Serif" font-size="10.00">tauy_bot</text>
<text text-anchor="middle" x="145" y="-56.8852" font-family="Helvetica,sans-Serif" font-size="10.00">...</text>
</g>
<!-- Node16 -->
<g id="node16" class="node"><title>Node16</title>
<g id="a_node16"><a xlink:title=" ">
<polygon fill="white" stroke="#bfbfbf" points="9,-2.3852 9,-21.3852 81,-21.3852 81,-2.3852 9,-2.3852"/>
<text text-anchor="middle" x="45" y="-9.3852" font-family="Helvetica,sans-Serif" font-size="10.00">accel_diag_ptrs</text>
</a>
</g>
</g>
<!-- Node16&#45;&gt;Node1 -->
<g id="edge15" class="edge"><title>Node16&#45;&gt;Node1</title>
<path fill="none" stroke="#9a32cd" stroke-dasharray="5,2" d="M91.1065,-1.78303C120.604,1.99611 157.984,0.998687 182,-20.8852 241.418,-75.0274 248.212,-341.847 248.931,-418.349"/>
<polygon fill="#9a32cd" stroke="#9a32cd" points="90.4069,1.65129 81.0362,-3.29256 91.4446,-5.27137 90.4069,1.65129"/>
<text text-anchor="middle" x="145" y="-23.8852" font-family="Helvetica,sans-Serif" font-size="10.00"> adp</text>
</g>
</g>
</svg>
        <g id="navigator" transform="translate(0 0)" fill="#404254">
                <rect fill="#f2f5e9" fill-opacity="0.5" stroke="#606060" stroke-width=".5" x="0" y="0" width="60" height="60"/>
                <use id="zoomplus" xlink:href="#zoomPlus" x="17" y="9" onmousedown="handleZoom(evt,'in')"/>
                <use id="zoomminus" xlink:href="#zoomMin" x="42" y="9" onmousedown="handleZoom(evt,'out')"/>
                <use id="reset" xlink:href="#resetDef" x="30" y="36" onmousedown="handleReset()"/>
                <g id="arrowUp" xlink:href="#dirArrow" transform="translate(30 24)" onmousedown="handlePan(0,-1)">
                  <use xlink:href="#rim" fill="#404040">
                        <set attributeName="fill" to="#808080" begin="arrowUp.mouseover" end="arrowUp.mouseout"/>
                  </use>
                  <path fill="none" stroke="white" stroke-width="1.5" d="M0,-3.0v7 M-2.5,-0.5L0,-3.0L2.5,-0.5"/>
                </g>
                <g id="arrowRight" xlink:href="#dirArrow" transform="rotate(90) translate(36 -43)" onmousedown="handlePan(1,0)">
                  <use xlink:href="#rim" fill="#404040">
                        <set attributeName="fill" to="#808080" begin="arrowRight.mouseover" end="arrowRight.mouseout"/>
                  </use>
                  <path fill="none" stroke="white" stroke-width="1.5" d="M0,-3.0v7 M-2.5,-0.5L0,-3.0L2.5,-0.5"/>
                </g>
                <g id="arrowDown" xlink:href="#dirArrow" transform="rotate(180) translate(-30 -48)" onmousedown="handlePan(0,1)">
                  <use xlink:href="#rim" fill="#404040">
                        <set attributeName="fill" to="#808080" begin="arrowDown.mouseover" end="arrowDown.mouseout"/>
                  </use>
                  <path fill="none" stroke="white" stroke-width="1.5" d="M0,-3.0v7 M-2.5,-0.5L0,-3.0L2.5,-0.5"/>
                </g>
                <g id="arrowLeft" xlink:href="#dirArrow" transform="rotate(270) translate(-36 17)" onmousedown="handlePan(-1,0)">
                  <use xlink:href="#rim" fill="#404040">
                        <set attributeName="fill" to="#808080" begin="arrowLeft.mouseover" end="arrowLeft.mouseout"/>
                  </use>
                  <path fill="none" stroke="white" stroke-width="1.5" d="M0,-3.0v7 M-2.5,-0.5L0,-3.0L2.5,-0.5"/>
                </g>
        </g>
        <svg viewBox="0 0 15 15" width="100%" height="30px" preserveAspectRatio="xMaxYMin meet">
         <g id="arrow_out" transform="scale(0.3 0.3)">
          <a xlink:href="structmom__dynamics__unsplit__rk2_1_1mom__dyn__unsplit__rk2__cs__coll__graph_org.svg" target="_base">
           <rect id="button" ry="5" rx="5" y="6" x="6" height="38" width="38"
                fill="#f2f5e9" fill-opacity="0.5" stroke="#606060" stroke-width="1.0"/>
           <path id="arrow"
             d="M 11.500037,31.436501 C 11.940474,20.09759 22.043105,11.32322 32.158766,21.979434 L 37.068811,17.246167 C 37.068811,17.246167 37.088388,32 37.088388,32 L 22.160133,31.978069 C 22.160133,31.978069 26.997745,27.140456 26.997745,27.140456 C 18.528582,18.264221 13.291696,25.230495 11.500037,31.436501 z"
             style="fill:#404040;"/>
          </a>
         </g>
        </svg>
</svg>
