<?xml version="1.0" encoding="UTF-8" standalone="no"?>
<!DOCTYPE svg PUBLIC "-//W3C//DTD SVG 1.1//EN"
 "http://www.w3.org/Graphics/SVG/1.1/DTD/svg11.dtd">
<!-- Generated by graphviz version 2.30.1 (20170916.1124)
 -->
<!-- Title: mom_coriolisadv::coriolisadv_cs Pages: 1 -->
<svg width="356pt" height="184pt"
 viewBox="0.00 0.00 356.00 184.00" xmlns="http://www.w3.org/2000/svg" xmlns:xlink="http://www.w3.org/1999/xlink">
<g id="graph0" class="graph" transform="scale(1 1) rotate(0) translate(4 180)">
<title>mom_coriolisadv::coriolisadv_cs</title>
<polygon fill="white" stroke="white" points="-4,5 -4,-180 353,-180 353,5 -4,5"/>
<!-- Node1 -->
<g id="node1" class="node"><title>Node1</title>
<g id="a_node1"><a xlink:title="Control structure for mom_coriolisadv.">
<polygon fill="#bfbfbf" stroke="black" points="90.5,-0.5 90.5,-19.5 219.5,-19.5 219.5,-0.5 90.5,-0.5"/>
<text text-anchor="middle" x="155" y="-7.5" font-family="Helvetica,sans-Serif" font-size="10.00">mom_coriolisadv::coriolisadv_cs</text>
</a>
</g>
</g>
<!-- Node2 -->
<g id="node2" class="node"><title>Node2</title>
<g id="a_node2"><a xlink:title=" ">
<polygon fill="white" stroke="#bfbfbf" points="0,-156.5 0,-175.5 38,-175.5 38,-156.5 0,-156.5"/>
<text text-anchor="middle" x="19" y="-163.5" font-family="Helvetica,sans-Serif" font-size="10.00">logical</text>
</a>
</g>
</g>
<!-- Node2&#45;&gt;Node1 -->
<g id="edge1" class="edge"><title>Node2&#45;&gt;Node1</title>
<path fill="none" stroke="#9a32cd" stroke-dasharray="5,2" d="M16.0202,-145.96C12.8702,-118.396 11.601,-67.4608 39,-38 46.5336,-29.8994 68.0346,-23.8536 90.5109,-19.56"/>
<polygon fill="#9a32cd" stroke="#9a32cd" points="12.598,-146.771 17.4073,-156.212 19.5348,-145.833 12.598,-146.771"/>
<text text-anchor="middle" x="65" y="-96.5" font-family="Helvetica,sans-Serif" font-size="10.00"> no_slip</text>
<text text-anchor="middle" x="65" y="-85.5" font-family="Helvetica,sans-Serif" font-size="10.00">coriolis_en_dis</text>
<text text-anchor="middle" x="65" y="-74.5" font-family="Helvetica,sans-Serif" font-size="10.00">bound_coriolis</text>
</g>
<!-- Node3 -->
<g id="node3" class="node"><title>Node3</title>
<g id="a_node3"><a xlink:title=" ">
<polygon fill="white" stroke="#bfbfbf" points="62.5,-156.5 62.5,-175.5 113.5,-175.5 113.5,-156.5 62.5,-156.5"/>
<text text-anchor="middle" x="88" y="-163.5" font-family="Helvetica,sans-Serif" font-size="10.00">time_type</text>
</a>
</g>
</g>
<!-- Node3&#45;&gt;Node1 -->
<g id="edge2" class="edge"><title>Node3&#45;&gt;Node1</title>
<path fill="none" stroke="#9a32cd" stroke-dasharray="5,2" d="M92.4336,-146.42C98.9922,-120.898 112.731,-74.0575 133,-38 136.674,-31.4642 141.951,-24.9252 146.415,-19.9196"/>
<polygon fill="#9a32cd" stroke="#9a32cd" points="89.0068,-145.698 89.9957,-156.246 95.8008,-147.383 89.0068,-145.698"/>
<text text-anchor="middle" x="142" y="-85.5" font-family="Helvetica,sans-Serif" font-size="10.00"> time</text>
</g>
<!-- Node4 -->
<g id="node4" class="node"><title>Node4</title>
<g id="a_node4"><a xlink:title=" ">
<polygon fill="white" stroke="#bfbfbf" points="131.5,-156.5 131.5,-175.5 178.5,-175.5 178.5,-156.5 131.5,-156.5"/>
<text text-anchor="middle" x="155" y="-163.5" font-family="Helvetica,sans-Serif" font-size="10.00">diag_ctrl</text>
</a>
</g>
</g>
<!-- Node4&#45;&gt;Node1 -->
<g id="edge3" class="edge"><title>Node4&#45;&gt;Node1</title>
<path fill="none" stroke="#9a32cd" stroke-dasharray="5,2" d="M155,-145.982C155,-112.374 155,-43.755 155,-19.6253"/>
<polygon fill="#9a32cd" stroke="#9a32cd" points="151.5,-146.279 155,-156.279 158.5,-146.279 151.5,-146.279"/>
<text text-anchor="middle" x="164" y="-85.5" font-family="Helvetica,sans-Serif" font-size="10.00"> diag</text>
</g>
<!-- Node5 -->
<g id="node5" class="node"><title>Node5</title>
<g id="a_node5"><a xlink:title=" ">
<polygon fill="white" stroke="#bfbfbf" points="197,-156.5 197,-175.5 227,-175.5 227,-156.5 197,-156.5"/>
<text text-anchor="middle" x="212" y="-163.5" font-family="Helvetica,sans-Serif" font-size="10.00">real</text>
</a>
</g>
</g>
<!-- Node5&#45;&gt;Node1 -->
<g id="edge4" class="edge"><title>Node5&#45;&gt;Node1</title>
<path fill="none" stroke="#9a32cd" stroke-dasharray="5,2" d="M207.041,-146.213C197.997,-112.068 179.52,-42.8847 177,-38 173.562,-31.3368 168.293,-24.7939 163.773,-19.818"/>
<polygon fill="#9a32cd" stroke="#9a32cd" points="203.769,-147.532 209.709,-156.306 210.537,-145.743 203.769,-147.532"/>
<text text-anchor="middle" x="235" y="-91" font-family="Helvetica,sans-Serif" font-size="10.00"> wt_lin_blend</text>
<text text-anchor="middle" x="235" y="-80" font-family="Helvetica,sans-Serif" font-size="10.00">f_eff_max_blend</text>
</g>
<!-- Node6 -->
<g id="node6" class="node"><title>Node6</title>
<g id="a_node6"><a xlink:title=" ">
<polygon fill="white" stroke="#bfbfbf" points="266.5,-156.5 266.5,-175.5 307.5,-175.5 307.5,-156.5 266.5,-156.5"/>
<text text-anchor="middle" x="287" y="-163.5" font-family="Helvetica,sans-Serif" font-size="10.00">integer</text>
</a>
</g>
</g>
<!-- Node6&#45;&gt;Node1 -->
<g id="edge5" class="edge"><title>Node6&#45;&gt;Node1</title>
<path fill="none" stroke="#9a32cd" stroke-dasharray="5,2" d="M289.589,-145.968C292.192,-118.413 292.518,-67.4899 265,-38 257.588,-30.0567 236.08,-23.9402 214.026,-19.5534"/>
<polygon fill="#9a32cd" stroke="#9a32cd" points="286.076,-145.881 288.409,-156.215 293.03,-146.682 286.076,-145.881"/>
<text text-anchor="middle" x="319" y="-129.5" font-family="Helvetica,sans-Serif" font-size="10.00"> id_rv</text>
<text text-anchor="middle" x="319" y="-118.5" font-family="Helvetica,sans-Serif" font-size="10.00">id_pv</text>
<text text-anchor="middle" x="319" y="-107.5" font-family="Helvetica,sans-Serif" font-size="10.00">ke_scheme</text>
<text text-anchor="middle" x="319" y="-96.5" font-family="Helvetica,sans-Serif" font-size="10.00">coriolis_scheme</text>
<text text-anchor="middle" x="319" y="-85.5" font-family="Helvetica,sans-Serif" font-size="10.00">pv_adv_scheme</text>
<text text-anchor="middle" x="319" y="-74.5" font-family="Helvetica,sans-Serif" font-size="10.00">id_gkeu</text>
<text text-anchor="middle" x="319" y="-63.5" font-family="Helvetica,sans-Serif" font-size="10.00">id_gkev</text>
<text text-anchor="middle" x="319" y="-52.5" font-family="Helvetica,sans-Serif" font-size="10.00">id_rvxu</text>
<text text-anchor="middle" x="319" y="-41.5" font-family="Helvetica,sans-Serif" font-size="10.00">id_rvxv</text>
</g>
</g>
</svg>
