<?xml version="1.0" encoding="UTF-8" standalone="no"?>
<!DOCTYPE svg PUBLIC "-//W3C//DTD SVG 1.1//EN"
 "http://www.w3.org/Graphics/SVG/1.1/DTD/svg11.dtd">
<!-- Generated by graphviz version 2.30.1 (20170916.1124)
 -->
<!-- Title: mom_entrain_diffusive::entrain_diffusive_cs Pages: 1 -->
<svg width="267pt" height="130pt"
 viewBox="0.00 0.00 267.00 130.00" xmlns="http://www.w3.org/2000/svg" xmlns:xlink="http://www.w3.org/1999/xlink">
<g id="graph0" class="graph" transform="scale(1 1) rotate(0) translate(4 126)">
<title>mom_entrain_diffusive::entrain_diffusive_cs</title>
<polygon fill="white" stroke="white" points="-4,5 -4,-126 264,-126 264,5 -4,5"/>
<!-- Node1 -->
<g id="node1" class="node"><title>Node1</title>
<g id="a_node1"><a xlink:title=" ">
<polygon fill="#bfbfbf" stroke="black" points="72.5,-1 72.5,-31 169.5,-31 169.5,-1 72.5,-1"/>
<text text-anchor="start" x="80.5" y="-19" font-family="Helvetica,sans-Serif" font-size="10.00">mom_entrain_diffusive</text>
<text text-anchor="middle" x="121" y="-8" font-family="Helvetica,sans-Serif" font-size="10.00">::entrain_diffusive_cs</text>
</a>
</g>
</g>
<!-- Node2 -->
<g id="node2" class="node"><title>Node2</title>
<g id="a_node2"><a xlink:title=" ">
<polygon fill="white" stroke="#bfbfbf" points="0,-102.5 0,-121.5 38,-121.5 38,-102.5 0,-102.5"/>
<text text-anchor="middle" x="19" y="-109.5" font-family="Helvetica,sans-Serif" font-size="10.00">logical</text>
</a>
</g>
</g>
<!-- Node2&#45;&gt;Node1 -->
<g id="edge1" class="edge"><title>Node2&#45;&gt;Node1</title>
<path fill="none" stroke="#9a32cd" stroke-dasharray="5,2" d="M20.922,-92.4093C23.1999,-79.1036 28.1692,-61.5678 39,-50 48.02,-40.3663 60.2337,-33.481 72.4774,-28.5848"/>
<polygon fill="#9a32cd" stroke="#9a32cd" points="17.4473,-91.9878 19.5721,-102.367 24.3838,-92.9282 17.4473,-91.9878"/>
<text text-anchor="middle" x="66.5" y="-70" font-family="Helvetica,sans-Serif" font-size="10.00"> bulkmixedlayer</text>
<text text-anchor="middle" x="66.5" y="-59" font-family="Helvetica,sans-Serif" font-size="10.00">correct_density</text>
</g>
<!-- Node3 -->
<g id="node3" class="node"><title>Node3</title>
<g id="a_node3"><a xlink:title=" ">
<polygon fill="white" stroke="#bfbfbf" points="69.5,-102.5 69.5,-121.5 116.5,-121.5 116.5,-102.5 69.5,-102.5"/>
<text text-anchor="middle" x="93" y="-109.5" font-family="Helvetica,sans-Serif" font-size="10.00">diag_ctrl</text>
</a>
</g>
</g>
<!-- Node3&#45;&gt;Node1 -->
<g id="edge2" class="edge"><title>Node3&#45;&gt;Node1</title>
<path fill="none" stroke="#9a32cd" stroke-dasharray="5,2" d="M95.9133,-92.2365C98.0727,-80.028 101.434,-63.8579 106,-50 108.088,-43.6642 111.018,-36.9175 113.736,-31.1864"/>
<polygon fill="#9a32cd" stroke="#9a32cd" points="92.4518,-91.7168 94.2678,-102.155 99.3574,-92.8625 92.4518,-91.7168"/>
<text text-anchor="middle" x="115" y="-64.5" font-family="Helvetica,sans-Serif" font-size="10.00"> diag</text>
</g>
<!-- Node4 -->
<g id="node4" class="node"><title>Node4</title>
<g id="a_node4"><a xlink:title=" ">
<polygon fill="white" stroke="#bfbfbf" points="135,-102.5 135,-121.5 165,-121.5 165,-102.5 135,-102.5"/>
<text text-anchor="middle" x="150" y="-109.5" font-family="Helvetica,sans-Serif" font-size="10.00">real</text>
</a>
</g>
</g>
<!-- Node4&#45;&gt;Node1 -->
<g id="edge3" class="edge"><title>Node4&#45;&gt;Node1</title>
<path fill="none" stroke="#9a32cd" stroke-dasharray="5,2" d="M144.349,-92.6845C138.787,-74.6555 130.412,-47.5082 125.349,-31.0982"/>
<polygon fill="#9a32cd" stroke="#9a32cd" points="141.031,-93.8014 147.324,-102.325 147.72,-91.7378 141.031,-93.8014"/>
<text text-anchor="middle" x="168" y="-64.5" font-family="Helvetica,sans-Serif" font-size="10.00"> tolerance_ent</text>
</g>
<!-- Node5 -->
<g id="node5" class="node"><title>Node5</title>
<g id="a_node5"><a xlink:title=" ">
<polygon fill="white" stroke="#bfbfbf" points="200.5,-102.5 200.5,-121.5 241.5,-121.5 241.5,-102.5 200.5,-102.5"/>
<text text-anchor="middle" x="221" y="-109.5" font-family="Helvetica,sans-Serif" font-size="10.00">integer</text>
</a>
</g>
</g>
<!-- Node5&#45;&gt;Node1 -->
<g id="edge4" class="edge"><title>Node5&#45;&gt;Node1</title>
<path fill="none" stroke="#9a32cd" stroke-dasharray="5,2" d="M218,-92.4455C214.987,-79.1578 209.124,-61.6288 198,-50 190.158,-41.8025 179.947,-35.5369 169.537,-30.7868"/>
<polygon fill="#9a32cd" stroke="#9a32cd" points="214.587,-93.2293 219.915,-102.387 221.461,-91.9055 214.587,-93.2293"/>
<text text-anchor="middle" x="237.5" y="-75.5" font-family="Helvetica,sans-Serif" font-size="10.00"> max_ent_it</text>
<text text-anchor="middle" x="237.5" y="-64.5" font-family="Helvetica,sans-Serif" font-size="10.00">id_diff_work</text>
<text text-anchor="middle" x="237.5" y="-53.5" font-family="Helvetica,sans-Serif" font-size="10.00">id_kd</text>
</g>
</g>
</svg>
