<?xml version="1.0" encoding="UTF-8" standalone="no"?>
<!DOCTYPE svg PUBLIC "-//W3C//DTD SVG 1.1//EN"
 "http://www.w3.org/Graphics/SVG/1.1/DTD/svg11.dtd">
<!-- Generated by graphviz version 2.30.1 (20170916.1124)
 -->
<!-- Title: mom_open_boundary::ocean_obc_type Pages: 1 -->
<!--zoomable 386 -->
<svg id="main" version="1.1" xmlns="http://www.w3.org/2000/svg" xmlns:xlink="http://www.w3.org/1999/xlink" xml:space="preserve" onload="init(evt)">
<style type="text/css"><![CDATA[
.edge:hover path { stroke: red; }
.edge:hover polygon { stroke: red; fill: red; }
]]></style>
<script type="text/javascript"><![CDATA[
var edges = document.getElementsByTagName('g');
if (edges && edges.length) {
  for (var i=0;i<edges.length;i++) {
    if (edges[i].id.substr(0,4)=='edge') {
      edges[i].setAttribute('class','edge');
    }
  }
}
]]></script>
        <defs>
                <circle id="rim" cx="0" cy="0" r="7"/>
                <circle id="rim2" cx="0" cy="0" r="3.5"/>
                <g id="zoomPlus">
                        <use xlink:href="#rim" fill="#404040">
                                <set attributeName="fill" to="#808080" begin="zoomplus.mouseover" end="zoomplus.mouseout"/>
                        </use>
                        <path d="M-4,0h8M0,-4v8" fill="none" stroke="white" stroke-width="1.5" pointer-events="none"/>
                </g>
                <g id="zoomMin">
                        <use xlink:href="#rim" fill="#404040">
                                <set attributeName="fill" to="#808080" begin="zoomminus.mouseover" end="zoomminus.mouseout"/>
                        </use>
                        <path d="M-4,0h8" fill="none" stroke="white" stroke-width="1.5" pointer-events="none"/>
                </g>
                <g id="dirArrow">
                        <path fill="none" stroke="white" stroke-width="1.5" d="M0,-3.0v7 M-2.5,-0.5L0,-3.0L2.5,-0.5"/>
                </g>
               <g id="resetDef">
                       <use xlink:href="#rim2" fill="#404040">
                               <set attributeName="fill" to="#808080" begin="reset.mouseover" end="reset.mouseout"/>
                       </use>
               </g>
        </defs>

<script type="text/javascript">
var viewWidth = 513;
var viewHeight = 386;
var sectionId = 'dynsection-0';
</script>
<script xlink:href="svgpan.js"/>
<svg id="graph" class="graph">
<g id="viewport">
<title>mom_open_boundary::ocean_obc_type</title>
<polygon fill="white" stroke="white" points="-4,5 -4,-382 509.933,-382 509.933,5 -4,5"/>
<!-- Node1 -->
<g id="node1" class="node"><title>Node1</title>
<g id="a_node1"><a xlink:title="Open&#45;boundary data.">
<polygon fill="#bfbfbf" stroke="black" points="185.933,-1 185.933,-31 285.933,-31 285.933,-1 185.933,-1"/>
<text text-anchor="start" x="193.933" y="-19" font-family="Helvetica,sans-Serif" font-size="10.00">mom_open_boundary::</text>
<text text-anchor="middle" x="235.933" y="-8" font-family="Helvetica,sans-Serif" font-size="10.00">ocean_obc_type</text>
</a>
</g>
</g>
<!-- Node2 -->
<g id="node2" class="node"><title>Node2</title>
<g id="a_node2"><a xlink:title=" ">
<polygon fill="white" stroke="#bfbfbf" points="44.933,-358.5 44.933,-377.5 82.933,-377.5 82.933,-358.5 44.933,-358.5"/>
<text text-anchor="middle" x="63.933" y="-365.5" font-family="Helvetica,sans-Serif" font-size="10.00">logical</text>
</a>
</g>
</g>
<!-- Node2&#45;&gt;Node1 -->
<g id="edge1" class="edge"><title>Node2&#45;&gt;Node1</title>
<path fill="none" stroke="#9a32cd" stroke-dasharray="5,2" d="M54.017,-349.494C28.1048,-301.171 -35.4464,-163.955 26.933,-80 45.9187,-54.4475 129.994,-35.3008 185.553,-25.1569"/>
<polygon fill="#9a32cd" stroke="#9a32cd" points="51.0314,-351.329 58.9162,-358.405 57.1654,-347.956 51.0314,-351.329"/>
<text text-anchor="start" x="26.933" y="-226" font-family="Helvetica,sans-Serif" font-size="10.00"> flather_v_bcs_exist</text>
<text text-anchor="middle" x="64.933" y="-215" font-family="Helvetica,sans-Serif" font-size="10.00">_globally</text>
<text text-anchor="start" x="26.933" y="-204" font-family="Helvetica,sans-Serif" font-size="10.00">nudged_u_bcs_exist</text>
<text text-anchor="middle" x="64.933" y="-193" font-family="Helvetica,sans-Serif" font-size="10.00">_globally</text>
<text text-anchor="middle" x="64.933" y="-182" font-family="Helvetica,sans-Serif" font-size="10.00">update_obc</text>
<text text-anchor="middle" x="64.933" y="-171" font-family="Helvetica,sans-Serif" font-size="10.00">obc_pe</text>
<text text-anchor="start" x="26.933" y="-160" font-family="Helvetica,sans-Serif" font-size="10.00">flather_u_bcs</text>
<text text-anchor="middle" x="64.933" y="-149" font-family="Helvetica,sans-Serif" font-size="10.00">_exist_globally</text>
<text text-anchor="start" x="26.933" y="-138" font-family="Helvetica,sans-Serif" font-size="10.00">nudged_v_bcs_exist</text>
<text text-anchor="middle" x="64.933" y="-127" font-family="Helvetica,sans-Serif" font-size="10.00">_globally</text>
<text text-anchor="start" x="26.933" y="-116" font-family="Helvetica,sans-Serif" font-size="10.00">specified_u_bcs</text>
<text text-anchor="middle" x="64.933" y="-105" font-family="Helvetica,sans-Serif" font-size="10.00">_exist_globally</text>
<text text-anchor="start" x="26.933" y="-94" font-family="Helvetica,sans-Serif" font-size="10.00">specified_v_bcs_exist</text>
<text text-anchor="middle" x="64.933" y="-83" font-family="Helvetica,sans-Serif" font-size="10.00">_globally</text>
</g>
<!-- Node4 -->
<g id="node4" class="node"><title>Node4</title>
<g id="a_node4"><a xlink:href="structmom__open__boundary_1_1obc__segment__type.html" target="_top" xlink:title="Open boundary segment type &#45; we&#39;ll have one for each open segment to describe that segment.">
<polygon fill="white" stroke="black" points="297.933,-142 297.933,-172 397.933,-172 397.933,-142 297.933,-142"/>
<text text-anchor="start" x="305.933" y="-160" font-family="Helvetica,sans-Serif" font-size="10.00">mom_open_boundary::</text>
<text text-anchor="middle" x="347.933" y="-149" font-family="Helvetica,sans-Serif" font-size="10.00">obc_segment_type</text>
</a>
</g>
</g>
<!-- Node2&#45;&gt;Node4 -->
<g id="edge4" class="edge"><title>Node2&#45;&gt;Node4</title>
<path fill="none" stroke="#9a32cd" stroke-dasharray="5,2" d="M80.2879,-351.596C107.165,-327.079 163.268,-279.181 218.933,-252 245.869,-238.847 258.705,-250.189 283.933,-234 308.903,-217.976 329.21,-189.177 339.848,-172.002"/>
<polygon fill="#9a32cd" stroke="#9a32cd" points="77.8876,-349.049 72.9177,-358.405 82.6379,-354.19 77.8876,-349.049"/>
<text text-anchor="middle" x="246.433" y="-332" font-family="Helvetica,sans-Serif" font-size="10.00"> oblique</text>
<text text-anchor="middle" x="246.433" y="-321" font-family="Helvetica,sans-Serif" font-size="10.00">specified</text>
<text text-anchor="middle" x="246.433" y="-310" font-family="Helvetica,sans-Serif" font-size="10.00">gradient</text>
<text text-anchor="middle" x="246.433" y="-299" font-family="Helvetica,sans-Serif" font-size="10.00">values_needed</text>
<text text-anchor="middle" x="246.433" y="-288" font-family="Helvetica,sans-Serif" font-size="10.00">legacy</text>
<text text-anchor="middle" x="246.433" y="-277" font-family="Helvetica,sans-Serif" font-size="10.00">nudged</text>
<text text-anchor="middle" x="246.433" y="-266" font-family="Helvetica,sans-Serif" font-size="10.00">radiation</text>
<text text-anchor="middle" x="246.433" y="-255" font-family="Helvetica,sans-Serif" font-size="10.00">flather</text>
</g>
<!-- Node3 -->
<g id="node3" class="node"><title>Node3</title>
<g id="a_node3"><a xlink:title=" ">
<polygon fill="white" stroke="#bfbfbf" points="112.433,-147.5 112.433,-166.5 197.433,-166.5 197.433,-147.5 112.433,-147.5"/>
<text text-anchor="middle" x="154.933" y="-154.5" font-family="Helvetica,sans-Serif" font-size="10.00">character(len=200)</text>
</a>
</g>
</g>
<!-- Node3&#45;&gt;Node1 -->
<g id="edge2" class="edge"><title>Node3&#45;&gt;Node1</title>
<path fill="none" stroke="#9a32cd" stroke-dasharray="5,2" d="M148.944,-137.675C142.747,-115.007 136.227,-76.2114 153.933,-50 161.406,-38.9368 173.27,-31.5819 185.678,-26.6924"/>
<polygon fill="#9a32cd" stroke="#9a32cd" points="145.629,-138.806 151.853,-147.381 152.335,-136.797 145.629,-138.806"/>
<text text-anchor="middle" x="187.933" y="-53.5" font-family="Helvetica,sans-Serif" font-size="10.00"> obc_values_config</text>
</g>
<!-- Node4&#45;&gt;Node1 -->
<g id="edge3" class="edge"><title>Node4&#45;&gt;Node1</title>
<path fill="none" stroke="#9a32cd" stroke-dasharray="5,2" d="M330.226,-134.025C306.991,-105.188 266.877,-55.4043 247.319,-31.1303"/>
<polygon fill="#9a32cd" stroke="#9a32cd" points="327.578,-136.316 336.577,-141.907 333.029,-131.924 327.578,-136.316"/>
<text text-anchor="middle" x="314.433" y="-53.5" font-family="Helvetica,sans-Serif" font-size="10.00"> obc_segment_number</text>
</g>
<!-- Node5 -->
<g id="node5" class="node"><title>Node5</title>
<g id="a_node5"><a xlink:title=" ">
<polygon fill="white" stroke="#bfbfbf" points="250.933,-358.5 250.933,-377.5 280.933,-377.5 280.933,-358.5 250.933,-358.5"/>
<text text-anchor="middle" x="265.933" y="-365.5" font-family="Helvetica,sans-Serif" font-size="10.00">real</text>
</a>
</g>
</g>
<!-- Node5&#45;&gt;Node4 -->
<g id="edge5" class="edge"><title>Node5&#45;&gt;Node4</title>
<path fill="none" stroke="#9a32cd" stroke-dasharray="5,2" d="M273.087,-348.767C289.166,-307.784 327.885,-209.097 342.354,-172.22"/>
<polygon fill="#9a32cd" stroke="#9a32cd" points="269.746,-347.698 269.352,-358.286 276.263,-350.255 269.746,-347.698"/>
<text text-anchor="middle" x="330.433" y="-299" font-family="Helvetica,sans-Serif" font-size="10.00"> tnudge_in</text>
<text text-anchor="middle" x="330.433" y="-288" font-family="Helvetica,sans-Serif" font-size="10.00">tnudge_out</text>
</g>
<!-- Node5&#45;&gt;Node1 -->
<g id="edge7" class="edge"><title>Node5&#45;&gt;Node1</title>
<path fill="none" stroke="#9a32cd" stroke-dasharray="5,2" d="M262.257,-348.164C257.405,-322.472 249.001,-274.95 244.933,-234 237.347,-157.644 236.134,-65.5597 235.956,-31.002"/>
<polygon fill="#9a32cd" stroke="#9a32cd" points="258.886,-349.17 264.209,-358.331 265.761,-347.85 258.886,-349.17"/>
<text text-anchor="middle" x="266.933" y="-215" font-family="Helvetica,sans-Serif" font-size="10.00"> rx_old_u</text>
<text text-anchor="middle" x="266.933" y="-204" font-family="Helvetica,sans-Serif" font-size="10.00">gamma_h</text>
<text text-anchor="middle" x="266.933" y="-193" font-family="Helvetica,sans-Serif" font-size="10.00">eta_outer_u</text>
<text text-anchor="middle" x="266.933" y="-182" font-family="Helvetica,sans-Serif" font-size="10.00">vbt_outer</text>
<text text-anchor="middle" x="266.933" y="-171" font-family="Helvetica,sans-Serif" font-size="10.00">ry_old_v</text>
<text text-anchor="middle" x="266.933" y="-160" font-family="Helvetica,sans-Serif" font-size="10.00">vh</text>
<text text-anchor="start" x="244.933" y="-149" font-family="Helvetica,sans-Serif" font-size="10.00">eta_outer</text>
<text text-anchor="middle" x="266.933" y="-138" font-family="Helvetica,sans-Serif" font-size="10.00">_v</text>
<text text-anchor="middle" x="266.933" y="-127" font-family="Helvetica,sans-Serif" font-size="10.00">uh</text>
<text text-anchor="middle" x="266.933" y="-116" font-family="Helvetica,sans-Serif" font-size="10.00">gamma_uv</text>
<text text-anchor="middle" x="266.933" y="-105" font-family="Helvetica,sans-Serif" font-size="10.00">rx_old_h</text>
<text text-anchor="middle" x="266.933" y="-94" font-family="Helvetica,sans-Serif" font-size="10.00">...</text>
</g>
<!-- Node6 -->
<g id="node6" class="node"><title>Node6</title>
<g id="a_node6"><a xlink:title=" ">
<polygon fill="white" stroke="#bfbfbf" points="380.433,-358.5 380.433,-377.5 421.433,-377.5 421.433,-358.5 380.433,-358.5"/>
<text text-anchor="middle" x="400.933" y="-365.5" font-family="Helvetica,sans-Serif" font-size="10.00">integer</text>
</a>
</g>
</g>
<!-- Node6&#45;&gt;Node4 -->
<g id="edge6" class="edge"><title>Node6&#45;&gt;Node4</title>
<path fill="none" stroke="#9a32cd" stroke-dasharray="5,2" d="M392.304,-348.892C391.074,-345.957 389.901,-342.922 388.933,-340 368.766,-279.123 355.268,-203.542 350.187,-172.419"/>
<polygon fill="#9a32cd" stroke="#9a32cd" points="389.186,-350.492 396.482,-358.175 395.569,-347.619 389.186,-350.492"/>
<text text-anchor="middle" x="404.433" y="-315.5" font-family="Helvetica,sans-Serif" font-size="10.00"> js_obc</text>
<text text-anchor="middle" x="404.433" y="-304.5" font-family="Helvetica,sans-Serif" font-size="10.00">direction</text>
<text text-anchor="middle" x="404.433" y="-293.5" font-family="Helvetica,sans-Serif" font-size="10.00">is_obc</text>
<text text-anchor="middle" x="404.433" y="-282.5" font-family="Helvetica,sans-Serif" font-size="10.00">je_obc</text>
<text text-anchor="middle" x="404.433" y="-271.5" font-family="Helvetica,sans-Serif" font-size="10.00">ie_obc</text>
</g>
<!-- Node6&#45;&gt;Node1 -->
<g id="edge8" class="edge"><title>Node6&#45;&gt;Node1</title>
<path fill="none" stroke="#9a32cd" stroke-dasharray="5,2" d="M415.102,-350.111C417.088,-346.927 418.827,-343.494 419.933,-340 435.335,-291.351 416.841,-96.5642 406.933,-80 382.409,-39.0011 327.322,-24.4494 286.259,-19.4096"/>
<polygon fill="#9a32cd" stroke="#9a32cd" points="412.218,-348.126 409.167,-358.272 417.879,-352.243 412.218,-348.126"/>
<text text-anchor="middle" x="464.433" y="-165.5" font-family="Helvetica,sans-Serif" font-size="10.00"> number_of_segments</text>
<text text-anchor="middle" x="464.433" y="-154.5" font-family="Helvetica,sans-Serif" font-size="10.00">obc_segment_u</text>
<text text-anchor="middle" x="464.433" y="-143.5" font-family="Helvetica,sans-Serif" font-size="10.00">obc_segment_v</text>
</g>
</g>
</svg>
        <g id="navigator" transform="translate(0 0)" fill="#404254">
                <rect fill="#f2f5e9" fill-opacity="0.5" stroke="#606060" stroke-width=".5" x="0" y="0" width="60" height="60"/>
                <use id="zoomplus" xlink:href="#zoomPlus" x="17" y="9" onmousedown="handleZoom(evt,'in')"/>
                <use id="zoomminus" xlink:href="#zoomMin" x="42" y="9" onmousedown="handleZoom(evt,'out')"/>
                <use id="reset" xlink:href="#resetDef" x="30" y="36" onmousedown="handleReset()"/>
                <g id="arrowUp" xlink:href="#dirArrow" transform="translate(30 24)" onmousedown="handlePan(0,-1)">
                  <use xlink:href="#rim" fill="#404040">
                        <set attributeName="fill" to="#808080" begin="arrowUp.mouseover" end="arrowUp.mouseout"/>
                  </use>
                  <path fill="none" stroke="white" stroke-width="1.5" d="M0,-3.0v7 M-2.5,-0.5L0,-3.0L2.5,-0.5"/>
                </g>
                <g id="arrowRight" xlink:href="#dirArrow" transform="rotate(90) translate(36 -43)" onmousedown="handlePan(1,0)">
                  <use xlink:href="#rim" fill="#404040">
                        <set attributeName="fill" to="#808080" begin="arrowRight.mouseover" end="arrowRight.mouseout"/>
                  </use>
                  <path fill="none" stroke="white" stroke-width="1.5" d="M0,-3.0v7 M-2.5,-0.5L0,-3.0L2.5,-0.5"/>
                </g>
                <g id="arrowDown" xlink:href="#dirArrow" transform="rotate(180) translate(-30 -48)" onmousedown="handlePan(0,1)">
                  <use xlink:href="#rim" fill="#404040">
                        <set attributeName="fill" to="#808080" begin="arrowDown.mouseover" end="arrowDown.mouseout"/>
                  </use>
                  <path fill="none" stroke="white" stroke-width="1.5" d="M0,-3.0v7 M-2.5,-0.5L0,-3.0L2.5,-0.5"/>
                </g>
                <g id="arrowLeft" xlink:href="#dirArrow" transform="rotate(270) translate(-36 17)" onmousedown="handlePan(-1,0)">
                  <use xlink:href="#rim" fill="#404040">
                        <set attributeName="fill" to="#808080" begin="arrowLeft.mouseover" end="arrowLeft.mouseout"/>
                  </use>
                  <path fill="none" stroke="white" stroke-width="1.5" d="M0,-3.0v7 M-2.5,-0.5L0,-3.0L2.5,-0.5"/>
                </g>
        </g>
        <svg viewBox="0 0 15 15" width="100%" height="30px" preserveAspectRatio="xMaxYMin meet">
         <g id="arrow_out" transform="scale(0.3 0.3)">
          <a xlink:href="structmom__open__boundary_1_1ocean__obc__type__coll__graph_org.svg" target="_base">
           <rect id="button" ry="5" rx="5" y="6" x="6" height="38" width="38"
                fill="#f2f5e9" fill-opacity="0.5" stroke="#606060" stroke-width="1.0"/>
           <path id="arrow"
             d="M 11.500037,31.436501 C 11.940474,20.09759 22.043105,11.32322 32.158766,21.979434 L 37.068811,17.246167 C 37.068811,17.246167 37.088388,32 37.088388,32 L 22.160133,31.978069 C 22.160133,31.978069 26.997745,27.140456 26.997745,27.140456 C 18.528582,18.264221 13.291696,25.230495 11.500037,31.436501 z"
             style="fill:#404040;"/>
          </a>
         </g>
        </svg>
</svg>
