<?xml version="1.0" encoding="UTF-8" standalone="no"?>
<!DOCTYPE svg PUBLIC "-//W3C//DTD SVG 1.1//EN"
 "http://www.w3.org/Graphics/SVG/1.1/DTD/svg11.dtd">
<!-- Generated by graphviz version 2.30.1 (20170916.1124)
 -->
<!-- Title: mom_variables::vertvisc_type Pages: 1 -->
<svg width="152pt" height="206pt"
 viewBox="0.00 0.00 152.00 206.00" xmlns="http://www.w3.org/2000/svg" xmlns:xlink="http://www.w3.org/1999/xlink">
<g id="graph0" class="graph" transform="scale(1 1) rotate(0) translate(4 202)">
<title>mom_variables::vertvisc_type</title>
<polygon fill="white" stroke="white" points="-4,5 -4,-202 149,-202 149,5 -4,5"/>
<!-- Node1 -->
<g id="node1" class="node"><title>Node1</title>
<g id="a_node1"><a xlink:title=" ">
<polygon fill="#bfbfbf" stroke="black" points="-0.5,-0.5 -0.5,-19.5 120.5,-19.5 120.5,-0.5 -0.5,-0.5"/>
<text text-anchor="middle" x="60" y="-7.5" font-family="Helvetica,sans-Serif" font-size="10.00">mom_variables::vertvisc_type</text>
</a>
</g>
</g>
<!-- Node2 -->
<g id="node2" class="node"><title>Node2</title>
<g id="a_node2"><a xlink:title=" ">
<polygon fill="white" stroke="#bfbfbf" points="14,-178.5 14,-197.5 52,-197.5 52,-178.5 14,-178.5"/>
<text text-anchor="middle" x="33" y="-185.5" font-family="Helvetica,sans-Serif" font-size="10.00">logical</text>
</a>
</g>
</g>
<!-- Node2&#45;&gt;Node1 -->
<g id="edge1" class="edge"><title>Node2&#45;&gt;Node1</title>
<path fill="none" stroke="#9a32cd" stroke-dasharray="5,2" d="M28.8198,-168.135C23.2888,-138.983 16.1752,-81.7836 34,-38 36.9445,-30.7674 42.8414,-24.3827 48.2759,-19.6403"/>
<polygon fill="#9a32cd" stroke="#9a32cd" points="25.4389,-169.071 30.8767,-178.164 32.2962,-167.665 25.4389,-169.071"/>
<text text-anchor="middle" x="49.5" y="-96.5" font-family="Helvetica,sans-Serif" font-size="10.00"> calc_bbl</text>
</g>
<!-- Node3 -->
<g id="node3" class="node"><title>Node3</title>
<g id="a_node3"><a xlink:title=" ">
<polygon fill="white" stroke="#bfbfbf" points="72,-178.5 72,-197.5 102,-197.5 102,-178.5 72,-178.5"/>
<text text-anchor="middle" x="87" y="-185.5" font-family="Helvetica,sans-Serif" font-size="10.00">real</text>
</a>
</g>
</g>
<!-- Node3&#45;&gt;Node1 -->
<g id="edge2" class="edge"><title>Node3&#45;&gt;Node1</title>
<path fill="none" stroke="#9a32cd" stroke-dasharray="5,2" d="M84.445,-168.174C80.5533,-139.873 72.7693,-84.7013 65,-38 63.9986,-31.9807 62.7486,-25.2307 61.749,-19.9855"/>
<polygon fill="#9a32cd" stroke="#9a32cd" points="81,-168.815 85.8217,-178.249 87.9356,-167.868 81,-168.815"/>
<text text-anchor="middle" x="113.5" y="-151.5" font-family="Helvetica,sans-Serif" font-size="10.00"> tbl_thick_shelf_v</text>
<text text-anchor="middle" x="113.5" y="-140.5" font-family="Helvetica,sans-Serif" font-size="10.00">bbl_thick_v</text>
<text text-anchor="middle" x="113.5" y="-129.5" font-family="Helvetica,sans-Serif" font-size="10.00">kv_turb</text>
<text text-anchor="middle" x="113.5" y="-118.5" font-family="Helvetica,sans-Serif" font-size="10.00">kd_turb</text>
<text text-anchor="middle" x="113.5" y="-107.5" font-family="Helvetica,sans-Serif" font-size="10.00">nkml_visc_u</text>
<text text-anchor="middle" x="113.5" y="-96.5" font-family="Helvetica,sans-Serif" font-size="10.00">nkml_visc_v</text>
<text text-anchor="middle" x="113.5" y="-85.5" font-family="Helvetica,sans-Serif" font-size="10.00">kv_tbl_shelf_u</text>
<text text-anchor="middle" x="113.5" y="-74.5" font-family="Helvetica,sans-Serif" font-size="10.00">tke_bbl</text>
<text text-anchor="middle" x="113.5" y="-63.5" font-family="Helvetica,sans-Serif" font-size="10.00">kv_tbl_shelf_v</text>
<text text-anchor="middle" x="113.5" y="-52.5" font-family="Helvetica,sans-Serif" font-size="10.00">ustar_bbl</text>
<text text-anchor="middle" x="113.5" y="-41.5" font-family="Helvetica,sans-Serif" font-size="10.00">...</text>
</g>
</g>
</svg>
