<?xml version="1.0" encoding="UTF-8" standalone="no"?>
<!DOCTYPE svg PUBLIC "-//W3C//DTD SVG 1.1//EN"
 "http://www.w3.org/Graphics/SVG/1.1/DTD/svg11.dtd">
<!-- Generated by graphviz version 2.30.1 (20170916.1124)
 -->
<!-- Title: mom_lateral_mixing_coeffs::varmix_cs Pages: 1 -->
<svg width="490pt" height="240pt"
 viewBox="0.00 0.00 490.00 240.00" xmlns="http://www.w3.org/2000/svg" xmlns:xlink="http://www.w3.org/1999/xlink">
<g id="graph0" class="graph" transform="scale(1 1) rotate(0) translate(4 236)">
<title>mom_lateral_mixing_coeffs::varmix_cs</title>
<polygon fill="white" stroke="white" points="-4,5 -4,-236 487,-236 487,5 -4,5"/>
<!-- Node1 -->
<g id="node1" class="node"><title>Node1</title>
<g id="a_node1"><a xlink:title="Variable mixing coefficients.">
<polygon fill="#bfbfbf" stroke="black" points="210,-1 210,-31 298,-31 298,-1 210,-1"/>
<text text-anchor="start" x="218" y="-19" font-family="Helvetica,sans-Serif" font-size="10.00">mom_lateral_mixing</text>
<text text-anchor="middle" x="254" y="-8" font-family="Helvetica,sans-Serif" font-size="10.00">_coeffs::varmix_cs</text>
</a>
</g>
</g>
<!-- Node2 -->
<g id="node2" class="node"><title>Node2</title>
<g id="a_node2"><a xlink:title=" ">
<polygon fill="white" stroke="#bfbfbf" points="0,-206.5 0,-225.5 38,-225.5 38,-206.5 0,-206.5"/>
<text text-anchor="middle" x="19" y="-213.5" font-family="Helvetica,sans-Serif" font-size="10.00">logical</text>
</a>
</g>
</g>
<!-- Node2&#45;&gt;Node1 -->
<g id="edge1" class="edge"><title>Node2&#45;&gt;Node1</title>
<path fill="none" stroke="#9a32cd" stroke-dasharray="5,2" d="M13.7577,-196.461C5.41234,-162.542 -6.39442,-90.2821 31,-50 54.4981,-24.6873 151.597,-18.592 209.638,-17.2474"/>
<polygon fill="#9a32cd" stroke="#9a32cd" points="10.4429,-197.617 16.3791,-206.393 17.2111,-195.831 10.4429,-197.617"/>
<text text-anchor="middle" x="67.5" y="-152" font-family="Helvetica,sans-Serif" font-size="10.00"> use_stored_slopes</text>
<text text-anchor="middle" x="67.5" y="-141" font-family="Helvetica,sans-Serif" font-size="10.00">khth_use_ebt_struct</text>
<text text-anchor="middle" x="67.5" y="-130" font-family="Helvetica,sans-Serif" font-size="10.00">resoln_scaled_khtr</text>
<text text-anchor="middle" x="67.5" y="-119" font-family="Helvetica,sans-Serif" font-size="10.00">resoln_scaled_kh</text>
<text text-anchor="middle" x="67.5" y="-108" font-family="Helvetica,sans-Serif" font-size="10.00">use_variable_mixing</text>
<text text-anchor="middle" x="67.5" y="-97" font-family="Helvetica,sans-Serif" font-size="10.00">resoln_use_ebt</text>
<text text-anchor="middle" x="67.5" y="-86" font-family="Helvetica,sans-Serif" font-size="10.00">resoln_scaled_khth</text>
<text text-anchor="middle" x="67.5" y="-75" font-family="Helvetica,sans-Serif" font-size="10.00">interpolate_res_fn</text>
</g>
<!-- Node3 -->
<g id="node3" class="node"><title>Node3</title>
<g id="a_node3"><a xlink:title=" ">
<polygon fill="white" stroke="#bfbfbf" points="61.5,-201 61.5,-231 156.5,-231 156.5,-201 61.5,-201"/>
<text text-anchor="start" x="69.5" y="-219" font-family="Helvetica,sans-Serif" font-size="10.00">type(wave_speed_cs)</text>
<text text-anchor="middle" x="109" y="-208" font-family="Helvetica,sans-Serif" font-size="10.00">, pointer</text>
</a>
</g>
</g>
<!-- Node3&#45;&gt;Node1 -->
<g id="edge2" class="edge"><title>Node3&#45;&gt;Node1</title>
<path fill="none" stroke="#9a32cd" stroke-dasharray="5,2" d="M107.538,-190.532C106.8,-154.925 110.878,-88.8523 147,-50 163.083,-32.7019 188.001,-24.3901 209.746,-20.4311"/>
<polygon fill="#9a32cd" stroke="#9a32cd" points="104.056,-191.081 107.913,-200.949 111.051,-190.83 104.056,-191.081"/>
<text text-anchor="middle" x="179" y="-113.5" font-family="Helvetica,sans-Serif" font-size="10.00"> wave_speed_csp</text>
</g>
<!-- Node4 -->
<g id="node4" class="node"><title>Node4</title>
<g id="a_node4"><a xlink:title=" ">
<polygon fill="white" stroke="#bfbfbf" points="175,-206.5 175,-225.5 253,-225.5 253,-206.5 175,-206.5"/>
<text text-anchor="middle" x="214" y="-213.5" font-family="Helvetica,sans-Serif" font-size="10.00">group_pass_type</text>
</a>
</g>
</g>
<!-- Node4&#45;&gt;Node1 -->
<g id="edge3" class="edge"><title>Node4&#45;&gt;Node1</title>
<path fill="none" stroke="#9a32cd" stroke-dasharray="5,2" d="M214.299,-195.856C215.282,-164.579 219.359,-100.906 236,-50 238.109,-43.5489 241.475,-36.893 244.729,-31.2634"/>
<polygon fill="#9a32cd" stroke="#9a32cd" points="210.793,-196.082 214.055,-206.163 217.791,-196.249 210.793,-196.082"/>
<text text-anchor="middle" x="254.5" y="-113.5" font-family="Helvetica,sans-Serif" font-size="10.00"> pass_cg1</text>
</g>
<!-- Node5 -->
<g id="node5" class="node"><title>Node5</title>
<g id="a_node5"><a xlink:title=" ">
<polygon fill="white" stroke="#bfbfbf" points="271.5,-206.5 271.5,-225.5 318.5,-225.5 318.5,-206.5 271.5,-206.5"/>
<text text-anchor="middle" x="295" y="-213.5" font-family="Helvetica,sans-Serif" font-size="10.00">diag_ctrl</text>
</a>
</g>
</g>
<!-- Node5&#45;&gt;Node1 -->
<g id="edge4" class="edge"><title>Node5&#45;&gt;Node1</title>
<path fill="none" stroke="#9a32cd" stroke-dasharray="5,2" d="M294.846,-196.259C294.078,-165.081 290.309,-100.954 273,-50 270.789,-43.49 267.238,-36.8231 263.802,-31.2012"/>
<polygon fill="#9a32cd" stroke="#9a32cd" points="291.35,-196.558 295.015,-206.498 298.349,-196.442 291.35,-196.558"/>
<text text-anchor="middle" x="304" y="-113.5" font-family="Helvetica,sans-Serif" font-size="10.00"> diag</text>
</g>
<!-- Node6 -->
<g id="node6" class="node"><title>Node6</title>
<g id="a_node6"><a xlink:title=" ">
<polygon fill="white" stroke="#bfbfbf" points="336.5,-206.5 336.5,-225.5 377.5,-225.5 377.5,-206.5 336.5,-206.5"/>
<text text-anchor="middle" x="357" y="-213.5" font-family="Helvetica,sans-Serif" font-size="10.00">integer</text>
</a>
</g>
</g>
<!-- Node6&#45;&gt;Node1 -->
<g id="edge5" class="edge"><title>Node6&#45;&gt;Node1</title>
<path fill="none" stroke="#9a32cd" stroke-dasharray="5,2" d="M351.791,-196.357C350.518,-191.678 349.183,-186.662 348,-182 333.181,-123.588 353.923,-97.6265 317,-50 310.872,-42.0959 302.315,-35.8899 293.479,-31.0987"/>
<polygon fill="#9a32cd" stroke="#9a32cd" points="348.511,-197.629 354.547,-206.337 355.259,-195.766 348.511,-197.629"/>
<text text-anchor="middle" x="373" y="-174" font-family="Helvetica,sans-Serif" font-size="10.00"> id_s2_u</text>
<text text-anchor="middle" x="373" y="-163" font-family="Helvetica,sans-Serif" font-size="10.00">id_s2_v</text>
<text text-anchor="middle" x="373" y="-152" font-family="Helvetica,sans-Serif" font-size="10.00">id_n2_u</text>
<text text-anchor="start" x="348" y="-141" font-family="Helvetica,sans-Serif" font-size="10.00">res_fn_power</text>
<text text-anchor="middle" x="373" y="-130" font-family="Helvetica,sans-Serif" font-size="10.00">_khth</text>
<text text-anchor="middle" x="373" y="-119" font-family="Helvetica,sans-Serif" font-size="10.00">id_n2_v</text>
<text text-anchor="middle" x="373" y="-108" font-family="Helvetica,sans-Serif" font-size="10.00">id_l2u</text>
<text text-anchor="middle" x="373" y="-97" font-family="Helvetica,sans-Serif" font-size="10.00">id_l2v</text>
<text text-anchor="middle" x="373" y="-86" font-family="Helvetica,sans-Serif" font-size="10.00">varmix_ktop</text>
<text text-anchor="middle" x="373" y="-75" font-family="Helvetica,sans-Serif" font-size="10.00">id_rd_dx</text>
<text text-anchor="middle" x="373" y="-64" font-family="Helvetica,sans-Serif" font-size="10.00">id_sn_u</text>
<text text-anchor="middle" x="373" y="-53" font-family="Helvetica,sans-Serif" font-size="10.00">...</text>
</g>
<!-- Node7 -->
<g id="node7" class="node"><title>Node7</title>
<g id="a_node7"><a xlink:title=" ">
<polygon fill="white" stroke="#bfbfbf" points="405,-206.5 405,-225.5 435,-225.5 435,-206.5 405,-206.5"/>
<text text-anchor="middle" x="420" y="-213.5" font-family="Helvetica,sans-Serif" font-size="10.00">real</text>
</a>
</g>
</g>
<!-- Node7&#45;&gt;Node1 -->
<g id="edge6" class="edge"><title>Node7&#45;&gt;Node1</title>
<path fill="none" stroke="#9a32cd" stroke-dasharray="5,2" d="M423.625,-196.575C429.103,-162.842 435.251,-90.8761 398,-50 384.698,-35.4031 335.289,-26.4262 298.029,-21.5899"/>
<polygon fill="#9a32cd" stroke="#9a32cd" points="420.174,-195.989 421.856,-206.449 427.064,-197.223 420.174,-195.989"/>
<text text-anchor="middle" x="454.5" y="-168.5" font-family="Helvetica,sans-Serif" font-size="10.00"> beta_dx2_u</text>
<text text-anchor="middle" x="454.5" y="-157.5" font-family="Helvetica,sans-Serif" font-size="10.00">beta_dx2_h</text>
<text text-anchor="middle" x="454.5" y="-146.5" font-family="Helvetica,sans-Serif" font-size="10.00">sn_u</text>
<text text-anchor="middle" x="454.5" y="-135.5" font-family="Helvetica,sans-Serif" font-size="10.00">f2_dx2_h</text>
<text text-anchor="middle" x="454.5" y="-124.5" font-family="Helvetica,sans-Serif" font-size="10.00">beta_dx2_v</text>
<text text-anchor="middle" x="454.5" y="-113.5" font-family="Helvetica,sans-Serif" font-size="10.00">sn_v</text>
<text text-anchor="middle" x="454.5" y="-102.5" font-family="Helvetica,sans-Serif" font-size="10.00">res_coef_visc</text>
<text text-anchor="middle" x="454.5" y="-91.5" font-family="Helvetica,sans-Serif" font-size="10.00">visbeck_l_scale</text>
<text text-anchor="middle" x="454.5" y="-80.5" font-family="Helvetica,sans-Serif" font-size="10.00">res_fn_q</text>
<text text-anchor="middle" x="454.5" y="-69.5" font-family="Helvetica,sans-Serif" font-size="10.00">visbeck_s_max</text>
<text text-anchor="middle" x="454.5" y="-58.5" font-family="Helvetica,sans-Serif" font-size="10.00">...</text>
</g>
</g>
</svg>
