<?xml version="1.0" encoding="UTF-8" standalone="no"?>
<!DOCTYPE svg PUBLIC "-//W3C//DTD SVG 1.1//EN"
 "http://www.w3.org/Graphics/SVG/1.1/DTD/svg11.dtd">
<!-- Generated by graphviz version 2.30.1 (20170916.1124)
 -->
<!-- Title: pseudo_salt_tracer::pseudo_salt_tracer_cs Pages: 1 -->
<svg width="412pt" height="456pt"
 viewBox="0.00 0.00 412.00 455.80" xmlns="http://www.w3.org/2000/svg" xmlns:xlink="http://www.w3.org/1999/xlink">
<g id="graph0" class="graph" transform="scale(1 1) rotate(0) translate(4 451.802)">
<title>pseudo_salt_tracer::pseudo_salt_tracer_cs</title>
<polygon fill="white" stroke="white" points="-4,5 -4,-451.802 409,-451.802 409,5 -4,5"/>
<!-- Node1 -->
<g id="node1" class="node"><title>Node1</title>
<g id="a_node1"><a xlink:title=" ">
<polygon fill="#bfbfbf" stroke="black" points="302.5,-246.802 302.5,-276.802 403.5,-276.802 403.5,-246.802 302.5,-246.802"/>
<text text-anchor="start" x="310.5" y="-264.802" font-family="Helvetica,sans-Serif" font-size="10.00">pseudo_salt_tracer</text>
<text text-anchor="middle" x="353" y="-253.802" font-family="Helvetica,sans-Serif" font-size="10.00">::pseudo_salt_tracer_cs</text>
</a>
</g>
</g>
<!-- Node2 -->
<g id="node2" class="node"><title>Node2</title>
<g id="a_node2"><a xlink:title=" ">
<polygon fill="white" stroke="#bfbfbf" points="107,-405.302 107,-424.302 145,-424.302 145,-405.302 107,-405.302"/>
<text text-anchor="middle" x="126" y="-412.302" font-family="Helvetica,sans-Serif" font-size="10.00">logical</text>
</a>
</g>
</g>
<!-- Node2&#45;&gt;Node1 -->
<g id="edge1" class="edge"><title>Node2&#45;&gt;Node1</title>
<path fill="none" stroke="#9a32cd" stroke-dasharray="5,2" d="M155.538,-417.004C189.353,-418.13 245.9,-415.181 284,-387.802 322.353,-360.241 341.233,-304.184 348.419,-277.112"/>
<polygon fill="#9a32cd" stroke="#9a32cd" points="155.565,-413.502 145.41,-416.521 155.232,-420.494 155.565,-413.502"/>
<text text-anchor="middle" x="240" y="-439.802" font-family="Helvetica,sans-Serif" font-size="10.00"> pseudo_salt_may_reinit</text>
<text text-anchor="middle" x="240" y="-428.802" font-family="Helvetica,sans-Serif" font-size="10.00">coupled_tracers</text>
<text text-anchor="middle" x="240" y="-417.802" font-family="Helvetica,sans-Serif" font-size="10.00">mask_tracers</text>
</g>
<!-- Node3 -->
<g id="node3" class="node"><title>Node3</title>
<g id="a_node3"><a xlink:title=" ">
<polygon fill="white" stroke="#bfbfbf" points="100.5,-367.302 100.5,-386.302 151.5,-386.302 151.5,-367.302 100.5,-367.302"/>
<text text-anchor="middle" x="126" y="-374.302" font-family="Helvetica,sans-Serif" font-size="10.00">time_type</text>
</a>
</g>
</g>
<!-- Node3&#45;&gt;Node1 -->
<g id="edge2" class="edge"><title>Node3&#45;&gt;Node1</title>
<path fill="none" stroke="#9a32cd" stroke-dasharray="5,2" d="M161.938,-376.614C195.472,-374.958 246.429,-368.456 284,-345.802 311.958,-328.943 333.325,-296.196 344.145,-276.947"/>
<polygon fill="#9a32cd" stroke="#9a32cd" points="161.564,-373.125 151.702,-376.995 161.825,-380.12 161.564,-373.125"/>
<text text-anchor="middle" x="240" y="-375.802" font-family="Helvetica,sans-Serif" font-size="10.00"> time</text>
</g>
<!-- Node4 -->
<g id="node4" class="node"><title>Node4</title>
<g id="a_node4"><a xlink:title=" ">
<polygon fill="white" stroke="#bfbfbf" points="82,-329.302 82,-348.302 170,-348.302 170,-329.302 82,-329.302"/>
<text text-anchor="middle" x="126" y="-336.302" font-family="Helvetica,sans-Serif" font-size="10.00">tracer_registry_type</text>
</a>
</g>
</g>
<!-- Node4&#45;&gt;Node1 -->
<g id="edge3" class="edge"><title>Node4&#45;&gt;Node1</title>
<path fill="none" stroke="#9a32cd" stroke-dasharray="5,2" d="M180.431,-332.54C211.494,-327.692 250.913,-319.431 284,-305.802 301.682,-298.518 319.768,-286.555 332.839,-276.941"/>
<polygon fill="#9a32cd" stroke="#9a32cd" points="179.614,-329.123 170.238,-334.056 180.644,-336.046 179.614,-329.123"/>
<text text-anchor="middle" x="240" y="-333.802" font-family="Helvetica,sans-Serif" font-size="10.00"> tr_reg</text>
</g>
<!-- Node5 -->
<g id="node5" class="node"><title>Node5</title>
<g id="a_node5"><a xlink:title=" ">
<polygon fill="white" stroke="#bfbfbf" points="104,-291.302 104,-310.302 148,-310.302 148,-291.302 104,-291.302"/>
<text text-anchor="middle" x="126" y="-298.302" font-family="Helvetica,sans-Serif" font-size="10.00">vardesc</text>
</a>
</g>
</g>
<!-- Node5&#45;&gt;Node1 -->
<g id="edge4" class="edge"><title>Node5&#45;&gt;Node1</title>
<path fill="none" stroke="#9a32cd" stroke-dasharray="5,2" d="M158.128,-296.268C189.855,-291.548 240.456,-283.747 284,-275.802 289.929,-274.72 296.135,-273.527 302.286,-272.307"/>
<polygon fill="#9a32cd" stroke="#9a32cd" points="157.509,-292.822 148.129,-297.747 158.533,-299.746 157.509,-292.822"/>
<text text-anchor="middle" x="240" y="-293.802" font-family="Helvetica,sans-Serif" font-size="10.00"> tr_desc</text>
</g>
<!-- Node6 -->
<g id="node6" class="node"><title>Node6</title>
<g id="a_node6"><a xlink:title=" ">
<polygon fill="white" stroke="#bfbfbf" points="78.5,-241.802 78.5,-271.802 173.5,-271.802 173.5,-241.802 78.5,-241.802"/>
<text text-anchor="start" x="86.5" y="-259.802" font-family="Helvetica,sans-Serif" font-size="10.00">type(mom_restart_cs)</text>
<text text-anchor="middle" x="126" y="-248.802" font-family="Helvetica,sans-Serif" font-size="10.00">, pointer</text>
</a>
</g>
</g>
<!-- Node6&#45;&gt;Node1 -->
<g id="edge5" class="edge"><title>Node6&#45;&gt;Node1</title>
<path fill="none" stroke="#9a32cd" stroke-dasharray="5,2" d="M183.627,-258.06C220.164,-258.872 267.238,-259.918 302.318,-260.698"/>
<polygon fill="#9a32cd" stroke="#9a32cd" points="183.695,-254.561 173.62,-257.838 183.54,-261.559 183.695,-254.561"/>
<text text-anchor="middle" x="240" y="-263.802" font-family="Helvetica,sans-Serif" font-size="10.00"> restart_csp</text>
</g>
<!-- Node7 -->
<g id="node7" class="node"><title>Node7</title>
<g id="a_node7"><a xlink:href="structpseudo__salt__tracer_1_1p3d.html" target="_top" xlink:title=" ">
<polygon fill="white" stroke="black" points="74.5,-203.302 74.5,-222.302 177.5,-222.302 177.5,-203.302 74.5,-203.302"/>
<text text-anchor="middle" x="126" y="-210.302" font-family="Helvetica,sans-Serif" font-size="10.00">pseudo_salt_tracer::p3d</text>
</a>
</g>
</g>
<!-- Node7&#45;&gt;Node1 -->
<g id="edge6" class="edge"><title>Node7&#45;&gt;Node1</title>
<path fill="none" stroke="#9a32cd" stroke-dasharray="5,2" d="M188.02,-202.822C217.697,-200.26 253.465,-200.623 284,-210.802 305.139,-217.848 324.999,-234.326 337.734,-246.657"/>
<polygon fill="#9a32cd" stroke="#9a32cd" points="187.399,-199.367 177.795,-203.84 188.092,-206.332 187.399,-199.367"/>
<text text-anchor="middle" x="240" y="-246.802" font-family="Helvetica,sans-Serif" font-size="10.00"> tr_adx</text>
<text text-anchor="middle" x="240" y="-235.802" font-family="Helvetica,sans-Serif" font-size="10.00">tr_dfx</text>
<text text-anchor="middle" x="240" y="-224.802" font-family="Helvetica,sans-Serif" font-size="10.00">tr_ady</text>
<text text-anchor="middle" x="240" y="-213.802" font-family="Helvetica,sans-Serif" font-size="10.00">tr_dfy</text>
</g>
<!-- Node8 -->
<g id="node8" class="node"><title>Node8</title>
<g id="a_node8"><a xlink:title=" ">
<polygon fill="white" stroke="#bfbfbf" points="0,-165.302 0,-184.302 30,-184.302 30,-165.302 0,-165.302"/>
<text text-anchor="middle" x="15" y="-172.302" font-family="Helvetica,sans-Serif" font-size="10.00">real</text>
</a>
</g>
</g>
<!-- Node8&#45;&gt;Node7 -->
<g id="edge7" class="edge"><title>Node8&#45;&gt;Node7</title>
<path fill="none" stroke="#9a32cd" stroke-dasharray="5,2" d="M39.9428,-183.149C56.8724,-189.051 79.6143,-196.979 97.3229,-203.153"/>
<polygon fill="#9a32cd" stroke="#9a32cd" points="40.8447,-179.757 30.2498,-179.769 38.5403,-186.366 40.8447,-179.757"/>
<text text-anchor="middle" x="52" y="-191.802" font-family="Helvetica,sans-Serif" font-size="10.00"> p</text>
</g>
<!-- Node8&#45;&gt;Node1 -->
<g id="edge9" class="edge"><title>Node8&#45;&gt;Node1</title>
<path fill="none" stroke="#9a32cd" stroke-dasharray="5,2" d="M40.0805,-167.637C50.4205,-164.914 62.7014,-162.146 74,-160.802 119.898,-155.341 132.428,-153.077 178,-160.802 227.197,-169.141 241.342,-171.913 284,-197.802 305.898,-211.091 326.668,-232.355 339.361,-246.688"/>
<polygon fill="#9a32cd" stroke="#9a32cd" points="38.8312,-164.351 30.1301,-170.396 40.7018,-171.097 38.8312,-164.351"/>
<text text-anchor="middle" x="126" y="-185.802" font-family="Helvetica,sans-Serif" font-size="10.00"> diff</text>
<text text-anchor="middle" x="126" y="-174.802" font-family="Helvetica,sans-Serif" font-size="10.00">land_val</text>
<text text-anchor="middle" x="126" y="-163.802" font-family="Helvetica,sans-Serif" font-size="10.00">tr</text>
</g>
<!-- Node9 -->
<g id="node9" class="node"><title>Node9</title>
<g id="a_node9"><a xlink:title=" ">
<polygon fill="white" stroke="#bfbfbf" points="102.5,-96.3016 102.5,-115.302 149.5,-115.302 149.5,-96.3016 102.5,-96.3016"/>
<text text-anchor="middle" x="126" y="-103.302" font-family="Helvetica,sans-Serif" font-size="10.00">diag_ctrl</text>
</a>
</g>
</g>
<!-- Node9&#45;&gt;Node1 -->
<g id="edge8" class="edge"><title>Node9&#45;&gt;Node1</title>
<path fill="none" stroke="#9a32cd" stroke-dasharray="5,2" d="M160.011,-101.786C194.198,-99.4129 247.611,-100.901 284,-126.802 325.264,-156.172 342.959,-217.988 349.169,-246.634"/>
<polygon fill="#9a32cd" stroke="#9a32cd" points="159.301,-98.3333 149.633,-102.666 159.893,-105.308 159.301,-98.3333"/>
<text text-anchor="middle" x="240" y="-129.802" font-family="Helvetica,sans-Serif" font-size="10.00"> diag</text>
</g>
<!-- Node10 -->
<g id="node10" class="node"><title>Node10</title>
<g id="a_node10"><a xlink:title=" ">
<polygon fill="white" stroke="#bfbfbf" points="105.5,-6.30165 105.5,-25.3016 146.5,-25.3016 146.5,-6.30165 105.5,-6.30165"/>
<text text-anchor="middle" x="126" y="-13.3016" font-family="Helvetica,sans-Serif" font-size="10.00">integer</text>
</a>
</g>
</g>
<!-- Node10&#45;&gt;Node1 -->
<g id="edge10" class="edge"><title>Node10&#45;&gt;Node1</title>
<path fill="none" stroke="#9a32cd" stroke-dasharray="5,2" d="M156.486,-7.3052C190.895,0.676287 247.696,7.59665 284,-20.8016 320.639,-49.4619 343.54,-198.615 350.068,-246.784"/>
<polygon fill="#9a32cd" stroke="#9a32cd" points="155.429,-3.96153 146.574,-9.77835 157.124,-10.7533 155.429,-3.96153"/>
<text text-anchor="middle" x="240" y="-89.8016" font-family="Helvetica,sans-Serif" font-size="10.00"> id_tracer</text>
<text text-anchor="middle" x="240" y="-78.8016" font-family="Helvetica,sans-Serif" font-size="10.00">id_tr_dfx</text>
<text text-anchor="middle" x="240" y="-67.8016" font-family="Helvetica,sans-Serif" font-size="10.00">ntr</text>
<text text-anchor="middle" x="240" y="-56.8016" font-family="Helvetica,sans-Serif" font-size="10.00">id_tr_dfy</text>
<text text-anchor="middle" x="240" y="-45.8016" font-family="Helvetica,sans-Serif" font-size="10.00">id_tr_adx</text>
<text text-anchor="middle" x="240" y="-34.8016" font-family="Helvetica,sans-Serif" font-size="10.00">ind_tr</text>
<text text-anchor="middle" x="240" y="-23.8016" font-family="Helvetica,sans-Serif" font-size="10.00">id_tr_ady</text>
</g>
</g>
</svg>
