<?xml version="1.0" encoding="UTF-8" standalone="no"?>
<!DOCTYPE svg PUBLIC "-//W3C//DTD SVG 1.1//EN"
 "http://www.w3.org/Graphics/SVG/1.1/DTD/svg11.dtd">
<!-- Generated by graphviz version 2.30.1 (20170916.1124)
 -->
<!-- Title: mom_regridding::regridding_cs Pages: 1 -->
<svg width="334pt" height="216pt"
 viewBox="0.00 0.00 334.00 216.00" xmlns="http://www.w3.org/2000/svg" xmlns:xlink="http://www.w3.org/1999/xlink">
<g id="graph0" class="graph" transform="scale(1 1) rotate(0) translate(4 212)">
<title>mom_regridding::regridding_cs</title>
<polygon fill="white" stroke="white" points="-4,5 -4,-212 331,-212 331,5 -4,5"/>
<!-- Node1 -->
<g id="node1" class="node"><title>Node1</title>
<g id="a_node1"><a xlink:title="Regridding control structure.">
<polygon fill="#bfbfbf" stroke="black" points="75,-0.5 75,-19.5 203,-19.5 203,-0.5 75,-0.5"/>
<text text-anchor="middle" x="139" y="-7.5" font-family="Helvetica,sans-Serif" font-size="10.00">mom_regridding::regridding_cs</text>
</a>
</g>
</g>
<!-- Node2 -->
<g id="node2" class="node"><title>Node2</title>
<g id="a_node2"><a xlink:title=" ">
<polygon fill="white" stroke="#bfbfbf" points="0,-188.5 0,-207.5 38,-207.5 38,-188.5 0,-188.5"/>
<text text-anchor="middle" x="19" y="-195.5" font-family="Helvetica,sans-Serif" font-size="10.00">logical</text>
</a>
</g>
</g>
<!-- Node2&#45;&gt;Node1 -->
<g id="edge1" class="edge"><title>Node2&#45;&gt;Node1</title>
<path fill="none" stroke="#9a32cd" stroke-dasharray="5,2" d="M15.2065,-178.518C9.66935,-145.905 3.46475,-77.8351 38,-38 47.5116,-27.0287 60.9418,-20.2777 74.9125,-16.1808"/>
<polygon fill="#9a32cd" stroke="#9a32cd" points="11.7893,-179.285 17.0694,-188.47 18.6698,-177.997 11.7893,-179.285"/>
<text text-anchor="middle" x="86.5" y="-123.5" font-family="Helvetica,sans-Serif" font-size="10.00"> fix_haloclines</text>
<text text-anchor="middle" x="86.5" y="-112.5" font-family="Helvetica,sans-Serif" font-size="10.00">target_density_set</text>
<text text-anchor="middle" x="86.5" y="-101.5" font-family="Helvetica,sans-Serif" font-size="10.00">set_maximum_depths</text>
<text text-anchor="middle" x="86.5" y="-90.5" font-family="Helvetica,sans-Serif" font-size="10.00">boundary_extrapolation</text>
<text text-anchor="middle" x="86.5" y="-79.5" font-family="Helvetica,sans-Serif" font-size="10.00">integrate_downward_for_e</text>
</g>
<!-- Node3 -->
<g id="node3" class="node"><title>Node3</title>
<g id="a_node3"><a xlink:title=" ">
<polygon fill="white" stroke="#bfbfbf" points="118.5,-188.5 118.5,-207.5 159.5,-207.5 159.5,-188.5 118.5,-188.5"/>
<text text-anchor="middle" x="139" y="-195.5" font-family="Helvetica,sans-Serif" font-size="10.00">integer</text>
</a>
</g>
</g>
<!-- Node3&#45;&gt;Node1 -->
<g id="edge2" class="edge"><title>Node3&#45;&gt;Node1</title>
<path fill="none" stroke="#9a32cd" stroke-dasharray="5,2" d="M139,-177.86C139,-138.211 139,-48.4172 139,-19.8812"/>
<polygon fill="#9a32cd" stroke="#9a32cd" points="135.5,-178.029 139,-188.029 142.5,-178.029 135.5,-178.029"/>
<text text-anchor="middle" x="178.5" y="-123.5" font-family="Helvetica,sans-Serif" font-size="10.00"> interpolation_scheme</text>
<text text-anchor="middle" x="178.5" y="-112.5" font-family="Helvetica,sans-Serif" font-size="10.00">degree_i</text>
<text text-anchor="middle" x="178.5" y="-101.5" font-family="Helvetica,sans-Serif" font-size="10.00">nz_fixed_surface</text>
<text text-anchor="middle" x="178.5" y="-90.5" font-family="Helvetica,sans-Serif" font-size="10.00">regridding_scheme</text>
<text text-anchor="middle" x="178.5" y="-79.5" font-family="Helvetica,sans-Serif" font-size="10.00">nk</text>
</g>
<!-- Node4 -->
<g id="node4" class="node"><title>Node4</title>
<g id="a_node4"><a xlink:title=" ">
<polygon fill="white" stroke="#bfbfbf" points="226,-188.5 226,-207.5 256,-207.5 256,-188.5 226,-188.5"/>
<text text-anchor="middle" x="241" y="-195.5" font-family="Helvetica,sans-Serif" font-size="10.00">real</text>
</a>
</g>
</g>
<!-- Node4&#45;&gt;Node1 -->
<g id="edge3" class="edge"><title>Node4&#45;&gt;Node1</title>
<path fill="none" stroke="#9a32cd" stroke-dasharray="5,2" d="M244.187,-178.234C248.58,-145.721 252.537,-78.5193 219,-38 211.897,-29.4178 201.96,-23.5517 191.499,-19.5453"/>
<polygon fill="#9a32cd" stroke="#9a32cd" points="240.716,-177.775 242.675,-188.187 247.637,-178.826 240.716,-177.775"/>
<text text-anchor="middle" x="286.5" y="-162" font-family="Helvetica,sans-Serif" font-size="10.00"> halocline_strat_tol</text>
<text text-anchor="middle" x="286.5" y="-151" font-family="Helvetica,sans-Serif" font-size="10.00">target_density</text>
<text text-anchor="middle" x="286.5" y="-140" font-family="Helvetica,sans-Serif" font-size="10.00">max_interface_depths</text>
<text text-anchor="middle" x="286.5" y="-129" font-family="Helvetica,sans-Serif" font-size="10.00">ref_pressure</text>
<text text-anchor="middle" x="286.5" y="-118" font-family="Helvetica,sans-Serif" font-size="10.00">coordinateresolution</text>
<text text-anchor="start" x="247" y="-107" font-family="Helvetica,sans-Serif" font-size="10.00">depth_of_time_filter</text>
<text text-anchor="middle" x="286.5" y="-96" font-family="Helvetica,sans-Serif" font-size="10.00">_deep</text>
<text text-anchor="middle" x="286.5" y="-85" font-family="Helvetica,sans-Serif" font-size="10.00">rho_ml_avg_depth</text>
<text text-anchor="middle" x="286.5" y="-74" font-family="Helvetica,sans-Serif" font-size="10.00">max_layer_thickness</text>
<text text-anchor="middle" x="286.5" y="-63" font-family="Helvetica,sans-Serif" font-size="10.00">nlay_ml_offset</text>
<text text-anchor="middle" x="286.5" y="-52" font-family="Helvetica,sans-Serif" font-size="10.00">min_thickness</text>
<text text-anchor="middle" x="286.5" y="-41" font-family="Helvetica,sans-Serif" font-size="10.00">...</text>
</g>
</g>
</svg>
