<?xml version="1.0" encoding="UTF-8" standalone="no"?>
<!DOCTYPE svg PUBLIC "-//W3C//DTD SVG 1.1//EN"
 "http://www.w3.org/Graphics/SVG/1.1/DTD/svg11.dtd">
<!-- Generated by graphviz version 2.30.1 (20170916.1124)
 -->
<!-- Title: ocean_model_mod::ocean_state_type Pages: 1 -->
<!--zoomable 641 -->
<svg id="main" version="1.1" xmlns="http://www.w3.org/2000/svg" xmlns:xlink="http://www.w3.org/1999/xlink" xml:space="preserve" onload="init(evt)">
<style type="text/css"><![CDATA[
.edge:hover path { stroke: red; }
.edge:hover polygon { stroke: red; fill: red; }
]]></style>
<script type="text/javascript"><![CDATA[
var edges = document.getElementsByTagName('g');
if (edges && edges.length) {
  for (var i=0;i<edges.length;i++) {
    if (edges[i].id.substr(0,4)=='edge') {
      edges[i].setAttribute('class','edge');
    }
  }
}
]]></script>
        <defs>
                <circle id="rim" cx="0" cy="0" r="7"/>
                <circle id="rim2" cx="0" cy="0" r="3.5"/>
                <g id="zoomPlus">
                        <use xlink:href="#rim" fill="#404040">
                                <set attributeName="fill" to="#808080" begin="zoomplus.mouseover" end="zoomplus.mouseout"/>
                        </use>
                        <path d="M-4,0h8M0,-4v8" fill="none" stroke="white" stroke-width="1.5" pointer-events="none"/>
                </g>
                <g id="zoomMin">
                        <use xlink:href="#rim" fill="#404040">
                                <set attributeName="fill" to="#808080" begin="zoomminus.mouseover" end="zoomminus.mouseout"/>
                        </use>
                        <path d="M-4,0h8" fill="none" stroke="white" stroke-width="1.5" pointer-events="none"/>
                </g>
                <g id="dirArrow">
                        <path fill="none" stroke="white" stroke-width="1.5" d="M0,-3.0v7 M-2.5,-0.5L0,-3.0L2.5,-0.5"/>
                </g>
               <g id="resetDef">
                       <use xlink:href="#rim2" fill="#404040">
                               <set attributeName="fill" to="#808080" begin="reset.mouseover" end="reset.mouseout"/>
                       </use>
               </g>
        </defs>

<script type="text/javascript">
var viewWidth = 340;
var viewHeight = 641;
var sectionId = 'dynsection-0';
</script>
<script xlink:href="svgpan.js"/>
<svg id="graph" class="graph">
<g id="viewport">
<title>ocean_model_mod::ocean_state_type</title>
<polygon fill="white" stroke="white" points="-4,5 -4,-637 337,-637 337,5 -4,5"/>
<!-- Node1 -->
<g id="node1" class="node"><title>Node1</title>
<g id="a_node1"><a xlink:title=" ">
<polygon fill="#bfbfbf" stroke="black" points="220.5,-287 220.5,-317 331.5,-317 331.5,-287 220.5,-287"/>
<text text-anchor="start" x="228.5" y="-305" font-family="Helvetica,sans-Serif" font-size="10.00">ocean_model_mod::ocean</text>
<text text-anchor="middle" x="276" y="-294" font-family="Helvetica,sans-Serif" font-size="10.00">_state_type</text>
</a>
</g>
</g>
<!-- Node2 -->
<g id="node2" class="node"><title>Node2</title>
<g id="a_node2"><a xlink:title=" ">
<polygon fill="white" stroke="#bfbfbf" points="35,-553.5 35,-572.5 73,-572.5 73,-553.5 35,-553.5"/>
<text text-anchor="middle" x="54" y="-560.5" font-family="Helvetica,sans-Serif" font-size="10.00">logical</text>
</a>
</g>
</g>
<!-- Node2&#45;&gt;Node1 -->
<g id="edge1" class="edge"><title>Node2&#45;&gt;Node1</title>
<path fill="none" stroke="#9a32cd" stroke-dasharray="5,2" d="M83.5239,-567.022C116.113,-569.935 169.163,-569.308 202,-541 270.679,-481.795 275.874,-359.962 275.467,-317.223"/>
<polygon fill="#9a32cd" stroke="#9a32cd" points="83.6299,-563.514 73.3151,-565.934 82.8875,-570.475 83.6299,-563.514"/>
<text text-anchor="start" x="126" y="-625" font-family="Helvetica,sans-Serif" font-size="10.00"> icebergs_apply_rigid</text>
<text text-anchor="middle" x="164" y="-614" font-family="Helvetica,sans-Serif" font-size="10.00">_boundary</text>
<text text-anchor="middle" x="164" y="-603" font-family="Helvetica,sans-Serif" font-size="10.00">restore_temp</text>
<text text-anchor="middle" x="164" y="-592" font-family="Helvetica,sans-Serif" font-size="10.00">restore_salinity</text>
<text text-anchor="middle" x="164" y="-581" font-family="Helvetica,sans-Serif" font-size="10.00">is_ocean_pe</text>
<text text-anchor="middle" x="164" y="-570" font-family="Helvetica,sans-Serif" font-size="10.00">use_ice_shelf</text>
</g>
<!-- Node3 -->
<g id="node3" class="node"><title>Node3</title>
<g id="a_node3"><a xlink:title=" ">
<polygon fill="white" stroke="#bfbfbf" points="28.5,-499.5 28.5,-518.5 79.5,-518.5 79.5,-499.5 28.5,-499.5"/>
<text text-anchor="middle" x="54" y="-506.5" font-family="Helvetica,sans-Serif" font-size="10.00">time_type</text>
</a>
</g>
</g>
<!-- Node3&#45;&gt;Node1 -->
<g id="edge2" class="edge"><title>Node3&#45;&gt;Node1</title>
<path fill="none" stroke="#9a32cd" stroke-dasharray="5,2" d="M89.657,-507.229C127.549,-504.633 185.136,-498.541 202,-485 255.876,-441.74 270.18,-352.81 273.818,-317.218"/>
<polygon fill="#9a32cd" stroke="#9a32cd" points="89.2997,-503.745 79.5419,-507.872 89.7438,-510.731 89.2997,-503.745"/>
<text text-anchor="middle" x="164" y="-529" font-family="Helvetica,sans-Serif" font-size="10.00"> energysavedays</text>
<text text-anchor="middle" x="164" y="-518" font-family="Helvetica,sans-Serif" font-size="10.00">write_energy_time</text>
<text text-anchor="middle" x="164" y="-507" font-family="Helvetica,sans-Serif" font-size="10.00">time</text>
</g>
<!-- Node4 -->
<g id="node4" class="node"><title>Node4</title>
<g id="a_node4"><a xlink:title=" ">
<polygon fill="white" stroke="#bfbfbf" points="27.5,-461.5 27.5,-480.5 80.5,-480.5 80.5,-461.5 27.5,-461.5"/>
<text text-anchor="middle" x="54" y="-468.5" font-family="Helvetica,sans-Serif" font-size="10.00">directories</text>
</a>
</g>
</g>
<!-- Node4&#45;&gt;Node1 -->
<g id="edge3" class="edge"><title>Node4&#45;&gt;Node1</title>
<path fill="none" stroke="#9a32cd" stroke-dasharray="5,2" d="M90.8004,-473.21C122.913,-473.356 169.803,-468.819 202,-445 245.473,-412.84 264.98,-347.3 271.878,-317.441"/>
<polygon fill="#9a32cd" stroke="#9a32cd" points="90.5878,-469.705 80.5191,-473.002 90.4463,-476.704 90.5878,-469.705"/>
<text text-anchor="middle" x="164" y="-475" font-family="Helvetica,sans-Serif" font-size="10.00"> dirs</text>
</g>
<!-- Node5 -->
<g id="node5" class="node"><title>Node5</title>
<g id="a_node5"><a xlink:title=" ">
<polygon fill="white" stroke="#bfbfbf" points="32.5,-423.5 32.5,-442.5 75.5,-442.5 75.5,-423.5 32.5,-423.5"/>
<text text-anchor="middle" x="54" y="-430.5" font-family="Helvetica,sans-Serif" font-size="10.00">surface</text>
</a>
</g>
</g>
<!-- Node5&#45;&gt;Node1 -->
<g id="edge4" class="edge"><title>Node5&#45;&gt;Node1</title>
<path fill="none" stroke="#9a32cd" stroke-dasharray="5,2" d="M86.1506,-433.352C117.717,-432.302 166.787,-426.68 202,-404 235.32,-382.54 258.16,-340.039 268.58,-317.262"/>
<polygon fill="#9a32cd" stroke="#9a32cd" points="85.697,-429.86 75.7668,-433.553 85.8327,-436.859 85.697,-429.86"/>
<text text-anchor="middle" x="164" y="-433" font-family="Helvetica,sans-Serif" font-size="10.00"> state</text>
</g>
<!-- Node6 -->
<g id="node6" class="node"><title>Node6</title>
<g id="a_node6"><a xlink:title=" ">
<polygon fill="white" stroke="#bfbfbf" points="33.5,-385.5 33.5,-404.5 74.5,-404.5 74.5,-385.5 33.5,-385.5"/>
<text text-anchor="middle" x="54" y="-392.5" font-family="Helvetica,sans-Serif" font-size="10.00">forcing</text>
</a>
</g>
</g>
<!-- Node6&#45;&gt;Node1 -->
<g id="edge5" class="edge"><title>Node6&#45;&gt;Node1</title>
<path fill="none" stroke="#9a32cd" stroke-dasharray="5,2" d="M84.6732,-388.885C115.062,-381.993 163.21,-369.309 202,-351 221.463,-341.813 241.632,-327.882 255.824,-317.219"/>
<polygon fill="#9a32cd" stroke="#9a32cd" points="83.7218,-385.51 74.7094,-391.08 85.2284,-392.346 83.7218,-385.51"/>
<text text-anchor="middle" x="164" y="-392" font-family="Helvetica,sans-Serif" font-size="10.00"> flux_tmp</text>
<text text-anchor="middle" x="164" y="-381" font-family="Helvetica,sans-Serif" font-size="10.00">fluxes</text>
</g>
<!-- Node7 -->
<g id="node7" class="node"><title>Node7</title>
<g id="a_node7"><a xlink:title=" ">
<polygon fill="white" stroke="#bfbfbf" points="8,-336 8,-366 100,-366 100,-336 8,-336"/>
<text text-anchor="start" x="16" y="-354" font-family="Helvetica,sans-Serif" font-size="10.00">type(sum_output_cs)</text>
<text text-anchor="middle" x="54" y="-343" font-family="Helvetica,sans-Serif" font-size="10.00">, pointer</text>
</a>
</g>
</g>
<!-- Node7&#45;&gt;Node1 -->
<g id="edge6" class="edge"><title>Node7&#45;&gt;Node1</title>
<path fill="none" stroke="#9a32cd" stroke-dasharray="5,2" d="M110.181,-338.71C143.839,-331.213 186.697,-321.667 220.272,-314.189"/>
<polygon fill="#9a32cd" stroke="#9a32cd" points="109.051,-335.376 100.051,-340.966 110.573,-342.208 109.051,-335.376"/>
<text text-anchor="middle" x="164" y="-339" font-family="Helvetica,sans-Serif" font-size="10.00"> sum_output_csp</text>
</g>
<!-- Node8 -->
<g id="node8" class="node"><title>Node8</title>
<g id="a_node8"><a xlink:title=" ">
<polygon fill="white" stroke="#bfbfbf" points="0,-287 0,-317 108,-317 108,-287 0,-287"/>
<text text-anchor="start" x="8" y="-305" font-family="Helvetica,sans-Serif" font-size="10.00">type(mom_control_struct)</text>
<text text-anchor="middle" x="54" y="-294" font-family="Helvetica,sans-Serif" font-size="10.00">, pointer</text>
</a>
</g>
</g>
<!-- Node8&#45;&gt;Node1 -->
<g id="edge7" class="edge"><title>Node8&#45;&gt;Node1</title>
<path fill="none" stroke="#9a32cd" stroke-dasharray="5,2" d="M118.469,-302C150.689,-302 189.438,-302 220.322,-302"/>
<polygon fill="#9a32cd" stroke="#9a32cd" points="118.256,-298.5 108.256,-302 118.256,-305.5 118.256,-298.5"/>
<text text-anchor="middle" x="164" y="-305" font-family="Helvetica,sans-Serif" font-size="10.00"> mom_csp</text>
</g>
<!-- Node9 -->
<g id="node9" class="node"><title>Node9</title>
<g id="a_node9"><a xlink:title=" ">
<polygon fill="white" stroke="#bfbfbf" points="9.5,-238 9.5,-268 98.5,-268 98.5,-238 9.5,-238"/>
<text text-anchor="start" x="17.5" y="-256" font-family="Helvetica,sans-Serif" font-size="10.00">type(surface_forcing</text>
<text text-anchor="middle" x="54" y="-245" font-family="Helvetica,sans-Serif" font-size="10.00">_cs), pointer</text>
</a>
</g>
</g>
<!-- Node9&#45;&gt;Node1 -->
<g id="edge8" class="edge"><title>Node9&#45;&gt;Node1</title>
<path fill="none" stroke="#9a32cd" stroke-dasharray="5,2" d="M108.915,-265.008C142.812,-272.558 186.41,-282.269 220.431,-289.846"/>
<polygon fill="#9a32cd" stroke="#9a32cd" points="109.25,-261.497 98.728,-262.739 107.728,-268.33 109.25,-261.497"/>
<text text-anchor="middle" x="164" y="-288" font-family="Helvetica,sans-Serif" font-size="10.00"> forcing_csp</text>
</g>
<!-- Node10 -->
<g id="node10" class="node"><title>Node10</title>
<g id="a_node10"><a xlink:title=" ">
<polygon fill="white" stroke="#bfbfbf" points="6.5,-189 6.5,-219 101.5,-219 101.5,-189 6.5,-189"/>
<text text-anchor="start" x="14.5" y="-207" font-family="Helvetica,sans-Serif" font-size="10.00">type(verticalgrid_type)</text>
<text text-anchor="middle" x="54" y="-196" font-family="Helvetica,sans-Serif" font-size="10.00">, pointer</text>
</a>
</g>
</g>
<!-- Node10&#45;&gt;Node1 -->
<g id="edge9" class="edge"><title>Node10&#45;&gt;Node1</title>
<path fill="none" stroke="#9a32cd" stroke-dasharray="5,2" d="M111.184,-219.436C139.153,-228.032 173.08,-239.86 202,-254 220.941,-263.261 240.834,-276.616 255.062,-286.889"/>
<polygon fill="#9a32cd" stroke="#9a32cd" points="112.142,-216.069 101.557,-216.531 110.12,-222.77 112.142,-216.069"/>
<text text-anchor="middle" x="164" y="-257" font-family="Helvetica,sans-Serif" font-size="10.00"> gv</text>
</g>
<!-- Node11 -->
<g id="node11" class="node"><title>Node11</title>
<g id="a_node11"><a xlink:title=" ">
<polygon fill="white" stroke="#bfbfbf" points="16,-150.5 16,-169.5 92,-169.5 92,-150.5 16,-150.5"/>
<text text-anchor="middle" x="54" y="-157.5" font-family="Helvetica,sans-Serif" font-size="10.00">ocean_grid_type</text>
</a>
</g>
</g>
<!-- Node11&#45;&gt;Node1 -->
<g id="edge10" class="edge"><title>Node11&#45;&gt;Node1</title>
<path fill="none" stroke="#9a32cd" stroke-dasharray="5,2" d="M102.092,-168.792C132.615,-176.151 172.108,-188.932 202,-210 231.332,-230.674 254.836,-266.405 266.662,-286.719"/>
<polygon fill="#9a32cd" stroke="#9a32cd" points="102.641,-165.327 92.1113,-166.499 101.074,-172.149 102.641,-165.327"/>
<text text-anchor="middle" x="164" y="-213" font-family="Helvetica,sans-Serif" font-size="10.00"> grid</text>
</g>
<!-- Node12 -->
<g id="node12" class="node"><title>Node12</title>
<g id="a_node12"><a xlink:title=" ">
<polygon fill="white" stroke="#bfbfbf" points="39,-94.5 39,-113.5 69,-113.5 69,-94.5 39,-94.5"/>
<text text-anchor="middle" x="54" y="-101.5" font-family="Helvetica,sans-Serif" font-size="10.00">real</text>
</a>
</g>
</g>
<!-- Node12&#45;&gt;Node1 -->
<g id="edge11" class="edge"><title>Node12&#45;&gt;Node1</title>
<path fill="none" stroke="#9a32cd" stroke-dasharray="5,2" d="M79.1956,-96.8791C110.6,-89.202 165.671,-81.2558 202,-107 262.463,-149.846 272.902,-249.115 274.662,-286.967"/>
<polygon fill="#9a32cd" stroke="#9a32cd" points="77.9219,-93.5952 69.1438,-99.5277 79.7056,-100.364 77.9219,-93.5952"/>
<text text-anchor="middle" x="164" y="-165" font-family="Helvetica,sans-Serif" font-size="10.00"> press_to_z</text>
<text text-anchor="middle" x="164" y="-154" font-family="Helvetica,sans-Serif" font-size="10.00">kv_iceberg</text>
<text text-anchor="middle" x="164" y="-143" font-family="Helvetica,sans-Serif" font-size="10.00">latent_heat_fusion</text>
<text text-anchor="middle" x="164" y="-132" font-family="Helvetica,sans-Serif" font-size="10.00">berg_area_threshold</text>
<text text-anchor="middle" x="164" y="-121" font-family="Helvetica,sans-Serif" font-size="10.00">density_iceberg</text>
<text text-anchor="middle" x="164" y="-110" font-family="Helvetica,sans-Serif" font-size="10.00">c_p</text>
</g>
<!-- Node13 -->
<g id="node13" class="node"><title>Node13</title>
<g id="a_node13"><a xlink:title=" ">
<polygon fill="white" stroke="#bfbfbf" points="33.5,-49.5 33.5,-68.5 74.5,-68.5 74.5,-49.5 33.5,-49.5"/>
<text text-anchor="middle" x="54" y="-56.5" font-family="Helvetica,sans-Serif" font-size="10.00">integer</text>
</a>
</g>
</g>
<!-- Node13&#45;&gt;Node1 -->
<g id="edge12" class="edge"><title>Node13&#45;&gt;Node1</title>
<path fill="none" stroke="#9a32cd" stroke-dasharray="5,2" d="M84.4983,-50.8088C116.791,-43.7472 168.432,-38.2909 202,-64 273.884,-119.055 277.003,-243.392 275.764,-286.745"/>
<polygon fill="#9a32cd" stroke="#9a32cd" points="83.6648,-47.4093 74.7411,-53.1205 85.2787,-54.2208 83.6648,-47.4093"/>
<text text-anchor="middle" x="164" y="-78" font-family="Helvetica,sans-Serif" font-size="10.00"> nstep</text>
<text text-anchor="middle" x="164" y="-67" font-family="Helvetica,sans-Serif" font-size="10.00">restart_control</text>
</g>
<!-- Node14 -->
<g id="node14" class="node"><title>Node14</title>
<g id="a_node14"><a xlink:title=" ">
<polygon fill="white" stroke="#bfbfbf" points="12.5,-0 12.5,-30 95.5,-30 95.5,-0 12.5,-0"/>
<text text-anchor="start" x="20.5" y="-18" font-family="Helvetica,sans-Serif" font-size="10.00">type(ice_shelf_cs),</text>
<text text-anchor="middle" x="54" y="-7" font-family="Helvetica,sans-Serif" font-size="10.00"> pointer</text>
</a>
</g>
</g>
<!-- Node14&#45;&gt;Node1 -->
<g id="edge13" class="edge"><title>Node14&#45;&gt;Node1</title>
<path fill="none" stroke="#9a32cd" stroke-dasharray="5,2" d="M105.908,-6.7652C137.112,-4.6814 175.936,-7.8166 202,-30 242.212,-64.225 266.536,-234.336 273.155,-286.66"/>
<polygon fill="#9a32cd" stroke="#9a32cd" points="105.309,-3.30386 95.6472,-7.65199 105.911,-10.2779 105.309,-3.30386"/>
<text text-anchor="middle" x="164" y="-33" font-family="Helvetica,sans-Serif" font-size="10.00"> ice_shelf_csp</text>
</g>
</g>
</svg>
        <g id="navigator" transform="translate(0 0)" fill="#404254">
                <rect fill="#f2f5e9" fill-opacity="0.5" stroke="#606060" stroke-width=".5" x="0" y="0" width="60" height="60"/>
                <use id="zoomplus" xlink:href="#zoomPlus" x="17" y="9" onmousedown="handleZoom(evt,'in')"/>
                <use id="zoomminus" xlink:href="#zoomMin" x="42" y="9" onmousedown="handleZoom(evt,'out')"/>
                <use id="reset" xlink:href="#resetDef" x="30" y="36" onmousedown="handleReset()"/>
                <g id="arrowUp" xlink:href="#dirArrow" transform="translate(30 24)" onmousedown="handlePan(0,-1)">
                  <use xlink:href="#rim" fill="#404040">
                        <set attributeName="fill" to="#808080" begin="arrowUp.mouseover" end="arrowUp.mouseout"/>
                  </use>
                  <path fill="none" stroke="white" stroke-width="1.5" d="M0,-3.0v7 M-2.5,-0.5L0,-3.0L2.5,-0.5"/>
                </g>
                <g id="arrowRight" xlink:href="#dirArrow" transform="rotate(90) translate(36 -43)" onmousedown="handlePan(1,0)">
                  <use xlink:href="#rim" fill="#404040">
                        <set attributeName="fill" to="#808080" begin="arrowRight.mouseover" end="arrowRight.mouseout"/>
                  </use>
                  <path fill="none" stroke="white" stroke-width="1.5" d="M0,-3.0v7 M-2.5,-0.5L0,-3.0L2.5,-0.5"/>
                </g>
                <g id="arrowDown" xlink:href="#dirArrow" transform="rotate(180) translate(-30 -48)" onmousedown="handlePan(0,1)">
                  <use xlink:href="#rim" fill="#404040">
                        <set attributeName="fill" to="#808080" begin="arrowDown.mouseover" end="arrowDown.mouseout"/>
                  </use>
                  <path fill="none" stroke="white" stroke-width="1.5" d="M0,-3.0v7 M-2.5,-0.5L0,-3.0L2.5,-0.5"/>
                </g>
                <g id="arrowLeft" xlink:href="#dirArrow" transform="rotate(270) translate(-36 17)" onmousedown="handlePan(-1,0)">
                  <use xlink:href="#rim" fill="#404040">
                        <set attributeName="fill" to="#808080" begin="arrowLeft.mouseover" end="arrowLeft.mouseout"/>
                  </use>
                  <path fill="none" stroke="white" stroke-width="1.5" d="M0,-3.0v7 M-2.5,-0.5L0,-3.0L2.5,-0.5"/>
                </g>
        </g>
        <svg viewBox="0 0 15 15" width="100%" height="30px" preserveAspectRatio="xMaxYMin meet">
         <g id="arrow_out" transform="scale(0.3 0.3)">
          <a xlink:href="structocean__model__mod_1_1ocean__state__type__coll__graph_org.svg" target="_base">
           <rect id="button" ry="5" rx="5" y="6" x="6" height="38" width="38"
                fill="#f2f5e9" fill-opacity="0.5" stroke="#606060" stroke-width="1.0"/>
           <path id="arrow"
             d="M 11.500037,31.436501 C 11.940474,20.09759 22.043105,11.32322 32.158766,21.979434 L 37.068811,17.246167 C 37.068811,17.246167 37.088388,32 37.088388,32 L 22.160133,31.978069 C 22.160133,31.978069 26.997745,27.140456 26.997745,27.140456 C 18.528582,18.264221 13.291696,25.230495 11.500037,31.436501 z"
             style="fill:#404040;"/>
          </a>
         </g>
        </svg>
</svg>
