<?xml version="1.0" encoding="UTF-8" standalone="no"?>
<!DOCTYPE svg PUBLIC "-//W3C//DTD SVG 1.1//EN"
 "http://www.w3.org/Graphics/SVG/1.1/DTD/svg11.dtd">
<!-- Generated by graphviz version 2.30.1 (20170916.1124)
 -->
<!-- Title: user_tracer_example::user_tracer_example_cs Pages: 1 -->
<svg width="396pt" height="435pt"
 viewBox="0.00 0.00 396.00 435.00" xmlns="http://www.w3.org/2000/svg" xmlns:xlink="http://www.w3.org/1999/xlink">
<g id="graph0" class="graph" transform="scale(1 1) rotate(0) translate(4 431)">
<title>user_tracer_example::user_tracer_example_cs</title>
<polygon fill="white" stroke="white" points="-4,5 -4,-431 393,-431 393,5 -4,5"/>
<!-- Node1 -->
<g id="node1" class="node"><title>Node1</title>
<g id="a_node1"><a xlink:title=" ">
<polygon fill="#bfbfbf" stroke="black" points="278.5,-196 278.5,-226 387.5,-226 387.5,-196 278.5,-196"/>
<text text-anchor="start" x="286.5" y="-214" font-family="Helvetica,sans-Serif" font-size="10.00">user_tracer_example</text>
<text text-anchor="middle" x="333" y="-203" font-family="Helvetica,sans-Serif" font-size="10.00">::user_tracer_example_cs</text>
</a>
</g>
</g>
<!-- Node2 -->
<g id="node2" class="node"><title>Node2</title>
<g id="a_node2"><a xlink:title=" ">
<polygon fill="white" stroke="#bfbfbf" points="110,-385.5 110,-404.5 148,-404.5 148,-385.5 110,-385.5"/>
<text text-anchor="middle" x="129" y="-392.5" font-family="Helvetica,sans-Serif" font-size="10.00">logical</text>
</a>
</g>
</g>
<!-- Node2&#45;&gt;Node1 -->
<g id="edge1" class="edge"><title>Node2&#45;&gt;Node1</title>
<path fill="none" stroke="#9a32cd" stroke-dasharray="5,2" d="M158.19,-397.489C186.767,-398.487 230.819,-395.652 260,-373 308.138,-335.632 324.883,-259.158 330,-226.424"/>
<polygon fill="#9a32cd" stroke="#9a32cd" points="158.229,-393.986 148.058,-396.952 157.859,-400.976 158.229,-393.986"/>
<text text-anchor="middle" x="231" y="-419" font-family="Helvetica,sans-Serif" font-size="10.00"> use_sponge</text>
<text text-anchor="middle" x="231" y="-408" font-family="Helvetica,sans-Serif" font-size="10.00">coupled_tracers</text>
<text text-anchor="middle" x="231" y="-397" font-family="Helvetica,sans-Serif" font-size="10.00">mask_tracers</text>
</g>
<!-- Node3 -->
<g id="node3" class="node"><title>Node3</title>
<g id="a_node3"><a xlink:href="structuser__tracer__example_1_1p3d.html" target="_top" xlink:title=" ">
<polygon fill="white" stroke="black" points="74,-346.5 74,-365.5 184,-365.5 184,-346.5 74,-346.5"/>
<text text-anchor="middle" x="129" y="-353.5" font-family="Helvetica,sans-Serif" font-size="10.00">user_tracer_example::p3d</text>
</a>
</g>
</g>
<!-- Node3&#45;&gt;Node1 -->
<g id="edge2" class="edge"><title>Node3&#45;&gt;Node1</title>
<path fill="none" stroke="#9a32cd" stroke-dasharray="5,2" d="M165.122,-342.758C202.928,-328.464 257.976,-307.522 260,-306 289.277,-283.987 312.488,-247 324.026,-226.268"/>
<polygon fill="#9a32cd" stroke="#9a32cd" points="163.568,-339.604 155.45,-346.412 166.041,-346.152 163.568,-339.604"/>
<text text-anchor="middle" x="231" y="-363" font-family="Helvetica,sans-Serif" font-size="10.00"> tr_adx</text>
<text text-anchor="middle" x="231" y="-352" font-family="Helvetica,sans-Serif" font-size="10.00">tr_dfx</text>
<text text-anchor="middle" x="231" y="-341" font-family="Helvetica,sans-Serif" font-size="10.00">tr_ady</text>
<text text-anchor="middle" x="231" y="-330" font-family="Helvetica,sans-Serif" font-size="10.00">tr_dfy</text>
</g>
<!-- Node4 -->
<g id="node4" class="node"><title>Node4</title>
<g id="a_node4"><a xlink:title=" ">
<polygon fill="white" stroke="#bfbfbf" points="0,-308.5 0,-327.5 30,-327.5 30,-308.5 0,-308.5"/>
<text text-anchor="middle" x="15" y="-315.5" font-family="Helvetica,sans-Serif" font-size="10.00">real</text>
</a>
</g>
</g>
<!-- Node4&#45;&gt;Node3 -->
<g id="edge3" class="edge"><title>Node4&#45;&gt;Node3</title>
<path fill="none" stroke="#9a32cd" stroke-dasharray="5,2" d="M39.6838,-326.036C57.2327,-331.99 81.2184,-340.128 99.7648,-346.42"/>
<polygon fill="#9a32cd" stroke="#9a32cd" points="40.7792,-322.711 30.1849,-322.813 38.5301,-329.34 40.7792,-322.711"/>
<text text-anchor="middle" x="52" y="-334" font-family="Helvetica,sans-Serif" font-size="10.00"> p</text>
</g>
<!-- Node4&#45;&gt;Node1 -->
<g id="edge10" class="edge"><title>Node4&#45;&gt;Node1</title>
<path fill="none" stroke="#9a32cd" stroke-dasharray="5,2" d="M40.0642,-311.861C97.5012,-297.155 239.369,-260.502 260,-252 277.156,-244.93 295.305,-234.574 309.089,-226.039"/>
<polygon fill="#9a32cd" stroke="#9a32cd" points="38.8873,-308.549 30.066,-314.417 40.6214,-315.331 38.8873,-308.549"/>
<text text-anchor="middle" x="129" y="-327" font-family="Helvetica,sans-Serif" font-size="10.00"> tr_aux</text>
<text text-anchor="middle" x="129" y="-316" font-family="Helvetica,sans-Serif" font-size="10.00">land_val</text>
<text text-anchor="middle" x="129" y="-305" font-family="Helvetica,sans-Serif" font-size="10.00">tr</text>
</g>
<!-- Node5 -->
<g id="node5" class="node"><title>Node5</title>
<g id="a_node5"><a xlink:title=" ">
<polygon fill="white" stroke="#bfbfbf" points="103.5,-239.5 103.5,-258.5 154.5,-258.5 154.5,-239.5 103.5,-239.5"/>
<text text-anchor="middle" x="129" y="-246.5" font-family="Helvetica,sans-Serif" font-size="10.00">time_type</text>
</a>
</g>
</g>
<!-- Node5&#45;&gt;Node1 -->
<g id="edge4" class="edge"><title>Node5&#45;&gt;Node1</title>
<path fill="none" stroke="#9a32cd" stroke-dasharray="5,2" d="M165.154,-243.077C191.341,-238.593 227.955,-232.171 260,-226 265.893,-224.865 272.049,-223.641 278.173,-222.4"/>
<polygon fill="#9a32cd" stroke="#9a32cd" points="164.233,-239.683 154.963,-244.814 165.409,-246.584 164.233,-239.683"/>
<text text-anchor="middle" x="231" y="-240" font-family="Helvetica,sans-Serif" font-size="10.00"> time</text>
</g>
<!-- Node6 -->
<g id="node6" class="node"><title>Node6</title>
<g id="a_node6"><a xlink:title=" ">
<polygon fill="white" stroke="#bfbfbf" points="85,-201.5 85,-220.5 173,-220.5 173,-201.5 85,-201.5"/>
<text text-anchor="middle" x="129" y="-208.5" font-family="Helvetica,sans-Serif" font-size="10.00">tracer_registry_type</text>
</a>
</g>
</g>
<!-- Node6&#45;&gt;Node1 -->
<g id="edge5" class="edge"><title>Node6&#45;&gt;Node1</title>
<path fill="none" stroke="#9a32cd" stroke-dasharray="5,2" d="M183.389,-211C212.697,-211 248.94,-211 278.298,-211"/>
<polygon fill="#9a32cd" stroke="#9a32cd" points="183.334,-207.5 173.334,-211 183.334,-214.5 183.334,-207.5"/>
<text text-anchor="middle" x="231" y="-214" font-family="Helvetica,sans-Serif" font-size="10.00"> tr_reg</text>
</g>
<!-- Node7 -->
<g id="node7" class="node"><title>Node7</title>
<g id="a_node7"><a xlink:title=" ">
<polygon fill="white" stroke="#bfbfbf" points="86.5,-163.5 86.5,-182.5 171.5,-182.5 171.5,-163.5 86.5,-163.5"/>
<text text-anchor="middle" x="129" y="-170.5" font-family="Helvetica,sans-Serif" font-size="10.00">character(len=200)</text>
</a>
</g>
</g>
<!-- Node7&#45;&gt;Node1 -->
<g id="edge6" class="edge"><title>Node7&#45;&gt;Node1</title>
<path fill="none" stroke="#9a32cd" stroke-dasharray="5,2" d="M181.548,-181.75C205.443,-185.902 234.202,-191.032 260,-196 265.893,-197.135 272.049,-198.359 278.173,-199.6"/>
<polygon fill="#9a32cd" stroke="#9a32cd" points="182.077,-178.29 171.627,-180.035 180.884,-185.188 182.077,-178.29"/>
<text text-anchor="middle" x="231" y="-199" font-family="Helvetica,sans-Serif" font-size="10.00"> tracer_ic_file</text>
</g>
<!-- Node8 -->
<g id="node8" class="node"><title>Node8</title>
<g id="a_node8"><a xlink:title=" ">
<polygon fill="white" stroke="#bfbfbf" points="107,-125.5 107,-144.5 151,-144.5 151,-125.5 107,-125.5"/>
<text text-anchor="middle" x="129" y="-132.5" font-family="Helvetica,sans-Serif" font-size="10.00">vardesc</text>
</a>
</g>
</g>
<!-- Node8&#45;&gt;Node1 -->
<g id="edge7" class="edge"><title>Node8&#45;&gt;Node1</title>
<path fill="none" stroke="#9a32cd" stroke-dasharray="5,2" d="M161.174,-141.443C187.946,-147.489 227.283,-157.604 260,-171 276.674,-177.827 294.376,-187.624 308.056,-195.813"/>
<polygon fill="#9a32cd" stroke="#9a32cd" points="161.74,-137.984 151.221,-139.252 160.235,-144.82 161.74,-137.984"/>
<text text-anchor="middle" x="231" y="-174" font-family="Helvetica,sans-Serif" font-size="10.00"> tr_desc</text>
</g>
<!-- Node9 -->
<g id="node9" class="node"><title>Node9</title>
<g id="a_node9"><a xlink:title=" ">
<polygon fill="white" stroke="#bfbfbf" points="105.5,-87.5 105.5,-106.5 152.5,-106.5 152.5,-87.5 105.5,-87.5"/>
<text text-anchor="middle" x="129" y="-94.5" font-family="Helvetica,sans-Serif" font-size="10.00">diag_ctrl</text>
</a>
</g>
</g>
<!-- Node9&#45;&gt;Node1 -->
<g id="edge8" class="edge"><title>Node9&#45;&gt;Node1</title>
<path fill="none" stroke="#9a32cd" stroke-dasharray="5,2" d="M162.425,-102.654C189.899,-108.478 229.567,-119.387 260,-138 285.209,-153.417 307.999,-179.535 320.907,-195.993"/>
<polygon fill="#9a32cd" stroke="#9a32cd" points="163.03,-99.206 152.536,-100.666 161.65,-106.069 163.03,-99.206"/>
<text text-anchor="middle" x="231" y="-141" font-family="Helvetica,sans-Serif" font-size="10.00"> diag</text>
</g>
<!-- Node10 -->
<g id="node10" class="node"><title>Node10</title>
<g id="a_node10"><a xlink:title=" ">
<polygon fill="white" stroke="#bfbfbf" points="108.5,-0.5 108.5,-19.5 149.5,-19.5 149.5,-0.5 108.5,-0.5"/>
<text text-anchor="middle" x="129" y="-7.5" font-family="Helvetica,sans-Serif" font-size="10.00">integer</text>
</a>
</g>
</g>
<!-- Node10&#45;&gt;Node1 -->
<g id="edge9" class="edge"><title>Node10&#45;&gt;Node1</title>
<path fill="none" stroke="#9a32cd" stroke-dasharray="5,2" d="M159.878,-10.2713C188.675,-12.0643 231.906,-18.9861 260,-43 308.002,-84.0298 324.883,-162.787 330.02,-195.825"/>
<polygon fill="#9a32cd" stroke="#9a32cd" points="159.756,-6.7624 149.609,-9.81029 159.442,-13.7554 159.756,-6.7624"/>
<text text-anchor="middle" x="231" y="-101" font-family="Helvetica,sans-Serif" font-size="10.00"> id_tracer</text>
<text text-anchor="middle" x="231" y="-90" font-family="Helvetica,sans-Serif" font-size="10.00">id_tr_dfx</text>
<text text-anchor="middle" x="231" y="-79" font-family="Helvetica,sans-Serif" font-size="10.00">id_tr_dfy</text>
<text text-anchor="middle" x="231" y="-68" font-family="Helvetica,sans-Serif" font-size="10.00">id_tr_adx</text>
<text text-anchor="middle" x="231" y="-57" font-family="Helvetica,sans-Serif" font-size="10.00">ind_tr</text>
<text text-anchor="middle" x="231" y="-46" font-family="Helvetica,sans-Serif" font-size="10.00">id_tr_ady</text>
</g>
</g>
</svg>
