<?xml version="1.0" encoding="UTF-8" standalone="no"?>
<!DOCTYPE svg PUBLIC "-//W3C//DTD SVG 1.1//EN"
 "http://www.w3.org/Graphics/SVG/1.1/DTD/svg11.dtd">
<!-- Generated by graphviz version 2.30.1 (20170916.1124)
 -->
<!-- Title: mom_get_input::directories Pages: 1 -->
<svg width="131pt" height="128pt"
 viewBox="0.00 0.00 131.00 128.00" xmlns="http://www.w3.org/2000/svg" xmlns:xlink="http://www.w3.org/1999/xlink">
<g id="graph0" class="graph" transform="scale(1 1) rotate(0) translate(4 124)">
<title>mom_get_input::directories</title>
<polygon fill="white" stroke="white" points="-4,5 -4,-124 128,-124 128,5 -4,5"/>
<!-- Node1 -->
<g id="node1" class="node"><title>Node1</title>
<g id="a_node1"><a xlink:title=" ">
<polygon fill="#bfbfbf" stroke="black" points="-0.5,-0.5 -0.5,-19.5 112.5,-19.5 112.5,-0.5 -0.5,-0.5"/>
<text text-anchor="middle" x="56" y="-7.5" font-family="Helvetica,sans-Serif" font-size="10.00">mom_get_input::directories</text>
</a>
</g>
</g>
<!-- Node2 -->
<g id="node2" class="node"><title>Node2</title>
<g id="a_node2"><a xlink:title=" ">
<polygon fill="white" stroke="#bfbfbf" points="13.5,-100.5 13.5,-119.5 98.5,-119.5 98.5,-100.5 13.5,-100.5"/>
<text text-anchor="middle" x="56" y="-107.5" font-family="Helvetica,sans-Serif" font-size="10.00">character(len=240)</text>
</a>
</g>
</g>
<!-- Node2&#45;&gt;Node1 -->
<g id="edge1" class="edge"><title>Node2&#45;&gt;Node1</title>
<path fill="none" stroke="#9a32cd" stroke-dasharray="5,2" d="M56,-90.2203C56,-68.9514 56,-35.2197 56,-19.5374"/>
<polygon fill="#9a32cd" stroke="#9a32cd" points="52.5001,-90.3031 56,-100.303 59.5001,-90.3032 52.5001,-90.3031"/>
<text text-anchor="middle" x="89.5" y="-74" font-family="Helvetica,sans-Serif" font-size="10.00"> restart_output_dir</text>
<text text-anchor="middle" x="89.5" y="-63" font-family="Helvetica,sans-Serif" font-size="10.00">output_directory</text>
<text text-anchor="middle" x="89.5" y="-52" font-family="Helvetica,sans-Serif" font-size="10.00">input_filename</text>
<text text-anchor="middle" x="89.5" y="-41" font-family="Helvetica,sans-Serif" font-size="10.00">restart_input_dir</text>
</g>
</g>
</svg>
